<svg xmlns="http://www.w3.org/2000/svg" width="1295.371" height="262.906" viewBox="0 0 1295.371 262.906">
  <defs>
    <style>
      .cls-1 {
        fill: #8e8e8e;
        fill-rule: evenodd;
      }
    </style>
  </defs>
  <path id="file-input" class="cls-1" d="M132.047,148.94a33.022,33.022,0,0,1,20.444,6.912l8.011-20.183a40.412,40.412,0,0,0-13.26-6.359,60.129,60.129,0,0,0-16.576-2.212q-22.935,0-35.639,12.718t-12.708,34.56V187.37H57.455v21.842H82.319V333.9h26.522V209.212h41.992V187.37H108.288V174.652q0-25.711,23.759-25.712h0ZM198.075,333.9H224.6V187.37H198.075V333.9Zm13.261-174.734a17.413,17.413,0,0,0,12.846-5.114,17.111,17.111,0,0,0,5.111-12.58,15.9,15.9,0,0,0-5.111-12.027,17.968,17.968,0,0,0-12.846-4.838,17.413,17.413,0,0,0-12.847,5.115,16.774,16.774,0,0,0-5.111,12.3,16.315,16.315,0,0,0,5.111,12.165,17.665,17.665,0,0,0,12.847,4.976h0ZM275.15,333.9h26.522V128.757H275.15V333.9Zm209.408-72.437q0-22.116-9.255-39.26a67.013,67.013,0,0,0-25.692-26.68q-16.44-9.538-37.435-9.538t-37.71,9.538a68.293,68.293,0,0,0-26.245,26.68q-9.531,17.147-9.532,38.431,0,21.565,9.808,38.707a67.946,67.946,0,0,0,27.765,26.68q17.955,9.539,41.163,9.538a85.989,85.989,0,0,0,33.014-6.082,64.126,64.126,0,0,0,24.726-17.695l-14.642-17.142q-16.026,17.7-42.269,17.7-21.549,0-36.053-11.75t-16.99-31.1H484.006a76.419,76.419,0,0,0,.552-8.018h0Zm-72.382-53.084q19.064,0,31.909,11.751t15.057,30.274H365.211q2.208-18.8,15.057-30.413t31.908-11.612h0Zm102.494,61.1h74.315V246.536H514.67v22.948Zm115.2,64.419h26.521V187.37H629.872V333.9Zm13.26-174.734a17.415,17.415,0,0,0,12.847-5.114,17.111,17.111,0,0,0,5.111-12.58,15.9,15.9,0,0,0-5.111-12.027,17.97,17.97,0,0,0-12.847-4.838,17.413,17.413,0,0,0-12.846,5.115,16.774,16.774,0,0,0-5.111,12.3,16.315,16.315,0,0,0,5.111,12.165,17.664,17.664,0,0,0,12.846,4.976h0Zm142,26.819q-17.4,0-31.08,6.082a51.579,51.579,0,0,0-21.687,17.418V187.37H706.948V333.9h26.521V258.425q0-23.5,12.432-36.08t33.981-12.58q19.062,0,29.284,10.782t10.222,32.072V333.9H845.91V249.578q0-31.24-16.438-47.416t-44.341-16.174h0Zm187.585,0a70.586,70.586,0,0,0-29.837,6.22A56.319,56.319,0,0,0,920.5,210.594V187.37H895.085V387.54h26.522V311.785a60.018,60.018,0,0,0,22.239,17.695,67.789,67.789,0,0,0,28.87,6.082q21.27,0,38.124-9.4a67.306,67.306,0,0,0,26.38-26.4q9.54-17,9.54-39.121t-9.54-38.984a67.611,67.611,0,0,0-26.38-26.265q-16.853-9.4-38.124-9.4h0Zm-2.21,126.35a49.594,49.594,0,0,1-25.14-6.5,45.5,45.5,0,0,1-17.681-18.248q-6.358-11.748-6.354-26.956t6.492-26.819A47.048,47.048,0,0,1,945.5,215.709a48.889,48.889,0,0,1,25-6.5,50.26,50.26,0,0,1,25.278,6.359,45.9,45.9,0,0,1,17.686,18.109q6.48,11.755,6.49,26.957t-6.49,26.956a46.81,46.81,0,0,1-17.686,18.248,49.391,49.391,0,0,1-25.278,6.5h0ZM1193.45,187.37v75.755q0,23.225-12.15,35.942t-33.16,12.718q-19.065,0-29.28-10.921t-10.22-32.209V187.37h-26.52V271.7q0,31.518,16.85,47.692t46.13,16.174a65.9,65.9,0,0,0,28.6-6.221,53.324,53.324,0,0,0,21.13-17.556V333.9h25.14V187.37h-26.52Zm151.12,118.886q-8.58,6.914-20.72,6.911-11.055,0-17-6.359t-5.93-18.247V209.212h41.99V187.37h-41.99V155.3h-26.53V187.37h-24.86v21.842h24.86v80.455q0,22.122,12.16,34.007t34.26,11.888a60.063,60.063,0,0,0,17.68-2.626,39.528,39.528,0,0,0,14.36-7.6Z" transform="translate(-57.469 -124.625)"/>
</svg>
