<svg xmlns="http://www.w3.org/2000/svg" width="897.281" height="197.969" viewBox="0 0 897.281 197.969">
  <defs>
    <style>
      .cls-1 {
        fill: #f9d142;
        fill-rule: evenodd;
      }
    </style>
  </defs>
  <path id="JSCPP" class="cls-1" d="M305.818,336.115q29.837,0,45.169-16.174T366.32,271.7V140.369H269.074v24.053h69.9V273.078q0,19.356-8.427,29.307t-24.725,9.953q-24.315,0-40.335-22.948l-16.024,18.8a61.449,61.449,0,0,0,24.035,20.6,72.308,72.308,0,0,0,32.324,7.327h0Zm173.215,0q24.585,0,41.44-7.327t25.14-19.906A49.44,49.44,0,0,0,553.9,281.1q0-18.248-9.531-29.03a59.082,59.082,0,0,0-22.792-16.036q-13.262-5.249-35.086-10.506a255.3,255.3,0,0,1-26.66-7.327,45.954,45.954,0,0,1-16.438-9.676q-6.63-6.222-6.63-16.174,0-13.543,11.741-22.119t35.224-8.57a96.961,96.961,0,0,1,27.074,4.009,100.17,100.17,0,0,1,25.969,11.75l9.117-22.118a89.665,89.665,0,0,0-28.455-12.718,130.31,130.31,0,0,0-33.7-4.424q-24.592,0-41.164,7.465T417.84,165.528a49.839,49.839,0,0,0-8.15,27.925q0,18.525,9.531,29.444a58.156,58.156,0,0,0,22.93,16.174q13.4,5.256,35.224,10.507,17.4,4.146,26.936,7.464a43.421,43.421,0,0,1,16.023,9.539q6.489,6.221,6.493,16.174,0,13.55-11.88,21.7t-35.914,8.157a103.971,103.971,0,0,1-35.5-6.221q-17.268-6.221-28.317-16.174l-10.222,21.565q11.6,10.782,31.909,17.556a132.162,132.162,0,0,0,42.131,6.774h0Zm201.671,0a108.8,108.8,0,0,0,41.578-7.741A85.938,85.938,0,0,0,754.467,305.7L736.51,288.284q-22.107,23.225-54.425,23.225-21.549,0-38.954-9.677a70.127,70.127,0,0,1-27.212-26.68,78.586,78.586,0,0,1,0-76.032,70.154,70.154,0,0,1,27.212-26.68q17.406-9.673,38.954-9.676,32.6,0,54.425,22.947l17.957-17.418A84.865,84.865,0,0,0,722.42,145.76a109.538,109.538,0,0,0-41.44-7.6q-29.009,0-52.491,12.856A94.3,94.3,0,0,0,591.746,186.4q-13.261,22.538-13.261,50.734t13.261,50.734a94.508,94.508,0,0,0,36.605,35.389q23.343,12.856,52.353,12.856h0ZM869.392,140.369H793.971V333.9H821.6V275.29h47.8q37.567,0,59.121-17.971t21.548-49.49q0-31.518-21.548-49.489t-59.121-17.971h0Zm-0.829,110.867H821.6V164.422h46.966q26.242,0,40.058,11.2t13.814,32.209q0,21.015-13.814,32.21t-40.058,11.2h0ZM1066.09,140.369H990.67V333.9h27.63V275.29h47.79q37.575,0,59.12-17.971t21.55-49.49q0-31.518-21.55-49.489t-59.12-17.971h0Zm-0.83,110.867H1018.3V164.422h46.96q26.25,0,40.06,11.2t13.81,32.209q0,21.015-13.81,32.21t-40.06,11.2h0Z" transform="translate(-249.469 -138.156)"/>
</svg>
