<svg xmlns="http://www.w3.org/2000/svg" width="953.942" height="249.093" viewBox="0 0 953.942 249.093">
  <defs>
    <style>
      .cls-1 {
        fill: #428bca;
        fill-rule: evenodd;
      }
    </style>
  </defs>
  <path id="WysiBB" class="cls-1" d="M284.681,333.9h24.035l50.419-151.1q0.688-2.073,1.312-4.631t1.312-5.322a83.129,83.129,0,0,0,2.763,9.953l50.142,151.1H438.7l61.746-198.1H479.587a9.1,9.1,0,0,0-5.871,1.935,8.642,8.642,0,0,0-3.108,4.424L429.583,279.852a59.323,59.323,0,0,0-1.8,7.741q-0.693,4.147-1.52,8.709a135.282,135.282,0,0,0-4.42-16.45L375.572,142.166a9.828,9.828,0,0,0-3.246-4.562,9.2,9.2,0,0,0-5.87-1.8H358.72a8.9,8.9,0,0,0-5.87,2,10.123,10.123,0,0,0-3.247,4.355l-46.55,137.686a72.25,72.25,0,0,0-2.211,7.949q-0.967,4.355-1.933,9.054-0.829-4.7-1.727-8.985t-2-8.018L254.291,142.166a8.818,8.818,0,0,0-3.177-4.562,9.5,9.5,0,0,0-5.939-1.8h-22.24ZM641.755,193.867H622.14a7.252,7.252,0,0,0-4.351,1.452,7.864,7.864,0,0,0-2.832,3.663L578.628,287.04q-1.244,3.181-2.21,6.221t-1.934,6.221q-0.693-3.179-1.589-6.221a64.389,64.389,0,0,0-2.141-6.082l-37.434-88.2a9.988,9.988,0,0,0-2.625-3.525,7.252,7.252,0,0,0-4.972-1.59H504.45l57.74,131.88-25.555,55.572h18.234q3.865,0,5.732-1.659a12.869,12.869,0,0,0,3.108-4.423Zm108.018,14.1A58.694,58.694,0,0,0,730.78,196.01a66.808,66.808,0,0,0-24.795-4.354,62.412,62.412,0,0,0-21.135,3.317,47.592,47.592,0,0,0-15.609,8.917,37.8,37.8,0,0,0-9.669,12.994,37.29,37.29,0,0,0-3.315,15.414,34.208,34.208,0,0,0,3.108,15.275,32.2,32.2,0,0,0,8.219,10.575,46.99,46.99,0,0,0,11.672,7.12q6.56,2.835,13.4,5.045t13.4,4.217a67.069,67.069,0,0,1,11.672,4.7,26.251,26.251,0,0,1,8.219,6.5,14.685,14.685,0,0,1,3.108,9.608,22.785,22.785,0,0,1-1.727,8.847,19.987,19.987,0,0,1-5.318,7.327,26.38,26.38,0,0,1-8.978,5.045,38.417,38.417,0,0,1-12.57,1.867,43.356,43.356,0,0,1-14.021-1.936,51.336,51.336,0,0,1-9.531-4.285q-3.937-2.349-6.7-4.286a9.262,9.262,0,0,0-5.249-1.935,7.378,7.378,0,0,0-4.006.968,8.439,8.439,0,0,0-2.624,2.764l-5.8,9.4A67.21,67.21,0,0,0,672.7,331.346a70.618,70.618,0,0,0,26.521,4.769,68.083,68.083,0,0,0,22.654-3.456,49.256,49.256,0,0,0,16.576-9.469,39.087,39.087,0,0,0,10.222-14.239,45.792,45.792,0,0,0,3.453-17.9,31.125,31.125,0,0,0-3.108-14.446,31.626,31.626,0,0,0-8.219-10.16,48.4,48.4,0,0,0-11.6-6.912q-6.494-2.765-13.33-5.046T702.532,250.2a71.4,71.4,0,0,1-11.6-4.631,26.972,26.972,0,0,1-8.219-6.221,13.248,13.248,0,0,1-3.108-8.986,17.276,17.276,0,0,1,1.865-7.948,19.277,19.277,0,0,1,5.387-6.428,26.894,26.894,0,0,1,8.5-4.355,36.712,36.712,0,0,1,11.188-1.59,43.2,43.2,0,0,1,12.432,1.59,60.528,60.528,0,0,1,9.048,3.456q3.8,1.866,6.423,3.387a9.594,9.594,0,0,0,4.7,1.52,5.449,5.449,0,0,0,5.111-3.041Zm37.017-14.1V333.9h24.588V193.867H786.79Zm28.663-50.8a18.791,18.791,0,0,0-3.868-5.668,18.022,18.022,0,0,0-5.594-3.8,16.816,16.816,0,0,0-6.769-1.382,16.314,16.314,0,0,0-6.7,1.382A18.248,18.248,0,0,0,787,137.4a17.738,17.738,0,0,0-3.8,5.668,17.29,17.29,0,0,0-1.382,6.842,16.31,16.31,0,0,0,1.382,6.7,18.407,18.407,0,0,0,9.324,9.331,16.282,16.282,0,0,0,6.7,1.382,16.783,16.783,0,0,0,6.769-1.382,17.951,17.951,0,0,0,5.594-3.8,19.323,19.323,0,0,0,3.868-5.53,15.663,15.663,0,0,0,1.45-6.7A16.6,16.6,0,0,0,815.453,143.065ZM928.652,333.9a97.877,97.877,0,0,0,29.492-4.078,63.117,63.117,0,0,0,21.825-11.543,49.185,49.185,0,0,0,13.537-17.833,55.685,55.685,0,0,0,4.627-22.947q0-18.523-11.05-29.86t-32.738-15.621a64.6,64.6,0,0,0,16.369-7.465,48.879,48.879,0,0,0,11.6-10.368,41.127,41.127,0,0,0,6.907-12.579,43.922,43.922,0,0,0,2.279-14.1,54.941,54.941,0,0,0-4.075-21.634,40.364,40.364,0,0,0-12.57-16.243q-8.5-6.636-21.687-10.23t-31.425-3.594H858.619V333.9h70.033Zm-0.552-90.27q21.963,0,32.806,8.917t10.844,24.261a40.479,40.479,0,0,1-2.487,14.446,28.674,28.674,0,0,1-7.8,11.335,36.687,36.687,0,0,1-13.537,7.4,65.037,65.037,0,0,1-19.684,2.627H885.416V243.633H928.1Zm-42.684-86.675h36.33q22.1,0,32.6,8.156t10.5,25.574a35.4,35.4,0,0,1-2.624,13.755,27.027,27.027,0,0,1-8.081,10.713,39.677,39.677,0,0,1-13.744,6.912,68.613,68.613,0,0,1-19.615,2.488H885.416v-67.6ZM1107.39,333.9a97.859,97.859,0,0,0,29.49-4.078,63.133,63.133,0,0,0,21.83-11.543,49.215,49.215,0,0,0,13.54-17.833,55.747,55.747,0,0,0,4.62-22.947q0-18.523-11.05-29.86t-32.73-15.621a64.538,64.538,0,0,0,16.36-7.465,48.975,48.975,0,0,0,11.61-10.368,40.98,40.98,0,0,0,6.9-12.579,43.9,43.9,0,0,0,2.28-14.1,55.03,55.03,0,0,0-4.07-21.634,40.417,40.417,0,0,0-12.57-16.243q-8.49-6.636-21.69-10.23t-31.42-3.594h-63.13V333.9h70.03Zm-0.55-90.27q21.96,0,32.81,8.917t10.84,24.261a40.435,40.435,0,0,1-2.49,14.446,28.634,28.634,0,0,1-7.8,11.335,36.717,36.717,0,0,1-13.54,7.4,65.018,65.018,0,0,1-19.68,2.627h-42.82V243.633h42.68Zm-42.68-86.675h36.33q22.1,0,32.6,8.156,10.485,8.157,10.49,25.574a35.362,35.362,0,0,1-2.62,13.755,26.988,26.988,0,0,1-8.08,10.713,39.672,39.672,0,0,1-13.75,6.912,68.542,68.542,0,0,1-19.61,2.488h-35.36v-67.6Z" transform="translate(-222.938 -132.219)"/>
</svg>
