<?xml version="1.0" encoding="UTF-8"?><svg id="Calque_2" xmlns="http://www.w3.org/2000/svg" xmlns:xlink="http://www.w3.org/1999/xlink" viewBox="0 0 213.05 217.87" width="213.05" height="217.87"><defs><style>.cls-1,.cls-2{fill:#e6e6e6;}.cls-3,.cls-4{fill:#fff;}.cls-5{fill:url(#Dégradé_sans_nom_13);}.cls-6{fill:url(#Dégradé_sans_nom_17);}.cls-4,.cls-2,.cls-7{stroke:#000;stroke-miterlimit:10;}.cls-7{fill:none;}.cls-8{fill:url(#Dégradé_sans_nom_8);}.cls-9{fill:url(#Dégradé_sans_nom_4);}.cls-10{fill:url(#Dégradé_sans_nom_13-2);}.cls-11{fill:url(#Dégradé_sans_nom_8-2);}.cls-12{fill:url(#Dégradé_sans_nom_4-2);}</style><linearGradient id="Dégradé_sans_nom_13" x1="60.23" y1="169.71" x2="83.51" y2="167.45" gradientTransform="translate(-2.41 215.46) rotate(-90)" gradientUnits="userSpaceOnUse"><stop offset="0" stop-color="#e1ffff"/><stop offset="1" stop-color="#13c3d4"/></linearGradient><linearGradient id="Dégradé_sans_nom_8" x1="65.85" y1="150.27" x2="72.45" y2="149.63" gradientTransform="translate(-2.41 215.46) rotate(-90)" gradientUnits="userSpaceOnUse"><stop offset="0" stop-color="#10638b"/><stop offset=".5" stop-color="#0daac3"/><stop offset="1" stop-color="#12697f"/></linearGradient><linearGradient id="Dégradé_sans_nom_4" x1="69.72" y1="165.61" x2="93.58" y2="163.29" gradientTransform="translate(-2.41 215.46) rotate(-90)" gradientUnits="userSpaceOnUse"><stop offset="0" stop-color="#10638b"/><stop offset="1" stop-color="#0daac3"/></linearGradient><linearGradient id="Dégradé_sans_nom_13-2" x1="152.89" y1="169.76" x2="129.61" y2="167.6" xlink:href="#Dégradé_sans_nom_13"/><linearGradient id="Dégradé_sans_nom_8-2" x1="147.18" y1="150.35" x2="140.57" y2="149.73" xlink:href="#Dégradé_sans_nom_8"/><linearGradient id="Dégradé_sans_nom_4-2" x1="143.38" y1="165.68" x2="119.51" y2="163.46" xlink:href="#Dégradé_sans_nom_4"/><linearGradient id="Dégradé_sans_nom_17" x1="99.68" y1="181.21" x2="117.49" y2="179.48" gradientTransform="translate(-2.41 215.46) rotate(-90)" gradientUnits="userSpaceOnUse"><stop offset="0" stop-color="#0daac3"/><stop offset="1" stop-color="#10638b"/></linearGradient></defs><g id="Calque_1-2"><g id="buddy_top"><g id="body"><path class="cls-4" d="M99.35,5.45C44.38,7.66,.5,52.9,.5,108.41c0,53.93,41.43,98.16,94.19,102.66,12.5,3.91,28.83,6.29,46.71,6.29,39.29,0,71.14-11.45,71.14-25.56,0-3.49-1.95-6.81-5.47-9.84-9.72-8.36-13.42-21.88-8.45-33.7s8.01-25.72,8.01-39.86-2.76-27.16-7.75-39.26c-4.83-11.71-1.18-25.05,8.35-33.38,3.42-2.99,5.31-6.26,5.31-9.7,0-14.12-31.85-25.56-71.14-25.56-15.74,0-30.27,1.84-42.05,4.95Z"/><path class="cls-7" d="M142.09,217.37c-38.91,0-70.45-11.41-70.45-25.49"/><path class="cls-7" d="M71.64,25.99c0-14.08,31.54-25.49,70.45-25.49"/></g><ellipse id="neck" class="cls-2" cx="94.06" cy="110.17" rx="80.66" ry="38.52"/><path id="head" class="cls-4" d="M125.66,8.63c25.74,0,48.53,16.49,62.5,41.81l-1.65,119.86c-14.07,23.68-36.09,38.92-60.84,38.92-42.48,0-76.92-44.91-76.92-100.3S83.18,8.63,125.66,8.63Z"/><g id="screen"><path class="cls-4" d="M188.39,58.15l.78,12.27c1.65,25.94,1.63,51.97-.04,77.91l-.74,11.39c0,13-9.51,23.64-21.13,23.64l-29.06,5.45c-11.62,0-21.13-10.64-21.13-23.64l-.27-3.14c-3.06-35.02-3.08-70.28-.07-105.3l.35-4.02c0-13,9.51-23.64,21.13-23.64l29.06,5.45c11.62,0,21.13,10.64,21.13,23.64Z"/><path class="cls-4" d="M182.64,70.97v75.92c0,9.72-7.11,17.67-15.8,17.67l-21.73,4.08c-8.69,0-15.8-7.95-15.8-17.67V66.9c0-9.72,7.11-17.67,15.8-17.67l21.73,4.08c8.69,0,15.8,7.95,15.8,17.67Z"/></g><path id="camera" d="M115.4,139.35l4.08-2.57c1.59-1,2.55-2.74,2.55-4.62v-46.62c0-1.99-1.09-3.82-2.83-4.78l-4.11-2.25,.31,60.84Z"/><g id="face"><g><path class="cls-1" d="M132.86,138.32c1.65-10.33,10.18-16,17.75-17.02,2.59-.4,5.2-.38,7.76,0-2.58,.27-5.12,.59-7.62,1.2-7.31,1.67-15.01,6.48-17.89,15.83h0Z"/><path class="cls-5" d="M164.8,154.6c.21-2,.4-3.86,.58-5.73,.17-1.86,.33-3.69,.44-5.53,.1-1.84,.23-3.68,.28-5.56,.07-.94,.06-1.88,.13-2.85,.06-.96,.07-1.93,.19-2.95,.2,.44,.37,.89,.53,1.34,.16,.46,.33,.92,.44,1.39,.23,.95,.47,1.91,.59,2.89,.31,1.96,.34,3.98,.23,5.98-.12,2-.47,3.97-1.01,5.85-.55,1.87-1.29,3.69-2.4,5.14Z"/><path d="M141.82,138.76c.49,6.49,3.83,11.72,8.27,13.88-.44,.79-.67,1.77-.59,2.81,.17,2.3,1.76,3.98,3.55,3.76s3.1-2.27,2.92-4.56c-.03-.35-.09-.67-.18-.99,.04,0,.07,0,.11,0,7.09-.88,12.27-8.98,11.58-18.09-.69-9.11-6.99-15.77-14.08-14.89-7.09,.88-12.27,8.98-11.58,18.09Z"/><ellipse class="cls-3" cx="152.97" cy="136.64" rx="2.87" ry="3.69"/><ellipse class="cls-3" cx="156.92" cy="141.83" rx="1.3" ry="1.67"/><path class="cls-3" d="M162.59,157.38c.3-2.09-.12-4.25-.44-6.3-.27-2.12-1.01-4.1-1.28-6.21-.16-1.47-.27-2.92-.11-4.44,0-.07,.06-.12,.11-.11,1.2,1.74,1.88,3.89,2.13,6.13,.23,3.64,.86,7.54-.25,11.04-.06,.13-.21,.03-.16-.11h0Z"/><path class="cls-8" d="M149.64,149.21c-1.01-.49-1.89-1.36-2.62-2.37-.19-.25-.35-.53-.52-.8-.15-.29-.32-.56-.44-.87-.28-.59-.48-1.25-.63-1.91,.3,.57,.58,1.14,.9,1.67,.31,.54,.64,1.05,1,1.54,.35,.5,.72,.96,1.11,1.42,.39,.45,.78,.9,1.2,1.32Z"/><path class="cls-9" d="M157.36,122.92c1.74,.52,3.36,1.67,4.73,3.22,1.39,1.52,2.44,3.57,3.11,5.78,.62,2.24,.83,4.7,.49,7.01-.3,2.31-1.04,4.52-2.17,6.29,.7-2.09,1.13-4.26,1.24-6.43,.04-.54,.02-1.08,.03-1.62-.03-.54-.04-1.08-.12-1.6-.09-1.07-.33-2.1-.6-3.11-.3-1-.64-1.98-1.11-2.88-.2-.47-.47-.89-.71-1.34-.28-.41-.53-.85-.82-1.24-1.15-1.6-2.53-2.97-4.08-4.08Z"/><path class="cls-1" d="M135.26,142.14c1.89,1.56,3.34,3.81,3.94,6.6,.08,.38,.03,.78,.02,1.15-.09,1,.34,1.95,.87,2.57,.66,.98,1.39,1.72,2.16,2.67,.03,.03,.03,.09,0,.12-1.16,.08-2.4-.72-2.99-2.07-.49-1.29-.22-2.69-.59-3.97-1.34-2.21-2.79-4.22-3.51-6.98-.02-.07,.04-.14,.09-.1h0Z"/></g><g><path class="cls-1" d="M132.97,79.65c2.91,9.33,10.63,14.1,17.95,15.73,2.5,.59,5.05,.9,7.63,1.16-2.57,.39-5.17,.41-7.76,.03-7.57-.97-16.12-6.6-17.81-16.92h0Z"/><path class="cls-10" d="M164.86,63.2c1.12,1.45,1.86,3.27,2.42,5.13,.54,1.88,.9,3.85,1.03,5.85,.12,2,.09,4.01-.21,5.98-.12,.99-.35,1.95-.58,2.9-.11,.48-.28,.94-.44,1.39-.16,.46-.33,.91-.53,1.35-.13-1.02-.14-1.98-.2-2.95-.07-.96-.07-1.9-.14-2.85-.06-1.87-.19-3.72-.3-5.55-.12-1.84-.28-3.67-.46-5.53-.18-1.86-.38-3.73-.6-5.72Z"/><path d="M141.93,79.17c.47-6.49,3.79-11.74,8.23-13.93-.44-.79-.68-1.77-.6-2.81,.17-2.3,1.75-3.99,3.54-3.78,1.79,.21,3.1,2.25,2.94,4.55-.03,.35-.09,.67-.18,.99,.04,0,.07,0,.11,0,7.09,.85,12.3,8.92,11.64,18.03-.66,9.11-6.94,15.81-14.03,14.97s-12.3-8.92-11.64-18.03Z"/><ellipse class="cls-3" cx="153.09" cy="81.22" rx="2.87" ry="3.69"/><ellipse class="cls-3" cx="157.02" cy="76.01" rx="1.3" ry="1.67"/><path class="cls-3" d="M162.8,60.32c.93,2.77,.64,5.91,.46,8.83-.14,1.46-.15,2.97-.55,4.36-.39,1.39-.89,2.73-1.67,3.95-.03,.05-.1,.06-.14,.02-.25-1.51-.08-3.03,.06-4.52,.27-2.11,1-4.09,1.26-6.21,.32-2.05,.73-4.22,.42-6.3-.05-.13,.1-.25,.16-.11h0Z"/><path class="cls-11" d="M149.72,68.67c-.42,.43-.81,.88-1.2,1.33-.38,.46-.75,.93-1.1,1.42-.36,.49-.68,1-1,1.54-.32,.53-.6,1.1-.9,1.68,.15-.66,.34-1.32,.62-1.91,.12-.31,.29-.58,.44-.87,.17-.27,.33-.55,.52-.8,.73-1.02,1.61-1.89,2.61-2.38Z"/><path class="cls-12" d="M157.53,94.92c1.54-1.12,2.92-2.5,4.06-4.1,.3-.39,.54-.83,.82-1.24,.24-.45,.5-.87,.7-1.34,.46-.9,.8-1.89,1.1-2.88,.27-1.01,.5-2.04,.59-3.11,.08-.53,.08-1.07,.11-1.6-.01-.54,0-1.08-.04-1.62-.12-2.17-.56-4.34-1.27-6.43,1.14,1.76,1.88,3.96,2.19,6.27,.35,2.31,.15,4.77-.46,7.02-.66,2.21-1.71,4.26-3.09,5.79-1.36,1.56-2.98,2.72-4.72,3.24Z"/><path class="cls-1" d="M135.26,75.73c.7-2.76,2.15-4.78,3.48-7,.36-1.28,.08-2.67,.57-3.97,.28-.71,.78-1.21,1.28-1.57,.51-.36,1.08-.53,1.66-.54,.05,0,.09,.09,.05,.14-.76,.95-1.49,1.7-2.15,2.68-.32,.42-.68,.93-.8,1.58-.16,.7,.04,1.43-.08,2.14-.13,.77-.35,1.42-.62,2.03-.78,1.88-1.86,3.43-3.29,4.59-.05,.04-.11-.03-.09-.1h0Z"/></g><g><path d="M180.02,107.29c-.38-4.92-.29-9.85-6.03-13.59-.09-.06-.18-.11-.28-.14-.52-.2-2.36-.95-2.66-1.72-.34-.9-1.45-.63-1.7,.57s1.34,1.22,1.34,1.22h0c.43,.33,.72,.9,.77,1.55l1.02,12.43s0,.07,0,.11l.46,11.4c.02,.51-.11,1.01-.36,1.41l-.49,.77c-.31,.48-.77,.76-1.25,.74-.33-.01-.67,.05-.8,.3-.28,.53,.8,2.95,1.8,2.44s2.1-2.43,3-3.15c.89-.72,6.02-3.43,5.19-14.33Z"/><path class="cls-6" d="M177.78,115.53c.13-1.5,.2-2.95,.21-4.39,0-1.44-.1-2.84-.28-4.25-.18-1.42-.41-2.85-.62-4.29-.22-1.44-.45-2.89-.61-4.38,.63,1.28,1.11,2.65,1.51,4.06,.4,1.41,.71,2.87,.9,4.36,.2,1.5,.22,3.09,.03,4.59-.19,1.51-.53,2.99-1.14,4.29Z"/></g></g></g></g></svg>