<svg xmlns="http://www.w3.org/2000/svg" xmlns:xlink="http://www.w3.org/1999/xlink" width="61.72" height="66.012" viewBox="0 0 61.72 66.012">
  <defs>
    <clipPath id="clip-path">
      <rect id="Rectangle_2343" data-name="Rectangle 2343" width="61.72" height="66.012" transform="translate(758.005 511.788)" fill="none"/>
    </clipPath>
  </defs>
  <g id="icon_aeration_alerte" transform="translate(-758.005 -511.788)">
    <g id="Groupe_306" data-name="Groupe 306">
      <g id="Groupe_305" data-name="Groupe 305" clip-path="url(#clip-path)">
        <g id="Groupe_1" data-name="Groupe 1">
          <path id="Tracé_1" data-name="Tracé 1" d="M801.908,515.537l4.1-1.224,8.226-2.446a6.9,6.9,0,0,1,1.74-.076c.413-.017.827,0,1.24,0a.5.5,0,0,1,.588.562c0,.343.014.683.014,1.026q0,13.789-.022,27.577c0,.314.049.434.409.441a1.523,1.523,0,0,1,1.51,1.534v.01q.021,5.152,0,10.3a1.537,1.537,0,0,1-1.525,1.537c-.374.019-.394.164-.394.457v21.593a4.08,4.08,0,0,1,0,.47.442.442,0,0,1-.444.442h-.033c-.455,0-.91.027-1.368.049a4.09,4.09,0,0,1-2.126-.49c-3.778-1.957-7.585-3.883-11.365-5.818-.1-.052-.2-.1-.326-.152a5.255,5.255,0,0,1-.088.685,1.624,1.624,0,0,1-1.424,1.177c-.169.017-.342.015-.514.015H760.066a2.581,2.581,0,0,1-1.349-.318,1.241,1.241,0,0,1-.631-1.033,11.121,11.121,0,0,1-.081-1.182V514.79a1.627,1.627,0,0,1,1.857-1.776h40.084a3.1,3.1,0,0,1,1.015.1,1.714,1.714,0,0,1,1.044,2.186,1.84,1.84,0,0,1-.1.227" fill="#005c9b"/>
          <path id="Tracé_2" data-name="Tracé 2" d="M761.94,553.521c-.159-.1-.081-.257-.081-.384q0-18.153-.012-36.3c0-.363.1-.441.45-.441q17.84.015,35.679,0c.362,0,.441.1.441.45q-.015,26.3,0,52.606c0,.353-.086.448-.443.448q-17.84-.015-35.679,0c-.353,0-.448-.081-.448-.443.012-4.631,0-9.263.012-13.9,0-.128-.083-.287.081-.382.154.112.166.291.213.452a4.738,4.738,0,0,0,5.836,3.3,4.655,4.655,0,0,0,.6-.213,3.971,3.971,0,0,0,.775-.45.524.524,0,0,1,.734.042,7.28,7.28,0,0,0,2.917,1.468,7.176,7.176,0,0,0,3.8.017,1.318,1.318,0,0,1,1.13.157,7.525,7.525,0,0,0,7.441.264,6.26,6.26,0,0,0,1.94-1.468.926.926,0,0,1,1.052-.3,4.705,4.705,0,1,0,1.3-9.247,3.374,3.374,0,0,0-.851.049.692.692,0,0,1-.832-.333,7.586,7.586,0,0,0-2.332-2.1,7.413,7.413,0,0,0-4.561-.966,1.06,1.06,0,0,1-.978-.37,7.018,7.018,0,0,0-3.228-2.16,7.535,7.535,0,0,0-7.188,1.238,7.387,7.387,0,0,0-2.733,4.5.637.637,0,0,1-.634.6,4.812,4.812,0,0,0-3.467,1.957,4.759,4.759,0,0,0-.71,1.454c-.049.161-.058.34-.213.452" fill="#fff"/>
          <path id="Tracé_3" data-name="Tracé 3" d="M761.94,553.523a4.844,4.844,0,0,1,4.5-3.988c.245-.022.335-.1.377-.338a7.669,7.669,0,0,1,6.4-6.312,7.552,7.552,0,0,1,7.061,2.591.734.734,0,0,0,.7.271,7.587,7.587,0,0,1,7.174,3.181.474.474,0,0,0,.555.225,4.826,4.826,0,0,1,1.642,9.511,4.414,4.414,0,0,1-2.19-.166.49.49,0,0,0-.619.163,7.7,7.7,0,0,1-9.787,1.3.888.888,0,0,0-.79-.112,7.65,7.65,0,0,1-6.949-1.468.416.416,0,0,0-.587-.048l-.02.018a4.81,4.81,0,0,1-7.482-3.181s-.035-1.326,0-1.644" fill="#005c9b"/>
          <path id="Tracé_4" data-name="Tracé 4" d="M816.941,544.678v31.255c0,.96,0,.918-.937.962a3.97,3.97,0,0,1-2.067-.5q-7.253-3.734-14.529-7.419a.524.524,0,0,1-.331-.553q.018-14.856.017-29.716,0-10.475-.022-20.952a.546.546,0,0,1,.448-.628l.042-.006c4.942-1.453,9.877-2.936,14.818-4.377a9.986,9.986,0,0,1,2.424-.088c.108,0,.145.071.147.169s0,.244,0,.384v31.473" fill="#fff"/>
          <path id="Tracé_5" data-name="Tracé 5" d="M817.8,548.052c0-1.808.012-3.614,0-5.422,0-.428.188-.435.489-.36a.734.734,0,0,1,.582.61,1.826,1.826,0,0,1,.037.337v9.734c0,.575-.206.849-.656.964-.318.08-.457.022-.452-.358.017-1.835,0-3.67,0-5.507" fill="#fefeff"/>
          <path id="Tracé_7" data-name="Tracé 7" d="M781.2,533.756a6.1,6.1,0,1,1,6.131,6.092,6.1,6.1,0,0,1-6.131-6.092" fill="#005c9b"/>
          <path id="Tracé_8" data-name="Tracé 8" d="M793.176,538.86a.814.814,0,0,1,.521.271c.452.453.912.9,1.355,1.361a.713.713,0,0,1,.106,1,.746.746,0,0,1-1.047.105.734.734,0,0,1-.067-.07c-.489-.462-.949-.942-1.419-1.416a.734.734,0,0,1,.551-1.253" fill="#005c9c"/>
          <path id="Tracé_9" data-name="Tracé 9" d="M786.574,524.463c0-.343-.012-.683,0-1.023a.679.679,0,0,1,.663-.693h0a.663.663,0,0,1,.752.561l0,.034a22.036,22.036,0,0,1,0,2.3.681.681,0,0,1-.738.618l-.048-.006a.692.692,0,0,1-.638-.734c-.013-.355,0-.712,0-1.067" fill="#005d9c"/>
          <path id="Tracé_10" data-name="Tracé 10" d="M780,525.747a.792.792,0,0,1,.538.245c.473.472.952.939,1.417,1.421a.7.7,0,0,1,.084.99l-.037.041a.735.735,0,0,1-1.038.026l-.027-.026c-.489-.473-.979-.962-1.448-1.449a.734.734,0,0,1,.514-1.223" fill="#005c9c"/>
          <path id="Tracé_11" data-name="Tracé 11" d="M778.01,534.472c-.354,0-.712.013-1.064,0a.613.613,0,0,1-.645-.581v-.018c-.044-.433.118-.734.514-.8a9.585,9.585,0,0,1,2.417,0,.672.672,0,0,1,.556.747.717.717,0,0,1-.712.658H778.01Z" fill="#005c9c"/>
          <path id="Tracé_12" data-name="Tracé 12" d="M796.574,534.475h-1.067a.687.687,0,0,1-.7-.656.675.675,0,0,1,.585-.755h.009a11.926,11.926,0,0,1,2.3,0,.714.714,0,0,1-.1,1.424h-1.023" fill="#005d9c"/>
          <path id="Tracé_13" data-name="Tracé 13" d="M795.314,526.452a.822.822,0,0,1-.259.585c-.45.455-.9.915-1.358,1.358a.734.734,0,1,1-1.013-1.038q.687-.7,1.39-1.387a.672.672,0,0,1,.822-.147.714.714,0,0,1,.418.626" fill="#005c9c"/>
          <path id="Tracé_14" data-name="Tracé 14" d="M788.03,543.029c0,.325.012.653,0,.979a.682.682,0,0,1-.627.734.948.948,0,0,1-.107,0c-.462,0-.705-.245-.71-.761q-.012-.98,0-1.958a.727.727,0,1,1,1.451-.077c0,.017,0,.034,0,.05.02.34,0,.681,0,1.023" fill="#005d9c"/>
          <path id="Tracé_15" data-name="Tracé 15" d="M782.2,539.557a.911.911,0,0,1-.284.587c-.458.448-.905.908-1.361,1.356a.72.72,0,0,1-1.11-.916.817.817,0,0,1,.107-.1q.7-.714,1.419-1.419a.674.674,0,0,1,.825-.132.734.734,0,0,1,.4.629" fill="#005c9b"/>
          <path id="Tracé_16" data-name="Tracé 16" d="M814.847,573.049v.244c0,.534-.245.69-.734.473l-4.615-2.034-8.466-3.765a.609.609,0,0,1-.44-.632q.015-23.924,0-47.849c0-.8,0-.8.758-1.028q6.306-1.857,12.616-3.707c.489-.142.644,0,.7.49a22.644,22.644,0,0,1,0,2.6" fill="#005c9b"/>
          <path id="Tracé_17" data-name="Tracé 17" d="M813.983,572.792c-1.984-.884-3.893-1.733-5.8-2.579a.289.289,0,0,1-.2-.33c0-.082,0-.164,0-.245v-25.4c0-.465.14-.549.565-.544,1.654.025,3.308.017,4.962,0,.311,0,.407.064.409.394q.03,14.152.078,28.3v.4" fill="#fff"/>
          <path id="Tracé_18" data-name="Tracé 18" d="M813.893,529.251v13.037c0,.384-.1.472-.475.467q-2.481-.031-4.96,0c-.381,0-.489-.083-.489-.489q.02-12.054,0-24.109c0-.758,0-.756.746-.978,1.556-.456,3.115-.9,4.664-1.378.352-.108.426-.039.426.318q-.015,6.559,0,13.122h.08" fill="#fff"/>
          <path id="Tracé_19" data-name="Tracé 19" d="M807.027,569.684c-.281-.122-.489-.215-.719-.313-1.429-.638-2.856-1.282-4.29-1.913a.476.476,0,0,1-.345-.49q.012-11.437,0-22.877c0-.343.12-.392.419-.387,1.468.015,2.936.022,4.4,0,.414,0,.546.074.543.524q-.024,12.478,0,24.972Z" fill="#fff"/>
          <path id="Tracé_20" data-name="Tracé 20" d="M807.027,530.232v12.056c0,.386-.108.469-.477.464-1.483-.022-2.966-.017-4.448,0-.321,0-.443-.063-.443-.418q.016-11.348,0-22.7a.429.429,0,0,1,.365-.487l.016,0q2.3-.654,4.586-1.346c.323-.1.4-.049.4.3-.012,4.047,0,8.094,0,12.141" fill="#fff"/>
        </g>
      </g>
    </g>
  </g>
</svg>
