<svg xmlns="http://www.w3.org/2000/svg" width="54.7" height="44.803" viewBox="0 0 54.7 44.803">
  <g id="icon_yeswecode" transform="translate(0.01 -0.005)">
    <path id="Tracé_898" data-name="Tracé 898" d="M52.969.936c1.442-.032,2.063.474,2.307,1.64.263,1.256.295,1.147,1.486,1.512,1.3.4,2.255.442,3.018-.948a1.528,1.528,0,0,1,2.2-.34,14.822,14.822,0,0,1,1.884,1.32,1.729,1.729,0,0,1,.256,2.588,1.566,1.566,0,0,0-.013,2.172c.718,1.115,1.339,1.807,2.813,1.454a1.606,1.606,0,0,1,1.839,1.378,19.3,19.3,0,0,1,.41,2.185,1.69,1.69,0,0,1-1.518,1.961c-1.2.135-1.736.673-1.7,1.839a.38.38,0,0,1-.032.147,1.627,1.627,0,0,0,.8,2.371,1.7,1.7,0,0,1,.455,2.608c-.327.519-.666,1.032-1.038,1.518a1.826,1.826,0,0,1-2.7.468,6.883,6.883,0,0,1-.75-.532.555.555,0,0,0-.814.032,8.074,8.074,0,0,1-1.8,1.16.617.617,0,0,0-.4.852,4.709,4.709,0,0,1,.128.679,1.891,1.891,0,0,1-1.679,2.441c-.5.1-1.006.179-1.512.269a1.9,1.9,0,0,1-2.409-1.634,1.8,1.8,0,0,0-1.531-1.512.643.643,0,0,1-.154-.026,1.862,1.862,0,0,0-2.7.859,1.6,1.6,0,0,1-2.377.4,18.255,18.255,0,0,1-1.7-1.172,1.8,1.8,0,0,1-.487-2.512,3.091,3.091,0,0,1,.34-.513.941.941,0,0,0-.006-1.474.986.986,0,0,1-.218-.314c-.538-1.217-1.224-1.993-2.781-1.461-.743.256-1.563-.442-1.781-1.256a14.638,14.638,0,0,1-.448-2.409,1.66,1.66,0,0,1,1.563-1.922c1.115-.115,1.454-.641,1.679-1.7.256-1.211.34-2.063-.942-2.749a1.754,1.754,0,0,1-.365-2.473c.32-.519.686-1.019,1.051-1.512a1.872,1.872,0,0,1,2.755-.493,4.959,4.959,0,0,1,.564.4.723.723,0,0,0,1.076.006,9.106,9.106,0,0,1,1.538-1.012.94.94,0,0,0,.525-1.2,5.248,5.248,0,0,1-.1-1.14,1.662,1.662,0,0,1,1.281-1.621C51.72,1.1,52.482.993,52.969.91Zm1.762,7.381a7.013,7.013,0,1,0,.083,14.025,6.835,6.835,0,0,0,6.971-7A7.019,7.019,0,0,0,54.731,8.317Z" transform="translate(-14.498 -0.325)" fill="#61bdbb"/>
    <path id="Tracé_899" data-name="Tracé 899" d="M0,13.546c-.026-1.294.352-1.845,1.429-1.967A1.161,1.161,0,0,0,2.617,10.3a.784.784,0,0,1,.051-.3c.365-.871.276-1.583-.692-2A.682.682,0,0,1,1.752,7.8c-.711-.788-.532-1.627.679-3.191a1.576,1.576,0,0,1,2.153-.564,2.439,2.439,0,0,1,.519.327.808.808,0,0,0,1.269-.045,2.087,2.087,0,0,1,.256-.154A1.7,1.7,0,0,0,7.775,1.854C7.563,1.174,8.178.527,8.9.342A14.683,14.683,0,0,1,10.485.034a1.564,1.564,0,0,1,1.986,1.41c.128.782.378,1.185,1.288,1.211a.973.973,0,0,1,.3.064c.884.314,1.474.269,2.005-.647a1.451,1.451,0,0,1,2.153-.41c.2.115.372.276.57.391,1.7.974,1.916,1.986.743,3.4-.115.141-.231.3-.115.487.416.641.814,1.3,1.288,1.9.224.282.621.128.948.077A1.68,1.68,0,0,1,23.863,9.5c.058.352.135.7.2,1.057a1.535,1.535,0,0,1-1.339,2.012c-.865.115-1.288.468-1.281,1.333a2.612,2.612,0,0,1-.07.378c-.218.916-.115,1.365.66,1.864a1.48,1.48,0,0,1,.391,2.268c-.25.391-.506.769-.775,1.14a1.575,1.575,0,0,1-2.345.436c-.686-.519-1.237-.609-1.852.032a1.252,1.252,0,0,1-.455.288,1.109,1.109,0,0,0-.75,1.5,1.612,1.612,0,0,1-1.5,2.127,11.1,11.1,0,0,1-1.442.186c-1.006.038-1.608-.372-1.717-1.352a1.22,1.22,0,0,0-1.371-1.275.787.787,0,0,1-.3-.058,1.277,1.277,0,0,0-1.89.654,1.174,1.174,0,0,1-.557.513c-.846.423-2.178-.1-3.236-1.256a1.616,1.616,0,0,1,.013-2.172c.423-.564.5-1.025-.013-1.538a.9.9,0,0,1-.211-.32,1.5,1.5,0,0,0-2.005-1.051c-.948.205-1.531-.32-1.762-1.288-.128-.545-.205-1.1-.263-1.416Zm17.85-1.365a5.837,5.837,0,1,0-5.882,5.766,5.75,5.75,0,0,0,5.888-5.766Z" transform="translate(0 0)" fill="#61bdbb"/>
    <path id="Tracé_900" data-name="Tracé 900" d="M17.5,49.666c0-1.006.3-1.474,1.115-1.583a1.078,1.078,0,0,0,1.083-1.2,1.5,1.5,0,0,1,.122-.519.816.816,0,0,0-.359-1.044c-1.057-.794-1.128-1.378-.372-2.454.115-.167.237-.333.359-.5.641-.878,1.269-1.057,2.153-.4.935.7,1.371-.231,2.018-.474.525-.192.481-.615.4-1.083-.179-1.064.192-1.563,1.262-1.8.327-.07.654-.122.98-.173a1.3,1.3,0,0,1,1.672,1.14,1.077,1.077,0,0,0,1.134,1.07,2.3,2.3,0,0,1,.6.135.78.78,0,0,0,1.032-.352c.737-1.044,1.307-1.121,2.383-.41.237.154.474.308.7.474a1.274,1.274,0,0,1,.378,1.929,1.141,1.141,0,0,0,.064,1.679,2.273,2.273,0,0,1,.333.513.744.744,0,0,0,.942.423c1.256-.205,1.723.147,1.986,1.4.045.224.09.448.128.679.173,1.064-.179,1.634-1.23,1.82-.609.109-.807.4-.948.98-.218.891-.3,1.647.66,2.14a.745.745,0,0,1,.275.359c.506,1.192-.461,1.845-1.032,2.595-.436.577-1.076.455-1.679.16-.308-.154-.583-.577-.948-.4a9.285,9.285,0,0,0-1.6,1.044c-.218.167-.064.487-.026.73.16,1.121-.167,1.627-1.262,1.871-.3.064-.6.128-.9.167a1.372,1.372,0,0,1-1.749-1.166c-.109-.384-.013-.955-.666-.948-.769,0-1.666-.865-2.268.365a1.207,1.207,0,0,1-1.4.551,2.072,2.072,0,0,1-1.608-3.236.616.616,0,0,0-.019-.769,3.8,3.8,0,0,1-.506-.769.99.99,0,0,0-1.269-.628c-1.115.192-1.583-.224-1.775-1.358-.064-.378-.115-.756-.147-.955Zm14.928-1.108a4.9,4.9,0,0,0-4.882-4.965,4.9,4.9,0,1,0,.064,9.8,4.81,4.81,0,0,0,4.818-4.824Z" transform="translate(-6.291 -13.797)" fill="#61bdbb"/>
  </g>
</svg>
