<svg xmlns="http://www.w3.org/2000/svg" width="59.851" height="52.076" viewBox="0 0 59.851 52.076">
  <g id="icon_solar_oven" transform="translate(-1024.545 -533.602)">
    <path id="Tracé_58" data-name="Tracé 58" d="M1067.721,533.6h-26.5l-16.678,23.153,12.109,28.923h35.635l12.108-28.923Zm-15.1,35.6-25.9-12.43L1041.6,536.12ZM1042.6,535.378h23.7l-12.633,33.2Zm10.994,36.722.448-1.179L1069.7,583.9h-30.556l14.2-12.526Zm1.09-2.87L1067.3,536.06l14.905,20.7ZM1027.1,558.267l25.462,12.221-14.86,13.105Zm44.122,25.359-16.066-13.312,26.705-12.105Z" transform="translate(0 0)" fill="#ffc152"/>
    <path id="Tracé_59" data-name="Tracé 59" d="M1058.439,550.1v-2.218h.815c0-2.121-1.939-3.585-4.269-3.86-2.085-.245-8.164-1.954-8.164-1.954a1.33,1.33,0,0,0,1.324-1.327v-.336a1.33,1.33,0,0,0-1.324-1.327H1041.7a1.329,1.329,0,0,0-1.324,1.327v.336a1.329,1.329,0,0,0,1.355,1.294,75.208,75.208,0,0,1-7.285,1.936c-2.327.3-4.269,1.736-4.269,3.86l.972.052v3.045a2.191,2.191,0,0,0,0,4.375s.9,5.024.9,5.133c0,2.63,5.706,4.763,12.748,4.763s12.748-2.133,12.748-4.763c0-.109.9-6.045.9-6.045a2.166,2.166,0,0,0,0-4.291" transform="translate(9.188 11.117)" fill="#ffc152"/>
  </g>
</svg>
