<svg xmlns="http://www.w3.org/2000/svg" xmlns:xlink="http://www.w3.org/1999/xlink" width="59.851" height="35.639" viewBox="0 0 59.851 35.639">
  <defs>
    <clipPath id="clip-path">
      <rect id="Rectangle_2349" data-name="Rectangle 2349" width="59.851" height="35.639" fill="none"/>
    </clipPath>
  </defs>
  <g id="icon_led_race" transform="translate(0 0)">
    <g id="Groupe_322" data-name="Groupe 322" transform="translate(0 0)" clip-path="url(#clip-path)">
      <path id="Tracé_103" data-name="Tracé 103" d="M29.879,26.37q-.551,1.775-1.1,3.55c-.543,1.757-1.1,3.509-1.615,5.272-.122.42-.251.537-.7.379-.845-.3-.86-.272-.61-1.081q1.615-5.252,3.242-10.5a.665.665,0,0,0,.006-.436c-.435-1.378-.863-2.758-1.273-4.142-.06-.2-.129-.326-.343-.275a18.36,18.36,0,0,1-3.221.194,17.579,17.579,0,0,0-3.886.444,13.292,13.292,0,0,0-3.632,1.974,8.743,8.743,0,0,1-3.5,1.6c-.622.094-1.247.195-1.874.229a9.993,9.993,0,0,0-3.461.94c-.714.311-1.44.606-2.122.975-.4.216-.462.037-.552-.257-.563-1.831-1.133-3.659-1.7-5.489C2.372,15.954,1.217,12.165.037,8.384c-.094-.3-.007-.373.24-.506A15.925,15.925,0,0,1,5.228,6.406,50.376,50.376,0,0,0,11.8,5.089a30.659,30.659,0,0,0,3.765-1.543,23.368,23.368,0,0,1,4.609-1.793,7.265,7.265,0,0,1,1.762-.267c.261,0,.367-.019.256-.34-.278-.8-.242-.785.578-1.063.464-.158.617-.021.744.4,1.072,3.534,2.163,7.062,3.248,10.592q1.54,5.012,3.078,10.023c.007.022.044.036.107.083.311-.978.623-1.935.919-2.9,1-3.268,2-6.541,3.006-9.808.841-2.73,1.708-5.453,2.534-8.187.094-.311.225-.317.464-.262.059.014.115.047.174.064.846.248.86.252.6,1.076-.073.23-.063.311.193.318A12.3,12.3,0,0,1,42.384,2.7c1.689.729,3.324,1.571,5.065,2.193A27.751,27.751,0,0,0,51.72,5.937c1.23.229,2.467.43,3.7.634a14.752,14.752,0,0,1,4.171,1.313c.234.116.312.19.222.474-.834,2.652-1.643,5.311-2.462,7.968-.911,2.958-1.831,5.914-2.727,8.876-.116.388-.222.448-.617.273a20.6,20.6,0,0,0-4.369-1.74,9.6,9.6,0,0,0-1.633-.235A8.7,8.7,0,0,1,43.1,21.752a12.025,12.025,0,0,0-3.763-2.013,11.445,11.445,0,0,0-2.32-.333c-1.444-.074-2.9-.065-4.329-.221-.568-.062-.642.109-.761.53-.358,1.271-.752,2.533-1.154,3.793a.776.776,0,0,0,0,.519c1.127,3.613,2.237,7.231,3.36,10.844.11.355,0,.5-.357.6-.921.242-.905.249-1.182-.644q-1.3-4.223-2.624-8.442l-.09-.011" transform="translate(0 0)" fill="#f27d0b"/>
      <path id="Tracé_104" data-name="Tracé 104" d="M94.819,38.466c-.222.838-.442,1.677-.666,2.515-.173.644-.17.612-.856.5-1.006-.157-2.019-.273-3.033-.385-.427-.047-.561-.155-.388-.6.3-.776.517-1.582.754-2.38.071-.239.151-.3.427-.23a5.526,5.526,0,0,0,1.217.139c.776.015,1.542.1,2.31.187.182.022.273.059.235.253" transform="translate(-43.528 -18.352)" fill="#fff"/>
      <path id="Tracé_105" data-name="Tracé 105" d="M16.613,38.459c-.044-.194.051-.229.231-.25.768-.092,1.535-.17,2.31-.188a8.6,8.6,0,0,0,1.259-.155c.208-.036.3-.018.364.206.261.886.544,1.766.834,2.643.076.23-.013.306-.221.336-.512.074-1.021.19-1.535.217a10.7,10.7,0,0,0-2.176.34c-.13.035-.234.095-.283-.1-.257-1.018-.521-2.034-.782-3.051" transform="translate(-8.047 -18.347)" fill="#fff"/>
      <path id="Tracé_106" data-name="Tracé 106" d="M16.864,24.113c-1.232.208-2.461.127-3.65.4-.134.031-.216,0-.259-.171-.237-.955-.5-1.9-.746-2.856-.064-.251.181-.276.327-.293.7-.081,1.412-.157,2.12-.19.288-.013.561-.1.845-.1.188,0,.361-.027.437.234.294,1,.616,1.989.926,2.979" transform="translate(-5.913 -10.13)" fill="#fff"/>
      <path id="Tracé_107" data-name="Tracé 107" d="M94.874,24.13c.317-1,.647-1.96.922-2.939.076-.272.2-.315.427-.294.99.092,1.98.179,2.968.287.242.026.408.087.291.448-.279.864-.484,1.751-.681,2.638-.053.238-.129.274-.338.226a18.206,18.206,0,0,0-2.4-.257l-1.194-.108" transform="translate(-45.986 -10.127)" fill="#fff"/>
      <path id="Tracé_108" data-name="Tracé 108" d="M65.923,24.492c.318-1.032.629-2.029.93-3.028.065-.217.129-.267.406-.251.992.059,1.97.242,2.96.3.226.013.306.055.223.307q-.431,1.295-.8,2.607c-.064.223-.193.246-.381.247a19.794,19.794,0,0,1-2.789-.177,4.243,4.243,0,0,0-.545,0" transform="translate(-31.953 -10.281)" fill="#fff"/>
      <path id="Tracé_109" data-name="Tracé 109" d="M45.942,24.46c-1.1.076-2.155.211-3.217.207-.291,0-.434-.05-.515-.374-.208-.821-.47-1.632-.753-2.433-.1-.287-.055-.342.236-.36.99-.062,1.968-.23,2.958-.305.29-.022.313.081.365.25.309,1,.614,2,.926,3.014" transform="translate(-20.071 -10.272)" fill="#fff"/>
      <path id="Tracé_110" data-name="Tracé 110" d="M39.562,3.963c.118-.007.191.013.24.18.284.973.589,1.941.9,2.906.065.2-.005.247-.187.255a16.808,16.808,0,0,0-3.005.463c-.2.046-.34.024-.4-.218-.221-.818-.462-1.63-.7-2.443-.049-.165-.145-.312.108-.4a13.458,13.458,0,0,1,3.051-.739" transform="translate(-17.616 -1.92)" fill="#fff"/>
      <path id="Tracé_111" data-name="Tracé 111" d="M72.5,3.956a13.636,13.636,0,0,1,3.01.734c.229.081.168.218.124.368Q75.27,6.3,74.9,7.549a.267.267,0,0,1-.369.21,16.862,16.862,0,0,0-3.062-.469c-.211-.007-.207-.113-.152-.282.3-.925.58-1.855.867-2.784.05-.164.076-.349.317-.268" transform="translate(-34.555 -1.908)" fill="#fff"/>
      <path id="Tracé_112" data-name="Tracé 112" d="M22.556,10.134c.285.929.571,1.869.866,2.807a.225.225,0,0,1-.157.314,22,22,0,0,1-2.9,1.024c-.209.055-.334-.011-.4-.256-.229-.818-.487-1.628-.756-2.435-.119-.355-.035-.486.359-.561a17.3,17.3,0,0,0,2.99-.894" transform="translate(-9.286 -4.912)" fill="#fff"/>
      <path id="Tracé_113" data-name="Tracé 113" d="M91.788,14.322c-.439-.136-1.005-.3-1.565-.486-.235-.077-.459-.188-.687-.285-.847-.36-.846-.36-.586-1.211.194-.637.384-1.275.579-1.912.053-.173.133-.256.347-.166a14.124,14.124,0,0,0,2.819.824c.3.057.389.18.283.491-.281.833-.523,1.677-.772,2.52-.045.152-.1.254-.417.226" transform="translate(-43.04 -4.956)" fill="#fff"/>
      <path id="Tracé_114" data-name="Tracé 114" d="M109.906,18.4c-.223-.093-.415-.162-.6-.25a15.573,15.573,0,0,0-2.206-.9c-.247-.077-.248-.169-.2-.348.224-.884.451-1.768.669-2.654.042-.17.111-.163.269-.131a14.829,14.829,0,0,1,2.843.911c.243.1.274.235.2.463-.285.9-.554,1.794-.833,2.691-.028.09-.054.193-.145.221" transform="translate(-51.804 -6.834)" fill="#fff"/>
      <path id="Tracé_115" data-name="Tracé 115" d="M74.181,30.426a9.082,9.082,0,0,1,2.688.76.262.262,0,0,1,.162.37c-.276.849-.554,1.7-.806,2.554-.068.229-.129.256-.351.164a8.8,8.8,0,0,0-2.9-.68c-.195-.011-.248-.068-.19-.254.285-.91.563-1.823.84-2.735.088-.289.325-.144.558-.18" transform="translate(-35.267 -14.745)" fill="#fff"/>
      <path id="Tracé_116" data-name="Tracé 116" d="M39.344,33.423c.019.116-.032.166-.154.173a8.909,8.909,0,0,0-3.035.716c-.142.061-.211.027-.262-.141-.266-.884-.553-1.763-.833-2.643-.06-.19.043-.275.209-.349a7.985,7.985,0,0,1,2.887-.746c.166-.008.272.015.319.169q.431,1.388.858,2.778a.314.314,0,0,1,.009.044" transform="translate(-16.986 -14.751)" fill="#fff"/>
      <path id="Tracé_117" data-name="Tracé 117" d="M5.457,16.963c.025.167-.032.222-.214.279a22.256,22.256,0,0,0-2.6,1.079c-.207.1-.3.063-.359-.146q-.407-1.351-.833-2.7a.319.319,0,0,1,.218-.46,15.026,15.026,0,0,1,2.846-.91c.13-.026.213-.04.249.108q.342,1.374.687,2.749" transform="translate(-0.691 -6.83)" fill="#fff"/>
      <path id="Tracé_118" data-name="Tracé 118" d="M84.829,25.846c.1.059.163.1.232.138a27.043,27.043,0,0,0,2.754,1.276c.234.085.254.181.2.362-.277.882-.567,1.761-.827,2.648-.061.209-.146.205-.3.133a21.158,21.158,0,0,1-2.832-1.732.2.2,0,0,1-.08-.272c.255-.777.482-1.561.725-2.342a1.018,1.018,0,0,1,.127-.212" transform="translate(-40.695 -12.528)" fill="#fff"/>
      <path id="Tracé_119" data-name="Tracé 119" d="M28.35,28.459c.036.175-.081.237-.161.288a28.817,28.817,0,0,1-2.626,1.613c-.262.129-.375.149-.466-.2-.216-.834-.5-1.653-.77-2.472-.079-.237-.048-.33.21-.426a23.874,23.874,0,0,0,2.747-1.288c.092-.048.213-.2.281.015.27.834.532,1.671.786,2.47" transform="translate(-11.773 -12.544)" fill="#fff"/>
      <path id="Tracé_120" data-name="Tracé 120" d="M33.545,14.3l.946,3A14.026,14.026,0,0,0,31.5,18.377c-.279.146-.317,0-.375-.187-.225-.724-.437-1.452-.678-2.17-.086-.257.068-.314.242-.406A21.725,21.725,0,0,1,33.545,14.3" transform="translate(-14.746 -6.93)" fill="#fff"/>
      <path id="Tracé_121" data-name="Tracé 121" d="M78.806,14.292a26.225,26.225,0,0,1,2.822,1.289c.275.137.35.256.233.565-.257.679-.465,1.377-.662,2.075-.069.244-.138.251-.35.147a13.523,13.523,0,0,0-2.748-1c-.144-.036-.255-.063-.186-.272.309-.933.6-1.873.89-2.8" transform="translate(-37.756 -6.928)" fill="#fff"/>
      <path id="Tracé_122" data-name="Tracé 122" d="M7.645,35.383c-.312-1.026-.609-2.043-.937-3.049-.065-.2.011-.243.149-.307.82-.381,1.642-.759,2.458-1.147.145-.069.176-.046.214.1.245.969.5,1.934.754,2.9a.272.272,0,0,1-.15.351L7.645,35.383" transform="translate(-3.24 -14.95)" fill="#fff"/>
      <path id="Tracé_123" data-name="Tracé 123" d="M103.285,30.809c.9.356,1.748.77,2.6,1.193.16.08.234.121.161.336q-.467,1.38-.863,2.783c-.071.251-.147.233-.334.143-.716-.346-1.431-.692-2.156-1.019-.228-.1-.246-.239-.192-.443.265-.992.523-1.985.787-2.993" transform="translate(-49.669 -14.934)" fill="#fff"/>
    </g>
  </g>
</svg>
