<svg xmlns="http://www.w3.org/2000/svg" xmlns:xlink="http://www.w3.org/1999/xlink" width="55.161" height="61.568" viewBox="0 0 55.161 61.568">
  <defs>
    <clipPath id="clip-path">
      <rect id="Rectangle_2350" data-name="Rectangle 2350" width="55.161" height="61.568" fill="none"/>
    </clipPath>
  </defs>
  <g id="icon_starter_kit" transform="translate(0 -0.001)">
    <g id="Groupe_325" data-name="Groupe 325" transform="translate(0 0.001)" clip-path="url(#clip-path)">
      <path id="Tracé_124" data-name="Tracé 124" d="M40.159,0a.741.741,0,0,1,.364.7c0,.394.027.79-.008,1.181-.03.344.107.413.453.412q6.022-.016,12.047-.007c.347,0,.694-.008,1.041-.013A1.948,1.948,0,0,1,55.161,3.3c0,1.3-.014,2.594-.015,3.891,0,3.921-.006,7.842.009,11.763,0,.353-.1.44-.473.438-3.722-.014-7.444-.009-11.166-.007-.19,0-.387-.045-.547.121-.13.135-.227.255-.147.447a.4.4,0,0,0,.435.282c.847-.014,1.695,0,2.542,0h8.715c.631,0,.632,0,.632.569V58.376c0,.183.01.366.015.549a1.457,1.457,0,0,1-1.222.971c-.181.011-.363.006-.544.006-4.614,0-9.227.006-13.84-.009a1.536,1.536,0,0,0-1.274.488,12.227,12.227,0,0,1-.99.931c-.138.124-.266.279-.5.254-.106,0-.211-.013-.317-.013H12.23c-.106,0-.211.009-.317.013-.231.026-.354-.135-.492-.259-.349-.314-.7-.626-1.025-.958a1.243,1.243,0,0,0-.963-.374c-2.481.011-4.963-.023-7.443.019a2.246,2.246,0,0,1-1.969-1.24c0-.141-.01-.281-.01-.423q0-18.749-.012-37.5c0-.432.116-.527.567-.524,4.041.017,8.082.011,12.123.01.473,0,.615-.125.583-.489a.351.351,0,0,0-.361-.354c-.121-.01-.242,0-.364,0-4.026,0-8.052-.006-12.077.008-.382,0-.47-.093-.469-.442q.02-7.491,0-14.982A.635.635,0,0,1,.282,3.5,11.415,11.415,0,0,0,1.31,2.547a.892.892,0,0,1,.713-.266q15.664.009,31.328.014c.423,0,.6-.071.549-.5-.044-.363.007-.734-.015-1.1a.715.715,0,0,1,.369-.7Z" transform="translate(0 0)" fill="#565099"/>
      <path id="Tracé_125" data-name="Tracé 125" d="M5.478,42.57a1.09,1.09,0,0,1-.017,1.8.988.988,0,0,1,.471,1c.007.369-.462.453-.438.729.022.249.461.335.43.69-.029.334.049.68-.324.9-.166.1-.141.2-.008.338a.921.921,0,0,1-.011,1.452c-.085.094-.139.15-.038.281.552.717.533,1.079-.082,1.72.492.237.445.661.469,1.089.02.35-.436.438-.4.684.03.224.429.321.4.658s.046.679-.334.9c-.182.106-.111.211.011.337a.909.909,0,0,1,0,1.419c-.158.158-.122.237.017.374a.918.918,0,0,1,0,1.392c-.106.107-.2.173-.053.342.538.6.5,1-.089,1.571-.032.031-.058.065-.1.109.294.272.632.5.551.987a.781.781,0,0,1-.295.617c-.223.149-.161.27.01.431a1.022,1.022,0,0,1-.156,1.564,1.541,1.541,0,0,1-1.436-.242,1.231,1.231,0,0,1-1.662.039,1.054,1.054,0,0,1,0-1.3c.228-.2.308-.327.023-.557a.9.9,0,0,1,.022-1.269c.143-.136.28-.225.059-.433a1,1,0,0,1,.018-1.5c.04-.039.076-.082.137-.148-.46-.222-.479-.6-.47-1.012a.658.658,0,0,1,.291-.577c.18-.128.194-.234.017-.4a.911.911,0,0,1,0-1.39c.107-.109.2-.176.05-.342-.531-.592-.5-.984.108-1.606-.483-.239-.449-.656-.469-1.086-.017-.351.427-.445.406-.686-.019-.223-.43-.319-.4-.656.032-.372-.062-.764.36-1.017.172-.1.064-.2-.033-.305A.929.929,0,0,1,2.5,48.045c.089-.093.191-.151.064-.31-.552-.695-.53-1.061.06-1.7a1,1,0,0,1,.032-1.705c-.487-.243-.458-.658-.477-1.087-.015-.352.424-.448.408-.687-.015-.221-.413-.319-.405-.654.012-.43-.019-.849.468-1.087a1.1,1.1,0,0,1,0-1.821c-.476-.24-.448-.653-.47-1.082-.019-.373.45-.457.437-.73-.012-.252-.457-.335-.432-.69s-.031-.7.353-.935c.2-.123.057-.229-.048-.334a1,1,0,0,1,.007-1.475c.156-.153.087-.213-.027-.324a1,1,0,0,1,.015-1.443c.164-.156.174-.246,0-.406a.944.944,0,0,1-.12-1.27,1.1,1.1,0,0,1,1.558-.168c.1.072.139.091.251.012a1.138,1.138,0,0,1,1.652.235,1.077,1.077,0,0,1-.1,1.092c-.249.2-.313.352-.02.588a.881.881,0,0,1-.062,1.262c-.249.206-.258.329,0,.541a.87.87,0,0,1,0,1.322c-.213.191-.179.295.014.468a.888.888,0,0,1,0,1.3c-.232.2-.191.314.014.5a.9.9,0,0,1,0,1.27c-.2.176-.265.289-.023.5a.908.908,0,0,1,.012,1.3c-.113.112-.3.184-.092.4.522.544.482,1.077-.1,1.654" transform="translate(-0.363 -5.023)" fill="#fff"/>
      <path id="Tracé_126" data-name="Tracé 126" d="M59.42,51.642c-.485-.238-.446-.657-.47-1.086-.022-.372.457-.454.435-.729-.019-.25-.454-.335-.432-.69s-.024-.7.357-.933c.166-.1.079-.2-.022-.306a1.02,1.02,0,0,1-.023-1.507c.082-.087.154-.127.038-.262-.518-.606-.49-.958.113-1.6a.894.894,0,0,1-.463-.965.69.69,0,0,1,.287-.62c.176-.121.207-.228.026-.4a.9.9,0,0,1,0-1.385c.175-.166.147-.255-.012-.406a.894.894,0,0,1,0-1.356c.189-.176.165-.275-.011-.437a.9.9,0,0,1-.007-1.328c.165-.154.225-.25.025-.436a.89.89,0,0,1-.008-1.355c.188-.173.169-.272-.007-.436a.985.985,0,0,1-.008-1.41c.208-.186.191-.29-.007-.468a.907.907,0,0,1,.018-1.329c.113-.112.24-.185.063-.373a.92.92,0,0,1,.047-1.511,1.148,1.148,0,0,1,1.476.126,1.125,1.125,0,0,1,1.667.05.929.929,0,0,1-.009,1.211c-.243.2-.286.336-.012.557a.881.881,0,0,1,0,1.234c-.283.227-.211.359.021.557a1.02,1.02,0,0,1,0,1.291c-.24.2-.291.334-.014.557a.894.894,0,0,1,0,1.236c-.225.191-.268.314-.017.526a.886.886,0,0,1,0,1.266c-.2.18-.255.293-.018.5a.882.882,0,0,1,0,1.294c-.236.2-.186.317.017.5a.9.9,0,0,1,0,1.269c-.2.177-.261.291-.021.5a.909.909,0,0,1,.01,1.3c-.114.113-.3.186-.091.4.518.539.48.991-.106,1.572a.991.991,0,0,1,.454.956c-.032.262-.043.5-.295.659-.232.151-.151.275.017.431a.911.911,0,0,1,0,1.332c-.106.1-.263.172-.083.371.535.59.5,1.069-.106,1.688a.992.992,0,0,1,.471,1c.006.37-.459.454-.438.729.018.25.463.334.43.69-.031.333.05.679-.324.9-.207.124-.11.236.022.367a.9.9,0,0,1-.012,1.388c-.184.177-.12.264.027.405a.9.9,0,0,1-.009,1.359c-.161.153-.181.241-.009.405a.887.887,0,0,1-.007,1.386c-.222.192-.2.3.007.476a.881.881,0,0,1,.024,1.355c-.22.2-.181.318.028.463a.814.814,0,0,1,.2,1.044.87.87,0,0,1-.933.587c-.279-.032-.577.044-.769-.235-.107-.156-.187-.03-.275.04A1.267,1.267,0,0,1,59.2,64a1.015,1.015,0,0,1-.017-1.357c.231-.2.25-.32.007-.526a.993.993,0,0,1,.009-1.351c.21-.186.235-.3.008-.5a.88.88,0,0,1,.009-1.294c.245-.21.166-.322-.027-.5a.892.892,0,0,1,.01-1.267c.257-.215.193-.338-.024-.526a.9.9,0,0,1,.006-1.238c.228-.195.259-.317.012-.526a.918.918,0,0,1,0-1.274c.106-.106.324-.171.116-.4-.532-.586-.5-.983.11-1.606" transform="translate(-9.904 -5.057)" fill="#fff"/>
      <path id="Tracé_127" data-name="Tracé 127" d="M47.132,3.948c0,1.071-.012,2.141.007,3.212.006.357-.182.488-.507.489-1.723.007-3.446.012-5.169,0-.44,0-.506-.327-.507-.655q0-2.621,0-5.241c0-.352,0-.7,0-1.057,0-.321.17-.492.518-.492q2.607,0,5.215,0c.366,0,.448.195.447.492-.008,1.085,0,2.17,0,3.255" transform="translate(-6.883 -0.034)" fill="#fff"/>
      <path id="Tracé_128" data-name="Tracé 128" d="M26.665,15.249q0,1.883,0,3.765c0,.479-.123.592-.636.594-.832,0-1.664,0-2.5,0-.416,0-.6-.168-.595-.555q.009-3.807,0-7.615c0-.386.178-.56.594-.556q1.27.012,2.542,0c.415,0,.6.169.594.555-.007,1.27,0,2.538,0,3.808" transform="translate(-3.855 -1.83)" fill="#fff"/>
      <path id="Tracé_129" data-name="Tracé 129" d="M20.392,67.7c-1.24,0-2.481-.011-3.72.007-.323,0-.405-.084-.4-.378.02-.9.014-1.8,0-2.706,0-.232.059-.316.325-.315,2.284.009,4.567,0,6.851,0,.33,0,.6.244.956.18.15-.027.137.117.137.212,0,.916-.007,1.833.007,2.749,0,.268-.159.248-.348.247q-1.906,0-3.811,0" transform="translate(-2.735 -10.808)" fill="#fff"/>
      <path id="Tracé_130" data-name="Tracé 130" d="M43.057,27.74c0,.7,0,1.409,0,2.115,0,.468-.194.675-.7.679q-2.155.017-4.31,0c-.573,0-.8-.246-.805-.781q0-2.009,0-4.017c0-.532.181-.7.752-.7q2.2,0,4.4,0c.5,0,.659.151.661.632q0,1.036,0,2.072" transform="translate(-6.259 -4.208)" fill="#fff"/>
      <path id="Tracé_131" data-name="Tracé 131" d="M22.614,27.691c0-.7,0-1.409,0-2.113,0-.459.19-.641.673-.643q2.178-.007,4.354,0c.512,0,.781.246.783.716q.007,2.029,0,4.058c0,.548-.2.727-.783.727q-2.131,0-4.263,0c-.609,0-.765-.149-.765-.715V27.691" transform="translate(-3.8 -4.19)" fill="#fff"/>
      <path id="Tracé_132" data-name="Tracé 132" d="M26,35.88c0-.7.012-1.408-.006-2.111-.007-.275.126-.385.389-.387q.973-.009,1.948,0c.257,0,.4.093.4.378q-.019,2.11,0,4.222c0,.285-.085.408-.411.4-.633-.017-1.269-.017-1.9,0-.314.007-.429-.092-.423-.389.017-.7.006-1.407.006-2.111" transform="translate(-4.368 -5.61)" fill="#fff"/>
      <path id="Tracé_133" data-name="Tracé 133" d="M20.767,35.614c-.756,0-1.512-.008-2.269,0-.258,0-.38-.037-.369-.318.023-.62.017-1.24,0-1.86-.007-.275.1-.373.4-.371q2.246.014,4.492,0c.3,0,.4.107.389.376-.014.62-.015,1.241,0,1.861.006.236-.066.317-.329.312-.77-.015-1.542,0-2.314,0" transform="translate(-3.047 -5.558)" fill="#fff"/>
      <path id="Tracé_134" data-name="Tracé 134" d="M26.821,24.252q-3.383,0-6.765,0c-.3,0-.6.008-.6-.382s.275-.469.635-.469q6.765.006,13.531,0c.472,0,.717.225.616.548-.083.269-.288.3-.557.3-2.285-.008-4.571,0-6.856,0" transform="translate(-3.269 -3.933)" fill="#fff"/>
      <path id="Tracé_135" data-name="Tracé 135" d="M20.834,36.736c.6,0,1.209.018,1.812-.007.369-.015.474.139.471.443-.006.563,0,1.126,0,1.69,0,.277-.136.414-.437.413-1.254,0-2.507,0-3.763,0-.252,0-.349-.095-.346-.328q.012-.95,0-1.9c0-.241.114-.319.359-.316.633.007,1.269,0,1.9,0" transform="translate(-3.121 -6.173)" fill="#fff"/>
      <path id="Tracé_136" data-name="Tracé 136" d="M9.157,19.174c-.725-.559-.794-1.22.008-1.883a1.024,1.024,0,0,1-.551-1.023.683.683,0,0,1,.261-.544c.217-.148.232-.272.019-.463a.878.878,0,0,1,0-1.323c.215-.191.174-.3-.017-.467a.889.889,0,0,1,0-1.295c.23-.2.212-.329-.017-.493a.812.812,0,0,1-.185-1.045.987.987,0,0,1,.941-.591,1.036,1.036,0,0,1,1.046.576.836.836,0,0,1-.232,1.11c-.195.128-.176.24-.007.4a.9.9,0,0,1-.044,1.414c-.191.173-.167.255.01.416a.815.815,0,0,1-.007,1.36c-.187.17-.176.252,0,.416a.815.815,0,0,1,0,1.36c-.183.166-.185.249,0,.416a.885.885,0,0,1,0,1.441c-.28.239-.107.352.068.471.4.275.3.667.231,1-.073.356-.664.577-1.23.562a.867.867,0,0,1-.789-.593.76.76,0,0,1,.245-.989,1.7,1.7,0,0,0,.246-.238" transform="translate(-1.44 -1.689)" fill="#fff"/>
      <path id="Tracé_137" data-name="Tracé 137" d="M45.1,63.4c.923,0,1.847,0,2.77,0,.137,0,.4-.09.367.15-.021.179-.074.435-.382.445-.106,0-.211,0-.318,0-1.574,0-3.148-.007-4.723,0-.5,0-1,.063-1.23.587a.838.838,0,0,0,.179,1.044,6.238,6.238,0,0,0,.868.741c.121.077.263.177.212.344s-.228.15-.377.151c-.772,0-1.544-.007-2.316,0-.324,0-.35-.108-.235-.356.356-.765.715-1.531,1.037-2.309a1.3,1.3,0,0,1,1.333-.807c.938-.008,1.877,0,2.815,0" transform="translate(-6.698 -10.653)" fill="#fff"/>
      <path id="Tracé_138" data-name="Tracé 138" d="M55.248,58.11c0-2.877.007-5.755-.009-8.631,0-.356.1-.464.475-.435.421.032.847.013,1.27,0,.192,0,.285.052.263.24a1.789,1.789,0,0,0,0,.211q0,8.609.01,17.22c0,.379-.1.5-.5.454-.489-.054-1.151.2-1.429-.1-.244-.258-.078-.858-.078-1.307q0-3.829,0-7.658" transform="translate(-9.276 -8.242)" fill="#fff"/>
      <path id="Tracé_139" data-name="Tracé 139" d="M39.973,71.045A1.3,1.3,0,0,1,41.4,69.717a1.381,1.381,0,0,1,1.392,1.309,1.4,1.4,0,0,1-1.442,1.31,1.32,1.32,0,0,1-1.374-1.292" transform="translate(-6.717 -11.717)" fill="#fff"/>
      <path id="Tracé_140" data-name="Tracé 140" d="M11.124,25.543a1.266,1.266,0,0,1,1.423,1.318,1.39,1.39,0,0,1-1.4,1.3,1.435,1.435,0,0,1-1.413-1.346,1.3,1.3,0,0,1,1.388-1.275" transform="translate(-1.636 -4.292)" fill="#fff"/>
      <path id="Tracé_141" data-name="Tracé 141" d="M44.386,35.33a.716.716,0,0,1-.714-.262c-.175-.237-.315-.154-.493.017a1.059,1.059,0,0,1-1.389,0c-.216-.218-.355-.19-.527.019a.971.971,0,0,1-1.121.171.919.919,0,0,1-.631-.833.956.956,0,0,1,.614-1.019,1,1,0,0,1,1.222.243c.138.186.253.107.394-.017a1.066,1.066,0,0,1,1.487,0c.181.165.3.153.429-.018a.991.991,0,0,1,1.151-.221.9.9,0,0,1,.641.734,1.078,1.078,0,0,1-.582,1.131c-.117.077-.319.041-.481.057" transform="translate(-6.64 -5.6)" fill="#fff"/>
      <path id="Tracé_142" data-name="Tracé 142" d="M57.255,37.625c0,2.228-.01,4.456.01,6.684,0,.361-.107.46-.479.433-.421-.032-.846-.014-1.27,0-.2,0-.282-.057-.26-.242a1.99,1.99,0,0,0,0-.211c0-4.471.006-8.941-.011-13.411,0-.385.112-.488.5-.453a6.51,6.51,0,0,0,1.088,0c.34-.027.429.076.427.394-.016,2.27-.008,4.541-.008,6.811" transform="translate(-9.284 -5.112)" fill="#fff"/>
      <path id="Tracé_143" data-name="Tracé 143" d="M8.083,46.233c0-2.256.007-4.512-.008-6.769,0-.319.087-.422.428-.394a6.607,6.607,0,0,0,1.042,0c.348-.027.458.067.455.411-.018,2.256-.009,4.512-.009,6.769s-.008,4.484.008,6.726c0,.335-.094.448-.45.413-.475-.047-1.115.188-1.387-.1-.236-.248-.077-.83-.077-1.265q0-2.9,0-5.8" transform="translate(-1.35 -6.566)" fill="#fff"/>
      <path id="Tracé_144" data-name="Tracé 144" d="M46.075,65.118c-.4.909-.789,1.78-1.175,2.649a.272.272,0,0,1-.29.151c-.329,0-.657,0-1.058,0,.406-.288.684-.574.636-1.034a1.366,1.366,0,0,0-.676-.936c-.259-.2-.72-.418-.631-.692.1-.3.586-.118.9-.128.75-.024,1.5-.007,2.3-.007" transform="translate(-7.204 -10.937)" fill="#fff"/>
      <path id="Tracé_145" data-name="Tracé 145" d="M10,63.35c0,1.664-.018,3.328.012,4.991.008.426-.131.535-.554.492a5.78,5.78,0,0,0-1,0c-.3.022-.377-.082-.375-.354.011-2.059.006-4.117.006-6.176,0-1.339.013-2.679-.009-4.018-.006-.334.112-.408.437-.385a7.662,7.662,0,0,0,1.088,0c.325-.024.4.083.4.376C9.991,59.966,10,61.658,10,63.35" transform="translate(-1.358 -9.73)" fill="#fff"/>
      <path id="Tracé_146" data-name="Tracé 146" d="M43.729,24.252c-.725,0-1.448,0-2.173,0-.322,0-.582-.082-.589-.418s.248-.433.573-.433q2.173.006,4.346,0c.319,0,.522.079.524.418s-.179.438-.508.433c-.725-.008-1.448,0-2.173,0" transform="translate(-6.885 -3.933)" fill="#fff"/>
      <path id="Tracé_147" data-name="Tracé 147" d="M63.434,5.913a.909.909,0,0,1,.46,1.007.8.8,0,0,1-.874.79,1.094,1.094,0,0,1-.971-.3.84.84,0,0,1,.021-1.251c.255-.211.269-.357-.008-.534a.735.735,0,0,1-.214-.991.845.845,0,0,1,.9-.565c.27.042.554-.085.808.149.507.469.486,1.058-.124,1.7" transform="translate(-10.377 -0.682)" fill="#fff"/>
      <path id="Tracé_148" data-name="Tracé 148" d="M33.8,3.924a.78.78,0,0,1-.61.925.964.964,0,0,1-1.151-.214c-.155-.205-.292-.165-.463,0a1.32,1.32,0,0,1-1.233.188,1.112,1.112,0,0,1-.522-1.2,1.132,1.132,0,0,1,1.751-.437c.17.156.28.209.468.017a1.3,1.3,0,0,1,1.191-.232c.312.24.727.463.57.946" transform="translate(-5.005 -0.489)" fill="#fff"/>
      <path id="Tracé_149" data-name="Tracé 149" d="M13.347,20.455a.891.891,0,0,1,.46.92,1.247,1.247,0,0,1-.648.963,1.316,1.316,0,0,1-1.318-.513A1.206,1.206,0,0,1,12,20.766c.247-.195.291-.329.017-.557a.909.909,0,0,1,.122-1.359.983.983,0,0,1,1.311,0c.527.485.5.99-.106,1.607" transform="translate(-1.977 -3.126)" fill="#fff"/>
      <path id="Tracé_150" data-name="Tracé 150" d="M2.751,5.852a.888.888,0,0,1-.46-.921,1.23,1.23,0,0,1,.65-.962,1.315,1.315,0,0,1,1.317.514,1.206,1.206,0,0,1-.163,1.059c-.25.2-.286.33-.015.557a.909.909,0,0,1-.125,1.36.983.983,0,0,1-1.311,0c-.527-.485-.5-.987.107-1.606" transform="translate(-0.382 -0.662)" fill="#fff"/>
      <path id="Tracé_151" data-name="Tracé 151" d="M48.78,65.127c-.339.749-.63,1.432-.955,2.1a1.285,1.285,0,0,1-1.517.643q.559-1.277,1.115-2.545a.31.31,0,0,1,.341-.2c.316.015.633,0,1.017,0" transform="translate(-7.782 -10.945)" fill="#fff"/>
      <path id="Tracé_152" data-name="Tracé 152" d="M53.838,18.1c0-1,.009-2-.007-3,0-.271.072-.358.374-.36s.389.107.364.368a4.373,4.373,0,0,0,0,.591c.012.291.045.582-.442.5-.208-.037-.195.121-.195.25,0,1.183,0,2.365,0,3.548,0,.2.066.294.282.26.32-.051.388.1.36.359a2.27,2.27,0,0,0,0,.463c.024.25-.029.374-.355.376-.345,0-.384-.126-.38-.4.015-.986.006-1.971.006-2.957" transform="translate(-9.047 -2.478)" fill="#fff"/>
      <path id="Tracé_153" data-name="Tracé 153" d="M24.48,52.255c-.1-.179-.26-.135-.4-.136q-.86,0-1.72,0c-.157,0-.294.008-.295-.208s.121-.219.286-.217c.543,0,1.089.028,1.629-.007.455-.03.666.077.5.568" transform="translate(-3.708 -8.686)" fill="#fff"/>
      <path id="Tracé_154" data-name="Tracé 154" d="M24.49,55.316c-.109-.182-.274-.141-.424-.141-.558,0-1.116,0-1.675,0-.164,0-.334.034-.329-.218s.191-.2.343-.2c.528,0,1.057,0,1.585,0,.551,0,.551,0,.5.566" transform="translate(-3.708 -9.201)" fill="#fff"/>
      <path id="Tracé_155" data-name="Tracé 155" d="M24.49,56.742c-.109-.182-.274-.142-.423-.142q-.861,0-1.72,0c-.168,0-.286-.01-.285-.219s.141-.206.3-.206c.543,0,1.087,0,1.63,0s.551,0,.5.567" transform="translate(-3.708 -9.441)" fill="#fff"/>
      <path id="Tracé_156" data-name="Tracé 156" d="M24.485,58.06c-.094-.175-.255-.139-.4-.14-.528,0-1.057.01-1.584-.007-.157,0-.421.133-.433-.195s.249-.214.411-.218c.513-.012,1.029.025,1.538-.012.464-.035.589.131.469.572" transform="translate(-3.708 -9.661)" fill="#fff"/>
      <path id="Tracé_157" data-name="Tracé 157" d="M60.133,15.485a2.276,2.276,0,0,0,0,.337c.044.288-.064.38-.389.384-.346,0-.354-.153-.343-.386a5.134,5.134,0,0,0,0-.715c-.024-.268.063-.361.369-.362s.4.1.365.364a3.021,3.021,0,0,0,0,.379" transform="translate(-9.982 -2.478)" fill="#fff"/>
      <path id="Tracé_158" data-name="Tracé 158" d="M23.312,53.647c-.287,0-.574,0-.861,0-.173,0-.285-.018-.28-.224.006-.181.1-.2.256-.2q.93,0,1.858,0c.155,0,.251.021.257.2.007.2-.1.228-.279.224-.317-.007-.635,0-.952,0" transform="translate(-3.726 -8.945)" fill="#fff"/>
      <path id="Tracé_159" data-name="Tracé 159" d="M29.47,42.5c.143-.247-.077-.638.177-.629.328.011.114.384.137.59.02.172.143.447-.086.528-.246.088-.306-.2-.434-.344-.075-.082-.156-.161-.285-.295,0,.191,0,.335,0,.479,0,.117-.037.182-.178.184s-.186-.061-.184-.179c0-.254,0-.507,0-.76,0-.087-.05-.21.106-.238a.3.3,0,0,1,.321.1l.423.561" transform="translate(-4.809 -7.029)" fill="#fff"/>
      <path id="Tracé_160" data-name="Tracé 160" d="M36.964,45.729a.321.321,0,0,1-.429-.153c-.109-.181-.286-.313-.349.038-.025.142-.111.142-.221.14-.161,0-.141-.116-.143-.21a3.512,3.512,0,0,0-.006-.5c-.066-.394.109-.5.514-.475.552.034.7.221.5.72-.059.146-.059.146.137.445" transform="translate(-6.017 -7.489)" fill="#fff"/>
      <path id="Tracé_161" data-name="Tracé 161" d="M37.577,53.85c-.287,0-.574,0-.86,0-.171,0-.242-.048-.242-.216s.084-.212.247-.21q.861.007,1.721,0c.151,0,.216.047.218.194s-.034.239-.224.232c-.286-.01-.573,0-.86,0" transform="translate(-6.13 -8.979)" fill="#fff"/>
      <path id="Tracé_162" data-name="Tracé 162" d="M38.081,41.827a.668.668,0,0,1,.716.6.73.73,0,0,1-1.43,0,.667.667,0,0,1,.714-.6" transform="translate(-6.28 -7.03)" fill="#fff"/>
      <path id="Tracé_163" data-name="Tracé 163" d="M56.329,15.49a3.945,3.945,0,0,0,0,.421c.025.22-.065.29-.3.29s-.36-.047-.34-.3a5.815,5.815,0,0,0,0-.843c-.016-.237.072-.309.328-.312.275,0,.339.1.315.323a4.176,4.176,0,0,0,0,.421" transform="translate(-9.359 -2.479)" fill="#fff"/>
      <path id="Tracé_164" data-name="Tracé 164" d="M58.3,15.461a3.945,3.945,0,0,0,0,.421c.025.229-.048.321-.318.32s-.342-.082-.324-.316a6.58,6.58,0,0,0,0-.758c-.01-.23-.009-.39.341-.387s.3.191.3.383v.337" transform="translate(-9.689 -2.478)" fill="#fff"/>
      <path id="Tracé_165" data-name="Tracé 165" d="M31.764,42.344a.522.522,0,0,1-.4.661.57.57,0,0,1-.778-.525c-.013-.154,0-.309,0-.465,0-.113.031-.186.176-.186s.189.056.187.176c0,.155,0,.31,0,.465,0,.189.077.295.293.286s.15-.171.159-.28c.011-.126,0-.254,0-.381s-.045-.265.18-.266.174.147.181.265c0,.07,0,.141,0,.25" transform="translate(-5.139 -7.03)" fill="#fff"/>
      <path id="Tracé_166" data-name="Tracé 166" d="M37.513,52.324c-.273,0-.545-.007-.816,0-.193.007-.22-.086-.22-.235s.072-.192.22-.191q.839.006,1.677,0c.166,0,.2.082.2.212s-.031.215-.2.212c-.286-.006-.573,0-.859,0" transform="translate(-6.13 -8.723)" fill="#fff"/>
      <path id="Tracé_167" data-name="Tracé 167" d="M37.487,55.377c-.257,0-.513-.006-.77,0-.171,0-.242-.048-.242-.216s.084-.212.247-.21q.816.007,1.631,0c.151,0,.216.047.218.194s-.034.239-.224.232c-.286-.01-.573,0-.86,0" transform="translate(-6.13 -9.236)" fill="#fff"/>
      <path id="Tracé_168" data-name="Tracé 168" d="M37.516,56.379c.272,0,.544.006.815,0,.171,0,.24.05.24.217s-.085.211-.248.21q-.815-.007-1.631,0c-.151,0-.215-.047-.216-.195s.036-.238.224-.231c.271.01.543,0,.815,0" transform="translate(-6.13 -9.475)" fill="#fff"/>
      <path id="Tracé_169" data-name="Tracé 169" d="M36.713,42.421c-.191.193-.6-.08-.6.222,0,.232.35.06.536.111.076.022.143.032.147.121s-.047.126-.134.13a.66.66,0,0,1-.091,0c-.278-.032-.7.131-.8-.075a2.382,2.382,0,0,1-.047-.993c0-.09.074-.111.156-.113a1.425,1.425,0,0,1,.315,0c.171.037.472-.13.492.116s-.28.088-.429.131c-.09.026-.182.022-.171.142s.111.1.2.116c.137.02.3-.057.433.089" transform="translate(-5.998 -7.026)" fill="#fff"/>
      <path id="Tracé_170" data-name="Tracé 170" d="M37.562,57.7c.257,0,.513.006.77,0,.173-.006.239.052.24.218s-.088.21-.25.208q-.792-.006-1.586,0c-.149,0-.256-.01-.262-.2s.092-.236.273-.23c.271.009.543,0,.815,0" transform="translate(-6.13 -9.697)" fill="#fff"/>
      <path id="Tracé_171" data-name="Tracé 171" d="M60.132,21.914a2.217,2.217,0,0,0,0,.328c.047.285-.116.313-.367.314s-.406-.035-.366-.317a3.442,3.442,0,0,0,0-.463c0-.4.154-.527.566-.4.343.1.067.392.161.542" transform="translate(-9.982 -3.585)" fill="#fff"/>
      <path id="Tracé_172" data-name="Tracé 172" d="M34.674,44.881c0,.106.072.114.128.112.276-.008.471.072.489.365a.352.352,0,0,1-.312.4.543.543,0,0,1-.643-.274.708.708,0,0,1,.109-.754c.164-.215.4-.146.62-.151.1,0,.187.043.183.134,0,.063-.084.1-.169.116-.136.017-.293-.047-.405.054" transform="translate(-5.76 -7.491)" fill="#fff"/>
      <path id="Tracé_173" data-name="Tracé 173" d="M38.4,44.828c-.266-.007-.413.092-.453.3a.3.3,0,0,0,.245.356c.18.05.41.09.4-.216,0-.067.055-.091.121-.095.1-.007.141.042.138.124,0,.122.07.3-.059.354a.914.914,0,0,1-.9,0,.518.518,0,0,1-.25-.6.6.6,0,0,1,.637-.474c.2-.012.471.009.458.207-.02.334-.265-.146-.335.045" transform="translate(-6.323 -7.491)" fill="#fff"/>
      <path id="Tracé_174" data-name="Tracé 174" d="M56.33,21.974c-.031.266.167.671-.431.587-.154-.022-.209-.068-.205-.207.006-.253.013-.506,0-.758s.149-.226.32-.226.344-.019.32.225c-.012.126,0,.253,0,.379" transform="translate(-9.359 -3.592)" fill="#fff"/>
      <path id="Tracé_175" data-name="Tracé 175" d="M58.294,21.964c0,.6-.06.672-.466.591-.077-.016-.158-.021-.159-.111a7.069,7.069,0,0,1,.009-.967c.024-.195.247-.085.381-.1s.241.008.235.171c0,.14,0,.28,0,.421" transform="translate(-9.69 -3.59)" fill="#fff"/>
      <path id="Tracé_176" data-name="Tracé 176" d="M4.945,11.831a.958.958,0,0,1-.126.448c-.275-.141-.758.176-.853-.269a.48.48,0,0,1,.509-.6c.265-.006.506.095.47.421" transform="translate(-0.664 -1.918)" fill="#fefeff"/>
      <path id="Tracé_177" data-name="Tracé 177" d="M3.623,13.742a.7.7,0,0,0-.1.443c0,.322-.176.494-.524.481s-.393-.238-.384-.5c0-.124.089-.245-.065-.431a1.894,1.894,0,0,0,1.075.014Z" transform="translate(-0.429 -2.308)" fill="#fefeff"/>
      <path id="Tracé_178" data-name="Tracé 178" d="M33.18,41.821a.7.7,0,0,1,.344.082c.141.059.122.152.074.24s-.121.088-.211.014a.328.328,0,0,0-.5.072.263.263,0,0,0,0,.38.329.329,0,0,0,.5.071c.122-.1.183-.031.25.045.116.129-.013.158-.1.2a.748.748,0,0,1-.832-.07.552.552,0,0,1-.156-.671c.094-.285.364-.334.632-.367" transform="translate(-5.462 -7.028)" fill="#fff"/>
      <path id="Tracé_179" data-name="Tracé 179" d="M5.146,13.442a.794.794,0,0,0,.086-.512c-.073-.324.118-.4.4-.415s.486.047.508.339a.431.431,0,0,1-.447.506,1.43,1.43,0,0,0-.549.082" transform="translate(-0.865 -2.103)" fill="#fefeff"/>
      <path id="Tracé_180" data-name="Tracé 180" d="M2.231,13.436c-.106.007-.249.014-.392.029-.231.024-.431-.032-.5-.249a.432.432,0,0,1,.142-.494.85.85,0,0,1,.685-.083c.1.018.068.139.068.219,0,.191,0,.384,0,.578" transform="translate(-0.22 -2.119)" fill="#fff"/>
      <path id="Tracé_181" data-name="Tracé 181" d="M4.821,14.056c0,.233.006.485-.374.528a.465.465,0,0,1-.574-.4.409.409,0,0,1,.478-.439c.2.019.588-.181.471.315" transform="translate(-0.651 -2.306)" fill="#fefeff"/>
      <path id="Tracé_182" data-name="Tracé 182" d="M3.845,13.558a4.546,4.546,0,0,0,.092-.533.4.4,0,0,1,.49-.412c.305.027.413.173.411.441,0,.308-.175.418-.485.413-.174,0-.366-.064-.513.085l.006.006" transform="translate(-0.645 -2.12)" fill="#fff"/>
      <path id="Tracé_183" data-name="Tracé 183" d="M2.667,12.038a.477.477,0,0,1,.441-.622.42.42,0,0,1,.483.43.4.4,0,0,1-.429.457c-.141-.017-.631.209-.494-.265" transform="translate(-0.444 -1.918)" fill="#feffff"/>
      <path id="Tracé_184" data-name="Tracé 184" d="M33.986,60.4c0,.169-.006.338,0,.507s-.022.265-.241.259c-.195-.006-.217-.1-.215-.24,0-.352,0-.7,0-1.055,0-.146.026-.232.218-.237.221-.007.245.1.239.26s0,.338,0,.507" transform="translate(-5.635 -10.022)" fill="#fff"/>
      <path id="Tracé_185" data-name="Tracé 185" d="M28.2,49.48c0,.183,0,.365,0,.548s-.131.153-.251.157-.2-.031-.2-.163c0-.365,0-.731,0-1.1,0-.158.093-.18.23-.181s.23.033.225.186c-.007.182,0,.365,0,.548" transform="translate(-4.663 -8.192)" fill="#fff"/>
      <path id="Tracé_186" data-name="Tracé 186" d="M29.508,49.48c0,.183,0,.365,0,.548s-.131.153-.251.157-.2-.031-.2-.163c0-.365,0-.731,0-1.1,0-.158.093-.18.23-.181s.23.033.225.186c-.007.182,0,.365,0,.548" transform="translate(-4.883 -8.192)" fill="#fff"/>
      <path id="Tracé_187" data-name="Tracé 187" d="M32,49.431c0-.169,0-.338,0-.506s.095-.178.231-.179.225.036.224.187q-.009.528,0,1.055c0,.141-.054.2-.21.2s-.256-.035-.246-.21,0-.365,0-.548" transform="translate(-5.378 -8.193)" fill="#fff"/>
      <path id="Tracé_188" data-name="Tracé 188" d="M33.985,49.455c0,.183,0,.366,0,.548,0,.156-.087.183-.228.183s-.23-.027-.227-.183c0-.351.008-.7,0-1.054,0-.18.092-.2.251-.205s.21.067.205.205c-.007.168,0,.337,0,.506" transform="translate(-5.635 -8.192)" fill="#fff"/>
      <path id="Tracé_189" data-name="Tracé 189" d="M35.622,49.48c0,.183,0,.365,0,.548s-.131.154-.251.157-.2-.03-.2-.162c0-.366,0-.731,0-1.1,0-.157.092-.18.23-.181s.23.033.225.186c-.007.182,0,.365,0,.548" transform="translate(-5.91 -8.192)" fill="#fff"/>
      <path id="Tracé_190" data-name="Tracé 190" d="M26.888,60.377c0,.169,0,.338,0,.506.006.147-.066.2-.216.194-.131,0-.24-.007-.239-.172q.007-.549,0-1.1c0-.165.107-.169.239-.172.151,0,.221.047.216.194-.007.182,0,.365,0,.548" transform="translate(-4.443 -10.022)" fill="#fff"/>
      <path id="Tracé_191" data-name="Tracé 191" d="M27.747,60.294c0-.155,0-.309,0-.464s.062-.2.215-.195c.13,0,.242,0,.24.171,0,.365,0,.731,0,1.1,0,.163-.1.171-.237.174s-.223-.043-.218-.191c.007-.2,0-.394,0-.591" transform="translate(-4.663 -10.022)" fill="#fff"/>
      <path id="Tracé_192" data-name="Tracé 192" d="M29.057,60.368c0-.183,0-.366,0-.548-.006-.154.083-.186.225-.186s.231.024.23.181c-.006.365,0,.731,0,1.1,0,.134-.078.166-.2.162s-.252.014-.25-.158,0-.365,0-.548" transform="translate(-4.883 -10.022)" fill="#fff"/>
      <path id="Tracé_193" data-name="Tracé 193" d="M32,60.373c0-.169,0-.338,0-.506-.006-.148.03-.236.22-.235s.24.057.237.22c-.008.338-.009.676,0,1.012,0,.171-.076.215-.245.212-.153,0-.218-.053-.212-.2.007-.168,0-.337,0-.506" transform="translate(-5.378 -10.022)" fill="#fff"/>
      <path id="Tracé_194" data-name="Tracé 194" d="M35.171,60.338c0-.169,0-.338,0-.506-.006-.144.058-.2.213-.2.127,0,.244,0,.241.168,0,.366,0,.731,0,1.1,0,.161-.1.174-.235.176s-.225-.04-.22-.19c.007-.182,0-.365,0-.548" transform="translate(-5.91 -10.022)" fill="#fff"/>
      <path id="Tracé_195" data-name="Tracé 195" d="M26.887,49.48c0,.183,0,.365,0,.548s-.131.154-.251.157-.2-.03-.2-.162c0-.366,0-.731,0-1.1,0-.157.092-.18.23-.181s.23.033.225.186c-.007.182,0,.365,0,.548" transform="translate(-4.442 -8.192)" fill="#fff"/>
      <path id="Tracé_196" data-name="Tracé 196" d="M33.15,44.579c.592,0,.589-.006.327.5a5.431,5.431,0,0,0-.262.566c-.06.158-.195.137-.292.1-.175-.062-.015-.158.009-.233.03-.092.1-.171.131-.261.045-.125.145-.309.092-.374-.129-.151-.2.059-.3.1-.082.036-.193.021-.189-.1s-.089-.272.126-.3a2.724,2.724,0,0,1,.359,0" transform="translate(-5.487 -7.491)" fill="#fff"/>
      <path id="Tracé_197" data-name="Tracé 197" d="M31.424,45.252c.19-.038.107-.349.325-.235a.469.469,0,0,1,.242.342c-.007.134-.144.27-.25.386a.114.114,0,0,1-.171-.076c-.017-.09-.034-.169-.157-.161-.633.037-.379-.271-.241-.535a1.752,1.752,0,0,0,.1-.186c.048-.131.136-.26.286-.2.217.091-.023.2-.032.3s-.164.194-.1.36" transform="translate(-5.211 -7.491)" fill="#fff"/>
      <path id="Tracé_198" data-name="Tracé 198" d="M5.1,16.347c-.182.194-.355.151-.527-.016-.136-.134-.091-.249.039-.359.177-.149.371-.162.492.03s.16.029.211-.015A.35.35,0,0,1,5.857,16c.135.134.1.245-.031.359a.324.324,0,0,1-.5-.016.52.52,0,0,0-.493-.126c.046.136.205.028.27.125" transform="translate(-0.754 -2.666)" fill="#fff"/>
      <path id="Tracé_199" data-name="Tracé 199" d="M34.293,42.376c.1-.147-.184-.508.162-.516.392-.009.176.362.187.553.015.256.061.4.372.354.092-.013.183.011.181.128s-.1.11-.19.122c-.651.092-.712.039-.712-.642" transform="translate(-5.76 -7.035)" fill="#fff"/>
      <path id="Tracé_200" data-name="Tracé 200" d="M29.6,45.169c0-.14,0-.28,0-.419,0-.119.048-.176.186-.175s.178.071.176.184.008.252,0,.377c-.017.231-.006.426.339.374.084-.013.188-.011.2.109.013.153-.11.131-.211.141-.669.07-.688.054-.687-.591" transform="translate(-4.975 -7.492)" fill="#fff"/>
      <path id="Tracé_201" data-name="Tracé 201" d="M55.366,6.005a2.674,2.674,0,0,0,0,.295c.019.214-.126.213-.289.212s-.27-.01-.26-.2c.01-.154,0-.309,0-.463s-.068-.364.263-.366.287.166.282.351c0,.056,0,.112,0,.168" transform="translate(-9.213 -0.922)" fill="#fff"/>
      <path id="Tracé_202" data-name="Tracé 202" d="M3.329,12.615c.082.035.286-.143.249.13s-.025.589-.428.625A.338.338,0,0,1,2.76,13c.015-.31.255-.412.569-.389" transform="translate(-0.464 -2.116)" fill="#f9fafc"/>
      <path id="Tracé_203" data-name="Tracé 203" d="M30.947,60.359c0,.169,0,.338,0,.506,0,.13-.024.217-.2.21-.149-.006-.166-.087-.166-.195q0-.528,0-1.055c0-.111.027-.184.173-.188.18-.006.191.094.19.216,0,.168,0,.337,0,.506" transform="translate(-5.14 -10.023)" fill="#fff"/>
      <path id="Tracé_204" data-name="Tracé 204" d="M30.946,49.494c0,.169,0,.338,0,.506,0,.114-.032.185-.176.186s-.186-.058-.186-.177c0-.365,0-.731,0-1.1,0-.131.072-.167.2-.163s.161.055.161.155v.591" transform="translate(-5.14 -8.193)" fill="#fff"/>
      <path id="Tracé_205" data-name="Tracé 205" d="M56.584,6.017c0,.112,0,.225,0,.337,0,.173-.131.152-.252.156s-.2-.032-.2-.163c0-.2,0-.394,0-.59,0-.155.007-.268.232-.267s.228.126.223.274c0,.084,0,.169,0,.253Z" transform="translate(-9.433 -0.923)" fill="#fff"/>
      <path id="Tracé_206" data-name="Tracé 206" d="M29.538,14.077c-.151,0-.3,0-.453,0-.12,0-.243.012-.248-.161s.1-.177.231-.176c.3,0,.6,0,.905,0,.138,0,.232.022.225.184-.006.139-.093.156-.208.155h-.453" transform="translate(-4.846 -2.309)" fill="#fff"/>
      <path id="Tracé_207" data-name="Tracé 207" d="M37.833,14.754c.151.1.538-.188.547.161s-.371.121-.569.17a2.141,2.141,0,0,1-.451.007c-.138,0-.232-.022-.225-.183.007-.139.094-.156.209-.155h.489" transform="translate(-6.241 -2.477)" fill="#fff"/>
      <path id="Tracé_208" data-name="Tracé 208" d="M55.364,10.454c-.008.182.079.4-.283.389-.378-.007-.246-.245-.256-.411s-.079-.363.256-.368c.361-.006.275.207.283.389" transform="translate(-9.211 -1.692)" fill="#fff"/>
      <path id="Tracé_209" data-name="Tracé 209" d="M1.447,16.029c-.109.134.036.309-.188.412a1.745,1.745,0,0,1-.038-.652c0-.124.087-.124.181-.063l.381.255c.039-.035-.094-.208.073-.305.163.207.072.442.074.656,0,.123-.111.111-.184.04-.1-.1-.184-.209-.3-.342" transform="translate(-0.203 -2.635)" fill="#fff"/>
      <path id="Tracé_210" data-name="Tracé 210" d="M29.474,17.447c-.174-.068-.588.117-.581-.108.009-.305.408-.09.629-.138a2.249,2.249,0,0,1,.5,0c.093,0,.187.007.183.129s-.1.121-.191.121c-.166,0-.332,0-.537,0" transform="translate(-4.856 -2.886)" fill="#fff"/>
      <path id="Tracé_211" data-name="Tracé 211" d="M29.555,14.659c.166,0,.332,0,.5,0,.085,0,.142.035.141.124s-.06.121-.144.122c-.363,0-.725,0-1.087,0a.1.1,0,0,1-.116-.1c-.007-.082.026-.138.119-.14.2,0,.392,0,.588,0v0" transform="translate(-4.848 -2.464)" fill="#fff"/>
      <path id="Tracé_212" data-name="Tracé 212" d="M29.427,15.819c-.162-.055-.546.106-.539-.11.009-.3.382-.1.591-.136a2.734,2.734,0,0,1,.542,0c.093,0,.186.008.181.131s-.1.119-.193.12c-.181,0-.362,0-.581,0" transform="translate(-4.855 -2.612)" fill="#fff"/>
      <path id="Tracé_213" data-name="Tracé 213" d="M56.59,10.468c-.051.137.109.359-.215.371-.352.012-.242-.224-.238-.378s-.129-.393.225-.389.169.255.229.4" transform="translate(-9.431 -1.693)" fill="#fff"/>
      <path id="Tracé_214" data-name="Tracé 214" d="M29.532,16.636c-.181,0-.362,0-.543,0-.084,0-.143-.032-.144-.121s.056-.124.141-.125q.52,0,1.042,0c.1,0,.176.029.164.145-.011.094-.086.1-.161.1-.166,0-.332,0-.5,0Z" transform="translate(-4.848 -2.754)" fill="#fff"/>
      <path id="Tracé_215" data-name="Tracé 215" d="M33.641,18.9c0-.1,0-.2,0-.3s.035-.182.178-.183S34,18.48,34,18.6c0,.154,0,.309,0,.463,0,.129.056.3-.2.287-.225-.013-.145-.171-.161-.282a1.132,1.132,0,0,1,0-.168" transform="translate(-5.653 -3.096)" fill="#fff"/>
      <path id="Tracé_216" data-name="Tracé 216" d="M34.877,18.866c0,.084,0,.169,0,.253,0,.111.016.227-.171.232s-.194-.089-.192-.214-.007-.281,0-.421-.067-.3.192-.294c.225.007.155.162.168.275a1.429,1.429,0,0,1,0,.169" transform="translate(-5.8 -3.096)" fill="#fff"/>
      <path id="Tracé_217" data-name="Tracé 217" d="M37.785,14.2c-.2-.092-.6.125-.6-.141s.4-.121.6-.112.578-.184.583.133c0,.214-.382.049-.588.12" transform="translate(-6.249 -2.336)" fill="#fff"/>
      <path id="Tracé_218" data-name="Tracé 218" d="M37.679,16.736c-.144-.073-.5.13-.5-.111,0-.282.356-.1.549-.136a2.474,2.474,0,0,1,.5,0c.093,0,.187.008.181.131s-.1.117-.194.119c-.166,0-.332,0-.533,0" transform="translate(-6.248 -2.767)" fill="#fff"/>
      <path id="Tracé_219" data-name="Tracé 219" d="M37.8,17.561c-.209-.085-.622.106-.613-.127.012-.307.414-.111.635-.126.186-.012.557-.146.552.121,0,.236-.375.059-.574.132" transform="translate(-6.25 -2.901)" fill="#fff"/>
      <path id="Tracé_220" data-name="Tracé 220" d="M37.748,15.94c-.2-.087-.568.112-.567-.148s.369-.111.567-.113c.216,0,.63-.119.621.1-.013.333-.42.039-.62.165" transform="translate(-6.249 -2.629)" fill="#fff"/>
      <path id="Tracé_221" data-name="Tracé 221" d="M34.891,12.528c-.1.136.142.423-.2.418s-.163-.28-.166-.424-.154-.384.149-.4c.357-.018.127.27.219.405" transform="translate(-5.795 -2.038)" fill="#fff"/>
      <path id="Tracé_222" data-name="Tracé 222" d="M34.032,12.5c-.111.159.126.443-.213.444s-.169-.277-.171-.42-.163-.418.189-.4c.318.013.057.282.195.379" transform="translate(-5.648 -2.038)" fill="#fff"/>
      <path id="Tracé_223" data-name="Tracé 223" d="M2.37,15.874c.209.1.031.319.186.411a.282.282,0,0,0,.082-.034c.1-.1-.092-.353.177-.363.187-.007.121.162.121.259,0,.137.079.336-.207.322-.176-.009-.388.039-.416-.207a.483.483,0,0,1,.057-.388" transform="translate(-0.386 -2.668)" fill="#fff"/>
      <path id="Tracé_224" data-name="Tracé 224" d="M31.641,18.9c-.087.162.1.433-.157.437s-.131-.269-.127-.405c0-.164-.151-.473.141-.47.25,0,.027.311.143.438" transform="translate(-5.263 -3.102)" fill="#fff"/>
      <path id="Tracé_225" data-name="Tracé 225" d="M32.114,18.868c0-.1,0-.2,0-.3,0-.073.021-.137.12-.144.128-.008.147.07.148.161,0,.169.008.338,0,.507,0,.1.059.257-.141.245s-.111-.165-.126-.263a1.366,1.366,0,0,1,0-.21Z" transform="translate(-5.396 -3.097)" fill="#fff"/>
      <path id="Tracé_226" data-name="Tracé 226" d="M36.64,18.934c-.057.118.112.394-.124.394-.295,0-.09-.287-.146-.438a.206.206,0,0,1,0-.125c.034-.116-.1-.334.144-.323.226.011.091.222.125.342a.663.663,0,0,1,0,.15" transform="translate(-6.109 -3.1)" fill="#fff"/>
      <path id="Tracé_227" data-name="Tracé 227" d="M35.768,18.856a2.04,2.04,0,0,1,0,.242c-.013.1.057.257-.141.249s-.113-.163-.127-.261a.543.543,0,0,1,0-.21c.037-.147-.11-.419.118-.422.309,0,.07.292.152.4" transform="translate(-5.963 -3.102)" fill="#fff"/>
      <path id="Tracé_228" data-name="Tracé 228" d="M33.147,18.934c-.057.118.117.385-.126.4-.283.012-.089-.262-.144-.4a.283.283,0,0,1,0-.166c.032-.116-.1-.335.145-.322.225.012.091.223.124.343a.663.663,0,0,1,0,.15" transform="translate(-5.523 -3.1)" fill="#fff"/>
      <path id="Tracé_229" data-name="Tracé 229" d="M32.383,12.556c0,.084,0,.169,0,.253s-.022.137-.121.144c-.128.008-.146-.071-.147-.161,0-.141-.009-.282,0-.422.007-.1-.058-.257.143-.245s.108.166.125.263a.953.953,0,0,1,0,.169Z" transform="translate(-5.396 -2.038)" fill="#fff"/>
      <path id="Tracé_230" data-name="Tracé 230" d="M31.335,12.551c.072-.137-.111-.407.142-.411.27,0,.131.268.127.4s.16.4-.139.394c-.225-.007-.067-.255-.131-.387" transform="translate(-5.266 -2.041)" fill="#fff"/>
      <path id="Tracé_231" data-name="Tracé 231" d="M35.768,12.508a.711.711,0,0,1,0,.149c-.027.106.083.3-.138.291s-.1-.191-.131-.3a.257.257,0,0,1,0-.126c.037-.134-.1-.378.116-.386.3-.011.077.265.155.369" transform="translate(-5.964 -2.04)" fill="#fff"/>
      <path id="Tracé_232" data-name="Tracé 232" d="M33.147,12.511a1.506,1.506,0,0,1,0,.2c-.014.1.055.252-.146.244-.162-.007-.112-.136-.123-.225a.439.439,0,0,1,0-.168c.042-.146-.118-.41.124-.419.284-.011.071.268.146.37" transform="translate(-5.523 -2.041)" fill="#fff"/>
      <path id="Tracé_233" data-name="Tracé 233" d="M36.641,12.508a.711.711,0,0,1,0,.149c-.027.106.083.3-.138.291s-.1-.191-.131-.3a.247.247,0,0,1,0-.126c.037-.134-.1-.378.116-.386.3-.011.077.265.155.369" transform="translate(-6.111 -2.04)" fill="#fff"/>
      <path id="Tracé_234" data-name="Tracé 234" d="M3.8,16.354a.352.352,0,0,1-.557-.046c-.111-.123-.058-.225.05-.326a.347.347,0,0,1,.5-.01c-.09.137-.352-.021-.33.212.018.2.231.059.338.17" transform="translate(-0.534 -2.668)" fill="#fff"/>
      <path id="Tracé_235" data-name="Tracé 235" d="M4.25,15.6a.973.973,0,0,1,.01.8.982.982,0,0,1-.01-.8" transform="translate(-0.701 -2.621)" fill="#fff"/>
      <path id="Tracé_236" data-name="Tracé 236" d="M28.446,45.374a.529.529,0,0,1,.537-.021c-.179.147-.319.121-.537.021" transform="translate(-4.781 -7.612)" fill="#fff"/>
      <path id="Tracé_237" data-name="Tracé 237" d="M5.962,63.132c0,.435-.218.627-.694.623a.677.677,0,0,1-.667-.6.7.7,0,0,1,.745-.67.673.673,0,0,1,.616.646" transform="translate(-0.773 -10.502)" fill="#56509a"/>
      <path id="Tracé_238" data-name="Tracé 238" d="M5.281,53.071a.682.682,0,0,1-.681-.587.681.681,0,0,1,1.361-.05c0,.443-.206.636-.681.636" transform="translate(-0.773 -8.706)" fill="#56509a"/>
      <path id="Tracé_239" data-name="Tracé 239" d="M5.962,39.631c-.007.432-.224.623-.7.616a.677.677,0,0,1-.66-.606.684.684,0,0,1,.707-.663.668.668,0,0,1,.654.652" transform="translate(-0.773 -6.551)" fill="#56509a"/>
      <path id="Tracé_240" data-name="Tracé 240" d="M5.3,34.7c.466,0,.671.2.666.649a.675.675,0,0,1-.644.62.7.7,0,0,1-.717-.7A.686.686,0,0,1,5.3,34.7" transform="translate(-0.773 -5.833)" fill="#56509a"/>
      <path id="Tracé_241" data-name="Tracé 241" d="M5.962,37.494a.56.56,0,0,1-.653.616.639.639,0,1,1,0-1.27.661.661,0,0,1,.652.653" transform="translate(-0.773 -6.192)" fill="#56509a"/>
      <path id="Tracé_242" data-name="Tracé 242" d="M5.962,41.755c0,.44-.21.632-.685.631a.635.635,0,1,1,.012-1.266.664.664,0,0,1,.673.636" transform="translate(-0.773 -6.911)" fill="#56509a"/>
      <path id="Tracé_243" data-name="Tracé 243" d="M5.962,67.487a.664.664,0,0,1-.661.645.674.674,0,0,1-.7-.665.685.685,0,0,1,.716-.6.559.559,0,0,1,.645.625" transform="translate(-0.773 -11.237)" fill="#56509a"/>
      <path id="Tracé_244" data-name="Tracé 244" d="M5.962,60.978a.635.635,0,0,1-.656.641.639.639,0,1,1,.007-1.27.586.586,0,0,1,.648.629" transform="translate(-0.773 -10.143)" fill="#56509a"/>
      <path id="Tracé_245" data-name="Tracé 245" d="M5.962,30.951A.664.664,0,0,1,5.3,31.6a.639.639,0,1,1,.015-1.27.56.56,0,0,1,.646.624" transform="translate(-0.773 -5.097)" fill="#56509a"/>
      <path id="Tracé_246" data-name="Tracé 246" d="M5.962,33.116c-.006.432-.22.623-.7.618a.677.677,0,0,1-.666-.6.788.788,0,0,1,.7-.669.662.662,0,0,1,.656.647" transform="translate(-0.773 -5.457)" fill="#56509a"/>
      <path id="Tracé_247" data-name="Tracé 247" d="M5.962,58.86a.559.559,0,0,1-.648.621.683.683,0,0,1-.713-.608.675.675,0,0,1,.7-.661.662.662,0,0,1,.657.648" transform="translate(-0.773 -9.783)" fill="#56509a"/>
      <path id="Tracé_248" data-name="Tracé 248" d="M5.962,65.24c.007.446-.2.648-.666.653a.686.686,0,0,1-.695-.576.82.82,0,0,1,.659-.69.673.673,0,0,1,.7.612" transform="translate(-0.773 -10.861)" fill="#56509a"/>
      <path id="Tracé_249" data-name="Tracé 249" d="M5.962,48.158a.559.559,0,0,1-.631.637A.691.691,0,0,1,4.6,48.2a.681.681,0,0,1,1.361-.046" transform="translate(-0.773 -7.988)" fill="#56509a"/>
      <path id="Tracé_250" data-name="Tracé 250" d="M3.906,58.855c0,.43-.192.621-.625.626a.559.559,0,0,1-.646-.619.58.58,0,0,1,.619-.651c.45-.009.653.191.652.643" transform="translate(-0.443 -9.783)" fill="#56509a"/>
      <path id="Tracé_251" data-name="Tracé 251" d="M5.321,57.346a.689.689,0,0,1-.72-.587.793.793,0,0,1,.71-.672.655.655,0,0,1,.651.646c-.007.428-.2.614-.641.613" transform="translate(-0.773 -9.426)" fill="#56509a"/>
      <path id="Tracé_252" data-name="Tracé 252" d="M5.29,49.663c.469,0,.676.2.673.646a.658.658,0,0,1-.65.613.788.788,0,0,1-.711-.678.684.684,0,0,1,.688-.582" transform="translate(-0.773 -8.347)" fill="#56509a"/>
      <path id="Tracé_253" data-name="Tracé 253" d="M5.3,70.275a.676.676,0,0,1-.7-.61.754.754,0,0,1,.7-.628.6.6,0,0,1,.661.631c-.01.428-.207.61-.657.606" transform="translate(-0.773 -11.603)" fill="#56509a"/>
      <path id="Tracé_254" data-name="Tracé 254" d="M3.906,67.521a.538.538,0,0,1-.6.611.667.667,0,0,1-.671-.635.559.559,0,0,1,.632-.635c.452,0,.641.195.639.659" transform="translate(-0.443 -11.237)" fill="#56509a"/>
      <path id="Tracé_255" data-name="Tracé 255" d="M5.306,44.528a.677.677,0,0,1-.705-.609.757.757,0,0,1,.7-.63.607.607,0,0,1,.661.631c-.009.428-.206.611-.656.607" transform="translate(-0.773 -7.275)" fill="#56509a"/>
      <path id="Tracé_256" data-name="Tracé 256" d="M3.906,61.013c0,.419-.21.612-.647.606a.579.579,0,0,1-.624-.646.557.557,0,0,1,.641-.624c.448,0,.633.2.63.664" transform="translate(-0.443 -10.143)" fill="#56509a"/>
      <path id="Tracé_257" data-name="Tracé 257" d="M3.906,37.484c0,.431-.194.623-.629.626a.556.556,0,0,1-.642-.626A.665.665,0,0,1,3.3,36.84c.4-.011.611.207.61.644" transform="translate(-0.443 -6.192)" fill="#56509a"/>
      <path id="Tracé_258" data-name="Tracé 258" d="M3.906,48.191c0,.417-.211.611-.648.6a.557.557,0,0,1-.623-.641.584.584,0,0,1,.642-.629c.448,0,.632.2.629.665" transform="translate(-0.443 -7.988)" fill="#56509a"/>
      <path id="Tracé_259" data-name="Tracé 259" d="M3.906,30.98c0,.423-.2.618-.636.616a.581.581,0,0,1-.636-.635.558.558,0,0,1,.63-.635c.451,0,.643.194.641.653" transform="translate(-0.443 -5.097)" fill="#56509a"/>
      <path id="Tracé_260" data-name="Tracé 260" d="M5.962,54.618a.6.6,0,0,1-.644.649.719.719,0,0,1-.717-.639.683.683,0,0,1,.678-.589c.462-.009.676.173.683.579" transform="translate(-0.773 -9.082)" fill="#56509a"/>
      <path id="Tracé_261" data-name="Tracé 261" d="M3.906,52.439c0,.433-.189.625-.623.631a.559.559,0,0,1-.648-.619.667.667,0,0,1,.653-.649.55.55,0,0,1,.618.637" transform="translate(-0.443 -8.706)" fill="#56509a"/>
      <path id="Tracé_262" data-name="Tracé 262" d="M3.9,65.3c0,.438-.174.6-.646.6-.438,0-.592-.175-.634-.576-.044-.418.261-.618.67-.681.337-.052.61.27.611.659" transform="translate(-0.44 -10.862)" fill="#56509a"/>
      <path id="Tracé_263" data-name="Tracé 263" d="M5.291,46.675A.687.687,0,0,1,4.6,46.1c-.012-.37.3-.616.778-.606a.535.535,0,0,1,.583.592c0,.409-.215.6-.671.594" transform="translate(-0.773 -7.645)" fill="#56509a"/>
      <path id="Tracé_264" data-name="Tracé 264" d="M3.906,39.663a.511.511,0,0,1-.577.585c-.477,0-.692-.188-.695-.626a.674.674,0,0,1,.623-.642.625.625,0,0,1,.648.684" transform="translate(-0.443 -6.551)" fill="#56509a"/>
      <path id="Tracé_265" data-name="Tracé 265" d="M3.906,41.807c0,.406-.2.586-.622.577-.456-.009-.651-.192-.649-.606a.67.67,0,0,1,.639-.662.613.613,0,0,1,.632.691" transform="translate(-0.443 -6.91)" fill="#56509a"/>
      <path id="Tracé_266" data-name="Tracé 266" d="M3.906,33.162c0,.4-.2.582-.627.572-.454-.011-.648-.194-.644-.611a.67.67,0,0,1,.644-.658.61.61,0,0,1,.627.7" transform="translate(-0.443 -5.457)" fill="#56509a"/>
      <path id="Tracé_267" data-name="Tracé 267" d="M3.906,35.326a.622.622,0,0,1-.645.645.673.673,0,0,1-.626-.639c0-.44.214-.633.691-.629.41,0,.587.192.58.623" transform="translate(-0.443 -5.833)" fill="#56509a"/>
      <path id="Tracé_268" data-name="Tracé 268" d="M3.906,63.147c0,.427-.176.61-.6.609-.473,0-.68-.2-.676-.643a.672.672,0,0,1,.641-.626.612.612,0,0,1,.63.66" transform="translate(-0.443 -10.502)" fill="#56509a"/>
      <path id="Tracé_269" data-name="Tracé 269" d="M3.906,50.254a.62.62,0,0,1-.651.669.656.656,0,0,1-.62-.676c0-.408.184-.58.617-.583.474,0,.653.158.654.591" transform="translate(-0.443 -8.347)" fill="#56509a"/>
      <path id="Tracé_270" data-name="Tracé 270" d="M3.906,56.757c0,.432-.181.593-.656.589-.433,0-.614-.175-.616-.584a.656.656,0,0,1,.621-.676.62.62,0,0,1,.651.671" transform="translate(-0.443 -9.426)" fill="#56509a"/>
      <path id="Tracé_271" data-name="Tracé 271" d="M2.634,69.685a.656.656,0,0,1,.629-.674.656.656,0,0,1,.642.661c0,.425-.169.593-.606.6-.482.006-.664-.155-.666-.586" transform="translate(-0.443 -11.598)" fill="#56509a"/>
      <path id="Tracé_272" data-name="Tracé 272" d="M3.274,44.523c-.47,0-.643-.164-.64-.61a.656.656,0,0,1,.655-.65.658.658,0,0,1,.617.643c0,.46-.154.616-.632.616" transform="translate(-0.443 -7.271)" fill="#56509a"/>
      <path id="Tracé_273" data-name="Tracé 273" d="M3.906,54.639a.636.636,0,1,1-1.271-.021c0-.406.186-.577.624-.579.474,0,.649.16.647.6" transform="translate(-0.443 -9.082)" fill="#56509a"/>
      <path id="Tracé_274" data-name="Tracé 274" d="M3.906,46.079c0,.423-.171.592-.609.6-.488.006-.661-.149-.662-.588s.176-.6.654-.6c.438,0,.616.175.617.589" transform="translate(-0.443 -7.645)" fill="#56509a"/>
      <path id="Tracé_275" data-name="Tracé 275" d="M4.386,51.128c.341.194.422.4-.018.611-.34-.193-.423-.4.018-.611" transform="translate(-0.686 -8.593)" fill="#56509a"/>
      <path id="Tracé_276" data-name="Tracé 276" d="M4.7,62.175c-.118.1-.233.265-.312.251-.142-.025-.31-.148-.3-.308a.244.244,0,0,1,.273-.22c.126.036.22.172.344.276" transform="translate(-0.686 -10.402)" fill="#56509a"/>
      <path id="Tracé_277" data-name="Tracé 277" d="M4.683,68.669c-.161.076-.184.448-.467.168-.1-.1-.229-.183-.055-.337.326-.288.325.157.522.169" transform="translate(-0.685 -11.496)" fill="#56509a"/>
      <path id="Tracé_278" data-name="Tracé 278" d="M4.771,36.436c-.271.057-.29.453-.607.185-.177-.15-.055-.23.05-.337.282-.285.307.089.557.152" transform="translate(-0.685 -6.08)" fill="#56509a"/>
      <path id="Tracé_279" data-name="Tracé 279" d="M4.667,32.159c-.157.081-.2.413-.448.146-.1-.106-.235-.182-.058-.337.315-.275.34.124.507.191" transform="translate(-0.685 -5.357)" fill="#56509a"/>
      <path id="Tracé_280" data-name="Tracé 280" d="M4.088,45.082c.186-.292.381-.337.578.007-.186.292-.382.338-.578-.007" transform="translate(-0.687 -7.537)" fill="#56509a"/>
      <path id="Tracé_281" data-name="Tracé 281" d="M4.666,53.638c-.186.292-.381.337-.578-.007.186-.292.382-.338.578.007" transform="translate(-0.687 -8.974)" fill="#56509a"/>
      <path id="Tracé_282" data-name="Tracé 282" d="M4.38,43.212c-.314-.172-.363-.355.007-.538.313.172.362.355-.007.538" transform="translate(-0.694 -7.172)" fill="#56509a"/>
      <path id="Tracé_283" data-name="Tracé 283" d="M4.666,34.3c-.193.333-.391.309-.577,0,.193-.333.39-.309.577,0" transform="translate(-0.687 -5.724)" fill="#56509a"/>
      <path id="Tracé_284" data-name="Tracé 284" d="M4.381,66.72c-.329-.174-.354-.359,0-.538.328.174.353.359,0,.538" transform="translate(-0.693 -11.123)" fill="#56509a"/>
      <path id="Tracé_285" data-name="Tracé 285" d="M4.383,55.5c.346.177.341.363,0,.538-.346-.177-.343-.363,0-.538" transform="translate(-0.693 -9.327)" fill="#56509a"/>
      <path id="Tracé_286" data-name="Tracé 286" d="M4.384,41.074c-.347-.177-.341-.363,0-.538.346.177.343.363,0,.538" transform="translate(-0.693 -6.813)" fill="#56509a"/>
      <path id="Tracé_287" data-name="Tracé 287" d="M4.7,38.67c-.117.1-.214.255-.313.257a.319.319,0,0,1-.285-.263c0-.087.181-.255.262-.245.116.012.216.155.335.251" transform="translate(-0.69 -6.457)" fill="#56509a"/>
      <path id="Tracé_288" data-name="Tracé 288" d="M4.7,64.317c-.117.1-.216.24-.333.255-.081.01-.26-.156-.263-.246a.319.319,0,0,1,.282-.265c.1,0,.195.153.314.257" transform="translate(-0.69 -10.766)" fill="#56509a"/>
      <path id="Tracé_289" data-name="Tracé 289" d="M4.351,47.426c-.135-.02-.268-.143-.25-.2a.462.462,0,0,1,.26-.258c.111-.036.215.1.225.192.014.133-.127.2-.235.263" transform="translate(-0.689 -7.893)" fill="#56509a"/>
      <path id="Tracé_290" data-name="Tracé 290" d="M4.6,57.875c-.072.106-.142.241-.29.223-.082-.01-.15-.124-.224-.191.095-.09.176-.225.288-.255.089-.024.191.1.226.222" transform="translate(-0.686 -9.689)" fill="#56509a"/>
      <path id="Tracé_291" data-name="Tracé 291" d="M4.413,49.555c-.111-.068-.233-.126-.231-.241A.235.235,0,0,1,4.4,49.1c.069,0,.176.116.2.2.034.127-.132.163-.188.259" transform="translate(-0.703 -8.252)" fill="#56509a"/>
      <path id="Tracé_292" data-name="Tracé 292" d="M4.614,59.995a.294.294,0,0,1-.228.223c-.064,0-.18-.115-.2-.195-.034-.122.1-.225.2-.236s.186.1.233.208" transform="translate(-0.702 -10.048)" fill="#56509a"/>
      <path id="Tracé_293" data-name="Tracé 293" d="M62.735,31.149a.669.669,0,0,1-.657.65.636.636,0,1,1-.041-1.269c.477-.006.692.186.7.619" transform="translate(-10.314 -5.131)" fill="#56509a"/>
      <path id="Tracé_294" data-name="Tracé 294" d="M62.735,46.208c.007.445-.2.648-.661.655a.675.675,0,0,1-.7-.61.685.685,0,0,1,.711-.659.674.674,0,0,1,.65.614" transform="translate(-10.314 -7.663)" fill="#56509a"/>
      <path id="Tracé_295" data-name="Tracé 295" d="M62.068,66.1a.687.687,0,0,1-.695-.574.674.674,0,0,1,.671-.7.666.666,0,0,1,.691.621c.006.443-.2.645-.666.649" transform="translate(-10.314 -10.895)" fill="#56509a"/>
      <path id="Tracé_296" data-name="Tracé 296" d="M62.735,69.842c0,.441-.21.632-.686.631a.678.678,0,0,1-.676-.59.69.69,0,0,1,.736-.679.675.675,0,0,1,.625.638" transform="translate(-10.314 -11.631)" fill="#56509a"/>
      <path id="Tracé_297" data-name="Tracé 297" d="M62.735,56.91c0,.443-.2.637-.677.639A.639.639,0,1,1,62.1,56.28a.671.671,0,0,1,.633.63" transform="translate(-10.314 -9.459)" fill="#56509a"/>
      <path id="Tracé_298" data-name="Tracé 298" d="M62.735,44.075c.006.444-.2.645-.665.65a.686.686,0,0,1-.7-.571.7.7,0,0,1,.715-.7.674.674,0,0,1,.646.618" transform="translate(-10.314 -7.304)" fill="#56509a"/>
      <path id="Tracé_299" data-name="Tracé 299" d="M62.735,33.286a.559.559,0,0,1-.616.651.7.7,0,0,1-.745-.577.676.676,0,0,1,.671-.692.666.666,0,0,1,.69.618" transform="translate(-10.314 -5.491)" fill="#56509a"/>
      <path id="Tracé_300" data-name="Tracé 300" d="M62.068,60.552c.467,0,.672.2.667.648a.674.674,0,0,1-.643.621.7.7,0,0,1-.718-.7.687.687,0,0,1,.694-.573" transform="translate(-10.314 -10.177)" fill="#56509a"/>
      <path id="Tracé_301" data-name="Tracé 301" d="M62.735,37.678a.634.634,0,0,1-.661.636.639.639,0,1,1,.019-1.27.585.585,0,0,1,.642.635" transform="translate(-10.314 -6.226)" fill="#56509a"/>
      <path id="Tracé_302" data-name="Tracé 302" d="M62.735,52.645a.585.585,0,0,1-.643.628A.641.641,0,1,1,62.107,52a.578.578,0,0,1,.628.642" transform="translate(-10.314 -8.74)" fill="#56509a"/>
      <path id="Tracé_303" data-name="Tracé 303" d="M62.735,67.716a.674.674,0,0,1-.643.618.8.8,0,0,1-.718-.661.674.674,0,0,1,.7-.608c.463.006.668.207.662.651" transform="translate(-10.314 -11.271)" fill="#56509a"/>
      <path id="Tracé_304" data-name="Tracé 304" d="M62.735,41.967a.559.559,0,0,1-.649.621.683.683,0,0,1-.712-.609.675.675,0,0,1,.7-.661.662.662,0,0,1,.656.649" transform="translate(-10.314 -6.944)" fill="#56509a"/>
      <path id="Tracé_305" data-name="Tracé 305" d="M62.735,59.046a.681.681,0,0,1-1.361-.033.69.69,0,0,1,.724-.6.56.56,0,0,1,.637.631" transform="translate(-10.314 -9.817)" fill="#56509a"/>
      <path id="Tracé_306" data-name="Tracé 306" d="M62.735,48.351a.662.662,0,0,1-.657.648.674.674,0,0,1-.7-.661.683.683,0,0,1,.713-.608.559.559,0,0,1,.648.621" transform="translate(-10.314 -8.022)" fill="#56509a"/>
      <path id="Tracé_307" data-name="Tracé 307" d="M62.107,55.412a.7.7,0,0,1-.733-.575.787.787,0,0,1,.743-.685.653.653,0,0,1,.618.635c0,.43-.2.623-.628.625" transform="translate(-10.314 -9.101)" fill="#56509a"/>
      <path id="Tracé_308" data-name="Tracé 308" d="M62.735,39.832a.559.559,0,0,1-.65.619.638.638,0,1,1-.006-1.269.662.662,0,0,1,.656.65" transform="translate(-10.314 -6.585)" fill="#56509a"/>
      <path id="Tracé_309" data-name="Tracé 309" d="M62.735,63.336a.56.56,0,0,1-.646.623.684.684,0,0,1-.715-.606.675.675,0,0,1,.7-.664.664.664,0,0,1,.66.646" transform="translate(-10.314 -10.536)" fill="#56509a"/>
      <path id="Tracé_310" data-name="Tracé 310" d="M60.679,39.826c0,.429-.193.621-.626.626a.559.559,0,0,1-.645-.621.579.579,0,0,1,.621-.649c.449-.008.651.191.651.645" transform="translate(-9.984 -6.585)" fill="#56509a"/>
      <path id="Tracé_311" data-name="Tracé 311" d="M60.679,52.661c0,.421-.205.615-.641.612a.635.635,0,0,1,0-1.27c.451,0,.641.195.639.657" transform="translate(-9.984 -8.74)" fill="#56509a"/>
      <path id="Tracé_312" data-name="Tracé 312" d="M60.679,63.347c0,.42-.2.614-.641.612a.558.558,0,0,1-.631-.634.581.581,0,0,1,.634-.636c.449,0,.64.195.637.657" transform="translate(-9.984 -10.536)" fill="#56509a"/>
      <path id="Tracé_313" data-name="Tracé 313" d="M60.679,48.372c0,.412-.2.622-.582.626a.665.665,0,0,1-.689-.618.566.566,0,0,1,.661-.651c.431.012.611.2.611.643" transform="translate(-9.984 -8.022)" fill="#56509a"/>
      <path id="Tracé_314" data-name="Tracé 314" d="M60.679,37.7c0,.423-.2.617-.637.616a.581.581,0,0,1-.634-.636.558.558,0,0,1,.631-.634c.451,0,.643.194.641.654" transform="translate(-9.984 -6.226)" fill="#56509a"/>
      <path id="Tracé_315" data-name="Tracé 315" d="M60.679,41.962c0,.431-.194.623-.629.626a.556.556,0,0,1-.642-.626.665.665,0,0,1,.661-.644c.4-.011.611.207.61.644" transform="translate(-9.984 -6.944)" fill="#56509a"/>
      <path id="Tracé_316" data-name="Tracé 316" d="M60.679,59.06c0,.412-.2.624-.59.625a.612.612,0,0,1-.681-.653.56.56,0,0,1,.657-.616c.434.01.615.2.614.645" transform="translate(-9.984 -9.817)" fill="#56509a"/>
      <path id="Tracé_317" data-name="Tracé 317" d="M60.679,65.481c0,.423-.2.617-.639.616a.558.558,0,0,1-.632-.634.675.675,0,0,1,.625-.635c.436-.012.649.2.646.653" transform="translate(-9.984 -10.895)" fill="#56509a"/>
      <path id="Tracé_318" data-name="Tracé 318" d="M62.086,49.866c.453,0,.649.165.649.552,0,.433-.193.63-.621.633a.683.683,0,0,1-.74-.611c.015-.359.28-.573.712-.575" transform="translate(-10.314 -8.381)" fill="#56509a"/>
      <path id="Tracé_319" data-name="Tracé 319" d="M60.679,44.14c0,.423-.178.592-.612.586-.463-.006-.666-.206-.659-.651a.641.641,0,0,1,.641-.609c.389.05.652.11.63.675" transform="translate(-9.984 -7.305)" fill="#56509a"/>
      <path id="Tracé_320" data-name="Tracé 320" d="M60.679,56.957c0,.419-.181.6-.606.592-.464,0-.67-.2-.665-.646a.639.639,0,0,1,.636-.615c.394.045.659.118.636.669" transform="translate(-9.984 -9.46)" fill="#56509a"/>
      <path id="Tracé_321" data-name="Tracé 321" d="M60.679,33.315c0,.428-.2.621-.631.623a.556.556,0,0,1-.64-.627.669.669,0,0,1,.661-.641c.431.018.611.209.61.646" transform="translate(-9.984 -5.491)" fill="#56509a"/>
      <path id="Tracé_322" data-name="Tracé 322" d="M60.679,61.171c0,.433-.2.639-.618.65a.667.667,0,0,1-.653-.649c0-.433.22-.624.694-.62.424,0,.582.175.577.619" transform="translate(-9.984 -10.177)" fill="#56509a"/>
      <path id="Tracé_323" data-name="Tracé 323" d="M60.679,69.884c0,.418-.187.6-.617.589-.448-.007-.65-.2-.654-.621a.674.674,0,0,1,.618-.648.633.633,0,0,1,.653.68" transform="translate(-9.984 -11.631)" fill="#56509a"/>
      <path id="Tracé_324" data-name="Tracé 324" d="M62.089,36.092c-.433,0-.7-.221-.714-.581a.686.686,0,0,1,.755-.6.537.537,0,0,1,.606.612c-.009.391-.217.575-.646.573" transform="translate(-10.314 -5.867)" fill="#56509a"/>
      <path id="Tracé_325" data-name="Tracé 325" d="M60.679,46.289a.512.512,0,0,1-.587.574c-.476,0-.686-.193-.684-.636a.671.671,0,0,1,.634-.632.616.616,0,0,1,.637.695" transform="translate(-9.984 -7.663)" fill="#56509a"/>
      <path id="Tracé_326" data-name="Tracé 326" d="M60.679,31.156a.624.624,0,0,1-.648.642.674.674,0,0,1-.623-.642c0-.438.217-.631.694-.626.41,0,.584.194.577.626" transform="translate(-9.984 -5.131)" fill="#56509a"/>
      <path id="Tracé_327" data-name="Tracé 327" d="M60.679,67.656a.633.633,0,0,1-.656.677.673.673,0,0,1-.616-.65c0-.421.208-.612.656-.619.431-.007.614.171.615.592" transform="translate(-9.984 -11.271)" fill="#56509a"/>
      <path id="Tracé_328" data-name="Tracé 328" d="M60.679,54.823c0,.433-.18.594-.655.59-.433,0-.615-.175-.616-.583a.657.657,0,0,1,.62-.676.621.621,0,0,1,.651.67" transform="translate(-9.984 -9.101)" fill="#56509a"/>
      <path id="Tracé_329" data-name="Tracé 329" d="M60.042,49.866c.469,0,.642.166.637.612,0,.408-.186.572-.634.573-.468,0-.641-.166-.637-.612,0-.408.186-.573.634-.573" transform="translate(-9.984 -8.381)" fill="#56509a"/>
      <path id="Tracé_330" data-name="Tracé 330" d="M60.009,36.091c-.435-.007-.6-.176-.6-.6s.187-.588.671-.582c.435.007.6.176.6.6s-.187.588-.671.582" transform="translate(-9.984 -5.867)" fill="#56509a"/>
      <path id="Tracé_331" data-name="Tracé 331" d="M61.481,32.276c-.093.162-.2.325-.346.319a.292.292,0,1,1,.028-.583c.109,0,.213.171.318.264" transform="translate(-10.227 -5.38)" fill="#56509a"/>
      <path id="Tracé_332" data-name="Tracé 332" d="M61.146,69.137c-.373-.3-.373-.3,0-.619.357.2.438.411,0,.619" transform="translate(-10.229 -11.515)" fill="#56509a"/>
      <path id="Tracé_333" data-name="Tracé 333" d="M61.5,62.259c-.185.131-.245.328-.435.3-.1-.016-.244-.122-.214-.237a.351.351,0,0,1,.323-.282c.108.006.209.137.326.221" transform="translate(-10.226 -10.426)" fill="#56509a"/>
      <path id="Tracé_334" data-name="Tracé 334" d="M61.153,64.248c.37.183.321.366.008.538-.37-.183-.321-.365-.008-.538" transform="translate(-10.235 -10.798)" fill="#56509a"/>
      <path id="Tracé_335" data-name="Tracé 335" d="M60.862,34.5c.19-.323.389-.318.577,0-.19.322-.389.319-.577,0" transform="translate(-10.228 -5.758)" fill="#56509a"/>
      <path id="Tracé_336" data-name="Tracé 336" d="M61.155,66.959c-.111-.11-.274-.2-.275-.291a.317.317,0,0,1,.282-.265c.094,0,.273.168.263.244-.014.109-.166.2-.27.313" transform="translate(-10.231 -11.16)" fill="#56509a"/>
      <path id="Tracé_337" data-name="Tracé 337" d="M60.862,51.6c.187-.306.384-.329.577,0-.186.306-.384.329-.577,0" transform="translate(-10.228 -8.632)" fill="#56509a"/>
      <path id="Tracé_338" data-name="Tracé 338" d="M61.157,40.74c.347.177.341.363,0,.538-.346-.177-.343-.363,0-.538" transform="translate(-10.235 -6.847)" fill="#56509a"/>
      <path id="Tracé_339" data-name="Tracé 339" d="M61.155,56.273c-.111-.11-.274-.2-.275-.291a.317.317,0,0,1,.282-.265c.094,0,.273.168.263.244-.014.109-.166.2-.27.313" transform="translate(-10.231 -9.364)" fill="#56509a"/>
      <path id="Tracé_340" data-name="Tracé 340" d="M61.476,36.637c-.119.1-.219.239-.335.251-.082.01-.263-.157-.262-.245a.317.317,0,0,1,.285-.262c.1,0,.2.153.313.256" transform="translate(-10.231 -6.115)" fill="#56509a"/>
      <path id="Tracé_341" data-name="Tracé 341" d="M61.153,42.877c.37.183.321.366.008.538-.37-.183-.321-.366-.008-.538" transform="translate(-10.235 -7.206)" fill="#56509a"/>
      <path id="Tracé_342" data-name="Tracé 342" d="M61.476,45.287c-.119.1-.219.239-.335.251-.082.01-.263-.157-.262-.245a.317.317,0,0,1,.285-.262c.1,0,.2.153.313.256" transform="translate(-10.231 -7.568)" fill="#56509a"/>
      <path id="Tracé_343" data-name="Tracé 343" d="M61.439,53.839c-.187.306-.384.329-.577,0,.186-.306.384-.329.577,0" transform="translate(-10.228 -9.008)" fill="#56509a"/>
      <path id="Tracé_344" data-name="Tracé 344" d="M61.105,38.574c.122.062.265.131.248.263a.257.257,0,0,1-.275.222.266.266,0,0,1-.229-.227c0-.131.13-.2.256-.258" transform="translate(-10.226 -6.483)" fill="#56509a"/>
      <path id="Tracé_345" data-name="Tracé 345" d="M61.375,49.526c-.069.086-.126.23-.24.193a.466.466,0,0,1-.26-.258c-.018-.05.116-.207.244-.186a.337.337,0,0,1,.257.25" transform="translate(-10.23 -8.281)" fill="#56509a"/>
      <path id="Tracé_346" data-name="Tracé 346" d="M61.16,60.444c-.115-.106-.28-.166-.272-.31,0-.063.141-.168.218-.167a.267.267,0,0,1,.259.234c.012.117-.132.158-.2.244" transform="translate(-10.233 -10.078)" fill="#56509a"/>
      <path id="Tracé_347" data-name="Tracé 347" d="M61.174,47.614c-.1-.06-.22-.117-.218-.234a.234.234,0,0,1,.22-.214c.069,0,.179.117.2.2.03.121-.117.173-.2.25" transform="translate(-10.244 -7.927)" fill="#56509a"/>
      <path id="Tracé_348" data-name="Tracé 348" d="M61.152,57.835c.11.046.215.113.225.221s-.116.21-.215.226c-.057.009-.18-.112-.2-.192-.036-.123.111-.176.195-.255" transform="translate(-10.243 -9.72)" fill="#56509a"/>
      <path id="Tracé_349" data-name="Tracé 349" d="M43.757,4.913c-.246-.072-.178-.237-.179-.365,0-.973.007-1.946-.009-2.918,0-.313.1-.434.443-.413s.7.007,1.043,0c.188,0,.335.038.335.248q0,1.65-.007,3.3c0,.045-.053.089-.087.141-.149-.1-.082-.232-.082-.339-.006-.958-.012-1.917,0-2.875,0-.294-.1-.4-.418-.393-1.242.028-1.023-.151-1.037.95-.012.884,0,1.768,0,2.662" transform="translate(-7.322 -0.204)" fill="#56509a"/>
      <path id="Tracé_350" data-name="Tracé 350" d="M47.44,6.568c0,.491.007.983-.006,1.473,0,.1-.135.089-.221.089-.483,0-.966,0-1.449,0-.1,0-.237.017-.207-.139s.137-.026.2-.027c.377-.007.755-.014,1.131,0,.308.013.394-.118.383-.381-.016-.336,0-.673,0-1.01l.171-.007" transform="translate(-7.655 -1.104)" fill="#56509a"/>
      <path id="Tracé_351" data-name="Tracé 351" d="M43.468,8.126h-1.7c-.161,0-.26-.073-.262-.228,0-.38,0-.76,0-1.141,0-.111.051-.215.165-.215.164,0,.1.145.1.228.009.324.01.648,0,.972,0,.216.1.305.327.3.458-.006.918,0,1.377,0,0,.028-.006.056-.009.084" transform="translate(-6.975 -1.1)" fill="#56509a"/>
      <path id="Tracé_352" data-name="Tracé 352" d="M47.837,4V1.2a5.294,5.294,0,0,1,0,2.8" transform="translate(-8.039 -0.202)" fill="#56509a"/>
      <path id="Tracé_353" data-name="Tracé 353" d="M46.271,1.276V4a4.892,4.892,0,0,1,0-2.72" transform="translate(-7.744 -0.215)" fill="#56509a"/>
      <path id="Tracé_354" data-name="Tracé 354" d="M41.5,1.4v2.7l-.047,0V1.395l.047.01" transform="translate(-6.966 -0.235)" fill="#56509a"/>
      <path id="Tracé_355" data-name="Tracé 355" d="M44.557,6.685c-.151,0-.3,0-.453,0-.064,0-.174.124-.189-.045-.012-.125.09-.124.181-.125h1c.1,0,.19.022.165.138-.033.156-.136.023-.2.029-.165.012-.331,0-.5,0" transform="translate(-7.38 -1.095)" fill="#56509a"/>
      <path id="Tracé_356" data-name="Tracé 356" d="M43.056,4V1.489H43.1v2.5L43.056,4" transform="translate(-7.236 -0.251)" fill="#56509a"/>
      <path id="Tracé_357" data-name="Tracé 357" d="M40.5,29.2a1.275,1.275,0,0,1-1.4-1.258,1.334,1.334,0,0,1,1.423-1.3,1.321,1.321,0,0,1,1.4,1.271A1.287,1.287,0,0,1,40.5,29.2" transform="translate(-6.57 -4.478)" fill="#56509a"/>
      <path id="Tracé_358" data-name="Tracé 358" d="M27.177,27.983c.09.855-.727,1.281-1.406,1.3a1.4,1.4,0,0,1-1.406-1.306A1.42,1.42,0,0,1,25.8,26.659a1.274,1.274,0,0,1,1.374,1.324" transform="translate(-4.095 -4.481)" fill="#56509a"/>
      <path id="Tracé_359" data-name="Tracé 359" d="M9.752,16.027c-.461,0-.681-.2-.677-.6a.682.682,0,0,1,1.363,0c0,.379-.252.6-.686.6" transform="translate(-1.525 -2.481)" fill="#56509a"/>
      <path id="Tracé_360" data-name="Tracé 360" d="M9.77,16.995c.459,0,.666.183.668.588s-.215.594-.672.6-.684-.186-.691-.58c-.007-.422.205-.607.695-.606" transform="translate(-1.525 -2.857)" fill="#56509a"/>
      <path id="Tracé_361" data-name="Tracé 361" d="M9.75,11.753a.645.645,0,0,1-.675-.584.687.687,0,1,1,.675.584" transform="translate(-1.525 -1.762)" fill="#56509a"/>
      <path id="Tracé_362" data-name="Tracé 362" d="M9.717,21.371c.5,0,.721.183.72.594s-.221.591-.723.592c-.439,0-.651-.2-.639-.615.011-.389.217-.572.641-.571" transform="translate(-1.525 -3.592)" fill="#56509a"/>
      <path id="Tracé_363" data-name="Tracé 363" d="M9.076,19.758a.639.639,0,0,1,.63-.625.639.639,0,1,1,.037,1.27.666.666,0,0,1-.667-.645" transform="translate(-1.525 -3.216)" fill="#56509a"/>
      <path id="Tracé_364" data-name="Tracé 364" d="M9.725,13.889a.636.636,0,0,1-.649-.6.684.684,0,1,1,.649.6" transform="translate(-1.525 -2.121)" fill="#56509a"/>
      <path id="Tracé_365" data-name="Tracé 365" d="M57.1,58.175c0,2.806-.007,5.613.009,8.419,0,.349-.085.483-.469.438s-.855.142-1.095-.069-.076-.667-.076-1.014c-.006-5.415,0-10.831-.014-16.246,0-.368.084-.515.493-.459.369.05.864-.151,1.081.083.184.2.069.642.069.978q0,3.935,0,7.869" transform="translate(-9.313 -8.271)" fill="#56509a"/>
      <path id="Tracé_366" data-name="Tracé 366" d="M45.922,34.427a.634.634,0,0,1-.662.63.638.638,0,1,1,.011-1.27.636.636,0,0,1,.651.64" transform="translate(-7.489 -5.679)" fill="#56509a"/>
      <path id="Tracé_367" data-name="Tracé 367" d="M42.266,34.414a.638.638,0,0,1,.628-.626.639.639,0,1,1,.041,1.27.666.666,0,0,1-.669-.643" transform="translate(-7.103 -5.679)" fill="#56509a"/>
      <path id="Tracé_368" data-name="Tracé 368" d="M41.336,34.4a.685.685,0,1,1-.655-.607.674.674,0,0,1,.655.607" transform="translate(-6.718 -5.679)" fill="#56509a"/>
      <path id="Tracé_369" data-name="Tracé 369" d="M57.1,37.653c0,2.186-.007,4.371.008,6.557,0,.324-.095.424-.43.389-.386-.04-.893.149-1.136-.073s-.074-.7-.074-1.057c-.006-4.131,0-8.263-.014-12.394,0-.382.107-.5.5-.453.369.048.864-.153,1.08.087.182.2.064.644.064.98q0,2.983,0,5.965" transform="translate(-9.312 -5.141)" fill="#56509a"/>
      <path id="Tracé_370" data-name="Tracé 370" d="M9.853,46.284c0,2.186-.008,4.371.008,6.557,0,.335-.094.423-.449.418-1.1-.017-1.1,0-1.1-1.027,0-4.174,0-8.348-.009-12.522,0-.354.1-.447.473-.439,1.081.022,1.081.006,1.081,1.007Z" transform="translate(-1.395 -6.6)" fill="#56509a"/>
      <path id="Tracé_371" data-name="Tracé 371" d="M9.853,63.4c0,1.636-.01,3.271.008,4.906,0,.318-.086.4-.426.4-1.126-.012-1.126,0-1.126-1.047,0-3.045.006-6.09-.008-9.136,0-.333.092-.423.448-.418,1.1.017,1.1,0,1.1,1.025Z" transform="translate(-1.395 -9.764)" fill="#56509a"/>
      <path id="Tracé_372" data-name="Tracé 372" d="M62.979,7.784A.668.668,0,0,1,62.26,7.2a.813.813,0,0,1,.656-.681.669.669,0,0,1,.7.655c0,.443-.169.611-.632.611" transform="translate(-10.463 -1.096)" fill="#56509a"/>
      <path id="Tracé_373" data-name="Tracé 373" d="M63.611,5.069c0,.437-.178.6-.656.594a.66.66,0,0,1-.695-.612.67.67,0,0,1,.692-.573c.479,0,.659.156.659.592" transform="translate(-10.463 -0.753)" fill="#56509a"/>
      <path id="Tracé_374" data-name="Tracé 374" d="M33.253,4.629c-.461.007-.691-.179-.7-.567a.682.682,0,0,1,1.363-.041c.007.4-.211.6-.659.608" transform="translate(-5.47 -0.566)" fill="#56509a"/>
      <path id="Tracé_375" data-name="Tracé 375" d="M30.938,4.629a.685.685,0,0,1-.681-.582.682.682,0,0,1,.678-.685.671.671,0,0,1,.683.678c0,.4-.225.589-.681.589" transform="translate(-5.085 -0.565)" fill="#56509a"/>
      <path id="Tracé_376" data-name="Tracé 376" d="M12.84,20.3c-.418-.017-.612-.235-.6-.673.013-.413.246-.616.681-.6a.624.624,0,0,1,.651.65.638.638,0,0,1-.733.62" transform="translate(-2.057 -3.198)" fill="#56509a"/>
      <path id="Tracé_377" data-name="Tracé 377" d="M12.878,21.168a.618.618,0,0,1,.688.609.732.732,0,0,1-.7.66.675.675,0,0,1-.625-.636.56.56,0,0,1,.636-.633" transform="translate(-2.057 -3.558)" fill="#56509a"/>
      <path id="Tracé_378" data-name="Tracé 378" d="M4.015,7.131a.56.56,0,0,1-.621.652c-.448.007-.649-.2-.651-.666,0-.4.194-.594.613-.6a.561.561,0,0,1,.658.617" transform="translate(-0.461 -1.095)" fill="#56509a"/>
      <path id="Tracé_379" data-name="Tracé 379" d="M4.015,4.995a.56.56,0,0,1-.622.651c-.427.006-.645-.186-.649-.571-.006-.48.179-.69.615-.7a.561.561,0,0,1,.656.619" transform="translate(-0.461 -0.736)" fill="#56509a"/>
      <path id="Tracé_380" data-name="Tracé 380" d="M36.455,44.88c.131,0,.255-.018.26.157s-.091.186-.227.18c-.1,0-.216.012-.225-.137s.039-.218.192-.2" transform="translate(-6.094 -7.542)" fill="#56509a"/>
      <path id="Tracé_381" data-name="Tracé 381" d="M38.523,42.477a.353.353,0,0,1-.384.329.334.334,0,1,1,.007-.667.348.348,0,0,1,.377.338" transform="translate(-6.352 -7.082)" fill="#56509a"/>
      <path id="Tracé_382" data-name="Tracé 382" d="M34.918,45.3c.093.028.175.076.163.168s-.1.159-.218.158a.109.109,0,0,1-.124-.13.2.2,0,0,1,.179-.2" transform="translate(-5.838 -7.613)" fill="#56509a"/>
      <path id="Tracé_383" data-name="Tracé 383" d="M5.943,16.208c-.042.052-.077.116-.162.116s-.082-.066-.082-.115,0-.114.082-.116.12.062.163.115" transform="translate(-0.958 -2.705)" fill="#56509a"/>
      <path id="Tracé_384" data-name="Tracé 384" d="M4.922,63.259c0-.35.161-.467.474-.473s.413.2.428.422a.382.382,0,0,1-.432.419c-.257-.009-.513-.087-.47-.369" transform="translate(-0.826 -10.552)" fill="#fff"/>
      <path id="Tracé_385" data-name="Tracé 385" d="M4.926,52.535c-.007-.305.1-.46.449-.438.289.019.47.111.454.4a.435.435,0,0,1-.48.445c-.243-.011-.478-.114-.423-.4" transform="translate(-0.827 -8.755)" fill="#fff"/>
      <path id="Tracé_386" data-name="Tracé 386" d="M4.917,39.74c.017-.376.206-.467.507-.461.332.007.4.23.4.448a.388.388,0,0,1-.458.394c-.27-.02-.5-.128-.445-.38" transform="translate(-0.825 -6.601)" fill="#fff"/>
      <path id="Tracé_387" data-name="Tracé 387" d="M5.3,34.9c.311.01.523.132.519.413,0,.22-.074.441-.408.44-.306,0-.483-.1-.491-.406-.007-.266.1-.426.38-.448" transform="translate(-0.827 -5.866)" fill="#fff"/>
      <path id="Tracé_388" data-name="Tracé 388" d="M4.931,37.545c-.047-.283.059-.419.388-.406.287.012.517.057.512.379a.433.433,0,0,1-.458.461c-.264,0-.5-.111-.442-.434" transform="translate(-0.827 -6.242)" fill="#fff"/>
      <path id="Tracé_389" data-name="Tracé 389" d="M5.33,42.269a.377.377,0,0,1-.406-.436c0-.3.166-.414.478-.418.329,0,.415.2.423.428.01.281-.195.41-.494.427" transform="translate(-0.828 -6.96)" fill="#fff"/>
      <path id="Tracé_390" data-name="Tracé 390" d="M5.314,67.914c-.272.04-.392-.069-.4-.37a.4.4,0,0,1,.472-.465.433.433,0,0,1,.443.433c.016.309-.181.415-.516.4" transform="translate(-0.826 -11.273)" fill="#fff"/>
      <path id="Tracé_391" data-name="Tracé 391" d="M5.837,61.033a.446.446,0,0,1-.5.426.393.393,0,0,1-.43-.452c.018-.287.166-.44.41-.433a.468.468,0,0,1,.517.459" transform="translate(-0.825 -10.18)" fill="#fff"/>
      <path id="Tracé_392" data-name="Tracé 392" d="M4.936,31.024c-.074-.346.147-.473.418-.48a.441.441,0,0,1,.475.448.419.419,0,0,1-.473.442c-.211,0-.557-.062-.421-.409" transform="translate(-0.824 -5.134)" fill="#fff"/>
      <path id="Tracé_393" data-name="Tracé 393" d="M5.375,33.621c-.334-.017-.454-.166-.451-.437,0-.3.164-.415.477-.42.33-.006.415.2.424.427.012.284-.2.4-.45.43" transform="translate(-0.828 -5.507)" fill="#fff"/>
      <path id="Tracé_394" data-name="Tracé 394" d="M4.932,58.864c-.1-.354.229-.417.441-.413a.423.423,0,0,1,.458.458.438.438,0,0,1-.448.432c-.3,0-.52-.131-.452-.477" transform="translate(-0.826 -9.824)" fill="#fff"/>
      <path id="Tracé_395" data-name="Tracé 395" d="M5.392,65.78c-.34-.012-.469-.154-.468-.428,0-.3.151-.42.468-.428s.42.191.433.419c.017.285-.194.406-.433.438" transform="translate(-0.828 -10.911)" fill="#fff"/>
      <path id="Tracé_396" data-name="Tracé 396" d="M4.932,48.178c-.1-.354.228-.417.441-.413a.423.423,0,0,1,.458.458.438.438,0,0,1-.448.432c-.3,0-.52-.131-.452-.477" transform="translate(-0.826 -8.028)" fill="#fff"/>
      <path id="Tracé_397" data-name="Tracé 397" d="M3.76,58.938c.031.311-.205.4-.445.4a.442.442,0,0,1-.462-.459.413.413,0,0,1,.442-.43.428.428,0,0,1,.465.487" transform="translate(-0.479 -9.824)" fill="#fff"/>
      <path id="Tracé_398" data-name="Tracé 398" d="M4.92,56.7c-.006-.176.13-.314.454-.329a.386.386,0,0,1,.45.405c.023.279-.164.43-.461.445s-.437-.135-.443-.521" transform="translate(-0.827 -9.474)" fill="#fff"/>
      <path id="Tracé_399" data-name="Tracé 399" d="M5.413,50.715c-.345.007-.493-.133-.489-.433,0-.274.127-.425.431-.414s.488.159.47.437c-.015.228-.111.445-.412.41" transform="translate(-0.827 -8.381)" fill="#fff"/>
      <path id="Tracé_400" data-name="Tracé 400" d="M5.412,69.3c.3-.032.4.185.413.413.017.279-.176.424-.473.434s-.425-.144-.428-.417c0-.3.147-.438.488-.43" transform="translate(-0.828 -11.647)" fill="#fff"/>
      <path id="Tracé_401" data-name="Tracé 401" d="M3.764,67.466c0,.329-.161.457-.476.449-.3-.006-.445-.134-.434-.411a.405.405,0,0,1,.435-.428c.267,0,.507.094.475.389" transform="translate(-0.48 -11.273)" fill="#fff"/>
      <path id="Tracé_402" data-name="Tracé 402" d="M5.316,44.406a.376.376,0,0,1-.392-.443c.006-.307.176-.409.484-.412.331,0,.412.21.416.434.006.282-.2.408-.508.42" transform="translate(-0.827 -7.32)" fill="#fff"/>
      <path id="Tracé_403" data-name="Tracé 403" d="M3.757,60.988a.4.4,0,0,1-.459.47.419.419,0,0,1-.444-.438.444.444,0,0,1,.475-.454c.244.006.479.107.428.422" transform="translate(-0.479 -10.179)" fill="#fff"/>
      <path id="Tracé_404" data-name="Tracé 404" d="M3.762,37.6c.035.283-.2.373-.442.385a.411.411,0,0,1-.467-.439c-.011-.284.153-.4.446-.4.322,0,.473.134.463.454" transform="translate(-0.48 -6.243)" fill="#fff"/>
      <path id="Tracé_405" data-name="Tracé 405" d="M3.759,48.238c.029.33-.212.423-.453.416a.437.437,0,0,1-.453-.475.428.428,0,0,1,.467-.418.4.4,0,0,1,.438.477" transform="translate(-0.48 -8.027)" fill="#fff"/>
      <path id="Tracé_406" data-name="Tracé 406" d="M3.756,30.956a.4.4,0,0,1-.454.48A.42.42,0,0,1,2.854,31a.441.441,0,0,1,.471-.457c.242,0,.483.1.431.411" transform="translate(-0.479 -5.134)" fill="#fff"/>
      <path id="Tracé_407" data-name="Tracé 407" d="M5.265,54.237c.35.011.563.134.558.415,0,.22-.074.441-.408.44-.306,0-.481-.1-.492-.406a.382.382,0,0,1,.342-.449" transform="translate(-0.827 -9.115)" fill="#fff"/>
      <path id="Tracé_408" data-name="Tracé 408" d="M3.765,52.591c.023.264-.217.343-.458.35a.408.408,0,0,1-.453-.452c0-.285.172-.387.46-.388.329,0,.455.159.45.489" transform="translate(-0.48 -8.757)" fill="#fff"/>
      <path id="Tracé_409" data-name="Tracé 409" d="M3.268,64.924c.375,0,.5.158.5.451a.359.359,0,0,1-.407.4c-.323,0-.5-.158-.5-.46s.178-.394.413-.388" transform="translate(-0.48 -10.911)" fill="#fff"/>
      <path id="Tracé_410" data-name="Tracé 410" d="M4.92,46.017c-.006-.176.13-.315.454-.33a.387.387,0,0,1,.45.406c.023.278-.164.429-.461.444s-.437-.134-.443-.52" transform="translate(-0.827 -7.678)" fill="#fff"/>
      <path id="Tracé_411" data-name="Tracé 411" d="M3.329,39.278c.324,0,.437.17.437.458,0,.312-.235.38-.472.382a.408.408,0,0,1-.44-.463c0-.293.2-.38.475-.376" transform="translate(-0.48 -6.601)" fill="#fff"/>
      <path id="Tracé_412" data-name="Tracé 412" d="M3.313,41.417c.314,0,.458.141.451.439-.006.25-.114.4-.4.408a.438.438,0,0,1-.512-.449c-.012-.285.161-.4.457-.4" transform="translate(-0.48 -6.961)" fill="#fff"/>
      <path id="Tracé_413" data-name="Tracé 413" d="M3.765,33.2a.37.37,0,0,1-.44.411.431.431,0,0,1-.471-.448c-.01-.286.156-.4.45-.4.327,0,.464.146.461.437" transform="translate(-0.48 -5.507)" fill="#fff"/>
      <path id="Tracé_414" data-name="Tracé 414" d="M3.762,35.286c.007.335-.141.475-.462.472-.294,0-.457-.116-.447-.4a.411.411,0,0,1,.468-.439c.242.013.481.1.441.368" transform="translate(-0.48 -5.868)" fill="#fff"/>
      <path id="Tracé_415" data-name="Tracé 415" d="M3.764,63.238c.033.294-.207.39-.473.389a.41.41,0,0,1-.437-.468c.006-.261.162-.365.432-.372.314-.007.479.117.478.45" transform="translate(-0.48 -10.552)" fill="#fff"/>
      <path id="Tracé_416" data-name="Tracé 416" d="M3.286,50.716c-.26.006-.438-.1-.432-.391.007-.3.185-.458.507-.457a.36.36,0,0,1,.4.4c.007.295-.126.448-.478.446" transform="translate(-0.48 -8.381)" fill="#fff"/>
      <path id="Tracé_417" data-name="Tracé 417" d="M3.765,56.761c0,.322-.134.475-.437.463a.432.432,0,0,1-.473-.445c-.012-.285.152-.4.447-.4.325,0,.471.14.463.385" transform="translate(-0.48 -9.475)" fill="#fff"/>
      <path id="Tracé_418" data-name="Tracé 418" d="M3.765,69.736a.369.369,0,0,1-.438.413.431.431,0,0,1-.473-.446c-.011-.285.153-.4.448-.4.327,0,.466.144.463.435" transform="translate(-0.48 -11.647)" fill="#fff"/>
      <path id="Tracé_419" data-name="Tracé 419" d="M2.847,43.934c.017-.276.182-.385.473-.38s.438.132.442.411-.1.437-.41.437a.449.449,0,0,1-.5-.468" transform="translate(-0.478 -7.32)" fill="#fff"/>
      <path id="Tracé_420" data-name="Tracé 420" d="M3.266,55.092c-.23.007-.422-.1-.408-.381.012-.243.069-.469.422-.472.307,0,.478.1.484.408s-.126.443-.5.444" transform="translate(-0.48 -9.116)" fill="#fff"/>
      <path id="Tracé_421" data-name="Tracé 421" d="M3.282,45.689c.309-.008.478.11.482.414s-.129.428-.45.441c-.35.013-.429-.2-.456-.442-.03-.279.142-.4.424-.413" transform="translate(-0.48 -7.679)" fill="#fff"/>
      <path id="Tracé_422" data-name="Tracé 422" d="M62.189,31.584c-.326.01-.481-.112-.494-.415-.015-.325.205-.418.471-.423a.382.382,0,0,1,.432.418c-.014.224-.1.446-.408.42" transform="translate(-10.368 -5.167)" fill="#fff"/>
      <path id="Tracé_423" data-name="Tracé 423" d="M61.7,46.351c-.006-.324.145-.45.463-.46a.383.383,0,0,1,.438.413.391.391,0,0,1-.465.428c-.242-.016-.475-.106-.435-.382" transform="translate(-10.368 -7.713)" fill="#fff"/>
      <path id="Tracé_424" data-name="Tracé 424" d="M61.7,65.541c0-.336.162-.438.481-.416.3.021.453.15.422.423a.432.432,0,0,1-.466.418c-.275-.012-.5-.131-.437-.425" transform="translate(-10.367 -10.945)" fill="#fff"/>
      <path id="Tracé_425" data-name="Tracé 425" d="M62.208,69.506c.314-.014.381.219.389.437a.386.386,0,0,1-.45.4c-.272-.013-.475-.122-.453-.442s.2-.41.514-.4" transform="translate(-10.368 -11.681)" fill="#fff"/>
      <path id="Tracé_426" data-name="Tracé 426" d="M62.611,56.979a.425.425,0,0,1-.472.442c-.277-.014-.473-.134-.445-.452.025-.282.174-.389.463-.389s.444.125.453.4" transform="translate(-10.368 -9.509)" fill="#fff"/>
      <path id="Tracé_427" data-name="Tracé 427" d="M62.613,44.076c-.012.326-.143.525-.445.521-.236,0-.473-.069-.473-.381,0-.285.1-.448.436-.458.291-.009.445.108.482.319" transform="translate(-10.368 -7.354)" fill="#fff"/>
      <path id="Tracé_428" data-name="Tracé 428" d="M62.092,32.971c.326-.011.52.087.512.377a.436.436,0,0,1-.468.458c-.245,0-.462-.1-.442-.412.018-.272.072-.481.4-.423" transform="translate(-10.368 -5.54)" fill="#fff"/>
      <path id="Tracé_429" data-name="Tracé 429" d="M62.614,61.193c-.019.307-.18.417-.471.413-.327,0-.443-.156-.448-.446,0-.308.218-.386.46-.394a.421.421,0,0,1,.459.426" transform="translate(-10.368 -10.213)" fill="#fff"/>
      <path id="Tracé_430" data-name="Tracé 430" d="M61.7,37.708c-.066-.31.157-.448.394-.439.26.01.512.138.508.464a.429.429,0,0,1-.455.42c-.245,0-.558-.086-.448-.445" transform="translate(-10.366 -6.264)" fill="#fff"/>
      <path id="Tracé_431" data-name="Tracé 431" d="M61.705,52.671c-.07-.3.144-.446.385-.442.264.006.518.13.517.456,0,.309-.254.427-.493.438-.272.013-.483-.141-.41-.453" transform="translate(-10.368 -8.778)" fill="#fff"/>
      <path id="Tracé_432" data-name="Tracé 432" d="M62.2,68.124c-.415-.017-.517-.2-.5-.478a.36.36,0,0,1,.427-.375c.3.009.491.156.473.434-.017.25-.127.472-.4.418" transform="translate(-10.369 -11.306)" fill="#fff"/>
      <path id="Tracé_433" data-name="Tracé 433" d="M61.7,42.012c-.052-.3.082-.405.4-.4.295.009.511.077.5.389a.434.434,0,0,1-.468.452c-.27,0-.494-.126-.431-.445" transform="translate(-10.368 -6.994)" fill="#fff"/>
      <path id="Tracé_434" data-name="Tracé 434" d="M61.706,59.092c-.07-.325.149-.452.42-.461a.443.443,0,0,1,.478.443c.031.344-.263.427-.516.434s-.474-.111-.382-.416" transform="translate(-10.367 -9.854)" fill="#fff"/>
      <path id="Tracé_435" data-name="Tracé 435" d="M61.706,48.4c-.069-.327.153-.451.423-.458a.441.441,0,0,1,.475.444c.029.345-.264.425-.517.431s-.472-.114-.38-.417" transform="translate(-10.367 -8.058)" fill="#fff"/>
      <path id="Tracé_436" data-name="Tracé 436" d="M62.179,54.441c.315-.031.418.193.418.441,0,.275-.2.413-.5.408a.36.36,0,0,1-.4-.4c-.007-.294.126-.447.483-.446" transform="translate(-10.369 -9.149)" fill="#fff"/>
      <path id="Tracé_437" data-name="Tracé 437" d="M61.709,39.857c-.111-.356.2-.438.423-.438a.422.422,0,0,1,.472.445.439.439,0,0,1-.476.445c-.264-.011-.5-.125-.418-.452" transform="translate(-10.367 -6.625)" fill="#fff"/>
      <path id="Tracé_438" data-name="Tracé 438" d="M61.707,63.352c-.1-.352.213-.426.433-.424a.419.419,0,0,1,.464.452.443.443,0,0,1-.483.439c-.275-.012-.489-.144-.413-.467" transform="translate(-10.367 -10.576)" fill="#fff"/>
      <path id="Tracé_439" data-name="Tracé 439" d="M60.53,39.868c.052.333-.184.443-.453.441a.437.437,0,0,1-.45-.434.426.426,0,0,1,.468-.458.391.391,0,0,1,.435.451" transform="translate(-10.02 -6.625)" fill="#fff"/>
      <path id="Tracé_440" data-name="Tracé 440" d="M60.523,52.671a.348.348,0,0,1-.389.453c-.261-.009-.517-.136-.509-.463a.452.452,0,0,1,.5-.431c.266-.007.492.141.4.441" transform="translate(-10.02 -8.778)" fill="#fff"/>
      <path id="Tracé_441" data-name="Tracé 441" d="M60.53,63.4c.051.315-.185.416-.428.422a.444.444,0,0,1-.475-.454.419.419,0,0,1,.444-.438.4.4,0,0,1,.459.47" transform="translate(-10.02 -10.575)" fill="#fff"/>
      <path id="Tracé_442" data-name="Tracé 442" d="M60.533,48.351a.4.4,0,0,1-.444.462c-.236-.006-.481-.107-.462-.408a.443.443,0,0,1,.471-.458c.245,0,.479.1.435.4" transform="translate(-10.021 -8.058)" fill="#fff"/>
      <path id="Tracé_443" data-name="Tracé 443" d="M60.532,37.677a.4.4,0,0,1-.438.477.428.428,0,0,1-.467-.417.436.436,0,0,1,.452-.475c.24-.007.482.085.453.415" transform="translate(-10.021 -6.262)" fill="#fff"/>
      <path id="Tracé_444" data-name="Tracé 444" d="M60.538,42.07c.032.293-.208.39-.473.389a.409.409,0,0,1-.438-.467c.006-.261.161-.365.432-.372.314-.007.479.117.479.45" transform="translate(-10.021 -6.995)" fill="#fff"/>
      <path id="Tracé_445" data-name="Tracé 445" d="M60.53,59.059a.387.387,0,0,1-.42.465.425.425,0,0,1-.481-.444.44.44,0,0,1,.48-.448c.243.01.479.112.421.427" transform="translate(-10.021 -9.854)" fill="#fff"/>
      <path id="Tracé_446" data-name="Tracé 446" d="M60.538,65.579c.032.293-.208.39-.473.389a.409.409,0,0,1-.438-.467c.006-.261.161-.365.432-.372.314-.007.479.117.479.45" transform="translate(-10.021 -10.946)" fill="#fff"/>
      <path id="Tracé_447" data-name="Tracé 447" d="M62.1,50.921a.384.384,0,0,1-.406-.451c.008-.309.186-.4.492-.405.335,0,.405.22.408.441,0,.282-.21.4-.494.415" transform="translate(-10.369 -8.414)" fill="#fff"/>
      <path id="Tracé_448" data-name="Tracé 448" d="M60.121,43.758c.328.011.424.191.416.472-.008.311-.253.37-.486.366a.407.407,0,0,1-.423-.479c.015-.29.214-.372.493-.359" transform="translate(-10.021 -7.354)" fill="#fff"/>
      <path id="Tracé_449" data-name="Tracé 449" d="M60.538,57.068c.023.265-.217.344-.458.351a.409.409,0,0,1-.453-.453c0-.285.173-.387.461-.387.329,0,.455.159.449.488" transform="translate(-10.021 -9.509)" fill="#fff"/>
      <path id="Tracé_450" data-name="Tracé 450" d="M60.187,32.966c.188-.006.337.121.354.423s-.191.4-.435.419a.411.411,0,0,1-.477-.429c-.017-.28.144-.407.558-.413" transform="translate(-10.021 -5.541)" fill="#fff"/>
      <path id="Tracé_451" data-name="Tracé 451" d="M60.095,61.609c-.287,0-.468-.1-.467-.386a.409.409,0,0,1,.45-.455c.241,0,.463.085.462.392a.394.394,0,0,1-.445.449" transform="translate(-10.021 -10.213)" fill="#fff"/>
      <path id="Tracé_452" data-name="Tracé 452" d="M60.536,69.966c.026.291-.215.371-.455.379a.408.408,0,0,1-.453-.453c0-.285.172-.387.46-.387.328,0,.458.156.448.461" transform="translate(-10.021 -11.681)" fill="#fff"/>
      <path id="Tracé_453" data-name="Tracé 453" d="M62.182,35.96c-.369,0-.5-.164-.485-.454a.361.361,0,0,1,.407-.4c.3,0,.5.136.493.415,0,.249-.111.47-.415.434" transform="translate(-10.369 -5.901)" fill="#fff"/>
      <path id="Tracé_454" data-name="Tracé 454" d="M60.536,46.349c.035.284-.2.373-.442.385a.411.411,0,0,1-.467-.44c-.01-.284.154-.4.447-.4.322,0,.472.134.462.454" transform="translate(-10.021 -7.713)" fill="#fff"/>
      <path id="Tracé_455" data-name="Tracé 455" d="M60.536,31.131c.008.309-.131.455-.456.453-.291,0-.458-.111-.453-.394a.408.408,0,0,1,.461-.446c.243.011.478.1.448.386" transform="translate(-10.021 -5.167)" fill="#fff"/>
      <path id="Tracé_456" data-name="Tracé 456" d="M60.071,68.118c-.27.006-.449-.1-.443-.389.006-.3.182-.458.5-.458a.359.359,0,0,1,.4.4c.009.3-.121.451-.465.448" transform="translate(-10.021 -11.306)" fill="#fff"/>
      <path id="Tracé_457" data-name="Tracé 457" d="M60.537,54.867a.364.364,0,0,1-.419.423.434.434,0,0,1-.49-.472c0-.26.159-.369.43-.375.316-.008.483.113.479.423" transform="translate(-10.021 -9.15)" fill="#fff"/>
      <path id="Tracé_458" data-name="Tracé 458" d="M60.112,50.066a.372.372,0,0,1,.425.426c0,.3-.149.42-.464.428-.354.008-.42-.213-.442-.454-.024-.28.154-.4.481-.4" transform="translate(-10.021 -8.414)" fill="#fff"/>
      <path id="Tracé_459" data-name="Tracé 459" d="M60.537,35.57c-.012.3-.2.4-.5.388s-.436-.166-.4-.433.138-.441.479-.42.441.183.427.465" transform="translate(-10.021 -5.9)" fill="#fff"/>
      <path id="Tracé_460" data-name="Tracé 460" d="M10.257,15.539c-.059.122-.113.355-.42.369a.451.451,0,0,1-.525-.407.37.37,0,0,1,.4-.443c.312,0,.524.086.542.482" transform="translate(-1.564 -2.531)" fill="#fff"/>
      <path id="Tracé_461" data-name="Tracé 461" d="M9.864,17.2a.411.411,0,0,1,.4.431.426.426,0,0,1-.51.414c-.265-.036-.457-.182-.448-.438.009-.279.212-.408.559-.408" transform="translate(-1.564 -2.891)" fill="#fff"/>
      <path id="Tracé_462" data-name="Tracé 462" d="M9.781,10.8c.385-.112.473.174.488.386.019.262-.21.427-.491.442a.43.43,0,0,1-.459-.467.339.339,0,0,1,.462-.361" transform="translate(-1.566 -1.811)" fill="#fff"/>
      <path id="Tracé_463" data-name="Tracé 463" d="M9.641,21.585c.459-.032.618.2.621.418a.421.421,0,0,1-.455.419c-.3,0-.489-.133-.5-.408a.386.386,0,0,1,.339-.43" transform="translate(-1.563 -3.628)" fill="#fff"/>
      <path id="Tracé_464" data-name="Tracé 464" d="M9.743,20.259c-.24-.057-.449-.208-.431-.474a.46.46,0,0,1,.5-.433.429.429,0,0,1,.453.428.477.477,0,0,1-.527.479" transform="translate(-1.565 -3.253)" fill="#fff"/>
      <path id="Tracé_465" data-name="Tracé 465" d="M10.28,13.341a.48.48,0,0,1-.464.4.461.461,0,0,1-.5-.433.451.451,0,0,1,.463-.471c.322-.021.446.216.506.5" transform="translate(-1.565 -2.158)" fill="#fff"/>
      <path id="Tracé_466" data-name="Tracé 466" d="M56.4,64.822c.268-.007.423.125.422.427s-.152.429-.468.425c-.295,0-.438-.125-.445-.4s.124-.448.492-.448" transform="translate(-9.396 -10.894)" fill="#fff"/>
      <path id="Tracé_467" data-name="Tracé 467" d="M56.407,56.173c.328.011.43.19.416.472-.017.317-.223.393-.516.378-.31-.016-.4-.187-.4-.448.006-.311.191-.414.5-.4" transform="translate(-9.396 -9.44)" fill="#fff"/>
      <path id="Tracé_468" data-name="Tracé 468" d="M56.338,54.786a.372.372,0,0,1-.428-.428c0-.3.154-.428.47-.424.295,0,.437.127.443.406s-.126.447-.486.446" transform="translate(-9.396 -9.064)" fill="#fff"/>
      <path id="Tracé_469" data-name="Tracé 469" d="M56.428,50.616c-.406-.007-.527-.17-.517-.458.011-.312.2-.405.5-.394s.412.166.413.433a.364.364,0,0,1-.4.419" transform="translate(-9.396 -8.363)" fill="#fff"/>
      <path id="Tracé_470" data-name="Tracé 470" d="M56.418,60.446c.246-.007.405.121.406.423s-.146.432-.465.429c-.294,0-.441-.12-.448-.4s.119-.449.507-.452" transform="translate(-9.396 -10.159)" fill="#fff"/>
      <path id="Tracé_471" data-name="Tracé 471" d="M56.33,59.163c-.265.007-.421-.124-.42-.426s.151-.429.468-.426c.295,0,.439.124.446.4s-.123.447-.493.448" transform="translate(-9.396 -9.8)" fill="#fff"/>
      <path id="Tracé_472" data-name="Tracé 472" d="M56.82,52.224a.454.454,0,1,1-.433-.413c.245.015.478.106.433.413" transform="translate(-9.396 -8.707)" fill="#fff"/>
      <path id="Tracé_473" data-name="Tracé 473" d="M55.909,63.244c0-.344.169-.464.484-.456a.383.383,0,0,1,.432.423c.014.333-.22.424-.485.414-.243-.009-.479-.11-.431-.381" transform="translate(-9.395 -10.552)" fill="#fff"/>
      <path id="Tracé_474" data-name="Tracé 474" d="M56.825,67.359c0,.344-.171.464-.486.455a.382.382,0,0,1-.43-.423c-.014-.334.224-.423.486-.413.243.009.48.111.43.381" transform="translate(-9.396 -11.256)" fill="#fff"/>
      <path id="Tracé_475" data-name="Tracé 475" d="M56.826,69.4c0,.347-.181.462-.493.451s-.413-.157-.425-.428c-.014-.309.2-.406.447-.408.269,0,.507.1.471.386" transform="translate(-9.396 -11.598)" fill="#fff"/>
      <path id="Tracé_476" data-name="Tracé 476" d="M44.893,34.459c-.067-.316.151-.464.419-.447a.448.448,0,1,1,0,.894c-.269.017-.486-.131-.419-.447" transform="translate(-7.542 -5.716)" fill="#fff"/>
      <path id="Tracé_477" data-name="Tracé 477" d="M42.97,34.919c-.253-.047-.464-.193-.469-.453a.46.46,0,0,1,.474-.461.43.43,0,0,1,.473.447.463.463,0,0,1-.478.467" transform="translate(-7.143 -5.715)" fill="#fff"/>
      <path id="Tracé_478" data-name="Tracé 478" d="M40.692,34.923c-.27-.051-.481-.2-.483-.46a.486.486,0,0,1,.97-.007c0,.26-.2.417-.488.468" transform="translate(-6.757 -5.716)" fill="#fff"/>
      <path id="Tracé_479" data-name="Tracé 479" d="M55.912,33.494a.455.455,0,1,1,.439.5c-.3-.01-.44-.2-.439-.5" transform="translate(-9.396 -5.56)" fill="#fff"/>
      <path id="Tracé_480" data-name="Tracé 480" d="M56.41,31.035c.257-.007.414.122.413.425s-.148.43-.466.427c-.295,0-.44-.121-.447-.4s.121-.448.5-.449" transform="translate(-9.396 -5.216)" fill="#fff"/>
      <path id="Tracé_481" data-name="Tracé 481" d="M56.351,44.062c.314-.007.473.12.473.423s-.146.431-.464.428c-.295,0-.44-.119-.449-.4s.121-.446.44-.451" transform="translate(-9.396 -7.405)" fill="#fff"/>
      <path id="Tracé_482" data-name="Tracé 482" d="M56.312,39.583c.394,0,.521.161.512.453s-.156.4-.449.4c-.319,0-.464-.131-.463-.429s.161-.43.4-.423" transform="translate(-9.396 -6.653)" fill="#fff"/>
      <path id="Tracé_483" data-name="Tracé 483" d="M56.824,35.617c.008.3-.138.444-.46.443s-.458-.146-.453-.44c0-.276.141-.405.438-.411.315-.007.483.115.475.408" transform="translate(-9.396 -5.917)" fill="#fff"/>
      <path id="Tracé_484" data-name="Tracé 484" d="M56.826,46.5c-.007.354-.186.463-.5.452s-.411-.162-.421-.433c-.012-.309.206-.4.451-.4.27,0,.507.1.467.385" transform="translate(-9.396 -7.75)" fill="#fff"/>
      <path id="Tracé_485" data-name="Tracé 485" d="M56.825,42.121c0,.344-.171.464-.486.455a.382.382,0,0,1-.43-.423c-.014-.334.224-.423.486-.413.243.009.48.111.43.381" transform="translate(-9.396 -7.015)" fill="#fff"/>
      <path id="Tracé_486" data-name="Tracé 486" d="M56.826,37.85c0,.347-.181.462-.493.451s-.413-.157-.425-.428c-.014-.309.2-.406.447-.408.269,0,.507.1.471.386" transform="translate(-9.396 -6.297)" fill="#fff"/>
      <path id="Tracé_487" data-name="Tracé 487" d="M9.54,55c.065.345-.156.483-.453.476a.439.439,0,0,1-.447-.433.424.424,0,0,1,.461-.457c.215,0,.539.063.439.414" transform="translate(-1.452 -9.173)" fill="#fff"/>
      <path id="Tracé_488" data-name="Tracé 488" d="M9.539,44.438c.108.345-.2.428-.423.43a.422.422,0,0,1-.474-.443.44.44,0,0,1,.474-.448c.271.007.493.133.423.461" transform="translate(-1.452 -7.391)" fill="#fff"/>
      <path id="Tracé_489" data-name="Tracé 489" d="M9.544,52.943a.374.374,0,0,1-.418.458c-.24-.013-.52-.1-.486-.432a.444.444,0,0,1,.483-.443c.241.011.478.112.421.417" transform="translate(-1.452 -8.828)" fill="#fff"/>
      <path id="Tracé_490" data-name="Tracé 490" d="M9.027,51.328c-.283.022-.368-.2-.376-.426-.009-.28.188-.421.485-.423s.415.161.415.429c0,.307-.17.424-.524.419" transform="translate(-1.454 -8.484)" fill="#fff"/>
      <path id="Tracé_491" data-name="Tracé 491" d="M9.552,42.166a.368.368,0,0,1-.443.4c-.3-.017-.483-.168-.458-.447a.386.386,0,0,1,.452-.4c.326.016.458.158.449.448" transform="translate(-1.453 -7.011)" fill="#fff"/>
      <path id="Tracé_492" data-name="Tracé 492" d="M8.634,40.089c.008-.277.156-.4.452-.4s.44.106.465.389c.028.317-.166.439-.443.453a.427.427,0,0,1-.473-.438" transform="translate(-1.451 -6.67)" fill="#fff"/>
      <path id="Tracé_493" data-name="Tracé 493" d="M9.549,46.48c0,.341-.148.476-.468.471-.294,0-.453-.124-.441-.405a.411.411,0,0,1,.472-.434c.242.016.48.1.437.369" transform="translate(-1.452 -7.75)" fill="#fff"/>
      <path id="Tracé_494" data-name="Tracé 494" d="M9.142,48.231a.385.385,0,0,1,.41.448c-.007.309-.183.406-.49.408-.334,0-.406-.218-.41-.438-.006-.283.206-.405.49-.418" transform="translate(-1.454 -8.106)" fill="#fff"/>
      <path id="Tracé_495" data-name="Tracé 495" d="M9.534,61.2c.08.34-.134.473-.408.485a.443.443,0,0,1-.484-.439.416.416,0,0,1,.463-.45c.207,0,.56.05.429.4" transform="translate(-1.452 -10.217)" fill="#fff"/>
      <path id="Tracé_496" data-name="Tracé 496" d="M9.544,67.681c.059.3-.174.4-.417.415a.444.444,0,0,1-.487-.44c-.036-.327.239-.418.482-.434a.376.376,0,0,1,.422.459" transform="translate(-1.452 -11.297)" fill="#fff"/>
      <path id="Tracé_497" data-name="Tracé 497" d="M9.18,70.153c-.353-.008-.532-.155-.539-.459-.006-.257.136-.382.413-.392.305-.011.488.089.5.4.007.268-.1.428-.37.449" transform="translate(-1.452 -11.647)" fill="#fff"/>
      <path id="Tracé_498" data-name="Tracé 498" d="M9.549,63.288c.007.32-.141.459-.463.455-.293,0-.457-.116-.446-.4a.411.411,0,0,1,.468-.439c.245.012.477.1.441.384" transform="translate(-1.452 -10.572)" fill="#fff"/>
      <path id="Tracé_499" data-name="Tracé 499" d="M9.551,65.532c0,.334-.165.458-.479.45-.3-.007-.445-.138-.43-.414a.4.4,0,0,1,.437-.425c.267,0,.507.1.473.389" transform="translate(-1.452 -10.948)" fill="#fff"/>
      <path id="Tracé_500" data-name="Tracé 500" d="M9.549,59.176c.027.289-.21.379-.448.379a.434.434,0,0,1-.458-.46c-.006-.283.18-.379.463-.378.326,0,.454.157.443.459" transform="translate(-1.452 -9.868)" fill="#fff"/>
      <path id="Tracé_501" data-name="Tracé 501" d="M63.113,6.812a.34.34,0,0,1,.366.381c0,.3-.168.464-.493.469a.36.36,0,0,1-.416-.389c-.012-.29.109-.455.542-.462" transform="translate(-10.515 -1.145)" fill="#fff"/>
      <path id="Tracé_502" data-name="Tracé 502" d="M63.072,5.532c-.4-.007-.513-.175-.5-.463s.175-.383.465-.393a.376.376,0,0,1,.433.421c0,.245-.1.48-.4.435" transform="translate(-10.515 -0.786)" fill="#fff"/>
      <path id="Tracé_503" data-name="Tracé 503" d="M33.777,4.044c-.09.2-.144.439-.468.465a.436.436,0,0,1-.5-.423c-.015-.229.143-.417.468-.432s.429.131.5.39" transform="translate(-5.513 -0.614)" fill="#fff"/>
      <path id="Tracé_504" data-name="Tracé 504" d="M30.983,4.513a.377.377,0,0,1-.4-.438c0-.305.169-.413.48-.417.33,0,.414.2.421.429.008.282-.2.41-.5.425" transform="translate(-5.139 -0.615)" fill="#fff"/>
      <path id="Tracé_505" data-name="Tracé 505" d="M13.367,19.637a.434.434,0,0,1-.471.5.412.412,0,0,1-.434-.437.443.443,0,0,1,.468-.453c.238,0,.478.094.437.389" transform="translate(-2.094 -3.235)" fill="#fff"/>
      <path id="Tracé_506" data-name="Tracé 506" d="M13.371,21.765c.011.307-.125.458-.451.458-.29,0-.461-.106-.457-.39a.407.407,0,0,1,.456-.449c.241.009.48.09.452.382" transform="translate(-2.094 -3.594)" fill="#fff"/>
      <path id="Tracé_507" data-name="Tracé 507" d="M2.957,7.217c.011-.295.141-.484.443-.493a.421.421,0,0,1,.47.438.425.425,0,0,1-.461.456.424.424,0,0,1-.452-.4" transform="translate(-0.497 -1.131)" fill="#fff"/>
      <path id="Tracé_508" data-name="Tracé 508" d="M3.867,5.145a.4.4,0,0,1-.46.364.422.422,0,0,1-.447-.461A.422.422,0,0,1,3.4,4.615a.449.449,0,0,1,.465.53" transform="translate(-0.497 -0.776)" fill="#fff"/>
    </g>
  </g>
</svg>
