<svg xmlns="http://www.w3.org/2000/svg" xmlns:xlink="http://www.w3.org/1999/xlink" width="64.236" height="53.04" viewBox="0 0 64.236 53.04">
  <defs>
    <clipPath id="clip-path">
      <rect id="Rectangle_2346" data-name="Rectangle 2346" width="64.236" height="53.04" transform="translate(0 0)" fill="none"/>
    </clipPath>
  </defs>
  <g id="icon_plant" transform="translate(0 0)">
    <g id="Groupe_313" data-name="Groupe 313" clip-path="url(#clip-path)">
      <path id="Tracé_83" data-name="Tracé 83" d="M63.627.536V0h.609c-.134.287-.3.523-.609.536" fill="#eee"/>
      <path id="Tracé_84" data-name="Tracé 84" d="M2.855,4.452l.914.019a9.567,9.567,0,0,0,2.284.15l.754.055a5.766,5.766,0,0,0,1.653.162A3.486,3.486,0,0,0,9.862,5a11.7,11.7,0,0,0,2.131.336,1.825,1.825,0,0,0,.917.165,7.777,7.777,0,0,0,1.978.38.819.819,0,0,0,.61.171,7.24,7.24,0,0,0,1.619.408,1.914,1.914,0,0,0,1.122.314l1.507.551.932.319A7.072,7.072,0,0,0,22.5,8.4a1.086,1.086,0,0,0,.61.345l1.478.748.657.462,1.313.8c.233.253.459.519.807.531l1.172,1.076c.177.248.34.52.657.527l1.039,1.241.5.684c.43.305.62.858.957,1.259l.414.706a5.088,5.088,0,0,0,.918,1.617,1.53,1.53,0,0,0,.29.736l.481,1.585q.138.552.275,1.1.15,1.059.3,2.118l.039.888q-.018,1.054-.035,2.107l-.261,1.821a22.388,22.388,0,0,1-1.257,3.9c-.348.019-.4.4-.555.644a4.745,4.745,0,0,1-1.029,1.383c-.567.418-.571.783-.1,1.26a5.739,5.739,0,0,0,.492,1.382,3.633,3.633,0,0,1,.456.872c.187.642.355,1.292.558,1.928a5.5,5.5,0,0,0,.351.777c.222.7.338,1.428.495,2.145.073.3.1.623.2.931a17.943,17.943,0,0,1,1.92-3.34c.295-.389.723-.615.959-1.076a1.106,1.106,0,0,0,.175-1.4,3.852,3.852,0,0,1-.294-1.082c-.047-.314-.13-.62-.157-.939a11.056,11.056,0,0,1,.165-2.659,3.765,3.765,0,0,1,.5-1.333,10.5,10.5,0,0,1,2.154-3.688,9.668,9.668,0,0,1,4.028-2.839,17.948,17.948,0,0,1,4.319-1.158c.253-.163.506-.28.766-.017l2.238.05c.317.075.67-.228.961.123a6.072,6.072,0,0,0,1.637.222c.4.215.9-.147,1.254.314l1.648.4c.355.149.811-.169,1.093.322a6.552,6.552,0,0,0,1.814.6.5.5,0,0,1,.624.273l1.615.61c.247.037.509.027.669.315a6.18,6.18,0,0,1,1.654.914.44.44,0,0,1,.191.523c0,.832-.548,1.118-1.05,1.45l-.965.638A18.764,18.764,0,0,1,59.1,33.438a35.422,35.422,0,0,0-2.882,3.015c-.955,1.087-1.854,2.26-2.776,3.392a14.623,14.623,0,0,1-3.529,3.448,2.513,2.513,0,0,1-.638.247,13.783,13.783,0,0,1-3.171.934c-.305.167-.61.312-.917,0l-2.117-.419a.908.908,0,0,1-.716-.148,10.752,10.752,0,0,1-1.32-.734q-.344-.279-.7-.538c-.171-.125-.337-.259-.5-.39-.9-.708-.96-.763-1.63.232a16.08,16.08,0,0,0-2.8,5.59,8.7,8.7,0,0,0-.293,1.237c-.134.5-.191,1.024-.325,1.524a1.529,1.529,0,0,0-.218.938,2.505,2.505,0,0,1-.073.642c-.122.291-.282.529-.581.574-.673-.014-1.379.268-1.987-.313-.369-.211-.192-.6-.214-.919a5.763,5.763,0,0,0-.061-1.286q-.023-.5-.044-1.008a.821.821,0,0,1-.094-.733,8.273,8.273,0,0,0-.209-1.956,3.144,3.144,0,0,1-.261-1.475c.043-.713-.451-1.228-.508-1.9-.317-.241-.138-.657-.249-.971a6,6,0,0,0-.463-1.726c-.359-.253-.144-.742-.318-1.071a2.966,2.966,0,0,0-.654-1.583.547.547,0,0,1-.229-.563c-.059-.6-.237-.8-.782-.493-.738.415-1.53.7-2.3,1.042-.4.123-.756.518-1.222.328l-2.892.4c-.254.145-.508.271-.765.009L18.4,38.544c-.272.054-.545.111-.759-.177a4.912,4.912,0,0,0-1.514-.528c-.32-.152-.757-.016-.931-.524l-1.374-.894a.75.75,0,0,1-.6-.564c-.27-.475-.747-.656-1.079-1.043a1.158,1.158,0,0,1-.589-.762,3.314,3.314,0,0,0-.976-1.367c-.3-.132-.31-.475-.4-.76L9.521,30.36a.5.5,0,0,1-.216-.567c-.1-.743-.608-1.26-.787-1.959a.622.622,0,0,1-.191-.7,9.079,9.079,0,0,0-.464-1.789c-.134-.281-.365-.525-.257-.9a5.05,5.05,0,0,0-.67-2.121c-.389-.2-.105-.649-.261-.933A7.974,7.974,0,0,0,6.2,19.64c-.327-.212-.155-.633-.283-.929A5.9,5.9,0,0,0,5.43,17.14c-.163-.223-.475-.331-.4-.73a10.908,10.908,0,0,0-.686-1.937.592.592,0,0,1-.255-.552,3.8,3.8,0,0,0-.918-1.784.62.62,0,0,1-.261-.553,5.82,5.82,0,0,0-.8-1.592c-.343-.16-.4-.6-.622-.878A4.791,4.791,0,0,0,.728,7.853a1.055,1.055,0,0,1-.452-.732C-.386,5.463.16,4.458,1.716,4.467c.38,0,.759-.01,1.139-.015" fill="#7caf33"/>
    </g>
  </g>
</svg>
