<svg id="icon_weather_station" xmlns="http://www.w3.org/2000/svg" xmlns:xlink="http://www.w3.org/1999/xlink" width="19.306" height="66.012" viewBox="0 0 19.306 66.012">
  <defs>
    <clipPath id="clip-path">
      <rect id="Rectangle_2344" data-name="Rectangle 2344" width="19.306" height="66.012" fill="none"/>
    </clipPath>
  </defs>
  <g id="Groupe_307" data-name="Groupe 307" clip-path="url(#clip-path)">
    <path id="Tracé_75" data-name="Tracé 75" d="M19.222,33.008q.044,11.836.084,23.67a8.843,8.843,0,0,1-3.423,7.083,9.31,9.31,0,0,1-10.409,1.2,8.908,8.908,0,0,1-5.182-6.99,9.433,9.433,0,0,1-.124-1.514Q.075,32.855,0,9.257A9.443,9.443,0,0,1,7.459.251,9.32,9.32,0,0,1,16.528,3a8.7,8.7,0,0,1,2.6,6.193q.059,11.908.093,23.815" transform="translate(0 0)" fill="#3594d4"/>
    <path id="Tracé_76" data-name="Tracé 76" d="M18.316,34.129q.044,11.724.085,23.448a7.529,7.529,0,1,1-15.057-.16c.029-2.312,0-4.626-.03-6.939-.007-.493.1-.692.637-.668.874.04,1.752.01,2.629,0,.81-.008,1.352-.465,1.335-1.113a1.2,1.2,0,0,0-1.332-1.063c-.925-.011-1.851-.011-2.776.013-.384.01-.489-.132-.5-.506-.063-1.493-.076-1.492,1.411-1.56a1.033,1.033,0,0,0,1.072-1.028c0-.659-.341-.99-1.046-1.017-1.461-.057-1.43-.058-1.463-1.525-.013-.574.182-.7.707-.676.923.036,1.85.013,2.775,0,.72-.013,1.074-.347,1.083-.979.01-.7-.338-1.053-1.077-1.061-.974-.01-1.949-.019-2.922.017-.461.017-.626-.145-.564-.583a.928.928,0,0,0,0-.146c-.013-1.257-.013-1.257,1.253-1.362.857-.071,1.268-.478,1.222-1.208-.037-.584-.535-.943-1.318-.951-1.17-.012-1.17-.012-1.174-.984,0-1.192-.005-1.18,1.373-1.1A18.49,18.49,0,0,0,6.6,33c.815-.04,1.259-.477,1.232-1.128a1.04,1.04,0,0,0-1.119-1c-.943-.017-1.887-.033-2.83-.012-.443.01-.648-.077-.651-.592-.008-1.418-.034-1.418,1.414-1.488a1.048,1.048,0,0,0,1.074-1.031c0-.675-.326-.995-1.038-1.028-1.479-.069-1.452-.069-1.47-1.556-.007-.544.2-.645.676-.629.9.029,1.8.006,2.7,0,.816-.008,1.179-.334,1.182-1.045,0-.68-.376-1-1.214-1-.949,0-1.9-.008-2.848.017-.382.01-.547-.119-.5-.5a.464.464,0,0,0,0-.073c-.05-1.5-.05-1.5,1.409-1.6.756-.053,1.087-.391,1.065-1.086a1.066,1.066,0,0,0-1.123-.985c-1.4-.041-1.377-.041-1.382-1.445,0-.48.14-.636.618-.619.851.03,1.7.008,2.556,0,.945-.01,1.4-.377,1.387-1.105-.012-.7-.5-1.07-1.432-1.072q-1.305,0-2.612.01c-.285,0-.533.009-.52-.4.06-1.876-.177-3.754.533-5.6A7.737,7.737,0,0,1,10.3,3.31a7.517,7.517,0,0,1,5.171,1.7,7.137,7.137,0,0,1,2.738,5.669c.065,7.816.073,15.632.1,23.448" transform="translate(-1.14 -1.185)" fill="#fff"/>
    <path id="Tracé_77" data-name="Tracé 77" d="M16.774,34.692q.043,11.425.086,22.848c0,.164,0,.328,0,.492a1.723,1.723,0,0,1-3.438.083c-.045-1.392-.021-2.785-.027-4.178l-.013-3.566q-.07-18.835-.126-37.669a5.414,5.414,0,0,1,.129-1.924,1.634,1.634,0,0,1,1.7-1.029,1.607,1.607,0,0,1,1.588,1.359c.042.735.015,1.472.018,2.208l.081,21.376" transform="translate(-4.741 -3.493)" fill="#eb751d"/>
    <path id="Tracé_78" data-name="Tracé 78" d="M14.245,91.8A4.141,4.141,0,1,1,18.3,87.574,4.109,4.109,0,0,1,14.245,91.8" transform="translate(-3.59 -29.919)" fill="#eb751d"/>
  </g>
</svg>
