<svg xmlns="http://www.w3.org/2000/svg" width="45.876" height="66.009" viewBox="0 0 45.876 66.009">
  <path id="icon_solar_balloon" d="M637.587,555.934c2.132-3.83,10.691-8.56,10.684-23.021-.006-11.939-10.912-20.733-22.518-21.087v-.035c-.144,0-.287.016-.431.018s-.286-.019-.43-.018v.036c-11.606.365-22.5,9.169-22.5,21.109.007,14.46,8.63,18.539,10.706,22.4,1.886,3.505,2.58,6.062,4.588,9.158l2.014,7.167c-.645,1.54.052,4.7,1.306,5.616,1.006.736,7.588.658,8.652.008,1.38-.843,2.107-4.394,1.219-5.789l2.008-6.818C634.933,561.615,635.644,559.422,637.587,555.934ZM620.659,571.4l-1.6-5.692c2.63.849,9.757.855,12.485.021l-1.672,5.682Z" transform="translate(-602.395 -511.791)" fill="#24a069"/>
</svg>
