<svg xmlns="http://www.w3.org/2000/svg" xmlns:xlink="http://www.w3.org/1999/xlink" width="61.373" height="42.682" viewBox="0 0 61.373 42.682">
  <defs>
    <clipPath id="clip-path">
      <rect id="Rectangle_2347" data-name="Rectangle 2347" width="61.373" height="42.682" transform="translate(0 0)" fill="none"/>
    </clipPath>
  </defs>
  <g id="icon_mars_rover" transform="translate(0 0)">
    <g id="Groupe_316" data-name="Groupe 316" clip-path="url(#clip-path)">
      <path id="Tracé_85" data-name="Tracé 85" d="M57.3,32.038a8.7,8.7,0,0,0-3.041-.085,7.234,7.234,0,0,0-2.875,1.27,6.97,6.97,0,0,0-2.421,3.461,4.93,4.93,0,0,0-.238,2.526c.054.259.072.345-.325.338-1.224-.02-2.439-.148-3.659-.2-1.486-.059-2.967-.241-4.453-.3-.8-.031-1.6-.1-2.4-.113a5.749,5.749,0,0,0-1.6-.02,6.642,6.642,0,0,0,.171-2.936,6.763,6.763,0,0,0-.963-2.452,5.928,5.928,0,0,0-2.038-2.111,8.118,8.118,0,0,0-2.436-.962,6.057,6.057,0,0,0-3.853.4,6.392,6.392,0,0,0-3.041,2.48,6.943,6.943,0,0,0-.949,2.058,5.362,5.362,0,0,0-.181,2.147c.078.427-.105.509-.464.482-.868-.067-1.736-.168-2.6-.184-.785-.015-1.565-.077-2.346-.129-1.268-.084-2.54-.1-3.807-.235-.831-.086-1.672-.092-2.509-.11-.6-.012-.6-.047-.54-.611a7.337,7.337,0,0,0-.553-4.072,7.543,7.543,0,0,0-2.052-2.5,7.6,7.6,0,0,0-3.881-1.461c-.27-.045-.547.153-.856.112-.239-.032-.3-.118-.282-.328.136-1.777.3-3.553.384-5.332.021-.442.092-.881.08-1.328a1.314,1.314,0,0,1,1.423-1.2c.756.07,1.519.073,2.278.12,1.279.081,2.561.1,3.838.237.6.065,1.206.021,1.808.056.349.021.245-.286.254-.386.067-.825.083-1.654.125-2.481.034-.664.069-1.328.129-1.989.042-.454-.225-.547-.587-.564-1.535-.073-3.069-.15-4.6-.217a1.552,1.552,0,0,1-1.483-1.878c.141-.818.113-1.645.192-2.466.123-1.268.129-2.544.251-3.815.109-1.145.106-2.3.191-3.448.053-.727-.08-1.553.87-1.908a2.775,2.775,0,0,1,1.26-.1c.887.086,1.776.111,2.662.175,1.177.086,2.354.175,3.532.251.8.051,1.6.081,2.4.121,1.251.063,2.5.094,3.749.251.335.043.659-.1,1.015.1,1.033.562.778,1.506.764,2.361-.015.914-.116,1.826-.182,2.738-.085,1.163-.179,2.325-.255,3.488-.053.808-.045,1.622-.138,2.425a3.577,3.577,0,0,1-.314,1.811,1.432,1.432,0,0,1-1.344.669c-1.458-.058-2.912-.2-4.368-.3-.165-.011-.333.017-.5.005-.357-.026-.443.108-.459.473-.05,1.218-.087,2.438-.241,3.651a8.666,8.666,0,0,1-.049,1.023c-.059.245.246.263.435.273,1.2.059,2.4.085,3.6.165,1.459.1,2.914.251,4.373.348a11.8,11.8,0,0,1,1.492.017.521.521,0,0,0,.275-.014c.323-.126.771.507.945-.062.1-.33.216-.678.3-1.026.246-1.069.614-2.113.831-3.188a30.444,30.444,0,0,0,.745-2.994c.031-.309.3-.531.306-.933A11.745,11.745,0,0,0,31.915,15.9,8.384,8.384,0,0,0,35.072,17c.363.034.452.163.528.5.226,1.006.358,2.031.518,3.044.078.5.2,1.005.241,1.516.03.368.151.611.649.571a22.722,22.722,0,0,1,3.612.137c1.154.09,2.313.11,3.469.177.315.018.432-.077.519-.4.387-1.412.825-2.809,1.233-4.215.286-.987.548-1.982.829-2.971.338-1.188.672-2.378,1.033-3.56a1.162,1.162,0,0,1,1.319-.758c.778.071,1.562.087,2.344.123a2.342,2.342,0,0,1,.652.054c.292.094.619-.075.926.037.1-.271.213-.537.282-.814a3.893,3.893,0,0,1,2.547-2.813,4.367,4.367,0,0,1,2.121-.211c.728.1,1.484.055,2.225.14a1.3,1.3,0,0,1,1.254,1.309,1.334,1.334,0,0,1-1.212,1.354,12.314,12.314,0,0,1-2.827-.087,1.359,1.359,0,0,0-1.519,1.28c-.031.825-.094,1.651-.2,2.47a1.428,1.428,0,0,0,1.358,1.624c.924.047,1.847.121,2.769.2a1.427,1.427,0,0,1,1.13,1.272,1.293,1.293,0,0,1-1.233,1.4,14.637,14.637,0,0,1-3.721-.228,3.317,3.317,0,0,1-2.035-1.3,4.167,4.167,0,0,1-.941-2.393c-.011-.532-.424-.577-.831-.581a14.766,14.766,0,0,1-1.844-.12c-.187-.026-.358-.041-.437.263-.305,1.165-.678,2.316-.989,3.477-.361,1.348-.816,2.67-1.11,4.036a6.469,6.469,0,0,1-.367,1.179c-.157.366.033.463.318.479,1.181.064,2.365.1,3.546.168s2.342.213,3.515.238a10.819,10.819,0,0,0,1.57.07,1.685,1.685,0,0,1,1.365,1.293c-.119,1.77-.284,3.538-.363,5.31a6.029,6.029,0,0,0-.023,1.767" fill="#ea5c17"/>
      <path id="Tracé_86" data-name="Tracé 86" d="M29.145,7.316c-.03-.446-.03-.884-.017-1.328a8.3,8.3,0,0,1,1.591-4.471A6.144,6.144,0,0,1,31.931.225a1.565,1.565,0,0,1,1.8.13c.74.81,1.461,1.634,2.146,2.489.395.491.854.934,1.287,1.395a.31.31,0,0,0,.514,0c.744-.714,1.5-1.423,2.261-2.119A1.906,1.906,0,0,1,41.26,1.53a1.246,1.246,0,0,1,1.2.782,1.326,1.326,0,0,1-.385,1.545c-.783.706-1.505,1.482-2.328,2.134-.527.418-.519.571-.061,1.091.972,1.107,1.972,2.194,2.933,3.309.728.845.636,1.693-.461,2.533a7.691,7.691,0,0,1-3.835,1.589,8.255,8.255,0,0,1-4.815-.866,8.784,8.784,0,0,1-2.732-2.3A6.289,6.289,0,0,1,29.328,8.1a7.126,7.126,0,0,0-.183-.781" fill="#ea5c17"/>
      <path id="Tracé_87" data-name="Tracé 87" d="M.041,36.134A4.073,4.073,0,0,1,1.2,32.643a3.533,3.533,0,0,1,2.464-1.135,4.025,4.025,0,0,1,4.36,3.258,3.9,3.9,0,0,1-.8,3.361,3.858,3.858,0,0,1-2.732,1.524c-2.7.1-4.28-1.559-4.447-3.517" fill="#ea5c17"/>
      <path id="Tracé_88" data-name="Tracé 88" d="M29.5,33.081a3.909,3.909,0,0,1,4.3,3.668,3.971,3.971,0,0,1-3.654,4.4,3.876,3.876,0,0,1-4.437-3.465,3.981,3.981,0,0,1,3.792-4.6" fill="#ea5c17"/>
      <path id="Tracé_89" data-name="Tracé 89" d="M55.753,42.67a3.919,3.919,0,0,1-4.363-3.738,4.084,4.084,0,0,1,3.879-4.352,4.053,4.053,0,0,1,.484,8.09" fill="#ea5c17"/>
      <path id="Tracé_90" data-name="Tracé 90" d="M15.2,11.718a2.781,2.781,0,0,1-2.7-2.713,2.9,2.9,0,0,1,2.316-2.749c2.022-.034,2.994,1,3.088,2.515a2.735,2.735,0,0,1-2.7,2.947" fill="#fff"/>
    </g>
  </g>
</svg>
