<svg xmlns="http://www.w3.org/2000/svg" xmlns:xlink="http://www.w3.org/1999/xlink" width="51.402" height="60.839" viewBox="0 0 51.402 60.839">
  <defs>
    <clipPath id="clip-path">
      <rect id="Rectangle_2348" data-name="Rectangle 2348" width="51.402" height="60.839" fill="none"/>
    </clipPath>
  </defs>
  <g id="icon_ia" transform="translate(0 0)">
    <g id="Groupe_319" data-name="Groupe 319" transform="translate(0 0)" clip-path="url(#clip-path)">
      <path id="Tracé_91" data-name="Tracé 91" d="M23.84.019A14.762,14.762,0,0,1,25.9.083c.643.04,1.279.166,1.918.26A17.5,17.5,0,0,1,29.625.72a21.41,21.41,0,0,1,3.063,1.042,25.889,25.889,0,0,1,2.978,1.505,24.671,24.671,0,0,1,2.075,1.4,26.485,26.485,0,0,1,2.331,1.953A20.773,20.773,0,0,1,42.525,9.37a20.062,20.062,0,0,1,1.806,2.88,24.957,24.957,0,0,1,1.233,2.821,21.173,21.173,0,0,1,.887,3.112,22.485,22.485,0,0,1,.333,2.338c.07.742.115,1.484.165,2.227a3.081,3.081,0,0,0,.323.892c.209.5.434,1,.643,1.508.268.649.524,1.3.791,1.953.214.522.439,1.039.656,1.558q.44,1.055.875,2.111.285.691.567,1.383a8.568,8.568,0,0,1,.392.989,4.239,4.239,0,0,1,.162,1.835,3.636,3.636,0,0,1-.245.979,3.451,3.451,0,0,1-1.967,1.811c-.563.217-1.129.425-1.687.656a7.362,7.362,0,0,1-.814.3c-.11.031-.17.064-.176.182-.046.865-.245,1.709-.365,2.563-.137.983-.286,1.968-.464,2.945-.134.734-.246,1.473-.362,2.208-.11.7-.231,1.4-.326,2.109a3.159,3.159,0,0,1-.778,1.615,5.711,5.711,0,0,1-1.823,1.4,7.023,7.023,0,0,1-2.051.7,11.617,11.617,0,0,1-1.893.121c-.3,0-.589-.082-.89-.063-.158.011-.224.018-.269.218-.157.7-.294,1.408-.421,2.11s-.264,1.432-.393,2.147c-.106.591-.2,1.189-.348,1.775-.1.419-.128.856-.262,1.275a1.881,1.881,0,0,1-.5.752c-.1.1-.218.058-.328.058q-4.1,0-8.192,0H9.587a1.041,1.041,0,0,1-1.037-.978,5.32,5.32,0,0,1,.214-1.9c.089-.327.046-.689.144-1.012.166-.545.142-1.118.306-1.665a11.417,11.417,0,0,0,.207-1.321c.122-.71.283-1.413.384-2.125.107-.751.214-1.5.331-2.252a14.452,14.452,0,0,0,.077-2.555A7.641,7.641,0,0,0,9.8,44.8a10.51,10.51,0,0,0-1.358-2.689A23.568,23.568,0,0,0,6.273,39.6,24.369,24.369,0,0,1,4.5,37.409a22.549,22.549,0,0,1-1.866-3.026c-.313-.613-.6-1.239-.869-1.88-.315-.765-.577-1.548-.833-2.331-.158-.485-.266-1-.381-1.5C.4,28.031.329,27.38.185,26.742a5.346,5.346,0,0,1-.074-.708,28.821,28.821,0,0,1-.063-4.2,18.881,18.881,0,0,1,.32-2.483c.1-.5.195-1.006.32-1.5a23.644,23.644,0,0,1,1.025-3.128,25.378,25.378,0,0,1,1.118-2.372,24.716,24.716,0,0,1,1.411-2.287A22.794,22.794,0,0,1,7.754,6.077,22.024,22.024,0,0,1,10.889,3.7c.689-.43,1.4-.82,2.114-1.2a19.91,19.91,0,0,1,2.505-1.088q.948-.341,1.929-.6A17.167,17.167,0,0,1,19.285.391c.647-.1,1.288-.23,1.948-.274C22.068.062,22.9.006,23.84.019" transform="translate(0 0)" fill="#c2413d"/>
      <path id="Tracé_92" data-name="Tracé 92" d="M24.5,59.794q-4.979,0-9.958,0c-.185,0-.307.036-.246-.259.151-.721.235-1.455.41-2.173.076-.311.046-.651.134-.958.156-.547.137-1.123.315-1.666a5.22,5.22,0,0,0,.138-.81,20.3,20.3,0,0,0,.34-4.313,14.107,14.107,0,0,0-.306-2.463c-.1-.429-.194-.862-.324-1.283a13.514,13.514,0,0,0-1.113-2.621,16.516,16.516,0,0,0-1.488-2.2c-.265-.334-.557-.642-.853-.949A23.374,23.374,0,0,1,8.8,36.759a22.393,22.393,0,0,1-1.588-2.875,21.886,21.886,0,0,1-1.09-2.934c-.171-.573-.262-1.179-.4-1.764a16,16,0,0,1-.284-2.257,11.138,11.138,0,0,1,.054-2.964c.075-.418.057-.853.129-1.278q.159-.948.38-1.882a19.583,19.583,0,0,1,.85-2.637c.24-.611.546-1.2.83-1.791a17.046,17.046,0,0,1,1.108-1.93,16.87,16.87,0,0,1,1.523-2.007c.549-.618,1.135-1.2,1.743-1.764A20.587,20.587,0,0,1,14.54,8.751a16.071,16.071,0,0,1,1.921-1.12,20.407,20.407,0,0,1,2.623-1.091c.662-.217,1.339-.382,2-.594.25-.08.526-.073.78-.146.725-.207,1.489-.132,2.215-.328a1.618,1.618,0,0,1,.4-.014c.55,0,1.1.013,1.65,0a23.206,23.206,0,0,1,2.624.224c.493.041.963.181,1.446.26a12.654,12.654,0,0,1,1.711.479,16.671,16.671,0,0,1,2.368.961,22.5,22.5,0,0,1,5.005,3.393c.467.421.911.867,1.34,1.33a18.057,18.057,0,0,1,1.555,1.919A19.765,19.765,0,0,1,43.568,16.3a17.1,17.1,0,0,1,.951,2.2,19.488,19.488,0,0,1,.555,1.893c.087.367.11.743.215,1.1a13.938,13.938,0,0,1,.274,2.319,5.535,5.535,0,0,1,0,1.126,4.274,4.274,0,0,0,.492,1.969c.191.478.418.942.61,1.421.3.74.591,1.48.91,2.211.281.645.516,1.31.782,1.962.286.7.59,1.4.878,2.1.2.478.394.958.566,1.446.143.4.042.568-.366.72q-1.464.545-2.925,1.1a1.928,1.928,0,0,0-1.307,1.722,20.31,20.31,0,0,1-.374,2.264,7.515,7.515,0,0,0-.127.961c-.046.433-.168.851-.2,1.287-.047.6-.22,1.172-.268,1.77-.044.548-.191,1.081-.259,1.628-.071.573-.159,1.147-.267,1.712a2.1,2.1,0,0,1-1.268,1.669,8.643,8.643,0,0,1-1.987.413,7.754,7.754,0,0,1-2.12-.019,9.68,9.68,0,0,1-1.2-.331c-.73-.181-1.453-.394-2.173-.6-.81-.237-1.624-.462-2.434-.7-.927-.275-1.86-.535-2.794-.792-.8-.22-1.595-.445-2.387-.685a6.017,6.017,0,0,1-2.51-1.168,8.356,8.356,0,0,1-1.074-1.331,8.17,8.17,0,0,0-.883-1.226,1.182,1.182,0,0,0-1.25-.327,1.336,1.336,0,0,0-.845,1.029,2.043,2.043,0,0,0,.306,1.488,13.243,13.243,0,0,0,.629,1.2,7.431,7.431,0,0,0,2.623,2.824,9.234,9.234,0,0,0,2.142.837c.677.192,1.361.371,2.033.588.441.143.9.256,1.35.379a7.345,7.345,0,0,1,3.12,1.383,4.656,4.656,0,0,1,1.123,1.474,7.548,7.548,0,0,1,.644,2.654c.043.491.022.978.046,1.466.013.268-.077.377-.377.376-3.309-.011-6.619-.007-9.928-.007" transform="translate(-1.996 -2.029)" fill="#fff"/>
      <path id="Tracé_93" data-name="Tracé 93" d="M27.134,13.844c.482,0,.964,0,1.447,0,.163,0,.334.023.411.207.04.1.123.067.195.083.165.039.33.058.429.244a.262.262,0,0,0,.458-.036c.015-.024.028-.068.046-.07.381-.041.608-.435,1.012-.431.878.006,1.756,0,2.633.006a.961.961,0,0,1,.716.233c.119.113.38.084.578.1a.326.326,0,0,1,.319.2c.013.033.046.087.058.085.369-.1.577.21.816.367a2.712,2.712,0,0,1,.732.555,2.556,2.556,0,0,0,.451.459c.187.143.122.453.281.517.275.111.236.319.273.512.016.088.035.136.135.147a.552.552,0,0,1,.462.239c.075.116.261.1.4.1a.527.527,0,0,1,.5.224.146.146,0,0,0,.115.07,1.809,1.809,0,0,1,.951.6,4.554,4.554,0,0,0,.389.265,4.542,4.542,0,0,1,.75.752,4.872,4.872,0,0,1,.486.607c.108.2.307.343.279.607a.076.076,0,0,0,.047.058c.284.039.256.278.288.465a.281.281,0,0,0,.127.229c.2.131.164.352.167.552,0,.161-.033.325.175.409.09.036.107.154.115.253a21.482,21.482,0,0,1,0,3.435c-.007.089-.018.205-.088.235-.265.115-.192.338-.2.538s.006.433-.231.548c-.009,0-.026.009-.025.012.092.5-.418.828-.381,1.313,0,.047,0,.129.022.136.291.1.244.494.52.6.008,0,.019.013.019.021.011.436.447.711.426,1.169-.036.808.052,1.619-.058,2.426-.02.148-.034.291-.207.343-.119.036-.082.138-.084.218-.005.195.007.392-.225.483a.137.137,0,0,0-.063.086,1.774,1.774,0,0,1-.758.885c-.266.207-.566.364-.821.583-.077.067-.068.133.023.179a.448.448,0,0,1,.221.463q0,.983,0,1.967c0,.058.019.138-.011.17-.243.257-.249.639-.5.9-.171.18-.27.418-.469.594a2.686,2.686,0,0,1-.833.571c-.059.022-.134-.006-.175.075-.1.2-.293.223-.49.227s-.382,0-.515.189c-.058.085-.182.091-.291.1a9.014,9.014,0,0,1-1.241.055c-.14-.006-.22.005-.241.185a.6.6,0,0,1-.259.453,1.369,1.369,0,0,0-.311.431,2,2,0,0,1-.727.715c-.311.186-.564.546-1,.475a.108.108,0,0,0-.084.014c-.345.376-.8.262-1.224.271-.559.011-1.119,0-1.678,0a.686.686,0,0,1-.576-.211c-.066-.08-.153-.069-.23-.1s-.2-.056-.2-.087c-.01-.3-.34-.209-.46-.387-.068-.1-.535.1-.607.264a.311.311,0,0,1-.252.2.452.452,0,0,0-.268.142.672.672,0,0,1-.532.178c-.762,0-1.525,0-2.287,0a.779.779,0,0,1-.607-.213c-.135-.143-.335-.041-.489-.125-.057-.031-.159-.014-.188-.055-.222-.326-.651-.372-.89-.671a6.076,6.076,0,0,1-.481-.6c-.078-.128-.119-.264-.271-.335A.21.21,0,0,1,23,41.349c.041-.322-.141-.374-.406-.4-.315-.026-.666.028-.9-.281a.062.062,0,0,0-.051-.024,1.259,1.259,0,0,1-1.035-.374c-.431-.308-.989-.526-1.148-1.123a.133.133,0,0,0-.119-.1c-.139-.032-.164-.138-.193-.256-.043-.175-.024-.364-.226-.492-.094-.06-.1-.261-.1-.408,0-.511-.007-1.022,0-1.533a.816.816,0,0,1,.224-.635c.093-.086.087-.149-.05-.257-.321-.252-.767-.344-1-.657-.143-.188-.414-.222-.487-.5-.027-.1-.212-.233-.324-.345a6.931,6.931,0,0,1-.656-1.081c-.414-.591-.193-1.207-.264-1.806a7.255,7.255,0,0,1,.009-.809c0-.245,0-.485.24-.637.069-.043.04-.122.055-.185a1.679,1.679,0,0,1,.569-.9.288.288,0,0,0-.035-.409c-.069-.043-.153-.087-.151-.16.015-.52-.47-.9-.389-1.439a.171.171,0,0,0-.035-.132,1.113,1.113,0,0,1-.254-.915q.006-1.46,0-2.921a.773.773,0,0,1,.214-.608.221.221,0,0,0,.077-.176,1.13,1.13,0,0,1,.285-.872.347.347,0,0,0,.065-.245c0-.168.026-.33.216-.4.024-.009.058-.03.063-.05a2.2,2.2,0,0,1,.625-1,5.2,5.2,0,0,1,.638-.753,2.7,2.7,0,0,0,.595-.493c.205-.313.642-.2.778-.543a.028.028,0,0,1,.023-.016c.4.025.662-.289,1.008-.381.157-.041.215-.1.218-.235.008-.35.321-.482.5-.709.023-.028.069-.039.085-.068.151-.272.462-.41.61-.643a1.4,1.4,0,0,1,.543-.426,2.467,2.467,0,0,1,.946-.479c.067-.008.178.008.192-.023.185-.392.561-.257.862-.324.055-.012.139,0,.163-.033.212-.289.535-.233.819-.249.443-.026.887-.007,1.331-.007" transform="translate(-6.049 -5.149)" fill="#c2413d"/>
      <path id="Tracé_94" data-name="Tracé 94" d="M29.963,37.2v3.9a.786.786,0,0,1-.183.612.327.327,0,0,0-.068.186.807.807,0,0,1-.677.729.743.743,0,0,0-.356.17.424.424,0,0,1-.489.059,2.979,2.979,0,0,0-1.311-.262.486.486,0,0,1-.393-.163c-.152-.176-.436-.19-.59-.408-.165-.236-.428-.366-.506-.711-.062-.279-.292-.532-.327-.85-.009-.085-.13-.116-.186-.107a2.658,2.658,0,0,1-1.163-.259,1.664,1.664,0,0,0-.517-.051c-.171,0-.35.026-.428-.195-.014-.041-.089-.077-.141-.087-.362-.067-.51-.406-.762-.582-.3-.21-.207-.478-.325-.7a.88.88,0,0,1-.015-.954.794.794,0,0,0,.078-.45c-.011-.161.112-.263.172-.381.154-.308.463-.556.459-.932,0-.4-.129-.5-.529-.522-.193-.009-.412.023-.516-.213A.063.063,0,0,0,21.146,35c-.379.02-.6-.294-.914-.427-.218-.093-.364-.345-.58-.452-.315-.158-.254-.552-.533-.727-.141-.089-.084-.3-.114-.454a1.392,1.392,0,0,0-.183-.509.46.46,0,0,1-.023-.491,2.055,2.055,0,0,0,.24-.851c.024-.115.031-.22.154-.283a.253.253,0,0,0,.124-.154c.067-.426.537-.531.7-.882.013-.029.127-.016.194-.016.328,0,.659.024.984-.007.429-.041.637.173.847.517.089.144.208.4.465.42a.142.142,0,0,1,.1.048c.173.336.495.287.782.289a4.348,4.348,0,0,0,1.152-.05c.055-.014.138-.015.159-.051.146-.257.489-.287.625-.539.18-.33.547-.562.459-1.034a5.68,5.68,0,0,1-.011-.981.53.53,0,0,0-.231-.483c-.158-.118-.218-.374-.4-.512-.321-.242-.6-.543-1.079-.462a5.815,5.815,0,0,1-.838.009.9.9,0,0,0-.607.222c-.17.139-.334.321-.521.456a2.152,2.152,0,0,0-.359.462.286.286,0,0,1-.282.132H19.833c-.366,0-.477-.1-.487-.47-.006-.208-.008-.409-.235-.514-.065-.03-.053-.095-.056-.151a4.935,4.935,0,0,0-.272-1.666.9.9,0,0,1,.07-.667,4.581,4.581,0,0,0,.2-1.422c.013-.143-.025-.292.172-.345a.17.17,0,0,0,.085-.141c-.054-.4.222-.687.395-.977a8.2,8.2,0,0,1,.471-.742c.143-.188.379-.3.451-.538.055-.185.269-.176.394-.271a1.768,1.768,0,0,1,.857-.484c.029,0,.062.008.087,0a3.374,3.374,0,0,1,1.118-.357.1.1,0,0,0,.082-.106c-.04-.345.227-.56.363-.824a2.258,2.258,0,0,1,.9-.917c.132-.075.29-.105.343-.277.023-.072.091-.053.146-.063.178-.035.359-.055.456-.251.054-.108.177-.1.284-.1.18.006.347-.011.44-.2.06-.124.183-.086.284-.084a6.022,6.022,0,0,0,1.518-.159c.2-.048.382-.19.605-.132a1.99,1.99,0,0,1,1.106.591c.1.127.08.368.089.558a2.592,2.592,0,0,0,.166.787,3.111,3.111,0,0,1,.107,1.083c.011,1.785,0,3.568.01,5.352,0,.228-.061.308-.294.3a9.982,9.982,0,0,0-1.071,0c-.236.013-.312-.051-.308-.3.016-.848.006-1.7.006-2.546,0-.333-.051-.384-.386-.384-.627,0-1.256-.03-1.881.012a.592.592,0,0,1-.573-.34c-.031-.286-.276-.381-.406-.483-.219-.173-.4-.461-.745-.455a7.676,7.676,0,0,0-1.441.045c-.038.008-.1,0-.111.022-.176.278-.535.347-.713.607a1.441,1.441,0,0,0-.412,1.162,3.877,3.877,0,0,1,.01.779c0,.22-.021.447.259.544.129.045.1.21.168.314.175.257.522.29.667.568.032.061.116.06.185.06.51,0,1.022,0,1.533,0,.055,0,.147-.013.158-.044.1-.254.391-.276.547-.493.17-.236.376-.468.576-.693.077-.086.2-.042.305-.037.237.013.539-.107.693.051s.039.441.041.671c.005.7.009,1.408,0,2.112,0,.271.1.37.368.367.849-.011,1.7,0,2.547-.008.219,0,.279.07.278.282q-.012,2.156,0,4.311c0,.2-.051.261-.256.259-1.264-.009-2.528-.006-3.792,0-.4,0-.454.055-.454.445,0,1.032-.024,2.065.014,3.1a.607.607,0,0,1-.332.583,1.137,1.137,0,0,0-.5.413c-.191.248-.483.473-.457.861.024.355-.012.715.013,1.07a.613.613,0,0,0,.261.568c.129.081.173.325.337.439.362.254.676.595,1.194.517a8.913,8.913,0,0,0,1.065-.057c.064-.017.163-.022.184-.063.134-.266.482-.284.617-.527.165-.3.506-.5.452-.923a9.106,9.106,0,0,1-.009-.954.884.884,0,0,0-.229-.66,4.6,4.6,0,0,1-.451-.524c-.089-.134-.293-.224-.441-.344a.328.328,0,0,1-.153-.3c.006-.607.01-1.215,0-1.822,0-.192.033-.267.247-.264.81.013,1.621.014,2.431,0,.23,0,.267.075.266.281-.009,1.331,0,2.661,0,3.992h-.016" transform="translate(-6.973 -6.071)" fill="#fff"/>
      <path id="Tracé_95" data-name="Tracé 95" d="M49.338,34.566V32.588c0-.588,0-.588-.586-.588-1.611,0-3.222-.005-4.834.005-.249,0-.362-.04-.336-.321.028-.306.006-.617.006-.925a.665.665,0,0,1,.509-.732c.163-.067.251-.25.338-.359.216-.269.523-.531.438-.978a5.383,5.383,0,0,1-.012-.981c0-.2-.021-.382-.244-.477-.157-.067-.141-.264-.244-.391-.176-.217-.465-.259-.615-.5-.055-.087-.208-.075-.327-.074-.386,0-.772,0-1.158,0a.591.591,0,0,0-.568.231c-.1.137-.362.21-.492.39-.242.336-.566.628-.469,1.118a3.538,3.538,0,0,1,.007.693.914.914,0,0,0,.252.72,4.847,4.847,0,0,1,.45.517,1.632,1.632,0,0,0,.445.345.257.257,0,0,1,.127.273c0,.868,0,1.736,0,2.6,0,.364.035.4.4.4,1.7,0,3.4,0,5.094-.006.23,0,.289.061.288.288-.008.868.006,1.736.013,2.6,0,.1-.024.22.075.3a.7.7,0,0,1,.25.524.791.791,0,0,0,.2.524.275.275,0,0,1,0,.348.875.875,0,0,0-.179.566c.022.335-.252.5-.427.684a.866.866,0,0,1-.692.39c-.271.393-.686.225-1.047.271a1.571,1.571,0,0,0-.505.108,2.246,2.246,0,0,1-1.09.178c-.372-.005-.457.085-.466.453,0,.116.012.225-.136.278a.23.23,0,0,0-.121.219c-.019.473-.42.691-.706.93a2.082,2.082,0,0,1-1.359.438,1.43,1.43,0,0,0-.712.191.394.394,0,0,1-.483-.051.415.415,0,0,0-.331-.151c-.31.029-.4-.3-.638-.378-.023-.007-.021-.087-.031-.133a.878.878,0,0,0-.236-.571c-.1-.083-.069-.219-.07-.327-.014-.993-.014-1.986-.025-2.979,0-.161.055-.223.219-.221.637.006,1.273.01,1.91,0,.274-.005.276.32.5.366-.049.289.244.392.377.492.219.164.392.447.728.447A7.526,7.526,0,0,0,44.26,39.3c.028-.005.071,0,.084-.014.242-.318.617-.474.883-.791.395-.472.224-.968.27-1.458a1.035,1.035,0,0,0-.019-.542,1.892,1.892,0,0,0-.838-.961c-.033-.014-.1-.014-.1-.031-.075-.357-.359-.252-.582-.258-.4-.011-.809,0-1.214,0a.333.333,0,0,0-.353.2c-.067.168-.259.129-.371.269a7.888,7.888,0,0,0-.594.788c-.016.026-.09.019-.138.02-.666,0-1.331,0-2,0-.152,0-.206-.046-.2-.2.011-.2,0-.4,0-.608q0-6.032-.006-12.063c0-.262.062-.337.33-.334,1.4.014,2.8.033,4.2-.011a.671.671,0,0,1,.631.367c.165.433.6.549.843.873.034.046.143.048.218.048.482,0,.964,0,1.446,0,.057,0,.144.009.166-.021.235-.332.738-.4.842-.856,0-.009,0-.024.006-.027.49-.248.234-.708.291-1.072a5.048,5.048,0,0,0-.008-.809.314.314,0,0,0-.17-.306c-.193-.109-.18-.377-.378-.5-.374-.237-.688-.585-1.2-.519a9.413,9.413,0,0,0-1.094.056c-.113.028-.2.053-.241.169-.019.051-.035.1-.1.127a1.151,1.151,0,0,0-.6.571.6.6,0,0,1-.505.36q-2.2-.016-4.4,0c-.223,0-.274-.065-.269-.276.021-.973-.034-1.948.049-2.92.031-.36.244-.684.257-1.054,0-.106.024-.211.026-.316a.7.7,0,0,1,.482-.629c.342-.131.682-.39,1.05-.232a3.864,3.864,0,0,0,1,.234,2.487,2.487,0,0,0,.431.034.667.667,0,0,1,.625.2.238.238,0,0,0,.151.078,1,1,0,0,1,.6.276,5.732,5.732,0,0,1,.733.636c.181.222.468.391.468.738a.273.273,0,0,0,.178.274c.138.052.134.192.123.3-.033.33.17.389.424.4.151.006.285-.007.4.15a.552.552,0,0,0,.483.138,1.169,1.169,0,0,1,.528.168c.312.131.543.4.875.482a.2.2,0,0,1,.119.068c.156.247.477.371.59.587s.384.289.45.575a2.281,2.281,0,0,0,.469.753.457.457,0,0,1,.129.3.373.373,0,0,0,.059.247c.311.327.217.75.292,1.131a1.992,1.992,0,0,0,.211.682.579.579,0,0,1-.012.617,3.366,3.366,0,0,0-.261,1.317c-.017.153.011.308-.148.407a.166.166,0,0,0-.059.1,2.79,2.79,0,0,1-.366,1.059c-.116.161-.086.414-.267.575a.4.4,0,0,0-.085.267c0,.175.006.338-.178.448-.086.051-.121.213-.048.254.212.117.244.372.443.5.175.115.274.341.443.47.325.247.3.623.4.953.051.171.253.261.213.483a1.155,1.155,0,0,1-.122.457A2.36,2.36,0,0,0,50.02,33.7a.442.442,0,0,1-.146.275c-.164.181-.312.381-.536.594" transform="translate(-14.543 -6.061)" fill="#fff"/>
      <path id="Tracé_96" data-name="Tracé 96" d="M45.213,35.145a.886.886,0,0,1-.482.51c-.144.005-.5-.358-.5-.507a.857.857,0,0,1,.485-.475.781.781,0,0,1,.5.471" transform="translate(-16.457 -12.902)" fill="#fefcfc"/>
      <path id="Tracé_97" data-name="Tracé 97" d="M30.9,49.5c-.066.216-.176.372-.411.352a.328.328,0,0,1-.313-.352.332.332,0,0,1,.371-.33c.217,0,.289.158.353.33" transform="translate(-11.227 -18.298)" fill="#fefaf9"/>
      <path id="Tracé_98" data-name="Tracé 98" d="M26.771,26.032c-.026.212-.112.37-.33.358a.338.338,0,0,1-.356-.323.392.392,0,0,1,.365-.392c.225.014.282.184.321.358" transform="translate(-9.706 -9.553)" fill="#fefafa"/>
      <path id="Tracé_99" data-name="Tracé 99" d="M49.905,26.419c-.168-.082-.347-.155-.321-.386.023-.2.126-.377.353-.352a.344.344,0,0,1,.329.37c0,.229-.16.305-.361.367" transform="translate(-18.449 -9.555)" fill="#fefbfa"/>
      <path id="Tracé_100" data-name="Tracé 100" d="M26.547,35.9c.171-.053.248.067.343.148-.2.068-.041.294-.169.395-.065.051-.106.127-.21.131a.331.331,0,0,1-.381-.263c-.051-.215.082-.335.261-.408a.405.405,0,0,1,.155,0" transform="translate(-9.719 -13.353)" fill="#fefcfc"/>
      <path id="Tracé_101" data-name="Tracé 101" d="M46.254,49.488c-.124.181-.159.391-.4.374a.326.326,0,0,1-.32-.386.308.308,0,0,1,.336-.329c.246,0,.264.207.387.342" transform="translate(-16.941 -18.287)" fill="#fefbfb"/>
      <path id="Tracé_102" data-name="Tracé 102" d="M45.1,35.318c.023.159-.063.2-.2.2s-.217-.026-.217-.19.059-.224.221-.216c.141.007.221.052.2.205" transform="translate(-16.624 -13.065)" fill="#c54a44"/>
    </g>
  </g>
</svg>
