<svg xmlns="http://www.w3.org/2000/svg" xmlns:xlink="http://www.w3.org/1999/xlink" width="59.851" height="28.226" viewBox="0 0 59.851 28.226">
  <defs>
    <clipPath id="clip-path">
      <rect id="Rectangle_2345" data-name="Rectangle 2345" width="59.851" height="28.226" fill="none"/>
    </clipPath>
  </defs>
  <g id="icon_air_quality" transform="translate(0 0)">
    <g id="Groupe_310" data-name="Groupe 310" transform="translate(0 0)" clip-path="url(#clip-path)">
      <path id="Tracé_79" data-name="Tracé 79" d="M39.786,28.219c-2.582,0-5.164-.007-7.746.005a2.109,2.109,0,0,1-1.475-.525,1.431,1.431,0,0,1,.013-1.909,2.283,2.283,0,0,1,1.57-.551c5.015,0,10.031.012,15.046,0a10.49,10.49,0,0,0,3.768-.765,9.441,9.441,0,0,0,3.516-2.26,6.923,6.923,0,0,0,1.487-2.189,6.646,6.646,0,0,0,.487-2.938,7.879,7.879,0,0,0-.251-.891,4.484,4.484,0,0,0-.575-1.478,8.355,8.355,0,0,0-1.971-2.329,11.233,11.233,0,0,0-1.16-.858,11.036,11.036,0,0,0-2.192-.965,8.678,8.678,0,0,0-3.442-.362,10.091,10.091,0,0,0-1.634.215c-.4.1-.829.055-1.243.134-.165.032-.229-.15-.291-.278-.254-.526-.486-1.064-.765-1.578A8.778,8.778,0,0,0,40.9,6.281a11.167,11.167,0,0,0-2.421-1.613,16.173,16.173,0,0,0-2.326-.946,15.2,15.2,0,0,0-2.2-.539,8.365,8.365,0,0,0-1.619-.176c-.593.027-1.188,0-1.782.008a14.255,14.255,0,0,0-2.769.413,12.976,12.976,0,0,0-2.442.8A13.744,13.744,0,0,0,22.983,5.55a12.478,12.478,0,0,0-1.99,1.693,9.575,9.575,0,0,0-1.587,2.224,14.631,14.631,0,0,0-.591,1.346c-.088.231-.142.474-.212.712a1.675,1.675,0,0,1-1.249,1.286,5.471,5.471,0,0,1-1.116.088q-7.111,0-14.223,0A2.335,2.335,0,0,1,.5,12.447a1.333,1.333,0,0,1-.257-1.8,1.558,1.558,0,0,1,1.351-.735q6.769.01,13.538,0c.471,0,.5.009.634-.435a13.235,13.235,0,0,1,.612-1.332A7.718,7.718,0,0,1,17.51,6.409,14.931,14.931,0,0,1,19.619,4.22a18.914,18.914,0,0,1,2.7-1.868A14.9,14.9,0,0,1,25.1,1.092,21.982,21.982,0,0,1,27.468.428C28.216.27,28.974.188,29.725.092A13.375,13.375,0,0,1,31.94.014C32.623.04,33.3.146,33.972.2a10.117,10.117,0,0,1,1.279.211c.427.093.854.187,1.275.3a21.33,21.33,0,0,1,2.509.876,16.076,16.076,0,0,1,2.955,1.624,13.26,13.26,0,0,1,2.072,1.739A11.043,11.043,0,0,1,45.777,7.15c.133.236.348.155.506.128a9.968,9.968,0,0,1,2.743-.007,13.267,13.267,0,0,1,3.145.74,11.868,11.868,0,0,1,3.167,1.706,12.7,12.7,0,0,1,2.554,2.54,10.51,10.51,0,0,1,1.253,2.162,7.507,7.507,0,0,1,.533,2.13c.028.267.149.524.162.807A3.945,3.945,0,0,1,59.7,18.82c-.112.341-.116.726-.2,1.088a8.582,8.582,0,0,1-.886,2.192,9.706,9.706,0,0,1-1.361,1.848A12.213,12.213,0,0,1,53.9,26.483a14.961,14.961,0,0,1-3.015,1.187,16.817,16.817,0,0,1-4.626.556c-2.159-.023-4.318-.006-6.478-.006" transform="translate(0 0)" fill="#249469"/>
      <path id="Tracé_80" data-name="Tracé 80" d="M35.609,44.714q-6.27,0-12.54,0a1.532,1.532,0,0,1-1.449-.822c-.49-1.036-.028-1.788,1.03-2.129a2.5,2.5,0,0,1,.774-.074q12.318,0,24.635.007a1.647,1.647,0,0,1,1.593.871,1.449,1.449,0,0,1-.815,2.01,2.227,2.227,0,0,1-.826.142q-6.2-.007-12.4,0" transform="translate(-11.089 -21.577)" fill="#249469"/>
      <path id="Tracé_81" data-name="Tracé 81" d="M18.894,31.187c2.307,0,4.613-.01,6.92,0a1.416,1.416,0,0,1,1.34,1.918,1.628,1.628,0,0,1-1.58,1.038q-6.7,0-13.395,0a1.647,1.647,0,0,1-1.474-.767,1.408,1.408,0,0,1,.687-2.052,1.485,1.485,0,0,1,.582-.143c2.307.009,4.613.006,6.92.005" transform="translate(-5.434 -16.14)" fill="#249469"/>
      <path id="Tracé_82" data-name="Tracé 82" d="M37.13,55.282c-1.29,0-2.584.05-3.871-.016a1.4,1.4,0,0,1-1.281-1.931,1.672,1.672,0,0,1,1.6-1.017c2.411,0,4.821-.02,7.231.009a1.514,1.514,0,0,1,1.539,2.031,1.4,1.4,0,0,1-1.315.915c-1.3.035-2.6.011-3.906.011" transform="translate(-16.494 -27.076)" fill="#249469"/>
    </g>
  </g>
</svg>
