<svg xmlns="http://www.w3.org/2000/svg" xmlns:xlink="http://www.w3.org/1999/xlink" width="48.004" height="64.276" viewBox="0 0 48.004 64.276">
  <defs>
    <clipPath id="clip-path">
      <rect id="Rectangle_2345" data-name="Rectangle 2345" width="29.944" height="14.122" fill="none"/>
    </clipPath>
  </defs>
  <g id="marker_air_quality" transform="translate(-1173.696 -512.676)">
    <path id="Union_1" data-name="Union 1" d="M1196.888,576.534l-17.215-24.022a24.009,24.009,0,0,1-2.793-3.9l-.046-.064a1.016,1.016,0,0,1-.134-.249,24,24,0,1,1,42,0,.986.986,0,0,1-.132.251l-.046.064a24.008,24.008,0,0,1-2.793,3.9l-17.216,24.02a1,1,0,0,1-1.395.23A.987.987,0,0,1,1196.888,576.534Z" fill="#249469"/>
    <ellipse id="Ellipse_1" data-name="Ellipse 1" cx="21.5" cy="21" rx="21.5" ry="21" transform="translate(1176.2 515.668)" fill="#fff"/>
    <g id="Groupe_312" data-name="Groupe 312" transform="translate(1182.726 529.608)">
      <g id="Groupe_310" data-name="Groupe 310" transform="translate(0 0)" clip-path="url(#clip-path)">
        <path id="Tracé_79" data-name="Tracé 79" d="M19.905,14.118c-1.292,0-2.584,0-3.875,0a1.055,1.055,0,0,1-.738-.263A.716.716,0,0,1,15.3,12.9a1.142,1.142,0,0,1,.786-.276c2.509,0,5.019.006,7.528,0a5.248,5.248,0,0,0,1.885-.383,4.723,4.723,0,0,0,1.759-1.131,3.463,3.463,0,0,0,.744-1.1,3.325,3.325,0,0,0,.244-1.47,3.942,3.942,0,0,0-.126-.446,2.243,2.243,0,0,0-.287-.739A4.18,4.18,0,0,0,26.845,6.2a5.62,5.62,0,0,0-.58-.429,5.521,5.521,0,0,0-1.1-.483A4.342,4.342,0,0,0,23.445,5.1a5.048,5.048,0,0,0-.817.107c-.2.048-.415.027-.622.067-.083.016-.115-.075-.146-.139-.127-.263-.243-.532-.383-.789a4.392,4.392,0,0,0-1.013-1.206,5.587,5.587,0,0,0-1.211-.807,8.092,8.092,0,0,0-1.164-.474,7.6,7.6,0,0,0-1.1-.27,4.185,4.185,0,0,0-.81-.088c-.3.014-.594,0-.892,0a7.132,7.132,0,0,0-1.385.207,6.492,6.492,0,0,0-1.222.4,6.876,6.876,0,0,0-1.181.663,6.243,6.243,0,0,0-1,.847,4.79,4.79,0,0,0-.794,1.113,7.32,7.32,0,0,0-.3.674c-.044.116-.071.237-.106.356a.838.838,0,0,1-.625.643,2.737,2.737,0,0,1-.558.044q-3.558,0-7.116,0a1.168,1.168,0,0,1-.76-.226.667.667,0,0,1-.128-.9A.78.78,0,0,1,.8,4.96q3.387.005,6.773,0c.236,0,.252,0,.317-.217a6.622,6.622,0,0,1,.306-.666,3.862,3.862,0,0,1,.568-.872A7.47,7.47,0,0,1,9.816,2.112a9.463,9.463,0,0,1,1.35-.934A7.456,7.456,0,0,1,12.557.546,11,11,0,0,1,13.742.214c.374-.079.753-.12,1.129-.168A6.692,6.692,0,0,1,15.98.007C16.322.02,16.658.073,17,.1a5.062,5.062,0,0,1,.64.106c.214.047.427.094.638.152A10.671,10.671,0,0,1,19.53.8a8.043,8.043,0,0,1,1.478.812,6.634,6.634,0,0,1,1.037.87,5.525,5.525,0,0,1,.858,1.1c.067.118.174.078.253.064a4.987,4.987,0,0,1,1.372,0,6.638,6.638,0,0,1,1.574.37,5.938,5.938,0,0,1,1.585.854,6.352,6.352,0,0,1,1.278,1.271,5.258,5.258,0,0,1,.627,1.081,3.756,3.756,0,0,1,.267,1.066c.014.134.074.262.081.4a1.974,1.974,0,0,1-.072.732c-.056.171-.058.363-.1.544a4.294,4.294,0,0,1-.443,1.1,4.856,4.856,0,0,1-.681.924,6.11,6.11,0,0,1-1.672,1.269,7.485,7.485,0,0,1-1.509.594,8.413,8.413,0,0,1-2.314.278c-1.08-.012-2.161,0-3.241,0" transform="translate(0 0)" fill="#249469"/>
        <path id="Tracé_80" data-name="Tracé 80" d="M28.521,43.2q-3.137,0-6.274,0a.766.766,0,0,1-.725-.411c-.245-.518-.014-.894.516-1.065a1.251,1.251,0,0,1,.387-.037q6.163,0,12.325,0a.824.824,0,0,1,.8.436.725.725,0,0,1-.408,1.006,1.114,1.114,0,0,1-.413.071q-3.1,0-6.205,0" transform="translate(-16.253 -31.626)" fill="#249469"/>
        <path id="Tracé_81" data-name="Tracé 81" d="M14.7,31.185c1.154,0,2.308-.005,3.462,0a.708.708,0,0,1,.67.959.814.814,0,0,1-.79.519q-3.351,0-6.7,0a.824.824,0,0,1-.737-.384.7.7,0,0,1,.344-1.026.743.743,0,0,1,.291-.071c1.154,0,2.308,0,3.462,0" transform="translate(-7.965 -23.656)" fill="#249469"/>
        <path id="Tracé_82" data-name="Tracé 82" d="M34.5,53.8c-.646,0-1.293.025-1.937-.008a.7.7,0,0,1-.641-.966.837.837,0,0,1,.8-.509c1.206,0,2.412-.01,3.618,0a.758.758,0,0,1,.77,1.016.7.7,0,0,1-.658.458c-.651.018-1.3.006-1.954.005" transform="translate(-24.175 -39.686)" fill="#249469"/>
      </g>
    </g>
  </g>
</svg>
