<svg xmlns="http://www.w3.org/2000/svg" width="48.004" height="64.276" viewBox="0 0 48.004 64.276">
  <g id="marker_yeswecode" transform="translate(-1173.696 -512.676)">
    <path id="Union_1" data-name="Union 1" d="M1196.888,576.534l-17.215-24.022a24.009,24.009,0,0,1-2.793-3.9l-.046-.064a1.016,1.016,0,0,1-.134-.249,24,24,0,1,1,42,0,.986.986,0,0,1-.132.251l-.046.064a24.008,24.008,0,0,1-2.793,3.9l-17.216,24.02a1,1,0,0,1-1.395.23A.987.987,0,0,1,1196.888,576.534Z" fill="#61bdbb"/>
    <ellipse id="Ellipse_1" data-name="Ellipse 1" cx="21.5" cy="21" rx="21.5" ry="21" transform="translate(1176.2 515.668)" fill="#fff"/>
    <g id="Calque_1-2" transform="translate(1184.031 525.458)">
      <path id="Tracé_898" data-name="Tracé 898" d="M46.658.923c.721-.016,1.032.237,1.154.82.131.628.147.574.743.756.651.2,1.128.221,1.509-.474a.764.764,0,0,1,1.1-.17,7.413,7.413,0,0,1,.942.66.865.865,0,0,1,.128,1.295A.783.783,0,0,0,52.23,4.9c.359.558.67.9,1.407.727a.8.8,0,0,1,.92.689,9.654,9.654,0,0,1,.205,1.093A.845.845,0,0,1,54,8.386c-.6.067-.868.336-.852.92a.19.19,0,0,1-.016.074.814.814,0,0,0,.4,1.186.85.85,0,0,1,.228,1.3c-.163.26-.333.516-.519.759a.913.913,0,0,1-1.349.234,3.442,3.442,0,0,1-.375-.266.278.278,0,0,0-.407.016,4.039,4.039,0,0,1-.9.58.309.309,0,0,0-.2.426,2.355,2.355,0,0,1,.064.34.946.946,0,0,1-.84,1.221c-.25.051-.5.09-.756.135a.95.95,0,0,1-1.2-.817.9.9,0,0,0-.766-.756.322.322,0,0,1-.077-.013.931.931,0,0,0-1.352.429.8.8,0,0,1-1.189.2,9.131,9.131,0,0,1-.852-.586.9.9,0,0,1-.244-1.256,1.546,1.546,0,0,1,.17-.256.471.471,0,0,0,0-.737.493.493,0,0,1-.109-.157c-.269-.609-.612-1-1.391-.731-.372.128-.782-.221-.891-.628a7.322,7.322,0,0,1-.224-1.2.83.83,0,0,1,.782-.961c.558-.058.727-.32.84-.849.128-.606.17-1.032-.471-1.375a.877.877,0,0,1-.183-1.237c.16-.26.343-.51.526-.756a.936.936,0,0,1,1.378-.247,2.48,2.48,0,0,1,.282.2.361.361,0,0,0,.538,0,4.555,4.555,0,0,1,.769-.506.47.47,0,0,0,.263-.6,2.625,2.625,0,0,1-.051-.57.831.831,0,0,1,.641-.811c.372-.09.753-.141,1-.183Zm.881,3.692a3.507,3.507,0,1,0,.042,7.015,3.418,3.418,0,0,0,3.487-3.5A3.511,3.511,0,0,0,47.539,4.614Z" transform="translate(-27.421 -0.615)" fill="#61bdbb"/>
      <path id="Tracé_899" data-name="Tracé 899" d="M-.007,6.778c-.013-.647.176-.923.715-.984a.58.58,0,0,0,.6-.638.392.392,0,0,1,.026-.151c.183-.436.138-.792-.346-1a.341.341,0,0,1-.112-.1c-.356-.394-.266-.814.34-1.6a.788.788,0,0,1,1.077-.282,1.22,1.22,0,0,1,.26.163.4.4,0,0,0,.635-.022A1.044,1.044,0,0,1,3.31,2.09.848.848,0,0,0,3.884.93c-.106-.34.2-.663.564-.756A7.344,7.344,0,0,1,5.239.02a.782.782,0,0,1,.993.7c.064.391.189.593.644.606a.487.487,0,0,1,.151.032c.442.157.737.135,1-.324A.726.726,0,0,1,9.107.834c.1.058.186.138.285.2.849.487.958.993.372,1.7-.058.07-.115.151-.058.244.208.32.407.651.644.952.112.141.311.064.474.038a.84.84,0,0,1,1.106.792c.029.176.067.352.1.529a.768.768,0,0,1-.67,1.006c-.433.058-.644.234-.641.667a1.306,1.306,0,0,1-.035.189c-.109.458-.058.683.33.933a.74.74,0,0,1,.2,1.134c-.125.2-.253.385-.388.57A.788.788,0,0,1,9.648,10c-.343-.26-.618-.3-.926.016a.626.626,0,0,1-.228.144.555.555,0,0,0-.375.75.806.806,0,0,1-.75,1.064,5.549,5.549,0,0,1-.721.093c-.5.019-.8-.186-.859-.676a.61.61,0,0,0-.686-.638.394.394,0,0,1-.151-.029.639.639,0,0,0-.945.327.587.587,0,0,1-.279.256c-.423.212-1.09-.048-1.618-.628a.808.808,0,0,1,.006-1.086c.211-.282.25-.513-.006-.769a.451.451,0,0,1-.106-.16.751.751,0,0,0-1-.526c-.474.1-.766-.16-.881-.644-.064-.272-.1-.551-.131-.708ZM8.921,6.1A2.92,2.92,0,1,0,5.979,8.98,2.876,2.876,0,0,0,8.924,6.1Z" fill="#61bdbb"/>
      <path id="Tracé_900" data-name="Tracé 900" d="M17.5,44.038c0-.5.151-.737.558-.792a.539.539,0,0,0,.542-.6.748.748,0,0,1,.061-.26.408.408,0,0,0-.179-.522c-.529-.4-.564-.689-.186-1.227.058-.083.119-.167.179-.25.32-.439.635-.529,1.077-.2.468.349.686-.115,1.009-.237.263-.1.24-.308.2-.542-.09-.532.1-.782.631-.9.163-.035.327-.061.49-.087a.651.651,0,0,1,.836.57.539.539,0,0,0,.567.535,1.152,1.152,0,0,1,.3.067.39.39,0,0,0,.516-.176c.369-.522.654-.561,1.192-.205.119.077.237.154.349.237a.637.637,0,0,1,.189.965.571.571,0,0,0,.032.84,1.137,1.137,0,0,1,.167.256.372.372,0,0,0,.471.212c.628-.1.862.074.993.7.022.112.045.224.064.34.087.532-.09.817-.615.91-.3.054-.4.2-.474.49-.109.445-.151.824.33,1.07a.372.372,0,0,1,.138.179c.253.6-.231.923-.516,1.3-.218.288-.538.228-.84.08-.154-.077-.292-.288-.474-.2a4.644,4.644,0,0,0-.8.522c-.109.083-.032.244-.013.365.08.561-.083.814-.631.936-.151.032-.3.064-.452.083a.686.686,0,0,1-.875-.583c-.054-.192-.006-.477-.333-.474-.385,0-.833-.433-1.134.183a.6.6,0,0,1-.7.276,1.036,1.036,0,0,1-.8-1.618.308.308,0,0,0-.01-.385,1.9,1.9,0,0,1-.253-.385.5.5,0,0,0-.634-.314c-.558.1-.792-.112-.888-.679-.032-.189-.058-.378-.074-.477Zm7.467-.554A2.451,2.451,0,0,0,22.525,41a2.45,2.45,0,1,0,.032,4.9,2.406,2.406,0,0,0,2.41-2.413Z" transform="translate(-11.899 -26.095)" fill="#61bdbb"/>
    </g>
  </g>
</svg>
