<svg xmlns="http://www.w3.org/2000/svg" xmlns:xlink="http://www.w3.org/1999/xlink" width="48.426" height="66.117" viewBox="0 0 48.426 66.117">
  <defs>
    <clipPath id="clip-path">
      <rect id="Rectangle_2351" data-name="Rectangle 2351" width="25" height="27.904" fill="none"/>
    </clipPath>
  </defs>
  <g id="marker_starter_kit" transform="translate(-682.886 -511.791)">
    <circle id="Ellipse_799" data-name="Ellipse 799" cx="22.421" cy="22.421" r="22.421" transform="translate(684.683 513.443)" fill="#fff"/>
    <path id="Tracé_49" data-name="Tracé 49" d="M713.524,512.7a25.667,25.667,0,0,0-6.478-.906,25.1,25.1,0,0,0-6.4.906c-13.654,3.739-21.493,19.4-15.971,32.109,4.956,11.4,22.306,33.1,22.306,33.1a.151.151,0,0,0,.069-.109c0,.065.124.109.124.109s17.406-21.7,22.362-33.1C735.054,532.1,727.178,516.436,713.524,512.7Zm-6.318,44.558c-.037,0-.16,0-.16,0s-.049,0-.086,0c-11.8-.039-21.842-10.123-21.746-21.855.1-11.793,10.393-21.682,21.832-21.6,11.439-.083,21.773,9.806,21.869,21.6A22.088,22.088,0,0,1,707.206,557.255Z" fill="#565099"/>
    <g id="Groupe_328" data-name="Groupe 328" transform="translate(694.604 521.911)">
      <g id="Groupe_327" data-name="Groupe 327" transform="translate(0 0.001)" clip-path="url(#clip-path)">
        <path id="Tracé_509" data-name="Tracé 509" d="M18.2,0a.336.336,0,0,1,.165.317c0,.179.012.358,0,.535-.014.156.049.187.205.187q2.729-.007,5.46,0c.157,0,.314,0,.472-.006A.883.883,0,0,1,25,1.5c0,.588-.006,1.176-.007,1.763,0,1.777,0,3.554,0,5.331,0,.16-.044.2-.214.2-1.687-.006-3.374,0-5.061,0-.086,0-.175-.02-.248.055s-.1.116-.067.2a.183.183,0,0,0,.2.128c.384-.006.768,0,1.152,0h3.95c.286,0,.287,0,.287.258V26.457c0,.083,0,.166.007.249a.661.661,0,0,1-.554.44c-.082,0-.164,0-.247,0-2.091,0-4.182,0-6.273,0a.7.7,0,0,0-.577.221,5.541,5.541,0,0,1-.449.422c-.063.056-.121.126-.225.115-.048,0-.1-.006-.144-.006H5.543c-.048,0-.1,0-.144.006-.1.012-.161-.061-.223-.117-.158-.142-.317-.284-.465-.434a.563.563,0,0,0-.436-.169c-1.124,0-2.249-.011-3.373.009a1.018,1.018,0,0,1-.892-.562c0-.064,0-.127,0-.192q0-8.5-.005-16.994c0-.2.052-.239.257-.238,1.831.008,3.663,0,5.494,0,.215,0,.279-.057.264-.222a.159.159,0,0,0-.164-.161c-.055,0-.11,0-.165,0-1.825,0-3.649,0-5.474,0C.041,8.83,0,8.787,0,8.629q.009-3.4,0-6.79a.288.288,0,0,1,.126-.251,5.173,5.173,0,0,0,.466-.433.4.4,0,0,1,.323-.121q7.1,0,14.2.006c.192,0,.272-.032.249-.225-.02-.164,0-.333-.007-.5A.324.324,0,0,1,15.525,0Z" transform="translate(0 0)" fill="#565099"/>
        <path id="Tracé_510" data-name="Tracé 510" d="M3.663,35.636a.494.494,0,0,1-.008.816.448.448,0,0,1,.213.455c0,.167-.209.205-.2.33s.209.152.195.313.022.308-.147.409c-.075.045-.064.091,0,.153a.417.417,0,0,1,0,.658c-.038.043-.063.068-.017.127.25.325.242.489-.037.78.223.107.2.3.213.494.009.159-.2.2-.182.31s.195.146.18.3.021.308-.151.407c-.083.048-.051.1,0,.153a.412.412,0,0,1,0,.643c-.072.072-.055.107.008.17a.416.416,0,0,1,0,.631c-.048.049-.092.078-.024.155.244.274.229.452-.04.712-.014.014-.026.029-.044.049.133.123.287.228.25.447a.354.354,0,0,1-.133.28c-.1.067-.073.123,0,.2a.463.463,0,0,1-.071.709.7.7,0,0,1-.651-.11.558.558,0,0,1-.753.018.478.478,0,0,1,0-.588c.1-.089.14-.148.011-.253a.407.407,0,0,1,.01-.575c.065-.061.127-.1.027-.2a.453.453,0,0,1,.008-.682c.018-.018.034-.037.062-.067-.209-.1-.217-.272-.213-.459a.3.3,0,0,1,.132-.261c.081-.058.088-.106.008-.182a.413.413,0,0,1,0-.63c.049-.049.09-.08.023-.155-.241-.268-.227-.446.049-.728-.219-.108-.2-.3-.213-.492-.008-.159.193-.2.184-.311s-.195-.144-.182-.3c.015-.169-.028-.346.163-.461.078-.047.029-.091-.015-.138a.421.421,0,0,1-.006-.646c.04-.042.086-.068.029-.141-.25-.315-.24-.481.027-.769a.454.454,0,0,1,.015-.773c-.221-.11-.207-.3-.216-.493-.007-.159.192-.2.185-.311s-.187-.144-.184-.3c.005-.195-.009-.385.212-.493a.5.5,0,0,1,0-.825c-.216-.109-.2-.3-.213-.491-.009-.169.2-.207.2-.331s-.207-.152-.2-.313-.014-.318.16-.424c.092-.056.026-.1-.022-.152a.455.455,0,0,1,0-.669c.071-.069.039-.1-.012-.147a.453.453,0,0,1,.007-.654c.074-.071.079-.112,0-.184a.428.428,0,0,1-.054-.576A.5.5,0,0,1,2.959,30c.044.032.063.041.114.005a.516.516,0,0,1,.749.107.488.488,0,0,1-.044.495c-.113.093-.142.159-.009.267a.4.4,0,0,1-.028.572c-.113.094-.117.149,0,.245a.394.394,0,0,1,0,.6c-.1.086-.081.133.006.212a.4.4,0,0,1,0,.587c-.105.091-.087.143.006.225a.407.407,0,0,1,0,.575c-.089.08-.12.131-.011.225a.412.412,0,0,1,.005.59c-.051.051-.136.083-.042.182.236.247.218.488-.046.75" transform="translate(-1.345 -18.619)" fill="#fff"/>
        <path id="Tracé_511" data-name="Tracé 511" d="M59.152,39.858c-.22-.108-.2-.3-.213-.492-.01-.169.207-.206.2-.33s-.206-.152-.2-.313-.011-.319.162-.423c.075-.046.036-.089-.01-.139a.462.462,0,0,1-.011-.683c.037-.039.07-.058.017-.119-.235-.275-.222-.434.051-.727a.405.405,0,0,1-.21-.437.313.313,0,0,1,.13-.281c.08-.055.094-.1.012-.182a.406.406,0,0,1,0-.628c.079-.075.067-.115-.005-.184a.405.405,0,0,1,0-.615c.086-.08.075-.124,0-.2a.406.406,0,0,1,0-.6c.075-.07.1-.113.011-.2a.4.4,0,0,1,0-.614c.085-.078.077-.123,0-.2a.447.447,0,0,1,0-.639c.094-.084.086-.132,0-.212a.411.411,0,0,1,.008-.6c.051-.051.109-.084.029-.169a.417.417,0,0,1,.021-.685.52.52,0,0,1,.669.057.51.51,0,0,1,.756.023.421.421,0,0,1,0,.549c-.11.092-.13.152-.006.253a.4.4,0,0,1,0,.559c-.128.1-.1.163.009.253a.462.462,0,0,1,0,.585c-.109.092-.132.152-.006.253a.405.405,0,0,1,0,.56c-.1.087-.121.142-.008.238a.4.4,0,0,1,0,.574c-.091.081-.116.133-.008.225a.4.4,0,0,1,0,.586c-.107.092-.084.144.008.225a.406.406,0,0,1,0,.575c-.09.08-.118.132-.009.225a.412.412,0,0,1,0,.589c-.052.051-.135.084-.041.182.235.244.218.449-.048.713a.449.449,0,0,1,.206.433c-.014.119-.02.225-.133.3s-.068.125.008.2a.413.413,0,0,1,0,.6c-.048.048-.119.078-.038.168.242.267.226.485-.048.765a.449.449,0,0,1,.213.455c0,.168-.208.206-.2.33s.21.152.195.313.023.308-.147.409c-.094.056-.05.107.01.166a.409.409,0,0,1-.006.629c-.083.08-.054.12.012.184a.409.409,0,0,1,0,.616c-.073.069-.082.109,0,.184a.4.4,0,0,1,0,.628c-.1.087-.09.134,0,.216a.4.4,0,0,1,.011.614c-.1.089-.082.144.013.21a.369.369,0,0,1,.09.473.394.394,0,0,1-.423.266c-.126-.014-.261.02-.348-.107-.049-.071-.085-.014-.124.018a.574.574,0,0,1-.662-.023.46.46,0,0,1-.008-.615c.1-.09.113-.145,0-.238a.45.45,0,0,1,0-.612c.1-.084.107-.136,0-.225a.4.4,0,0,1,0-.586c.111-.1.075-.146-.012-.225a.4.4,0,0,1,0-.574c.117-.1.087-.153-.011-.238a.408.408,0,0,1,0-.561c.1-.088.117-.144.005-.238a.416.416,0,0,1,0-.577c.048-.048.147-.077.053-.181-.241-.265-.225-.445.05-.728" transform="translate(-36.711 -18.745)" fill="#fff"/>
        <path id="Tracé_512" data-name="Tracé 512" d="M43.755,1.9c0,.485-.006.971,0,1.456,0,.162-.083.221-.23.222-.781,0-1.562.005-2.343,0-.2,0-.229-.148-.23-.3q0-1.188,0-2.375c0-.159,0-.319,0-.479S41.033.2,41.19.2h2.363c.166,0,.2.088.2.223,0,.492,0,.983,0,1.475" transform="translate(-25.513 -0.126)" fill="#fff"/>
        <path id="Tracé_513" data-name="Tracé 513" d="M24.627,12.863q0,.853,0,1.707c0,.217-.056.268-.288.269-.377,0-.754,0-1.131,0-.189,0-.27-.076-.27-.251q0-1.726,0-3.451c0-.175.081-.254.269-.252q.576.006,1.152,0c.188,0,.27.077.269.251,0,.575,0,1.15,0,1.726" transform="translate(-14.289 -6.782)" fill="#fff"/>
        <path id="Tracé_514" data-name="Tracé 514" d="M18.14,65.848c-.562,0-1.124,0-1.686,0-.146,0-.184-.038-.181-.171.009-.409.006-.818,0-1.227,0-.105.027-.143.147-.143,1.035,0,2.07,0,3.105,0,.15,0,.274.11.433.081.068-.012.062.053.062.1,0,.415,0,.831,0,1.246,0,.121-.072.112-.158.112H18.14" transform="translate(-10.137 -40.063)" fill="#fff"/>
        <path id="Tracé_515" data-name="Tracé 515" d="M39.878,26.261c0,.319,0,.639,0,.958,0,.212-.088.306-.316.308q-.977.008-1.954,0c-.26,0-.365-.112-.365-.354q0-.911,0-1.821c0-.241.082-.317.341-.317h1.994c.228,0,.3.069.3.287q0,.469,0,.939" transform="translate(-23.2 -15.595)" fill="#fff"/>
        <path id="Tracé_516" data-name="Tracé 516" d="M22.613,26.182c0-.319,0-.639,0-.958,0-.208.086-.291.305-.291q.987,0,1.973,0c.232,0,.354.112.355.325q0,.92,0,1.839c0,.248-.092.33-.355.33H22.96c-.276,0-.347-.067-.347-.324v-.92" transform="translate(-14.086 -15.531)" fill="#fff"/>
        <path id="Tracé_517" data-name="Tracé 517" d="M25.994,34.512c0-.319.005-.638,0-.957,0-.125.057-.175.176-.175q.441,0,.883,0c.117,0,.182.042.181.171q-.008.956,0,1.914c0,.129-.038.185-.186.181-.287-.008-.575-.008-.862,0-.142,0-.195-.041-.192-.176.008-.319,0-.638,0-.957" transform="translate(-16.191 -20.793)" fill="#fff"/>
        <path id="Tracé_518" data-name="Tracé 518" d="M19.324,34.223c-.343,0-.685,0-1.028,0-.117,0-.172-.017-.167-.144.011-.281.008-.562,0-.843,0-.124.045-.169.179-.168q1.018.006,2.036,0c.136,0,.179.049.176.17-.006.281-.007.563,0,.843,0,.107-.03.144-.149.141-.349-.007-.7,0-1.049,0" transform="translate(-11.293 -20.601)" fill="#fff"/>
        <path id="Tracé_519" data-name="Tracé 519" d="M22.792,23.788H19.726c-.137,0-.274,0-.274-.173s.125-.213.288-.213q3.066,0,6.132,0c.214,0,.325.1.279.248-.038.122-.13.138-.252.137-1.036,0-2.072,0-3.107,0" transform="translate(-12.118 -14.579)" fill="#fff"/>
        <path id="Tracé_520" data-name="Tracé 520" d="M19.6,36.732c.274,0,.548.008.821,0,.167-.007.215.063.213.2,0,.255,0,.511,0,.766,0,.126-.062.188-.2.187-.568,0-1.136,0-1.705,0-.114,0-.158-.043-.157-.149q.006-.43,0-.862c0-.109.052-.145.163-.143.287,0,.575,0,.863,0" transform="translate(-11.569 -22.88)" fill="#fff"/>
        <path id="Tracé_521" data-name="Tracé 521" d="M8.835,14.184c-.328-.253-.36-.553,0-.853a.464.464,0,0,1-.25-.464.31.31,0,0,1,.118-.247c.1-.067.105-.123.009-.21a.4.4,0,0,1,0-.6c.1-.087.079-.134-.008-.212a.4.4,0,0,1,0-.587c.1-.09.1-.149-.008-.223a.368.368,0,0,1-.084-.474.447.447,0,0,1,.426-.268.47.47,0,0,1,.474.261.379.379,0,0,1-.105.5c-.088.058-.08.109,0,.181a.407.407,0,0,1-.02.641c-.087.078-.076.116,0,.189a.37.37,0,0,1,0,.616c-.085.077-.08.114,0,.189a.369.369,0,0,1,0,.616c-.083.075-.084.113,0,.189a.4.4,0,0,1,0,.653c-.127.108-.049.159.031.213.182.124.136.3.1.454s-.3.262-.557.255a.393.393,0,0,1-.357-.269.344.344,0,0,1,.111-.448.772.772,0,0,0,.112-.108" transform="translate(-5.338 -6.26)" fill="#fff"/>
        <path id="Tracé_522" data-name="Tracé 522" d="M42.232,63.393c.419,0,.837,0,1.256,0,.062,0,.179-.041.166.068-.009.081-.034.2-.173.2-.048,0-.1,0-.144,0-.713,0-1.427,0-2.141,0-.227,0-.454.029-.558.266a.38.38,0,0,0,.081.473,2.827,2.827,0,0,0,.393.336c.055.035.119.08.1.156s-.1.068-.171.068c-.35,0-.7,0-1.05,0-.147,0-.159-.049-.107-.161.161-.347.324-.694.47-1.046a.589.589,0,0,1,.6-.366c.425,0,.851,0,1.276,0" transform="translate(-24.827 -39.487)" fill="#fff"/>
        <path id="Tracé_523" data-name="Tracé 523" d="M55.219,53.15c0-1.3,0-2.608,0-3.912,0-.161.045-.21.215-.2.191.014.384.006.576,0,.087,0,.129.024.119.109a.81.81,0,0,0,0,.1q0,3.9,0,7.8c0,.172-.046.225-.226.206-.222-.025-.521.089-.648-.045-.11-.117-.035-.389-.035-.592q0-1.735,0-3.471" transform="translate(-34.384 -30.549)" fill="#fff"/>
        <path id="Tracé_524" data-name="Tracé 524" d="M39.971,70.319a.59.59,0,0,1,.646-.6.626.626,0,0,1,.631.593.635.635,0,0,1-.653.594.6.6,0,0,1-.623-.586" transform="translate(-24.899 -43.43)" fill="#fff"/>
        <path id="Tracé_525" data-name="Tracé 525" d="M10.365,25.539a.574.574,0,0,1,.645.6.63.63,0,0,1-.634.591.651.651,0,0,1-.64-.61.589.589,0,0,1,.629-.578" transform="translate(-6.065 -15.908)" fill="#fff"/>
        <path id="Tracé_526" data-name="Tracé 526" d="M41.718,34.23a.324.324,0,0,1-.324-.119c-.079-.107-.143-.07-.224.008a.48.48,0,0,1-.629,0c-.1-.1-.161-.086-.239.009a.44.44,0,0,1-.508.077.416.416,0,0,1-.286-.377.433.433,0,0,1,.278-.462.454.454,0,0,1,.554.11c.063.084.115.049.179-.008a.483.483,0,0,1,.674,0c.082.075.136.069.195-.008a.449.449,0,0,1,.521-.1.409.409,0,0,1,.291.333.488.488,0,0,1-.264.512c-.053.035-.144.018-.218.026" transform="translate(-24.611 -20.755)" fill="#fff"/>
        <path id="Tracé_527" data-name="Tracé 527" d="M56.157,33.682c0,1.01,0,2.019,0,3.029,0,.164-.049.209-.217.2-.191-.014-.383-.006-.575,0-.089,0-.128-.026-.118-.11a.9.9,0,0,0,0-.1c0-2.026,0-4.052,0-6.078,0-.175.051-.221.228-.205a2.951,2.951,0,0,0,.493,0c.154-.012.195.034.193.179-.007,1.029,0,2.058,0,3.087" transform="translate(-34.415 -18.946)" fill="#fff"/>
        <path id="Tracé_528" data-name="Tracé 528" d="M8.055,42.315c0-1.023,0-2.045,0-3.068,0-.144.04-.191.194-.178a2.994,2.994,0,0,0,.472,0c.158-.012.207.031.206.186-.008,1.023,0,2.045,0,3.068s0,2.032,0,3.048c0,.152-.043.2-.2.187-.215-.021-.505.085-.629-.043-.107-.112-.035-.376-.035-.573q0-1.313,0-2.627" transform="translate(-5.004 -24.337)" fill="#fff"/>
        <path id="Tracé_529" data-name="Tracé 529" d="M44.322,65.1l-.532,1.2a.124.124,0,0,1-.132.068c-.149,0-.3,0-.48,0,.184-.13.31-.26.288-.469a.619.619,0,0,0-.307-.424c-.117-.089-.327-.189-.286-.314s.265-.054.407-.058c.34-.011.68,0,1.04,0" transform="translate(-26.705 -40.541)" fill="#fff"/>
        <path id="Tracé_530" data-name="Tracé 530" d="M8.951,60.367c0,.754-.008,1.508.006,2.262,0,.193-.059.242-.251.223a2.619,2.619,0,0,0-.452,0c-.138.01-.171-.037-.17-.161,0-.933,0-1.866,0-2.8,0-.607.006-1.214,0-1.821,0-.151.051-.185.2-.175a3.473,3.473,0,0,0,.493,0c.147-.011.182.038.181.17-.007.767,0,1.533,0,2.3" transform="translate(-5.035 -36.066)" fill="#fff"/>
        <path id="Tracé_531" data-name="Tracé 531" d="M42.219,23.788c-.328,0-.656,0-.985,0-.146,0-.264-.037-.267-.19s.112-.2.26-.2q.985,0,1.97,0c.145,0,.236.036.238.19s-.081.2-.23.2c-.328,0-.656,0-.985,0" transform="translate(-25.52 -14.579)" fill="#fff"/>
        <path id="Tracé_532" data-name="Tracé 532" d="M62.511,4.9a.412.412,0,0,1,.209.456.362.362,0,0,1-.4.358.5.5,0,0,1-.44-.136.381.381,0,0,1,.009-.567c.116-.1.122-.162,0-.242a.333.333,0,0,1-.1-.449.383.383,0,0,1,.409-.256c.123.019.251-.038.366.067.23.213.22.48-.056.769" transform="translate(-38.465 -2.528)" fill="#fff"/>
        <path id="Tracé_533" data-name="Tracé 533" d="M31.6,3.368a.354.354,0,0,1-.276.419.437.437,0,0,1-.522-.1c-.07-.093-.132-.075-.21,0a.6.6,0,0,1-.559.085.5.5,0,0,1-.237-.543.513.513,0,0,1,.794-.2c.077.071.127.095.212.008a.589.589,0,0,1,.54-.105c.141.109.33.21.258.429" transform="translate(-18.553 -1.812)" fill="#fff"/>
        <path id="Tracé_534" data-name="Tracé 534" d="M12.482,19.439a.4.4,0,0,1,.209.417.565.565,0,0,1-.294.437.6.6,0,0,1-.6-.233.547.547,0,0,1,.073-.48c.112-.088.132-.149.008-.253a.412.412,0,0,1,.055-.616.446.446,0,0,1,.594,0c.239.22.227.449-.048.728" transform="translate(-7.329 -11.586)" fill="#fff"/>
        <path id="Tracé_535" data-name="Tracé 535" d="M2.488,4.806a.4.4,0,0,1-.209-.417.558.558,0,0,1,.294-.436.6.6,0,0,1,.6.233.547.547,0,0,1-.074.48c-.113.089-.13.15-.007.252a.412.412,0,0,1-.057.616.446.446,0,0,1-.594,0c-.239-.22-.227-.447.049-.728" transform="translate(-1.414 -2.454)" fill="#fff"/>
        <path id="Tracé_536" data-name="Tracé 536" d="M47.428,65.124c-.153.339-.285.649-.433.952a.583.583,0,0,1-.688.291l.505-1.153a.14.14,0,0,1,.155-.092c.143.007.287,0,.461,0" transform="translate(-28.847 -40.568)" fill="#fff"/>
        <path id="Tracé_537" data-name="Tracé 537" d="M53.834,16.265c0-.453,0-.906,0-1.359,0-.123.032-.162.169-.163s.176.049.165.167a1.982,1.982,0,0,0,0,.268c.005.132.02.264-.2.225-.094-.017-.088.055-.088.113,0,.536,0,1.072,0,1.608,0,.09.03.133.128.118.145-.023.176.046.163.163a1.029,1.029,0,0,0,0,.21c.011.113-.013.169-.161.17s-.174-.057-.172-.18c.007-.447,0-.893,0-1.34" transform="translate(-33.534 -9.184)" fill="#fff"/>
        <path id="Tracé_538" data-name="Tracé 538" d="M23.158,51.942c-.043-.081-.118-.061-.183-.061q-.39,0-.78,0c-.071,0-.133,0-.133-.094s.055-.1.13-.1c.246,0,.494.013.738,0,.206-.014.3.035.228.258" transform="translate(-13.743 -32.196)" fill="#fff"/>
        <path id="Tracé_539" data-name="Tracé 539" d="M23.162,55c-.049-.083-.124-.064-.192-.064h-.759c-.074,0-.151.015-.149-.1s.086-.092.155-.092c.239,0,.479,0,.718,0s.25,0,.227.256" transform="translate(-13.743 -34.105)" fill="#fff"/>
        <path id="Tracé_540" data-name="Tracé 540" d="M23.163,56.432c-.049-.083-.124-.064-.192-.064q-.39,0-.78,0c-.076,0-.13,0-.129-.1s.064-.094.135-.094h.739c.25,0,.25,0,.227.257" transform="translate(-13.743 -34.994)" fill="#fff"/>
        <path id="Tracé_541" data-name="Tracé 541" d="M23.163,57.745c-.043-.079-.116-.063-.182-.063-.239,0-.479,0-.718,0-.071,0-.191.06-.2-.088s.113-.1.186-.1c.233-.005.466.011.7-.006.21-.016.267.06.213.259" transform="translate(-13.746 -35.81)" fill="#fff"/>
        <path id="Tracé_542" data-name="Tracé 542" d="M59.731,15.079a1.032,1.032,0,0,0,0,.153c.02.13-.029.172-.176.174s-.16-.069-.155-.175a2.326,2.326,0,0,0,0-.324c-.011-.121.029-.164.167-.164s.181.044.166.165a1.37,1.37,0,0,0,0,.172" transform="translate(-37.002 -9.184)" fill="#fff"/>
        <path id="Tracé_543" data-name="Tracé 543" d="M22.688,53.415c-.13,0-.26,0-.39,0-.078,0-.129-.008-.127-.1s.046-.092.116-.092q.421,0,.842,0c.07,0,.114.009.117.092s-.048.1-.126.1c-.144,0-.288,0-.431,0" transform="translate(-13.811 -33.155)" fill="#fff"/>
        <path id="Tracé_544" data-name="Tracé 544" d="M29,42.13c.065-.112-.035-.289.08-.285.149,0,.052.174.062.267.009.078.065.2-.039.239s-.139-.092-.2-.156c-.034-.037-.071-.073-.129-.133,0,.086,0,.152,0,.217s-.017.083-.081.083-.084-.028-.083-.081c0-.115,0-.23,0-.345,0-.039-.023-.1.048-.108a.137.137,0,0,1,.146.046L29,42.13" transform="translate(-17.825 -26.055)" fill="#fff"/>
        <path id="Tracé_545" data-name="Tracé 545" d="M36.329,45.09a.145.145,0,0,1-.195-.069c-.049-.082-.13-.142-.158.017-.011.064-.051.064-.1.063-.073,0-.064-.052-.065-.1a1.592,1.592,0,0,0,0-.228c-.03-.178.049-.227.233-.215.25.015.317.1.225.326-.027.066-.027.066.062.2" transform="translate(-22.303 -27.759)" fill="#fff"/>
        <path id="Tracé_546" data-name="Tracé 546" d="M36.975,53.618c-.13,0-.26,0-.39,0-.077,0-.11-.022-.11-.1s.038-.1.112-.1q.39,0,.78,0c.068,0,.1.021.1.088s-.015.108-.1.105c-.13,0-.26,0-.39,0" transform="translate(-22.722 -33.282)" fill="#fff"/>
        <path id="Tracé_547" data-name="Tracé 547" d="M37.69,41.827a.3.3,0,0,1,.325.273.331.331,0,0,1-.648,0,.3.3,0,0,1,.324-.274" transform="translate(-23.278 -26.056)" fill="#fff"/>
        <path id="Tracé_548" data-name="Tracé 548" d="M55.978,15.083a1.789,1.789,0,0,0,0,.191c.011.1-.029.132-.137.132s-.163-.021-.154-.136a2.636,2.636,0,0,0,0-.382c-.007-.107.032-.14.149-.141s.153.044.143.146a1.893,1.893,0,0,0,0,.191" transform="translate(-34.69 -9.186)" fill="#fff"/>
        <path id="Tracé_549" data-name="Tracé 549" d="M57.944,15.067a1.788,1.788,0,0,0,0,.191c.011.1-.022.146-.144.145s-.155-.037-.147-.143a2.983,2.983,0,0,0,0-.343c0-.1,0-.177.155-.175s.134.086.135.173v.153" transform="translate(-35.915 -9.183)" fill="#fff"/>
        <path id="Tracé_550" data-name="Tracé 550" d="M31.116,42.062a.236.236,0,0,1-.181.3.258.258,0,0,1-.353-.238c-.006-.07,0-.14,0-.211,0-.051.014-.084.08-.084s.086.025.085.08c0,.07,0,.141,0,.211,0,.086.035.133.133.13s.068-.077.072-.127,0-.115,0-.173-.02-.12.081-.121.079.067.082.12c0,.032,0,.064,0,.113" transform="translate(-19.05 -26.057)" fill="#fff"/>
        <path id="Tracé_551" data-name="Tracé 551" d="M36.946,52.093c-.124,0-.247,0-.37,0-.087,0-.1-.039-.1-.106s.033-.087.1-.087q.38,0,.76,0c.075,0,.089.037.089.1s-.014.1-.09.1c-.13,0-.26,0-.389,0" transform="translate(-22.723 -32.332)" fill="#fff"/>
        <path id="Tracé_552" data-name="Tracé 552" d="M36.933,55.145c-.117,0-.233,0-.349,0-.077,0-.11-.022-.11-.1s.038-.1.112-.1q.37,0,.739,0c.068,0,.1.021.1.088s-.015.108-.1.105c-.13,0-.26,0-.39,0" transform="translate(-22.722 -34.233)" fill="#fff"/>
        <path id="Tracé_553" data-name="Tracé 553" d="M36.948,56.378c.123,0,.247,0,.37,0,.077,0,.109.023.109.1s-.038.1-.112.1q-.369,0-.739,0c-.068,0-.1-.021-.1-.088s.016-.108.1-.1c.123,0,.246,0,.37,0" transform="translate(-22.723 -35.12)" fill="#fff"/>
        <path id="Tracé_554" data-name="Tracé 554" d="M36.154,42.084c-.086.087-.273-.036-.273.1,0,.105.159.027.243.05.034.01.065.014.067.055s-.021.057-.061.059a.3.3,0,0,1-.041,0c-.126-.015-.318.06-.364-.034a1.08,1.08,0,0,1-.021-.45c0-.041.034-.051.071-.051a.646.646,0,0,1,.143,0c.078.017.214-.059.223.053s-.127.04-.195.059c-.041.012-.083.01-.078.064s.051.047.09.052c.062.009.134-.026.2.04" transform="translate(-22.233 -26.043)" fill="#fff"/>
        <path id="Tracé_555" data-name="Tracé 555" d="M36.967,57.7c.117,0,.233,0,.349,0,.078,0,.108.023.109.1s-.04.1-.113.094q-.359,0-.719,0c-.067,0-.116,0-.119-.089s.041-.107.124-.1c.123,0,.246,0,.37,0" transform="translate(-22.721 -35.944)" fill="#fff"/>
        <path id="Tracé_556" data-name="Tracé 556" d="M59.729,21.593a1,1,0,0,0,0,.149c.021.129-.053.142-.166.143s-.184-.016-.166-.144a1.561,1.561,0,0,0,0-.21c0-.183.07-.239.256-.183.155.046.03.178.073.246" transform="translate(-37 -13.286)" fill="#fff"/>
        <path id="Tracé_557" data-name="Tracé 557" d="M34.454,44.711c0,.048.033.052.058.051.125,0,.213.033.222.166a.159.159,0,0,1-.141.18.246.246,0,0,1-.291-.124.321.321,0,0,1,.049-.342c.074-.1.182-.066.281-.068.044,0,.085.02.083.061s-.038.048-.077.052c-.062.008-.133-.021-.184.025" transform="translate(-21.349 -27.765)" fill="#fff"/>
        <path id="Tracé_558" data-name="Tracé 558" d="M37.975,44.688c-.121,0-.187.041-.205.136a.138.138,0,0,0,.111.161c.081.023.186.041.179-.1,0-.031.025-.041.055-.043s.064.019.063.056c0,.055.032.136-.027.16a.414.414,0,0,1-.406,0,.235.235,0,0,1-.113-.273.273.273,0,0,1,.289-.215c.089-.005.213,0,.208.094-.009.151-.12-.066-.152.02" transform="translate(-23.437 -27.767)" fill="#fff"/>
        <path id="Tracé_559" data-name="Tracé 559" d="M55.98,21.644c-.014.121.076.3-.2.266-.07-.01-.095-.031-.093-.094,0-.115.006-.229,0-.343s.067-.1.145-.1.156-.009.145.1c-.005.057,0,.115,0,.172" transform="translate(-34.692 -13.312)" fill="#fff"/>
        <path id="Tracé_560" data-name="Tracé 560" d="M57.946,21.633c0,.27-.027.3-.211.268-.035-.007-.072-.009-.072-.05a3.2,3.2,0,0,1,0-.438c.011-.088.112-.038.173-.048s.109,0,.107.077,0,.127,0,.191" transform="translate(-35.917 -13.306)" fill="#fff"/>
        <path id="Tracé_561" data-name="Tracé 561" d="M4.4,11.6a.434.434,0,0,1-.057.2c-.124-.064-.343.08-.386-.122a.217.217,0,0,1,.231-.272c.12,0,.229.043.213.191" transform="translate(-2.462 -7.108)" fill="#fefeff"/>
        <path id="Tracé_562" data-name="Tracé 562" d="M3.038,13.737a.316.316,0,0,0-.044.2c0,.146-.08.224-.238.218s-.178-.108-.174-.228c0-.056.04-.111-.029-.2a.858.858,0,0,0,.487.006Z" transform="translate(-1.59 -8.555)" fill="#fefeff"/>
        <path id="Tracé_563" data-name="Tracé 563" d="M32.808,41.82a.316.316,0,0,1,.156.037c.064.027.055.069.034.109s-.055.04-.1.006a.149.149,0,0,0-.227.033.119.119,0,0,0,0,.172.149.149,0,0,0,.227.032c.055-.046.083-.014.113.02.052.058-.006.072-.046.092a.339.339,0,0,1-.377-.032.25.25,0,0,1-.071-.3c.043-.129.165-.151.287-.166" transform="translate(-20.246 -26.051)" fill="#fff"/>
        <path id="Tracé_564" data-name="Tracé 564" d="M5.146,12.935a.36.36,0,0,0,.039-.232c-.033-.147.054-.181.182-.188s.22.021.23.154a.2.2,0,0,1-.2.229.648.648,0,0,0-.249.037" transform="translate(-3.206 -7.796)" fill="#fefeff"/>
        <path id="Tracé_565" data-name="Tracé 565" d="M1.727,12.982c-.048,0-.113.006-.178.013-.1.011-.2-.014-.228-.113a.2.2,0,0,1,.064-.224.385.385,0,0,1,.31-.038c.047.008.031.063.031.1,0,.087,0,.174,0,.262" transform="translate(-0.815 -7.853)" fill="#fff"/>
        <path id="Tracé_566" data-name="Tracé 566" d="M4.3,13.871c0,.106,0,.22-.17.239a.211.211,0,0,1-.26-.183.186.186,0,0,1,.216-.2c.089.009.267-.082.213.143" transform="translate(-2.412 -8.545)" fill="#fefeff"/>
        <path id="Tracé_567" data-name="Tracé 567" d="M3.842,13.04a2.06,2.06,0,0,0,.041-.242.18.18,0,0,1,.222-.187c.138.012.187.078.186.2,0,.14-.079.189-.22.187-.079,0-.166-.029-.233.038l0,0" transform="translate(-2.392 -7.856)" fill="#fff"/>
        <path id="Tracé_568" data-name="Tracé 568" d="M2.654,11.7a.216.216,0,0,1,.2-.282.19.19,0,0,1,.219.195.181.181,0,0,1-.195.207c-.064-.008-.286.095-.224-.12" transform="translate(-1.647 -7.109)" fill="#feffff"/>
        <path id="Tracé_569" data-name="Tracé 569" d="M33.737,59.979c0,.077,0,.153,0,.23s-.01.12-.109.117-.1-.044-.1-.109c0-.159,0-.319,0-.478,0-.066.012-.105.1-.107s.111.045.108.118,0,.153,0,.23" transform="translate(-20.888 -37.148)" fill="#fff"/>
        <path id="Tracé_570" data-name="Tracé 570" d="M27.95,49.078c0,.083,0,.166,0,.248s-.059.069-.114.071-.092-.014-.091-.074c0-.166,0-.331,0-.5,0-.072.042-.081.1-.082s.1.015.1.084,0,.166,0,.248" transform="translate(-17.284 -30.366)" fill="#fff"/>
        <path id="Tracé_571" data-name="Tracé 571" d="M29.26,49.078c0,.083,0,.166,0,.248s-.059.069-.114.071-.092-.014-.091-.074c0-.166,0-.331,0-.5,0-.072.042-.081.1-.082s.1.015.1.084,0,.166,0,.248" transform="translate(-18.1 -30.366)" fill="#fff"/>
        <path id="Tracé_572" data-name="Tracé 572" d="M32,49.056c0-.077,0-.153,0-.229s.043-.081.1-.081.1.016.1.085q0,.239,0,.478c0,.064-.025.09-.1.091S32,49.384,32,49.3s0-.166,0-.248" transform="translate(-19.935 -30.366)" fill="#fff"/>
        <path id="Tracé_573" data-name="Tracé 573" d="M33.736,49.066c0,.083,0,.166,0,.248s-.04.083-.1.083-.1-.012-.1-.083c0-.159,0-.319,0-.478,0-.081.042-.093.114-.093s.1.031.093.093,0,.153,0,.229" transform="translate(-20.887 -30.365)" fill="#fff"/>
        <path id="Tracé_574" data-name="Tracé 574" d="M35.374,49.078c0,.083,0,.166,0,.248s-.059.07-.114.071-.092-.014-.091-.074c0-.166,0-.331,0-.5,0-.071.042-.081.1-.082s.1.015.1.084,0,.166,0,.248" transform="translate(-21.908 -30.366)" fill="#fff"/>
        <path id="Tracé_575" data-name="Tracé 575" d="M26.64,59.971c0,.077,0,.153,0,.229s-.03.089-.1.088-.109,0-.108-.078q0-.249,0-.5c0-.075.049-.077.108-.078s.1.021.1.088c0,.083,0,.166,0,.248" transform="translate(-16.468 -37.15)" fill="#fff"/>
        <path id="Tracé_576" data-name="Tracé 576" d="M27.745,59.933c0-.07,0-.14,0-.21s.028-.09.1-.088.11,0,.109.077c0,.166,0,.331,0,.5,0,.074-.047.078-.107.079s-.1-.02-.1-.087c0-.089,0-.178,0-.268" transform="translate(-17.283 -37.15)" fill="#fff"/>
        <path id="Tracé_577" data-name="Tracé 577" d="M29.056,59.967c0-.083,0-.166,0-.248s.038-.084.1-.084.1.011.1.082c0,.166,0,.331,0,.5,0,.061-.035.075-.092.074s-.114.006-.113-.072,0-.166,0-.248" transform="translate(-18.1 -37.149)" fill="#fff"/>
        <path id="Tracé_578" data-name="Tracé 578" d="M32,59.968c0-.077,0-.153,0-.229s.014-.107.1-.107.109.026.107.1c0,.153,0,.306,0,.459,0,.078-.034.1-.111.1s-.1-.024-.1-.09,0-.153,0-.229" transform="translate(-19.935 -37.148)" fill="#fff"/>
        <path id="Tracé_579" data-name="Tracé 579" d="M35.169,59.953c0-.077,0-.153,0-.229s.026-.092.1-.089.11,0,.109.076c0,.166,0,.331,0,.5,0,.073-.046.079-.106.08s-.1-.018-.1-.086,0-.166,0-.248" transform="translate(-21.908 -37.15)" fill="#fff"/>
        <path id="Tracé_580" data-name="Tracé 580" d="M26.639,49.078c0,.083,0,.166,0,.248s-.059.07-.114.071-.092-.014-.091-.074c0-.166,0-.331,0-.5,0-.071.042-.081.1-.082s.1.015.1.084,0,.166,0,.248" transform="translate(-16.467 -30.366)" fill="#fff"/>
        <path id="Tracé_581" data-name="Tracé 581" d="M32.876,44.576c.268,0,.267,0,.148.225a2.461,2.461,0,0,0-.119.256c-.027.072-.088.062-.132.046-.079-.028-.007-.072,0-.106s.045-.077.06-.118c.02-.057.066-.14.041-.169-.058-.069-.09.027-.136.047s-.087.009-.086-.044-.04-.123.057-.136a1.235,1.235,0,0,1,.163,0" transform="translate(-20.338 -27.767)" fill="#fff"/>
        <path id="Tracé_582" data-name="Tracé 582" d="M31.195,44.881c.086-.017.049-.158.147-.106a.213.213,0,0,1,.11.155c0,.061-.065.123-.113.175a.052.052,0,0,1-.077-.034c-.008-.041-.015-.077-.071-.073-.287.017-.172-.123-.109-.242a.794.794,0,0,0,.045-.084c.022-.06.061-.118.13-.089.1.041-.011.09-.015.137s-.074.088-.046.163" transform="translate(-19.314 -27.767)" fill="#fff"/>
        <path id="Tracé_583" data-name="Tracé 583" d="M4.766,16.08c-.083.088-.161.069-.239-.007-.062-.061-.041-.113.018-.163.08-.067.168-.074.223.014s.072.013.1-.007a.159.159,0,0,1,.246.008c.061.061.045.111-.014.163a.147.147,0,0,1-.228-.007.236.236,0,0,0-.224-.057c.021.062.093.013.123.057" transform="translate(-2.797 -9.88)" fill="#fff"/>
        <path id="Tracé_584" data-name="Tracé 584" d="M34.284,42.094c.045-.067-.083-.23.074-.234.178,0,.08.164.085.251.007.116.028.181.169.161.042-.006.083,0,.082.058s-.046.05-.086.055c-.295.041-.323.018-.323-.291" transform="translate(-21.353 -26.077)" fill="#fff"/>
        <path id="Tracé_585" data-name="Tracé 585" d="M29.6,44.844c0-.063,0-.127,0-.19s.022-.08.084-.079.081.032.08.083,0,.114,0,.171c-.008.1,0,.193.154.169.038-.006.085,0,.09.049.006.069-.05.059-.1.064-.3.032-.312.025-.311-.268" transform="translate(-18.441 -27.768)" fill="#fff"/>
        <path id="Tracé_586" data-name="Tracé 586" d="M55.067,5.721a1.212,1.212,0,0,0,0,.133c.009.1-.057.1-.131.1s-.123,0-.118-.089,0-.14,0-.21-.031-.165.119-.166.13.075.128.159c0,.025,0,.051,0,.076" transform="translate(-34.149 -3.418)" fill="#fff"/>
        <path id="Tracé_587" data-name="Tracé 587" d="M3.018,12.6c.037.016.13-.065.113.059s-.011.267-.194.283a.153.153,0,0,1-.177-.166c.007-.141.115-.187.258-.176" transform="translate(-1.719 -7.843)" fill="#f9fafc"/>
        <path id="Tracé_588" data-name="Tracé 588" d="M30.749,59.964c0,.077,0,.153,0,.229,0,.059-.011.1-.089.1s-.075-.04-.075-.088q0-.239,0-.478c0-.05.012-.083.078-.085.081,0,.086.043.086.1,0,.076,0,.153,0,.229" transform="translate(-19.053 -37.151)" fill="#fff"/>
        <path id="Tracé_589" data-name="Tracé 589" d="M30.749,49.087c0,.077,0,.153,0,.229,0,.052-.015.084-.08.084s-.084-.026-.084-.08c0-.166,0-.331,0-.5,0-.06.033-.076.09-.074s.073.025.073.07v.268" transform="translate(-19.053 -30.368)" fill="#fff"/>
        <path id="Tracé_590" data-name="Tracé 590" d="M56.336,5.729c0,.051,0,.1,0,.153,0,.078-.06.069-.114.071s-.091-.014-.09-.074c0-.089,0-.178,0-.267,0-.07,0-.121.105-.121s.1.057.1.124c0,.038,0,.077,0,.115Z" transform="translate(-34.966 -3.42)" fill="#fff"/>
        <path id="Tracé_591" data-name="Tracé 591" d="M29.155,13.891H28.95c-.054,0-.11.006-.112-.073s.045-.08.1-.08c.137,0,.274,0,.41,0,.063,0,.105.01.1.083s-.042.071-.094.07h-.205" transform="translate(-17.964 -8.558)" fill="#fff"/>
        <path id="Tracé_592" data-name="Tracé 592" d="M37.451,14.744c.069.044.244-.085.248.073s-.168.055-.258.077a.97.97,0,0,1-.2,0c-.063,0-.105-.01-.1-.083s.043-.071.095-.07h.222" transform="translate(-23.133 -9.18)" fill="#fff"/>
        <path id="Tracé_593" data-name="Tracé 593" d="M55.062,10.241c0,.083.036.179-.128.176s-.112-.111-.116-.186-.036-.164.116-.167.124.094.128.176" transform="translate(-34.144 -6.27)" fill="#fff"/>
        <path id="Tracé_594" data-name="Tracé 594" d="M1.317,15.836c-.049.061.016.14-.085.187a.791.791,0,0,1-.017-.3c0-.056.04-.056.082-.029l.173.115c.018-.016-.043-.094.033-.138.074.094.032.2.034.3,0,.056-.051.05-.083.018s-.083-.095-.135-.155" transform="translate(-0.753 -9.765)" fill="#fff"/>
        <path id="Tracé_595" data-name="Tracé 595" d="M29.156,17.3c-.079-.031-.267.053-.263-.049,0-.138.185-.041.285-.063a1.019,1.019,0,0,1,.225,0c.042,0,.085,0,.083.058s-.046.055-.087.055c-.075,0-.15,0-.243,0" transform="translate(-17.999 -10.697)" fill="#fff"/>
        <path id="Tracé_596" data-name="Tracé 596" d="M29.168,14.659c.075,0,.15,0,.226,0,.038,0,.064.016.064.056s-.027.055-.065.055c-.164,0-.328,0-.493,0a.047.047,0,0,1-.052-.046c0-.037.012-.063.054-.063.089,0,.178,0,.267,0h0" transform="translate(-17.97 -9.132)" fill="#fff"/>
        <path id="Tracé_597" data-name="Tracé 597" d="M29.132,15.666c-.074-.025-.247.048-.244-.05,0-.138.173-.043.268-.062a1.239,1.239,0,0,1,.245,0c.042,0,.084,0,.082.059s-.047.054-.087.054c-.082,0-.164,0-.263,0" transform="translate(-17.996 -9.681)" fill="#fff"/>
        <path id="Tracé_598" data-name="Tracé 598" d="M56.331,10.252c-.023.062.049.163-.1.168s-.11-.1-.108-.171-.058-.178.1-.176.077.116.1.179" transform="translate(-34.957 -6.275)" fill="#fff"/>
        <path id="Tracé_599" data-name="Tracé 599" d="M29.156,16.5c-.082,0-.164,0-.246,0-.038,0-.065-.015-.065-.055s.025-.056.064-.057h.472c.046,0,.08.013.074.066s-.039.047-.073.048c-.075,0-.15,0-.226,0Z" transform="translate(-17.969 -10.208)" fill="#fff"/>
        <path id="Tracé_600" data-name="Tracé 600" d="M33.64,18.638c0-.044,0-.089,0-.134s.016-.083.081-.083.084.027.083.081c0,.07,0,.14,0,.21s.025.137-.09.13-.066-.077-.073-.128a.513.513,0,0,1,0-.076" transform="translate(-20.955 -11.476)" fill="#fff"/>
        <path id="Tracé_601" data-name="Tracé 601" d="M34.678,18.624c0,.038,0,.077,0,.115s.007.1-.077.105-.088-.04-.087-.1,0-.127,0-.191-.031-.137.087-.133c.1,0,.07.074.076.124a.648.648,0,0,1,0,.077" transform="translate(-21.499 -11.477)" fill="#fff"/>
        <path id="Tracé_602" data-name="Tracé 602" d="M37.457,14.037c-.09-.042-.271.057-.271-.064s.18-.055.274-.051.262-.083.264.06c0,.1-.173.022-.267.054" transform="translate(-23.165 -8.659)" fill="#fff"/>
        <path id="Tracé_603" data-name="Tracé 603" d="M37.406,16.588c-.065-.033-.227.059-.226-.051,0-.128.161-.044.249-.061a1.121,1.121,0,0,1,.225,0c.042,0,.085,0,.082.06s-.048.053-.088.054c-.075,0-.15,0-.242,0" transform="translate(-23.161 -10.257)" fill="#fff"/>
        <path id="Tracé_604" data-name="Tracé 604" d="M37.467,17.4c-.095-.038-.282.048-.278-.058.006-.139.188-.051.288-.057.084-.005.252-.066.25.055s-.17.027-.26.06" transform="translate(-23.167 -10.752)" fill="#fff"/>
        <path id="Tracé_605" data-name="Tracé 605" d="M37.438,15.778c-.09-.04-.258.051-.257-.067s.167-.051.257-.051.285-.054.281.044c-.006.151-.19.018-.281.075" transform="translate(-23.162 -9.745)" fill="#fff"/>
        <path id="Tracé_606" data-name="Tracé 606" d="M34.668,12.306c-.044.061.064.192-.092.19s-.074-.127-.075-.192-.07-.174.067-.181c.162-.008.058.122.1.184" transform="translate(-21.481 -7.552)" fill="#fff"/>
        <path id="Tracé_607" data-name="Tracé 607" d="M33.8,12.295c-.051.072.057.2-.1.2s-.077-.126-.077-.19-.074-.19.086-.183c.144.006.026.128.088.172" transform="translate(-20.937 -7.552)" fill="#fff"/>
        <path id="Tracé_608" data-name="Tracé 608" d="M2.331,15.874c.095.048.014.144.084.186a.128.128,0,0,0,.037-.015c.048-.047-.042-.16.08-.164.085,0,.055.074.055.117,0,.062.036.152-.094.146-.08,0-.176.018-.189-.094a.219.219,0,0,1,.026-.176" transform="translate(-1.432 -9.889)" fill="#fff"/>
        <path id="Tracé_609" data-name="Tracé 609" d="M31.464,18.657c-.039.074.044.2-.071.2s-.06-.122-.058-.184-.068-.214.064-.213c.113,0,.012.141.065.2" transform="translate(-19.509 -11.499)" fill="#fff"/>
        <path id="Tracé_610" data-name="Tracé 610" d="M32.111,18.628c0-.044,0-.089,0-.134s.009-.062.054-.065.067.032.067.073c0,.077,0,.153,0,.23,0,.044.027.117-.064.111s-.05-.075-.057-.119a.619.619,0,0,1,0-.1Z" transform="translate(-20.002 -11.48)" fill="#fff"/>
        <path id="Tracé_611" data-name="Tracé 611" d="M36.483,18.665c-.026.054.051.179-.056.179-.133,0-.041-.13-.066-.2a.093.093,0,0,1,0-.057c.015-.053-.046-.152.065-.146s.041.1.057.155a.3.3,0,0,1,0,.068" transform="translate(-22.646 -11.488)" fill="#fff"/>
        <path id="Tracé_612" data-name="Tracé 612" d="M35.613,18.635a.926.926,0,0,1,0,.11c-.006.044.026.117-.064.113s-.051-.074-.058-.118a.246.246,0,0,1,0-.1c.017-.067-.05-.19.054-.191.14,0,.032.132.069.182" transform="translate(-22.105 -11.495)" fill="#fff"/>
        <path id="Tracé_613" data-name="Tracé 613" d="M32.991,18.665c-.026.054.053.175-.057.179-.128.005-.04-.119-.065-.181a.128.128,0,0,1,0-.075c.014-.053-.046-.152.066-.146s.041.1.056.155a.3.3,0,0,1,0,.068" transform="translate(-20.472 -11.488)" fill="#fff"/>
        <path id="Tracé_614" data-name="Tracé 614" d="M32.234,12.319c0,.038,0,.077,0,.115s-.01.062-.055.065-.066-.032-.067-.073c0-.064,0-.128,0-.191,0-.044-.026-.117.065-.111s.049.075.057.119a.431.431,0,0,1,0,.077Z" transform="translate(-20.003 -7.552)" fill="#fff"/>
        <path id="Tracé_615" data-name="Tracé 615" d="M31.335,12.326c.032-.062-.05-.184.064-.186s.06.121.058.183.072.182-.063.179c-.1,0-.03-.115-.059-.175" transform="translate(-19.52 -7.563)" fill="#fff"/>
        <path id="Tracé_616" data-name="Tracé 616" d="M35.615,12.306a.322.322,0,0,1,0,.067c-.012.048.038.134-.063.132s-.047-.086-.06-.135a.116.116,0,0,1,0-.057c.017-.061-.046-.171.053-.175.137,0,.035.12.07.167" transform="translate(-22.107 -7.562)" fill="#fff"/>
        <path id="Tracé_617" data-name="Tracé 617" d="M32.992,12.309a.683.683,0,0,1,0,.09c-.006.044.025.114-.066.11-.074,0-.051-.062-.056-.1a.2.2,0,0,1,0-.076c.019-.066-.054-.186.056-.19.129,0,.032.121.066.168" transform="translate(-20.472 -7.563)" fill="#fff"/>
        <path id="Tracé_618" data-name="Tracé 618" d="M36.488,12.306a.322.322,0,0,1,0,.067c-.012.048.038.134-.063.132s-.047-.086-.06-.135a.112.112,0,0,1,0-.057c.017-.061-.046-.171.052-.175.137,0,.035.12.07.167" transform="translate(-22.651 -7.562)" fill="#fff"/>
        <path id="Tracé_619" data-name="Tracé 619" d="M3.46,16.09a.159.159,0,0,1-.253-.021c-.05-.056-.026-.1.023-.148a.157.157,0,0,1,.227,0c-.041.062-.159-.009-.15.1.008.089.1.027.153.077" transform="translate(-1.98 -9.887)" fill="#fff"/>
        <path id="Tracé_620" data-name="Tracé 620" d="M4.205,15.6a.441.441,0,0,1,0,.365.445.445,0,0,1,0-.365" transform="translate(-2.597 -9.716)" fill="#fff"/>
        <path id="Tracé_621" data-name="Tracé 621" d="M28.446,45.328a.24.24,0,0,1,.244-.009c-.081.067-.145.055-.244.009" transform="translate(-17.72 -28.213)" fill="#fff"/>
        <path id="Tracé_622" data-name="Tracé 622" d="M5.218,62.779c0,.2-.1.284-.314.282a.307.307,0,0,1-.3-.271.319.319,0,0,1,.337-.3.305.305,0,0,1,.279.293" transform="translate(-2.866 -38.926)" fill="#56509a"/>
        <path id="Tracé_623" data-name="Tracé 623" d="M4.909,52.376a.309.309,0,0,1-.308-.266.309.309,0,0,1,.617-.023c0,.2-.094.288-.308.288" transform="translate(-2.866 -32.27)" fill="#56509a"/>
        <path id="Tracé_624" data-name="Tracé 624" d="M5.218,39.274c0,.2-.1.282-.318.279a.307.307,0,0,1-.3-.274.31.31,0,0,1,.32-.3.3.3,0,0,1,.3.3" transform="translate(-2.866 -24.282)" fill="#56509a"/>
        <path id="Tracé_625" data-name="Tracé 625" d="M4.915,34.7c.211,0,.3.093.3.294a.306.306,0,0,1-.292.281.317.317,0,0,1-.325-.316.311.311,0,0,1,.315-.259" transform="translate(-2.865 -21.618)" fill="#56509a"/>
        <path id="Tracé_626" data-name="Tracé 626" d="M5.218,37.136a.254.254,0,0,1-.3.279.289.289,0,1,1,0-.575.3.3,0,0,1,.3.3" transform="translate(-2.866 -22.95)" fill="#56509a"/>
        <path id="Tracé_627" data-name="Tracé 627" d="M5.218,41.407c0,.2-.1.287-.31.286a.288.288,0,1,1,.005-.574.3.3,0,0,1,.305.288" transform="translate(-2.866 -25.615)" fill="#56509a"/>
        <path id="Tracé_628" data-name="Tracé 628" d="M5.218,67.145a.3.3,0,0,1-.3.292.306.306,0,0,1-.317-.3.311.311,0,0,1,.325-.274.253.253,0,0,1,.292.283" transform="translate(-2.866 -41.652)" fill="#56509a"/>
        <path id="Tracé_629" data-name="Tracé 629" d="M5.217,60.634a.288.288,0,0,1-.3.29.29.29,0,1,1,0-.575.265.265,0,0,1,.294.285" transform="translate(-2.865 -37.594)" fill="#56509a"/>
        <path id="Tracé_630" data-name="Tracé 630" d="M5.217,30.61a.3.3,0,0,1-.3.293.289.289,0,1,1,.007-.575.254.254,0,0,1,.293.283" transform="translate(-2.865 -18.892)" fill="#56509a"/>
        <path id="Tracé_631" data-name="Tracé 631" d="M5.218,32.762c0,.2-.1.282-.315.28a.307.307,0,0,1-.3-.27.357.357,0,0,1,.319-.3.3.3,0,0,1,.3.293" transform="translate(-2.866 -20.226)" fill="#56509a"/>
        <path id="Tracé_632" data-name="Tracé 632" d="M5.218,58.505a.253.253,0,0,1-.294.281.31.31,0,0,1-.323-.276.306.306,0,0,1,.319-.3.3.3,0,0,1,.3.294" transform="translate(-2.866 -36.263)" fill="#56509a"/>
        <path id="Tracé_633" data-name="Tracé 633" d="M5.218,64.9c0,.2-.09.294-.3.3A.311.311,0,0,1,4.6,64.94a.372.372,0,0,1,.3-.313.3.3,0,0,1,.318.278" transform="translate(-2.866 -40.259)" fill="#56509a"/>
        <path id="Tracé_634" data-name="Tracé 634" d="M5.218,47.813a.253.253,0,0,1-.286.289.313.313,0,0,1-.331-.268.309.309,0,0,1,.617-.021" transform="translate(-2.866 -29.606)" fill="#56509a"/>
        <path id="Tracé_635" data-name="Tracé 635" d="M3.211,58.5c0,.195-.087.282-.283.284a.253.253,0,0,1-.293-.281.263.263,0,0,1,.281-.295c.2,0,.3.086.3.291" transform="translate(-1.641 -36.263)" fill="#56509a"/>
        <path id="Tracé_636" data-name="Tracé 636" d="M4.927,56.658a.312.312,0,0,1-.326-.266.359.359,0,0,1,.322-.3.3.3,0,0,1,.295.293c0,.194-.092.278-.291.278" transform="translate(-2.866 -34.939)" fill="#56509a"/>
        <path id="Tracé_637" data-name="Tracé 637" d="M4.914,49.663c.213,0,.307.091.305.293a.3.3,0,0,1-.294.278.357.357,0,0,1-.322-.307.31.31,0,0,1,.312-.264" transform="translate(-2.867 -30.938)" fill="#56509a"/>
        <path id="Tracé_638" data-name="Tracé 638" d="M4.92,69.6a.306.306,0,0,1-.319-.276.342.342,0,0,1,.317-.285.273.273,0,0,1,.3.286c0,.194-.094.276-.3.275" transform="translate(-2.866 -43.007)" fill="#56509a"/>
        <path id="Tracé_639" data-name="Tracé 639" d="M3.211,67.161a.244.244,0,0,1-.272.277.3.3,0,0,1-.3-.288.253.253,0,0,1,.287-.288c.2,0,.291.088.29.3" transform="translate(-1.641 -41.652)" fill="#56509a"/>
        <path id="Tracé_640" data-name="Tracé 640" d="M4.921,43.85a.307.307,0,0,1-.32-.276.343.343,0,0,1,.317-.285.275.275,0,0,1,.3.286c0,.194-.094.277-.3.275" transform="translate(-2.866 -26.967)" fill="#56509a"/>
        <path id="Tracé_641" data-name="Tracé 641" d="M3.211,60.65c0,.19-.1.278-.293.274a.262.262,0,0,1-.283-.293.253.253,0,0,1,.291-.283c.2,0,.287.089.285.3" transform="translate(-1.641 -37.595)" fill="#56509a"/>
        <path id="Tracé_642" data-name="Tracé 642" d="M3.211,37.132c0,.2-.088.282-.285.284a.252.252,0,0,1-.291-.284.3.3,0,0,1,.3-.292c.183,0,.277.094.276.292" transform="translate(-1.641 -22.949)" fill="#56509a"/>
        <path id="Tracé_643" data-name="Tracé 643" d="M3.211,47.827c0,.189-.1.277-.294.274a.252.252,0,0,1-.282-.29.265.265,0,0,1,.291-.285c.2,0,.287.089.285.3" transform="translate(-1.641 -29.606)" fill="#56509a"/>
        <path id="Tracé_644" data-name="Tracé 644" d="M3.211,30.623c0,.192-.092.28-.288.279a.263.263,0,0,1-.288-.288.253.253,0,0,1,.285-.288c.2,0,.291.088.291.3" transform="translate(-1.641 -18.892)" fill="#56509a"/>
        <path id="Tracé_645" data-name="Tracé 645" d="M5.218,54.3a.274.274,0,0,1-.292.294.326.326,0,0,1-.325-.29.309.309,0,0,1,.307-.267c.209,0,.306.078.31.262" transform="translate(-2.866 -33.663)" fill="#56509a"/>
        <path id="Tracé_646" data-name="Tracé 646" d="M3.211,52.091c0,.2-.086.283-.282.286a.253.253,0,0,1-.294-.281.3.3,0,0,1,.3-.294.249.249,0,0,1,.28.289" transform="translate(-1.641 -32.27)" fill="#56509a"/>
        <path id="Tracé_647" data-name="Tracé 647" d="M3.2,64.932c0,.2-.079.272-.293.271-.2,0-.268-.079-.287-.261s.118-.28.3-.309c.153-.024.276.123.277.3" transform="translate(-1.631 -40.262)" fill="#56509a"/>
        <path id="Tracé_648" data-name="Tracé 648" d="M4.914,46.027a.311.311,0,0,1-.313-.263c-.005-.168.138-.279.353-.274a.242.242,0,0,1,.264.268c0,.186-.1.272-.3.269" transform="translate(-2.866 -28.338)" fill="#56509a"/>
        <path id="Tracé_649" data-name="Tracé 649" d="M3.211,39.289a.231.231,0,0,1-.261.265c-.216,0-.314-.085-.315-.284a.306.306,0,0,1,.282-.291.283.283,0,0,1,.294.31" transform="translate(-1.641 -24.282)" fill="#56509a"/>
        <path id="Tracé_650" data-name="Tracé 650" d="M3.211,41.429c0,.184-.089.265-.282.262s-.3-.087-.294-.275a.3.3,0,0,1,.29-.3.278.278,0,0,1,.287.313" transform="translate(-1.641 -25.613)" fill="#56509a"/>
        <path id="Tracé_651" data-name="Tracé 651" d="M3.211,32.782c0,.182-.091.264-.284.259s-.294-.088-.292-.277a.3.3,0,0,1,.292-.3.277.277,0,0,1,.284.316" transform="translate(-1.641 -20.225)" fill="#56509a"/>
        <path id="Tracé_652" data-name="Tracé 652" d="M3.211,34.985a.282.282,0,0,1-.292.292.305.305,0,0,1-.284-.29c0-.2.1-.287.313-.285.186,0,.266.087.263.282" transform="translate(-1.641 -21.618)" fill="#56509a"/>
        <path id="Tracé_653" data-name="Tracé 653" d="M3.211,62.786c0,.193-.08.276-.27.276-.214,0-.308-.09-.306-.291a.3.3,0,0,1,.291-.284.277.277,0,0,1,.285.3" transform="translate(-1.641 -38.926)" fill="#56509a"/>
        <path id="Tracé_654" data-name="Tracé 654" d="M3.211,49.931a.281.281,0,0,1-.3.3.3.3,0,0,1-.281-.307c0-.185.083-.263.28-.264.215,0,.3.072.3.268" transform="translate(-1.641 -30.938)" fill="#56509a"/>
        <path id="Tracé_655" data-name="Tracé 655" d="M3.211,56.391c0,.2-.082.269-.3.267-.2,0-.278-.079-.279-.265a.3.3,0,0,1,.281-.306.281.281,0,0,1,.295.3" transform="translate(-1.641 -34.939)" fill="#56509a"/>
        <path id="Tracé_656" data-name="Tracé 656" d="M2.634,69.316a.288.288,0,1,1,.576-.006c0,.193-.077.269-.274.271-.218,0-.3-.07-.3-.265" transform="translate(-1.641 -42.99)" fill="#56509a"/>
        <path id="Tracé_657" data-name="Tracé 657" d="M2.924,43.834c-.213,0-.291-.074-.29-.276a.288.288,0,1,1,.577,0c0,.209-.07.279-.287.279" transform="translate(-1.641 -26.951)" fill="#56509a"/>
        <path id="Tracé_658" data-name="Tracé 658" d="M3.211,54.311a.288.288,0,1,1-.576-.009c0-.184.084-.261.283-.262.215,0,.294.072.293.272" transform="translate(-1.641 -33.664)" fill="#56509a"/>
        <path id="Tracé_659" data-name="Tracé 659" d="M3.211,45.757c0,.192-.078.268-.276.27-.221,0-.3-.067-.3-.267s.08-.272.3-.271c.2,0,.279.079.28.267" transform="translate(-1.641 -28.338)" fill="#56509a"/>
        <path id="Tracé_660" data-name="Tracé 660" d="M4.22,51.128c.155.088.191.182-.008.277-.154-.087-.192-.182.008-.277" transform="translate(-2.543 -31.85)" fill="#56509a"/>
        <path id="Tracé_661" data-name="Tracé 661" d="M4.36,62.021c-.054.046-.106.12-.141.114-.064-.011-.141-.067-.138-.14a.11.11,0,0,1,.124-.1c.057.016.1.078.156.125" transform="translate(-2.542 -38.556)" fill="#56509a"/>
        <path id="Tracé_662" data-name="Tracé 662" d="M4.35,68.524c-.073.034-.083.2-.212.076-.048-.047-.1-.083-.025-.153.148-.13.147.071.236.077" transform="translate(-2.538 -42.612)" fill="#56509a"/>
        <path id="Tracé_663" data-name="Tracé 663" d="M4.39,36.295c-.123.026-.131.205-.275.084-.08-.068-.025-.1.023-.153.128-.129.139.04.253.069" transform="translate(-2.538 -22.537)" fill="#56509a"/>
        <path id="Tracé_664" data-name="Tracé 664" d="M4.343,32c-.071.037-.091.187-.2.066-.044-.048-.107-.083-.026-.153.143-.124.154.056.23.086" transform="translate(-2.539 -19.856)" fill="#56509a"/>
        <path id="Tracé_665" data-name="Tracé 665" d="M4.088,44.953c.084-.132.173-.153.262,0-.084.132-.173.153-.262,0" transform="translate(-2.547 -27.937)" fill="#56509a"/>
        <path id="Tracé_666" data-name="Tracé 666" d="M4.35,53.505c-.084.132-.173.153-.262,0,.084-.132.173-.153.262,0" transform="translate(-2.547 -33.263)" fill="#56509a"/>
        <path id="Tracé_667" data-name="Tracé 667" d="M4.242,42.918c-.142-.078-.164-.161,0-.244.142.078.164.161,0,.244" transform="translate(-2.571 -26.584)" fill="#56509a"/>
        <path id="Tracé_668" data-name="Tracé 668" d="M4.351,34.167c-.087.151-.177.14-.262,0,.087-.151.177-.14.262,0" transform="translate(-2.547 -21.217)" fill="#56509a"/>
        <path id="Tracé_669" data-name="Tracé 669" d="M4.242,66.426c-.149-.079-.16-.163,0-.244.149.079.16.163,0,.244" transform="translate(-2.57 -41.228)" fill="#56509a"/>
        <path id="Tracé_670" data-name="Tracé 670" d="M4.242,55.5c.157.08.155.164,0,.244-.157-.08-.155-.164,0-.244" transform="translate(-2.57 -34.571)" fill="#56509a"/>
        <path id="Tracé_671" data-name="Tracé 671" d="M4.243,40.78c-.157-.08-.155-.164,0-.244.157.08.155.164,0,.244" transform="translate(-2.57 -25.252)" fill="#56509a"/>
        <path id="Tracé_672" data-name="Tracé 672" d="M4.376,38.533c-.053.047-.1.115-.142.117A.145.145,0,0,1,4.1,38.53c0-.04.082-.115.119-.111.053.006.1.07.152.114" transform="translate(-2.557 -23.933)" fill="#56509a"/>
        <path id="Tracé_673" data-name="Tracé 673" d="M4.377,64.177c-.053.044-.1.109-.151.115-.037,0-.118-.071-.119-.112a.145.145,0,0,1,.128-.12c.044,0,.088.069.142.117" transform="translate(-2.558 -39.906)" fill="#56509a"/>
        <path id="Tracé_674" data-name="Tracé 674" d="M4.214,47.174c-.061-.009-.121-.065-.113-.089a.209.209,0,0,1,.118-.117c.051-.016.1.045.1.087.006.06-.058.089-.107.119" transform="translate(-2.554 -29.257)" fill="#56509a"/>
        <path id="Tracé_675" data-name="Tracé 675" d="M4.317,57.751c-.032.048-.064.109-.132.1-.037,0-.068-.056-.1-.086.043-.041.08-.1.13-.115s.087.047.1.1" transform="translate(-2.544 -35.913)" fill="#56509a"/>
        <path id="Tracé_676" data-name="Tracé 676" d="M4.287,49.306c-.051-.031-.106-.057-.1-.109a.106.106,0,0,1,.1-.1c.031,0,.08.053.09.089.015.058-.06.074-.085.117" transform="translate(-2.605 -30.586)" fill="#56509a"/>
        <path id="Tracé_677" data-name="Tracé 677" d="M4.377,59.88a.133.133,0,0,1-.1.1c-.029,0-.081-.052-.091-.088-.015-.055.047-.1.089-.107s.084.047.106.094" transform="translate(-2.604 -37.244)" fill="#56509a"/>
        <path id="Tracé_678" data-name="Tracé 678" d="M61.991,30.81a.3.3,0,0,1-.3.294.288.288,0,1,1-.018-.575c.216,0,.314.084.316.281" transform="translate(-38.233 -19.019)" fill="#56509a"/>
        <path id="Tracé_679" data-name="Tracé 679" d="M61.991,45.872c0,.2-.089.294-.3.3a.306.306,0,0,1-.317-.276.31.31,0,0,1,.322-.3.306.306,0,0,1,.294.278" transform="translate(-38.233 -28.403)" fill="#56509a"/>
        <path id="Tracé_680" data-name="Tracé 680" d="M61.688,65.4a.311.311,0,0,1-.315-.26.306.306,0,0,1,.3-.315.3.3,0,0,1,.313.281c0,.2-.09.292-.3.294" transform="translate(-38.232 -40.384)" fill="#56509a"/>
        <path id="Tracé_681" data-name="Tracé 681" d="M61.991,69.493c0,.2-.1.287-.311.286a.307.307,0,0,1-.306-.267.313.313,0,0,1,.334-.308.306.306,0,0,1,.283.289" transform="translate(-38.233 -43.111)" fill="#56509a"/>
        <path id="Tracé_682" data-name="Tracé 682" d="M61.991,56.565c0,.2-.093.289-.307.29a.289.289,0,1,1,.02-.575.3.3,0,0,1,.287.285" transform="translate(-38.233 -35.06)" fill="#56509a"/>
        <path id="Tracé_683" data-name="Tracé 683" d="M61.99,43.737c0,.2-.09.292-.3.294a.311.311,0,0,1-.316-.259.317.317,0,0,1,.324-.316.305.305,0,0,1,.293.28" transform="translate(-38.232 -27.072)" fill="#56509a"/>
        <path id="Tracé_684" data-name="Tracé 684" d="M61.99,32.948a.254.254,0,0,1-.279.3.317.317,0,0,1-.338-.262.306.306,0,0,1,.3-.314.3.3,0,0,1,.313.28" transform="translate(-38.232 -20.351)" fill="#56509a"/>
        <path id="Tracé_685" data-name="Tracé 685" d="M61.688,60.552c.212,0,.3.093.3.294a.305.305,0,0,1-.291.281.317.317,0,0,1-.325-.315.311.311,0,0,1,.314-.26" transform="translate(-38.232 -37.721)" fill="#56509a"/>
        <path id="Tracé_686" data-name="Tracé 686" d="M61.99,37.331a.287.287,0,0,1-.3.288.29.29,0,1,1,.009-.576.265.265,0,0,1,.291.288" transform="translate(-38.232 -23.076)" fill="#56509a"/>
        <path id="Tracé_687" data-name="Tracé 687" d="M61.99,52.294a.265.265,0,0,1-.291.285A.29.29,0,1,1,61.706,52a.262.262,0,0,1,.285.291" transform="translate(-38.232 -32.395)" fill="#56509a"/>
        <path id="Tracé_688" data-name="Tracé 688" d="M61.991,67.36a.306.306,0,0,1-.291.28.364.364,0,0,1-.325-.3.306.306,0,0,1,.317-.276c.21,0,.3.094.3.295" transform="translate(-38.233 -41.778)" fill="#56509a"/>
        <path id="Tracé_689" data-name="Tracé 689" d="M61.991,41.612a.254.254,0,0,1-.294.281.309.309,0,0,1-.323-.276.306.306,0,0,1,.319-.3.3.3,0,0,1,.3.294" transform="translate(-38.233 -25.739)" fill="#56509a"/>
        <path id="Tracé_690" data-name="Tracé 690" d="M61.991,58.7a.309.309,0,0,1-.617-.015.313.313,0,0,1,.328-.271.254.254,0,0,1,.289.286" transform="translate(-38.233 -36.39)" fill="#56509a"/>
        <path id="Tracé_691" data-name="Tracé 691" d="M61.991,48.011a.3.3,0,0,1-.3.294.305.305,0,0,1-.319-.3.31.31,0,0,1,.323-.276.253.253,0,0,1,.294.281" transform="translate(-38.233 -29.733)" fill="#56509a"/>
        <path id="Tracé_692" data-name="Tracé 692" d="M61.706,54.724a.315.315,0,0,1-.332-.261.357.357,0,0,1,.337-.31.3.3,0,0,1,.28.288c0,.195-.089.282-.285.283" transform="translate(-38.233 -33.734)" fill="#56509a"/>
        <path id="Tracé_693" data-name="Tracé 693" d="M61.991,39.476a.253.253,0,0,1-.294.281.289.289,0,1,1,0-.575.3.3,0,0,1,.3.294" transform="translate(-38.233 -24.408)" fill="#56509a"/>
        <path id="Tracé_694" data-name="Tracé 694" d="M61.991,62.983a.254.254,0,0,1-.293.282.31.31,0,0,1-.324-.274.306.306,0,0,1,.318-.3.3.3,0,0,1,.3.293" transform="translate(-38.233 -39.053)" fill="#56509a"/>
        <path id="Tracé_695" data-name="Tracé 695" d="M59.984,39.473c0,.195-.087.282-.284.284a.253.253,0,0,1-.292-.282.262.262,0,0,1,.281-.294c.2,0,.3.087.295.292" transform="translate(-37.008 -24.408)" fill="#56509a"/>
        <path id="Tracé_696" data-name="Tracé 696" d="M59.984,52.3c0,.191-.093.279-.291.278a.288.288,0,0,1,0-.575c.2,0,.291.088.29.3" transform="translate(-37.008 -32.396)" fill="#56509a"/>
        <path id="Tracé_697" data-name="Tracé 697" d="M59.984,62.988c0,.19-.093.278-.29.278a.253.253,0,0,1-.286-.287.263.263,0,0,1,.287-.288c.2,0,.29.088.289.3" transform="translate(-37.008 -39.053)" fill="#56509a"/>
        <path id="Tracé_698" data-name="Tracé 698" d="M59.984,48.02c0,.187-.089.282-.264.284a.3.3,0,0,1-.312-.28.257.257,0,0,1,.3-.3c.2.005.277.091.277.291" transform="translate(-37.008 -29.733)" fill="#56509a"/>
        <path id="Tracé_699" data-name="Tracé 699" d="M59.984,37.34c0,.192-.092.28-.289.279a.263.263,0,0,1-.287-.288.253.253,0,0,1,.286-.287c.2,0,.291.088.29.3" transform="translate(-37.008 -23.077)" fill="#56509a"/>
        <path id="Tracé_700" data-name="Tracé 700" d="M59.984,41.61c0,.2-.088.282-.285.284a.252.252,0,0,1-.291-.284.3.3,0,0,1,.3-.292c.183,0,.277.094.276.292" transform="translate(-37.008 -25.739)" fill="#56509a"/>
        <path id="Tracé_701" data-name="Tracé 701" d="M59.984,58.707c0,.187-.092.283-.267.283a.277.277,0,0,1-.309-.3.254.254,0,0,1,.3-.279c.2,0,.279.09.278.292" transform="translate(-37.008 -36.389)" fill="#56509a"/>
        <path id="Tracé_702" data-name="Tracé 702" d="M59.984,65.124c0,.192-.092.28-.29.279a.253.253,0,0,1-.287-.287.306.306,0,0,1,.283-.288c.2-.005.294.092.293.3" transform="translate(-37.008 -40.384)" fill="#56509a"/>
        <path id="Tracé_703" data-name="Tracé 703" d="M61.7,49.866c.205,0,.294.075.294.25,0,.2-.087.285-.281.287a.31.31,0,0,1-.336-.277c.007-.163.127-.26.323-.261" transform="translate(-38.233 -31.064)" fill="#56509a"/>
        <path id="Tracé_704" data-name="Tracé 704" d="M59.984,43.769c0,.192-.081.268-.278.265s-.3-.094-.3-.3a.291.291,0,0,1,.291-.276c.176.023.3.05.285.306" transform="translate(-37.008 -27.075)" fill="#56509a"/>
        <path id="Tracé_705" data-name="Tracé 705" d="M59.984,56.59c0,.19-.082.27-.275.268-.21,0-.3-.092-.3-.293a.289.289,0,0,1,.288-.279c.179.02.3.054.288.3" transform="translate(-37.008 -35.063)" fill="#56509a"/>
        <path id="Tracé_706" data-name="Tracé 706" d="M59.984,32.961c0,.194-.089.282-.286.282a.252.252,0,0,1-.29-.284.3.3,0,0,1,.3-.291c.2.008.277.095.276.293" transform="translate(-37.008 -20.351)" fill="#56509a"/>
        <path id="Tracé_707" data-name="Tracé 707" d="M59.984,60.832c0,.2-.091.29-.28.294a.3.3,0,0,1-.3-.294c0-.2.1-.283.314-.281.192,0,.264.079.262.281" transform="translate(-37.008 -37.721)" fill="#56509a"/>
        <path id="Tracé_708" data-name="Tracé 708" d="M59.984,69.512c0,.19-.085.27-.28.267s-.294-.09-.3-.281a.305.305,0,0,1,.28-.294.287.287,0,0,1,.3.308" transform="translate(-37.008 -43.11)" fill="#56509a"/>
        <path id="Tracé_709" data-name="Tracé 709" d="M61.7,35.443c-.2,0-.319-.1-.324-.263a.311.311,0,0,1,.342-.274.243.243,0,0,1,.274.278c0,.177-.1.261-.293.26" transform="translate(-38.233 -21.745)" fill="#56509a"/>
        <path id="Tracé_710" data-name="Tracé 710" d="M59.984,45.909a.232.232,0,0,1-.266.26c-.216,0-.311-.087-.31-.288a.3.3,0,0,1,.287-.287.279.279,0,0,1,.289.315" transform="translate(-37.008 -28.403)" fill="#56509a"/>
        <path id="Tracé_711" data-name="Tracé 711" d="M59.984,30.814a.283.283,0,0,1-.294.291.306.306,0,0,1-.282-.291c0-.2.1-.286.314-.284.186,0,.265.088.262.284" transform="translate(-37.008 -19.019)" fill="#56509a"/>
        <path id="Tracé_712" data-name="Tracé 712" d="M59.984,67.333a.287.287,0,0,1-.3.307.3.3,0,0,1-.279-.294c0-.191.094-.278.3-.281s.278.077.279.268" transform="translate(-37.008 -41.778)" fill="#56509a"/>
        <path id="Tracé_713" data-name="Tracé 713" d="M59.984,54.456c0,.2-.081.269-.3.267-.2,0-.279-.079-.279-.264a.3.3,0,0,1,.281-.307.281.281,0,0,1,.3.3" transform="translate(-37.008 -33.734)" fill="#56509a"/>
        <path id="Tracé_714" data-name="Tracé 714" d="M59.7,49.866c.213,0,.291.075.289.278,0,.185-.084.259-.287.26s-.291-.075-.289-.278c0-.185.084-.26.287-.26" transform="translate(-37.008 -31.064)" fill="#56509a"/>
        <path id="Tracé_715" data-name="Tracé 715" d="M59.68,35.443c-.2,0-.273-.08-.272-.274s.085-.267.3-.264c.2,0,.273.08.272.274s-.085.267-.3.264" transform="translate(-37.008 -21.745)" fill="#56509a"/>
        <path id="Tracé_716" data-name="Tracé 716" d="M61.138,32.131c-.042.074-.09.147-.157.145a.132.132,0,1,1,.013-.264c.049,0,.1.077.144.12" transform="translate(-37.909 -19.942)" fill="#56509a"/>
        <path id="Tracé_717" data-name="Tracé 717" d="M60.993,68.8c-.169-.135-.169-.135,0-.281.162.092.2.186,0,.281" transform="translate(-37.916 -42.683)" fill="#56509a"/>
        <path id="Tracé_718" data-name="Tracé 718" d="M61.142,62.138c-.084.059-.111.149-.2.135-.044-.007-.11-.055-.1-.107a.159.159,0,0,1,.146-.128c.049,0,.095.062.148.1" transform="translate(-37.904 -38.646)" fill="#56509a"/>
        <path id="Tracé_719" data-name="Tracé 719" d="M61.015,64.248c.168.083.146.166,0,.244-.168-.083-.146-.166,0-.244" transform="translate(-37.938 -40.023)" fill="#56509a"/>
        <path id="Tracé_720" data-name="Tracé 720" d="M60.862,34.371c.086-.146.176-.144.262,0-.086.146-.176.144-.262,0" transform="translate(-37.914 -21.344)" fill="#56509a"/>
        <path id="Tracé_721" data-name="Tracé 721" d="M61,66.654c-.05-.05-.124-.09-.125-.132a.143.143,0,0,1,.128-.12c.043,0,.124.076.119.11-.006.049-.075.092-.122.142" transform="translate(-37.925 -41.365)" fill="#56509a"/>
        <path id="Tracé_722" data-name="Tracé 722" d="M60.862,51.467c.085-.139.174-.149.262,0-.084.139-.174.149-.262,0" transform="translate(-37.914 -31.994)" fill="#56509a"/>
        <path id="Tracé_723" data-name="Tracé 723" d="M61.016,40.74c.157.08.155.164,0,.244-.157-.08-.155-.164,0-.244" transform="translate(-37.937 -25.379)" fill="#56509a"/>
        <path id="Tracé_724" data-name="Tracé 724" d="M61,55.968c-.05-.05-.124-.09-.125-.132a.143.143,0,0,1,.128-.12c.043,0,.124.076.119.11-.006.049-.075.092-.122.142" transform="translate(-37.925 -34.708)" fill="#56509a"/>
        <path id="Tracé_725" data-name="Tracé 725" d="M61.15,36.5c-.054.044-.1.108-.152.114-.037,0-.119-.071-.119-.111a.144.144,0,0,1,.129-.119c.045,0,.089.069.142.116" transform="translate(-37.925 -22.664)" fill="#56509a"/>
        <path id="Tracé_726" data-name="Tracé 726" d="M61.015,42.877c.168.083.146.166,0,.244-.168-.083-.146-.166,0-.244" transform="translate(-37.938 -26.71)" fill="#56509a"/>
        <path id="Tracé_727" data-name="Tracé 727" d="M61.15,45.147c-.054.044-.1.108-.152.114-.037,0-.119-.071-.119-.111a.144.144,0,0,1,.129-.119c.045,0,.089.069.142.116" transform="translate(-37.925 -28.052)" fill="#56509a"/>
        <path id="Tracé_728" data-name="Tracé 728" d="M61.124,53.707c-.085.139-.174.149-.262,0,.084-.139.174-.149.262,0" transform="translate(-37.914 -33.389)" fill="#56509a"/>
        <path id="Tracé_729" data-name="Tracé 729" d="M60.965,38.574c.055.028.12.059.112.119a.117.117,0,0,1-.125.1.12.12,0,0,1-.1-.1c0-.06.059-.092.116-.117" transform="translate(-37.906 -24.03)" fill="#56509a"/>
        <path id="Tracé_730" data-name="Tracé 730" d="M61.1,49.388c-.031.039-.057.1-.109.087a.211.211,0,0,1-.118-.117c-.008-.023.053-.094.11-.084a.153.153,0,0,1,.117.113" transform="translate(-37.921 -30.695)" fill="#56509a"/>
        <path id="Tracé_731" data-name="Tracé 731" d="M61.011,60.182c-.052-.048-.127-.075-.123-.141,0-.029.064-.076.1-.076a.121.121,0,0,1,.117.106c.006.053-.06.072-.093.11" transform="translate(-37.93 -37.356)" fill="#56509a"/>
        <path id="Tracé_732" data-name="Tracé 732" d="M61.055,47.369c-.044-.027-.1-.053-.1-.106a.106.106,0,0,1,.1-.1c.031,0,.081.053.09.089.014.055-.053.078-.091.113" transform="translate(-37.972 -29.382)" fill="#56509a"/>
        <path id="Tracé_733" data-name="Tracé 733" d="M61.042,57.835c.05.021.1.051.1.1s-.052.1-.1.1c-.026,0-.081-.051-.092-.087-.016-.056.05-.08.088-.116" transform="translate(-37.97 -36.028)" fill="#56509a"/>
        <path id="Tracé_734" data-name="Tracé 734" d="M43.654,2.89c-.112-.032-.081-.107-.081-.166,0-.441,0-.882,0-1.323,0-.142.047-.2.2-.187s.315,0,.473,0c.085,0,.152.017.152.112q0,.748,0,1.5c0,.02-.024.04-.039.064-.067-.047-.037-.105-.037-.153,0-.434-.006-.869,0-1.3,0-.133-.045-.181-.19-.178-.563.013-.464-.068-.47.431-.005.4,0,.8,0,1.207" transform="translate(-27.141 -0.756)" fill="#56509a"/>
        <path id="Tracé_735" data-name="Tracé 735" d="M46.407,6.568c0,.222,0,.445,0,.667,0,.047-.061.04-.1.04-.219,0-.438,0-.657,0-.046,0-.107.008-.094-.063s.062-.012.092-.012c.171,0,.342-.006.513,0,.14.006.179-.054.173-.173-.007-.152,0-.305,0-.458l.077,0" transform="translate(-28.377 -4.092)" fill="#56509a"/>
        <path id="Tracé_736" data-name="Tracé 736" d="M42.394,7.26h-.77c-.073,0-.118-.033-.119-.1,0-.172,0-.345,0-.517,0-.051.023-.1.075-.1.074,0,.046.066.046.1,0,.147,0,.294,0,.44,0,.1.044.138.148.137.208,0,.416,0,.624,0,0,.013,0,.025,0,.038" transform="translate(-25.855 -4.076)" fill="#56509a"/>
        <path id="Tracé_737" data-name="Tracé 737" d="M47.837,2.469V1.2a2.4,2.4,0,0,1,0,1.268" transform="translate(-29.8 -0.748)" fill="#56509a"/>
        <path id="Tracé_738" data-name="Tracé 738" d="M46.166,1.276V2.509a2.217,2.217,0,0,1,0-1.233" transform="translate(-28.704 -0.795)" fill="#56509a"/>
        <path id="Tracé_739" data-name="Tracé 739" d="M41.47,1.4V2.624h-.021V1.395l.021,0" transform="translate(-25.821 -0.869)" fill="#56509a"/>
        <path id="Tracé_740" data-name="Tracé 740" d="M44.206,6.591c-.068,0-.137,0-.205,0-.029,0-.079.056-.086-.02-.005-.057.041-.056.082-.057h.451c.045,0,.086.01.075.063-.015.071-.061.011-.092.013-.075.006-.15,0-.225,0" transform="translate(-27.357 -4.058)" fill="#56509a"/>
        <path id="Tracé_741" data-name="Tracé 741" d="M43.056,2.627V1.489h.02V2.621l-.02.006" transform="translate(-26.822 -0.928)" fill="#56509a"/>
        <path id="Tracé_742" data-name="Tracé 742" d="M39.73,27.8a.578.578,0,0,1-.635-.57.6.6,0,0,1,.645-.587.6.6,0,0,1,.635.576.583.583,0,0,1-.644.581" transform="translate(-24.354 -16.598)" fill="#56509a"/>
        <path id="Tracé_743" data-name="Tracé 743" d="M25.639,27.259c.041.388-.33.581-.637.589a.636.636,0,0,1-.637-.592.643.643,0,0,1,.652-.6.577.577,0,0,1,.623.6" transform="translate(-15.178 -16.607)" fill="#56509a"/>
        <path id="Tracé_744" data-name="Tracé 744" d="M9.382,15.335c-.209,0-.309-.089-.307-.273a.309.309,0,0,1,.618,0c0,.172-.114.272-.311.271" transform="translate(-5.653 -9.196)" fill="#56509a"/>
        <path id="Tracé_745" data-name="Tracé 745" d="M9.39,16.995c.208,0,.3.083.3.267s-.1.269-.3.271-.31-.084-.313-.263.093-.275.315-.274" transform="translate(-5.653 -10.587)" fill="#56509a"/>
        <path id="Tracé_746" data-name="Tracé 746" d="M9.381,11.058a.292.292,0,0,1-.306-.265.311.311,0,1,1,.306.265" transform="translate(-5.653 -6.531)" fill="#56509a"/>
        <path id="Tracé_747" data-name="Tracé 747" d="M9.366,21.371c.227,0,.327.083.327.269s-.1.268-.328.268c-.2,0-.3-.092-.29-.279s.1-.259.291-.259" transform="translate(-5.653 -13.313)" fill="#56509a"/>
        <path id="Tracé_748" data-name="Tracé 748" d="M9.076,19.416a.29.29,0,0,1,.285-.283.29.29,0,1,1,.017.575.3.3,0,0,1-.3-.292" transform="translate(-5.654 -11.919)" fill="#56509a"/>
        <path id="Tracé_749" data-name="Tracé 749" d="M9.37,13.2a.288.288,0,0,1-.294-.274.31.31,0,1,1,.294.274" transform="translate(-5.654 -7.861)" fill="#56509a"/>
        <path id="Tracé_750" data-name="Tracé 750" d="M56.178,53.274c0,1.272,0,2.544,0,3.816,0,.158-.038.219-.213.2s-.388.064-.5-.031-.034-.3-.034-.46c0-2.454,0-4.909-.006-7.363,0-.167.038-.233.224-.208.167.023.391-.068.49.038.083.089.031.291.031.443q0,1.783,0,3.567" transform="translate(-34.52 -30.656)" fill="#56509a"/>
        <path id="Tracé_751" data-name="Tracé 751" d="M45.177,34.077a.288.288,0,0,1-.3.285.289.289,0,1,1,0-.575.288.288,0,0,1,.3.29" transform="translate(-27.758 -21.048)" fill="#56509a"/>
        <path id="Tracé_752" data-name="Tracé 752" d="M42.266,34.072a.289.289,0,0,1,.285-.284.29.29,0,1,1,.018.575.3.3,0,0,1-.3-.291" transform="translate(-26.33 -21.048)" fill="#56509a"/>
        <path id="Tracé_753" data-name="Tracé 753" d="M40.591,34.063a.31.31,0,1,1-.3-.275.305.305,0,0,1,.3.275" transform="translate(-24.901 -21.048)" fill="#56509a"/>
        <path id="Tracé_754" data-name="Tracé 754" d="M56.177,33.79c0,.991,0,1.981,0,2.972,0,.147-.043.192-.195.176-.175-.018-.4.067-.515-.033s-.034-.315-.034-.479c0-1.872,0-3.745-.006-5.617,0-.173.049-.228.227-.205s.392-.069.489.039c.083.091.029.292.029.444q0,1.352,0,2.7" transform="translate(-34.519 -19.055)" fill="#56509a"/>
        <path id="Tracé_755" data-name="Tracé 755" d="M9,42.449c0,.991,0,1.981,0,2.972,0,.152-.043.192-.2.189-.5-.008-.5,0-.5-.465,0-1.892,0-3.783,0-5.675,0-.16.043-.2.214-.2.49.01.49,0,.49.456Z" transform="translate(-5.17 -24.464)" fill="#56509a"/>
        <path id="Tracé_756" data-name="Tracé 756" d="M9,60.5c0,.741,0,1.483,0,2.223,0,.144-.039.182-.193.18-.511-.006-.511,0-.511-.474,0-1.38,0-2.76,0-4.14,0-.151.041-.192.2-.189.5.008.5,0,.5.465Z" transform="translate(-5.171 -36.193)" fill="#56509a"/>
        <path id="Tracé_757" data-name="Tracé 757" d="M62.586,7.091a.3.3,0,0,1-.326-.265.369.369,0,0,1,.3-.309.3.3,0,0,1,.315.3c0,.2-.077.277-.287.277" transform="translate(-38.785 -4.06)" fill="#56509a"/>
        <path id="Tracé_758" data-name="Tracé 758" d="M62.872,4.746c0,.2-.081.271-.3.269a.3.3,0,0,1-.315-.278.3.3,0,0,1,.314-.26c.217,0,.3.071.3.268" transform="translate(-38.784 -2.79)" fill="#56509a"/>
        <path id="Tracé_759" data-name="Tracé 759" d="M32.868,3.937c-.209,0-.313-.081-.319-.257a.309.309,0,0,1,.618-.018c0,.181-.1.273-.3.276" transform="translate(-20.276 -2.095)" fill="#56509a"/>
        <path id="Tracé_760" data-name="Tracé 760" d="M30.566,3.936a.31.31,0,0,1-.308-.264.309.309,0,0,1,.307-.31.3.3,0,0,1,.31.307c0,.179-.1.267-.308.267" transform="translate(-18.849 -2.095)" fill="#56509a"/>
        <path id="Tracé_761" data-name="Tracé 761" d="M12.513,19.605c-.19-.008-.278-.106-.271-.305s.112-.279.308-.27a.283.283,0,0,1,.295.294.289.289,0,0,1-.332.281" transform="translate(-7.626 -11.855)" fill="#56509a"/>
        <path id="Tracé_762" data-name="Tracé 762" d="M12.53,21.168a.28.28,0,0,1,.312.276.332.332,0,0,1-.317.3.306.306,0,0,1-.283-.288.254.254,0,0,1,.288-.287" transform="translate(-7.626 -13.187)" fill="#56509a"/>
        <path id="Tracé_763" data-name="Tracé 763" d="M3.32,6.794a.254.254,0,0,1-.281.3c-.2,0-.294-.09-.295-.3,0-.182.088-.269.278-.273a.254.254,0,0,1,.3.28" transform="translate(-1.709 -4.058)" fill="#56509a"/>
        <path id="Tracé_764" data-name="Tracé 764" d="M3.32,4.656a.254.254,0,0,1-.282.295c-.193,0-.292-.084-.294-.259,0-.218.081-.313.279-.317a.254.254,0,0,1,.3.281" transform="translate(-1.709 -2.726)" fill="#56509a"/>
        <path id="Tracé_765" data-name="Tracé 765" d="M36.349,44.879c.06,0,.116-.008.118.071s-.041.084-.1.081-.1.005-.1-.062.018-.1.087-.09" transform="translate(-22.589 -27.957)" fill="#56509a"/>
        <path id="Tracé_766" data-name="Tracé 766" d="M38.125,42.292a.16.16,0,0,1-.174.149.151.151,0,1,1,0-.3.158.158,0,0,1,.171.153" transform="translate(-23.545 -26.25)" fill="#56509a"/>
        <path id="Tracé_767" data-name="Tracé 767" d="M34.82,45.3c.042.013.079.034.074.076s-.046.072-.1.072a.049.049,0,0,1-.056-.059.091.091,0,0,1,.081-.089" transform="translate(-21.64 -28.218)" fill="#56509a"/>
        <path id="Tracé_768" data-name="Tracé 768" d="M5.809,16.145c-.019.024-.035.053-.074.052s-.037-.03-.037-.052,0-.052.037-.052.054.028.074.052" transform="translate(-3.55 -10.025)" fill="#56509a"/>
        <path id="Tracé_769" data-name="Tracé 769" d="M4.919,63c0-.159.073-.212.215-.214s.187.089.194.191a.173.173,0,0,1-.2.19c-.117,0-.233-.04-.213-.167" transform="translate(-3.063 -39.113)" fill="#fff"/>
        <path id="Tracé_770" data-name="Tracé 770" d="M4.922,52.295c0-.138.046-.209.2-.2.131.009.213.051.206.179a.2.2,0,0,1-.218.2c-.11,0-.217-.052-.192-.183" transform="translate(-3.064 -32.453)" fill="#fff"/>
        <path id="Tracé_771" data-name="Tracé 771" d="M4.912,39.488c.008-.17.094-.212.23-.209s.179.1.179.2a.176.176,0,0,1-.208.178c-.123-.009-.225-.058-.2-.172" transform="translate(-3.058 -24.469)" fill="#fff"/>
        <path id="Tracé_772" data-name="Tracé 772" d="M5.1,34.9c.141,0,.237.06.235.187,0,.1-.034.2-.185.2s-.219-.044-.222-.184c0-.121.046-.193.172-.2" transform="translate(-3.067 -21.742)" fill="#fff"/>
        <path id="Tracé_773" data-name="Tracé 773" d="M4.925,37.322c-.021-.128.027-.19.176-.184.13.005.235.026.232.172a.2.2,0,0,1-.207.209c-.12,0-.228-.05-.2-.2" transform="translate(-3.065 -23.135)" fill="#fff"/>
        <path id="Tracé_774" data-name="Tracé 774" d="M5.108,41.8a.171.171,0,0,1-.184-.2c0-.138.075-.188.216-.19s.188.092.192.194c0,.127-.088.186-.224.193" transform="translate(-3.067 -25.8)" fill="#fff"/>
        <path id="Tracé_775" data-name="Tracé 775" d="M5.1,67.457c-.123.018-.178-.031-.181-.168a.183.183,0,0,1,.214-.211.2.2,0,0,1,.2.2c.007.14-.082.188-.234.182" transform="translate(-3.062 -41.787)" fill="#fff"/>
        <path id="Tracé_776" data-name="Tracé 776" d="M5.329,60.782a.2.2,0,0,1-.225.193.178.178,0,0,1-.195-.2c.008-.13.075-.2.186-.2a.212.212,0,0,1,.235.208" transform="translate(-3.057 -37.735)" fill="#fff"/>
        <path id="Tracé_777" data-name="Tracé 777" d="M4.919,30.761c-.034-.157.067-.215.19-.218a.2.2,0,0,1,.215.2.19.19,0,0,1-.214.2c-.1,0-.252-.028-.191-.186" transform="translate(-3.056 -19.027)" fill="#fff"/>
        <path id="Tracé_778" data-name="Tracé 778" d="M5.128,33.152c-.151-.008-.206-.075-.2-.2,0-.138.074-.188.216-.19s.188.091.192.193c.005.129-.091.183-.2.195" transform="translate(-3.067 -20.41)" fill="#fff"/>
        <path id="Tracé_779" data-name="Tracé 779" d="M4.922,58.638c-.046-.161.1-.189.2-.187a.192.192,0,0,1,.208.208.2.2,0,0,1-.2.2c-.135,0-.236-.06-.2-.216" transform="translate(-3.061 -36.412)" fill="#fff"/>
        <path id="Tracé_780" data-name="Tracé 780" d="M5.136,65.311c-.154-.005-.213-.07-.212-.194s.068-.19.212-.194.19.087.2.19c.008.129-.088.184-.2.2" transform="translate(-3.067 -40.444)" fill="#fff"/>
        <path id="Tracé_781" data-name="Tracé 781" d="M4.922,47.952c-.046-.161.1-.189.2-.187a.192.192,0,0,1,.208.208.2.2,0,0,1-.2.2c-.135,0-.236-.06-.2-.216" transform="translate(-3.061 -29.755)" fill="#fff"/>
        <path id="Tracé_782" data-name="Tracé 782" d="M3.263,58.672c.014.141-.093.183-.2.182a.2.2,0,0,1-.209-.208.187.187,0,0,1,.2-.195.194.194,0,0,1,.211.221" transform="translate(-1.777 -36.412)" fill="#fff"/>
        <path id="Tracé_783" data-name="Tracé 783" d="M4.92,56.522c0-.08.059-.143.206-.149a.175.175,0,0,1,.2.184c.011.126-.074.195-.209.2s-.2-.061-.2-.236" transform="translate(-3.065 -35.117)" fill="#fff"/>
        <path id="Tracé_784" data-name="Tracé 784" d="M5.146,50.251c-.156,0-.224-.06-.222-.2s.058-.193.2-.188.221.072.213.2c-.007.1-.05.2-.187.186" transform="translate(-3.067 -31.065)" fill="#fff"/>
        <path id="Tracé_785" data-name="Tracé 785" d="M5.145,69.3c.138-.014.181.084.187.187.008.126-.08.192-.214.2s-.193-.065-.194-.189.067-.2.221-.195" transform="translate(-3.067 -43.169)" fill="#fff"/>
        <path id="Tracé_786" data-name="Tracé 786" d="M3.266,67.253c0,.149-.073.207-.216.2s-.2-.061-.2-.186a.184.184,0,0,1,.2-.194c.121,0,.23.043.215.176" transform="translate(-1.777 -41.786)" fill="#fff"/>
        <path id="Tracé_787" data-name="Tracé 787" d="M5.1,43.939a.17.17,0,0,1-.178-.2c0-.139.08-.186.219-.187s.187.1.189.2c0,.128-.092.185-.23.19" transform="translate(-3.067 -27.131)" fill="#fff"/>
        <path id="Tracé_788" data-name="Tracé 788" d="M3.262,60.757a.181.181,0,0,1-.208.213.19.19,0,0,1-.2-.2.2.2,0,0,1,.215-.206c.11,0,.217.049.194.191" transform="translate(-1.777 -37.73)" fill="#fff"/>
        <path id="Tracé_789" data-name="Tracé 789" d="M3.265,37.349c.016.128-.089.169-.2.175a.186.186,0,0,1-.212-.2c0-.129.069-.18.2-.181s.214.061.21.206" transform="translate(-1.778 -23.138)" fill="#fff"/>
        <path id="Tracé_790" data-name="Tracé 790" d="M3.264,47.977c.013.15-.1.192-.205.189a.2.2,0,0,1-.205-.215.194.194,0,0,1,.212-.189.181.181,0,0,1,.2.216" transform="translate(-1.778 -29.753)" fill="#fff"/>
        <path id="Tracé_791" data-name="Tracé 791" d="M3.262,30.731a.181.181,0,0,1-.206.218.19.19,0,0,1-.2-.2.2.2,0,0,1,.213-.207c.11,0,.219.045.2.186" transform="translate(-1.777 -19.028)" fill="#fff"/>
        <path id="Tracé_792" data-name="Tracé 792" d="M5.078,54.237c.159,0,.255.061.253.188,0,.1-.034.2-.185.2s-.218-.044-.223-.184a.173.173,0,0,1,.155-.2" transform="translate(-3.066 -33.787)" fill="#fff"/>
        <path id="Tracé_793" data-name="Tracé 793" d="M3.267,52.324c.011.12-.1.155-.207.159a.185.185,0,0,1-.205-.2c0-.129.078-.175.209-.176.149,0,.206.072.2.222" transform="translate(-1.778 -32.457)" fill="#fff"/>
        <path id="Tracé_794" data-name="Tracé 794" d="M3.042,64.924c.17,0,.229.072.224.2a.163.163,0,0,1-.184.18c-.146,0-.225-.072-.227-.209s.081-.178.187-.176" transform="translate(-1.778 -40.444)" fill="#fff"/>
        <path id="Tracé_795" data-name="Tracé 795" d="M4.92,45.836c0-.08.059-.143.206-.15a.175.175,0,0,1,.2.184c.011.126-.074.195-.209.2s-.2-.061-.2-.236" transform="translate(-3.065 -28.46)" fill="#fff"/>
        <path id="Tracé_796" data-name="Tracé 796" d="M3.069,39.278c.147,0,.2.077.2.207s-.107.172-.214.173a.185.185,0,0,1-.2-.21c0-.133.089-.172.215-.17" transform="translate(-1.778 -24.468)" fill="#fff"/>
        <path id="Tracé_797" data-name="Tracé 797" d="M3.063,41.417c.143,0,.207.064.2.2,0,.113-.052.182-.179.185a.2.2,0,0,1-.232-.2c-.006-.129.073-.182.207-.181" transform="translate(-1.779 -25.801)" fill="#fff"/>
        <path id="Tracé_798" data-name="Tracé 798" d="M3.267,32.964a.168.168,0,0,1-.2.186.2.2,0,0,1-.213-.2c0-.13.071-.18.2-.181s.21.066.209.2" transform="translate(-1.778 -20.412)" fill="#fff"/>
        <path id="Tracé_799" data-name="Tracé 799" d="M3.265,35.084c0,.152-.064.215-.209.214s-.207-.053-.2-.181a.186.186,0,0,1,.212-.2c.11.006.218.044.2.167" transform="translate(-1.778 -21.752)" fill="#fff"/>
        <path id="Tracé_800" data-name="Tracé 800" d="M3.266,62.992c.015.133-.094.177-.215.176a.186.186,0,0,1-.2-.212c0-.118.074-.166.2-.169.143,0,.217.053.217.2" transform="translate(-1.778 -39.114)" fill="#fff"/>
        <path id="Tracé_801" data-name="Tracé 801" d="M3.05,50.252c-.118,0-.2-.047-.2-.177s.084-.207.23-.207a.163.163,0,0,1,.182.182c0,.133-.057.2-.216.2" transform="translate(-1.778 -31.065)" fill="#fff"/>
        <path id="Tracé_802" data-name="Tracé 802" d="M3.267,56.551c0,.146-.061.215-.2.21a.2.2,0,0,1-.215-.2c-.005-.129.069-.181.2-.182s.213.063.21.175" transform="translate(-1.778 -35.12)" fill="#fff"/>
        <path id="Tracé_803" data-name="Tracé 803" d="M3.266,69.5a.167.167,0,0,1-.2.187.2.2,0,0,1-.214-.2c0-.129.069-.18.2-.182s.211.065.21.2" transform="translate(-1.778 -43.171)" fill="#fff"/>
        <path id="Tracé_804" data-name="Tracé 804" d="M2.847,43.726c.008-.125.083-.175.215-.172s.2.06.2.186-.046.2-.186.2a.2.2,0,0,1-.229-.212" transform="translate(-1.774 -27.132)" fill="#fff"/>
        <path id="Tracé_805" data-name="Tracé 805" d="M3.043,54.625c-.1,0-.191-.044-.185-.173.005-.11.031-.213.191-.214.139,0,.216.046.219.185s-.057.2-.225.2" transform="translate(-1.78 -33.788)" fill="#fff"/>
        <path id="Tracé_806" data-name="Tracé 806" d="M3.048,45.689c.14,0,.217.05.218.188s-.058.194-.2.2-.195-.089-.207-.2c-.014-.126.064-.182.192-.187" transform="translate(-1.778 -28.462)" fill="#fff"/>
        <path id="Tracé_807" data-name="Tracé 807" d="M61.918,31.125c-.148,0-.218-.051-.224-.188s.093-.189.213-.192a.173.173,0,0,1,.2.19c-.006.1-.044.2-.185.19" transform="translate(-38.432 -19.153)" fill="#fff"/>
        <path id="Tracé_808" data-name="Tracé 808" d="M61.695,46.1c0-.147.066-.2.21-.209a.173.173,0,0,1,.2.187.177.177,0,0,1-.211.194c-.11-.007-.215-.048-.2-.173" transform="translate(-38.431 -28.588)" fill="#fff"/>
        <path id="Tracé_809" data-name="Tracé 809" d="M61.693,65.312c0-.152.074-.2.218-.189s.205.068.191.192a.2.2,0,0,1-.211.189c-.124-.005-.226-.06-.2-.193" transform="translate(-38.429 -40.568)" fill="#fff"/>
        <path id="Tracé_810" data-name="Tracé 810" d="M61.926,69.505c.143-.006.173.1.176.2a.175.175,0,0,1-.2.182c-.123-.006-.215-.055-.205-.2s.089-.186.233-.18" transform="translate(-38.431 -43.298)" fill="#fff"/>
        <path id="Tracé_811" data-name="Tracé 811" d="M62.108,56.761a.193.193,0,0,1-.214.2c-.126-.006-.215-.061-.2-.2.011-.128.079-.176.21-.176s.2.057.205.181" transform="translate(-38.431 -35.247)" fill="#fff"/>
        <path id="Tracé_812" data-name="Tracé 812" d="M62.111,43.9c-.005.148-.065.238-.2.236-.107,0-.215-.031-.214-.173s.047-.2.2-.208c.132,0,.2.049.218.144" transform="translate(-38.433 -27.258)" fill="#fff"/>
        <path id="Tracé_813" data-name="Tracé 813" d="M61.874,32.966c.148,0,.236.04.232.171a.2.2,0,0,1-.212.208c-.111,0-.209-.047-.2-.187.008-.123.032-.218.18-.192" transform="translate(-38.432 -20.534)" fill="#fff"/>
        <path id="Tracé_814" data-name="Tracé 814" d="M62.112,60.96c-.009.139-.081.189-.213.187-.148,0-.2-.071-.2-.2s.1-.175.209-.178a.191.191,0,0,1,.208.193" transform="translate(-38.433 -37.855)" fill="#fff"/>
        <path id="Tracé_815" data-name="Tracé 815" d="M61.692,37.468c-.03-.141.071-.2.179-.2s.232.063.23.21a.2.2,0,0,1-.206.19c-.111,0-.253-.039-.2-.2" transform="translate(-38.424 -23.217)" fill="#fff"/>
        <path id="Tracé_816" data-name="Tracé 816" d="M61.7,52.429c-.032-.136.065-.2.175-.2s.235.059.235.207-.115.193-.223.2c-.123.006-.219-.064-.186-.205" transform="translate(-38.43 -32.536)" fill="#fff"/>
        <path id="Tracé_817" data-name="Tracé 817" d="M61.925,67.657c-.188-.008-.235-.089-.227-.216a.163.163,0,0,1,.193-.17c.134,0,.222.071.214.2s-.058.214-.18.19" transform="translate(-38.434 -41.906)" fill="#fff"/>
        <path id="Tracé_818" data-name="Tracé 818" d="M61.7,41.8c-.023-.134.037-.184.181-.179s.232.035.227.176a.2.2,0,0,1-.212.2c-.122,0-.224-.057-.2-.2" transform="translate(-38.432 -25.924)" fill="#fff"/>
        <path id="Tracé_819" data-name="Tracé 819" d="M61.695,58.84c-.032-.147.067-.2.19-.209a.2.2,0,0,1,.216.2c.014.156-.119.193-.234.2s-.215-.05-.173-.189" transform="translate(-38.427 -36.524)" fill="#fff"/>
        <path id="Tracé_820" data-name="Tracé 820" d="M61.695,48.154c-.031-.148.069-.2.192-.208a.2.2,0,0,1,.215.2c.013.156-.12.193-.235.2s-.214-.052-.172-.189" transform="translate(-38.427 -29.868)" fill="#fff"/>
        <path id="Tracé_821" data-name="Tracé 821" d="M61.915,54.44c.143-.014.19.087.189.2s-.092.187-.227.185a.163.163,0,0,1-.181-.182c0-.133.057-.2.219-.2" transform="translate(-38.434 -33.913)" fill="#fff"/>
        <path id="Tracé_822" data-name="Tracé 822" d="M61.7,39.618c-.05-.161.09-.2.192-.2a.191.191,0,0,1,.214.2.2.2,0,0,1-.216.2c-.12,0-.228-.057-.19-.2" transform="translate(-38.427 -24.556)" fill="#fff"/>
        <path id="Tracé_823" data-name="Tracé 823" d="M61.7,63.12c-.047-.159.1-.193.2-.192a.19.19,0,0,1,.21.2.2.2,0,0,1-.219.2c-.124-.005-.222-.065-.187-.212" transform="translate(-38.428 -39.201)" fill="#fff"/>
        <path id="Tracé_824" data-name="Tracé 824" d="M60.035,39.621c.024.151-.083.2-.205.2a.2.2,0,0,1-.2-.2.193.193,0,0,1,.212-.207.177.177,0,0,1,.2.2" transform="translate(-37.143 -24.555)" fill="#fff"/>
        <path id="Tracé_825" data-name="Tracé 825" d="M60.032,52.43a.158.158,0,0,1-.176.205c-.118,0-.235-.062-.231-.21a.2.2,0,0,1,.226-.2c.121,0,.223.064.181.2" transform="translate(-37.143 -32.537)" fill="#fff"/>
        <path id="Tracé_826" data-name="Tracé 826" d="M60.035,63.139c.023.143-.084.189-.194.191a.2.2,0,0,1-.215-.206.19.19,0,0,1,.2-.2.181.181,0,0,1,.208.213" transform="translate(-37.144 -39.199)" fill="#fff"/>
        <path id="Tracé_827" data-name="Tracé 827" d="M60.037,48.13a.18.18,0,0,1-.2.209c-.107,0-.218-.049-.209-.185a.2.2,0,0,1,.213-.208c.111,0,.217.047.2.183" transform="translate(-37.144 -29.869)" fill="#fff"/>
        <path id="Tracé_828" data-name="Tracé 828" d="M60.037,37.45a.181.181,0,0,1-.2.216.194.194,0,0,1-.212-.189.2.2,0,0,1,.2-.215c.109,0,.218.038.205.188" transform="translate(-37.145 -23.212)" fill="#fff"/>
        <path id="Tracé_829" data-name="Tracé 829" d="M60.04,41.824c.015.133-.094.177-.215.176a.185.185,0,0,1-.2-.212c0-.118.073-.166.2-.169.143,0,.217.053.217.2" transform="translate(-37.144 -25.927)" fill="#fff"/>
        <path id="Tracé_830" data-name="Tracé 830" d="M60.037,58.825a.175.175,0,0,1-.19.211.193.193,0,0,1-.218-.2.2.2,0,0,1,.218-.2c.11,0,.217.051.191.193" transform="translate(-37.145 -36.525)" fill="#fff"/>
        <path id="Tracé_831" data-name="Tracé 831" d="M60.04,65.333c.015.133-.094.177-.215.176a.185.185,0,0,1-.2-.212c0-.118.073-.166.2-.169.143,0,.217.053.217.2" transform="translate(-37.144 -40.572)" fill="#fff"/>
        <path id="Tracé_832" data-name="Tracé 832" d="M61.881,50.453a.174.174,0,0,1-.184-.2c0-.14.084-.183.223-.184s.184.1.185.2c0,.128-.1.183-.224.188" transform="translate(-38.434 -31.188)" fill="#fff"/>
        <path id="Tracé_833" data-name="Tracé 833" d="M59.851,43.757c.149,0,.192.086.189.214s-.115.168-.22.166a.184.184,0,0,1-.192-.217c.007-.132.1-.169.223-.163" transform="translate(-37.145 -27.258)" fill="#fff"/>
        <path id="Tracé_834" data-name="Tracé 834" d="M60.04,56.8c.011.12-.1.156-.207.159a.185.185,0,0,1-.205-.205c0-.129.078-.175.209-.175.149,0,.206.072.2.221" transform="translate(-37.145 -35.247)" fill="#fff"/>
        <path id="Tracé_835" data-name="Tracé 835" d="M59.881,32.966c.085,0,.153.055.16.192s-.086.182-.2.19a.186.186,0,0,1-.216-.195c-.008-.127.065-.184.253-.187" transform="translate(-37.145 -20.536)" fill="#fff"/>
        <path id="Tracé_836" data-name="Tracé 836" d="M59.84,61.149c-.13,0-.212-.045-.212-.175a.185.185,0,0,1,.2-.206c.109,0,.21.038.209.178a.178.178,0,0,1-.2.2" transform="translate(-37.145 -37.855)" fill="#fff"/>
        <path id="Tracé_837" data-name="Tracé 837" d="M60.039,69.714c.012.132-.1.168-.206.172a.185.185,0,0,1-.205-.205c0-.129.078-.175.209-.175.149,0,.208.071.2.209" transform="translate(-37.145 -43.298)" fill="#fff"/>
        <path id="Tracé_838" data-name="Tracé 838" d="M61.916,35.5c-.167,0-.224-.074-.22-.206a.164.164,0,0,1,.184-.179c.134,0,.226.061.224.188s-.051.213-.188.2" transform="translate(-38.434 -21.873)" fill="#fff"/>
        <path id="Tracé_839" data-name="Tracé 839" d="M60.039,46.1c.016.129-.089.169-.2.175a.186.186,0,0,1-.212-.2c0-.129.07-.179.2-.181s.214.061.209.206" transform="translate(-37.145 -28.59)" fill="#fff"/>
        <path id="Tracé_840" data-name="Tracé 840" d="M60.039,30.919c0,.14-.06.206-.207.205-.132,0-.208-.051-.205-.178a.185.185,0,0,1,.209-.2c.11,0,.217.044.2.175" transform="translate(-37.144 -19.152)" fill="#fff"/>
        <path id="Tracé_841" data-name="Tracé 841" d="M59.829,67.655c-.122,0-.2-.046-.2-.176s.083-.208.229-.207a.163.163,0,0,1,.183.181c0,.134-.055.2-.211.2" transform="translate(-37.145 -41.907)" fill="#fff"/>
        <path id="Tracé_842" data-name="Tracé 842" d="M60.04,54.636a.165.165,0,0,1-.19.192.2.2,0,0,1-.222-.214c0-.118.072-.167.195-.17.143,0,.219.051.217.192" transform="translate(-37.145 -33.916)" fill="#fff"/>
        <path id="Tracé_843" data-name="Tracé 843" d="M59.848,50.066a.169.169,0,0,1,.193.193c0,.135-.067.19-.21.194-.161,0-.19-.1-.2-.206-.011-.127.07-.181.218-.181" transform="translate(-37.146 -31.189)" fill="#fff"/>
        <path id="Tracé_844" data-name="Tracé 844" d="M60.039,35.315c-.006.137-.091.182-.228.176s-.2-.075-.183-.2.063-.2.217-.19.2.083.193.211" transform="translate(-37.144 -21.868)" fill="#fff"/>
        <path id="Tracé_845" data-name="Tracé 845" d="M9.739,15.275c-.027.055-.051.161-.19.167a.2.2,0,0,1-.238-.184.168.168,0,0,1,.183-.2c.141,0,.238.039.245.218" transform="translate(-5.799 -9.38)" fill="#fff"/>
        <path id="Tracé_846" data-name="Tracé 846" d="M9.558,17.2a.186.186,0,0,1,.181.2.193.193,0,0,1-.231.188c-.12-.016-.207-.083-.2-.2s.1-.185.253-.185" transform="translate(-5.796 -10.714)" fill="#fff"/>
        <path id="Tracé_847" data-name="Tracé 847" d="M9.528,10.784c.175-.051.214.079.221.175.009.119-.1.193-.222.2a.2.2,0,0,1-.208-.212.153.153,0,0,1,.209-.164" transform="translate(-5.805 -6.711)" fill="#fff"/>
        <path id="Tracé_848" data-name="Tracé 848" d="M9.456,21.584c.208-.014.28.089.281.19a.191.191,0,0,1-.206.19c-.135,0-.222-.06-.228-.185a.175.175,0,0,1,.153-.195" transform="translate(-5.795 -13.445)" fill="#fff"/>
        <path id="Tracé_849" data-name="Tracé 849" d="M9.506,19.763c-.109-.026-.2-.094-.2-.215a.208.208,0,0,1,.228-.2.2.2,0,0,1,.205.194.216.216,0,0,1-.239.217" transform="translate(-5.8 -12.055)" fill="#fff"/>
        <path id="Tracé_850" data-name="Tracé 850" d="M9.75,13.066a.218.218,0,0,1-.21.182.209.209,0,0,1-.228-.2.2.2,0,0,1,.21-.213c.146-.009.2.1.229.227" transform="translate(-5.8 -7.998)" fill="#fff"/>
        <path id="Tracé_851" data-name="Tracé 851" d="M56.134,64.822c.121,0,.192.057.191.193s-.069.195-.212.193-.2-.057-.2-.183.056-.2.223-.2" transform="translate(-34.829 -40.381)" fill="#fff"/>
        <path id="Tracé_852" data-name="Tracé 852" d="M56.136,56.172c.149,0,.195.086.189.214-.008.144-.1.178-.234.171s-.182-.085-.179-.2c0-.141.086-.188.225-.182" transform="translate(-34.83 -34.992)" fill="#fff"/>
        <path id="Tracé_853" data-name="Tracé 853" d="M56.1,54.32a.169.169,0,0,1-.194-.194c0-.136.07-.194.213-.192s.2.058.2.184-.057.2-.22.2" transform="translate(-34.829 -33.598)" fill="#fff"/>
        <path id="Tracé_854" data-name="Tracé 854" d="M56.145,50.149c-.184,0-.239-.077-.234-.208s.09-.184.227-.179.187.075.187.2a.165.165,0,0,1-.18.19" transform="translate(-34.829 -30.999)" fill="#fff"/>
        <path id="Tracé_855" data-name="Tracé 855" d="M56.141,60.446c.112,0,.184.055.184.192s-.066.2-.211.195-.2-.054-.2-.182.054-.2.23-.2" transform="translate(-34.829 -37.655)" fill="#fff"/>
        <path id="Tracé_856" data-name="Tracé 856" d="M56.1,58.7c-.12,0-.191-.056-.19-.193s.068-.195.212-.193.2.056.2.183-.056.2-.224.2" transform="translate(-34.829 -36.325)" fill="#fff"/>
        <path id="Tracé_857" data-name="Tracé 857" d="M56.324,52a.206.206,0,1,1-.2-.187c.111.007.216.048.2.187" transform="translate(-34.831 -32.275)" fill="#fff"/>
        <path id="Tracé_858" data-name="Tracé 858" d="M55.905,62.994c0-.156.077-.21.219-.207a.174.174,0,0,1,.2.192c.006.151-.1.192-.22.188s-.217-.05-.2-.173" transform="translate(-34.824 -39.114)" fill="#fff"/>
        <path id="Tracé_859" data-name="Tracé 859" d="M56.324,67.15c0,.156-.078.21-.22.206a.173.173,0,0,1-.195-.192c-.006-.151.1-.192.22-.187s.218.05.195.173" transform="translate(-34.828 -41.723)" fill="#fff"/>
        <path id="Tracé_860" data-name="Tracé 860" d="M56.323,69.187c0,.157-.082.209-.223.2s-.187-.071-.193-.194c-.006-.14.091-.184.2-.185s.23.046.213.175" transform="translate(-34.827 -42.991)" fill="#fff"/>
        <path id="Tracé_861" data-name="Tracé 861" d="M44.886,34.214c-.03-.143.068-.21.19-.2a.2.2,0,1,1,0,.4c-.122.008-.22-.059-.19-.2" transform="translate(-27.958 -21.188)" fill="#fff"/>
        <path id="Tracé_862" data-name="Tracé 862" d="M42.714,34.419c-.115-.021-.21-.087-.213-.205a.209.209,0,0,1,.215-.209.2.2,0,0,1,.214.2.21.21,0,0,1-.216.212" transform="translate(-26.476 -21.184)" fill="#fff"/>
        <path id="Tracé_863" data-name="Tracé 863" d="M40.428,34.422c-.123-.023-.218-.091-.219-.209a.22.22,0,0,1,.44,0c0,.118-.092.189-.221.212" transform="translate(-25.048 -21.185)" fill="#fff"/>
        <path id="Tracé_864" data-name="Tracé 864" d="M55.912,33.269a.206.206,0,1,1,.2.229c-.135,0-.2-.089-.2-.229" transform="translate(-34.83 -20.609)" fill="#fff"/>
        <path id="Tracé_865" data-name="Tracé 865" d="M56.137,31.035c.117,0,.188.055.187.193s-.067.195-.211.193-.2-.055-.2-.182.055-.2.226-.2" transform="translate(-34.829 -19.333)" fill="#fff"/>
        <path id="Tracé_866" data-name="Tracé 866" d="M56.11,44.062c.142,0,.215.054.215.192s-.066.2-.21.194-.2-.054-.2-.182.055-.2.2-.2" transform="translate(-34.829 -27.448)" fill="#fff"/>
        <path id="Tracé_867" data-name="Tracé 867" d="M56.093,39.583c.179,0,.236.073.232.205s-.071.18-.2.181-.21-.059-.21-.195.073-.195.182-.192" transform="translate(-34.83 -24.658)" fill="#fff"/>
        <path id="Tracé_868" data-name="Tracé 868" d="M56.325,35.394c0,.138-.063.2-.209.2s-.207-.066-.205-.2.064-.184.2-.186.219.052.215.185" transform="translate(-34.83 -21.933)" fill="#fff"/>
        <path id="Tracé_869" data-name="Tracé 869" d="M56.324,46.289c0,.16-.084.21-.225.2s-.186-.074-.191-.2c-.005-.14.094-.183.2-.183s.23.047.212.175" transform="translate(-34.827 -28.727)" fill="#fff"/>
        <path id="Tracé_870" data-name="Tracé 870" d="M56.324,41.912c0,.156-.078.21-.22.206a.173.173,0,0,1-.195-.192c-.006-.151.1-.192.22-.187s.218.05.195.173" transform="translate(-34.828 -26.002)" fill="#fff"/>
        <path id="Tracé_871" data-name="Tracé 871" d="M56.323,37.639c0,.157-.082.209-.223.2s-.187-.071-.193-.194c-.006-.14.091-.184.2-.185s.23.046.213.175" transform="translate(-34.827 -23.338)" fill="#fff"/>
        <path id="Tracé_872" data-name="Tracé 872" d="M9.046,54.771c.029.156-.071.219-.205.216a.2.2,0,0,1-.2-.2.192.192,0,0,1,.209-.207c.1,0,.244.029.2.188" transform="translate(-5.381 -34.003)" fill="#fff"/>
        <path id="Tracé_873" data-name="Tracé 873" d="M9.048,44.186c.049.156-.09.194-.192.195a.191.191,0,0,1-.215-.2.2.2,0,0,1,.215-.2c.123,0,.224.06.192.209" transform="translate(-5.383 -27.395)" fill="#fff"/>
        <path id="Tracé_874" data-name="Tracé 874" d="M9.048,52.714a.17.17,0,0,1-.189.208c-.109-.006-.236-.046-.22-.2a.2.2,0,0,1,.219-.2c.109,0,.216.051.191.189" transform="translate(-5.381 -32.721)" fill="#fff"/>
        <path id="Tracé_875" data-name="Tracé 875" d="M8.821,50.864c-.128.01-.167-.092-.17-.193,0-.127.085-.191.22-.192s.188.073.188.195c0,.139-.077.192-.238.19" transform="translate(-5.389 -31.446)" fill="#fff"/>
        <path id="Tracé_876" data-name="Tracé 876" d="M9.058,41.921a.167.167,0,0,1-.2.182c-.135-.008-.219-.076-.208-.2a.175.175,0,0,1,.2-.183c.148.007.208.072.2.2" transform="translate(-5.387 -25.988)" fill="#fff"/>
        <path id="Tracé_877" data-name="Tracé 877" d="M8.634,39.869c0-.126.071-.183.2-.183s.2.048.211.176c.013.144-.075.2-.2.205a.193.193,0,0,1-.215-.2" transform="translate(-5.379 -24.723)" fill="#fff"/>
        <path id="Tracé_878" data-name="Tracé 878" d="M9.052,46.278c0,.155-.067.216-.212.213s-.205-.056-.2-.184a.186.186,0,0,1,.214-.2c.11.007.218.046.2.167" transform="translate(-5.382 -28.725)" fill="#fff"/>
        <path id="Tracé_879" data-name="Tracé 879" d="M8.874,48.231a.174.174,0,0,1,.186.2c0,.14-.083.184-.222.185s-.184-.1-.186-.2c0-.128.094-.184.222-.189" transform="translate(-5.39 -30.046)" fill="#fff"/>
        <path id="Tracé_880" data-name="Tracé 880" d="M9.045,60.976c.036.154-.061.215-.185.22A.2.2,0,0,1,8.64,61a.188.188,0,0,1,.21-.2c.094,0,.254.023.195.183" transform="translate(-5.382 -37.871)" fill="#fff"/>
        <path id="Tracé_881" data-name="Tracé 881" d="M9.048,67.429c.027.135-.079.182-.189.188a.2.2,0,0,1-.221-.2c-.016-.148.108-.19.218-.2a.17.17,0,0,1,.191.208" transform="translate(-5.381 -41.875)" fill="#fff"/>
        <path id="Tracé_882" data-name="Tracé 882" d="M8.885,69.687c-.16,0-.241-.07-.244-.208,0-.117.062-.173.187-.178s.221.04.225.182c0,.121-.045.194-.168.2" transform="translate(-5.383 -43.171)" fill="#fff"/>
        <path id="Tracé_883" data-name="Tracé 883" d="M9.052,63.078c0,.145-.064.208-.21.206s-.207-.053-.2-.181a.187.187,0,0,1,.212-.2c.111.006.216.046.2.174" transform="translate(-5.383 -39.186)" fill="#fff"/>
        <path id="Tracé_884" data-name="Tracé 884" d="M9.053,65.319c0,.151-.075.207-.217.2s-.2-.063-.195-.188a.183.183,0,0,1,.2-.193c.121,0,.23.044.214.176" transform="translate(-5.383 -40.581)" fill="#fff"/>
        <path id="Tracé_885" data-name="Tracé 885" d="M9.054,58.925c.012.131-.1.172-.2.172a.2.2,0,0,1-.207-.209c0-.128.081-.172.21-.171.148,0,.206.071.2.208" transform="translate(-5.384 -36.578)" fill="#fff"/>
        <path id="Tracé_886" data-name="Tracé 886" d="M62.816,6.812a.154.154,0,0,1,.166.173c0,.136-.076.21-.223.213a.163.163,0,0,1-.189-.176c-.005-.132.049-.206.246-.209" transform="translate(-38.978 -4.244)" fill="#fff"/>
        <path id="Tracé_887" data-name="Tracé 887" d="M62.8,5.064c-.179,0-.233-.079-.227-.21s.079-.173.211-.178a.17.17,0,0,1,.2.191c0,.111-.047.218-.18.2" transform="translate(-38.978 -2.913)" fill="#fff"/>
        <path id="Tracé_888" data-name="Tracé 888" d="M33.244,3.83c-.041.09-.065.2-.212.211a.2.2,0,0,1-.229-.192c-.007-.1.065-.189.212-.2s.195.06.229.177" transform="translate(-20.434 -2.276)" fill="#fff"/>
        <path id="Tracé_889" data-name="Tracé 889" d="M30.762,4.046a.171.171,0,0,1-.182-.2c0-.138.077-.187.218-.189s.188.092.191.195c0,.128-.089.186-.226.193" transform="translate(-19.05 -2.28)" fill="#fff"/>
        <path id="Tracé_890" data-name="Tracé 890" d="M12.871,19.424a.2.2,0,0,1-.213.227.187.187,0,0,1-.2-.2.2.2,0,0,1,.212-.205c.108,0,.217.043.2.176" transform="translate(-7.762 -11.991)" fill="#fff"/>
        <path id="Tracé_891" data-name="Tracé 891" d="M12.874,21.556c0,.139-.057.207-.2.207-.131,0-.209-.048-.207-.177a.184.184,0,0,1,.207-.2c.109,0,.218.041.2.173" transform="translate(-7.764 -13.32)" fill="#fff"/>
        <path id="Tracé_892" data-name="Tracé 892" d="M2.957,6.948c0-.133.064-.219.2-.223a.191.191,0,0,1,.213.2.208.208,0,0,1-.414.025" transform="translate(-1.842 -4.189)" fill="#fff"/>
        <path id="Tracé_893" data-name="Tracé 893" d="M3.371,4.855a.183.183,0,0,1-.209.165.2.2,0,0,1,0-.405.2.2,0,0,1,.211.24" transform="translate(-1.844 -2.875)" fill="#fff"/>
      </g>
    </g>
  </g>
</svg>
