<svg xmlns="http://www.w3.org/2000/svg" xmlns:xlink="http://www.w3.org/1999/xlink" width="48" height="64.283" viewBox="0 0 48 64.283">
  <defs>
    <clipPath id="clip-path">
      <rect id="Rectangle_1" data-name="Rectangle 1" width="25.225" height="26.979" fill="none"/>
    </clipPath>
  </defs>
  <g id="point" transform="translate(-1041.5 -619)">
    <path id="Union_1" data-name="Union 1" d="M23.188,63.866,5.973,39.844a24.056,24.056,0,0,1-2.793-3.9l-.046-.064A1.018,1.018,0,0,1,3,35.631a24,24,0,1,1,42,0,1.017,1.017,0,0,1-.132.251l-.046.064a24.075,24.075,0,0,1-2.793,3.9L24.813,63.866a1,1,0,0,1-1.625,0Z" transform="translate(1041.5 619)" fill="#005ca0"/>
    <ellipse id="Ellipse_1" data-name="Ellipse 1" cx="21.5" cy="21" rx="21.5" ry="21" transform="translate(1044 622)" fill="#fff"/>
    <g id="window" transform="translate(1053.415 629.594)">
      <g id="Groupe_1" data-name="Groupe 1" clip-path="url(#clip-path)">
        <path id="Tracé_1" data-name="Tracé 1" d="M17.943,1.531l1.676-.5q1.681-.5,3.362-1A2.838,2.838,0,0,1,23.692,0c.169-.007.338,0,.507,0a.205.205,0,0,1,.24.23c0,.14.006.279.006.419q0,5.636-.009,11.271c0,.128.02.177.167.18a.622.622,0,0,1,.617.631q.009,2.106,0,4.211a.628.628,0,0,1-.623.628c-.153.008-.161.067-.161.187q0,4.413,0,8.825a1.638,1.638,0,0,1,0,.192.181.181,0,0,1-.195.18c-.186,0-.372.011-.559.02a1.668,1.668,0,0,1-.869-.2c-1.544-.8-3.1-1.587-4.645-2.378-.04-.021-.082-.039-.133-.062a2.173,2.173,0,0,1-.036.28.664.664,0,0,1-.582.481c-.069.007-.14.006-.21.006H.842a1.051,1.051,0,0,1-.551-.13.506.506,0,0,1-.258-.422A4.434,4.434,0,0,1,0,24.066q0-11.42,0-22.84A.665.665,0,0,1,.759.5c.076,0,.151,0,.227,0H17.141a1.261,1.261,0,0,1,.415.039.7.7,0,0,1,.386.986" transform="translate(0 0.001)" fill="#005c9b"/>
        <path id="Tracé_2" data-name="Tracé 2" d="M7.556,24.2c-.065-.041-.033-.105-.033-.157q0-7.419-.005-14.837c0-.148.041-.18.184-.18q7.291.006,14.582,0c.148,0,.18.041.18.184q-.006,10.748,0,21.5c0,.144-.035.183-.181.183q-7.291-.006-14.582,0c-.144,0-.183-.033-.183-.181.005-1.893,0-3.786.005-5.68,0-.052-.034-.117.033-.156.063.046.068.119.087.185a1.937,1.937,0,0,0,2.632,1.26,1.635,1.635,0,0,0,.317-.184.214.214,0,0,1,.3.017,2.969,2.969,0,0,0,1.192.6,2.933,2.933,0,0,0,1.553.007.54.54,0,0,1,.462.064,3.075,3.075,0,0,0,3.041.108,2.556,2.556,0,0,0,.793-.6.379.379,0,0,1,.43-.121,1.923,1.923,0,1,0,.533-3.779,1.375,1.375,0,0,0-.348.02.283.283,0,0,1-.34-.136,3.1,3.1,0,0,0-.953-.86,3.031,3.031,0,0,0-1.864-.395.433.433,0,0,1-.4-.151,2.869,2.869,0,0,0-1.319-.883,3.081,3.081,0,0,0-2.938.506,3.02,3.02,0,0,0-1.117,1.84.26.26,0,0,1-.259.246,1.966,1.966,0,0,0-1.417.8,1.945,1.945,0,0,0-.29.594c-.02.066-.024.139-.087.185" transform="translate(-5.948 -7.144)" fill="#fff"/>
        <path id="Tracé_3" data-name="Tracé 3" d="M7.582,65.151a1.98,1.98,0,0,1,1.84-1.63c.1-.009.137-.041.154-.138a3.135,3.135,0,0,1,2.617-2.58,3.088,3.088,0,0,1,2.886,1.059.3.3,0,0,0,.285.111,3.1,3.1,0,0,1,2.932,1.3.194.194,0,0,0,.227.092,1.972,1.972,0,1,1,.671,3.887,1.8,1.8,0,0,1-.895-.068.2.2,0,0,0-.253.067,3.148,3.148,0,0,1-4,.532.364.364,0,0,0-.323-.046,3.126,3.126,0,0,1-2.84-.6.17.17,0,0,0-.248-.012,1.966,1.966,0,0,1-3.058-1.3l-.035-.07c.046-.065-.007-.146.035-.211a1.829,1.829,0,0,1,0-.391" transform="translate(-5.974 -48.094)" fill="#005c9b"/>
        <path id="Tracé_4" data-name="Tracé 4" d="M87.781,14.736V27.51c0,.392,0,.375-.383.393a1.625,1.625,0,0,1-.845-.206q-2.964-1.526-5.938-3.032a.214.214,0,0,1-.135-.226q.007-6.072.007-12.145,0-4.281-.009-8.563a.223.223,0,0,1,.2-.259c2.02-.594,4.037-1.2,6.056-1.789a4.093,4.093,0,0,1,.991-.036c.044,0,.059.029.06.069s0,.1,0,.157V14.736" transform="translate(-63.694 -1.294)" fill="#fff"/>
        <path id="Tracé_5" data-name="Tracé 5" d="M117.172,62.045c0-.739.005-1.477,0-2.216,0-.175.077-.178.2-.147a.3.3,0,0,1,.238.249.773.773,0,0,1,.015.138q0,1.989,0,3.978c0,.235-.084.347-.268.394-.13.033-.187.009-.185-.146.007-.75,0-1.5,0-2.251" transform="translate(-92.733 -47.224)" fill="#fefeff"/>
        <path id="Tracé_6" data-name="Tracé 6" d="M7.572,83.665c-.014.07.035.15-.035.211.008-.071-.027-.149.035-.211" transform="translate(-5.963 -66.217)" fill="#4688b7"/>
        <path id="Tracé_7" data-name="Tracé 7" d="M45.451,33.584a2.493,2.493,0,1,1,2.506,2.49,2.5,2.5,0,0,1-2.506-2.49" transform="translate(-35.972 -24.606)" fill="#005c9b"/>
        <path id="Tracé_8" data-name="Tracé 8" d="M67.7,53.054a.332.332,0,0,1,.213.111c.185.185.373.367.554.556a.292.292,0,0,1,.022.434.288.288,0,0,1-.434-.009c-.2-.189-.388-.385-.58-.579a.3.3,0,0,1,.225-.512" transform="translate(-53.326 -41.99)" fill="#005c9c"/>
        <path id="Tracé_9" data-name="Tracé 9" d="M55.981,22.17c0-.14-.005-.279,0-.418a.277.277,0,0,1,.272-.283.271.271,0,0,1,.309.243,9,9,0,0,1,0,.94.278.278,0,0,1-.321.25.283.283,0,0,1-.261-.3c-.005-.145,0-.291,0-.436" transform="translate(-44.305 -16.99)" fill="#005d9c"/>
        <path id="Tracé_10" data-name="Tracé 10" d="M41.982,27.356a.324.324,0,0,1,.22.1c.193.193.389.384.579.581a.287.287,0,0,1,.019.421.3.3,0,0,1-.435,0c-.2-.193-.4-.393-.592-.592a.3.3,0,0,1,.21-.5" transform="translate(-32.992 -21.651)" fill="#005c9c"/>
        <path id="Tracé_11" data-name="Tracé 11" d="M36.538,42.162c-.145,0-.291.005-.435,0a.251.251,0,0,1-.264-.245c-.018-.177.048-.3.21-.326a3.889,3.889,0,0,1,.988,0,.274.274,0,0,1,.227.305.293.293,0,0,1-.291.269h-.435Z" transform="translate(-28.362 -32.891)" fill="#005c9c"/>
        <path id="Tracé_12" data-name="Tracé 12" d="M72.837,42.171c-.146,0-.291,0-.436,0a.281.281,0,0,1-.288-.268.276.276,0,0,1,.243-.309,4.857,4.857,0,0,1,.939,0,.292.292,0,0,1-.04.582c-.139,0-.279,0-.418,0" transform="translate(-57.074 -32.899)" fill="#005d9c"/>
        <path id="Tracé_13" data-name="Tracé 13" d="M68.584,27.637a.335.335,0,0,1-.106.239c-.184.186-.366.374-.555.555a.3.3,0,1,1-.414-.424q.281-.286.568-.567a.275.275,0,0,1,.336-.06.292.292,0,0,1,.171.256" transform="translate(-53.336 -21.644)" fill="#005c9c"/>
        <path id="Tracé_14" data-name="Tracé 14" d="M56.576,58.476c0,.133.005.267,0,.4a.279.279,0,0,1-.3.3c-.189,0-.288-.1-.29-.311q-.005-.4,0-.8a.3.3,0,0,1,.279-.317.3.3,0,0,1,.314.306c.008.139,0,.278,0,.418" transform="translate(-44.305 -45.708)" fill="#005d9c"/>
        <path id="Tracé_15" data-name="Tracé 15" d="M42.869,53.318a.373.373,0,0,1-.116.24c-.187.183-.37.371-.556.554a.294.294,0,1,1-.41-.417q.287-.292.58-.58a.275.275,0,0,1,.337-.054.3.3,0,0,1,.165.257" transform="translate(-32.98 -41.969)" fill="#005c9b"/>
        <path id="Tracé_16" data-name="Tracé 16" d="M89.286,17.875V29.55c0,.035,0,.07,0,.1,0,.218-.1.282-.3.193L87.1,29.012q-1.73-.77-3.46-1.539a.249.249,0,0,1-.18-.258q.006-9.778,0-19.556c0-.325,0-.328.31-.42q2.577-.759,5.156-1.515c.2-.058.263,0,.287.2a9.351,9.351,0,0,1,0,1.065q0,5.444,0,10.888h.068" transform="translate(-66.055 -4.513)" fill="#005c9b"/>
        <path id="Tracé_17" data-name="Tracé 17" d="M100.379,74.41c-.811-.361-1.591-.708-2.372-1.054a.118.118,0,0,1-.081-.135,1.032,1.032,0,0,0,0-.1q0-5.19,0-10.379c0-.19.057-.224.231-.222.676.01,1.352.007,2.028,0,.127,0,.166.026.167.161q.012,5.784.032,11.567c0,.046,0,.092,0,.165" transform="translate(-77.501 -49.478)" fill="#fff"/>
        <path id="Tracé_18" data-name="Tracé 18" d="M100.346,13.3c0,1.776,0,3.552,0,5.328,0,.157-.041.193-.194.191q-1.014-.013-2.027,0c-.156,0-.2-.034-.2-.2q.008-4.926,0-9.853c0-.31,0-.309.305-.4.636-.186,1.273-.369,1.906-.563.144-.044.174-.016.174.13q-.006,2.681,0,5.363h.033" transform="translate(-77.505 -6.163)" fill="#fff"/>
        <path id="Tracé_19" data-name="Tracé 19" d="M87.762,73.139c-.115-.05-.2-.088-.294-.128-.584-.261-1.167-.524-1.753-.782a.194.194,0,0,1-.141-.2q.005-4.675,0-9.35c0-.14.049-.16.171-.158.6.006,1.2.009,1.8,0,.169,0,.223.03.222.214q-.01,5.1,0,10.206Z" transform="translate(-67.727 -49.477)" fill="#fff"/>
        <path id="Tracé_20" data-name="Tracé 20" d="M87.762,16.783c0,1.642,0,3.284,0,4.927,0,.158-.044.192-.195.19-.606-.009-1.212-.007-1.818,0-.131,0-.181-.026-.181-.171q.007-4.638,0-9.277a.176.176,0,0,1,.156-.2q.939-.267,1.874-.55c.132-.04.162-.02.162.122-.005,1.654,0,3.308,0,4.962" transform="translate(-67.727 -9.245)" fill="#fff"/>
      </g>
    </g>
  </g>
</svg>
