<svg xmlns="http://www.w3.org/2000/svg" width="48.004" height="64.276" viewBox="0 0 48.004 64.276">
  <g id="marker_solar_oven" transform="translate(-1010.163 -512.676)">
    <path id="Union_1" data-name="Union 1" d="M1033.355,576.534l-17.215-24.022a24.009,24.009,0,0,1-2.793-3.9l-.046-.064a1.013,1.013,0,0,1-.134-.249,24,24,0,1,1,42,0,.989.989,0,0,1-.132.251l-.046.064a24.016,24.016,0,0,1-2.793,3.9l-17.216,24.02a1,1,0,0,1-1.625,0Z" fill="#ffc152"/>
    <ellipse id="Ellipse_1" data-name="Ellipse 1" cx="21.5" cy="21" rx="21.5" ry="21" transform="translate(1012.667 515.668)" fill="#fff"/>
    <g id="Icon" transform="translate(-5.169 -9.803)">
      <path id="Tracé_58" data-name="Tracé 58" d="M1045.885,533.6h-13.1l-8.243,11.444,5.985,14.3h17.613l5.985-14.3Zm-7.463,17.6-12.8-6.144,7.352-10.208Zm-4.956-16.719h11.714l-6.244,16.41Zm5.434,18.151.222-.583,7.742,6.416h-15.1l7.02-6.192Zm.539-1.418,6.239-16.4,7.367,10.229Zm-13.63-5.419,12.585,6.04-7.345,6.477Zm21.808,12.534-7.941-6.579,13.2-5.983Z" fill="#ffc152"/>
      <path id="Tracé_59" data-name="Tracé 59" d="M1043.587,544.527v-1.1h.4a2.128,2.128,0,0,0-2.11-1.908c-1.03-.121-4.035-.966-4.035-.966a.657.657,0,0,0,.654-.656v-.166a.657.657,0,0,0-.654-.656h-2.531a.657.657,0,0,0-.655.656v.166a.657.657,0,0,0,.67.639,37.193,37.193,0,0,1-3.6.957c-1.15.15-2.11.858-2.11,1.908l.481.026v1.505a1.083,1.083,0,0,0,0,2.163s.443,2.483.443,2.537c0,1.3,2.82,2.354,6.3,2.354s6.3-1.054,6.3-2.354c0-.054.443-2.988.443-2.988a1.07,1.07,0,0,0,0-2.121" transform="translate(2.253 2.725)" fill="#ffc152"/>
    </g>
  </g>
</svg>
