<svg xmlns="http://www.w3.org/2000/svg" xmlns:xlink="http://www.w3.org/1999/xlink" width="48.004" height="64.276" viewBox="0 0 48.004 64.276">
  <defs>
    <clipPath id="clip-path">
      <rect id="Rectangle_2342" data-name="Rectangle 2342" width="25.225" height="26.979" transform="translate(858.549 523.262)" fill="none"/>
    </clipPath>
  </defs>
  <g id="marker_aeration_alerte" transform="translate(-846.63 -512.676)">
    <path id="Union_1" data-name="Union 1" d="M869.822,576.534l-17.215-24.022a24.068,24.068,0,0,1-2.793-3.9l-.046-.064a1.013,1.013,0,0,1-.134-.249,24,24,0,1,1,42,0,.988.988,0,0,1-.132.251l-.046.064a24.012,24.012,0,0,1-2.793,3.9l-17.216,24.02a1,1,0,0,1-1.625,0Z" fill="#005ca0"/>
    <ellipse id="Ellipse_1" data-name="Ellipse 1" cx="21.5" cy="21" rx="21.5" ry="21" transform="translate(849.134 515.668)" fill="#fff"/>
    <g id="window">
      <g id="Groupe_302" data-name="Groupe 302">
        <g id="Groupe_301" data-name="Groupe 301" clip-path="url(#clip-path)">
          <g id="Groupe_1" data-name="Groupe 1">
            <path id="Tracé_1" data-name="Tracé 1" d="M876.492,524.794l1.676-.5,3.362-1a2.873,2.873,0,0,1,.711-.031c.169-.007.338,0,.507,0a.206.206,0,0,1,.239.165.2.2,0,0,1,0,.065c0,.14.006.279.006.419q0,5.637-.009,11.271c0,.128.02.177.167.18a.622.622,0,0,1,.617.627v0q.009,2.106,0,4.211a.627.627,0,0,1-.623.628c-.153.008-.161.067-.161.187v8.825a1.527,1.527,0,0,1,0,.192.181.181,0,0,1-.181.181h-.014c-.186,0-.372.011-.559.02a1.657,1.657,0,0,1-.869-.2c-1.544-.8-3.1-1.587-4.645-2.378-.04-.021-.082-.039-.133-.062a2.185,2.185,0,0,1-.036.28.663.663,0,0,1-.582.481,2.09,2.09,0,0,1-.21.006H859.391a1.05,1.05,0,0,1-.551-.13.508.508,0,0,1-.258-.422,4.335,4.335,0,0,1-.033-.483v-22.84a.665.665,0,0,1,.594-.729.652.652,0,0,1,.165,0H875.69a1.26,1.26,0,0,1,.415.039.7.7,0,0,1,.427.894.585.585,0,0,1-.041.092" fill="#005c9b"/>
            <path id="Tracé_2" data-name="Tracé 2" d="M860.157,540.318c-.065-.041-.033-.1-.033-.157q0-7.419-.005-14.837c0-.148.041-.18.184-.18q7.292.006,14.582,0c.148,0,.18.041.18.184q-.006,10.749,0,21.5c0,.144-.035.183-.181.183q-7.29-.006-14.582,0c-.144,0-.183-.033-.183-.181.005-1.893,0-3.786.005-5.68,0-.052-.034-.117.033-.156.063.046.068.119.087.185a1.937,1.937,0,0,0,2.386,1.347,1.8,1.8,0,0,0,.246-.087,1.589,1.589,0,0,0,.317-.184.215.215,0,0,1,.3.017,2.975,2.975,0,0,0,1.192.6,2.924,2.924,0,0,0,1.553.007.543.543,0,0,1,.462.064,3.071,3.071,0,0,0,3.041.108,2.548,2.548,0,0,0,.793-.6.381.381,0,0,1,.43-.121,1.923,1.923,0,1,0,.533-3.779,1.4,1.4,0,0,0-.348.02.283.283,0,0,1-.34-.136,3.1,3.1,0,0,0-.953-.86,3.034,3.034,0,0,0-1.864-.4.431.431,0,0,1-.4-.151,2.878,2.878,0,0,0-1.319-.883,3.083,3.083,0,0,0-2.938.506,3.028,3.028,0,0,0-1.117,1.84.259.259,0,0,1-.259.246,1.973,1.973,0,0,0-1.417.8,1.941,1.941,0,0,0-.29.594c-.02.066-.024.139-.087.185" fill="#fff"/>
            <path id="Tracé_3" data-name="Tracé 3" d="M860.157,540.319a1.981,1.981,0,0,1,1.84-1.63c.1-.009.137-.041.154-.138a3.136,3.136,0,0,1,2.617-2.58,3.089,3.089,0,0,1,2.886,1.059.3.3,0,0,0,.285.111,3.1,3.1,0,0,1,2.932,1.3.194.194,0,0,0,.227.092,1.972,1.972,0,1,1,.671,3.887,1.79,1.79,0,0,1-.895-.068.2.2,0,0,0-.253.067,3.148,3.148,0,0,1-4,.532.367.367,0,0,0-.323-.046,3.125,3.125,0,0,1-2.84-.6.169.169,0,0,0-.239-.019l-.009.007a1.966,1.966,0,0,1-3.058-1.3s-.014-.542,0-.672" fill="#005c9b"/>
            <path id="Tracé_4" data-name="Tracé 4" d="M882.636,536.7v12.774c0,.392,0,.375-.383.393a1.612,1.612,0,0,1-.845-.206q-2.964-1.525-5.938-3.032a.214.214,0,0,1-.135-.226q.008-6.072.007-12.145,0-4.281-.009-8.563a.223.223,0,0,1,.183-.256l.017,0c2.02-.594,4.037-1.2,6.056-1.789a4.111,4.111,0,0,1,.991-.036c.044,0,.059.029.06.069s0,.1,0,.157V536.7" fill="#fff"/>
            <path id="Tracé_5" data-name="Tracé 5" d="M882.988,538.083c0-.739.005-1.477,0-2.216,0-.175.077-.178.2-.147a.3.3,0,0,1,.238.249.809.809,0,0,1,.015.138v3.978c0,.235-.084.347-.268.394-.13.033-.187.009-.185-.146.007-.75,0-1.5,0-2.251" fill="#fefeff"/>
            <path id="Tracé_7" data-name="Tracé 7" d="M868.028,532.24a2.493,2.493,0,1,1,2.506,2.49,2.494,2.494,0,0,1-2.506-2.49" fill="#005c9b"/>
            <path id="Tracé_8" data-name="Tracé 8" d="M872.923,534.326a.334.334,0,0,1,.213.111c.185.185.373.367.554.556a.291.291,0,0,1,.043.411l-.021.023a.288.288,0,0,1-.407.02l-.027-.029c-.2-.189-.388-.385-.58-.579a.3.3,0,0,1,0-.424.3.3,0,0,1,.225-.088" fill="#005c9c"/>
            <path id="Tracé_9" data-name="Tracé 9" d="M870.225,528.442c0-.14-.005-.279,0-.418a.278.278,0,0,1,.271-.283h0a.272.272,0,0,1,.308.229v.014a8.686,8.686,0,0,1,0,.94.278.278,0,0,1-.3.253l-.02,0a.283.283,0,0,1-.261-.3c-.005-.145,0-.291,0-.436" fill="#005d9c"/>
            <path id="Tracé_10" data-name="Tracé 10" d="M867.539,528.967a.325.325,0,0,1,.22.1c.193.193.389.384.579.581a.287.287,0,0,1,.034.4l-.015.016a.3.3,0,0,1-.424.011l-.011-.011c-.2-.193-.4-.393-.592-.592a.3.3,0,0,1,.21-.5" fill="#005c9c"/>
            <path id="Tracé_11" data-name="Tracé 11" d="M866.725,532.533c-.145,0-.291.005-.435,0a.25.25,0,0,1-.263-.237v-.008c-.018-.177.048-.3.21-.326a3.89,3.89,0,0,1,.988,0,.273.273,0,0,1,.227.305.292.292,0,0,1-.291.269h-.435Z" fill="#005c9c"/>
            <path id="Tracé_12" data-name="Tracé 12" d="M874.312,532.534h-.436a.281.281,0,0,1-.288-.268.276.276,0,0,1,.239-.308h0a4.915,4.915,0,0,1,.939,0,.292.292,0,0,1-.04.582h-.418" fill="#005d9c"/>
            <path id="Tracé_13" data-name="Tracé 13" d="M873.8,529.255a.329.329,0,0,1-.106.239c-.184.186-.366.374-.555.555a.3.3,0,1,1-.481-.358.35.35,0,0,1,.067-.066q.282-.285.568-.567a.276.276,0,0,1,.336-.06.292.292,0,0,1,.171.256" fill="#005c9c"/>
            <path id="Tracé_14" data-name="Tracé 14" d="M870.82,536.03c0,.133.005.267,0,.4a.278.278,0,0,1-.256.3.161.161,0,0,1-.044,0c-.189,0-.288-.1-.29-.311q0-.4,0-.8a.3.3,0,1,1,.593-.031v.02c.008.139,0,.278,0,.418" fill="#005d9c"/>
            <path id="Tracé_15" data-name="Tracé 15" d="M868.438,534.611a.373.373,0,0,1-.116.24c-.187.183-.37.371-.556.554a.294.294,0,1,1-.453-.374.349.349,0,0,1,.043-.043c.192-.194.385-.388.58-.58a.275.275,0,0,1,.337-.054.3.3,0,0,1,.165.257" fill="#005c9b"/>
            <path id="Tracé_16" data-name="Tracé 16" d="M881.78,548.3v.1q0,.327-.3.193l-1.886-.831-3.46-1.539a.249.249,0,0,1-.18-.258q.006-9.777,0-19.556c0-.325,0-.328.31-.42q2.577-.759,5.156-1.515c.2-.058.263,0,.287.2a9.45,9.45,0,0,1,0,1.065" fill="#005c9b"/>
            <path id="Tracé_17" data-name="Tracé 17" d="M881.427,548.194c-.811-.361-1.591-.708-2.372-1.054a.118.118,0,0,1-.081-.135.828.828,0,0,0,0-.1V536.526c0-.19.057-.224.231-.222.676.01,1.352.007,2.028,0,.127,0,.166.026.167.161q.012,5.784.032,11.567v.165" fill="#fff"/>
            <path id="Tracé_18" data-name="Tracé 18" d="M881.39,530.4v5.328c0,.157-.041.193-.194.191q-1.014-.012-2.027,0c-.156,0-.2-.034-.2-.2q.009-4.926,0-9.853c0-.31,0-.309.3-.4.636-.186,1.273-.369,1.906-.563.144-.044.174-.016.174.13q-.006,2.682,0,5.363h.033" fill="#fff"/>
            <path id="Tracé_19" data-name="Tracé 19" d="M878.584,546.924l-.294-.128c-.584-.261-1.167-.524-1.753-.782a.194.194,0,0,1-.141-.2q.006-4.674,0-9.35c0-.14.049-.16.171-.158.6.006,1.2.009,1.8,0,.169,0,.223.03.222.214q-.009,5.1,0,10.206Z" fill="#fff"/>
            <path id="Tracé_20" data-name="Tracé 20" d="M878.584,530.8v4.927c0,.158-.044.192-.2.19-.606-.009-1.212-.007-1.818,0-.131,0-.181-.026-.181-.171q.008-4.638,0-9.277a.176.176,0,0,1,.15-.2h.006q.939-.267,1.874-.55c.132-.04.162-.02.162.122,0,1.654,0,3.308,0,4.962" fill="#fff"/>
          </g>
        </g>
      </g>
    </g>
  </g>
</svg>
