<svg xmlns="http://www.w3.org/2000/svg" xmlns:xlink="http://www.w3.org/1999/xlink" width="48.004" height="64.276" viewBox="0 0 48.004 64.276">
  <defs>
    <clipPath id="clip-path">
      <rect id="Rectangle_2346" data-name="Rectangle 2346" width="30" height="24.771" fill="none"/>
    </clipPath>
  </defs>
  <g id="marker_plant" transform="translate(-1173.696 -512.676)">
    <path id="Union_1" data-name="Union 1" d="M1196.888,576.534l-17.215-24.022a24.009,24.009,0,0,1-2.793-3.9l-.046-.064a1.016,1.016,0,0,1-.134-.249,24,24,0,1,1,42,0,.986.986,0,0,1-.132.251l-.046.064a24.008,24.008,0,0,1-2.793,3.9l-17.216,24.02a1,1,0,0,1-1.395.23A.987.987,0,0,1,1196.888,576.534Z" fill="#7caf33"/>
    <ellipse id="Ellipse_1" data-name="Ellipse 1" cx="21.5" cy="21" rx="21.5" ry="21" transform="translate(1176.2 515.668)" fill="#fff"/>
    <g id="Groupe_315" data-name="Groupe 315" transform="translate(1182.7 524.282)">
      <g id="Groupe_313" data-name="Groupe 313" transform="translate(0 0)" clip-path="url(#clip-path)">
        <path id="Tracé_83" data-name="Tracé 83" d="M63.627.25V0h.284c-.063.134-.14.244-.284.25" transform="translate(-33.911 0)" fill="#eee"/>
        <path id="Tracé_84" data-name="Tracé 84" d="M1.333,4.452l.427.009a4.468,4.468,0,0,0,1.067.07l.352.026a2.693,2.693,0,0,0,.772.076,1.628,1.628,0,0,0,.655.077,5.464,5.464,0,0,0,1,.157.853.853,0,0,0,.428.077,3.632,3.632,0,0,0,.924.177.382.382,0,0,0,.285.08,3.381,3.381,0,0,0,.756.191.894.894,0,0,0,.524.147l.7.257.435.149a3.3,3.3,0,0,0,.852.349.507.507,0,0,0,.285.161l.69.349.307.216.613.371c.109.118.214.242.377.248l.547.5c.083.116.159.243.307.246l.485.58.231.319c.2.142.29.4.447.588l.193.33a2.376,2.376,0,0,0,.429.755.715.715,0,0,0,.135.344l.225.74q.064.258.128.515.07.495.14.989l.018.415q-.008.492-.016.984l-.122.85a10.456,10.456,0,0,1-.587,1.821c-.163.009-.188.186-.259.3a2.216,2.216,0,0,1-.481.646c-.265.2-.267.366-.048.588a2.68,2.68,0,0,0,.23.645,1.7,1.7,0,0,1,.213.407c.087.3.166.6.261.9a2.57,2.57,0,0,0,.164.363c.1.326.158.667.231,1,.034.142.047.291.093.435a8.38,8.38,0,0,1,.9-1.56c.138-.182.338-.287.448-.5a.517.517,0,0,0,.082-.654,1.8,1.8,0,0,1-.137-.505c-.022-.147-.061-.29-.073-.439A5.164,5.164,0,0,1,17.039,18a1.758,1.758,0,0,1,.232-.623,4.9,4.9,0,0,1,1.006-1.722,4.515,4.515,0,0,1,1.881-1.326,8.382,8.382,0,0,1,2.017-.541c.118-.076.236-.131.358-.008l1.045.023c.148.035.313-.106.449.057a2.836,2.836,0,0,0,.765.1c.186.1.421-.069.586.147l.77.185c.166.07.379-.079.51.15a3.06,3.06,0,0,0,.847.282.231.231,0,0,1,.291.127l.754.285c.115.017.238.013.312.147a2.886,2.886,0,0,1,.772.427.206.206,0,0,1,.089.244c0,.389-.256.522-.49.677l-.451.3a8.764,8.764,0,0,1-1.18,1.05A16.543,16.543,0,0,0,26.258,19.4c-.446.508-.866,1.055-1.3,1.584a6.829,6.829,0,0,1-1.648,1.61,1.174,1.174,0,0,1-.3.115,6.437,6.437,0,0,1-1.481.436c-.142.078-.285.146-.428,0l-.989-.2a.424.424,0,0,1-.334-.069,5.021,5.021,0,0,1-.616-.343q-.16-.13-.326-.251c-.08-.058-.157-.121-.235-.182-.421-.331-.448-.356-.761.108a7.51,7.51,0,0,0-1.306,2.611,4.062,4.062,0,0,0-.137.578c-.063.234-.089.478-.152.712a.714.714,0,0,0-.1.438,1.17,1.17,0,0,1-.034.3c-.057.136-.132.247-.271.268-.314-.007-.644.125-.928-.146-.172-.1-.09-.279-.1-.429a2.691,2.691,0,0,0-.028-.6q-.011-.235-.021-.471a.383.383,0,0,1-.044-.342,3.864,3.864,0,0,0-.1-.914,1.468,1.468,0,0,1-.122-.689c.02-.333-.211-.574-.237-.889-.148-.113-.064-.307-.116-.453a2.8,2.8,0,0,0-.216-.806c-.168-.118-.067-.347-.149-.5a1.385,1.385,0,0,0-.305-.739.256.256,0,0,1-.107-.263c-.028-.282-.111-.373-.365-.23-.345.194-.715.327-1.073.487-.189.057-.353.242-.571.153l-1.351.189c-.119.068-.237.127-.357,0l-1.063-.1c-.127.025-.255.052-.354-.083a2.294,2.294,0,0,0-.707-.247c-.149-.071-.354-.007-.435-.245l-.642-.418a.35.35,0,0,1-.278-.263c-.126-.222-.349-.306-.5-.487a.541.541,0,0,1-.275-.356,1.548,1.548,0,0,0-.456-.638c-.141-.062-.145-.222-.187-.355l-.307-.731a.236.236,0,0,1-.1-.265c-.047-.347-.284-.588-.368-.915a.29.29,0,0,1-.089-.326,4.24,4.24,0,0,0-.217-.836c-.063-.131-.17-.245-.12-.421a2.358,2.358,0,0,0-.313-.991c-.182-.091-.049-.3-.122-.436a3.724,3.724,0,0,0-.223-.818c-.153-.1-.072-.3-.132-.434a2.756,2.756,0,0,0-.226-.734c-.076-.1-.222-.155-.189-.341a5.094,5.094,0,0,0-.32-.9.277.277,0,0,1-.119-.258,1.775,1.775,0,0,0-.429-.833.289.289,0,0,1-.122-.258,2.718,2.718,0,0,0-.374-.744c-.16-.075-.186-.28-.29-.41A2.238,2.238,0,0,0,.34,6.04.493.493,0,0,1,.129,5.7C-.18,4.924.075,4.455.8,4.459c.177,0,.354,0,.532-.007" transform="translate(0 -2.373)" fill="#7caf33"/>
      </g>
    </g>
  </g>
</svg>
