<svg xmlns="http://www.w3.org/2000/svg" xmlns:xlink="http://www.w3.org/1999/xlink" width="48.004" height="64.276" viewBox="0 0 48.004 64.276">
  <defs>
    <clipPath id="clip-path">
      <rect id="Rectangle_2344" data-name="Rectangle 2344" width="8.774" height="30" fill="none"/>
    </clipPath>
  </defs>
  <g id="marker_weather_station" transform="translate(-846.63 -512.676)">
    <path id="Union_1" data-name="Union 1" d="M869.822,576.534l-17.215-24.022a24.068,24.068,0,0,1-2.793-3.9l-.046-.064a1.013,1.013,0,0,1-.134-.249,24,24,0,1,1,42,0,.988.988,0,0,1-.132.251l-.046.064a24.012,24.012,0,0,1-2.793,3.9l-17.216,24.02a1,1,0,0,1-1.625,0Z" fill="#3594d4"/>
    <ellipse id="Ellipse_1" data-name="Ellipse 1" cx="21.5" cy="21" rx="21.5" ry="21" transform="translate(849.134 515.668)" fill="#fff"/>
    <g id="Groupe_309" data-name="Groupe 309" transform="translate(866.245 521.668)">
      <g id="Groupe_307" data-name="Groupe 307" clip-path="url(#clip-path)">
        <path id="Tracé_75" data-name="Tracé 75" d="M8.736,15q.02,5.379.038,10.757a4.019,4.019,0,0,1-1.556,3.219,4.231,4.231,0,0,1-4.731.543A4.048,4.048,0,0,1,.133,26.343a4.287,4.287,0,0,1-.056-.688Q.034,14.931,0,4.207A4.291,4.291,0,0,1,3.39.114,4.236,4.236,0,0,1,7.511,1.363,3.954,3.954,0,0,1,8.694,4.177Q8.72,9.589,8.736,15" transform="translate(0 0)" fill="#3594d4"/>
        <path id="Tracé_76" data-name="Tracé 76" d="M10.06,17.315q.02,5.328.039,10.656A3.422,3.422,0,1,1,3.256,27.9c.013-1.051,0-2.1-.014-3.154,0-.224.047-.315.289-.3.4.018.8,0,1.195,0,.368,0,.614-.211.607-.506a.547.547,0,0,0-.605-.483c-.42,0-.841,0-1.261.006-.175,0-.222-.06-.229-.23-.029-.678-.035-.678.641-.709a.469.469,0,0,0,.487-.467c0-.3-.155-.45-.475-.462-.664-.026-.65-.026-.665-.693-.006-.261.083-.317.321-.307.42.016.841.006,1.261,0,.327-.006.488-.157.492-.445,0-.316-.154-.479-.489-.482-.443,0-.886-.009-1.328.008-.21.008-.284-.066-.256-.265a.422.422,0,0,0,0-.066c-.006-.571-.006-.571.569-.619.389-.032.576-.217.555-.549-.017-.265-.243-.429-.6-.432-.532-.005-.532-.005-.533-.447,0-.542,0-.536.624-.5a8.4,8.4,0,0,0,.895.01c.37-.018.572-.217.56-.512a.473.473,0,0,0-.509-.455c-.429-.008-.858-.015-1.286-.006-.2,0-.295-.035-.3-.269,0-.644-.015-.644.643-.676a.476.476,0,0,0,.488-.468c0-.307-.148-.452-.472-.467-.672-.031-.66-.031-.668-.707,0-.247.089-.293.307-.286.409.013.819,0,1.228,0,.371,0,.536-.152.537-.475s-.171-.453-.552-.454c-.431,0-.863,0-1.294.008-.174,0-.248-.054-.226-.227a.211.211,0,0,0,0-.033c-.023-.682-.023-.682.64-.729.344-.024.494-.178.484-.494a.485.485,0,0,0-.51-.448c-.635-.019-.626-.019-.628-.657,0-.218.064-.289.281-.281.387.014.774,0,1.162,0,.43,0,.636-.171.63-.5s-.227-.486-.651-.487q-.593,0-1.187,0c-.129,0-.242,0-.237-.182A7.424,7.424,0,0,1,3.425,5.45,3.516,3.516,0,0,1,6.419,3.309a3.416,3.416,0,0,1,2.35.773,3.244,3.244,0,0,1,1.244,2.576c.029,3.552.033,7.1.046,10.656" transform="translate(-2.254 -2.343)" fill="#fff"/>
        <path id="Tracé_77" data-name="Tracé 77" d="M14.843,21.085q.02,5.192.039,10.384c0,.075,0,.149,0,.223a.783.783,0,0,1-1.562.038c-.02-.633-.01-1.266-.012-1.9l-.006-1.62q-.032-8.56-.057-17.119a2.46,2.46,0,0,1,.059-.874.743.743,0,0,1,.773-.468.73.73,0,0,1,.722.617c.019.334.007.669.008,1l.037,9.714" transform="translate(-9.374 -6.906)" fill="#eb751d"/>
        <path id="Tracé_78" data-name="Tracé 78" d="M11.941,87.279a1.882,1.882,0,1,1,1.842-1.919,1.867,1.867,0,0,1-1.842,1.919" transform="translate(-7.098 -59.158)" fill="#eb751d"/>
      </g>
    </g>
  </g>
</svg>
