<svg xmlns="http://www.w3.org/2000/svg" width="48.004" height="64.276" viewBox="0 0 48.004 64.276">
  <g id="marker_air_quality_empty" transform="translate(-1173.696 -512.676)">
    <path id="Union_1" data-name="Union 1" d="M1196.888,576.534l-17.215-24.022a24.009,24.009,0,0,1-2.793-3.9l-.046-.064a1.016,1.016,0,0,1-.134-.249,24,24,0,1,1,42,0,.986.986,0,0,1-.132.251l-.046.064a24.008,24.008,0,0,1-2.793,3.9l-17.216,24.02a1,1,0,0,1-1.395.23A.987.987,0,0,1,1196.888,576.534Z" fill="#249469"/>
    <ellipse id="Ellipse_1" data-name="Ellipse 1" cx="21.5" cy="21" rx="21.5" ry="21" transform="translate(1176.2 515.668)" fill="#fff"/>
  </g>
</svg>
