<svg xmlns="http://www.w3.org/2000/svg" width="48.004" height="64.276" viewBox="0 0 48.004 64.276">
  <g id="marker_lora" transform="translate(-1173.696 -512.676)">
    <path id="Union_1" data-name="Union 1" d="M1196.888,576.534l-17.215-24.022a24.009,24.009,0,0,1-2.793-3.9l-.046-.064a1.016,1.016,0,0,1-.134-.249,24,24,0,1,1,42,0,.986.986,0,0,1-.132.251l-.046.064a24.008,24.008,0,0,1-2.793,3.9l-17.216,24.02a1,1,0,0,1-1.395.23A.987.987,0,0,1,1196.888,576.534Z" fill="#16abb0"/>
    <ellipse id="Ellipse_1" data-name="Ellipse 1" cx="21.5" cy="21" rx="21.5" ry="21" transform="translate(1176.2 515.668)" fill="#fff"/>
    <g id="Groupe_303" data-name="Groupe 303" transform="translate(0 0.215)">
      <path id="Tracé_50" data-name="Tracé 50" d="M1193.217,547.644c.166-.53.309-1.063.506-1.582.151-.4.265-.807.415-1.207.206-.55.342-1.119.545-1.671.119-.322.2-.652.333-.973.147-.367.229-.753.363-1.125.1-.288.195-.58.29-.871q.2-.621.409-1.241c.091-.276.181-.552.274-.827.1-.31.194-.624.319-.928a1.056,1.056,0,0,1,1.047-.732.981.981,0,0,1,.858.488,5.546,5.546,0,0,1,.458,1.238c.1.3.213.607.317.911.069.2.132.4.2.608q.155.471.31.944c.131.4.261.8.393,1.2s.259.768.387,1.153c.106.32.208.641.315.961.07.211.149.42.218.632.127.389.232.784.378,1.168.124.322.2.654.328.974.108.271.193.548.288.823.014.043,0,.071-.062.071h-8.717A.414.414,0,0,1,1193.217,547.644Z" fill="#16abb0"/>
      <path id="Tracé_51" data-name="Tracé 51" d="M1182.741,533.4a6.2,6.2,0,0,1,.047-1.206,9.146,9.146,0,0,1,.224-1.342,12.518,12.518,0,0,1,.358-1.235c.1-.281.218-.561.343-.837.136-.3.271-.6.437-.889a10.13,10.13,0,0,1,1.288-1.81,4.815,4.815,0,0,1,.624-.63.842.842,0,0,1,.869-.125.64.64,0,0,1,.226,1.109,6.951,6.951,0,0,0-1.079,1.264,8.108,8.108,0,0,0-.821,1.429,11.876,11.876,0,0,0-.5,1.31,7.113,7.113,0,0,0-.221.868c-.053.3-.106.6-.148.9a12.447,12.447,0,0,0-.051,1.978,6.255,6.255,0,0,0,.151,1.2c.062.282.111.567.176.849a6.533,6.533,0,0,0,.215.68c.06.171.13.341.2.509a11.1,11.1,0,0,0,.674,1.339,8.254,8.254,0,0,0,1.354,1.733.627.627,0,0,1,.2.807.85.85,0,0,1-1.258.194,6.93,6.93,0,0,1-.95-1.031,9.407,9.407,0,0,1-.732-1.045,11.065,11.065,0,0,1-.646-1.227,11.353,11.353,0,0,1-.509-1.324,11.846,11.846,0,0,1-.292-1.231A11.452,11.452,0,0,1,1182.741,533.4Z" fill="#16abb0"/>
      <path id="Tracé_52" data-name="Tracé 52" d="M1212.67,533.484c-.076.549-.06,1.124-.139,1.7a12.855,12.855,0,0,1-.358,1.667,8.581,8.581,0,0,1-.388,1.067,10.883,10.883,0,0,1-.568,1.163,10.347,10.347,0,0,1-1.613,2.161,1.338,1.338,0,0,1-.619.419.815.815,0,0,1-.985-.553c-.037-.352.2-.566.434-.791a6.848,6.848,0,0,0,.854-1.031,8.731,8.731,0,0,0,.62-1.037,10.168,10.168,0,0,0,.625-1.471,7.78,7.78,0,0,0,.3-1.091c.049-.284.1-.569.146-.855a14.649,14.649,0,0,0,.054-2.042,6.9,6.9,0,0,0-.164-1.3c-.075-.4-.174-.786-.279-1.176a7.375,7.375,0,0,0-.267-.731,9.071,9.071,0,0,0-.529-1.087,9.2,9.2,0,0,0-.731-1.122,8.543,8.543,0,0,0-.9-1,.634.634,0,0,1-.058-.8.9.9,0,0,1,.8-.313.991.991,0,0,1,.553.3,10.468,10.468,0,0,1,1.14,1.345,11.477,11.477,0,0,1,1.108,1.935c.149.328.258.668.377,1.005a12.141,12.141,0,0,1,.328,1.212c.066.276.1.558.141.838C1212.627,532.414,1212.615,532.939,1212.67,533.484Z" fill="#16abb0"/>
      <path id="Tracé_53" data-name="Tracé 53" d="M1207.825,533.584c-.055.4-.062.917-.169,1.429a7.34,7.34,0,0,1-.95,2.481,8.682,8.682,0,0,1-.592.855,3.137,3.137,0,0,1-.688.692.806.806,0,0,1-.805.064.7.7,0,0,1-.456-.565.733.733,0,0,1,.316-.614,5,5,0,0,0,.986-1.375,7.383,7.383,0,0,0,.37-.848,6.5,6.5,0,0,0,.29-1.139,6.93,6.93,0,0,0,.064-1.569,6.7,6.7,0,0,0-.89-2.925,4.269,4.269,0,0,0-.881-1.113.624.624,0,0,1,.16-1.1.875.875,0,0,1,1.057.209,5.99,5.99,0,0,1,.909,1.119,8.618,8.618,0,0,1,.668,1.272,5.8,5.8,0,0,1,.327.926,6,6,0,0,1,.215,1.187C1207.763,532.874,1207.83,533.172,1207.825,533.584Z" fill="#16abb0"/>
      <path id="Tracé_54" data-name="Tracé 54" d="M1191.2,528.447c.051.228-.11.389-.264.536a5.9,5.9,0,0,0-1.2,1.732,6.135,6.135,0,0,0-.442,1.372,4.213,4.213,0,0,0-.1.754c-.008.286-.041.572-.023.857a6.673,6.673,0,0,0,.7,2.8,5.979,5.979,0,0,0,1.169,1.592.6.6,0,0,1-.117.925A.848.848,0,0,1,1189.9,539a3.97,3.97,0,0,1-.757-.807,7.247,7.247,0,0,1-1.092-1.992,7.639,7.639,0,0,1-.307-1.023,6.2,6.2,0,0,1-.1-.627c-.036-.345-.076-.691-.086-1.036a3.01,3.01,0,0,1,.029-.651c.059-.306.069-.614.128-.92.056-.29.129-.575.211-.858a6.14,6.14,0,0,1,.393-1,7.568,7.568,0,0,1,.849-1.36c.176-.221.368-.43.56-.641a.9.9,0,0,1,.724-.314.8.8,0,0,1,.728.478A.589.589,0,0,1,1191.2,528.447Z" fill="#16abb0"/>
      <path id="Tracé_55" data-name="Tracé 55" d="M1191.97,533.464a5.853,5.853,0,0,1,.25-1.368,3.936,3.936,0,0,1,.632-1.179,2.278,2.278,0,0,1,.451-.472.874.874,0,0,1,.831-.106.641.641,0,0,1,.47.6.7.7,0,0,1-.262.534,2.525,2.525,0,0,0-.613,1.032,3.336,3.336,0,0,0-.1,1.427,2.819,2.819,0,0,0,.566,1.36c.073.1.158.191.241.284a.587.587,0,0,1-.138.936.851.851,0,0,1-1.1-.1,3.75,3.75,0,0,1-.947-1.447,4.408,4.408,0,0,1-.244-1.086C1191.989,533.743,1191.977,533.6,1191.97,533.464Z" fill="#16abb0"/>
      <path id="Tracé_56" data-name="Tracé 56" d="M1203.285,533.474a4.91,4.91,0,0,1-.316,1.589,4.725,4.725,0,0,1-.63,1.083,1.152,1.152,0,0,1-.753.505.855.855,0,0,1-.9-.494.721.721,0,0,1,.246-.692,2.6,2.6,0,0,0,.629-1.143,3.063,3.063,0,0,0-.191-2.21,2.126,2.126,0,0,0-.533-.735.637.637,0,0,1-.062-.787.92.92,0,0,1,.879-.283.711.711,0,0,1,.339.165,3.433,3.433,0,0,1,.778,1.005c.111.206.187.417.276.626a4,4,0,0,1,.195.844A3.429,3.429,0,0,1,1203.285,533.474Z" fill="#16abb0"/>
      <path id="Tracé_57" data-name="Tracé 57" d="M1197.6,532.169a1.418,1.418,0,0,1,1.567,1.313,1.574,1.574,0,0,1-3.111,0A1.443,1.443,0,0,1,1197.6,532.169Z" fill="#16abb0"/>
    </g>
  </g>
</svg>
