<svg xmlns="http://www.w3.org/2000/svg" xmlns:xlink="http://www.w3.org/1999/xlink" width="48.004" height="64.276" viewBox="0 0 48.004 64.276">
  <defs>
    <clipPath id="clip-path">
      <rect id="Rectangle_2349" data-name="Rectangle 2349" width="29.944" height="17.831" fill="none"/>
    </clipPath>
  </defs>
  <g id="marker_led_race" transform="translate(-1173.696 -512.676)">
    <path id="Union_1" data-name="Union 1" d="M1196.888,576.534l-17.215-24.022a24.009,24.009,0,0,1-2.793-3.9l-.046-.064a1.016,1.016,0,0,1-.134-.249,24,24,0,1,1,42,0,.986.986,0,0,1-.132.251l-.046.064a24.008,24.008,0,0,1-2.793,3.9l-17.216,24.02a1,1,0,0,1-1.395.23A.987.987,0,0,1,1196.888,576.534Z" fill="#f27d0b"/>
    <ellipse id="Ellipse_1" data-name="Ellipse 1" cx="21.5" cy="21" rx="21.5" ry="21" transform="translate(1176.2 515.668)" fill="#fff"/>
    <g id="Groupe_324" data-name="Groupe 324" transform="translate(1182.726 527.753)">
      <g id="Groupe_322" data-name="Groupe 322" transform="translate(0 0)" clip-path="url(#clip-path)">
        <path id="Tracé_103" data-name="Tracé 103" d="M14.949,13.193q-.276.888-.55,1.776c-.272.879-.55,1.755-.808,2.638-.061.21-.126.269-.35.189-.423-.148-.43-.136-.305-.541q.808-2.628,1.622-5.254a.333.333,0,0,0,0-.218c-.218-.689-.432-1.38-.637-2.073-.03-.1-.064-.163-.172-.138a9.186,9.186,0,0,1-1.612.1,8.8,8.8,0,0,0-1.944.222,6.65,6.65,0,0,0-1.817.988,4.374,4.374,0,0,1-1.753.8c-.311.047-.624.1-.938.114a5,5,0,0,0-1.732.47c-.357.156-.72.3-1.062.488-.2.108-.231.018-.276-.128-.282-.916-.567-1.831-.849-2.746C1.187,7.982.609,6.086.018,4.194c-.047-.151,0-.186.12-.253A7.968,7.968,0,0,1,2.616,3.2a25.2,25.2,0,0,0,3.29-.659,15.339,15.339,0,0,0,1.884-.772,11.691,11.691,0,0,1,2.306-.9,3.635,3.635,0,0,1,.882-.134c.13,0,.184-.009.128-.17-.139-.4-.121-.393.289-.532.232-.079.309-.01.372.2.536,1.768,1.082,3.533,1.625,5.3q.77,2.507,1.54,5.015c0,.011.022.018.054.042.156-.489.312-.968.46-1.449.5-1.635,1-3.272,1.5-4.907.421-1.366.854-2.728,1.268-4.1.047-.155.113-.159.232-.131.03.007.057.023.087.032.423.124.43.126.3.539-.037.115-.032.156.1.159a6.152,6.152,0,0,1,2.275.605c.845.365,1.663.786,2.534,1.1a13.884,13.884,0,0,0,2.137.525c.615.115,1.234.215,1.852.317a7.381,7.381,0,0,1,2.087.657c.117.058.156.1.111.237-.417,1.327-.822,2.657-1.232,3.986-.456,1.48-.916,2.959-1.364,4.441-.058.194-.111.224-.309.136a10.308,10.308,0,0,0-2.186-.87,4.8,4.8,0,0,0-.817-.118,4.35,4.35,0,0,1-2.457-.874,6.016,6.016,0,0,0-1.883-1.007,5.726,5.726,0,0,0-1.161-.167c-.722-.037-1.449-.033-2.166-.11-.284-.031-.321.054-.381.265-.179.636-.376,1.267-.577,1.9a.388.388,0,0,0,0,.26c.564,1.807,1.119,3.618,1.681,5.426.055.177,0,.252-.179.3-.461.121-.453.125-.591-.322q-.652-2.113-1.313-4.223l-.045-.005" transform="translate(0 0)" fill="#f27d0b"/>
        <path id="Tracé_104" data-name="Tracé 104" d="M92.312,38.164c-.111.419-.221.839-.333,1.258-.086.322-.085.306-.428.253-.5-.078-1.01-.137-1.517-.193-.214-.023-.281-.077-.194-.3.15-.388.259-.792.377-1.191.036-.119.076-.15.213-.115a2.765,2.765,0,0,0,.609.07c.388.007.772.048,1.156.094.091.011.137.029.118.127" transform="translate(-66.651 -28.1)" fill="#fff"/>
        <path id="Tracé_105" data-name="Tracé 105" d="M16.607,38.155c-.022-.1.026-.114.115-.125.384-.046.768-.085,1.155-.094a4.3,4.3,0,0,0,.63-.078c.1-.018.149-.009.182.1.13.443.272.884.417,1.323.038.115-.006.153-.111.168-.256.037-.511.095-.768.109a5.354,5.354,0,0,0-1.089.17c-.065.017-.117.047-.142-.049-.129-.509-.261-1.018-.391-1.526" transform="translate(-12.322 -28.093)" fill="#fff"/>
        <path id="Tracé_106" data-name="Tracé 106" d="M14.533,22.506c-.616.1-1.231.063-1.826.2-.067.015-.108,0-.129-.085-.118-.478-.251-.952-.373-1.429-.032-.126.091-.138.163-.146.353-.041.706-.078,1.061-.095.144-.007.28-.048.423-.051.094,0,.18-.013.219.117.147.5.308,1,.463,1.49" transform="translate(-9.054 -15.51)" fill="#fff"/>
        <path id="Tracé_107" data-name="Tracé 107" d="M94.874,22.512c.159-.5.324-.981.461-1.471.038-.136.1-.158.214-.147.5.046.991.089,1.485.143.121.013.2.044.146.224-.14.432-.242.876-.341,1.32-.026.119-.065.137-.169.113a9.109,9.109,0,0,0-1.2-.129l-.6-.054" transform="translate(-70.415 -15.506)" fill="#fff"/>
        <path id="Tracé_108" data-name="Tracé 108" d="M65.923,22.852c.159-.516.315-1.015.465-1.515.032-.109.064-.134.2-.126.5.03.986.121,1.481.15.113.007.153.027.111.153q-.215.648-.4,1.3c-.032.112-.1.123-.191.123a9.9,9.9,0,0,1-1.4-.088,2.123,2.123,0,0,0-.273,0" transform="translate(-48.928 -15.742)" fill="#fff"/>
        <path id="Tracé_109" data-name="Tracé 109" d="M43.676,22.827c-.552.038-1.078.105-1.609.1-.145,0-.217-.025-.258-.187-.1-.411-.235-.816-.377-1.217-.051-.143-.027-.171.118-.18.5-.031.985-.115,1.48-.153.145-.011.157.04.183.125.155.5.307,1,.463,1.508" transform="translate(-30.733 -15.729)" fill="#fff"/>
        <path id="Tracé_110" data-name="Tracé 110" d="M37.953,3.962c.059,0,.1.007.12.09.142.487.295.971.451,1.454.033.1,0,.124-.094.128a8.409,8.409,0,0,0-1.5.232c-.1.023-.17.012-.2-.109-.111-.409-.231-.816-.352-1.222-.024-.082-.072-.156.054-.2a6.733,6.733,0,0,1,1.526-.37" transform="translate(-26.974 -2.94)" fill="#fff"/>
        <path id="Tracé_111" data-name="Tracé 111" d="M71.9,3.946a6.823,6.823,0,0,1,1.506.367c.115.04.084.109.062.184q-.184.623-.367,1.246a.134.134,0,0,1-.185.1,8.436,8.436,0,0,0-1.532-.235c-.105,0-.1-.056-.076-.141.148-.463.29-.928.434-1.393.025-.082.038-.175.159-.134" transform="translate(-52.911 -2.921)" fill="#fff"/>
        <path id="Tracé_112" data-name="Tracé 112" d="M20.858,10.134c.143.465.286.935.433,1.4a.112.112,0,0,1-.078.157,11.006,11.006,0,0,1-1.45.513c-.1.027-.167-.005-.2-.128-.115-.409-.244-.815-.378-1.218-.059-.178-.018-.243.179-.28a8.656,8.656,0,0,0,1.5-.447" transform="translate(-14.219 -7.521)" fill="#fff"/>
        <path id="Tracé_113" data-name="Tracé 113" d="M90.293,12.275c-.22-.068-.5-.152-.783-.243-.118-.039-.23-.094-.344-.143-.424-.18-.423-.18-.293-.606.1-.319.192-.638.29-.957.026-.086.067-.128.174-.083a7.066,7.066,0,0,0,1.41.412c.152.029.194.09.142.246-.141.417-.262.839-.386,1.261-.022.076-.052.127-.209.113" transform="translate(-65.904 -7.589)" fill="#fff"/>
        <path id="Tracé_114" data-name="Tracé 114" d="M108.392,16.253c-.111-.046-.208-.081-.3-.125a7.791,7.791,0,0,0-1.1-.451c-.123-.038-.124-.085-.1-.174.112-.442.226-.885.335-1.328.021-.085.056-.082.135-.066a7.419,7.419,0,0,1,1.423.456c.121.052.137.118.1.232-.143.448-.277.9-.417,1.347-.014.045-.027.1-.073.111" transform="translate(-79.323 -10.465)" fill="#fff"/>
        <path id="Tracé_115" data-name="Tracé 115" d="M73.471,30.423a4.544,4.544,0,0,1,1.345.38.131.131,0,0,1,.081.185c-.138.425-.277.849-.4,1.278-.034.114-.065.128-.176.082a4.4,4.4,0,0,0-1.452-.34c-.1-.006-.124-.034-.1-.127.143-.455.282-.912.42-1.368.044-.144.163-.072.279-.09" transform="translate(-54.002 -22.578)" fill="#fff"/>
        <path id="Tracé_116" data-name="Tracé 116" d="M37.2,31.928c.009.058-.016.083-.077.087a4.457,4.457,0,0,0-1.518.358c-.071.031-.106.014-.131-.071-.133-.442-.277-.882-.417-1.322-.03-.095.021-.138.1-.175a4,4,0,0,1,1.444-.373c.083,0,.136.007.16.084q.216.695.43,1.39a.158.158,0,0,1,0,.022" transform="translate(-26.009 -22.586)" fill="#fff"/>
        <path id="Tracé_117" data-name="Tracé 117" d="M3.442,15.527c.012.084-.016.111-.107.14a11.135,11.135,0,0,0-1.3.54c-.1.048-.148.032-.18-.073q-.2-.676-.417-1.35a.159.159,0,0,1,.109-.23A7.518,7.518,0,0,1,2.974,14.1c.065-.013.106-.02.125.054q.171.688.344,1.375" transform="translate(-1.058 -10.458)" fill="#fff"/>
        <path id="Tracé_118" data-name="Tracé 118" d="M84.393,25.846c.049.029.081.052.116.069a13.53,13.53,0,0,0,1.378.638c.117.043.127.091.1.181-.138.441-.284.881-.414,1.325-.031.1-.073.1-.148.067a10.586,10.586,0,0,1-1.417-.866.1.1,0,0,1-.04-.136c.127-.389.241-.781.362-1.172a.509.509,0,0,1,.064-.106" transform="translate(-62.312 -19.183)" fill="#fff"/>
        <path id="Tracé_119" data-name="Tracé 119" d="M26.321,27.17c.018.087-.04.119-.08.144a14.418,14.418,0,0,1-1.314.807c-.131.064-.188.075-.233-.1-.108-.417-.248-.827-.385-1.237-.039-.118-.024-.165.1-.213a11.945,11.945,0,0,0,1.374-.644c.046-.024.106-.1.141.007.135.417.266.836.393,1.236" transform="translate(-18.027 -19.207)" fill="#fff"/>
        <path id="Tracé_120" data-name="Tracé 120" d="M31.984,14.3l.473,1.5a7.017,7.017,0,0,0-1.5.54c-.139.073-.159,0-.187-.094-.112-.362-.219-.726-.339-1.086-.043-.129.034-.157.121-.2a10.869,10.869,0,0,1,1.429-.659" transform="translate(-22.579 -10.611)" fill="#fff"/>
        <path id="Tracé_121" data-name="Tracé 121" d="M78.351,14.292a13.12,13.12,0,0,1,1.412.645c.138.069.175.128.117.283-.129.34-.233.689-.331,1.038-.034.122-.069.126-.175.073A6.765,6.765,0,0,0,78,15.83c-.072-.018-.128-.031-.093-.136.155-.467.3-.937.445-1.4" transform="translate(-57.813 -10.608)" fill="#fff"/>
        <path id="Tracé_122" data-name="Tracé 122" d="M7.165,33.115c-.156-.513-.3-1.022-.469-1.525-.032-.1.005-.121.075-.153.41-.191.821-.38,1.23-.574.072-.035.088-.023.107.052.122.485.252.968.377,1.452a.136.136,0,0,1-.075.176l-1.244.573" transform="translate(-4.961 -22.892)" fill="#fff"/>
        <path id="Tracé_123" data-name="Tracé 123" d="M102.879,30.809c.448.178.874.385,1.3.6.08.04.117.06.081.168q-.234.691-.432,1.392c-.035.126-.074.117-.167.072-.358-.173-.716-.346-1.079-.51-.114-.052-.123-.12-.1-.222.133-.5.262-.993.394-1.5" transform="translate(-76.054 -22.866)" fill="#fff"/>
      </g>
    </g>
  </g>
</svg>
