<svg xmlns="http://www.w3.org/2000/svg" width="48.004" height="64.276" viewBox="0 0 48.004 64.276">
  <g id="marker_ia_empty" transform="translate(-846.63 -512.676)">
    <path id="Union_1" data-name="Union 1" d="M869.822,576.534l-17.215-24.022a24.068,24.068,0,0,1-2.793-3.9l-.046-.064a1.013,1.013,0,0,1-.134-.249,24,24,0,1,1,42,0,.988.988,0,0,1-.132.251l-.046.064a24.012,24.012,0,0,1-2.793,3.9l-17.216,24.02a1,1,0,0,1-1.625,0Z" fill="#c2413d"/>
    <ellipse id="Ellipse_1" data-name="Ellipse 1" cx="21.5" cy="21" rx="21.5" ry="21" transform="translate(849.134 515.668)" fill="#fff"/>
  </g>
</svg>
