<svg xmlns="http://www.w3.org/2000/svg" xmlns:xlink="http://www.w3.org/1999/xlink" width="48.004" height="64.276" viewBox="0 0 48.004 64.276">
  <defs>
    <clipPath id="clip-path">
      <rect id="Rectangle_2348" data-name="Rectangle 2348" width="25.347" height="30" fill="none"/>
    </clipPath>
  </defs>
  <g id="marker_ia" transform="translate(-846.63 -512.676)">
    <path id="Union_1" data-name="Union 1" d="M869.822,576.534l-17.215-24.022a24.068,24.068,0,0,1-2.793-3.9l-.046-.064a1.013,1.013,0,0,1-.134-.249,24,24,0,1,1,42,0,.988.988,0,0,1-.132.251l-.046.064a24.012,24.012,0,0,1-2.793,3.9l-17.216,24.02a1,1,0,0,1-1.625,0Z" fill="#c2413d"/>
    <ellipse id="Ellipse_1" data-name="Ellipse 1" cx="21.5" cy="21" rx="21.5" ry="21" transform="translate(849.134 515.668)" fill="#fff"/>
    <g id="Groupe_321" data-name="Groupe 321" transform="translate(857.961 521.668)">
      <g id="Groupe_319" data-name="Groupe 319" transform="translate(0 0)" clip-path="url(#clip-path)">
        <path id="Tracé_91" data-name="Tracé 91" d="M11.755.01a7.279,7.279,0,0,1,1.017.031c.317.02.631.082.946.128a8.629,8.629,0,0,1,.89.186,10.558,10.558,0,0,1,1.51.514,12.766,12.766,0,0,1,1.469.742,12.166,12.166,0,0,1,1.023.69,13.06,13.06,0,0,1,1.15.963,10.244,10.244,0,0,1,1.21,1.357,9.893,9.893,0,0,1,.89,1.42,12.307,12.307,0,0,1,.608,1.391,10.441,10.441,0,0,1,.438,1.535,11.087,11.087,0,0,1,.164,1.153c.034.366.057.732.081,1.1a1.519,1.519,0,0,0,.159.44c.1.249.214.495.317.744.132.32.258.643.39.963.106.257.216.512.323.768q.217.52.431,1.041.141.341.28.682a4.225,4.225,0,0,1,.194.488,2.09,2.09,0,0,1,.08.905,1.793,1.793,0,0,1-.121.483,1.7,1.7,0,0,1-.97.893c-.277.107-.557.21-.832.324a3.63,3.63,0,0,1-.4.146c-.054.015-.084.032-.087.09-.023.426-.121.842-.18,1.264-.067.485-.141.971-.229,1.452-.066.362-.121.726-.178,1.089-.054.346-.114.692-.161,1.04a1.558,1.558,0,0,1-.384.8,2.816,2.816,0,0,1-.9.689,3.463,3.463,0,0,1-1.011.344,5.728,5.728,0,0,1-.933.06c-.147,0-.29-.041-.439-.031-.078.005-.111.009-.133.107-.077.346-.145.694-.208,1.041s-.13.706-.194,1.059c-.052.291-.1.586-.172.875-.052.207-.063.422-.129.629a.927.927,0,0,1-.244.371c-.048.049-.107.028-.162.028H4.727a.513.513,0,0,1-.511-.482,2.623,2.623,0,0,1,.106-.936c.044-.161.023-.34.071-.5.082-.269.07-.551.151-.821a5.63,5.63,0,0,0,.1-.651c.06-.35.139-.7.189-1.048.053-.37.106-.742.163-1.11a7.127,7.127,0,0,0,.038-1.26,3.768,3.768,0,0,0-.2-1.1,5.183,5.183,0,0,0-.669-1.326,11.622,11.622,0,0,0-1.072-1.24,12.016,12.016,0,0,1-.875-1.08,11.119,11.119,0,0,1-.92-1.492c-.154-.3-.3-.611-.429-.927-.155-.377-.285-.763-.411-1.149-.078-.239-.131-.492-.188-.74C.2,13.822.162,13.5.091,13.187a2.636,2.636,0,0,1-.037-.349,14.212,14.212,0,0,1-.031-2.073A9.31,9.31,0,0,1,.181,9.54c.048-.247.1-.5.158-.738A11.659,11.659,0,0,1,.845,7.259,12.514,12.514,0,0,1,1.4,6.089a12.188,12.188,0,0,1,.7-1.128A11.24,11.24,0,0,1,3.823,3,10.86,10.86,0,0,1,5.369,1.825c.34-.212.688-.4,1.042-.59A9.818,9.818,0,0,1,7.647.7Q8.114.53,8.6.4A8.465,8.465,0,0,1,9.509.193c.319-.047.635-.114.961-.135C10.882.03,11.292,0,11.755.01" transform="translate(0 0)" fill="#c2413d"/>
        <path id="Tracé_92" data-name="Tracé 92" d="M14.8,32.248H9.89c-.091,0-.151.018-.121-.128.074-.355.116-.717.2-1.072.037-.154.023-.321.066-.472.077-.27.067-.554.155-.821a2.574,2.574,0,0,0,.068-.4,10.01,10.01,0,0,0,.168-2.127,6.956,6.956,0,0,0-.151-1.214c-.051-.211-.1-.425-.16-.633a6.664,6.664,0,0,0-.549-1.292,8.144,8.144,0,0,0-.734-1.085c-.131-.165-.275-.317-.42-.468a11.526,11.526,0,0,1-1.356-1.648,11.042,11.042,0,0,1-.783-1.418,10.792,10.792,0,0,1-.538-1.447c-.085-.282-.129-.581-.2-.87a7.889,7.889,0,0,1-.14-1.113,5.492,5.492,0,0,1,.027-1.461c.037-.206.028-.421.063-.63q.078-.468.187-.928a9.657,9.657,0,0,1,.419-1.3c.119-.3.269-.59.409-.883a8.406,8.406,0,0,1,.546-.951A8.319,8.319,0,0,1,7.8,8.9c.271-.3.56-.592.86-.87a10.152,10.152,0,0,1,1.226-.95,7.925,7.925,0,0,1,.947-.552,10.063,10.063,0,0,1,1.293-.538c.327-.107.66-.188.987-.293.123-.039.259-.036.385-.072.357-.1.734-.065,1.092-.162a.8.8,0,0,1,.2-.007c.271,0,.543.007.814,0a11.443,11.443,0,0,1,1.294.111c.243.02.475.089.713.128a6.239,6.239,0,0,1,.844.236,8.22,8.22,0,0,1,1.168.474,11.093,11.093,0,0,1,2.468,1.673c.23.208.449.427.661.656a8.9,8.9,0,0,1,.767.946A9.746,9.746,0,0,1,24.2,10.8a8.431,8.431,0,0,1,.469,1.083,9.611,9.611,0,0,1,.274.934c.043.181.054.367.106.543a6.873,6.873,0,0,1,.135,1.143,2.729,2.729,0,0,1,0,.555,2.108,2.108,0,0,0,.242.971c.094.236.206.465.3.7.146.365.292.73.449,1.091.139.318.254.646.385.968.141.346.291.689.433,1.034.1.236.194.472.279.713.07.2.021.28-.181.355q-.722.269-1.442.541a.951.951,0,0,0-.645.849,10.015,10.015,0,0,1-.185,1.117,3.706,3.706,0,0,0-.063.474c-.023.213-.083.42-.1.635-.023.294-.108.578-.132.873-.022.27-.094.533-.128.8s-.079.565-.132.844a1.036,1.036,0,0,1-.625.823,4.262,4.262,0,0,1-.98.2,3.823,3.823,0,0,1-1.045-.01,4.772,4.772,0,0,1-.59-.163c-.36-.089-.716-.194-1.072-.3-.4-.117-.8-.228-1.2-.346-.457-.136-.917-.264-1.378-.391-.393-.108-.786-.22-1.177-.338a2.967,2.967,0,0,1-1.238-.576,4.12,4.12,0,0,1-.53-.656,4.029,4.029,0,0,0-.435-.6.583.583,0,0,0-.616-.161.659.659,0,0,0-.417.507,1.007,1.007,0,0,0,.151.734,6.531,6.531,0,0,0,.31.59,3.664,3.664,0,0,0,1.293,1.393,4.553,4.553,0,0,0,1.056.413c.334.094.671.183,1,.29.218.07.443.126.666.187a3.622,3.622,0,0,1,1.539.682,2.3,2.3,0,0,1,.554.727,3.722,3.722,0,0,1,.317,1.309c.021.242.011.482.023.723.006.132-.038.186-.186.185-1.632-.006-3.264,0-4.9,0" transform="translate(-3.704 -3.764)" fill="#fff"/>
        <path id="Tracé_93" data-name="Tracé 93" d="M21.62,13.841c.238,0,.476,0,.713,0,.081,0,.165.011.2.1.02.047.061.033.1.041.081.019.163.028.211.12a.129.129,0,0,0,.226-.018c.007-.012.014-.034.023-.035.188-.02.3-.214.5-.213.433,0,.866,0,1.3,0a.474.474,0,0,1,.353.115c.059.056.187.041.285.051a.161.161,0,0,1,.157.1c.006.016.023.043.028.042.182-.049.285.1.4.181a1.337,1.337,0,0,1,.361.274,1.261,1.261,0,0,0,.222.226c.092.071.06.223.139.255.136.054.116.157.134.253.008.043.017.067.067.072a.272.272,0,0,1,.228.118c.037.057.128.049.2.051a.26.26,0,0,1,.245.111.072.072,0,0,0,.057.035.892.892,0,0,1,.469.294,2.245,2.245,0,0,0,.192.131,2.24,2.24,0,0,1,.37.371,2.4,2.4,0,0,1,.24.3c.053.1.151.169.138.3a.038.038,0,0,0,.023.028c.14.019.126.137.142.229a.138.138,0,0,0,.063.113c.1.064.081.173.082.272,0,.079-.016.16.086.2.044.018.053.076.057.125a10.592,10.592,0,0,1,0,1.694c0,.044-.009.1-.043.116-.131.057-.094.167-.1.265s0,.213-.114.27c0,0-.013,0-.012.006.045.247-.206.408-.188.647,0,.023,0,.064.011.067.143.051.12.243.256.3,0,0,.01.007.01.01.005.215.22.351.21.576-.018.4.026.8-.028,1.2-.01.073-.017.143-.1.169-.059.018-.041.068-.041.107,0,.1,0,.194-.111.238a.068.068,0,0,0-.031.042.875.875,0,0,1-.374.436c-.131.1-.279.179-.4.287-.038.033-.033.066.011.088a.221.221,0,0,1,.109.229q0,.485,0,.97c0,.028.009.068-.006.084-.12.127-.123.315-.245.444-.084.089-.133.206-.231.293a1.324,1.324,0,0,1-.411.281c-.029.011-.066,0-.086.037-.051.1-.144.11-.242.112s-.188,0-.254.093c-.029.042-.09.045-.143.05a4.445,4.445,0,0,1-.612.027c-.069,0-.108,0-.119.091a.294.294,0,0,1-.128.223.675.675,0,0,0-.154.213.986.986,0,0,1-.359.353c-.154.092-.278.269-.494.234a.053.053,0,0,0-.041.007c-.17.185-.395.129-.6.133-.276.006-.552,0-.828,0a.338.338,0,0,1-.284-.1c-.033-.039-.075-.034-.113-.049s-.1-.028-.1-.043c0-.148-.168-.1-.227-.191-.033-.05-.264.048-.3.13a.153.153,0,0,1-.124.1.223.223,0,0,0-.132.07.331.331,0,0,1-.262.088H21.062a.384.384,0,0,1-.3-.105c-.067-.07-.165-.02-.241-.062-.028-.015-.079-.007-.093-.027-.11-.161-.321-.184-.439-.331a3,3,0,0,1-.237-.3c-.038-.063-.059-.13-.133-.165a.1.1,0,0,1-.037-.087c.02-.159-.069-.185-.2-.2-.155-.013-.329.014-.443-.138a.031.031,0,0,0-.025-.012.621.621,0,0,1-.51-.185c-.213-.152-.488-.259-.566-.554a.066.066,0,0,0-.059-.05c-.068-.016-.081-.068-.1-.126-.021-.086-.012-.18-.111-.243-.046-.03-.049-.129-.049-.2,0-.252,0-.5,0-.756a.4.4,0,0,1,.11-.313c.046-.042.043-.074-.025-.127-.159-.124-.378-.17-.5-.324-.071-.093-.2-.11-.24-.246-.013-.051-.1-.115-.16-.17a3.418,3.418,0,0,1-.323-.533c-.2-.292-.1-.6-.13-.891a3.578,3.578,0,0,1,0-.4c0-.121,0-.239.118-.314.034-.021.02-.06.027-.091a.828.828,0,0,1,.281-.443.142.142,0,0,0-.017-.2c-.034-.021-.076-.043-.075-.079.007-.256-.232-.445-.192-.709a.084.084,0,0,0-.017-.065.549.549,0,0,1-.125-.451q0-.72,0-1.44a.381.381,0,0,1,.106-.3.109.109,0,0,0,.038-.087.557.557,0,0,1,.141-.43.171.171,0,0,0,.032-.121c0-.083.013-.163.107-.2.012,0,.029-.015.031-.025a1.086,1.086,0,0,1,.308-.491,2.566,2.566,0,0,1,.315-.372,1.332,1.332,0,0,0,.293-.243c.1-.155.317-.1.384-.268a.014.014,0,0,1,.011-.008c.2.012.327-.143.5-.188.077-.02.106-.047.107-.116,0-.172.158-.238.247-.35.011-.014.034-.019.042-.034.074-.134.228-.2.3-.317a.69.69,0,0,1,.268-.21,1.216,1.216,0,0,1,.466-.236c.033,0,.088,0,.095-.011.091-.193.276-.127.425-.16.027-.006.069,0,.081-.016.1-.143.264-.115.4-.123.218-.013.438,0,.656,0" transform="translate(-11.223 -9.553)" fill="#c2413d"/>
        <path id="Tracé_94" data-name="Tracé 94" d="M24.273,26.615V28.54a.388.388,0,0,1-.09.3.161.161,0,0,0-.034.092.4.4,0,0,1-.334.359.366.366,0,0,0-.176.084.209.209,0,0,1-.241.029,1.469,1.469,0,0,0-.647-.129.239.239,0,0,1-.194-.081c-.075-.087-.215-.094-.291-.2s-.211-.181-.25-.351c-.031-.137-.144-.262-.161-.419,0-.042-.064-.057-.092-.053a1.311,1.311,0,0,1-.573-.128.82.82,0,0,0-.255-.025c-.085,0-.173.013-.211-.1-.007-.02-.044-.038-.07-.043-.179-.033-.252-.2-.376-.287-.149-.1-.1-.236-.16-.345a.434.434,0,0,1-.007-.471.391.391,0,0,0,.039-.222c-.006-.079.055-.13.085-.188.076-.152.229-.274.226-.46s-.064-.248-.261-.258c-.1,0-.2.011-.255-.105a.031.031,0,0,0-.022-.017c-.187.01-.3-.145-.451-.211-.107-.046-.18-.17-.286-.223-.155-.078-.125-.272-.263-.359-.07-.044-.041-.148-.056-.224a.687.687,0,0,0-.09-.251.227.227,0,0,1-.011-.242,1.014,1.014,0,0,0,.118-.42c.012-.057.015-.108.076-.14a.125.125,0,0,0,.061-.076c.033-.21.265-.262.344-.435.007-.014.063-.008.1-.008.162,0,.325.012.485,0,.212-.02.314.085.418.255.044.071.1.2.229.207a.07.07,0,0,1,.049.024c.085.166.244.141.385.142a2.144,2.144,0,0,0,.568-.024c.027-.007.068-.007.078-.025.072-.127.241-.141.308-.266.089-.163.27-.277.226-.51a2.8,2.8,0,0,1-.006-.484.261.261,0,0,0-.114-.238c-.078-.058-.107-.185-.2-.252-.159-.119-.3-.268-.532-.228a2.868,2.868,0,0,1-.413,0,.444.444,0,0,0-.3.109c-.084.068-.165.158-.257.225a1.061,1.061,0,0,0-.177.228.141.141,0,0,1-.139.065h-.8c-.181,0-.235-.051-.24-.232,0-.1,0-.2-.116-.254-.032-.015-.026-.047-.028-.075a2.434,2.434,0,0,0-.134-.822.445.445,0,0,1,.035-.329,2.259,2.259,0,0,0,.1-.7c.007-.07-.012-.144.085-.17a.084.084,0,0,0,.042-.07c-.027-.2.109-.339.195-.482a4.041,4.041,0,0,1,.232-.366c.07-.093.187-.146.222-.265.027-.091.133-.087.194-.134a.872.872,0,0,1,.423-.239c.014,0,.03,0,.043,0a1.664,1.664,0,0,1,.551-.176.048.048,0,0,0,.041-.052c-.02-.17.112-.276.179-.406a1.113,1.113,0,0,1,.445-.452c.065-.037.143-.052.169-.137.011-.036.045-.026.072-.031.088-.017.177-.027.225-.124.027-.053.087-.049.14-.047.089,0,.171-.006.217-.1.029-.061.09-.042.14-.041a2.969,2.969,0,0,0,.749-.078c.1-.024.188-.094.3-.065a.981.981,0,0,1,.546.291c.051.063.04.181.044.275a1.278,1.278,0,0,0,.082.388,1.534,1.534,0,0,1,.053.534c.006.88,0,1.76,0,2.639,0,.112-.03.152-.145.146a4.921,4.921,0,0,0-.528,0c-.116.007-.154-.025-.152-.146.008-.418,0-.837,0-1.256,0-.164-.025-.189-.19-.189-.309,0-.62-.015-.927.006a.292.292,0,0,1-.282-.168c-.015-.141-.136-.188-.2-.238-.108-.085-.2-.227-.367-.224a3.785,3.785,0,0,0-.711.022c-.019,0-.047,0-.054.011-.087.137-.264.171-.352.3a.71.71,0,0,0-.2.573,1.912,1.912,0,0,1,0,.384c0,.109-.01.22.128.268.064.022.048.1.083.155.086.127.257.143.329.28.016.03.057.03.091.03.252,0,.5,0,.756,0,.027,0,.072-.007.078-.022.048-.125.193-.136.27-.243s.185-.231.284-.342c.038-.042.1-.021.15-.018.117.006.266-.053.342.025s.019.218.02.331c0,.347,0,.694,0,1.041,0,.134.048.183.181.181.419-.005.837,0,1.256,0,.108,0,.137.034.137.139q-.006,1.063,0,2.126c0,.1-.025.128-.126.128-.623,0-1.247,0-1.87,0-.2,0-.224.027-.224.219,0,.509-.012,1.018.007,1.526a.3.3,0,0,1-.164.288.56.56,0,0,0-.247.2c-.094.122-.238.233-.225.424.012.175-.006.352.006.528a.3.3,0,0,0,.129.28c.063.04.085.16.166.216.179.125.333.293.589.255a4.4,4.4,0,0,0,.525-.028c.032-.008.08-.011.091-.031.066-.131.237-.14.3-.26.081-.147.25-.247.223-.455a4.491,4.491,0,0,1,0-.47.436.436,0,0,0-.113-.325,2.266,2.266,0,0,1-.222-.259c-.044-.066-.145-.111-.218-.17a.162.162,0,0,1-.076-.146c0-.3,0-.6,0-.9,0-.094.016-.132.122-.13.4.007.8.007,1.2,0,.113,0,.132.037.131.138,0,.656,0,1.312,0,1.969h-.008" transform="translate(-12.937 -11.263)" fill="#fff"/>
        <path id="Tracé_95" data-name="Tracé 95" d="M44.141,25.3v-.975c0-.29,0-.29-.289-.29-.794,0-1.589,0-2.383,0-.123,0-.179-.02-.166-.159s0-.3,0-.456a.328.328,0,0,1,.251-.361c.08-.033.124-.123.167-.177.107-.133.258-.262.216-.482a2.655,2.655,0,0,1-.006-.484c0-.1-.011-.188-.12-.235-.077-.033-.069-.13-.12-.193-.087-.107-.229-.128-.3-.245-.027-.043-.1-.037-.161-.037-.19,0-.381,0-.571,0a.292.292,0,0,0-.28.114c-.05.067-.179.1-.243.192-.119.166-.279.31-.231.551a1.745,1.745,0,0,1,0,.342.451.451,0,0,0,.124.355,2.39,2.39,0,0,1,.222.255.8.8,0,0,0,.219.17.127.127,0,0,1,.063.135c0,.428,0,.856,0,1.284,0,.18.017.2.2.2.837,0,1.674,0,2.512,0,.113,0,.143.03.142.142,0,.428,0,.856.006,1.284,0,.051-.012.108.037.146a.345.345,0,0,1,.123.258.39.39,0,0,0,.1.258.136.136,0,0,1,0,.172.432.432,0,0,0-.088.279c.011.165-.124.244-.211.337a.427.427,0,0,1-.341.192c-.133.194-.338.111-.516.134a.775.775,0,0,0-.249.053,1.108,1.108,0,0,1-.538.088c-.184,0-.225.042-.23.223,0,.057.006.111-.067.137a.113.113,0,0,0-.059.108c-.01.233-.207.341-.348.459a1.027,1.027,0,0,1-.67.216.7.7,0,0,0-.351.094.194.194,0,0,1-.238-.025.2.2,0,0,0-.163-.075c-.153.014-.2-.148-.315-.186-.011,0-.011-.043-.015-.066a.433.433,0,0,0-.116-.281c-.049-.041-.034-.108-.035-.161-.007-.49-.007-.979-.012-1.469,0-.08.027-.11.108-.109.314,0,.628,0,.942,0,.135,0,.136.158.245.181-.024.142.12.193.186.242.108.081.193.22.359.22a3.711,3.711,0,0,0,.711-.019c.014,0,.035,0,.041-.007.119-.157.3-.234.435-.39.195-.233.11-.477.133-.719a.51.51,0,0,0-.01-.267.933.933,0,0,0-.413-.474c-.016-.007-.049-.007-.051-.015-.037-.176-.177-.124-.287-.127-.2-.005-.4,0-.6,0a.164.164,0,0,0-.174.1c-.033.083-.128.064-.183.133a3.889,3.889,0,0,0-.293.389c-.008.013-.045.01-.068.01-.328,0-.656,0-.985,0-.075,0-.1-.023-.1-.1.005-.1,0-.2,0-.3q0-2.974,0-5.949c0-.129.03-.166.163-.165.69.007,1.38.016,2.069-.006a.331.331,0,0,1,.311.181c.081.214.3.271.416.431.017.023.071.024.107.024.237,0,.475,0,.713,0,.028,0,.071,0,.082-.011.116-.163.364-.2.415-.422,0,0,0-.012,0-.013.242-.122.115-.349.143-.529a2.49,2.49,0,0,0,0-.4.155.155,0,0,0-.084-.151c-.1-.054-.089-.186-.186-.248-.185-.117-.339-.288-.593-.256a4.642,4.642,0,0,0-.539.028c-.056.014-.1.026-.119.083-.009.025-.017.051-.051.063a.567.567,0,0,0-.3.282.3.3,0,0,1-.249.178q-1.085-.008-2.17,0c-.11,0-.135-.032-.133-.136.011-.48-.017-.961.024-1.44.015-.178.12-.337.127-.52,0-.052.012-.1.013-.156a.346.346,0,0,1,.238-.31c.169-.064.336-.192.518-.114a1.905,1.905,0,0,0,.492.115,1.226,1.226,0,0,0,.213.017.329.329,0,0,1,.308.1.117.117,0,0,0,.075.039.494.494,0,0,1,.3.136,2.826,2.826,0,0,1,.361.314c.089.109.231.193.231.364a.135.135,0,0,0,.088.135c.068.026.066.094.061.146-.016.163.084.192.209.2.075,0,.141,0,.2.074a.272.272,0,0,0,.238.068.577.577,0,0,1,.26.083c.154.065.268.2.432.237a.1.1,0,0,1,.059.034c.077.122.235.183.291.29s.189.142.222.284a1.125,1.125,0,0,0,.231.371.225.225,0,0,1,.063.149.184.184,0,0,0,.029.122c.153.161.107.37.144.558a.982.982,0,0,0,.1.336.285.285,0,0,1-.006.3,1.66,1.66,0,0,0-.129.649c-.008.075.006.152-.073.2a.082.082,0,0,0-.029.048,1.376,1.376,0,0,1-.181.522c-.057.08-.042.2-.132.283a.2.2,0,0,0-.042.132c0,.086,0,.167-.088.221-.042.025-.06.105-.024.125.1.058.12.183.219.248s.135.168.218.232c.16.122.15.307.2.47.025.085.125.129.105.238a.57.57,0,0,1-.06.225,1.164,1.164,0,0,0-.112.5.218.218,0,0,1-.072.136c-.081.089-.154.188-.264.293" transform="translate(-26.983 -11.244)" fill="#fff"/>
        <path id="Tracé_96" data-name="Tracé 96" d="M44.714,34.906a.437.437,0,0,1-.237.252c-.071,0-.249-.176-.248-.25a.423.423,0,0,1,.239-.234.385.385,0,0,1,.246.232" transform="translate(-30.534 -23.938)" fill="#fefcfc"/>
        <path id="Tracé_97" data-name="Tracé 97" d="M30.529,49.337c-.033.107-.087.183-.2.173a.162.162,0,0,1-.155-.173.164.164,0,0,1,.183-.163c.107,0,.142.078.174.163" transform="translate(-20.83 -33.949)" fill="#fefaf9"/>
        <path id="Tracé_98" data-name="Tracé 98" d="M26.423,25.85c-.013.1-.055.183-.163.176a.167.167,0,0,1-.176-.159.193.193,0,0,1,.18-.194c.111.007.139.091.159.176" transform="translate(-18.008 -17.724)" fill="#fefafa"/>
        <path id="Tracé_99" data-name="Tracé 99" d="M49.741,26.044c-.083-.04-.171-.076-.158-.19.011-.1.062-.186.174-.173a.169.169,0,0,1,.162.183c0,.113-.079.15-.178.181" transform="translate(-34.23 -17.728)" fill="#fefbfa"/>
        <path id="Tracé_100" data-name="Tracé 100" d="M26.33,35.891c.084-.026.122.033.169.073-.1.034-.02.145-.083.195-.032.025-.052.063-.1.065a.163.163,0,0,1-.188-.13c-.025-.106.04-.165.129-.2a.2.2,0,0,1,.076,0" transform="translate(-18.032 -24.774)" fill="#fefcfc"/>
        <path id="Tracé_101" data-name="Tracé 101" d="M45.887,49.314c-.061.089-.079.193-.2.184a.161.161,0,0,1-.158-.19.152.152,0,0,1,.166-.162c.121,0,.13.1.191.168" transform="translate(-31.432 -33.929)" fill="#fefbfb"/>
        <path id="Tracé_102" data-name="Tracé 102" d="M44.884,35.214c.011.078-.031.1-.1.1s-.107-.013-.107-.094.029-.11.109-.107.109.026.1.1" transform="translate(-30.844 -24.241)" fill="#c54a44"/>
      </g>
    </g>
  </g>
</svg>
