<svg xmlns="http://www.w3.org/2000/svg" width="48.004" height="64.276" viewBox="0 0 48.004 64.276">
  <g id="marker_solar_oven_empty" transform="translate(-1010.163 -512.676)">
    <path id="Union_1" data-name="Union 1" d="M1033.355,576.534l-17.215-24.022a24.009,24.009,0,0,1-2.793-3.9l-.046-.064a1.013,1.013,0,0,1-.134-.249,24,24,0,1,1,42,0,.989.989,0,0,1-.132.251l-.046.064a24.016,24.016,0,0,1-2.793,3.9l-17.216,24.02a1,1,0,0,1-1.625,0Z" fill="#ffc152"/>
    <ellipse id="Ellipse_1" data-name="Ellipse 1" cx="21.5" cy="21" rx="21.5" ry="21" transform="translate(1012.667 515.668)" fill="#fff"/>
  </g>
</svg>
