<svg xmlns="http://www.w3.org/2000/svg" width="48.426" height="66.117" viewBox="0 0 48.426 66.117">
  <g id="marker_solar_ballon" transform="translate(-682.886 -511.791)">
    <circle id="Ellipse_799" data-name="Ellipse 799" cx="22.421" cy="22.421" r="22.421" transform="translate(684.683 513.443)" fill="#fff"/>
    <path id="Tracé_48" data-name="Tracé 48" d="M712.772,540.125c.988-1.774,4.953-3.965,4.949-10.664,0-5.532-5.055-9.6-10.431-9.769v-.017c-.067,0-.133.008-.2.009s-.133-.009-.2-.008v.016c-5.377.169-10.425,4.248-10.422,9.779,0,6.7,4,8.589,4.96,10.377.684,1.271,1.027,2.272,1.589,3.335l1.361,4.843a2.682,2.682,0,0,0,.713,1.986,8.448,8.448,0,0,0,4.008,0,2.57,2.57,0,0,0,.714-2.229l1.314-4.466C711.711,542.3,712.061,541.4,712.772,540.125Zm-7.561,7.163-.719-2.557a15.8,15.8,0,0,0,5.176.008l-.751,2.554Z" transform="translate(0.004 0.899)" fill="#24a069"/>
    <path id="Tracé_49" data-name="Tracé 49" d="M713.524,512.7a25.667,25.667,0,0,0-6.478-.906,25.1,25.1,0,0,0-6.4.906c-13.654,3.739-21.493,19.4-15.971,32.109,4.956,11.4,22.306,33.1,22.306,33.1a.151.151,0,0,0,.069-.109c0,.065.124.109.124.109s17.406-21.7,22.362-33.1C735.054,532.1,727.178,516.436,713.524,512.7Zm-6.318,44.558c-.037,0-.16,0-.16,0s-.049,0-.086,0c-11.8-.039-21.842-10.123-21.746-21.855.1-11.793,10.393-21.682,21.832-21.6,11.439-.083,21.773,9.806,21.869,21.6A22.088,22.088,0,0,1,707.206,557.255Z" fill="#24a069"/>
  </g>
</svg>
