<svg xmlns="http://www.w3.org/2000/svg" xmlns:xlink="http://www.w3.org/1999/xlink" width="48.426" height="66.117" viewBox="0 0 48.426 66.117">
  <defs>
    <clipPath id="clip-path">
      <rect id="Rectangle_2347" data-name="Rectangle 2347" width="30" height="20.864" fill="none"/>
    </clipPath>
  </defs>
  <g id="marker_mars_rover" transform="translate(-682.886 -511.791)">
    <circle id="Ellipse_799" data-name="Ellipse 799" cx="22.421" cy="22.421" r="22.421" transform="translate(684.683 513.443)" fill="#fff"/>
    <path id="Tracé_49" data-name="Tracé 49" d="M713.524,512.7a25.667,25.667,0,0,0-6.478-.906,25.1,25.1,0,0,0-6.4.906c-13.654,3.739-21.493,19.4-15.971,32.109,4.956,11.4,22.306,33.1,22.306,33.1a.151.151,0,0,0,.069-.109c0,.065.124.109.124.109s17.406-21.7,22.362-33.1C735.054,532.1,727.178,516.436,713.524,512.7Zm-6.318,44.558c-.037,0-.16,0-.16,0s-.049,0-.086,0c-11.8-.039-21.842-10.123-21.746-21.855.1-11.793,10.393-21.682,21.832-21.6,11.439-.083,21.773,9.806,21.869,21.6A22.088,22.088,0,0,1,707.206,557.255Z" fill="#ea5c17"/>
    <g id="Groupe_318" data-name="Groupe 318" transform="translate(692.104 525.432)">
      <g id="Groupe_316" data-name="Groupe 316" transform="translate(0 0)" clip-path="url(#clip-path)">
        <path id="Tracé_85" data-name="Tracé 85" d="M29.587,16.571A4.251,4.251,0,0,0,28.1,16.53a3.536,3.536,0,0,0-1.405.621,3.407,3.407,0,0,0-1.183,1.692,2.41,2.41,0,0,0-.116,1.235c.026.127.035.169-.159.165-.6-.01-1.192-.072-1.789-.1-.726-.029-1.45-.118-2.177-.147-.392-.015-.783-.05-1.174-.055a2.81,2.81,0,0,0-.785-.01A3.247,3.247,0,0,0,19.4,18.5a3.306,3.306,0,0,0-.471-1.2,2.9,2.9,0,0,0-1-1.032,3.968,3.968,0,0,0-1.191-.47,2.96,2.96,0,0,0-1.883.2,3.125,3.125,0,0,0-1.486,1.212,3.394,3.394,0,0,0-.464,1.006,2.621,2.621,0,0,0-.088,1.049c.038.209-.051.249-.227.236-.424-.033-.849-.082-1.273-.09-.384-.007-.765-.038-1.147-.063-.62-.041-1.242-.051-1.861-.115-.406-.042-.817-.045-1.226-.054-.292-.006-.292-.023-.264-.3a3.587,3.587,0,0,0-.27-1.99,3.687,3.687,0,0,0-1-1.221,3.717,3.717,0,0,0-1.9-.714c-.132-.022-.267.075-.418.055-.117-.016-.146-.058-.138-.16.066-.869.146-1.737.188-2.606.01-.216.045-.431.039-.649a.642.642,0,0,1,.7-.588c.37.034.743.036,1.114.059.625.04,1.252.048,1.876.116.292.032.59.01.884.027.171.01.12-.14.124-.189.033-.4.041-.809.061-1.213.017-.325.034-.649.063-.972.021-.222-.11-.267-.287-.276-.75-.036-1.5-.073-2.251-.106a.759.759,0,0,1-.725-.918c.069-.4.055-.8.094-1.205.06-.62.063-1.244.123-1.865.053-.56.052-1.124.093-1.685.026-.355-.039-.759.425-.933a1.356,1.356,0,0,1,.616-.05c.434.042.868.054,1.3.086.575.042,1.151.086,1.726.123.391.025.782.04,1.173.059.612.031,1.224.046,1.833.123.164.021.322-.048.5.046.5.275.38.736.373,1.154-.007.447-.057.893-.089,1.338-.042.568-.087,1.136-.125,1.7-.026.395-.022.793-.067,1.185a1.748,1.748,0,0,1-.153.885.7.7,0,0,1-.657.327c-.713-.028-1.423-.1-2.135-.147-.081-.005-.163.008-.243,0-.175-.013-.217.053-.224.231-.024.6-.043,1.192-.118,1.785a4.236,4.236,0,0,1-.024.5c-.029.12.12.129.213.133.587.029,1.175.042,1.761.081.713.047,1.424.123,2.138.17a5.768,5.768,0,0,1,.729.008.255.255,0,0,0,.134-.007c.158-.062.377.248.462-.03.049-.161.106-.331.145-.5.12-.523.3-1.033.406-1.558a14.881,14.881,0,0,0,.364-1.464c.015-.151.147-.26.15-.456A5.741,5.741,0,0,0,17.18,8.68a4.1,4.1,0,0,0,1.543.538c.177.017.221.08.258.246.11.492.175.993.253,1.488.038.244.1.491.118.741.015.18.074.3.317.279a11.107,11.107,0,0,1,1.766.067c.564.044,1.131.054,1.7.087.154.009.211-.038.254-.193.189-.69.4-1.373.6-2.06.14-.482.268-.969.405-1.452.165-.581.328-1.162.5-1.74a.568.568,0,0,1,.645-.371c.38.035.764.043,1.146.06a1.145,1.145,0,0,1,.319.026c.143.046.3-.037.453.018.046-.132.1-.262.138-.4a1.9,1.9,0,0,1,1.245-1.375,2.135,2.135,0,0,1,1.037-.1c.356.047.725.027,1.088.068a.635.635,0,0,1,.613.64.652.652,0,0,1-.592.662,6.019,6.019,0,0,1-1.382-.043.664.664,0,0,0-.743.626c-.015.4-.046.807-.1,1.207a.7.7,0,0,0,.664.794c.452.023.9.059,1.354.1a.7.7,0,0,1,.552.622.632.632,0,0,1-.6.684,7.155,7.155,0,0,1-1.819-.111,1.621,1.621,0,0,1-.995-.634,2.037,2.037,0,0,1-.46-1.17c-.005-.26-.207-.282-.406-.284a7.218,7.218,0,0,1-.9-.059c-.091-.013-.175-.02-.214.129-.149.569-.331,1.132-.483,1.7-.176.659-.4,1.305-.543,1.973a3.163,3.163,0,0,1-.179.576c-.077.179.016.226.155.234.577.031,1.156.048,1.733.082s1.145.1,1.718.116a5.289,5.289,0,0,0,.767.034.823.823,0,0,1,.667.632c-.058.865-.139,1.729-.177,2.6a2.947,2.947,0,0,0-.011.864" transform="translate(-1.58 -0.911)" fill="#ea5c17"/>
        <path id="Tracé_86" data-name="Tracé 86" d="M29.132,3.576c-.015-.218-.015-.432-.008-.649A4.058,4.058,0,0,1,29.9.741,3,3,0,0,1,30.494.11a.765.765,0,0,1,.881.064c.362.4.714.8,1.049,1.217.193.24.417.457.629.682a.152.152,0,0,0,.251,0c.364-.349.733-.7,1.105-1.036a.932.932,0,0,1,.645-.29.609.609,0,0,1,.584.382.648.648,0,0,1-.188.755c-.383.345-.736.724-1.138,1.043-.258.2-.254.279-.03.533.475.541.964,1.072,1.434,1.617.356.413.311.828-.225,1.238a3.759,3.759,0,0,1-1.875.777,4.035,4.035,0,0,1-2.354-.423,4.294,4.294,0,0,1-1.335-1.122,3.074,3.074,0,0,1-.705-1.591,3.484,3.484,0,0,0-.089-.382" transform="translate(-14.886 0)" fill="#ea5c17"/>
        <path id="Tracé_87" data-name="Tracé 87" d="M.02,33.768a1.991,1.991,0,0,1,.566-1.706,1.727,1.727,0,0,1,1.2-.555A1.967,1.967,0,0,1,3.921,33.1a1.9,1.9,0,0,1-.393,1.643,1.886,1.886,0,0,1-1.335.745A1.927,1.927,0,0,1,.02,33.768" transform="translate(0 -16.106)" fill="#ea5c17"/>
        <path id="Tracé_88" data-name="Tracé 88" d="M27.548,33.078a1.911,1.911,0,0,1,2.1,1.793,1.941,1.941,0,0,1-1.786,2.151,1.9,1.9,0,0,1-2.169-1.694,1.946,1.946,0,0,1,1.854-2.25" transform="translate(-13.126 -16.908)" fill="#ea5c17"/>
        <path id="Tracé_89" data-name="Tracé 89" d="M53.514,38.534a1.916,1.916,0,0,1-2.133-1.827,2,2,0,0,1,1.9-2.127,1.981,1.981,0,0,1,.237,3.955" transform="translate(-26.261 -17.676)" fill="#ea5c17"/>
        <path id="Tracé_90" data-name="Tracé 90" d="M13.816,8.925A1.359,1.359,0,0,1,12.5,7.6a1.415,1.415,0,0,1,1.132-1.344c.988-.017,1.464.487,1.509,1.229a1.337,1.337,0,0,1-1.322,1.441" transform="translate(-6.387 -3.198)" fill="#fff"/>
      </g>
    </g>
  </g>
</svg>
