<svg xmlns="http://www.w3.org/2000/svg" viewBox="0 0 25 23.5"><defs><style>.cls-1{fill:#fff;}.cls-2{fill:#ccc;}</style></defs><g id="Calque_2" data-name="Calque 2"><g id="Calque_1-2" data-name="Calque 1"><path id="icon-img" class="cls-1" d="M.5,20.6V2.89a.36.36,0,0,0,0-.09A2.7,2.7,0,0,1,3.3.5H21.72a2.69,2.69,0,0,1,2.77,2.62.38.38,0,0,1,0,.15q0,8.48,0,17a3,3,0,0,1-.15.94A2.7,2.7,0,0,1,21.69,23H3.25A2.62,2.62,0,0,1,.86,21.61,5.77,5.77,0,0,1,.5,20.6Zm12.19-.12h8a3,3,0,0,0,.42,0,.55.55,0,0,0,.58-.52.59.59,0,0,0-.1-.34,2.61,2.61,0,0,0-.17-.28c-.91-1.31-1.83-2.61-2.74-3.91a1.06,1.06,0,0,0-1.8-.16c-.33.33-.65.68-1,1a1.9,1.9,0,0,1-.68.38A1.09,1.09,0,0,1,14,16.07l-3.42-4.46c-.36-.47-.7-.94-1.08-1.39a.72.72,0,0,0-1-.24.78.78,0,0,0-.3.37,1.62,1.62,0,0,0-.1.18L3.78,19.18a2.29,2.29,0,0,0-.17.46.63.63,0,0,0,.42.77h0a2.76,2.76,0,0,0,.57.06Zm6-13.32A2.62,2.62,0,1,0,16,9.78a2.63,2.63,0,0,0,2.63-2.62Z"/><path class="cls-2" d="M4.69,23.5H3.15A3.09,3.09,0,0,1,.42,21.85,6.27,6.27,0,0,1,0,20.73a.27.27,0,0,1,0-.13V2.89a.43.43,0,0,1,.07-.25A3.17,3.17,0,0,1,3.32,0h18.4A3.24,3.24,0,0,1,25,3.11v.17c0,5.64,0,11.3,0,17a3.43,3.43,0,0,1-.18,1.1,3.25,3.25,0,0,1-3.14,2.17h-17Zm-1.46-1H21.69A2.22,2.22,0,0,0,23.86,21a2.28,2.28,0,0,0,.13-.78q0-8.48,0-17V3.13A2.2,2.2,0,0,0,21.73,1H3.3A2.21,2.21,0,0,0,1,2.88.36.36,0,0,1,1,3V20.54a5.84,5.84,0,0,0,.31.86A2.1,2.1,0,0,0,3.23,22.5ZM20.75,21H4.64A2.36,2.36,0,0,1,4,20.9a1.17,1.17,0,0,1-.73-.55,1.14,1.14,0,0,1-.09-.85A2.48,2.48,0,0,1,3.34,19L7.7,10.31l.1-.19a1.21,1.21,0,0,1,.49-.56A1.22,1.22,0,0,1,10,10c.24.27.5.62.76,1l.29.38,3.41,4.47a.64.64,0,0,0,.68.36,1.27,1.27,0,0,0,.44-.26c.24-.21.44-.42.65-.64l.34-.34a1.45,1.45,0,0,1,.49-.4,1.56,1.56,0,0,1,2.1.69L21.84,19a2.31,2.31,0,0,1,.21.35,1,1,0,0,1,.15.58,1.08,1.08,0,0,1-.35.73,1,1,0,0,1-.75.27A1.73,1.73,0,0,1,20.75,21ZM4.63,20H21.07l.13-.06a.41.41,0,0,1-.05-.09,2.39,2.39,0,0,0-.13-.21l-2.74-3.92a.59.59,0,0,0-.8-.3.51.51,0,0,0-.2.16c-.15.16-.25.27-.36.37a9.22,9.22,0,0,1-.71.69,2.1,2.1,0,0,1-.86.49,1.63,1.63,0,0,1-1.75-.78c-1.1-1.43-2.23-2.92-3.38-4.41l-.29-.39c-.25-.33-.5-.66-.77-1-.09-.13-.15-.15-.18-.16a.3.3,0,0,0-.17,0,.31.31,0,0,0-.09.11.31.31,0,0,1-.05.1l-.07.12L4.23,19.4a1.74,1.74,0,0,0-.13.36.13.13,0,0,0,.07.17A1.51,1.51,0,0,0,4.63,20ZM16,10.28h0a3.13,3.13,0,1,1,3.13-3.2v.08a3.06,3.06,0,0,1-.92,2.21A3.13,3.13,0,0,1,16,10.28ZM16,5a2.13,2.13,0,0,0,0,4.25h0a2.13,2.13,0,0,0,2.12-2V7.16A2.14,2.14,0,0,0,16,5Z"/></g></g></svg>