<svg xmlns="http://www.w3.org/2000/svg" viewBox="0 0 25 25"><defs><style>.cls-1{fill:#fff;}.cls-2{fill:#ccc;}</style></defs><g id="Calque_2" data-name="Calque 2"><g id="Calque_1-2" data-name="Calque 1"><path id="Tracé_6233" data-name="Tracé 6233" class="cls-1" d="M13.14.5,14,.59a11.7,11.7,0,0,1,6.82,3.26l0,0-4.58,7.81L10,.78c.2,0,.37-.08.56-.1L11.88.52l.1,0Z"/><path class="cls-2" d="M16.28,12.21h0a.5.5,0,0,1-.43-.25L9.52,1A.51.51,0,0,1,9.86.29l.18,0,.41-.08.79-.09L11.82,0,12,0h1.21l.27,0,.6.06a12.38,12.38,0,0,1,7.11,3.4l.1.13a.49.49,0,0,1,0,.53L16.71,12A.5.5,0,0,1,16.28,12.21ZM10.75,1.15l5.54,9.56L20.23,4a11.31,11.31,0,0,0-6.29-2.9L13.37,1l-.25,0H12l-.16,0-.54.06Z"/><path id="Tracé_6234" data-name="Tracé 6234" class="cls-1" d="M24.5,13c0,.27,0,.55-.09.83-.07.47-.17.94-.25,1.4,0,.1-.05.14-.16.14H15.06L21.45,4.51c.11.12.22.24.31.36a11.63,11.63,0,0,1,2.63,6c0,.29.06.58.09.87a.51.51,0,0,0,0,.13Z"/><path class="cls-2" d="M24,15.9H15.06a.51.51,0,0,1-.43-.76L21,4.25A.47.47,0,0,1,21.4,4a.54.54,0,0,1,.43.17l.09.1.23.27a12.21,12.21,0,0,1,2.73,6.22,5.61,5.61,0,0,1,.06.59l0,.3a1.13,1.13,0,0,1,0,.18v1.24l0,.24c0,.21,0,.41-.06.62l-.15.85-.1.56A.63.63,0,0,1,24,15.9Zm-.33-.72Zm-7.73-.28h7.78l.05-.29c.05-.28.11-.55.15-.83s0-.36.06-.54L24,13V11.84s0,0,0-.13l0-.27c0-.18,0-.36-.06-.53a11.15,11.15,0,0,0-2.37-5.54ZM24.5,13h0Z"/><path id="Tracé_6235" data-name="Tracé 6235" class="cls-1" d="M13.6,8.85H1a1.55,1.55,0,0,1,0-.15A11.89,11.89,0,0,1,8.91,1a.16.16,0,0,1,.21.06v0q1.8,3.13,3.62,6.27l.79,1.35Z"/><path class="cls-2" d="M13.6,9.35H1a.51.51,0,0,1-.4-.19.53.53,0,0,1-.08-.44c0-.1,0-.14,0-.18a12.45,12.45,0,0,1,8.13-8,.66.66,0,0,1,.82.29.08.08,0,0,1,0,0l3.62,6.25L14,8.47l.09.17a.48.48,0,0,1,0,.48A.5.5,0,0,1,13.6,9.35Zm-11.87-1h11l-.42-.73c-1.17-2-2.33-4-3.5-6A11.37,11.37,0,0,0,1.73,8.35Z"/><path id="Tracé_6236" data-name="Tracé 6236" class="cls-1" d="M3.68,20.64A12.13,12.13,0,0,1,1.77,17.9,11.79,11.79,0,0,1,.51,12.1,12.39,12.39,0,0,1,.79,9.92c0-.14.09-.18.23-.18H9.89Z"/><path class="cls-2" d="M3.68,21.14A.5.5,0,0,1,3.32,21a11.83,11.83,0,0,1-2-2.86,12.27,12.27,0,0,1-1.32-6A13.19,13.19,0,0,1,.3,9.82.68.68,0,0,1,1,9.24H9.89a.5.5,0,0,1,.43.25.52.52,0,0,1,0,.5L4.12,20.89a.51.51,0,0,1-.38.25ZM1.23,10.24A11.9,11.9,0,0,0,1,12.12a11.24,11.24,0,0,0,1.21,5.55A11,11,0,0,0,3.6,19.78L9,10.25Z"/><path id="Tracé_6237" data-name="Tracé 6237" class="cls-1" d="M15.83,24.06l-4.42-7.77H23.92a11.66,11.66,0,0,1-2.58,4.4A11.82,11.82,0,0,1,15.83,24.06Z"/><path class="cls-2" d="M15.83,24.56a.5.5,0,0,1-.43-.25L11,16.54a.5.5,0,0,1,.44-.75H23.92a.51.51,0,0,1,.41.21.49.49,0,0,1,.07.44A12.43,12.43,0,0,1,16,24.54.34.34,0,0,1,15.83,24.56Zm-3.56-7.77,3.8,6.68a11.42,11.42,0,0,0,7.14-6.68Z"/><path id="Tracé_6238" data-name="Tracé 6238" class="cls-1" d="M4.28,21.23,8.75,13.4l6.18,10.84a11.92,11.92,0,0,1-5,0A11.62,11.62,0,0,1,4.28,21.23Z"/><path class="cls-2" d="M12.44,25a12.31,12.31,0,0,1-2.63-.28,12.1,12.1,0,0,1-5.87-3.13A.5.5,0,0,1,3.85,21l4.47-7.83a.47.47,0,0,1,.43-.25h0a.47.47,0,0,1,.43.25L15.36,24a.48.48,0,0,1,0,.45.49.49,0,0,1-.35.29A12.66,12.66,0,0,1,12.44,25ZM4.91,21.13a11.31,11.31,0,0,0,9.23,2.74L8.75,14.41Z"/></g></g></svg>