<svg xmlns="http://www.w3.org/2000/svg" viewBox="0 0 24.92 24.7"><defs><style>.cls-1{fill:#fff;}.cls-2{fill:#ccc;}</style></defs><g id="Calque_2" data-name="Calque 2"><g id="Calque_1-2" data-name="Calque 1"><path id="icon-fullscreen" class="cls-1" d="M22.72,24.2H16.19a1.7,1.7,0,0,1-1.7-1.7h0a1.7,1.7,0,0,1,1.7-1.7H21V16a1.7,1.7,0,0,1,1.7-1.7h0a1.7,1.7,0,0,1,1.7,1.7h0v6.52a1.71,1.71,0,0,1-1.7,1.71Zm-14,0H2.21a1.7,1.7,0,0,1-1.7-1.7h0V16a1.7,1.7,0,0,1,1.7-1.7h0A1.7,1.7,0,0,1,3.91,16h0V20.8H8.73a1.7,1.7,0,0,1,1.7,1.7h0a1.7,1.7,0,0,1-1.7,1.7Zm14-13.77A1.7,1.7,0,0,1,21,8.73h0V3.9H16.18a1.7,1.7,0,0,1-1.7-1.7h0A1.7,1.7,0,0,1,16.18.5h6.53a1.7,1.7,0,0,1,1.7,1.7h0V8.72a1.71,1.71,0,0,1-1.7,1.71Zm-20.51,0A1.7,1.7,0,0,1,.5,8.73h0V2.2A1.7,1.7,0,0,1,2.2.5H8.73a1.7,1.7,0,0,1,1.7,1.7h0a1.7,1.7,0,0,1-1.7,1.7H3.9V8.73a1.7,1.7,0,0,1-1.7,1.7Z"/><path class="cls-2" d="M8.73,24.7h0v0H2.21A2.21,2.21,0,0,1,0,22.5V16a2.21,2.21,0,0,1,4.41,0V20.3H8.73a2.2,2.2,0,0,1,2.2,2.2,2.2,2.2,0,0,1-2.2,2.2ZM2.21,14.77A1.21,1.21,0,0,0,1,16V22.5a1.21,1.21,0,0,0,1.21,1.2H8.73a1.2,1.2,0,0,0,0-2.4H3.91a.5.5,0,0,1-.5-.5V16A1.2,1.2,0,0,0,2.21,14.77ZM22.72,24.7H16.19a2.2,2.2,0,0,1,0-4.4h4.33V16a2.2,2.2,0,0,1,4.4,0v6.52A2.21,2.21,0,0,1,22.72,24.7Zm-6.53-3.4a1.2,1.2,0,0,0,0,2.4h6.53a1.2,1.2,0,0,0,1.2-1.2V16a1.2,1.2,0,0,0-2.4,0V20.8a.5.5,0,0,1-.5.5Zm6.52-10.37a2.21,2.21,0,0,1-2.2-2.2V4.4H16.18a2.2,2.2,0,1,1,0-4.4h6.53a2.21,2.21,0,0,1,2.2,2.2V8.72a2.22,2.22,0,0,1-.64,1.56,2.19,2.19,0,0,1-1.56.65ZM16.18,1a1.2,1.2,0,1,0,0,2.4H21a.5.5,0,0,1,.5.5V8.73a1.2,1.2,0,1,0,2.4,0V2.2A1.2,1.2,0,0,0,22.71,1Zm-14,9.93A2.21,2.21,0,0,1,0,8.73V2.2A2.21,2.21,0,0,1,2.2,0H8.73a2.2,2.2,0,0,1,0,4.4H4.4V8.73a2.21,2.21,0,0,1-2.2,2.2ZM2.2,1A1.2,1.2,0,0,0,1,2.2V8.73a1.2,1.2,0,0,0,2.4,0V3.9a.5.5,0,0,1,.5-.5H8.73a1.2,1.2,0,0,0,0-2.4Z"/></g></g></svg>