<svg xmlns="http://www.w3.org/2000/svg" viewBox="0 0 25 25"><defs><style>.cls-1{fill:#fff;}.cls-2{fill:#ccc;}</style></defs><g id="Calque_2" data-name="Calque 2"><g id="Calque_1-2" data-name="Calque 1"><g id="icon-rec"><g id="Ellipse_739" data-name="Ellipse 739"><circle class="cls-1" cx="12.5" cy="12.5" r="12"/><path class="cls-2" d="M12.5,25A12.5,12.5,0,1,1,25,12.5,12.52,12.52,0,0,1,12.5,25Zm0-24A11.5,11.5,0,1,0,24,12.5,11.51,11.51,0,0,0,12.5,1Z"/><circle class="cls-1" cx="12.5" cy="12.5" r="11.5"/><path class="cls-2" d="M12.5,24.5a12,12,0,1,1,12-12A12,12,0,0,1,12.5,24.5Zm0-23a11,11,0,1,0,11,11A11,11,0,0,0,12.5,1.5Z"/></g><circle id="Ellipse_740" data-name="Ellipse 740" class="cls-1" cx="12.5" cy="12.5" r="8"/><path class="cls-2" d="M12.5,21A8.5,8.5,0,1,1,21,12.5,8.51,8.51,0,0,1,12.5,21Zm0-16A7.5,7.5,0,1,0,20,12.5,7.5,7.5,0,0,0,12.5,5Z"/></g></g></g></svg>