<?xml version="1.0" encoding="UTF-8"?>
<svg id="Calque_2"
    xmlns="http://www.w3.org/2000/svg" viewBox="0 0 171.57 188.55">
    <defs>
        <style>.cls-1{stroke:#dad8da;stroke-miterlimit:10;}.cls-1,.cls-2{fill:#fff;}.cls-3{fill:#46bed6;}.cls-4{fill:#dad8db;}.cls-5{fill:#333;}</style>
    </defs>
    <g id="Calque_1-2">
        <g id="photon_x5F_front">
            <g id="body">
                <path class="cls-2" d="M159.89,99.86s11.68,8.71,11.68,33.54c0,24.84-11.68,33.54-11.68,33.54h-5.49s.38-67.08.38-67.08h5.11Z"/>
                <path class="cls-4" d="M158.83,102.7c2.28,2.18,9.9,10.93,9.9,30.71,0,12-2.88,19.88-5.3,24.37-1.83,3.4-3.68,5.43-4.61,6.33h-1.58l.35-61.41h1.24M159.89,99.86h-5.11l-.38,67.08h5.49s11.68-8.71,11.68-33.54-11.68-33.54-11.68-33.54h0Z"/>
                <path class="cls-2" d="M11.68,99.86S0,108.57,0,133.4s11.68,33.54,11.68,33.54h5.49l-.38-67.08h-5.11Z"/>
                <path class="cls-4" d="M13.97,102.69l.35,61.41h-1.59c-2.28-2.18-9.9-10.93-9.9-30.71,0-12,2.88-19.88,5.3-24.37,1.83-3.4,3.68-5.43,4.61-6.33h1.23M16.79,99.86h-5.11S0,108.57,0,133.4s11.68,33.54,11.68,33.54h5.49l-.38-67.08h0Z"/>
                <path class="cls-2" d="M147.9,100.53c-7.12,2.32-14.91-.36-19.1-6.56h0s-42.98-6.11-42.98-6.11h0s-.03,0-.03,0h-.03s0,0,0,0l-42.98,6.11h0c-4.19,6.2-11.98,8.88-19.1,6.56l-8.22-2.68v71.11l7.06-3.11c4.57-2.01,9.59-2.76,14.54-2.17h0c9.71,1.16,18.11,7.3,22.18,16.19,2.42,5.29,7.7,8.68,13.51,8.68h13.01s13.07,0,13.07,0c5.82,0,11.1-3.39,13.51-8.68,4.06-8.9,12.47-15.03,22.18-16.19,4.95-.59,9.98.16,14.54,2.17l7.06,3.11v-71.11l-8.22,2.68Z"/>
                <path class="cls-4" d="M85.78,90.71l41.43,5.89c3.7,4.77,9.4,7.59,15.49,7.59,2.06,0,4.11-.32,6.07-.97l4.51-1.47v62.86l-3.08-1.36c-3.92-1.73-8.09-2.61-12.38-2.61-1.21,0-2.44.07-3.65.22-10.62,1.27-19.98,8.1-24.42,17.83-1.95,4.27-6.24,7.03-10.93,7.03h-13.07s-13.01,0-13.01,0c-4.69,0-8.99-2.76-10.94-7.03-4.44-9.73-13.8-16.56-24.42-17.83-1.21-.14-2.43-.22-3.65-.22-4.29,0-8.45.88-12.38,2.61l-3.08,1.36v-62.86l4.51,1.47c1.97.64,4.01.97,6.07.97,6.09,0,11.79-2.81,15.49-7.59l41.42-5.89M85.81,87.85h-.03s-.03,0-.03,0h0s-42.98,6.12-42.98,6.12h0c-3.18,4.71-8.44,7.39-13.91,7.39-1.73,0-3.48-.27-5.2-.83l-8.22-2.68v71.11l7.06-3.11c3.55-1.56,7.38-2.36,11.23-2.36,1.1,0,2.21.07,3.31.2,9.71,1.16,18.11,7.3,22.18,16.19,2.42,5.29,7.7,8.68,13.51,8.68h13.01s13.07,0,13.07,0c5.82,0,11.1-3.39,13.51-8.68,4.06-8.9,12.47-15.03,22.18-16.19,1.1-.13,2.21-.2,3.31-.2,3.86,0,7.68.8,11.23,2.36l7.06,3.11v-71.11l-8.22,2.68c-1.71.56-3.46.83-5.19.83-5.46,0-10.72-2.68-13.91-7.39h0s-42.98-6.11-42.98-6.11h0Z"/>
            </g>
            <g id="wheels">
                <path class="cls-5" d="M152.29,168.96h5.35c1.15,0,2.12-.87,2.25-2.01h0c2.51-22.29,2.51-44.79,0-67.08h0c-.13-1.15-1.1-2.01-2.25-2.01h-5.35c-1.08,0-1.92.94-1.8,2.01h0c2.51,22.29,2.51,44.79,0,67.08h0c-.12,1.07.72,2.01,1.8,2.01Z"/>
                <path class="cls-5" d="M19.28,168.96h-5.35c-1.15,0-2.12-.87-2.25-2.01h0c-2.51-22.29-2.51-44.79,0-67.08h0c.13-1.15,1.1-2.01,2.25-2.01h5.35c1.08,0,1.92.94,1.8,2.01h0c-2.51,22.29-2.51,44.79,0,67.08h0c.12,1.07-.72,2.01-1.8,2.01Z"/>
            </g>
            <g id="screen">
                <path class="cls-5" d="M95.98,161.46l15.83-19.96c5.2-6.55.53-16.21-7.83-16.21h-36.21c-8.36,0-13.03,9.64-7.85,16.2l15.76,19.95c5.18,6.55,15.11,6.56,20.3.02Z"/>
                <path d="M93.49,134.4c1.26,0,2.34.68,2.89,1.81.55,1.13.41,2.4-.38,3.39l-6.66,8.39c-.85,1.07-2.12,1.68-3.48,1.68s-2.64-.62-3.49-1.69l-6.63-8.39c-.78-.99-.92-2.25-.37-3.38.55-1.13,1.63-1.81,2.88-1.81h15.23M93.49,133.4h-15.23c-3.51,0-5.48,4.05-3.3,6.81l6.63,8.39c1.09,1.38,2.68,2.07,4.27,2.07s3.18-.69,4.27-2.06l6.66-8.39c2.19-2.76.22-6.82-3.29-6.82h0Z"/>
            </g>
            <g id="head">
                <path class="cls-4" d="M44.56,92.81l-1.74,2.24c.53.41,1.05.82,1.59,1.24,9.14,7.15,19.46,15.21,40.34,15.23h2c20.92,0,31.25-8.07,40.4-15.23.53-.42,1.06-.83,1.59-1.24l-1.74-2.24c-.53.41-1.06.83-1.6,1.24-9.2,7.19-18.71,14.63-38.65,14.63h-2c-19.91-.02-29.41-7.44-38.6-14.63-.54-.42-1.07-.83-1.6-1.24"/>
                <path id="head-2" class="cls-2" d="M85.81,19.61h0s-.03,0-.05,0c0,0-.01,0-.02,0h0c-28.63.04-51.83,29.17-51.94,57.81.11,15.84,22.91,28.66,38.76,28.66h13.17s13.24,0,13.24,0c15.85,0,38.66-12.82,38.76-28.66-.11-28.64-23.31-57.76-51.94-57.8Z"/>
                <path id="head-3" class="cls-4" d="M85.47,22.44h.34c12.69.02,24.95,6.13,34.52,17.2,9.22,10.66,14.53,24.44,14.58,37.75-.1,14.26-21.81,25.84-35.93,25.84h-13.24s-13.17,0-13.17,0c-7.38,0-16.46-3.03-23.7-7.91-7.73-5.21-12.19-11.74-12.23-17.9.05-13.35,5.37-27.12,14.58-37.78,9.5-10.99,21.65-17.09,34.23-17.2M85.81,19.6s-.03,0-.05,0c0,0-.01,0-.02,0h0c-28.63.04-51.83,29.17-51.94,57.81.11,15.84,22.91,28.66,38.76,28.66h13.17s13.24,0,13.24,0c15.85,0,38.66-12.82,38.76-28.66-.11-28.64-23.31-57.76-51.94-57.8h0Z"/>
            </g>
            <g id="ears">
                <ellipse class="cls-1" cx="58.28" cy="36.16" rx="12.7" ry="5.05" transform="translate(-9.44 47.01) rotate(-40.92)"/>
                <ellipse class="cls-1" cx="113.29" cy="36.16" rx="5.05" ry="12.7" transform="translate(11.76 98.08) rotate(-49.08)"/>
                <path class="cls-3" d="M114.34,37.87c1.51,0,2.97-.81,3.74-2.23l15.93-29.36c1.12-2.06.35-4.65-1.71-5.76-2.07-1.12-4.65-.35-5.76,1.71l-15.93,29.36c-1.12,2.06-.35,4.65,1.71,5.76.64.35,1.34.52,2.02.52Z"/>
                <path class="cls-3" d="M57.22,37.87c-1.51,0-2.97-.81-3.74-2.23l-15.93-29.36c-1.12-2.06-.35-4.65,1.71-5.76,2.07-1.12,4.65-.35,5.76,1.71l15.93,29.36c1.12,2.06.35,4.65-1.71,5.76-.64.35-1.34.52-2.02.52Z"/>
            </g>
            <g id="eyes">
                <ellipse class="cls-3" cx="104.69" cy="62.29" rx="20.32" ry="5.46" transform="translate(36.13 162.98) rotate(-86.5)"/>
                <ellipse class="cls-3" cx="66.88" cy="62.28" rx="5.46" ry="20.32" transform="translate(-3.68 4.2) rotate(-3.5)"/>
            </g>
        </g>
    </g>
</svg>