<?xml version="1.0" encoding="utf-8"?>
<!-- Generator: Adobe Illustrator 24.2.1, SVG Export Plug-In . SVG Version: 6.00 Build 0)  -->
<svg version="1.1" id="Layer_1" xmlns="http://www.w3.org/2000/svg" xmlns:xlink="http://www.w3.org/1999/xlink" x="0px" y="0px"
	 viewBox="0 0 427.8 79.9" style="enable-background:new 0 0 427.8 79.9;" xml:space="preserve">
<style type="text/css">
	.st0{fill:#FF0000;}
</style>
<g id="Layer_1-2">
	<path class="st0" d="M0,79.9V50.7C-0.3,26.5,23.3,6.4,47.2,9.9C69.3-3.6,99.6-3.8,120,13.6c0.6,0.6,1.5,0.7,2.2,0.2
		c15.6-8,33.8-8.8,50.1-2.3c0.7,0.3,1.6,0.2,2.2-0.3c9.5-6.8,21-11.1,32.7-11.1c13.5-0.8,26.9,3,37.8,10.9c1,0.7,1.2,0.7,2.2,0
		C268-4.2,293.7-2,315.6,8.7c12.9-3.8,26.7-2.5,38.7,3.5c40.4-5.1,73.1,25.8,73.1,67.7C284.9,79.9,142.5,79.8,0,79.9z"/>
</g>
</svg>
