<svg xmlns="http://www.w3.org/2000/svg" width="34.992" height="27.996" viewBox="0 0 34.992 27.996">
  <path id="icon-mode-multi" d="M-12.293,12941.114a2.931,2.931,0,0,1-2.946-2.906v-22.187a2.929,2.929,0,0,1,2.946-2.9h29.1a2.929,2.929,0,0,1,2.946,2.9v22.187a2.931,2.931,0,0,1-2.946,2.906Zm-1.965-25.093v22.187a1.956,1.956,0,0,0,1.965,1.936h29.1a1.954,1.954,0,0,0,1.965-1.936v-22.187a1.954,1.954,0,0,0-1.965-1.936h-29.1A1.956,1.956,0,0,0-14.258,12916.021Zm2.965,22.187a1,1,0,0,1-1-1v-20.186a1,1,0,0,1,1-1h13a1,1,0,0,1,1,1v20.186a1,1,0,0,1-1,1Zm21.085-7.182v-2.887H6.863a1.022,1.022,0,1,1,0-2.043h2.93v-2.888a1.034,1.034,0,0,1,2.069,0v2.888h2.93a1.022,1.022,0,1,1,0,2.043h-2.93v2.887a1.035,1.035,0,0,1-2.069,0Z" transform="translate(15.239 -12913.118)"/>
</svg>
