<svg xmlns="http://www.w3.org/2000/svg" width="125.097" height="76.2" viewBox="0 0 125.097 76.2"><defs><style>.a{isolation:isolate;}.b{fill:#ffc152;}</style></defs><g class="a" transform="translate(125.097 76.2) rotate(180)"><path class="b" d="M39.6,32.1a20.967,20.967,0,0,1,9.9,18.45q0,11.855-7.05,18.75a24.277,24.277,0,0,1-17.7,6.9q-10.653,0-17.7-6.6T0,52.5Q0,42,6.6,31.8L28.5,0H53.1Z" transform="translate(0 0)"/><path class="b" d="M39.6,32.1a20.967,20.967,0,0,1,9.9,18.45q0,11.855-7.05,18.75a24.277,24.277,0,0,1-17.7,6.9q-10.653,0-17.7-6.6T0,52.5Q0,42,6.6,31.8L28.5,0H53.1Z" transform="translate(71.997 0)"/></g></svg>