<svg xmlns="http://www.w3.org/2000/svg" width="125.097" height="76.2" viewBox="0 0 125.097 76.2"><defs><style>.a{isolation:isolate;}.b{fill:#ffc152;}</style></defs><g class="a"><path class="b" d="M591.9,295.238a20.967,20.967,0,0,1,9.9,18.45q0,11.855-7.05,18.75a24.277,24.277,0,0,1-17.7,6.9q-10.653,0-17.7-6.6t-7.05-17.1q0-10.5,6.6-20.7l21.9-31.8h24.6Z" transform="translate(-552.301 -263.138)"/><path class="b" d="M663.9,295.238a20.967,20.967,0,0,1,9.9,18.45q0,11.855-7.05,18.75a24.277,24.277,0,0,1-17.7,6.9q-10.653,0-17.7-6.6t-7.05-17.1q0-10.5,6.6-20.7l21.9-31.8h24.6Z" transform="translate(-552.301 -263.138)"/></g></svg>