<svg id="L476" xmlns="http://www.w3.org/2000/svg" width="103" height="156.067" viewBox="0 0 103 156.067">
  <text id="L476-2" data-name="L476" transform="translate(0 144.067)" fill="#0049a7" font-size="47" font-family="MyriadPro-Bold, Myriad Pro" font-weight="700"><tspan x="0" y="0">L476</tspan></text>
  <path id="Tracé_5301" data-name="Tracé 5301" d="M80.525,9.61v1.35c-.626,1.26.929,4.326,3.453,6.824s5.646,4.02,6.91,3.375H92.26c.186,0,.365.011.548.026a24.111,24.111,0,0,0-3.778-4.628c-5.37-4.59-6.082-5.515-8.525-7.245,0,.1.015.194.015.295Z" fill="#0049a7" fill-rule="evenodd"/>
  <path id="Tracé_5302" data-name="Tracé 5302" d="M97.913,30.634A6.44,6.44,0,0,1,92.26,33.99H90.824c-1.305-.7-4.389.6-6.85,2.9s-4,5.161-3.431,6.369v1.283a6.425,6.425,0,1,1-6.418-6.414h1.432c1.305.7,4.389-.6,6.85-2.9s4-5.165,3.431-6.369V26.226c.626-1.26-.929-4.326-3.453-6.824s-5.646-4.02-6.9-3.375H72.746c-1.253-.626-4.3.891-6.764,3.371s-3.971,5.538-3.311,6.809v1.369a6.431,6.431,0,1,1-6.433-6.414h1.354c1.272.619,4.314-.895,6.764-3.371,2.469-2.476,3.975-5.541,3.33-6.813V9.61h0a6.406,6.406,0,0,1,3.382-5.646A51.3,51.3,0,0,0,0,51.147v.011a51.217,51.217,0,0,0,51.274,51.132c28.307,0,50.782-22.907,51.27-51.147.123-7.1-1.965-14.405-4.628-20.51ZM67.749,58.042c0,.1,0,.194-.011.287,0,2.4-.992,3.662-2.741,5.213l-2.234,1.823a4.875,4.875,0,0,0-1.712,2.685h6.69v1.786H59a8.341,8.341,0,0,1,3.4-6.425l1.309-1.1A4.622,4.622,0,0,0,65.8,58.549c0-1.3-.6-2.8-2.286-2.8-2.431,0-2.495,2.5-2.495,3.39H59.064c0-2.972,1.242-4.989,4.456-4.989.108-.007.216-.015.324-.015a3.914,3.914,0,0,1,3.919,3.908ZM38.04,21.158h1.391c1.275.649,4.389-.873,6.925-3.371s4.106-5.575,3.487-6.832V9.61a6.431,6.431,0,1,1,6.429,6.414H54.895c-1.29-.649-4.389.873-6.94,3.371s-4.106,5.575-3.487,6.832v2.629c-.574,1.2.988,4.068,3.457,6.373s5.571,3.606,6.884,2.9h2.864c1.3.686,4.341-.615,6.735-2.894s3.886-5.135,3.3-6.354V27.572a6.425,6.425,0,1,1,6.433,6.414H72.7c-1.294-.686-4.337.615-6.72,2.894-2.413,2.271-3.886,5.135-3.3,6.354v1.305h0a6.433,6.433,0,0,1-12.865,0V43.257c.567-1.2-.988-4.068-3.457-6.373s-5.571-3.606-6.884-2.9H38.044a6.414,6.414,0,1,1,0-12.828Zm-23.717,49c-3.461,0-5.042-1.693-5.042-4.613v-.638l3.2-.015v.47c0,1.484.418,2.439,2.1,2.439h.1A1.815,1.815,0,0,0,16.5,65.993v-.134c0-1.447-.735-1.98-2.834-2.711C10.814,62.181,9.509,61,9.509,58.367c0-3.076,1.883-4.654,4.911-4.654s4.9,1.223,4.9,4.262v.444H16.262c0-1.484-.511-2.357-1.738-2.357a1.755,1.755,0,0,0-.2-.011,1.632,1.632,0,0,0-1.633,1.63,1.422,1.422,0,0,0,.015.22c0,.977.287,1.577,1.648,2.148l2.457,1.07c2.4,1.044,3.017,2.256,3.017,4.184,0,3.349-2.04,4.859-5.5,4.859Zm12.917-.324h-3.2v-13.2H20.58V54.03L30.7,54.019v2.607H27.244V69.837ZM40.065,87.285H37.682L32.909,77.079V87.285H30.7V71.758h2.308l4.848,10.408V71.758h2.2ZM37.954,69.837,35.079,57.211V69.837H32.155V54.019H36.91l2.26,11.168,2.286-11.168h4.728V69.837H43.3V57.211l-2.86,12.626h-2.48ZM50.3,87.285H48.209V85.6a3.954,3.954,0,0,1-1.227,1.436,2.75,2.75,0,0,1-1.6.53,2.572,2.572,0,0,1-1.544-.5,2.753,2.753,0,0,1-.988-1.4,8.061,8.061,0,0,1-.306-2.5V76.024h2.252v5.183a18.357,18.357,0,0,0,.127,2.912,1.646,1.646,0,0,0,.455.85,1.17,1.17,0,0,0,.839.313,1.509,1.509,0,0,0,1.04-.421,2.133,2.133,0,0,0,.626-1.04,15.85,15.85,0,0,0,.172-3.043V76.02H50.3V87.278ZM48.272,65.937v-.4h1.961c0,1.447.7,3.1,2.51,3.1,1.149,0,2.506-.574,2.506-3.233a2.768,2.768,0,0,0,.03-.392,2.61,2.61,0,0,0-2.61-2.607,2.1,2.1,0,0,0-.265.015h-1V60.992h.981c1.659,0,2.39-1.186,2.39-2.763s-.537-2.607-2.04-2.607c-2.066,0-2.275,1.917-2.275,3.062H48.518c0-2.685,1.305-4.523,4.165-4.523.116-.011.231-.015.347-.015a3.716,3.716,0,0,1,3.722,3.714c0,.127-.007.254-.019.38.007.078.007.16.007.239a3.218,3.218,0,0,1-2.45,3.125,3.355,3.355,0,0,1,2.931,3.323c0,.108-.007.22-.015.328,0,2.853-1.451,4.859-4.467,4.859-.093.007-.186.007-.28.007a4.186,4.186,0,0,1-4.191-4.184Zm10.564,20.6a3.728,3.728,0,0,1-5.6-.53,7.328,7.328,0,0,1-1.111-4.318,7.407,7.407,0,0,1,1.115-4.344,3.521,3.521,0,0,1,3.017-1.555,3.429,3.429,0,0,1,2.476.884,5.221,5.221,0,0,1,1.32,2.692h0l-2.219.522a2.4,2.4,0,0,0-.511-1.316,1.318,1.318,0,0,0-1.029-.44,1.538,1.538,0,0,0-1.346.772,4.907,4.907,0,0,0-.5,2.573,5.731,5.731,0,0,0,.511,2.834,1.544,1.544,0,0,0,1.365.828,1.307,1.307,0,0,0,1.048-.485,3.325,3.325,0,0,0,.578-1.663l2.219.5a5.732,5.732,0,0,1-1.324,3.047Zm5.176.75H61.76V71.758h2.252ZM68.536,84.6a1.541,1.541,0,0,0,1.294.738,1.168,1.168,0,0,0,.888-.38,2.544,2.544,0,0,0,.544-1.227l2.252.5a5.013,5.013,0,0,1-1.369,2.487,3.361,3.361,0,0,1-2.342.854,3.522,3.522,0,0,1-3.293-1.92,8,8,0,0,1-.843-3.886,7.561,7.561,0,0,1,1.108-4.385,3.306,3.306,0,0,1,2.8-1.585,3.425,3.425,0,0,1,3,1.659,9.144,9.144,0,0,1,1.052,5.086H67.988a3.632,3.632,0,0,0,.544,2.058ZM82.5,85.887a3.77,3.77,0,0,1-3.144,1.682,4.018,4.018,0,0,1-2.237-.7A4.327,4.327,0,0,1,75.5,84.813a8.686,8.686,0,0,1-.552-3.293,7.685,7.685,0,0,1,.552-2.875,4.66,4.66,0,0,1,1.57-2.122,3.865,3.865,0,0,1,5.441.925,6.848,6.848,0,0,1,1.238,4.2,6.945,6.945,0,0,1-1.249,4.24Z" fill="#0049a7" fill-rule="evenodd"/>
  <path id="Tracé_5303" data-name="Tracé 5303" d="M79.354,78.22a1.761,1.761,0,0,0-1.484.891,5.782,5.782,0,0,0,0,5.131,1.753,1.753,0,0,0,1.484.891,1.732,1.732,0,0,0,1.477-.891,4.644,4.644,0,0,0,.6-2.588,4.533,4.533,0,0,0-.6-2.547,1.741,1.741,0,0,0-1.477-.891Z" fill="#0049a7" fill-rule="evenodd"/>
  <path id="Tracé_5304" data-name="Tracé 5304" d="M73.753,94.721a1.746,1.746,0,0,0-1.484.869,4.1,4.1,0,0,0-.574,2.357h4.1a4.247,4.247,0,0,0-.615-2.4,1.707,1.707,0,0,0-1.424-.824Z" fill="#0049a7" fill-rule="evenodd"/>
</svg>
