<?xml version="1.0" encoding="UTF-8"?><svg id="Calque_2" xmlns="http://www.w3.org/2000/svg" viewBox="0 0 71.07 66.09"><defs><style>.cls-1{fill:#64bed8;}.cls-2{fill:#aae009;}.cls-3{fill:#eec406;}.cls-4{fill:#07cfeb;}.cls-5{fill:#d9282b;}.cls-6{fill:#484848;}</style></defs><g id="Calque_1-2"><g id="mbot"><g id="mbot_bloc"><path class="cls-6" d="M59.42,16.91c-1.38,0-2.51.66-2.51,1.47v17.66c0,.81,1.13,1.47,2.51,1.47s2.51-.66,2.51-1.47v-17.66c0-.81-1.13-1.47-2.51-1.47Z"/><path class="cls-6" d="M11.66,16.91c-1.38,0-2.51.66-2.51,1.47v17.66c0,.81,1.13,1.47,2.51,1.47s2.51-.66,2.51-1.47v-17.66c0-.81-1.13-1.47-2.51-1.47Z"/><path class="cls-1" d="M52.38,16.91H19.19c-1.36,0-2.47,1.11-2.47,2.47v12.65c0,1.34,1.09,2.43,2.43,2.43h33.28c1.34,0,2.43-1.09,2.43-2.43v-12.65c0-1.36-1.11-2.47-2.47-2.47ZM41.34,24.6c-1.58,1.58-3.69,2.45-5.92,2.45s-4.34-.87-5.92-2.45c-.55-.55-.55-1.45,0-2s1.45-.55,2,0c1.05,1.05,2.44,1.62,3.92,1.62s2.87-.58,3.92-1.62c.55-.55,1.45-.55,2,0s.55,1.45,0,2Z"/><path class="cls-6" d="M32.46,11.44c-.05.07-.12.14-.19.19-5.97,4.4-12.63-2.26-8.23-8.23.05-.07.12-.14.19-.19,5.97-4.41,12.63,2.26,8.23,8.23ZM39.11,3.41c.05-.07.12-.14.19-.19,5.97-4.4,12.63,2.26,8.23,8.23-.05.07-.12.14-.19.19-5.97,4.4-12.63-2.26-8.23-8.23ZM52.28,13.57V.84c0-.46-.38-.84-.84-.84h-31.32c-.46,0-.84.38-.84.84v12.73c0,.46.38.84.84.84h31.32c.46,0,.84-.38.84-.84Z"/></g><path class="cls-4" d="M0,48.12c1.07.17,3.86-.39,4.49.35.23.27-.57,1.54.33,1.07.63-.33.87-1.19,2.02-1.54,2.23-.69,4.85-.43,5.83,1.91,2.03-1.55,2.85-2.48,5.67-2.11,1.54.2,3.42,1.83,3.42,3.36v14.45h-4.64v-13.02c0-2.02-3.92-1.25-3.92.36v12.66h-4.64v-13.02c0-1.93-3.92-1.52-3.92.71v11.95c-1.56.67-3.08.1-4.64.36v-17.48Z"/><path class="cls-3" d="M35.85,42.41c5.75.77,6.97,8.54,1.96,10.88,4.45,1.35,4.9,8.26,1.6,10.88-.3.24-2.35,1.43-2.5,1.43h-10.52v-23.19c2.96.28,6.58-.38,9.45,0ZM31.04,52.04c6.89,1.21,6.89-7.27,0-6.06v6.06ZM31.04,62.03c7.8,1.66,7.4-8.22,0-6.78v6.78Z"/><path class="cls-5" d="M50.21,47.85c2.41-.41,5.98-.22,7.37,2.09,2.25,3.74,2.38,14.99-3.26,15.93-6.57,1.1-9.13-1.96-9.23-8.24-.06-3.7.64-9.03,5.12-9.78ZM49.94,54.18c-.4,2.42-.37,2.92,0,5.35.25,1.67.64,4.97,3.33,3.24,1.61-1.04,1.69-10.72-.11-11.62-2.71-1.36-2.94,1.36-3.22,3.04Z"/><path class="cls-2" d="M68.49,43.12v4.99c0,.13,2.43-.26,2.5.21-.02,2.86.74,3.33-2.5,3.01v10.52c0,.79,2.4.44,2.5.53.12.11.11,3.1,0,3.21-.11.1-2.65.38-3.01.37-1.83-.03-4.12-.88-4.12-3.04v-11.59c-3.01.41-2.03-.54-2.15-3.01.07-.46,2.15-.09,2.15-.21v-4.99h4.64Z"/></g></g></svg>