<svg xmlns="http://www.w3.org/2000/svg" width="107.103" height="102.164" viewBox="0 0 107.103 102.164"><defs><style>.a,.c{fill:#d1d1d1;}.a,.e,.f{stroke:#1a1a1a;}.a,.f{stroke-miterlimit:10;}.b{fill:#e6e6e6;}.b,.d,.e{stroke-linecap:round;stroke-linejoin:round;}.d{fill:#f2f2f2;}.e{fill:#ffdf00;}.f{fill:#3fa9f5;}.g,.h{stroke:none;}.h{fill:#1a1a1a;}</style></defs><g transform="matrix(0.966, -0.259, 0.259, 0.966, -6.563, 25.153)"><path class="a" d="M0,0A22.787,22.787,0,0,0,.231,4.365c.321.749,5.883,5.669,6.1,6.846a66.016,66.016,0,0,1,1.39,9.2c.107,3.315,1.39,10.91,2.246,11.337S19.163,31,20.34,29.18s-1.391-5.348-1.391-5.348S16.7,18.7,16.7,17.094s1.069-8.985,2.032-10.8c.72-1.36-.116-4.583-.583-5.816" transform="translate(12.758 50.645)"/><g class="b" transform="translate(0 30.088)"><path class="g" d="M 6.836077690124512 17.27128219604492 L 6.13687801361084 17.05679130554199 C 6.060018062591553 17.03322219848633 4.234528064727783 16.46155166625977 2.508327960968018 14.91680145263672 C 0.9013879299163818 13.47876167297363 -0.9104821085929871 10.90081119537354 -0.4165820777416229 6.785911560058594 C -0.1371220797300339 4.455291748046875 1.090277910232544 2.457781553268433 3.13294792175293 1.009381532669067 C 4.659078121185303 -0.07275848090648651 6.093227863311768 -0.4665684700012207 6.153537750244141 -0.4828084707260132 L 6.908308029174805 -0.6860084533691406 L 6.77633810043335 0.08443151414394379 C 6.768918037414551 0.1277715116739273 6.035148143768311 4.445831298828125 6.138157844543457 6.823861598968506 C 6.24378776550293 9.248421669006348 6.776787757873535 16.46926116943359 6.782157897949219 16.54191207885742 L 6.836077690124512 17.27128219604492 Z"/><path class="h" d="M 6.283517837524414 1.9073486328125e-06 C 6.283517837524414 1.9073486328125e-06 0.7211079597473145 1.497501373291016 0.07985782623291016 6.845501899719238 C -0.8266220092773438 14.39767169952393 6.283517837524414 16.57878112792969 6.283517837524414 16.57878112792969 C 6.283517837524414 16.57878112792969 5.745808124542236 9.305791854858398 5.638628005981445 6.845501899719238 C 5.532057762145996 4.385221481323242 6.283517837524414 1.9073486328125e-06 6.283517837524414 1.9073486328125e-06 M 6.283421039581299 -1.000009536743164 C 6.529469013214111 -1.000009536743164 6.770387649536133 -0.9091129302978516 6.95683765411377 -0.7393093109130859 C 7.20899772644043 -0.5096683502197266 7.326717853546143 -0.1673183441162109 7.269157886505127 0.1688423156738281 C 7.261827945709229 0.2116622924804688 6.537027835845947 4.47828197479248 6.637687683105469 6.802221298217773 C 6.742987632751465 9.219191551208496 7.27542781829834 16.43247222900391 7.280797958374023 16.50505065917969 C 7.305148124694824 16.83437156677246 7.165348052978516 17.15448188781738 6.907217979431152 17.36044120788574 C 6.727790832519531 17.50361061096191 6.507259368896484 17.57879066467285 6.283439636230469 17.57879066467285 C 6.185276508331299 17.57879066467285 6.086495399475098 17.56433486938477 5.99024772644043 17.53481101989746 C 5.909097671508789 17.50991058349609 3.981987953186035 16.90654182434082 2.174897909164429 15.28939151763916 C 0.4794378280639648 13.77213096618652 -1.432571887969971 11.05490112304688 -0.9130120277404785 6.72633171081543 C -0.6163020133972168 4.251771926879883 0.6827678680419922 2.133801460266113 2.843737840652466 0.6015119552612305 C 4.441947937011719 -0.53173828125 5.959727764129639 -0.9484386444091797 6.023557662963867 -0.9656181335449219 C 6.109367847442627 -0.9887199401855469 6.196720123291016 -1.000009536743164 6.283421039581299 -1.000009536743164 Z"/></g><path class="c" d="M5.794,3.761c2.408.513.49,5.972.49,5.972S-.827,7.552.08,0C.08,0,1.454,2.836,5.794,3.761Z" transform="translate(0 36.934)"/><g class="b" transform="translate(35.314 11.156)"><path class="g" d="M 31.87371253967285 53.64492416381836 L 31.50780296325684 53.31956481933594 C 28.6646614074707 50.79142379760742 25.24111175537109 48.55607223510742 21.33226203918457 46.67561340332031 C 18.19699287414551 45.16730499267578 14.74472236633301 43.88286209106445 11.07134246826172 42.85795211791992 C 4.805831909179688 41.10980224609375 0.008792114444077015 40.71985244750977 -0.03892788663506508 40.71611404418945 L -0.4999178946018219 40.6800422668457 L -0.4999978840351105 40.21763229370117 L -0.4999978840351105 14.01203346252441 L -0.4999978840351105 13.55127334594727 L -0.04071788489818573 13.51369380950928 C 0.0146621149033308 13.50916385650635 5.574242115020752 13.03800392150879 12.21672248840332 11.09312343597412 C 16.1068229675293 9.954123497009277 19.60166168212891 8.539994239807129 22.60416221618652 6.890003681182861 C 26.33640289306641 4.83898401260376 29.31137275695801 2.417113780975342 31.44645118713379 -0.3083361983299255 L 31.8900318145752 -0.874576210975647 L 32.2662239074707 -0.2614962160587311 C 32.32186126708984 -0.1708061993122101 33.64390182495117 2.009183883666992 34.93558120727539 6.326963901519775 C 35.69049072265625 8.850473403930664 36.27792358398438 11.58662414550781 36.68156051635742 14.45941352844238 C 37.1854133605957 18.04543304443359 37.40281295776367 21.85661315917969 37.32772064208984 25.78707313537598 C 37.23053359985352 30.88093376159668 36.90658187866211 35.48644256591797 36.36485290527344 39.47566223144531 C 35.93009185791016 42.67719268798828 35.35447311401367 45.49381256103516 34.65398025512695 47.84728240966797 C 33.44076156616211 51.92335510253906 32.2564811706543 53.23218536376953 32.20666122436523 53.28590393066406 L 31.87371253967285 53.64492416381836 Z"/><path class="h" d="M 31.84005165100098 52.94591522216797 C 31.84005165100098 52.94591522216797 36.40334320068359 48.02533340454102 36.82781219482422 25.77752304077148 C 37.15480041503906 8.661533355712891 31.84005165100098 3.796386636167881e-06 31.84005165100098 3.796386636167881e-06 C 22.28779220581055 12.19362354278564 2.114868266289704e-06 14.01203346252441 2.114868266289704e-06 14.01203346252441 L 2.114868266289704e-06 40.21763229370117 C 2.114868266289704e-06 40.21763229370117 19.20987129211426 41.71507263183594 31.84005165100098 52.94591522216797 M 31.83977699279785 53.94591903686523 C 31.60317993164062 53.94591903686523 31.36591148376465 53.86246871948242 31.17555236816406 53.69320297241211 C 28.3701114654541 51.19858551025391 24.98951148986816 48.99109268188477 21.12765121459961 47.13203430175781 C 18.02185249328613 45.63693237304688 14.60054206848145 44.36300277709961 10.95877170562744 43.34564208984375 C 4.736042022705078 41.60726547241211 -0.03059788420796394 41.21831512451172 -0.07801788300275803 41.21458435058594 C -0.5983178615570068 41.17370223999023 -0.9999979138374329 40.73954391479492 -0.9999979138374329 40.21763229370117 L -0.9999979138374329 14.01203346252441 C -0.9999979138374329 13.49128341674805 -0.6003478765487671 13.05769348144531 -0.08131788671016693 13.01534366607666 C -0.02651788480579853 13.01084423065186 5.499001979827881 12.54123401641846 12.09530258178711 10.60768413543701 C 15.9471321105957 9.47861385345459 19.40503120422363 8.078603744506836 22.3729419708252 6.44654369354248 C 26.04114151000977 4.429383754730225 28.96148300170898 2.052973747253418 31.05284118652344 -0.616686224937439 C 31.24299621582031 -0.859418511390686 31.5337085723877 -0.9999982118606567 31.83995246887207 -0.9999982118606567 C 31.85894966125488 -0.9999982118606567 31.87800598144531 -0.9994572997093201 31.89710235595703 -0.9983661770820618 C 32.22404098510742 -0.9796862006187439 32.52112197875977 -0.8021062016487122 32.69239044189453 -0.522996187210083 C 32.74943161010742 -0.4300362169742584 34.10443115234375 1.804043769836426 35.41460037231445 6.183663845062256 C 36.17671203613281 8.731224060058594 36.76956176757812 11.49218368530273 37.17669296264648 14.38984394073486 C 37.68421173095703 18.00199317932129 37.90322113037109 21.83978462219238 37.82763290405273 25.79662322998047 C 37.73007202148438 30.90971374511719 37.40462112426758 35.53465270996094 36.86030197143555 39.54294204711914 C 36.42209243774414 42.76989364624023 35.84101104736328 45.61186218261719 35.13320159912109 47.98992538452148 C 33.90813064575195 52.10584259033203 32.70628356933594 53.48247528076172 32.57328033447266 53.62590408325195 C 32.37648773193359 53.83810043334961 32.10857772827148 53.94591903686523 31.83977699279785 53.94591903686523 Z"/></g><path class="c" d="M33.4,33.569C20.676,22.338,1.316,20.841,1.316,20.841s-3.178-7.525.344-8.074c9.2-1.434,31.907,1.948,36.063-7.967,6.31-15.054,3.6,8.946.347,22.012A11.221,11.221,0,0,1,33.4,33.569Z" transform="translate(33.711 30.533)"/><g class="d" transform="translate(67.115 11.098)"><path class="g" d="M 2.186334371566772 53.5040283203125 L 2.013994455337524 53.5040283203125 L 4.411468580656219e-06 53.5040283203125 L -1.423755645751953 53.5040283203125 L -0.3245425522327423 52.62356567382812 C -0.2665915787220001 52.56986618041992 0.8805274963378906 51.46826553344727 2.044054508209229 47.734619140625 C 4.027215480804443 41.37084579467773 4.52952766418457 32.3913688659668 4.601522922515869 25.97505760192871 C 4.593869209289551 25.71406173706055 4.427875518798828 20.30269241333008 3.738174438476562 14.51481819152832 C 2.577274322509766 4.772648334503174 0.888094425201416 1.494368553161621 -0.3245255947113037 0.4597285091876984 L -0.8868955969810486 -0.02008149586617947 L -0.2322255820035934 -0.3634314835071564 C -0.1711355894804001 -0.3954714834690094 0.05969441309571266 -0.5000014901161194 0.465224415063858 -0.5000014901161194 C 0.9905644059181213 -0.5000014901161194 1.588464379310608 -0.329851508140564 2.242294311523438 0.005718504544347525 C 3.154764413833618 0.4739785194396973 4.91897439956665 3.268268585205078 6.391214370727539 7.524468421936035 C 7.705164432525635 11.32303810119629 9.247114181518555 17.60793876647949 9.131194114685059 25.97758865356445 C 9.03205394744873 33.13586807250977 8.27226448059082 39.52695846557617 6.933964252471924 44.4599494934082 C 5.733124256134033 48.88628005981445 4.138354301452637 51.97694778442383 2.322074413299561 53.3978385925293 L 2.186334371566772 53.5040283203125 Z"/><path class="h" d="M 0.4652223587036133 0 C 0.1513376235961914 0 4.76837158203125e-06 0.07936859130859375 4.76837158203125e-06 0.07936859130859375 C 4.492434501647949 3.912399291992188 5.101604461669922 25.97066879272461 5.101604461669922 25.97066879272461 C 4.845464706420898 48.92329025268555 4.76837158203125e-06 53.0040283203125 4.76837158203125e-06 53.0040283203125 L 2.013994216918945 53.0040283203125 C 5.237854480743408 50.48197937011719 8.417494773864746 41.40386962890625 8.631244659423828 25.97066879272461 C 8.84498405456543 10.53747940063477 3.389774322509766 1.156566619873047 2.013994216918945 0.4505500793457031 C 1.307892799377441 0.08815765380859375 0.7961883544921875 0 0.4652223587036133 0 M 0.4652242660522461 -1 C 1.07073450088501 -1 1.745434284210205 -0.8112907409667969 2.47059440612793 -0.4391212463378906 C 3.683994293212891 0.1835670471191406 5.49053430557251 3.391109466552734 6.863744258880615 7.361019134521484 C 8.190753936767578 11.19734954833984 9.748064041137695 17.5424690246582 9.631144523620605 25.98451805114746 C 9.531434059143066 33.18406677246094 8.765634536743164 39.61803817749023 7.416524410247803 44.59085845947266 C 6.187204360961914 49.12215805053711 4.5321044921875 52.30373764038086 2.630154609680176 53.79164886474609 C 2.454244613647461 53.92926025390625 2.237334251403809 54.0040283203125 2.013994216918945 54.0040283203125 L 4.76837158203125e-06 54.0040283203125 C -0.4289159774780273 54.0040283203125 -0.8288755416870117 53.74557876586914 -0.9661760330200195 53.33922958374023 C -1.102161407470703 52.93680572509766 -0.9874391555786133 52.50767135620117 -0.6539745330810547 52.24672698974609 C -0.5472908020019531 52.13965225219727 0.5331268310546875 50.98957061767578 1.629704475402832 47.38111877441406 C 3.543586730957031 41.08319854736328 4.030428409576416 32.27102661132812 4.101438522338867 25.97964477539062 C 4.090738296508789 25.62182235717773 3.921574592590332 20.27650833129883 3.240884304046631 14.56726837158203 C 2.038904190063477 4.485710144042969 0.2877740859985352 1.639427185058594 -0.6490659713745117 0.8400993347167969 C -0.9016151428222656 0.6246185302734375 -1.030755996704102 0.2978591918945312 -0.9937658309936523 -0.03206253051757812 C -0.9567756652832031 -0.3619728088378906 -0.7584657669067383 -0.6520233154296875 -0.4644651412963867 -0.8062210083007812 C -0.3533754348754883 -0.8644828796386719 -0.0404052734375 -1 0.4652242660522461 -1 Z"/></g><path class="e" d="M.948,0S0,6.093,0,7.582,2.369,6.431,2.369,6.431Z" transform="translate(30.91 60.18)"/><path class="f" d="M6.6,26.589a5.756,5.756,0,0,1-5.536-4.472A43.813,43.813,0,0,1,0,12.266a35.39,35.39,0,0,1,.768-7.8A5.737,5.737,0,0,1,6.371,0H30.591s-.458.593-.458,12.266c0,12.081.458,14.608.458,14.608Z" transform="translate(5.181 24.791)"/><line class="e" y1="14.015" x2="14.015" transform="translate(79.822)"/><line class="e" x2="14.015" y2="14.015" transform="translate(79.822 57.094)"/><line class="e" x2="25.101" transform="translate(82.413 35.555)"/></g></svg>