<svg xmlns="http://www.w3.org/2000/svg" width="134.633" height="100.473" viewBox="0 0 134.633 100.473"><defs><style>.a{fill:#ff931e;stroke:rgba(0,0,0,0);stroke-miterlimit:10;}</style></defs><path class="a" d="M-1739.56-2862.38h0c-.9,0-1.814-.027-2.73-.079a86.379,86.379,0,0,1-27.383-6.626,148.256,148.256,0,0,1-24.933-13.308,223.4,223.4,0,0,1-32.777-26.412,4.6,4.6,0,0,1-1.4-3.31,4.6,4.6,0,0,1,1.4-3.312,223.364,223.364,0,0,1,32.777-26.412,148.288,148.288,0,0,1,24.933-13.309,86.39,86.39,0,0,1,27.383-6.626c.915-.052,1.833-.079,2.729-.079a39.536,39.536,0,0,1,16.5,3.447,39.926,39.926,0,0,1,12.194,8.74,58.526,58.526,0,0,1,12.4,20.754,64.433,64.433,0,0,1,2.63,9.691,34.633,34.633,0,0,1,.675,7.106,34.622,34.622,0,0,1-.676,7.1,64.42,64.42,0,0,1-2.631,9.691,58.532,58.532,0,0,1-12.4,20.754,39.915,39.915,0,0,1-12.193,8.74A39.525,39.525,0,0,1-1739.56-2862.38Zm-4.729-66.963a17.113,17.113,0,0,0-12.181,5.045,17.113,17.113,0,0,0-5.045,12.181,17.112,17.112,0,0,0,5.045,12.18,17.112,17.112,0,0,0,12.181,5.045,17.113,17.113,0,0,0,12.181-5.045,17.113,17.113,0,0,0,5.045-12.18,17.113,17.113,0,0,0-5.045-12.181A17.113,17.113,0,0,0-1744.289-2929.343Z" transform="translate(1829.28 2962.353)"/></svg>