<svg xmlns="http://www.w3.org/2000/svg" width="462.355" height="530.059" viewBox="0 0 462.355 530.059"><defs><style>.a{fill:#ccc;}</style></defs><path class="a" d="M892.465,519.006a8.994,8.994,0,1,0-3.334-12.274,8.993,8.993,0,0,0,3.334,12.274" transform="translate(-443.575 -118.933)"/><path class="a" d="M647.45,651.208a8.994,8.994,0,1,0,8.963-9.026,8.994,8.994,0,0,0-8.963,9.026" transform="translate(-424.368 -130.112)"/><path class="a" d="M410.452,505.119a8.994,8.994,0,1,0,12.3,3.249,8.994,8.994,0,0,0-12.3-3.249" transform="translate(-405.083 -119.068)"/><path class="a" d="M418.47,226.829A8.994,8.994,0,1,0,421.8,239.1a8.993,8.993,0,0,0-3.335-12.275" transform="translate(-405.005 -96.844)"/><path class="a" d="M663.486,94.627a8.994,8.994,0,1,0-8.963,9.026,8.994,8.994,0,0,0,8.963-9.026" transform="translate(-424.212 -85.665)"/><path class="a" d="M900.484,240.715a8.994,8.994,0,1,0-12.3-3.249,8.994,8.994,0,0,0,12.3,3.249" transform="translate(-443.498 -96.709)"/></svg>