<svg xmlns="http://www.w3.org/2000/svg" width="75" height="75" viewBox="0 0 75 75">
  <path id="brain-solid" d="M26.953,0a8.208,8.208,0,0,1,8.2,8.2V66.8a8.2,8.2,0,0,1-16.362.864,9.2,9.2,0,0,1-2.388.308,9.38,9.38,0,0,1-8.848-12.48,11.718,11.718,0,0,1-.85-21.548,9.279,9.279,0,0,1-2.021-5.815,9.394,9.394,0,0,1,7.383-9.17,9.156,9.156,0,0,1-.352-2.549,9.4,9.4,0,0,1,7.075-9.1A8.208,8.208,0,0,1,26.953,0ZM48.047,0a8.218,8.218,0,0,1,8.159,7.31,9.37,9.37,0,0,1,7.075,9.1,9.156,9.156,0,0,1-.352,2.549,9.381,9.381,0,0,1,7.383,9.17,9.279,9.279,0,0,1-2.021,5.815,11.718,11.718,0,0,1-.85,21.548,9.38,9.38,0,0,1-8.848,12.48,9.2,9.2,0,0,1-2.388-.308A8.2,8.2,0,0,1,39.844,66.8V8.2A8.208,8.208,0,0,1,48.047,0Z" fill="#ce574e"/>
</svg>
