<svg xmlns="http://www.w3.org/2000/svg" width="100" height="70" viewBox="0 0 100 70">
  <path id="computer-solid" d="M60,42V77H10V42ZM10,32A10.009,10.009,0,0,0,0,42V77A10.009,10.009,0,0,0,10,87H28.328l-1.672,5H15a5,5,0,0,0,0,10H55a5,5,0,0,0,0-10H43.328l-1.672-5H60A10.009,10.009,0,0,0,70,77V42A10.009,10.009,0,0,0,60,32Zm72.5,0A7.5,7.5,0,0,0,75,39.5v55a7.5,7.5,0,0,0,7.5,7.5h10a7.5,7.5,0,0,0,7.5-7.5v-55A7.5,7.5,0,0,0,92.5,32ZM85,42h5a2.5,2.5,0,0,1,0,5H85a2.5,2.5,0,0,1,0-5ZM82.5,54.5A2.507,2.507,0,0,1,85,52h5a2.5,2.5,0,0,1,0,5H85A2.507,2.507,0,0,1,82.5,54.5Zm5,25a5,5,0,1,1-5,5A5,5,0,0,1,87.5,79.5Z" transform="translate(0 -32)" fill="#707070"/>
</svg>
