<svg xmlns="http://www.w3.org/2000/svg" width="75.168" height="69.461" viewBox="0 0 75.168 69.461">
  <g id="enceinte" transform="translate(0 -0.002)">
    <path id="Tracé_6721" data-name="Tracé 6721" d="M0,193.582a13.89,13.89,0,0,1,3.915-9.564,1.113,1.113,0,0,1,1.624-.211c.487.445.463,1.068-.112,1.681a11.364,11.364,0,0,0-2.827,4.94,11.644,11.644,0,0,0,2.667,11.253,4.092,4.092,0,0,1,.465.568.956.956,0,0,1-.185,1.271.928.928,0,0,1-1.275.114,5.986,5.986,0,0,1-.93-.938A13.97,13.97,0,0,1,0,193.582Z" transform="translate(0 -147.36)" fill="#ff9403"/>
    <path id="Tracé_6722" data-name="Tracé 6722" d="M357.243,189.8a14.91,14.91,0,0,1-.055,7.875,13.519,13.519,0,0,1-3.2,5.6c-.418.447-.875.741-1.488.406-.68-.371-.737-1.135-.11-1.8a11.455,11.455,0,0,0,2.982-5.5,11.662,11.662,0,0,0-2.734-10.638c-.112-.13-.242-.246-.351-.378a1.056,1.056,0,0,1-.024-1.52,1.079,1.079,0,0,1,1.573.095,12.835,12.835,0,0,1,3.369,5.718c.014.047.026.1.037.144Z" transform="translate(-282.577 -147.369)" fill="#ff9403"/>
    <path id="Tracé_6723" data-name="Tracé 6723" d="M30.574,203.826a1.107,1.107,0,0,1,1.409.065.467.467,0,0,1,.144.223,1.637,1.637,0,0,1-.213,1.26,7.146,7.146,0,0,0-1.608,3.1,6.173,6.173,0,0,0,1.405,5.433c.095.112.2.219.288.335a1.076,1.076,0,0,1-.071,1.52,1.024,1.024,0,0,1-1.508-.132,7.947,7.947,0,0,1-2.216-4.25,8.215,8.215,0,0,1,2.137-7.354A1.548,1.548,0,0,1,30.574,203.826Z" transform="translate(-22.524 -163.469)" fill="#ff9403"/>
    <path id="Tracé_6724" data-name="Tracé 6724" d="M336.466,209.675a8.158,8.158,0,0,1-2.326,5.63,1.043,1.043,0,0,1-1.561.183,1.065,1.065,0,0,1,.032-1.626,6.351,6.351,0,0,0-.035-8.752,1.055,1.055,0,1,1,1.547-1.417,8.565,8.565,0,0,1,2.342,5.984Z" transform="translate(-266.732 -163.189)" fill="#ff9403"/>
    <path id="Tracé_6725" data-name="Tracé 6725" d="M119.186,34.714q0-13.826,0-27.65a9.143,9.143,0,0,0-.1-1.693,6.468,6.468,0,0,0-6.7-5.364Q95.894,0,79.4.006c-4.153,0-6.87,2.736-6.872,6.909q-.006,27.835,0,55.668a6.476,6.476,0,0,0,6.832,6.875q16.493.012,32.988-.006a8.255,8.255,0,0,0,1.969-.221,6.425,6.425,0,0,0,4.863-6.5q.015-14.009,0-28.018ZM95.922,11.056A5.005,5.005,0,1,1,90.85,16.02a4.988,4.988,0,0,1,5.072-4.963Zm-.037,49.484a14.234,14.234,0,1,1,14.167-14.348A14.207,14.207,0,0,1,95.884,60.541Z" transform="translate(-58.229 0)" fill="#ff9403"/>
    <path id="Tracé_6726" data-name="Tracé 6726" d="M148.936,182.75A10.292,10.292,0,1,0,159.249,193a10.3,10.3,0,0,0-10.313-10.254Zm.03,14.721a4.422,4.422,0,0,1-4.449-4.439,4.438,4.438,0,1,1,8.876-.024A4.425,4.425,0,0,1,148.965,197.471Z" transform="translate(-111.328 -146.725)" fill="#ff9403"/>
  </g>
</svg>
