<svg xmlns="http://www.w3.org/2000/svg" viewBox="0 0 62.87 52.53"><defs><style>.cls-1{fill:#ef8607;}.cls-2{fill:#ff9b21;}.cls-3{fill:#ffa100;}.cls-4{fill:#fce7cd;}</style></defs><g id="Calque_2" data-name="Calque 2"><g id="Calque_1-2" data-name="Calque 1"><g id="Chronogramme"><g id="chronogramme-2" data-name="chronogramme"><g id="bouton"><g id="éxplosion"><path class="cls-1" d="M49.87,34c-2.37-1.51-13.52-4.18-5-5.59,4.95,4.32,12,5.05,18,7.27A126.6,126.6,0,0,0,49.87,34Z"/><path class="cls-2" d="M44.6,26.15c-7.61-.57.93-3.59,3.35-4.77,1.79.16,3.42-.74,5.34-.66C50.16,22.23,46.7,23.26,44.6,26.15Z"/><path class="cls-1" d="M44.14,40.53c-3-1.7-8.13-8.56-.11-6.3-2.61,2,2.48,6.5,3.44,8.5C46.25,42.4,45.28,41.16,44.14,40.53Z"/><path class="cls-1" d="M40.88,21c-4.16,1,.45-3.7.16-5.35,1.05-.86,2-1.95,3.07-2.7C43.11,15.54,40.47,18,40.88,21Z"/><path class="cls-1" d="M37.71,45.29C37.54,43,34,33.82,39.27,38.92c-1.26,3,0,7,.65,10.08.21,1,.59,2.91.59,2.91C39.6,49.68,38.7,47.5,37.71,45.29Z"/><path class="cls-1" d="M31.31,41.84s0,0,0,0c-.09-1.29.75-4.24,2.12-2.12A5,5,0,0,0,31.31,41.84Z"/><path class="cls-1" d="M27.65,38.88c1.71.86.75,5.76,1.17,7.83-.33.45-2.57,7-2.55,5.63a79.59,79.59,0,0,0,.9-10.53C27.17,39.68,27.07,38.58,27.65,38.88Z"/><path class="cls-1" d="M15.79,39.74c2.22-2.13,10.17-5,7.67-1.94-3.27,4-11.33,7.07-16.61,11.11C9.46,45.85,13.28,43,15.79,39.74Z"/><path class="cls-1" d="M18.94,27.81c2.89,1.77-3.68,4.63-3.68,4.63-3.43.48-6.8,1.5-10.2,2C9.71,32.42,14.79,30.7,18.94,27.81Z"/><path class="cls-1" d="M18.7,21.41c4.33,3.08-.59,4.16-3,2.47C10.93,20.52,5.05,18.55,0,16,6.1,17.91,12.37,20.94,18.7,21.41Z"/><path class="cls-1" d="M20.58,18.57C19,15.06,13.11,7.11,13,6.31a72.22,72.22,0,0,0,6.18,6.78h0c1.42,1.85,3.13,3.56,3.66,6.31C23.27,21.59,22.16,22,20.58,18.57Z"/><path class="cls-1" d="M36.89,0c-.35,2.9-1,5.78-1.09,8.69-.88.05-1,1.11-1.65,1.55C35.13,6.86,35.79,3.33,36.89,0Z"/><path class="cls-3" d="M27.57,38.91c1.61.31.82,5.7,1.25,7.8,1.81,6.18,2.24-5.93,3.06-7.1,1.71-2.69,3.84,7.41,5.83,5.68.58-1.26-2.88-8.85-.26-7.67,3.29,2.55,6,5.78,9,8.58.73.57,1.61,1.78,2.61,1.64-1.62-4.66-6.22-8.17-8.66-12.5-2-3,5-.63,6.18-.52,8.72,1.34,1-2.2-2.1-3.23-4-1.52-3.21-2.58.55-3.19,2.63-.54,2.24-2-.24-2.25-7.61-.57.93-3.59,3.35-4.77.78-.45,6.08-2.57,3.86-3a2.53,2.53,0,0,0-.95,0C47.36,19,43.81,20.78,40.05,21a.66.66,0,0,1-.58-.27c-.44-.66.48-2,.8-2.55.88-1.1,1.81-4-.62-2.6-1,.52-3.76,4-4,1.46-.22-1.95.47-4.09.6-6.11.31-7.28-4.2,3.69-4.85,5.39-.38-1.17-1.28-8.8-3.21-6.71-2.84,6,1.24,11.32-5.27,2.87C16,4.18,10.3-1.07,19.19,13.09h0c.5.61,4.91,7.41,3.18,7-1.27-.28-5.67-2.91-5.2-.36.3,1.05,4.48,3.5,2.51,4.28-3.78.35-7.51-1-11.29-.85-4,.86,6.68,3.18,7.47,3.59,6,1.64,2.71,1.92-.41,4.63s6.55-.64,4.91,2.31c-1.62,2.08-4.2,3.29-5.72,5.45A.52.52,0,0,0,15,40c1.16.14,3.77-1.72,4.58-2,1.06-.38,4.76-2.85,3.91-.16-.79,3-2.23,5.69-3.33,8.54C20,47,18.06,51,19.78,50.2c2.22-2.41,3.47-5.58,5.32-8.27.7-1.11,1.06-2.42,2.35-3"/><path class="cls-4" d="M23.55,20.1c4.21,3.38,6.74,5.91,4.51-1.66,0,0,2.74,5.88,4,3.66a28.19,28.19,0,0,0,2.41-6.05c-.95,7.44-2.41,10.37,5,3.9-1,1.79-6.9,6.17-1.07,5.59-5,2.66,2.47,2.81,4.46,3.52-3.31.09-9.62-1-4,3.38-5.33-2.29-3.61.08-2.69,3.88-4.57-7.5-4.84.26-5.7,4.47-.25-1.5.92-9.22-1.95-7.66a10,10,0,0,0-1.94,1.3c3.52-4.84-.76-3.15-3.85-2.62,7.05-3.2,3.47-3.71-1.61-5.37,10.77.47,5.33-1.52,1.66-6.85Z"/></g></g></g></g></g></g></svg>