<svg xmlns="http://www.w3.org/2000/svg" width="99.5" height="59.7" viewBox="0 0 99.5 59.7">
  <path id="gamepad-solid" d="M29.85,64a29.85,29.85,0,0,0,0,59.7h39.8a29.85,29.85,0,0,0,0-59.7ZM77.112,80.169a6.219,6.219,0,1,1-6.219,6.219,6.219,6.219,0,0,1,6.219-6.219ZM60.944,101.313a6.219,6.219,0,1,1,6.219,6.219A6.219,6.219,0,0,1,60.944,101.313ZM26.119,85.144a3.731,3.731,0,1,1,7.462,0v4.975h4.975a3.731,3.731,0,0,1,0,7.463H33.581v4.975a3.731,3.731,0,1,1-7.462,0V97.581H21.144a3.731,3.731,0,0,1,0-7.463h4.975Z" transform="translate(0 -64)" fill="#ce574e"/>
</svg>
