<svg xmlns="http://www.w3.org/2000/svg" width="40.046" height="40.046" viewBox="0 0 40.046 40.046">
  <path id="headset-solid" d="M20.023,3.754A16.266,16.266,0,0,0,3.754,20.023v3.129a1.877,1.877,0,0,1-3.754,0V20.023a20.023,20.023,0,0,1,40.046,0V31.294a6.885,6.885,0,0,1-6.891,6.883l-8.627-.008a3.76,3.76,0,0,1-3.254,1.877h-2.5a3.754,3.754,0,1,1,0-7.509h2.5a3.76,3.76,0,0,1,3.254,1.877l8.635.008a3.128,3.128,0,0,0,3.129-3.129V20.023A16.266,16.266,0,0,0,20.023,3.754Zm-8.76,12.514h1.251a2.5,2.5,0,0,1,2.5,2.5v8.76a2.5,2.5,0,0,1-2.5,2.5H11.263a5.01,5.01,0,0,1-5.006-5.006V21.274A5.01,5.01,0,0,1,11.263,16.269Zm17.52,0a5.01,5.01,0,0,1,5.006,5.006v3.754a5.01,5.01,0,0,1-5.006,5.006H27.532a2.5,2.5,0,0,1-2.5-2.5v-8.76a2.5,2.5,0,0,1,2.5-2.5Z" fill="#24a069"/>
</svg>
