<svg xmlns="http://www.w3.org/2000/svg" width="24" height="24.001" viewBox="0 0 24 24.001">
  <g id="icon-share" transform="translate(24 24) rotate(180)">
    <rect id="Boundary" width="24" height="24" transform="translate(0 0)" fill="none"/>
    <path id="icon-share-2" data-name="icon-share" d="M1821.47-6857.924a2.537,2.537,0,0,0-1.779.721,2.538,2.538,0,0,0-.775,1.795,2.534,2.534,0,0,0,.722,1.816l2.14,2.2c-.512,0-.982.026-1.432.068a44.069,44.069,0,0,0-5.014.736,25.949,25.949,0,0,0-2.862.779c-.183.071-.321.12-.46.17a8.41,8.41,0,0,0-1.079.448l-.659.316c-.249.13-.454.265-.655.394l-.177.113a5.346,5.346,0,0,0-1.032.819c-.079.077-.158.152-.243.229l-.022.021a1.354,1.354,0,0,0-.25.261l-.059.074-.144.188a2.955,2.955,0,0,0-.326.5,4.646,4.646,0,0,0-.431,1.043c-.006.021-.011.04-.015.06a5.57,5.57,0,0,0,.52,3.785,15.781,15.781,0,0,0,3.223,4.178,32.223,32.223,0,0,0,2.659,2.3c.662.516,1.063.791,1.079.8a1.025,1.025,0,0,0,.577.179,1.019,1.019,0,0,0,.8-.388,1.019,1.019,0,0,0-.112-1.388s-.333-.308-.868-.854a29.948,29.948,0,0,1-2.138-2.432,12.873,12.873,0,0,1-2.129-3.641,2.356,2.356,0,0,1-.106-1.376l.019-.035a1.217,1.217,0,0,1,.065-.122.736.736,0,0,0,.071-.089l.028-.027.043-.04c.08-.056.166-.116.251-.18a3.884,3.884,0,0,1,.486-.316.748.748,0,0,0,.1-.035c.092-.036.178-.075.263-.113a2.112,2.112,0,0,1,.2-.088l.561-.177c.018-.006.036-.011.052-.018a4.731,4.731,0,0,1,.655-.165c.145-.03.29-.06.431-.093a21.4,21.4,0,0,1,2.37-.3c.76-.054,1.546-.081,2.4-.081.643,0,1.319.016,2.065.048.22.01.441.021.66.033l-1.721,1.711a2.556,2.556,0,0,0-.011,3.61,2.532,2.532,0,0,0,1.811.754,2.545,2.545,0,0,0,1.8-.74l6.595-6.555a2.565,2.565,0,0,0,.031-3.592l-6.352-6.537a2.536,2.536,0,0,0-1.831-.773Z" transform="translate(-1806.782 6857.924)"/>
  </g>
</svg>
