<svg xmlns="http://www.w3.org/2000/svg" width="100.013" height="80.385" viewBox="0 0 100.013 80.385">
  <g id="music" transform="translate(0 0.001)">
    <path id="Tracé_6727" data-name="Tracé 6727" d="M0,164.426a3.96,3.96,0,0,1,3.583-1.667c12.178.06,24.361.016,36.539.06a2.385,2.385,0,0,0,2.575-1.53,8.175,8.175,0,0,1,7.808-4.7,8.171,8.171,0,0,1,7.736,4.812,2.245,2.245,0,0,0,2.462,1.414c11.845-.036,23.69,0,35.535-.052a4.061,4.061,0,0,1,3.776,1.659v1.607c-.8,1.583-2.165,1.944-3.832,1.94-11.845-.032-23.694,0-35.539-.04A2.3,2.3,0,0,0,58.2,169.37a8.255,8.255,0,0,1-7.8,4.707,8.111,8.111,0,0,1-7.652-4.6,2.411,2.411,0,0,0-2.583-1.546c-12.182.044-24.361,0-36.543.048A3.568,3.568,0,0,1,0,166.036V164.43Zm54.1.868a3.822,3.822,0,0,0-3.607-3.611,3.708,3.708,0,0,0-3.671,3.715A3.6,3.6,0,0,0,50.6,168.96a3.688,3.688,0,0,0,3.506-3.667Z" transform="translate(0 -93.694)" fill="#ce574e"/>
    <path id="Soustraction_2" data-name="Soustraction 2" d="M-1130.278-6047.548c-9.741,0-19.582,0-29.249-.012-2.958,0-4.459-2.208-4.462-6.563-.006-15.053-.006-30.318,0-45.372a8.349,8.349,0,0,1,1.106-4.69,3.659,3.659,0,0,1,3.208-1.615c6.524-.008,12.877-.009,17.089-.009h41.409c3.19,0,4.614,2.066,4.617,6.7,0,14.919,0,30.049,0,44.968a8.827,8.827,0,0,1-1.125,4.911,3.8,3.8,0,0,1-3.343,1.669C-1110.7-6047.552-1120.537-6047.548-1130.278-6047.548Zm-11.823-23.591c-3.247,0-5.889,2.2-5.889,4.91s2.642,4.908,5.889,4.908,5.89-2.2,5.89-4.908v-12.775l15.708-4.712v8.934a6.826,6.826,0,0,0-1.964-.282c-3.247,0-5.889,2.2-5.889,4.908s2.642,4.908,5.889,4.908,5.89-2.2,5.89-4.908v-20.616a1.972,1.972,0,0,0-.791-1.577,1.934,1.934,0,0,0-1.17-.39,1.968,1.968,0,0,0-.566.083l-19.634,5.89a1.983,1.983,0,0,0-1.4,1.883v14.026A6.84,6.84,0,0,0-1142.1-6071.14Z" transform="translate(1180.282 6105.808)" fill="#ce574e"/>
  </g>
</svg>
