<svg xmlns="http://www.w3.org/2000/svg" width="83.136" height="70" viewBox="0 0 83.136 70">
  <path id="person-chalkboard-solid" d="M53.809,13.125a6.563,6.563,0,1,0-6.563-6.563A6.563,6.563,0,0,0,53.809,13.125Zm-1.094,52.5v-17.5H54.9v17.5a4.375,4.375,0,0,0,8.75,0V26.25H82.247a4.375,4.375,0,1,0,0-8.75H80.059V8.75h26.25V35H80.059V30.625h-8.75v6.563a6.564,6.564,0,0,0,6.563,6.563H108.5a6.564,6.564,0,0,0,6.563-6.563V6.563A6.564,6.564,0,0,0,108.5,0H77.872a6.564,6.564,0,0,0-6.563,6.563V17.5H51.772A13.136,13.136,0,0,0,40.52,23.871L32.549,37.133a4.373,4.373,0,0,0,7.492,4.512l3.924-6.522v30.5a4.375,4.375,0,1,0,8.75,0Z" transform="translate(-31.924)" fill="#24a069"/>
</svg>
