<svg xmlns="http://www.w3.org/2000/svg" width="68.671" height="100" viewBox="0 0 68.671 100">
  <path id="icon_phone" d="M68.66,50.029q0,16.866,0,33.731A16.1,16.1,0,0,1,64.876,94.7a15.333,15.333,0,0,1-12.131,5.262c-12.277.047-24.56.068-36.837,0C6.522,99.905.065,93.375.039,83.817Q-.055,49.961.039,16.1C.065,7.971,4.69,2.135,12.243.429a18.158,18.158,0,0,1,3.868-.4Q34.339-.013,52.557.016C60.1.032,65.993,4.176,67.9,10.921a21.348,21.348,0,0,1,.726,5.643c.068,11.155.031,22.31.031,33.47ZM21.822,12.445H16.5c-3.017,0-4.082,1.049-4.082,4.056V83.447c0,3.1,1.028,4.1,4.16,4.1H52.118c3.226,0,4.145-.924,4.145-4.207V16.652a11.978,11.978,0,0,0-.078-1.561,2.757,2.757,0,0,0-2.516-2.579c-2.234-.115-4.484-.031-6.9-.031,0,1.143.037,2.172-.01,3.2a2.806,2.806,0,0,1-2.944,2.986q-9.435.078-18.875,0a2.749,2.749,0,0,1-2.949-2.688c-.136-1.112-.115-2.239-.177-3.539Z" transform="translate(0.006 -0.001)" fill="#1a6da8"/>
</svg>
