<svg xmlns="http://www.w3.org/2000/svg" width="100" height="100.213" viewBox="0 0 100 100.213">
  <path id="social" d="M92.349,40.618a9.5,9.5,0,0,0-6.721,1.026,9.741,9.741,0,0,0-4.852,6.786H77.345a27.636,27.636,0,0,0-6.818-16.5c2.332-2.324,4.61-4.6,6.918-6.9,3.522,1.46,6.514.813,8.442-1.882A6.451,6.451,0,0,0,77.5,13.757a6.488,6.488,0,0,0-2.58,8.641c-2.37,2.459-4.6,4.769-6.84,7.1a27.523,27.523,0,0,0-16.426-6.807V16.032A8.15,8.15,0,0,0,58,7.062,8.062,8.062,0,0,0,42.15,6.238a7.944,7.944,0,0,0,.671,5.5,8.148,8.148,0,0,0,5.523,4.279V22.7A27.557,27.557,0,0,0,31.812,29.58c-5.033-5.052-9.985-10.025-14.932-14.991,1.535-3.49.84-6.632-1.88-8.555A6.444,6.444,0,0,0,5.8,14.68a6.443,6.443,0,0,0,8.69,2.332c4.992,5,9.955,9.958,14.964,14.967a27.619,27.619,0,0,0-6.81,16.456h-3.42A9.691,9.691,0,1,0,7.636,59.588a9.457,9.457,0,0,0,6.721-1.015,9.743,9.743,0,0,0,4.869-6.8h3.423a27.224,27.224,0,0,0,7.37,17.059c-2.564,2.5-14.9,13.9-17.094,16.076-3.4-1.527-6.538-.848-8.466,1.818a6.453,6.453,0,0,0,8.512,9.341c2.984-1.78,3.748-4.7,2.356-8.827,2.162-2.195,14.584-13.7,17.035-16.17a27.291,27.291,0,0,0,16,6.449v6.632c-4.745,1.783-7.042,5.17-6.307,9.263a8.045,8.045,0,0,0,15.845.285c.835-4.309-1.33-7.631-6.245-9.56v-6.63A27.583,27.583,0,0,0,68.187,70.64c2.332,2.348,4.6,4.634,6.864,6.918-1.527,3.476-.835,6.616,1.88,8.539a6.46,6.46,0,1,0,.56-10.989c-2.324-2.305-4.6-4.57-6.926-6.875a27.583,27.583,0,0,0,6.783-16.467h3.371c1.8,5.663,5.905,8.69,10.779,7.973a9.706,9.706,0,0,0,.846-19.119ZM80.633,16.167a3.228,3.228,0,1,1-3.207,3.213A3.238,3.238,0,0,1,80.633,16.167ZM11.395,14.543a3.23,3.23,0,1,1,3.118-3.3A3.241,3.241,0,0,1,11.395,14.543ZM9.68,56.573a6.464,6.464,0,1,1,6.452-6.492A6.469,6.469,0,0,1,9.68,56.573ZM9.674,93.747a3.226,3.226,0,1,1,3.226-3.2,3.238,3.238,0,0,1-3.226,3.2ZM45.168,8.072a4.832,4.832,0,1,1,4.766,4.858,4.854,4.854,0,0,1-4.766-4.858ZM54.836,92.22a4.833,4.833,0,1,1-4.688-4.933,4.861,4.861,0,0,1,4.688,4.933ZM66.907,67.411a24.016,24.016,0,0,1-33.792.024,1.428,1.428,0,0,1-.5-1.484A17.625,17.625,0,0,1,44.684,51.944c.253-.092.514-.153.77-.232.743-.224,1.365-.708,1.26-1.478a2.361,2.361,0,0,0-.959-1.586c-4.125-2.235-4.686-7.058-2.822-10.5a8.044,8.044,0,0,1,10.691-3.342A8.187,8.187,0,0,1,57.45,45.222a6.765,6.765,0,0,1-3.027,3.269c-.738.4-1.284.9-1.174,1.8s.759,1.231,1.554,1.492c6.947,2.292,11.181,7,12.594,14.234a1.349,1.349,0,0,1-.49,1.392ZM80.6,77.59a3.228,3.228,0,1,1-3.178,3.242A3.239,3.239,0,0,1,80.6,77.59Zm9.7-21.017A6.464,6.464,0,1,1,96.776,50.1a6.47,6.47,0,0,1-6.471,6.474Z" transform="translate(0.001 -0.002)" fill="#1a6da8"/>
</svg>
