<svg xmlns="http://www.w3.org/2000/svg" width="100.013" height="80.385" viewBox="0 0 100.013 80.385">
  <g id="video" transform="translate(0 0.001)">
    <path id="Tracé_6727" data-name="Tracé 6727" d="M0,164.426a3.96,3.96,0,0,1,3.583-1.667c12.178.06,24.361.016,36.539.06a2.385,2.385,0,0,0,2.575-1.53,8.175,8.175,0,0,1,7.808-4.7,8.171,8.171,0,0,1,7.736,4.812,2.245,2.245,0,0,0,2.462,1.414c11.845-.036,23.69,0,35.535-.052a4.061,4.061,0,0,1,3.776,1.659v1.607c-.8,1.583-2.165,1.944-3.832,1.94-11.845-.032-23.694,0-35.539-.04A2.3,2.3,0,0,0,58.2,169.37a8.255,8.255,0,0,1-7.8,4.707,8.111,8.111,0,0,1-7.652-4.6,2.411,2.411,0,0,0-2.583-1.546c-12.182.044-24.361,0-36.543.048A3.568,3.568,0,0,1,0,166.036V164.43Zm54.1.868a3.822,3.822,0,0,0-3.607-3.611,3.708,3.708,0,0,0-3.671,3.715A3.6,3.6,0,0,0,50.6,168.96a3.688,3.688,0,0,0,3.506-3.667Z" transform="translate(0 -93.694)" fill="#ce574e"/>
    <path id="Soustraction_1" data-name="Soustraction 1" d="M-263.706-6047.548c-14.253,0-28.639,0-42.758-.012-4.325,0-6.52-2.208-6.523-6.563-.008-15.053-.008-30.318,0-45.372a6.389,6.389,0,0,1,1.616-4.69,6.378,6.378,0,0,1,4.689-1.615c9.537-.008,18.818-.009,24.97-.009h60.548c2.347,0,4.021.529,5.116,1.616s1.629,2.751,1.631,5.083c.009,14.919.009,30.049,0,44.968a6.731,6.731,0,0,1-1.644,4.911,6.628,6.628,0,0,1-4.887,1.669C-235.067-6047.552-249.453-6047.548-263.706-6047.548Zm-9.843-44.465a1.478,1.478,0,0,0-.759.168,4.3,4.3,0,0,0-1.523,3.129c-.128,2.9-.105,5.852-.084,8.707.008,1.087.017,2.212.017,3.323s-.007,2.235-.013,3.324v.007c-.018,2.985-.036,6.07.081,9.1a3.762,3.762,0,0,0,1.519,2.728,1.724,1.724,0,0,0,.85.184,4.046,4.046,0,0,0,2.033-.585c6.16-4.12,12.186-8.309,17.831-12.247a3.179,3.179,0,0,0,1.626-2.46,3.249,3.249,0,0,0-1.663-2.508l-1.024-.719c-5.349-3.755-10.881-7.638-16.428-11.368A4.984,4.984,0,0,0-273.548-6092.014Z" transform="translate(313.706 6105.808)" fill="#ce574e"/>
  </g>
</svg>
