<svg id="premium" xmlns="http://www.w3.org/2000/svg" xmlns:xlink="http://www.w3.org/1999/xlink" width="59.26" height="59.256" viewBox="0 0 59.26 59.256">
  <defs>
    <filter id="Rectangle_3969" x="0" y="0" width="59.26" height="59.256" filterUnits="userSpaceOnUse">
      <feOffset input="SourceAlpha"/>
      <feGaussianBlur stdDeviation="0.5" result="blur"/>
      <feFlood flood-color="#8e8e8e" flood-opacity="0.749"/>
      <feComposite operator="in" in2="blur"/>
      <feComposite in="SourceGraphic"/>
    </filter>
  </defs>
  <g transform="matrix(1, 0, 0, 1, 0, 0)" filter="url(#Rectangle_3969)">
    <path id="Rectangle_3969-2" data-name="Rectangle 3969" d="M29.628,1.5h0a28.128,28.128,0,1,1,0,56.256h0a28.128,28.128,0,1,1,0-56.256Z" fill="#fff"/>
  </g>
  <path id="icon-premium" d="M29.881,26.626H5.287c-.151,0-.283,0-.4,0s-.215-.007-.3-.017a.951.951,0,0,1-.215-.045.354.354,0,0,1-.231-.231.948.948,0,0,1-.045-.215c-.009-.085-.014-.184-.016-.3s0-.248,0-.4q0-.1,0-.2t0-.2q0-.1,0-.2t0-.2v-.163q0-.293,0-.59t0-.6q0-.3,0-.6t-.009-.6H31.086q-.006.3-.009.6t0,.6q0,.3,0,.6t0,.591v.163q0,.1,0,.2t0,.2q0,.1,0,.2t0,.2c0,.151,0,.283,0,.4s-.007.215-.016.3a.953.953,0,0,1-.045.215.352.352,0,0,1-.23.231.944.944,0,0,1-.214.045c-.085.009-.183.014-.3.016S30.031,26.626,29.881,26.626ZM31.45,20.7H3.71c-.2-.65-.458-1.517-.759-2.5s-.639-2.1-.986-3.232-.7-2.293-1.034-3.381l-.9-2.951A.6.6,0,0,1,0,8.493a.57.57,0,0,1,.006-.133.562.562,0,0,1,.037-.128.571.571,0,0,1,.067-.117A.6.6,0,0,1,.32,7.938a.585.585,0,0,1,.127-.047.564.564,0,0,1,.259,0,.587.587,0,0,1,.061.017.618.618,0,0,1,.06.024L10.2,12.222a.586.586,0,0,0,.059.023.571.571,0,0,0,.121.027.583.583,0,0,0,.364-.08.574.574,0,0,0,.213-.229L17.065.312a.591.591,0,0,1,.092-.131.563.563,0,0,1,.264-.16.606.606,0,0,1,.319,0A.563.563,0,0,1,18,.181.591.591,0,0,1,18.1.312L24.2,11.963a.588.588,0,0,0,.093.13.583.583,0,0,0,.485.179.571.571,0,0,0,.121-.027.586.586,0,0,0,.059-.023l9.375-4.293a.618.618,0,0,1,.06-.024.586.586,0,0,1,.061-.017.57.57,0,0,1,.125-.014.562.562,0,0,1,.134.016.581.581,0,0,1,.126.047.595.595,0,0,1,.207.176.574.574,0,0,1,.067.117.566.566,0,0,1,.037.128.573.573,0,0,1,.007.134.6.6,0,0,1-.025.135L34.651,10.2c-.273.891-.637,2.08-1.029,3.361s-.811,2.653-1.194,3.911-.73,2.4-.978,3.223Z" transform="translate(12.05 16.314)" fill="#ffc152"/>
</svg>
