<?xml version="1.0" encoding="UTF-8"?>
<svg id="Calque_2"
    xmlns="http://www.w3.org/2000/svg"
    xmlns:xlink="http://www.w3.org/1999/xlink" viewBox="0 0 278.5 297.44"
    style="transform: rotate(180deg);">
    <defs>
        <style>.cls-1{fill:none;}.cls-2{clip-path:url(#clippath);}.cls-3{fill:#fff;}.cls-4{fill:#ffc152;}.cls-5{fill:#999;}.cls-6{fill:#333;}.cls-7{fill:#ce574e;}.cls-8{fill:#ccc;}.cls-9{fill:#206189;}.cls-10{fill:#484848;}.cls-11{clip-path:url(#clippath-1);}.cls-12{clip-path:url(#clippath-3);}.cls-13{clip-path:url(#clippath-2);}</style>
        <clipPath id="clippath">
            <rect class="cls-1" x="77" y="33.78" width="76.43" height="8.86"/>
        </clipPath>
        <clipPath id="clippath-1">
            <rect class="cls-1" x="80.78" y="39.9" width="68.11" height="8.86"/>
        </clipPath>
        <clipPath id="clippath-2">
            <rect class="cls-1" x="77" y="254.8" width="76.43" height="8.86"/>
        </clipPath>
        <clipPath id="clippath-3">
            <rect class="cls-1" x="80.78" y="248.68" width="68.11" height="8.86"/>
        </clipPath>
    </defs>
    <g id="Calque_1-2">
        <g id="eliobot">
            <g id="wheels">
                <g id="wheel_left">
                    <path id="wheel" class="cls-10" d="M117.36,60.77c19.8,0,38.82,1.09,39.14,2.63,3.23-.4,5.26-3.23,5.26-6.21v-15.07c0-4.87-4.39-8.22-9.21-9.91-2.42-1.28-16.49-3.11-34.66-3.11-14.21,0-25.61,.99-31.44,1.87-7.13,.64-13.47,4.92-13.47,11.16v15.07c0,2.98,2.12,5.8,5.35,6.21,.1-1.52,19.24-2.63,39.04-2.63Z"/>
                    <ellipse id="wheel_inside" class="cls-3" cx="117.9" cy="59.7" rx="37.4" ry="7.83"/>
                    <g id="outlines">
                        <path class="cls-6" d="M72.96,49.62c-.05-.9,.04-1.83,.47-2.69,.44-.85,1.18-1.56,2.01-2.11,1.69-1.11,3.67-1.75,5.63-2.29,3.97-1.01,8.04-1.51,12.1-1.89,8.13-.74,16.29-.89,24.44-.92,8.14,.04,16.3,.17,24.43,.85,4.06,.35,8.14,.81,12.12,1.75,1.97,.51,3.98,1.11,5.64,2.29,.83,.58,1.48,1.39,1.76,2.29,.26,.91,.22,1.82,.17,2.72-.05-.9-.12-1.81-.46-2.64-.34-.82-.98-1.51-1.8-2-1.62-.99-3.6-1.45-5.55-1.82-1.96-.37-3.96-.61-5.97-.79-2.01-.18-4.02-.33-6.04-.42-4.04-.19-8.09-.32-12.14-.36-4.05-.06-8.11-.1-12.17-.08-4.06-.01-8.11,.02-12.16,.09-4.05,.06-8.1,.21-12.14,.43-4.03,.26-8.07,.57-11.99,1.35-1.94,.4-3.9,.9-5.58,1.83-.83,.47-1.56,1.08-2.05,1.85-.49,.76-.7,1.66-.75,2.56Z"/>
                        <g class="cls-2">
                            <g>
                                <path class="cls-6" d="M144.93,33.77c1.56,1.09,3.07,2.24,4.58,3.4,1.61,1.1,3.03,2.33,3.92,4.14,0,0-.09,.11-.09,.11-1.9-.67-3.29-1.94-4.58-3.4-1.33-1.36-2.65-2.72-3.92-4.14l.09-.11h0Z"/>
                                <path class="cls-6" d="M136.28,33.77c1.56,1.09,3.07,2.24,4.58,3.4,1.61,1.1,3.03,2.33,3.92,4.14,0,0-.09,.11-.09,.11-1.9-.67-3.29-1.94-4.58-3.4-1.33-1.36-2.65-2.72-3.92-4.14l.09-.11h0Z"/>
                                <path class="cls-6" d="M127.63,33.77c1.56,1.09,3.07,2.24,4.58,3.4,1.61,1.1,3.03,2.33,3.92,4.14,0,0-.09,.11-.09,.11-1.9-.67-3.29-1.94-4.58-3.4-1.33-1.36-2.65-2.72-3.92-4.14l.09-.11h0Z"/>
                                <path class="cls-6" d="M118.98,33.77c1.56,1.09,3.07,2.24,4.58,3.4,1.61,1.1,3.03,2.33,3.92,4.14,0,0-.09,.11-.09,.11-1.9-.67-3.29-1.94-4.58-3.4-1.33-1.36-2.65-2.72-3.92-4.14l.09-.11h0Z"/>
                                <path class="cls-6" d="M110.34,33.77c1.56,1.09,3.07,2.24,4.58,3.4,1.61,1.1,3.03,2.33,3.92,4.14,0,0-.09,.11-.09,.11-1.9-.67-3.29-1.94-4.58-3.4-1.33-1.36-2.65-2.72-3.92-4.14l.09-.11h0Z"/>
                                <path class="cls-6" d="M101.69,33.77c1.56,1.09,3.07,2.24,4.58,3.4,1.61,1.1,3.03,2.33,3.92,4.14,0,0-.09,.11-.09,.11-1.9-.67-3.29-1.94-4.58-3.4-1.33-1.36-2.65-2.72-3.92-4.14l.09-.11h0Z"/>
                                <path class="cls-6" d="M93.04,33.77c1.56,1.09,3.07,2.24,4.58,3.4,1.61,1.1,3.03,2.33,3.92,4.14,0,0-.09,.11-.09,.11-1.9-.67-3.29-1.94-4.58-3.4-1.33-1.36-2.65-2.72-3.92-4.14l.09-.11h0Z"/>
                                <path class="cls-6" d="M84.39,33.77c1.56,1.09,3.07,2.24,4.58,3.4,1.61,1.1,3.03,2.33,3.92,4.14,0,0-.09,.11-.09,.11-1.9-.67-3.29-1.94-4.58-3.4-1.33-1.36-2.65-2.72-3.92-4.14l.09-.11h0Z"/>
                                <path class="cls-6" d="M75.74,33.77c1.56,1.09,3.07,2.24,4.58,3.4,1.61,1.1,3.03,2.33,3.92,4.14,0,0-.09,.11-.09,.11-1.9-.67-3.29-1.94-4.58-3.4-1.33-1.36-2.65-2.72-3.92-4.14l.09-.11h0Z"/>
                            </g>
                        </g>
                        <g class="cls-11">
                            <g>
                                <path class="cls-6" d="M79.6,48.67c1.27-1.42,2.59-2.78,3.92-4.14,1.28-1.46,2.67-2.73,4.58-3.4,0,0,.09,.11,.09,.11-.89,1.81-2.31,3.04-3.92,4.14-1.5,1.16-3.02,2.31-4.58,3.4l-.09-.11h0Z"/>
                                <path class="cls-6" d="M88.25,48.67c1.27-1.42,2.59-2.78,3.92-4.14,1.28-1.46,2.67-2.73,4.58-3.4,0,0,.09,.11,.09,.11-.89,1.81-2.31,3.04-3.92,4.14-1.5,1.16-3.02,2.31-4.58,3.4l-.09-.11h0Z"/>
                                <path class="cls-6" d="M96.89,48.67c1.27-1.42,2.59-2.78,3.92-4.14,1.28-1.46,2.67-2.73,4.58-3.4,0,0,.09,.11,.09,.11-.89,1.81-2.31,3.04-3.92,4.14-1.5,1.16-3.02,2.31-4.58,3.4l-.09-.11h0Z"/>
                                <path class="cls-6" d="M105.54,48.67c1.27-1.42,2.59-2.78,3.92-4.14,1.28-1.46,2.67-2.73,4.58-3.4,0,0,.09,.11,.09,.11-.89,1.81-2.31,3.04-3.92,4.14-1.5,1.16-3.02,2.31-4.58,3.4l-.09-.11h0Z"/>
                                <path class="cls-6" d="M114.19,48.67c1.27-1.42,2.59-2.78,3.92-4.14,1.28-1.46,2.67-2.73,4.58-3.4,0,0,.09,.11,.09,.11-.89,1.81-2.31,3.04-3.92,4.14-1.5,1.16-3.02,2.31-4.58,3.4l-.09-.11h0Z"/>
                                <path class="cls-6" d="M122.84,48.67c1.27-1.42,2.59-2.78,3.92-4.14,1.28-1.46,2.67-2.73,4.58-3.4,0,0,.09,.11,.09,.11-.89,1.81-2.31,3.04-3.92,4.14-1.5,1.16-3.02,2.31-4.58,3.4l-.09-.11h0Z"/>
                                <path class="cls-6" d="M131.49,48.67c1.27-1.42,2.59-2.78,3.92-4.14,1.28-1.46,2.67-2.73,4.58-3.4,0,0,.09,.11,.09,.11-.89,1.81-2.31,3.04-3.92,4.14-1.5,1.16-3.02,2.31-4.58,3.4l-.09-.11h0Z"/>
                                <path class="cls-6" d="M140.13,48.67c1.27-1.42,2.59-2.78,3.92-4.14,1.28-1.46,2.67-2.73,4.58-3.4,0,0,.09,.11,.09,.11-.89,1.81-2.31,3.04-3.92,4.14-1.5,1.16-3.02,2.31-4.58,3.4l-.09-.11h0Z"/>
                                <path class="cls-6" d="M148.78,48.67c1.27-1.42,2.59-2.78,3.92-4.14,1.28-1.46,2.67-2.73,4.58-3.4,0,0,.09,.11,.09,.11-.89,1.81-2.31,3.04-3.92,4.14-1.5,1.16-3.02,2.31-4.58,3.4l-.09-.11h0Z"/>
                            </g>
                        </g>
                    </g>
                </g>
                <g id="wheel_left-2">
                    <path id="wheel-2" class="cls-10" d="M117.36,236.67c19.8,0,38.82-1.09,39.14-2.63,3.23,.4,5.26,3.23,5.26,6.21v15.07c0,4.87-4.39,8.22-9.21,9.91-2.42,1.28-16.49,3.11-34.66,3.11-14.21,0-25.61-.99-31.44-1.87-7.13-.64-13.47-4.92-13.47-11.16v-15.07c0-2.98,2.12-5.8,5.35-6.21,.1,1.52,19.24,2.63,39.04,2.63Z"/>
                    <ellipse id="wheel_inside-2" class="cls-3" cx="117.9" cy="237.75" rx="37.4" ry="7.83"/>
                    <g id="outlines-2">
                        <path class="cls-6" d="M72.96,247.83c-.05,.9,.04,1.83,.47,2.69,.44,.85,1.18,1.56,2.01,2.11,1.69,1.11,3.67,1.75,5.63,2.29,3.97,1.01,8.04,1.51,12.1,1.89,8.13,.74,16.29,.89,24.44,.92,8.14-.04,16.3-.17,24.43-.85,4.06-.35,8.14-.81,12.12-1.75,1.97-.51,3.98-1.11,5.64-2.29,.83-.58,1.48-1.39,1.76-2.29,.26-.91,.22-1.82,.17-2.72-.05,.9-.12,1.81-.46,2.64-.34,.82-.98,1.51-1.8,2-1.62,.99-3.6,1.45-5.55,1.82-1.96,.37-3.96,.61-5.97,.79-2.01,.18-4.02,.33-6.04,.42-4.04,.19-8.09,.32-12.14,.36-4.05,.06-8.11,.1-12.17,.08-4.06,.01-8.11-.02-12.16-.09-4.05-.06-8.1-.21-12.14-.43-4.03-.26-8.07-.57-11.99-1.35-1.94-.4-3.9-.9-5.58-1.83-.83-.47-1.56-1.08-2.05-1.85-.49-.76-.7-1.66-.75-2.56Z"/>
                        <g class="cls-13">
                            <g>
                                <path class="cls-6" d="M75.65,263.57c1.27-1.42,2.59-2.78,3.92-4.14,1.28-1.46,2.67-2.73,4.58-3.4,0,0,.09,.11,.09,.11-.89,1.81-2.31,3.04-3.92,4.14-1.5,1.16-3.02,2.31-4.58,3.4,0,0-.09-.11-.09-.11h0Z"/>
                                <path class="cls-6" d="M84.3,263.57c1.27-1.42,2.59-2.78,3.92-4.14,1.28-1.46,2.67-2.73,4.58-3.4,0,0,.09,.11,.09,.11-.89,1.81-2.31,3.04-3.92,4.14-1.5,1.16-3.02,2.31-4.58,3.4,0,0-.09-.11-.09-.11h0Z"/>
                                <path class="cls-6" d="M92.95,263.57c1.27-1.42,2.59-2.78,3.92-4.14,1.28-1.46,2.67-2.73,4.58-3.4,0,0,.09,.11,.09,.11-.89,1.81-2.31,3.04-3.92,4.14-1.5,1.16-3.02,2.31-4.58,3.4,0,0-.09-.11-.09-.11h0Z"/>
                                <path class="cls-6" d="M101.59,263.57c1.27-1.42,2.59-2.78,3.92-4.14,1.28-1.46,2.67-2.73,4.58-3.4,0,0,.09,.11,.09,.11-.89,1.81-2.31,3.04-3.92,4.14-1.5,1.16-3.02,2.31-4.58,3.4,0,0-.09-.11-.09-.11h0Z"/>
                                <path class="cls-6" d="M110.24,263.57c1.27-1.42,2.59-2.78,3.92-4.14,1.28-1.46,2.67-2.73,4.58-3.4,0,0,.09,.11,.09,.11-.89,1.81-2.31,3.04-3.92,4.14-1.5,1.16-3.02,2.31-4.58,3.4,0,0-.09-.11-.09-.11h0Z"/>
                                <path class="cls-6" d="M118.89,263.57c1.27-1.42,2.59-2.78,3.92-4.14,1.28-1.46,2.67-2.73,4.58-3.4,0,0,.09,.11,.09,.11-.89,1.81-2.31,3.04-3.92,4.14-1.5,1.16-3.02,2.31-4.58,3.4,0,0-.09-.11-.09-.11h0Z"/>
                                <path class="cls-6" d="M127.54,263.57c1.27-1.42,2.59-2.78,3.92-4.14,1.28-1.46,2.67-2.73,4.58-3.4,0,0,.09,.11,.09,.11-.89,1.81-2.31,3.04-3.92,4.14-1.5,1.16-3.02,2.31-4.58,3.4,0,0-.09-.11-.09-.11h0Z"/>
                                <path class="cls-6" d="M136.19,263.57c1.27-1.42,2.59-2.78,3.92-4.14,1.28-1.46,2.67-2.73,4.58-3.4,0,0,.09,.11,.09,.11-.89,1.81-2.31,3.04-3.92,4.14-1.5,1.16-3.02,2.31-4.58,3.4,0,0-.09-.11-.09-.11h0Z"/>
                                <path class="cls-6" d="M144.83,263.57c1.27-1.42,2.59-2.78,3.92-4.14,1.28-1.46,2.67-2.73,4.58-3.4,0,0,.09,.11,.09,.11-.89,1.81-2.31,3.04-3.92,4.14-1.5,1.16-3.02,2.31-4.58,3.4,0,0-.09-.11-.09-.11h0Z"/>
                            </g>
                        </g>
                        <g class="cls-12">
                            <g>
                                <path class="cls-6" d="M148.88,248.67c1.56,1.09,3.07,2.24,4.58,3.4,1.61,1.1,3.03,2.33,3.92,4.14,0,0-.09,.11-.09,.11-1.9-.67-3.29-1.94-4.58-3.4-1.33-1.36-2.65-2.72-3.92-4.14l.09-.11h0Z"/>
                                <path class="cls-6" d="M140.23,248.67c1.56,1.09,3.07,2.24,4.58,3.4,1.61,1.1,3.03,2.33,3.92,4.14,0,0-.09,.11-.09,.11-1.9-.67-3.29-1.94-4.58-3.4-1.33-1.36-2.65-2.72-3.92-4.14l.09-.11h0Z"/>
                                <path class="cls-6" d="M131.58,248.67c1.56,1.09,3.07,2.24,4.58,3.4,1.61,1.1,3.03,2.33,3.92,4.14,0,0-.09,.11-.09,.11-1.9-.67-3.29-1.94-4.58-3.4-1.33-1.36-2.65-2.72-3.92-4.14l.09-.11h0Z"/>
                                <path class="cls-6" d="M122.93,248.67c1.56,1.09,3.07,2.24,4.58,3.4,1.61,1.1,3.03,2.33,3.92,4.14,0,0-.09,.11-.09,.11-1.9-.67-3.29-1.94-4.58-3.4-1.33-1.36-2.65-2.72-3.92-4.14l.09-.11h0Z"/>
                                <path class="cls-6" d="M114.28,248.67c1.56,1.09,3.07,2.24,4.58,3.4,1.61,1.1,3.03,2.33,3.92,4.14,0,0-.09,.11-.09,.11-1.9-.67-3.29-1.94-4.58-3.4-1.33-1.36-2.65-2.72-3.92-4.14l.09-.11h0Z"/>
                                <path class="cls-6" d="M105.64,248.67c1.56,1.09,3.07,2.24,4.58,3.4,1.61,1.1,3.03,2.33,3.92,4.14,0,0-.09,.11-.09,.11-1.9-.67-3.29-1.94-4.58-3.4-1.33-1.36-2.65-2.72-3.92-4.14l.09-.11h0Z"/>
                                <path class="cls-6" d="M96.99,248.67c1.56,1.09,3.07,2.24,4.58,3.4,1.61,1.1,3.03,2.33,3.92,4.14,0,0-.09,.11-.09,.11-1.9-.67-3.29-1.94-4.58-3.4-1.33-1.36-2.65-2.72-3.92-4.14l.09-.11h0Z"/>
                                <path class="cls-6" d="M88.34,248.67c1.56,1.09,3.07,2.24,4.58,3.4,1.61,1.1,3.03,2.33,3.92,4.14,0,0-.09,.11-.09,.11-1.9-.67-3.29-1.94-4.58-3.4-1.33-1.36-2.65-2.72-3.92-4.14l.09-.11h0Z"/>
                                <path class="cls-6" d="M79.69,248.67c1.56,1.09,3.07,2.24,4.58,3.4,1.61,1.1,3.03,2.33,3.92,4.14,0,0-.09,.11-.09,.11-1.9-.67-3.29-1.94-4.58-3.4-1.33-1.36-2.65-2.72-3.92-4.14l.09-.11h0Z"/>
                            </g>
                        </g>
                    </g>
                </g>
            </g>
            <path id="frame" class="cls-9" d="M179.23,46.84c-1.73-.62-3.55-.94-5.39-.94h-2.97c-4.81,0-8.71,3.9-8.71,8.71v.05c0,4.63-3.76,8.39-8.39,8.39H80.57c-4.63,0-8.39-3.76-8.39-8.39v-.05c0-4.81-3.9-7.71-8.71-7.71-3.18,0-6.29,.94-8.91,2.72C41.44,58.54,2.98,88.79,2.98,148.88s38.46,90.35,51.58,99.26c2.63,1.79,5.74,2.72,8.91,2.72,4.81,0,8.71-2.9,8.71-7.71v-.05c0-4.63,3.76-8.39,8.39-8.39h73.2c4.63,0,8.39,3.76,8.39,8.39h0v.05c0,4.81,3.9,8.71,8.71,8.71h2.97c1.84,0,3.66-.32,5.39-.94,15.65-5.64,93.51-36.95,93.46-102.04,.05-65.09-77.82-96.4-93.46-102.04ZM55.37,184.95c-1.19,0-2.16-.97-2.16-2.16s.97-2.16,2.16-2.16,2.16,.97,2.16,2.16-.97,2.16-2.16,2.16Zm0-6.82c-1.19,0-2.16-.97-2.16-2.16s.97-2.16,2.16-2.16,2.16,.97,2.16,2.16-.97,2.16-2.16,2.16Zm0-6.82c-1.19,0-2.16-.97-2.16-2.16s.97-2.16,2.16-2.16,2.16,.97,2.16,2.16-.97,2.16-2.16,2.16Zm0-6.82c-1.19,0-2.16-.97-2.16-2.16s.97-2.16,2.16-2.16,2.16,.97,2.16,2.16-.97,2.16-2.16,2.16Zm0-6.82c-1.19,0-2.16-.97-2.16-2.16s.97-2.16,2.16-2.16,2.16,.97,2.16,2.16-.97,2.16-2.16,2.16Zm0-6.82c-1.19,0-2.16-.97-2.16-2.16s.97-2.16,2.16-2.16,2.16,.97,2.16,2.16-.97,2.16-2.16,2.16Zm0-6.82c-1.19,0-2.16-.97-2.16-2.16s.97-2.16,2.16-2.16,2.16,.97,2.16,2.16-.97,2.16-2.16,2.16Zm0-6.82c-1.19,0-2.16-.97-2.16-2.16s.97-2.16,2.16-2.16,2.16,.97,2.16,2.16-.97,2.16-2.16,2.16Zm0-6.82c-1.19,0-2.16-.97-2.16-2.16s.97-2.16,2.16-2.16,2.16,.97,2.16,2.16-.97,2.16-2.16,2.16Zm0-6.82c-1.19,0-2.16-.97-2.16-2.16s.97-2.16,2.16-2.16,2.16,.97,2.16,2.16-.97,2.16-2.16,2.16Zm0-6.82c-1.19,0-2.16-.97-2.16-2.16s.97-2.16,2.16-2.16,2.16,.97,2.16,2.16-.97,2.16-2.16,2.16Zm61.11,47.12c-6.44,.13-11.96-3.8-14.21-9.4-.53-1.32-2.06-1.99-3.32-1.34-1.12,.58-2.44,.8-3.83,.52-2.21-.45-4.01-2.22-4.47-4.42-.79-3.73,2.06-7.05,5.66-7.05,1.14,0,2.21,.33,3.1,.91,1.19,.77,2.78,.25,3.42-1.02,2.48-4.84,7.51-8.16,13.32-8.16,8.51,0,15.37,7.1,14.96,15.7-.37,7.76-6.87,14.08-14.64,14.24Zm15.82,16.43c-1.19,0-2.16-.97-2.16-2.16s.97-2.16,2.16-2.16,2.16,.97,2.16,2.16-.97,2.16-2.16,2.16Zm0-60.53c-1.19,0-2.16-.97-2.16-2.16s.97-2.16,2.16-2.16,2.16,.97,2.16,2.16-.97,2.16-2.16,2.16Zm6.82,60.53c-1.19,0-2.16-.97-2.16-2.16s.97-2.16,2.16-2.16,2.16,.97,2.16,2.16-.97,2.16-2.16,2.16Zm0-60.53c-1.19,0-2.16-.97-2.16-2.16s.97-2.16,2.16-2.16,2.16,.97,2.16,2.16-.97,2.16-2.16,2.16Zm6.82,60.53c-1.19,0-2.16-.97-2.16-2.16s.97-2.16,2.16-2.16,2.16,.97,2.16,2.16-.97,2.16-2.16,2.16Zm0-60.53c-1.19,0-2.16-.97-2.16-2.16s.97-2.16,2.16-2.16,2.16,.97,2.16,2.16-.97,2.16-2.16,2.16Zm6.82,60.53c-1.19,0-2.16-.97-2.16-2.16s.97-2.16,2.16-2.16,2.16,.97,2.16,2.16-.97,2.16-2.16,2.16Zm0-60.53c-1.19,0-2.16-.97-2.16-2.16s.97-2.16,2.16-2.16,2.16,.97,2.16,2.16-.97,2.16-2.16,2.16Zm6.82,60.53c-1.19,0-2.16-.97-2.16-2.16s.97-2.16,2.16-2.16,2.16,.97,2.16,2.16-.97,2.16-2.16,2.16Zm0-60.53c-1.19,0-2.16-.97-2.16-2.16s.97-2.16,2.16-2.16,2.16,.97,2.16,2.16-.97,2.16-2.16,2.16Zm6.82,60.53c-1.19,0-2.16-.97-2.16-2.16s.97-2.16,2.16-2.16,2.16,.97,2.16,2.16-.97,2.16-2.16,2.16Zm0-60.53c-1.19,0-2.16-.97-2.16-2.16s.97-2.16,2.16-2.16,2.16,.97,2.16,2.16-.97,2.16-2.16,2.16Zm6.82,60.53c-1.19,0-2.16-.97-2.16-2.16s.97-2.16,2.16-2.16,2.16,.97,2.16,2.16-.97,2.16-2.16,2.16Zm0-60.53c-1.19,0-2.16-.97-2.16-2.16s.97-2.16,2.16-2.16,2.16,.97,2.16,2.16-.97,2.16-2.16,2.16Zm6.82,60.53c-1.19,0-2.16-.97-2.16-2.16s.97-2.16,2.16-2.16,2.16,.97,2.16,2.16-.97,2.16-2.16,2.16Zm0-60.53c-1.19,0-2.16-.97-2.16-2.16s.97-2.16,2.16-2.16,2.16,.97,2.16,2.16-.97,2.16-2.16,2.16Z"/>
            <g id="outlines-3">
                <path class="cls-3" d="M184.57,122.04h-49.56v-8.8h49.56v8.8Zm-48.56-1h47.56v-6.8h-47.56v6.8Z"/>
                <path class="cls-3" d="M184.57,182.53h-49.56v-8.8h49.56v8.8Zm-48.56-1h47.56v-6.8h-47.56v6.8Z"/>
                <path class="cls-3" d="M173.84,249.03h-2.97c-3.24,0-5.88-2.64-5.88-5.88,0-6.24-5.03-11.27-11.22-11.27H80.57c-6.19,0-11.22,5.03-11.22,11.22,0,2.48-1.82,4.93-5.88,4.93-2.64,0-5.17-.77-7.32-2.23-8.06-5.48-19.8-15.07-29.97-29.71-13.51-19.44-20.36-42.05-20.36-67.2s6.85-47.77,20.36-67.2c10.17-14.64,21.92-24.24,29.97-29.71,2.15-1.46,4.68-2.23,7.32-2.23,4.06,0,5.88,2.45,5.88,4.88,0,6.24,5.03,11.27,11.22,11.27h73.2c6.19,0,11.22-5.03,11.22-11.22,0-3.29,2.64-5.93,5.88-5.93h2.97c1.52,0,3.01,.26,4.43,.77,15.3,5.51,91.63,36.21,91.59,99.38,.04,63.16-76.29,93.86-91.59,99.37-1.42,.51-2.91,.77-4.43,.77Zm-93.27-22.82h73.2c9.31,0,16.89,7.58,16.89,16.89,0,.16,.09,.26,.21,.26h2.97c.86,0,1.71-.15,2.51-.44,14.68-5.29,87.88-34.66,87.84-94.03,.04-59.38-73.17-88.76-87.84-94.05-.8-.29-1.65-.43-2.51-.43h-2.97c-.11,0-.21,.09-.21,.21,0,9.36-7.58,16.94-16.89,16.94H80.57c-9.06,0-16.48-7.17-16.88-16.14-.07,0-.14,0-.22,0-1.5,0-2.93,.43-4.13,1.25-7.66,5.21-18.83,14.33-28.5,28.26-12.84,18.47-19.35,39.99-19.35,63.97s6.51,45.5,19.35,63.97c9.68,13.92,20.84,23.05,28.5,28.26,1.2,.82,2.63,1.25,4.13,1.25,.08,0,.16,0,.22,0,.42-8.99,7.83-16.14,16.87-16.14Z"/>
                <path d="M60.46,254.77c-2.19,0-4.41-.64-6.36-1.96C37.83,241.76,0,209.51,0,148.88S37.83,56,54.1,44.95c5.18-3.52,12.23-2.17,15.75,3.01,3.52,5.18,2.17,12.23-3.01,15.75-13.28,9.02-44.16,35.38-44.16,85.17s30.89,76.15,44.16,85.17c5.18,3.52,6.53,10.57,3.01,15.75-2.19,3.23-5.76,4.97-9.39,4.97Z"/>
                <path d="M245.54,211.54c-2.76,0-5.53-1-7.71-3.03-4.59-4.26-4.85-11.44-.59-16.02,12.35-13.29,18.6-27.95,18.59-43.58,.01-15.66-6.25-30.32-18.6-43.61-4.26-4.59-4-11.76,.58-16.02,4.59-4.27,11.76-4,16.02,.58,16.38,17.62,24.68,37.49,24.67,59.05,.01,21.54-8.28,41.4-24.65,59.02-2.23,2.4-5.27,3.62-8.31,3.62Z"/>
            </g>
            <g id="texts">
                <g id="texts_background">
                    <path class="cls-3" d="M173.76,235.04c-1.07,0-2.09-.61-2.57-1.64-.66-1.42-.05-3.11,1.37-3.77l21.55-10.05c1.42-.66,3.1-.05,3.77,1.37,.66,1.42,.05,3.11-1.37,3.77l-21.55,10.05c-.39,.18-.79,.27-1.2,.27Z"/>
                    <path class="cls-3" d="M80.72,156.35c-1.57,0-2.83-1.27-2.83-2.83v-10.65c0-1.57,1.27-2.83,2.83-2.83s2.83,1.27,2.83,2.83v10.65c0,1.57-1.27,2.83-2.83,2.83Z"/>
                    <path class="cls-3" d="M98.54,109.79c-1.57,0-2.83-1.27-2.83-2.83v-17.28c0-1.57,1.27-2.83,2.83-2.83s2.83,1.27,2.83,2.83v17.28c0,1.57-1.27,2.83-2.83,2.83Z"/>
                    <path class="cls-3" d="M164.31,103.56c-1.57,0-2.83-1.27-2.83-2.83v-17.71c0-1.57,1.27-2.83,2.83-2.83s2.83,1.27,2.83,2.83v17.71c0,1.57-1.27,2.83-2.83,2.83Z"/>
                    <path class="cls-3" d="M218.55,96.37c-.55,0-1.1-.16-1.59-.49l-17.24-11.74c-1.29-.88-1.63-2.64-.75-3.94s2.65-1.63,3.94-.75l17.24,11.74c1.29,.88,1.63,2.64,.75,3.94-.55,.81-1.44,1.24-2.35,1.24Z"/>
                </g>
                <g id="texts-2">
                    <g>
                        <path d="M179.13,229.84c.6,1.26,.15,2.29-.78,2.73s-2,.03-2.52-1.07-.19-2.26,.79-2.72,2-.02,2.52,1.07Zm-2.81,1.4c.37,.78,1.12,1.28,1.87,.93s.84-1.24,.45-2.07c-.34-.73-1.08-1.3-1.87-.93s-.83,1.28-.45,2.08Z"/>
                        <path d="M179.71,229.51c-.13-.27-.24-.49-.36-.7l.42-.2,.23,.42h.01c.01-.32,.2-.7,.63-.91,.36-.17,1.03-.22,1.46,.68l.74,1.57-.48,.23-.72-1.51c-.2-.42-.52-.7-.97-.49-.31,.15-.45,.49-.41,.79,0,.07,.04,.16,.07,.24l.75,1.58-.48,.23-.91-1.91Z"/>
                        <path d="M185.1,227.28l.17,.35-1.34,.64-.17-.35,1.34-.64Z"/>
                        <path d="M189.84,224.76c.6,1.26,.15,2.29-.78,2.73s-2,.03-2.52-1.07-.19-2.26,.79-2.72,2-.02,2.52,1.07Zm-2.81,1.4c.37,.78,1.12,1.28,1.87,.93s.84-1.24,.45-2.07c-.34-.73-1.08-1.3-1.87-.93s-.83,1.28-.45,2.08Z"/>
                        <path d="M193.03,225.53l-1.07-2.26-1.1,.52,1.07,2.26-.47,.22-1.07-2.26-.37,.18-.17-.36,.37-.18-.04-.09c-.18-.37-.24-.73-.13-1.03,.08-.22,.25-.42,.55-.56,.15-.07,.32-.09,.42-.08l.07,.4c-.09,0-.2,.02-.31,.07-.37,.18-.32,.55-.13,.96l.05,.11,1.1-.52-.06-.12c-.18-.37-.25-.75-.13-1.06,.1-.26,.3-.44,.52-.54,.17-.08,.33-.11,.44-.12l.12,.4c-.09,0-.2,.02-.34,.09-.4,.19-.34,.6-.15,1l.07,.14,.63-.3,.17,.36-.63,.3,1.07,2.26-.48,.23Z"/>
                    </g>
                    <g>
                        <path d="M78.69,152.58v-.52h3.6v-1.73h.44v2.25h-4.04Z"/>
                        <path d="M80.84,147.65v1.57h1.46v-1.75h.44v2.27h-4.04v-2.18h.44v1.66h1.28v-1.57h.43Z"/>
                        <path d="M78.75,146.79c-.05-.32-.08-.7-.08-1.11,0-.75,.17-1.28,.5-1.64,.33-.36,.8-.57,1.45-.57s1.2,.2,1.57,.58c.38,.38,.58,1,.58,1.79,0,.37-.02,.68-.05,.95h-3.98Zm3.57-.52c.02-.13,.03-.32,.03-.53,0-1.12-.62-1.72-1.71-1.72-.95,0-1.56,.53-1.56,1.64,0,.27,.02,.47,.05,.61h3.19Z"/>
                    </g>
                    <g>
                        <path d="M96.49,105.75c-.05-.23-.08-.59-.08-.95,0-.52,.09-.86,.29-1.11,.16-.21,.4-.34,.71-.34,.39,0,.73,.26,.89,.68h.01c.1-.38,.41-.83,1.01-.83,.35,0,.61,.14,.81,.34,.26,.28,.38,.74,.38,1.4,0,.36-.02,.64-.05,.81h-3.98Zm1.66-.52v-.47c0-.55-.29-.88-.68-.88-.47,0-.66,.36-.66,.89,0,.24,.02,.38,.04,.46h1.3Zm1.94,0c.02-.1,.02-.25,.02-.44,0-.54-.2-1.04-.79-1.04-.55,0-.78,.47-.78,1.04v.43h1.54Z"/>
                        <path d="M99.68,100.09c.3,0,.56,0,.79-.02v.47l-.47,.03h0c.23,.15,.54,.46,.54,.97,0,.46-.25,1-1.27,1h-1.7v-.53h1.61c.55,0,.92-.17,.92-.65,0-.35-.25-.6-.48-.7-.08-.03-.17-.05-.27-.05h-1.78v-.53h2.11Z"/>
                        <path d="M100.17,99.54l-1.71-1.31c-.16-.13-.29-.25-.45-.38h-.01v1.57h-.43v-2.21h.33s1.68,1.3,1.68,1.3c.16,.12,.31,.24,.46,.37h.01v-1.7h.42v2.36h-.31Z"/>
                        <path d="M100.17,96.97l-1.71-1.31c-.16-.13-.29-.25-.45-.38h-.01v1.57h-.43v-2.21h.33s1.68,1.3,1.68,1.3c.16,.12,.31,.24,.46,.37h.01v-1.7h.42v2.36h-.31Z"/>
                        <path d="M99.12,93.82c.71-.01,1.01-.47,1.01-1,0-.38-.07-.61-.15-.8l.38-.09c.08,.19,.18,.5,.18,.96,0,.89-.59,1.43-1.46,1.43s-1.57-.52-1.57-1.36c0-.95,.83-1.2,1.37-1.2,.11,0,.19,.01,.25,.02v2.04Zm-.38-1.55c-.34,0-.86,.14-.86,.73,0,.53,.49,.77,.86,.81v-1.54Z"/>
                        <path d="M98.48,91.11c-.34,0-.64,0-.91,.02v-.46l.57-.02v-.02c-.39-.13-.64-.45-.64-.8,0-.06,0-.1,.02-.15h.5c-.01,.05-.02,.11-.02,.18,0,.37,.28,.64,.68,.71,.07,.01,.16,.02,.25,.02h1.55v.52h-2Z"/>
                    </g>
                    <g>
                        <path d="M162.26,99.25c-.05-.23-.08-.59-.08-.95,0-.52,.09-.86,.29-1.11,.16-.21,.4-.34,.71-.34,.39,0,.73,.26,.89,.68h.01c.1-.38,.41-.83,1.01-.83,.35,0,.61,.14,.81,.34,.26,.28,.38,.74,.38,1.4,0,.36-.02,.64-.05,.81h-3.98Zm1.66-.52v-.47c0-.55-.29-.88-.68-.88-.47,0-.66,.36-.66,.89,0,.24,.02,.38,.04,.46h1.3Zm1.94,0c.02-.1,.02-.25,.02-.44,0-.54-.2-1.04-.79-1.04-.55,0-.78,.47-.78,1.04v.43h1.54Z"/>
                        <path d="M165.46,93.59c.3,0,.56,0,.79-.02v.47l-.47,.03h0c.23,.15,.54,.46,.54,.97,0,.46-.25,1-1.27,1h-1.7v-.53h1.61c.55,0,.92-.17,.92-.65,0-.35-.25-.6-.48-.7-.08-.03-.17-.05-.27-.05h-1.78v-.53h2.11Z"/>
                        <path d="M162.51,92.08h.83v-.76h.4v.76h1.57c.36,0,.56-.1,.56-.4,0-.14-.02-.24-.04-.31l.4-.02c.04,.1,.07,.26,.07,.47,0,.25-.08,.44-.22,.57-.16,.15-.41,.2-.76,.2h-1.58v.45h-.4v-.45h-.7l-.14-.52Z"/>
                        <path d="M162.51,90.09h.83v-.76h.4v.76h1.57c.36,0,.56-.1,.56-.4,0-.14-.02-.24-.04-.31l.4-.02c.04,.1,.07,.26,.07,.47,0,.25-.08,.44-.22,.57-.16,.15-.41,.2-.76,.2h-1.58v.45h-.4v-.45h-.7l-.14-.52Z"/>
                        <path d="M164.77,86.15c1.07,0,1.54,.74,1.54,1.45,0,.79-.58,1.39-1.49,1.39-.97,0-1.54-.64-1.54-1.44s.61-1.4,1.49-1.4Zm.03,2.3c.64,0,1.12-.37,1.12-.88s-.47-.88-1.13-.88c-.49,0-1.12,.25-1.12,.87s.58,.89,1.13,.89Z"/>
                        <path d="M164.13,85.48c-.3,0-.54,0-.79,.02v-.47l.48-.03h0c-.28-.16-.55-.49-.55-.97,0-.4,.24-1.03,1.24-1.03h1.73v.53h-1.67c-.47,0-.86,.17-.86,.67,0,.35,.25,.62,.54,.71,.07,.02,.16,.04,.25,.04h1.75v.53h-2.12Z"/>
                    </g>
                    <g>
                        <path d="M218.09,92.58l1.06-.82,.45,.3-3.41,2.57-.52-.35,1.13-4.12,.46,.31-.36,1.29,1.19,.81Zm-1.32-.41l-.33,1.18c-.07,.27-.16,.5-.24,.73h0c.19-.16,.38-.32,.58-.48l.98-.75-1.01-.68Z"/>
                        <path d="M215.15,91.6c-.17,.25-.3,.45-.42,.66l-.39-.26,.25-.41h-.01c-.27,.14-.7,.17-1.1-.09-.33-.23-.71-.78-.15-1.6l.97-1.43,.44,.3-.94,1.38c-.26,.39-.34,.81,.07,1.09,.29,.2,.65,.14,.89-.05,.06-.04,.12-.11,.17-.18l.98-1.44,.44,.3-1.19,1.75Z"/>
                        <path d="M210.98,90.73l.47-.69-.63-.43,.23-.33,.63,.43,.88-1.29c.2-.3,.23-.52-.01-.69-.11-.08-.21-.12-.27-.14l.2-.34c.11,.02,.26,.09,.43,.2,.2,.14,.32,.31,.35,.5,.04,.21-.06,.46-.26,.74l-.89,1.31,.37,.25-.23,.33-.37-.25-.39,.57-.5-.18Z"/>
                        <path d="M210.98,87.85c.39-.6,.18-1.1-.26-1.39-.31-.21-.54-.29-.75-.33l.14-.36c.2,.03,.52,.13,.9,.39,.74,.5,.85,1.29,.36,2.01s-1.31,1-2.01,.53c-.78-.53-.52-1.36-.22-1.8,.06-.09,.12-.15,.15-.19l1.69,1.15Zm-1.49-.56c-.19,.27-.37,.79,.12,1.12,.44,.3,.91,.02,1.15-.25l-1.27-.87Z"/>
                        <path d="M208.31,86.96c-.17,.25-.3,.45-.42,.66l-.39-.26,.25-.41h-.01c-.27,.14-.7,.17-1.1-.09-.33-.23-.71-.78-.15-1.6l.97-1.43,.44,.3-.94,1.38c-.26,.39-.34,.81,.07,1.09,.29,.2,.65,.14,.89-.05,.06-.04,.12-.11,.17-.18l.98-1.44,.44,.3-1.19,1.75Z"/>
                        <path d="M205.56,85.08c-.17,.25-.3,.45-.42,.66l-.39-.26,.25-.41h-.01c-.27,.14-.7,.17-1.1-.09-.33-.23-.71-.78-.15-1.6l.97-1.43,.44,.3-.94,1.38c-.26,.39-.34,.81,.07,1.09,.29,.2,.65,.14,.89-.05,.06-.04,.12-.11,.17-.18l.98-1.44,.44,.3-1.19,1.75Z"/>
                        <path d="M202.67,80.56l-.17,.33h.01c.26-.09,.64-.08,.98,.15,.49,.33,.5,.84,.27,1.19-.39,.58-1.13,.55-2.05-.09l-.03,.05c-.13,.2-.32,.59,.17,.93,.22,.15,.5,.24,.75,.25l-.1,.36c-.29,0-.63-.12-.93-.32-.73-.5-.57-1.12-.24-1.6l.61-.9c.14-.21,.27-.42,.35-.6l.4,.27Zm-.77,1.27c.47,.33,1.07,.62,1.38,.15,.19-.28,.09-.54-.13-.7-.31-.21-.64-.15-.85,0-.05,.03-.09,.08-.12,.12l-.28,.42Z"/>
                    </g>
                </g>
            </g>
            <g id="screws">
                <circle class="cls-8" cx="92.88" cy="76.05" r="7.74"/>
                <circle class="cls-8" cx="140.95" cy="76.05" r="7.74"/>
                <circle class="cls-8" cx="92.88" cy="221.06" r="7.74"/>
                <circle class="cls-8" cx="140.95" cy="221.06" r="7.74"/>
            </g>
            <g id="componant">
                <circle cx="226.87" cy="147.35" r="18.66"/>
                <rect x="170.59" y="138.96" width="18.33" height="18.33" transform="translate(157.39 -83.72) rotate(45)"/>
                <rect x="98.44" y="182.52" width="14.75" height="11.8"/>
                <rect class="cls-8" x="213.78" y="205.57" width="20.3" height="20.3" transform="translate(-84.58 176.99) rotate(-36.78)"/>
            </g>
            <g id="on_off">
                <rect class="cls-8" x="183.34" y="236.39" width="17.93" height="8.78" transform="translate(-84.66 105.7) rotate(-25.39)"/>
                <rect x="198.67" y="242.14" width="3.13" height="4.85" transform="translate(-85.52 109.46) rotate(-25.39)"/>
            </g>
            <g id="buzzer">
                <rect class="cls-8" x="104.88" y="86.49" width="23.77" height="23.77"/>
                <rect x="104.88" y="86.49" width="23.77" height="23.77" rx="8" ry="8"/>
            </g>
            <g id="Led">
                <rect class="cls-8" x="62.19" y="141.89" width="13.07" height="13.07"/>
                <circle class="cls-3" cx="68.72" cy="148.43" r="5.09"/>
            </g>
            <g id="button">
                <rect class="cls-8" x="167.18" y="56.8" width="21.74" height="2.89"/>
                <rect class="cls-8" x="167.18" y="66.86" width="21.74" height="2.89"/>
                <g>
                    <path class="cls-8" d="M182.22,69.57h-7.8l-2.74-2.74v-7.8l2.74-2.74h7.8l2.74,2.74v7.8l-2.74,2.74Z"/>
                    <path class="cls-5" d="M182.37,69.92h-8.09l-2.95-2.95v-8.09l2.95-2.95h8.09l2.95,2.95v8.09l-2.95,2.95Zm-7.8-.71h7.51l2.53-2.53v-7.51l-2.53-2.53h-7.51l-2.53,2.53v7.51l2.53,2.53Z"/>
                </g>
                <circle class="cls-4" cx="178.32" cy="62.93" r="3.88"/>
            </g>
            <g id="motor_wires">
                <g id="motor_wires-2">
                    <g>
                        <rect class="cls-8" x="66.1" y="185.78" width="2.83" height="17.09" rx="1.42" ry="1.42" transform="translate(157.18 9.18) rotate(45)"/>
                        <rect class="cls-8" x="70.18" y="189.86" width="2.83" height="17.09" rx="1.42" ry="1.42" transform="translate(161.27 7.48) rotate(45)"/>
                        <path class="cls-3" d="M88.25,193.11l-2.43-2.43c-.5-.5-.34-1.34,.31-1.62l1.35-.59c.66-.28,.81-1.15,.29-1.64l-8.83-8.44c-.55-.53-1.47-.27-1.66,.47l-.24,.92c-.19,.75-1.13,1-1.67,.46l-1.42-1.42c-.39-.39-1.02-.39-1.41,0l-2.02,2.02h0l-11.38,11.38c-.39,.39-.39,1.02,0,1.41l.59,.59c.39,.39,1.02,.39,1.41,0l1.31-1.31c.39-.39,1.02-.39,1.41,0l10.33,10.33c.39,.39,.39,1.02,0,1.41l-1.31,1.31c-.39,.39-.39,1.02,0,1.41l.59,.59c.39,.39,1.02,.39,1.41,0l11.38-11.38-.04-.04,2.02-2.02c.39-.39,.39-1.02,0-1.41Z"/>
                    </g>
                    <g>
                        <rect class="cls-8" x="70.41" y="89.17" width="2.83" height="17.09" rx="1.42" ry="1.42" transform="translate(191.71 116.02) rotate(135)"/>
                        <rect class="cls-8" x="66.32" y="93.26" width="2.83" height="17.09" rx="1.42" ry="1.42" transform="translate(187.62 125.89) rotate(135)"/>
                        <path class="cls-3" d="M73.04,118.45l2.43-2.43c.5-.5,1.34-.34,1.62,.31l.59,1.35c.28,.66,1.15,.81,1.64,.29l8.44-8.83c.53-.55,.27-1.47-.47-1.66l-.92-.24c-.75-.19-1-1.13-.46-1.67l1.42-1.42c.39-.39,.39-1.02,0-1.41l-2.02-2.02h0l-11.38-11.38c-.39-.39-1.02-.39-1.41,0l-.59,.59c-.39,.39-.39,1.02,0,1.41l1.31,1.31c.39,.39,.39,1.02,0,1.41l-10.33,10.33c-.39,.39-1.02,.39-1.41,0l-1.31-1.31c-.39-.39-1.02-.39-1.41,0l-.59,.59c-.39,.39-.39,1.02,0,1.41l11.38,11.38,.04-.04,2.02,2.02c.39,.39,1.02,.39,1.41,0Z"/>
                    </g>
                </g>
                <g id="wires">
                    <path d="M94.76,153.13l-2.42-1.47c2.02-3.32,.09-9.41-1.32-13.87-.33-1.05-.64-2.03-.88-2.9-2.62-9.51-7.33-15.31-9.9-17.92l2.02-1.99c3.37,3.43,7.95,9.54,10.61,19.16,.23,.84,.53,1.79,.85,2.8,1.66,5.25,3.73,11.78,1.04,16.19Z"/>
                    <path class="cls-7" d="M97.78,153.06l-2.83-.08c.54-19.07-5.28-34.12-10.91-40.03l2.05-1.96c6.23,6.53,12.26,22.07,11.7,42.06Z"/>
                    <path class="cls-7" d="M82.4,181.4l-2.32-1.63c.06-.09,6.34-8.97,12.93-17.79,13.67-18.29,15.31-18.51,16.29-18.64,3.57-.49,9.2,9.92,13.33,18.72l-2.57,1.2c-3.59-7.67-8.53-16.17-10.39-17.06-2.74,1.73-15.86,19.04-27.28,35.2Zm27.13-35.25h0s0,0,0,0Z"/>
                    <path d="M86.8,185.09l-2.67-.96c.07-.18,6.62-18.3,9.52-25.7,2.65-6.76,9.46-14.34,11.91-14.91,.6-.14,1.18,0,1.59,.37,1.24,1.13,1.69,6.1,1.75,7.75,.1,2.79-.17,6.53-2.06,8.51l-2.05-1.95c1.94-2.04,1.32-8.73,.65-11.41-2.14,1.72-6.98,7.17-9.14,12.67-2.89,7.37-9.43,25.45-9.5,25.63Z"/>
                </g>
            </g>
        </g>
    </g>
</svg>