<?xml version="1.0" encoding="UTF-8"?><svg id="Calque_2" xmlns="http://www.w3.org/2000/svg" viewBox="0 0 480.25 211.64"><defs><style>.cls-1,.cls-2{fill:#00204c;}.cls-3{fill:#001839;}.cls-4{fill:#333;}.cls-5{fill:#334d70;}.cls-6{fill:#ccd2db;}.cls-7{fill:#070b0a;}.cls-2,.cls-8{stroke:#334d70;}.cls-2,.cls-8,.cls-9{stroke-miterlimit:10;}.cls-8{fill:none;}.cls-9{fill:#424242;stroke:#fff;stroke-width:.71px;}</style></defs><g id="Calque_1-2"><g id="renault_scenic"><g id="wheels"><rect x="34.67" y="0" width="92.34" height="32.08" rx="16.04" ry="16.04"/><rect x="345.5" y="0" width="92.34" height="32.08" rx="16.04" ry="16.04"/><rect x="34.67" y="179.57" width="92.34" height="32.08" rx="16.04" ry="16.04"/><rect x="345.5" y="179.57" width="92.34" height="32.08" rx="16.04" ry="16.04"/></g><g id="body"><path id="body-2" class="cls-3" d="m93.91,2.9c12.48-.03,24.34-.58,36.14.84,27.37,3.29,54.81.98,82.22.98,28.59,0,57.17-.17,85.76-.24,12.21-.03,24.44-.31,36.63.15,6.64.25,12.65-2.38,19.15-2.67,17.47-.76,34.93-.31,52.39-.05,6.49.1,12.98.48,19.46.32,6.25-.16,11.64,2.35,17.18,4.55.34.13.69.35.92.62,8.91,10.37,19.84,19.02,26.68,31.16.86,1.53,1.46,3.14,2.01,4.81,7.19,22,7.89,44.77,7.79,67.56-.06,12.57-.69,25.17-2.71,37.63-2.69,16.65-9.19,31.36-21.9,42.97-3.76,3.44-6.96,7.58-10.74,10.91-4.03,3.56-9.24,5.81-14.95,5.96-9.48.25-18.96.53-28.44.73-12.23.26-24.45.53-36.68.63-7.1.06-14.12-.5-21.14-2.06-8.08-1.79-16.44-.9-24.64-.58-8.72.33-17.44.27-26.15.29-46.31.1-92.62.05-138.93-.04-8.25-.02-16.39,1.08-24.57,1.65-25.28,1.78-50.63,1.65-75.92-.1-10.56-.73-20.82-4.14-29-10.94-5.85-4.85-10.14-11.55-14.1-18.19-6.26-10.51-7.54-22.33-8.69-34.13C-.16,126.78-.25,107.82.29,88.87c.4-13.81.96-27.64,4.2-41.2,2.17-9.07,7.05-16.58,12.33-24.11C27,9.04,42.07,5.35,58.26,3.73c12.08-1.21,24.19-.58,35.65-.84Z"/><path id="body_top" class="cls-1" d="m462.78,51.49c-.53-1.47-1.12-2.89-1.95-4.23-6.66-10.67-17.29-18.28-25.97-27.4-.23-.24-.57-.43-.9-.54-5.39-1.94-10.64-4.14-16.72-4-6.31.15-12.62-.19-18.94-.28-17-.23-33.99-.63-51,.04-6.33.25-12.18,2.56-18.64,2.34-11.87-.41-23.77-.16-35.65-.13-27.82.06-55.65.21-83.47.21-26.68,0-53.38,2.03-80.03-.86-11.48-1.25-23.03-.76-35.18-.74-11.15.23-22.95-.33-34.7.73-15.76,1.43-34.4,4.67-44.32,17.44-5.14,6.61-6.91,13.22-9.02,21.2-3.15,11.92-2.71,24.08-3.09,36.22-.53,16.65-.44,33.33,1.35,49.94,1.12,10.37.38,20.77,6.47,30.01,3.85,5.84,7.15,11.73,12.84,16,7.97,5.97,20.81,8.97,31.1,9.62,24.61,1.54,49.28,1.66,73.89.09,7.97-.51,15.89-1.47,23.92-1.45,45.08.08,90.15.12,135.23.03,8.48-.02,16.96.04,25.45-.25,7.98-.28,16.12-1.06,23.98.51,6.83,1.37,13.67,1.86,20.58,1.81,11.9-.09,23.8-.33,35.7-.55,9.23-.17,18.45-.42,27.68-.64,5.56-.13,10.62-2.11,14.55-5.24,3.68-2.93,6.79-6.57,10.45-9.59,12.37-10.21,18.7-23.15,21.32-37.78,1.96-10.95,2.58-22.03,2.63-33.08.1-20.04-.58-40.06-7.58-59.4Zm-19,105.55c0,4.16-1.95,9.08-5.28,11.58-6.43,4.83-16.95,12.45-21.2,13.94-6.3,2.21-23.64,3.78-34.98,5.04-11.35,1.26-49.48,2.52-49.48,2.52,7.84,5.62-255.71-3.09-269.58-3.82-13.87-.73-34.21-1.65-33.75-3.97.46-2.31,32.83-5.55,28.2-9.71-4.62-4.16-12.02-7.86-12.02-7.86,0,0-6.68-21.35-6.68-58.83h.17c.07-37.14,6.68-58.28,6.68-58.28,0,0,7.4-3.7,12.02-7.86s-27.74-7.4-28.2-9.71c-.46-2.31,19.88-3.24,33.75-3.97s277.42-9.44,269.58-3.82c0,0,38.13,1.26,49.48,2.52,11.35,1.26,28.68,2.84,34.98,5.04,4.24,1.48,14.77,9.11,21.2,13.94,3.33,2.5,5.28,6.42,5.28,10.58l-.16,102.68Z"/></g><g id="driving_beam"><path id="driving_beam_left" class="cls-6" d="m438.41,15.65c-.55,0-.78.7-.34,1.02,5.23,3.83,23.41,17.2,25.31,19.65s-13.74-15.32-17.6-19.71c-.54-.61-1.31-.96-2.13-.96h-5.25Z"/><path id="driving_beam_right" class="cls-6" d="m438.41,196.75c-.55,0-.78-.7-.34-1.02,5.23-3.83,23.41-17.2,25.31-19.65s-13.74,15.32-17.6,19.71c-.54.61-1.31.96-2.13.96h-5.25Z"/></g><g id="mirrors"><path class="cls-7" d="m307.19,207.05l8.25-18.41s9.43.44,12.06,1.48-11.43,16.93-11.43,16.93h-8.89Z"/><path class="cls-7" d="m307.35,5.36l8.25,18.41s9.43-.44,12.06-1.48-11.43-16.93-11.43-16.93h-8.89Z"/></g><path id="windscreen" class="cls-4" d="m363.1,158.6c4.1-8.19,3.99-97.14.16-104.79-4.1-8.19-14.18-25.14-20.17-27.7-5.99-2.56-10.09-3.82-10.09-3.82-4.92,3.53-34.68,10.81-59.09,15.96h0c10.88,33.65,9.92,104.7-.16,135.91h0c24.41,5.15,54.17,12.43,59.09,15.96,0,0,4.1-1.26,10.09-3.82,5.99-2.56,16.07-19.5,20.17-27.7Z"/><g id="hood"><path id="hood-2" class="cls-5" d="m438.67,43.79c-6.43-4.83-16.95-12.45-21.2-13.94-6.3-2.21-23.64-3.78-34.98-5.04-11.35-1.26-49.48-2.52-49.48-2.52,0,0,4.1,1.26,10.09,3.82,5.99,2.56,16.07,19.5,20.17,27.7,3.83,7.66,3.93,96.6-.16,104.79-4.1,8.19-14.18,25.14-20.17,27.7-5.99,2.56-10.09,3.82-10.09,3.82,0,0,38.13-1.26,49.48-2.52,11.35-1.26,28.68-2.84,34.98-5.04,4.24-1.48,14.77-9.11,21.2-13.94,3.33-2.5,5.28-7.42,5.28-11.58l.16-102.68c0-4.16-1.95-8.08-5.28-10.58Z"/><g id="hood_reflexion"><path id="hood_reflexion-2" class="cls-1" d="m443.78,150.08s-68.18,11.39-80.68,8.52c0,0,30.12,12.79,35,12.79s43.85-6.63,43.85-6.63c0,0,2.64-3.23,1.83-14.68Z"/><path id="hood_reflexion-3" class="cls-1" d="m443.95,62.33s-68.18-11.39-80.68-8.52c0,0,30.12-12.79,35-12.79s43.85,6.63,43.85,6.63c0,0,2.61,1.73,1.83,14.68Z"/></g></g><g id="roof"><path id="roof-2" class="cls-2" d="m273.75,174.16h0c10.09-31.21,11.04-102.26.16-135.91h0c-14.45,3.05-27.03,5.36-31.46,5.7-11.93.92-196.6,3.7-196.6,3.7,0,0-6.62,21.14-6.68,58.28h-.17c0,37.49,6.68,58.83,6.68,58.83,0,0,184.67,2.77,196.6,3.7,4.44.34,17.01,2.65,31.46,5.7Z"/><line id="roof_ligne" class="cls-8" x1="76.2" y1="47.65" x2="76.2" y2="165.23"/></g><g id="windows"><path id="windows_left" class="cls-9" d="m273.92,38.25c24.41-5.15,54.17-12.43,59.09-15.96,7.84-5.62-255.71,3.09-269.58,3.82s-34.21,1.65-33.75,3.97c.46,2.31,32.83,5.55,28.2,9.71s-12.02,7.86-12.02,7.86l196.6-3.7,31.46-5.7Z"/><path id="windows_right" class="cls-9" d="m242.29,168.46l-196.6-3.7s7.4,3.7,12.02,7.86c4.62,4.16-27.74,7.4-28.2,9.71-.46,2.31,19.88,3.24,33.75,3.97,13.87.73,277.42,9.44,269.58,3.82-4.92-3.53-34.68-10.81-59.09-15.96l-31.46-5.7Z"/></g></g></g></svg>