<svg xmlns="http://www.w3.org/2000/svg" transform="rotate(90)" xmlns:xlink="http://www.w3.org/1999/xlink" viewBox="0 0 206.08 259.89" width="206.08" height="259.89"><defs><style>.cls-1,.cls-17{fill:none;}.cls-2{fill:#484848;}.cls-3{fill:#333;}.cls-4{clip-path:url(#clip-path);}.cls-5{clip-path:url(#clip-path-2);}.cls-6{clip-path:url(#clip-path-3);}.cls-7{clip-path:url(#clip-path-4);}.cls-8{fill:gray;}.cls-9{fill:#64c3dd;}.cls-10{fill:#e3c455;}.cls-11{fill:#0e1f38;}.cls-12{fill:#132a4e;}.cls-13{fill:#ccc;}.cls-14{fill:#e6e6e6;}.cls-15{clip-path:url(#clip-path-5);}.cls-16{clip-path:url(#clip-path-6);}.cls-17{stroke:#000;stroke-miterlimit:10;}.cls-18{clip-path:url(#clip-path-7);}.cls-19{clip-path:url(#clip-path-8);}.cls-20{clip-path:url(#clip-path-9);}.cls-21{clip-path:url(#clip-path-10);}.cls-22{fill:#fff;}.cls-23{clip-path:url(#clip-path-11);}.cls-24{clip-path:url(#clip-path-12);}.cls-25{clip-path:url(#clip-path-13);}.cls-26{fill:#e6c752;}.cls-27{fill:#6cc6e0;}</style><clipPath id="clip-path"><rect class="cls-1" x="4.89" y="127.9" width="9.25" height="86.82"/></clipPath><clipPath id="clip-path-2"><rect class="cls-1" x="11.27" y="133.05" width="9.25" height="77.37"/></clipPath><clipPath id="clip-path-3"><rect class="cls-1" x="191.94" y="128.45" width="9.25" height="86.82"/></clipPath><clipPath id="clip-path-4"><rect class="cls-1" x="185.55" y="133.61" width="9.25" height="77.37"/></clipPath><clipPath id="clip-path-5"><ellipse class="cls-1" cx="78.81" cy="26.79" rx="14.78" ry="3.5"/></clipPath><clipPath id="clip-path-6"><rect class="cls-1" x="64.01" y="23.31" width="29.6" height="7.14"/></clipPath><clipPath id="clip-path-7"><rect class="cls-1" x="64.01" y="23.31" width="30.21" height="7"/></clipPath><clipPath id="clip-path-8"><ellipse class="cls-1" cx="126.72" cy="26.79" rx="14.78" ry="3.5"/></clipPath><clipPath id="clip-path-9"><rect class="cls-1" x="111.91" y="23.31" width="29.6" height="7.14"/></clipPath><clipPath id="clip-path-10"><rect class="cls-1" x="111.91" y="23.31" width="30.21" height="7"/></clipPath><clipPath id="clip-path-11"><rect class="cls-1" x="72.26" y="77.34" width="60.92" height="34.61"/></clipPath><clipPath id="clip-path-12"><rect class="cls-1" x="133.51" y="57.05" width="12" height="8.66"/></clipPath><clipPath id="clip-path-13"><rect class="cls-1" x="136.74" y="67.08" width="8.7" height="1.82"/></clipPath></defs><g id="Calque_2" data-name="Calque 2"><g id="Calque_1-2" data-name="Calque 1"><g id="mbot"><g id="roues"><g id="roue"><g id="roues-2" data-name="roues"><g id="roue-2" data-name="roue"><path class="cls-2" d="M33.06,168.87c0-22.49,1.14-44.1,2.75-44.46a6.56,6.56,0,0,0-6.48-6H13.59c-5.08,0-8.58,5-10.34,10.46C1.91,131.65,0,147.63,0,168.27A285.5,285.5,0,0,0,2,204c.66,8.1,5.13,15.31,11.64,15.31H29.33a6.66,6.66,0,0,0,6.48-6.08C34.22,213.11,33.06,191.36,33.06,168.87Z"/><ellipse class="cls-3" cx="31.94" cy="168.25" rx="8.17" ry="42.49"/></g></g><path class="cls-3" d="M21.42,219.3a5.08,5.08,0,0,1-2.81-.54,6.46,6.46,0,0,1-2.2-2.29,23.33,23.33,0,0,1-2.39-6.4,97.8,97.8,0,0,1-2-13.74c-.77-9.24-.93-18.51-1-27.76s.18-18.51.88-27.76A103,103,0,0,1,13.8,127a20.28,20.28,0,0,1,2.39-6.41,4.84,4.84,0,0,1,2.39-2,7.59,7.59,0,0,1,2.84-.19,7.6,7.6,0,0,0-2.76.52,4.65,4.65,0,0,0-2.08,2,20.17,20.17,0,0,0-1.9,6.31c-.39,2.22-.64,4.5-.82,6.78s-.35,4.56-.45,6.86c-.19,4.59-.33,9.19-.38,13.79s-.1,9.22-.08,13.83,0,9.21.09,13.82.22,9.2.45,13.78a113.63,113.63,0,0,0,1.41,13.62,23.76,23.76,0,0,0,1.91,6.33,6.44,6.44,0,0,0,1.93,2.33A5.17,5.17,0,0,0,21.42,219.3Z"/><g class="cls-4"><path class="cls-3" d="M4.88,137.56c1.14-1.75,2.34-3.45,3.55-5.14a13,13,0,0,1,4.32-4.51l.11.09a13,13,0,0,1-3.55,5.13c-1.42,1.53-2.84,3.05-4.32,4.52l-.11-.09Z"/><path class="cls-3" d="M4.88,147.36c1.14-1.74,2.34-3.44,3.55-5.14a13.12,13.12,0,0,1,4.32-4.51l.11.09a13,13,0,0,1-3.55,5.14c-1.42,1.53-2.84,3-4.32,4.51l-.11-.09Z"/><path class="cls-3" d="M4.88,157.17C6,155.42,7.22,153.72,8.43,152a13,13,0,0,1,4.32-4.51l.11.09a13.07,13.07,0,0,1-3.55,5.14c-1.42,1.52-2.84,3-4.32,4.51l-.11-.09Z"/><path class="cls-3" d="M4.88,167c1.14-1.75,2.34-3.45,3.55-5.14a13,13,0,0,1,4.32-4.51l.11.09a13,13,0,0,1-3.55,5.13c-1.42,1.53-2.84,3-4.32,4.52L4.88,167Z"/><path class="cls-3" d="M4.88,176.78C6,175,7.22,173.34,8.43,171.64a13.12,13.12,0,0,1,4.32-4.51l.11.09a13,13,0,0,1-3.55,5.14c-1.42,1.53-2.84,3-4.32,4.51l-.11-.09Z"/><path class="cls-3" d="M4.88,186.59c1.14-1.75,2.34-3.45,3.55-5.14a13,13,0,0,1,4.32-4.51l.11.09a13.07,13.07,0,0,1-3.55,5.14c-1.42,1.52-2.84,3-4.32,4.51l-.11-.09Z"/><path class="cls-3" d="M4.88,196.4C6,194.65,7.22,193,8.43,191.26a13,13,0,0,1,4.32-4.51l.11.09A13.14,13.14,0,0,1,9.31,192c-1.42,1.52-2.84,3-4.32,4.51l-.11-.09Z"/><path class="cls-3" d="M4.88,206.2c1.14-1.74,2.34-3.44,3.55-5.13a13.07,13.07,0,0,1,4.32-4.52l.11.09a13,13,0,0,1-3.55,5.14c-1.42,1.53-2.84,3-4.32,4.51l-.11-.09Z"/><path class="cls-3" d="M4.88,216c1.14-1.75,2.34-3.45,3.55-5.14a13,13,0,0,1,4.32-4.51l.11.09a13.07,13.07,0,0,1-3.55,5.14c-1.42,1.52-2.84,3-4.32,4.51L4.88,216Z"/></g><g class="cls-5"><path class="cls-3" d="M20.43,211.62c-1.48-1.48-2.91-3-4.32-4.52A13,13,0,0,1,12.56,202l.11-.08A13,13,0,0,1,17,206.39c1.2,1.69,2.4,3.39,3.55,5.14l-.11.09Z"/><path class="cls-3" d="M20.43,201.81c-1.48-1.47-2.91-3-4.32-4.51a13.14,13.14,0,0,1-3.55-5.14l.11-.09A13,13,0,0,1,17,196.58c1.2,1.69,2.4,3.39,3.55,5.14l-.11.09Z"/><path class="cls-3" d="M20.43,192c-1.48-1.47-2.91-3-4.32-4.51a13.07,13.07,0,0,1-3.55-5.14l.11-.09A13.13,13.13,0,0,1,17,186.77c1.2,1.7,2.4,3.4,3.55,5.14l-.11.09Z"/><path class="cls-3" d="M20.43,182.2c-1.48-1.48-2.91-3-4.32-4.52a13,13,0,0,1-3.55-5.14l.11-.09A13.16,13.16,0,0,1,17,177c1.2,1.69,2.4,3.39,3.55,5.14l-.11.09Z"/><path class="cls-3" d="M20.43,172.39c-1.48-1.47-2.91-3-4.32-4.51a13.14,13.14,0,0,1-3.55-5.14l.11-.09A13,13,0,0,1,17,167.16c1.2,1.69,2.4,3.39,3.55,5.14l-.11.09Z"/><path class="cls-3" d="M20.43,162.58c-1.48-1.47-2.91-3-4.32-4.51a13.07,13.07,0,0,1-3.55-5.14l.11-.09A13.13,13.13,0,0,1,17,157.35c1.2,1.7,2.4,3.4,3.55,5.14l-.11.09Z"/><path class="cls-3" d="M20.43,152.77c-1.48-1.47-2.91-3-4.32-4.51a13,13,0,0,1-3.55-5.14l.11-.09A13.16,13.16,0,0,1,17,147.55c1.2,1.69,2.4,3.39,3.55,5.14l-.11.08Z"/><path class="cls-3" d="M20.43,143c-1.48-1.47-2.91-3-4.32-4.51a13.14,13.14,0,0,1-3.55-5.14l.11-.09A13,13,0,0,1,17,137.74c1.2,1.69,2.4,3.39,3.55,5.14l-.11.09Z"/><path class="cls-3" d="M20.43,133.16c-1.48-1.47-2.91-3-4.32-4.51a13.07,13.07,0,0,1-3.55-5.14l.11-.09A13.13,13.13,0,0,1,17,127.93c1.2,1.7,2.4,3.4,3.55,5.14l-.11.09Z"/></g></g><g id="roue-3" data-name="roue"><g id="roues-3" data-name="roues"><g id="roue-4" data-name="roue"><path class="cls-2" d="M173,169.42c0-22.49-1.13-44.1-2.74-44.46a6.56,6.56,0,0,1,6.48-6h15.73c5.09,0,8.59,5,10.35,10.47,1.34,2.74,3.25,18.73,3.25,39.37a287.29,287.29,0,0,1-2,35.71c-.67,8.1-5.14,15.31-11.65,15.31H176.75a6.66,6.66,0,0,1-6.48-6.08C171.85,213.66,173,191.91,173,169.42Z"/><ellipse class="cls-3" cx="174.14" cy="168.8" rx="8.17" ry="42.49"/></g></g><path class="cls-3" d="M184.66,219.85a5,5,0,0,0,2.8-.54,6.4,6.4,0,0,0,2.21-2.29,24,24,0,0,0,2.39-6.39,99.44,99.44,0,0,0,2-13.75c.77-9.24.93-18.51,1-27.76s-.17-18.51-.88-27.75a101.34,101.34,0,0,0-1.83-13.78,20.38,20.38,0,0,0-2.39-6.4,4.83,4.83,0,0,0-2.39-2,7.61,7.61,0,0,0-2.84-.2,7.76,7.76,0,0,1,2.75.52,4.72,4.72,0,0,1,2.09,2,20.33,20.33,0,0,1,1.9,6.31c.38,2.23.63,4.5.82,6.78s.34,4.57.44,6.86c.2,4.59.34,9.19.38,13.8s.1,9.21.09,13.82,0,9.22-.1,13.82-.22,9.2-.44,13.79a113.68,113.68,0,0,1-1.42,13.61,23.23,23.23,0,0,1-1.91,6.34,6.31,6.31,0,0,1-1.93,2.32A5.11,5.11,0,0,1,184.66,219.85Z"/><g class="cls-6"><path class="cls-3" d="M201.09,216.65c-1.48-1.47-2.9-3-4.32-4.51a13.07,13.07,0,0,1-3.55-5.14l.11-.09a13.22,13.22,0,0,1,4.32,4.51c1.21,1.7,2.41,3.4,3.55,5.14l-.11.09Z"/><path class="cls-3" d="M201.09,206.85c-1.48-1.47-2.9-3-4.32-4.52a13,13,0,0,1-3.55-5.13l.11-.09a13,13,0,0,1,4.32,4.51c1.21,1.69,2.41,3.39,3.55,5.14l-.11.09Z"/><path class="cls-3" d="M201.09,197c-1.48-1.47-2.9-3-4.32-4.51a13.14,13.14,0,0,1-3.55-5.14l.11-.09a13,13,0,0,1,4.32,4.51c1.21,1.69,2.41,3.39,3.55,5.14l-.11.09Z"/><path class="cls-3" d="M201.09,187.23c-1.48-1.47-2.9-3-4.32-4.51a13.07,13.07,0,0,1-3.55-5.14l.11-.09a13.22,13.22,0,0,1,4.32,4.51c1.21,1.7,2.41,3.4,3.55,5.14l-.11.09Z"/><path class="cls-3" d="M201.09,177.43c-1.48-1.47-2.9-3-4.32-4.52a13,13,0,0,1-3.55-5.13l.11-.09a13,13,0,0,1,4.32,4.51c1.21,1.69,2.41,3.39,3.55,5.14l-.11.09Z"/><path class="cls-3" d="M201.09,167.62c-1.48-1.47-2.9-3-4.32-4.51a13.14,13.14,0,0,1-3.55-5.14l.11-.09a13,13,0,0,1,4.32,4.51c1.21,1.69,2.41,3.39,3.55,5.14l-.11.09Z"/><path class="cls-3" d="M201.09,157.81c-1.48-1.47-2.9-3-4.32-4.51a13.07,13.07,0,0,1-3.55-5.14l.11-.09a13.22,13.22,0,0,1,4.32,4.51c1.21,1.7,2.41,3.4,3.55,5.14l-.11.09Z"/><path class="cls-3" d="M201.09,148c-1.48-1.47-2.9-3-4.32-4.52a13,13,0,0,1-3.55-5.13l.11-.09a13,13,0,0,1,4.32,4.51c1.21,1.69,2.41,3.39,3.55,5.14l-.11.09Z"/><path class="cls-3" d="M201.09,138.2c-1.48-1.47-2.9-3-4.32-4.51a13.14,13.14,0,0,1-3.55-5.14l.11-.09a13,13,0,0,1,4.32,4.51c1.21,1.69,2.41,3.39,3.55,5.14l-.11.09Z"/></g><g class="cls-7"><path class="cls-3" d="M185.54,133.62c1.14-1.74,2.34-3.44,3.55-5.13a13.16,13.16,0,0,1,4.32-4.52l.11.09A13,13,0,0,1,190,129.2c-1.42,1.53-2.84,3-4.32,4.51l-.11-.09Z"/><path class="cls-3" d="M185.54,143.43c1.14-1.74,2.34-3.44,3.55-5.14a13,13,0,0,1,4.32-4.51l.11.09A13.07,13.07,0,0,1,190,139c-1.42,1.52-2.84,3-4.32,4.51l-.11-.09Z"/><path class="cls-3" d="M185.54,153.24c1.14-1.75,2.34-3.45,3.55-5.14a13,13,0,0,1,4.32-4.51l.11.09a13.14,13.14,0,0,1-3.55,5.14c-1.42,1.52-2.84,3-4.32,4.51l-.11-.09Z"/><path class="cls-3" d="M185.54,163c1.14-1.74,2.34-3.44,3.55-5.13a13.16,13.16,0,0,1,4.32-4.52l.11.09a13,13,0,0,1-3.55,5.14c-1.42,1.53-2.84,3-4.32,4.51l-.11-.09Z"/><path class="cls-3" d="M185.54,172.85c1.14-1.74,2.34-3.44,3.55-5.14a13,13,0,0,1,4.32-4.51l.11.09a13.07,13.07,0,0,1-3.55,5.14c-1.42,1.52-2.84,3-4.32,4.51l-.11-.09Z"/><path class="cls-3" d="M185.54,182.66c1.14-1.75,2.34-3.45,3.55-5.14a13,13,0,0,1,4.32-4.51l.11.09a13.14,13.14,0,0,1-3.55,5.14c-1.42,1.52-2.84,3-4.32,4.51l-.11-.09Z"/><path class="cls-3" d="M185.54,192.46c1.14-1.74,2.34-3.44,3.55-5.13a13.16,13.16,0,0,1,4.32-4.52l.11.09A13,13,0,0,1,190,188c-1.42,1.53-2.84,3-4.32,4.51l-.11-.09Z"/><path class="cls-3" d="M185.54,202.27c1.14-1.74,2.34-3.44,3.55-5.14a13,13,0,0,1,4.32-4.51l.11.09a13.07,13.07,0,0,1-3.55,5.14c-1.42,1.52-2.84,3-4.32,4.51l-.11-.09Z"/><path class="cls-3" d="M185.54,212.08c1.14-1.75,2.34-3.45,3.55-5.14a13,13,0,0,1,4.32-4.51l.11.09a13.14,13.14,0,0,1-3.55,5.14c-1.42,1.52-2.84,3-4.32,4.51l-.11-.09Z"/></g></g><rect class="cls-8" x="23.77" y="161.1" width="7.65" height="15.45"/><rect class="cls-8" x="172.08" y="161.1" width="10.23" height="15.45"/></g><path id="socle" class="cls-9" d="M170.49,0a1.94,1.94,0,0,0-1.57,2V41.42a.05.05,0,0,1,0,0h-2.3a.06.06,0,0,1-.06,0h0a5.1,5.1,0,0,0-5.1-5.1H42.4a5.11,5.11,0,0,0-5.1,5.1h0a0,0,0,0,1,0,0H35.14a0,0,0,0,1,0,0V2a1.94,1.94,0,0,0-1.57-2,1.83,1.83,0,0,0-2.1,1.81v227h0l1.83,29.26a1.84,1.84,0,0,0,3.67,0L35.09,228.8h0V210.14a0,0,0,0,1,0,0h2.11a0,0,0,0,1,0,0v.93a5.1,5.1,0,0,0,5.1,5.09h119a5.09,5.09,0,0,0,5.1-5.09v-.93a.06.06,0,0,1,.06,0h2.3a.05.05,0,0,1,0,0v18.65h0l-1.84,29.26a1.84,1.84,0,0,0,3.67,0l1.84-29.26h0V1.83A1.83,1.83,0,0,0,170.49,0Z"/><rect class="cls-10" x="92.98" y="38.41" width="17.89" height="17.89" rx="1.4"/><path class="cls-3" d="M109.47,38.41a1.4,1.4,0,0,1,1.4,1.41V54.9a1.4,1.4,0,0,1-1.4,1.41H94.38A1.41,1.41,0,0,1,93,54.9V39.82a1.41,1.41,0,0,1,1.4-1.41h15.09m0-2.83H94.38a4.24,4.24,0,0,0-4.23,4.24V54.9a4.24,4.24,0,0,0,4.23,4.24h15.09a4.24,4.24,0,0,0,4.24-4.24V39.82a4.24,4.24,0,0,0-4.24-4.24Z"/><g id="capteur_ultrason" data-name="capteur ultrason"><path class="cls-11" d="M102.45,33.44H58.9a1,1,0,0,0-.95.69l-2,5.95c-.21.65-.53,2.65,1.62,2.65h90.8c2.08,0,1.48-2,1.27-2.65l-2.67-5.95a1,1,0,0,0-1-.69Zm-41.63,1c-.83,0-1.5-.16-1.5-.36s.67-.35,1.5-.35,1.49.16,1.49.35S61.64,34.47,60.82,34.47Zm83.24,0c-.82,0-1.49-.16-1.49-.36s.67-.35,1.49-.35,1.5.16,1.5.35S144.89,34.47,144.06,34.47Z"/><path class="cls-12" d="M102.77,32.1H59.22a1,1,0,0,0-.95.69l-2.35,7.29a1,1,0,0,0,.95,1.31h91.79a1,1,0,0,0,1-1.31l-2.35-7.29a1,1,0,0,0-.95-.69Zm-41.63,1c-.82,0-1.49-.16-1.49-.35s.67-.35,1.49-.35,1.5.15,1.5.35S62,33.12,61.14,33.12Zm83.25,0c-.83,0-1.5-.16-1.5-.35s.67-.35,1.5-.35,1.49.15,1.49.35S145.21,33.12,144.39,33.12Z"/><rect class="cls-13" x="92.41" y="32.51" width="20.06" height="1.87" rx="0.94"/><path class="cls-14" d="M94.66,26.79v10c0,2.07-7.11,3.75-15.85,3.75S63,38.86,63,36.79v-10"/><g id="yeux"><ellipse class="cls-13" cx="78.81" cy="26.81" rx="14.78" ry="3.5"/><g class="cls-15"><g class="cls-16"><line class="cls-17" x1="64.2" y1="23.31" x2="64.2" y2="30.3"/><line class="cls-17" x1="65.77" y1="23.31" x2="65.77" y2="30.3"/><line class="cls-17" x1="67.34" y1="23.31" x2="67.34" y2="30.3"/><line class="cls-17" x1="68.91" y1="23.31" x2="68.91" y2="30.3"/><line class="cls-17" x1="70.47" y1="23.31" x2="70.47" y2="30.3"/><line class="cls-17" x1="72.04" y1="23.31" x2="72.04" y2="30.3"/><line class="cls-17" x1="73.61" y1="23.31" x2="73.61" y2="30.3"/><line class="cls-17" x1="75.18" y1="23.31" x2="75.18" y2="30.3"/><line class="cls-17" x1="76.75" y1="23.31" x2="76.75" y2="30.3"/><line class="cls-17" x1="78.32" y1="23.31" x2="78.32" y2="30.3"/><line class="cls-17" x1="79.89" y1="23.31" x2="79.89" y2="30.3"/><line class="cls-17" x1="81.46" y1="23.31" x2="81.46" y2="30.3"/><line class="cls-17" x1="83.02" y1="23.31" x2="83.02" y2="30.3"/><line class="cls-17" x1="84.59" y1="23.31" x2="84.59" y2="30.3"/><line class="cls-17" x1="86.16" y1="23.31" x2="86.16" y2="30.3"/><line class="cls-17" x1="87.73" y1="23.31" x2="87.73" y2="30.3"/><line class="cls-17" x1="89.3" y1="23.31" x2="89.3" y2="30.3"/><line class="cls-17" x1="90.87" y1="23.31" x2="90.87" y2="30.3"/><line class="cls-17" x1="92.44" y1="23.31" x2="92.44" y2="30.3"/><line class="cls-17" x1="94.01" y1="23.31" x2="94.01" y2="30.3"/></g><g class="cls-18"><line class="cls-17" x1="64.01" y1="30.26" x2="93.57" y2="30.26"/><line class="cls-17" x1="64.01" y1="29.13" x2="93.57" y2="29.13"/><line class="cls-17" x1="64.01" y1="27.99" x2="93.57" y2="27.99"/><line class="cls-17" x1="64.01" y1="26.86" x2="93.57" y2="26.86"/><line class="cls-17" x1="64.01" y1="25.73" x2="93.57" y2="25.73"/><line class="cls-17" x1="64.01" y1="24.59" x2="93.57" y2="24.59"/><line class="cls-17" x1="64.01" y1="23.46" x2="93.57" y2="23.46"/></g></g><path class="cls-13" d="M78.81,31C70.07,31,63,28.86,63,26.79S70.07,23,78.81,23s15.85,1.69,15.85,3.75S87.55,31,78.81,31Zm0-7.65c-7.56,0-13.71,1.7-13.71,3.48S71.25,30,78.81,30s13.71-1.46,13.71-3.25S86.37,23.31,78.81,23.31Z"/></g><path class="cls-14" d="M142.57,26.79v10c0,2.07-7.11,3.75-15.85,3.75s-15.85-1.68-15.85-3.75v-10"/><g id="yeux-2" data-name="yeux"><ellipse class="cls-13" cx="126.72" cy="26.81" rx="14.78" ry="3.5"/><g class="cls-19"><g class="cls-20"><line class="cls-17" x1="112.1" y1="23.31" x2="112.1" y2="30.3"/><line class="cls-17" x1="113.67" y1="23.31" x2="113.67" y2="30.3"/><line class="cls-17" x1="115.24" y1="23.31" x2="115.24" y2="30.3"/><line class="cls-17" x1="116.81" y1="23.31" x2="116.81" y2="30.3"/><line class="cls-17" x1="118.38" y1="23.31" x2="118.38" y2="30.3"/><line class="cls-17" x1="119.95" y1="23.31" x2="119.95" y2="30.3"/><line class="cls-17" x1="121.52" y1="23.31" x2="121.52" y2="30.3"/><line class="cls-17" x1="123.09" y1="23.31" x2="123.09" y2="30.3"/><line class="cls-17" x1="124.65" y1="23.31" x2="124.65" y2="30.3"/><line class="cls-17" x1="126.22" y1="23.31" x2="126.22" y2="30.3"/><line class="cls-17" x1="127.79" y1="23.31" x2="127.79" y2="30.3"/><line class="cls-17" x1="129.36" y1="23.31" x2="129.36" y2="30.3"/><line class="cls-17" x1="130.93" y1="23.31" x2="130.93" y2="30.3"/><line class="cls-17" x1="132.5" y1="23.31" x2="132.5" y2="30.3"/><line class="cls-17" x1="134.07" y1="23.31" x2="134.07" y2="30.3"/><line class="cls-17" x1="135.64" y1="23.31" x2="135.64" y2="30.3"/><line class="cls-17" x1="137.21" y1="23.31" x2="137.21" y2="30.3"/><line class="cls-17" x1="138.77" y1="23.31" x2="138.77" y2="30.3"/><line class="cls-17" x1="140.34" y1="23.31" x2="140.34" y2="30.3"/><line class="cls-17" x1="141.91" y1="23.31" x2="141.91" y2="30.3"/></g><g class="cls-21"><line class="cls-17" x1="111.91" y1="30.26" x2="141.48" y2="30.26"/><line class="cls-17" x1="111.91" y1="29.13" x2="141.48" y2="29.13"/><line class="cls-17" x1="111.91" y1="27.99" x2="141.48" y2="27.99"/><line class="cls-17" x1="111.91" y1="26.86" x2="141.48" y2="26.86"/><line class="cls-17" x1="111.91" y1="25.73" x2="141.48" y2="25.73"/><line class="cls-17" x1="111.91" y1="24.59" x2="141.48" y2="24.59"/><line class="cls-17" x1="111.91" y1="23.46" x2="141.48" y2="23.46"/></g></g><path class="cls-13" d="M126.72,31c-8.74,0-15.85-2.1-15.85-4.17S118,23,126.72,23s15.85,1.69,15.85,3.75S135.46,31,126.72,31Zm0-7.65c-7.56,0-13.71,1.7-13.71,3.48S119.16,30,126.72,30s13.71-1.46,13.71-3.25S134.28,23.31,126.72,23.31Z"/></g></g><g id="connector"><path class="cls-3" d="M86.54,208.27h13.81a0,0,0,0,1,0,0V220a6.91,6.91,0,0,1-6.91,6.91h0A6.91,6.91,0,0,1,86.54,220V208.27A0,0,0,0,1,86.54,208.27Z"/><path class="cls-3" d="M99.14,214.4l17.26,1.36a8.12,8.12,0,0,1,2.24,5.06,4.58,4.58,0,0,1-2.33,4l-18.89-.88Z"/><path class="cls-3" d="M117.27,222h-.12l.06-2.84,0,1.42,0-1.42c.11,0,12.08.07,21-12.72l2.33,1.62C131.1,221.54,118.72,222,117.27,222Z"/></g><g id="box"><rect class="cls-13" x="38.26" y="48.95" width="129.24" height="159.36" rx="8.87"/><path class="cls-22" d="M158.62,51.78a6,6,0,0,1,6,6V199.44a6,6,0,0,1-6,6H47.13a6,6,0,0,1-6-6V57.82a6,6,0,0,1,6-6H158.62m0-2.83H47.13a8.87,8.87,0,0,0-8.87,8.87V199.44a8.87,8.87,0,0,0,8.87,8.87H158.62a8.87,8.87,0,0,0,8.87-8.87V57.82A8.87,8.87,0,0,0,158.62,49Z"/><path class="cls-22" d="M120.79,51.78,131,74.07l.76,1.65h32.88V185.05H145.78v20.43H59.25V185.05H41.09V75.72H74l.75-1.65L84.94,51.78h35.85M122.61,49H83.12l-11,23.94H38.26v115H56.42v20.43h92.19V187.88h18.88v-115h-33.9L122.61,49Z"/><path class="cls-22" d="M167.49,75.87H155c-4.07,0-7.37-3.48-7.52-7.91l-.57-16.06a1.57,1.57,0,0,0-1.58-1.53H60.27a1.59,1.59,0,0,0-1.58,1.57l-.14,15.79c0,4.49-3.41,8.14-7.52,8.14H38.26V73H51c2.56,0,4.66-2.39,4.68-5.32l.15-15.8a4.43,4.43,0,0,1,4.41-4.38h85.06a4.4,4.4,0,0,1,4.41,4.27l.58,16.06c.09,2.9,2.15,5.17,4.68,5.17h12.49Z"/><polygon class="cls-22" points="74.51 67.72 83.12 48.95 122.61 48.95 131.22 67.72 74.51 67.72"/><g class="cls-23"><circle class="cls-22" cx="75.71" cy="80.79" r="3.45"/><circle class="cls-22" cx="89.14" cy="80.79" r="3.45"/><circle class="cls-22" cx="102.58" cy="80.79" r="3.45"/><circle class="cls-22" cx="116.01" cy="80.79" r="3.45"/><circle class="cls-22" cx="129.45" cy="80.79" r="3.45"/><circle class="cls-22" cx="75.71" cy="94.27" r="3.45"/><circle class="cls-22" cx="89.14" cy="94.27" r="3.45"/><circle class="cls-22" cx="102.58" cy="94.27" r="3.45"/><circle class="cls-22" cx="116.01" cy="94.27" r="3.45"/><circle class="cls-22" cx="129.45" cy="94.27" r="3.45"/><circle class="cls-22" cx="75.71" cy="107.76" r="3.45"/><circle class="cls-22" cx="89.14" cy="107.76" r="3.45"/><circle class="cls-22" cx="102.58" cy="107.76" r="3.45"/><circle class="cls-22" cx="116.01" cy="107.76" r="3.45"/><circle class="cls-22" cx="129.45" cy="107.76" r="3.45"/></g><g class="cls-24"><g id="_Grille_de_répétition_" data-name="&lt;Grille de répétition&gt;"><circle class="cls-3" cx="134.38" cy="57.92" r="0.87"/></g><g id="_Grille_de_répétition_2" data-name="&lt;Grille de répétition&gt;"><circle class="cls-3" cx="137.67" cy="57.92" r="0.87"/></g><g id="_Grille_de_répétition_3" data-name="&lt;Grille de répétition&gt;"><circle class="cls-3" cx="140.97" cy="57.92" r="0.87"/></g><g id="_Grille_de_répétition_4" data-name="&lt;Grille de répétition&gt;"><circle class="cls-3" cx="144.26" cy="57.92" r="0.87"/></g><g id="_Grille_de_répétition_5" data-name="&lt;Grille de répétition&gt;"><circle class="cls-3" cx="134.38" cy="61.18" r="0.87"/></g><g id="_Grille_de_répétition_6" data-name="&lt;Grille de répétition&gt;"><circle class="cls-3" cx="137.67" cy="61.18" r="0.87"/></g><g id="_Grille_de_répétition_7" data-name="&lt;Grille de répétition&gt;"><circle class="cls-3" cx="140.97" cy="61.18" r="0.87"/></g><g id="_Grille_de_répétition_8" data-name="&lt;Grille de répétition&gt;"><circle class="cls-3" cx="144.26" cy="61.18" r="0.87"/></g><g id="_Grille_de_répétition_9" data-name="&lt;Grille de répétition&gt;"><circle class="cls-3" cx="134.38" cy="64.45" r="0.87"/></g><g id="_Grille_de_répétition_10" data-name="&lt;Grille de répétition&gt;"><circle class="cls-3" cx="137.67" cy="64.45" r="0.87"/></g><g id="_Grille_de_répétition_11" data-name="&lt;Grille de répétition&gt;"><circle class="cls-3" cx="140.97" cy="64.45" r="0.87"/></g><g id="_Grille_de_répétition_12" data-name="&lt;Grille de répétition&gt;"><circle class="cls-3" cx="144.26" cy="64.45" r="0.87"/></g></g><g class="cls-25"><circle class="cls-3" cx="137.61" cy="67.95" r="0.87"/><circle class="cls-3" cx="140.91" cy="67.95" r="0.87"/><circle class="cls-3" cx="144.21" cy="67.95" r="0.87"/></g><circle class="cls-3" cx="71.45" cy="64.27" r="3.45"/><g id="vises"><circle class="cls-8" cx="49.6" cy="194.62" r="6.15"/><circle class="cls-8" cx="156.33" cy="194.62" r="6.15"/><circle class="cls-8" cx="156.33" cy="62.67" r="6.15"/><circle class="cls-8" cx="49.6" cy="62.67" r="6.15"/></g><rect class="cls-22" x="34.18" y="132.46" width="27.01" height="10.17"/><rect class="cls-22" x="34.18" y="143.02" width="27.01" height="10.17"/><rect class="cls-3" x="33.18" y="166.82" width="5.08" height="6.42"/><rect class="cls-8" x="136.38" y="140.53" width="28.01" height="20.51"/><rect class="cls-8" x="92.54" y="162.79" width="51.42" height="33.92" transform="translate(298 61.49) rotate(90)"/><g id="textes"><path class="cls-22" d="M76.55,149.71c0-.6,0-1.09,0-1.57h.92l0,.94h0A2,2,0,0,1,79.33,148,1.71,1.71,0,0,1,81,149.17h0a2.42,2.42,0,0,1,.65-.75,2,2,0,0,1,1.28-.41c.77,0,1.91.5,1.91,2.52V154h-1v-3.29c0-1.11-.41-1.79-1.26-1.79a1.38,1.38,0,0,0-1.25,1,1.73,1.73,0,0,0-.09.53V154h-1v-3.48c0-.92-.4-1.6-1.21-1.6a1.43,1.43,0,0,0-1.3,1.06,1.3,1.3,0,0,0-.09.52V154h-1Z"/><path class="cls-22" d="M89.77,154l-.08-.73h0a2.17,2.17,0,0,1-1.77.86,1.66,1.66,0,0,1-1.78-1.67c0-1.4,1.25-2.17,3.49-2.16v-.12a1.19,1.19,0,0,0-1.32-1.34,2.93,2.93,0,0,0-1.51.43l-.24-.69a3.55,3.55,0,0,1,1.91-.52c1.77,0,2.2,1.21,2.2,2.38v2.17a8.4,8.4,0,0,0,.1,1.39Zm-.15-3c-1.16,0-2.46.18-2.46,1.3a.93.93,0,0,0,1,1,1.45,1.45,0,0,0,1.41-1,1.35,1.35,0,0,0,.06-.34Z"/><path class="cls-22" d="M93.38,150.81h0c.14-.21.35-.46.51-.66l1.71-2H96.9l-2.24,2.39L97.21,154H95.93l-2-2.78-.54.6V154h-1v-8.52h1Z"/><path class="cls-22" d="M98.56,151.24a1.85,1.85,0,0,0,2,2,3.83,3.83,0,0,0,1.61-.3l.18.76a4.72,4.72,0,0,1-1.94.36,2.7,2.7,0,0,1-2.85-2.93c0-1.75,1-3.13,2.72-3.13a2.46,2.46,0,0,1,2.4,2.74,2.81,2.81,0,0,1,0,.49Zm3.09-.76a1.5,1.5,0,0,0-1.46-1.71,1.74,1.74,0,0,0-1.62,1.71Z"/><path class="cls-22" d="M103.93,154c0-.4,0-1,0-1.5v-7h1v3.65h0a2.15,2.15,0,0,1,2-1.07c1.44,0,2.46,1.2,2.44,3,0,2.08-1.3,3.11-2.6,3.11a2.06,2.06,0,0,1-1.94-1.09h0l0,1Zm1.09-2.33a2.32,2.32,0,0,0,0,.38,1.63,1.63,0,0,0,1.59,1.24c1.1,0,1.76-.9,1.76-2.23,0-1.16-.6-2.16-1.73-2.16a1.69,1.69,0,0,0-1.61,1.3,2.34,2.34,0,0,0-.06.43Z"/><path class="cls-22" d="M110.81,145.43h1V154h-1Z"/><path class="cls-22" d="M118.89,151a2.84,2.84,0,0,1-2.89,3.08,2.76,2.76,0,0,1-2.78-3A2.83,2.83,0,0,1,116.1,148,2.74,2.74,0,0,1,118.89,151Zm-4.6.06c0,1.27.73,2.23,1.76,2.23s1.76-.95,1.76-2.26c0-1-.49-2.23-1.73-2.23S114.29,150,114.29,151.06Z"/><path class="cls-22" d="M124.37,153.73a3.81,3.81,0,0,1-1.67.34,2.76,2.76,0,0,1-2.89-3,3,3,0,0,1,3.12-3.09,3.6,3.6,0,0,1,1.46.3l-.24.82a2.48,2.48,0,0,0-1.22-.28,2,2,0,0,0-2.05,2.2,2,2,0,0,0,2,2.17,3,3,0,0,0,1.3-.29Z"/><path class="cls-22" d="M126.65,150.81h0c.15-.21.35-.46.52-.66l1.7-2h1.27l-2.24,2.39,2.55,3.42h-1.28l-2-2.78-.54.6V154h-1v-8.52h1Z"/><path class="cls-22" d="M154.45,156.82h3.6c1.36,0,1.93-.6,1.93-1.42s-.59-1.47-1.93-1.47h-3.6v-.79H158c1.87,0,2.63,1,2.63,2.29s-.71,2.18-2.59,2.18h-3.58Z"/><path class="cls-22" d="M159.57,151.89a2.89,2.89,0,0,0,.39-1.41c0-.8-.42-1.27-1-1.27s-.89.33-1.21,1.15c-.35,1-.86,1.6-1.72,1.6a1.74,1.74,0,0,1-1.64-2,2.82,2.82,0,0,1,.29-1.35l.64.22A2.38,2.38,0,0,0,155,150c0,.83.5,1.15.91,1.15.57,0,.85-.37,1.17-1.21.4-1,.89-1.55,1.79-1.55s1.74.69,1.74,2.13a3.17,3.17,0,0,1-.38,1.54Z"/><path class="cls-22" d="M154.54,147.34a6.91,6.91,0,0,1-.13-1.43,2.51,2.51,0,0,1,.44-1.67,1.28,1.28,0,0,1,1.07-.5,1.43,1.43,0,0,1,1.33,1h0a1.56,1.56,0,0,1,1.52-1.25A1.62,1.62,0,0,1,160,144a3,3,0,0,1,.57,2.1,8.16,8.16,0,0,1-.08,1.21Zm2.48-.78v-.71c0-.83-.43-1.32-1-1.32s-1,.54-1,1.33a3.07,3.07,0,0,0,.06.7Zm2.91,0a4,4,0,0,0,0-.66c0-.81-.29-1.56-1.17-1.56s-1.18.72-1.18,1.57v.65Z"/><path class="cls-22" d="M154.35,181.77a6.77,6.77,0,0,1-.1-1.26,2.08,2.08,0,0,1,.41-1.48,1.29,1.29,0,0,1,1-.4,1.33,1.33,0,0,1,1.29,1h0a1.26,1.26,0,0,1,1-.74,8,8,0,0,0,1.4-.4v.68a6.4,6.4,0,0,1-1.22.34c-.7.15-1,.42-1,1v.62h2.2v.66Zm2.32-.66v-.67c0-.7-.39-1.15-1-1.15s-.94.48-.95,1.17a2.74,2.74,0,0,0,.06.65Z"/><path class="cls-22" d="M157.66,177.33a1.17,1.17,0,0,0,1.27-1.25,2.28,2.28,0,0,0-.19-1l.48-.12a3.1,3.1,0,0,1,.23,1.22A1.7,1.7,0,0,1,157.6,178a1.77,1.77,0,0,1-2-1.71,1.55,1.55,0,0,1,1.72-1.51l.31,0Zm-.47-2a1,1,0,0,0-1.08.92,1.1,1.1,0,0,0,1.08,1Z"/><path class="cls-22" d="M158.69,174a1.73,1.73,0,0,0,.26-.88c0-.48-.24-.7-.54-.7s-.49.18-.67.67c-.23.66-.6,1-1,1a1.13,1.13,0,0,1-1.08-1.26,1.86,1.86,0,0,1,.23-.9l.48.17a1.42,1.42,0,0,0-.21.74c0,.4.23.62.5.62s.44-.22.62-.7c.24-.63.56-1,1.1-1s1.1.5,1.1,1.37a2.12,2.12,0,0,1-.25,1Z"/><path class="cls-22" d="M157.66,170.56a1.17,1.17,0,0,0,1.27-1.25,2.31,2.31,0,0,0-.19-1l.48-.12a3.1,3.1,0,0,1,.23,1.22,1.7,1.7,0,0,1-1.85,1.8,1.78,1.78,0,0,1-2-1.72,1.55,1.55,0,0,1,1.72-1.51,1.77,1.77,0,0,1,.31,0Zm-.47-1.95a1,1,0,0,0-1.08.93,1.09,1.09,0,0,0,1.08,1Z"/><path class="cls-22" d="M154.67,166.35h1.05v-.95h.5v.95h2c.46,0,.71-.13.71-.5a1.62,1.62,0,0,0,0-.38l.49,0a1.46,1.46,0,0,1,.1.59.9.9,0,0,1-.28.71,1.35,1.35,0,0,1-.95.26h-2v.57h-.5V167h-.88Z"/><path class="cls-22" d="M83.73,194.36a3.25,3.25,0,0,1-1.34.24A2.37,2.37,0,0,1,79.88,192a2.52,2.52,0,0,1,2.65-2.67,2.74,2.74,0,0,1,1.21.22l-.16.54a2.39,2.39,0,0,0-1-.21,1.89,1.89,0,0,0-2,2.09,1.85,1.85,0,0,0,2,2.05,2.66,2.66,0,0,0,1.08-.21Z"/><path class="cls-22" d="M87.75,192.67a1.78,1.78,0,0,1-1.82,1.94,1.74,1.74,0,0,1-1.75-1.88A1.79,1.79,0,0,1,86,190.79,1.73,1.73,0,0,1,87.75,192.67Zm-2.89,0c0,.8.46,1.4,1.1,1.4s1.11-.6,1.11-1.42c0-.62-.31-1.4-1.09-1.4S84.86,192,84.86,192.71Z"/><path class="cls-22" d="M88.59,191.86c0-.38,0-.69,0-1h.59l0,.61h0a1.35,1.35,0,0,1,1.21-.69c.5,0,1.29.3,1.29,1.55v2.19H91v-2.11c0-.59-.22-1.08-.85-1.08a.94.94,0,0,0-.89.68,1,1,0,0,0,0,.31v2.2h-.66Z"/><path class="cls-22" d="M92.78,191.86c0-.38,0-.69,0-1h.59l0,.61h0a1.34,1.34,0,0,1,1.21-.69c.5,0,1.29.3,1.29,1.55v2.19h-.67v-2.11c0-.59-.22-1.08-.84-1.08a.94.94,0,0,0-.89.68,1,1,0,0,0,0,.31v2.2h-.66Z"/><path class="cls-22" d="M97.34,192.82a1.16,1.16,0,0,0,1.25,1.27,2.51,2.51,0,0,0,1-.19l.11.47a2.84,2.84,0,0,1-1.21.23,1.7,1.7,0,0,1-1.8-1.84,1.77,1.77,0,0,1,1.71-2,1.54,1.54,0,0,1,1.51,1.72,2.16,2.16,0,0,1,0,.31Zm1.94-.48a.94.94,0,0,0-.92-1.07,1.1,1.1,0,0,0-1,1.07Z"/><path class="cls-22" d="M103.35,194.39a2.45,2.45,0,0,1-1,.21,1.74,1.74,0,0,1-1.82-1.86,1.85,1.85,0,0,1,2-1.94,2.19,2.19,0,0,1,.92.19l-.15.51a1.53,1.53,0,0,0-.77-.17,1.37,1.37,0,0,0,0,2.74,2,2,0,0,0,.82-.18Z"/><path class="cls-22" d="M105,189.82v1.05h1v.51h-1v2c0,.45.13.71.5.71a1.27,1.27,0,0,0,.39-.05l0,.5a1.74,1.74,0,0,1-.59.09.93.93,0,0,1-.72-.28,1.33,1.33,0,0,1-.26-.95v-2h-.56v-.51h.56V190Z"/><path class="cls-22" d="M110,192.67a1.79,1.79,0,0,1-1.82,1.94,1.74,1.74,0,0,1-1.75-1.88,1.79,1.79,0,0,1,1.81-1.94A1.73,1.73,0,0,1,110,192.67Zm-2.9,0c0,.8.46,1.4,1.11,1.4s1.11-.6,1.11-1.42c0-.62-.31-1.4-1.09-1.4S107.08,192,107.08,192.71Z"/><path class="cls-22" d="M110.82,192c0-.43,0-.8,0-1.14h.58l0,.72h0a1.1,1.1,0,0,1,1-.8l.19,0v.63a.82.82,0,0,0-.23,0,.93.93,0,0,0-.89.85,2.72,2.72,0,0,0,0,.31v1.95h-.65Z"/><path class="cls-22" d="M95.27,199.14a2.26,2.26,0,0,0-.5,0,2,2,0,0,0-1.71,1.75h0a1.49,1.49,0,0,1,2.66,1,1.64,1.64,0,0,1-1.63,1.73c-1.05,0-1.74-.81-1.74-2.09a3.06,3.06,0,0,1,.84-2.21,2.61,2.61,0,0,1,1.56-.72,3.39,3.39,0,0,1,.49,0ZM95.08,202a1,1,0,0,0-1-1.12,1.1,1.1,0,0,0-.95.6.53.53,0,0,0-.08.3c0,.8.39,1.4,1.08,1.4S95.08,202.67,95.08,202Z"/><path class="cls-22" d="M97.69,203.58,96,198.49h.71l.79,2.51c.22.68.41,1.3.54,1.9h0c.14-.59.35-1.23.58-1.89l.86-2.52h.7l-1.82,5.09Z"/><path class="cls-22" d="M47.74,163.35A2.38,2.38,0,0,1,45.06,161a2.33,2.33,0,0,1,2.58-2.29,2.42,2.42,0,0,1,2.67,2.37A2.31,2.31,0,0,1,47.74,163.35Zm-.08-3.94c-1.09,0-2.07.58-2.07,1.62s1,1.63,2.12,1.63c1,0,2.07-.53,2.07-1.62S48.77,159.41,47.66,159.41Z"/><path class="cls-22" d="M50.23,164.21v2.73h-.55v-2.08H48v1.93h-.55v-1.93h-2.3v-.65Z"/><path class="cls-22" d="M50.23,167.88v2.74h-.55v-2.08H48v1.92h-.55v-1.92h-2.3v-.66Z"/><path class="cls-22" d="M47.74,177.5a2.38,2.38,0,0,1-2.68-2.36,2.33,2.33,0,0,1,2.58-2.29,2.42,2.42,0,0,1,2.67,2.36A2.31,2.31,0,0,1,47.74,177.5Zm-.08-3.95c-1.09,0-2.07.59-2.07,1.63s1,1.63,2.12,1.63c1,0,2.07-.53,2.07-1.63S48.77,173.55,47.66,173.55Z"/><path class="cls-22" d="M45.14,178.35h5.09v.72l-2.57,1.63a14.14,14.14,0,0,1-1.66.91v0c.68-.06,1.3-.08,2.09-.08h2.13v.62H45.14v-.66l2.58-1.62a18.37,18.37,0,0,1,1.7-.95v0c-.64,0-1.25.05-2.09.05H45.14Z"/><path class="cls-22" d="M130.38,159.63H74.94l-3.29-3.29V144.59l3.29-3.29h55.44l3.29,3.29v11.75Zm-55-1H130l2.7-2.71V145l-2.7-2.7H75.35l-2.7,2.7v10.92Z"/><path class="cls-22" d="M59.76,189.49a6.8,6.8,0,0,1,1.26-.1,2.07,2.07,0,0,1,1.42.42,1.36,1.36,0,0,1,.45,1.06A1.51,1.51,0,0,1,62.5,192a2.53,2.53,0,0,1-2.09.51v2h-.65Zm.65,2.45A2.19,2.19,0,0,0,61,192c.79,0,1.27-.38,1.27-1.09s-.47-1-1.2-1a2.85,2.85,0,0,0-.62.05Z"/><path class="cls-22" d="M66.87,192.66a1.79,1.79,0,0,1-1.82,1.94,1.75,1.75,0,0,1-1.76-1.88,1.79,1.79,0,0,1,1.82-1.94A1.73,1.73,0,0,1,66.87,192.66Zm-2.9,0c0,.8.46,1.41,1.11,1.41s1.11-.6,1.11-1.42c0-.62-.31-1.41-1.1-1.41S64,192,64,192.69Z"/><path class="cls-22" d="M67.91,190.86l.49,1.86c.1.4.2.78.27,1.16h0c.08-.37.2-.76.32-1.16l.6-1.86h.56l.56,1.83a12.15,12.15,0,0,1,.33,1.19h0a11.14,11.14,0,0,1,.28-1.19l.52-1.83h.66l-1.18,3.65h-.6l-.56-1.74a11.75,11.75,0,0,1-.32-1.2h0a10.68,10.68,0,0,1-.33,1.21l-.59,1.73h-.6l-1.11-3.65Z"/><path class="cls-22" d="M73.5,192.81a1.16,1.16,0,0,0,1.25,1.26,2.53,2.53,0,0,0,1-.18l.11.47a2.84,2.84,0,0,1-1.21.23,1.7,1.7,0,0,1-1.8-1.84,1.77,1.77,0,0,1,1.72-2,1.54,1.54,0,0,1,1.5,1.72,2.28,2.28,0,0,1,0,.31Zm1.94-.48a.94.94,0,0,0-.92-1.08,1.11,1.11,0,0,0-1,1.08Z"/><path class="cls-22" d="M76.91,192c0-.43,0-.8,0-1.14h.58l0,.72h0a1.1,1.1,0,0,1,1-.8.55.55,0,0,1,.19,0v.63a.8.8,0,0,0-.23,0,.94.94,0,0,0-.89.86,2.51,2.51,0,0,0,0,.31v1.94h-.65Z"/><path class="cls-22" d="M62.74,202.8a2.25,2.25,0,0,0,1.09.31c.85,0,1.12-.54,1.11-1,0-.68-.63-1-1.27-1H63.3v-.5h.37c.49,0,1.1-.25,1.1-.83,0-.39-.25-.74-.86-.74a1.78,1.78,0,0,0-1,.33l-.18-.49a2.43,2.43,0,0,1,1.28-.37c1,0,1.41.57,1.41,1.17a1.22,1.22,0,0,1-.91,1.15v0a1.27,1.27,0,0,1,1.1,1.26c0,.78-.61,1.47-1.79,1.47a2.5,2.5,0,0,1-1.28-.33Z"/><path class="cls-22" d="M66.51,203.17a.44.44,0,0,1,.45-.47.44.44,0,0,1,.45.47.45.45,0,1,1-.9,0Z"/><path class="cls-22" d="M71.2,198.66v.44l-2.13,4.47h-.69l2.13-4.34v0h-2.4v-.55Z"/><path class="cls-22" d="M73.24,203.57l-1.66-5.09h.71l.79,2.5c.22.69.41,1.31.54,1.91h0c.14-.59.35-1.23.58-1.9l.86-2.51h.7L74,203.57Z"/></g></g><g id="numbers"><rect class="cls-22" x="42.49" y="80.72" width="19.44" height="19.44" rx="2"/><path class="cls-26" d="M59.93,100.16H52.21V80.72h7.72a2,2,0,0,1,2,2V98.16A2,2,0,0,1,59.93,100.16Z"/><path class="cls-27" d="M59.93,100.16H52.21V90.44h9.72v7.72A2,2,0,0,1,59.93,100.16Z"/><path d="M53,91.17a1.53,1.53,0,0,0,.87.32.94.94,0,0,0,.7-.28.93.93,0,0,0,.28-.7c0-.53-.37-1-1.13-1.5l.89-1.5A4.55,4.55,0,0,1,56,88.8a3.14,3.14,0,0,1,.47,1.78,2.88,2.88,0,0,1-.69,1.91,2.32,2.32,0,0,1-1.88.82A2.53,2.53,0,0,1,52.69,93a8.08,8.08,0,0,1-1.52-1.21L49.6,90.25v3.32H47.92V87.65h1.39l2.52,2.46A10.54,10.54,0,0,0,53,91.17Z"/><path class="cls-22" d="M49.74,93.71h-2v-6.2h1.59L51.93,90a11.53,11.53,0,0,0,1.19,1h0a1,1,0,0,0,1.39,0,.78.78,0,0,0,.24-.6c0-.48-.36-.94-1.06-1.38l-.12-.08,1-1.74.13.08a4.82,4.82,0,0,1,1.42,1.33,3.26,3.26,0,0,1,.49,1.86,3,3,0,0,1-.72,2,2.49,2.49,0,0,1-2,.88,2.71,2.71,0,0,1-1.31-.35,8.6,8.6,0,0,1-1.55-1.24l-1.33-1.28Zm-1.68-.29h1.4v-3.5l1.81,1.74a7.64,7.64,0,0,0,1.49,1.2,2.36,2.36,0,0,0,1.17.31,2.17,2.17,0,0,0,1.77-.77,2.74,2.74,0,0,0,.66-1.82,3,3,0,0,0-.45-1.71,4.22,4.22,0,0,0-1.21-1.16L54,89A2,2,0,0,1,55,90.51a1.12,1.12,0,0,1-.32.81,1.33,1.33,0,0,1-1.75,0h0a11,11,0,0,1-1.23-1.08l-2.48-2.42H48.06Z"/><rect class="cls-22" x="42.49" y="105.13" width="19.44" height="19.44" rx="2"/><path class="cls-26" d="M59.93,124.57H52.21V105.13h7.72a2,2,0,0,1,2,2v15.44A2,2,0,0,1,59.93,124.57Z"/><path class="cls-27" d="M59.93,124.57H52.21v-9.72h9.72v7.72A2,2,0,0,1,59.93,124.57Z"/><path d="M56.4,113.15v3.4H48v-1.8h6.79v-1.6Z"/><path class="cls-22" d="M56.55,116.69H47.87v-2.08h6.8V113h1.88Zm-8.39-.28h8.1v-3.12H55v1.6H48.16Z"/><rect class="cls-22" x="142.93" y="105.13" width="19.44" height="19.44" rx="2" transform="translate(305.3 229.7) rotate(180)"/><path class="cls-26" d="M144.93,105.13h7.72v19.44h-7.72a2,2,0,0,1-2-2V107.13A2,2,0,0,1,144.93,105.13Z"/><path class="cls-27" d="M144.93,105.13h7.72v9.72h-9.72v-7.72A2,2,0,0,1,144.93,105.13Z"/><path class="cls-3" d="M160.37,124.57h-7.72v-9.72h9.72v7.72A2,2,0,0,1,160.37,124.57Z"/><path d="M153.22,114.54h-1.46v-1.8h1.46v-.95h1.62v.95h2v1.8h-2v3.37h-1.43l-4.95-3v-2l4.76,2.85Z"/><path class="cls-22" d="M155,118.05h-1.61l-5.05-3v-2.37l3.3,2v-2h1.46v-.95H155v.95h2v2.08h-2Zm-1.53-.28h1.25V114.4h2v-1.52h-2v-.95h-1.34v.95H151.9v1.52h1.46V116l-4.76-2.85v1.71Zm-1.7-3.09,1.33.8v-.8Z"/><rect class="cls-22" x="142.93" y="80.72" width="19.44" height="19.44" rx="2" transform="translate(305.3 180.88) rotate(180)"/><path class="cls-26" d="M144.93,80.72h7.72v19.44h-7.72a2,2,0,0,1-2-2V82.72A2,2,0,0,1,144.93,80.72Z"/><path class="cls-27" d="M144.93,80.72h7.72v9.72h-9.72V82.72A2,2,0,0,1,144.93,80.72Z"/><path class="cls-3" d="M160.37,100.16h-7.72V90.44h9.72v7.72A2,2,0,0,1,160.37,100.16Z"/><path d="M150,93h-1.6V87.83h1.3l1.95,1.72a2.46,2.46,0,0,1,.85-1.56,2.38,2.38,0,0,1,1.56-.55,2.57,2.57,0,0,1,2.07.89,3.45,3.45,0,0,1,.75,2.29,4.92,4.92,0,0,1-1,2.82l-1.49-.77a3.82,3.82,0,0,0,.84-2.12,1.51,1.51,0,0,0-.27-.93,1,1,0,0,0-.8-.37,1,1,0,0,0-.83.42,2,2,0,0,0-.31,1.16,4.08,4.08,0,0,0,.23,1.12H151.9L150,90.34Z"/><path class="cls-22" d="M156,93.62l-1.75-.9.1-.13a3.76,3.76,0,0,0,.81-2,1.34,1.34,0,0,0-.25-.85.79.79,0,0,0-.68-.31.84.84,0,0,0-.72.36,1.87,1.87,0,0,0-.28,1.08,3.94,3.94,0,0,0,.23,1.08l.05.18h-1.62l0,0-1.66-1.41v2.46h-1.88V87.69h1.49l1.81,1.59a2.49,2.49,0,0,1,.85-1.4,2.52,2.52,0,0,1,1.65-.58,2.68,2.68,0,0,1,2.18.94,3.6,3.6,0,0,1,.79,2.38,5.12,5.12,0,0,1-1,2.9Zm-1.33-1,1.23.63a4.74,4.74,0,0,0,.89-2.63,3.36,3.36,0,0,0-.71-2.2,2.44,2.44,0,0,0-2-.84,2.24,2.24,0,0,0-1.47.52,2.3,2.3,0,0,0-.8,1.47l0,.25L149.65,88h-1.1v4.85h1.31V90L152,91.81h1.14a3.66,3.66,0,0,1-.18-1,2,2,0,0,1,.34-1.24,1.09,1.09,0,0,1,.94-.48,1.08,1.08,0,0,1,.91.42,1.67,1.67,0,0,1,.3,1A3.86,3.86,0,0,1,154.63,92.62Z"/></g></g></g></g></svg>