<svg xmlns="http://www.w3.org/2000/svg" width="80" height="40" viewBox="0 0 524.51 308.21"><defs><style>.cls-1{fill:#004684;}.cls-2{fill:#c7d0d8;}.cls-3{fill:#2e2d2d;}.cls-4{fill:#e7e4d6;}.cls-5{fill:#f5f4ed;}.cls-6{fill:#f4f3ec;}.cls-7{fill:#f5f3ec;}.cls-8{fill:#e8e6d9;}.cls-9{fill:#f0ede3;}.cls-10{fill:#e7e4d7;}.cls-11{fill:#efede2;}.cls-12{fill:#efece2;}.cls-13{fill:#e6e3d7;}.cls-14{fill:#c2bfb3;}.cls-15{fill:#f0efe8;}.cls-16{fill:#ebe9de;}.cls-17{fill:#e4e1d5;}.cls-18{fill:#efede3;}.cls-19{fill:#b5b3a8;}.cls-20{fill:#b8b5aa;}.cls-21{fill:#c3c1b7;}.cls-22{fill:#bab8ac;}.cls-23{fill:#c5c2b6;}.cls-24{fill:#c5c3ba;}.cls-25{fill:#afada2;}.cls-26{fill:#b2afa5;}.cls-27{fill:#b2b0a5;}.cls-28{fill:#b1afa4;}.cls-29{fill:#afada3;}.cls-30{fill:#c3c0b5;}.cls-31{fill:#c0beb2;}.cls-32{fill:#c5c2b7;}.cls-33{fill:#a8a69c;}.cls-34{fill:#efedde;}.cls-35{fill:#bdbbb0;}.cls-36{fill:#b0aea3;}.cls-37{fill:#e8e5d7;}.cls-38{fill:#fefefe;}.cls-39{fill:#fafbfa;}.cls-40{fill:#f7f9f8;}.cls-41{fill:#fafbfb;}.cls-42{fill:#f8fafa;}.cls-43{fill:#f9fafa;}.cls-44{fill:#f8faf9;}.cls-45{fill:#f8f9f9;}.cls-46{fill:#fafafa;}.cls-47{fill:#d7e1e8;}.cls-48{fill:#003d7d;}.cls-49{fill:#f9fbfa;}.cls-50{fill:#01417f;}.cls-51{fill:#054688;}.cls-52{fill:#f0f3f3;}.cls-53{fill:#f0f4f4;}.cls-54{fill:#f9faf9;}.cls-55{fill:#f7f8f7;}.cls-56{fill:#f0f2f2;}.cls-57{fill:#00407f;}.cls-58{fill:#eeefef;}.cls-59{fill:#f3f3f3;}.cls-60{fill:#394551;}.cls-61{fill:#00427f;}.cls-62{fill:#1c405e;}.cls-63{fill:#274259;}.cls-64{fill:#4d6b87;}.cls-65{fill:#1d4365;}.cls-66{fill:#f3f4f3;}.cls-67{fill:#113a60;}.cls-68{fill:#f6f6f5;}.cls-69{fill:#1a4160;}.cls-70{fill:#273440;}.cls-71{fill:#003a6c;}.cls-72{fill:#123c5f;}.cls-73{fill:#1d3956;}.cls-74{fill:#1b3756;}.cls-75{fill:#13395b;}.cls-76{fill:#163a5d;}.cls-77{fill:#0f3b64;}.cls-78{fill:#5e7a93;}.cls-79{fill:#034783;}.cls-80{fill:#0c4a82;}.cls-81{fill:#0d4a82;}.cls-82{fill:#074883;}.cls-83{fill:#0d4a81;}.cls-84{fill:#1d3b5b;}.cls-85{fill:#1e3d5f;}</style></defs><title>Asset 1</title><g id="Layer_2" data-name="Layer 2"><g id="Layer_1-2" data-name="Layer 1"><path class="cls-1" d="M469.31,80.36v155.8H139.67a14.79,14.79,0,0,1-1,1.2H469.7V79.87H131.15v.49Z"/><path class="cls-1" d="M148.31,251.25a41,41,0,0,1,39,28.47H390.76a28.48,28.48,0,0,1,56.95,0h76.8V193.89h-.1a40.94,40.94,0,1,1,0-81.88h.1V25.67h-84.9c.09.92.13,1.86.13,2.81a28.48,28.48,0,1,1-56.95,0c0-.95,0-1.89.14-2.81H184.49c0,.17,0,.34,0,.51a40.95,40.95,0,0,1-81.89,0c0-.17,0-.34,0-.51H28.22V128.89h.26a28.48,28.48,0,1,1,0,57h-.26v93.88h81.09A40.94,40.94,0,0,1,148.31,251.25Zm-22.9-73.38a5.67,5.67,0,1,1-5.67-5.67A5.67,5.67,0,0,1,125.41,177.87ZM113.55,200a4.7,4.7,0,0,1-4.22-1.15,7,7,0,0,1-3.45-5.93c0-1.68-1.42-2.43-2.79-2.61s-2,.77-2.13,2.11c.9,3.1.13,6.23,0,9.35v-9.22h0a70,70,0,0,0-.07,10.93c.16,2.66,1.88,4.25,4.28,5.17h0c.9,0,1.11.82,1.61,1.29,1.07,1.35,1.22,3.15,2.22,4.54h0a14.11,14.11,0,0,1-5.49,15.8A12.86,12.86,0,0,1,88.56,228a8.06,8.06,0,0,0-.72-.59h0c-.49-.27-1.18-.36-1-1.19-.12-.35-.24-.7-.37-1.05h0a2.42,2.42,0,0,1-1.12-2.33L84.71,221c-.88-1.57-.26-3.27-.41-4.91,0-.27.2-.26.3-.05a1.85,1.85,0,0,1,.11.54l.47-2h0a4.83,4.83,0,0,1,2.13-3.4l.37-.39h0c.09-1,1.12-1.33,1.53-2.11h0a10.53,10.53,0,0,1,3-3.2h0c.07-3.91.15-7.81.19-11.72a2.44,2.44,0,0,0-.45-2h0c-.5,0-1,0-1.25-.6-1-.34-2,.18-3,.28-1.79,1-2.32,2.71-3,4.5-1,2.77-3.25,4.18-6.18,4.55-3.41.43-6.38-.94-7.48-3.86-1.74-4.61-1.35-8.39,4-10.47a26.25,26.25,0,0,1,3.08-.8h0c1.32-.08,2.62-.1,3.48,1.17,1.16.75,2.34,1.6,3.8,1.1,1-.35,2.57-.15,2.93-1.35a12.4,12.4,0,0,0,.52-4.8c-.16-1.51-1.67-1.69-3-1.66a8.58,8.58,0,0,1-5-1h0c-1,.15-1.49-.87-2.34-1.07h0a1.82,1.82,0,0,1-1.46-1.69h0l-.77-1.38h0a4.75,4.75,0,0,1,0-3.84h0l.79-1.89a8.24,8.24,0,0,1,5.23-4.21h0c.48-.41,1-.91,1.63-.31,3.38.7,6.15,2.21,7.52,5.61h0c.82,1.14.31,2.43.42,3.65a13.5,13.5,0,0,0,.26,3.53c-.24,1.07.53,1,1.12.89a13,13,0,0,0,1.74-.33,5.73,5.73,0,0,1,1.38-3c.4-1.53.94-3,1.37-4.53a4.12,4.12,0,0,0,0-2.69,5.65,5.65,0,0,1-2.77-4.86v-.08A3.42,3.42,0,0,1,95,159l.12,0h.12c.49-2.18,1.28-4.09,3.83-4.52,3.64-2.37,8.26-.9,10.29,3.27,1.39,3.1,1.1,5.9-.8,7.7a6.54,6.54,0,0,1-2.52,2.35h0c-.17.19-.35.37-.53.56h0c-.24.78-.85.93-1.55.92l-1,.46a8.8,8.8,0,0,0-1.27,3.23,5.66,5.66,0,0,1,2.22,10.18l1.17,2.88h0a1.53,1.53,0,0,1,2,.55,8.57,8.57,0,0,0,3-1c5.66-3,11.13,1.7,11.18,7.95,0,1.79-1.54,2.91-2.42,4.31h0c-.5,1-1.11,1.73-2.37,1.45l-2.93.68ZM68.13,109.83a1.23,1.23,0,0,0-.39-.06c-.58,0-1.09,1.25-1.67.26-.36-.62.2-1.12.89-1.28-1.53-2.44-4.49-1.51-6.54-2.76h0c-1.19-.32-1.18-1.24-1.11-2.19a10.38,10.38,0,0,1,0-3.85c-.18-2.08.09-3.83,2.78-3.87l.11-.12.13.09c1.11-.82,2.39-.46,3.6-.49h0c.44-.53.75-1.23,1.62-1.17.37-2.16,3-3.75,1.61-6.36L68,86.3h0l-.4-.62c-2.4-3.36-2.4-3.36.41-6.17a15,15,0,0,1,1.22-1h0c1.77-2.95,4-1.56,5.86-.36,2.13,1.34,4.17,2.42,6.74,1.46L84.1,78h0c.06-.57-.22-1.23.38-1.68.25-.9,0-1.94.72-2.71a2.44,2.44,0,0,1,.59-2.16h0a.84.84,0,0,1,.57-1.09,12.38,12.38,0,0,1,8.28,0c.52,1.16,1.39,2.3,1.49,3.5.33,3.81,2.35,5.8,6,6.36l2.3-1.14c.12-.48.52-.53.92-.54a3.3,3.3,0,0,1,1.81-1.18c2.17-1.42,3.59,0,5,1.34.67,0,.92.47,1.16,1,1.54,1.33,3.53,2.53,1.6,5a7.64,7.64,0,0,1-2,2.83l-1.29,2.68.55,1.21a4.9,4.9,0,0,1,1.66,3.19L115,95.62a5.17,5.17,0,0,1,3.5.43h0l.91.08c2.12.08,2.7,1.43,2.7,3.27.09,2.11.86,4.32-.93,6.14h0l-1.28,1c-.93,1-2.15.38-3.23.57h0a.37.37,0,0,1-.49.13l-2.19,1.24h0a14.58,14.58,0,0,0-1.75,4.1l0,2.2,1.65,2.25c1,1.46,3.15,2.66,1.08,4.81l0,0c-3.6,5.09-5.2,5.57-9.31,2.78h0l-2.75-1.7-1,.09c-.92.59-1.83,1-2.71-.06h0A23.76,23.76,0,0,1,97,119.1a5.62,5.62,0,0,1-2-4.33A5.32,5.32,0,0,1,95,114c-.37-1.12-.73-2.24-1.11-3.36a1.49,1.49,0,0,1,.61-1.9c.86-1.37,2.64-1.85,3.34-3.38l.65-2.08V98.86a12.16,12.16,0,0,0-2.21-3.94l-4.12-2h0l-.87-.11-2.62.16h0l-2.83,1.58L83,98.32l0,1.06a4.46,4.46,0,0,1,.13,4.4c.16.53.33,1,.49,1.57l1.74,2.16h0l0,0c.49.27,1,.52.93,1.21.18.23.37.45.56.67,1.22,2.08,0,3.66-1.1,5.25-1.23,2.17-1.3,4.88-3.15,6.77L81.75,123c-.88,1.18-1.78.69-2.68,0h0c-.52-.07-.93-1.07-1.57-.11a6.46,6.46,0,0,1-2.8,2.11h0l-1.49.76a1.63,1.63,0,0,1-2.41,0l-.55-.37A4.9,4.9,0,0,1,68,123.16h0c-2-1.73-3-3.5-.91-6a20.41,20.41,0,0,0,2.16-4.06C68.85,112,68.49,110.92,68.13,109.83Zm20.11-41h4.41v.27H88.24Zm31.5,50.92a5.67,5.67,0,1,1,5.67-5.67A5.67,5.67,0,0,1,119.74,119.71Zm3.11-15.7v-3.75h.27v3.63ZM100.6,152.46a5.67,5.67,0,1,1,5.67-5.67A5.67,5.67,0,0,1,100.6,152.46Zm-5.67-21.69a5.67,5.67,0,1,1,5.67,5.67A5.67,5.67,0,0,1,94.93,130.77Zm24.81,4.94a5.67,5.67,0,1,1,5.67-5.67A5.67,5.67,0,0,1,119.74,135.71ZM104.66,236.92a9.61,9.61,0,0,1,5.23-8.56,15.79,15.79,0,0,1-.22-2.59,16.72,16.72,0,0,1,4.68-11.62,17.25,17.25,0,0,1-.29-3.06,16.8,16.8,0,0,1,13-16.37V75.8H473.84V241.51H132.34a16.45,16.45,0,0,1-9.94.55,9.61,9.61,0,0,1-17.74-5.14Z"/><path class="cls-1" d="M57,157.37a28.48,28.48,0,0,0-28.48-28.48h-.26a28.48,28.48,0,0,0,0,57h.26A28.47,28.47,0,0,0,57,157.37Zm-49,0a20.51,20.51,0,1,1,20.51,20.51A20.51,20.51,0,0,1,8,157.37Z"/><path class="cls-1" d="M411.27,57a28.47,28.47,0,0,0,28.47-28.48c0-.95,0-1.89-.13-2.81a28.48,28.48,0,0,0-56.68,0c-.09.92-.14,1.86-.14,2.81A28.48,28.48,0,0,0,411.27,57Zm0-49a20.51,20.51,0,1,1-20.51,20.51A20.51,20.51,0,0,1,411.27,8Z"/><path class="cls-1" d="M419.24,251.25a28.47,28.47,0,0,0-28.48,28.47h0a28.48,28.48,0,1,0,56.95,0h0A28.47,28.47,0,0,0,419.24,251.25Zm0,49a20.51,20.51,0,1,1,20.5-20.51A20.51,20.51,0,0,1,419.24,300.24Z"/><path class="cls-1" d="M101.29,175l0,4,.69.57h0c.47.26,1.14.38.89,1.19l1,2.43A5.66,5.66,0,0,0,101.66,173c-.14.65-.25,1.3-.37,2Z"/><path class="cls-1" d="M96,176.62a15.33,15.33,0,0,1,.36-1.79,5.73,5.73,0,0,0-1.38,3A1.39,1.39,0,0,0,96,176.62Z"/><path class="cls-1" d="M119.74,172.2a5.67,5.67,0,1,0,5.67,5.67A5.67,5.67,0,0,0,119.74,172.2Z"/><path class="cls-1" d="M95,162.86h0c0-.07-.06-.13-.1-.19v.08a5.65,5.65,0,0,0,2.77,4.86,4,4,0,0,0-.74-1.16A10.85,10.85,0,0,1,95,162.86Z"/><circle class="cls-1" cx="100.6" cy="146.79" r="5.67"/><circle class="cls-1" cx="100.6" cy="130.77" r="5.67"/><path class="cls-1" d="M125.41,130a5.67,5.67,0,1,0-5.67,5.67A5.67,5.67,0,0,0,125.41,130Z"/><path class="cls-1" d="M94.93,114.77a5.62,5.62,0,0,0,2,4.33A52.27,52.27,0,0,1,95,114,5.32,5.32,0,0,0,94.93,114.77Z"/><path class="cls-1" d="M119.74,108.37a5.67,5.67,0,1,0,5.67,5.67A5.67,5.67,0,0,0,119.74,108.37Z"/><path class="cls-1" d="M114.28,227.29a9.62,9.62,0,0,1,9.62,9.63,9.52,9.52,0,0,1-1.5,5.14,16.45,16.45,0,0,0,9.94-.55h-5.25v-14a16.8,16.8,0,0,1-12.74-13.31,16.72,16.72,0,0,0-4.68,11.62,15.79,15.79,0,0,0,.22,2.59A9.53,9.53,0,0,1,114.28,227.29Z"/><path class="cls-1" d="M131.15,236.16v1.2h7.49a14.79,14.79,0,0,0,1-1.2Z"/><path class="cls-1" d="M127.09,227.46V194.72a16.8,16.8,0,0,0-13,16.37,17.25,17.25,0,0,0,.29,3.06A16.8,16.8,0,0,0,127.09,227.46Z"/><path class="cls-1" d="M122.4,242.06a9.52,9.52,0,0,0,1.5-5.14,9.65,9.65,0,1,0-1.5,5.14Z"/><path class="cls-2" d="M127.09,227.46v14H473.84V75.8H127.09V227.46Zm4.06-147.59H469.7V237.36H131.15v-1.2h-.26V80.36h.26Z"/><path class="cls-3" d="M257.17,112.62h0Z"/><path class="cls-3" d="M205.68,170.14l0,0h0s0,0,0,0Z"/><path class="cls-3" d="M426.11,115h0Z"/><path class="cls-3" d="M285.18,170.14h0l0,0h0s0,0,0,0Z"/><path class="cls-3" d="M373.33,171.43h0l0,0h0s0,0,0,0Z"/><path class="cls-3" d="M345.33,113.91h0Z"/><path class="cls-3" d="M454.11,172.47h0l0,0h0s0,0,0,0Z"/><path class="cls-3" d="M177.67,112.62h0Z"/><path class="cls-3" d="M130.89,236.16H469.31V80.36H130.89Zm329-113c-.58,6.28-1.28,12.56-1.92,18.84-.32,3.14-.77,6.28-.83,9.43-.06,2.56-.85,4.87-3,5.89-2.54,1.21-5.32.63-7.7-1.11h0a1.16,1.16,0,0,1-.83-.76c-.28-.87-.57-1.74-.86-2.62h0c.28-2.55.55-5.09.83-7.64.11-.71-.27-1.52.4-2.12.26-6.22.95-12.41,1.74-18.58.14-1-.8-2.44.78-3.15h0a2.91,2.91,0,0,0,.12-.39c.17-2.38.95-3,4.11-3.49h0a25.2,25.2,0,0,1,4.28.59A4.74,4.74,0,0,1,459.88,123.2ZM147,200a7.58,7.58,0,0,1-3.62-.15c-3.13-1.43-3.83-2.77-3.56-6.57.43-5.81,1.07-11.61,1.64-17.41.28-2.94.59-5.87.89-8.8h0a1,1,0,0,1,0-.3c.08-.95.42-1.82.45-2.81a4.32,4.32,0,0,1,5.27-4.06,10.76,10.76,0,0,0,2.72,0c3.41,1.82,4.31,3.9,3.79,7.65-.56,4-.83,8.1-1.25,12.15-.56,5.52-1.07,11-1.76,16.54C151.23,198.9,149.79,199.85,147,200Zm13-49.75c.62.12,1.24.19,1.86.29h0a1.48,1.48,0,0,1,.42,0h0l16,1.6c.63.06,1.26.08,1.89.13,1.48-.24,2.87.44,4.32.47h0l1.23-.06h0c2.23.72,4.61.17,6.86.84A4.68,4.68,0,0,1,196,159c-.2,1,.11,2.11-.31,3.13-1,2.29-2.94,3.29-6.09,2.94-2.15-.25-4.3-.56-6.44-.84h-.46c-1.59.25-3.1-.44-4.67-.44h0l-17.43-1.71h0c-.58-.12-1.12.72-1.72.09h0l-.41-.08c-2.72-.84-3.87-2.88-4.24-5.52l.81-1.29A4.17,4.17,0,0,1,160,150.29Zm37.57-9.5c.25-6.23.94-12.41,1.74-18.58.14-1-.8-2.44.78-3.15h0a2.91,2.91,0,0,0,.12-.39c.17-2.38.95-3,4.11-3.49h0a26,26,0,0,1,4.27.6c1.9.59,3.1,2.75,2.88,5.11-.58,6.28-1.28,12.55-1.92,18.83-.32,3.14-.77,6.29-.84,9.44-.05,2.56-.84,4.86-3,5.88-2.55,1.22-5.33.64-7.7-1.1h0a1.18,1.18,0,0,1-.83-.76l-.86-2.62h0q.41-3.83.83-7.65C197.25,142.19,196.88,141.39,197.55,140.79Zm217-36.36h1.15l1.34,0h0c5.94.56,11.9.95,17.81,1.75,3.8.52,7.76,0,11.4,1.56,1.89.8,3,2.21,2.73,4.43-.23,1.54.24,3.08-.94,4.62a4.85,4.85,0,0,1-4.75,2.07c-5.1-.57-10.19-1.21-15.33-1.29-.24,0-.48-.24-.73-.37h0a13.63,13.63,0,0,1-5.93-.25,3.4,3.4,0,0,1-.87-.19,30.83,30.83,0,0,0-7.09-.79c-4.35-.25-6.13-2.16-5.68-6.46.49-4.57,3.11-6.27,6.89-5Zm29.81,56.86c-.21,1,.1,2.1-.32,3.13-.95,2.28-2.94,3.29-6.09,2.93-2.15-.24-4.29-.55-6.44-.83h-.46c-1.59.25-3.1-.43-4.66-.44h0L409,164.38h0c-.58-.12-1.12.72-1.72.08h0l-.41-.08c-2.71-.84-3.87-2.87-4.24-5.51l.81-1.3a4.17,4.17,0,0,1,5-4.95c.61.12,1.23.19,1.85.28h0a2,2,0,0,1,.42,0h0c5.33.53,10.65,1.07,16,1.59.63.06,1.26.09,1.89.13h0c1.48-.23,2.87.45,4.32.47h0l1.23-.06h0c2.23.72,4.61.17,6.86.85A4.67,4.67,0,0,1,444.4,161.29Zm-5.18,53.4c-1.12,3-2.71,3.65-5.91,3.35-5.25-.5-10.52-.85-15.78-1.32-4.27-.38-8.53-.84-12.8-1.27l-.8,0-.9,0c-1-.57-2.33-.45-3.29-1.35-1.52-1.4-2.06-5.24-.95-7.62,1.19-2.56,2.87-3.41,6.07-2.91a63.74,63.74,0,0,0,9.66.85h0a2.74,2.74,0,0,1,1.74.43h0l.36-.09h0c2.18.19,4.36.37,6.54.59,3.71.37,7.4,1,11.12,1.11C439.7,206.6,440.51,211.17,439.22,214.69Zm-74.09-8.41c-.68-.23-1.44.16-2-.38-.45,0-1,.1-1.27-.39h0a2,2,0,0,1-1.77-2.17,4.42,4.42,0,0,1-.76-2.13c.41-3.55.88-7.1,1.23-10.66.61-6.23,1.15-12.46,1.73-18.69h0c.26-1-.7-2.33.83-3h0c.51-.92.84-2,2.13-2.14a3.4,3.4,0,0,1,3.92-.36h1.13c1.11.56,2.75.32,3,2.07,1.4,1.83.81,3.94.84,6-.7,6.78-1.42,13.57-2.09,20.36-.22,2.24-.26,4.5-.47,6.74C371.33,204.26,368.56,207.46,365.13,206.28ZM352.53,217c-5.25-.5-10.52-.85-15.78-1.32-4.27-.38-8.53-.84-12.8-1.27l-.8,0-.9,0c-1.05-.57-2.33-.45-3.29-1.35-1.52-1.4-2.06-5.24-.95-7.62,1.19-2.56,2.87-3.41,6.07-2.91a63.74,63.74,0,0,0,9.66.85h0a2.75,2.75,0,0,1,1.74.43h0l.36-.09h0c2.18.19,4.36.37,6.54.59,3.71.37,7.4,1,11.12,1.11,5.42.15,6.23,4.72,4.94,8.24C357.32,216.69,355.73,217.3,352.53,217ZM221.81,167.11a1,1,0,0,1,0-.3c.08-.95.42-1.82.45-2.81a4.32,4.32,0,0,1,5.27-4.06,10.76,10.76,0,0,0,2.72,0c3.41,1.82,4.31,3.9,3.79,7.65-.56,4-.83,8.1-1.25,12.15-.56,5.52-1.08,11-1.76,16.54-.32,2.63-1.76,3.58-4.59,3.77a7.57,7.57,0,0,1-3.62-.15c-3.13-1.43-3.83-2.77-3.56-6.57.43-5.81,1.07-11.61,1.64-17.41.28-2.94.59-5.87.89-8.8ZM224.28,145c.17-.54-.74-1.11,0-1.64.17-6.2,1-12.33,1.62-18.49.36-3.71.59-7.42,1.23-11.11a4.35,4.35,0,0,1,2.85-3.37,6.16,6.16,0,0,1,8.7,5.76c-.32,5.54-1.05,11.05-1.57,16.58-.34,3.64-.73,7.28-.89,10.93a11.33,11.33,0,0,1-1.12,4.7c-1,1.89-2.79,2.47-4.86,2.2h0l-1.28-.39h0c-1.31.41-4.2-1.08-4.56-2.59-.2-.79-1-1.68-.16-2.58Zm21.37-42.88h1.16l1.34,0h0c5.94.57,11.9,1,17.8,1.76,3.81.51,7.77,0,11.41,1.56,1.88.79,3.05,2.21,2.73,4.42-.23,1.55.24,3.08-.94,4.63a4.86,4.86,0,0,1-4.75,2.07c-5.1-.57-10.19-1.22-15.33-1.3-.25,0-.49-.24-.73-.36h0a13.84,13.84,0,0,1-5.94-.25,3.26,3.26,0,0,1-.86-.2,30.82,30.82,0,0,0-7.09-.78c-4.35-.25-6.14-2.16-5.68-6.46.49-4.57,3.11-6.27,6.88-5.06Zm81.27,6.34c.49-4.57,3.11-6.27,6.89-5H335l1.34,0h0c5.94.56,11.9,1,17.8,1.75,3.81.52,7.77,0,11.41,1.56,1.89.8,3.05,2.21,2.73,4.43-.23,1.54.24,3.08-.94,4.62a4.86,4.86,0,0,1-4.75,2.07c-5.1-.57-10.19-1.21-15.33-1.29-.24,0-.48-.24-.73-.37h0a13.69,13.69,0,0,1-5.94-.25,3.42,3.42,0,0,1-.86-.19,30.83,30.83,0,0,0-7.09-.79C328.25,114.65,326.47,112.74,326.92,108.44Zm45,8h0a25.2,25.2,0,0,1,4.28.59,4.74,4.74,0,0,1,2.87,5.11c-.58,6.28-1.28,12.56-1.92,18.84-.32,3.14-.77,6.28-.83,9.43-.06,2.56-.85,4.87-3,5.89-2.54,1.21-5.32.63-7.7-1.11h0a1.16,1.16,0,0,1-.83-.76c-.29-.87-.57-1.74-.86-2.62h0c.28-2.55.55-5.09.83-7.64.11-.71-.27-1.52.4-2.12.26-6.22.95-12.41,1.74-18.58.14-1-.8-2.44.78-3.15h0a2.91,2.91,0,0,0,.12-.39C368,117.57,368.79,116.91,372,116.46Zm24.53,45.81a11.25,11.25,0,0,0,2.72,0c3.41,1.82,4.31,3.9,3.79,7.64-.56,4-.83,8.1-1.24,12.15-.57,5.52-1.08,11-1.77,16.55-.32,2.63-1.76,3.57-4.59,3.77a7.45,7.45,0,0,1-3.62-.16c-3.13-1.43-3.83-2.76-3.55-6.57.42-5.81,1.07-11.6,1.63-17.41.28-2.93.6-5.87.9-8.8h0a1,1,0,0,1,0-.3c.09-.94.42-1.81.46-2.81A4.3,4.3,0,0,1,396.48,162.27Zm-96-22.33a5.81,5.81,0,1,1,5.81-5.81A5.81,5.81,0,0,1,300.51,139.94ZM291,184.28a5.81,5.81,0,1,1,5.81,5.81A5.81,5.81,0,0,1,291,184.28Zm23.66,17.05a7.45,7.45,0,0,1-3.62-.16c-3.13-1.43-3.83-2.76-3.55-6.57.42-5.81,1.07-11.6,1.63-17.41.28-2.93.6-5.87.89-8.8h0a1,1,0,0,1,0-.3c.09-.94.42-1.81.46-2.81a4.3,4.3,0,0,1,5.26-4.05,11.78,11.78,0,0,0,2.72,0c3.41,1.82,4.31,3.9,3.79,7.64-.56,4-.83,8.1-1.24,12.15-.57,5.52-1.08,11.05-1.77,16.55C318.88,200.19,317.44,201.13,314.61,201.33Zm42.6-35c-2.15-.24-4.29-.55-6.44-.83h-.46c-1.59.25-3.1-.43-4.66-.44h0l-17.44-1.7h0c-.58-.12-1.12.72-1.72.08h0l-.41-.08c-2.71-.84-3.87-2.87-4.24-5.51l.81-1.3a4.17,4.17,0,0,1,5-4.95c.61.12,1.23.19,1.85.28h0a2,2,0,0,1,.42,0h0l16,1.59c.63.06,1.26.09,1.89.13h0c1.48-.23,2.87.45,4.32.47h0l1.23-.06h0c2.23.72,4.61.17,6.86.85a4.67,4.67,0,0,1,3.43,5.43c-.21,1,.1,2.1-.32,3.13C362.35,165.66,360.36,166.67,357.21,166.31Zm-30.34-48.89c-.32,5.53-1.05,11-1.57,16.57-.34,3.64-.73,7.29-.88,10.94a11.32,11.32,0,0,1-1.13,4.69c-1,1.89-2.78,2.47-4.86,2.21h0l-1.28-.4h0c-1.3.41-4.2-1.08-4.56-2.58-.19-.79-1-1.68-.16-2.58h0c.17-.54-.74-1.11,0-1.64.17-6.19,1-12.33,1.62-18.49.37-3.71.59-7.41,1.23-11.1a4.34,4.34,0,0,1,2.85-3.37A6.16,6.16,0,0,1,326.87,117.42Zm-38.8-1.65c1.9.59,3.1,2.75,2.88,5.11-.58,6.28-1.28,12.55-1.92,18.83-.32,3.14-.77,6.29-.84,9.44-.05,2.56-.84,4.86-3,5.88-2.55,1.22-5.33.64-7.7-1.1h0a1.18,1.18,0,0,1-.83-.76c-.29-.88-.57-1.75-.86-2.62h0q.4-3.83.83-7.65c.1-.71-.27-1.51.4-2.11.25-6.23.94-12.41,1.74-18.58.14-1-.8-2.44.77-3.15h0a2.91,2.91,0,0,0,.12-.39c.17-2.38.95-3,4.11-3.49h0A26,26,0,0,1,288.07,115.77Zm-12.92,46.32c-.95,2.29-2.94,3.29-6.09,2.94-2.15-.25-4.3-.56-6.44-.84h-.46c-1.59.25-3.1-.44-4.67-.44h0l-17.43-1.71h0c-.58-.12-1.12.72-1.72.09h0l-.41-.08c-2.72-.84-3.87-2.88-4.24-5.52l.81-1.29a4.17,4.17,0,0,1,5-5c.62.12,1.24.19,1.85.29h0a1.57,1.57,0,0,1,.43,0h0l16,1.6c.63.06,1.26.08,1.89.13h0c1.48-.24,2.87.44,4.32.47h0l1.23-.06h0c2.23.72,4.61.17,6.86.84a4.68,4.68,0,0,1,3.42,5.43C275.26,160,275.57,161.07,275.15,162.09Zm-26.55,52.3c-4.27-.38-8.53-.84-12.8-1.26l-.8,0h-.91c-1-.56-2.33-.45-3.29-1.34-1.51-1.41-2.05-5.24-.94-7.63,1.18-2.56,2.86-3.4,6.07-2.9a63.71,63.71,0,0,0,9.65.84h0a2.74,2.74,0,0,1,1.74.44h0a1.56,1.56,0,0,0,.37-.1h0c2.18.2,4.36.38,6.54.6,3.7.37,7.4,1,11.11,1.1,5.43.15,6.24,4.73,4.94,8.25-1.11,3-2.7,3.65-5.9,3.35C259.12,215.22,253.86,214.86,248.6,214.39Zm25.08-10.16h0a2,2,0,0,1-1.78-2.18,4.6,4.6,0,0,1-.76-2.12c.42-3.55.88-7.1,1.24-10.67.61-6.22,1.15-12.45,1.72-18.68h0c.27-1-.69-2.34.84-3h0c.5-.91.83-2,2.13-2.14a3.39,3.39,0,0,1,3.92-.35h1.13c1.1.55,2.75.32,3,2.07,1.4,1.83.8,3.94.84,6-.7,6.79-1.42,13.57-2.09,20.36-.22,2.24-.26,4.51-.47,6.75-.26,2.74-3,5.93-6.47,4.75-.67-.23-1.43.17-2-.37C274.49,204.6,274,204.72,273.68,204.23Zm134-85.77c-.32,5.53-1,11-1.57,16.57-.34,3.64-.73,7.29-.88,10.94a11.32,11.32,0,0,1-1.13,4.69c-1,1.89-2.78,2.47-4.86,2.21h0l-1.28-.4h0c-1.3.41-4.2-1.08-4.56-2.58-.19-.79-1-1.68-.16-2.58h0c.17-.54-.74-1.11,0-1.64.17-6.19,1-12.33,1.62-18.49.37-3.71.59-7.41,1.23-11.1A4.34,4.34,0,0,1,399,112.7,6.16,6.16,0,0,1,407.65,118.46ZM197.47,205c-.67-.23-1.43.17-2-.37-.46,0-1,.1-1.27-.39h0a2,2,0,0,1-1.78-2.18,4.6,4.6,0,0,1-.76-2.12c.42-3.55.88-7.1,1.24-10.67.61-6.22,1.15-12.45,1.73-18.68h0c.26-1-.7-2.34.83-3h0c.5-.91.83-2,2.13-2.14a3.39,3.39,0,0,1,3.92-.35h1.13c1.1.55,2.75.32,3,2.07,1.4,1.83.8,3.94.84,6h0c-.7,6.79-1.42,13.57-2.09,20.36-.22,2.24-.26,4.51-.47,6.75C203.68,203,200.91,206.17,197.47,205Zm-47.11-.85c1.19-2.56,2.87-3.4,6.07-2.9a63.71,63.71,0,0,0,9.65.84h0a2.74,2.74,0,0,1,1.74.44h0a1.56,1.56,0,0,0,.37-.1h0c2.18.2,4.36.38,6.54.6,3.7.37,7.4,1,11.11,1.1,5.43.15,6.24,4.73,4.94,8.25-1.11,3-2.7,3.65-5.9,3.35-5.26-.5-10.52-.86-15.78-1.33-4.27-.38-8.53-.84-12.8-1.26l-.8,0h-.91c-1-.56-2.33-.45-3.29-1.34C149.79,210.36,149.25,206.53,150.36,204.14Zm290.48.24a4.42,4.42,0,0,1-.76-2.13c.41-3.55.88-7.1,1.23-10.66.61-6.23,1.16-12.46,1.73-18.69h0c.26-1-.7-2.33.83-3h0c.51-.92.84-2,2.13-2.14a3.4,3.4,0,0,1,3.92-.36h1.13c1.11.56,2.75.32,3,2.07,1.4,1.83.81,3.94.84,6-.7,6.78-1.42,13.57-2.09,20.36-.22,2.24-.26,4.5-.47,6.74-.26,2.74-3,5.94-6.46,4.76-.68-.23-1.44.16-2-.38-.45,0-.95.1-1.27-.39h0A2,2,0,0,1,440.84,204.38ZM166.15,102.1h1.16l1.34,0h0c5.94.57,11.9,1,17.8,1.76,3.81.51,7.77,0,11.41,1.56,1.88.79,3,2.21,2.73,4.42-.23,1.55.24,3.08-.94,4.63a4.86,4.86,0,0,1-4.75,2.07c-5.1-.57-10.19-1.22-15.33-1.3-.25,0-.49-.24-.73-.36h0a13.84,13.84,0,0,1-5.94-.25,3.26,3.26,0,0,1-.86-.2,30.82,30.82,0,0,0-7.09-.78c-4.35-.25-6.14-2.16-5.68-6.46.49-4.57,3.11-6.27,6.88-5.06Zm-6.93,14c-.32,5.54-1.05,11.05-1.57,16.58-.34,3.64-.73,7.28-.88,10.93a11.49,11.49,0,0,1-1.13,4.7c-1,1.89-2.79,2.47-4.86,2.2h0l-1.28-.39h0c-1.31.41-4.2-1.08-4.56-2.59-.19-.79-1-1.68-.16-2.58h0c.17-.54-.74-1.11,0-1.64.17-6.2,1-12.33,1.62-18.49.36-3.71.59-7.42,1.23-11.11a4.35,4.35,0,0,1,2.85-3.37A6.16,6.16,0,0,1,159.22,116.13Z"/><path class="cls-4" d="M150.52,110.37a4.35,4.35,0,0,0-2.85,3.37c-.64,3.69-.87,7.4-1.23,11.11-.61,6.16-1.45,12.29-1.62,18.49a31.5,31.5,0,0,1,6,7.2h0c2.07.27,3.89-.31,4.86-2.2a11.49,11.49,0,0,0,1.13-4.7c.15-3.65.54-7.29.88-10.93.52-5.53,1.25-11,1.57-16.58A6.16,6.16,0,0,0,150.52,110.37Z"/><path class="cls-4" d="M151.55,196.27c.69-5.5,1.2-11,1.76-16.54.42-4,.69-8.12,1.25-12.15.52-3.75-.38-5.83-3.79-7.65l-.39.41h0a1.55,1.55,0,0,1-1,1.4c-.3.12-.34-.29-.36-.54a.9.9,0,0,0-.84.4h0c.65,1.37-.46,1.44-1.27,1.73-.12,1-1,1.07-1.73,1.36-.34.69-1.07.85-1.66,1.19h0c-.06.76-.42,1.22-1.24,1.22-.3,2.93-.61,5.86-.89,8.8-.57,5.8-1.21,11.6-1.64,17.41-.27,3.8.43,5.14,3.56,6.57A7.58,7.58,0,0,0,147,200C149.79,199.85,151.23,198.9,151.55,196.27Z"/><path class="cls-4" d="M201.06,144.13c.44.89,0,1.9.73,2.63h0c1,.52,1.05.78.77,1.91a7.12,7.12,0,0,1-4.55,5.26c2.37,1.74,5.15,2.32,7.7,1.1,2.14-1,2.93-3.32,3-5.88.07-3.15.52-6.3.84-9.44.64-6.28,1.34-12.55,1.92-18.83.22-2.36-1-4.52-2.88-5.11a26,26,0,0,0-4.27-.6h0l.08.06h0c.65,1.37-.47,1.43-1.27,1.71a2.07,2.07,0,0,1-1.7,1.28c-.2.68-.23,1.62-1.34.83h0c-1.58.71-.64,2.1-.78,3.15-.8,6.17-1.49,12.35-1.74,18.58C198.65,142,200.25,142.5,201.06,144.13Z"/><path class="cls-4" d="M203.94,200.24c.21-2.24.25-4.51.47-6.75.67-6.79,1.39-13.57,2.09-20.36h0c-.93-.81.1-2.16-.81-3h0c-.87,1.67-2,2-3,.83h-.45a.74.74,0,0,1-1.31.05c-.33-.45.23-.42.49-.53l-2.57-1.24a6.87,6.87,0,0,0-2.77,1.71c-.62.51-1,.4-1.06-.43h-.41c-.58,6.23-1.12,12.46-1.73,18.68-.36,3.57-.82,7.12-1.24,10.67a15.43,15.43,0,0,1,3.81,4.69c.59.54,1.35.14,2,.37C200.91,206.17,203.68,203,203.94,200.24Z"/><path class="cls-4" d="M166,204.2l-.8.82h0c.34,1.64-1,1.06-1.72,1.3-.27.28-.55.55-.83.83h0c.34,1.64-1,1.06-1.72,1.3-.87.66-2,1-2.55,2.07h0c.85.82-.21,1.22-.52,1.37a6.93,6.93,0,0,0-1.59,1.24c4.27.42,8.53.88,12.8,1.26,5.26.47,10.52.83,15.78,1.33,3.2.3,4.79-.32,5.9-3.35,1.3-3.52.49-8.1-4.94-8.25-3.71-.1-7.41-.73-11.11-1.1-2.18-.22-4.36-.4-6.54-.6h0C168.22,203.77,167.88,204.05,166,204.2Z"/><path class="cls-4" d="M177.8,112.29a2,2,0,0,0-.13.33v0h0c-.29,1,.93,1.41,1.17,2.22h0c.24.12.48.36.73.36,5.14.08,10.23.73,15.33,1.3a4.86,4.86,0,0,0,4.75-2.07c1.18-1.55.71-3.08.94-4.63.32-2.21-.85-3.63-2.73-4.42-3.64-1.53-7.6-1-11.41-1.56-5.9-.8-11.86-1.19-17.8-1.76,1.23,2.54,3.35,4.41,5.13,6.51C174.94,109.94,175.57,112,177.8,112.29Zm14.7,1.79h3.72A6.13,6.13,0,0,1,192.5,114.08Z"/><path class="cls-4" d="M161,151.84h-.38a2,2,0,0,1-1.76,1.73,2.4,2.4,0,0,1-1.73,1.33c-.29.78-1.34.49-1.68,1.21h0a27.66,27.66,0,0,1,5.11,6h0L178,163.76h0c-.34-3.5,0-6.83,2.15-9.78h0c-.79-.57.15-1.14,0-1.7-.63-.05-1.26-.07-1.89-.13l-16-1.6h0A1.21,1.21,0,0,1,161,151.84Z"/><path class="cls-4" d="M159.27,107.16c-.46,4.3,1.33,6.21,5.68,6.46a30.82,30.82,0,0,1,7.09.78,3.26,3.26,0,0,0,.86.2l-.86-.2h3.86c.2-1.2-1.61-1.43-1.29-2.68-.71-.94-1.06-2.15-2.12-2.84h0c-.9,0-1.15-.62-1.29-1.34a1.23,1.23,0,0,0-.84-1.21h0c-.89,0-1.14-.62-1.29-1.34,0-.13,0-.26,0-.4-1.94.31-1.68-2-2.9-2.48C162.38,100.89,159.76,102.59,159.27,107.16Z"/><path class="cls-4" d="M185.23,154h0c-.82,2.17-2.1,4.19-2,6.65,0,.45-.54.56-1,.56l0,.43h0a2.85,2.85,0,0,1,.87,2.57h0c2.14.28,4.29.59,6.44.84,3.15.35,5.14-.65,6.09-2.94.42-1,.11-2.09.31-3.13a4.68,4.68,0,0,0-3.42-5.43c-2.25-.67-4.63-.12-6.86-.84h0l-.45,1.29Z"/><path class="cls-4" d="M154.59,213.11c2.74-3.13,6.32-5.29,9.37-8.06.77-.71,1.58-1.38,2.39-2.05.65-.54-.27-.58-.27-.92h0a63.71,63.71,0,0,1-9.65-.84c-3.2-.5-4.88.34-6.07,2.9-1.11,2.39-.57,6.22.94,7.63C152.26,212.66,153.55,212.55,154.59,213.11Z"/><path class="cls-5" d="M182.25,161.62h0l0-.43h0c-.25-2.26,1-4.22,1.26-6.36-.75-1.81-2.32-.33-3.39-.85-2.13,3-2.49,6.28-2.15,9.78h0c1.57,0,3.08.69,4.67.44A7.08,7.08,0,0,1,182.25,161.62Z"/><path class="cls-6" d="M197.8,168.48c1.22-.87,1,.19,1,.81h0l2.57,1.24.82.48h.45c1.14.2,1.69-1.61,3-.86h0s0,0,0,0c.91.81-.12,2.16.81,3h0c0-2,.56-4.13-.84-6-1.21.58-2.1,2.56-3.85.91h0c-.79-.92-.3-2-.32-3a3.39,3.39,0,0,0-3.92.35c.15,1.57-1.16,1.69-2.13,2.14h0c-1.53.65-.57,2-.83,3H195C195.94,169.87,196.86,169.16,197.8,168.48Z"/><path class="cls-7" d="M197.15,142.9a4.86,4.86,0,0,1-.83,7.65l.86,2.62c2.6-1.38,5.08-2.84,4.61-6.41h0c-.71-.73-.29-1.74-.73-2.63-.81-1.63-2.41-2.17-3.51-3.34C196.88,141.39,197.25,142.19,197.15,142.9Z"/><path class="cls-8" d="M143.55,165.89h0c.59-.34,1.32-.5,1.66-1.19a1.82,1.82,0,0,1,1.73-1.37c.42-.57.85-1.14,1.27-1.72h0a.9.9,0,0,1,.84-.4l1.33-.87h0l.39-.41a10.76,10.76,0,0,1-2.72,0,4.32,4.32,0,0,0-5.27,4.06c0,1-.37,1.86-.45,2.81Z"/><path class="cls-9" d="M169.05,104.58h0c0,.14,0,.27,0,.4.82.07.93.82,1.29,1.34h0a1.23,1.23,0,0,1,.84,1.21c.81.08.93.83,1.29,1.34h0c1.06.69,1.41,1.9,2.12,2.84,1.56.38,1.73,2,2.87,2.84-.76.38-1.1-.22-1.58-.16H172l.86.2a13.84,13.84,0,0,0,5.94.25h0c-.24-.81-1.46-1.21-1.17-2.22h0a2,2,0,0,1,.13-.33c-2.23-.25-2.86-2.35-4-3.71-1.78-2.1-3.9-4-5.13-6.51h0l-1.34,0Z"/><path class="cls-10" d="M155.45,156.1h0c.34-.72,1.39-.43,1.68-1.21a1.84,1.84,0,0,1,1.72-1.35,3.47,3.47,0,0,1,1.77-1.71H161l.84-1.26c-.62-.1-1.24-.17-1.86-.29a4.17,4.17,0,0,0-5,5A.89.89,0,0,1,155.45,156.1Z"/><path class="cls-11" d="M166.35,203c-.81.67-1.62,1.34-2.39,2.05-3.05,2.77-6.63,4.93-9.37,8.06h.91c.54-1.35,2.06-1.59,2.91-2.58h0c.58-1,1.68-1.41,2.55-2.07.25-.87,1.26-.71,1.72-1.3h0c.28-.28.56-.55.83-.83.25-.86,1.27-.71,1.72-1.3h0l.8-.82c.52-.64,1.45-.85,1.79-1.68a2.74,2.74,0,0,0-1.74-.44h0C166.08,202.42,167,202.46,166.35,203Z"/><path class="cls-12" d="M144.82,143.34c-.78.53.13,1.1,0,1.64h0l.06.09h0c1.32.09,1.38,1.24,1.77,2.11,1.33.63,1.57,2.33,2.89,3h0l1.28.39h0A31.5,31.5,0,0,0,144.82,143.34Z"/><path class="cls-10" d="M197.15,142.9q-.42,3.82-.83,7.65h0A4.86,4.86,0,0,0,197.15,142.9Z"/><path class="cls-10" d="M201.81,168.08h0c1.75,1.65,2.64-.33,3.85-.91-.29-1.75-1.94-1.52-3-2.07C201.72,165.92,202,167.06,201.81,168.08Z"/><path class="cls-13" d="M146.61,147.18c-1-.33-1.21-1.38-1.77-2.11h0l-.06-.09h0c-.84.9,0,1.79.16,2.58.36,1.51,3.25,3,4.56,2.59h0C148.18,149.51,147.94,147.81,146.61,147.18Z"/><path class="cls-12" d="M155.5,157.42h0c1,1.63,3.09,2.53,3.34,4.72h0c.6.63,1.14-.21,1.72-.09h0a27.66,27.66,0,0,0-5.11-6h0a.89.89,0,0,0-.45-.85l-.81,1.29Z"/><path class="cls-14" d="M202.56,148.67c.28-1.13.2-1.39-.77-1.91h0c.47,3.57-2,5-4.61,6.41a1.18,1.18,0,0,0,.83.76h0A7.12,7.12,0,0,0,202.56,148.67Z"/><path class="cls-15" d="M180.14,154h0c1.07.52,2.64-1,3.39.85.34,0,.66-.08.83-.43l.09-1.65c-1.45,0-2.84-.71-4.32-.47C180.29,152.84,179.35,153.41,180.14,154Z"/><path class="cls-16" d="M201.4,118.22c.35-.72.8-1.31,1.71-1.28l1.27-1.7h0l-.08-.06h0c-3.16.44-3.94,1.11-4.11,3.49Z"/><path class="cls-17" d="M155.5,157.42l-1.31-.88c.37,2.64,1.52,4.68,4.24,5.52C157.92,160.22,155.55,159.55,155.5,157.42Z"/><polygon class="cls-17" points="155.5 157.42 155.5 157.42 155.5 157.42 155.5 157.42"/><path class="cls-18" d="M191.64,199.93a4.6,4.6,0,0,0,.76,2.12l1.78,2.18h0c.31.49.81.37,1.27.39A15.43,15.43,0,0,0,191.64,199.93Z"/><path class="cls-19" d="M155.5,157.42h0c.05,2.13,2.42,2.8,2.93,4.64l.41.08h0C158.59,160,156.54,159.05,155.5,157.42Z"/><path class="cls-20" d="M158.41,210.52h0c-.85,1-2.37,1.23-2.91,2.58l.8,0a6.93,6.93,0,0,1,1.59-1.24C158.2,211.74,159.26,211.34,158.41,210.52Z"/><path class="cls-20" d="M169.05,104.58h0l-1.74-2.48h-1.16C167.37,102.63,167.11,104.89,169.05,104.58Z"/><path class="cls-10" d="M197.57,165.45c-1.3.13-1.63,1.23-2.13,2.14h0C196.41,167.14,197.72,167,197.57,165.45Z"/><path class="cls-21" d="M201.81,168.08h0c.19-1-.09-2.16.81-3h-1.13C201.51,166.1,201,167.16,201.81,168.08Z"/><path class="cls-22" d="M166,204.2c1.85-.15,2.19-.43,2.16-1.78h0a1.56,1.56,0,0,1-.37.1h0C167.48,203.35,166.55,203.56,166,204.2Z"/><path class="cls-23" d="M185.23,154h0l.45-1.29h0l-1.23.06h0l-.09,1.65Z"/><path class="cls-24" d="M192.4,202.05a2,2,0,0,0,1.78,2.18h0Z"/><path class="cls-14" d="M182.25,161.62h0a7.08,7.08,0,0,0,.41,2.58h.46A2.85,2.85,0,0,0,182.25,161.62Z"/><path class="cls-25" d="M201.41,118.23h0l-1.21.45a2.91,2.91,0,0,1-.12.39h0C201.18,119.85,201.21,118.91,201.41,118.23Z"/><path class="cls-25" d="M143.55,165.89h0l-1.22.92a1,1,0,0,0,0,.3h0C143.13,167.11,143.49,166.65,143.55,165.89Z"/><path class="cls-25" d="M161,151.84a1.21,1.21,0,0,0,1.26-1.28h0a1.48,1.48,0,0,0-.42,0h0Z"/><path class="cls-26" d="M146.94,163.33h0c.81-.29,1.92-.36,1.27-1.73h0C147.79,162.19,147.36,162.76,146.94,163.33Z"/><path class="cls-27" d="M146.94,163.33h0a1.82,1.82,0,0,0-1.73,1.37c.71-.29,1.61-.33,1.73-1.36Z"/><path class="cls-28" d="M149.05,161.21c0,.25.06.66.36.54a1.55,1.55,0,0,0,1-1.4h0Z"/><path class="cls-26" d="M203.11,116.94h0c.8-.28,1.92-.34,1.27-1.71h0Z"/><path class="cls-29" d="M203.11,116.94c-.91,0-1.36.56-1.71,1.28h0a2.07,2.07,0,0,0,1.7-1.28h0Z"/><path class="cls-30" d="M197.8,168.48c-.94.68-1.86,1.39-2.78,2.09.07.83.44.94,1.06.43a6.87,6.87,0,0,1,2.77-1.71h0C198.78,168.67,199,167.61,197.8,168.48Z"/><path class="cls-31" d="M205.68,170.14c-1.3-.75-1.85,1.06-3,.86,1,1.15,2.1.84,3-.83l0,0Z"/><path class="cls-32" d="M201.42,170.53c-.26.11-.82.08-.49.53a.74.74,0,0,0,1.31-.05h0Z"/><path class="cls-33" d="M162.68,207.15h0c-.46.59-1.47.43-1.72,1.3C161.68,208.21,163,208.79,162.68,207.15Z"/><path class="cls-33" d="M165.23,205h0c-.45.59-1.47.44-1.72,1.3C164.23,206.08,165.57,206.66,165.23,205Z"/><path class="cls-34" d="M196.22,114.08H192.5A6.13,6.13,0,0,0,196.22,114.08Z"/><path class="cls-26" d="M158.87,153.54v0a2,2,0,0,0,1.76-1.73h0a3.47,3.47,0,0,0-1.77,1.71Z"/><path class="cls-28" d="M158.86,153.56v0h0a1.84,1.84,0,0,0-1.72,1.35A2.4,2.4,0,0,0,158.86,153.56Z"/><path class="cls-35" d="M177.48,114.55c-1.14-.85-1.31-2.46-2.87-2.84-.32,1.25,1.49,1.48,1.29,2.68h0C176.38,114.33,176.72,114.93,177.48,114.55Z"/><path class="cls-33" d="M169.07,105c.15.72.4,1.34,1.29,1.34h0C170,105.8,169.89,105.05,169.07,105Z"/><path class="cls-33" d="M171.2,107.53c.14.72.39,1.35,1.29,1.34h0C172.13,108.36,172,107.61,171.2,107.53Z"/><path class="cls-31" d="M182.27,161.19h0c.45,0,1-.11,1-.56-.13-2.46,1.15-4.48,2-6.65h0l-.87.42c-.17.35-.49.39-.83.43C183.24,157,182,158.93,182.27,161.19Z"/><path class="cls-36" d="M146.61,147.18c-.39-.87-.45-2-1.77-2.11h0C145.4,145.8,145.58,146.85,146.61,147.18Z"/><path class="cls-4" d="M230.28,150.54h0c2.07.27,3.89-.31,4.86-2.2a11.33,11.33,0,0,0,1.12-4.7c.16-3.65.55-7.29.89-10.93.52-5.53,1.25-11,1.57-16.58a6.16,6.16,0,0,0-8.7-5.76,4.35,4.35,0,0,0-2.85,3.37c-.64,3.69-.87,7.4-1.23,11.11-.61,6.16-1.45,12.29-1.62,18.49A31.5,31.5,0,0,1,230.28,150.54Z"/><path class="cls-4" d="M219.28,193.32c-.27,3.8.43,5.14,3.56,6.57a7.57,7.57,0,0,0,3.62.15c2.83-.19,4.27-1.14,4.59-3.77.68-5.5,1.2-11,1.76-16.54.42-4,.69-8.12,1.25-12.15.52-3.75-.38-5.83-3.79-7.65l-.39.41h0a1.55,1.55,0,0,1-1,1.4c-.3.12-.34-.29-.36-.54a.9.9,0,0,0-.84.4h0c.65,1.37-.46,1.44-1.27,1.73-.12,1-1,1.07-1.73,1.36-.34.69-1.07.85-1.66,1.19h0c-.06.76-.42,1.22-1.24,1.22-.3,2.93-.61,5.86-.89,8.8C220.35,181.71,219.71,187.51,219.28,193.32Z"/><path class="cls-4" d="M283.8,115.18h0l.08.06h0c.65,1.37-.47,1.43-1.27,1.71a2.07,2.07,0,0,1-1.7,1.28c-.2.68-.23,1.62-1.34.83h0c-1.57.71-.63,2.1-.77,3.15-.8,6.17-1.49,12.35-1.74,18.58,1.1,1.17,2.7,1.71,3.51,3.34.44.89,0,1.9.73,2.63h0c1,.52,1,.78.77,1.91a7.12,7.12,0,0,1-4.55,5.26c2.37,1.74,5.15,2.32,7.7,1.1,2.14-1,2.93-3.32,3-5.88.07-3.15.52-6.3.84-9.44.64-6.28,1.34-12.55,1.92-18.83.22-2.36-1-4.52-2.88-5.11a26,26,0,0,0-4.27-.6Z"/><path class="cls-4" d="M275,204.62c.59.54,1.35.14,2,.37,3.44,1.18,6.21-2,6.47-4.75.21-2.24.25-4.51.47-6.75.67-6.79,1.39-13.57,2.09-20.36-.93-.81.1-2.16-.81-3h0c-.87,1.67-2,2-3,.83h-.45a.74.74,0,0,1-1.31.05c-.33-.45.23-.42.49-.53l-2.57-1.24a6.87,6.87,0,0,0-2.77,1.71c-.62.51-1,.4-1.06-.43h-.42c-.57,6.23-1.11,12.46-1.72,18.68-.36,3.57-.82,7.12-1.24,10.67A15.43,15.43,0,0,1,275,204.62Z"/><path class="cls-4" d="M270.28,212.37c1.3-3.52.49-8.1-4.94-8.25-3.71-.1-7.41-.73-11.11-1.1-2.18-.22-4.36-.4-6.54-.6h0c0,1.35-.31,1.63-2.16,1.78l-.8.82h0c.34,1.64-1,1.06-1.72,1.3-.27.28-.55.55-.83.83h0c.34,1.64-1,1.06-1.72,1.3-.87.66-2,1-2.55,2.07h0c.85.82-.21,1.22-.52,1.37a6.93,6.93,0,0,0-1.59,1.24c4.27.42,8.53.88,12.8,1.26,5.26.47,10.52.83,15.78,1.33C267.58,216,269.17,215.4,270.28,212.37Z"/><path class="cls-4" d="M257.3,112.29a2,2,0,0,0-.13.33v0h0c-.29,1,.93,1.41,1.17,2.22h0c.24.12.48.36.73.36,5.14.08,10.23.73,15.33,1.3a4.86,4.86,0,0,0,4.75-2.07c1.18-1.55.71-3.08.94-4.63.32-2.21-.85-3.63-2.73-4.42-3.64-1.53-7.6-1-11.41-1.56-5.9-.8-11.86-1.19-17.8-1.76h0c1.23,2.54,3.35,4.41,5.13,6.51C254.44,109.94,255.07,112,257.3,112.29Zm9.12,1.15h-3.3l0-.21h3.27Zm5.13.53h-3.72c1.24-.27,2.5-.8,3.71,0h4.14C274.3,114.2,272.9,114.84,271.55,114Z"/><path class="cls-4" d="M259.64,154h0c-.79-.57.15-1.14,0-1.7h0c-.63-.05-1.26-.07-1.89-.13l-16-1.6h0a1.21,1.21,0,0,1-1.26,1.28h-.38a2,2,0,0,1-1.76,1.73,2.42,2.42,0,0,1-1.73,1.33c-.29.78-1.34.49-1.68,1.21h0a27.66,27.66,0,0,1,5.11,6h0l17.43,1.71h0C257.15,160.26,257.51,156.93,259.64,154Z"/><path class="cls-4" d="M252.4,114.6l-.86-.2A3.26,3.26,0,0,0,252.4,114.6Z"/><path class="cls-4" d="M238.77,107.16c-.46,4.3,1.33,6.21,5.68,6.46a30.82,30.82,0,0,1,7.09.78h3.86c.2-1.2-1.61-1.43-1.29-2.68-.71-.94-1.06-2.16-2.12-2.84h0c-.9,0-1.15-.62-1.29-1.34a1.23,1.23,0,0,0-.84-1.21h0c-.89,0-1.14-.62-1.29-1.34,0-.13,0-.26,0-.4-1.94.31-1.68-2-2.9-2.48C241.88,100.89,239.26,102.59,238.77,107.16Z"/><path class="cls-4" d="M275.46,159a4.68,4.68,0,0,0-3.42-5.43c-2.25-.67-4.63-.12-6.86-.84h0l-.45,1.29h0c-.82,2.17-2.1,4.19-2,6.65,0,.45-.54.56-1,.56,0,.14,0,.29,0,.43h0a2.85,2.85,0,0,1,.87,2.57h0c2.14.28,4.29.59,6.44.84,3.15.35,5.14-.65,6.09-2.94C275.57,161.07,275.26,160,275.46,159Z"/><path class="cls-4" d="M243.46,205.05c.77-.71,1.58-1.38,2.39-2.05.65-.54-.27-.58-.27-.92h0a63.71,63.71,0,0,1-9.65-.84c-3.21-.5-4.89.34-6.07,2.9-1.11,2.39-.57,6.22.94,7.63,1,.89,2.25.78,3.29,1.34C236.83,210,240.41,207.82,243.46,205.05Z"/><path class="cls-5" d="M261.75,161.62h0c0-.14,0-.29,0-.43h0c-.25-2.26,1-4.22,1.26-6.36-.75-1.81-2.32-.33-3.39-.85-2.13,3-2.49,6.28-2.15,9.78h0c1.57,0,3.08.69,4.67.44A7.08,7.08,0,0,1,261.75,161.62Z"/><path class="cls-6" d="M277.3,168.48c1.22-.87,1,.19,1.05.81h0l2.57,1.24.82.48h.45c1.14.2,1.69-1.61,3-.86h0s0,0,0,0c.91.81-.12,2.16.81,3,0-2,.56-4.13-.84-6-1.21.58-2.1,2.56-3.85.91h0c-.79-.92-.3-2-.32-3a3.39,3.39,0,0,0-3.92.35c.15,1.57-1.16,1.69-2.13,2.14h0c-1.53.65-.57,2-.84,3h.42C275.44,169.87,276.36,169.16,277.3,168.48Z"/><path class="cls-7" d="M281.29,146.76h0c-.71-.73-.29-1.74-.73-2.63-.81-1.63-2.41-2.17-3.51-3.34-.67.6-.3,1.4-.4,2.11a4.86,4.86,0,0,1-.83,7.65c.29.87.57,1.74.86,2.62C279.28,151.79,281.76,150.33,281.29,146.76Z"/><path class="cls-8" d="M223.05,165.89h0c.59-.34,1.32-.5,1.66-1.19a1.82,1.82,0,0,1,1.73-1.37c.42-.57.85-1.14,1.27-1.72h0a.9.9,0,0,1,.84-.4l1.33-.87h0l.39-.41a10.76,10.76,0,0,1-2.72,0,4.32,4.32,0,0,0-5.27,4.06c0,1-.37,1.86-.45,2.81Z"/><path class="cls-9" d="M248.55,104.58h0c0,.14,0,.27,0,.4.82.07.93.82,1.29,1.34h0a1.23,1.23,0,0,1,.84,1.21c.81.08.93.83,1.29,1.34h0c1.06.68,1.41,1.9,2.12,2.84,1.53.4,1.8,1.93,2.8,2.88-.69.34-1-.26-1.51-.2h-3.86l.86.2a13.84,13.84,0,0,0,5.94.25h0c-.24-.81-1.46-1.21-1.17-2.22h0a2,2,0,0,1,.13-.33c-2.23-.25-2.86-2.35-4-3.71-1.78-2.1-3.9-4-5.13-6.51h0l-1.34,0Z"/><path class="cls-10" d="M235,156.1h0c.34-.72,1.39-.43,1.68-1.21a1.84,1.84,0,0,1,1.72-1.35,3.47,3.47,0,0,1,1.77-1.71h.38l.83-1.26c-.61-.1-1.23-.17-1.85-.29a4.17,4.17,0,0,0-5,5A.89.89,0,0,1,235,156.1Z"/><path class="cls-11" d="M237.91,210.52h0c.58-1,1.68-1.41,2.55-2.07.25-.87,1.26-.71,1.72-1.3h0c.28-.28.56-.55.83-.83.25-.86,1.27-.71,1.72-1.3h0l.8-.82c.52-.64,1.45-.85,1.79-1.68a2.74,2.74,0,0,0-1.74-.44h0c0,.34.92.38.27.92-.81.67-1.62,1.34-2.39,2.05-3.05,2.77-6.63,4.93-9.37,8.06H235C235.54,211.75,237.06,211.51,237.91,210.52Z"/><path class="cls-10" d="M276.65,142.9q-.42,3.82-.83,7.65h0A4.86,4.86,0,0,0,276.65,142.9Z"/><path class="cls-12" d="M224.34,145.07c1.32.09,1.38,1.24,1.77,2.11,1.33.63,1.57,2.33,2.89,3h0l1.28.39h0a31.5,31.5,0,0,0-6-7.2c-.78.53.13,1.1,0,1.64h0Z"/><path class="cls-10" d="M281.31,168.08h0c1.75,1.65,2.64-.33,3.85-.91-.29-1.75-1.94-1.52-3-2.07C281.22,165.92,281.5,167.06,281.31,168.08Z"/><path class="cls-13" d="M224.44,147.56c.36,1.51,3.25,3,4.56,2.59h0c-1.32-.64-1.56-2.34-2.89-3-1-.33-1.21-1.38-1.77-2.11h0l-.06-.09h0C223.44,145.88,224.24,146.77,224.44,147.56Z"/><path class="cls-12" d="M235,156.1h0a.89.89,0,0,0-.45-.85l-.81,1.29,1.31.88h0c1,1.63,3.09,2.53,3.34,4.72h0c.6.63,1.14-.21,1.72-.09h0A27.66,27.66,0,0,0,235,156.1Z"/><path class="cls-14" d="M282.06,148.67c.28-1.13.2-1.39-.77-1.91h0c.47,3.57-2,5-4.61,6.41a1.18,1.18,0,0,0,.83.76h0A7.12,7.12,0,0,0,282.06,148.67Z"/><path class="cls-15" d="M259.64,154h0c1.07.52,2.64-1,3.39.85.34,0,.66-.08.83-.43l.09-1.65c-1.45,0-2.84-.71-4.32-.47h0C259.79,152.84,258.85,153.41,259.64,154Z"/><path class="cls-17" d="M235,157.42l-1.31-.88c.37,2.64,1.52,4.68,4.24,5.52C237.42,160.22,235.05,159.55,235,157.42Z"/><polygon class="cls-17" points="235 157.42 235 157.42 235 157.42 235 157.42"/><path class="cls-16" d="M280.9,118.22c.35-.72.8-1.31,1.71-1.28l1.27-1.7h0l-.08-.06h0c-3.16.44-3.94,1.11-4.11,3.49Z"/><path class="cls-18" d="M275,204.62a15.43,15.43,0,0,0-3.81-4.69,4.6,4.6,0,0,0,.76,2.12l1.78,2.18h0C274,204.72,274.49,204.6,275,204.62Z"/><path class="cls-19" d="M235,157.42h0c.05,2.13,2.42,2.8,2.93,4.64l.41.08h0C238.09,160,236,159.05,235,157.42Z"/><path class="cls-20" d="M237.91,210.52h0c-.85,1-2.37,1.23-2.91,2.58l.8,0a6.93,6.93,0,0,1,1.59-1.24C237.7,211.74,238.76,211.34,237.91,210.52Z"/><path class="cls-10" d="M277.07,165.45c-1.3.13-1.63,1.23-2.13,2.14h0C275.91,167.14,277.22,167,277.07,165.45Z"/><path class="cls-20" d="M248.55,104.58h0l-1.74-2.48h-1.16C246.87,102.63,246.61,104.89,248.55,104.58Z"/><path class="cls-21" d="M281.31,168.08h0c.19-1-.09-2.16.81-3H281C281,166.1,280.52,167.16,281.31,168.08Z"/><path class="cls-22" d="M245.53,204.2c1.85-.15,2.19-.43,2.16-1.78h0a1.56,1.56,0,0,1-.37.1h0C247,203.35,246.05,203.56,245.53,204.2Z"/><path class="cls-23" d="M264.73,154h0l.45-1.29h0l-1.23.06h0l-.09,1.65Z"/><path class="cls-24" d="M271.9,202.05a2,2,0,0,0,1.78,2.18h0Z"/><path class="cls-14" d="M261.75,161.62h0a7.08,7.08,0,0,0,.41,2.58h.46A2.85,2.85,0,0,0,261.75,161.62Z"/><path class="cls-25" d="M280.91,118.23h0l-1.21.45a2.91,2.91,0,0,1-.12.39h0C280.68,119.85,280.71,118.91,280.91,118.23Z"/><path class="cls-25" d="M240.5,151.84a1.21,1.21,0,0,0,1.26-1.28h0a1.57,1.57,0,0,0-.43,0h0Z"/><path class="cls-25" d="M223.05,165.89h0l-1.22.92a1,1,0,0,0,0,.3h0C222.63,167.11,223,166.65,223.05,165.89Z"/><path class="cls-27" d="M226.44,163.33a1.82,1.82,0,0,0-1.73,1.37c.71-.29,1.61-.33,1.73-1.36h0Z"/><path class="cls-26" d="M226.44,163.33h0c.81-.29,1.92-.36,1.27-1.73h0C227.29,162.19,226.86,162.76,226.44,163.33Z"/><path class="cls-28" d="M228.55,161.21c0,.25.06.66.36.54a1.55,1.55,0,0,0,1-1.4h0Z"/><path class="cls-26" d="M282.61,116.94h0c.8-.28,1.92-.34,1.27-1.71h0Z"/><path class="cls-29" d="M282.62,116.94h0c-.91,0-1.36.56-1.71,1.28h0a2.07,2.07,0,0,0,1.7-1.28Z"/><path class="cls-30" d="M277.3,168.48c-.94.68-1.86,1.39-2.78,2.09.07.83.44.94,1.06.43a6.87,6.87,0,0,1,2.77-1.71h0C278.28,168.67,278.52,167.61,277.3,168.48Z"/><path class="cls-31" d="M285.18,170.14c-1.3-.75-1.85,1.06-3,.86,1,1.15,2.1.84,3-.83l0,0Z"/><path class="cls-32" d="M280.92,170.53c-.26.11-.82.08-.49.53a.74.74,0,0,0,1.31-.05h0Z"/><path class="cls-33" d="M243,206.32c.72-.24,2.06.34,1.72-1.3h0C244.28,205.61,243.26,205.46,243,206.32Z"/><path class="cls-33" d="M240.46,208.45c.72-.24,2.06.34,1.72-1.3h0C241.72,207.74,240.71,207.58,240.46,208.45Z"/><polygon class="cls-34" points="271.55 113.97 271.55 113.97 271.55 113.97 271.55 113.97"/><path class="cls-34" d="M275.68,114h-4.13C272.9,114.84,274.3,114.2,275.68,114Z"/><path class="cls-34" d="M267.83,114h3.71C270.33,113.17,269.07,113.7,267.83,114Z"/><polygon class="cls-34" points="271.54 113.97 271.55 113.97 271.55 113.97 271.54 113.97"/><path class="cls-34" d="M263.12,113.44h3.3v-.21h-3.27Z"/><path class="cls-26" d="M238.35,153.54h0v0a2,2,0,0,0,1.76-1.73h0A3.47,3.47,0,0,0,238.35,153.54Z"/><path class="cls-28" d="M238.37,153.54h0a1.84,1.84,0,0,0-1.72,1.35,2.42,2.42,0,0,0,1.73-1.33Z"/><path class="cls-35" d="M256.91,114.59c-1-1-1.27-2.48-2.8-2.88-.32,1.25,1.49,1.48,1.29,2.68h0C255.88,114.33,256.22,114.93,256.91,114.59Z"/><path class="cls-33" d="M248.57,105c.15.72.4,1.34,1.29,1.34h0C249.5,105.8,249.39,105.05,248.57,105Z"/><path class="cls-33" d="M250.7,107.53c.14.72.39,1.35,1.29,1.34h0C251.63,108.36,251.51,107.61,250.7,107.53Z"/><path class="cls-31" d="M263.86,154.4c-.17.35-.49.39-.83.43-.29,2.14-1.51,4.1-1.26,6.36h0c.45,0,1-.11,1-.56-.13-2.46,1.15-4.48,2-6.65h0Z"/><path class="cls-36" d="M224.34,145.07h0c.56.73.74,1.78,1.77,2.11C225.72,146.31,225.66,145.16,224.34,145.07Z"/><path class="cls-4" d="M318.17,111.66a4.34,4.34,0,0,0-2.85,3.37c-.64,3.69-.86,7.39-1.23,11.1-.61,6.16-1.45,12.3-1.62,18.49a31.77,31.77,0,0,1,6,7.21h0c2.08.26,3.9-.32,4.86-2.21a11.32,11.32,0,0,0,1.13-4.69c.15-3.65.54-7.3.88-10.94.52-5.52,1.25-11,1.57-16.57A6.16,6.16,0,0,0,318.17,111.66Z"/><path class="cls-4" d="M319.2,197.56c.69-5.5,1.2-11,1.77-16.55.41-4,.68-8.12,1.24-12.15.52-3.74-.38-5.82-3.79-7.64l-.39.41h0a1.53,1.53,0,0,1-1,1.4c-.3.12-.34-.28-.36-.54a.89.89,0,0,0-.84.41h0c.65,1.37-.46,1.43-1.27,1.72-.12,1-1,1.08-1.73,1.37-.34.68-1.06.84-1.66,1.18h0c-.06.76-.42,1.23-1.24,1.22-.29,2.93-.61,5.87-.89,8.8-.56,5.81-1.21,11.6-1.63,17.41-.28,3.81.42,5.14,3.55,6.57a7.45,7.45,0,0,0,3.62.16C317.44,201.13,318.88,200.19,319.2,197.56Z"/><path class="cls-4" d="M372,116.53h0c.65,1.37-.46,1.42-1.27,1.71a2.07,2.07,0,0,1-1.7,1.28c-.2.67-.23,1.61-1.34.82h0c-1.58.71-.64,2.1-.78,3.15-.79,6.17-1.48,12.36-1.74,18.58,1.1,1.17,2.71,1.71,3.51,3.34.44.9,0,1.91.73,2.63h0c1,.52,1.05.78.77,1.92a7.11,7.11,0,0,1-4.55,5.25c2.38,1.74,5.16,2.32,7.7,1.11,2.14-1,2.93-3.33,3-5.89.06-3.15.51-6.29.83-9.43.64-6.28,1.34-12.56,1.92-18.84a4.74,4.74,0,0,0-2.87-5.11,25.2,25.2,0,0,0-4.28-.59h0Z"/><path class="cls-4" d="M371.59,201.52c.21-2.24.25-4.5.47-6.74.67-6.79,1.39-13.58,2.09-20.36-.93-.81.1-2.16-.81-3h0c-.87,1.68-1.95,2-3,.84h-.45a.75.75,0,0,1-1.32.06c-.33-.46.24-.43.5-.53l-2.58-1.24a7.1,7.1,0,0,0-2.77,1.7c-.62.51-1,.4-1.06-.43h-.41c-.58,6.23-1.12,12.46-1.73,18.69-.35,3.56-.82,7.11-1.23,10.66a15.4,15.4,0,0,1,3.8,4.69c.59.54,1.35.15,2,.38C368.56,207.46,371.33,204.26,371.59,201.52Z"/><path class="cls-4" d="M358.44,213.65c1.29-3.52.48-8.09-4.94-8.24-3.72-.1-7.41-.74-11.12-1.11-2.18-.22-4.36-.4-6.54-.59h0c0,1.34-.3,1.62-2.16,1.77l-.8.83h0c.34,1.63-1,1.06-1.71,1.3l-.84.82h0c.34,1.64-1,1.06-1.72,1.3-.87.67-2,1.05-2.54,2.07h0c.84.83-.22,1.22-.53,1.38a6.89,6.89,0,0,0-1.59,1.23c4.27.43,8.53.89,12.8,1.27,5.26.47,10.53.82,15.78,1.32C355.73,217.3,357.32,216.69,358.44,213.65Z"/><path class="cls-4" d="M345.46,113.57a1.31,1.31,0,0,0-.13.34h0c-.29,1,.94,1.42,1.17,2.22h0c.25.13.49.36.73.37,5.14.08,10.23.72,15.33,1.29a4.86,4.86,0,0,0,4.75-2.07c1.18-1.54.71-3.08.94-4.62.32-2.22-.84-3.63-2.73-4.43-3.64-1.53-7.6-1-11.41-1.56-5.9-.8-11.86-1.19-17.8-1.75h0c1.24,2.54,3.35,4.41,5.13,6.5C342.59,111.23,343.23,113.32,345.46,113.57Zm5.81,1.16,0-.21h3.27v.21Zm8.43.53H356c1.25-.28,2.5-.81,3.72,0h4.14C362.45,115.49,361.05,116.13,359.7,115.26Z"/><path class="cls-4" d="M347.79,155.26h0c-.78-.56.15-1.13,0-1.7h0c-.63,0-1.26-.07-1.89-.13l-16-1.59h0a1.22,1.22,0,0,1-1.26,1.29l-.38,0h0a2,2,0,0,1-1.76,1.73,2.36,2.36,0,0,1-1.73,1.33c-.28.78-1.34.5-1.67,1.22h0a27.41,27.41,0,0,1,5.1,6h0l17.44,1.7h0C345.3,161.55,345.66,158.21,347.79,155.26Z"/><path class="cls-4" d="M340.55,115.88l-.86-.19A3.42,3.42,0,0,0,340.55,115.88Z"/><path class="cls-4" d="M332.6,114.9a30.83,30.83,0,0,1,7.09.79l3.86,0c.2-1.2-1.6-1.43-1.28-2.68-.72-.94-1.06-2.16-2.13-2.83h0c-.89,0-1.14-.62-1.29-1.34a1.24,1.24,0,0,0-.83-1.22h0c-.9,0-1.15-.61-1.3-1.34,0-.13,0-.26,0-.39-1.93.3-1.68-2-2.89-2.48-3.78-1.22-6.4.48-6.89,5C326.47,112.74,328.25,114.65,332.6,114.9Z"/><path class="cls-4" d="M363.3,163.38c.42-1,.11-2.09.32-3.13a4.67,4.67,0,0,0-3.43-5.43c-2.25-.68-4.63-.13-6.86-.85h0l-.45,1.29h0c-.81,2.17-2.1,4.19-2,6.65,0,.46-.54.56-1,.56,0,.15,0,.29,0,.44h0a2.83,2.83,0,0,1,.86,2.57h0c2.15.28,4.29.59,6.44.83C360.36,166.67,362.35,165.66,363.3,163.38Z"/><path class="cls-4" d="M331.61,206.33c.78-.7,1.58-1.38,2.39-2.05.65-.53-.27-.58-.26-.91h0a63.74,63.74,0,0,1-9.66-.85c-3.2-.5-4.88.35-6.07,2.91-1.11,2.38-.57,6.22.95,7.62,1,.9,2.24.78,3.29,1.35C325,211.26,328.56,209.11,331.61,206.33Z"/><path class="cls-5" d="M349.91,162.91h0c0-.15,0-.29,0-.44h0c-.26-2.25,1-4.21,1.26-6.36-.76-1.8-2.33-.33-3.4-.85-2.13,3-2.49,6.29-2.14,9.78h0c1.56,0,3.07.69,4.66.44A6.82,6.82,0,0,1,349.91,162.91Z"/><path class="cls-6" d="M365.46,169.76c1.21-.86,1,.19,1,.82h0l2.58,1.24.82.47h.45c1.13.2,1.68-1.61,3-.86h0s0,0,0,0c.91.81-.12,2.16.81,3,0-2,.56-4.14-.84-6-1.21.59-2.1,2.56-3.84.91h0c-.8-.91-.31-2-.33-3a3.4,3.4,0,0,0-3.92.36c.15,1.56-1.16,1.69-2.13,2.14h0c-1.53.65-.57,2-.83,3h.41C363.6,171.16,364.51,170.44,365.46,169.76Z"/><path class="cls-7" d="M369.44,148h0c-.71-.72-.29-1.73-.73-2.63-.8-1.63-2.41-2.17-3.51-3.34-.67.6-.29,1.41-.4,2.12a4.85,4.85,0,0,1-.83,7.64c.29.88.57,1.75.86,2.62C367.43,153.08,369.91,151.62,369.44,148Z"/><path class="cls-8" d="M311.2,167.17h0c.6-.34,1.32-.5,1.66-1.18a1.81,1.81,0,0,1,1.73-1.37c.42-.58.85-1.15,1.27-1.72h0a.89.89,0,0,1,.84-.41l1.33-.86h0l.39-.41a11.78,11.78,0,0,1-2.72,0,4.3,4.3,0,0,0-5.26,4.05c0,1-.37,1.87-.46,2.81Z"/><path class="cls-9" d="M336.7,105.87h0c0,.13,0,.26,0,.39.82.08.93.83,1.3,1.34h0a1.24,1.24,0,0,1,.83,1.22c.82.07.93.82,1.29,1.34h0c1.07.67,1.41,1.89,2.13,2.83,1.52.4,1.79,1.93,2.79,2.89-.68.34-1-.26-1.51-.21h0l-3.86,0,.86.19a13.69,13.69,0,0,0,5.94.25h0c-.23-.8-1.46-1.2-1.17-2.22h0a1.31,1.31,0,0,1,.13-.34c-2.23-.25-2.87-2.34-4-3.71-1.78-2.09-3.89-4-5.13-6.5h0l-1.34,0Z"/><path class="cls-10" d="M323.11,157.39h0c.33-.72,1.39-.44,1.67-1.22a1.84,1.84,0,0,1,1.72-1.34,3.57,3.57,0,0,1,1.77-1.72h0l.38,0,.84-1.27c-.62-.09-1.24-.16-1.85-.28a4.17,4.17,0,0,0-5,4.95A.91.91,0,0,1,323.11,157.39Z"/><path class="cls-11" d="M326.07,211.8h0c.57-1,1.67-1.4,2.54-2.07.25-.86,1.27-.71,1.72-1.3h0l.84-.82c.24-.87,1.26-.71,1.71-1.3h0l.8-.83c.53-.64,1.45-.85,1.8-1.68a2.75,2.75,0,0,0-1.74-.43h0c0,.33.91.38.26.91-.81.67-1.61,1.35-2.39,2.05-3.05,2.78-6.63,4.93-9.36,8.07l.9,0C323.69,213,325.21,212.79,326.07,211.8Z"/><path class="cls-10" d="M364.8,144.19c-.28,2.55-.55,5.09-.83,7.64h0A4.85,4.85,0,0,0,364.8,144.19Z"/><path class="cls-12" d="M312.47,144.62c-.78.53.13,1.1,0,1.64h0l.06.09c1.32.09,1.38,1.23,1.77,2.11,1.33.63,1.57,2.33,2.89,3h0l1.28.4h0A31.77,31.77,0,0,0,312.47,144.62Z"/><path class="cls-10" d="M369.47,169.36h0c1.74,1.65,2.63-.32,3.84-.91-.29-1.75-1.93-1.51-3-2.07C369.37,167.2,369.65,168.35,369.47,169.36Z"/><path class="cls-13" d="M314.26,148.47c-1-.34-1.2-1.39-1.77-2.11h0l-.06-.09h0c-.84.9,0,1.79.16,2.58.36,1.5,3.26,3,4.56,2.58h0C315.83,150.8,315.59,149.1,314.26,148.47Z"/><path class="cls-12" d="M323.11,157.39h0a.91.91,0,0,0-.46-.86l-.81,1.3,1.31.87h0c1,1.62,3.09,2.53,3.34,4.71h0c.6.64,1.14-.2,1.72-.08h0A27.41,27.41,0,0,0,323.11,157.39Z"/><path class="cls-14" d="M370.21,150c.28-1.14.2-1.4-.77-1.92h0c.47,3.58-2,5-4.61,6.41a1.16,1.16,0,0,0,.83.76h0A7.11,7.11,0,0,0,370.21,150Z"/><path class="cls-15" d="M347.79,155.26h0c1.07.52,2.64-.95,3.4.85.33,0,.66-.07.83-.42,0-.55.05-1.11.08-1.66-1.45,0-2.84-.7-4.32-.47h0C347.94,154.13,347,154.7,347.79,155.26Z"/><path class="cls-17" d="M323.15,158.7l-1.31-.87c.37,2.64,1.53,4.67,4.24,5.51C325.58,161.5,323.2,160.83,323.15,158.7Z"/><polygon class="cls-17" points="323.15 158.7 323.15 158.7 323.15 158.71 323.15 158.7"/><path class="cls-16" d="M369.06,119.51c.34-.73.79-1.31,1.7-1.28l1.27-1.7h0l-.08-.07h0c-3.16.45-3.94,1.11-4.11,3.49Z"/><path class="cls-18" d="M359.3,201.21a4.42,4.42,0,0,0,.76,2.13l1.77,2.17h0c.32.49.82.37,1.27.39A15.4,15.4,0,0,0,359.3,201.21Z"/><path class="cls-19" d="M323.15,158.71h0c.05,2.13,2.43,2.8,2.93,4.64l.41.08h0C326.24,161.24,324.19,160.33,323.15,158.71Z"/><path class="cls-20" d="M326.07,211.8h0c-.86,1-2.38,1.23-2.92,2.58l.8,0a6.89,6.89,0,0,1,1.59-1.23C325.85,213,326.91,212.63,326.07,211.8Z"/><path class="cls-10" d="M365.22,166.74c-1.29.13-1.62,1.22-2.13,2.14h0C364.06,168.43,365.37,168.3,365.22,166.74Z"/><path class="cls-20" d="M336.7,105.87h0L335,103.38h-1.15C335,103.92,334.77,106.17,336.7,105.87Z"/><path class="cls-21" d="M369.47,169.36h0c.18-1-.1-2.16.8-3h-1.13C369.16,167.38,368.67,168.45,369.47,169.36Z"/><path class="cls-22" d="M333.68,205.48c1.86-.15,2.2-.43,2.16-1.77h0l-.36.09h0C335.13,204.63,334.21,204.84,333.68,205.48Z"/><path class="cls-23" d="M352.88,155.26h0l.45-1.29h0l-1.23.06h0c0,.55-.05,1.11-.08,1.66Z"/><path class="cls-24" d="M360.06,203.34a2,2,0,0,0,1.77,2.17h0Z"/><path class="cls-14" d="M349.91,162.91h0a6.82,6.82,0,0,0,.4,2.57h.46A2.83,2.83,0,0,0,349.91,162.91Z"/><path class="cls-25" d="M369.06,119.52h0l-1.22.44a2.91,2.91,0,0,1-.12.39h0C368.83,121.13,368.86,120.19,369.06,119.52Z"/><path class="cls-25" d="M328.65,153.13a1.22,1.22,0,0,0,1.26-1.29h0a2,2,0,0,0-.42,0h0Z"/><path class="cls-25" d="M311.2,167.17h0l-1.22.92a1,1,0,0,0,0,.3h0C310.78,168.4,311.14,167.93,311.2,167.17Z"/><path class="cls-27" d="M314.59,164.62a1.81,1.81,0,0,0-1.73,1.37c.71-.29,1.61-.33,1.73-1.37h0Z"/><path class="cls-26" d="M314.59,164.62h0c.81-.29,1.92-.35,1.27-1.72h0C315.44,163.47,315,164,314.59,164.62Z"/><path class="cls-28" d="M316.7,162.49c0,.26.06.66.36.54a1.53,1.53,0,0,0,1-1.4h0Z"/><path class="cls-26" d="M370.77,118.23h0c.81-.29,1.92-.34,1.27-1.71h0l-1.27,1.7Z"/><path class="cls-29" d="M369.06,119.52a2.07,2.07,0,0,0,1.7-1.28h0c-.91,0-1.36.55-1.7,1.28h0Z"/><path class="cls-30" d="M365.46,169.76c-.95.68-1.86,1.4-2.79,2.09.08.83.44.94,1.06.43a7.1,7.1,0,0,1,2.77-1.7h0C366.43,170,366.67,168.9,365.46,169.76Z"/><path class="cls-31" d="M373.33,171.43c-1.3-.75-1.85,1.06-3,.86,1,1.15,2.09.84,3-.84l0,0Z"/><path class="cls-32" d="M369.08,171.82c-.26.1-.83.07-.5.53a.75.75,0,0,0,1.32-.06h0Z"/><path class="cls-33" d="M331.17,207.61c.72-.24,2.05.33,1.71-1.3h0C332.43,206.9,331.41,206.74,331.17,207.61Z"/><path class="cls-33" d="M328.61,209.73c.72-.24,2.06.34,1.72-1.3h0C329.88,209,328.86,208.87,328.61,209.73Z"/><path class="cls-34" d="M359.7,115.26c1.35.87,2.75.23,4.14,0Z"/><polygon class="cls-34" points="359.7 115.26 359.7 115.26 359.7 115.26 359.7 115.26"/><polygon class="cls-34" points="359.69 115.26 359.7 115.26 359.7 115.26 359.69 115.26"/><path class="cls-34" d="M356,115.26h3.72C358.48,114.45,357.23,115,356,115.26Z"/><path class="cls-34" d="M354.58,114.73v-.21h-3.27l0,.21Z"/><path class="cls-26" d="M326.5,154.83h0a2,2,0,0,0,1.76-1.73h0A3.57,3.57,0,0,0,326.5,154.83Z"/><path class="cls-28" d="M326.52,154.83h0a1.84,1.84,0,0,0-1.72,1.34,2.36,2.36,0,0,0,1.73-1.33Z"/><path class="cls-35" d="M345.06,115.88c-1-1-1.27-2.49-2.79-2.89-.32,1.25,1.48,1.48,1.28,2.68h0C344,115.62,344.38,116.22,345.06,115.88Z"/><path class="cls-33" d="M336.72,106.26c.15.73.4,1.35,1.3,1.34h0C337.65,107.09,337.54,106.34,336.72,106.26Z"/><path class="cls-33" d="M338.85,108.82c.15.72.4,1.34,1.29,1.34h0C339.78,109.64,339.67,108.89,338.85,108.82Z"/><path class="cls-31" d="M352,155.69c-.17.35-.5.39-.83.42-.3,2.15-1.52,4.11-1.26,6.36h0c.44,0,1-.1,1-.56-.13-2.46,1.16-4.48,2-6.65h0Z"/><path class="cls-36" d="M314.26,148.47c-.39-.88-.45-2-1.77-2.11h0C313.06,147.08,313.23,148.13,314.26,148.47Z"/><path class="cls-4" d="M399,112.7a4.34,4.34,0,0,0-2.85,3.37c-.64,3.69-.86,7.39-1.23,11.1-.61,6.16-1.45,12.3-1.62,18.49a31.77,31.77,0,0,1,6,7.21h0c2.08.26,3.9-.32,4.86-2.21A11.32,11.32,0,0,0,405.2,146c.15-3.65.54-7.3.88-10.94.52-5.52,1.25-11,1.57-16.57A6.16,6.16,0,0,0,399,112.7Z"/><path class="cls-4" d="M398.81,162.67a1.53,1.53,0,0,1-1,1.4c-.3.12-.34-.28-.36-.54a.89.89,0,0,0-.84.41h0c.65,1.37-.46,1.43-1.27,1.72-.12,1-1,1.08-1.73,1.37-.34.68-1.06.84-1.66,1.18h0c-.06.76-.42,1.23-1.23,1.22-.3,2.93-.62,5.87-.9,8.8-.56,5.81-1.21,11.6-1.63,17.41-.28,3.81.42,5.14,3.55,6.57a7.45,7.45,0,0,0,3.62.16c2.83-.2,4.27-1.14,4.59-3.77.69-5.5,1.2-11,1.77-16.55.41-4.05.68-8.12,1.24-12.15.52-3.74-.38-5.82-3.79-7.64l-.39.41Z"/><path class="cls-4" d="M452.73,117.5h0l.08.07h0c.65,1.37-.46,1.42-1.27,1.71a2.07,2.07,0,0,1-1.7,1.28c-.2.67-.23,1.61-1.34.82h0c-1.58.71-.64,2.1-.78,3.15-.79,6.17-1.48,12.36-1.74,18.58,1.1,1.17,2.71,1.71,3.51,3.34.44.9,0,1.91.73,2.63h0c1,.52,1,.78.77,1.92a7.11,7.11,0,0,1-4.55,5.25c2.38,1.74,5.16,2.32,7.7,1.11,2.14-1,2.93-3.33,3-5.89.06-3.15.51-6.29.83-9.43.64-6.28,1.34-12.56,1.92-18.84a4.74,4.74,0,0,0-2.87-5.11A25.2,25.2,0,0,0,452.73,117.5Z"/><path class="cls-4" d="M443.88,206.94c.59.54,1.35.15,2,.38,3.43,1.18,6.2-2,6.46-4.76.21-2.24.25-4.5.47-6.74.67-6.79,1.39-13.58,2.09-20.36-.93-.81.1-2.16-.81-3h0c-.87,1.68-1.95,2-3,.84h-.45a.75.75,0,0,1-1.32.06c-.33-.46.24-.43.5-.53l-2.58-1.24a7.1,7.1,0,0,0-2.77,1.7c-.62.51-1,.4-1.06-.43H443c-.57,6.23-1.12,12.46-1.73,18.69-.35,3.56-.82,7.11-1.23,10.66A15.4,15.4,0,0,1,443.88,206.94Z"/><path class="cls-4" d="M434.28,206.45c-3.72-.1-7.41-.74-11.12-1.11-2.18-.22-4.36-.4-6.54-.59h0c0,1.34-.3,1.62-2.16,1.77l-.8.83h0c.35,1.63-1,1.06-1.71,1.3l-.84.82h0c.34,1.64-1,1.06-1.72,1.3-.87.67-2,1-2.54,2.07h0c.84.83-.22,1.22-.53,1.38a6.89,6.89,0,0,0-1.59,1.23c4.27.43,8.53.89,12.8,1.27,5.26.47,10.53.82,15.78,1.32,3.2.3,4.79-.31,5.91-3.35C440.51,211.17,439.7,206.6,434.28,206.45Z"/><path class="cls-4" d="M426.24,114.61a1.31,1.31,0,0,0-.13.34h0c-.29,1,.94,1.42,1.17,2.22h0c.25.13.49.36.73.37,5.14.08,10.23.72,15.33,1.29a4.85,4.85,0,0,0,4.75-2.07c1.18-1.54.71-3.08.94-4.62.32-2.22-.84-3.63-2.73-4.43-3.64-1.53-7.6-1-11.4-1.56-5.91-.8-11.87-1.19-17.81-1.75h0c1.24,2.54,3.35,4.41,5.13,6.5C423.37,112.27,424,114.36,426.24,114.61Zm9.12,1.16h-3.31l0-.21h3.27Zm5.12.53h-3.72c1.25-.28,2.5-.81,3.72,0h4.14C443.23,116.53,441.83,117.17,440.48,116.3Z"/><path class="cls-4" d="M428.57,156.3h0c-.78-.56.15-1.13,0-1.7h0c-.63,0-1.26-.07-1.89-.13-5.33-.52-10.65-1.06-16-1.59h0a1.22,1.22,0,0,1-1.26,1.29l-.38,0h0a2,2,0,0,1-1.76,1.73,2.36,2.36,0,0,1-1.73,1.33c-.28.78-1.34.5-1.67,1.22h0a27.41,27.41,0,0,1,5.1,5.95h0l17.44,1.7h0C426.08,162.59,426.44,159.25,428.57,156.3Z"/><path class="cls-4" d="M407.7,109.48c-.45,4.3,1.33,6.21,5.68,6.46a30.83,30.83,0,0,1,7.09.79l3.86,0c.2-1.2-1.6-1.43-1.28-2.68-.72-.94-1.06-2.16-2.13-2.83h0c-.89,0-1.14-.62-1.29-1.34a1.24,1.24,0,0,0-.83-1.22h0c-.9,0-1.15-.61-1.3-1.34,0-.13,0-.26,0-.39-1.93.3-1.68-2-2.89-2.48C410.81,103.21,408.19,104.91,407.7,109.48Z"/><path class="cls-4" d="M421.34,116.92l-.87-.19A3.4,3.4,0,0,0,421.34,116.92Z"/><path class="cls-4" d="M441,155.86c-2.25-.68-4.63-.13-6.86-.85h0l-.45,1.29h0c-.81,2.17-2.1,4.19-2,6.65,0,.46-.54.56-1,.56,0,.15,0,.29,0,.44h0a2.83,2.83,0,0,1,.86,2.57h0c2.15.28,4.29.59,6.44.83,3.15.36,5.14-.65,6.09-2.93.42-1,.11-2.09.32-3.13A4.67,4.67,0,0,0,441,155.86Z"/><path class="cls-4" d="M412.39,207.37c.78-.7,1.58-1.38,2.39-2.05.65-.53-.27-.58-.26-.91h0a63.74,63.74,0,0,1-9.66-.85c-3.2-.5-4.88.35-6.07,2.91-1.11,2.38-.57,6.22.95,7.62,1,.9,2.24.78,3.29,1.35C405.76,212.3,409.34,210.15,412.39,207.37Z"/><path class="cls-5" d="M430.69,164h0c0-.15,0-.29,0-.44h0c-.26-2.25,1-4.21,1.26-6.36-.76-1.8-2.33-.33-3.4-.85-2.13,2.95-2.49,6.29-2.14,9.78h0c1.56,0,3.07.69,4.66.44A6.82,6.82,0,0,1,430.69,164Z"/><path class="cls-6" d="M446.24,170.8c1.21-.86,1,.19,1,.82h0l2.58,1.24.82.47h.45c1.13.2,1.68-1.61,3-.86h0s0,0,0,0c.91.81-.12,2.16.81,3,0-2,.56-4.14-.84-6-1.21.59-2.1,2.56-3.84.91h0c-.8-.91-.31-2-.33-3a3.4,3.4,0,0,0-3.92.36c.15,1.56-1.16,1.69-2.13,2.14h0c-1.53.65-.57,2-.83,3h.41C444.38,172.2,445.29,171.48,446.24,170.8Z"/><path class="cls-7" d="M450.22,149.08h0c-.71-.72-.29-1.73-.73-2.63-.8-1.63-2.41-2.17-3.51-3.34-.67.6-.29,1.41-.4,2.12a4.85,4.85,0,0,1-.83,7.64c.29.88.58,1.75.86,2.62C448.21,154.12,450.69,152.66,450.22,149.08Z"/><path class="cls-8" d="M391.22,166.32c0,1-.37,1.87-.46,2.81l1.22-.92h0c.6-.34,1.32-.5,1.66-1.18a1.81,1.81,0,0,1,1.73-1.37c.42-.58.85-1.15,1.27-1.72h0a.89.89,0,0,1,.84-.41l1.33-.86h0l.39-.41a11.25,11.25,0,0,1-2.72,0A4.3,4.3,0,0,0,391.22,166.32Z"/><path class="cls-9" d="M417.48,106.91h0c0,.13,0,.26,0,.39.82.08.93.83,1.3,1.34h0a1.24,1.24,0,0,1,.83,1.22c.82.07.93.82,1.29,1.34h0c1.07.67,1.41,1.89,2.13,2.83,1.52.4,1.79,1.93,2.79,2.89-.68.34-1-.26-1.51-.21h0l-3.86,0,.87.19a13.63,13.63,0,0,0,5.93.25h0c-.23-.8-1.46-1.2-1.17-2.22h0a1.31,1.31,0,0,1,.13-.34c-2.23-.25-2.87-2.34-4-3.71-1.78-2.09-3.89-4-5.13-6.5h0l-1.34,0Z"/><path class="cls-10" d="M403.89,158.43h0c.33-.72,1.39-.44,1.67-1.22a1.84,1.84,0,0,1,1.72-1.34,3.57,3.57,0,0,1,1.77-1.72h0l.38,0,.84-1.27c-.62-.09-1.24-.16-1.85-.28a4.17,4.17,0,0,0-5,4.95A.91.91,0,0,1,403.89,158.43Z"/><path class="cls-11" d="M406.85,212.84h0c.57-1,1.67-1.4,2.54-2.07.25-.86,1.27-.71,1.72-1.3h0l.84-.82c.24-.87,1.26-.71,1.71-1.3h0l.8-.83c.53-.64,1.45-.85,1.8-1.68a2.74,2.74,0,0,0-1.74-.43h0c0,.33.91.38.26.91-.81.67-1.61,1.35-2.39,2.05-3.05,2.78-6.63,4.93-9.36,8.07l.9,0C404.47,214.07,406,213.83,406.85,212.84Z"/><path class="cls-10" d="M445.58,145.23c-.28,2.55-.55,5.09-.83,7.64h0A4.85,4.85,0,0,0,445.58,145.23Z"/><path class="cls-12" d="M393.25,145.66c-.78.53.13,1.1,0,1.64h0l.06.09c1.32.09,1.39,1.23,1.77,2.11,1.33.63,1.57,2.33,2.89,3h0l1.28.4h0A31.77,31.77,0,0,0,393.25,145.66Z"/><path class="cls-10" d="M450.25,170.4h0c1.74,1.65,2.63-.32,3.84-.91-.29-1.75-1.93-1.51-3-2.07C450.15,168.24,450.43,169.39,450.25,170.4Z"/><path class="cls-13" d="M395,149.51c-1-.34-1.2-1.39-1.77-2.11h0l-.06-.09h0c-.84.9,0,1.79.16,2.58.36,1.5,3.26,3,4.56,2.58h0C396.61,151.84,396.37,150.14,395,149.51Z"/><path class="cls-12" d="M403.89,158.43h0a.91.91,0,0,0-.46-.86l-.81,1.3,1.31.87h0c1,1.62,3.09,2.53,3.34,4.71h0c.6.64,1.14-.2,1.72-.08h0A27.41,27.41,0,0,0,403.89,158.43Z"/><path class="cls-14" d="M451,151c.28-1.14.2-1.4-.77-1.92h0c.47,3.58-2,5-4.61,6.41a1.16,1.16,0,0,0,.83.76h0A7.11,7.11,0,0,0,451,151Z"/><path class="cls-15" d="M428.57,156.3h0c1.07.52,2.64-1,3.4.85.33,0,.66-.07.83-.42,0-.55.05-1.11.08-1.66-1.45,0-2.84-.7-4.32-.47h0C428.72,155.17,427.79,155.74,428.57,156.3Z"/><path class="cls-17" d="M403.93,159.74l-1.31-.87c.37,2.64,1.53,4.67,4.24,5.51C406.36,162.54,404,161.87,403.93,159.74Z"/><polygon class="cls-17" points="403.93 159.74 403.93 159.74 403.93 159.75 403.93 159.74"/><path class="cls-16" d="M449.84,120.55c.34-.73.79-1.31,1.7-1.28l1.27-1.7h0l-.08-.07h0c-3.16.45-3.94,1.11-4.11,3.49Z"/><path class="cls-18" d="M442.61,206.55h0c.32.49.82.37,1.27.39a15.4,15.4,0,0,0-3.8-4.69,4.42,4.42,0,0,0,.76,2.13Z"/><path class="cls-19" d="M403.93,159.75h0c.05,2.13,2.43,2.8,2.93,4.64l.41.08h0C407,162.28,405,161.37,403.93,159.75Z"/><path class="cls-20" d="M406.85,212.84h0c-.86,1-2.38,1.23-2.92,2.58l.8,0a6.89,6.89,0,0,1,1.59-1.23C406.63,214.06,407.69,213.67,406.85,212.84Z"/><path class="cls-10" d="M446,167.78c-1.29.13-1.62,1.22-2.13,2.14h0C444.84,169.47,446.15,169.34,446,167.78Z"/><path class="cls-20" d="M417.48,106.91h0l-1.74-2.49h-1.15C415.8,105,415.55,107.21,417.48,106.91Z"/><path class="cls-21" d="M450.25,170.4h0c.18-1-.1-2.16.8-3h-1.13C449.94,168.42,449.45,169.49,450.25,170.4Z"/><path class="cls-22" d="M414.46,206.52c1.86-.15,2.2-.43,2.16-1.77h0l-.36.09h0C415.91,205.67,415,205.88,414.46,206.52Z"/><path class="cls-23" d="M433.66,156.3h0l.45-1.29h0l-1.23.06h0c0,.55-.05,1.11-.08,1.66Z"/><path class="cls-24" d="M442.61,206.55h0l-1.77-2.17A2,2,0,0,0,442.61,206.55Z"/><path class="cls-14" d="M430.69,164h0a6.82,6.82,0,0,0,.4,2.57h.46A2.83,2.83,0,0,0,430.69,164Z"/><path class="cls-25" d="M449.84,120.56h0l-1.22.44a2.91,2.91,0,0,1-.12.39h0C449.61,122.17,449.64,121.23,449.84,120.56Z"/><path class="cls-25" d="M409.43,154.17a1.22,1.22,0,0,0,1.26-1.29h0a2,2,0,0,0-.42,0h0Z"/><path class="cls-25" d="M392,168.21h0l-1.22.92a1,1,0,0,0,0,.3h0C391.56,169.44,391.92,169,392,168.21Z"/><path class="cls-27" d="M395.37,165.66h0a1.81,1.81,0,0,0-1.73,1.37C394.35,166.74,395.25,166.7,395.37,165.66Z"/><path class="cls-26" d="M395.36,165.67h0c.81-.29,1.92-.35,1.27-1.72h0c-.42.57-.85,1.14-1.27,1.72Z"/><path class="cls-28" d="M397.84,164.07a1.53,1.53,0,0,0,1-1.4h0l-1.33.86C397.5,163.79,397.54,164.19,397.84,164.07Z"/><path class="cls-26" d="M451.54,119.27h0c.81-.29,1.92-.34,1.27-1.71h0Z"/><path class="cls-29" d="M451.55,119.27h0c-.91,0-1.36.55-1.7,1.28h0a2.07,2.07,0,0,0,1.7-1.28Z"/><path class="cls-30" d="M446.24,170.8c-.95.68-1.86,1.4-2.79,2.09.08.83.44.94,1.06.43a7.1,7.1,0,0,1,2.77-1.7h0C447.21,171,447.45,169.94,446.24,170.8Z"/><path class="cls-31" d="M454.11,172.47c-1.3-.75-1.85,1.06-3,.86,1,1.15,2.09.84,3-.84l0,0Z"/><path class="cls-32" d="M449.86,172.86c-.26.1-.83.07-.5.53a.75.75,0,0,0,1.32-.06h0Z"/><path class="cls-33" d="M412,208.65c.72-.24,2.06.33,1.71-1.3h0C413.21,207.94,412.19,207.78,412,208.65Z"/><path class="cls-33" d="M409.39,210.77c.72-.24,2.06.34,1.72-1.3h0C410.66,210.06,409.64,209.91,409.39,210.77Z"/><path class="cls-34" d="M440.48,116.3c1.35.87,2.75.23,4.14,0Z"/><polygon class="cls-34" points="440.48 116.3 440.48 116.3 440.48 116.3 440.48 116.3"/><polygon class="cls-34" points="440.48 116.3 440.48 116.3 440.48 116.3 440.48 116.3"/><path class="cls-34" d="M436.76,116.3h3.72C439.26,115.49,438,116,436.76,116.3Z"/><path class="cls-34" d="M432.05,115.77h3.31v-.21h-3.27Z"/><path class="cls-26" d="M407.28,155.87h0a2,2,0,0,0,1.76-1.73h0A3.57,3.57,0,0,0,407.28,155.87Z"/><path class="cls-28" d="M407.3,155.87h0a1.84,1.84,0,0,0-1.72,1.34,2.36,2.36,0,0,0,1.73-1.33Z"/><path class="cls-35" d="M425.84,116.92c-1-1-1.27-2.49-2.79-2.89-.32,1.25,1.48,1.48,1.28,2.68h0C424.81,116.66,425.16,117.26,425.84,116.92Z"/><path class="cls-33" d="M417.5,107.3c.15.73.4,1.35,1.3,1.34h0C418.43,108.13,418.32,107.38,417.5,107.3Z"/><path class="cls-33" d="M419.63,109.86c.15.72.4,1.34,1.29,1.34h0C420.56,110.68,420.45,109.93,419.63,109.86Z"/><path class="cls-31" d="M432.8,156.73c-.17.35-.5.39-.83.42-.3,2.15-1.52,4.11-1.26,6.36h0c.44,0,1-.1,1-.56-.13-2.46,1.16-4.48,2-6.65h0Z"/><path class="cls-36" d="M395,149.51c-.38-.88-.45-2-1.77-2.11h0C393.84,148.12,394,149.17,395,149.51Z"/><circle class="cls-37" cx="296.76" cy="184.28" r="5.81" transform="translate(-34.4 73.11) rotate(-13.28)"/><circle class="cls-37" cx="300.51" cy="134.13" r="5.81" transform="translate(-17.61 49.87) rotate(-9.22)"/><polygon class="cls-38" points="121.14 105.55 121.14 105.55 121.14 105.55 121.14 105.55"/><path class="cls-38" d="M68.14,117.79c-1.13.69-.48,2.77-.33,2.81,3,.76.25,1.73.14,2.55h0c1.61-.09,3,.08,2.29,2.27l.55.37a2.2,2.2,0,0,1,2.41,0l1.49-.76h0c-.88-.39-1.28-.58-.25-1.55,2.4-2.26,5.36-1.75,8.16-2.07,1.85-1.89,1.92-4.6,3.15-6.77-.08-1.85-1.19-3.9,1.1-5.25-.19-.22-.38-.44-.56-.67-.58.22-1.22.48-1.57-.22-.09-.18.41-.65.64-1l0,0h0c-1.82.27-2.77-.16-1.75-2.16-.16-.52-.33-1-.49-1.57a4.61,4.61,0,0,1-.13-4.4l0-1.06c0-1.32-.15-2.62.71-3.85s1.41-.65,2.08,0c0-2.21,1.7-1.41,2.84-1.57h0c-.08-.39-1.09-1-.27-1s2.33-.63,2.89.89l.87.11h0c3.7-1.36,3.87-1.28,4.12,2a12.16,12.16,0,0,1,2.21,3.94c1.51,1.46.67,2.92,0,4.38l-.65,2.08c1.16,3.36-1.4,3.07-3.34,3.38a1.49,1.49,0,0,0-.61,1.9c.38,1.12.74,2.24,1.11,3.36a52.27,52.27,0,0,0,2,5.14,23.76,23.76,0,0,0,2.18,3.9h0l2.71.06,1-.09c.11-.87.17-2,1.38-.86a3,3,0,0,1,1.37,2.56h0l1.66-1.66h0c-.5-.12-1.2-.07-1.09-.85a1,1,0,0,1,.83-.51c.82.25.15.9.26,1.36h0c1.08,2.15,1,1.8,3.67.89,1.5-.5,1.92-2.92,4-2l0,0a7.09,7.09,0,0,1-1.08-4.81l-1.65-2.25c-.24-.36-.45-1-.73-1-.68-.09-1.34-.17-1-1,.36-1,1.13-.44,1.76-.2a14.58,14.58,0,0,1,1.75-4.1h0c.37-1,.86-1.89,2.19-1.24a.37.37,0,0,0,.49-.13h0c.84-1.5,2.17-.26,3.23-.57l1.28-1h0v0c-.61-.26-1.46-.11-1.66-1,0-.07.23-.28.37-.31,1.06-.19,1.07.66,1.29,1.31h0c1.79-1.82,1-4,.93-6.14-2.08-.13-3.4-.87-2.7-3.27l-.91-.08h0c-1.16-.25-2.47.78-3.5-.43l-1.11-1.15c-2.08-.28-2.11-1.61-1.66-3.19l-.55-1.21c-2.2-2.16-.26-2.32,1.29-2.68a7.64,7.64,0,0,0,2-2.83c-.6-1.63-1.65-3.13-1.61-5-.4.17-.83.56-1.24.23s-.06-.81.09-1.21c-1.43-1.35-2.85-2.76-5-1.34,0,1.31-.59,1.73-1.81,1.18-.4,0-.8.06-.92.54.52,3-1.47.89-2.3,1.14-3.67-.56-5.69-2.55-6-6.36-.1-1.2-1-2.34-1.49-3.5l-7.21.16c-.2.76-.41,1.52-.66,2.42l-1-1.44h0a2.44,2.44,0,0,0-.59,2.16h0c0,1,.31,2-.72,2.71-.6.45-.32,1.11-.38,1.68h0c.7,2.58-.81,2.09-2.29,1.63-2.57,1-4.61-.12-6.74-1.46-1.91-1.2-4.09-2.59-5.86.36h0c.23.43,1.05.94.53,1.31-2.13,1.5-2,3.73-2.16,5.88l.4.62h0c2-.55,1.49.67,1.18,1.73,1.38,2.61-1.24,4.2-1.61,6.36.44,1.75-.94,1-1.62,1.17h0c.11,1.6-.14,1.81-.64,1.24-.9-1-2-.52-3-.75L62.19,96l-.11.12c-1.66.77-.76,3.35-2.78,3.87a10.38,10.38,0,0,0,0,3.85c1.54.14,2.52.57,1.11,2.19h0c1.78.09,3.89.83,5.26.13,2.61-1.33,1.57,2.18,3.35,2.06.63-.05-1.29.71-.9,1.65.36,1.09.72,2.19,1.07,3.29C69.92,114.92,70.18,116.53,68.14,117.79Z"/><path class="cls-39" d="M68,123.15c.11-.82,2.91-1.79-.14-2.55-.15,0-.8-2.12.33-2.81,2-1.26,1.78-2.87,1.06-4.67A20.41,20.41,0,0,1,67,117.18C64.94,119.65,65.93,121.42,68,123.15Z"/><path class="cls-39" d="M110.92,123.9c-2.71.91-2.59,1.26-3.67-.89h0l-1.66,1.66h0c4.11,2.79,5.71,2.31,9.31-2.78C112.84,121,112.42,123.4,110.92,123.9Z"/><path class="cls-39" d="M74.7,125.05h0a6.46,6.46,0,0,0,2.8-2.11c.64-1,1,0,1.57.11h0l2.68,0,.86-1.57c-2.8.32-5.76-.19-8.16,2.07C73.42,124.47,73.82,124.66,74.7,125.05Z"/><path class="cls-40" d="M69.74,79.8c.52-.37-.3-.88-.53-1.31h0a15,15,0,0,0-1.22,1c-2.81,2.81-2.81,2.81-.41,6.17C67.76,83.53,67.61,81.3,69.74,79.8Z"/><path class="cls-41" d="M69,108.18c-1.78.12-.74-3.39-3.35-2.06-1.37.7-3.48,0-5.26-.13h0c2,1.25,5,.32,6.54,2.76a1.19,1.19,0,0,1,.78,1,1.23,1.23,0,0,1,.39.06C67.74,108.89,69.66,108.13,69,108.18Z"/><path class="cls-42" d="M122.07,99.4c0-1.84-.58-3.19-2.7-3.27C118.67,98.53,120,99.27,122.07,99.4Z"/><path class="cls-43" d="M85.76,114.66c1.12-1.59,2.32-3.17,1.1-5.25C84.57,110.76,85.68,112.81,85.76,114.66Z"/><path class="cls-39" d="M92.14,92.89h0l4.12,2C96,91.61,95.84,91.53,92.14,92.89Z"/><path class="cls-39" d="M85.8,94.51c-.67-.69-1.25-1.21-2.08,0S83.05,97,83,98.32l2.8-3.8h0Z"/><path class="cls-39" d="M114.93,121.84c2.07-2.15-.08-3.35-1.08-4.81A7.09,7.09,0,0,0,114.93,121.84Z"/><path class="cls-44" d="M113.36,79.59h0c0,1.84,1,3.34,1.61,5,1.93-2.44-.06-3.64-1.6-5Z"/><path class="cls-45" d="M97.83,105.32c-.7,1.53-2.48,2-3.34,3.38C96.43,108.39,99,108.68,97.83,105.32Z"/><path class="cls-46" d="M62.08,96.08c-2.69,0-3,1.79-2.78,3.87C61.32,99.43,60.42,96.85,62.08,96.08Z"/><path class="cls-39" d="M104.22,122.11c-1.21-1.1-1.27,0-1.38.86l2.75,1.7A3,3,0,0,0,104.22,122.11Z"/><path class="cls-47" d="M87.43,70.43l7.21-.16a12.38,12.38,0,0,0-8.28,0Z"/><path class="cls-48" d="M83.11,103.78a4.46,4.46,0,0,0-.13-4.4A4.61,4.61,0,0,0,83.11,103.78Z"/><path class="cls-49" d="M113.85,94.47a4.9,4.9,0,0,0-1.66-3.19C111.74,92.86,111.77,94.19,113.85,94.47Z"/><path class="cls-39" d="M68,123.16h0a4.9,4.9,0,0,0,2.29,2.27C70.92,123.24,69.57,123.07,68,123.16Z"/><path class="cls-49" d="M111.64,90.07l1.29-2.68C111.38,87.75,109.44,87.91,111.64,90.07Z"/><path class="cls-45" d="M110.42,112.78c-.29.81.37.89,1,1,.28,0,.49.66.73,1l0-2.2C111.55,112.34,110.78,111.78,110.42,112.78Z"/><path class="cls-41" d="M59.31,103.8c-.07,1-.08,1.87,1.11,2.19C61.83,104.37,60.85,103.94,59.31,103.8Z"/><path class="cls-43" d="M85.35,107.51h0l-1.74-2.16C82.58,107.35,83.53,107.78,85.35,107.51Z"/><path class="cls-46" d="M65.28,96.8c.5.57.75.36.64-1.24-1.21,0-2.49-.33-3.6.49C63.3,96.28,64.38,95.77,65.28,96.8Z"/><path class="cls-39" d="M88.38,91.89c-.82.08.19.66.27,1h0l2.62-.16C90.71,91.26,89.28,91.8,88.38,91.89Z"/><path class="cls-45" d="M84.1,78h0l-2.29,1.63C83.29,80.05,84.8,80.54,84.1,78Z"/><path class="cls-50" d="M92.65,68.79H88.24v.27h4.41Z"/><path class="cls-45" d="M98.47,98.86v4.38C99.14,101.78,100,100.32,98.47,98.86Z"/><path class="cls-48" d="M122.85,100.26V104l.27-.11v-3.63Z"/><path class="cls-45" d="M87.43,70.43l-1.07-.11a.84.84,0,0,0-.57,1.09h0l1,1.44C87,72,87.23,71.19,87.43,70.43Z"/><path class="cls-51" d="M67,108.75c-.69.16-1.25.66-.89,1.28.58,1,1.09-.24,1.67-.26A1.19,1.19,0,0,0,67,108.75Z"/><path class="cls-39" d="M85.8,94.51h0l2.83-1.58C87.5,93.1,85.81,92.3,85.8,94.51Z"/><path class="cls-44" d="M104.45,79l-2.3,1.14C103,79.88,105,82,104.45,79Z"/><path class="cls-42" d="M118.46,96.05h0a5.17,5.17,0,0,0-3.5-.43C116,96.83,117.3,95.8,118.46,96.05Z"/><path class="cls-40" d="M68,86.3h0L69.16,88C69.47,87,70,85.75,68,86.3Z"/><path class="cls-42" d="M116.61,107.11h0c1.08-.19,2.3.42,3.23-.57C118.78,106.85,117.45,105.61,116.61,107.11Z"/><path class="cls-46" d="M67.55,94.39c-.87-.06-1.18.64-1.62,1.17C66.61,95.37,68,96.14,67.55,94.39Z"/><path class="cls-42" d="M113.93,108.48h0l2.19-1.24C114.79,106.59,114.3,107.43,113.93,108.48Z"/><path class="cls-43" d="M86.3,108.74c.06-.69-.44-.94-.93-1.21-.23.34-.73.81-.64,1C85.08,109.22,85.72,109,86.3,108.74Z"/><path class="cls-44" d="M112.11,79.82c.41.33.84-.06,1.24-.23h0c-.24-.51-.49-1-1.16-1C112.05,79,111.64,79.46,112.11,79.82Z"/><path class="cls-44" d="M107.18,77.27a3.3,3.3,0,0,0-1.81,1.18C106.59,79,107.18,78.58,107.18,77.27Z"/><path class="cls-39" d="M70.8,125.8a1.63,1.63,0,0,0,2.41,0A2.2,2.2,0,0,0,70.8,125.8Z"/><path class="cls-52" d="M99.13,123c.88,1,1.79.65,2.71.06L99.13,123Z"/><path class="cls-53" d="M79.07,123.05c.9.64,1.8,1.13,2.68,0l-2.68,0Z"/><path class="cls-45" d="M85.2,73.57h0c-.74.77-.47,1.81-.72,2.71C85.51,75.58,85.15,74.52,85.2,73.57Z"/><path class="cls-39" d="M107,121.65a1,1,0,0,0-.83.51c-.11.78.59.73,1.09.85C107.14,122.55,107.81,121.9,107,121.65Z"/><polygon class="cls-39" points="107.25 123.01 107.25 123.01 107.25 123.01 107.25 123.01 107.25 123.01"/><path class="cls-42" d="M121.12,105.54v0h0Z"/><path class="cls-42" d="M119.83,104.23c-.14,0-.39.24-.37.31.2.89,1.05.74,1.66,1C120.9,104.89,120.89,104,119.83,104.23Z"/><path class="cls-38" d="M118.85,197.91h0c.88-1.4,2.43-2.52,2.42-4.31,0-6.25-5.52-10.91-11.18-7.95a8.57,8.57,0,0,1-3,1c-.84.4-1.42-.13-2-.55h0l-1.17-2.88-1-2.43a1.59,1.59,0,0,1-.89-1.19h0l-.69-.57c-1-1.33-.56-2.68,0-4,.12-.66.23-1.31.37-2a8.8,8.8,0,0,1,1.27-3.23,3.63,3.63,0,0,1,3.12-1.94h0a6.54,6.54,0,0,0,2.52-2.35c-.13-1.58,1.6-2.61,1.18-4.36a7.37,7.37,0,0,1-.38-3.34c-2-4.17-6.65-5.64-10.29-3.27-1.71,1.13-2.67,2.91-3.83,4.52h-.12L95,159c0,1.27,0,2.55,0,3.82h0A10.85,10.85,0,0,0,97,166.45a4,4,0,0,1,.74,1.16,4.12,4.12,0,0,1,0,2.69c-.43,1.52-1,3-1.37,4.53a15.33,15.33,0,0,0-.36,1.79,1.39,1.39,0,0,1-1,1.17,13,13,0,0,1-1.74.33c-.59.12-1.36.18-1.12-.89-.94-.13-.72-.89-.72-1.44,0-1.91,0-3.83,0-5.74h0c-1.37-3.4-4.14-4.91-7.52-5.61a2.81,2.81,0,0,1-1.63.31h0A8.24,8.24,0,0,0,77.06,169c-.08.61-.14,1.23-.26,1.83a7.43,7.43,0,0,0,1.41,6.09h0l.43.42a4.29,4.29,0,0,1,2.23,1.53h0a8.58,8.58,0,0,0,5,1c1.28,0,2.79.15,3,1.66a12.4,12.4,0,0,1-.52,4.8c-.36,1.2-1.9,1-2.93,1.35-1.46.5-2.64-.35-3.8-1.1l-3.48-1.17a26.25,26.25,0,0,0-3.08.8c-5.32,2.08-5.71,5.86-4,10.47,1.1,2.92,4.07,4.29,7.48,3.86,2.93-.37,5.16-1.78,6.18-4.55.66-1.79,1.19-3.52,3-4.5,0-.41-.15-.93.6-.9s1.62-.05,2.44-.05a1.67,1.67,0,0,1,1.91,1.61,40.9,40.9,0,0,1,.09,10.37,10.54,10.54,0,0,0-.06,2.63,1.52,1.52,0,0,1-1.12,1.9A2.13,2.13,0,0,1,90,209.2c-.92.37-1.44,1.14-2.27,1.53h0l-.37.39c-.38,1.34-.67,2.74-2.13,3.4h0l-.47,2a18.67,18.67,0,0,1,0,4.42l.67,1.91c1.17.39.84,1.51,1.12,2.33h0a1.52,1.52,0,0,1,1.13,1.62l.22.61h0a8.06,8.06,0,0,1,.72.59,12.86,12.86,0,0,0,14.91,2.29,11,11,0,0,0,5.48-7.43,30.47,30.47,0,0,0,0-8.37c-1-1.39-1.15-3.19-2.22-4.54a2.24,2.24,0,0,1-1.61-1.28h0c-2.4-.92-4.12-2.51-4.28-5.17a70,70,0,0,1,.07-10.93h0l0-.13c.09-1.34.87-2.28,2.13-2.11s2.75.93,2.79,2.61a7,7,0,0,0,3.45,5.93l4.22,1.15,2.93-.68ZM86,173.37a2.31,2.31,0,0,1-3.13.87c-.85-.46-2.11-.76-1.44-2.25h0c.21-.65.51-1.19,1.33-1.1a1.94,1.94,0,0,1,2.83-.1A2,2,0,0,1,86,173.37Zm-8.6,22.3a3,3,0,0,1-1.91-3c0-1.2.91-1.65,2.48-1.57a1.86,1.86,0,0,1,1.79,2.16C79.73,194.27,78.26,195.94,77.43,195.67Zm23.86-35.73c.45-.28.43-1.09,1.16-1.11h0a1.38,1.38,0,0,1,1.52,1c1.32,1,.74,2-.14,2.83s-1.9,1.09-2.82.07S100,160.78,101.29,159.94Zm-4.7,22.75A2.49,2.49,0,0,1,98.74,185a2.56,2.56,0,0,1-2.54,2.36,1.94,1.94,0,0,1-2-2C94.12,184.16,95.58,182.45,96.59,182.69ZM101.68,219c.09,2-2.69,5-4.67,5s-4.6-2.82-4.67-4.85,2.55-4.84,4.73-5C98.94,214,101.57,216.75,101.68,219Zm11.52-24.27c-.81-.37-2.18.12-2.16-1.52a2.84,2.84,0,0,1,2.44-3c.91,0,2.7,1.7,2.46,2.54A2.84,2.84,0,0,1,113.2,194.68Z"/><path class="cls-38" d="M91.46,206.9l.13.08-.13-.08Z"/><path class="cls-54" d="M91.46,206.9l.13.08a1.52,1.52,0,0,0,1.12-1.9,10.54,10.54,0,0,1,.06-2.63,40.9,40.9,0,0,0-.09-10.37,1.67,1.67,0,0,0-1.91-1.61c-.82,0-1.63.07-2.44.05s-.58.49-.6.9c1-.1,1.94-.62,3-.28a.92.92,0,0,1,1.25.6h0a2.44,2.44,0,0,1,.45,2c0,3.91-.12,7.81-.19,11.72h0C92.45,206.16,91.62,206.36,91.46,206.9Z"/><path class="cls-55" d="M109.75,161.16c.42,1.75-1.31,2.78-1.18,4.36,1.9-1.8,2.19-4.6.8-7.7A7.37,7.37,0,0,0,109.75,161.16Z"/><path class="cls-56" d="M109,222.89a11,11,0,0,0,0-8.37h0A30.47,30.47,0,0,1,109,222.89Z"/><path class="cls-54" d="M91.59,207l-.13-.08-2.24,1.72h0c-.41.78-1.44,1.1-1.53,2.11h0c.83-.39,1.35-1.16,2.27-1.53A2.13,2.13,0,0,0,91.59,207Z"/><path class="cls-57" d="M100.92,192.59v9.22c.17-3.12.94-6.25,0-9.35l0,.13Z"/><path class="cls-58" d="M78.21,176.88h0a7.43,7.43,0,0,1-1.41-6.09c.12-.6.18-1.22.26-1.83l-.79,1.89h0l0,3.84h0l.77,1.38h0Z"/><path class="cls-59" d="M99.08,154.55c-2.55.43-3.34,2.34-3.83,4.52C96.41,157.46,97.37,155.68,99.08,154.55Z"/><path class="cls-60" d="M91.41,175.79c0,.55-.22,1.31.72,1.44a13.5,13.5,0,0,1-.26-3.53c-.11-1.22.4-2.51-.42-3.65h0C91.43,172,91.39,173.88,91.41,175.79Z"/><path class="cls-54" d="M87.32,211.12a4.83,4.83,0,0,0-2.13,3.4h0C86.65,213.86,86.94,212.46,87.32,211.12Z"/><path class="cls-61" d="M84.71,216.54a1.85,1.85,0,0,0-.11-.54c-.1-.21-.32-.22-.3.05.15,1.64-.47,3.34.41,4.91A18.67,18.67,0,0,0,84.71,216.54Z"/><path class="cls-62" d="M91.46,206.9h0c.16-.54,1-.74.76-1.48h0a10.53,10.53,0,0,0-3,3.2h0Z"/><path class="cls-63" d="M101.29,175c-.53,1.35-1,2.7,0,4l0-4Z"/><path class="cls-64" d="M109.33,198.89a4.7,4.7,0,0,0,4.22,1.15h0Z"/><path class="cls-65" d="M78.14,185.34h0l3.48,1.17C80.76,185.24,79.46,185.26,78.14,185.34Z"/><path class="cls-66" d="M102.93,169.81l1-.46a2.6,2.6,0,0,1,1.55-.92h0c.18-.19.36-.37.53-.56h0A3.63,3.63,0,0,0,102.93,169.81Z"/><path class="cls-67" d="M95,162.86c0-1.27,0-2.55,0-3.82a3.42,3.42,0,0,0-.08,3.63c0,.06.06.12.1.19Z"/><path class="cls-68" d="M85.38,222.87a2.42,2.42,0,0,0,1.12,2.33h0C86.22,224.38,86.55,223.26,85.38,222.87Z"/><path class="cls-69" d="M116.48,199.36c1.26.28,1.87-.5,2.37-1.45h0Z"/><path class="cls-58" d="M78.64,177.3c0,.15-.07.31-.11.46h0c.85.2,1.33,1.22,2.34,1.07h0A4.29,4.29,0,0,0,78.64,177.3Z"/><path class="cls-70" d="M76.27,170.85h0a4.75,4.75,0,0,0,0,3.84h0Z"/><path class="cls-71" d="M107.08,186.66a1.53,1.53,0,0,0-2-.55h0C105.66,186.53,106.24,187.06,107.08,186.66Z"/><path class="cls-72" d="M78.64,177.3l-.43-.42h0l-1.14-.81h0a1.82,1.82,0,0,0,1.46,1.69h0C78.57,177.61,78.61,177.45,78.64,177.3Z"/><path class="cls-73" d="M106.74,210c-.5-.47-.71-1.31-1.61-1.29h0A2.24,2.24,0,0,0,106.74,210Z"/><path class="cls-68" d="M87.62,226.82a1.52,1.52,0,0,0-1.13-1.62c.13.35.25.7.37,1.05Z"/><path class="cls-74" d="M86.86,226.25c-.2.83.49.92,1,1.19h0l-.22-.61Z"/><path class="cls-75" d="M102,179.6h0a1.59,1.59,0,0,0,.89,1.19C103.15,180,102.48,179.86,102,179.6Z"/><path class="cls-76" d="M90.71,191.14c.22.61.75.58,1.25.6h0A.92.92,0,0,0,90.71,191.14Z"/><path class="cls-77" d="M104,169.35c.7,0,1.31-.14,1.55-.92h0A2.6,2.6,0,0,0,104,169.35Z"/><path class="cls-78" d="M83.93,164.44c-.68-.6-1.15-.1-1.63.31h0A2.81,2.81,0,0,0,83.93,164.44Z"/><path class="cls-79" d="M97.07,214.13c-2.18.15-4.8,2.92-4.73,5S95.14,224,97,224s4.76-3,4.67-5C101.57,216.75,98.94,214,97.07,214.13Z"/><path class="cls-80" d="M113.48,190.16a2.84,2.84,0,0,0-2.44,3c0,1.64,1.35,1.15,2.16,1.52a2.84,2.84,0,0,0,2.74-2C116.18,191.86,114.39,190.12,113.48,190.16Z"/><path class="cls-81" d="M96.2,187.33A2.56,2.56,0,0,0,98.74,185a2.49,2.49,0,0,0-2.15-2.28c-1-.24-2.47,1.47-2.41,2.66A1.94,1.94,0,0,0,96.2,187.33Z"/><path class="cls-82" d="M82.79,170.89a2.46,2.46,0,0,1-1.32,1.1h0c-.67,1.49.59,1.79,1.44,2.25a2.31,2.31,0,0,0,3.13-.87,2,2,0,0,0-.41-2.58A1.94,1.94,0,0,0,82.79,170.89Z"/><path class="cls-83" d="M78,191.07c-1.57-.08-2.53.37-2.48,1.57a3,3,0,0,0,1.91,3c.83.27,2.3-1.4,2.36-2.44A1.86,1.86,0,0,0,78,191.07Z"/><path class="cls-80" d="M101,162.76c.92,1,2,.76,2.82-.07s1.46-1.82.14-2.83c-.69-.06-1.08-.57-1.52-1h0c-.73,0-.71.83-1.16,1.11C100,160.78,100.13,161.78,101,162.76Z"/><path class="cls-84" d="M104,159.86a1.38,1.38,0,0,0-1.52-1h0C102.89,159.29,103.28,159.8,104,159.86Z"/><path class="cls-85" d="M82.79,170.89c-.82-.09-1.12.45-1.33,1.1h0A2.46,2.46,0,0,0,82.79,170.89Z"/></g></g></svg>