<svg xmlns="http://www.w3.org/2000/svg" width="40" height="40" viewBox="0 0 280.13 328.09"><defs><style>.cls-1{fill:#004684;}.cls-2,.cls-7{fill:#fff;}.cls-3{fill:#f1eddd;}.cls-4{fill:#2b2b2b;}.cls-5{fill:#d9d9d9;}.cls-6{fill:#a6a6a6;}.cls-7{font-size:19.86px;font-family:Montserrat-Bold, Montserrat;font-weight:700;}</style></defs><title>Asset 1</title><g id="Layer_2" data-name="Layer 2"><g id="Layer_1-2" data-name="Layer 1"><path class="cls-1" d="M579.84,273.5a40.94,40.94,0,0,1,40.95-40.94l.55,0V151.94a18.25,18.25,0,0,0-18.21-18.22h-94a28.48,28.48,0,1,1-56.34,0h-93.4a18.25,18.25,0,0,0-18.22,18.22v80.62a40.95,40.95,0,1,1,0,81.89v81.18a18.25,18.25,0,0,0,18.22,18.22h93.51a28.48,28.48,0,1,1,56.12,0h94.07a18.25,18.25,0,0,0,18.21-18.22v-81.2l-.55,0A40.94,40.94,0,0,1,579.84,273.5Zm-142.4-96.45a8.66,8.66,0,0,1,8.64-8.64h70a8.66,8.66,0,0,1,8.64,8.64v70.58a8.66,8.66,0,0,1-8.64,8.64h-70a8.66,8.66,0,0,1-8.64-8.64Zm-45.38,179.1H372.21V345.38h0V320.93h0V310.15h19.85Zm166.89-14H524.9v3.21h0v3.16H437.06v-6.37H403.24v-1.22h0v-.25H403V272.08h.2v-2.77H559Z" transform="translate(-341.21 -109.4)"/><path class="cls-1" d="M481,166.35a28.44,28.44,0,1,0-28.48-28.48A28.48,28.48,0,0,0,481,166.35Zm0-49a20.51,20.51,0,1,1-20.51,20.51A20.51,20.51,0,0,1,481,117.36Z" transform="translate(-341.21 -109.4)"/><path class="cls-1" d="M481,380.53A28.45,28.45,0,1,0,509.48,409,28.48,28.48,0,0,0,481,380.53Zm0,49A20.51,20.51,0,1,1,501.51,409,20.51,20.51,0,0,1,481,429.52Z" transform="translate(-341.21 -109.4)"/><path class="cls-2" d="M446.08,256.27h70a8.66,8.66,0,0,0,8.64-8.64V177.05a8.66,8.66,0,0,0-8.64-8.64h-70a8.66,8.66,0,0,0-8.64,8.64v70.58A8.66,8.66,0,0,0,446.08,256.27ZM481,191.54a20.51,20.51,0,1,1-20.51,20.51A20.51,20.51,0,0,1,481,191.54Z" transform="translate(-341.21 -109.4)"/><polygon class="cls-3" points="62.02 162.93 62.02 162.69 61.83 162.69 61.83 231.24 62.01 231.24 62.01 162.93 62.02 162.93"/><circle class="cls-4" cx="139.79" cy="102.66" r="20.51"/><polygon class="cls-2" points="31 211.54 50.84 211.54 50.84 235.98 31 235.98 31 246.75 50.84 246.75 50.84 200.76 31 200.76 31 211.54"/><polygon class="cls-4" points="50.84 211.54 31 211.54 30.99 211.54 30.99 235.98 31 235.98 50.84 235.98 50.84 211.54"/><polygon class="cls-3" points="62.02 162.93 62.01 162.93 62.01 231.24 62.01 231.49 62.02 231.49 62.02 162.93"/><rect class="cls-1" x="183.66" y="232.71" width="0.02" height="3.21"/><polygon class="cls-3" points="62.02 162.69 62.02 162.93 62.02 231.49 62.02 232.71 95.85 232.71 95.85 222.97 72.27 222.97 72.27 169.71 207.34 169.71 207.34 222.97 183.66 222.97 183.66 232.72 183.68 232.72 217.74 232.72 217.74 159.92 62.02 159.92 62.02 162.69"/><path class="cls-5" d="M426.73,332.36v-11h0V311.33H535.29V321.4h0v11h13.26V279.1H413.48v53.26h13.25ZM537.88,291V309H519.8V291Zm-32.06,0V309H487.75V291Zm-50.15,0h18.07V309H455.67Zm-31.86,0h18.07V309H423.81Z" transform="translate(-341.21 -109.4)"/><rect class="cls-6" x="178.59" y="181.57" width="18.07" height="18.07"/><rect class="cls-6" x="146.53" y="181.57" width="18.07" height="18.07"/><rect class="cls-6" x="114.45" y="181.57" width="18.07" height="18.07"/><rect class="cls-6" x="82.59" y="181.57" width="18.07" height="18.07"/><polygon class="cls-1" points="183.66 222.97 183.66 222.96 95.85 222.96 95.85 222.97 95.85 232.71 95.85 239.08 183.66 239.08 183.66 235.92 183.66 232.72 183.66 222.97"/><polygon class="cls-3" points="194.07 222.96 194.07 212 85.52 212 85.52 222.96 95.85 222.96 183.66 222.96 194.07 222.96"/><polygon class="cls-5" points="194.07 212 194.07 201.93 85.5 201.93 85.5 212 85.52 212 194.07 212 194.07 212"/><text class="cls-7" transform="translate(98.76 271.12) rotate(-90)">S</text><text class="cls-7" transform="translate(98.76 258.33) rotate(-90)">I</text><text class="cls-7" transform="translate(98.76 252.02) rotate(-90)">G</text><text class="cls-7" transform="translate(130.98 270.23) rotate(-90)">N</text><text class="cls-7" transform="translate(130.98 254.62) rotate(-90)">C</text><text class="cls-7" transform="translate(164.96 279.3) rotate(-90)">V</text><text class="cls-7" transform="translate(164.96 264.82) rotate(-90)">C</text><text class="cls-7" transform="translate(164.96 251.08) rotate(-90)">C</text><text class="cls-7" transform="translate(196.72 281.07) rotate(-90)">G</text><text class="cls-7" transform="translate(196.72 266.31) rotate(-90)">N</text><text class="cls-7" transform="translate(196.72 250.71) rotate(-90)">D</text></g></g></svg>