<svg xmlns="http://www.w3.org/2000/svg" width="40" height="80" viewBox="0 0 336.53 523.79"><defs><style>.cls-1{font-size:34.75px;}.cls-1,.cls-11,.cls-12,.cls-3{fill:#fff;}.cls-1,.cls-11,.cls-12{font-family:Montserrat-Bold, Montserrat;font-weight:700;}.cls-2{fill:#004684;}.cls-4{fill:#f1eddd;}.cls-5{fill:#d9d9d9;}.cls-6{fill:#a6a6a6;}.cls-7{fill:#2b2b2b;}.cls-8{fill:#737373;}.cls-9{fill:#af9276;}.cls-10{fill:#f6e089;}.cls-11{font-size:34.75px;}.cls-12{font-size:19.86px;}</style></defs><title>Asset 2</title><g id="Layer_2" data-name="Layer 2"><g id="Layer_1-2" data-name="Layer 1"><text class="cls-1" transform="translate(188.96 291.45)">+</text><path class="cls-2" d="M592.31,145.45a41,41,0,0,1,29-39.18V25.36H509.48a28.49,28.49,0,0,1-15.76,25.46h2.64V73c1.2.19,2.41.4,3.6.64,1.56.31,3.1.65,4.64,1s3.06.81,4.58,1.27,3,1,4.5,1.49,3,1.1,4.44,1.7,2.91,1.25,4.34,1.93,2.84,1.39,4.24,2.13,2.77,1.53,4.13,2.34,2.7,1.67,4,2.55,2.61,1.79,3.89,2.73,2.52,1.92,3.74,2.92,2.42,2,3.6,3.1,2.32,2.16,3.44,3.28,2.21,2.26,3.27,3.44,2.1,2.37,3.1,3.59,2,2.48,2.92,3.75,1.86,2.56,2.74,3.88,1.72,2.65,2.54,4,1.59,2.74,2.34,4.13,1.46,2.81,2.13,4.25,1.32,2.88,1.93,4.34,1.17,2.94,1.71,4.43,1,3,1.49,4.51.88,3,1.26,4.58.74,3.08,1,4.63.57,3.11.81,4.68.42,3.14.58,4.71.27,3.16.35,4.74.11,3.16.11,4.74,0,3.17-.11,4.75-.2,3.16-.35,4.74-.35,3.15-.58,4.71-.51,3.13-.81,4.68-.66,3.1-1,4.63-.8,3.07-1.26,4.58-1,3-1.49,4.51-1.1,3-1.71,4.43-1.25,2.91-1.93,4.34-1.38,2.85-2.13,4.24-1.53,2.78-2.34,4.14-1.66,2.69-2.54,4c-.57.85-1.17,1.67-1.76,2.5h30.1v40.58H496.34v10.66a1.94,1.94,0,0,1-1.92,1.93H468.71a1.93,1.93,0,0,1-1.92-1.93V265.41h-93V224.83H402.4c-.59-.83-1.19-1.65-1.76-2.5-.88-1.32-1.73-2.65-2.54-4s-1.6-2.74-2.34-4.14-1.46-2.81-2.14-4.24-1.32-2.88-1.92-4.34-1.18-2.94-1.71-4.43-1-3-1.49-4.51-.88-3-1.27-4.58-.73-3.08-1-4.63-.58-3.11-.81-4.68-.43-3.14-.58-4.71-.27-3.16-.35-4.74-.12-3.16-.12-4.75,0-3.16.12-4.74.19-3.16.35-4.74.35-3.15.58-4.71.5-3.13.81-4.68.66-3.1,1-4.63.81-3.07,1.27-4.58,1-3,1.49-4.51,1.1-3,1.71-4.43,1.25-2.91,1.92-4.34,1.39-2.85,2.14-4.25,1.52-2.77,2.34-4.13,1.66-2.69,2.54-4,1.79-2.61,2.73-3.88,1.92-2.52,2.93-3.75,2-2.42,3.1-3.59,2.15-2.32,3.27-3.44,2.27-2.21,3.44-3.28,2.37-2.09,3.6-3.1,2.47-2,3.74-2.92S426,89,427.33,88.13s2.66-1.73,4-2.55,2.73-1.59,4.13-2.34,2.81-1.45,4.24-2.13,2.88-1.32,4.34-1.93,2.94-1.17,4.43-1.7,3-1,4.51-1.49,3-.89,4.58-1.27,3.08-.73,4.63-1,3-.56,4.53-.79V50.82h1.54a28.49,28.49,0,0,1-15.76-25.46H341.21v81.09a40.94,40.94,0,0,1,0,78V387.89a28.48,28.48,0,0,1,0,57v75.8h97.64V505.26H405.36V434.63h33.06v-6.19h85.2v6.19h32.82v70.63H524.37v15.39h97V436.87h-.55a28.48,28.48,0,1,1,0-56.95h.55V184.63A41,41,0,0,1,592.31,145.45ZM432.83,353.84h-43.5V335.07h43.5Zm1.73-39.17H422.79v3.07H403.93V301.68H390.87V290.06h13.06V274h18.86v3h11.38v11.61H422.79v14.43h11.77Zm82,6.93h-6.12v6.49H516v5.66h-5.58v5.41h6.12v5.66h-6.12v5.85h6.12v5.66h-6.12v5.6H455.35v-5.6h-6.7v-5.66h6.7v-5.85h-6.7v-5.66h6.7v-5.41h-7.24v-5.66h7.24V321.6h-6.7v-5.66h6.7v-6h55.08v6h6.12Zm47.9,36.55H545.68V348h0V324.84h0V314.65h18.77Z" transform="translate(-312.74 3.14)"/><path class="cls-2" d="M468.28,50.82h25.44a28.49,28.49,0,0,0,15.76-25.46v0a28.48,28.48,0,0,0-57,0v0A28.49,28.49,0,0,0,468.28,50.82Zm-7.79-25.48A20.51,20.51,0,1,1,481,45.85,20.51,20.51,0,0,1,460.49,25.34Z" transform="translate(-312.74 3.14)"/><rect class="cls-3" x="126.11" y="508.39" width="1.33" height="4.12"/><path class="cls-2" d="M592.31,408.4a28.47,28.47,0,0,0,28.48,28.48h.55a28.47,28.47,0,0,0,0-56.93h-.55A28.46,28.46,0,0,0,592.31,408.4Zm49,0a20.51,20.51,0,1,1-20.5-20.51A20.5,20.5,0,0,1,641.29,408.4Z" transform="translate(-312.74 3.14)"/><path class="cls-2" d="M369.69,416.37a28.48,28.48,0,1,0-28.48,28.48A28.47,28.47,0,0,0,369.69,416.37Zm-28.48,20.51a20.51,20.51,0,1,1,20.51-20.51A20.5,20.5,0,0,1,341.21,436.88Z" transform="translate(-312.74 3.14)"/><polygon class="cls-4" points="211.64 508.39 243.7 508.39 243.7 437.76 210.88 437.76 210.88 447.22 220.91 447.22 233.77 447.22 233.77 498.89 102.72 498.89 102.72 447.22 115.59 447.22 125.68 447.22 125.68 437.76 92.62 437.76 92.62 508.39 126.11 508.39 127.44 508.39 211.64 508.39"/><path class="cls-5" d="M533.65,454.72h0v9.77H428.32v-9.77h0V444.09H415.45v51.67H546.51V444.09H533.65Zm2.84,12v17.54H519V466.72ZM425.81,484.26V466.72h17.54v17.54Zm31.11,0V466.72h17.53v17.54Zm31.12,0V466.72h17.54v17.54Z" transform="translate(-312.74 3.14)"/><polygon class="cls-6" points="130.61 474.17 130.61 469.91 130.61 469.86 113.08 469.86 113.08 469.91 113.08 474.17 113.08 487.39 130.61 487.39 130.61 474.17"/><polygon class="cls-6" points="161.72 474.17 161.72 469.91 161.72 469.86 144.18 469.86 144.18 469.91 144.18 474.17 144.18 487.39 161.72 487.39 161.72 474.17"/><polygon class="cls-6" points="192.84 474.17 192.84 469.91 192.84 469.86 175.3 469.86 175.3 469.91 175.3 474.17 175.3 487.39 192.84 487.39 192.84 474.17"/><polygon class="cls-6" points="206.22 469.86 206.22 469.91 206.22 474.17 206.22 487.39 223.75 487.39 223.75 474.17 223.75 469.91 223.75 469.86 206.22 469.86"/><polygon class="cls-2" points="125.68 447.22 210.88 447.22 210.88 437.76 210.88 431.58 125.68 431.58 125.68 437.76 125.68 447.22"/><polygon class="cls-4" points="125.68 447.22 115.59 447.22 115.59 457.86 220.91 457.86 220.91 447.22 210.88 447.22 125.68 447.22"/><polygon class="cls-5" points="115.59 457.86 115.59 457.91 115.59 462.17 115.59 467.63 220.93 467.63 220.93 462.17 220.93 457.91 220.93 457.86 220.91 457.86 115.59 457.86 115.59 457.86"/><rect class="cls-6" x="197.69" y="331.22" width="5.58" height="5.66"/><rect class="cls-6" x="135.37" y="331.22" width="7.25" height="5.66"/><rect class="cls-6" x="135.91" y="342.29" width="6.71" height="5.66"/><rect class="cls-6" x="197.69" y="342.29" width="6.12" height="5.66"/><rect class="cls-6" x="135.91" y="353.8" width="6.71" height="5.66"/><rect class="cls-6" x="197.69" y="353.8" width="6.12" height="5.66"/><rect class="cls-6" x="135.91" y="319.08" width="6.71" height="5.66"/><rect class="cls-6" x="197.69" y="319.08" width="6.12" height="5.66"/><polygon class="cls-7" points="197.69 313.09 142.62 313.09 142.62 319.08 142.62 324.74 142.62 331.23 142.62 336.88 142.62 342.29 142.62 347.95 142.62 353.81 142.62 359.46 142.62 365.07 197.69 365.07 197.69 359.46 197.69 353.81 197.69 347.95 197.69 342.29 197.69 336.88 197.69 331.23 197.69 324.74 197.69 319.08 197.69 313.09"/><path class="cls-8" d="M555.88,230c-1,1.22-2,2.42-3.1,3.59s-2.16,2.32-3.27,3.44-2.23,2.17-3.38,3.21h30.34v10.06H532.89c-.69.44-1.36.89-2.06,1.3-1.36.82-2.73,1.6-4.13,2.35s-2.81,1.45-4.24,2.13-2.88,1.32-4.34,1.93-2.94,1.17-4.44,1.7-3,1-4.5,1.49-3.05.89-4.58,1.27-3.08.73-4.64,1c-1.2.24-2.41.45-3.62.64v1.3h93.54V224.83h-30.1c-.33.46-.64.93-1,1.38Q557.39,228.11,555.88,230Z" transform="translate(-312.74 3.14)"/><path class="cls-8" d="M462.21,263.47c-1.55-.31-3.09-.65-4.63-1s-3.06-.81-4.58-1.27-3-1-4.51-1.49-3-1.1-4.43-1.7-2.91-1.25-4.34-1.93-2.85-1.39-4.24-2.13-2.78-1.53-4.13-2.35c-.7-.41-1.38-.86-2.06-1.3H387.68V240.2H416q-1.73-1.56-3.37-3.21c-1.12-1.12-2.21-2.26-3.27-3.44s-2.1-2.37-3.1-3.59-2-2.48-2.93-3.75c-.33-.45-.64-.92-1-1.38H373.82v40.58h93v-1.14C465.26,264,463.73,263.77,462.21,263.47Z" transform="translate(-312.74 3.14)"/><path class="cls-8" d="M497.91,83.06c1.38.28,2.76.59,4.13.93s2.73.72,4.08,1.13,2.69.85,4,1.33,2.64,1,3.94,1.52,2.6,1.11,3.87,1.72,2.54,1.23,3.78,1.9,2.47,1.36,3.69,2.08,2.4,1.48,3.57,2.27,2.33,1.6,3.46,2.44,2.25,1.7,3.34,2.6,2.16,1.82,3.2,2.76,2.07,1.92,3.07,2.92,2,2,2.91,3.07,1.87,2.11,2.77,3.2,1.76,2.2,2.6,3.34,1.65,2.28,2.44,3.46,1.54,2.36,2.26,3.57,1.42,2.44,2.09,3.68,1.3,2.51,1.9,3.78,1.18,2.57,1.72,3.87,1,2.62,1.52,4,.92,2.67,1.33,4,.78,2.71,1.13,4.08.65,2.74.92,4.13.52,2.77.73,4.17.38,2.79.51,4.2.25,2.81.32,4.22.1,2.82.1,4.23,0,2.82-.1,4.23-.18,2.82-.32,4.22-.31,2.8-.51,4.2-.45,2.79-.73,4.17-.58,2.76-.92,4.13-.72,2.73-1.13,4.08-.85,2.69-1.33,4-1,2.64-1.52,3.94-1.12,2.6-1.72,3.87-1.24,2.54-1.9,3.78-1.36,2.48-2.09,3.69-1.48,2.4-2.26,3.57-1.6,2.33-2.44,3.46-1.71,2.25-2.6,3.34-1.82,2.16-2.77,3.2-1.92,2.07-2.91,3.07-2,2-3.07,2.91-2.11,1.87-3.2,2.77-2.21,1.76-3.34,2.6-2.29,1.66-3.46,2.44l-1.39.88h18.53q1.73-1.56,3.38-3.21c1.11-1.12,2.21-2.26,3.27-3.44s2.1-2.37,3.1-3.59,2-2.48,2.92-3.75c.34-.45.65-.92,1-1.38.59-.83,1.19-1.65,1.76-2.5.88-1.32,1.72-2.65,2.54-4s1.59-2.74,2.34-4.14,1.46-2.81,2.13-4.24,1.32-2.88,1.93-4.34,1.17-2.94,1.71-4.43,1-3,1.49-4.51.88-3,1.26-4.58.74-3.08,1-4.63.57-3.11.81-4.68.42-3.14.58-4.71.27-3.16.35-4.74.11-3.16.11-4.75,0-3.16-.11-4.74-.2-3.16-.35-4.74-.35-3.15-.58-4.71-.51-3.13-.81-4.68-.66-3.1-1-4.63-.8-3.07-1.26-4.58-1-3-1.49-4.51-1.1-3-1.71-4.43-1.25-2.91-1.93-4.34-1.38-2.85-2.13-4.25-1.53-2.77-2.34-4.13-1.66-2.69-2.54-4-1.79-2.61-2.74-3.88-1.91-2.52-2.92-3.75-2-2.42-3.1-3.59-2.16-2.32-3.27-3.44-2.27-2.21-3.44-3.28-2.38-2.09-3.6-3.1-2.47-2-3.74-2.92-2.57-1.85-3.89-2.73-2.65-1.73-4-2.55S528.1,84,526.7,83.24s-2.81-1.45-4.24-2.13-2.88-1.32-4.34-1.93-2.94-1.17-4.44-1.7-3-1-4.5-1.49-3.05-.89-4.58-1.27-3.08-.73-4.64-1c-1.19-.24-2.4-.45-3.6-.64V82.8C496.87,82.89,497.39,83,497.91,83.06Z" transform="translate(-312.74 3.14)"/><path class="cls-8" d="M502,251.27c-1.37.34-2.75.65-4.13.92-.52.11-1.05.18-1.57.28v11.64c1.21-.19,2.42-.4,3.62-.64,1.56-.31,3.1-.65,4.64-1s3.06-.81,4.58-1.27,3-1,4.5-1.49,3-1.1,4.44-1.7,2.91-1.25,4.34-1.93,2.84-1.39,4.24-2.13,2.77-1.53,4.13-2.35c.7-.41,1.37-.86,2.06-1.3H505.67C504.47,250.62,503.26,251,502,251.27Z" transform="translate(-312.74 3.14)"/><path class="cls-8" d="M406.3,230q1.5,1.83,3.1,3.59c1.06,1.18,2.15,2.32,3.27,3.44s2.22,2.17,3.37,3.21h18.54c-.46-.3-.94-.58-1.39-.88-1.18-.78-2.33-1.6-3.46-2.44s-2.25-1.71-3.34-2.6-2.16-1.82-3.2-2.77-2.07-1.92-3.07-2.91-2-2-2.92-3.07-1.87-2.11-2.76-3.2-1.76-2.21-2.6-3.34-1.66-2.29-2.44-3.46-1.54-2.36-2.27-3.57-1.42-2.44-2.08-3.69-1.3-2.5-1.9-3.78-1.18-2.56-1.72-3.87-1.05-2.62-1.52-3.94-.92-2.67-1.33-4-.79-2.71-1.13-4.08-.65-2.75-.93-4.13-.51-2.77-.72-4.17-.38-2.8-.52-4.2-.24-2.81-.31-4.22-.1-2.82-.1-4.23,0-2.82.1-4.23.17-2.82.31-4.22.31-2.81.52-4.2.45-2.79.72-4.17.59-2.76.93-4.13.72-2.73,1.13-4.08.85-2.69,1.33-4,1-2.64,1.52-4,1.11-2.59,1.72-3.87,1.23-2.53,1.9-3.78,1.36-2.47,2.08-3.68,1.48-2.4,2.27-3.57,1.59-2.33,2.44-3.46,1.7-2.25,2.6-3.34,1.82-2.16,2.76-3.2,1.92-2.07,2.92-3.07,2-2,3.07-2.92,2.11-1.87,3.2-2.76,2.2-1.76,3.34-2.6,2.28-1.66,3.46-2.44,2.36-1.54,3.57-2.27,2.44-1.42,3.68-2.08,2.51-1.3,3.78-1.9,2.57-1.18,3.87-1.72,2.62-1,4-1.52,2.67-.92,4-1.33,2.71-.79,4.08-1.13,2.74-.65,4.13-.93c.82-.16,1.65-.29,2.47-.42V72.89c-1.51.23-3,.49-4.53.79s-3.09.65-4.63,1-3.06.81-4.58,1.27-3,1-4.51,1.49-3,1.1-4.43,1.7-2.91,1.25-4.34,1.93-2.85,1.39-4.24,2.13-2.78,1.53-4.13,2.34-2.7,1.67-4,2.55-2.61,1.79-3.88,2.73-2.52,1.92-3.74,2.92-2.43,2-3.6,3.1-2.32,2.16-3.44,3.28-2.21,2.26-3.27,3.44-2.1,2.37-3.1,3.59-2,2.48-2.93,3.75-1.85,2.56-2.73,3.88-1.73,2.65-2.54,4-1.6,2.74-2.34,4.13-1.46,2.81-2.14,4.25-1.32,2.88-1.92,4.34-1.18,2.94-1.71,4.43-1,3-1.49,4.51-.88,3-1.27,4.58-.73,3.08-1,4.63-.58,3.11-.81,4.68-.43,3.14-.58,4.71-.27,3.16-.35,4.74-.12,3.16-.12,4.74,0,3.17.12,4.75.19,3.16.35,4.74.35,3.15.58,4.71.5,3.13.81,4.68.66,3.1,1,4.63.81,3.07,1.27,4.58,1,3,1.49,4.51,1.1,3,1.71,4.43,1.25,2.91,1.92,4.34,1.39,2.85,2.14,4.24,1.52,2.78,2.34,4.14,1.66,2.69,2.54,4c.57.85,1.17,1.67,1.76,2.5.33.46.64.93,1,1.38C404.32,227.48,405.29,228.73,406.3,230Z" transform="translate(-312.74 3.14)"/><path class="cls-8" d="M460.14,251.27c-1.22-.31-2.43-.65-3.63-1H429.29c.68.44,1.36.89,2.06,1.3q2,1.23,4.13,2.35c1.39.74,2.81,1.45,4.24,2.13s2.88,1.32,4.34,1.93,2.94,1.17,4.43,1.7,3,1,4.51,1.49,3,.89,4.58,1.27,3.08.73,4.63,1,3.05.57,4.58.8V252.63c-.84-.14-1.68-.27-2.52-.44C462.88,251.92,461.51,251.61,460.14,251.27Z" transform="translate(-312.74 3.14)"/><path class="cls-8" d="M466.74,50.82V82.64c.57-.1,1.13-.21,1.7-.3.8-.12,1.61-.2,2.41-.3V65a11.39,11.39,0,0,1,7.49-10.53l.08,0a11.28,11.28,0,0,1,3.66-.6,11.88,11.88,0,0,1,3.74.64,11.25,11.25,0,0,1,7.49,10.56V82.29l.43,0c.88.13,1.75.3,2.62.46v-32H466.74Z" transform="translate(-312.74 3.14)"/><path class="cls-9" d="M456.06,250.14c-1.35-.41-2.69-.85-4-1.33s-2.64-1-4-1.52-2.59-1.11-3.87-1.72-2.53-1.24-3.78-1.9-2.47-1.36-3.68-2.09c-.74-.44-1.46-.91-2.18-1.38h-46.9v10.06h68.83Z" transform="translate(-312.74 3.14)"/><path class="cls-9" d="M521.73,243.67c-.87.46-1.75.89-2.64,1.33v.07H519l-1,.5c-1.27.61-2.56,1.18-3.87,1.72s-2.62,1-3.94,1.52-2.67.92-4,1.33l-.45.12h70.8V240.2H527.6c-.73.47-1.45.94-2.18,1.38C524.2,242.31,523,243,521.73,243.67Z" transform="translate(-312.74 3.14)"/><path class="cls-9" d="M519.09,245l-.14.07h.14Z" transform="translate(-312.74 3.14)"/><path class="cls-9" d="M496.34,252.47c-.87.15-1.73.32-2.6.45-1.4.2-2.8.38-4.2.51s-2.81.25-4.22.32-2.82.1-4.23.1-2.82,0-4.23-.1-2.82-.18-4.22-.32-2.81-.31-4.2-.51c-.55-.08-1.1-.2-1.65-.29v23.44a1.93,1.93,0,0,0,1.92,1.93h25.71a1.94,1.94,0,0,0,1.92-1.93v-23.6Z" transform="translate(-312.74 3.14)"/><path class="cls-9" d="M476.86,81.51c1.41-.07,2.82-.1,4.23-.1s2.82,0,4.23.1,2.82.17,4.22.31,2.52.29,3.77.47V65.05a11.25,11.25,0,0,0-7.49-10.56,11.88,11.88,0,0,0-3.74-.64,11.28,11.28,0,0,0-3.66.6l-.08,0A11.39,11.39,0,0,0,470.85,65V82c.6-.07,1.19-.16,1.79-.22C474,81.68,475.45,81.58,476.86,81.51Z" transform="translate(-312.74 3.14)"/><rect class="cls-3" x="110.06" y="306.19" width="11.77" height="11.61"/><rect class="cls-3" x="110.06" y="280.14" width="11.37" height="11.61"/><rect class="cls-3" x="78.14" y="293.2" width="13.06" height="11.61"/><polygon class="cls-7" points="110.06 291.76 110.06 280.14 110.06 277.17 91.2 277.17 91.2 293.2 91.2 304.82 91.2 320.87 110.06 320.87 110.06 317.81 110.06 306.19 110.06 291.76"/><polygon class="cls-3" points="232.94 327.98 251.71 327.98 251.71 351.1 232.94 351.1 232.94 361.28 251.71 361.28 251.71 317.78 232.94 317.78 232.94 327.98"/><polygon class="cls-10" points="251.71 327.98 232.94 327.98 232.94 327.98 232.94 351.1 232.94 351.1 251.71 351.1 251.71 327.98"/><rect class="cls-3" x="76.59" y="338.21" width="10.19" height="18.77"/><rect class="cls-3" x="109.9" y="338.21" width="10.19" height="18.77"/><rect class="cls-10" x="86.78" y="338.21" width="23.12" height="18.77"/><path class="cls-5" d="M460.14,84c-1.37.34-2.73.72-4.08,1.13s-2.69.85-4,1.33-2.64,1-4,1.52-2.59,1.11-3.87,1.72-2.53,1.23-3.78,1.9S438,93,436.76,93.67s-2.4,1.48-3.57,2.27-2.33,1.6-3.46,2.44-2.25,1.7-3.34,2.6-2.16,1.82-3.2,2.76-2.07,1.92-3.07,2.92-2,2-2.92,3.07-1.87,2.11-2.76,3.2-1.76,2.2-2.6,3.34-1.66,2.28-2.44,3.46-1.54,2.36-2.27,3.57-1.42,2.44-2.08,3.68-1.3,2.51-1.9,3.78-1.18,2.57-1.72,3.87-1.05,2.62-1.52,4-.92,2.67-1.33,4-.79,2.71-1.13,4.08-.65,2.74-.93,4.13-.51,2.77-.72,4.17-.38,2.79-.52,4.2S395,162,395,163.4s-.1,2.82-.1,4.23,0,2.82.1,4.23.17,2.82.31,4.22.31,2.8.52,4.2.45,2.79.72,4.17.59,2.76.93,4.13.72,2.73,1.13,4.08.85,2.69,1.33,4,1,2.64,1.52,3.94,1.11,2.6,1.72,3.87,1.23,2.54,1.9,3.78,1.36,2.48,2.08,3.69,1.48,2.4,2.27,3.57,1.59,2.33,2.44,3.46,1.7,2.25,2.6,3.34,1.82,2.16,2.76,3.2,1.92,2.07,2.92,3.07,2,2,3.07,2.91,2.11,1.87,3.2,2.77,2.2,1.76,3.34,2.6,2.28,1.66,3.46,2.44c.45.3.93.58,1.39.88.72.47,1.44.94,2.18,1.38,1.21.73,2.44,1.42,3.68,2.09s2.51,1.3,3.78,1.9,2.57,1.18,3.87,1.72,2.62,1,4,1.52,2.67.92,4,1.33l.45.12c1.2.36,2.41.7,3.63,1,1.37.34,2.74.65,4.13.92.84.17,1.68.3,2.52.44.55.09,1.1.21,1.65.29,1.39.2,2.79.38,4.2.51s2.81.25,4.22.32,2.82.1,4.23.1,2.82,0,4.23-.1,2.82-.18,4.22-.32,2.8-.31,4.2-.51c.87-.13,1.73-.3,2.6-.45.52-.1,1.05-.17,1.57-.28,1.38-.27,2.76-.58,4.13-.92,1.22-.31,2.43-.65,3.63-1l.45-.12c1.35-.41,2.69-.85,4-1.33s2.64-1,3.94-1.52,2.6-1.11,3.87-1.72l1-.5.14-.07c.89-.44,1.77-.87,2.64-1.33,1.25-.67,2.47-1.36,3.69-2.09.73-.44,1.45-.91,2.18-1.38l1.39-.88c1.17-.78,2.33-1.6,3.46-2.44s2.25-1.71,3.34-2.6,2.16-1.82,3.2-2.77,2.07-1.92,3.07-2.91,2-2,2.91-3.07,1.87-2.11,2.77-3.2,1.76-2.21,2.6-3.34,1.65-2.29,2.44-3.46,1.54-2.36,2.26-3.57,1.42-2.44,2.09-3.69,1.3-2.5,1.9-3.78,1.18-2.56,1.72-3.87,1-2.62,1.52-3.94.92-2.67,1.33-4,.78-2.71,1.13-4.08.65-2.75.92-4.13.52-2.77.73-4.17.38-2.8.51-4.2.25-2.81.32-4.22.1-2.82.1-4.23,0-2.82-.1-4.23-.18-2.82-.32-4.22-.31-2.81-.51-4.2-.45-2.79-.73-4.17-.58-2.76-.92-4.13S564,144,563.6,142.6s-.85-2.69-1.33-4-1-2.64-1.52-4-1.12-2.59-1.72-3.87-1.24-2.53-1.9-3.78-1.36-2.47-2.09-3.68-1.48-2.4-2.26-3.57-1.6-2.33-2.44-3.46-1.71-2.25-2.6-3.34-1.82-2.16-2.77-3.2-1.92-2.07-2.91-3.07-2-2-3.07-2.92-2.11-1.87-3.2-2.76-2.21-1.76-3.34-2.6-2.29-1.66-3.46-2.44-2.36-1.54-3.57-2.27-2.44-1.42-3.69-2.08-2.5-1.3-3.78-1.9-2.56-1.18-3.87-1.72-2.62-1-3.94-1.52-2.67-.92-4-1.33S503.41,84.33,502,84s-2.75-.65-4.13-.93c-.52-.1-1-.17-1.55-.26-.87-.16-1.74-.33-2.62-.46l-.43,0c-1.25-.18-2.51-.34-3.77-.47s-2.81-.24-4.22-.31-2.82-.1-4.23-.1-2.82,0-4.23.1-2.82.17-4.22.31c-.6.06-1.19.15-1.79.22-.8.1-1.61.18-2.41.3-.57.09-1.13.2-1.7.3-.82.13-1.65.26-2.47.42C462.88,83.34,461.51,83.65,460.14,84Z" transform="translate(-312.74 3.14)"/><text class="cls-11" transform="translate(183.86 56.96) rotate(90)">-</text><text class="cls-12" transform="translate(190.27 427.49) rotate(-90)">S</text><text class="cls-12" transform="translate(190.27 414.71) rotate(-90)">D</text><text class="cls-12" transform="translate(190.27 399.48) rotate(-90)">A</text><text class="cls-12" transform="translate(123.02 429.78) rotate(-90)">G</text><text class="cls-12" transform="translate(123.02 415.03) rotate(-90)">N</text><text class="cls-12" transform="translate(123.02 399.43) rotate(-90)">D</text><text class="cls-12" transform="translate(154.47 427.96) rotate(-90)">V</text><text class="cls-12" transform="translate(154.47 413.49) rotate(-90)">C</text><text class="cls-12" transform="translate(154.47 399.75) rotate(-90)">C</text><text class="cls-12" transform="translate(222.96 426.71) rotate(-90)">S</text><text class="cls-12" transform="translate(222.96 413.92) rotate(-90)">C</text><text class="cls-12" transform="translate(222.96 400.19) rotate(-90)">L</text></g></g></svg>