<svg xmlns="http://www.w3.org/2000/svg" width="40" height="80" viewBox="0 0 336.53 525.32"><defs><style>.cls-1{fill:#004684;}.cls-2{fill:#2b2b2b;}.cls-10,.cls-3{fill:#fff;}.cls-4{fill:#272626;}.cls-5{fill:#d9d9d9;}.cls-6{fill:#2e2d2d;}.cls-7{fill:#f6e089;}.cls-8{fill:#f1eddd;}.cls-9{fill:#a6a6a6;}.cls-10{font-size:24.34px;font-family:Montserrat-Bold, Montserrat;font-weight:700;}</style></defs><title>Asset 1</title><g id="Layer_2" data-name="Layer 2"><g id="Layer_1-2" data-name="Layer 1"><path class="cls-1" d="M359.68,89.78h36.14V53.38H359.68Zm18-29.36A11.19,11.19,0,1,1,366.54,71.6,11.18,11.18,0,0,1,377.72,60.42Z" transform="translate(-312.74 4.67)"/><path class="cls-1" d="M567.21,89.78h36.14V53.38H567.21Zm18-29.36A11.19,11.19,0,1,1,574.07,71.6,11.18,11.18,0,0,1,585.25,60.42Z" transform="translate(-312.74 4.67)"/><path class="cls-1" d="M592.31,145.45a41,41,0,0,1,29-39.18V25.36h-112V51a94.84,94.84,0,0,1,3.27,179.52H553v18.77h-43.5V231.55l-1.2.39v13.69a28.53,28.53,0,0,1-18.81,26.25,1.34,1.34,0,0,0-.18.07,28.72,28.72,0,0,1-9.2,1.52,29.93,29.93,0,0,1-9.41-1.62,28.18,28.18,0,0,1-18.81-26.25V231.72a94.83,94.83,0,0,1,1-181.16V25.36H341.21v81.09a40.94,40.94,0,0,1,0,78V387.89a28.48,28.48,0,0,1,0,57v75.8h96.3V508.9H404.86V438.27h30.91v-2.75h2.15v-3.43h85.2v3.43h.44v2.75h32.38V508.9H521.71v11.75h99.63V436.87h-.55a28.48,28.48,0,1,1,0-56.95h.55V184.63A41,41,0,0,1,592.31,145.45ZM358.42,91.07V52.12h38.69V91.07ZM509.13,279.3h43.5v18.77h-43.5Zm-50.36,0h43.5v18.77h-43.5ZM409.2,254.71h43.5v18.77H409.2Zm-.4,24.59h43.51v18.77H408.8Zm42.95,93.63h-43.5V354.16h43.5Zm2.58-37.55H438.27v13.07H426.65V335.38h-16V316.53h3V305.15h11.61v11.38h14.43V304.76h11.62v11.77h3.07Zm4.3-18.85h3V305.15h11.62v11.38h14.43V304.76h11.61v11.77h3.07v18.85H486.28v13.07H474.67V335.38h-16Zm44.23,56.4h-43.5V354.16h43.5Zm5-56.4h3V305.15h11.61v11.38h14.43V304.76h11.62v11.77h3.07v18.85H535.49v13.07H523.87V335.38h-16Zm44.88,56.4h-43.5V354.16h43.5Zm.3-99.45h-43.5V254.71H553ZM566,91.07V52.12h38.69V91.07ZM619,304.78H585.19V215.43H619Z" transform="translate(-312.74 4.67)"/><path class="cls-2" d="M451.91,231.72V245.6a28.18,28.18,0,0,0,18.81,26.25,29.93,29.93,0,0,0,9.41,1.62,28.72,28.72,0,0,0,9.2-1.52,1.34,1.34,0,0,1,.18-.07,28.53,28.53,0,0,0,18.81-26.25V231.94a95.3,95.3,0,0,1-56.41-.22Z" transform="translate(-312.74 4.67)"/><path class="cls-1" d="M592.31,408.4a28.47,28.47,0,0,0,28.48,28.48h.55a28.47,28.47,0,0,0,0-56.93h-.55A28.46,28.46,0,0,0,592.31,408.4Zm49,0a20.51,20.51,0,1,1-20.5-20.51A20.5,20.5,0,0,1,641.29,408.4Z" transform="translate(-312.74 4.67)"/><path class="cls-1" d="M369.69,416.37a28.48,28.48,0,1,0-28.48,28.48A28.47,28.47,0,0,0,369.69,416.37Zm-28.48,20.51a20.51,20.51,0,1,1,20.51-20.51A20.5,20.5,0,0,1,341.21,436.88Z" transform="translate(-312.74 4.67)"/><rect class="cls-3" x="179.34" y="283.97" width="10.19" height="18.77"/><rect class="cls-3" x="146.03" y="283.97" width="10.19" height="18.77"/><rect class="cls-2" x="156.23" y="283.97" width="23.12" height="18.77"/><rect class="cls-3" x="96.07" y="283.97" width="10.19" height="18.77"/><rect class="cls-3" x="129.38" y="283.97" width="10.19" height="18.77"/><rect class="cls-2" x="106.26" y="283.97" width="23.12" height="18.77"/><rect class="cls-3" x="179.54" y="358.83" width="10.59" height="18.77"/><rect class="cls-3" x="146.63" y="358.83" width="9.79" height="18.77"/><rect class="cls-2" x="156.42" y="358.83" width="23.12" height="18.77"/><rect class="cls-3" x="128.82" y="358.83" width="10.19" height="18.77"/><rect class="cls-3" x="95.51" y="358.83" width="10.19" height="18.77"/><rect class="cls-2" x="105.7" y="358.83" width="23.12" height="18.77"/><rect class="cls-3" x="224.13" y="309.43" width="11.61" height="11.77"/><rect class="cls-3" x="198.08" y="309.83" width="11.61" height="11.37"/><rect class="cls-3" x="211.14" y="340.06" width="11.61" height="13.06"/><polygon class="cls-2" points="222.75 340.06 238.81 340.06 238.81 321.2 235.74 321.2 224.13 321.2 209.7 321.2 198.08 321.2 195.1 321.2 195.1 340.06 211.14 340.06 222.75 340.06"/><rect class="cls-3" x="174.92" y="309.43" width="11.61" height="11.77"/><rect class="cls-3" x="148.87" y="309.83" width="11.61" height="11.37"/><rect class="cls-3" x="161.93" y="340.06" width="11.61" height="13.06"/><polygon class="cls-4" points="173.55 340.06 189.6 340.06 189.6 321.2 186.54 321.2 174.92 321.2 160.49 321.2 148.88 321.2 145.9 321.2 145.9 340.06 161.93 340.06 173.55 340.06"/><rect class="cls-3" x="126.91" y="309.43" width="11.61" height="11.77"/><rect class="cls-3" x="100.86" y="309.83" width="11.61" height="11.37"/><rect class="cls-3" x="113.92" y="340.06" width="11.61" height="13.06"/><polygon class="cls-2" points="126.91 321.2 112.47 321.2 100.86 321.2 97.88 321.2 97.88 340.06 113.92 340.06 125.53 340.06 141.59 340.06 141.59 321.2 138.52 321.2 126.91 321.2"/><rect class="cls-3" x="229.97" y="358.83" width="10.01" height="18.77"/><rect class="cls-3" x="196.48" y="358.83" width="10.37" height="18.77"/><rect class="cls-2" x="206.85" y="358.83" width="23.12" height="18.77"/><rect class="cls-3" x="229.7" y="283.97" width="10.19" height="18.77"/><rect class="cls-3" x="196.39" y="283.97" width="10.19" height="18.77"/><rect class="cls-2" x="206.58" y="283.97" width="23.12" height="18.77"/><rect class="cls-3" x="129.77" y="259.38" width="10.19" height="18.77"/><rect class="cls-3" x="96.47" y="259.38" width="10.19" height="18.77"/><rect class="cls-2" x="106.66" y="259.38" width="23.12" height="18.77"/><rect class="cls-3" x="230.1" y="259.38" width="10.19" height="18.77"/><rect class="cls-3" x="196.79" y="259.38" width="10.19" height="18.77"/><rect class="cls-2" x="206.98" y="259.38" width="23.12" height="18.77"/><rect class="cls-3" x="230.1" y="235.17" width="10.19" height="18.77"/><path class="cls-3" d="M509.52,249.27h10.2V230.5h-7.1c-1,.37-2.06.72-3.1,1.05Z" transform="translate(-312.74 4.67)"/><rect class="cls-2" x="206.98" y="235.17" width="23.12" height="18.77"/><path class="cls-5" d="M585.19,304.78H619V215.43H585.19Zm8.58-72.53h16.47v24.86h-1.5V288H595.49V257.11h-1.72Z" transform="translate(-312.74 4.67)"/><rect class="cls-4" x="282.75" y="261.78" width="13.25" height="30.85"/><polygon class="cls-4" points="296 261.78 297.5 261.78 297.5 236.92 281.04 236.92 281.04 261.78 282.75 261.78 296 261.78"/><path class="cls-6" d="M492.59,60.41a81.92,81.92,0,0,1,14.65,158,28.9,28.9,0,0,1-13.71,10.51c-.06,0-.12,0-.18.06a28.52,28.52,0,0,1-9.22,1.52,30.34,30.34,0,0,1-9.43-1.61,28.19,28.19,0,0,1-11.2-7.31,81.91,81.91,0,0,1,3.25-161.19H452.94V50.56a94.82,94.82,0,1,0,55.38,181.38l1.2-.39c1-.33,2.08-.68,3.1-1.05A94.84,94.84,0,0,0,509.35,51v9.43Z" transform="translate(-312.74 4.67)"/><path class="cls-2" d="M452.94,60.41h13.81a82.34,82.34,0,0,1,25.84,0h16.76V23.2A28.18,28.18,0,0,0,490.54-3a29.88,29.88,0,0,0-9.41-1.62,28.61,28.61,0,0,0-9.19,1.52c-.07,0-.13,0-.19.06a28.56,28.56,0,0,0-18.81,26.26V60.41Z" transform="translate(-312.74 4.67)"/><path class="cls-2" d="M463.5,221.6a28.19,28.19,0,0,0,11.2,7.31,30.34,30.34,0,0,0,9.43,1.61,28.52,28.52,0,0,0,9.22-1.52c.06,0,.12,0,.18-.06a28.9,28.9,0,0,0,13.71-10.51,81.74,81.74,0,0,1-27.57,4.77A82.79,82.79,0,0,1,463.5,221.6Z" transform="translate(-312.74 4.67)"/><path class="cls-1" d="M397.76,141.3a81.92,81.92,0,0,0,65.74,80.3,82.79,82.79,0,0,0,16.17,1.6A81.91,81.91,0,0,0,492.59,60.41a82.34,82.34,0,0,0-25.84,0A81.92,81.92,0,0,0,397.76,141.3Zm72.5,9.35V127.54h0v-10.2H489v43.5H470.26V150.65Zm31.4-36.91h41.12v55H501.66ZM422,129.48h4v-.41h23.7v.41h4.37V147H422Z" transform="translate(-312.74 4.67)"/><polygon class="cls-3" points="176.29 165.51 176.29 122.01 157.52 122.01 157.52 132.21 176.29 132.21 176.29 155.33 157.52 155.33 157.52 165.51 176.29 165.51"/><polygon class="cls-2" points="176.29 132.21 157.52 132.21 157.52 132.21 157.52 155.33 157.52 155.33 176.29 155.33 176.29 132.21"/><path class="cls-3" d="M542.78,113.74H501.66v55h41.12Zm-21,46A18.48,18.48,0,1,1,540.3,141.3,18.48,18.48,0,0,1,521.82,159.78Z" transform="translate(-312.74 4.67)"/><circle class="cls-7" cx="209.08" cy="145.97" r="18.48"/><polygon class="cls-3" points="141.33 134.15 136.96 134.15 136.96 151.62 125.65 151.62 124.57 151.62 113.26 151.62 113.26 134.15 109.27 134.15 109.27 151.63 141.33 151.63 141.33 134.15"/><polygon class="cls-2" points="125.65 151.62 136.96 151.62 136.96 134.15 136.96 133.74 125.65 133.74 125.65 151.62"/><polygon class="cls-7" points="124.57 151.62 125.65 151.62 125.65 133.74 124.57 133.74 113.26 133.74 113.26 134.15 113.26 151.62 124.57 151.62"/><path class="cls-3" d="M397.11,52.12H358.42V91.07h38.69Zm-1.29,37.66H359.68V53.38h36.14Z" transform="translate(-312.74 4.67)"/><path class="cls-3" d="M604.64,52.12H566V91.07h38.69Zm-1.29,37.66H567.21V53.38h36.14Z" transform="translate(-312.74 4.67)"/><rect class="cls-1" x="210.38" y="440.19" width="0.44" height="2.75"/><rect class="cls-1" x="123.03" y="440.19" width="2.15" height="2.75"/><polygon class="cls-8" points="243.2 513.57 243.2 442.94 210.83 442.94 210.38 442.94 210.38 452.4 220.41 452.4 233.27 452.4 233.27 504.07 102.22 504.07 102.22 452.4 115.09 452.4 125.18 452.4 125.18 442.94 123.03 442.94 92.12 442.94 92.12 513.57 124.78 513.57 208.97 513.57 243.2 513.57"/><path class="cls-5" d="M533.14,458.37h0v9.77H427.82v-9.77h0V447.73H415V499.4H546V447.73H533.14Zm2.85,12V487.9H518.45V470.37ZM425.31,487.9V470.37h17.54V487.9Zm31.11,0V470.37H474V487.9Zm31.12,0V470.37h17.53V487.9Z" transform="translate(-312.74 4.67)"/><rect class="cls-9" x="112.58" y="475.04" width="17.54" height="17.54"/><rect class="cls-9" x="143.68" y="475.04" width="17.54" height="17.54"/><rect class="cls-9" x="174.8" y="475.04" width="17.54" height="17.54"/><rect class="cls-9" x="205.72" y="475.04" width="17.54" height="17.54"/><polygon class="cls-1" points="125.18 452.4 210.38 452.4 210.38 442.94 210.38 440.19 210.38 436.76 125.18 436.76 125.18 440.19 125.18 442.94 125.18 452.4"/><polygon class="cls-8" points="125.18 452.4 115.09 452.4 115.09 463.04 220.41 463.04 220.41 452.4 210.38 452.4 125.18 452.4"/><polygon class="cls-5" points="115.08 472.81 220.43 472.81 220.43 463.04 220.41 463.04 115.09 463.04 115.08 463.04 115.08 472.81"/><text class="cls-10" transform="translate(194.94 436.55) rotate(-90)">S</text><text class="cls-10" transform="translate(194.94 420.87) rotate(-90)">D</text><text class="cls-10" transform="translate(194.94 402.2) rotate(-90)">A</text><text class="cls-10" transform="translate(124.5 438.74) rotate(-90)">G</text><text class="cls-10" transform="translate(124.5 420.65) rotate(-90)">N</text><text class="cls-10" transform="translate(124.5 401.52) rotate(-90)">D</text><text class="cls-10" transform="translate(160.06 435.75) rotate(-90)">V</text><text class="cls-10" transform="translate(160.06 418.01) rotate(-90)">C</text><text class="cls-10" transform="translate(160.06 401.17) rotate(-90)">C</text><text class="cls-10" transform="translate(227.52 435.87) rotate(-90)">S</text><text class="cls-10" transform="translate(227.52 420.2) rotate(-90)">C</text><text class="cls-10" transform="translate(227.52 403.36) rotate(-90)">L</text></g></g></svg>