<svg xmlns="http://www.w3.org/2000/svg" width="40" height="80" viewBox="0 0 336.53 523.79"><defs><style>.cls-1{font-size:19.86px;font-family:Montserrat-Bold, Montserrat;font-weight:700;}.cls-1,.cls-4{fill:#fff;}.cls-2{fill:#004684;}.cls-3{fill:#38b6ff;}.cls-5{fill:#2b2b2b;}.cls-6{fill:#f6e089;}.cls-7{fill:#a6a6a6;}.cls-8{fill:#c7d0d8;}.cls-9{fill:#f1eddd;}.cls-10{fill:#d9d9d9;}</style></defs><title>Asset 1</title><g id="Layer_2" data-name="Layer 2"><g id="Layer_1-2" data-name="Layer 1"><text class="cls-1" transform="translate(126.24 421.82) rotate(-90)">G</text><text class="cls-1" transform="translate(126.24 407.06) rotate(-90)">N</text><text class="cls-1" transform="translate(126.24 391.46) rotate(-90)">D</text><text class="cls-1" transform="translate(157.7 420.75) rotate(-90)">V</text><text class="cls-1" transform="translate(157.7 406.27) rotate(-90)">C</text><text class="cls-1" transform="translate(157.7 392.53) rotate(-90)">C</text><text class="cls-1" transform="translate(193 418.36) rotate(-90)">N</text><text class="cls-1" transform="translate(193 402.76) rotate(-90)">C</text><text class="cls-1" transform="translate(225.65 420.62) rotate(-90)">S</text><text class="cls-1" transform="translate(225.65 407.83) rotate(-90)">I</text><text class="cls-1" transform="translate(225.65 401.52) rotate(-90)">G</text><path class="cls-2" d="M279.57,148.59a40.94,40.94,0,0,1,29-39.18V28.49H196.74a28.48,28.48,0,0,1-57,0H28.48v81.09a40.95,40.95,0,0,1,0,78V391a28.48,28.48,0,0,1,0,57v75.8h97.63v-14.9H94.62V438.26H127.4V435h.27v-2.95h85.21V435h2.32v3.23h30.5v70.63H213.35v14.9h95.26V440l-.56,0a28.48,28.48,0,0,1,0-57l.56,0V187.76A40.93,40.93,0,0,1,279.57,148.59ZM160.36,368H110.22V346.37h50.14Zm66.14,0H176.36V346.37H226.5Zm29.11-76.06a12.76,12.76,0,0,1-12.74,12.73H224v5.94a9.15,9.15,0,1,1-6.71.14v-6.08h-24.4v6a9.17,9.17,0,1,1-6.72,0v-6H159.34v6.19a9.16,9.16,0,1,1-6.72-.34v-5.85H123.29v6a9.18,9.18,0,1,1-6.71,0v-6H98a12.76,12.76,0,0,1-12.74-12.73V87.25A12.75,12.75,0,0,1,98,74.53H242.87a12.75,12.75,0,0,1,12.74,12.72Z"/><path class="cls-2" d="M168.26,57a28.48,28.48,0,0,0,28.48-28.47h0a28.48,28.48,0,1,0-57,0h0A28.47,28.47,0,0,0,168.26,57ZM147.75,28.48A20.51,20.51,0,1,1,168.26,49,20.51,20.51,0,0,1,147.75,28.48Z"/><path class="cls-2" d="M279.57,411.54A28.48,28.48,0,0,0,308.05,440l.56,0a28.47,28.47,0,0,0,0-56.92l-.56,0A28.48,28.48,0,0,0,279.57,411.54Zm49,0A20.51,20.51,0,1,1,308.05,391,20.51,20.51,0,0,1,328.56,411.54Z"/><path class="cls-2" d="M57,419.51A28.48,28.48,0,1,0,28.48,448,28.48,28.48,0,0,0,57,419.51ZM28.48,440A20.51,20.51,0,1,1,49,419.51,20.51,20.51,0,0,1,28.48,440Z"/><path class="cls-3" d="M242.87,74.53H218.1v24.3H193.8V74.53H183.48v24.3h-24.3V74.53H147.8v24.3H123.5V74.53H98A12.75,12.75,0,0,0,85.25,87.25V291.94A12.76,12.76,0,0,0,98,304.67h18.59V287.49h6.71v17.18h29.33V287.49h6.72v17.18h26.83V287.49h6.72v17.18h24.4V287.49H224v17.18h18.87a12.76,12.76,0,0,0,12.74-12.73V87.25A12.75,12.75,0,0,0,242.87,74.53ZM183.12,177.27v24.31h-24.3V177.27ZM159.7,166.76v-24.3H184v24.3Zm23.42,46.07v24.3h-24.3v-24.3ZM184,132.7H159.7V108.39H184Zm-36.57,44.57v24.31h-24.3V177.27ZM124,166.76v-24.3h24.3v24.3Zm23.41,46.07v24.3h-24.3v-24.3Zm.89-80.13H124V108.39h24.3Zm-33.44,68.13H90.58V176.52h24.31Zm79.44-34.07v-24.3h24.3v24.3Zm23.41,9.76v24.31h-24.3V176.52ZM194.33,132.7V108.39h24.3V132.7Zm-.89,79.38h24.3v24.3h-24.3Zm32-35.56h24.31v24.31H225.43Zm0-9.76v-24.3h24.31v24.3ZM90.3,142.46h24.3v24.3H90.3Zm.28,129.25v-24.3h24.31v24.3Zm32.56,0v-24.3h24.3v24.3Zm35.68,0v-24.3h24.3v24.3Zm34.62,0v-24.3h24.3v24.3Zm57.31,0H226.44v-24.3h24.31Z"/><polygon class="cls-2" points="147.8 98.83 147.8 74.53 147.8 74.52 123.5 74.52 123.5 74.53 123.5 98.83 147.8 98.83"/><polygon class="cls-2" points="218.1 98.83 218.1 74.53 218.1 74.52 193.8 74.52 193.8 74.53 193.8 98.83 218.1 98.83"/><polygon class="cls-2" points="183.48 98.83 183.48 74.53 183.48 74.52 159.18 74.52 159.18 74.53 159.18 98.83 183.48 98.83"/><rect class="cls-2" x="124.03" y="108.39" width="24.31" height="24.31"/><rect class="cls-2" x="194.33" y="108.39" width="24.31" height="24.31"/><rect class="cls-2" x="159.7" y="108.39" width="24.31" height="24.31"/><rect class="cls-2" x="124.03" y="142.46" width="24.31" height="24.31"/><rect class="cls-2" x="194.33" y="142.46" width="24.31" height="24.31"/><rect class="cls-2" x="159.7" y="142.46" width="24.31" height="24.31"/><rect class="cls-2" x="123.14" y="177.27" width="24.31" height="24.31"/><rect class="cls-2" x="193.44" y="176.52" width="24.31" height="24.31"/><rect class="cls-2" x="158.82" y="177.27" width="24.31" height="24.31"/><rect class="cls-2" x="123.14" y="212.83" width="24.31" height="24.31"/><rect class="cls-2" x="193.44" y="212.08" width="24.31" height="24.31"/><rect class="cls-2" x="158.82" y="212.83" width="24.31" height="24.31"/><rect class="cls-2" x="123.14" y="247.41" width="24.31" height="24.31"/><rect class="cls-2" x="193.44" y="247.41" width="24.31" height="24.31"/><rect class="cls-2" x="158.82" y="247.41" width="24.31" height="24.31"/><rect class="cls-2" x="90.3" y="142.46" width="24.31" height="24.31"/><rect class="cls-2" x="225.43" y="142.46" width="24.31" height="24.31"/><rect class="cls-2" x="225.43" y="176.52" width="24.31" height="24.31"/><rect class="cls-2" x="226.44" y="247.41" width="24.31" height="24.31"/><rect class="cls-2" x="90.58" y="247.41" width="24.31" height="24.31"/><rect class="cls-2" x="90.58" y="176.52" width="24.31" height="24.31"/><rect class="cls-4" x="176.36" y="346.37" width="11.75" height="21.63"/><rect class="cls-4" x="214.75" y="346.37" width="11.75" height="21.63"/><rect class="cls-5" x="188.11" y="346.37" width="26.64" height="21.63"/><rect class="cls-4" x="110.22" y="346.37" width="11.75" height="21.63"/><rect class="cls-4" x="148.61" y="346.37" width="11.75" height="21.63"/><rect class="cls-6" x="121.97" y="346.37" width="26.64" height="21.63"/><rect class="cls-2" x="127.4" y="435.03" width="0.27" height="3.23"/><rect class="cls-2" x="212.88" y="435.03" width="2.32" height="3.23"/><path class="cls-7" d="M116.58,319.18V310.7a9.16,9.16,0,1,0,6.71,0v8.52Z"/><path class="cls-7" d="M152.62,319.18v-8.66a9.17,9.17,0,1,0,6.72.34v8.32Z"/><path class="cls-7" d="M186.17,319.18v-8.5a9.16,9.16,0,1,0,6.72,0v8.5Z"/><path class="cls-7" d="M217.29,319.18v-8.43a9.18,9.18,0,1,0,6.71-.14v8.57Z"/><polygon class="cls-8" points="116.58 287.49 116.58 304.67 116.58 310.7 116.58 319.18 123.29 319.18 123.29 310.66 123.29 304.67 123.29 287.49 116.58 287.49"/><polygon class="cls-8" points="152.62 287.49 152.62 304.67 152.62 310.52 152.62 319.18 159.34 319.18 159.34 310.86 159.34 304.67 159.34 287.49 152.62 287.49"/><polygon class="cls-8" points="186.17 287.49 186.17 304.67 186.17 310.68 186.17 319.18 192.88 319.18 192.88 310.68 192.88 304.67 192.88 287.49 186.17 287.49"/><polygon class="cls-8" points="217.29 287.49 217.29 304.67 217.29 310.75 217.29 319.18 224 319.18 224 310.61 224 304.67 224 287.49 217.29 287.49"/><polygon class="cls-9" points="213.35 508.89 245.7 508.89 245.7 438.26 215.2 438.26 212.88 438.26 212.88 447.72 222.9 447.72 235.76 447.72 235.76 499.39 104.71 499.39 104.71 447.72 117.58 447.72 127.67 447.72 127.67 438.26 127.4 438.26 94.62 438.26 94.62 508.89 126.11 508.89 129.15 508.89 213.35 508.89"/><path class="cls-10" d="M222.9,458.36h0v9.77H117.58v-9.77h0V447.72H104.71v51.67H235.76V447.72H222.9Zm2.85,12.05v17.48H208.21V470.36h17.54Zm-30.92-.05v17.53H177.3V470.36Zm-31.12,0v17.53H146.18V470.36Zm-31.1,17.53H115.07V470.36h17.54v17.53Z"/><polygon class="cls-7" points="132.61 474.67 132.61 470.41 132.61 470.36 115.07 470.36 115.07 470.41 115.07 474.67 115.07 487.89 132.61 487.89 132.61 474.67"/><polygon class="cls-7" points="146.18 470.41 146.18 474.67 146.18 487.89 163.71 487.89 163.71 474.67 163.71 470.41 163.71 470.36 146.18 470.36 146.18 470.41"/><polygon class="cls-7" points="177.3 470.41 177.3 474.67 177.3 487.89 194.83 487.89 194.83 474.67 194.83 470.41 194.83 470.36 177.3 470.36 177.3 470.41"/><polygon class="cls-7" points="208.21 470.36 208.21 470.41 208.21 474.67 208.21 487.89 225.75 487.89 225.75 474.67 225.75 470.41 225.75 470.36 208.21 470.36"/><polygon class="cls-2" points="127.67 447.72 212.88 447.72 212.88 438.26 212.88 435.03 212.88 432.08 127.67 432.08 127.67 435.03 127.67 438.26 127.67 447.72"/><polygon class="cls-9" points="127.67 447.72 117.58 447.72 117.58 458.36 222.9 458.36 222.9 447.72 212.88 447.72 127.67 447.72"/><polygon class="cls-10" points="117.58 458.36 117.58 458.41 117.58 462.67 117.58 468.13 222.92 468.13 222.92 462.67 222.92 458.41 222.92 458.36 222.9 458.36 117.58 458.36 117.58 458.36"/><text class="cls-1" transform="translate(126.66 423.01) rotate(-90)">G</text><text class="cls-1" transform="translate(126.66 408.26) rotate(-90)">N</text><text class="cls-1" transform="translate(126.66 392.65) rotate(-90)">D</text><text class="cls-1" transform="translate(158.11 421.94) rotate(-90)">V</text><text class="cls-1" transform="translate(158.11 407.47) rotate(-90)">C</text><text class="cls-1" transform="translate(158.11 393.73) rotate(-90)">C</text><text class="cls-1" transform="translate(193.42 419.56) rotate(-90)">N</text><text class="cls-1" transform="translate(193.42 403.95) rotate(-90)">C</text><text class="cls-1" transform="translate(226.06 421.81) rotate(-90)">S</text><text class="cls-1" transform="translate(226.06 409.03) rotate(-90)">I</text><text class="cls-1" transform="translate(226.06 402.71) rotate(-90)">G</text></g></g></svg>