<svg xmlns="http://www.w3.org/2000/svg" width="150" height="40" xmlns:xlink="http://www.w3.org/1999/xlink" viewBox="0 0 985.41 337.41"><defs><style>.cls-1{fill:none;}.cls-2{opacity:0.21;isolation:isolate;}.cls-3{clip-path:url(#clip-path);}.cls-4{fill:#5ce1e6;}.cls-5{clip-path:url(#clip-path-2);}.cls-6{fill:#c7d0d8;}.cls-7{fill:#272626;}.cls-8{fill:#efe1a8;}.cls-9{fill:#545454;}.cls-10{fill:#004684;}.cls-11{fill:#f1eddd;}.cls-12{fill:#d9d9d9;}.cls-13{fill:#a6a6a6;}.cls-14{fill:#c6f1a7;}.cls-15,.cls-18{fill:#fff;}.cls-16{fill:#f6e089;}.cls-17{fill:#2b2b2b;}.cls-18{font-size:19.86px;font-family:Montserrat-Bold, Montserrat;font-weight:700;}</style><clipPath id="clip-path" transform="translate(291.87 110.51)"><rect class="cls-1" x="72" y="0.72" width="446.88" height="80.4"/></clipPath><clipPath id="clip-path-2" transform="translate(291.87 110.51)"><rect class="cls-1" width="74.4" height="80.16"/></clipPath></defs><title>Asset 1</title><g id="Layer_2" data-name="Layer 2"><g id="Layer_1-2" data-name="Layer 1"><g class="cls-2"><g class="cls-3"><rect class="cls-4" x="364.05" y="111.41" width="445.67" height="78.53"/></g></g><g class="cls-2"><g class="cls-5"><rect class="cls-6" x="292.04" y="110.66" width="72.14" height="78.35"/></g></g><path class="cls-7" d="M595.7-63.75q-2.4,0-4.8.12c-1.6.08-3.19.2-4.79.35s-3.18.36-4.76.59-3.17.51-4.74.82-3.13.67-4.68,1.06-3.1.81-4.63,1.28-3,1-4.56,1.5-3,1.12-4.48,1.73-2.94,1.26-4.39,1.95-2.88,1.4-4.29,2.16-2.8,1.54-4.18,2.36-2.72,1.68-4.06,2.57-2.64,1.81-3.92,2.77-2.55,1.94-3.79,3-2.45,2.06-3.63,3.14-2.35,2.18-3.48,3.31-2.24,2.29-3.31,3.48-2.12,2.4-3.14,3.64-2,2.5-3,3.78-1.87,2.6-2.76,3.93-1.75,2.68-2.57,4.06-1.61,2.76-2.37,4.17-1.47,2.85-2.16,4.29-1.33,2.91-1.94,4.39-1.19,3-1.73,4.48-1,3-1.51,4.56-.89,3.08-1.28,4.63-.74,3.12-1.05,4.69-.59,3.15-.82,4.73-.43,3.17-.59,4.77-.27,3.19-.35,4.79-.12,3.19-.12,4.8,0,3.2.12,4.8.19,3.19.35,4.79.35,3.18.59,4.76.51,3.16.82,4.73.66,3.14,1.05,4.69.82,3.1,1.28,4.63,1,3,1.51,4.56,1.12,3,1.73,4.48,1.26,2.94,1.94,4.39,1.41,2.88,2.16,4.29S511,83,511.78,84.4s1.68,2.72,2.57,4,1.81,2.64,2.76,3.93,1.94,2.55,3,3.79,2.06,2.45,3.14,3.63,2.18,2.35,3.31,3.48,2.29,2.24,3.48,3.31,2.39,2.12,3.63,3.14,2.5,2,3.79,3,2.59,1.88,3.92,2.77S544,117.2,545.4,118s2.77,1.61,4.18,2.37,2.84,1.47,4.29,2.15,2.91,1.34,4.39,1.95,3,1.19,4.48,1.73,3,1,4.56,1.51,3.08.89,4.63,1.28,3.11.74,4.68,1.05,3.15.58,4.74.82,3.17.43,4.76.59,3.19.27,4.79.35,3.2.12,4.8.12,3.2,0,4.8-.12,3.2-.2,4.79-.35,3.19-.36,4.77-.59,3.16-.51,4.73-.82,3.13-.66,4.69-1.05,3.09-.82,4.62-1.28,3.06-1,4.56-1.51,3-1.12,4.49-1.73,2.94-1.26,4.39-1.95,2.87-1.4,4.29-2.15,2.8-1.55,4.17-2.37,2.73-1.68,4.06-2.57,2.64-1.81,3.93-2.77,2.55-1.93,3.78-3,2.45-2.06,3.64-3.14,2.35-2.18,3.48-3.31,2.23-2.29,3.31-3.48,2.12-2.4,3.14-3.63,2-2.5,2.95-3.79,1.88-2.59,2.77-3.93,1.74-2.68,2.56-4,1.62-2.77,2.37-4.18,1.48-2.84,2.16-4.29,1.33-2.91,2-4.39,1.19-3,1.73-4.48,1-3,1.5-4.56.89-3.08,1.28-4.63.74-3.12,1.06-4.69.58-3.14.82-4.73.43-3.17.58-4.76.28-3.19.36-4.79.12-3.2.12-4.8,0-3.21-.12-4.8-.2-3.2-.36-4.79-.35-3.19-.58-4.77-.51-3.16-.82-4.73-.67-3.13-1.06-4.69-.81-3.09-1.28-4.63-1-3.05-1.5-4.56-1.12-3-1.73-4.48-1.26-2.94-2-4.39S682.75-10.61,682-12s-1.54-2.8-2.37-4.17-1.67-2.73-2.56-4.06-1.82-2.64-2.77-3.93-1.94-2.55-2.95-3.78-2.07-2.45-3.14-3.64S666-34,664.89-35.09s-2.29-2.23-3.48-3.31-2.4-2.12-3.64-3.14-2.5-2-3.78-3-2.6-1.88-3.93-2.77S647.38-49,646-49.83s-2.76-1.61-4.17-2.36-2.85-1.48-4.29-2.16-2.92-1.34-4.39-1.95-3-1.19-4.49-1.73-3-1-4.56-1.5-3.07-.89-4.62-1.28-3.12-.74-4.69-1.06-3.15-.58-4.73-.82-3.17-.43-4.77-.59-3.19-.27-4.79-.35S597.3-63.75,595.7-63.75Z" transform="translate(291.87 110.51)"/><rect class="cls-8" x="302.37" y="121.05" width="507.17" height="13.77"/><rect class="cls-8" x="302.37" y="169.34" width="510.72" height="13.77"/><path class="cls-8" d="M594.89-42.62A77.54,77.54,0,0,0,517.36,34.9a77.53,77.53,0,0,0,155,0,77.54,77.54,0,0,0-77.52-77.52Zm0,160a81.85,81.85,0,0,1-58.31-24.16A81.85,81.85,0,0,1,512.42,34.9a81.85,81.85,0,0,1,24.16-58.31,82.45,82.45,0,0,1,116.62,0A81.91,81.91,0,0,1,677.36,34.9,81.85,81.85,0,0,1,653.2,93.21a81.87,81.87,0,0,1-58.31,24.16Z" transform="translate(291.87 110.51)"/><rect class="cls-7" x="945.89" y="132.54" width="35.53" height="34.62"/><rect class="cls-7" x="793.64" y="134.79" width="35.53" height="34.62"/><path class="cls-9" d="M595.23-41.2c-1.25,0-2.5,0-3.75.1s-2.5.15-3.75.27-2.49.28-3.73.46-2.47.4-3.7.64-2.44.52-3.66.83-2.42.63-3.62,1-2.38.75-3.56,1.18-2.35.87-3.51,1.35-2.3,1-3.43,1.52-2.25,1.1-3.35,1.69S557-31,555.9-30.31s-2.13,1.31-3.17,2-2.07,1.41-3.07,2.16-2,1.51-3,2.31-1.92,1.61-2.85,2.45-1.83,1.7-2.71,2.59-1.75,1.79-2.59,2.72-1.66,1.87-2.46,2.84-1.56,2-2.31,3-1.46,2-2.16,3.07-1.36,2.1-2,3.17-1.26,2.17-1.85,3.27-1.15,2.22-1.69,3.36S525,4.87,524.55,6s-.93,2.32-1.35,3.5-.81,2.37-1.18,3.57-.69,2.4-1,3.62-.58,2.43-.82,3.66-.46,2.46-.64,3.7-.34,2.48-.46,3.72-.22,2.5-.28,3.75-.09,2.5-.09,3.75,0,2.51.09,3.76.15,2.5.28,3.74.27,2.49.46,3.73.39,2.47.64,3.7.52,2.45.82,3.66.64,2.42,1,3.62.76,2.39,1.18,3.57.87,2.34,1.35,3.5,1,2.3,1.52,3.43,1.1,2.25,1.69,3.35,1.21,2.2,1.85,3.27,1.32,2.13,2,3.17,1.42,2.07,2.16,3.07,1.52,2,2.31,3,1.62,1.92,2.46,2.85,1.7,1.83,2.59,2.72,1.79,1.74,2.71,2.59,1.88,1.65,2.85,2.45,1.95,1.56,3,2.31,2,1.46,3.07,2.16,2.1,1.37,3.17,2,2.16,1.26,3.27,1.85,2.22,1.15,3.35,1.69,2.28,1,3.43,1.52,2.33.93,3.51,1.35,2.36.82,3.56,1.18,2.41.7,3.62,1,2.44.58,3.66.82,2.47.46,3.7.64,2.48.34,3.73.46,2.49.22,3.75.28,2.5.09,3.75.09,2.5,0,3.75-.09,2.5-.15,3.75-.28,2.49-.27,3.72-.46,2.48-.39,3.7-.64,2.45-.52,3.67-.82,2.42-.64,3.62-1,2.38-.76,3.56-1.18,2.35-.87,3.5-1.35,2.3-1,3.44-1.52,2.25-1.1,3.35-1.69,2.19-1.21,3.27-1.85,2.13-1.31,3.17-2,2.06-1.42,3.07-2.16,2-1.52,3-2.31,1.92-1.61,2.84-2.45,1.84-1.71,2.72-2.59,1.75-1.8,2.59-2.72,1.66-1.88,2.45-2.85,1.57-2,2.31-3,1.47-2,2.17-3.07,1.36-2.09,2-3.17,1.27-2.16,1.86-3.27,1.15-2.22,1.68-3.35,1-2.27,1.53-3.43.92-2.33,1.35-3.5.81-2.37,1.17-3.57.7-2.4,1-3.62.57-2.43.82-3.66.46-2.46.64-3.7.34-2.48.46-3.73.21-2.49.28-3.74.09-2.5.09-3.76,0-2.5-.09-3.75-.16-2.5-.28-3.75-.28-2.48-.46-3.72-.4-2.47-.64-3.7-.52-2.45-.82-3.66-.64-2.43-1-3.62-.75-2.39-1.17-3.57-.88-2.35-1.35-3.5-1-2.3-1.53-3.43S663.29.35,662.7-.76,661.49-2.95,660.84-4s-1.31-2.13-2-3.17-1.42-2.06-2.17-3.07-1.51-2-2.31-3-1.61-1.91-2.45-2.84-1.7-1.84-2.59-2.72-1.79-1.75-2.72-2.59-1.87-1.66-2.84-2.45-2-1.57-3-2.31-2-1.47-3.07-2.16-2.1-1.37-3.17-2-2.17-1.26-3.27-1.85-2.22-1.16-3.35-1.69-2.28-1-3.44-1.52-2.32-.93-3.5-1.35-2.37-.82-3.56-1.18-2.41-.7-3.62-1-2.44-.58-3.67-.83-2.46-.45-3.7-.64-2.48-.34-3.72-.46-2.5-.21-3.75-.27S596.48-41.2,595.23-41.2Z" transform="translate(291.87 110.51)"/><polygon class="cls-8" points="826.55 166.07 826.55 109.64 822.82 109.64 822.82 181.67 826.55 181.67 826.55 166.07"/><polygon class="cls-8" points="841.8 194.49 841.8 80.26 838.04 80.26 838.04 210.09 841.8 210.09 841.8 194.49"/><polygon class="cls-8" points="857.16 193.85 857.16 81.87 853.41 81.87 853.41 209.45 857.16 209.45 857.16 193.85"/><polygon class="cls-8" points="873.84 207.49 873.84 67.81 870.09 67.81 870.09 223.1 873.84 223.1 873.84 207.49"/><polygon class="cls-8" points="889.14 202.2 889.14 74.95 885.37 74.95 885.37 217.8 889.14 217.8 889.14 202.2"/><polygon class="cls-8" points="903.83 207.49 903.83 65.89 900.1 65.89 900.1 223.09 903.83 223.09 903.83 207.49"/><polygon class="cls-8" points="918.88 193.85 918.88 80.89 915.16 80.89 915.16 209.45 918.88 209.45 918.88 193.85"/><polygon class="cls-8" points="934.55 192.33 934.55 79.36 930.83 79.36 930.83 207.93 934.55 207.93 934.55 192.33"/><polygon class="cls-8" points="949.92 167.48 949.92 105.05 946.17 105.05 946.17 183.09 949.92 183.09 949.92 167.48"/><path class="cls-10" d="M-34.22,67.79H-49.27V64.05h12.9a40.76,40.76,0,0,1-4.4-18.47,40.76,40.76,0,0,1,10.16-27H-49.27V14.86h22.39A40.78,40.78,0,0,1-11.74,6.4V-82H-123.6a28.45,28.45,0,0,1-9,20.71h18.31v43.5H-133V-28h0V-51.11h0v-9.77a28.36,28.36,0,0,1-19.07,7.33A28.47,28.47,0,0,1-180.56-82H-291.87V4.77a40.59,40.59,0,0,1,14.58,3.89V-30.06h70.63V3h6.18V88.2h-6.18V121h-70.63V82.5a40.59,40.59,0,0,1-14.58,3.89V200h112.14c0-.5,0-1,0-1.52A28.47,28.47,0,0,1-151.3,170a28.47,28.47,0,0,1,28.48,28.48c0,.51,0,1,0,1.52H-11.74V84.76A41.05,41.05,0,0,1-34.22,67.79ZM-49.31-50.56h0v-10.2h18.77v43.5H-49.31V-27.45h0Zm-54.31,2.08h16.06V-61.54h11.62v13.06h16v18.86h-3v11.37H-74.5V-29.62H-88.93v11.77h-11.62V-29.62h-3.07Zm-10.62,220.05H-133V161.38h0V138.26h0V128.07h18.77Zm57.41-24.88H-69.9v5.4h13.07V163.7H-69.9v8H-81.28v0h-18.85V160.13h11.37v-4.44h-11.8V144.08h11.8V139.7h-11.76V128.09h11.76V128H-69.9v7.06h13.07Zm7.56-58.54H-123V.31h73.7Zm23.47,80.32H-44.57V158.28h0V135.16h0V125H-25.8Z" transform="translate(291.87 110.51)"/><path class="cls-10" d="M-152.08-53.55A28.36,28.36,0,0,0-133-60.88v-.43h.46a28.45,28.45,0,0,0,9-20.71h0a28.48,28.48,0,0,0-28.48-28.48A28.48,28.48,0,0,0-180.56-82h0A28.47,28.47,0,0,0-152.08-53.55ZM-172.59-82a20.51,20.51,0,0,1,20.51-20.51A20.51,20.51,0,0,1-131.57-82a20.51,20.51,0,0,1-20.51,20.51A20.51,20.51,0,0,1-172.59-82Z" transform="translate(291.87 110.51)"/><path class="cls-10" d="M-151.3,170a28.47,28.47,0,0,0-28.47,28.48c0,.51,0,1,0,1.52a28.47,28.47,0,0,0,28.43,27,28.48,28.48,0,0,0,28.44-27c0-.5,0-1,0-1.52A28.47,28.47,0,0,0-151.3,170Zm0,49a20.5,20.5,0,0,1-20.5-20.51,20.5,20.5,0,0,1,20.5-20.51,20.51,20.51,0,0,1,20.51,20.51A20.51,20.51,0,0,1-151.3,218.94Z" transform="translate(291.87 110.51)"/><polygon class="cls-11" points="14.58 231.52 85.21 231.52 85.21 198.7 75.75 198.7 75.75 221.59 24.08 221.59 24.08 90.54 70.54 90.54 74.8 90.54 75.75 90.54 75.75 113.5 85.21 113.5 85.21 80.44 14.58 80.44 14.58 119.17 14.58 193.01 14.58 231.52"/><path class="cls-12" d="M-216.12,98.23h-10.63v0h-9.77V-7.09h20.4V3h0V-20h-51.67V111.09h51.67V88.2h0Zm-22.63-90.3h-17.54V-9.61h17.54ZM-243.06,39h-13.23V21.5h17.54V39h-4.31Zm0,31.13h-13.23V52.62h17.54V70.16h-4.31Zm-13.23,30.91V83.54h17.54v17.53h-17.54Z" transform="translate(291.87 110.51)"/><polygon class="cls-13" points="48.8 100.9 35.58 100.9 35.58 118.44 48.8 118.44 53.06 118.44 53.11 118.44 53.11 100.9 53.06 100.9 48.8 100.9"/><polygon class="cls-13" points="53.11 149.54 53.11 132 53.06 132 48.8 132 35.58 132 35.58 149.54 48.8 149.54 53.06 149.54 53.11 149.54"/><polygon class="cls-13" points="53.11 180.66 53.11 163.13 53.06 163.13 48.8 163.13 35.58 163.13 35.58 180.66 48.8 180.66 53.06 180.66 53.11 180.66"/><polygon class="cls-13" points="53.06 211.58 53.11 211.58 53.11 194.04 53.06 194.04 48.8 194.04 35.58 194.04 35.58 211.58 48.8 211.58 53.06 211.58"/><polygon class="cls-10" points="75.75 113.5 75.75 113.5 75.75 198.7 75.75 198.7 85.21 198.7 91.39 198.7 91.39 113.5 85.21 113.5 75.75 113.5"/><polygon class="cls-11" points="75.75 103.41 65.11 103.41 65.11 208.74 75.75 208.74 75.75 198.7 75.75 113.5 75.75 103.41"/><polygon class="cls-12" points="65.11 103.41 65.06 103.41 64.8 103.41 60.8 103.41 55.34 103.41 55.34 208.76 60.8 208.76 65.06 208.76 65.11 208.76 65.11 208.74 65.11 103.41"/><path class="cls-14" d="M-123,88.15h73.7V.31H-123ZM-83,6.36v0h.5c.25,0,.49,0,.75,0s.49,0,.74,0h.49v0a14,14,0,0,1,12.8,14,14,14,0,0,1-12.8,14v.05h-.85l-.38,0-.39,0H-83V34.3a14,14,0,0,1-12.79-14A14,14,0,0,1-83,6.36ZM-83,53v-.5h2.48V53a14,14,0,0,1,12.8,14,14,14,0,0,1-14,14,14,14,0,0,1-14-14A14,14,0,0,1-83,53Z" transform="translate(291.87 110.51)"/><path class="cls-6" d="M-81.74,81a14,14,0,0,0,14-14,14,14,0,0,0-12.8-14V80.54H-83V53A14,14,0,0,0-95.78,67,14,14,0,0,0-81.74,81Z" transform="translate(291.87 110.51)"/><path class="cls-6" d="M-83,34.3V6.36a14,14,0,0,0-12.79,14A14,14,0,0,0-83,34.3Z" transform="translate(291.87 110.51)"/><path class="cls-6" d="M-81.74,34.37l.38,0h-.77Z" transform="translate(291.87 110.51)"/><path class="cls-6" d="M-67.71,20.33a14,14,0,0,0-12.8-14V34.3A14,14,0,0,0-67.71,20.33Z" transform="translate(291.87 110.51)"/><path class="cls-6" d="M-81.74,6.29c-.26,0-.5,0-.75,0H-81C-81.25,6.32-81.49,6.29-81.74,6.29Z" transform="translate(291.87 110.51)"/><polygon class="cls-15" points="158.85 49.63 158.85 59.39 177.62 59.39 177.62 82.51 158.85 82.51 158.85 92.7 177.62 92.7 177.62 49.2 159.31 49.2 158.85 49.2 158.85 49.63"/><polygon class="cls-16" points="177.62 59.39 158.85 59.39 158.85 59.39 158.85 82.51 158.85 82.51 177.62 82.51 177.62 59.39"/><rect class="cls-15" x="191.32" y="80.88" width="11.61" height="11.77"/><rect class="cls-15" x="217.37" y="80.88" width="11.61" height="11.37"/><rect class="cls-15" x="204.31" y="48.96" width="11.61" height="13.06"/><polygon class="cls-17" points="202.94 80.88 217.37 80.88 228.98 80.88 231.96 80.88 231.96 62.02 215.92 62.02 204.31 62.02 188.25 62.02 188.25 80.88 191.32 80.88 202.94 80.88"/><rect class="cls-15" x="191.35" y="238.59" width="11.77" height="11.61"/><polygon class="cls-15" points="203.11 270.64 191.74 270.64 191.74 282.25 210.59 282.25 210.59 282.23 203.11 282.23 203.11 270.64"/><rect class="cls-15" x="221.97" y="245.58" width="13.06" height="11.61"/><rect class="cls-15" x="191.31" y="254.58" width="11.8" height="11.61"/><rect class="cls-15" x="221.97" y="262.59" width="13.06" height="11.61"/><polygon class="cls-17" points="221.97 238.52 203.11 238.52 203.11 238.59 203.11 250.21 203.11 254.58 203.11 266.2 203.11 270.64 203.11 282.23 210.59 282.23 221.97 282.23 221.97 274.21 221.97 262.59 221.97 257.2 221.97 245.58 221.97 238.52"/><polygon class="cls-15" points="261.32 83.06 242.56 83.06 242.56 93.25 261.33 93.25 261.33 49.75 242.56 49.75 242.56 59.94 261.32 59.94 261.32 83.06"/><polygon class="cls-16" points="261.32 83.06 261.32 59.94 242.56 59.94 242.55 59.94 242.55 83.06 242.56 83.06 261.32 83.06"/><polygon class="cls-15" points="247.3 245.66 266.07 245.66 266.07 268.78 247.3 268.78 247.3 278.97 266.07 278.97 266.07 235.47 247.3 235.47 247.3 245.66"/><polygon class="cls-16" points="266.07 245.66 247.3 245.66 247.3 245.66 247.3 268.78 247.3 268.78 266.07 268.78 266.07 245.66"/><polygon class="cls-15" points="158.85 248.76 177.62 248.76 177.62 271.88 158.85 271.88 158.85 282.07 177.62 282.07 177.62 238.57 158.85 238.57 158.85 248.76"/><polygon class="cls-17" points="177.62 248.76 158.85 248.76 158.85 248.76 158.85 271.88 158.85 271.88 177.62 271.88 177.62 248.76"/><polygon class="cls-6" points="242.6 129.1 261.25 129.1 302.34 129.1 302.34 125.36 286.74 125.36 264.99 125.36 242.6 125.36 242.6 129.1"/><polygon class="cls-6" points="242.6 178.3 257.65 178.3 302.34 178.3 302.34 174.56 286.74 174.56 255.5 174.56 242.6 174.56 242.6 178.3"/><polygon class="cls-13" points="211.36 191.04 211.36 163.53 211.36 163.03 208.88 163.03 208.88 163.53 208.88 191.04 211.36 191.04"/><polygon class="cls-13" points="208.88 144.85 209.74 144.85 210.51 144.85 211.36 144.85 211.36 144.81 211.36 116.86 211.36 116.83 210.87 116.83 209.38 116.83 208.88 116.83 208.88 116.86 208.88 144.81 208.88 144.85"/><text class="cls-18" transform="translate(94.41 178.09)">N</text><text class="cls-18" transform="translate(110.02 178.09)">C</text><text class="cls-18" transform="translate(93.19 110.84)">G</text><text class="cls-18" transform="translate(107.94 110.84)">N</text><text class="cls-18" transform="translate(123.55 110.84)">D</text><text class="cls-18" transform="translate(95.01 142.29)">V</text><text class="cls-18" transform="translate(109.48 142.29)">C</text><text class="cls-18" transform="translate(123.22 142.29)">C</text><text class="cls-18" transform="translate(95.55 210.79)">O</text><text class="cls-18" transform="translate(111.53 210.79)">U</text><text class="cls-18" transform="translate(126.58 210.79)">T</text></g></g></svg>