<svg xmlns="http://www.w3.org/2000/svg" width="40" height="40" viewBox="0 0 337.73 262.18"><defs><style>.cls-1{font-size:67.79px;}.cls-1,.cls-4,.cls-8{fill:#fff;}.cls-1,.cls-8{font-family:Montserrat-Regular, Montserrat;}.cls-2{fill:#004684;}.cls-3{fill:#f1eddd;}.cls-5{fill:#2b2b2b;}.cls-6{fill:#d9d9d9;}.cls-7{fill:#a6a6a6;}.cls-8{font-size:19.93px;}</style></defs><title>Asset 1</title><g id="Layer_2" data-name="Layer 2"><g id="Layer_1-2" data-name="Layer 1"><text class="cls-1" transform="translate(263.69 231.18)">+</text><path class="cls-2" d="M588.73,239.86a28.56,28.56,0,0,1,28-28.56V126.73a18.46,18.46,0,0,0-18.39-18.47h-79v15.08h35.93v68.8h-.56v4.57H520.65v3.21h0v3.16H432.81v-6.37H399v-1.22h0v-.25h-.18v-70H399v-1.89h35.85V108.26H355.6a18.45,18.45,0,0,0-18.39,18.47V211.3a28.54,28.54,0,0,1,23.55,13.09h6.87V214.21h-8.31V206h8.31v-2.16h13.3v11.33h9.22v8.19h-9.22v11.32h-13.3v-2.11h-3.25a28.62,28.62,0,0,1-27.17,35.85V352a18.45,18.45,0,0,0,18.39,18.47h96.3l11.82-11.88h1.13a76.79,76.79,0,1,1,42.58,0h3.75L523,370.45h75.36A18.46,18.46,0,0,0,616.75,352V268.43A28.57,28.57,0,0,1,588.73,239.86ZM389.64,192.17H358.26V178.63h31.38Z" transform="translate(-308.15 -108.26)"/><path class="cls-2" d="M365.31,239.86a28.71,28.71,0,0,0-.93-7.28H359.6v-8.19h1.16a28.54,28.54,0,0,0-23.55-13.09h-.48a28.58,28.58,0,1,0,0,57.15h.48A28.57,28.57,0,0,0,365.31,239.86Zm-28.58,20.59a20.59,20.59,0,1,1,20.59-20.59A20.58,20.58,0,0,1,336.73,260.45Z" transform="translate(-308.15 -108.26)"/><path class="cls-2" d="M617.31,211.29h-.56a28.57,28.57,0,0,0,0,57.13h.56a28.58,28.58,0,1,0,0-57.15Zm0,49.16a20.59,20.59,0,1,1,20.59-20.59A20.59,20.59,0,0,1,617.3,260.45Z" transform="translate(-308.15 -108.26)"/><polygon class="cls-3" points="90.83 15.07 90.83 16.97 90.83 16.97 90.83 15.65 246.54 15.65 246.54 83.88 247.11 83.88 247.11 15.07 211.17 15.07 126.67 15.07 90.83 15.07"/><rect class="cls-4" x="50.1" y="70.37" width="7.35" height="13.54"/><rect class="cls-4" x="74.13" y="70.37" width="7.35" height="13.54"/><rect class="cls-5" x="57.46" y="70.37" width="16.68" height="13.54"/><rect class="cls-4" x="51.16" y="97.75" width="8.31" height="8.2"/><polygon class="cls-4" points="51.44 124.32 56.22 124.32 59.47 124.32 59.47 116.13 52.6 116.13 51.44 116.13 51.44 124.32"/><rect class="cls-4" x="72.78" y="106.91" width="9.21" height="8.2"/><polygon class="cls-5" points="59.47 126.43 72.78 126.43 72.78 115.11 72.78 106.91 72.78 95.59 59.47 95.59 59.47 97.75 59.47 105.94 59.47 116.13 59.47 124.32 59.47 126.43"/><path class="cls-5" d="M507.43,358.57a76.55,76.55,0,1,0-21.29,3A76.79,76.79,0,0,0,507.43,358.57Zm-19.91-91.65A17.06,17.06,0,1,1,470.46,284,17.06,17.06,0,0,1,487.52,266.92Z" transform="translate(-308.15 -108.26)"/><polygon class="cls-3" points="90.82 17.22 90.83 17.22 90.83 16.97 90.83 16.97 90.63 16.97 90.63 18.42 90.82 18.42 90.82 17.22"/><rect class="cls-3" x="90.82" y="17.22" width="0.01" height="1.2"/><polygon class="cls-3" points="90.82 18.67 90.83 18.67 90.83 18.42 90.82 18.42 90.63 18.42 90.63 85.53 90.63 86.98 90.82 86.98 90.82 85.78 90.82 18.67"/><polygon class="cls-3" points="90.83 18.67 90.82 18.67 90.82 85.78 90.82 86.98 90.82 87.23 90.83 87.23 90.83 18.67"/><polygon class="cls-2" points="212.47 91.66 212.49 91.66 212.49 90.21 212.49 88.45 212.47 88.45 212.47 91.66"/><polygon class="cls-3" points="90.83 15.65 90.83 16.97 90.83 17.22 90.83 18.42 90.83 18.67 90.83 87.23 90.83 88.45 124.66 88.45 124.66 78.7 101.08 78.7 101.08 25.44 236.15 25.44 236.15 78.7 212.47 78.7 212.47 88.45 212.49 88.45 246.54 88.45 246.54 83.88 246.54 15.65 90.83 15.65"/><path class="cls-6" d="M422.48,187V176h0V165.93H531V176h0v11H544.3V133.7H409.23V187h13.25Zm47-23.32H451.42V145.56h18.07Zm14,0V145.56h18.08v18.08Zm32.06,0V145.56h18.07v18.08Zm-96-18.08h18.08v18.08H419.55Z" transform="translate(-308.15 -108.26)"/><rect class="cls-7" x="207.4" y="37.3" width="18.07" height="18.07"/><rect class="cls-7" x="175.34" y="37.3" width="18.07" height="18.07"/><rect class="cls-7" x="143.26" y="37.3" width="18.07" height="18.07"/><rect class="cls-7" x="111.4" y="37.3" width="18.07" height="18.07"/><polygon class="cls-2" points="212.47 88.45 212.47 78.7 212.47 78.69 124.66 78.69 124.66 78.7 124.66 88.45 124.66 94.82 212.47 94.82 212.47 91.66 212.47 88.45"/><polygon class="cls-3" points="222.88 78.69 222.88 67.74 114.33 67.74 114.33 78.69 124.66 78.69 212.47 78.69 222.88 78.69"/><polygon class="cls-6" points="222.88 67.74 222.88 67.74 222.88 57.67 114.31 57.67 114.31 67.74 114.33 67.74 222.88 67.74"/><text class="cls-8" transform="translate(60.71 186.42) rotate(90)">B</text><text class="cls-8" transform="translate(60.71 200.49) rotate(90)">U</text><text class="cls-8" transform="translate(60.71 215.71) rotate(90)">Z</text><text class="cls-8" transform="translate(60.71 228.99) rotate(90)">1</text></g></g></svg>