<svg xmlns="http://www.w3.org/2000/svg" width="160" height="80" viewBox="0 0 530.05 260.02"><defs><style>.cls-1{font-size:22.23px;}.cls-1,.cls-15,.cls-8{fill:#1a1a1a;}.cls-1,.cls-15,.cls-16{font-family:Montserrat-Regular, Montserrat;}.cls-2{fill:#004684;}.cls-3{fill:#f1eddd;}.cls-4{fill:#737373;}.cls-5{fill:#012d54;}.cls-6{fill:#258792;}.cls-14,.cls-16,.cls-7{fill:#fff;}.cls-9{fill:#272626;}.cls-10{fill:#a6a6a6;}.cls-11{fill:#d9d9d9;}.cls-12{fill:#fefefe;}.cls-13{fill:#e8e5d7;}.cls-14{font-size:13.08px;font-family:Montserrat-Bold, Montserrat;font-weight:700;}.cls-15{font-size:13.7px;}.cls-16{font-size:6.85px;}</style></defs><title>Asset 1</title><g id="Layer_2" data-name="Layer 2"><g id="Layer_1-2" data-name="Layer 1"><text class="cls-1" transform="translate(208.91 74.27)"> </text><path class="cls-2" d="M643.87,328.87c-.55,0-1.1.07-1.65.08C642.77,328.94,643.32,328.91,643.87,328.87Z" transform="translate(-215.64 -142.33)"/><path class="cls-2" d="M716.4,270.83v-.62a60.3,60.3,0,0,0-7.44,3.14c1.66-.66,3.34-1.29,5-1.83C714.82,271.27,715.61,271,716.4,270.83Z" transform="translate(-215.64 -142.33)"/><path class="cls-2" d="M664.48,319.1a35.84,35.84,0,0,1-6.49,5.25,35.59,35.59,0,0,0,6.48-5.22Z" transform="translate(-215.64 -142.33)"/><path class="cls-2" d="M716.4,275.36h0l-1.11.32h0Z" transform="translate(-215.64 -142.33)"/><path class="cls-2" d="M655.14,315.75a35.28,35.28,0,0,1-13.45,2.61c-.61,0-1.22,0-1.83,0a45.63,45.63,0,0,1-10.56-1.82v1.17a35.21,35.21,0,0,0,11.15,2.53A22.06,22.06,0,0,0,655.14,315.75Z" transform="translate(-215.64 -142.33)"/><path class="cls-2" d="M646.43,328.61c.3,0,.6-.11.9-.16C647,328.5,646.73,328.57,646.43,328.61Z" transform="translate(-215.64 -142.33)"/><path class="cls-2" d="M644.34,328.85c.53,0,1-.11,1.57-.18C645.39,328.74,644.87,328.81,644.34,328.85Z" transform="translate(-215.64 -142.33)"/><path class="cls-2" d="M640.25,338.9h0c.57,0,1.14,0,1.7,0-.56,0-1.13,0-1.7,0Z" transform="translate(-215.64 -142.33)"/><path class="cls-2" d="M648.47,328.24l.1,0Z" transform="translate(-215.64 -142.33)"/><path class="cls-2" d="M645.86,358.29c-.51.07-1,.14-1.52.18C644.85,358.43,645.35,358.36,645.86,358.29Z" transform="translate(-215.64 -142.33)"/><path class="cls-2" d="M716.4,265.58h0a66.89,66.89,0,0,0-16.88,8.22v0A66.09,66.09,0,0,1,716.4,265.58Z" transform="translate(-215.64 -142.33)"/><path class="cls-2" d="M694.53,277.55h0A66.58,66.58,0,0,0,680.81,293l.07-.08A66.45,66.45,0,0,1,694.53,277.55Z" transform="translate(-215.64 -142.33)"/><path class="cls-2" d="M656.05,344.65a35.36,35.36,0,0,1-14.36,3c-.61,0-1.22,0-1.83-.05a45.63,45.63,0,0,1-10.56-1.82v1.5a35.48,35.48,0,0,0,11.15,2.53A22.13,22.13,0,0,0,656.05,344.65Z" transform="translate(-215.64 -142.33)"/><path class="cls-2" d="M644,343.2c-.59,0-1.19.08-1.79.09C642.82,343.28,643.42,343.24,644,343.2Z" transform="translate(-215.64 -142.33)"/><path class="cls-2" d="M716.4,286.11v-1.56A62.34,62.34,0,0,0,701.6,292,75,75,0,0,1,714,286.8C714.82,286.55,715.61,286.32,716.4,286.11Z" transform="translate(-215.64 -142.33)"/><path class="cls-2" d="M662.76,335.08a34.78,34.78,0,0,1-4.77,3.61,35.52,35.52,0,0,0,4.77-3.6Z" transform="translate(-215.64 -142.33)"/><path class="cls-2" d="M716.4,279.91h0a66.46,66.46,0,0,0-37.51,30.59l.06-.08A66.65,66.65,0,0,1,716.4,279.91Z" transform="translate(-215.64 -142.33)"/><path class="cls-2" d="M646.43,343c.3,0,.59-.11.89-.16C647,342.84,646.73,342.91,646.43,343Z" transform="translate(-215.64 -142.33)"/><path class="cls-2" d="M716.4,290.64h0l-1.11.32h0Z" transform="translate(-215.64 -142.33)"/><path class="cls-2" d="M678,327.42c-.59,1.1-1.16,2.21-1.71,3.3v0c.56-1.1,1.15-2.23,1.73-3.34a66.64,66.64,0,0,1,38.41-32.23h0A66.53,66.53,0,0,0,678,327.42Z" transform="translate(-215.64 -142.33)"/><path class="cls-2" d="M644.34,343.19c.51,0,1-.11,1.52-.18C645.35,343.08,644.85,343.15,644.34,343.19Z" transform="translate(-215.64 -142.33)"/><path class="cls-2" d="M658,354a35.52,35.52,0,0,0,4.77-3.6h0A34.78,34.78,0,0,1,658,354Z" transform="translate(-215.64 -142.33)"/><path class="cls-2" d="M642,354.21c-.56,0-1.13,0-1.7,0h0C640.82,354.2,641.39,354.22,642,354.21Z" transform="translate(-215.64 -142.33)"/><path class="cls-2" d="M653,331.5a35.35,35.35,0,0,1-11.32,1.82c-.61,0-1.22,0-1.83-.05a45.63,45.63,0,0,1-10.56-1.82V332a35.48,35.48,0,0,0,11.15,2.53A22,22,0,0,0,653,331.5Z" transform="translate(-215.64 -142.33)"/><path class="cls-2" d="M686.45,253.8v0A66.08,66.08,0,0,0,678,266.08v0A66.75,66.75,0,0,1,686.45,253.8Z" transform="translate(-215.64 -142.33)"/><path class="cls-2" d="M644,297.21c-.59,0-1.19.08-1.79.08C642.82,297.29,643.42,297.25,644,297.21Z" transform="translate(-215.64 -142.33)"/><path class="cls-2" d="M667.71,283.81l0-.05a38.36,38.36,0,0,1-9.75,8.93A38.2,38.2,0,0,0,667.71,283.81Z" transform="translate(-215.64 -142.33)"/><path class="cls-2" d="M648.47,342.58l.18-.05Z" transform="translate(-215.64 -142.33)"/><path class="cls-2" d="M714,242.23c.81-.25,1.6-.48,2.39-.7v-3a62.34,62.34,0,0,0-16.88,9v1.06A75,75,0,0,1,714,242.23Z" transform="translate(-215.64 -142.33)"/><path class="cls-2" d="M659.26,297c-.87.5-1.74,1-2.64,1.39a35.52,35.52,0,0,1-14.93,3.24c-.61,0-1.22,0-1.83,0a46.18,46.18,0,0,1-10.56-1.83v2.93a35.48,35.48,0,0,0,11.15,2.53C647.72,305.59,653.91,302.89,659.26,297Z" transform="translate(-215.64 -142.33)"/><path class="cls-2" d="M676.24,380.49H651.15v11.38h25.09Zm-15.48,9.43h-7.55v-7.26h7.55Zm8.77-.26a3.49,3.49,0,1,1,3.48-3.49A3.49,3.49,0,0,1,669.53,389.66Z" transform="translate(-215.64 -142.33)"/><path class="cls-2" d="M648.65,357.81l-.18.05Z" transform="translate(-215.64 -142.33)"/><path class="cls-2" d="M640.25,309.6h0l1.7,0-1.7,0Z" transform="translate(-215.64 -142.33)"/><path class="cls-2" d="M647.32,358.07c-.3.05-.59.12-.89.16C646.73,358.19,647,358.12,647.32,358.07Z" transform="translate(-215.64 -142.33)"/><path class="cls-2" d="M644.34,313.9c.53,0,1-.11,1.57-.18C645.39,313.79,644.87,313.85,644.34,313.9Z" transform="translate(-215.64 -142.33)"/><path class="cls-2" d="M644,358.48c-.59,0-1.19.08-1.79.09C642.82,358.56,643.42,358.53,644,358.48Z" transform="translate(-215.64 -142.33)"/><path class="cls-2" d="M716.68,142.33H246.09a29.06,29.06,0,0,0-29,29v61a41.13,41.13,0,0,1,5.64,1.66v-9.54h2.54v-3.57h9v-.21h64.48v9.82H282.87v6.52h21.57v.16h8.33v4H284a14.49,14.49,0,0,1,.61,4.14,14.3,14.3,0,0,1-1.78,6.92v6.65h21.57v.16h8.33v4h-29.9v18.64h21.57V282h8.32v4H282.87v2.34a14.36,14.36,0,0,1,0,13.85v1h21.57v.22h8.32v4H282.87v6.46h15.85v9.82H265.63v-.11H225.27v-2.49h-2.54v-10.3a39.77,39.77,0,0,1-5.64,1.66v60.91a29.07,29.07,0,0,0,29,29H716.68a29.07,29.07,0,0,0,29-29v-202A29.06,29.06,0,0,0,716.68,142.33ZM243.09,176.66a12.15,12.15,0,1,1,12.15-12.15A12.15,12.15,0,0,1,243.09,176.66Zm0,216.75a12.15,12.15,0,1,1,12.15-12.15A12.15,12.15,0,0,1,243.09,393.41Zm474-241a12.15,12.15,0,1,1-12.16,12.15A12.15,12.15,0,0,1,717.09,152.36Zm-53.4,58.17h13.07v7.1h.43v16.1h-.43v7.09H663.69Zm-8.23,45.17v16.1H655v7.09H642V248.6H655v7.1Zm-13.72-45.17h13.07v7.1h.43v16.1h-.43v7.09H641.74Zm34.9,181.74H650.76V380.1h25.88Zm23.75-45.64H700v7.09H686.89V323.43H700v7.1h.43Zm16.7,46.78a12.15,12.15,0,1,1,12.15-12.15A12.15,12.15,0,0,1,717.09,393.41Zm28.47-89H745v8.11H716.4V299.83a62.17,62.17,0,0,0-34.55,29.64c-.6,1.2-1.23,2.42-1.84,3.61-1.19,2.34-2.42,4.71-3.75,7.05v6.5h-.43v7.09H665.58a37.14,37.14,0,0,1-9,6,35.38,35.38,0,0,1-14.93,3.25c-.61,0-1.22,0-1.83-.05a45.63,45.63,0,0,1-10.56-1.82v12.25a29.08,29.08,0,0,1-29,29H381.09a28.87,28.87,0,0,1-16.48-5.16c-.3-.08-.6-.14-.9-.23a15.94,15.94,0,0,1-1.51-.54c-.5-.21-1-.44-1.46-.69s-.93-.53-1.38-.83a17.32,17.32,0,0,1-2.49-2c-.38-.38-.74-.78-1.08-1.19s-.66-.85-1-1.3a15.6,15.6,0,0,1-1.51-2.83c-.21-.5-.39-1-.55-1.52s-.28-1-.39-1.56-.18-1.06-.23-1.59a16.24,16.24,0,0,1,0-3.22c.05-.54.13-1.07.23-1.59a1.05,1.05,0,0,1,.05-.19,28.41,28.41,0,0,1-.36-4.55v-202a29.07,29.07,0,0,1,29-29H600.28a28.84,28.84,0,0,1,9.38,1.57c.41,0,.82-.06,1.24-.06a14.29,14.29,0,0,1,1.6.08c.54.05,1.07.13,1.6.23s1,.24,1.56.4a14.49,14.49,0,0,1,1.52.54,13.7,13.7,0,0,1,1.45.69,15.68,15.68,0,0,1,1.38.82c.45.3.88.62,1.3,1s.81.71,1.19,1.09a15.25,15.25,0,0,1,1.08,1.19c.34.41.66.85,1,1.29s.58.91.83,1.38.48,1,.69,1.46.38,1,.54,1.52a13.68,13.68,0,0,1,.39,1.56c.11.52.18,1.06.24,1.59s.08,1.07.08,1.61c0,.17,0,.33,0,.5a28.78,28.78,0,0,1,2,10.61V286a35.48,35.48,0,0,0,11.15,2.52c8.68.42,15.83-3.5,21.84-12,.78-1.09,1.5-2.27,2.21-3.49V248.6h13.07v2.27A75.1,75.1,0,0,1,687,240.82h-1V210.53h13.07v7.1h.43v14.26a75.39,75.39,0,0,1,14.5-6.36c.81-.26,1.6-.48,2.39-.7v-15H745V218h.55Z" transform="translate(-215.64 -142.33)"/><path class="cls-2" d="M716.4,233.92h0a66.31,66.31,0,0,0-23.49,13.34h0A66.49,66.49,0,0,1,716.4,233.92Z" transform="translate(-215.64 -142.33)"/><path class="cls-2" d="M642,292.94c-.56,0-1.13,0-1.7,0h0C640.82,292.93,641.39,292.94,642,292.94Z" transform="translate(-215.64 -142.33)"/><path class="cls-2" d="M648.47,296.58l.18,0Z" transform="translate(-215.64 -142.33)"/><path class="cls-2" d="M646.43,297l.89-.17Z" transform="translate(-215.64 -142.33)"/><path class="cls-2" d="M640.25,324.56h0c.57,0,1.14,0,1.7,0-.56,0-1.13,0-1.7,0Z" transform="translate(-215.64 -142.33)"/><path class="cls-2" d="M644.34,297.19c.51,0,1-.1,1.52-.17C645.35,297.09,644.85,297.15,644.34,297.19Z" transform="translate(-215.64 -142.33)"/><path class="cls-2" d="M665.37,303.23l0,0a36.72,36.72,0,0,1-7.4,6.21A37,37,0,0,0,665.37,303.23Z" transform="translate(-215.64 -142.33)"/><path class="cls-2" d="M716.4,256.49v-1.23A61.88,61.88,0,0,0,704,261.19a75.56,75.56,0,0,1,10.06-4C714.82,256.93,715.61,256.7,716.4,256.49Z" transform="translate(-215.64 -142.33)"/><path class="cls-2" d="M643.87,313.92c-.55,0-1.1.07-1.65.08C642.77,314,643.32,314,643.87,313.92Z" transform="translate(-215.64 -142.33)"/><path class="cls-2" d="M648.47,313.28l.1,0Z" transform="translate(-215.64 -142.33)"/><path class="cls-2" d="M686.45,270.5v0a66.26,66.26,0,0,0-7,9.78l.07-.08A66.84,66.84,0,0,1,686.45,270.5Z" transform="translate(-215.64 -142.33)"/><path class="cls-2" d="M716.4,250.62h0A66.67,66.67,0,0,0,700,258.56h0A66.89,66.89,0,0,1,716.4,250.62Z" transform="translate(-215.64 -142.33)"/><path class="cls-2" d="M646.43,313.66l.9-.17Z" transform="translate(-215.64 -142.33)"/><rect class="cls-3" x="18.61" y="78.4" width="31.38" height="0.2"/><rect class="cls-4" x="67.24" y="94.74" width="21.57" height="0.16"/><rect class="cls-4" x="67.24" y="116.61" width="21.57" height="0.16"/><rect class="cls-4" x="67.24" y="139.41" width="21.57" height="0.23"/><rect class="cls-4" x="67.24" y="160.83" width="21.57" height="0.22"/><path class="cls-5" d="M243.09,152.36a12.15,12.15,0,1,0,12.15,12.15A12.15,12.15,0,0,0,243.09,152.36Zm0,20.9a8.75,8.75,0,1,1,8.75-8.75A8.76,8.76,0,0,1,243.09,173.26Z" transform="translate(-215.64 -142.33)"/><path class="cls-5" d="M717.09,176.66a12.15,12.15,0,1,0-12.16-12.15A12.15,12.15,0,0,0,717.09,176.66Zm0-20.9a8.75,8.75,0,1,1-8.75,8.75A8.75,8.75,0,0,1,717.08,155.76Z" transform="translate(-215.64 -142.33)"/><path class="cls-5" d="M717.09,369.11a12.15,12.15,0,1,0,12.15,12.15A12.15,12.15,0,0,0,717.09,369.11Zm0,20.9a8.75,8.75,0,1,1,8.76-8.75A8.75,8.75,0,0,1,717.08,390Z" transform="translate(-215.64 -142.33)"/><path class="cls-5" d="M243.09,369.11a12.15,12.15,0,1,0,12.15,12.15A12.15,12.15,0,0,0,243.09,369.11Zm0,20.9a8.75,8.75,0,1,1,8.75-8.75A8.76,8.76,0,0,1,243.09,390Z" transform="translate(-215.64 -142.33)"/><path class="cls-6" d="M627.42,355.88h0v-4.67h0v-4.7c.61.27,1.25.53,1.9.78v-1.5c-.63-.19-1.26-.36-1.88-.57V340.6h0v-4.67h0v-4.7c.61.27,1.25.53,1.9.78v-.56c-.63-.19-1.26-.36-1.88-.57v-4.61h0V321.6h0v-4.71c.61.27,1.25.53,1.9.78V316.5c-.63-.19-1.26-.36-1.88-.58v-4.61h0v-4.66h0v-4.71c.61.27,1.25.53,1.9.79v-2.93c-.63-.18-1.26-.36-1.88-.57v-4.61h0v-4.66h0v-4.71c.61.27,1.25.53,1.9.79V171.36a28.78,28.78,0,0,0-2-10.61c0,.37,0,.74,0,1.11-.06.53-.13,1.06-.24,1.59a13.68,13.68,0,0,1-.39,1.56c-.16.52-.34,1-.54,1.52s-.44,1-.69,1.45a15,15,0,0,1-.83,1.39q-.45.66-1,1.29a15.25,15.25,0,0,1-1.08,1.19c-.38.38-.78.74-1.19,1.08a13.18,13.18,0,0,1-1.3,1,13.63,13.63,0,0,1-1.38.83,16,16,0,0,1-1.45.69,14.49,14.49,0,0,1-1.52.54,16.79,16.79,0,0,1-3.16.63c-.53,0-1.07.08-1.6.08s-1.08,0-1.61-.08a14.36,14.36,0,0,1-1.6-.24,14.82,14.82,0,0,1-1.56-.39,13.57,13.57,0,0,1-1.51-.54,15,15,0,0,1-1.46-.69c-.47-.25-.93-.53-1.38-.83a13.18,13.18,0,0,1-1.3-1c-.41-.34-.81-.7-1.19-1.08a15.25,15.25,0,0,1-1.08-1.19q-.51-.63-1-1.29c-.3-.45-.57-.91-.83-1.39s-.48-.95-.69-1.45-.38-1-.54-1.52-.28-1-.39-1.56-.18-1.06-.24-1.59-.07-1.07-.07-1.61,0-1.07.07-1.61.14-1.07.24-1.59.24-1.05.39-1.56.34-1,.54-1.52.44-1,.69-1.46.53-.93.83-1.38.62-.88,1-1.29a15.25,15.25,0,0,1,1.08-1.19c.38-.38.78-.75,1.19-1.09s.85-.66,1.3-1,.91-.57,1.38-.82a13,13,0,0,1,1.46-.69,13.57,13.57,0,0,1,1.51-.54c.52-.16,1-.29,1.56-.4s1.06-.18,1.6-.23l.37,0a28.84,28.84,0,0,0-9.38-1.57H381.09a29.07,29.07,0,0,0-29,29v202a28.41,28.41,0,0,0,.36,4.55c.1-.46.21-.92.34-1.38a18.59,18.59,0,0,1,1.23-3c.26-.47.53-.93.83-1.38a16.61,16.61,0,0,1,4.53-4.53c.45-.3.91-.57,1.38-.83a14.92,14.92,0,0,1,1.46-.68,16,16,0,0,1,1.51-.55c.52-.15,1-.28,1.57-.39s1.05-.18,1.59-.23a14.35,14.35,0,0,1,1.61-.08,14.59,14.59,0,0,1,1.61.08c.53.05,1.06.13,1.59.23s1.05.24,1.56.39,1,.34,1.52.55a15.6,15.6,0,0,1,2.83,1.51c.45.3.88.62,1.3,1s.81.7,1.19,1.08a17.32,17.32,0,0,1,2,2.49c.3.45.58.91.83,1.38s.48,1,.69,1.46.38,1,.54,1.51a14.4,14.4,0,0,1,.39,1.57,13.84,13.84,0,0,1,.24,1.59c.05.53.08,1.07.08,1.61s0,1.07-.08,1.61a14.54,14.54,0,0,1-.24,1.59,13.68,13.68,0,0,1-.39,1.56c-.16.52-.34,1-.54,1.52s-.44,1-.69,1.45a13.63,13.63,0,0,1-.83,1.38c-.3.45-.62.88-1,1.3s-.7.81-1.08,1.19-.78.74-1.19,1.08-.85.66-1.3,1a13.63,13.63,0,0,1-1.38.83c-.47.25-1,.48-1.45.69s-1,.39-1.52.54a13.68,13.68,0,0,1-1.56.39,14.54,14.54,0,0,1-1.59.24c-.54.05-1.08.08-1.61.08s-1.08,0-1.61-.08a13.84,13.84,0,0,1-1.59-.24c-.23,0-.45-.11-.67-.16a28.87,28.87,0,0,0,16.48,5.16H600.28a29.08,29.08,0,0,0,29-29V361.07c-.63-.19-1.26-.36-1.88-.57ZM489.2,231.26c-.2,1-.43,2.06-.69,3.08s-.54,2-.84,3-.64,2-1,3-.73,2-1.13,2.95-.84,1.94-1.29,2.89-.92,1.9-1.42,2.83-1,1.84-1.56,2.75-1.1,1.79-1.69,2.67-1.19,1.74-1.82,2.59-1.28,1.68-1.95,2.49-1.36,1.62-2.06,2.4-1.44,1.54-2.19,2.29-1.45,1.42-2.21,2.1l10,13.19-7.67,5.84-10-13.09c-.87.57-1.74,1.13-2.64,1.67s-1.82,1.06-2.75,1.56-1.87,1-2.82,1.42-1.92.88-2.9,1.28-1.95.78-2.95,1.14-2,.68-3,1-2,.59-3.05.84-2,.49-3.09.7-2.07.38-3.11.54-2.09.28-3.14.38-2.1.19-3.16.24-2.1.08-3.16.08-2.11,0-3.16-.08-2.11-.13-3.16-.24-2.09-.23-3.14-.38-2.08-.34-3.11-.54-2.07-.44-3.09-.7-2-.53-3.05-.84-2-.64-3-1-2-.74-2.95-1.14-1.94-.83-2.9-1.28-1.89-.93-2.82-1.42-1.55-.86-2.31-1.31l-12.24,17.5-7.89-5.52,12.21-17.48-.28-.21c-.81-.67-1.61-1.36-2.39-2.07s-1.55-1.44-2.29-2.18-1.48-1.51-2.18-2.29-1.4-1.58-2.07-2.4-1.32-1.65-1.95-2.49-1.23-1.71-1.82-2.59-1.15-1.77-1.69-2.67-1.06-1.82-1.56-2.75-1-1.88-1.42-2.83-.88-1.92-1.28-2.89-.79-2-1.14-2.95-.69-2-1-3-.58-2-.84-3-.49-2.05-.69-3.08-.39-2.08-.54-3.12-.29-2.09-.39-3.14c-.07-.74-.12-1.48-.16-2.22h-3.92v-9.64h4c0-.26,0-.52.06-.77.1-1.05.23-2.1.39-3.14s.33-2.08.54-3.12.43-2.06.69-3.09.54-2,.84-3,.64-2,1-3,.73-2,1.14-2.95.83-1.94,1.28-2.89.92-1.9,1.42-2.83,1-1.85,1.56-2.75,1.11-1.8,1.69-2.67,1.19-1.74,1.82-2.59,1.28-1.68,1.95-2.49c.44-.54.9-1.06,1.36-1.58l-16-14.46,6.46-7.15,16.45,14.85.69-.6c.82-.67,1.65-1.31,2.5-1.94s1.71-1.24,2.58-1.82,1.77-1.15,2.68-1.7,1.82-1.06,2.75-1.56,1.87-1,2.82-1.42,1.92-.88,2.9-1.28,1.95-.78,2.95-1.14,2-.68,3-1,2-.59,3.05-.84,2.05-.49,3.09-.7,2.07-.38,3.11-.54,2.09-.28,3.14-.39,2.1-.18,3.16-.23,2.11-.08,3.16-.08,2.11,0,3.16.08,2.11.13,3.16.23,2.09.24,3.14.39,2.08.34,3.11.54,2.07.44,3.09.7,2,.53,3.05.84,2,.64,3,1,2,.74,2.95,1.14,1.94.83,2.9,1.28,1.89.93,2.82,1.42,1.85,1,2.75,1.56,1.8,1.11,2.68,1.7,1.74,1.19,2.58,1.82,1.68,1.27,2.5,1.94c.62.51,1.22,1,1.83,1.58l18.11-13.24L492.5,165l-17,12.44c.1.13.22.25.32.38q1,1.22,1.95,2.49c.63.85,1.23,1.71,1.82,2.59s1.15,1.77,1.69,2.67,1.06,1.82,1.56,2.75,1,1.87,1.42,2.83.88,1.92,1.29,2.89.78,2,1.13,2.95.69,2,1,3,.58,2,.84,3,.49,2.06.69,3.09.39,2.07.54,3.12.29,2.09.39,3.14.18,2.1.23,3.15c0,.13,0,.25,0,.37H511v9.64h-21c-.1.87-.2,1.74-.33,2.61Q489.52,229.7,489.2,231.26Zm67.93,170.57H509.59V378h47.54Z" transform="translate(-215.64 -142.33)"/><path class="cls-3" d="M726.54,297.46a43.2,43.2,0,0,0-8.64,1.85c-.51.16-1,.35-1.5.52v12.65H745v-8.11H726.54Z" transform="translate(-215.64 -142.33)"/><path class="cls-3" d="M716.6,233.85l-.2.07h0Z" transform="translate(-215.64 -142.33)"/><path class="cls-3" d="M726.54,218H745V209.8H716.4v15A53,53,0,0,1,726.54,223Z" transform="translate(-215.64 -142.33)"/><path class="cls-3" d="M716.4,255.26v1.23a53,53,0,0,1,10.14-1.81v-1.79a42.51,42.51,0,0,0-8.64,1.85C717.39,254.9,716.9,255.08,716.4,255.26Z" transform="translate(-215.64 -142.33)"/><path class="cls-3" d="M720.24,274.36c-1.25.28-2.54.62-3.84,1h0C717.7,275,719,274.64,720.24,274.36Z" transform="translate(-215.64 -142.33)"/><path class="cls-3" d="M716.6,265.51l-.2.06h0Z" transform="translate(-215.64 -142.33)"/><path class="cls-3" d="M716.4,284.55v1.56a53,53,0,0,1,10.14-1.81v-2.12A43.2,43.2,0,0,0,717.9,284C717.39,284.19,716.9,284.38,716.4,284.55Z" transform="translate(-215.64 -142.33)"/><path class="cls-3" d="M716.4,238.55v3a53,53,0,0,1,10.14-1.8v-3.54A43.13,43.13,0,0,0,717.9,238Z" transform="translate(-215.64 -142.33)"/><path class="cls-3" d="M716.4,295.19l.2-.06-.2.06Z" transform="translate(-215.64 -142.33)"/><path class="cls-3" d="M716.6,279.85l-.2.06h0Z" transform="translate(-215.64 -142.33)"/><path class="cls-3" d="M720.24,289.64c-1.25.28-2.54.62-3.84,1h0C717.7,290.26,719,289.92,720.24,289.64Z" transform="translate(-215.64 -142.33)"/><path class="cls-3" d="M716.4,270.21v.62A53,53,0,0,1,726.54,269v-1.18a43.91,43.91,0,0,0-8.64,1.85C717.39,269.85,716.9,270,716.4,270.21Z" transform="translate(-215.64 -142.33)"/><path class="cls-3" d="M716.6,250.55l-.2.07h0Z" transform="translate(-215.64 -142.33)"/><path class="cls-7" d="M727.43,248.41c.67,0,1.34-.07,2-.08C728.77,248.34,728.1,248.36,727.43,248.41Z" transform="translate(-215.64 -142.33)"/><path class="cls-7" d="M726.54,218v5a41.39,41.39,0,0,1,7.73.13c.57.07,1.13.15,1.69.24v8.87h0v4.51a26.76,26.76,0,0,0-3.17-.59,30,30,0,0,0-6.28,0v3.54a41.41,41.41,0,0,1,7.73.12c.57.07,1.13.16,1.69.24V249h0v4.51a26.72,26.72,0,0,0-3.17-.58,29.28,29.28,0,0,0-6.28,0v1.79a40.56,40.56,0,0,1,7.73.13c.57.06,1.13.15,1.69.24v8.86h0v4.51a26.76,26.76,0,0,0-3.17-.59,29.28,29.28,0,0,0-6.28,0V269a40.56,40.56,0,0,1,7.73.13c.57.06,1.13.15,1.69.24v8.86h0v4.52a24.88,24.88,0,0,0-3.17-.59,29.28,29.28,0,0,0-6.28,0v2.12a40.56,40.56,0,0,1,7.73.13c.57.06,1.13.15,1.69.24v8.86h0v4.52a24.88,24.88,0,0,0-3.17-.59,29.28,29.28,0,0,0-6.28,0v6.91h19V218h-19Z" transform="translate(-215.64 -142.33)"/><path class="cls-7" d="M727.43,277.7c.67-.05,1.34-.07,2-.08C728.77,277.63,728.1,277.65,727.43,277.7Z" transform="translate(-215.64 -142.33)"/><path class="cls-7" d="M727.43,263.36c.67,0,1.34-.07,2-.07C728.77,263.29,728.1,263.32,727.43,263.36Z" transform="translate(-215.64 -142.33)"/><path class="cls-7" d="M727.43,293c.67-.05,1.34-.07,2-.08C728.77,292.91,728.1,292.93,727.43,293Z" transform="translate(-215.64 -142.33)"/><path class="cls-7" d="M727.43,231.71c.67-.05,1.34-.07,2-.08C728.77,231.64,728.1,231.66,727.43,231.71Z" transform="translate(-215.64 -142.33)"/><rect class="cls-8" x="293.95" y="235.65" width="47.54" height="23.85"/><path class="cls-8" d="M607.69,144.15c-.52.11-1,.24-1.56.4a13.57,13.57,0,0,0-1.51.54,13,13,0,0,0-1.46.69c-.47.25-.93.53-1.38.82s-.88.62-1.3,1-.81.71-1.19,1.09a15.25,15.25,0,0,0-1.08,1.19c-.34.41-.66.85-1,1.29s-.57.91-.83,1.38-.48,1-.69,1.46-.38,1-.54,1.52-.28,1-.39,1.56-.18,1.06-.24,1.59-.07,1.07-.07,1.61,0,1.07.07,1.61.14,1.06.24,1.59.24,1.05.39,1.56.34,1,.54,1.52.44,1,.69,1.45.53.94.83,1.39.62.87,1,1.29a15.25,15.25,0,0,0,1.08,1.19c.38.38.78.74,1.19,1.08a13.18,13.18,0,0,0,1.3,1c.45.3.91.58,1.38.83a15,15,0,0,0,1.46.69,13.57,13.57,0,0,0,1.51.54,14.82,14.82,0,0,0,1.56.39,14.36,14.36,0,0,0,1.6.24c.53,0,1.07.08,1.61.08s1.07,0,1.6-.08a16.74,16.74,0,0,0,4.68-1.17,16,16,0,0,0,1.45-.69,13.63,13.63,0,0,0,1.38-.83,13.18,13.18,0,0,0,1.3-1c.41-.34.81-.7,1.19-1.08a15.25,15.25,0,0,0,1.08-1.19q.51-.63,1-1.29a15,15,0,0,0,.83-1.39c.25-.47.48-.95.69-1.45s.38-1,.54-1.52a13.68,13.68,0,0,0,.39-1.56c.11-.53.18-1.06.24-1.59,0-.37,0-.74,0-1.11,0-.17,0-.33,0-.5,0-.54,0-1.07-.08-1.61s-.13-1.07-.24-1.59a13.68,13.68,0,0,0-.39-1.56c-.16-.52-.34-1-.54-1.52s-.44-1-.69-1.46-.53-.93-.83-1.38-.62-.88-1-1.29a15.25,15.25,0,0,0-1.08-1.19c-.38-.38-.78-.75-1.19-1.09s-.85-.66-1.3-1a15.68,15.68,0,0,0-1.38-.82,13.7,13.7,0,0,0-1.45-.69,14.49,14.49,0,0,0-1.52-.54c-.51-.16-1-.29-1.56-.4s-1.06-.18-1.6-.23a14.29,14.29,0,0,0-1.6-.08c-.42,0-.83,0-1.24.06l-.37,0C608.75,144,608.22,144.05,607.69,144.15Zm14,18.24a10.75,10.75,0,0,1-.63,2.07,11,11,0,0,1-4,4.93,11.24,11.24,0,0,1-4,1.64,11.06,11.06,0,0,1-4.29,0,10.65,10.65,0,0,1-2.06-.63,10.48,10.48,0,0,1-1.9-1,11,11,0,0,1-1.67-1.37,10.83,10.83,0,0,1-1.36-1.66,11.58,11.58,0,0,1-1-1.9,10.72,10.72,0,0,1-.62-2.07,10.23,10.23,0,0,1-.22-2.14,10.39,10.39,0,0,1,.22-2.15,10.84,10.84,0,0,1,.62-2.06,11.58,11.58,0,0,1,1-1.9,10.83,10.83,0,0,1,1.36-1.66,11,11,0,0,1,1.67-1.37,11.19,11.19,0,0,1,1.9-1,11.37,11.37,0,0,1,2.06-.62,11.07,11.07,0,0,1,6.35.62,11.19,11.19,0,0,1,1.9,1,11,11,0,0,1,1.67,1.37,11.05,11.05,0,0,1,3,5.62,11.11,11.11,0,0,1,.21,2.15A10.94,10.94,0,0,1,621.68,162.39Z" transform="translate(-215.64 -142.33)"/><path class="cls-8" d="M366.87,397.59c.53.05,1.07.08,1.61.08s1.07,0,1.61-.08a14.54,14.54,0,0,0,1.59-.24,13.68,13.68,0,0,0,1.56-.39c.51-.15,1-.34,1.52-.54s1-.44,1.45-.69a13.63,13.63,0,0,0,1.38-.83c.45-.3.88-.62,1.3-1s.81-.7,1.19-1.08.74-.78,1.08-1.19.66-.85,1-1.3A13.63,13.63,0,0,0,383,389c.25-.47.48-1,.69-1.45s.38-1,.54-1.52a13.68,13.68,0,0,0,.39-1.56,14.54,14.54,0,0,0,.24-1.59c.05-.54.08-1.07.08-1.61s0-1.08-.08-1.61a13.84,13.84,0,0,0-.24-1.59,14.4,14.4,0,0,0-.39-1.57c-.16-.51-.34-1-.54-1.51s-.44-1-.69-1.46-.53-.93-.83-1.38a17.32,17.32,0,0,0-2-2.49c-.38-.38-.78-.74-1.19-1.08s-.85-.66-1.3-1a15.6,15.6,0,0,0-2.83-1.51c-.5-.21-1-.39-1.52-.55s-1-.28-1.56-.39-1.06-.18-1.59-.23a14.59,14.59,0,0,0-1.61-.08,14.35,14.35,0,0,0-1.61.08c-.54.05-1.07.13-1.59.23s-1,.24-1.57.39a16,16,0,0,0-1.51.55,14.92,14.92,0,0,0-1.46.68c-.47.26-.93.53-1.38.83a16.61,16.61,0,0,0-4.53,4.53c-.3.45-.57.91-.83,1.38a18.59,18.59,0,0,0-1.23,3c-.13.46-.24.92-.34,1.38a1.05,1.05,0,0,0-.05.19c-.1.52-.18,1.05-.23,1.59a16.24,16.24,0,0,0,0,3.22c.05.53.13,1.06.23,1.59s.24,1.05.39,1.56.34,1,.55,1.52a15.6,15.6,0,0,0,1.51,2.83c.3.45.62.88,1,1.3s.7.81,1.08,1.19a17.32,17.32,0,0,0,2.49,2c.45.3.91.58,1.38.83s1,.48,1.46.69a15.94,15.94,0,0,0,1.51.54c.3.09.6.15.9.23s.44.12.67.16A13.84,13.84,0,0,0,366.87,397.59Zm-9.17-18.48a11.61,11.61,0,0,1,.62-2.06,11.19,11.19,0,0,1,1-1.9,10.83,10.83,0,0,1,1.36-1.66,11,11,0,0,1,1.67-1.37,11.19,11.19,0,0,1,1.9-1,11.37,11.37,0,0,1,2.06-.62,11.07,11.07,0,0,1,6.35.62,11.19,11.19,0,0,1,1.9,1,11,11,0,0,1,1.67,1.37,11.51,11.51,0,0,1,1.37,1.66,10.48,10.48,0,0,1,1,1.9,10.87,10.87,0,0,1,.63,2.06,11.06,11.06,0,0,1,0,4.29,11.24,11.24,0,0,1-1.64,4,11.6,11.6,0,0,1-1.37,1.67,11,11,0,0,1-1.67,1.37,11.24,11.24,0,0,1-4,1.64,11.06,11.06,0,0,1-4.29,0,10.65,10.65,0,0,1-2.06-.63,10.48,10.48,0,0,1-1.9-1,10.79,10.79,0,0,1-3-3,10.77,10.77,0,0,1-1.64-4,11.06,11.06,0,0,1,0-4.29Z" transform="translate(-215.64 -142.33)"/><path class="cls-8" d="M472.59,225.53c-.12.9-.27,1.79-.44,2.69-.31,1.51-.68,3-1.13,4.48a44.81,44.81,0,0,1-1.55,4.34,45.6,45.6,0,0,1-2,4.18c-.72,1.36-1.52,2.68-2.37,4s-1.77,2.52-2.75,3.71-2,2.33-3.1,3.42l-.36.34,10.44,13.71c.76-.68,1.49-1.38,2.21-2.1s1.48-1.51,2.19-2.29,1.39-1.58,2.06-2.4,1.32-1.65,1.95-2.49,1.23-1.71,1.82-2.59,1.15-1.77,1.69-2.67,1.06-1.82,1.56-2.75,1-1.88,1.42-2.83.88-1.92,1.29-2.89.78-2,1.13-2.95.69-2,1-3,.58-2,.84-3,.49-2.05.69-3.08.39-2.08.54-3.12c.13-.87.23-1.74.33-2.61Z" transform="translate(-215.64 -142.33)"/><path class="cls-8" d="M399.85,179.91q1.92-1.29,4-2.38t4.17-2c1.43-.59,2.87-1.11,4.35-1.56s3-.82,4.48-1.12,3-.53,4.57-.68,3.07-.22,4.61-.22,3.08.07,4.61.22,3.06.38,4.57.68,3,.68,4.48,1.12,2.93,1,4.35,1.56,2.81,1.25,4.17,2,2.68,1.52,4,2.38c.63.42,1.25.85,1.85,1.3l14.73-10.77c-.61-.53-1.21-1.07-1.83-1.58-.82-.67-1.65-1.31-2.5-1.94s-1.71-1.24-2.58-1.82-1.77-1.15-2.68-1.7-1.82-1.06-2.75-1.56-1.87-1-2.82-1.42-1.92-.88-2.9-1.28-1.95-.78-2.95-1.14-2-.68-3-1-2-.59-3.05-.84-2-.49-3.09-.7-2.07-.38-3.11-.54-2.09-.28-3.14-.39-2.1-.18-3.16-.23-2.1-.08-3.16-.08-2.11,0-3.16.08-2.11.13-3.16.23-2.09.24-3.14.39-2.08.34-3.11.54-2.07.44-3.09.7-2,.53-3.05.84-2,.64-3,1-2,.74-2.95,1.14-1.94.83-2.9,1.28-1.89.93-2.82,1.42-1.85,1-2.75,1.56-1.8,1.11-2.68,1.7-1.74,1.19-2.58,1.82-1.68,1.27-2.5,1.94l-.69.6,13.28,12C398.4,180.91,399.11,180.4,399.85,179.91Z" transform="translate(-215.64 -142.33)"/><path class="cls-8" d="M448.17,260.54q-2,1.08-4.17,2t-4.35,1.56a45.82,45.82,0,0,1-4.48,1.12c-1.51.3-3,.53-4.57.68s-3.07.22-4.61.22-3.08-.07-4.61-.22-3.06-.38-4.57-.68a45.82,45.82,0,0,1-4.48-1.12c-1.48-.45-2.92-1-4.35-1.56s-2.81-1.25-4.17-2l-.68-.39-9.83,14.07c.76.45,1.53.89,2.31,1.31s1.87,1,2.82,1.42,1.92.88,2.9,1.28,1.95.78,2.95,1.14,2,.68,3,1,2,.59,3.05.84,2.05.49,3.09.7,2.07.38,3.11.54,2.09.28,3.14.38,2.1.19,3.16.24,2.11.08,3.16.08,2.11,0,3.16-.08,2.11-.13,3.16-.24,2.09-.23,3.14-.38,2.08-.34,3.11-.54,2.07-.44,3.09-.7,2-.53,3.05-.84,2-.64,3-1,2-.74,2.95-1.14,1.94-.83,2.9-1.28,1.89-.93,2.82-1.42,1.85-1,2.75-1.56,1.77-1.1,2.64-1.67l-10.39-13.65C450.33,259.32,449.27,260,448.17,260.54Z" transform="translate(-215.64 -142.33)"/><path class="cls-8" d="M379.84,209.85c.3-1.51.67-3,1.12-4.48a44.81,44.81,0,0,1,1.55-4.34,45.6,45.6,0,0,1,2-4.18c.72-1.36,1.52-2.68,2.37-4s1.78-2.52,2.75-3.71c.32-.39.66-.77,1-1.15l-13.08-11.81c-.46.52-.92,1-1.36,1.58q-1,1.22-1.95,2.49c-.63.85-1.23,1.71-1.82,2.59s-1.15,1.77-1.69,2.67-1.06,1.82-1.56,2.75-1,1.87-1.42,2.83-.88,1.92-1.28,2.89-.79,2-1.14,2.95-.69,2-1,3-.58,2-.84,3-.49,2.06-.69,3.09-.39,2.07-.54,3.12-.29,2.09-.39,3.14c0,.25,0,.51-.06.77h17.53C379.45,212,379.62,210.94,379.84,209.85Z" transform="translate(-215.64 -142.33)"/><path class="cls-8" d="M462.37,189.18c1,1.19,1.89,2.43,2.75,3.71s1.65,2.6,2.37,4a45.6,45.6,0,0,1,2,4.18,44.81,44.81,0,0,1,1.55,4.34c.45,1.48.82,3,1.13,4.48s.52,3,.67,4.57c.05.49.08,1,.11,1.47h17.44c0-.12,0-.24,0-.37-.05-1.05-.13-2.1-.23-3.15s-.23-2.1-.39-3.14-.33-2.08-.54-3.12-.43-2.06-.69-3.09-.54-2-.84-3-.64-2-1-3-.73-2-1.13-2.95-.84-1.94-1.29-2.89-.92-1.9-1.42-2.83-1-1.85-1.56-2.75-1.1-1.8-1.69-2.67-1.19-1.74-1.82-2.59-1.28-1.68-1.95-2.49c-.1-.13-.22-.25-.32-.38l-14.27,10.43C461.61,188.29,462,188.73,462.37,189.18Z" transform="translate(-215.64 -142.33)"/><path class="cls-8" d="M392.71,252.31q-1.63-1.63-3.1-3.42t-2.75-3.71c-.85-1.28-1.65-2.6-2.37-4a45.6,45.6,0,0,1-2-4.18A44.81,44.81,0,0,1,381,232.7c-.45-1.48-.82-3-1.12-4.48a44.58,44.58,0,0,1-.68-4.57c0-.29,0-.58-.07-.87h-17.4c0,.74.09,1.48.16,2.22.1,1.05.23,2.1.39,3.14s.33,2.08.54,3.12.43,2.06.69,3.08.54,2,.84,3,.64,2,1,3,.73,2,1.14,2.95.83,1.94,1.28,2.89.92,1.9,1.42,2.83,1,1.84,1.56,2.75,1.11,1.79,1.69,2.67,1.19,1.74,1.82,2.59,1.28,1.68,1.95,2.49,1.36,1.62,2.07,2.4,1.43,1.54,2.18,2.29,1.51,1.47,2.29,2.18,1.58,1.4,2.39,2.07l.28.21,9.85-14.09C394.37,253.88,393.52,253.12,392.71,252.31Z" transform="translate(-215.64 -142.33)"/><path class="cls-6" d="M469.87,215.89h3.06c0-.49-.06-1-.11-1.47-.15-1.53-.37-3-.67-4.57s-.68-3-1.13-4.48a44.81,44.81,0,0,0-1.55-4.34,45.6,45.6,0,0,0-2-4.18c-.72-1.36-1.52-2.68-2.37-4s-1.77-2.52-2.75-3.71c-.37-.45-.76-.89-1.15-1.33l-1.94,1.42-5.69-7.78.39-.28c-.6-.45-1.22-.88-1.85-1.3q-1.92-1.29-4-2.38t-4.17-2q-2.13-.88-4.35-1.56c-1.47-.44-3-.82-4.48-1.12s-3-.53-4.57-.68S427.53,172,426,172s-3.08.07-4.61.22-3.06.38-4.57.68-3,.68-4.48,1.12-2.92,1-4.35,1.56-2.81,1.25-4.17,2-2.68,1.52-4,2.38c-.74.49-1.45,1-2.16,1.53l.82.75-6.45,7.15L390.61,188c-.34.38-.68.76-1,1.15q-1.46,1.78-2.75,3.71c-.85,1.28-1.65,2.6-2.37,4a45.6,45.6,0,0,0-2,4.18,44.81,44.81,0,0,0-1.55,4.34c-.45,1.48-.82,3-1.12,4.48-.22,1.09-.39,2.19-.52,3.29h2.76v9.64h-3c0,.29,0,.58.07.87a44.58,44.58,0,0,0,.68,4.57c.3,1.51.67,3,1.12,4.48a44.81,44.81,0,0,0,1.55,4.34,45.6,45.6,0,0,0,2,4.18c.72,1.36,1.52,2.68,2.37,4s1.78,2.52,2.75,3.71,2,2.33,3.1,3.42c.81.81,1.66,1.57,2.52,2.32l1.51-2.16,7.9,5.52-1.51,2.16.68.39q2,1.08,4.17,2c1.43.59,2.87,1.11,4.35,1.56a45.82,45.82,0,0,0,4.48,1.12c1.51.3,3,.53,4.57.68s3.07.22,4.61.22,3.08-.07,4.61-.22,3.06-.38,4.57-.68a45.82,45.82,0,0,0,4.48-1.12q2.22-.68,4.35-1.56t4.17-2c1.1-.59,2.16-1.22,3.2-1.89l-4.57-6,7.67-5.83,4.44,5.85.36-.34q1.64-1.63,3.1-3.42c1-1.19,1.89-2.43,2.75-3.71s1.65-2.6,2.37-4a45.6,45.6,0,0,0,2-4.18A44.81,44.81,0,0,0,471,232.7c.45-1.48.82-3,1.13-4.48.17-.9.32-1.79.44-2.69h-2.72Zm-7,6.78a36.34,36.34,0,0,1-.54,3.6,35.69,35.69,0,0,1-.88,3.53,35,35,0,0,1-1.23,3.43c-.46,1.12-1,2.22-1.55,3.29s-1.2,2.11-1.87,3.12-1.4,2-2.17,2.92-1.59,1.84-2.45,2.7a34.61,34.61,0,0,1-2.69,2.44,36.34,36.34,0,0,1-2.93,2.17,35.25,35.25,0,0,1-3.12,1.87c-1.07.58-2.17,1.09-3.29,1.56s-2.26.87-3.42,1.22-2.34.65-3.53.89-2.4.41-3.6.53-2.43.18-3.64.18-2.43-.06-3.63-.18a36.31,36.31,0,0,1-3.6-.53,35.93,35.93,0,0,1-3.54-.89c-1.16-.35-2.3-.76-3.42-1.22s-2.22-1-3.29-1.56a35.25,35.25,0,0,1-3.12-1.87,36.34,36.34,0,0,1-2.93-2.17c-.94-.77-1.83-1.58-2.69-2.44s-1.68-1.76-2.45-2.7-1.49-1.91-2.17-2.92-1.29-2-1.87-3.12-1.09-2.17-1.55-3.29a35,35,0,0,1-1.23-3.43,35.69,35.69,0,0,1-.88-3.53,36.34,36.34,0,0,1-.54-3.6q-.18-1.81-.18-3.63c0-1.22.06-2.43.18-3.64a36.34,36.34,0,0,1,.54-3.6,36.42,36.42,0,0,1,2.11-7c.46-1.12,1-2.22,1.55-3.29s1.2-2.11,1.87-3.12,1.4-2,2.17-2.92,1.59-1.84,2.45-2.7,1.75-1.67,2.69-2.44a36.34,36.34,0,0,1,2.93-2.17,35.25,35.25,0,0,1,3.12-1.87c1.07-.57,2.17-1.09,3.29-1.56s2.26-.87,3.42-1.22a35.93,35.93,0,0,1,3.54-.89,36.31,36.31,0,0,1,3.6-.53c1.2-.12,2.42-.18,3.63-.18s2.43.06,3.64.18,2.4.29,3.6.53,2.36.53,3.53.89,2.3.76,3.42,1.22,2.22,1,3.29,1.56a35.25,35.25,0,0,1,3.12,1.87,36.34,36.34,0,0,1,2.93,2.17,34.61,34.61,0,0,1,2.69,2.44c.86.86,1.68,1.76,2.45,2.7s1.49,1.91,2.17,2.92,1.29,2,1.87,3.12,1.09,2.17,1.55,3.29a37.56,37.56,0,0,1,2.65,10.56c.12,1.21.18,2.42.18,3.64S463,221.46,462.9,222.67Z" transform="translate(-215.64 -142.33)"/><path class="cls-7" d="M462.36,211.8a36.42,36.42,0,0,0-2.11-7c-.46-1.12-1-2.22-1.55-3.29s-1.2-2.11-1.87-3.12-1.4-2-2.17-2.92-1.59-1.84-2.45-2.7a34.61,34.61,0,0,0-2.69-2.44,36.34,36.34,0,0,0-2.93-2.17,35.25,35.25,0,0,0-3.12-1.87c-1.07-.57-2.17-1.09-3.29-1.56s-2.26-.87-3.42-1.22-2.34-.65-3.53-.89-2.4-.41-3.6-.53S427.2,182,426,182s-2.43.06-3.63.18a36.31,36.31,0,0,0-3.6.53,35.93,35.93,0,0,0-3.54.89c-1.16.35-2.3.76-3.42,1.22s-2.22,1-3.29,1.56a35.25,35.25,0,0,0-3.12,1.87,36.34,36.34,0,0,0-2.93,2.17c-.94.77-1.83,1.58-2.69,2.44s-1.68,1.76-2.45,2.7-1.49,1.91-2.17,2.92-1.29,2-1.87,3.12-1.09,2.17-1.55,3.29a37.56,37.56,0,0,0-2.65,10.56c-.12,1.21-.18,2.42-.18,3.64s.06,2.42.18,3.63a36.34,36.34,0,0,0,.54,3.6,35.69,35.69,0,0,0,.88,3.53,35,35,0,0,0,1.23,3.43c.46,1.12,1,2.22,1.55,3.29s1.2,2.11,1.87,3.12,1.4,2,2.17,2.92,1.59,1.84,2.45,2.7,1.75,1.67,2.69,2.44a36.34,36.34,0,0,0,2.93,2.17,35.25,35.25,0,0,0,3.12,1.87c1.07.58,2.17,1.09,3.29,1.56s2.26.87,3.42,1.22a35.93,35.93,0,0,0,3.54.89,36.31,36.31,0,0,0,3.6.53c1.2.12,2.42.18,3.63.18s2.43-.06,3.64-.18,2.4-.29,3.6-.53,2.36-.53,3.53-.89,2.3-.76,3.42-1.22,2.22-1,3.29-1.56a35.25,35.25,0,0,0,3.12-1.87,36.34,36.34,0,0,0,2.93-2.17,34.61,34.61,0,0,0,2.69-2.44c.86-.86,1.68-1.76,2.45-2.7s1.49-1.91,2.17-2.92,1.29-2,1.87-3.12,1.09-2.17,1.55-3.29a35,35,0,0,0,1.23-3.43,35.69,35.69,0,0,0,.88-3.53,36.34,36.34,0,0,0,.54-3.6q.18-1.81.18-3.63c0-1.22-.06-2.43-.18-3.64A36.34,36.34,0,0,0,462.36,211.8Zm-5.74,11.86H395.36v-1.3h61.26Z" transform="translate(-215.64 -142.33)"/><polygon class="cls-6" points="237.96 39.16 243.64 46.94 245.59 45.52 259.85 35.09 276.87 22.65 271.18 14.87 253.07 28.11 238.35 38.88 237.96 39.16"/><polygon class="cls-6" points="176.42 47.01 182.88 39.85 182.06 39.11 168.78 27.13 152.32 12.28 145.87 19.43 161.89 33.89 174.97 45.7 176.42 47.01"/><polygon class="cls-6" points="238.83 104.47 231.16 110.3 235.74 116.32 246.12 129.97 256.08 143.06 263.75 137.22 253.72 124.03 243.28 110.32 238.83 104.47"/><polygon class="cls-6" points="189 115.66 181.1 110.14 179.59 112.3 169.75 126.39 157.53 143.87 165.43 149.39 177.66 131.89 187.49 117.82 189 115.66"/><polygon class="cls-6" points="254.24 73.56 254.24 83.2 256.95 83.2 274.43 83.2 295.39 83.2 295.39 73.56 274.74 73.56 257.3 73.56 254.24 73.56"/><polygon class="cls-6" points="166.44 80.45 166.44 70.81 163.68 70.81 146.16 70.81 142.13 70.81 142.13 80.45 146.05 80.45 163.46 80.45 166.44 80.45"/><polygon class="cls-8" points="179.72 80.03 179.72 81.33 240.99 81.33 240.99 80.03 235.6 80.03 179.72 80.03"/><path class="cls-9" d="M358.32,385.46a11.19,11.19,0,0,0,1,1.9,10.79,10.79,0,0,0,3,3,10.48,10.48,0,0,0,1.9,1,10.65,10.65,0,0,0,2.06.63,11.06,11.06,0,0,0,4.29,0,11.24,11.24,0,0,0,4-1.64,11,11,0,0,0,1.67-1.37,11.6,11.6,0,0,0,1.37-1.67,11.24,11.24,0,0,0,1.64-4,11.06,11.06,0,0,0,0-4.29,10.87,10.87,0,0,0-.63-2.06,10.48,10.48,0,0,0-1-1.9,11.51,11.51,0,0,0-1.37-1.66,11,11,0,0,0-1.67-1.37,10.77,10.77,0,0,0-4-1.64,11.06,11.06,0,0,0-4.29,0,11.37,11.37,0,0,0-2.06.62,11.19,11.19,0,0,0-1.9,1,11,11,0,0,0-1.67,1.37,10.83,10.83,0,0,0-1.36,1.66,11.19,11.19,0,0,0-1,1.9,11.61,11.61,0,0,0-.62,2.06,11.07,11.07,0,0,0,.62,6.35Z" transform="translate(-215.64 -142.33)"/><path class="cls-9" d="M621.05,156a11,11,0,0,0-4-4.93,10.77,10.77,0,0,0-4-1.64,11.06,11.06,0,0,0-4.29,0,11.37,11.37,0,0,0-2.06.62,11.19,11.19,0,0,0-1.9,1,11,11,0,0,0-1.67,1.37,10.83,10.83,0,0,0-1.36,1.66,11.58,11.58,0,0,0-1,1.9,10.84,10.84,0,0,0-.62,2.06,10.39,10.39,0,0,0-.22,2.15,10.23,10.23,0,0,0,.22,2.14,10.72,10.72,0,0,0,.62,2.07,11.58,11.58,0,0,0,1,1.9,10.83,10.83,0,0,0,1.36,1.66,11,11,0,0,0,1.67,1.37,10.48,10.48,0,0,0,1.9,1,10.65,10.65,0,0,0,2.06.63,11.06,11.06,0,0,0,4.29,0,11.24,11.24,0,0,0,4-1.64,11,11,0,0,0,1.67-1.37,11,11,0,0,0,3.22-7.77,11.11,11.11,0,0,0-.21-2.15A10.87,10.87,0,0,0,621.05,156Z" transform="translate(-215.64 -142.33)"/><path class="cls-7" d="M650.76,392.27h25.88V380.1H650.76Zm.39-11.78h25.09v11.38H651.15Z" transform="translate(-215.64 -142.33)"/><path class="cls-7" d="M669.53,382.69a3.49,3.49,0,1,0,3.48,3.48A3.48,3.48,0,0,0,669.53,382.69Zm0,5.23a1.75,1.75,0,1,1,1.74-1.75A1.74,1.74,0,0,1,669.52,387.92Z" transform="translate(-215.64 -142.33)"/><circle class="cls-10" cx="453.88" cy="243.84" r="1.74"/><path class="cls-7" d="M653.21,389.92h7.55v-7.26h-7.55Zm3.78-5.36a1.75,1.75,0,1,1-1.75,1.75A1.74,1.74,0,0,1,657,384.56Z" transform="translate(-215.64 -142.33)"/><path class="cls-10" d="M657,388.05a1.75,1.75,0,1,0-1.75-1.74A1.74,1.74,0,0,0,657,388.05Z" transform="translate(-215.64 -142.33)"/><polygon class="cls-7" points="439.17 91.4 426.54 91.4 426.54 75.3 439.17 75.3 439.17 68.2 426.1 68.2 426.1 98.49 439.17 98.49 439.17 91.4"/><polygon points="426.54 91.4 439.17 91.4 439.61 91.4 439.61 75.3 439.17 75.3 426.54 75.3 426.54 91.4"/><polygon class="cls-7" points="461.12 91.4 448.49 91.4 448.49 75.3 461.12 75.3 461.12 68.2 448.05 68.2 448.05 98.49 461.12 98.49 461.12 91.4"/><polygon points="448.49 91.4 461.12 91.4 461.56 91.4 461.56 75.3 461.12 75.3 448.49 75.3 448.49 91.4"/><path class="cls-7" d="M686.44,233.73v-16.1h12.64v-7.1H686v30.29h1a74,74,0,0,1,9.43-7.09Z" transform="translate(-215.64 -142.33)"/><path d="M686.44,233.73h10c1-.64,2-1.25,3-1.84V217.63H686.44Z" transform="translate(-215.64 -142.33)"/><polygon class="cls-7" points="426.32 106.27 426.32 136.56 439.39 136.56 439.39 129.47 426.76 129.47 426.76 113.37 439.39 113.37 439.39 106.27 426.32 106.27"/><polygon points="426.76 129.47 439.39 129.47 439.83 129.47 439.83 113.37 439.39 113.37 426.76 113.37 426.76 129.47"/><path class="cls-7" d="M664.94,271.8V255.7h9.13c1.1-1.66,2.28-3.27,3.5-4.83V248.6H664.5v24.47c.25-.42.5-.84.74-1.27Z" transform="translate(-215.64 -142.33)"/><path d="M678,266.14l0,0v0l0,.06c-.5.93-1,1.87-1.45,2.79a.39.39,0,0,0,.08-.1Z" transform="translate(-215.64 -142.33)"/><path d="M672.24,267.81c.63-1.19,1.26-2.45,1.91-3.69C673.5,265.36,672.85,266.6,672.24,267.81Z" transform="translate(-215.64 -142.33)"/><path d="M664.94,271.8h.3c1-1.89,2.07-3.88,3.11-5.94.63-1.24,1.26-2.5,1.93-3.77,1.16-2.2,2.43-4.33,3.79-6.39h-9.13Z" transform="translate(-215.64 -142.33)"/><path class="cls-7" d="M686.88,270v0l-.43.51v0Z" transform="translate(-215.64 -142.33)"/><path class="cls-7" d="M699.52,247.53a59.83,59.83,0,0,0-5,4.15c1.61-1.1,3.28-2.12,5-3.09Z" transform="translate(-215.64 -142.33)"/><path class="cls-7" d="M699.52,273.81v0c-1.74,1.17-3.41,2.43-5,3.76h0C696.13,276.23,697.8,275,699.52,273.81Z" transform="translate(-215.64 -142.33)"/><path class="cls-7" d="M692.94,247.26h0a65.09,65.09,0,0,0-6.46,6.51v0A65.69,65.69,0,0,1,692.94,247.26Z" transform="translate(-215.64 -142.33)"/><path d="M700,258.57h0A66.65,66.65,0,0,0,686.88,270v0A67.08,67.08,0,0,1,700,258.57Z" transform="translate(-215.64 -142.33)"/><polygon class="cls-7" points="471.69 188.2 484.32 188.2 484.32 181.1 471.25 181.1 471.25 211.39 484.32 211.39 484.32 204.3 471.69 204.3 471.69 188.2"/><polygon points="471.69 188.2 471.69 204.3 484.32 204.3 484.76 204.3 484.76 188.2 484.32 188.2 471.69 188.2"/><path class="cls-7" d="M662.76,350.36h0a43.48,43.48,0,0,0,3.68-3.74h0A41.75,41.75,0,0,1,662.76,350.36Z" transform="translate(-215.64 -142.33)"/><path class="cls-7" d="M663.19,334.71h0l-.43.38h0Z" transform="translate(-215.64 -142.33)"/><path class="cls-7" d="M665.58,353.72h10.25v-7.09H672A47.71,47.71,0,0,1,665.58,353.72Z" transform="translate(-215.64 -142.33)"/><path d="M676.08,331.08a92.62,92.62,0,0,1-6.73,11.81c-1,1.33-1.92,2.58-2.93,3.74h0q1.5-1.74,2.93-3.74a91.43,91.43,0,0,0,6.73-11.81c0-.1.11-.21.16-.32v0Z" transform="translate(-215.64 -142.33)"/><path d="M665.79,332.06l0,0c-.85,1-1.72,1.85-2.62,2.68h0C664.08,333.89,665,333,665.79,332.06Z" transform="translate(-215.64 -142.33)"/><path d="M672.93,345.44c-.29.41-.6.79-.89,1.19h4.22v-6.5C675.23,341.94,674.14,343.73,672.93,345.44Z" transform="translate(-215.64 -142.33)"/><path class="cls-3" d="M640.25,338.9h0c.57,0,1.14,0,1.7,0s1.11,0,1.66-.06a25.79,25.79,0,0,0,9.32-2.37c4.76-2.24,9.1-6.08,12.9-11.42.73-1,1.41-2.1,2.06-3.2a38.55,38.55,0,0,1-11.27,8.19A36.11,36.11,0,0,1,653,331.5a22,22,0,0,1-12.56,3A35.48,35.48,0,0,1,629.3,332c-.65-.25-1.29-.51-1.9-.78v4.7A39.83,39.83,0,0,0,640.25,338.9Z" transform="translate(-215.64 -142.33)"/><path class="cls-3" d="M669.37,313.27a91.43,91.43,0,0,0,6.73-11.81c.61-1.2,1.26-2.44,1.89-3.66.89-1.68,1.87-3.32,2.89-4.91l-.07.08c-1,1.57-2,3.17-2.84,4.83-.65,1.22-1.28,2.46-1.89,3.66a92.62,92.62,0,0,1-6.73,11.81,46.82,46.82,0,0,1-4.87,5.83v0A47.33,47.33,0,0,0,669.37,313.27Z" transform="translate(-215.64 -142.33)"/><path class="cls-3" d="M714,271.52c-1.71.54-3.39,1.17-5,1.83a62.11,62.11,0,0,0-24.58,22.19,70.86,70.86,0,0,1,30.91-19.86l1.11-.32c1.3-.38,2.59-.72,3.84-1a41.13,41.13,0,0,1,13.53-.88c.74.09,1.48.2,2.19.33v-4.42c-.56-.09-1.12-.18-1.69-.24a40.56,40.56,0,0,0-7.73-.13,53,53,0,0,0-10.14,1.81C715.61,271,714.82,271.27,714,271.52Z" transform="translate(-215.64 -142.33)"/><path class="cls-11" d="M720.24,274.36c-1.25.28-2.54.62-3.84,1l-1.11.32h0a70.86,70.86,0,0,0-30.91,19.86c-.89,1.4-1.74,2.83-2.53,4.31-.6,1.2-1.23,2.42-1.84,3.62a97.93,97.93,0,0,1-7.08,12.35,50.78,50.78,0,0,1-5,6.06c-.65,1.1-1.33,2.17-2.06,3.2-3.8,5.34-8.14,9.18-12.9,11.42a25.79,25.79,0,0,1-9.32,2.37c-.55,0-1.1.06-1.66.06s-1.13,0-1.7,0h0a39.83,39.83,0,0,1-12.85-3h0v4.67h0a43,43,0,0,0,12.64,2.65c.72,0,1.44.05,2.16,0s1.2-.05,1.79-.09h.33c.51,0,1-.11,1.52-.18.19,0,.38,0,.57-.06s.59-.11.89-.16.77-.13,1.15-.21l.18-.05a30,30,0,0,0,9.34-3.84,34.78,34.78,0,0,0,4.77-3.61l.43-.38c.9-.83,1.77-1.73,2.62-2.68.85-1.57,1.69-3.2,2.54-4.88.63-1.25,1.26-2.51,1.93-3.77a75.63,75.63,0,0,1,8.61-12.87,66.46,66.46,0,0,1,37.51-30.59l.2-.06a45.87,45.87,0,0,1,10.83-2.15c.67-.05,1.34-.07,2-.08a32.59,32.59,0,0,1,3.86.2c.91.11,1.79.26,2.67.43v-4.44c-.71-.13-1.45-.24-2.19-.33A41.13,41.13,0,0,0,720.24,274.36Z" transform="translate(-215.64 -142.33)"/><path class="cls-12" d="M641.69,347.66a35.36,35.36,0,0,0,14.36-3,34,34,0,0,0,6.24-6.82,55.17,55.17,0,0,0,3.5-5.77c-.84.94-1.71,1.83-2.6,2.65l-.43.38a35.52,35.52,0,0,1-4.77,3.6,30,30,0,0,1-9.34,3.84l-.18.05c-.38.08-.76.14-1.15.21s-.59.12-.89.16-.38,0-.57.06c-.51.07-1,.14-1.52.18H644c-.59,0-1.19.08-1.79.09s-1.44,0-2.16,0a43,43,0,0,1-12.64-2.65h0v4.62c.62.21,1.25.38,1.88.57a45.63,45.63,0,0,0,10.56,1.82C640.47,347.63,641.08,347.66,641.69,347.66Z" transform="translate(-215.64 -142.33)"/><path class="cls-12" d="M672.24,329.09c.63-1.2,1.26-2.46,1.91-3.7C673.5,326.63,672.85,327.87,672.24,329.09Z" transform="translate(-215.64 -142.33)"/><path class="cls-12" d="M729.43,277.62c-.66,0-1.33,0-2,.08a45.87,45.87,0,0,0-10.83,2.15l-.2.06A66.65,66.65,0,0,0,679,310.42,75.2,75.2,0,0,1,701.6,292a62.34,62.34,0,0,1,14.8-7.47c.5-.17,1-.36,1.5-.52a43.2,43.2,0,0,1,8.64-1.85,29.28,29.28,0,0,1,6.28,0,24.88,24.88,0,0,1,3.17.59v-4.52h0c-.88-.17-1.76-.32-2.67-.43A32.59,32.59,0,0,0,729.43,277.62Z" transform="translate(-215.64 -142.33)"/><path class="cls-3" d="M714,286.8A75.42,75.42,0,0,0,679,310.42l-.06.08a75.63,75.63,0,0,0-8.61,12.87c-.67,1.26-1.3,2.52-1.93,3.77-.85,1.68-1.69,3.31-2.54,4.88l0,0a55.17,55.17,0,0,1-3.5,5.77,34,34,0,0,1-6.24,6.82,22.13,22.13,0,0,1-15.6,5.17,35.48,35.48,0,0,1-11.15-2.53c-.65-.25-1.29-.51-1.9-.78v4.7a39.83,39.83,0,0,0,12.85,3h0c.57,0,1.14,0,1.7,0s1.11,0,1.66-.06a25.79,25.79,0,0,0,9.32-2.37c4.76-2.24,9.1-6.08,12.9-11.42a68.64,68.64,0,0,0,4.87-8.27c.51-1,1-2,1.54-3h0c.61-1.22,1.26-2.46,1.91-3.7A70.83,70.83,0,0,1,715.29,291l1.11-.32c1.3-.38,2.59-.72,3.84-1a41.13,41.13,0,0,1,13.53-.88c.74.09,1.48.2,2.19.33v-4.42c-.56-.09-1.12-.18-1.69-.24a40.56,40.56,0,0,0-7.73-.13,53,53,0,0,0-10.14,1.81C715.61,286.32,714.82,286.55,714,286.8Z" transform="translate(-215.64 -142.33)"/><path class="cls-11" d="M720.24,289.64c-1.25.28-2.54.62-3.84,1l-1.11.32h0a70.83,70.83,0,0,0-41.14,34.43c-.65,1.24-1.28,2.5-1.91,3.7h0c-.52,1-1,2-1.54,3a68.64,68.64,0,0,1-4.87,8.27c-3.8,5.34-8.14,9.18-12.9,11.42a25.79,25.79,0,0,1-9.32,2.37c-.55,0-1.1.06-1.66.06s-1.13,0-1.7,0h0a39.83,39.83,0,0,1-12.85-3h0v4.67h0a43,43,0,0,0,12.64,2.65c.72,0,1.44.05,2.16,0s1.2,0,1.79-.09h.33c.51,0,1-.11,1.52-.18l.57-.06c.3,0,.59-.11.89-.16s.77-.13,1.15-.21l.18-.05A30,30,0,0,0,658,354a34.78,34.78,0,0,0,4.77-3.61,41.75,41.75,0,0,0,3.66-3.73c1-1.16,2-2.41,2.93-3.74a92.62,92.62,0,0,0,6.73-11.81l.18-.36c.55-1.09,1.12-2.2,1.71-3.3a66.53,66.53,0,0,1,38.43-32.23l.2-.06A45.87,45.87,0,0,1,727.43,293c.67-.05,1.34-.07,2-.08a32.59,32.59,0,0,1,3.86.2c.91.11,1.79.26,2.67.43v-4.44c-.71-.13-1.45-.24-2.19-.33A41.13,41.13,0,0,0,720.24,289.64Z" transform="translate(-215.64 -142.33)"/><path class="cls-12" d="M726.54,297.46a29.28,29.28,0,0,1,6.28,0,24.88,24.88,0,0,1,3.17.59v-4.52h0c-.88-.17-1.76-.32-2.67-.43a32.59,32.59,0,0,0-3.86-.2c-.66,0-1.33,0-2,.08a45.87,45.87,0,0,0-10.83,2.15l-.2.06A66.64,66.64,0,0,0,678,327.42c-.58,1.11-1.17,2.24-1.73,3.34,0,.11-.11.22-.16.32a91.43,91.43,0,0,1-6.73,11.81q-1.43,2-2.93,3.74a43.48,43.48,0,0,1-3.68,3.74A35.52,35.52,0,0,1,658,354a30,30,0,0,1-9.34,3.84l-.18.05c-.38.08-.76.14-1.15.21s-.59.12-.89.16l-.57.06c-.51.07-1,.14-1.52.18H644c-.59,0-1.19.08-1.79.09s-1.44,0-2.16,0a43,43,0,0,1-12.64-2.65h0v4.62c.62.21,1.25.38,1.88.57a45.63,45.63,0,0,0,10.56,1.82c.61,0,1.22.05,1.83.05a35.38,35.38,0,0,0,14.93-3.25,37.14,37.14,0,0,0,9-6,47.71,47.71,0,0,0,6.46-7.09c.29-.4.6-.78.89-1.19,1.21-1.71,2.3-3.5,3.33-5.31,1.33-2.34,2.56-4.71,3.75-7.05.61-1.19,1.24-2.41,1.84-3.61a62.17,62.17,0,0,1,34.55-29.64c.5-.17,1-.36,1.5-.52A43.2,43.2,0,0,1,726.54,297.46Z" transform="translate(-215.64 -142.33)"/><path class="cls-3" d="M669.37,298.32a91.43,91.43,0,0,0,6.73-11.81c.61-1.2,1.26-2.44,1.89-3.66.48-.91,1-1.8,1.5-2.68l-.07.08c-.5.86-1,1.72-1.45,2.6-.65,1.22-1.28,2.46-1.89,3.66a92.62,92.62,0,0,1-6.73,11.81,46.55,46.55,0,0,1-4,4.87l0,0A47.36,47.36,0,0,0,669.37,298.32Z" transform="translate(-215.64 -142.33)"/><path class="cls-3" d="M640.25,324.56h0c.57,0,1.14,0,1.7,0s1.11,0,1.66-.06a25.79,25.79,0,0,0,9.32-2.37c4.76-2.24,9.1-6.08,12.9-11.42a52.26,52.26,0,0,0,3-4.79,39.25,39.25,0,0,1-12.2,9.17c-.49.22-1,.43-1.48.63a22.06,22.06,0,0,1-14.69,4.45,35.21,35.21,0,0,1-11.15-2.53c-.65-.25-1.29-.51-1.9-.78v4.71A40.09,40.09,0,0,0,640.25,324.56Z" transform="translate(-215.64 -142.33)"/><path class="cls-3" d="M714,257.18a75.56,75.56,0,0,0-10.06,4,62.27,62.27,0,0,0-20.83,21.45,70.85,70.85,0,0,1,32.17-21.3,45,45,0,0,1,18.48-2.2c.74.09,1.48.2,2.19.33v-4.42c-.56-.09-1.12-.18-1.69-.24a40.56,40.56,0,0,0-7.73-.13,53,53,0,0,0-10.14,1.81C715.61,256.7,714.82,256.93,714,257.18Z" transform="translate(-215.64 -142.33)"/><path class="cls-11" d="M715.29,261.34a70.85,70.85,0,0,0-32.17,21.3c-.43.74-.86,1.49-1.27,2.26-.6,1.19-1.23,2.41-1.84,3.61a98,98,0,0,1-7.08,12.36,51.39,51.39,0,0,1-4.11,5.08,52.26,52.26,0,0,1-3,4.79c-3.8,5.34-8.14,9.18-12.9,11.42a25.79,25.79,0,0,1-9.32,2.37c-.55,0-1.1.06-1.66.06s-1.13,0-1.7,0h0a40.09,40.09,0,0,1-12.85-3h0v4.66h0a43.31,43.31,0,0,0,12.64,2.66q1.08,0,2.16,0c.55,0,1.1,0,1.65-.08l.47,0c.53,0,1-.11,1.57-.18.17,0,.35,0,.52-.06s.6-.11.9-.16.77-.13,1.14-.21l.1,0a30,30,0,0,0,9.42-3.86,35.84,35.84,0,0,0,6.49-5.25,46.82,46.82,0,0,0,4.87-5.83,92.62,92.62,0,0,0,6.73-11.81c.61-1.2,1.24-2.44,1.89-3.66.87-1.66,1.83-3.26,2.84-4.83a66.58,66.58,0,0,1,13.69-15.42c1.61-1.33,3.28-2.59,5-3.76a66.89,66.89,0,0,1,16.88-8.22l.2-.06a45.87,45.87,0,0,1,10.83-2.15c.67,0,1.34-.07,2-.07a30.62,30.62,0,0,1,3.86.19c.91.11,1.79.26,2.67.43v-4.44c-.71-.13-1.45-.24-2.19-.33A45,45,0,0,0,715.29,261.34Z" transform="translate(-215.64 -142.33)"/><path class="cls-12" d="M729.43,263.29c-.66,0-1.33,0-2,.07a45.87,45.87,0,0,0-10.83,2.15l-.2.07a66.09,66.09,0,0,0-16.88,8.23c-1.72,1.17-3.39,2.42-5,3.74a66.45,66.45,0,0,0-13.65,15.34c-1,1.59-2,3.23-2.89,4.91-.63,1.22-1.28,2.46-1.89,3.66a91.43,91.43,0,0,1-6.73,11.81,47.33,47.33,0,0,1-4.9,5.86,35.59,35.59,0,0,1-6.48,5.22,30,30,0,0,1-9.42,3.86l-.1,0c-.37.08-.76.14-1.14.21s-.6.12-.9.16-.35,0-.52.06c-.52.07-1,.14-1.57.18l-.47,0c-.55,0-1.1.07-1.65.08q-1.08,0-2.16,0a43.31,43.31,0,0,1-12.64-2.66h0v4.61c.62.21,1.25.38,1.88.57a45.63,45.63,0,0,0,10.56,1.82c.61,0,1.22.05,1.83.05A35.35,35.35,0,0,0,653,331.5a36.11,36.11,0,0,0,3.61-1.43,38.55,38.55,0,0,0,11.27-8.19,50.78,50.78,0,0,0,5-6.06A97.93,97.93,0,0,0,680,303.47c.61-1.2,1.24-2.42,1.84-3.62.79-1.48,1.64-2.91,2.53-4.31A62.11,62.11,0,0,1,709,273.35a60.3,60.3,0,0,1,7.44-3.14c.5-.17,1-.36,1.5-.52a43.91,43.91,0,0,1,8.64-1.85,29.28,29.28,0,0,1,6.28,0,26.76,26.76,0,0,1,3.17.59v-4.51h0c-.88-.17-1.76-.32-2.67-.43A30.62,30.62,0,0,0,729.43,263.29Z" transform="translate(-215.64 -142.33)"/><path class="cls-3" d="M714,242.23a75,75,0,0,0-14.49,6.36c-1.7,1-3.37,2-5,3.09a62.32,62.32,0,0,0-12.69,16.51l-1.46,2.87a70.83,70.83,0,0,1,34.9-24.67,45,45,0,0,1,18.48-2.2c.74.09,1.48.2,2.19.33v-4.43c-.56-.08-1.12-.17-1.69-.24a41.41,41.41,0,0,0-7.73-.12,53,53,0,0,0-10.14,1.8C715.61,241.75,714.82,242,714,242.23Z" transform="translate(-215.64 -142.33)"/><path class="cls-3" d="M640.25,309.6h0l1.7,0c.56,0,1.11,0,1.66-.06a26,26,0,0,0,9.32-2.37c4.76-2.25,9.1-6.08,12.9-11.42a68.64,68.64,0,0,0,4.87-8.27l.62-1.21A42.43,42.43,0,0,1,659.26,297c-5.35,5.86-11.54,8.56-18.81,8.22a35.48,35.48,0,0,1-11.15-2.53c-.65-.26-1.29-.52-1.9-.79v4.71A39.83,39.83,0,0,0,640.25,309.6Z" transform="translate(-215.64 -142.33)"/><path class="cls-3" d="M669.37,281.62a92.1,92.1,0,0,0,6.73-11.81l.5-1a.39.39,0,0,1-.08.1l-.44.88a93.31,93.31,0,0,1-6.73,11.81c-.53.74-1.06,1.45-1.61,2.14l0,.05C668.27,283.11,668.83,282.38,669.37,281.62Z" transform="translate(-215.64 -142.33)"/><path class="cls-11" d="M715.29,246.39a70.83,70.83,0,0,0-34.9,24.67c-.12.25-.25.5-.38.75a97.93,97.93,0,0,1-7.08,12.35c-.52.74-1.06,1.45-1.61,2.15l-.62,1.21a68.64,68.64,0,0,1-4.87,8.27c-3.8,5.34-8.14,9.17-12.9,11.42a26,26,0,0,1-9.32,2.37c-.55,0-1.1.05-1.66.06l-1.7,0h0a39.83,39.83,0,0,1-12.85-3h0v4.66h0A42.67,42.67,0,0,0,640.06,314c.72,0,1.44.05,2.16,0,.55,0,1.1-.05,1.65-.08l.47,0c.53,0,1-.11,1.57-.18.17,0,.35,0,.52-.06l.9-.17c.38-.07.77-.12,1.14-.21l.1,0A30.18,30.18,0,0,0,658,309.4a36.72,36.72,0,0,0,7.4-6.21,46.55,46.55,0,0,0,4-4.87,92.62,92.62,0,0,0,6.73-11.81c.61-1.2,1.24-2.44,1.89-3.66.46-.88.95-1.74,1.45-2.6a66.26,66.26,0,0,1,7-9.78l.43-.51a66.74,66.74,0,0,1,29.52-19.34l.2-.07a46.33,46.33,0,0,1,10.83-2.14c.67,0,1.34-.07,2-.08a32.59,32.59,0,0,1,3.86.2c.91.11,1.79.26,2.67.43v-4.44c-.71-.13-1.45-.24-2.19-.33A45,45,0,0,0,715.29,246.39Z" transform="translate(-215.64 -142.33)"/><path class="cls-12" d="M729.43,248.33c-.66,0-1.33,0-2,.08a46.33,46.33,0,0,0-10.83,2.14l-.2.07A66.68,66.68,0,0,0,686.88,270l-.43.51a66.84,66.84,0,0,0-7,9.67c-.52.88-1,1.77-1.5,2.68-.63,1.22-1.28,2.46-1.89,3.66a91.43,91.43,0,0,1-6.73,11.81,47.36,47.36,0,0,1-4,4.91A37,37,0,0,1,658,309.4a30.18,30.18,0,0,1-9.42,3.86l-.1,0c-.37.09-.76.14-1.14.21l-.9.17c-.17,0-.35,0-.52.06-.52.07-1,.13-1.57.18l-.47,0c-.55,0-1.1.07-1.65.08-.72,0-1.44,0-2.16,0a42.67,42.67,0,0,1-12.64-2.66h0v4.61c.62.22,1.25.39,1.88.58a45.63,45.63,0,0,0,10.56,1.82c.61,0,1.22,0,1.83,0a35.28,35.28,0,0,0,13.45-2.61c.5-.2,1-.41,1.48-.63a39.25,39.25,0,0,0,12.2-9.17,51.39,51.39,0,0,0,4.11-5.08A98,98,0,0,0,680,288.51c.61-1.2,1.24-2.42,1.84-3.61.41-.77.84-1.52,1.27-2.26a61.9,61.9,0,0,1,33.28-27.38c.5-.18,1-.36,1.5-.52a42.51,42.51,0,0,1,8.64-1.85,29.28,29.28,0,0,1,6.28,0,26.72,26.72,0,0,1,3.17.58V249h0c-.88-.17-1.76-.32-2.67-.43A32.59,32.59,0,0,0,729.43,248.33Z" transform="translate(-215.64 -142.33)"/><path class="cls-3" d="M627.4,289.94a40.09,40.09,0,0,0,12.85,3h0c.57,0,1.14,0,1.7,0s1.11,0,1.66-.07a25.78,25.78,0,0,0,9.32-2.36c4.76-2.25,9.1-6.08,12.9-11.42a68,68,0,0,0,4.87-8.28c.51-1,1-2,1.54-3h0c.61-1.21,1.26-2.45,1.91-3.69a70.8,70.8,0,0,1,41.14-34.43,45,45,0,0,1,18.48-2.2c.74.09,1.48.19,2.19.33v-4.43c-.56-.09-1.12-.17-1.69-.24a41.39,41.39,0,0,0-7.73-.13,53,53,0,0,0-10.14,1.81c-.79.22-1.58.44-2.39.7a75.39,75.39,0,0,0-14.5,6.36c-1,.59-2,1.2-3,1.84a74,74,0,0,0-9.43,7.09,75.1,75.1,0,0,0-9.47,10.05c-1.22,1.56-2.4,3.17-3.5,4.83-1.36,2.06-2.63,4.19-3.79,6.39-.67,1.27-1.3,2.53-1.93,3.77-1,2.06-2.06,4.05-3.11,5.94-.24.43-.49.85-.74,1.27-.71,1.22-1.43,2.4-2.21,3.49-6,8.48-13.16,12.4-21.84,12A35.48,35.48,0,0,1,629.3,286c-.65-.26-1.29-.52-1.9-.79Z" transform="translate(-215.64 -142.33)"/><path class="cls-11" d="M715.29,229.69a70.8,70.8,0,0,0-41.14,34.43c-.65,1.24-1.28,2.5-1.91,3.69h0c-.52,1-1,2-1.54,3a68,68,0,0,1-4.87,8.28c-3.8,5.34-8.14,9.17-12.9,11.42a25.78,25.78,0,0,1-9.32,2.36c-.55,0-1.1.06-1.66.07s-1.13,0-1.7,0h0a40.09,40.09,0,0,1-12.85-3h0v4.66h0a43,43,0,0,0,12.64,2.66c.72,0,1.44.05,2.16,0s1.2,0,1.79-.08l.33,0c.51,0,1-.1,1.52-.17l.57-.06.89-.17c.39-.07.77-.13,1.15-.21l.18,0a29.93,29.93,0,0,0,9.34-3.85,38.36,38.36,0,0,0,9.75-8.93c.55-.69,1.08-1.4,1.61-2.14a93.31,93.31,0,0,0,6.73-11.81l.44-.88c.47-.92,1-1.86,1.45-2.79l0-.06a66.08,66.08,0,0,1,8.44-12.31,65.09,65.09,0,0,1,6.46-6.51,66.31,66.31,0,0,1,23.49-13.34l.2-.07a46.33,46.33,0,0,1,10.83-2.14c.67-.05,1.34-.07,2-.08a32.61,32.61,0,0,1,3.86.19c.91.11,1.79.26,2.67.44v-4.44c-.71-.14-1.45-.24-2.19-.33A45,45,0,0,0,715.29,229.69Z" transform="translate(-215.64 -142.33)"/><path class="cls-12" d="M729.43,231.63c-.66,0-1.33,0-2,.08a46.33,46.33,0,0,0-10.83,2.14l-.2.07a66.49,66.49,0,0,0-23.46,13.34,65.69,65.69,0,0,0-6.49,6.54A66.75,66.75,0,0,0,678,266.11l0,0-1.39,2.69-.5,1a92.1,92.1,0,0,1-6.73,11.81c-.54.76-1.1,1.49-1.66,2.19a38.2,38.2,0,0,1-9.72,8.88,29.93,29.93,0,0,1-9.34,3.85l-.18,0c-.38.08-.76.14-1.15.21l-.89.17-.57.06c-.51.07-1,.13-1.52.17l-.33,0c-.59,0-1.19.08-1.79.08s-1.44,0-2.16,0a43,43,0,0,1-12.64-2.66h0v4.61c.62.21,1.25.39,1.88.57a46.18,46.18,0,0,0,10.56,1.83c.61,0,1.22,0,1.83,0a35.52,35.52,0,0,0,14.93-3.24c.9-.42,1.77-.89,2.64-1.39a42.43,42.43,0,0,0,12.06-10.72c.55-.7,1.09-1.41,1.61-2.15A97.93,97.93,0,0,0,680,271.81c.13-.25.26-.5.38-.75l1.46-2.87a62.32,62.32,0,0,1,12.69-16.51,59.83,59.83,0,0,1,5-4.15,62.34,62.34,0,0,1,16.88-9l1.5-.52a43.13,43.13,0,0,1,8.64-1.84,30,30,0,0,1,6.28,0,26.76,26.76,0,0,1,3.17.59v-4.51h0c-.88-.18-1.76-.33-2.67-.44A32.61,32.61,0,0,0,729.43,231.63Z" transform="translate(-215.64 -142.33)"/><path class="cls-2" d="M284.65,295.22a14.37,14.37,0,0,0-1.78-6.93v13.85A14.3,14.3,0,0,0,284.65,295.22Z" transform="translate(-215.64 -142.33)"/><path class="cls-2" d="M282.87,252.29a14.3,14.3,0,0,0,1.78-6.92,14.49,14.49,0,0,0-.61-4.14h-1.17Z" transform="translate(-215.64 -142.33)"/><polygon class="cls-4" points="67.24 98.9 68.4 98.9 97.13 98.9 97.13 94.9 88.81 94.9 67.24 94.9 67.24 98.9"/><rect class="cls-4" x="0.66" y="94.9" width="6.43" height="4"/><polygon class="cls-4" points="67.24 143.63 97.13 143.63 97.13 139.64 88.81 139.64 67.24 139.64 67.24 143.63"/><rect class="cls-4" y="139.64" width="9.64" height="3.99"/><polygon class="cls-4" points="67.24 165.04 97.13 165.04 97.13 161.05 88.81 161.05 67.24 161.05 67.24 165.04"/><rect class="cls-4" y="161.05" width="7.09" height="3.99"/><polygon class="cls-4" points="67.24 120.77 97.13 120.77 97.13 116.77 88.81 116.77 67.24 116.77 67.24 120.77"/><rect class="cls-4" x="0.66" y="116.77" width="8.98" height="4"/><path class="cls-3" d="M280.22,245h-55v55.49h55v13.31h2.65V230.55h-2.65Zm0,52.73H233.16V246.34h47.06Z" transform="translate(-215.64 -142.33)"/><rect class="cls-3" x="9.64" y="178.72" width="40.35" height="2.49"/><polygon class="cls-3" points="49.99 82.17 49.99 78.61 18.61 78.61 9.64 78.61 9.64 82.17 49.99 82.17"/><path class="cls-3" d="M280.22,246.34H233.16v51.42h47.06Zm-39,47v-42h20.52v42Z" transform="translate(-215.64 -142.33)"/><rect class="cls-13" x="25.61" y="108.98" width="20.52" height="42"/><polygon class="cls-3" points="49.99 82.17 64.58 82.17 64.58 88.22 67.24 88.22 83.09 88.22 83.09 78.4 49.99 78.4 49.99 78.4 49.99 78.61 49.99 82.17"/><polygon class="cls-13" points="7.09 98.9 7.09 102.7 9.64 102.7 64.58 102.7 64.58 88.22 64.58 82.17 49.99 82.17 9.64 82.17 7.09 82.17 7.09 91.72 7.09 94.9 7.09 98.9"/><polygon class="cls-3" points="64.58 178.72 49.99 178.72 49.99 181.21 49.99 181.32 83.09 181.32 83.09 171.5 67.24 171.5 64.58 171.5 64.58 178.72"/><polygon class="cls-13" points="49.99 178.72 64.58 178.72 64.58 171.5 64.58 158.19 9.64 158.19 7.09 158.19 7.09 161.05 7.09 165.04 7.09 168.42 7.09 178.72 9.64 178.72 49.99 178.72"/><text class="cls-14" transform="translate(99.99 99.95)">G</text><text class="cls-14" transform="translate(109.7 99.95)">N</text><text class="cls-14" transform="translate(119.98 99.95)">D</text><text class="cls-14" transform="translate(101.19 120.67)">V</text><text class="cls-14" transform="translate(110.72 120.67)">C</text><text class="cls-14" transform="translate(119.77 120.67)">C</text><text class="cls-14" transform="translate(100.28 144.24)">S</text><text class="cls-14" transform="translate(108.7 144.24)">D</text><text class="cls-14" transform="translate(118.73 144.24)">A</text><text class="cls-14" transform="translate(101.59 165.78)">S</text><text class="cls-14" transform="translate(110.01 165.78)">C</text><text class="cls-14" transform="translate(119.06 165.78)">L</text><text class="cls-1" transform="translate(190.57 74.27)">Q</text><text class="cls-1" transform="translate(214.64 74.27)">C</text><text class="cls-15" transform="translate(182.36 97.17)">P</text><text class="cls-15" transform="translate(191.58 97.17)">A</text><text class="cls-15" transform="translate(201.69 97.17)">S</text><text class="cls-15" transform="translate(210.22 97.17)">S</text><text class="cls-15" transform="translate(218.74 97.17)">E</text><text class="cls-15" transform="translate(227.73 97.17)">D</text><text class="cls-16" transform="translate(419.1 246.67)">S</text><text class="cls-16" transform="translate(423.36 246.67)">E</text><text class="cls-16" transform="translate(427.86 246.67)">T</text><text class="cls-16" transform="translate(466.05 246.67)">R</text><text class="cls-16" transform="translate(471.01 246.67)">E</text><text class="cls-16" transform="translate(475.5 246.67)">S</text><text class="cls-16" transform="translate(479.76 246.67)">E</text><text class="cls-16" transform="translate(484.26 246.67)">T</text></g></g></svg>