<svg xmlns="http://www.w3.org/2000/svg" width="90" height="100" viewBox="0 0 707.39 622.7"><defs><style>.cls-1{font-size:19.86px;font-family:Montserrat-Bold, Montserrat;font-weight:700;}.cls-1,.cls-5{fill:#fff;}.cls-2{fill:none;}.cls-3{fill:#ff2b2b;}.cls-4{fill:#004684;}.cls-6{fill:#c6f1a7;}.cls-7{fill:#c7d0d8;}.cls-8{fill:#38b6ff;}.cls-9{fill:#2b2b2b;}.cls-10{fill:#a6a6a6;}.cls-11{fill:#f1eddd;}.cls-12{fill:#d9d9d9;}.cls-13{fill:#004aad;}.cls-14{fill:#b4b4b4;}.cls-15{fill:#89725c;}.cls-16{fill:#024bad;}</style></defs><title>Asset 1</title><g id="Layer_2" data-name="Layer 2"><g id="Layer_1-2" data-name="Layer 1"><text class="cls-1" transform="translate(190.27 524.54) rotate(-90)">A</text><text class="cls-1" transform="translate(190.27 509.25) rotate(-90)">1</text><text class="cls-1" transform="translate(123.02 528.7) rotate(-90)">G</text><text class="cls-1" transform="translate(123.02 513.95) rotate(-90)">N</text><text class="cls-1" transform="translate(123.02 498.34) rotate(-90)">D</text><text class="cls-1" transform="translate(154.47 526.88) rotate(-90)">V</text><text class="cls-1" transform="translate(154.47 512.41) rotate(-90)">C</text><text class="cls-1" transform="translate(154.47 498.67) rotate(-90)">C</text><text class="cls-1" transform="translate(222.96 522.92) rotate(-90)">A</text><text class="cls-1" transform="translate(222.96 507.63) rotate(-90)">0</text><path class="cls-2" d="M116.88-352.82h40V-456.3a14,14,0,0,1,6.94-12H124.05a7.29,7.29,0,0,0-7.24,7.26v15.74h.07Z" transform="translate(105.93 480.23)"/><path class="cls-3" d="M110.74-445.34h6.07v-15.74a7.29,7.29,0,0,1,7.24-7.26h39.72a13.83,13.83,0,0,1,7-1.9h2.89V-475h-49.6a14,14,0,0,0-13.92,13.94v108.26h.61Z" transform="translate(105.93 480.23)"/><path d="M156.83-456.3v103.48h.58v-92.89h6.1V-456.3a7.28,7.28,0,0,1,7.25-7.25h2.89v-6.69h-2.89a13.83,13.83,0,0,0-7,1.9A14,14,0,0,0,156.83-456.3Z" transform="translate(105.93 480.23)"/><polygon class="cls-4" points="222.82 127.41 222.82 140.04 263.34 140.04 263.34 127.41 262.76 127.41 222.82 127.41"/><path class="cls-4" d="M-43.77-286.8H32.36v-38H-43.77Zm17-31.43a11.11,11.11,0,0,1,7.15,2.59,16.44,16.44,0,0,1,13.24-6.71,16.41,16.41,0,0,1,13.36,6.88,11.12,11.12,0,0,1,7.35-2.76A11.18,11.18,0,0,1,25.46-307a11.18,11.18,0,0,1-11.18,11.18,11.19,11.19,0,0,1-6.35-2,16.46,16.46,0,0,1-14.36,8.42A16.43,16.43,0,0,1-20.7-297.7a11.07,11.07,0,0,1-6.12,1.83A11.18,11.18,0,0,1-38-307,11.18,11.18,0,0,1-26.82-318.23Z" transform="translate(105.93 480.23)"/><path class="cls-4" d="M173.64-232.73a41,41,0,0,1,28.49-39v-81.08H163.55v12.63h18v73.69H93.75v-73.69h17v-12.63H90.81a28.47,28.47,0,0,1-28.48,28.46,28.47,28.47,0,0,1-28.48-28.46H-77.46v81.08a41,41,0,0,1,28.48,39,40.94,40.94,0,0,1-28.48,39V9.71A28.47,28.47,0,0,1-49,38.19,28.47,28.47,0,0,1-77.46,66.67v75.8H20.18V127.08H-13.31V56.44H19.75V50.26H105v6.18h32.82v70.64H105.7v15.39h97V58.69h-.55a28.48,28.48,0,0,1,0-57l.55,0V-193.55A41,41,0,0,1,173.64-232.73ZM-45-326.06H33.65v40.55H-45Zm13.57,90.74v-21.63h11.75v-.73H6.93v.73H18.68v21.63Zm50.14,14.93v21.63H-31.46v-21.63H18.68Zm.77,212H-30.68V-30H19.45Zm0-33.43H-30.68V-63.43H19.45ZM81.18-114.1H54.59v12.26H81.18V-90H54.59V-73.8H-31.46V-90H-61.11v-11.86h29.65V-114.1H-61.11V-126h29.65v-11.33H-62.24v-11.86h30.78v-13.59H-62.24v-11.87h30.78v-8H54.59v8H80.05v11.87H54.59v13.59H80.05v11.86H54.59V-126H81.18ZM144.11-8.36H94V-30h50.13Zm0-37H94V-67h50.13Zm0-37.74H94v-21.63h50.13Zm0-39.18H94v-21.63h50.13Zm0-38.73H94v-21.63h50.13Zm0-37.74H94v-21.63h50.13Z" transform="translate(105.93 480.23)"/><path class="cls-4" d="M62.33-324.36a28.47,28.47,0,0,0,28.48-28.46v0a28.48,28.48,0,0,0-28.48-28.48,28.48,28.48,0,0,0-28.48,28.48v0A28.47,28.47,0,0,0,62.33-324.36ZM41.82-352.84a20.51,20.51,0,0,1,20.51-20.51,20.51,20.51,0,0,1,20.51,20.51,20.51,20.51,0,0,1-20.51,20.51A20.51,20.51,0,0,1,41.82-352.84Z" transform="translate(105.93 480.23)"/><rect class="cls-5" x="126.11" y="607.31" width="1.33" height="4.12"/><path class="cls-4" d="M173.64,30.22A28.47,28.47,0,0,0,202.12,58.7h.55a28.47,28.47,0,0,0,0-56.93l-.55,0A28.47,28.47,0,0,0,173.64,30.22Zm49,0A20.51,20.51,0,1,1,202.12,9.71,20.51,20.51,0,0,1,222.63,30.22Z" transform="translate(105.93 480.23)"/><path class="cls-4" d="M-49,38.19A28.47,28.47,0,0,0-77.46,9.71a28.47,28.47,0,0,0-28.47,28.48A28.47,28.47,0,0,0-77.46,66.67,28.47,28.47,0,0,0-49,38.19ZM-77.46,58.7A20.5,20.5,0,0,1-98,38.19a20.5,20.5,0,0,1,20.5-20.51A20.51,20.51,0,0,1-56.95,38.19,20.51,20.51,0,0,1-77.46,58.7Z" transform="translate(105.93 480.23)"/><path class="cls-6" d="M174.41-309h.06v2.48h-.06a14,14,0,0,1-14,12.8,14,14,0,0,1-14-12.8h0v-.18c0-.35,0-.7,0-1.06s0-.7,0-1V-309h0a14.06,14.06,0,0,1,10.95-12.46v-18.77H116.88v18.8a14,14,0,0,1,10.79,11.81H128v2.48h-.26a14,14,0,0,1-14,13.42,14,14,0,0,1-14-14,14,14,0,0,1,11-13.7v-18.77h-17v73.69H181.6v-73.69h-18v18.79A14,14,0,0,1,174.41-309Z" transform="translate(105.93 480.23)"/><path class="cls-7" d="M146.46-309h27.95a14,14,0,0,0-10.86-12.44v11.67h-6.14v-11.69A14.06,14.06,0,0,0,146.46-309Z" transform="translate(105.93 480.23)"/><path class="cls-7" d="M146.4-307.72c0,.36,0,.71,0,1.06v-2.11C146.43-308.42,146.4-308.07,146.4-307.72Z" transform="translate(105.93 480.23)"/><path class="cls-7" d="M174.47-307.72v0Z" transform="translate(105.93 480.23)"/><path class="cls-7" d="M146.46-306.48a14,14,0,0,0,14,12.8,14,14,0,0,0,14-12.8Z" transform="translate(105.93 480.23)"/><path class="cls-7" d="M127.67-309.58a14,14,0,0,0-10.79-11.81v11.81Z" transform="translate(105.93 480.23)"/><path class="cls-7" d="M100-307.1v-2.48h10.73v-11.84a14,14,0,0,0-11,13.7,14,14,0,0,0,14,14,14,14,0,0,0,14-13.42Z" transform="translate(105.93 480.23)"/><path class="cls-5" d="M33.65-326.06H-45v40.55H33.65ZM32.36-286.8H-43.77v-38H32.36Z" transform="translate(105.93 480.23)"/><path class="cls-5" d="M-26.82-295.87a11.07,11.07,0,0,0,6.12-1.83,16.32,16.32,0,0,1-2.19-8.18,16.34,16.34,0,0,1,3.22-9.76,11.11,11.11,0,0,0-7.15-2.59A11.18,11.18,0,0,0-38-307,11.18,11.18,0,0,0-26.82-295.87Z" transform="translate(105.93 480.23)"/><path class="cls-5" d="M7.93-297.84a11.19,11.19,0,0,0,6.35,2A11.18,11.18,0,0,0,25.46-307a11.18,11.18,0,0,0-11.18-11.18,11.12,11.12,0,0,0-7.35,2.76,16.3,16.3,0,0,1,3.1,9.59A16.33,16.33,0,0,1,7.93-297.84Z" transform="translate(105.93 480.23)"/><path class="cls-8" d="M-20.7-297.7a16.43,16.43,0,0,0,14.27,8.28,16.46,16.46,0,0,0,14.36-8.42,16.33,16.33,0,0,0,2.1-8,16.3,16.3,0,0,0-3.1-9.59,16.41,16.41,0,0,0-13.36-6.88,16.44,16.44,0,0,0-13.24,6.71,16.34,16.34,0,0,0-3.22,9.76A16.32,16.32,0,0,0-20.7-297.7Z" transform="translate(105.93 480.23)"/><polygon class="cls-5" points="124.61 223.28 112.86 223.28 112.86 244.19 86.22 244.19 86.22 223.28 74.47 223.28 74.47 244.91 124.61 244.91 124.61 223.28"/><rect class="cls-5" x="112.86" y="259.84" width="11.75" height="21.63"/><rect class="cls-5" x="74.47" y="259.84" width="11.75" height="21.63"/><rect class="cls-5" x="238.3" y="259.84" width="11.75" height="21.63"/><rect class="cls-5" x="199.91" y="259.84" width="11.75" height="21.63"/><rect class="cls-5" x="199.91" y="297.58" width="13.24" height="21.63"/><rect class="cls-5" x="239.79" y="297.58" width="10.25" height="21.63"/><rect class="cls-5" x="199.91" y="336.31" width="11.75" height="21.63"/><rect class="cls-5" x="238.3" y="336.31" width="11.75" height="21.63"/><rect class="cls-5" x="238.3" y="375.49" width="11.75" height="21.63"/><rect class="cls-5" x="199.91" y="375.49" width="11.75" height="21.63"/><polygon class="cls-9" points="112.86 244.19 112.86 223.28 112.86 222.56 86.22 222.56 86.22 223.28 86.22 244.19 112.86 244.19"/><rect class="cls-9" x="86.22" y="259.84" width="26.64" height="21.63"/><rect class="cls-9" x="211.66" y="259.84" width="26.64" height="21.63"/><rect class="cls-9" x="213.15" y="297.58" width="26.64" height="21.63"/><rect class="cls-9" x="211.66" y="336.31" width="26.64" height="21.63"/><rect class="cls-9" x="211.66" y="375.49" width="26.64" height="21.63"/><rect class="cls-10" x="160.53" y="331.08" width="25.46" height="11.86"/><rect class="cls-10" x="43.69" y="331.08" width="30.78" height="11.86"/><rect class="cls-10" x="44.82" y="354.27" width="29.65" height="11.86"/><rect class="cls-10" x="160.53" y="354.27" width="26.59" height="11.86"/><rect class="cls-10" x="44.82" y="378.39" width="29.65" height="11.86"/><rect class="cls-10" x="160.53" y="378.39" width="26.59" height="11.86"/><rect class="cls-10" x="43.69" y="305.63" width="30.78" height="11.86"/><rect class="cls-10" x="160.53" y="305.63" width="25.46" height="11.86"/><polygon class="cls-9" points="160.53 342.94 160.53 331.08 160.53 317.49 160.53 305.63 160.53 297.58 74.47 297.58 74.47 305.63 74.47 317.49 74.47 331.08 74.47 342.94 74.47 354.27 74.47 366.13 74.47 378.39 74.47 390.25 74.47 406.43 160.53 406.43 160.53 390.25 160.53 378.39 160.53 366.13 160.53 354.27 160.53 342.94"/><rect class="cls-5" x="199.91" y="413.23" width="11.75" height="21.63"/><rect class="cls-5" x="238.3" y="413.23" width="11.75" height="21.63"/><rect class="cls-9" x="211.66" y="413.23" width="26.64" height="21.63"/><rect class="cls-5" x="238.3" y="450.24" width="11.75" height="21.63"/><rect class="cls-5" x="199.91" y="450.24" width="11.75" height="21.63"/><rect class="cls-9" x="211.66" y="450.24" width="26.64" height="21.63"/><rect class="cls-5" x="75.25" y="416.81" width="11.75" height="21.63"/><rect class="cls-5" x="113.64" y="416.81" width="11.75" height="21.63"/><rect class="cls-9" x="87" y="416.81" width="26.64" height="21.63"/><rect class="cls-5" x="75.25" y="450.24" width="11.75" height="21.63"/><rect class="cls-5" x="113.64" y="450.24" width="11.75" height="21.63"/><rect class="cls-9" x="87" y="450.24" width="26.64" height="21.63"/><polygon class="cls-11" points="211.64 607.31 243.7 607.31 243.7 536.68 210.88 536.68 210.88 546.14 220.91 546.14 233.77 546.14 233.77 597.81 102.72 597.81 102.72 546.14 115.59 546.14 125.68 546.14 125.68 536.68 92.62 536.68 92.62 607.31 126.11 607.31 127.44 607.31 211.64 607.31"/><path class="cls-12" d="M115,76.54h0v9.77H9.65V76.54h0V65.91H-3.22v51.67H127.84V65.91H115Zm2.84,12v17.54H100.29V88.54ZM7.14,106.08V88.54H24.68v17.54Zm31.11,0V88.54H55.78v17.54Zm31.12,0V88.54H86.91v17.54Z" transform="translate(105.93 480.23)"/><polygon class="cls-10" points="130.61 573.08 130.61 568.82 130.61 568.77 113.08 568.77 113.08 568.82 113.08 573.08 113.08 586.31 130.61 586.31 130.61 573.08"/><polygon class="cls-10" points="161.72 573.08 161.72 568.82 161.72 568.77 144.18 568.77 144.18 568.82 144.18 573.08 144.18 586.31 161.72 586.31 161.72 573.08"/><polygon class="cls-10" points="192.84 573.08 192.84 568.82 192.84 568.77 175.3 568.77 175.3 568.82 175.3 573.08 175.3 586.31 192.84 586.31 192.84 573.08"/><polygon class="cls-10" points="206.22 568.77 206.22 568.82 206.22 573.08 206.22 586.31 223.75 586.31 223.75 573.08 223.75 568.82 223.75 568.77 206.22 568.77"/><polygon class="cls-4" points="125.68 546.14 210.88 546.14 210.88 536.68 210.88 530.5 125.68 530.5 125.68 536.68 125.68 546.14"/><polygon class="cls-11" points="125.68 546.14 115.59 546.14 115.59 556.77 220.91 556.77 220.91 546.14 210.88 546.14 125.68 546.14"/><polygon class="cls-12" points="115.59 556.77 115.59 556.82 115.59 561.08 115.59 566.54 220.93 566.54 220.93 561.08 220.93 556.82 220.93 556.77 220.91 556.77 115.59 556.77 115.59 556.77"/><polygon class="cls-10" points="222.82 170.87 216.67 170.87 216.67 170.65 205.95 170.65 205.95 173.13 233.71 173.13 233.96 173.13 233.96 170.65 233.6 170.65 222.82 170.65 222.82 170.87"/><polygon class="cls-10" points="252.4 171.27 252.39 171.27 252.39 171.46 252.39 173.57 252.39 173.75 252.4 173.75 280.35 173.75 280.4 173.75 280.4 172.59 280.4 172.44 280.4 171.27 280.34 171.27 252.4 171.27"/><path class="cls-13" d="M173.65-463.55v8.77H412.93l-.4,0c-.88-.08-1.61-.13-1.53-1.34.51-7.31.11-14.64.21-22a2.69,2.69,0,0,1,.35-1.62H173.65v16.18Z" transform="translate(105.93 480.23)"/><path class="cls-14" d="M601.14-281c.1-1.52.17-3.05.22-4.58A162.88,162.88,0,0,0,599.7-315a219.09,219.09,0,0,0-5.83-28,171.94,171.94,0,0,0-6.33-18.52,208.66,208.66,0,0,0-14-27.77,168.54,168.54,0,0,0-14.76-21.07,197.51,197.51,0,0,0-41.3-37.87,195.33,195.33,0,0,0-36.87-19.57,188.43,188.43,0,0,0-40.41-11,126,126,0,0,0-16.88-1.4c-3.43-.08-6.86-.08-10.3-.08a1.71,1.71,0,0,0-1.46.5,2.69,2.69,0,0,0-.35,1.62c-.1,7.32.3,14.65-.21,22-.08,1.21.65,1.26,1.53,1.34l.4,0c3.46.29,6.92.47,10.39.68,3.71.23,7.43.52,11.14,1.08a158.83,158.83,0,0,1,27.32,6.23,166.75,166.75,0,0,1,31.86,14.32,169.37,169.37,0,0,1,30.25,22.68,163.26,163.26,0,0,1,23.93,28.45A168.42,168.42,0,0,1,561-357.55c2.41,5.37,4.29,11,6.18,16.55a149.87,149.87,0,0,1,7.61,39.41c.3,5.32.38,10.66.22,16a148.52,148.52,0,0,1-1.8,19.45A179.66,179.66,0,0,1,566.88-240q-1.87,5.85-4.16,11.56a157.54,157.54,0,0,1-12.6,24.33,173.61,173.61,0,0,1-22.76,28.74,159.38,159.38,0,0,1-16.63,14.63,144.61,144.61,0,0,1-16.29,11.08,179.79,179.79,0,0,1-22.22,11,143.54,143.54,0,0,1-18.64,6.23,120.45,120.45,0,0,1-20.71,3.91c-5.54.43-11,1.65-16.59,1.62-6.88,0-13.74.06-20.57-1-2.95-.46-5.94-.69-8.87-1.24a146.28,146.28,0,0,1-18.25-4.58,139.25,139.25,0,0,1-24.27-10.51,138.41,138.41,0,0,1-31-23.31,142.16,142.16,0,0,1-22.77-29.84,148.05,148.05,0,0,1-11-24.75A122.76,122.76,0,0,1,275-240c-.29-1.5-.57-3-.84-4.52-1.16-6.57-1.26-13.36-1.56-20.07-.22-4.85.5-9.69.87-14.54a113.19,113.19,0,0,1,2.8-17.71,140.88,140.88,0,0,1,8.57-25.48,137.42,137.42,0,0,1,28.59-41.4,135.76,135.76,0,0,1,40.78-28.18,137.11,137.11,0,0,1,32.07-10.09c6.43-1.13,12.95-1.91,19.46-2.41a84.86,84.86,0,0,1,17.6.66c3.16.41,6.3.93,9.43,1.5a107.51,107.51,0,0,1,23.13,7.14,103.68,103.68,0,0,1,19.32,10.58,116.44,116.44,0,0,1,20.67,18.39,113.56,113.56,0,0,1,12.81,17.39,116.23,116.23,0,0,1,11.7,27.6,123,123,0,0,1,4.21,29,56.77,56.77,0,0,1-.23,6.53c-.2,2.52-.48,5-.65,7.54a94.33,94.33,0,0,1-4.36,21.1,106.38,106.38,0,0,1-6.94,17q-1.57,3.06-3.31,6.05a112.93,112.93,0,0,1-16.66,22,115,115,0,0,1-34.18,24.14,123.41,123.41,0,0,1-27,8.52c-3.46.72-7.15.45-10.58,1.27a42.63,42.63,0,0,1-15.74.43c-5.3-.71-10.71-1.23-15.94-2.9-4.36-1.39-8.82-2.55-13-4.44a88,88,0,0,1-35.62-28.65A89.51,89.51,0,0,1,327.1-240c-.44-1.41-.84-2.83-1.21-4.28a86.75,86.75,0,0,1-2.53-17.67,87.23,87.23,0,0,1,4.16-30.57,85,85,0,0,1,8.59-18.94,89,89,0,0,1,18.66-21.65,83.78,83.78,0,0,1,16.15-10.79,91,91,0,0,1,32.71-9.42,69.17,69.17,0,0,1,19.69.83,60.31,60.31,0,0,1,9.69,2.72,61.28,61.28,0,0,1,26.35,18.56,60.92,60.92,0,0,1,14.35,35.66,71.17,71.17,0,0,1-.07,9.91,59.82,59.82,0,0,1-5.5,21A62.21,62.21,0,0,1,450.6-242c-.88.7-1.76,1.36-2.66,2a59.36,59.36,0,0,1-28,11.19c-6.06.74-12,1.05-17.84-.51A37.9,37.9,0,0,1,383.65-240a37.18,37.18,0,0,1-8.46-15.69,37.09,37.09,0,0,1,1.51-24.56A37.57,37.57,0,0,1,392.56-298a37.25,37.25,0,0,1,14.27-4.86c-.31-.2-.53-.66-.66-1.56-.88-5.9-1.44-11.84-2.16-17.76a37.6,37.6,0,0,1-.58-6.54,63.73,63.73,0,0,0-14.79,3.85,61.91,61.91,0,0,0-19.82,12.08,63.42,63.42,0,0,0-20.47,37.39,61,61,0,0,0,3.3,32c.45,1.18.94,2.33,1.45,3.47a64.57,64.57,0,0,0,25.2,28.7c13,8.21,27.23,10.24,42.05,8.88a84.42,84.42,0,0,0,27.49-7.53,89.85,89.85,0,0,0,23.91-16A88.39,88.39,0,0,0,484-240a92.28,92.28,0,0,0,7.33-12.4,84.27,84.27,0,0,0,6.6-19,78.32,78.32,0,0,0,1.88-14.22c0-.55,0-1.11.05-1.67a101.27,101.27,0,0,0-1.11-18.58,86.78,86.78,0,0,0-5-17.94,89.43,89.43,0,0,0-15.59-25.37,89.55,89.55,0,0,0-31.87-23.42,85.67,85.67,0,0,0-23-6.41,95.31,95.31,0,0,0-13.44-.85,112.72,112.72,0,0,0-18.1,1.74A112.54,112.54,0,0,0,355.2-365a112.33,112.33,0,0,0-29.68,24.12,113.37,113.37,0,0,0-13.25,18.51A110.47,110.47,0,0,0,300.5-293c-1.45,6.32-2.95,12.63-3,19.13-.07,7.55-.68,15.15.51,22.66.6,3.75,1.29,7.5,2.13,11.22.19.86.38,1.71.59,2.57a103.71,103.71,0,0,0,6.4,18.55,118.56,118.56,0,0,0,18.24,28.31,116.28,116.28,0,0,0,28.77,23.73,103.14,103.14,0,0,0,23.32,10.29c8.16,2.41,16.38,4.61,25,4.65,4.58,0,9.17.08,13.74.16A105.42,105.42,0,0,0,438.61-154a134.65,134.65,0,0,0,34.59-11.88,139.53,139.53,0,0,0,31.95-22A143,143,0,0,0,531.29-220a135.28,135.28,0,0,0,9.76-20,136.39,136.39,0,0,0,5.8-18.56,134.59,134.59,0,0,0,3.59-27.08c0-1.39.06-2.8,0-4.2,0-4.06-.16-8.1-.39-12.16-.22-3.82-.82-7.56-1.4-11.32a112.19,112.19,0,0,0-3.7-16.78,131.29,131.29,0,0,0-5.91-16.43,163.12,163.12,0,0,0-10.66-19.61,133.1,133.1,0,0,0-14.61-19,145.13,145.13,0,0,0-19.1-17.3,139.18,139.18,0,0,0-18.65-11.85A138.18,138.18,0,0,0,436.26-428c-4.3-.77-8.62-1.26-12.94-1.62-3.73-.3-7.46-.5-11.2-.68-4.63-.21-9.23.61-13.81.76a126.6,126.6,0,0,0-28,4.38,166.15,166.15,0,0,0-39.71,16,169.26,169.26,0,0,0-34,25.38,170,170,0,0,0-17.7,20.36A158.47,158.47,0,0,0,265.53-342a177.23,177.23,0,0,0-10,23.19,153.54,153.54,0,0,0-6.19,23.41c-1.89,9.77-2.83,19.74-2.21,27.68.06,8.18-.21,14.28.51,20.35.29,2.48.49,5,.83,7.46a39.8,39.8,0,0,0,.93,4.77c1.39,5.24,2.52,10.53,4,15.76.72,2.62,1.5,5.23,2.43,7.81a194,194,0,0,0,10.68,24.18,156,156,0,0,0,17.53,26.18,159.07,159.07,0,0,0,19.59,20.19A162.06,162.06,0,0,0,332-121.27a161.74,161.74,0,0,0,27.08,12A191.15,191.15,0,0,0,384-103.17a131.69,131.69,0,0,0,18,2,182.66,182.66,0,0,0,35.64-1.64c7.59-1.2,15.13-2.52,22.55-4.44a183.91,183.91,0,0,0,43.25-17.55A181.29,181.29,0,0,0,531-143.6a196.3,196.3,0,0,0,35.14-37.58A192.85,192.85,0,0,0,582.53-209a187.4,187.4,0,0,0,11.65-31c.4-1.4.78-2.81,1.15-4.23A196.43,196.43,0,0,0,601.14-281Z" transform="translate(105.93 480.23)"/><polygon class="cls-3" points="216.67 170.65 216.67 170.87 222.82 170.87 222.82 170.65 222.82 158.84 222.82 140.04 222.82 127.41 222.82 34.89 222.74 34.89 216.67 34.89 216.67 127.41 216.67 140.04 216.67 158.81 216.67 170.65"/><polygon points="269.44 34.52 263.34 34.52 263.34 127.41 263.34 140.04 263.34 158.82 263.34 170.5 269.48 170.5 269.48 158.84 269.48 140.04 269.48 127.41 269.48 34.52 269.44 34.52"/><path class="cls-15" d="M415.81-260.36q-.33-2.88-.6-5.76l-5.77,1.27-23.29,5.1,1.23,5.62L409.44-259Z" transform="translate(105.93 480.23)"/><path class="cls-16" d="M408.7-303c.25-.06.49-.1.74-.14a19,19,0,0,1,8.11.47c3.27.81,5.48,2.77,7.82,4.84,3.42,3,3.56,8.6,2.08,11.68A16.45,16.45,0,0,1,416-277c-1.64.4-2,.84-1.67,2.78.38,2.22.57,4.57.78,6.87,0,.42.09.84.13,1.26q.27,2.88.6,5.76c.31,2.8.65,5.59.95,8.39.13,1.12.74,1.45,1.86,1.6,2.69.35,5.28-.58,7.61-1.31a54.46,54.46,0,0,0,16.35-7.93,40.66,40.66,0,0,0,7.66-6.69l1.12-1.41c4.17-5.35,7.38-11.19,8.56-17.89.12-.69.23-1.38.31-2.09a43.4,43.4,0,0,0-.41-10.36,34,34,0,0,0-2.59-7.82,28.89,28.89,0,0,0-5.27-8.41c-.19-.22-.4-.43-.6-.65A42.33,42.33,0,0,0,435-326.33c-4.67-1.77-9.47-3.36-14.36-3.73a66.59,66.59,0,0,0-11.21-.1,33.76,33.76,0,0,0-6,1.08c0,.1,0,.21,0,.32a37.6,37.6,0,0,0,.58,6.54c.72,5.92,1.28,11.86,2.16,17.76.13.9.35,1.36.66,1.56S407.87-302.8,408.7-303Z" transform="translate(105.93 480.23)"/><text class="cls-1" transform="translate(190.06 522.83) rotate(-90)">A</text><text class="cls-1" transform="translate(190.06 507.55) rotate(-90)">1</text><text class="cls-1" transform="translate(122.81 526.99) rotate(-90)">G</text><text class="cls-1" transform="translate(122.81 512.24) rotate(-90)">N</text><text class="cls-1" transform="translate(122.81 496.64) rotate(-90)">D</text><text class="cls-1" transform="translate(154.27 525.17) rotate(-90)">V</text><text class="cls-1" transform="translate(154.27 510.7) rotate(-90)">C</text><text class="cls-1" transform="translate(154.27 496.96) rotate(-90)">C</text><text class="cls-1" transform="translate(222.75 521.22) rotate(-90)">A</text><text class="cls-1" transform="translate(222.75 505.93) rotate(-90)">0</text></g></g></svg>