<svg xmlns="http://www.w3.org/2000/svg" height="50" width="80" viewBox="0 0 336.53 523.79"><defs><style>.cls-1{fill:#004684;}.cls-2{fill:#2e2d2d;}.cls-3{fill:#f1eddd;}.cls-4{fill:#d9d9d9;}.cls-5{fill:#a6a6a6;}.cls-6,.cls-8,.cls-9{fill:#fff;}.cls-7{fill:#1a1a1a;}.cls-8{font-size:19.86px;}.cls-8,.cls-9{font-family:Montserrat-Bold, Montserrat;font-weight:700;}.cls-9{font-size:18.07px;}</style></defs><title>Asset 1</title><g id="Layer_2" data-name="Layer 2"><g id="Layer_1-2" data-name="Layer 1"><path class="cls-1" d="M592.52,411.84c-1.16,1.38-2.35,2.75-3.56,4.09q-2.48,2.74-5.09,5.35t-5.34,5.09q-2.74,2.47-5.59,4.82t-5.82,4.54q-3,2.19-6,4.25c-2.05,1.37-4.13,2.68-6.24,3.95s-4.25,2.47-6.42,3.63-4.37,2.27-6.59,3.32-4.48,2.05-6.75,3-4.57,1.83-6.88,2.66-4.66,1.6-7,2.31-4.73,1.37-7.11,2-4.79,1.14-7.2,1.62-4.84.9-7.28,1.26-4.87.66-7.32.9-4.9.43-7.36.55-4.92.18-7.38.18-4.92-.06-7.38-.18-4.91-.3-7.36-.55-4.89-.54-7.32-.9-4.86-.78-7.27-1.26-4.81-1-7.2-1.62-4.76-1.25-7.11-2-4.69-1.48-7-2.31-4.61-1.72-6.89-2.66-4.52-1.94-6.74-3-4.43-2.16-6.6-3.32-4.31-2.37-6.42-3.63-4.19-2.58-6.23-3.95-4.06-2.79-6-4.25-3.91-3-5.81-4.54-3.77-3.17-5.59-4.82-3.61-3.35-5.35-5.09c-.58-.58-1.14-1.17-1.71-1.76a28.48,28.48,0,0,1-28.31,25.33v75.8h99.44a40.93,40.93,0,0,1,81.84,0h98.85V436.87h-.55A28.48,28.48,0,0,1,592.52,411.84ZM421.09,477l-13.73,9.24a2.22,2.22,0,0,1-1.12.33,1.92,1.92,0,0,1-1.66-.86,2,2,0,0,1,.53-2.8l8.42-5.71h-29v28.46l5.52-8.15a2,2,0,0,1,2.79-.53,2,2,0,0,1,.53,2.78l-9.24,13.66a2,2,0,0,1-1.66,1,2.07,2.07,0,0,1-1.66-.87l-9.24-13.72a2.22,2.22,0,0,1-.33-1.13,1.91,1.91,0,0,1,.86-1.66,2,2,0,0,1,2.79.53l5.72,8.42V477.15H353.77l8.29,5.58a2,2,0,0,1,.53,2.79,2.06,2.06,0,0,1-1.65.87,2.23,2.23,0,0,1-1.13-.34l-13.73-9.24a2.06,2.06,0,0,1-.86-1.66,2.08,2.08,0,0,1,.86-1.66l13.73-9.24a2,2,0,0,1,2.72.6,2,2,0,0,1-.53,2.79l-8.29,5.58h26.87v-27L375,454.48a2,2,0,0,1-2.79.53,2.08,2.08,0,0,1-.86-1.66,2.22,2.22,0,0,1,.33-1.13l9.24-13.73a2,2,0,0,1,3.33,0l9.24,13.73a2,2,0,0,1-.6,2.72,2,2,0,0,1-2.79-.53l-5.59-8.29v27.1h28.7L405,467.71a2,2,0,0,1-.53-2.8,2,2,0,0,1,2.79-.53L421,473.62a2,2,0,0,1,1,1.67A2.08,2.08,0,0,1,421.09,477Zm180,32h-52V486.54h52Zm0-33.82h-52V452.72h52Z" transform="translate(-312.74 3.14)"/><path class="cls-1" d="M345,385.84q-1.74-3.25-3.32-6.59l-.42-.91v9.55a28.87,28.87,0,0,1,5.13.47C345.87,387.52,345.4,386.69,345,385.84Z" transform="translate(-312.74 3.14)"/><path class="cls-1" d="M616.46,372.5c-.94,2.27-1.93,4.52-3,6.75-.3.63-.61,1.26-.92,1.89a28.37,28.37,0,0,1,8.24-1.21h.55v-21c-.69,2.26-1.43,4.49-2.22,6.71S617.41,370.23,616.46,372.5Z" transform="translate(-312.74 3.14)"/><path class="cls-1" d="M592.31,145.45a41,41,0,0,1,29-39.18V25.36H509.48a28.43,28.43,0,0,1-8.57,20.34h58.64v73.35h-31.8a5.73,5.73,0,0,1-2.53,2.81v3.6H436.74v-6.41H402.66V45.7h58.43a28.43,28.43,0,0,1-8.57-20.34H341.21v81.09a40.94,40.94,0,0,1,0,78v67.14l.42-.91q1.58-3.35,3.32-6.6t3.64-6.42c1.26-2.11,2.58-4.19,3.94-6.23s2.79-4.06,4.25-6,3-3.91,4.54-5.81,3.17-3.77,4.82-5.59,3.35-3.61,5.09-5.35,3.53-3.43,5.35-5.09,3.68-3.26,5.59-4.82,3.84-3.07,5.81-4.54,4-2.88,6-4.25,4.12-2.68,6.23-3.94,4.25-2.48,6.42-3.64,4.37-2.27,6.6-3.32,4.47-2,6.74-3,4.57-1.83,6.89-2.66,4.65-1.6,7-2.31,4.72-1.37,7.11-2,4.79-1.14,7.2-1.62,4.84-.9,7.27-1.26,4.88-.66,7.32-.9,4.91-.42,7.36-.54,4.92-.19,7.38-.19,4.92.06,7.38.19,4.91.3,7.36.54,4.89.54,7.32.9,4.86.78,7.28,1.26,4.81,1,7.2,1.62,4.75,1.25,7.11,2,4.69,1.48,7,2.31,4.61,1.72,6.88,2.66,4.52,1.94,6.75,3,4.42,2.16,6.59,3.32,4.31,2.37,6.42,3.64,4.19,2.58,6.24,3.94,4,2.79,6,4.25,3.92,3,5.82,4.54,3.76,3.17,5.59,4.82,3.6,3.35,5.34,5.09,3.44,3.52,5.09,5.35,3.26,3.68,4.82,5.59,3.07,3.84,4.54,5.81,2.88,4,4.25,6,2.68,4.12,3.95,6.23,2.48,4.25,3.64,6.42,2.26,4.37,3.31,6.6,2,4.47,3,6.74,1.83,4.57,2.66,6.89,1.53,4.46,2.22,6.71V184.63A41,41,0,0,1,592.31,145.45Zm-149.25-4.76a5.67,5.67,0,1,1,5.67-5.67A5.67,5.67,0,0,1,443.06,140.69Zm31.82,0a5.67,5.67,0,1,1,5.67-5.67A5.67,5.67,0,0,1,474.88,140.69Zm16,0a5.67,5.67,0,1,1,5.66-5.67A5.66,5.66,0,0,1,490.9,140.69Zm16,0a5.67,5.67,0,1,1,5.67-5.67A5.67,5.67,0,0,1,506.9,140.69Zm15.62,0a5.67,5.67,0,1,1,5.66-5.67A5.66,5.66,0,0,1,522.52,140.69Z" transform="translate(-312.74 3.14)"/><path class="cls-1" d="M461.09,45.7h17.52a20.51,20.51,0,1,1,4.78,0h17.52a28.43,28.43,0,0,0,8.57-20.34v0a28.48,28.48,0,0,0-57,0v0A28.43,28.43,0,0,0,461.09,45.7Z" transform="translate(-312.74 3.14)"/><path class="cls-1" d="M612.55,381.14q-1.15,2.37-2.39,4.7c-1.16,2.17-2.38,4.31-3.64,6.42s-2.58,4.19-3.95,6.24-2.78,4.05-4.25,6-3,3.91-4.54,5.82c-.41.5-.84,1-1.26,1.49a28.48,28.48,0,0,0,28.27,25h.55a28.47,28.47,0,0,0,0-56.93h-.55A28.37,28.37,0,0,0,612.55,381.14Zm28.74,27.26a20.51,20.51,0,1,1-20.5-20.51A20.5,20.5,0,0,1,641.29,408.4Z" transform="translate(-312.74 3.14)"/><path class="cls-1" d="M369.52,419.52c-1.15-1.18-2.27-2.37-3.38-3.59-1.65-1.82-3.25-3.68-4.82-5.58l-.91-1.14a20.26,20.26,0,0,1,1.31,7.16,20.56,20.56,0,1,1-8.12-16.32c-.35-.52-.71-1-1.07-1.55-1.36-2.05-2.68-4.13-3.94-6.24q-1.15-1.93-2.25-3.9a28.87,28.87,0,0,0-5.13-.47,28.48,28.48,0,1,0,28.31,31.63Z" transform="translate(-312.74 3.14)"/><circle class="cls-1" cx="443.06" cy="135.02" r="5.67" transform="translate(-278.44 355.98) rotate(-45)"/><circle class="cls-1" cx="162.15" cy="138.16" r="5.67"/><circle class="cls-1" cx="490.9" cy="135.02" r="5.67" transform="translate(-264.43 389.8) rotate(-45)"/><circle class="cls-1" cx="506.9" cy="135.02" r="5.67" transform="translate(-259.74 401.12) rotate(-45)"/><path class="cls-1" d="M525.22,121.86a5.73,5.73,0,0,0,2.53-2.81h-2.53Z" transform="translate(-312.74 3.14)"/><circle class="cls-1" cx="209.78" cy="138.16" r="5.67"/><path class="cls-2" d="M616.46,257.42c-.94-2.27-1.93-4.52-3-6.74s-2.15-4.43-3.31-6.6-2.38-4.31-3.64-6.42-2.58-4.19-3.95-6.23-2.78-4.06-4.25-6-3-3.91-4.54-5.81-3.17-3.77-4.82-5.59-3.35-3.61-5.09-5.35-3.52-3.43-5.34-5.09-3.69-3.26-5.59-4.82-3.84-3.07-5.82-4.54-4-2.88-6-4.25-4.13-2.68-6.24-3.94-4.25-2.48-6.42-3.64-4.37-2.27-6.59-3.32-4.48-2-6.75-3-4.57-1.83-6.88-2.66-4.66-1.6-7-2.31-4.73-1.37-7.11-2-4.79-1.14-7.2-1.62-4.84-.9-7.28-1.26-4.87-.66-7.32-.9-4.9-.42-7.36-.54-4.92-.19-7.38-.19-4.92.06-7.38.19-4.91.3-7.36.54-4.89.54-7.32.9-4.86.78-7.27,1.26-4.81,1-7.2,1.62-4.76,1.25-7.11,2-4.69,1.48-7,2.31-4.61,1.72-6.89,2.66-4.52,1.94-6.74,3-4.43,2.16-6.6,3.32-4.31,2.37-6.42,3.64-4.19,2.58-6.23,3.94-4.06,2.79-6,4.25-3.91,3-5.81,4.54-3.77,3.17-5.59,4.82-3.61,3.35-5.35,5.09-3.43,3.52-5.09,5.35-3.25,3.68-4.82,5.59-3.07,3.84-4.54,5.81-2.88,4-4.25,6-2.68,4.12-3.94,6.23-2.48,4.25-3.64,6.42-2.27,4.37-3.32,6.6l-.42.91c-.89,1.92-1.76,3.87-2.57,5.83-.94,2.28-1.83,4.57-2.66,6.89s-1.6,4.65-2.31,7-1.37,4.73-2,7.12-1.14,4.78-1.62,7.2-.9,4.84-1.26,7.27-.66,4.87-.9,7.32-.42,4.91-.54,7.36-.18,4.92-.18,7.38.06,4.92.18,7.38.3,4.91.54,7.36.54,4.89.9,7.32.78,4.86,1.26,7.27,1,4.82,1.62,7.2,1.26,4.76,2,7.12,1.49,4.69,2.31,7,1.72,4.62,2.66,6.89c.81,2,1.68,3.91,2.57,5.84l.42.91q1.58,3.33,3.32,6.59c.45.85.92,1.68,1.39,2.52q1.1,2,2.25,3.9c1.26,2.11,2.58,4.19,3.94,6.24.36.52.72,1,1.07,1.55,1,1.51,2.09,3,3.18,4.48s2.39,3.14,3.63,4.68l.91,1.14c1.57,1.9,3.17,3.76,4.82,5.58,1.11,1.22,2.23,2.41,3.38,3.59.57.59,1.13,1.18,1.71,1.76,1.74,1.74,3.53,3.44,5.35,5.09s3.68,3.26,5.59,4.82,3.84,3.07,5.81,4.54,4,2.88,6,4.25,4.12,2.68,6.23,3.95,4.25,2.47,6.42,3.63,4.37,2.27,6.6,3.32,4.47,2.05,6.74,3,4.57,1.83,6.89,2.66,4.65,1.6,7,2.31,4.72,1.37,7.11,2,4.79,1.14,7.2,1.62,4.84.9,7.27,1.26,4.88.66,7.32.9,4.91.43,7.36.55,4.92.18,7.38.18,4.92-.06,7.38-.18,4.91-.3,7.36-.55,4.89-.54,7.32-.9,4.86-.78,7.28-1.26,4.81-1,7.2-1.62,4.75-1.25,7.11-2,4.69-1.48,7-2.31,4.61-1.72,6.88-2.66,4.52-1.94,6.75-3,4.42-2.16,6.59-3.32,4.31-2.37,6.42-3.63,4.19-2.58,6.24-3.95,4-2.79,6-4.25,3.92-3,5.82-4.54,3.76-3.17,5.59-4.82,3.6-3.35,5.34-5.09,3.44-3.52,5.09-5.35c1.21-1.34,2.4-2.71,3.56-4.09.42-.5.85-1,1.26-1.49,1.56-1.91,3.07-3.84,4.54-5.82s2.88-4,4.25-6,2.68-4.13,3.95-6.24,2.48-4.25,3.64-6.42q1.23-2.32,2.39-4.7c.31-.63.62-1.26.92-1.89,1.06-2.23,2-4.48,3-6.75s1.83-4.57,2.66-6.89,1.53-4.45,2.22-6.71c0-.1.07-.19.09-.29q1.08-3.54,2-7.12t1.62-7.2q.72-3.62,1.26-7.27t.91-7.32q.36-3.68.54-7.36t.18-7.38q0-3.69-.18-7.38c-.12-2.45-.3-4.91-.54-7.36s-.55-4.89-.91-7.32-.78-4.86-1.26-7.27-1-4.82-1.62-7.2-1.25-4.76-2-7.12c0-.09-.06-.19-.09-.29q-1-3.37-2.22-6.71C618.29,262,617.41,259.7,616.46,257.42ZM589,320.57c-.1,1.87-.23,3.74-.42,5.6s-.41,3.73-.68,5.58-.6,3.69-1,5.53-.78,3.66-1.23,5.48-1,3.62-1.5,5.41-1.13,3.57-1.76,5.33-1.31,3.51-2,5.24-1.48,3.44-2.28,5.13-1.64,3.37-2.52,5-1.81,3.28-2.77,4.88-2,3.19-3,4.75-2.11,3.09-3.23,4.59-2.27,3-3.45,4.43-2.41,2.86-3.67,4.25-2.55,2.74-3.87,4.06-2.68,2.62-4.07,3.88-2.8,2.48-4.25,3.66-2.92,2.34-4.43,3.46-3,2.19-4.59,3.23-3.14,2-4.74,3-3.24,1.89-4.89,2.77-3.32,1.73-5,2.53-3.41,1.56-5.14,2.27-3.47,1.39-5.24,2-3.54,1.22-5.33,1.76-3.59,1.05-5.41,1.5-3.64.87-5.48,1.23-3.68.69-5.53,1-3.71.51-5.57.69-3.73.32-5.6.41-3.74.14-5.62.14-3.74-.05-5.61-.14-3.74-.23-5.6-.41-3.72-.41-5.57-.69-3.7-.59-5.53-1-3.67-.77-5.48-1.23-3.62-.95-5.41-1.5-3.57-1.13-5.34-1.76-3.5-1.3-5.23-2-3.45-1.47-5.14-2.27-3.36-1.64-5-2.53-3.28-1.8-4.89-2.77-3.19-2-4.74-3-3.09-2.12-4.59-3.23-3-2.27-4.43-3.46-2.86-2.41-4.25-3.66-2.74-2.55-4.07-3.88-2.61-2.68-3.87-4.06-2.48-2.81-3.67-4.25-2.34-2.93-3.45-4.43-2.2-3-3.24-4.59-2-3.14-3-4.75-1.88-3.23-2.77-4.88-1.72-3.32-2.52-5-1.56-3.4-2.28-5.13-1.39-3.48-2-5.24-1.22-3.54-1.76-5.33-1-3.6-1.5-5.41-.86-3.64-1.23-5.48-.68-3.68-1-5.53-.5-3.71-.68-5.58-.33-3.73-.42-5.6-.14-3.74-.14-5.61.05-3.74.14-5.61.23-3.74.42-5.6.41-3.72.68-5.57.6-3.7,1-5.54.78-3.66,1.23-5.48,1-3.62,1.5-5.41,1.13-3.57,1.76-5.33,1.31-3.51,2-5.24,1.48-3.44,2.28-5.13,1.64-3.37,2.52-5,1.81-3.28,2.77-4.88,2-3.19,3-4.75,2.12-3.08,3.24-4.59,2.26-3,3.45-4.42,2.41-2.87,3.67-4.25,2.55-2.75,3.87-4.07,2.68-2.62,4.07-3.87,2.8-2.48,4.25-3.67,2.92-2.34,4.43-3.46,3-2.19,4.59-3.23,3.14-2,4.74-3,3.24-1.89,4.89-2.77,3.32-1.72,5-2.52,3.41-1.56,5.14-2.28,3.47-1.39,5.23-2,3.54-1.22,5.34-1.76,3.59-1,5.41-1.5,3.64-.86,5.48-1.23,3.68-.69,5.53-1,3.71-.5,5.57-.69,3.73-.32,5.6-.41,3.74-.14,5.61-.14,3.75.05,5.62.14,3.73.23,5.6.41,3.72.42,5.57.69,3.7.59,5.53,1,3.67.78,5.48,1.23,3.62.95,5.41,1.5,3.57,1.13,5.33,1.76,3.51,1.3,5.24,2,3.44,1.47,5.14,2.28,3.36,1.64,5,2.52,3.28,1.81,4.89,2.77,3.18,2,4.74,3,3.09,2.12,4.59,3.23,3,2.27,4.43,3.46,2.86,2.41,4.25,3.67,2.74,2.54,4.07,3.87,2.61,2.68,3.87,4.07,2.48,2.8,3.67,4.25,2.34,2.92,3.45,4.42,2.19,3,3.23,4.59,2,3.14,3,4.75,1.88,3.23,2.77,4.88,1.72,3.33,2.52,5,1.56,3.4,2.28,5.13,1.39,3.48,2,5.24,1.21,3.54,1.76,5.33,1,3.6,1.5,5.41.86,3.65,1.23,5.48.68,3.68,1,5.54.5,3.7.68,5.57.32,3.73.42,5.6.13,3.74.13,5.61S589.08,318.7,589,320.57Z" transform="translate(-312.74 3.14)"/><polygon class="cls-3" points="165.88 48.84 148.36 48.84 89.92 48.84 89.92 122.18 124 122.18 124 112.36 113.59 112.36 113.59 112.35 100.24 112.35 100.24 58.7 236.33 58.7 236.33 112.35 222.96 112.35 222.96 112.36 212.48 112.36 212.48 122.18 215.02 122.18 246.81 122.18 246.81 48.84 188.17 48.84 170.65 48.84 165.88 48.84"/><path class="cls-4" d="M426.33,98.18h0V88H535.7V98.18h0v11h13.36V55.56H413v53.66h13.36Zm-3-12.47V67.5h18.21V85.71Zm32.1,0V67.5h18.21V85.71Zm32.32,0V67.5H506V85.71Zm32.3,0V67.5H538.3V85.71Z" transform="translate(-312.74 3.14)"/><rect class="cls-5" x="207.35" y="70.64" width="18.21" height="18.21"/><rect class="cls-5" x="175.05" y="70.64" width="18.21" height="18.21"/><rect class="cls-5" x="142.73" y="70.64" width="18.21" height="18.21"/><rect class="cls-5" x="110.63" y="70.64" width="18.21" height="18.21"/><polygon class="cls-1" points="212.48 112.36 124 112.36 124 122.18 124 128.59 212.48 128.59 212.48 125 212.48 122.18 212.48 112.36"/><polygon class="cls-3" points="212.48 112.36 222.96 112.36 222.96 112.35 222.96 101.32 113.59 101.32 113.59 112.35 113.59 112.36 124 112.36 212.48 112.36"/><polygon class="cls-4" points="222.96 91.17 113.57 91.17 113.57 101.32 113.59 101.32 222.96 101.32 222.96 101.32 222.96 91.17"/><path class="cls-6" d="M384.5,446.12l5.59,8.29a2,2,0,0,0,2.79.53,2,2,0,0,0,.6-2.72l-9.24-13.73a2,2,0,0,0-3.33,0l-9.24,13.73a2.22,2.22,0,0,0-.33,1.13,2.08,2.08,0,0,0,.86,1.66,2,2,0,0,0,2.79-.53l5.59-8.29v27h3.92Z" transform="translate(-312.74 3.14)"/><path class="cls-6" d="M380.58,505.94l-5.72-8.42a2,2,0,0,0-2.79-.53,1.91,1.91,0,0,0-.86,1.66,2.22,2.22,0,0,0,.33,1.13l9.24,13.72a2.07,2.07,0,0,0,1.66.87,2,2,0,0,0,1.66-1l9.24-13.66a2,2,0,0,0-.53-2.78,2,2,0,0,0-2.79.53l-5.52,8.15V477.15h-3.92Z" transform="translate(-312.74 3.14)"/><path class="cls-6" d="M421,473.62l-13.66-9.24a2,2,0,0,0-2.79.53,2,2,0,0,0,.53,2.8l8.16,5.51H353.71l8.29-5.58a2,2,0,0,0,.53-2.79,2,2,0,0,0-2.72-.6l-13.73,9.24a2.08,2.08,0,0,0-.86,1.66,2.06,2.06,0,0,0,.86,1.66l13.73,9.24a2.23,2.23,0,0,0,1.13.34,2.06,2.06,0,0,0,1.65-.87,2,2,0,0,0-.53-2.79l-8.29-5.58h59.76l-8.42,5.71a2,2,0,0,0-.53,2.8,1.92,1.92,0,0,0,1.66.86,2.22,2.22,0,0,0,1.12-.33L421.09,477a2.08,2.08,0,0,0,.86-1.66A2,2,0,0,0,421,473.62Z" transform="translate(-312.74 3.14)"/><rect class="cls-6" x="236.33" y="455.86" width="12.18" height="22.44"/><rect class="cls-6" x="276.15" y="455.86" width="12.18" height="22.44"/><rect class="cls-2" x="248.52" y="455.86" width="27.63" height="22.44"/><rect class="cls-6" x="276.15" y="489.68" width="12.18" height="22.44"/><rect class="cls-6" x="236.33" y="489.68" width="12.18" height="22.44"/><rect class="cls-2" x="248.52" y="489.68" width="27.63" height="22.44"/><path class="cls-7" d="M588.57,303.75c-.18-1.87-.41-3.72-.68-5.57s-.6-3.7-1-5.54-.78-3.66-1.23-5.48-1-3.62-1.5-5.41-1.13-3.57-1.76-5.33-1.31-3.51-2-5.24-1.48-3.44-2.28-5.13-1.64-3.37-2.52-5-1.81-3.28-2.77-4.88-2-3.19-3-4.75-2.11-3.08-3.23-4.59-2.27-3-3.45-4.42-2.41-2.87-3.67-4.25-2.55-2.75-3.87-4.07-2.68-2.62-4.07-3.87-2.8-2.48-4.25-3.67-2.92-2.34-4.43-3.46-3-2.19-4.59-3.23-3.14-2-4.74-3-3.24-1.89-4.89-2.77-3.32-1.72-5-2.52-3.41-1.56-5.14-2.28-3.47-1.39-5.24-2-3.54-1.22-5.33-1.76-3.59-1-5.41-1.5-3.64-.86-5.48-1.23-3.68-.69-5.53-1-3.71-.5-5.57-.69-3.73-.32-5.6-.41-3.74-.14-5.62-.14-3.74.05-5.61.14-3.74.23-5.6.41-3.72.42-5.57.69-3.7.59-5.53,1-3.67.78-5.48,1.23-3.62.95-5.41,1.5-3.57,1.13-5.34,1.76-3.5,1.3-5.23,2-3.45,1.47-5.14,2.28-3.36,1.64-5,2.52-3.28,1.81-4.89,2.77-3.19,2-4.74,3-3.09,2.12-4.59,3.23-3,2.27-4.43,3.46-2.86,2.41-4.25,3.67-2.74,2.54-4.07,3.87-2.61,2.68-3.87,4.07-2.48,2.8-3.67,4.25-2.34,2.92-3.45,4.42-2.2,3-3.24,4.59-2,3.14-3,4.75-1.88,3.23-2.77,4.88-1.72,3.33-2.52,5-1.56,3.4-2.28,5.13-1.39,3.48-2,5.24-1.22,3.54-1.76,5.33-1,3.6-1.5,5.41-.86,3.65-1.23,5.48-.68,3.68-1,5.54-.5,3.7-.68,5.57-.33,3.73-.42,5.6-.14,3.74-.14,5.61.05,3.74.14,5.61.23,3.74.42,5.6.41,3.73.68,5.58.6,3.69,1,5.53.78,3.66,1.23,5.48,1,3.62,1.5,5.41,1.13,3.57,1.76,5.33,1.31,3.51,2,5.24,1.48,3.44,2.28,5.13,1.64,3.37,2.52,5,1.81,3.28,2.77,4.88,2,3.19,3,4.75,2.12,3.09,3.24,4.59,2.26,3,3.45,4.43,2.41,2.86,3.67,4.25,2.55,2.74,3.87,4.06,2.68,2.62,4.07,3.88,2.8,2.48,4.25,3.66,2.92,2.34,4.43,3.46,3,2.19,4.59,3.23,3.14,2,4.74,3,3.24,1.89,4.89,2.77,3.32,1.73,5,2.53,3.41,1.56,5.14,2.27,3.47,1.39,5.23,2,3.54,1.22,5.34,1.76,3.59,1.05,5.41,1.5,3.64.87,5.48,1.23,3.68.69,5.53,1,3.71.51,5.57.69,3.73.32,5.6.41,3.74.14,5.61.14,3.75-.05,5.62-.14,3.73-.23,5.6-.41,3.72-.41,5.57-.69,3.7-.59,5.53-1,3.67-.77,5.48-1.23,3.62-.95,5.41-1.5,3.57-1.13,5.33-1.76,3.51-1.3,5.24-2,3.44-1.47,5.14-2.27,3.36-1.64,5-2.53,3.28-1.8,4.89-2.77,3.18-2,4.74-3,3.09-2.12,4.59-3.23,3-2.27,4.43-3.46,2.86-2.41,4.25-3.66,2.74-2.55,4.07-3.88,2.61-2.68,3.87-4.06,2.48-2.81,3.67-4.25,2.34-2.93,3.45-4.43,2.19-3,3.23-4.59,2-3.14,3-4.75,1.88-3.23,2.77-4.88,1.72-3.32,2.52-5,1.56-3.4,2.28-5.13,1.39-3.48,2-5.24,1.21-3.54,1.76-5.33,1-3.6,1.5-5.41.86-3.64,1.23-5.48.68-3.68,1-5.53.5-3.71.68-5.58.32-3.73.42-5.6.13-3.74.13-5.61,0-3.74-.13-5.61S588.76,305.61,588.57,303.75Z" transform="translate(-312.74 3.14)"/><text class="cls-8" transform="translate(127.72 150.04) rotate(-90)">X</text><text class="cls-8" transform="translate(159.08 149.51) rotate(-90)">Y</text><text class="cls-9" transform="translate(193.25 165.07) rotate(-90)">V</text><text class="cls-9" transform="translate(193.25 151.9) rotate(-90)">C</text><text class="cls-9" transform="translate(193.25 139.4) rotate(-90)">C</text><text class="cls-9" transform="translate(224.79 166.73) rotate(-90)">G</text><text class="cls-9" transform="translate(224.79 153.3) rotate(-90)">N</text><text class="cls-9" transform="translate(224.79 139.1) rotate(-90)">D</text></g></g></svg>