<svg xmlns="http://www.w3.org/2000/svg" viewBox="0 0 784.88 392.46" width="166" height="88"><defs><style>.cls-1{fill:#004684;}.cls-2{fill:#f6e089;}.cls-3{fill:#2e2d2d;}.cls-4{fill:#737373;}.cls-5{fill:#f1eddd;}.cls-6{fill:#e8e5d7;}.cls-7{fill:#1a1a1a;}.cls-8{fill:#545454;}.cls-9{fill:#d3d2d2;}.cls-10{fill:#2a2a2a;}.cls-11{fill:#292a28;}.cls-12{fill:#2f2f2f;}.cls-13{fill:#242524;}.cls-14{fill:#2a2d26;}.cls-15{fill:#242424;}.cls-16{fill:#252623;}.cls-17{fill:#71952b;}.cls-18{fill:#86ac34;}.cls-19{fill:#85ab33;}.cls-20{fill:#84a932;}.cls-21{fill:#7d9e31;}.cls-22{fill:#7c9e31;}.cls-23{fill:#81a632;}.cls-24{font-size:16px;}.cls-24,.cls-25{fill:#fff;font-family:Montserrat-Bold, Montserrat;font-weight:700;}.cls-25{font-size:18px;}</style></defs><title>Asset 1</title><g id="Layer_2" data-name="Layer 2"><g id="Layer_1-2" data-name="Layer 1"><path class="cls-1" d="M0,0V392.46H784.88V0ZM25.12,14.16a16,16,0,1,1-16,16A16,16,0,0,1,25.12,14.16Zm0,366.87a16,16,0,1,1,16-16A16,16,0,0,1,25.12,381Zm241.31-27.94h-29.9v17.45h29.89v4H236.53v16.17h-57.6V388.2h-2.54V374.52h-7.1v-4h7.1v-2.86h2.54v-3h-.51V353h-9.13v-4h9.13V330.4h-9.13v-4H170v-.14h8.47v-9.08h.51v-5h-2.54v-3.8H170v-4h6.44V291.66h2.54v-3.57h57.6v16.29h29.89v4H236.53v17.87h29.89v4H236.53V349.1h29.9ZM25.69,279.84v-226h696V85.17h35.6v8.74a10,10,0,0,1,0,20.07v3.74a10,10,0,0,1,0,20.07v4.53a10,10,0,0,1,0,20.07v5.82a10,10,0,0,1,0,20.07v4.5a10,10,0,0,1,0,20.07v5.82a10,10,0,0,1,0,19.81v10.1h-35.6v31.26ZM757.21,381a16,16,0,1,1,16-16A16,16,0,0,1,757.21,381Zm0-339.28a16,16,0,1,1,16-16A16,16,0,0,1,757.21,41.75Z"/><path class="cls-2" d="M25.12,46.24a16,16,0,1,0-16-16A16,16,0,0,0,25.12,46.24Zm0-27.59A11.55,11.55,0,1,1,13.57,30.2,11.55,11.55,0,0,1,25.12,18.65Z"/><path class="cls-2" d="M25.12,349a16,16,0,1,0,16,16A16,16,0,0,0,25.12,349Zm0,27.59A11.55,11.55,0,1,1,36.67,365,11.55,11.55,0,0,1,25.12,376.54Z"/><path class="cls-2" d="M757.21,9.67a16,16,0,1,0,16,16A16,16,0,0,0,757.21,9.67Zm0,27.59a11.55,11.55,0,1,1,11.55-11.55A11.55,11.55,0,0,1,757.21,37.26Z"/><path class="cls-2" d="M757.21,349a16,16,0,1,0,16,16A16,16,0,0,0,757.21,349Zm0,27.59A11.55,11.55,0,1,1,768.76,365,11.55,11.55,0,0,1,757.21,376.54Z"/><path class="cls-3" d="M53.25,234.87a2.75,2.75,0,0,0,.33-1.09A8.53,8.53,0,0,1,53.25,234.87Z"/><path class="cls-3" d="M53.25,235.44a2.54,2.54,0,0,1,.34.49A.82.82,0,0,0,53.25,235.44Z"/><path class="cls-3" d="M721.67,248.58V85.17h0V53.82h-696v226h696V248.58Zm-26.44-15.41a18.69,18.69,0,0,1-5.18,13,7.15,7.15,0,0,1-4.06,2.54c-1.72,1.71-4,1.58-6.16,1.9-2,.3-4,.65-5.92,1H70.49a9.58,9.58,0,0,0-2.67-.94c-5.58-.3-9.37-3.27-12.16-7.86a16.74,16.74,0,0,0-1.25-1.56h0c-.2-1.14-.39-2.29-.59-3.44a1.06,1.06,0,0,1-.23-.95c-.12-.45-.23-.91-.34-1.36v-.57q0-67.58,0-135.15c0-2-.33-4.06,1.14-5.78,1.36-5.64,5.08-9.06,10.43-10.77A23.54,23.54,0,0,1,72,82.44q302.24,0,604.47-.12a18.72,18.72,0,0,1,18.9,18.87C695,145.18,695.13,189.17,695.23,233.17Zm.2,34.1a.77.77,0,0,1,0,.15v1.08a2.48,2.48,0,0,1-2.47,2.47h-641a2.48,2.48,0,0,1-2.47-2.47v-8.18a2.48,2.48,0,0,1,2.47-2.48h641a2.48,2.48,0,0,1,2.47,2.48v1a.68.68,0,0,1,0,.15Zm3-195.62s0,.1,0,.15v1.08a2.48,2.48,0,0,1-2.47,2.47h-641a2.48,2.48,0,0,1-2.47-2.47V64.69a2.48,2.48,0,0,1,2.47-2.47h641a2.48,2.48,0,0,1,2.47,2.47v1s0,.1,0,.15Z"/><rect class="cls-4" x="169.95" y="304.38" width="6.43" height="4"/><rect class="cls-4" x="236.53" y="304.38" width="29.9" height="4"/><rect class="cls-4" x="236.53" y="349.1" width="29.9" height="3.99"/><rect class="cls-4" x="236.53" y="370.54" width="29.89" height="3.99"/><rect class="cls-4" x="169.29" y="370.54" width="7.09" height="3.99"/><rect class="cls-4" x="169.95" y="326.25" width="8.47" height="0.14"/><rect class="cls-4" x="236.53" y="326.25" width="29.9" height="4"/><polygon class="cls-5" points="236.53 330.25 236.53 326.25 236.53 308.38 236.53 304.38 236.53 288.09 178.93 288.09 178.93 291.66 233.88 291.66 233.88 312.18 178.93 312.18 178.93 317.17 186.81 317.17 186.81 313.5 233.87 313.5 233.87 364.92 186.81 364.92 186.81 364.66 178.93 364.66 178.93 367.68 233.88 367.68 233.88 388.2 178.93 388.2 178.93 390.69 236.53 390.69 236.53 374.52 236.53 370.54 236.53 353.09 236.53 349.1 236.53 330.25"/><polygon class="cls-1" points="186.81 326.39 186.81 317.17 178.93 317.17 178.42 317.17 178.42 326.25 178.42 326.39 186.81 326.39"/><polygon class="cls-1" points="186.81 353.02 185.95 353.02 178.42 353.02 178.42 364.66 178.93 364.66 186.81 364.66 186.81 353.02"/><polygon class="cls-1" points="186.81 349.01 186.81 330.4 185.95 330.4 178.42 330.4 178.42 349.01 186.81 349.01"/><polygon class="cls-6" points="233.88 291.66 178.93 291.66 176.39 291.66 176.39 304.38 176.39 308.38 176.39 312.18 178.93 312.18 233.88 312.18 233.88 291.66"/><polygon class="cls-6" points="233.88 367.68 178.93 367.68 176.39 367.68 176.39 370.54 176.39 374.52 176.39 388.2 178.93 388.2 233.88 388.2 233.88 367.68"/><polygon class="cls-4" points="185.95 330.4 186.81 330.4 186.81 326.39 178.42 326.39 169.95 326.39 169.29 326.39 169.29 330.4 178.42 330.4 185.95 330.4"/><polygon class="cls-4" points="185.95 353.02 186.81 353.02 186.81 349.01 178.42 349.01 169.29 349.01 169.29 353.02 178.42 353.02 185.95 353.02"/><path class="cls-5" d="M186.82,326.39v38.53h47.05V313.5H186.82v12.89Zm28.6-7.93v42H194.9v-42Z"/><rect class="cls-6" x="194.9" y="318.46" width="20.52" height="42"/><path class="cls-7" d="M696.63,73.41H54.17a1.76,1.76,0,0,1-1.75-1.76V65.84a1.75,1.75,0,0,1,1.75-1.75H696.63a1.75,1.75,0,0,1,1.74,1.6v-1a2.48,2.48,0,0,0-2.47-2.47h-641a2.48,2.48,0,0,0-2.47,2.47v8.19a2.48,2.48,0,0,0,2.47,2.47h641a2.48,2.48,0,0,0,2.47-2.47V71.8A1.75,1.75,0,0,1,696.63,73.41Z"/><path class="cls-8" d="M696.63,64.09H54.17a1.75,1.75,0,0,0-1.75,1.75v5.81a1.76,1.76,0,0,0,1.75,1.76H696.63a1.75,1.75,0,0,0,1.74-1.61s0-.1,0-.15V65.84s0-.1,0-.15A1.75,1.75,0,0,0,696.63,64.09Z"/><path class="cls-2" d="M764.44,103.94a7.22,7.22,0,0,1-7.16,7.22V114a10,10,0,0,0,0-20.07v2.8A7.23,7.23,0,0,1,764.44,103.94Z"/><path class="cls-2" d="M764.44,127.75a7.22,7.22,0,0,1-7.16,7.22v2.82a10,10,0,0,0,0-20.07v2.8A7.23,7.23,0,0,1,764.44,127.75Z"/><path class="cls-2" d="M767.25,152.35a10,10,0,0,0-10-10v20.07A10,10,0,0,0,767.25,152.35Z"/><path class="cls-2" d="M767.25,178.24a10,10,0,0,0-10-10v20.07A10,10,0,0,0,767.25,178.24Z"/><path class="cls-2" d="M764.44,202.81a7.22,7.22,0,0,1-7.16,7.22v2.82a10,10,0,0,0,0-20.07v2.8A7.23,7.23,0,0,1,764.44,202.81Z"/><path class="cls-2" d="M762.93,228.57a7.23,7.23,0,0,1-5.65,7.05v2.86a10,10,0,0,0,0-19.81v2.85A7.23,7.23,0,0,1,762.93,228.57Z"/><polygon class="cls-9" points="721.67 248.58 721.68 248.58 757.28 248.58 757.28 238.48 757.28 235.62 757.28 221.52 757.28 218.67 757.28 212.85 757.28 210.03 757.28 195.58 757.28 192.78 757.28 188.28 757.28 168.21 757.28 162.39 757.28 142.32 757.28 137.79 757.28 134.97 757.28 120.52 757.28 117.72 757.28 113.98 757.28 111.17 757.28 96.71 757.28 93.91 757.28 85.17 721.68 85.17 721.67 85.17 721.67 248.58"/><path class="cls-7" d="M693.68,269H51.22a1.76,1.76,0,0,1-1.76-1.76v-5.8a1.76,1.76,0,0,1,1.76-1.76H693.68a1.74,1.74,0,0,1,1.73,1.61v-1a2.48,2.48,0,0,0-2.47-2.48h-641a2.48,2.48,0,0,0-2.47,2.48v8.18A2.48,2.48,0,0,0,51.93,271h641a2.48,2.48,0,0,0,2.47-2.47v-1.08A1.74,1.74,0,0,1,693.68,269Z"/><path class="cls-8" d="M693.68,259.71H51.22a1.76,1.76,0,0,0-1.76,1.76v5.8A1.76,1.76,0,0,0,51.22,269H693.68a1.74,1.74,0,0,0,1.73-1.61.77.77,0,0,0,0-.15v-5.8a.68.68,0,0,0,0-.15A1.74,1.74,0,0,0,693.68,259.71Z"/><path class="cls-10" d="M684.84,248.1h0a5.48,5.48,0,0,1-4.14,1.68c-1.63,0-3.26,0-4.88,0q-297.08,0-594.13,0c-3.35,0-6.7.22-10,.24-2,0-4.06.15-5.71-1.37-2.1-.89-4.35-1.55-5.84-3.47h0a3.26,3.26,0,0,1-2.26-2.3c-.19-.19-.37-.39-.55-.58h0l-1.16-1.16H54.41a16.74,16.74,0,0,1,1.25,1.56c2.79,4.59,6.58,7.56,12.16,7.86a9.58,9.58,0,0,1,2.67.94H673.91c2-.32,3.94-.67,5.92-1,2.15-.32,4.44-.19,6.16-1.9l-1.15-.58Z"/><path class="cls-11" d="M676.42,82.32q-302.23.27-604.47.12a23.54,23.54,0,0,0-7.12.73c-5.35,1.71-9.07,5.13-10.43,10.77a64.64,64.64,0,0,0-.59,10.31q0,62.48,0,124.94a21.3,21.3,0,0,1-.24,4.59,2.75,2.75,0,0,1-.33,1.09v.57a.82.82,0,0,1,.34.49,2.89,2.89,0,0,1,.23,1.82c-.08-.32-.16-.63-.23-.95a1.06,1.06,0,0,0,.23.95c.2,1.15.39,2.3.59,3.44h1.71V240c-.2-1.15-.4-2.29-.59-3.44a2.28,2.28,0,0,1-.31-1,17.32,17.32,0,0,1-.25-3.81V101.66a17.6,17.6,0,0,1,.25-3.84,2.27,2.27,0,0,1,.3-1c.18-2.65.71-5.15,2.88-7h0a5.13,5.13,0,0,1,4-3.37l4-1.77h0c0-1.64,1.36-1,2.13-1.1a34,34,0,0,1,9.72-.14,34.13,34.13,0,0,0,5.16.1H681.32l0,.58H87.43c-2.19,0-4.41-.24-6.56.49,2.4,0,4.79.06,7.18.06q293.91,0,587.81,0c5.53,0,10.45.83,14.1,5.47a40.45,40.45,0,0,1,2.91,4.94h0c.89-.27,1,.42,1,1,.1,1,.13,2.1.13,3.15q0,66.72,0,133.44v2.58l-.57,0V102.53a15.85,15.85,0,0,0-.54-5.69h0c0,45-.12,89.92.07,134.87,0,7-2,12.33-8.16,15.84,0,.18,0,.36,0,.55h0l1.15.58a7.15,7.15,0,0,0,4.06-2.54,18.69,18.69,0,0,0,5.18-13c-.1-44-.24-88,.09-132A18.72,18.72,0,0,0,676.42,82.32Z"/><path class="cls-10" d="M53.82,229.19q0-62.48,0-124.94a64.64,64.64,0,0,1,.59-10.31c-1.47,1.72-1.14,3.8-1.14,5.78q0,67.58,0,135.15a8.53,8.53,0,0,0,.33-1.09A21.3,21.3,0,0,0,53.82,229.19Z"/><path class="cls-10" d="M53.59,235.93a2.54,2.54,0,0,0-.34-.49c.11.45.22.91.34,1.36s.15.63.23.95A2.89,2.89,0,0,0,53.59,235.93Z"/><path class="cls-12" d="M676.5,249a2.8,2.8,0,0,0,.87-.26A7.18,7.18,0,0,1,676.5,249Z"/><path class="cls-12" d="M55.23,97.82a7.33,7.33,0,0,1,.3-1A2.27,2.27,0,0,0,55.23,97.82Z"/><path class="cls-12" d="M57.28,242.36h0c.18.19.36.39.55.58a7.63,7.63,0,0,1,2.26,2.3h0c1.49,1.92,3.74,2.58,5.84,3.47H80.26a3,3,0,0,0,.87.27,8,8,0,0,1-.87-.27l4.59,0H672.77l4.6,0a20.35,20.35,0,0,0,7.45-1.15h0C691,244,693,238.75,693,231.71c-.19-45-.08-89.91-.07-134.87h0c0-.58,0-1.16,0-1.74h0A40.45,40.45,0,0,0,690,90.16c-3.65-4.64-8.57-5.47-14.1-5.47q-293.91.07-587.81,0c-2.39,0-4.78,0-7.18-.06h-.65l-13.74,0h0l-4,1.77-4,3.37h0c-2.17,1.82-2.7,4.32-2.88,7q0,69.89,0,139.75a6.18,6.18,0,0,1-.31-1,2.28,2.28,0,0,0,.31,1c.19,1.15.39,2.29.59,3.44A4.47,4.47,0,0,1,57.28,242.36ZM374.22,86.46H677c3,0,5.84.12,8.63,1.59,4.11,2.16,5.83,5.63,6.37,9.93a25.66,25.66,0,0,1,.09,3.16V232c0,.57,0,1.15,0,1.72-.21,8.57-5.7,14-14.22,14-3.26,0-6.51,0-9.77,0H79.73a57.1,57.1,0,0,1-12.58-.94c-6.26-1.39-10.09-5.85-10.37-12.31,0-.86,0-1.73,0-2.59q0-65.7,0-131.41c0-8.82,5-13.93,13.78-13.93Z"/><path class="cls-13" d="M677.37,248.7a2.8,2.8,0,0,1-.87.26,16.37,16.37,0,0,1-4,.28H85.08a16.81,16.81,0,0,1-4-.27,3,3,0,0,1-.87-.27H65.93c1.65,1.52,3.72,1.37,5.71,1.37,3.35,0,6.7-.24,10-.24q297.06,0,594.13,0c1.62,0,3.25,0,4.88,0a5.48,5.48,0,0,0,4.14-1.68h0c0-.19,0-.37,0-.55h0A20.35,20.35,0,0,1,677.37,248.7Z"/><path class="cls-14" d="M57.83,242.94a3.26,3.26,0,0,0,2.26,2.3h0A7.63,7.63,0,0,0,57.83,242.94Z"/><path class="cls-14" d="M57.28,242.36A4.47,4.47,0,0,0,56.13,240v1.17l1.16,1.16Z"/><path class="cls-15" d="M66.48,84.73a37.55,37.55,0,0,1,13.74,0h.65c2.15-.73,4.37-.49,6.56-.49H681.35l0-.58H83.46a34.13,34.13,0,0,1-5.16-.1,34,34,0,0,0-9.72.14c-.77.11-2.09-.54-2.13,1.1h0Z"/><path class="cls-16" d="M692.91,96.84h0a15.85,15.85,0,0,1,.54,5.69V235.27l.57,0v-2.58q0-66.72,0-133.44c0-1,0-2.1-.13-3.15,0-.54-.13-1.23-1-1h0C692.88,95.68,692.9,96.26,692.91,96.84Z"/><path class="cls-14" d="M55.53,96.84a7.33,7.33,0,0,0-.3,1,17.6,17.6,0,0,0-.25,3.84V231.77a17.32,17.32,0,0,0,.25,3.81,6.18,6.18,0,0,0,.31,1Q55.53,166.72,55.53,96.84Z"/><path class="cls-14" d="M62.44,86.5a5.13,5.13,0,0,0-4,3.37h0Z"/><path class="cls-17" d="M56.76,100.39q0,65.7,0,131.41c0,.86,0,1.73,0,2.59.28,6.46,4.11,10.92,10.37,12.31a57.1,57.1,0,0,0,12.58.94H668.12c3.26,0,6.51,0,9.77,0,8.52,0,14-5.4,14.22-14,0-.57,0-1.15,0-1.72V101.15A25.66,25.66,0,0,0,692,98c-.54-4.3-2.26-7.77-6.37-9.93-2.79-1.47-5.66-1.59-8.63-1.59H70.54C61.79,86.46,56.76,91.57,56.76,100.39ZM666.2,89.9c5.07,0,10.15,0,15.22,0,4.87,0,7.4,2.17,7.92,7.07a25,25,0,0,1,.1,2.87q0,66.86,0,133.72c0,4-.7,7.61-4.44,9.95a10.75,10.75,0,0,1-5.69,1.72c-2.78,0-5.56,0-8.33,0H74.84c-8.1,0-11.22-3-11.22-11.2,0-43.32.05-86.65-.1-130,0-7.31,5.75-14.3,15.12-14.3Q372.42,90,666.2,89.9Z"/><path class="cls-14" d="M85.08,249.24H672.54a16.37,16.37,0,0,0,4-.28,7.18,7.18,0,0,0,.87-.26l-4.6,0H84.85l-4.59,0a8,8,0,0,0,.87.27A16.81,16.81,0,0,0,85.08,249.24Z"/><path class="cls-11" d="M66.48,84.73l13.74,0h0A37.55,37.55,0,0,0,66.48,84.73Z"/><path class="cls-18" d="M63.52,104.06c.15,43.33,0,86.66.1,130,0,8.23,3.12,11.2,11.22,11.2H671c2.77,0,5.55,0,8.33,0a10.75,10.75,0,0,0,5.69-1.72c3.74-2.34,4.44-5.9,4.44-9.95q-.08-66.86,0-133.72a25,25,0,0,0-.1-2.87c-.52-4.9-3.05-7.11-7.92-7.07-5.07,0-10.15,0-15.22,0q-293.79,0-587.56-.14C69.27,89.76,63.49,96.75,63.52,104.06Zm22.63,57.15a.92.92,0,0,1,0-.29c-.08-15.32-.38-30.65.19-46,.06-1.8.36-3.67,2-4.89-.16-2-.15-2,1.26-1.33a2,2,0,0,0,1.36.23c7.32-1.34,14.73-.82,22-.5,13,.56,26.05-.69,39.08-.21a5.9,5.9,0,0,1,3.47.81c1.18.77,3,1.82,4.1-.47a.81.81,0,0,1,.74-.3c5,1.67,9.93-.5,14.95-.07s10.14,0,15.22,0c1.75,0,3.21,1.16,5,.92,8.08-1,16.2-.73,24.32-.77,2.88,0,5.74-.08,8.46,1.15a3.94,3.94,0,0,0,3.1.17c4.61-2,9.44-1.31,14.19-1.27,6.59.06,13.29.69,19.75.34,8.46-.45,16.89.17,25.31-.38,4.87-.31,9.68,1.17,14.55.54,8-1,16.06-.3,24.09-.56a24.13,24.13,0,0,0,3.69-.44c1-.18,2-.38,2.67.48,1.61,2.12,3.32,1.27,5.05.3a4,4,0,0,1,2.67-.81c6.48,1,13,.61,19.5.37,4.78-.18,9.32,1.46,14.2.71,6.2-1,12.56-.69,18.87-.6,2.49,0,4.94.56,7.38.73a74.22,74.22,0,0,0,12.56,0c4.19-.42,8.35-.69,12.55-.75,3.35,0,6.7,0,10.06,0,1.14,0,2.47-.17,3.4.34,4.38,2.39,8.62.4,12.95,0a82.47,82.47,0,0,1,18.91,0c2.81.36,5.38-.64,8.16-.17,8.11,1.35,16.23-.58,24.38-.32,4.39.14,8.61,1.33,13,1.27h69c.49-1.39,1.41-1,2.33-.56a6.77,6.77,0,0,0,3.95.36,72.24,72.24,0,0,1,24.5-.06,47.51,47.51,0,0,0,14.27-.35,70.67,70.67,0,0,1,21.14.08c.57.08,1.12.29,1.68.36,5.19.64,5.19.63,4.67,6a8.48,8.48,0,0,0-.06.86c.18,15.71-.81,31.44.58,47.12.35,3.91-.73,7.59-.7,11.44.14,14.95.06,29.9.05,44.85,0,4.9-.23,5-5.05,4.56-1.71-.17-3.44-.19-5.16-.21-13.47-.22-26.94.25-40.42.08-25.53-.31-51.07-.2-76.61-.05-16.56.1-33.12-.53-49.68.37-1.37.07-2.36-.67-3.53-1h0a11.76,11.76,0,0,1-4.52.58c-5.73,0-11.47-.11-17.19,0-5.3.14-10.6.47-15.89.89-2.83.22-5.39-1.05-8.21-1-6.2.17-12.42.05-18.63.05a11.71,11.71,0,0,1-4.51-.58h0c-2.52,1.62-5.39,1.61-8.13,1.2a45,45,0,0,0-6.54-.62c-15.89,0-31.79-.28-47.68.1-11.57.27-23.12-.43-34.68-.12-3.82.1-7.65-.08-11.43.74a14.24,14.24,0,0,1-7.09-.33,17.3,17.3,0,0,0-4.84-.37q-27.06.1-54.13.11c-10.88,0-21.79-.13-32.68,0-14.44.13-28.88,0-43.32,0-12.6,0-25.25-.12-37.87-.35-9.82-.18-19.7,0-29.55.2-5.56.09-7.31-1.74-7.33-7.41,0-15,0-30.09-.08-45.14,0-.38-.16-.92,0-1.12C88.85,167.27,87,164.24,86.15,161.21Z"/><path class="cls-19" d="M85.94,171.37c0,15,0,30.09.08,45.14,0,5.67,1.77,7.5,7.33,7.41,9.85-.16,19.73-.38,29.55-.2,12.62.23,25.27.36,37.87.35,14.44,0,28.88.1,43.32,0,10.89-.1,21.8,0,32.68,0q27.06,0,54.13-.11a17.3,17.3,0,0,1,4.84.37,14.24,14.24,0,0,0,7.09.33c3.78-.82,7.61-.64,11.43-.74,11.56-.31,23.11.39,34.68.12,15.89-.38,31.79-.1,47.68-.1a45,45,0,0,1,6.54.62c2.74.41,5.61.42,8.13-1.2h0q0-25.41,0-50.84c0-4.53.4-4.92,4.92-4.92q12,0,24.11,0c3.58,0,4.27.68,4.28,4.18q0,23.7,0,47.4c0,3.48-.71,4.14-4.31,4.16-9.66,0-19.33,0-29,0h0a11.71,11.71,0,0,0,4.51.58c6.21,0,12.43.12,18.63-.05,2.82-.08,5.38,1.19,8.21,1,5.29-.42,10.59-.75,15.89-.89,5.72-.14,11.46,0,17.19,0a11.76,11.76,0,0,0,4.52-.58h0c-9.48,0-19,0-28.43,0-4.22,0-4.87-.67-4.88-4.84q0-23.15,0-46.28c0-4,.61-4.6,4.43-4.62q12.63-.06,25.27,0c3.56,0,3.79.56,3.77,4-.06,16.19,0,32.38,0,48.57,0,1-.1,2.09-.15,3.13,1.17.32,2.16,1.06,3.53,1,16.56-.9,33.12-.27,49.68-.37,25.54-.15,51.08-.26,76.61.05,13.48.17,27-.3,40.42-.08,1.72,0,3.45,0,5.16.21,4.82.48,5,.34,5.05-4.56,0-14.95.09-29.9-.05-44.85,0-3.85,1.05-7.53.7-11.44-1.39-15.68-.4-31.41-.58-47.12a8.48,8.48,0,0,1,.06-.86c.52-5.39.52-5.38-4.67-6-.56-.07-1.11-.28-1.68-.36a70.67,70.67,0,0,0-21.14-.08,47.51,47.51,0,0,1-14.27.35,72.24,72.24,0,0,0-24.5.06,6.77,6.77,0,0,1-3.95-.36c-.92-.39-1.84-.83-2.33.56v.58h0a44,44,0,0,1,1.13,10.22q.06,17.94,0,35.86c0,2-.37,4-.45,6-.11,2.62-1.4,3.79-4,3.71-10.49-.33-21,.75-31.46-.66a4.26,4.26,0,0,0-.86.09h0c-9,.41-17.93.76-26.9.56-.77,0-1.53,0-2.29-.12-4.17-.43-4.69-1-4.69-5.17q0-24.94,0-49.9l.57-1.16c-4.37.06-8.59-1.13-13-1.27-8.15-.26-16.27,1.67-24.38.32-2.78-.47-5.35.53-8.16.17a82.47,82.47,0,0,0-18.91,0c-4.33.45-8.57,2.44-12.95,0-.93-.51-2.26-.32-3.4-.34-3.36,0-6.71-.07-10.06,0-4.2.06-8.36.33-12.55.75a74.22,74.22,0,0,1-12.56,0c-2.44-.17-4.89-.7-7.38-.73-6.31-.09-12.67-.36-18.87.6-4.88.75-9.42-.89-14.2-.71-6.48.24-13,.63-19.5-.37a4,4,0,0,0-2.67.81c-1.73,1-3.44,1.82-5.05-.3-.65-.86-1.68-.66-2.67-.48a24.13,24.13,0,0,1-3.69.44c-8,.26-16.08-.48-24.09.56-4.87.63-9.68-.85-14.55-.54-8.42.55-16.85-.07-25.31.38-6.46.35-13.16-.28-19.75-.34-4.75,0-9.58-.68-14.19,1.27a3.94,3.94,0,0,1-3.1-.17c-2.72-1.23-5.58-1.16-8.46-1.15-8.12,0-16.24-.28-24.32.77-1.82.24-3.28-1-5-.92-5.08.08-10.18.49-15.22,0s-10,1.74-14.95.07a.81.81,0,0,0-.74.3c-1.12,2.29-2.92,1.24-4.1.47a5.9,5.9,0,0,0-3.47-.81c-13-.48-26,.77-39.08.21-7.32-.32-14.73-.84-22,.5a2,2,0,0,1-1.36-.23c-1.41-.72-1.42-.69-1.26,1.33-1.65,1.22-2,3.09-2,4.89-.57,15.32-.27,30.65-.19,46a.92.92,0,0,0,0,.29c.89,3,2.7,6.06-.18,9C85.78,170.45,85.94,171,85.94,171.37Zm539.15-57a4.08,4.08,0,0,1,1.13-3.13,8.13,8.13,0,0,1,4.67-1.15c8.33,0,16.66,0,25,0,3.66,0,4.23.56,4.24,4.14,0,15.62,0,31.24,0,46.85,0,2.84-1,4.31-3.89,4.47a172,172,0,0,1-26.95-.34,2.5,2.5,0,0,1-2.49-2.31c-.15-.95-.4-1.87-.61-2.8h0c-1.6,0-1.11-1.23-1.11-2C625.07,143.53,625.09,128.93,625.09,114.34Zm0,59.24c0-.74-.49-2,1.11-2,.43-3.15,2.23-4.16,5.35-4.09,7.94.19,15.89,0,23.83.08,4,0,4.7.72,4.71,4.72q0,23.13,0,46.27c0,4-.7,4.72-4.68,4.74-8,0-16.08,0-24.12.06-2.65,0-4.46-.76-5.09-3.49h0c-1.6.06-1.11-1.23-1.11-2Q625.05,195.76,625.11,173.58Zm-34.5-59.17c0-3.61.66-4.3,4.13-4.32q12.48-.07,25,0c3.52,0,4.17.69,4.19,4.26.05,7.85,0,15.7,0,23.55s0,15.51,0,23.27c0,3.86-.71,4.61-4.48,4.64q-11.91.08-23.82,0c-4.09,0-5-.91-5-4.87Q590.57,137.68,590.61,114.41Zm0,58.47c0-5.11.3-5.29,5.44-5.3,7.57,0,15.13,0,22.7,0,4.46,0,5.13.75,5.14,5.23,0,7.67,0,15.34,0,23s0,15.33,0,23c0,3.87-.64,4.48-4.57,4.49q-12.06.06-24.13,0c-4,0-4.59-.61-4.59-4.46Q590.57,195.89,590.63,172.88Zm-1.16,49,0,.18-.16-.07Zm-33.94-54.26q13.94,0,27.85,0c4.32,0,4.88.55,4.89,4.74q0,23.13,0,46.25c0,4-.69,4.73-4.67,4.75q-12.35.07-24.69,0a28.29,28.29,0,0,1-4-.53,5.44,5.44,0,0,1-.63-3.31c0-16.35.35-32.7-.21-49A2.68,2.68,0,0,1,555.53,167.58ZM512,223.34q-12.21.06-24.41,0c-3.83,0-4.44-.65-4.45-4.6,0-7.75,0-15.51,0-23.27s0-15.52,0-23.27c0-4,.62-4.59,4.45-4.6q12.19-.06,24.4,0c3.84,0,4.45.64,4.45,4.59q0,23.28,0,46.55C516.43,222.69,515.82,223.32,512,223.34Zm5.39-2.28h-.07V172.93h.07Zm.79-5.1q0-21.71,0-43.41c0-4.43.53-5,5-5q12.35,0,24.7,0a11.28,11.28,0,0,1,4.24.57h0a11.3,11.3,0,0,1,.56,4.24q0,23.1,0,46.2c0,4.35-.43,4.77-4.77,4.78-8.6,0-17.2,0-25.8,0-1.91,0-3.67-.22-4.48-2.31A13.35,13.35,0,0,0,518.17,216Zm-1-98.3.28.07v42.84h-.28Zm-31.42-7.55q13.77,0,27.54,0c2.78,0,3.18,1.91,3.17,4.12,0,9.86,0,19.72,0,29.58,0,5.84-.08,11.68,0,17.52,0,2.77-1.14,4.14-3.82,4.25-8.89.33-17.77.64-26.65-.35-2.61-.29-2.89-2.07-2.89-4.12q0-12.06,0-24.13H483c0-7.94.06-15.89,0-23.83C482.91,111,483.72,110.11,485.73,110.11ZM446.94,115c0-4,.8-4.84,4.64-4.86q12.78-.09,25.57,0c3.08,0,3.69.75,3.54,3.78-.8,16.09-.58,32.18-.12,48.27.07,2.27-.8,3.59-3,3.61q-13.5.07-27,0c-2.89,0-3.62-2-3.61-4.49,0-7.76,0-15.52,0-23.29S446.9,122.62,446.94,115Zm-31.78-4.89q12.78.06,25.54,0c2.83,0,3.94,1.29,3.92,4-.06,7.85,0,15.7,0,23.56h0q0,10.91,0,21.82c0,5.41,0,5.73-5.52,6.08a148,148,0,0,1-24.64-.2c-2.29-.24-3.16-1.37-3.16-3.56q0-24,0-48C411.28,111.12,412.56,110.05,415.16,110.06Zm-4.71,109H410v-49h.5Zm-.5-104.1h.49v47.82l-.49,0Zm-5.81,108.41q-11.77,0-23.54,0c-4.31,0-5.15-.51-5.28-4.9-.25-7.94-.07-15.89-.07-23.84h-.11c0-7.47-.09-15,0-22.42.07-4.29.5-4.59,4.67-4.6q12.34,0,24.69,0c3.79,0,3.95.41,4,4.12.06,15.51-.63,31,.39,46.53C409.17,222.49,408.42,223.33,404.14,223.35Zm-29-109c0-3.78.54-4.29,4.37-4.31q12.78,0,25.56,0c3.19,0,3.89.72,3.74,4-.71,15.8-.35,31.6-.18,47.41,0,2.62-.91,3.89-3.59,4.06-8.51.55-17,.34-25.55.31-3.49,0-4.32-.92-4.34-4.57-.05-7.95,0-15.9,0-23.86C375.09,129.71,375.06,122,375.1,114.38Zm-2.33,104.36c0,3.95-.62,4.58-4.46,4.6q-12.19.06-24.4,0c-3.84,0-4.44-.65-4.45-4.6q0-23.28,0-46.55c0-3.95.61-4.57,4.45-4.59q12.21-.06,24.41,0c3.83,0,4.43.64,4.45,4.6,0,7.85,0,15.7,0,23.56C372.78,203.42,372.8,211.08,372.77,218.74ZM339.46,114.92c0-4.29.55-4.83,4.78-4.85q11.76,0,23.53,0c4.47,0,5,.52,5,4.91,0,7.76,0,15.51,0,23.27s0,15.31,0,23c0,3.95-.62,4.6-4.45,4.6-8.22,0-16.45,0-24.67-.21-4-.12-4.19-.54-4.2-4.45Q339.44,138,339.46,114.92Zm-2.32,80.56c0,7.75,0,15.51,0,23.26,0,3.95-.62,4.58-4.45,4.6q-12.33.06-24.67,0c-3.72,0-4.7-.9-4.71-4.55-.05-14.94,0-29.87,0-44.8,0-.86.21-1.71.27-2.57.17-2.69,1.52-3.87,4.26-3.84q12.76.1,25.54,0c2.67,0,3.81,1.11,3.78,3.78C337.09,179.4,337.13,187.44,337.14,195.48ZM308.9,110.07c8,0,15.9,0,23.85,0,3.71,0,4.36.67,4.37,4.39.05,7.76,0,15.53,0,23.29s0,15.34,0,23c0,4.07-.87,5-4.84,5q-12.21.09-24.42,0c-3.74,0-4.43-.89-4.45-4.68-.05-15.14-.13-30.29-.16-45.43C303.25,110.66,303.85,110.08,308.9,110.07Zm-41.28,4.65c0-4,.61-4.63,4.71-4.65q11.91,0,23.84,0c4.21,0,4.75.58,4.76,4.88,0,7.76,0,15.52,0,23.29s0,15.52,0,23.29c0,3.58-.67,4.26-4.18,4.28q-12.21.08-24.42,0c-3.94,0-4.69-.85-4.7-4.8Q267.59,137.85,267.62,114.72Zm0,57.62c0-4.14.57-4.73,4.59-4.74q12.06-.06,24.12,0c3.95,0,4.59.61,4.6,4.46q0,23.28,0,46.55c0,3.64-.76,4.59-4.29,4.64-8.51.13-17,.05-25.55.08-2.63,0-3.48-1.46-3.48-3.85,0-8,0-16.1,0-24.14h0C267.61,187.67,267.59,180,267.62,172.34ZM232,113.83c0-2.7,1.27-3.78,3.87-3.77q12.78.06,25.56,0c2.83,0,3.93,1.3,3.91,4-.06,7.85,0,15.71,0,23.56s0,15.71,0,23.57c0,3.35-.92,4.45-4.19,4.5-8.71.15-17.41.33-26.12-.12-2.24-.11-3-1.11-3-3.21Q232,138.1,232,113.83Zm3.85,53.73c8.52.08,17,.07,25.57,0,2.83,0,3.94,1.27,3.92,4-.06,8,0,15.91,0,23.87s0,15.71,0,23.57c0,3.59-.68,4.27-4.18,4.29q-12.5.07-25,0c-3.39,0-4.11-.71-4.12-4.05,0-15.9,0-31.81-.05-47.72C231.94,168.79,233,167.54,235.83,167.56Zm-6.74,51.17c0,4-.61,4.59-4.44,4.61q-12.19.06-24.4,0c-3.78,0-4.45-.65-4.45-4.3q-.06-23.56,0-47.12c0-3.61.66-4.29,4.14-4.31q12.5-.08,25,0c3.49,0,4.15.7,4.16,4.29,0,7.85,0,15.71,0,23.56S229.12,211,229.09,218.73ZM195.79,115c0-4.24.68-4.92,4.78-4.94q11.91,0,23.81,0c4.1,0,4.69.6,4.71,4.63,0,7.75,0,15.51,0,23.26s0,15.51,0,23.26c0,3.83-.73,4.61-4.53,4.58-8.13-.06-16.26.47-24.37-.31-4-.38-4.39-.94-4.4-4.83Q195.76,137.83,195.79,115Zm-1.27,104.21-.31-.09V170.74h.31Zm-.4-102h.28V159.4l-.28-.08Zm-34-2.36c0-4.33.42-4.74,4.8-4.75q12.06,0,24.13,0c3.83,0,4.36.53,4.38,4.3,0,7.86,0,15.72,0,23.58s0,15.72,0,23.58c0,3.58-.67,4.26-4.18,4.28-7.75,0-15.51.1-23.27-.05-5.36-.1-5.86-.76-5.86-6.08Q160.13,137.24,160.15,114.82Zm0,57.31c0-3.89.65-4.51,4.54-4.53q12.21-.06,24.42,0c3.69,0,4.34.67,4.34,4.41q0,23.43,0,46.86c0,3.66-.75,4.43-4.38,4.45q-12.34.09-24.7,0c-3.44,0-4.19-.84-4.21-4.34,0-7.85,0-15.71,0-23.57S160.12,179.89,160.15,172.13ZM158.9,222l.19.12-.35.15ZM124,114.51c0-3.76.65-4.41,4.33-4.43q12.5-.06,25,0c3.83,0,4.54.75,4.55,4.58q0,23.14,0,46.28c0,3.56-.82,4.65-4.28,4.72-8.8.18-17.61.11-26.42.11-2.56,0-3.16-1.66-3.16-3.84q0-12.08,0-24.15h0C124,130,123.92,122.27,124,114.51ZM124,172c0-3.72.66-4.36,4.38-4.38q12.65-.06,25.28,0c3.52,0,4.18.69,4.19,4.26q0,23.3,0,46.58c0,3.64-.75,4.62-4.6,4.72-8.71.21-17.42.12-26.13.12-2.58,0-3.14-1.71-3.13-3.87q0-11.92,0-23.86C123.94,187.7,123.91,179.84,124,172ZM88.31,110.06h0c9.47,0,18.94,0,28.41,0,4.23,0,4.9.68,4.9,4.81q0,22.83,0,45.67c0,4.26-.89,5.19-5.27,5.24-7.84.07-15.68.06-23.53,0-3.78,0-4.5-.77-4.5-4.62q0-25.58,0-51.13Zm0,61.86c0-3.79.54-4.31,4.35-4.32,8,0,16.07,0,24.11,0,4.11,0,4.85.82,4.86,4.92q0,22.83,0,45.67c0,4.21-.85,5.09-5,5.12q-12.06.09-24.11,0c-3.48,0-4.13-.71-4.15-4.31,0-7.85,0-15.7,0-23.55S88.28,179.77,88.31,171.92Z"/><path class="cls-20" d="M532.19,110.08c5.25-.09,10.51,0,15.77,0,4.07,0,4.66.6,4.67,4.67q0,25.26,0,50.53a4.26,4.26,0,0,1,.86-.09c10.46,1.41,21,.33,31.46.66,2.6.08,3.89-1.09,4-3.71.08-2,.44-4,.45-6q.06-17.92,0-35.86a44,44,0,0,0-1.13-10.22h0q0,25,0,50c0,4.81-.44,5.24-5.25,5.25-7.94,0-15.88,0-23.82,0-3.53,0-4.21-.69-4.22-4.23q-.06-23.27,0-46.52c0-3.81.66-4.41,4.62-4.42,9.56,0,19.12,0,28.69,0h0v-.58h-69l-.57,1.16C523.19,109.6,527.7,110.16,532.19,110.08Z"/><path class="cls-21" d="M124,137.79q0,12.08,0,24.15c0,2.18.6,3.84,3.16,3.84,8.81,0,17.62.07,26.42-.11,3.46-.07,4.28-1.16,4.28-4.72q0-23.14,0-46.28c0-3.83-.72-4.56-4.55-4.58q-12.48-.07-25,0c-3.68,0-4.31.67-4.33,4.43,0,7.76,0,15.52,0,23.28Z"/><path class="cls-22" d="M124,219.42c0,2.16.55,3.88,3.13,3.87,8.71,0,17.42.09,26.13-.12,3.85-.1,4.6-1.08,4.6-4.72q0-23.28,0-46.58c0-3.57-.67-4.24-4.19-4.26q-12.65-.08-25.28,0c-3.72,0-4.36.66-4.38,4.38,0,7.86,0,15.72,0,23.58S124,211.47,124,219.42Z"/><path class="cls-22" d="M333.37,167.57q-12.76.09-25.54,0c-2.74,0-4.09,1.15-4.26,3.84-.06.86-.26,1.71-.27,2.57,0,14.93-.05,29.86,0,44.8,0,3.65,1,4.53,4.71,4.55q12.33.07,24.67,0c3.83,0,4.43-.65,4.45-4.6,0-7.75,0-15.51,0-23.26,0-8-.05-16.08,0-24.13C337.18,168.68,336,167.55,333.37,167.57Z"/><path class="cls-22" d="M307.87,165.79q12.21.12,24.42,0c4,0,4.82-1,4.84-5,0-7.67,0-15.34,0-23s0-15.53,0-23.29c0-3.72-.66-4.37-4.37-4.39-7.95,0-15.9,0-23.85,0-5,0-5.65.59-5.64,5.61,0,15.14.11,30.29.16,45.43C303.44,164.9,304.13,165.76,307.87,165.79Z"/><path class="cls-22" d="M626.22,219.9c.63,2.73,2.44,3.52,5.09,3.49,8-.1,16.08,0,24.12-.06,4,0,4.67-.73,4.68-4.74q0-23.13,0-46.27c0-4-.69-4.69-4.71-4.72-7.94,0-15.89.11-23.83-.08-3.12-.07-4.92.94-5.35,4.09V219.9Z"/><path class="cls-22" d="M552.63,114.74c0-4.07-.6-4.64-4.67-4.67-5.26,0-10.52-.08-15.77,0-4.49.08-9-.48-13.44.56q0,24.94,0,49.9c0,4.19.52,4.74,4.69,5.17.76.08,1.52.1,2.29.12,9,.2,17.94-.15,26.9-.56h0Q552.64,140,552.63,114.74Z"/><path class="cls-22" d="M626.22,160.09c.21.93.46,1.85.61,2.8a2.5,2.5,0,0,0,2.49,2.31,172,172,0,0,0,26.95.34c2.91-.16,3.9-1.63,3.89-4.47-.08-15.61,0-31.23,0-46.85,0-3.58-.58-4.13-4.24-4.14-8.32,0-16.65,0-25,0a8.13,8.13,0,0,0-4.67,1.15v48.88Z"/><path class="cls-22" d="M446.92,161.24c0,2.53.72,4.47,3.61,4.49q13.5.09,27,0c2.24,0,3.11-1.34,3-3.61-.46-16.09-.68-32.18.12-48.27.15-3-.46-3.77-3.54-3.78q-12.78-.06-25.57,0c-3.84,0-4.62.85-4.64,4.86,0,7.67,0,15.33,0,23S447,153.48,446.92,161.24Z"/><path class="cls-22" d="M480.4,171.66c0-3.49-.21-4-3.77-4q-12.63-.08-25.27,0c-3.82,0-4.42.65-4.43,4.62q0,23.15,0,46.28c0,4.17.66,4.82,4.88,4.84,9.47,0,18.95,0,28.43,0h0c.05-1,.15-2.09.15-3.13C480.39,204,480.34,187.85,480.4,171.66Z"/><path class="cls-22" d="M408.51,171.72c0-3.71-.18-4.11-4-4.12q-12.35-.06-24.69,0c-4.17,0-4.6.31-4.67,4.6-.13,7.47,0,14.95,0,22.42h.11c0,7.95-.18,15.9.07,23.84.13,4.39,1,4.89,5.28,4.9q11.76,0,23.54,0c4.28,0,5-.86,4.76-5.1C407.88,202.75,408.57,187.23,408.51,171.72Z"/><polygon class="cls-22" points="411.29 223.35 411.29 223.35 411.29 223.36 411.29 223.35"/><path class="cls-22" d="M440.28,223.34c3.6,0,4.3-.68,4.31-4.16q0-23.7,0-47.4c0-3.5-.7-4.15-4.28-4.18q-12.06-.06-24.11,0c-4.52,0-4.91.39-4.92,4.92q0,25.43,0,50.84C421,223.35,430.62,223.38,440.28,223.34Z"/><path class="cls-22" d="M236.12,223.33q12.49.07,25,0c3.5,0,4.16-.7,4.18-4.29,0-7.86,0-15.72,0-23.57s0-15.91,0-23.87c0-2.75-1.09-4-3.92-4-8.52,0-17,.06-25.57,0-2.85,0-3.89,1.23-3.88,4,.06,15.91,0,31.82.05,47.72C232,222.62,232.73,223.31,236.12,223.33Z"/><path class="cls-22" d="M229.08,171.9c0-3.59-.67-4.27-4.16-4.29q-12.48-.08-25,0c-3.48,0-4.14.7-4.14,4.31q-.06,23.55,0,47.12c0,3.65.67,4.28,4.45,4.3q12.19.06,24.4,0c3.83,0,4.42-.65,4.44-4.61,0-7.75,0-15.51,0-23.27S229.13,179.75,229.08,171.9Z"/><path class="cls-21" d="M512,167.6q-12.19-.06-24.4,0c-3.83,0-4.43.64-4.45,4.6,0,7.75,0,15.51,0,23.27s0,15.52,0,23.27c0,3.95.62,4.58,4.45,4.6q12.21.06,24.41,0c3.83,0,4.44-.65,4.45-4.6q0-23.28,0-46.55C516.43,168.24,515.82,167.62,512,167.6Z"/><path class="cls-22" d="M375.11,161.23c0,3.65.85,4.56,4.34,4.57,8.52,0,17,.24,25.55-.31,2.68-.17,3.62-1.44,3.59-4.06-.17-15.81-.53-31.61.18-47.41.15-3.23-.55-3.94-3.74-4q-12.78,0-25.56,0c-3.83,0-4.36.53-4.37,4.31,0,7.66,0,15.33,0,23C375.09,145.33,375.06,153.28,375.11,161.23Z"/><path class="cls-22" d="M372.77,172.2c0-4-.62-4.58-4.45-4.6q-12.21-.06-24.41,0c-3.84,0-4.44.64-4.45,4.59q0,23.28,0,46.55c0,3.95.61,4.58,4.45,4.6q12.19.06,24.4,0c3.84,0,4.44-.65,4.46-4.6,0-7.66,0-15.32,0-23C372.78,187.9,372.8,180.05,372.77,172.2Z"/><path class="cls-21" d="M555,173.24v49.55a28.29,28.29,0,0,0,4,.53q12.35.08,24.69,0c4,0,4.66-.73,4.67-4.75q0-23.13,0-46.25c0-4.19-.57-4.73-4.89-4.74q-13.92,0-27.85,0A16.65,16.65,0,0,0,555,173.24Z"/><path class="cls-22" d="M272.32,165.8q12.21.1,24.42,0c3.51,0,4.16-.7,4.18-4.28,0-7.77,0-15.53,0-23.29s0-15.53,0-23.29c0-4.3-.55-4.86-4.76-4.88q-11.93,0-23.84,0c-4.1,0-4.7.6-4.71,4.65q0,23.15,0,46.28C267.63,165,268.38,165.76,272.32,165.8Z"/><path class="cls-22" d="M160.16,219c0,3.5.77,4.31,4.21,4.34q12.34.09,24.7,0c3.63,0,4.37-.79,4.38-4.45q0-23.43,0-46.86c0-3.74-.65-4.39-4.34-4.41q-12.21-.06-24.42,0c-3.89,0-4.52.64-4.54,4.53,0,7.76,0,15.52,0,23.28S160.12,211.13,160.16,219Z"/><path class="cls-22" d="M595.2,223.34q12.06.06,24.13,0c3.93,0,4.55-.62,4.57-4.49,0-7.67,0-15.33,0-23s0-15.34,0-23c0-4.48-.68-5.2-5.14-5.23-7.57-.06-15.13,0-22.7,0-5.14,0-5.42.19-5.44,5.3q-.09,23,0,46C590.61,222.73,591.24,223.33,595.2,223.34Z"/><path class="cls-22" d="M166,165.76c7.76.15,15.52.09,23.27.05,3.51,0,4.16-.7,4.18-4.28,0-7.86,0-15.72,0-23.58s0-15.72,0-23.58c0-3.77-.55-4.28-4.38-4.3q-12.08,0-24.13,0c-4.38,0-4.8.42-4.8,4.75q0,22.43,0,44.86C160.14,165,160.64,165.66,166,165.76Z"/><path class="cls-22" d="M267.63,195.34c0,8,0,16.09,0,24.14,0,2.39.85,3.86,3.48,3.85,8.52,0,17,0,25.55-.08,3.53-.05,4.28-1,4.29-4.64q0-23.28,0-46.55c0-3.85-.65-4.45-4.6-4.46q-12.06-.06-24.12,0c-4,0-4.57.6-4.59,4.74,0,7.67,0,15.33,0,23Z"/><path class="cls-22" d="M595.6,165.81q11.91.09,23.82,0c3.77,0,4.46-.78,4.48-4.64,0-7.76,0-15.51,0-23.27s0-15.7,0-23.55c0-3.57-.67-4.25-4.19-4.26q-12.48-.07-25,0c-3.47,0-4.12.71-4.13,4.32q0,23.26,0,46.53C590.62,164.9,591.51,165.78,595.6,165.81Z"/><path class="cls-22" d="M88.32,219c0,3.6.67,4.29,4.15,4.31q12.06.07,24.11,0c4.19,0,5-.91,5-5.12q0-22.83,0-45.67c0-4.1-.75-4.89-4.86-4.92-8-.07-16.07-.05-24.11,0-3.81,0-4.33.53-4.35,4.32,0,7.85,0,15.7,0,23.55S88.28,211.17,88.32,219Z"/><path class="cls-22" d="M343.65,165.61c8.22.24,16.45.2,24.67.21,3.83,0,4.43-.65,4.45-4.6,0-7.66,0-15.32,0-23s0-15.51,0-23.27c0-4.39-.53-4.9-5-4.91q-11.77,0-23.53,0c-4.23,0-4.78.56-4.78,4.85q0,23.12,0,46.24C339.46,165.07,339.63,165.49,343.65,165.61Z"/><polygon class="cls-22" points="88.31 110.06 88.31 110.06 88.31 110.06 88.31 110.06"/><path class="cls-22" d="M88.32,161.19c0,3.85.72,4.59,4.5,4.62,7.85.05,15.69.06,23.53,0,4.38-.05,5.27-1,5.27-5.24q0-22.83,0-45.67c0-4.13-.67-4.8-4.9-4.81-9.47,0-18.94,0-28.41,0Q88.31,135.62,88.32,161.19Z"/><path class="cls-22" d="M235,165.6c8.71.45,17.41.27,26.12.12,3.27-.05,4.17-1.15,4.19-4.5.05-7.86,0-15.71,0-23.57s0-15.71,0-23.56c0-2.74-1.08-4-3.91-4q-12.78.09-25.56,0c-2.6,0-3.88,1.07-3.87,3.77q0,24.27,0,48.56C232,164.49,232.73,165.49,235,165.6Z"/><path class="cls-22" d="M200.19,165.49c8.11.78,16.24.25,24.37.31,3.8,0,4.51-.75,4.53-4.58,0-7.75,0-15.51,0-23.26s0-15.51,0-23.26c0-4-.61-4.61-4.71-4.63q-11.9,0-23.81,0c-4.1,0-4.77.7-4.78,4.94q0,22.83,0,45.65C195.8,164.55,196.2,165.11,200.19,165.49Z"/><path class="cls-22" d="M483,137h.16q0,12.07,0,24.13c0,2,.28,3.83,2.89,4.12,8.88,1,17.76.68,26.65.35,2.68-.11,3.87-1.48,3.82-4.25-.11-5.84,0-11.68,0-17.52,0-9.86,0-19.72,0-29.58,0-2.21-.39-4.11-3.17-4.12q-13.77,0-27.54,0c-2,0-2.82.93-2.8,3C483,121.1,483,129.05,483,137Z"/><path class="cls-21" d="M414.45,165.34a148,148,0,0,0,24.64.2c5.48-.35,5.52-.67,5.52-6.08q0-10.9,0-21.82h0c0-7.86,0-15.71,0-23.56,0-2.74-1.09-4-3.92-4q-12.76.09-25.54,0c-2.6,0-3.88,1.06-3.87,3.76q0,24,0,48C411.29,164,412.16,165.1,414.45,165.34Z"/><path class="cls-23" d="M522.08,223.37c8.6,0,17.2,0,25.8,0,4.34,0,4.76-.43,4.77-4.78q0-23.1,0-46.2a11.3,11.3,0,0,0-.56-4.24q0,24.84,0,49.69c0,4.55-.4,4.95-4.88,5-7.85,0-15.69,0-23.53,0-3.79,0-4.33-.55-4.34-4.34q0-23,0-45.95c0-3.79.55-4.32,4.35-4.33,9.46,0,18.93,0,28.4,0h0a11.28,11.28,0,0,0-4.24-.57q-12.35,0-24.7,0c-4.43,0-4.95.54-5,5q0,21.7,0,43.41a13.35,13.35,0,0,1-.57,5.1C518.41,223.15,520.17,223.37,522.08,223.37Z"/><path class="cls-18" d="M626.22,219.9h0V171.61c-1.6-.06-1.11,1.23-1.11,2q-.06,22.17,0,44.36C625.11,218.67,624.62,220,626.22,219.9Z"/><path class="cls-18" d="M626.22,160.09h0V111.21a4.08,4.08,0,0,0-1.13,3.13c0,14.59,0,29.19,0,43.78C625.11,158.86,624.62,160.14,626.22,160.09Z"/><path class="cls-20" d="M554.32,219.48a5.44,5.44,0,0,0,.63,3.31V173.24a16.65,16.65,0,0,1,.58-5.66,2.68,2.68,0,0,0-1.42,2.86C554.67,186.78,554.29,203.13,554.32,219.48Z"/><path class="cls-18" d="M410,219h.5v-49H410Z"/><path class="cls-18" d="M410.44,114.94H410v47.79l.49,0Z"/><path class="cls-18" d="M194.21,219.13l.31.09V170.75h-.31Z"/><path class="cls-18" d="M517.31,221.07h.07V172.93h-.07Z"/><path class="cls-18" d="M517.43,117.73l-.28-.07v42.91h.28Z"/><path class="cls-18" d="M194.4,117.18h-.28v42.14l.28.08Z"/><polygon class="cls-18" points="589.47 221.84 589.33 221.95 589.49 222.02 589.47 221.84"/><path class="cls-18" d="M158.9,222l-.16.27.35-.15Z"/><polygon class="cls-21" points="588.28 110.06 588.28 110.06 588.28 110.06 588.28 110.06 588.28 110.06 588.28 110.06"/><path class="cls-21" d="M559.59,110.08c-4,0-4.61.61-4.62,4.42q0,23.26,0,46.52c0,3.54.69,4.21,4.22,4.23,7.94.05,15.88,0,23.82,0,4.81,0,5.25-.44,5.25-5.25q0-25,0-50C578.71,110.06,569.15,110,559.59,110.08Z"/><path class="cls-22" d="M523.68,168.16c-3.8,0-4.34.54-4.35,4.33q0,23,0,45.95c0,3.79.55,4.32,4.34,4.34,7.84,0,15.68,0,23.53,0,4.48,0,4.87-.41,4.88-5q0-24.86,0-49.69h0C542.61,168.14,533.14,168.13,523.68,168.16Z"/><text class="cls-24" transform="translate(274.93 313.06)">G</text><text class="cls-24" transform="translate(286.82 313.06)">N</text><text class="cls-24" transform="translate(299.39 313.06)">D</text><text class="cls-24" transform="translate(274.51 333.13)">V</text><text class="cls-24" transform="translate(286.17 333.13)">C</text><text class="cls-24" transform="translate(297.24 333.13)">C</text><text class="cls-24" transform="translate(275.85 355.38)">S</text><text class="cls-24" transform="translate(286.15 355.38)">D</text><text class="cls-24" transform="translate(298.42 355.38)">A</text><text class="cls-24" transform="translate(277.38 377.94)">S</text><text class="cls-24" transform="translate(287.69 377.94)">C</text><text class="cls-24" transform="translate(298.76 377.94)">L</text><text class="cls-24" transform="translate(134.85 342.65)">J</text><text class="cls-24" transform="translate(143.42 342.65)">1</text><text class="cls-25" transform="translate(404.2 337.38)">G</text><text class="cls-25" transform="translate(417.58 337.38)">r</text><text class="cls-25" transform="translate(425.26 337.38)">o</text><text class="cls-25" transform="translate(436.73 337.38)">v</text><text class="cls-25" transform="translate(447 337.38)">e</text><text class="cls-25" transform="translate(457.84 337.38)"> </text><text class="cls-25" transform="translate(462.01 337.38)">-</text><text class="cls-25" transform="translate(468.74 337.38)"> </text><text class="cls-25" transform="translate(472.92 337.38)">1</text><text class="cls-25" transform="translate(480.33 337.38)">6</text><text class="cls-25" transform="translate(491.71 337.38)">x</text><text class="cls-25" transform="translate(502.61 337.38)">2</text><text class="cls-25" transform="translate(513.41 337.38)"> </text><text class="cls-25" transform="translate(517.59 337.38)">L</text><text class="cls-25" transform="translate(527.67 337.38)">C</text><text class="cls-25" transform="translate(540.12 337.38)">D</text><text class="cls-25" transform="translate(553.92 337.38)"> </text><text class="cls-25" transform="translate(558.1 337.38)">(</text><text class="cls-25" transform="translate(564.33 337.38)">B</text><text class="cls-25" transform="translate(577.19 337.38)">l</text><text class="cls-25" transform="translate(582.97 337.38)">a</text><text class="cls-25" transform="translate(593.77 337.38)">c</text><text class="cls-25" transform="translate(603.88 337.38)">k</text><text class="cls-25" transform="translate(615.22 337.38)"> </text><text class="cls-25" transform="translate(619.4 337.38)">o</text><text class="cls-25" transform="translate(630.86 337.38)">n</text><text class="cls-25" transform="translate(642.97 337.38)"> </text><text class="cls-25" transform="translate(647.15 337.38)">Y</text><text class="cls-25" transform="translate(659.39 337.38)">e</text><text class="cls-25" transform="translate(670.22 337.38)">l</text><text class="cls-25" transform="translate(676 337.38)">l</text><text class="cls-25" transform="translate(681.77 337.38)">o</text><text class="cls-25" transform="translate(693.24 337.38)">w</text><text class="cls-25" transform="translate(710.1 337.38)">)</text><text class="cls-25" transform="translate(679.63 359.11)">V</text><text class="cls-25" transform="translate(692.75 359.11)">1</text><text class="cls-25" transform="translate(700.17 359.11)">.</text><text class="cls-25" transform="translate(704.54 359.11)">0</text></g></g></svg>