<svg xmlns="http://www.w3.org/2000/svg" width="40" height="80" viewBox="0 0 336.53 523.79"><defs><style>.cls-1{fill:#004684;}.cls-2{fill:#d9d9d9;}.cls-3{fill:#f1eddd;}.cls-4{fill:#2b2b2b;}.cls-5{fill:#fefefe;}.cls-6{fill:#f9fbfa;}.cls-7{fill:#fafbfb;}.cls-8{fill:#fafbfa;}.cls-9{fill:#f9fafa;}.cls-10{fill:#f8f9f9;}.cls-11{fill:#003d7e;}.cls-12{fill:#f5f7f8;}.cls-13{fill:#013e7d;}.cls-14{fill:#003d7d;}.cls-15{fill:#f7f9f9;}.cls-16{fill:#f4f7f6;}.cls-17{fill:#f5f7f7;}.cls-18{fill:#01477e;}.cls-19{fill:#f7f8f8;}.cls-20{fill:#0b3d7e;}.cls-21{fill:#054488;}.cls-22{fill:#024689;}.cls-23{fill:#f7f8f7;}.cls-24{fill:#f8f8f7;}.cls-25{fill:#e6e9ea;}.cls-26{fill:#013e7f;}.cls-27{fill:#3a4652;}.cls-28{fill:#00427f;}.cls-29{fill:#1b3e5d;}.cls-30{fill:#f4f5f4;}.cls-31{fill:#1d405f;}.cls-32{fill:#eff0f1;}.cls-33{fill:#034480;}.cls-34{fill:#1b405f;}.cls-35{fill:#0e3c61;}.cls-36{fill:#36424e;}.cls-37{fill:#00376c;}.cls-38{fill:#14375c;}.cls-39{fill:#00386c;}.cls-40{fill:#113a5d;}.cls-41{fill:#1e405c;}.cls-42{fill:#0e3b64;}.cls-43{fill:#14385c;}.cls-44{fill:#0f3e6c;}.cls-45{fill:#5d7a91;}.cls-46{fill:#0c4067;}.cls-47{fill:#024784;}.cls-48{fill:#0d4a82;}.cls-49{fill:#074883;}.cls-50{fill:#0f4c83;}.cls-51{fill:#004888;}.cls-52{fill:#0e4a81;}.cls-53{fill:#004b90;}.cls-54{fill:#083966;}.cls-55{fill:#1b3f5d;}.cls-56{font-size:19.06px;fill:#fff;font-family:Montserrat-Bold, Montserrat;font-weight:700;}</style></defs><title>Asset 2</title><g id="Layer_2" data-name="Layer 2"><g id="Layer_1-2" data-name="Layer 1"><path class="cls-1" d="M239.64,151.7a1.77,1.77,0,0,1,.12.17A.3.3,0,0,0,239.64,151.7Z"/><path class="cls-1" d="M279.57,148.59a40.94,40.94,0,0,1,29-39.18V28.49H196.74a28.48,28.48,0,0,1-57,0H28.48v81.09a40.95,40.95,0,0,1,0,78V391a28.48,28.48,0,0,1,0,57v75.8H130.42a40.14,40.14,0,0,1,1.18-9h-8.55a29,29,0,0,1-29-29V232.4a29.05,29.05,0,0,1,22.19-28.16s0-.06,0-.09a9.33,9.33,0,0,1,6.53-8.89,5.65,5.65,0,0,1-.83-1.62,3.24,3.24,0,0,1-2.1-1.75,3.77,3.77,0,0,1-1.2-1.79h0c-1.38-3-1.07-6.06.76-7.66l.6-.76h0c.65-.37.84-1.29,1.67-1.46.05-.46.65-.2.76-.57h0c.28-.72.69-1.2,1.55-.93l1.34-.8c.93-2.21,1.2-4.6,1.94-6.87a1.17,1.17,0,0,1-.09-.32s.05-.09.08-.14h0c-.09-.83-.76-1.32-1.16-2h0a1.31,1.31,0,0,1-1.08-1.12,26.86,26.86,0,0,1-1.46-4.21c-.2-.41-.15-.95-.65-1.19h0a1.51,1.51,0,0,1-2-.55,9.85,9.85,0,0,0-2.27.71c-3.81,2.3-7,1.05-10-1.6h0c-1.54-.92-1.41-2.5-1.53-4-.86-2.66.84-4.41,2.2-6.29h0c.49-.95,1.1-1.71,2.34-1.44a10.2,10.2,0,0,1,4.4-.44c3.73.84,5.62,2.88,6.12,6.81h0c1.16.1.8,1.1,1,1.75,2.22,1.43,3.13,1.12,3.78-1.28a1.25,1.25,0,0,1-.29-1.36c.52.31.17.83.33,1.22h0c0-4.29.91-8.62-.63-12.87a5.51,5.51,0,0,0-2.65-2.71c-1.93-1.23-3.53-2.67-3.92-5.06-.08-.52-.86-.51-.71-1.13h0c-1.3-2.75-1-5.5,0-8.26,1.7-8.7,13-11,18.73-6.28h0c1,.9,1.92,1.79,2.87,2.7,0,0,0,.11,0,.15s-.1.07-.15.11l.65,1.09h0a2.18,2.18,0,0,1,1.16,2.26c.21.48.41.95.62,1.42,1,1.78.27,3.68.4,5.53-.09,0-.22-.07-.25-.14a3.23,3.23,0,0,1-.11-.54c-.17,3.17-2.22,5.31-4.07,7.56h0a15.54,15.54,0,0,1-3.34,3.48c-.07,3.63-.18,7.25-.2,10.88,0,1.07-.39,2.45.83,3.06a4.4,4.4,0,0,0,4.28-.48,6.34,6.34,0,0,0,1.07-.95h0a2.23,2.23,0,0,1,.75-1.63c1.37-4.73,4.75-6.33,9.35-6-.18-.36-1-.39-.66-.91.12-.21.88-.26,1.2-.09.66.35-.12.68-.15,1,5.11,2.79,6.12,5.41,4.46,11.56h0a2.56,2.56,0,0,1-1.82,1.65c-3.31,2.21-6.6,1.91-9.88-.09-1.74-1.05-3.35-.15-4.95.44-.21.08-.49.33-.5.51-.07,1.66-.78,3.27-.47,5,0,.21.31.36.48.54a2.79,2.79,0,0,1,1.91.81c2.78.06,5.48.4,7.79,2.14h0a1.82,1.82,0,0,1,1.46,1.72l.72,1.33h0a4.15,4.15,0,0,1,0,3.83,8.43,8.43,0,0,1-5.93,6h0c-.47.43-.93.9-1.59.31-3.34-.69-6.08-2.19-7.43-5.56h0c-.8-1.13-.3-2.41-.41-3.62a14.17,14.17,0,0,0-.25-3.5c.24-1.08-.56-1-1.12-.88a4.39,4.39,0,0,0-2.42.79h0c-.58,1.18-.28,2.62-1.09,3.74.22.81-.46,1.34-.69,2-1,2.71-.07,4.81,1.79,6.7h0c.44.26.93.51.47,1.14l.18.77h0a3,3,0,0,1,.08,3.38l-.29.35h0a4.93,4.93,0,0,1-.13.58,5.59,5.59,0,0,1,.58,2.48,5.67,5.67,0,0,1-2.25,4.51,9.29,9.29,0,0,1,4.06,7h84.38a29.06,29.06,0,0,1,29,29V485.84a29.06,29.06,0,0,1-29,29h-8.09a41.34,41.34,0,0,1,1.18,9h96.35V440l-.56,0a28.48,28.48,0,0,1,0-57l.56,0V187.76A40.93,40.93,0,0,1,279.57,148.59Zm-230.8,82.2H65.18v16.4H48.77Zm10,119.43a9,9,0,1,1,9-9A9,9,0,0,1,58.74,350.22Zm0-30.75a9,9,0,1,1,9-9A9,9,0,0,1,58.74,319.47Zm0-35.25a9,9,0,1,1,9-9A9,9,0,0,1,58.74,284.22ZM126.6,146.51h.18V153h-.18ZM117.33,85.3h16.41V97a5.67,5.67,0,1,1-9.74,4.71h-6.67Zm-9.17,113a5.67,5.67,0,1,1,5.67-5.67A5.66,5.66,0,0,1,108.16,198.33Zm0-27.35a5.67,5.67,0,1,1-5.66,5.67A5.67,5.67,0,0,1,108.16,171Zm0-36.49a5.67,5.67,0,1,1,5.67-5.67A5.66,5.66,0,0,1,108.16,134.49Zm53.25-27.95a5.67,5.67,0,0,1-5.55-4.52,9,9,0,0,1-2.85.46,9.29,9.29,0,0,1-2.06-.24,5.66,5.66,0,1,1-6.75-6.9,9.46,9.46,0,0,1-.19-1.86,9,9,0,1,1,17.83,1.74,5.67,5.67,0,0,1-.43,11.32Zm45.3-22.87A9,9,0,0,1,213.94,98a5.66,5.66,0,1,1-10.55,3,9,9,0,0,1,3.32-17.36Zm-30,72.68v-4.67h.26v4.74Zm7.65-10.42c.83.3.81,1,.93,1.53,1.4-.92,1.43-2.59,2.16-3.88-.1-1.58-1.45-2.64-1.71-4.15h0c-2.26-2.81-2.24-3.26.4-6.29a6.7,6.7,0,0,1,2.36-2.13l.54-.37a1.63,1.63,0,0,1,2.39,0l1,.66a3.47,3.47,0,0,1,2.43,1.47l.84.72c2-.26,4.44-1.94,5.36,1.55,1.73,2.94,2.41,6.31,3.91,9.35a1.56,1.56,0,0,1,0,2.48l-.55.66h0c-.53,1.4-1.7,2.29-2.66,3.36l-.49,1.55a4.41,4.41,0,0,1-.12,4.35c.37,3.46,2.95,6.05,6.79,6.82,1.63.33,6.22-2,7.38-3.79,2.2-3.29,1.59-10.41-2.71-11.74h0c-.82-.24-1.9-.32-1.08-1.64.56-2.94,2.13-5.47,3.32-8.15a3.74,3.74,0,0,1,1-2.79c-.24-1.1,1.2-1.18,1.28-2.08h0a1.53,1.53,0,0,1,2.47,0c.56.85,1.06.29,1.57-.07,2.23-1.52,4.1-4,7.38-2.81h0a7.66,7.66,0,0,1,3.19,2.83c2.52,2.58,2.51,2.79-.06,6-.13.75-1.24.81-1.2,1.68a5.09,5.09,0,0,0-.46,2.72l1.74,4.05h0c1.63,1.59,4,.93,5.84,1.93l1.16.59h0c1,.06,1.12.78,1.08,1.58a16.7,16.7,0,0,1,0,4.89,2,2,0,0,1-.45,1.74,3,3,0,0,1-3.14,1.58h0a4.07,4.07,0,0,1-2.88.44c-2.78,1.46-4,5.9-2.29,8.27.62.86,1.16,1.77,1.74,2.66h0c.88,1,1.32,2.08,0,3.12l-1.7,1.75a5.23,5.23,0,0,1-2.66,2.58l-.5.24h0c-1.12.65-2,0-2.82-.57a7.86,7.86,0,0,1-3.4-2.17.27.27,0,0,1-.36-.16l-1.64-.42c-3.61,1-5.92,3-5.92,7h0c.06.76.13,1.53-.63,2l-.82.76h0a12.74,12.74,0,0,1-7.39.06c-1.8-.81-1.76-2.72-1.91-4.11-.33-3.06-1.65-5-4.63-5.69l-1.6-.18c-.66.41-1.32.83-2,1.23-5.22,3.06-6.13,2.85-10-2.26-.87-.75-1-1.52-.09-2.33a3,3,0,0,1,1.12-2l1.15-1.58c1.28-1.61.88-3.19-.06-4.77h0c-.86-2.29-2.27-3.72-5-3.44a2.57,2.57,0,0,1-1-.18,2,2,0,0,1-1-.34c-.43,0-.94.15-1.18-.43-1.18-.64-1.14-1.71-1-2.82.09-2.22-1.22-4.66,1.07-6.52,2-1.23,5-.31,6.48-2.74C184.33,147.32,184.15,146.77,184.32,145.93Zm45.1,34.73c.36.94-.32,1.31-1,1.37-.47,0-.17-.52-.11-.82-1-1.09.43-1.2.72-1.3.84-.27.41.4.36.75Zm11.29-24.78-.26-.07V152.2h.26ZM193.43,95.2a5.67,5.67,0,1,1-5.67,5.67A5.67,5.67,0,0,1,193.43,95.2ZM179.5,84a9,9,0,0,1,3.58,17.26,5.67,5.67,0,1,1-10.75-2.82A9,9,0,0,1,179.5,84ZM288.67,349.44H272.26V333h16.41Zm-8.16-30a9,9,0,1,1,9-9A9,9,0,0,1,280.51,319.47Zm0-35.25a9,9,0,1,1,9-9A9,9,0,0,1,280.51,284.22Zm.51-33.73a9,9,0,1,1,9-9A9,9,0,0,1,281,250.49Z"/><path class="cls-1" d="M168.26,57a28.48,28.48,0,0,0,28.48-28.47h0a28.48,28.48,0,1,0-57,0h0A28.47,28.47,0,0,0,168.26,57ZM147.75,28.48A20.51,20.51,0,1,1,168.26,49,20.51,20.51,0,0,1,147.75,28.48Z"/><path class="cls-1" d="M279.57,411.54A28.48,28.48,0,0,0,308.05,440l.56,0a28.47,28.47,0,0,0,0-56.92l-.56,0A28.48,28.48,0,0,0,279.57,411.54Zm49,0A20.51,20.51,0,1,1,308.05,391,20.51,20.51,0,0,1,328.56,411.54Z"/><path class="cls-1" d="M57,419.51A28.48,28.48,0,1,0,28.48,448,28.48,28.48,0,0,0,57,419.51ZM28.48,440A20.51,20.51,0,1,1,49,419.51,20.51,20.51,0,0,1,28.48,440Z"/><path class="cls-1" d="M124,101.71A5.67,5.67,0,1,0,133.74,97v4.71Z"/><path class="cls-1" d="M144.2,95.34a5.67,5.67,0,1,0,6.75,6.9A9,9,0,0,1,144.2,95.34Z"/><path class="cls-1" d="M161.84,95.22a9,9,0,0,1-6,6.8,5.67,5.67,0,1,0,6-6.8Z"/><path class="cls-1" d="M172.33,98.4a5.66,5.66,0,1,0,10.75,2.82,9,9,0,0,1-10.75-2.82Z"/><path class="cls-1" d="M193.43,106.54a5.67,5.67,0,1,0-5.67-5.67A5.67,5.67,0,0,0,193.43,106.54Z"/><path class="cls-1" d="M206.71,101.67a9,9,0,0,1-3.32-.64,5.67,5.67,0,1,0,10.55-3A9,9,0,0,1,206.71,101.67Z"/><circle class="cls-1" cx="108.16" cy="128.82" r="5.67"/><circle class="cls-1" cx="108.16" cy="176.65" r="5.67" transform="translate(-96.43 208.98) rotate(-67.5)"/><path class="cls-1" d="M130.73,196.44a5.67,5.67,0,0,0,2.25-4.51,5.59,5.59,0,0,0-.58-2.48,5.47,5.47,0,0,1-4.4,4.35l-.09.09-.12-.07h0a5.55,5.55,0,0,1-5.4,0h0c-.15,0-.31-.09-.46-.15a5.65,5.65,0,0,0,.83,1.62,9.46,9.46,0,0,1,2.79-.42A9.25,9.25,0,0,1,130.73,196.44Z"/><circle class="cls-1" cx="108.16" cy="192.66" r="5.67" transform="translate(-29.46 19.81) rotate(-9.22)"/><path class="cls-1" d="M134.79,203.42a9.31,9.31,0,0,0-9.27-8.58,9.46,9.46,0,0,0-2.79.42,9.33,9.33,0,0,0-6.53,8.89s0,.06,0,.09a28.53,28.53,0,0,1,6.84-.82Z"/><path class="cls-2" d="M281,232.49a9,9,0,1,0,9,9A9,9,0,0,0,281,232.49ZM281,248a6.48,6.48,0,1,1,6.48-6.48A6.48,6.48,0,0,1,281,248Z"/><path class="cls-2" d="M280.51,266.22a9,9,0,1,0,9,9A9,9,0,0,0,280.51,266.22Zm0,15.48a6.49,6.49,0,1,1,6.49-6.48A6.48,6.48,0,0,1,280.51,281.7Z"/><path class="cls-2" d="M280.51,301.47a9,9,0,1,0,9,9A9,9,0,0,0,280.51,301.47Zm0,15.48a6.49,6.49,0,1,1,6.49-6.48A6.48,6.48,0,0,1,280.51,317Z"/><path class="cls-2" d="M272.26,349.44h16.41V333H272.26ZM281,334.73a6.49,6.49,0,1,1-6.48,6.49A6.49,6.49,0,0,1,281,334.73Z"/><path class="cls-2" d="M65.18,230.79H48.77v16.4H65.18ZM57,245.46A6.49,6.49,0,1,1,63.44,239,6.5,6.5,0,0,1,57,245.46Z"/><path class="cls-2" d="M58.74,266.22a9,9,0,1,0,9,9A9,9,0,0,0,58.74,266.22Zm0,15.48a6.49,6.49,0,1,1,6.48-6.48A6.48,6.48,0,0,1,58.74,281.7Z"/><path class="cls-2" d="M58.74,301.47a9,9,0,1,0,9,9A9,9,0,0,0,58.74,301.47Zm0,15.48a6.49,6.49,0,1,1,6.48-6.48A6.48,6.48,0,0,1,58.74,317Z"/><path class="cls-2" d="M58.74,332.22a9,9,0,1,0,9,9A9,9,0,0,0,58.74,332.22Zm0,15.48a6.49,6.49,0,1,1,6.48-6.48A6.48,6.48,0,0,1,58.74,347.7Z"/><polygon class="cls-2" points="133.74 101.71 133.74 97 133.74 85.3 117.33 85.3 117.33 101.71 124 101.71 133.74 101.71"/><path class="cls-2" d="M161.84,95.22A9,9,0,1,0,144,93.48a9.46,9.46,0,0,0,.19,1.86,9,9,0,0,0,6.75,6.9,9.29,9.29,0,0,0,2.06.24,9,9,0,0,0,8.83-7.26Z"/><path class="cls-2" d="M179.5,102a9,9,0,1,0-7.17-3.56A8.92,8.92,0,0,0,179.5,102Z"/><path class="cls-2" d="M203.39,101a9,9,0,1,0-5.68-8.36A9,9,0,0,0,203.39,101Z"/><path class="cls-3" d="M219.17,514.82a29.06,29.06,0,0,0,29-29V232.4a29.06,29.06,0,0,0-29-29H123.05a28.53,28.53,0,0,0-6.84.82A29.05,29.05,0,0,0,94,232.4V485.84a29,29,0,0,0,29,29h96.12Zm-93.52-3.15a27.5,27.5,0,0,1-27.49-27.43V234.6a27.5,27.5,0,0,1,27.49-27.43h91a27.5,27.5,0,0,1,27.48,27.43V484.24a27.5,27.5,0,0,1-27.48,27.43Z"/><path class="cls-4" d="M216.66,511.67a27.5,27.5,0,0,0,27.48-27.43V234.6a27.5,27.5,0,0,0-27.48-27.43h-91A27.5,27.5,0,0,0,98.16,234.6V484.24a27.5,27.5,0,0,0,27.49,27.43ZM216,459a5.34,5.34,0,0,1-5.33,5.34H132.92a5.35,5.35,0,0,1-5.33-5.34V441.37a5.35,5.35,0,0,1,5.33-5.34h77.71a5.34,5.34,0,0,1,5.33,5.34ZM216,423a5.34,5.34,0,0,1-5.33,5.34H132.92a5.35,5.35,0,0,1-5.33-5.34V405.29a5.35,5.35,0,0,1,5.33-5.34h77.71a5.34,5.34,0,0,1,5.33,5.34Zm0-36.53a5.34,5.34,0,0,1-5.33,5.34H132.92a5.35,5.35,0,0,1-5.33-5.34V368.77a5.35,5.35,0,0,1,5.33-5.34h77.71a5.34,5.34,0,0,1,5.33,5.34Zm0-36.53a5.34,5.34,0,0,1-5.33,5.34H132.92a5.34,5.34,0,0,1-5.33-5.34V332.24a5.35,5.35,0,0,1,5.33-5.34h77.71a5.34,5.34,0,0,1,5.33,5.34Zm0-36.63a5.34,5.34,0,0,1-5.33,5.34H132.92a5.35,5.35,0,0,1-5.33-5.34V295.6a5.35,5.35,0,0,1,5.33-5.34h77.71A5.34,5.34,0,0,1,216,295.6Zm0-36.49a5.34,5.34,0,0,1-5.33,5.34H132.92a5.34,5.34,0,0,1-5.33-5.34V259.12a5.35,5.35,0,0,1,5.33-5.34h77.71a5.34,5.34,0,0,1,5.33,5.34Zm0-53.89v17.65a5.34,5.34,0,0,1-5.33,5.34H132.92a5.35,5.35,0,0,1-5.33-5.34V222.88a5.35,5.35,0,0,1,5.33-5.34h77.71A5.34,5.34,0,0,1,216,222.88Zm-83,278a5.35,5.35,0,0,1-5.33-5.34V477.9a5.35,5.35,0,0,1,5.33-5.34h77.71A5.34,5.34,0,0,1,216,477.9v17.65a5.34,5.34,0,0,1-5.33,5.34Z"/><path class="cls-2" d="M127.59,222.88v17.65a5.35,5.35,0,0,0,5.33,5.34h77.71a5.34,5.34,0,0,0,5.33-5.34V222.88a5.34,5.34,0,0,0-5.33-5.34H132.92A5.35,5.35,0,0,0,127.59,222.88Z"/><path class="cls-2" d="M210.63,253.78H132.92a5.35,5.35,0,0,0-5.33,5.34v17.65a5.34,5.34,0,0,0,5.33,5.34h77.71a5.34,5.34,0,0,0,5.33-5.34V259.12A5.34,5.34,0,0,0,210.63,253.78Z"/><path class="cls-2" d="M210.63,290.26H132.92a5.35,5.35,0,0,0-5.33,5.34v17.66a5.35,5.35,0,0,0,5.33,5.34h77.71a5.34,5.34,0,0,0,5.33-5.34V295.6A5.34,5.34,0,0,0,210.63,290.26Z"/><path class="cls-2" d="M210.63,326.9H132.92a5.35,5.35,0,0,0-5.33,5.34v17.65a5.34,5.34,0,0,0,5.33,5.34h77.71a5.34,5.34,0,0,0,5.33-5.34V332.24A5.34,5.34,0,0,0,210.63,326.9Z"/><path class="cls-2" d="M210.63,363.43H132.92a5.35,5.35,0,0,0-5.33,5.34v17.65a5.35,5.35,0,0,0,5.33,5.34h77.71a5.34,5.34,0,0,0,5.33-5.34V368.77A5.34,5.34,0,0,0,210.63,363.43Z"/><path class="cls-2" d="M210.63,400H132.92a5.35,5.35,0,0,0-5.33,5.34V423a5.35,5.35,0,0,0,5.33,5.34h77.71A5.34,5.34,0,0,0,216,423V405.29A5.34,5.34,0,0,0,210.63,400Z"/><path class="cls-2" d="M210.63,436H132.92a5.35,5.35,0,0,0-5.33,5.34V459a5.35,5.35,0,0,0,5.33,5.34h77.71A5.34,5.34,0,0,0,216,459V441.37A5.34,5.34,0,0,0,210.63,436Z"/><path class="cls-2" d="M210.63,500.89a5.34,5.34,0,0,0,5.33-5.34V477.9a5.34,5.34,0,0,0-5.33-5.34H132.92a5.35,5.35,0,0,0-5.33,5.34v17.65a5.35,5.35,0,0,0,5.33,5.34Z"/><path class="cls-5" d="M180.85,160.35c-.32-.12-.65-.25-1-.34A2,2,0,0,0,180.85,160.35Z"/><path class="cls-5" d="M181.16,150.4c-.81,0-1.62-.11-2.42-.16-2.29,1.86-1,4.3-1.07,6.52,1.17.64.77,1.85,1,2.82.24.58.75.4,1.18.43,1.32-.13,2.67.29,3.92-.62,1.43-1,1.66.88,2.53,1.27,1.58.71.82,2.12.54,3.31h0c.94,1.58,1.34,3.16.06,4.77,0,.82.9,2.26-1.15,1.58a3,3,0,0,0-1.12,2c1.13.73.75,1.52.09,2.33,3.85,5.11,4.76,5.32,10,2.26.67-.4,1.33-.82,2-1.23-.07-.3-.36-.78.15-.8s1.49-.11,1.45,1c3,.74,4.3,2.63,4.63,5.69.15,1.39.11,3.3,1.91,4.11l7.39-.06h0l.82-.76c-.17-.8-.48-1.64.63-2h0c0-4,2.31-6.05,5.92-7,.29-.45.58-1.07,1.2-.75.28.14.31.76.44,1.17a.27.27,0,0,0,.36.16c.76.07,0-1.64,1.74-1.05,2.08.71,1.49,2,1.66,3.21,1,0,2.24-1.38,2.82.58h0l.5-.24c0-1.8,1.26-2.25,2.66-2.58l1.7-1.75a3,3,0,0,1,0-3.12c-.58-.89-1.12-1.8-1.74-2.66-1.7-2.37-.49-6.81,2.29-8.27.87-.71,1.89-.48,2.89-.44h0a3,3,0,0,0,3.14-1.58,6.38,6.38,0,0,0-.5-.82c-2.2,1-2.2,1-4,.44,1.85-.5,3.2-1.53,4.94-1.36a16.7,16.7,0,0,0,0-4.89,1.77,1.77,0,0,0-.12-.17c-.48-.36-2.25.16-1-1.41h0l-1.16-.59c-2.17,0-4.59.81-5.84-1.93h0l-1.74-4.05c-.61-1-1.58-2.14.46-2.72,0-.87,1.07-.93,1.2-1.68a12.07,12.07,0,0,0,.06-6c-1.42-.54-4.07.3-3.19-2.81-2.21,1.59-4.39,3.24-7.38,2.79-.51.36-1,.92-1.57.07h-2.47c-.08.9-1.52,1-1.28,2.08a3.35,3.35,0,0,1-1,2.79c-1.19,2.68-2.76,5.21-3.32,8.15l1.08,1.64h0c4.3,1.33,4.91,8.45,2.71,11.74-1.16,1.74-5.75,4.12-7.38,3.79-3.84-.77-6.42-3.36-6.79-6.82a4.57,4.57,0,0,1,.12-4.35l.49-1.55c.38-1.52-.2-3.8,2.66-3.36h0l.55-.66c-.48-.83.1-1.65,0-2.48-1.5-3-2.18-6.41-3.91-9.35-1.45-.2-2.83-1-4.42-.18-.41.22-2.26.23-.94-1.37l-.84-.72a2.05,2.05,0,0,1-2.63-.24c-.71-.61,0-.86.2-1.23l-1-.66a2.18,2.18,0,0,1-2.39,0l-.54.37c.7,1.06-.23,1.86-.49,2.76-.57,2-2.22,3.49-2.27,5.66h0c.26,1.51,1.61,2.57,1.71,4.15C188.09,147.61,185.35,150.61,181.16,150.4Zm7.09,1.38-2.54-2.27C187.47,149.61,187.7,150.32,188.25,151.78Z"/><polygon class="cls-5" points="228.47 130.52 228.47 130.52 228.47 130.52 228.47 130.52"/><path class="cls-6" d="M188,133.77c.26-.9,1.19-1.7.49-2.76a6.7,6.7,0,0,0-2.36,2.13c-2.64,3-2.66,3.48-.4,6.29h0C185.75,137.26,187.4,135.73,188,133.77Z"/><path class="cls-6" d="M178.74,150.24c.8,0,1.61.12,2.42.16,4.19.21,6.93-2.79,6.25-6.82-.73,1.29-.76,3-2.16,3.88l0,0C183.7,149.93,180.76,149,178.74,150.24Z"/><path class="cls-7" d="M228.47,130.54v0h0c-3.28-1.21-5.15,1.29-7.38,2.81C224.08,133.78,226.26,132.13,228.47,130.54Z"/><path class="cls-8" d="M186.32,160.66c-.87-.39-1.1-2.31-2.53-1.27-1.25.91-2.6.49-3.92.62.33.09.66.22,1,.34a2.57,2.57,0,0,0,1,.18c2.7-.28,4.11,1.15,5,3.44h0C187.14,162.78,187.9,161.37,186.32,160.66Z"/><path class="cls-6" d="M196.56,134.85c1.59-.85,3,0,4.42.18-.92-3.49-3.35-1.81-5.36-1.55C194.3,135.08,196.15,135.07,196.56,134.85Z"/><path class="cls-9" d="M225,178.56c-.17-1.24.42-2.5-1.66-3.21-1.72-.59-1,1.12-1.74,1.05a7.86,7.86,0,0,0,3.4,2.17h0Z"/><path class="cls-7" d="M231.66,133.36h0a12.07,12.07,0,0,1-.06,6c2.57-3.18,2.58-3.39.06-6Z"/><path class="cls-9" d="M234.79,158.12c1.79.53,1.79.52,4-.44a6.38,6.38,0,0,1,.5.82,2,2,0,0,0,.45-1.74C238,156.59,236.64,157.62,234.79,158.12Z"/><path class="cls-7" d="M228.47,130.54c-.88,3.11,1.77,2.27,3.19,2.81h0a7.66,7.66,0,0,0-3.19-2.83h0Z"/><path class="cls-9" d="M201.67,150.88c1-1.07,2.13-2,2.66-3.36h0C201.47,147.08,202.05,149.36,201.67,150.88Z"/><path class="cls-10" d="M237.52,149.7c-1.83-1-4.21-.34-5.84-1.93h0C232.93,150.51,235.35,149.71,237.52,149.7Z"/><path class="cls-11" d="M201.06,156.78a4.41,4.41,0,0,0,.12-4.35A4.57,4.57,0,0,0,201.06,156.78Z"/><path class="cls-12" d="M212.24,185.63h0l-7.39.06A12.74,12.74,0,0,0,212.24,185.63Z"/><path class="cls-6" d="M192.15,132.52a2.05,2.05,0,0,0,2.63.24,3.47,3.47,0,0,0-2.43-1.47C192.11,131.66,191.44,131.91,192.15,132.52Z"/><path class="cls-13" d="M176.67,151.68v4.67l.26.07v-4.74Z"/><path class="cls-9" d="M228.33,178.9a5.23,5.23,0,0,0,2.66-2.58C229.59,176.65,228.3,177.1,228.33,178.9Z"/><path class="cls-9" d="M225,178.56h0c.86.56,1.7,1.22,2.82.57h0C227.25,177.18,226,178.53,225,178.56Z"/><path class="cls-14" d="M240.45,155.81l.26.07v-3.69h-.26Z"/><path class="cls-9" d="M232.69,174.57c1.33-1,.89-2.08,0-3.12h0A3,3,0,0,0,232.69,174.57Z"/><path class="cls-15" d="M229.94,143.72a5.09,5.09,0,0,1,.46-2.72C228.36,141.58,229.33,142.68,229.94,143.72Z"/><path class="cls-16" d="M177.67,156.76c-.12,1.11-.16,2.18,1,2.82C178.44,158.61,178.84,157.4,177.67,156.76Z"/><path class="cls-17" d="M184.65,172.35c-.88.81-.78,1.58.09,2.33C185.4,173.87,185.78,173.08,184.65,172.35Z"/><path class="cls-9" d="M219.61,175.82l1.64.42c-.13-.41-.16-1-.44-1.17C220.19,174.75,219.9,175.37,219.61,175.82Z"/><path class="cls-18" d="M229.06,179.91c-.29.1-1.75.21-.72,1.3l1.08-.55h0C229.47,180.31,229.9,179.64,229.06,179.91Z"/><path class="cls-6" d="M191.39,130.63a1.63,1.63,0,0,0-2.39,0A2.18,2.18,0,0,0,191.39,130.63Z"/><path class="cls-19" d="M214.76,138.28a3.35,3.35,0,0,0,1-2.79A3.74,3.74,0,0,0,214.76,138.28Z"/><path class="cls-10" d="M239.64,151.7a.3.3,0,0,1,.12.17c0-.8,0-1.52-1.08-1.58h0C237.39,151.86,239.16,151.34,239.64,151.7Z"/><path class="cls-20" d="M211.44,146.43c-.82,1.32.26,1.4,1.08,1.64h0Z"/><path class="cls-17" d="M186.92,168.74l-1.15,1.58C187.82,171,186.94,169.56,186.92,168.74Z"/><path class="cls-19" d="M196.86,174.91c-.51,0-.22.5-.15.8l1.6.18C198.35,174.8,197.48,174.89,196.86,174.91Z"/><path class="cls-21" d="M184.32,145.93c-.17.84,0,1.39.9,1.57l0,0C185.13,146.89,185.15,146.23,184.32,145.93Z"/><path class="cls-9" d="M204.88,146.86a1.56,1.56,0,0,0,0-2.48C205,145.21,204.4,146,204.88,146.86Z"/><path class="cls-22" d="M228.45,182c.65-.06,1.33-.43,1-1.37h0l-1.08.55C228.28,181.51,228,182.06,228.45,182Z"/><path class="cls-19" d="M217.05,133.41h2.47A1.53,1.53,0,0,0,217.05,133.41Z"/><path class="cls-9" d="M233.25,160.52a4.07,4.07,0,0,0,2.88-.44h0C235.14,160,234.12,159.81,233.25,160.52Z"/><path class="cls-12" d="M213.06,184.87c.76-.51.69-1.28.63-2h0C212.58,183.23,212.89,184.07,213.06,184.87Z"/><path class="cls-6" d="M185.71,149.51l2.54,2.27C187.7,150.32,187.47,149.61,185.71,149.51Z"/><path class="cls-5" d="M122.36,193.79h0a25.65,25.65,0,0,0,5.4,0h0l.12.07.09-.09c.06-.41-.09-.91.55-1a3,3,0,0,0,2.6-2.79c.14-.73.87-.81,1.38-1.12h0l.29-.35-.08-3.38h0l-.18-.77c-.45-.26-.39-.72-.47-1.14h0c-1.86-1.89-2.77-4-1.79-6.7.23-.65.91-1.18.69-2,.1-1.32-.08-2.73,1.09-3.74h0a4.39,4.39,0,0,1,2.42-.79c.56-.1,1.36-.2,1.12.88.93.12.7.88.7,1.43,0,1.89,0,3.79,0,5.69h0c1.35,3.37,4.09,4.87,7.43,5.56a2.92,2.92,0,0,1,1.59-.31h0a8.43,8.43,0,0,0,5.93-6l0-3.83h0l-.72-1.33a3.6,3.6,0,0,1-1.47-1.73h0c-2.31-1.74-5-2.08-7.79-2.14a2,2,0,0,1-1.91-.81c-.17-.18-.44-.33-.48-.54-.31-1.68.4-3.29.47-5,0-.18.29-.43.5-.51,1.6-.59,3.21-1.49,4.95-.44,3.28,2,6.57,2.3,9.88.09a3.09,3.09,0,0,1,1.82-1.65h0c1.66-6.15.65-8.77-4.46-11.56l-.39,0c-4.6-.29-8,1.31-9.35,6a1.55,1.55,0,0,1-.75,1.63h0a6.34,6.34,0,0,1-1.07.95,4.4,4.4,0,0,1-4.28.48c-1.22-.61-.83-2-.83-3.06,0-3.63.13-7.25.2-10.88.54-1.72,2.08-2.46,3.34-3.48h0c1.85-2.25,3.9-4.39,4.07-7.56,0-1.62,0-3.23,0-4.85-.21-.47-.41-.94-.62-1.42-.9-.49-.91-1.43-1.16-2.26h0l-.65-1.09c-1-.91-2.38-1.46-2.72-3h0c-5.73-4.69-17-2.42-18.73,6.28-.2,2.75-.66,5.51,0,8.26h0c-.15.62.63.61.71,1.13.39,2.39,2,3.83,3.92,5.06a5.51,5.51,0,0,1,2.65,2.71c1.54,4.25.64,8.58.63,12.87h0l0,.14c-.65,2.4-1.56,2.71-3.78,1.28-.6-.43-1.23-.84-1-1.75h0c-.5-3.93-2.39-6-6.12-6.81a10.2,10.2,0,0,0-4.4.44l-2.34,1.44h0c-1.36,1.88-3.06,3.63-2.2,6.29l1.53,4h0c3,2.65,6.21,3.9,10,1.6a9.85,9.85,0,0,1,2.27-.71c.82-.38,1.4.13,2,.55h0c.5.24.45.78.65,1.19l3.49,5.66a2.44,2.44,0,0,1,.21,1.64h0s-.09.1-.08.14a1.17,1.17,0,0,0,.09.32c-.13,2.44-.07,4.93-1.94,6.87h0l-1.34.8a2.61,2.61,0,0,1-1.55.93h0c-.11.37-.71.11-.76.57a1.52,1.52,0,0,1-1.67,1.46h0l-.6.76c0,.12.17.3.13.34-1.79,2.26-1,4.82-.89,7.32h0a3.77,3.77,0,0,0,1.2,1.79A5.69,5.69,0,0,1,122.36,193.79Zm19.39-19.12a2.14,2.14,0,0,1,2.94-.81c.86.43,2.11.74,1.44,2.22h0c-.19.66-.49,1.18-1.3,1.1a2,2,0,0,1-3.08-2.51Zm8.36-22.09c.85,0,2,1.65,1.94,3.3-.05.81-.79,1.38-2,1.31s-2.29-.56-2.23-2.12C147.83,154,149.22,152.53,150.11,152.58ZM116.83,155v.7h0a2.18,2.18,0,0,1-1.77,2.28c-1.18.31-1.83-.51-2.45-1.29-.45-.55-.76-1.16-.2-1.84a2.73,2.73,0,0,1,2.91-1.16C116,153.91,117.1,153.69,116.83,155Zm14.43,10.41c-1.11.05-2-1-2.22-2.16s1.44-2.44,2.64-2.36a1.92,1.92,0,0,1,1.94,2A2.57,2.57,0,0,1,131.26,165.44Zm-5.07-36c0-2,2.77-5,4.71-4.88s4.53,3,4.5,4.92-3,5-5,4.84S126.21,131.49,126.19,129.44Zm-2.6,56.44a2,2,0,0,1,3.91,1,2.65,2.65,0,0,1-.27.87h0c-.42,2.1-.93,2.4-2.59,1.51-.11-.25-.22-.5-.34-.75h0l-.44-.64C122.71,187.34,123.13,186.59,123.59,185.88Z"/><path class="cls-9" d="M131.15,190a3,3,0,0,1-2.6,2.79c-.64.11-.49.61-.55,1a5.47,5.47,0,0,0,4.4-4.35,4.93,4.93,0,0,0,.13-.58h0C132,189.18,131.29,189.26,131.15,190Z"/><path class="cls-23" d="M127,168.94l-3.49-5.66a26.86,26.86,0,0,0,1.46,4.21,1.58,1.58,0,0,1,1.08,1.12h0c.4.65,1.07,1.14,1.16,2h0A2.44,2.44,0,0,0,127,168.94Z"/><path class="cls-24" d="M119.49,182.78s-.08-.22-.13-.34c-1.83,1.6-2.14,4.68-.76,7.66h0C118.44,187.6,117.7,185,119.49,182.78Z"/><path class="cls-25" d="M119,125.62c-1,2.76-1.29,5.51,0,8.26h0C118.35,131.13,118.81,128.37,119,125.62Z"/><path class="cls-23" d="M127.22,171c-.74,2.27-1,4.66-1.94,6.87h0C127.15,176,127.09,173.48,127.22,171Z"/><path class="cls-9" d="M122.39,193.8a5.55,5.55,0,0,0,5.4,0h0A25.65,25.65,0,0,1,122.39,193.8Z"/><ellipse class="cls-26" cx="126.69" cy="149.73" rx="0.13" ry="4.55"/><path class="cls-27" d="M136.32,172.32c0-.55.23-1.31-.7-1.43a14.17,14.17,0,0,1,.25,3.5c.11,1.21-.39,2.49.41,3.62h0C136.3,176.11,136.34,174.21,136.32,172.32Z"/><path class="cls-28" d="M143,132.46c0,.07.16.09.25.14-.13-1.85.63-3.75-.4-5.53,0,1.62,0,3.23,0,4.85A3.23,3.23,0,0,0,143,132.46Z"/><path class="cls-29" d="M135.52,143a15.54,15.54,0,0,0,3.34-3.48h0C137.6,140.5,136.06,141.24,135.52,143Z"/><path class="cls-30" d="M140.46,122.3s.12-.06.15-.11,0-.13,0-.15c-1-.91-1.91-1.8-2.87-2.7h0C138.08,120.84,139.46,121.39,140.46,122.3Z"/><path class="cls-31" d="M107,156.68c.12,1.47,0,3,1.53,4h0Z"/><path class="cls-32" d="M132.08,170.8h0c-1.17,1-1,2.42-1.09,3.74C131.8,173.42,131.5,172,132.08,170.8Z"/><path class="cls-33" d="M152.14,146.8c-.32-.17-1.08-.12-1.2.09-.31.52.48.55.66.91l.39,0C152,147.48,152.8,147.15,152.14,146.8Z"/><path class="cls-34" d="M111.58,149c-1.24-.27-1.85.49-2.34,1.44h0Z"/><path class="cls-35" d="M132.82,188.52a3,3,0,0,0-.08-3.38h0Z"/><path class="cls-9" d="M122.36,193.79a5.69,5.69,0,0,0-2.56-1.9,3.24,3.24,0,0,0,2.1,1.75c.15.06.31.1.46.15Z"/><path class="cls-30" d="M142.27,125.65a2.18,2.18,0,0,0-1.16-2.26h0C141.36,124.22,141.37,125.16,142.27,125.65Z"/><path class="cls-36" d="M151.23,177.24a4.15,4.15,0,0,0,0-3.83h0Z"/><path class="cls-37" d="M120.86,161.54a1.51,1.51,0,0,0,2,.55h0C122.26,161.67,121.68,161.16,120.86,161.54Z"/><path class="cls-38" d="M154.63,161.05a2.56,2.56,0,0,0,1.82-1.65h0A3.09,3.09,0,0,0,154.63,161.05Z"/><path class="cls-24" d="M121.63,180.21c-.83.17-1,1.09-1.67,1.46h0A1.52,1.52,0,0,0,121.63,180.21Z"/><path class="cls-39" d="M123.11,157.07c-.21-.65.15-1.65-1-1.75h0C121.88,156.23,122.51,156.64,123.11,157.07Z"/><path class="cls-40" d="M150.48,172.08a1.82,1.82,0,0,0-1.46-1.72h0A3.6,3.6,0,0,0,150.48,172.08Z"/><path class="cls-41" d="M141.22,168.21a2.79,2.79,0,0,0-1.91-.81A2,2,0,0,0,141.22,168.21Z"/><path class="cls-42" d="M123.94,178.71c-.86-.27-1.27.21-1.55.93h0A2.61,2.61,0,0,0,123.94,178.71Z"/><path class="cls-43" d="M125,167.49a1.31,1.31,0,0,0,1.08,1.12h0A1.58,1.58,0,0,0,125,167.49Z"/><path class="cls-44" d="M132.56,184.37c.46-.63,0-.88-.47-1.14h0C132.17,183.65,132.11,184.11,132.56,184.37Z"/><path class="cls-45" d="M143.71,183.57c.66.59,1.12.12,1.59-.31h0A2.92,2.92,0,0,0,143.71,183.57Z"/><path class="cls-46" d="M142.25,153.84a2.23,2.23,0,0,0-.75,1.63h0A1.55,1.55,0,0,0,142.25,153.84Z"/><path class="cls-26" d="M126.93,155.65c-.16-.39.19-.91-.33-1.22a1.25,1.25,0,0,0,.29,1.36l0-.14Z"/><path class="cls-47" d="M130.45,134.32c1.94.12,4.92-2.79,5-4.84s-2.64-4.86-4.5-4.92-4.74,2.83-4.71,4.88S128.58,134.21,130.45,134.32Z"/><path class="cls-48" d="M131.68,160.92c-1.2-.08-2.86,1.33-2.64,2.36s1.11,2.21,2.22,2.16a2.57,2.57,0,0,0,2.36-2.5A1.92,1.92,0,0,0,131.68,160.92Z"/><path class="cls-48" d="M150,157.19c1.24.07,2-.5,2-1.31,0-1.65-1.09-3.26-1.94-3.3s-2.28,1.46-2.32,2.49C147.73,156.63,148.7,157.12,150,157.19Z"/><path class="cls-49" d="M144.83,177.18a2.47,2.47,0,0,1,1.3-1.1h0c.67-1.48-.58-1.79-1.44-2.22a2.14,2.14,0,0,0-2.94.81,2,2,0,0,0,3.08,2.51Z"/><path class="cls-50" d="M123.86,187.84c.9-1.58,1.83.08,2.74,0h0l.63-.09a2.65,2.65,0,0,0,.27-.87,2,2,0,0,0-3.91-1C123.13,186.59,122.71,187.34,123.86,187.84Z"/><path class="cls-51" d="M114.68,154.27c-.81.11-1.7.24-1.89,1.17s.55,1.35,1.22,1.65a1.35,1.35,0,0,0,2-.69,1.1,1.1,0,0,1,.82-.67h0V155A2.25,2.25,0,0,0,114.68,154.27Z"/><path class="cls-52" d="M115.31,153.72a2.73,2.73,0,0,0-2.91,1.16c-.56.68-.25,1.29.2,1.84.62.78,1.27,1.6,2.45,1.29a2.18,2.18,0,0,0,1.77-2.28h0a1.1,1.1,0,0,0-.82.67,1.35,1.35,0,0,1-2,.69c-.67-.3-1.39-.8-1.22-1.65s1.08-1.06,1.89-1.17a2.25,2.25,0,0,1,2.15.76C117.1,153.69,116,153.91,115.31,153.72Z"/><path class="cls-53" d="M126.47,188.08a.35.35,0,0,0,.13-.27h0c-.91.11-1.84-1.55-2.74,0l.44.64h0Z"/><path class="cls-9" d="M126.6,187.81a.35.35,0,0,1-.13.27,1.55,1.55,0,0,1-1.83,1.15c1.66.89,2.17.59,2.59-1.51h0l-.63.09Z"/><path class="cls-54" d="M126.47,188.08l-2.17.4h0c.12.25.23.5.34.75A1.55,1.55,0,0,0,126.47,188.08Z"/><path class="cls-55" d="M144.83,177.18c.81.08,1.11-.44,1.3-1.1h0A2.47,2.47,0,0,0,144.83,177.18Z"/><text class="cls-56" transform="translate(268.11 98.73) rotate(-90)">G</text><text class="cls-56" transform="translate(268.11 84.57) rotate(-90)">N</text><text class="cls-56" transform="translate(268.11 69.59) rotate(-90)">D</text><text class="cls-56" transform="translate(243.42 96.99) rotate(-90)">V</text><text class="cls-56" transform="translate(243.42 83.09) rotate(-90)">C</text><text class="cls-56" transform="translate(243.42 69.91) rotate(-90)">C</text><text class="cls-56" transform="translate(100.26 103.94) rotate(-90)">D</text><text class="cls-56" transform="translate(100.26 89.32) rotate(-90)">C</text><text class="cls-56" transform="translate(100.26 76.13) rotate(-90)">K</text><text class="cls-56" transform="translate(100.26 61.9) rotate(-90)">I</text><text class="cls-56" transform="translate(75.37 103.82) rotate(-90)">D</text><text class="cls-56" transform="translate(75.37 89.2) rotate(-90)">I</text></g></g></svg>