<svg xmlns="http://www.w3.org/2000/svg" width="40" height="40" viewBox="0 0 335.67 280.13"><defs><style>.cls-1{fill:#004684;}.cls-2{fill:#d9d9d9;}.cls-12,.cls-3{fill:#fff;}.cls-4{fill:#ff2b2b;}.cls-5{fill:#2b2b2b;}.cls-6{fill:#ffc331;}.cls-7{fill:#cd9d2a;}.cls-8{fill:#ea4652;}.cls-9{fill:#fefefe;}.cls-10{fill:#f1eddd;}.cls-11{fill:#a6a6a6;}.cls-12{font-size:19.86px;font-family:Montserrat-Bold, Montserrat;font-weight:700;}</style></defs><title>Asset 1</title><g id="Layer_2" data-name="Layer 2"><g id="Layer_1-2" data-name="Layer 1"><path class="cls-1" d="M592.31,263.65a28.47,28.47,0,0,1,28.48-28.48l.55,0V151.94a18.25,18.25,0,0,0-18.21-18.22H520.39a40.94,40.94,0,1,1-81.88,0H359.43a18.25,18.25,0,0,0-18.22,18.22v92.9l.87,0A28.36,28.36,0,0,1,353,247v-56.6h73.35v13h.32v21.32h6.09v88.48h-6.09v21.37h-.32v12.71H353V299.58a28.36,28.36,0,0,1-11,2.19l-.87,0v93.88a18.25,18.25,0,0,0,18.22,18.22h80.64c0-.19,0-.37,0-.56A40.93,40.93,0,0,1,521.91,412v-77h-39.8V315.22h46v8.92h5.24v23.91a40.94,40.94,0,1,1,0,40.06v24.31H521.92c0,.29,0,.58,0,.87s0,.37,0,.56h81.2a18.25,18.25,0,0,0,18.21-18.22V292.11l-.55,0A28.47,28.47,0,0,1,592.31,263.65ZM528.1,305h-46V285.13h46Zm38.71-32.72H482V187.39h84.86ZM592.31,300H572.46V289.24h0V264.8h0V254h19.85Zm0-55.49H572.46V233.75h0V209.3h0V198.52h19.85Z" transform="translate(-313.6 -133.72)"/><path class="cls-1" d="M649.26,263.65a28.46,28.46,0,0,0-27.92-28.46l-.55,0a28.48,28.48,0,0,0,0,57l.55,0A28.45,28.45,0,0,0,649.26,263.65Zm-28.47,20.51a20.51,20.51,0,1,1,20.5-20.51A20.51,20.51,0,0,1,620.79,284.16Z" transform="translate(-313.6 -133.72)"/><path class="cls-1" d="M353,299.58v-9A20.51,20.51,0,1,1,353,256v-9a28.36,28.36,0,0,0-11-2.19l-.87,0a28.47,28.47,0,0,0,0,56.91l.87,0A28.36,28.36,0,0,0,353,299.58Z" transform="translate(-313.6 -133.72)"/><rect class="cls-2" x="112.79" y="179.49" width="0.32" height="21.36"/><rect class="cls-2" x="112.79" y="69.69" width="0.32" height="21.32"/><path class="cls-3" d="M569.05,409a40.94,40.94,0,1,0-35.71-61v40.06A40.92,40.92,0,0,0,569.05,409Zm-.12-76.52a35.58,35.58,0,1,1-35.58,35.58A35.57,35.57,0,0,1,568.93,332.5Z" transform="translate(-313.6 -133.72)"/><path class="cls-4" d="M568.93,403.66a35.58,35.58,0,1,0-35.58-35.58A35.57,35.57,0,0,0,568.93,403.66Zm.12-61.54A25.79,25.79,0,0,1,581,345a11,11,0,0,1,2.77-.36,11.24,11.24,0,0,1,10.18,16,26,26,0,1,1-24.89-18.58Z" transform="translate(-313.6 -133.72)"/><polygon class="cls-3" points="258.86 131.08 278.7 131.08 278.7 155.52 258.86 155.52 258.86 166.29 278.71 166.29 278.71 120.3 258.86 120.3 258.86 131.08"/><polygon class="cls-5" points="278.7 131.08 258.86 131.08 258.86 131.08 258.86 155.52 258.86 155.52 278.7 155.52 278.7 131.08"/><polygon class="cls-3" points="258.86 75.58 278.7 75.58 278.7 100.03 258.86 100.03 258.86 110.8 278.71 110.8 278.71 64.8 258.86 64.8 258.86 75.58"/><polygon class="cls-5" points="278.7 75.58 258.86 75.58 258.86 75.58 258.86 100.03 258.86 100.03 278.7 100.03 278.7 75.58"/><path class="cls-2" d="M482,272.25h84.86V187.39H482Zm42.51-68.38a25.86,25.86,0,1,1-25.86,25.86A25.86,25.86,0,0,1,524.46,203.87Z" transform="translate(-313.6 -133.72)"/><path class="cls-6" d="M524.46,255.59a25.86,25.86,0,1,0-25.86-25.86A25.85,25.85,0,0,0,524.46,255.59ZM500,224.88h19.08V206.75h10.79v18.13H549v10.78H529.88v18.13H519.09V235.66H500Z" transform="translate(-313.6 -133.72)"/><polygon class="cls-7" points="205.5 120.07 216.28 120.07 216.28 101.94 235.37 101.94 235.37 91.16 216.28 91.16 216.28 73.03 205.5 73.03 205.5 91.16 186.41 91.16 186.41 101.94 205.5 101.94 205.5 120.07"/><path class="cls-8" d="M569.05,394a26,26,0,0,0,24.89-33.34A11.25,11.25,0,1,1,581,345a26,26,0,1,0-11.94,49Z" transform="translate(-313.6 -133.72)"/><path class="cls-9" d="M572.5,355.93a11.26,11.26,0,1,0,11.26-11.26A11,11,0,0,0,581,345,11.24,11.24,0,0,0,572.5,355.93Z" transform="translate(-313.6 -133.72)"/><polygon class="cls-1" points="208.32 278.7 219.75 278.7 219.75 254.39 219.75 214.33 219.75 190.42 214.5 190.42 214.5 201.35 208.31 201.35 208.31 278.32 208.31 278.7 208.32 278.7"/><polygon class="cls-10" points="39.45 156.89 39.45 165.86 39.45 213.57 112.79 213.57 112.79 200.86 112.79 179.49 102.97 179.49 102.97 189.91 102.97 189.91 102.97 203.26 49.31 203.26 49.31 67.17 102.97 67.17 102.97 80.54 102.97 80.54 102.97 91.02 112.79 91.02 112.79 69.69 112.79 56.69 39.45 56.69 39.45 113.29 39.45 122.27 39.45 156.89"/><path class="cls-2" d="M405.52,323.63v0H395.38V214.26h21.18V200.89H362.91V337h53.65V323.63Zm-12.46,2.95H374.85V308.37h18.21Zm0-32.1H374.85V276.27h18.21Zm0-32.32H374.85V244h18.21Zm0-32.3H374.85V211.65h18.21Z" transform="translate(-313.6 -133.72)"/><rect class="cls-11" x="61.25" y="77.93" width="18.21" height="18.21"/><rect class="cls-11" x="61.25" y="110.23" width="18.21" height="18.21"/><rect class="cls-11" x="61.25" y="142.55" width="18.21" height="18.21"/><rect class="cls-11" x="61.25" y="174.65" width="18.21" height="18.21"/><polygon class="cls-1" points="102.97 91.02 102.97 179.49 112.79 179.49 113.11 179.49 119.21 179.49 119.21 91.02 113.11 91.02 112.79 91.02 102.97 91.02"/><polygon class="cls-10" points="102.97 91.02 102.97 80.54 102.97 80.54 91.93 80.54 91.93 189.91 102.97 189.91 102.97 189.91 102.97 179.49 102.97 91.02"/><polygon class="cls-2" points="81.78 80.54 81.78 189.93 91.93 189.93 91.93 189.91 91.93 80.54 91.93 80.54 81.78 80.54"/><polygon class="cls-3" points="179.28 151.41 168.51 151.41 168.51 171.25 191.49 171.25 179.28 171.25 179.28 151.41"/><rect class="cls-3" x="203.72" y="151.41" width="10.78" height="19.85"/><polygon class="cls-5" points="179.28 151.41 179.28 171.25 191.49 171.25 203.72 171.25 203.72 171.25 203.72 151.41 179.28 151.41"/><polygon class="cls-3" points="179.28 181.5 168.51 181.5 168.51 201.35 191.49 201.35 179.28 201.35 179.28 181.5"/><polygon class="cls-3" points="214.5 190.42 214.5 181.5 203.72 181.5 203.72 201.35 208.31 201.35 214.5 201.35 214.5 190.42"/><polygon class="cls-5" points="179.28 181.5 179.28 201.35 191.49 201.35 203.72 201.35 203.72 201.35 203.72 181.5 179.28 181.5"/><text class="cls-12" transform="translate(118.47 90.75)">G</text><text class="cls-12" transform="translate(133.22 90.75)">N</text><text class="cls-12" transform="translate(148.82 90.75)">D</text><text class="cls-12" transform="translate(118.92 122.97)">V</text><text class="cls-12" transform="translate(133.39 122.97)">C</text><text class="cls-12" transform="translate(147.13 122.97)">C</text><text class="cls-12" transform="translate(120.96 156.2)">N</text><text class="cls-12" transform="translate(136.57 156.2)">C</text><text class="cls-12" transform="translate(120.26 188.71)">S</text><text class="cls-12" transform="translate(133.04 188.71)">I</text><text class="cls-12" transform="translate(139.36 188.71)">G</text></g></g></svg>