<svg xmlns="http://www.w3.org/2000/svg" viewBox="0 0 280.13 330.3" width="25" height="25"><defs><style>.cls-1{fill:#004684;}.cls-2{fill:#fefefe;}.cls-3{fill:#fdfdfd;}.cls-4{fill:#fcfcfc;}.cls-5{fill:#f6f7f6;}.cls-6{fill:#fafbfb;}.cls-7{fill:#03447f;}.cls-8{fill:#073f74;}.cls-9{fill:#004182;}.cls-10{fill:#013d80;}.cls-11{fill:#033b71;}.cls-12{fill:#23445f;}.cls-13{fill:#103f6b;}.cls-14{fill:#0d3e6f;}.cls-15{fill:#1b3a55;}.cls-16{fill:#0f3e67;}.cls-17{fill:#0d3d66;}.cls-18{fill:#004688;}.cls-19{fill:#114c82;}.cls-20{fill:#134c81;}.cls-21{fill:#0f4b82;}.cls-22{fill:#064781;}.cls-23{fill:#064885;}.cls-24{fill:#fdfcf6;}.cls-25{fill:#f7f8f7;}.cls-26{fill:#144d81;}.cls-27{fill:#124d84;}.cls-28,.cls-31{fill:#fff;}.cls-29{fill:#e8e5d7;}.cls-30{fill:#c7d0d8;}.cls-31{font-size:19.86px;font-family:Montserrat-Bold, Montserrat;font-weight:700;}</style></defs><title>Asset 1</title><g id="Layer_2" data-name="Layer 2"><g id="Layer_1-2" data-name="Layer 1"><path class="cls-1" d="M592.31,263.65a28.47,28.47,0,0,1,28.48-28.48l.55,0V151.94a18.25,18.25,0,0,0-18.21-18.22H509.19a27.52,27.52,0,0,1,.29,4,28.48,28.48,0,1,1-57,0,27.52,27.52,0,0,1,.29-4H359.43a18.25,18.25,0,0,0-18.22,18.22v83.23a28.48,28.48,0,1,1,0,57v103.5a18.25,18.25,0,0,0,18.22,18.22h93.23c-.09-.92-.14-1.86-.14-2.8a28.48,28.48,0,1,1,57,0c0,.94-.05,1.88-.14,2.8h93.79a18.25,18.25,0,0,0,18.21-18.22V292.11l-.55,0A28.47,28.47,0,0,1,592.31,263.65ZM403.84,244.31a34,34,0,0,0,.16,13.95l.83.06c.47-.62.34-1.62,1.2-2a.37.37,0,0,1,.19-.08l-.19.08c-.67.51,1.55,2.76-1.19,2h0c.12,1.79,2,1.9,2.86,3,1.05.12,1.07,1.19,1.63,1.77,4.38,5.67,2.4,14.52-3.21,18.13-3.73,2.4-9,1.68-13.13-1.21-2.51-1.75-3.75-4.17-4.84-6.81h0a4.79,4.79,0,0,1-.09-4.76c.5-3.94,3-6.57,5.88-9a3.54,3.54,0,0,0,1.37-3.07c-.05-3.36.07-6.71.07-10.06,0-1.66-.67-2.63-2.53-2.06h0c-.54.85-1.39.54-2.15.6-1.3.29-1.74,1.36-2.2,2.41a3.61,3.61,0,0,1-.91,2.44,1.19,1.19,0,0,1-.81,1h0a3.89,3.89,0,0,1-2,1.45h0c-2.55,1.25-5,1.53-7.36-.52-2.44-1.82-3.83-6.43-2.69-8.91,1.05-2.28,5.62-4.43,8.37-3.79a9.74,9.74,0,0,1,2.87,1.38c1.64,1,3.26.64,4.76-.1,2-1,1.1-3.13,1.33-4.7.2-1.31-1.21-2-2.62-2.1-1.8-.07-3.67.2-5.26-1h0l-1.32-.53h0a1.53,1.53,0,0,1-1.55-1.37l-.88-2-.09-.91h0c-.49-4,.77-6.28,4.32-7.75h0a3.49,3.49,0,0,1,3.94-.5l.22,0,.17.13h0c4,1.28,5.41,3.11,5.42,7.16,0,.86,0,1.73,0,2.6-.07,1.94.61,3.06,2.77,2.63l.13-.1.13.09h0c1.17-.53,1.13-1.74,1.59-2.69,2-4.12,1.7-8-1.14-11.61h0c-1-1.15-1.24-2.31-.08-3.5.94-4.35,5.64-6.27,9.42-5.35h0c1-.52,1.57-.05,1.92.88a8.6,8.6,0,0,1,3.11,6.27h0c.19-.21.38-.41.56-.62.07.72.78,1.63-.57,1.93-.69,3.37-3.59,4.68-6,6.46h0a4.6,4.6,0,0,1-1.54,2l-.79,1.48h0c.13,1.78-1,3.43-.53,5.25,2.09,1.25,2.73,3.44,3.33,5.55s1.57,2.53,3.49,1.83,3.6-1.78,5.66-1.82h0c.9-.45,1.48,0,1.95.7,1.31,1.06,3.27,1.37,3.84,3.3h0c1,.65,1,1.65.89,2.66,1.13,3.64-2.93,7.53-6.61,7.9a7.1,7.1,0,0,1-7.76-6.34c-.38-2.48-2.39-3.34-4.33-1.86Zm-30,2.63v-2.65A3.45,3.45,0,0,1,373.83,246.94Zm192.6,123.54H542V346.35a69.42,69.42,0,0,1-129.79-24.11,19.84,19.84,0,0,1,1.42-39.38,4.19,4.19,0,0,1,.93-8.09,4.07,4.07,0,0,1-.21-1.27,4.16,4.16,0,0,1,1.18-2.91,4.2,4.2,0,1,1,7,1.46,4.1,4.1,0,0,1,.27,1.45,4.19,4.19,0,0,1-3.67,4.16,4.08,4.08,0,0,1,.22,1.27,4.21,4.21,0,0,1-2.71,3.92c.62,0,1.23.11,1.84.21A69.45,69.45,0,0,1,542,280V263.31h24.45Z" transform="translate(-341.21 -109.23)"/><path class="cls-1" d="M382.76,221.83l.13-.15c-.19-.07-.4-.16-.64-.27Z" transform="translate(-341.21 -109.23)"/><path class="cls-2" d="M408.17,246.17a7.1,7.1,0,0,0,7.76,6.34c3.68-.37,7.74-4.26,6.61-7.9-.3-.89-.6-1.77-.89-2.66h0c-.57-1.93-2.53-2.24-3.84-3.3l-1.95-.7h0c-2.06,0-3.8,1.14-5.66,1.82s-2.92.17-3.49-1.83-1.24-4.3-3.33-5.55c-1.13.39-2.26.09-2.42-1-.18-1.27.15-2.9,1.6-3.29.72-.19.85-.72,1.34-1-.31-1.15,1.18-2.75-1.44-3.4-1.27-.32-1,.29-1.09.63-.44,2-.76,4-1.17,6-.32,1.55-1.08,2.4-2.77,1.5h0l-.13-.09-.13.1c-3.2,1.21-5.43.48-4.51-3.25.43-1.76,0-3.47-.17-5.19s-1.64-2.08-2.79-2.61c-.78-.36-1-.59-.71-1.34h0l-.17-.13-.22,0c-1.27.5-2.49,1.43-3.94.5h0c.05,1.07.92,2.82-1.75,1.79l-.13.15c1.56,1.36,1.46,2.14-.31,2.44-2,.34-1,2.51-2.13,3.37l.09.91q4.81,0,3.75,3.9c1.59,1.19,3.46.92,5.26,1,1.41.05,2.82.79,2.62,2.1-.23,1.57.69,3.71-1.33,4.7-1.5.74-3.12,1.15-4.76.1a9.74,9.74,0,0,0-2.87-1.38c-2.75-.64-7.32,1.51-8.37,3.79-1.14,2.48.25,7.09,2.69,8.91a49,49,0,0,0,7.36.52h0c.55-.65.18-2.6,2-1.45h0a1.19,1.19,0,0,0,.81-1c.1-.89-.89-2.18.91-2.44.46-1.05.9-2.12,2.2-2.41a2.31,2.31,0,0,1,2.15-.6h0c1.86-.57,2.53.4,2.53,2.06,0,3.35-.12,6.7-.07,10.06a3.54,3.54,0,0,1-1.37,3.07c-2.85,2.38-5.38,5-5.88,9l.09,4.76c1.09,2.64,2.33,5.06,4.84,6.81,4.17,2.89,9.4,3.61,13.13,1.21,5.61-3.61,7.59-12.46,3.21-18.13a2.07,2.07,0,0,1-1.63-1.77c-.88-1.05-2.74-1.16-2.86-3h0v0l-.83-.06a2.27,2.27,0,0,1-1.08-2.22c0-3.4,0-6.8,0-10.19,0-.63-.19-1.52.93-1.54C405.78,242.83,407.79,243.69,408.17,246.17Zm7-2.81c1.08,0,2.46.89,2.38,2.15a2.25,2.25,0,0,1-2.49,2c-.94-.08-2.23,0-2.09-1.43C413,244.41,413.92,243.38,415.19,243.36Zm-32.54,6.71c-.69,1-1.08-1-1.74-1.44-.2-.23-.39-.47-.59-.71-.75-.91-1.53-1.93-.75-3.07s2.07-.75,3.21-.45c1.19-.44,1.31.28,1.39,1.2A7.19,7.19,0,0,1,382.65,250.07Zm9-22.06c-1.58-.86-2.39.9-3.7,1a3.46,3.46,0,0,1-3.49-1.56,1.37,1.37,0,0,1,.74-2.14h0l0,0c-.33-1.68.85-1.87,2-1.85.08-1.12-1-.67-1.29-1.33,1.44-.47,2.34-.64,2.94,1.34.27.91.59,3,2.7,2.77.42-.06.55.51.57.9S391.92,228.14,391.67,228Zm3.09,32.85a.92.92,0,0,1-.89.59s-.06-.25-.11-.44a3.14,3.14,0,0,1,.7-.51C394.75,260.39,394.92,260.59,394.76,260.86Zm4.6-24.23a3.33,3.33,0,0,0,.7-.07h0c1.07-.46,1.22.32,1.42,1.05.6,2-1,2.46-2.22,2.89s-2-.57-2.12-1.59C396.94,237.42,397.72,236.52,399.36,236.63Zm4,31.77a3.19,3.19,0,0,1-.5,4.81h0c-1.18,1.58-2.43,2.91-4.56,1.43h0l-.63-.53h0c-1-.15-1-1-1.13-1.74-1.85-1.49-1.42-3.5,1.16-5.29.44-.25.68-.87,1.33-.71h0C401.29,265.2,402.32,267.23,403.33,268.4Z" transform="translate(-341.21 -109.23)"/><path class="cls-3" d="M400.2,230.34c.41-2,.73-4,1.17-6,.08-.34-.18-1,1.09-.63,2.62.65,1.13,2.25,1.44,3.4h0l.79-1.48a2.15,2.15,0,0,1,1.54-2h0c2.41-1.78,5.31-3.09,6-6.46v-1.31h0a8.6,8.6,0,0,0-3.11-6.27l-1.92-.88h0c-3.78-.92-8.48,1-9.42,5.35l.08,3.5h0c2.84,3.63,3.09,7.49,1.14,11.61-.46.95-.42,2.16-1.59,2.69h0C399.12,232.74,399.88,231.89,400.2,230.34Zm5-16.66c.74.14,2,1,1.84,2.08a2.29,2.29,0,0,1-2.43,2.15c-1.12-.07-1.48-1-1.76-2.12C403.63,215.1,403.8,213.42,405.18,213.68Z" transform="translate(-341.21 -109.23)"/><path class="cls-4" d="M389.7,220.8c1.15.53,2.62,1,2.79,2.61s.6,3.43.17,5.19c-.92,3.73,1.31,4.46,4.51,3.25-2.16.43-2.84-.69-2.77-2.63,0-.87,0-1.74,0-2.6,0-4.05-1.39-5.88-5.42-7.16h0C388.67,220.21,388.92,220.44,389.7,220.8Z" transform="translate(-341.21 -109.23)"/><path class="cls-4" d="M382.45,224.27c1.77-.3,1.87-1.08.31-2.44l-.51-.42c.24.11.45.2.64.27,2.67,1,1.8-.72,1.75-1.79-3.55,1.47-4.81,3.73-4.32,7.75h0C381.44,226.78,380.43,224.61,382.45,224.27Z" transform="translate(-341.21 -109.23)"/><path class="cls-3" d="M403.9,227.14c-.49.23-.62.76-1.34,1-1.45.39-1.78,2-1.6,3.29.16,1.1,1.29,1.4,2.42,1-.44-1.82.66-3.47.53-5.25h0Z" transform="translate(-341.21 -109.23)"/><path class="cls-4" d="M380.41,228.55l.88,2a3,3,0,0,1,1.55,1.37h0l1.32.53h0Q385.23,228.52,380.41,228.55Z" transform="translate(-341.21 -109.23)"/><path class="cls-5" d="M402.91,245.85c0,3.39,0,6.79,0,10.19a2.27,2.27,0,0,0,1.08,2.22,34,34,0,0,1-.16-13.95h0C402.72,244.33,402.92,245.22,402.91,245.85Z" transform="translate(-341.21 -109.23)"/><path class="cls-6" d="M377.4,251.66c2.32,2.05,4.81,1.77,7.36.52h0A49,49,0,0,1,377.4,251.66Z" transform="translate(-341.21 -109.23)"/><path class="cls-4" d="M388.6,219.38a3.49,3.49,0,0,0-3.94.5h0C386.11,220.81,387.33,219.88,388.6,219.38Z" transform="translate(-341.21 -109.23)"/><path class="cls-7" d="M406,256.31c-.86.39-.73,1.39-1.2,2v0C407.58,259.07,405.36,256.82,406,256.31Z" transform="translate(-341.21 -109.23)"/><path class="cls-7" d="M406,256.31l.19-.08A.37.37,0,0,0,406,256.31Z" transform="translate(-341.21 -109.23)"/><path class="cls-8" d="M397.8,214c-1.16,1.19-.91,2.35.08,3.5h0Z" transform="translate(-341.21 -109.23)"/><path class="cls-9" d="M388.15,273.17h0l-.09-4.76A4.79,4.79,0,0,0,388.15,273.17Z" transform="translate(-341.21 -109.23)"/><path class="cls-6" d="M384.76,252.18a3.89,3.89,0,0,0,2-1.45h0C384.94,249.58,385.31,251.53,384.76,252.18Z" transform="translate(-341.21 -109.23)"/><path class="cls-10" d="M373.83,246.94a3.45,3.45,0,0,0,0-2.65Z" transform="translate(-341.21 -109.23)"/><path class="cls-6" d="M387.59,249.72a3.61,3.61,0,0,0,.91-2.44C386.7,247.54,387.69,248.83,387.59,249.72Z" transform="translate(-341.21 -109.23)"/><path class="cls-11" d="M412.24,217.15c1.35-.3.64-1.21.57-1.93-.18.21-.37.41-.56.62h0Z" transform="translate(-341.21 -109.23)"/><path class="cls-5" d="M409.33,263.06c-.56-.58-.58-1.65-1.63-1.77A2.07,2.07,0,0,0,409.33,263.06Z" transform="translate(-341.21 -109.23)"/><path class="cls-12" d="M422.54,244.61c.08-1,.1-2-.89-2.66h0C421.94,242.84,422.24,243.72,422.54,244.61Z" transform="translate(-341.21 -109.23)"/><path class="cls-13" d="M390.7,244.87c.76-.06,1.61.25,2.15-.6h0A2.31,2.31,0,0,0,390.7,244.87Z" transform="translate(-341.21 -109.23)"/><path class="cls-14" d="M404.7,225.66a4.6,4.6,0,0,0,1.54-2h0A2.15,2.15,0,0,0,404.7,225.66Z" transform="translate(-341.21 -109.23)"/><path class="cls-15" d="M417.81,238.65c-.47-.74-1.05-1.15-1.95-.7h0Z" transform="translate(-341.21 -109.23)"/><path class="cls-16" d="M381.29,230.55a1.53,1.53,0,0,0,1.55,1.37h0A3,3,0,0,0,381.29,230.55Z" transform="translate(-341.21 -109.23)"/><path class="cls-17" d="M409.14,209.57c-.35-.93-.91-1.4-1.92-.88h0Z" transform="translate(-341.21 -109.23)"/><path class="cls-18" d="M402,273.21a1.58,1.58,0,0,1-1.33-.88c1.42-.3,3.1-.39,2.68-2.49s-1.67.33-2.31-.47a1.73,1.73,0,0,1-.48-1.44c-.49-.52-1.43-.63-1.51-1.56h0c-.65-.16-.89.46-1.33.71.58.49,1.18,1.21.24,1.67-1.72.84-1.21,2.32-1.36,3.63a2.1,2.1,0,0,1,1.09,1.73h0l.63.53h0C399.78,274.91,400.84,274,402,273.21Zm-1.3-2.94a.82.82,0,0,1,.49.4c.11.27-.12.44-.37.37a1.75,1.75,0,0,1-.48-.35C400.23,270.32,400.39,270.17,400.65,270.27Zm-2.16.81a3.42,3.42,0,0,1-.83-.58c.37-.14.56-.28.71-.24s.67.22.71.4C399.16,271,398.79,271.17,398.49,271.08Z" transform="translate(-341.21 -109.23)"/><path class="cls-4" d="M391.61,226.18c-2.11.26-2.43-1.86-2.7-2.77-.6-2-1.5-1.81-2.94-1.34.27.66,1.37.21,1.29,1.33-1.16,0-2.34.17-2,1.85l.84-.42c1.17-.53,2.35-.77,3.17.5a1.83,1.83,0,0,1-.27,2.41,2.37,2.37,0,0,1-3.06.26,1.69,1.69,0,0,1-.71-2.72h0a1.37,1.37,0,0,0-.74,2.14A3.46,3.46,0,0,0,388,229c1.31-.07,2.12-1.83,3.7-1,.25.13.53-.52.51-.93S392,226.12,391.61,226.18Z" transform="translate(-341.21 -109.23)"/><path class="cls-19" d="M415.08,247.49a2.25,2.25,0,0,0,2.49-2c.08-1.26-1.3-2.16-2.38-2.15-1.27,0-2.2,1-2.2,2.7C412.85,247.53,414.14,247.41,415.08,247.49Z" transform="translate(-341.21 -109.23)"/><path class="cls-20" d="M382.78,244.4h0c-1.14-.3-2.41-.72-3.21.45s0,2.16.75,3.07c.2.24.39.48.59.71C383.56,247.63,383.94,246.78,382.78,244.4Z" transform="translate(-341.21 -109.23)"/><path class="cls-21" d="M399.26,240.5c1.24-.43,2.82-.91,2.22-2.89l-1.42-1.05a3.33,3.33,0,0,1-.7.07c-1.64-.11-2.42.79-2.22,2.28C397.28,239.93,398.09,240.9,399.26,240.5Z" transform="translate(-341.21 -109.23)"/><path class="cls-22" d="M399,266.37h0c.08.93,1,1,1.51,1.56,1.05.19.77.81.48,1.44.64.8,1.89-1.58,2.31.47s-1.26,2.19-2.68,2.49a1.58,1.58,0,0,0,1.33.88c.29-.35.59-.14.88,0h0a3.19,3.19,0,0,0,.5-4.81C402.32,267.23,401.29,265.2,399,266.37Z" transform="translate(-341.21 -109.23)"/><path class="cls-6" d="M382.78,244.4h0c1.16,2.38.78,3.23-1.87,4.23.66.48,1,2.46,1.74,1.44a7.19,7.19,0,0,0,1.52-4.47C384.09,244.68,384,244,382.78,244.4Z" transform="translate(-341.21 -109.23)"/><path class="cls-22" d="M396.55,272.38c.15-1.31-.36-2.79,1.36-3.63.94-.46.34-1.18-.24-1.67-2.58,1.79-3,3.8-1.16,5.29h0Z" transform="translate(-341.21 -109.23)"/><path class="cls-23" d="M402,273.21c-1.11.77-2.17,1.7-3.68,1.43h0c2.13,1.48,3.38.15,4.56-1.43h0C402.54,273.07,402.24,272.86,402,273.21Z" transform="translate(-341.21 -109.23)"/><path class="cls-24" d="M394.46,260.5a3.14,3.14,0,0,0-.7.51c.05.19.07.43.11.44a.92.92,0,0,0,.89-.59C394.92,260.59,394.75,260.39,394.46,260.5Z" transform="translate(-341.21 -109.23)"/><path class="cls-23" d="M396.55,272.38l0,0h0c.12.75.09,1.59,1.13,1.74h0A2.1,2.1,0,0,0,396.55,272.38Z" transform="translate(-341.21 -109.23)"/><path class="cls-25" d="M400.06,236.56h0l1.42,1.05C401.28,236.88,401.13,236.1,400.06,236.56Z" transform="translate(-341.21 -109.23)"/><path class="cls-26" d="M404.59,217.91a2.29,2.29,0,0,0,2.43-2.15c.15-1.12-1.1-1.94-1.84-2.08-1.38-.26-1.55,1.42-2.35,2.11C403.11,216.88,403.47,217.84,404.59,217.91Z" transform="translate(-341.21 -109.23)"/><path class="cls-23" d="M399.08,270.66c0-.18-.45-.33-.71-.4s-.34.1-.71.24a3.42,3.42,0,0,0,.83.58C398.79,271.17,399.16,271,399.08,270.66Z" transform="translate(-341.21 -109.23)"/><path class="cls-22" d="M400.77,271c.25.07.48-.1.37-.37a.82.82,0,0,0-.49-.4c-.26-.1-.42.05-.36.42A1.75,1.75,0,0,0,400.77,271Z" transform="translate(-341.21 -109.23)"/><path class="cls-23" d="M400.51,267.93a1.73,1.73,0,0,0,.48,1.44C401.28,268.74,401.56,268.12,400.51,267.93Z" transform="translate(-341.21 -109.23)"/><path class="cls-27" d="M385.93,228a2.37,2.37,0,0,0,3.06-.26,1.83,1.83,0,0,0,.27-2.41c-.82-1.27-2-1-3.17-.5l-.84.42,0,0h0A1.69,1.69,0,0,0,385.93,228Z" transform="translate(-341.21 -109.23)"/><path class="cls-1" d="M481,166.18a28.48,28.48,0,0,0,28.48-28.48,27.52,27.52,0,0,0-.29-4,28.47,28.47,0,0,0-56.38,0,27.52,27.52,0,0,0-.29,4A28.48,28.48,0,0,0,481,166.18Zm0-49a20.51,20.51,0,1,1-20.51,20.51A20.51,20.51,0,0,1,481,117.19Z" transform="translate(-341.21 -109.23)"/><path class="cls-1" d="M481,382.57a28.48,28.48,0,0,0-28.48,28.48c0,.94.05,1.88.14,2.8a28.48,28.48,0,0,0,56.68,0c.09-.92.14-1.86.14-2.8A28.48,28.48,0,0,0,481,382.57Zm0,49a20.51,20.51,0,1,1,20.51-20.51A20.51,20.51,0,0,1,481,431.56Z" transform="translate(-341.21 -109.23)"/><path class="cls-1" d="M418.42,283.06c-.61-.1-1.22-.17-1.84-.21a4.17,4.17,0,0,1-1.5.29,4.22,4.22,0,0,1-1.47-.28,19.84,19.84,0,0,0-1.42,39.38,70,70,0,0,1-.61-9.09A69.21,69.21,0,0,1,418.42,283.06Z" transform="translate(-341.21 -109.23)"/><path class="cls-28" d="M481,243.73a69.42,69.42,0,1,0,61,102.62V280A69.39,69.39,0,0,0,481,243.73Zm-.2,129.74a60.32,60.32,0,1,1,60.32-60.32A60.31,60.31,0,0,1,480.8,373.47Z" transform="translate(-341.21 -109.23)"/><path class="cls-29" d="M480.8,252.83a60.32,60.32,0,1,0,60.32,60.32A60.31,60.31,0,0,0,480.8,252.83Zm.2,104.34a44,44,0,1,1,20.25-83.11,19,19,0,0,1,22,26.57A44,44,0,0,1,481,357.17Z" transform="translate(-341.21 -109.23)"/><path class="cls-30" d="M505.94,311.62a19.07,19.07,0,0,1-4.69-37.56,44,44,0,1,0,22,26.57A19.05,19.05,0,0,1,505.94,311.62Z" transform="translate(-341.21 -109.23)"/><path class="cls-2" d="M486.85,292.54a19.07,19.07,0,0,0,36.35,8.09,18.89,18.89,0,0,0,1.82-8.09,19.09,19.09,0,0,0-38.17,0Z" transform="translate(-341.21 -109.23)"/><path class="cls-1" d="M418.54,269.3a4.18,4.18,0,0,1,3.93,2.75,4.23,4.23,0,1,0-7-1.46A4.15,4.15,0,0,1,418.54,269.3Z" transform="translate(-341.21 -109.23)"/><path class="cls-1" d="M419.07,277.66a4.19,4.19,0,0,0,3.67-4.16,4.1,4.1,0,0,0-.27-1.45,4.2,4.2,0,0,0-8.14,1.45,4.07,4.07,0,0,0,.21,1.27,4.71,4.71,0,0,1,.54,0A4.19,4.19,0,0,1,419.07,277.66Z" transform="translate(-341.21 -109.23)"/><path class="cls-1" d="M416.58,282.85a4.21,4.21,0,0,0,2.71-3.92,4.08,4.08,0,0,0-.22-1.27,4.19,4.19,0,0,0-4-2.94,4.71,4.71,0,0,0-.54,0,4.2,4.2,0,1,0,2,8.08Z" transform="translate(-341.21 -109.23)"/><polygon class="cls-1" points="200.77 170.72 200.77 237.12 200.77 261.25 225.21 261.25 225.21 154.09 200.77 154.09 200.77 170.72"/><text class="cls-31" transform="translate(199.68 90.37) rotate(-90)">G</text><text class="cls-31" transform="translate(199.68 75.61) rotate(-90)">N</text><text class="cls-31" transform="translate(199.68 60.01) rotate(-90)">D</text><text class="cls-31" transform="translate(165.32 89.3) rotate(-90)">V</text><text class="cls-31" transform="translate(165.32 74.82) rotate(-90)">C</text><text class="cls-31" transform="translate(165.32 61.08) rotate(-90)">C</text><text class="cls-31" transform="translate(127.23 89.65) rotate(-90)">N</text><text class="cls-31" transform="translate(127.23 74.04) rotate(-90)">C</text><text class="cls-31" transform="translate(89.48 90.5) rotate(-90)">S</text><text class="cls-31" transform="translate(89.48 77.71) rotate(-90)">I</text><text class="cls-31" transform="translate(89.48 71.4) rotate(-90)">G</text></g></g></svg>