<svg xmlns="http://www.w3.org/2000/svg" width="40" height="40" viewBox="0 0 280.13 328.09"><defs><style>.cls-1{font-size:19.86px;font-family:Montserrat-Bold, Montserrat;font-weight:700;}.cls-1,.cls-2,.cls-6{fill:#fff;}.cls-2{font-size:18px;font-family:Montserrat-Regular, Montserrat;}.cls-3{fill:#004684;}.cls-4{fill:#a6a6a6;}.cls-5{fill:#2b2b2b;}.cls-7{fill:#e8e5d7;}.cls-8{fill:#c7d0d8;}.cls-9{fill:#fefefe;}.cls-10{fill:#f1eddd;}.cls-11{fill:#d9d9d9;}</style></defs><title>Asset 1</title><g id="Layer_2" data-name="Layer 2"><g id="Layer_1-2" data-name="Layer 1"><text class="cls-1" transform="translate(96.48 118.19)">G</text><text class="cls-1" transform="translate(111.23 118.19)">N</text><text class="cls-1" transform="translate(126.84 118.19)">D</text><text class="cls-1" transform="translate(96.93 150.42)">V</text><text class="cls-1" transform="translate(111.41 150.42)">C</text><text class="cls-1" transform="translate(125.15 150.42)">C</text><text class="cls-1" transform="translate(98.97 183.65)">N</text><text class="cls-1" transform="translate(114.58 183.65)">C</text><text class="cls-1" transform="translate(98.27 216.16)">S</text><text class="cls-1" transform="translate(111.06 216.16)">I</text><text class="cls-1" transform="translate(117.37 216.16)">G</text><text class="cls-2" transform="translate(199.56 50.15)">L</text><text class="cls-2" transform="translate(209.16 50.15)">I</text><text class="cls-2" transform="translate(214.6 50.15)">G</text><text class="cls-2" transform="translate(228.07 50.15)">H</text><text class="cls-2" transform="translate(242.31 50.15)">T</text><path class="cls-3" d="M140,127.3a40.93,40.93,0,0,1,40.94-40.94h.56V5.73a18.25,18.25,0,0,0-18.22-18.22H69.33a28.59,28.59,0,0,1,.31,4.16A28.48,28.48,0,0,1,41.16,20.15,28.48,28.48,0,0,1,12.68-8.33,28.59,28.59,0,0,1,13-12.49h-93.4A18.25,18.25,0,0,0-98.63,5.73V86.36a40.76,40.76,0,0,1,21.31,6V50.23H-6.69V78.85h2.74v4.44H-.51v85.2H-6.69v32.82H-77.32v-39a40.76,40.76,0,0,1-21.31,6v81.19a18.25,18.25,0,0,0,18.22,18.21H13.1a28.48,28.48,0,1,1,56.12,0h94.06a18.25,18.25,0,0,0,18.22-18.21v-81.2h-.56A40.93,40.93,0,0,1,140,127.3ZM127.51,98.84a40.94,40.94,0,1,1,41-40.94A40.93,40.93,0,0,1,127.51,98.84ZM58.75,72.42h0V61.64H78.6v46H58.76V96.87h0ZM129.16,148h-14.4V159h14.4v6.71h-14.4v11.46h14.4v6.72h-14.4v10.72h14.4v6.71h-14.4v.32H66.07v-.32H48.65v-6.71H66.07V183.93H48.65v-6.72H66.07V165.75H48.65V159H66.07V148H48.65v-6.71H66.07v-1.16h48.69v1.16h14.4Z" transform="translate(98.63 36.81)"/><path class="cls-3" d="M41.16,20.15A28.48,28.48,0,0,0,69.64-8.33a28.59,28.59,0,0,0-.31-4.16A28.47,28.47,0,0,0,41.16-36.81,28.47,28.47,0,0,0,13-12.49a28.59,28.59,0,0,0-.31,4.16A28.48,28.48,0,0,0,41.16,20.15Zm0-49A20.51,20.51,0,0,1,61.67-8.33,20.51,20.51,0,0,1,41.16,12.18,20.51,20.51,0,0,1,20.65-8.33,20.51,20.51,0,0,1,41.16-28.84Z" transform="translate(98.63 36.81)"/><path class="cls-3" d="M41.16,234.33a28.44,28.44,0,1,0,28.48,28.48A28.48,28.48,0,0,0,41.16,234.33Zm0,49a20.51,20.51,0,1,1,20.51-20.51A20.51,20.51,0,0,1,41.16,283.32Z" transform="translate(98.63 36.81)"/><rect class="cls-4" x="147.28" y="195.85" width="17.42" height="6.71"/><rect class="cls-4" x="213.39" y="195.85" width="14.4" height="6.71"/><rect class="cls-4" x="147.28" y="178.06" width="17.42" height="6.71"/><rect class="cls-4" x="213.39" y="178.06" width="14.4" height="6.71"/><rect class="cls-4" x="213.39" y="214.02" width="14.4" height="6.71"/><rect class="cls-4" x="147.28" y="214.02" width="17.42" height="6.71"/><rect class="cls-4" x="147.28" y="231.46" width="17.42" height="6.71"/><rect class="cls-4" x="213.39" y="231.46" width="14.4" height="6.71"/><polygon class="cls-5" points="213.39 176.9 164.69 176.9 164.69 178.06 164.69 184.77 164.69 195.85 164.69 202.56 164.69 214.03 164.69 220.74 164.69 231.46 164.69 238.17 164.69 238.49 213.39 238.49 213.39 238.17 213.39 231.46 213.39 220.74 213.39 214.03 213.39 202.56 213.39 195.85 213.39 184.77 213.39 178.06 213.39 176.9"/><polygon class="cls-6" points="177.23 133.68 157.38 133.68 157.38 144.45 177.23 144.45 177.23 98.45 157.38 98.45 157.38 109.23 177.23 109.23 177.23 133.68"/><polygon class="cls-5" points="177.23 133.68 177.23 109.23 157.38 109.23 157.38 109.23 157.38 133.68 157.38 133.68 177.23 133.68"/><path class="cls-6" d="M127.51,17a40.94,40.94,0,1,0,41,40.94A40.93,40.93,0,0,0,127.51,17Zm-.12,76.52A35.58,35.58,0,1,1,163,57.9,35.57,35.57,0,0,1,127.39,93.48Z" transform="translate(98.63 36.81)"/><path class="cls-7" d="M127.39,22.32A35.58,35.58,0,1,0,163,57.9,35.57,35.57,0,0,0,127.39,22.32ZM153.48,57.9a26,26,0,1,1-14-23,11,11,0,0,1,2.77-.36,11.22,11.22,0,0,1,10.18,16A25.8,25.8,0,0,1,153.48,57.9Z" transform="translate(98.63 36.81)"/><path class="cls-8" d="M142.22,57a11.25,11.25,0,0,1-2.77-22.15,26,26,0,1,0,13,15.66A11.23,11.23,0,0,1,142.22,57Z" transform="translate(98.63 36.81)"/><path class="cls-9" d="M142.22,34.49a11,11,0,0,0-2.77.36,11.21,11.21,0,1,0,2.77-.36Z" transform="translate(98.63 36.81)"/><rect class="cls-3" x="91.94" y="115.66" width="2.74" height="4.44"/><polygon class="cls-10" points="21.31 238.12 91.94 238.12 91.94 205.3 82.48 205.3 82.48 228.19 30.8 228.19 30.8 97.14 82.48 97.14 82.48 120.1 91.94 120.1 91.94 115.66 91.94 87.04 21.31 87.04 21.31 129.14 21.31 199.08 21.31 238.12"/><path class="cls-11" d="M-16.15,178.52H-26.79v0h-9.77V73.2h20.41V83.29h0v-23H-67.82V191.38h51.67V168.49h0ZM-43.1,150.45H-56.32V132.92h17.53v17.53H-43.1Zm0-31.12H-56.32V101.79h17.53v17.54H-43.1Zm4.31-31.11H-56.32V70.69h17.53Zm-17.53,93.15V163.83h17.53v17.54H-56.32Z" transform="translate(98.63 36.81)"/><polygon class="cls-4" points="55.53 107.5 42.31 107.5 42.31 125.03 55.53 125.03 59.79 125.03 59.84 125.03 59.84 107.5 59.79 107.5 55.53 107.5"/><polygon class="cls-4" points="59.84 156.14 59.84 138.6 59.79 138.6 55.53 138.6 42.31 138.6 42.31 156.14 55.53 156.14 59.79 156.14 59.84 156.14"/><polygon class="cls-4" points="59.84 187.26 59.84 169.72 59.79 169.72 55.53 169.72 42.31 169.72 42.31 187.26 55.53 187.26 59.79 187.26 59.84 187.26"/><polygon class="cls-4" points="59.79 218.18 59.84 218.18 59.84 200.64 59.79 200.64 55.53 200.64 42.31 200.64 42.31 218.18 55.53 218.18 59.79 218.18"/><polygon class="cls-3" points="82.48 120.1 82.47 120.1 82.47 205.3 82.48 205.3 91.94 205.3 98.12 205.3 98.12 120.1 94.68 120.1 91.94 120.1 82.48 120.1"/><polygon class="cls-10" points="82.47 110.01 71.84 110.01 71.84 215.33 82.47 215.33 82.47 205.3 82.47 120.1 82.47 110.01"/><polygon class="cls-11" points="71.84 110.01 71.79 110.01 71.53 110.01 67.53 110.01 62.07 110.01 62.07 215.35 67.53 215.35 71.79 215.35 71.84 215.35 71.84 215.33 71.84 110.01"/><text class="cls-1" transform="translate(98.63 120.15)">G</text><text class="cls-1" transform="translate(113.38 120.15)">N</text><text class="cls-1" transform="translate(128.98 120.15)">D</text><text class="cls-1" transform="translate(99.08 152.38)">V</text><text class="cls-1" transform="translate(113.55 152.38)">C</text><text class="cls-1" transform="translate(127.29 152.38)">C</text><text class="cls-1" transform="translate(101.12 185.6)">N</text><text class="cls-1" transform="translate(116.73 185.6)">C</text><text class="cls-1" transform="translate(100.42 218.12)">S</text><text class="cls-1" transform="translate(113.2 218.12)">I</text><text class="cls-1" transform="translate(119.52 218.12)">G</text><text class="cls-2" transform="translate(201.7 52.11)">L</text><text class="cls-2" transform="translate(211.31 52.11)">I</text><text class="cls-2" transform="translate(216.74 52.11)">G</text><text class="cls-2" transform="translate(230.22 52.11)">H</text><text class="cls-2" transform="translate(244.45 52.11)">T</text></g></g></svg>