<svg xmlns="http://www.w3.org/2000/svg" width="200" height="40" viewBox="0 0 991.26 199.41"><defs><style>.cls-1{fill:#171616;}.cls-2{fill:#2b2b2b;}.cls-3{fill:#332b2a;}.cls-4{fill:#2e2d2d;}.cls-5{fill:#e8e5d7;}</style></defs><title>Asset 1</title><g id="Layer_2" data-name="Layer 2"><g id="Layer_1-2" data-name="Layer 1"><path class="cls-1" d="M-139.74,129.81h-14A4.24,4.24,0,0,0-158,134v128.2a4.24,4.24,0,0,0,4.24,4.23h14a4.22,4.22,0,0,0,3.45-1.79V131.59A4.24,4.24,0,0,0-139.74,129.81Z" transform="translate(158 -92.92)"/><path class="cls-2" d="M-115.07,134.49a4.21,4.21,0,0,1,.79-2.44v-.59h-22V265.72h22v-.59a4.21,4.21,0,0,1-.79-2.44Z" transform="translate(158 -92.92)"/><path class="cls-1" d="M-96.81,130.26h-14a4.24,4.24,0,0,0-3.45,1.79,4.21,4.21,0,0,0-.79,2.44v128.2a4.21,4.21,0,0,0,.79,2.44,4.24,4.24,0,0,0,3.45,1.79h14a4.24,4.24,0,0,0,3.45-1.79V132A4.26,4.26,0,0,0-96.81,130.26Z" transform="translate(158 -92.92)"/><path class="cls-2" d="M-72.14,134.49a4.21,4.21,0,0,1,.79-2.44v-.59h-22V265.72h22v-.59a4.21,4.21,0,0,1-.79-2.44Z" transform="translate(158 -92.92)"/><path class="cls-1" d="M-53.88,130.26h-14a4.24,4.24,0,0,0-3.45,1.79,4.21,4.21,0,0,0-.79,2.44v128.2a4.21,4.21,0,0,0,.79,2.44,4.24,4.24,0,0,0,3.45,1.79h14a4.24,4.24,0,0,0,3.45-1.79V132A4.26,4.26,0,0,0-53.88,130.26Z" transform="translate(158 -92.92)"/><path class="cls-2" d="M-29.19,134.5a4.23,4.23,0,0,1,.77-2.43v-.61h-22V265.72h22v-.27a4.25,4.25,0,0,1-.77-2.43Z" transform="translate(158 -92.92)"/><path class="cls-1" d="M633.45,131.3a4.2,4.2,0,0,0-2.75-1H-24.95a4.24,4.24,0,0,0-3.47,1.81,4.23,4.23,0,0,0-.77,2.43V263a4.25,4.25,0,0,0,.77,2.43,4.24,4.24,0,0,0,3.47,1.81H630.7a4.2,4.2,0,0,0,2.75-1ZM19.62,149.18H42v0h162.5v0h19.1c12.33,0,22.35,4.38,22.35,9.73s-10,10.32-22.35,10.32H19.62c-12.33,0-22.35-5-22.35-10.35S7.29,149.18,19.62,149.18Zm204,98.34H19.62c-12.33,0-22.35-5-22.35-10.34s10-9.71,22.35-9.71H42v0h162.5v0h19.1c12.33,0,22.35,4.38,22.35,9.73S235.9,247.52,223.57,247.52Zm1.69-40.5H21.31C9,207-1,202-1,196.68S9,187,21.31,187H43.66v0h162.5v0h19.1c12.33,0,22.35,4.38,22.35,9.73S237.59,207,225.26,207Zm66-48.14c0-5.35,10-9.7,22.35-9.7H336v0h162.5v0h19.1c12.33,0,22.35,4.38,22.35,9.73s-10,10.32-22.35,10.32h-204C301.29,169.23,291.27,164.24,291.27,158.88Zm231,88.64H318.31c-12.33,0-22.35-5-22.35-10.34s10-9.71,22.35-9.71h22.35v0h162.5v0h19.1c12.33,0,22.35,4.38,22.35,9.73S534.59,247.52,522.26,247.52ZM523,207H319.06c-12.33,0-22.35-5-22.35-10.34s10-9.71,22.35-9.71h22.35v0h162.5v0H523c12.33,0,22.35,4.38,22.35,9.73S535.34,207,523,207Z" transform="translate(158 -92.92)"/><path class="cls-3" d="M19.62,169.23h204c12.33,0,22.35-5,22.35-10.32s-10-9.73-22.35-9.73h-19.1v0H42v0H19.62c-12.33,0-22.35,4.35-22.35,9.7S7.29,169.23,19.62,169.23ZM221.35,158a3.06,3.06,0,0,1,.65-1,3,3,0,0,1,1-.65,3,3,0,0,1,2.29,0,3,3,0,0,1,0,5.54,3,3,0,0,1-2.29,0,3,3,0,0,1-1-.65,3.06,3.06,0,0,1-.65-1,3.12,3.12,0,0,1,0-2.3Zm-19.12,0a3,3,0,0,1,1.62-1.62,3,3,0,0,1,2.3,0,3,3,0,0,1,1.62,1.62,3,3,0,0,1,0,2.3,3,3,0,0,1-1.62,1.62,3,3,0,0,1-2.3,0,3,3,0,0,1-1.62-1.62,3,3,0,0,1,0-2.3Zm-18.75,0a3,3,0,0,1,1.62-1.62,3,3,0,0,1,2.3,0A3,3,0,0,1,189,158a3,3,0,0,1,0,2.3,3,3,0,0,1-1.62,1.62,3,3,0,0,1-2.3,0,3,3,0,0,1-1.62-1.62,3,3,0,0,1,0-2.3Zm-20.25,0a3,3,0,0,1,1.62-1.62,3,3,0,0,1,2.3,0,3,3,0,0,1,1.62,1.62,3,3,0,0,1,0,2.3,3,3,0,0,1-1.62,1.62,3,3,0,0,1-2.3,0,3,3,0,0,1-1.62-1.62,3,3,0,0,1,0-2.3Zm-18.75,0a3,3,0,0,1,1.62-1.62,3,3,0,0,1,2.3,0A3,3,0,0,1,150,158a3,3,0,0,1,0,2.3,3,3,0,0,1-1.62,1.62,3,3,0,0,1-2.3,0,3,3,0,0,1-1.62-1.62,3,3,0,0,1,0-2.3Zm-18,0a3,3,0,0,1,1.62-1.62,3,3,0,0,1,2.3,0A3,3,0,0,1,132,158a3,3,0,0,1,0,2.3,3,3,0,0,1-1.62,1.62,3,3,0,0,1-2.3,0,3,3,0,0,1-1.62-1.62,3,3,0,0,1,0-2.3Zm-17.25,0a3,3,0,0,1,1.62-1.62,3,3,0,0,1,2.3,0,3,3,0,0,1,1.62,1.62,3,3,0,0,1,0,2.3,3,3,0,0,1-1.62,1.62,3,3,0,0,1-2.3,0,3,3,0,0,1-1.62-1.62,3,3,0,0,1,0-2.3ZM13.6,158a3.27,3.27,0,0,1,.6-.91,1.3,1.3,0,0,1-.18-.62c0-1.35,2.49-2.43,5.6-2.43H97.13c3.05,0,5.54,1,5.54,2.4s-2.49,2.44-5.6,2.44H97a2.48,2.48,0,0,1,0,.27,3,3,0,0,1-.23,1.15,3,3,0,0,1-1.62,1.62,3,3,0,0,1-2.3,0,3,3,0,0,1-1.62-1.62,3,3,0,0,1-.23-1.15,2.48,2.48,0,0,1,0-.27H78.22a2.48,2.48,0,0,1,0,.27,3,3,0,0,1-.23,1.15,3,3,0,0,1-1.62,1.62,3,3,0,0,1-2.3,0,3,3,0,0,1-1.62-1.62,3,3,0,0,1-.23-1.15,2.48,2.48,0,0,1,0-.27H59.47a2.48,2.48,0,0,1,0,.27,3,3,0,0,1-.23,1.15,3,3,0,0,1-1.62,1.62,3,3,0,0,1-2.3,0,3,3,0,0,1-1.62-1.62,3,3,0,0,1-.23-1.15,2.48,2.48,0,0,1,0-.27H42v0H40.35a2.42,2.42,0,0,1,0,.25,3,3,0,0,1-.23,1.15,3.06,3.06,0,0,1-.65,1,3,3,0,0,1-1,.65,3,3,0,0,1-2.29,0,3,3,0,0,1-1-.65,3.06,3.06,0,0,1-.65-1,3,3,0,0,1-.22-1.15,2.29,2.29,0,0,1,0-.25h-15a1.9,1.9,0,0,1,0,.25,3,3,0,0,1-.23,1.15,3.06,3.06,0,0,1-.65,1,3,3,0,0,1-1,.65,3,3,0,0,1-2.29,0,3,3,0,0,1-1-.65,3.06,3.06,0,0,1-.65-1,3.12,3.12,0,0,1,0-2.3Z" transform="translate(158 -92.92)"/><path class="cls-3" d="M15.23,156.36a3,3,0,0,1,2.29,0,3,3,0,0,1,1,.65,2.83,2.83,0,0,1,.85,1.87h15a2.8,2.8,0,0,1,.2-.9,3.06,3.06,0,0,1,.65-1,3,3,0,0,1,1-.65,3,3,0,0,1,2.29,0,3,3,0,0,1,1,.65,3.06,3.06,0,0,1,.65,1,2.8,2.8,0,0,1,.2.9H42v0H53.53a2.68,2.68,0,0,1,.2-.88,3,3,0,0,1,1.62-1.62,3,3,0,0,1,2.3,0A3,3,0,0,1,59.27,158a2.68,2.68,0,0,1,.2.88H72.28a2.68,2.68,0,0,1,.2-.88,3,3,0,0,1,1.62-1.62,3,3,0,0,1,2.3,0A3,3,0,0,1,78,158a2.68,2.68,0,0,1,.2.88H91a2.68,2.68,0,0,1,.2-.88,3,3,0,0,1,1.62-1.62,3,3,0,0,1,2.3,0A3,3,0,0,1,96.77,158a2.68,2.68,0,0,1,.2.88h.1c3.11,0,5.6-1.08,5.6-2.44s-2.49-2.4-5.54-2.4H19.62c-3.11,0-5.6,1.08-5.6,2.43a1.3,1.3,0,0,0,.18.62l.05-.06A3,3,0,0,1,15.23,156.36Z" transform="translate(158 -92.92)"/><path class="cls-1" d="M14.25,161.25a3,3,0,0,0,1,.65,3,3,0,0,0,2.29,0,3,3,0,0,0,1-.65,3.06,3.06,0,0,0,.65-1,3,3,0,0,0,.23-1.15,1.9,1.9,0,0,0,0-.25A2.83,2.83,0,0,0,18.5,157a3,3,0,0,0-1-.65,3,3,0,0,0-2.29,0,3,3,0,0,0-1,.65l-.05.06a3.27,3.27,0,0,0-.6.91,3.12,3.12,0,0,0,0,2.3A3.06,3.06,0,0,0,14.25,161.25Z" transform="translate(158 -92.92)"/><path class="cls-1" d="M39.5,157a3,3,0,0,0-1-.65,3,3,0,0,0-2.29,0,3,3,0,0,0-1,.65,3.06,3.06,0,0,0-.65,1,2.8,2.8,0,0,0-.2.9,2.29,2.29,0,0,0,0,.25,3,3,0,0,0,.22,1.15,3.06,3.06,0,0,0,.65,1,3,3,0,0,0,1,.65,3,3,0,0,0,2.29,0,3,3,0,0,0,1-.65,3.06,3.06,0,0,0,.65-1,3,3,0,0,0,.23-1.15,2.42,2.42,0,0,0,0-.25,2.8,2.8,0,0,0-.2-.9A3.06,3.06,0,0,0,39.5,157Z" transform="translate(158 -92.92)"/><path class="cls-1" d="M58.62,157a2.9,2.9,0,0,0-1-.65,3,3,0,0,0-2.3,0A3,3,0,0,0,53.73,158a2.68,2.68,0,0,0-.2.88,2.48,2.48,0,0,0,0,.27,3,3,0,0,0,.23,1.15,3,3,0,0,0,1.62,1.62,3,3,0,0,0,2.3,0,3,3,0,0,0,1.62-1.62,3,3,0,0,0,.23-1.15,2.48,2.48,0,0,0,0-.27,2.68,2.68,0,0,0-.2-.88A2.9,2.9,0,0,0,58.62,157Z" transform="translate(158 -92.92)"/><path class="cls-1" d="M77.37,157a2.9,2.9,0,0,0-1-.65,3,3,0,0,0-2.3,0A3,3,0,0,0,72.48,158a2.68,2.68,0,0,0-.2.88,2.48,2.48,0,0,0,0,.27,3,3,0,0,0,.23,1.15,3,3,0,0,0,1.62,1.62,3,3,0,0,0,2.3,0A3,3,0,0,0,78,160.28a3,3,0,0,0,.23-1.15,2.48,2.48,0,0,0,0-.27A2.68,2.68,0,0,0,78,158,2.9,2.9,0,0,0,77.37,157Z" transform="translate(158 -92.92)"/><path class="cls-1" d="M96.12,157a2.9,2.9,0,0,0-1-.65,3,3,0,0,0-2.3,0A3,3,0,0,0,91.23,158a2.68,2.68,0,0,0-.2.88,2.48,2.48,0,0,0,0,.27,3,3,0,0,0,.23,1.15,3,3,0,0,0,1.62,1.62,3,3,0,0,0,2.3,0,3,3,0,0,0,1.62-1.62,3,3,0,0,0,.23-1.15,2.48,2.48,0,0,0,0-.27,2.68,2.68,0,0,0-.2-.88A2.9,2.9,0,0,0,96.12,157Z" transform="translate(158 -92.92)"/><path class="cls-1" d="M109.88,161.25a2.9,2.9,0,0,0,1,.65,3,3,0,0,0,2.3,0,3,3,0,0,0,1.62-1.62,3,3,0,0,0,0-2.3,3,3,0,0,0-1.62-1.62,3,3,0,0,0-2.3,0,3,3,0,0,0-1.62,1.62,3,3,0,0,0,0,2.3A2.9,2.9,0,0,0,109.88,161.25Z" transform="translate(158 -92.92)"/><path class="cls-1" d="M127.13,161.25a2.9,2.9,0,0,0,1,.65,3,3,0,0,0,2.3,0,3,3,0,0,0,1.62-1.62,3,3,0,0,0,0-2.3,3,3,0,0,0-1.62-1.62,3,3,0,0,0-2.3,0,3,3,0,0,0-1.62,1.62,3,3,0,0,0,0,2.3A2.9,2.9,0,0,0,127.13,161.25Z" transform="translate(158 -92.92)"/><path class="cls-1" d="M145.13,161.25a2.9,2.9,0,0,0,1,.65,3,3,0,0,0,2.3,0,3,3,0,0,0,1.62-1.62,3,3,0,0,0,0-2.3,3,3,0,0,0-1.62-1.62,3,3,0,0,0-2.3,0,3,3,0,0,0-1.62,1.62,3,3,0,0,0,0,2.3A2.9,2.9,0,0,0,145.13,161.25Z" transform="translate(158 -92.92)"/><path class="cls-1" d="M163.88,161.25a2.9,2.9,0,0,0,1,.65,3,3,0,0,0,2.3,0,3,3,0,0,0,1.62-1.62,3,3,0,0,0,0-2.3,3,3,0,0,0-1.62-1.62,3,3,0,0,0-2.3,0,3,3,0,0,0-1.62,1.62,3,3,0,0,0,0,2.3A2.9,2.9,0,0,0,163.88,161.25Z" transform="translate(158 -92.92)"/><path class="cls-1" d="M184.13,161.25a2.9,2.9,0,0,0,1,.65,3,3,0,0,0,2.3,0,3,3,0,0,0,1.62-1.62,3,3,0,0,0,0-2.3,3,3,0,0,0-1.62-1.62,3,3,0,0,0-2.3,0,3,3,0,0,0-1.62,1.62,3,3,0,0,0,0,2.3A2.9,2.9,0,0,0,184.13,161.25Z" transform="translate(158 -92.92)"/><path class="cls-1" d="M202.88,161.25a2.9,2.9,0,0,0,1,.65,3,3,0,0,0,2.3,0,3,3,0,0,0,1.62-1.62,3,3,0,0,0,0-2.3,3,3,0,0,0-1.62-1.62,3,3,0,0,0-2.3,0,3,3,0,0,0-1.62,1.62,3,3,0,0,0,0,2.3A2.9,2.9,0,0,0,202.88,161.25Z" transform="translate(158 -92.92)"/><path class="cls-1" d="M222,161.25a3,3,0,0,0,1,.65,3,3,0,0,0,2.29,0,3,3,0,0,0,0-5.54,3,3,0,0,0-2.29,0,3,3,0,0,0-1,.65,3.06,3.06,0,0,0-.65,1,3.12,3.12,0,0,0,0,2.3A3.06,3.06,0,0,0,222,161.25Z" transform="translate(158 -92.92)"/><path class="cls-3" d="M225.26,187h-19.1v0H43.66v0H21.31C9,187-1,191.32-1,196.68S9,207,21.31,207h204c12.33,0,22.35-5,22.35-10.32S237.59,187,225.26,187Zm-123.64,9.34a2.48,2.48,0,0,1,.07.61,3,3,0,0,1-.23,1.15,3,3,0,0,1-1.62,1.62,3,3,0,0,1-2.3,0,3,3,0,0,1-1-.65,2.9,2.9,0,0,1-.65-1,3,3,0,0,1-.23-1.15,2.48,2.48,0,0,1,0-.27H82.91a2.48,2.48,0,0,1,0,.27,3,3,0,0,1-.23,1.15,3,3,0,0,1-1.62,1.62,3,3,0,0,1-2.3,0,3,3,0,0,1-1-.65,2.9,2.9,0,0,1-.65-1,3,3,0,0,1-.23-1.15,2.48,2.48,0,0,1,0-.27H64.16a2.48,2.48,0,0,1,0,.27,3,3,0,0,1-.23,1.15,3,3,0,0,1-1.62,1.62,3,3,0,0,1-2.3,0,3,3,0,0,1-1-.65,2.9,2.9,0,0,1-.65-1,3,3,0,0,1-.23-1.15,2.48,2.48,0,0,1,0-.27H45a2.48,2.48,0,0,1,0,.27,3,3,0,0,1-.23,1.15,2.9,2.9,0,0,1-.65,1,3,3,0,0,1-1,.65,2.8,2.8,0,0,1-1.14.23,2.85,2.85,0,0,1-1.15-.23,3,3,0,0,1-1.63-1.62,3,3,0,0,1-.22-1.15,1.94,1.94,0,0,1,0-.24H24a2,2,0,0,1,0,.24,3,3,0,0,1-.23,1.15,2.9,2.9,0,0,1-.65,1,3,3,0,0,1-1,.65,2.8,2.8,0,0,1-1.14.23,2.85,2.85,0,0,1-1.15-.23,3,3,0,0,1-1.63-1.62,3,3,0,0,1-.14-1.82c-1.48-.43-2.44-1.17-2.44-2,0-1.35,2.49-2.43,5.6-2.43H98.82c3.05,0,5.54,1.05,5.54,2.41C104.36,195.11,103.27,195.88,101.62,196.31Zm17.84,1.76a3,3,0,0,1-1.62,1.62,3,3,0,0,1-2.3,0,3,3,0,0,1-1-.65,2.9,2.9,0,0,1-.65-1,3,3,0,0,1,3.92-3.92,2.9,2.9,0,0,1,1,.65,3,3,0,0,1,.65,3.27Zm17.25,0a3,3,0,0,1-1.62,1.62,3,3,0,0,1-2.3,0,3,3,0,0,1-1-.65,2.9,2.9,0,0,1-.65-1,3,3,0,0,1,3.92-3.92,2.9,2.9,0,0,1,1,.65,3,3,0,0,1,.65,3.27Zm18,0a3,3,0,0,1-1.62,1.62,3,3,0,0,1-2.3,0,3,3,0,0,1-1-.65,2.9,2.9,0,0,1-.65-1,3,3,0,0,1,3.92-3.92,2.9,2.9,0,0,1,1,.65,3,3,0,0,1,.65,3.27Zm18.75,0a3,3,0,0,1-1.62,1.62,3,3,0,0,1-2.3,0,3,3,0,0,1-1-.65,2.9,2.9,0,0,1-.65-1,3,3,0,0,1,3.92-3.92,2.9,2.9,0,0,1,1,.65,3,3,0,0,1,.65,3.27Zm20.25,0a3,3,0,0,1-1.62,1.62,3,3,0,0,1-2.3,0,3,3,0,0,1-1-.65,2.9,2.9,0,0,1-.65-1,3,3,0,0,1,3.92-3.92,2.9,2.9,0,0,1,1,.65,3,3,0,0,1,.65,3.27Zm18.75,0a3,3,0,0,1-1.62,1.62,3,3,0,0,1-2.3,0,3,3,0,0,1-1-.65,2.9,2.9,0,0,1-.65-1,3,3,0,0,1,3.92-3.92,2.9,2.9,0,0,1,1,.65,3,3,0,0,1,.65,3.27Zm19.13,0a2.9,2.9,0,0,1-.65,1,3,3,0,0,1-1,.65,2.8,2.8,0,0,1-1.14.23,2.85,2.85,0,0,1-1.15-.23,3,3,0,0,1-1.63-1.62,3.12,3.12,0,0,1,0-2.3,3.18,3.18,0,0,1,.65-1,3,3,0,0,1,2.13-.88,3,3,0,0,1,1.14.23,3,3,0,0,1,1,.65,3,3,0,0,1,.65,3.27Z" transform="translate(158 -92.92)"/><path class="cls-3" d="M98.82,191.81H21.31c-3.11,0-5.6,1.08-5.6,2.43,0,.84,1,1.58,2.44,2a2.9,2.9,0,0,1,.14-.48,3.18,3.18,0,0,1,.65-1,3,3,0,0,1,2.13-.88,3,3,0,0,1,1.14.23,3,3,0,0,1,1,.65,3,3,0,0,1,.65,1,2.86,2.86,0,0,1,.2.91H39.09a2.82,2.82,0,0,1,.85-1.88,3,3,0,0,1,2.13-.88,3,3,0,0,1,1.14.23,3,3,0,0,1,1,.65,3,3,0,0,1,.65,1,3.4,3.4,0,0,1,.2.88H58.22a2.74,2.74,0,0,1,.2-.88,3,3,0,0,1,3.92-1.62,2.9,2.9,0,0,1,1,.65,3,3,0,0,1,.65,1,2.74,2.74,0,0,1,.2.88H77a2.74,2.74,0,0,1,.2-.88,3,3,0,0,1,3.92-1.62,2.9,2.9,0,0,1,1,.65,3,3,0,0,1,.65,1,2.74,2.74,0,0,1,.2.88H95.72a2.74,2.74,0,0,1,.2-.88,3,3,0,0,1,3.92-1.62,2.9,2.9,0,0,1,1,.65,3,3,0,0,1,.65,1,2.76,2.76,0,0,1,.16.54c1.65-.43,2.74-1.2,2.74-2.09C104.36,192.86,101.87,191.81,98.82,191.81Z" transform="translate(158 -92.92)"/><path class="cls-1" d="M23.19,194.8a3,3,0,0,0-1-.65,3,3,0,0,0-1.14-.23,3,3,0,0,0-2.13.88,3.18,3.18,0,0,0-.65,1,2.9,2.9,0,0,0-.14.48,3,3,0,0,0,.14,1.82,3,3,0,0,0,1.63,1.62,2.85,2.85,0,0,0,1.15.23,2.8,2.8,0,0,0,1.14-.23,3,3,0,0,0,1-.65,2.9,2.9,0,0,0,.65-1,3,3,0,0,0,.23-1.15,2,2,0,0,0,0-.24,2.86,2.86,0,0,0-.2-.91A3,3,0,0,0,23.19,194.8Z" transform="translate(158 -92.92)"/><path class="cls-1" d="M44.19,194.8a3,3,0,0,0-1-.65,3,3,0,0,0-1.14-.23,3,3,0,0,0-2.13.88,2.82,2.82,0,0,0-.85,1.88,1.94,1.94,0,0,0,0,.24,3,3,0,0,0,.22,1.15,3,3,0,0,0,1.63,1.62,2.85,2.85,0,0,0,1.15.23,2.8,2.8,0,0,0,1.14-.23,3,3,0,0,0,1-.65,2.9,2.9,0,0,0,.65-1,3,3,0,0,0,.23-1.15,2.48,2.48,0,0,0,0-.27,3.4,3.4,0,0,0-.2-.88A3,3,0,0,0,44.19,194.8Z" transform="translate(158 -92.92)"/><path class="cls-1" d="M63.31,194.8a2.9,2.9,0,0,0-1-.65,3,3,0,0,0-3.92,1.62,2.74,2.74,0,0,0-.2.88,2.48,2.48,0,0,0,0,.27,3,3,0,0,0,.23,1.15,2.9,2.9,0,0,0,.65,1,3,3,0,0,0,1,.65,3,3,0,0,0,2.3,0A3,3,0,0,0,64,198.07a3,3,0,0,0,.23-1.15,2.48,2.48,0,0,0,0-.27,2.74,2.74,0,0,0-.2-.88A3,3,0,0,0,63.31,194.8Z" transform="translate(158 -92.92)"/><path class="cls-1" d="M82.06,194.8a2.9,2.9,0,0,0-1-.65,3,3,0,0,0-3.92,1.62,2.74,2.74,0,0,0-.2.88,2.48,2.48,0,0,0,0,.27,3,3,0,0,0,.23,1.15,2.9,2.9,0,0,0,.65,1,3,3,0,0,0,1,.65,3,3,0,0,0,2.3,0,3,3,0,0,0,1.62-1.62,3,3,0,0,0,.23-1.15,2.48,2.48,0,0,0,0-.27,2.74,2.74,0,0,0-.2-.88A3,3,0,0,0,82.06,194.8Z" transform="translate(158 -92.92)"/><path class="cls-1" d="M100.81,194.8a2.9,2.9,0,0,0-1-.65,3,3,0,0,0-3.92,1.62,2.74,2.74,0,0,0-.2.88,2.48,2.48,0,0,0,0,.27,3,3,0,0,0,.23,1.15,2.9,2.9,0,0,0,.65,1,3,3,0,0,0,1,.65,3,3,0,0,0,2.3,0,3,3,0,0,0,1.62-1.62,3,3,0,0,0,.23-1.15,2.48,2.48,0,0,0-.07-.61,2.76,2.76,0,0,0-.16-.54A3,3,0,0,0,100.81,194.8Z" transform="translate(158 -92.92)"/><path class="cls-1" d="M118.81,194.8a2.9,2.9,0,0,0-1-.65,3,3,0,0,0-3.92,3.92,2.9,2.9,0,0,0,.65,1,3,3,0,0,0,1,.65,3,3,0,0,0,2.3,0,3,3,0,0,0,1.62-1.62,3,3,0,0,0-.65-3.27Z" transform="translate(158 -92.92)"/><path class="cls-1" d="M136.06,194.8a2.9,2.9,0,0,0-1-.65,3,3,0,0,0-3.92,3.92,2.9,2.9,0,0,0,.65,1,3,3,0,0,0,1,.65,3,3,0,0,0,2.3,0,3,3,0,0,0,1.62-1.62,3,3,0,0,0-.65-3.27Z" transform="translate(158 -92.92)"/><path class="cls-1" d="M154.06,194.8a2.9,2.9,0,0,0-1-.65,3,3,0,0,0-3.92,3.92,2.9,2.9,0,0,0,.65,1,3,3,0,0,0,1,.65,3,3,0,0,0,2.3,0,3,3,0,0,0,1.62-1.62,3,3,0,0,0-.65-3.27Z" transform="translate(158 -92.92)"/><path class="cls-1" d="M172.81,194.8a2.9,2.9,0,0,0-1-.65,3,3,0,0,0-3.92,3.92,2.9,2.9,0,0,0,.65,1,3,3,0,0,0,1,.65,3,3,0,0,0,2.3,0,3,3,0,0,0,1.62-1.62,3,3,0,0,0-.65-3.27Z" transform="translate(158 -92.92)"/><path class="cls-1" d="M193.06,194.8a2.9,2.9,0,0,0-1-.65,3,3,0,0,0-3.92,3.92,2.9,2.9,0,0,0,.65,1,3,3,0,0,0,1,.65,3,3,0,0,0,2.3,0,3,3,0,0,0,1.62-1.62,3,3,0,0,0-.65-3.27Z" transform="translate(158 -92.92)"/><path class="cls-1" d="M211.81,194.8a2.9,2.9,0,0,0-1-.65,3,3,0,0,0-3.92,3.92,2.9,2.9,0,0,0,.65,1,3,3,0,0,0,1,.65,3,3,0,0,0,2.3,0,3,3,0,0,0,1.62-1.62,3,3,0,0,0-.65-3.27Z" transform="translate(158 -92.92)"/><path class="cls-1" d="M230.94,194.8a3,3,0,0,0-1-.65,3,3,0,0,0-1.14-.23,3,3,0,0,0-2.13.88,3.18,3.18,0,0,0-.65,1,3.12,3.12,0,0,0,0,2.3,3,3,0,0,0,1.63,1.62,2.85,2.85,0,0,0,1.15.23,2.8,2.8,0,0,0,1.14-.23,3,3,0,0,0,1-.65,2.9,2.9,0,0,0,.65-1,3,3,0,0,0-.65-3.27Z" transform="translate(158 -92.92)"/><path class="cls-4" d="M517.57,169.23c12.33,0,22.35-5,22.35-10.32s-10-9.73-22.35-9.73h-19.1v0H336v0H313.62c-12.33,0-22.35,4.35-22.35,9.7s10,10.35,22.35,10.35ZM515.35,158a3.06,3.06,0,0,1,.65-1,3,3,0,0,1,1-.65,3,3,0,0,1,2.29,0A3,3,0,0,1,520.9,158a3,3,0,0,1,0,2.3,3,3,0,0,1-1.63,1.62,3,3,0,0,1-2.29,0,3,3,0,0,1-1-.65,3.06,3.06,0,0,1-.65-1,3.12,3.12,0,0,1,0-2.3Zm-19.12,0a3,3,0,0,1,1.62-1.62,3,3,0,0,1,2.3,0,3,3,0,0,1,1.62,1.62,3,3,0,0,1,0,2.3,3,3,0,0,1-1.62,1.62,3,3,0,0,1-2.3,0,3,3,0,0,1-1.62-1.62,3,3,0,0,1,0-2.3Zm-18.75,0a3,3,0,0,1,1.62-1.62,3,3,0,0,1,2.3,0A3,3,0,0,1,483,158a3,3,0,0,1,0,2.3,3,3,0,0,1-1.62,1.62,3,3,0,0,1-2.3,0,3,3,0,0,1-1.62-1.62,3,3,0,0,1,0-2.3Zm-20.25,0a3,3,0,0,1,1.62-1.62,3,3,0,0,1,2.3,0,3,3,0,0,1,1.62,1.62,3,3,0,0,1,0,2.3,3,3,0,0,1-1.62,1.62,3,3,0,0,1-2.3,0,3,3,0,0,1-1.62-1.62,3,3,0,0,1,0-2.3Zm-18.75,0a3,3,0,0,1,1.62-1.62,3,3,0,0,1,2.3,0A3,3,0,0,1,444,158a3,3,0,0,1,0,2.3,3,3,0,0,1-1.62,1.62,3,3,0,0,1-2.3,0,3,3,0,0,1-1.62-1.62,3,3,0,0,1,0-2.3Zm-18,0a3,3,0,0,1,1.62-1.62,3,3,0,0,1,2.3,0A3,3,0,0,1,426,158a3,3,0,0,1,0,2.3,3,3,0,0,1-1.62,1.62,3,3,0,0,1-2.3,0,3,3,0,0,1-1.62-1.62,3,3,0,0,1,0-2.3Zm-17.25,0a3,3,0,0,1,1.62-1.62,3,3,0,0,1,2.3,0,3,3,0,0,1,1.62,1.62,3,3,0,0,1,0,2.3,3,3,0,0,1-1.62,1.62,3,3,0,0,1-2.3,0,3,3,0,0,1-1.62-1.62,3,3,0,0,1,0-2.3Zm-90.08,2.3a3,3,0,0,1-1.63,1.62,3,3,0,0,1-2.29,0,3,3,0,0,1-1-.65,3.06,3.06,0,0,1-.65-1,3.12,3.12,0,0,1,0-2.3,3.27,3.27,0,0,1,.6-.91,1.3,1.3,0,0,1-.18-.62c0-1.35,2.49-2.43,5.6-2.43h77.51c3.05,0,5.54,1,5.54,2.4s-2.49,2.44-5.6,2.44H391a2.48,2.48,0,0,1,0,.27,3,3,0,0,1-.23,1.15,3,3,0,0,1-1.62,1.62,3,3,0,0,1-2.3,0,3,3,0,0,1-1.62-1.62,3,3,0,0,1-.23-1.15,2.48,2.48,0,0,1,0-.27H372.22a2.48,2.48,0,0,1,0,.27,3,3,0,0,1-.23,1.15,3,3,0,0,1-1.62,1.62,3,3,0,0,1-2.3,0,3,3,0,0,1-1.62-1.62,3,3,0,0,1-.23-1.15,2.48,2.48,0,0,1,0-.27H353.47a2.48,2.48,0,0,1,0,.27,3,3,0,0,1-.23,1.15,3,3,0,0,1-1.62,1.62,3,3,0,0,1-2.3,0,3,3,0,0,1-1.62-1.62,3,3,0,0,1-.23-1.15,2.48,2.48,0,0,1,0-.27H336v0h-1.62a2.42,2.42,0,0,1,0,.25,3.23,3.23,0,0,1-.23,1.15,3,3,0,0,1-1.63,1.62,3,3,0,0,1-2.29,0,3,3,0,0,1-1-.65,3.06,3.06,0,0,1-.65-1,3,3,0,0,1-.22-1.15,2.29,2.29,0,0,1,0-.25h-15a1.9,1.9,0,0,1,0,.25A3.23,3.23,0,0,1,313.15,160.28Z" transform="translate(158 -92.92)"/><path class="cls-4" d="M309.23,156.36a3,3,0,0,1,2.29,0,3,3,0,0,1,1.63,1.62,3.09,3.09,0,0,1,.2.9h15a2.8,2.8,0,0,1,.2-.9,3.06,3.06,0,0,1,.65-1,3,3,0,0,1,1-.65,3,3,0,0,1,2.29,0,3,3,0,0,1,1.63,1.62,2.8,2.8,0,0,1,.2.9H336v0h11.56a2.68,2.68,0,0,1,.2-.88,3,3,0,0,1,1.62-1.62,3,3,0,0,1,2.3,0,3,3,0,0,1,1.62,1.62,2.68,2.68,0,0,1,.2.88h12.81a2.68,2.68,0,0,1,.2-.88,3,3,0,0,1,1.62-1.62,3,3,0,0,1,2.3,0A3,3,0,0,1,372,158a2.68,2.68,0,0,1,.2.88H385a2.68,2.68,0,0,1,.2-.88,3,3,0,0,1,1.62-1.62,3,3,0,0,1,2.3,0,3,3,0,0,1,1.62,1.62,2.68,2.68,0,0,1,.2.88h.1c3.11,0,5.6-1.08,5.6-2.44s-2.49-2.4-5.54-2.4H313.62c-3.11,0-5.6,1.08-5.6,2.43a1.3,1.3,0,0,0,.18.62l.05-.06A3,3,0,0,1,309.23,156.36Z" transform="translate(158 -92.92)"/><path class="cls-1" d="M313.15,158a3,3,0,0,0-1.63-1.62,3,3,0,0,0-2.29,0,3,3,0,0,0-1,.65l-.05.06a3.27,3.27,0,0,0-.6.91,3.12,3.12,0,0,0,0,2.3,3.06,3.06,0,0,0,.65,1,3,3,0,0,0,1,.65,3,3,0,0,0,2.29,0,3,3,0,0,0,1.63-1.62,3.23,3.23,0,0,0,.23-1.15,1.9,1.9,0,0,0,0-.25A3.09,3.09,0,0,0,313.15,158Z" transform="translate(158 -92.92)"/><path class="cls-1" d="M333.5,157a3.05,3.05,0,0,0-1-.65,3,3,0,0,0-2.29,0,3,3,0,0,0-1,.65,3.06,3.06,0,0,0-.65,1,2.8,2.8,0,0,0-.2.9,2.29,2.29,0,0,0,0,.25,3,3,0,0,0,.22,1.15,3.06,3.06,0,0,0,.65,1,3,3,0,0,0,1,.65,3,3,0,0,0,2.29,0,3,3,0,0,0,1.63-1.62,3.23,3.23,0,0,0,.23-1.15,2.42,2.42,0,0,0,0-.25,2.8,2.8,0,0,0-.2-.9A3.06,3.06,0,0,0,333.5,157Z" transform="translate(158 -92.92)"/><path class="cls-1" d="M352.62,157a2.9,2.9,0,0,0-1-.65,3,3,0,0,0-2.3,0,3,3,0,0,0-1.62,1.62,2.68,2.68,0,0,0-.2.88,2.48,2.48,0,0,0,0,.27,3,3,0,0,0,.23,1.15,3,3,0,0,0,1.62,1.62,3,3,0,0,0,2.3,0,3,3,0,0,0,1.62-1.62,3,3,0,0,0,.23-1.15,2.48,2.48,0,0,0,0-.27,2.68,2.68,0,0,0-.2-.88A2.9,2.9,0,0,0,352.62,157Z" transform="translate(158 -92.92)"/><path class="cls-1" d="M371.37,157a2.9,2.9,0,0,0-1-.65,3,3,0,0,0-2.3,0,3,3,0,0,0-1.62,1.62,2.68,2.68,0,0,0-.2.88,2.48,2.48,0,0,0,0,.27,3,3,0,0,0,.23,1.15,3,3,0,0,0,1.62,1.62,3,3,0,0,0,2.3,0,3,3,0,0,0,1.62-1.62,3,3,0,0,0,.23-1.15,2.48,2.48,0,0,0,0-.27,2.68,2.68,0,0,0-.2-.88A2.9,2.9,0,0,0,371.37,157Z" transform="translate(158 -92.92)"/><path class="cls-1" d="M390.12,157a2.9,2.9,0,0,0-1-.65,3,3,0,0,0-2.3,0,3,3,0,0,0-1.62,1.62,2.68,2.68,0,0,0-.2.88,2.48,2.48,0,0,0,0,.27,3,3,0,0,0,.23,1.15,3,3,0,0,0,1.62,1.62,3,3,0,0,0,2.3,0,3,3,0,0,0,1.62-1.62,3,3,0,0,0,.23-1.15,2.48,2.48,0,0,0,0-.27,2.68,2.68,0,0,0-.2-.88A2.9,2.9,0,0,0,390.12,157Z" transform="translate(158 -92.92)"/><path class="cls-1" d="M403.88,161.25a2.9,2.9,0,0,0,1,.65,3,3,0,0,0,2.3,0,3,3,0,0,0,1.62-1.62,3,3,0,0,0,0-2.3,3,3,0,0,0-1.62-1.62,3,3,0,0,0-2.3,0,3,3,0,0,0-1.62,1.62,3,3,0,0,0,0,2.3A2.9,2.9,0,0,0,403.88,161.25Z" transform="translate(158 -92.92)"/><path class="cls-1" d="M421.13,161.25a2.9,2.9,0,0,0,1,.65,3,3,0,0,0,2.3,0,3,3,0,0,0,1.62-1.62,3,3,0,0,0,0-2.3,3,3,0,0,0-1.62-1.62,3,3,0,0,0-2.3,0,3,3,0,0,0-1.62,1.62,3,3,0,0,0,0,2.3A2.9,2.9,0,0,0,421.13,161.25Z" transform="translate(158 -92.92)"/><path class="cls-1" d="M439.13,161.25a2.9,2.9,0,0,0,1,.65,3,3,0,0,0,2.3,0,3,3,0,0,0,1.62-1.62,3,3,0,0,0,0-2.3,3,3,0,0,0-1.62-1.62,3,3,0,0,0-2.3,0,3,3,0,0,0-1.62,1.62,3,3,0,0,0,0,2.3A2.9,2.9,0,0,0,439.13,161.25Z" transform="translate(158 -92.92)"/><path class="cls-1" d="M457.88,161.25a2.9,2.9,0,0,0,1,.65,3,3,0,0,0,2.3,0,3,3,0,0,0,1.62-1.62,3,3,0,0,0,0-2.3,3,3,0,0,0-1.62-1.62,3,3,0,0,0-2.3,0,3,3,0,0,0-1.62,1.62,3,3,0,0,0,0,2.3A2.9,2.9,0,0,0,457.88,161.25Z" transform="translate(158 -92.92)"/><path class="cls-1" d="M478.13,161.25a2.9,2.9,0,0,0,1,.65,3,3,0,0,0,2.3,0,3,3,0,0,0,1.62-1.62,3,3,0,0,0,0-2.3,3,3,0,0,0-1.62-1.62,3,3,0,0,0-2.3,0,3,3,0,0,0-1.62,1.62,3,3,0,0,0,0,2.3A2.9,2.9,0,0,0,478.13,161.25Z" transform="translate(158 -92.92)"/><path class="cls-1" d="M496.88,161.25a2.9,2.9,0,0,0,1,.65,3,3,0,0,0,2.3,0,3,3,0,0,0,1.62-1.62,3,3,0,0,0,0-2.3,3,3,0,0,0-1.62-1.62,3,3,0,0,0-2.3,0,3,3,0,0,0-1.62,1.62,3,3,0,0,0,0,2.3A2.9,2.9,0,0,0,496.88,161.25Z" transform="translate(158 -92.92)"/><path class="cls-1" d="M516,161.25a3,3,0,0,0,1,.65,3,3,0,0,0,2.29,0,3,3,0,0,0,1.63-1.62,3,3,0,0,0,0-2.3,3,3,0,0,0-1.63-1.62,3,3,0,0,0-2.29,0,3,3,0,0,0-1,.65,3.06,3.06,0,0,0-.65,1,3.12,3.12,0,0,0,0,2.3A3.06,3.06,0,0,0,516,161.25Z" transform="translate(158 -92.92)"/><path class="cls-3" d="M523,187h-19.1v0H341.41v0H319.06c-12.33,0-22.35,4.35-22.35,9.71s10,10.34,22.35,10.34H523c12.33,0,22.35-5,22.35-10.32S535.34,187,523,187Zm-124.36,9.5a3.42,3.42,0,0,1,0,.45,3,3,0,0,1-.23,1.15,3,3,0,0,1-1.62,1.62,3,3,0,0,1-2.3,0,3,3,0,0,1-1-.65,2.9,2.9,0,0,1-.65-1,3,3,0,0,1-.23-1.15,2.48,2.48,0,0,1,0-.27H379.91a2.48,2.48,0,0,1,0,.27,3,3,0,0,1-.23,1.15,3,3,0,0,1-1.62,1.62,3,3,0,0,1-2.3,0,3,3,0,0,1-1-.65,2.9,2.9,0,0,1-.65-1,3,3,0,0,1-.23-1.15,2.48,2.48,0,0,1,0-.27H361.16a2.48,2.48,0,0,1,0,.27,3,3,0,0,1-.23,1.15,3,3,0,0,1-1.62,1.62,3,3,0,0,1-2.3,0,3,3,0,0,1-1-.65,2.9,2.9,0,0,1-.65-1,3,3,0,0,1-.23-1.15,2.48,2.48,0,0,1,0-.27H342a2.48,2.48,0,0,1,0,.27,3,3,0,0,1-.23,1.15,2.9,2.9,0,0,1-.65,1,3,3,0,0,1-1,.65,2.8,2.8,0,0,1-1.14.23,2.85,2.85,0,0,1-1.15-.23,3,3,0,0,1-1.63-1.62,3,3,0,0,1-.22-1.15,1.94,1.94,0,0,1,0-.24H321a2,2,0,0,1,0,.24,3,3,0,0,1-.23,1.15,2.9,2.9,0,0,1-.65,1,3,3,0,0,1-1,.65,2.8,2.8,0,0,1-1.14.23,2.85,2.85,0,0,1-1.15-.23,3,3,0,0,1-1.63-1.62,3,3,0,0,1-.07-2c-1.08-.45-1.76-1.07-1.76-1.78,0-1.35,2.49-2.43,5.6-2.43h77.51c3.05,0,5.54,1.05,5.54,2.41C402.11,195.24,400.69,196.1,398.65,196.47Zm17.81,1.6a3,3,0,0,1-1.62,1.62,3,3,0,0,1-2.3,0,3,3,0,0,1-1-.65,2.9,2.9,0,0,1-.65-1,3,3,0,0,1,3.92-3.92,2.9,2.9,0,0,1,1,.65,3,3,0,0,1,.65,3.27Zm17.25,0a3,3,0,0,1-1.62,1.62,3,3,0,0,1-2.3,0,3,3,0,0,1-1-.65,2.9,2.9,0,0,1-.65-1,3,3,0,0,1,3.92-3.92,2.9,2.9,0,0,1,1,.65,3,3,0,0,1,.65,3.27Zm18,0a3,3,0,0,1-1.62,1.62,3,3,0,0,1-2.3,0,3,3,0,0,1-1-.65,2.9,2.9,0,0,1-.65-1,3,3,0,0,1,3.92-3.92,2.9,2.9,0,0,1,1,.65,3,3,0,0,1,.65,3.27Zm18.75,0a3,3,0,0,1-1.62,1.62,3,3,0,0,1-2.3,0,3,3,0,0,1-1-.65,2.9,2.9,0,0,1-.65-1,3,3,0,0,1,3.92-3.92,2.9,2.9,0,0,1,1,.65,3,3,0,0,1,.65,3.27Zm20.25,0a3,3,0,0,1-1.62,1.62,3,3,0,0,1-2.3,0,3,3,0,0,1-1-.65,2.9,2.9,0,0,1-.65-1,3,3,0,0,1,3.92-3.92,2.9,2.9,0,0,1,1,.65,3,3,0,0,1,.65,3.27Zm18.75,0a3,3,0,0,1-1.62,1.62,3,3,0,0,1-2.3,0,3,3,0,0,1-1-.65,2.9,2.9,0,0,1-.65-1,3,3,0,0,1,3.92-3.92,2.9,2.9,0,0,1,1,.65,3,3,0,0,1,.65,3.27Zm19.13,0a2.9,2.9,0,0,1-.65,1,3,3,0,0,1-1,.65,2.8,2.8,0,0,1-1.14.23,2.85,2.85,0,0,1-1.15-.23,3,3,0,0,1-1.63-1.62,3.12,3.12,0,0,1,0-2.3,3.18,3.18,0,0,1,.65-1,3,3,0,0,1,2.13-.88,3,3,0,0,1,1.14.23,3,3,0,0,1,1,.65,3,3,0,0,1,.65,3.27Z" transform="translate(158 -92.92)"/><path class="cls-3" d="M396.57,191.81H319.06c-3.11,0-5.6,1.08-5.6,2.43,0,.71.68,1.33,1.76,1.78,0-.08,0-.17.07-.25a3.18,3.18,0,0,1,.65-1,3,3,0,0,1,2.13-.88,3,3,0,0,1,1.14.23,3,3,0,0,1,1,.65,3,3,0,0,1,.65,1,2.86,2.86,0,0,1,.2.91h15a2.82,2.82,0,0,1,.85-1.88,3,3,0,0,1,2.13-.88,3,3,0,0,1,1.14.23,3,3,0,0,1,1,.65,3,3,0,0,1,.65,1,3.4,3.4,0,0,1,.2.88h13.18a2.74,2.74,0,0,1,.2-.88,3,3,0,0,1,3.92-1.62,2.9,2.9,0,0,1,1,.65,3,3,0,0,1,.65,1,2.74,2.74,0,0,1,.2.88H374a2.74,2.74,0,0,1,.2-.88,3,3,0,0,1,3.92-1.62,2.9,2.9,0,0,1,1,.65,3,3,0,0,1,.65,1,2.74,2.74,0,0,1,.2.88h12.81a2.74,2.74,0,0,1,.2-.88,3,3,0,0,1,3.92-1.62,2.9,2.9,0,0,1,1,.65,3,3,0,0,1,.65,1,2.91,2.91,0,0,1,.19.7c2-.37,3.46-1.23,3.46-2.25C402.11,192.86,399.62,191.81,396.57,191.81Z" transform="translate(158 -92.92)"/><path class="cls-1" d="M320.19,194.8a3,3,0,0,0-1-.65,3,3,0,0,0-1.14-.23,3,3,0,0,0-2.13.88,3.18,3.18,0,0,0-.65,1c0,.08,0,.17-.07.25a3,3,0,0,0,.07,2,3,3,0,0,0,1.63,1.62,2.85,2.85,0,0,0,1.15.23,2.8,2.8,0,0,0,1.14-.23,3,3,0,0,0,1-.65,2.9,2.9,0,0,0,.65-1,3,3,0,0,0,.23-1.15,2,2,0,0,0,0-.24,2.86,2.86,0,0,0-.2-.91A3,3,0,0,0,320.19,194.8Z" transform="translate(158 -92.92)"/><path class="cls-1" d="M341.19,194.8a3,3,0,0,0-1-.65,3,3,0,0,0-1.14-.23,3,3,0,0,0-2.13.88,2.82,2.82,0,0,0-.85,1.88,1.94,1.94,0,0,0,0,.24,3,3,0,0,0,.22,1.15,3,3,0,0,0,1.63,1.62,2.85,2.85,0,0,0,1.15.23,2.8,2.8,0,0,0,1.14-.23,3,3,0,0,0,1-.65,2.9,2.9,0,0,0,.65-1,3,3,0,0,0,.23-1.15,2.48,2.48,0,0,0,0-.27,3.4,3.4,0,0,0-.2-.88A3,3,0,0,0,341.19,194.8Z" transform="translate(158 -92.92)"/><path class="cls-1" d="M360.31,194.8a2.9,2.9,0,0,0-1-.65,3,3,0,0,0-3.92,1.62,2.74,2.74,0,0,0-.2.88,2.48,2.48,0,0,0,0,.27,3,3,0,0,0,.23,1.15,2.9,2.9,0,0,0,.65,1,3,3,0,0,0,1,.65,3,3,0,0,0,2.3,0,3,3,0,0,0,1.62-1.62,3,3,0,0,0,.23-1.15,2.48,2.48,0,0,0,0-.27,2.74,2.74,0,0,0-.2-.88A3,3,0,0,0,360.31,194.8Z" transform="translate(158 -92.92)"/><path class="cls-1" d="M379.06,194.8a2.9,2.9,0,0,0-1-.65,3,3,0,0,0-3.92,1.62,2.74,2.74,0,0,0-.2.88,2.48,2.48,0,0,0,0,.27,3,3,0,0,0,.23,1.15,2.9,2.9,0,0,0,.65,1,3,3,0,0,0,1,.65,3,3,0,0,0,2.3,0,3,3,0,0,0,1.62-1.62,3,3,0,0,0,.23-1.15,2.48,2.48,0,0,0,0-.27,2.74,2.74,0,0,0-.2-.88A3,3,0,0,0,379.06,194.8Z" transform="translate(158 -92.92)"/><path class="cls-1" d="M397.81,194.8a2.9,2.9,0,0,0-1-.65,3,3,0,0,0-3.92,1.62,2.74,2.74,0,0,0-.2.88,2.48,2.48,0,0,0,0,.27,3,3,0,0,0,.23,1.15,2.9,2.9,0,0,0,.65,1,3,3,0,0,0,1,.65,3,3,0,0,0,2.3,0,3,3,0,0,0,1.62-1.62,3,3,0,0,0,.23-1.15,3.42,3.42,0,0,0,0-.45,2.91,2.91,0,0,0-.19-.7A3,3,0,0,0,397.81,194.8Z" transform="translate(158 -92.92)"/><path class="cls-1" d="M415.81,194.8a2.9,2.9,0,0,0-1-.65,3,3,0,0,0-3.92,3.92,2.9,2.9,0,0,0,.65,1,3,3,0,0,0,1,.65,3,3,0,0,0,2.3,0,3,3,0,0,0,1.62-1.62,3,3,0,0,0-.65-3.27Z" transform="translate(158 -92.92)"/><path class="cls-1" d="M433.06,194.8a2.9,2.9,0,0,0-1-.65,3,3,0,0,0-3.92,3.92,2.9,2.9,0,0,0,.65,1,3,3,0,0,0,1,.65,3,3,0,0,0,2.3,0,3,3,0,0,0,1.62-1.62,3,3,0,0,0-.65-3.27Z" transform="translate(158 -92.92)"/><path class="cls-1" d="M451.06,194.8a2.9,2.9,0,0,0-1-.65,3,3,0,0,0-3.92,3.92,2.9,2.9,0,0,0,.65,1,3,3,0,0,0,1,.65,3,3,0,0,0,2.3,0,3,3,0,0,0,1.62-1.62,3,3,0,0,0-.65-3.27Z" transform="translate(158 -92.92)"/><path class="cls-1" d="M469.81,194.8a2.9,2.9,0,0,0-1-.65,3,3,0,0,0-3.92,3.92,2.9,2.9,0,0,0,.65,1,3,3,0,0,0,1,.65,3,3,0,0,0,2.3,0,3,3,0,0,0,1.62-1.62,3,3,0,0,0-.65-3.27Z" transform="translate(158 -92.92)"/><path class="cls-1" d="M490.06,194.8a2.9,2.9,0,0,0-1-.65,3,3,0,0,0-3.92,3.92,2.9,2.9,0,0,0,.65,1,3,3,0,0,0,1,.65,3,3,0,0,0,2.3,0,3,3,0,0,0,1.62-1.62,3,3,0,0,0-.65-3.27Z" transform="translate(158 -92.92)"/><path class="cls-1" d="M508.81,194.8a2.9,2.9,0,0,0-1-.65,3,3,0,0,0-3.92,3.92,2.9,2.9,0,0,0,.65,1,3,3,0,0,0,1,.65,3,3,0,0,0,2.3,0,3,3,0,0,0,1.62-1.62,3,3,0,0,0-.65-3.27Z" transform="translate(158 -92.92)"/><path class="cls-1" d="M527.94,194.8a3,3,0,0,0-1-.65,3,3,0,0,0-1.14-.23,3,3,0,0,0-2.13.88,3.18,3.18,0,0,0-.65,1,3.12,3.12,0,0,0,0,2.3,3,3,0,0,0,1.63,1.62,2.85,2.85,0,0,0,1.15.23,2.8,2.8,0,0,0,1.14-.23,3,3,0,0,0,1-.65,2.9,2.9,0,0,0,.65-1,3,3,0,0,0-.65-3.27Z" transform="translate(158 -92.92)"/><path class="cls-3" d="M522.26,227.47h-19.1v0H340.66v0H318.31c-12.33,0-22.35,4.35-22.35,9.71s10,10.34,22.35,10.34h204c12.33,0,22.35-5,22.35-10.32S534.59,227.47,522.26,227.47Zm-123.64,9.34a2.48,2.48,0,0,1,.07.61,3,3,0,0,1-.23,1.15,3,3,0,0,1-1.62,1.62,3,3,0,0,1-2.3,0,3,3,0,0,1-1-.65,2.9,2.9,0,0,1-.65-1,3,3,0,0,1-.23-1.15,2.48,2.48,0,0,1,0-.27H379.91a2.48,2.48,0,0,1,0,.27,3,3,0,0,1-.23,1.15,3,3,0,0,1-1.62,1.62,3,3,0,0,1-2.3,0,3,3,0,0,1-1-.65,2.9,2.9,0,0,1-.65-1,3,3,0,0,1-.23-1.15,2.48,2.48,0,0,1,0-.27H361.16a2.48,2.48,0,0,1,0,.27,3,3,0,0,1-.23,1.15,3,3,0,0,1-1.62,1.62,3,3,0,0,1-2.3,0,3,3,0,0,1-1-.65,2.9,2.9,0,0,1-.65-1,3,3,0,0,1-.23-1.15,2.48,2.48,0,0,1,0-.27H342a2.48,2.48,0,0,1,0,.27,3,3,0,0,1-.23,1.15,2.9,2.9,0,0,1-.65,1,3,3,0,0,1-1,.65,2.8,2.8,0,0,1-1.14.23,2.85,2.85,0,0,1-1.15-.23,3,3,0,0,1-1.63-1.62,3,3,0,0,1-.22-1.15,1.94,1.94,0,0,1,0-.24H321a2,2,0,0,1,0,.24,3,3,0,0,1-.23,1.15,2.9,2.9,0,0,1-.65,1,3,3,0,0,1-1,.65,2.8,2.8,0,0,1-1.14.23,2.85,2.85,0,0,1-1.15-.23,3,3,0,0,1-1.63-1.62,3,3,0,0,1-.14-1.82c-1.48-.43-2.44-1.17-2.44-2,0-1.35,2.49-2.43,5.6-2.43h77.51c3.05,0,5.54,1.05,5.54,2.41C401.36,235.61,400.27,236.38,398.62,236.81Zm17.84,1.76a3,3,0,0,1-1.62,1.62,3,3,0,0,1-2.3,0,3,3,0,0,1-1-.65,2.9,2.9,0,0,1-.65-1,3,3,0,0,1,3.92-3.92,2.9,2.9,0,0,1,1,.65,3,3,0,0,1,.65,3.27Zm17.25,0a3,3,0,0,1-1.62,1.62,3,3,0,0,1-2.3,0,3,3,0,0,1-1-.65,2.9,2.9,0,0,1-.65-1,3,3,0,0,1,3.92-3.92,2.9,2.9,0,0,1,1,.65,3,3,0,0,1,.65,3.27Zm18,0a3,3,0,0,1-1.62,1.62,3,3,0,0,1-2.3,0,3,3,0,0,1-1-.65,2.9,2.9,0,0,1-.65-1,3,3,0,0,1,3.92-3.92,2.9,2.9,0,0,1,1,.65,3,3,0,0,1,.65,3.27Zm18.75,0a3,3,0,0,1-1.62,1.62,3,3,0,0,1-2.3,0,3,3,0,0,1-1-.65,2.9,2.9,0,0,1-.65-1,3,3,0,0,1,3.92-3.92,2.9,2.9,0,0,1,1,.65,3,3,0,0,1,.65,3.27Zm20.25,0a3,3,0,0,1-1.62,1.62,3,3,0,0,1-2.3,0,3,3,0,0,1-1-.65,2.9,2.9,0,0,1-.65-1,3,3,0,0,1,3.92-3.92,2.9,2.9,0,0,1,1,.65,3,3,0,0,1,.65,3.27Zm18.75,0a3,3,0,0,1-1.62,1.62,3,3,0,0,1-2.3,0,3,3,0,0,1-1-.65,2.9,2.9,0,0,1-.65-1,3,3,0,0,1,3.92-3.92,2.9,2.9,0,0,1,1,.65,3,3,0,0,1,.65,3.27Zm19.13,0a2.9,2.9,0,0,1-.65,1,3,3,0,0,1-1,.65,2.8,2.8,0,0,1-1.14.23,2.85,2.85,0,0,1-1.15-.23,3,3,0,0,1-1.63-1.62,3.12,3.12,0,0,1,0-2.3,3.18,3.18,0,0,1,.65-1,3,3,0,0,1,2.13-.88,3,3,0,0,1,1.14.23,3,3,0,0,1,1,.65,3,3,0,0,1,.65,3.27Z" transform="translate(158 -92.92)"/><path class="cls-3" d="M395.82,232.31H318.31c-3.11,0-5.6,1.08-5.6,2.43,0,.84,1,1.58,2.44,2a2.9,2.9,0,0,1,.14-.48,3.18,3.18,0,0,1,.65-1,3,3,0,0,1,2.13-.88,3,3,0,0,1,1.14.23,3,3,0,0,1,1,.65,3,3,0,0,1,.65,1,2.86,2.86,0,0,1,.2.91h15a2.82,2.82,0,0,1,.85-1.88,3,3,0,0,1,2.13-.88,3,3,0,0,1,1.14.23,3,3,0,0,1,1,.65,3,3,0,0,1,.65,1,3.4,3.4,0,0,1,.2.88h13.18a2.74,2.74,0,0,1,.2-.88,3,3,0,0,1,3.92-1.62,2.9,2.9,0,0,1,1,.65,3,3,0,0,1,.65,1,2.74,2.74,0,0,1,.2.88H374a2.74,2.74,0,0,1,.2-.88,3,3,0,0,1,3.92-1.62,2.9,2.9,0,0,1,1,.65,3,3,0,0,1,.65,1,2.74,2.74,0,0,1,.2.88h12.81a2.74,2.74,0,0,1,.2-.88,3,3,0,0,1,3.92-1.62,2.9,2.9,0,0,1,1,.65,3,3,0,0,1,.65,1,2.76,2.76,0,0,1,.16.54c1.65-.43,2.74-1.2,2.74-2.09C401.36,233.36,398.87,232.31,395.82,232.31Z" transform="translate(158 -92.92)"/><path class="cls-1" d="M320.19,235.3a3,3,0,0,0-1-.65,3,3,0,0,0-1.14-.23,3,3,0,0,0-2.13.88,3.18,3.18,0,0,0-.65,1,2.9,2.9,0,0,0-.14.48,3,3,0,0,0,.14,1.82,3,3,0,0,0,1.63,1.62,2.85,2.85,0,0,0,1.15.23,2.8,2.8,0,0,0,1.14-.23,3,3,0,0,0,1-.65,2.9,2.9,0,0,0,.65-1,3,3,0,0,0,.23-1.15,2,2,0,0,0,0-.24,2.86,2.86,0,0,0-.2-.91A3,3,0,0,0,320.19,235.3Z" transform="translate(158 -92.92)"/><path class="cls-1" d="M341.19,235.3a3,3,0,0,0-1-.65,3,3,0,0,0-1.14-.23,3,3,0,0,0-2.13.88,2.82,2.82,0,0,0-.85,1.88,1.94,1.94,0,0,0,0,.24,3,3,0,0,0,.22,1.15,3,3,0,0,0,1.63,1.62,2.85,2.85,0,0,0,1.15.23,2.8,2.8,0,0,0,1.14-.23,3,3,0,0,0,1-.65,2.9,2.9,0,0,0,.65-1,3,3,0,0,0,.23-1.15,2.48,2.48,0,0,0,0-.27,3.4,3.4,0,0,0-.2-.88A3,3,0,0,0,341.19,235.3Z" transform="translate(158 -92.92)"/><path class="cls-1" d="M360.31,235.3a2.9,2.9,0,0,0-1-.65,3,3,0,0,0-3.92,1.62,2.74,2.74,0,0,0-.2.88,2.48,2.48,0,0,0,0,.27,3,3,0,0,0,.23,1.15,2.9,2.9,0,0,0,.65,1,3,3,0,0,0,1,.65,3,3,0,0,0,2.3,0,3,3,0,0,0,1.62-1.62,3,3,0,0,0,.23-1.15,2.48,2.48,0,0,0,0-.27,2.74,2.74,0,0,0-.2-.88A3,3,0,0,0,360.31,235.3Z" transform="translate(158 -92.92)"/><path class="cls-1" d="M379.06,235.3a2.9,2.9,0,0,0-1-.65,3,3,0,0,0-3.92,1.62,2.74,2.74,0,0,0-.2.88,2.48,2.48,0,0,0,0,.27,3,3,0,0,0,.23,1.15,2.9,2.9,0,0,0,.65,1,3,3,0,0,0,1,.65,3,3,0,0,0,2.3,0,3,3,0,0,0,1.62-1.62,3,3,0,0,0,.23-1.15,2.48,2.48,0,0,0,0-.27,2.74,2.74,0,0,0-.2-.88A3,3,0,0,0,379.06,235.3Z" transform="translate(158 -92.92)"/><path class="cls-1" d="M397.81,235.3a2.9,2.9,0,0,0-1-.65,3,3,0,0,0-3.92,1.62,2.74,2.74,0,0,0-.2.88,2.48,2.48,0,0,0,0,.27,3,3,0,0,0,.23,1.15,2.9,2.9,0,0,0,.65,1,3,3,0,0,0,1,.65,3,3,0,0,0,2.3,0,3,3,0,0,0,1.62-1.62,3,3,0,0,0,.23-1.15,2.48,2.48,0,0,0-.07-.61,2.76,2.76,0,0,0-.16-.54A3,3,0,0,0,397.81,235.3Z" transform="translate(158 -92.92)"/><path class="cls-1" d="M415.81,235.3a2.9,2.9,0,0,0-1-.65,3,3,0,0,0-3.92,3.92,2.9,2.9,0,0,0,.65,1,3,3,0,0,0,1,.65,3,3,0,0,0,2.3,0,3,3,0,0,0,1.62-1.62,3,3,0,0,0-.65-3.27Z" transform="translate(158 -92.92)"/><path class="cls-1" d="M433.06,235.3a2.9,2.9,0,0,0-1-.65,3,3,0,0,0-3.92,3.92,2.9,2.9,0,0,0,.65,1,3,3,0,0,0,1,.65,3,3,0,0,0,2.3,0,3,3,0,0,0,1.62-1.62,3,3,0,0,0-.65-3.27Z" transform="translate(158 -92.92)"/><path class="cls-1" d="M451.06,235.3a2.9,2.9,0,0,0-1-.65,3,3,0,0,0-3.92,3.92,2.9,2.9,0,0,0,.65,1,3,3,0,0,0,1,.65,3,3,0,0,0,2.3,0,3,3,0,0,0,1.62-1.62,3,3,0,0,0-.65-3.27Z" transform="translate(158 -92.92)"/><path class="cls-1" d="M469.81,235.3a2.9,2.9,0,0,0-1-.65,3,3,0,0,0-3.92,3.92,2.9,2.9,0,0,0,.65,1,3,3,0,0,0,1,.65,3,3,0,0,0,2.3,0,3,3,0,0,0,1.62-1.62,3,3,0,0,0-.65-3.27Z" transform="translate(158 -92.92)"/><path class="cls-1" d="M490.06,235.3a2.9,2.9,0,0,0-1-.65,3,3,0,0,0-3.92,3.92,2.9,2.9,0,0,0,.65,1,3,3,0,0,0,1,.65,3,3,0,0,0,2.3,0,3,3,0,0,0,1.62-1.62,3,3,0,0,0-.65-3.27Z" transform="translate(158 -92.92)"/><path class="cls-1" d="M508.81,235.3a2.9,2.9,0,0,0-1-.65,3,3,0,0,0-3.92,3.92,2.9,2.9,0,0,0,.65,1,3,3,0,0,0,1,.65,3,3,0,0,0,2.3,0,3,3,0,0,0,1.62-1.62,3,3,0,0,0-.65-3.27Z" transform="translate(158 -92.92)"/><path class="cls-1" d="M527.94,235.3a3,3,0,0,0-1-.65,3,3,0,0,0-1.14-.23,3,3,0,0,0-2.13.88,3.18,3.18,0,0,0-.65,1,3.12,3.12,0,0,0,0,2.3,3,3,0,0,0,1.63,1.62,2.85,2.85,0,0,0,1.15.23,2.8,2.8,0,0,0,1.14-.23,3,3,0,0,0,1-.65,2.9,2.9,0,0,0,.65-1,3,3,0,0,0-.65-3.27Z" transform="translate(158 -92.92)"/><path class="cls-3" d="M223.57,227.47h-19.1v0H42v0H19.62c-12.33,0-22.35,4.35-22.35,9.71s10,10.34,22.35,10.34h204c12.33,0,22.35-5,22.35-10.32S235.9,227.47,223.57,227.47Zm-126.5,9.68H97a2.48,2.48,0,0,1,0,.27,3,3,0,0,1-.23,1.15,3,3,0,0,1-1.62,1.62,3,3,0,0,1-2.3,0,3,3,0,0,1-1.62-1.62,3,3,0,0,1-.23-1.15,2.48,2.48,0,0,1,0-.27H78.22a2.48,2.48,0,0,1,0,.27,3,3,0,0,1-.23,1.15,3,3,0,0,1-1.62,1.62,3,3,0,0,1-2.3,0,3,3,0,0,1-1.62-1.62,3,3,0,0,1-.23-1.15,2.48,2.48,0,0,1,0-.27H59.47a2.48,2.48,0,0,1,0,.27,3,3,0,0,1-.23,1.15,3,3,0,0,1-1.62,1.62,3,3,0,0,1-2.3,0,3,3,0,0,1-1.62-1.62,3,3,0,0,1-.23-1.15,2.48,2.48,0,0,1,0-.27H42v0H40.35a2,2,0,0,1,0,.24,3,3,0,0,1-.23,1.15,3.06,3.06,0,0,1-.65,1,3,3,0,0,1-1,.65,3,3,0,0,1-2.29,0,3,3,0,0,1-1-.65,3.06,3.06,0,0,1-.65-1,3,3,0,0,1-.22-1.15,1.94,1.94,0,0,1,0-.24h-15a2.13,2.13,0,0,1,0,.25,3,3,0,0,1-.23,1.15,3.06,3.06,0,0,1-.65,1,3,3,0,0,1-1,.65,3,3,0,0,1-2.29,0,3,3,0,0,1-1-.65,3.06,3.06,0,0,1-.65-1,3.12,3.12,0,0,1,0-2.3,3.27,3.27,0,0,1,.6-.91,1.27,1.27,0,0,1-.18-.62c0-1.35,2.49-2.43,5.6-2.43H97.13c3.05,0,5.54,1.05,5.54,2.41S100.18,237.15,97.07,237.15Zm17.7,1.42a3,3,0,0,1-1.62,1.62,3,3,0,0,1-2.3,0,3,3,0,0,1-1.62-1.62,3,3,0,0,1,.65-3.27,2.9,2.9,0,0,1,1-.65,3,3,0,0,1,2.3,0,2.9,2.9,0,0,1,1,.65,3,3,0,0,1,.65,3.27Zm17.25,0a3,3,0,0,1-1.62,1.62,3,3,0,0,1-2.3,0,3,3,0,0,1-1.62-1.62,3,3,0,0,1,.65-3.27,2.9,2.9,0,0,1,1-.65,3,3,0,0,1,2.3,0,2.9,2.9,0,0,1,1,.65,3,3,0,0,1,.65,3.27Zm18,0a3,3,0,0,1-1.62,1.62,3,3,0,0,1-2.3,0,3,3,0,0,1-1.62-1.62,3,3,0,0,1,.65-3.27,2.9,2.9,0,0,1,1-.65,3,3,0,0,1,2.3,0,2.9,2.9,0,0,1,1,.65,3,3,0,0,1,.65,3.27Zm18.75,0a3,3,0,0,1-1.62,1.62,3,3,0,0,1-2.3,0,3,3,0,0,1-1.62-1.62,3,3,0,0,1,.65-3.27,2.9,2.9,0,0,1,1-.65,3,3,0,0,1,2.3,0,2.9,2.9,0,0,1,1,.65,3,3,0,0,1,.65,3.27Zm20.25,0a3,3,0,0,1-1.62,1.62,3,3,0,0,1-2.3,0,3,3,0,0,1-1.62-1.62,3,3,0,0,1,.65-3.27,2.9,2.9,0,0,1,1-.65,3,3,0,0,1,2.3,0,2.9,2.9,0,0,1,1,.65,3,3,0,0,1,.65,3.27Zm18.75,0a3,3,0,0,1-1.62,1.62,3,3,0,0,1-2.3,0,3,3,0,0,1-1.62-1.62,3,3,0,0,1,.65-3.27,2.9,2.9,0,0,1,1-.65,3,3,0,0,1,2.3,0,2.9,2.9,0,0,1,1,.65,3,3,0,0,1,.65,3.27Zm19.13,0a3,3,0,0,1-1.63,1.62,3,3,0,0,1-2.29,0,3,3,0,0,1-1-.65,3.06,3.06,0,0,1-.65-1,3.12,3.12,0,0,1,0-2.3,3.18,3.18,0,0,1,.65-1,3,3,0,0,1,1-.65,3,3,0,0,1,2.29,0,3.05,3.05,0,0,1,1,.65,3.18,3.18,0,0,1,.65,1,3,3,0,0,1,0,2.3Z" transform="translate(158 -92.92)"/><path class="cls-3" d="M97.13,232.31H19.62c-3.11,0-5.6,1.08-5.6,2.43a1.27,1.27,0,0,0,.18.62l.05-.06a3,3,0,0,1,1-.65,3,3,0,0,1,2.29,0,3,3,0,0,1,1,.65,3.18,3.18,0,0,1,.65,1,3.09,3.09,0,0,1,.2.9h15a2.86,2.86,0,0,1,.2-.91,3.18,3.18,0,0,1,.65-1,3,3,0,0,1,1-.65,3,3,0,0,1,2.29,0,3,3,0,0,1,1,.65,3.18,3.18,0,0,1,.65,1,2.86,2.86,0,0,1,.2.91H42v0H53.53a2.74,2.74,0,0,1,.2-.88,3,3,0,0,1,.65-1,2.9,2.9,0,0,1,1-.65,3,3,0,0,1,2.3,0,2.9,2.9,0,0,1,1,.65,3,3,0,0,1,.65,1,2.74,2.74,0,0,1,.2.88H72.28a2.74,2.74,0,0,1,.2-.88,3,3,0,0,1,.65-1,2.9,2.9,0,0,1,1-.65,3,3,0,0,1,2.3,0,2.9,2.9,0,0,1,1,.65,3,3,0,0,1,.65,1,2.74,2.74,0,0,1,.2.88H91a2.74,2.74,0,0,1,.2-.88,3,3,0,0,1,.65-1,2.9,2.9,0,0,1,1-.65,3,3,0,0,1,2.3,0,2.9,2.9,0,0,1,1,.65,3,3,0,0,1,.65,1,2.74,2.74,0,0,1,.2.88h.1c3.11,0,5.6-1.08,5.6-2.43S100.18,232.31,97.13,232.31Z" transform="translate(158 -92.92)"/><path class="cls-1" d="M18.5,235.3a3,3,0,0,0-1-.65,3,3,0,0,0-2.29,0,3,3,0,0,0-1,.65l-.05.06a3.27,3.27,0,0,0-.6.91,3.12,3.12,0,0,0,0,2.3,3.06,3.06,0,0,0,.65,1,3,3,0,0,0,1,.65,3,3,0,0,0,2.29,0,3,3,0,0,0,1-.65,3.06,3.06,0,0,0,.65-1,3,3,0,0,0,.23-1.15,2.13,2.13,0,0,0,0-.25,3.09,3.09,0,0,0-.2-.9A3.18,3.18,0,0,0,18.5,235.3Z" transform="translate(158 -92.92)"/><path class="cls-1" d="M39.5,235.3a3,3,0,0,0-1-.65,3,3,0,0,0-2.29,0,3,3,0,0,0-1,.65,3.18,3.18,0,0,0-.65,1,2.86,2.86,0,0,0-.2.91,1.94,1.94,0,0,0,0,.24,3,3,0,0,0,.22,1.15,3.06,3.06,0,0,0,.65,1,3,3,0,0,0,1,.65,3,3,0,0,0,2.29,0,3,3,0,0,0,1-.65,3.06,3.06,0,0,0,.65-1,3,3,0,0,0,.23-1.15,2,2,0,0,0,0-.24,2.86,2.86,0,0,0-.2-.91A3.18,3.18,0,0,0,39.5,235.3Z" transform="translate(158 -92.92)"/><path class="cls-1" d="M58.62,235.3a2.9,2.9,0,0,0-1-.65,3,3,0,0,0-2.3,0,2.9,2.9,0,0,0-1,.65,3,3,0,0,0-.65,1,2.74,2.74,0,0,0-.2.88,2.48,2.48,0,0,0,0,.27,3,3,0,0,0,.23,1.15,3,3,0,0,0,1.62,1.62,3,3,0,0,0,2.3,0,3,3,0,0,0,1.62-1.62,3,3,0,0,0,.23-1.15,2.48,2.48,0,0,0,0-.27,2.74,2.74,0,0,0-.2-.88A3,3,0,0,0,58.62,235.3Z" transform="translate(158 -92.92)"/><path class="cls-1" d="M77.37,235.3a2.9,2.9,0,0,0-1-.65,3,3,0,0,0-2.3,0,2.9,2.9,0,0,0-1,.65,3,3,0,0,0-.65,1,2.74,2.74,0,0,0-.2.88,2.48,2.48,0,0,0,0,.27,3,3,0,0,0,.23,1.15,3,3,0,0,0,1.62,1.62,3,3,0,0,0,2.3,0A3,3,0,0,0,78,238.57a3,3,0,0,0,.23-1.15,2.48,2.48,0,0,0,0-.27,2.74,2.74,0,0,0-.2-.88A3,3,0,0,0,77.37,235.3Z" transform="translate(158 -92.92)"/><path class="cls-1" d="M96.12,235.3a2.9,2.9,0,0,0-1-.65,3,3,0,0,0-2.3,0,2.9,2.9,0,0,0-1,.65,3,3,0,0,0-.65,1,2.74,2.74,0,0,0-.2.88,2.48,2.48,0,0,0,0,.27,3,3,0,0,0,.23,1.15,3,3,0,0,0,1.62,1.62,3,3,0,0,0,2.3,0,3,3,0,0,0,1.62-1.62,3,3,0,0,0,.23-1.15,2.48,2.48,0,0,0,0-.27,2.74,2.74,0,0,0-.2-.88A3,3,0,0,0,96.12,235.3Z" transform="translate(158 -92.92)"/><path class="cls-1" d="M114.12,235.3a2.9,2.9,0,0,0-1-.65,3,3,0,0,0-2.3,0,2.9,2.9,0,0,0-1,.65,3,3,0,0,0-.65,3.27,3,3,0,0,0,1.62,1.62,3,3,0,0,0,2.3,0,3,3,0,0,0,1.62-1.62,3,3,0,0,0-.65-3.27Z" transform="translate(158 -92.92)"/><path class="cls-1" d="M131.37,235.3a2.9,2.9,0,0,0-1-.65,3,3,0,0,0-2.3,0,2.9,2.9,0,0,0-1,.65,3,3,0,0,0-.65,3.27,3,3,0,0,0,1.62,1.62,3,3,0,0,0,2.3,0,3,3,0,0,0,1.62-1.62,3,3,0,0,0-.65-3.27Z" transform="translate(158 -92.92)"/><path class="cls-1" d="M149.37,235.3a2.9,2.9,0,0,0-1-.65,3,3,0,0,0-2.3,0,2.9,2.9,0,0,0-1,.65,3,3,0,0,0-.65,3.27,3,3,0,0,0,1.62,1.62,3,3,0,0,0,2.3,0,3,3,0,0,0,1.62-1.62,3,3,0,0,0-.65-3.27Z" transform="translate(158 -92.92)"/><path class="cls-1" d="M168.12,235.3a2.9,2.9,0,0,0-1-.65,3,3,0,0,0-2.3,0,2.9,2.9,0,0,0-1,.65,3,3,0,0,0-.65,3.27,3,3,0,0,0,1.62,1.62,3,3,0,0,0,2.3,0,3,3,0,0,0,1.62-1.62,3,3,0,0,0-.65-3.27Z" transform="translate(158 -92.92)"/><path class="cls-1" d="M188.37,235.3a2.9,2.9,0,0,0-1-.65,3,3,0,0,0-2.3,0,2.9,2.9,0,0,0-1,.65,3,3,0,0,0-.65,3.27,3,3,0,0,0,1.62,1.62,3,3,0,0,0,2.3,0,3,3,0,0,0,1.62-1.62,3,3,0,0,0-.65-3.27Z" transform="translate(158 -92.92)"/><path class="cls-1" d="M207.12,235.3a2.9,2.9,0,0,0-1-.65,3,3,0,0,0-2.3,0,2.9,2.9,0,0,0-1,.65,3,3,0,0,0-.65,3.27,3,3,0,0,0,1.62,1.62,3,3,0,0,0,2.3,0,3,3,0,0,0,1.62-1.62,3,3,0,0,0-.65-3.27Z" transform="translate(158 -92.92)"/><path class="cls-1" d="M226.25,235.3a3.05,3.05,0,0,0-1-.65,3,3,0,0,0-2.29,0,3,3,0,0,0-1,.65,3.18,3.18,0,0,0-.65,1,3.12,3.12,0,0,0,0,2.3,3.06,3.06,0,0,0,.65,1,3,3,0,0,0,1,.65,3,3,0,0,0,2.29,0,3,3,0,0,0,1.63-3.92A3.18,3.18,0,0,0,226.25,235.3Z" transform="translate(158 -92.92)"/><path class="cls-1" d="M669.69,285.17V111.87a13,13,0,0,1,13-13h131.5a13,13,0,0,1,13,13v173.3a12.9,12.9,0,0,1-1.77,6.49,13,13,0,0,0,7.85-11.93V105.91a13,13,0,0,0-13-13H646.44a13,13,0,0,0-13,13V279.73a13,13,0,0,0,9.87,12.6h28.55A12.79,12.79,0,0,1,669.69,285.17Z" transform="translate(158 -92.92)"/><path class="cls-5" d="M827.18,111.87a13,13,0,0,0-13-13H682.68a13,13,0,0,0-13,13v173.3a12.79,12.79,0,0,0,2.18,7.16H825l.41-.67a12.9,12.9,0,0,0,1.77-6.49Z" transform="translate(158 -92.92)"/></g></g></svg>