<svg xmlns="http://www.w3.org/2000/svg" width="40" height="120" viewBox="0 0 308.75 702.4"><defs><style>.cls-1{fill:#004684;}.cls-2{fill:#737373;}.cls-3,.cls-8{fill:#fff;}.cls-4{fill:#2b2b2b;}.cls-5{fill:#af9276;}.cls-6{fill:#e8e5d7;}.cls-7{fill:#f1eddd;}.cls-8{font-size:18.22px;font-family:Montserrat-Bold, Montserrat;font-weight:700;}</style></defs><title>Asset 1</title><g id="Layer_2" data-name="Layer 2"><g id="Layer_1-2" data-name="Layer 1"><path class="cls-1" d="M490.61,180.78A39.4,39.4,0,0,1,530,220.17h88.16V66.49h0a26.13,26.13,0,0,0,0-52.26h0V-79.36H542a55.91,55.91,0,0,1-2.56,9.14h16.27v3.51h4.92v55.65h.28V34.57H547.34V12.71H538.7V38.36h-5.56V14.15a20,20,0,0,0,3.31-1.44H508.24V38.36h-5.56V12.71H476.47V38.36h-5.56V12.71H446.64V38.36h-5.56V12.71H432.5V34.57H419V-11.06h.15V-66.71h3.45v-3.51h11.08a55.91,55.91,0,0,1-2.56-9.14H361.17v93.6a26.12,26.12,0,0,0,0,52.23v153.7h90A39.4,39.4,0,0,1,490.61,180.78ZM618.18,21.54a18.82,18.82,0,1,1-18.82,18.82A18.82,18.82,0,0,1,618.18,21.54Zm-75,96.48h0V107.24H563v46H543.14V142.46h0ZM342.87,40.36a18.82,18.82,0,1,1,18.81,18.81A18.81,18.81,0,0,1,342.87,40.36Zm97.7,112.88H420.73V142.46h0V118h0V107.24h19.84ZM483.8,121V107.21H496V121h16.89V140.8h-3.15v12H497.54v-12H482.35v12.39H470.13V140.8h-3.22V121Z" transform="translate(-335.56 79.99)"/><path class="cls-2" d="M533.14,14.15V38.36h5.56V12.71h-2.25A20,20,0,0,1,533.14,14.15Z" transform="translate(-335.56 79.99)"/><rect class="cls-2" x="167.12" y="92.71" width="5.56" height="25.65"/><rect class="cls-2" x="135.36" y="92.71" width="5.56" height="25.65"/><rect class="cls-2" x="105.53" y="92.71" width="5.56" height="25.65"/><polygon class="cls-3" points="85.17 198.01 105.01 198.01 105.01 222.46 85.17 222.46 85.17 233.23 105.02 233.23 105.02 187.23 85.17 187.23 85.17 198.01"/><polygon class="cls-4" points="105.01 198.01 85.17 198.01 85.17 198.01 85.17 222.46 85.17 222.46 105.01 222.46 105.01 198.01"/><rect class="cls-3" x="134.57" y="220.8" width="12.22" height="12.38"/><rect class="cls-3" x="161.98" y="220.8" width="12.22" height="11.97"/><rect class="cls-3" x="148.24" y="187.21" width="12.22" height="13.75"/><polygon class="cls-4" points="131.35 220.8 134.57 220.8 146.79 220.8 161.98 220.8 174.2 220.8 177.35 220.8 177.35 200.95 160.46 200.95 148.24 200.95 131.35 200.95 131.35 220.8"/><polygon class="cls-3" points="227.43 222.46 207.59 222.46 207.59 233.23 227.43 233.23 227.43 187.23 207.59 187.23 207.59 198.01 227.43 198.01 227.43 222.46"/><polygon class="cls-4" points="227.43 222.46 227.43 198.01 207.59 198.01 207.58 198.01 207.58 222.46 207.59 222.46 227.43 222.46"/><path class="cls-5" d="M450.6,220.21H361.93V554.77l24.88,67.63h38.44L450.6,553ZM431.79,226a5.51,5.51,0,1,1-5.5,5.51A5.51,5.51,0,0,1,431.79,226ZM375,549a5.51,5.51,0,1,1,5.5-5.5A5.51,5.51,0,0,1,375,549Zm0-87.79a5.51,5.51,0,1,1,5.5-5.5A5.51,5.51,0,0,1,375,461.22Zm0-78.75a5.51,5.51,0,1,1,5.5-5.5A5.51,5.51,0,0,1,375,382.47Zm0-75.75a5.51,5.51,0,1,1,5.5-5.5A5.51,5.51,0,0,1,375,306.72ZM377.25,237a5.51,5.51,0,1,1,5.5-5.5A5.51,5.51,0,0,1,377.25,237ZM390,600.13a5.72,5.72,0,1,1,5.72-5.72A5.72,5.72,0,0,1,390,600.13ZM404.19,549a5.51,5.51,0,1,1,5.5-5.5A5.51,5.51,0,0,1,404.19,549Zm0-87.79a5.51,5.51,0,1,1,5.5-5.5A5.51,5.51,0,0,1,404.19,461.22Zm0-78.75a5.51,5.51,0,1,1,5.5-5.5A5.51,5.51,0,0,1,404.19,382.47Zm0-75.75a5.51,5.51,0,1,1,5.5-5.5A5.51,5.51,0,0,1,404.19,306.72Zm0-69.75a5.51,5.51,0,1,1,5.5-5.5A5.51,5.51,0,0,1,404.19,237Zm13.06,363.16a5.72,5.72,0,1,1,5.71-5.72A5.72,5.72,0,0,1,417.25,600.13ZM431.79,549a5.51,5.51,0,1,1,5.51-5.5A5.5,5.5,0,0,1,431.79,549Zm0-87.79a5.51,5.51,0,1,1,5.51-5.5A5.5,5.5,0,0,1,431.79,461.22Zm0-78.75a5.51,5.51,0,1,1,5.51-5.5A5.5,5.5,0,0,1,431.79,382.47Zm0-75.75a5.51,5.51,0,1,1,5.51-5.5A5.5,5.5,0,0,1,431.79,306.72Z" transform="translate(-335.56 79.99)"/><path class="cls-5" d="M618.18,220.21H529.52V553.34l25.4,69.06h36.57l26.69-73ZM601,226a5.51,5.51,0,1,1-5.51,5.51A5.51,5.51,0,0,1,601,226Zm-56.8,323a5.51,5.51,0,1,1,5.5-5.5A5.51,5.51,0,0,1,544.15,549Zm0-87.79a5.51,5.51,0,1,1,5.5-5.5A5.51,5.51,0,0,1,544.15,461.22Zm0-78.75a5.51,5.51,0,1,1,5.5-5.5A5.51,5.51,0,0,1,544.15,382.47Zm0-75.75a5.51,5.51,0,1,1,5.5-5.5A5.51,5.51,0,0,1,544.15,306.72ZM546.4,237a5.51,5.51,0,1,1,5.5-5.5A5.51,5.51,0,0,1,546.4,237Zm12.71,363.16a5.72,5.72,0,1,1,5.72-5.72A5.72,5.72,0,0,1,559.11,600.13ZM573.34,549a5.51,5.51,0,1,1,5.5-5.5A5.51,5.51,0,0,1,573.34,549Zm0-87.79a5.51,5.51,0,1,1,5.5-5.5A5.51,5.51,0,0,1,573.34,461.22Zm0-78.75a5.51,5.51,0,1,1,5.5-5.5A5.51,5.51,0,0,1,573.34,382.47Zm0-75.75a5.51,5.51,0,1,1,5.5-5.5A5.51,5.51,0,0,1,573.34,306.72Zm0-69.75a5.51,5.51,0,1,1,5.5-5.5A5.51,5.51,0,0,1,573.34,237ZM586.4,600.13a5.72,5.72,0,1,1,5.71-5.72A5.72,5.72,0,0,1,586.4,600.13ZM601,549a5.51,5.51,0,1,1,5.5-5.5A5.51,5.51,0,0,1,601,549Zm0-87.79a5.51,5.51,0,1,1,5.5-5.5A5.51,5.51,0,0,1,601,461.22Zm0-78.75a5.51,5.51,0,1,1,5.5-5.5A5.51,5.51,0,0,1,601,382.47Zm0-75.75a5.51,5.51,0,1,1,5.5-5.5A5.51,5.51,0,0,1,601,306.72Z" transform="translate(-335.56 79.99)"/><rect class="cls-2" x="197.04" y="0.91" width="5.51" height="8.87"/><rect class="cls-2" x="135.51" width="5.53" height="13.28"/><rect class="cls-2" x="105.97" width="5.53" height="9.78"/><rect class="cls-2" x="166.85" y="0.91" width="5.5" height="12.38"/><rect class="cls-6" x="125.24" y="35.31" width="57.91" height="28.3"/><path class="cls-7" d="M555.68,9.06h-28.3V-66.71H450.86V9.06h-28.3V-66.71h-3.45v55.65H419V34.57H432.5V12.71H547.34V34.57h13.54V-11.06h-.28V-66.71h-4.92ZM460.8-44.69h57.91v28.3H460.8Z" transform="translate(-335.56 79.99)"/><polygon class="cls-6" points="197.04 9.78 191.82 9.78 191.82 13.29 191.82 89.05 220.12 89.05 220.12 13.29 220.12 9.78 203.85 9.78 202.55 9.78 197.04 9.78"/><polygon class="cls-6" points="87 89.05 115.3 89.05 115.3 13.29 115.3 9.78 111.5 9.78 105.97 9.78 98.08 9.78 87 9.78 87 13.29 87 89.05"/><text class="cls-8" transform="translate(207.26 171.58) rotate(-90)">G</text><text class="cls-8" transform="translate(207.26 158.05) rotate(-90)">N</text><text class="cls-8" transform="translate(207.26 143.73) rotate(-90)">D</text><text class="cls-8" transform="translate(178.4 169.91) rotate(-90)">V</text><text class="cls-8" transform="translate(178.4 156.63) rotate(-90)">C</text><text class="cls-8" transform="translate(178.4 144.03) rotate(-90)">C</text><text class="cls-8" transform="translate(116.32 167.79) rotate(-90)">S</text><text class="cls-8" transform="translate(116.32 153.78) rotate(-90)">I</text><text class="cls-8" transform="translate(116.32 145.71) rotate(-90)">G</text></g></g></svg>