<svg xmlns="http://www.w3.org/2000/svg" width="40" height="80" viewBox="0 0 336.53 523.79"><defs><style>.cls-1{fill:#004684;}.cls-2,.cls-9{fill:#fff;}.cls-3{fill:#f1eddd;}.cls-4{fill:#a6a6a6;}.cls-5{fill:#2b2b2b;}.cls-6{fill:#d9d9d9;}.cls-7{fill:#d2d2d2;}.cls-8{fill:#cecece;}.cls-9{font-size:24.34px;font-family:Montserrat-Bold, Montserrat;font-weight:700;}</style></defs><title>Asset 2</title><g id="Layer_2" data-name="Layer 2"><g id="Layer_1-2" data-name="Layer 1"><path class="cls-1" d="M200.43,94.34h0c-.15-.07-.33-.21-.43-.17C200.1,94.13,200.28,94.27,200.43,94.34Z"/><path class="cls-1" d="M120.27,92.24a2.7,2.7,0,0,0-.34-.17,2.7,2.7,0,0,1,.34.17Z"/><path class="cls-1" d="M196.21,88.3a2.53,2.53,0,0,0-.12-.36,2.53,2.53,0,0,1,.12.36Z"/><path class="cls-1" d="M197.26,92.23a1.8,1.8,0,0,0-.34-.17,1.8,1.8,0,0,1,.34.17Z"/><path class="cls-1" d="M195,86.18a3.59,3.59,0,0,0,.34.17,3.59,3.59,0,0,1-.34-.17Z"/><path class="cls-1" d="M182.48,158.67l-.44-.18.44.19Z"/><path class="cls-1" d="M196.08,90.39c.06-.14.12-.29.19-.44h0Z"/><path class="cls-1" d="M230.69,147.74c-.19,3-2.24,5.59-2.57,8.91.32-3.18,2.19-5.65,2.67-8.89,0,0-.08-.07-.06-.25l0-.11a3.24,3.24,0,0,1-1.11.44A3.5,3.5,0,0,1,230.69,147.74Z"/><path class="cls-1" d="M223.93,166.67a1.65,1.65,0,0,1,.32,0A1.65,1.65,0,0,0,223.93,166.67Z"/><path class="cls-1" d="M116.55,91.17l-.44-.19.44.19Z"/><path class="cls-1" d="M220.48,167.65a3.4,3.4,0,0,0-.34-.16,3.4,3.4,0,0,1,.34.16Z"/><path class="cls-1" d="M121.38,171.68h0c-.07.15-.21.32-.17.43C121.17,172,121.31,171.83,121.38,171.68Z"/><path class="cls-1" d="M212.61,153.77l-.19.44c.07-.15.13-.29.19-.44Z"/><path class="cls-1" d="M230.77,147.36a.06.06,0,0,1,0,0h0A.06.06,0,0,0,230.77,147.36Z"/><path class="cls-1" d="M219.85,167.9h0a.34.34,0,0,0,0-.12A.34.34,0,0,1,219.85,167.9Z"/><path class="cls-1" d="M279.57,148.59a40.94,40.94,0,0,1,29-39.18V28.49H195.1c0,.11,0,.22,0,.33A84.84,84.84,0,0,1,225.85,49.4c3,3.15,6.06,6.28,8,10.28,4.06,4.6,6.57,10.12,8.82,15.71a85.38,85.38,0,0,1,6.05,27,83.46,83.46,0,0,1-8.4,42.21,37.65,37.65,0,0,1-5.4,8.94,62.81,62.81,0,0,1-10.59,13.17h0c-1.65,2.59-4.5,3.82-6.68,5.83a66.93,66.93,0,0,1-26.91,14.86c-10.17,3-20.62,4.86-31.27,4-8.88-.72-17.67-2.21-25.79-6.25a37.45,37.45,0,0,1-11.62-5.79,1.59,1.59,0,0,1-1.58-1h0a1.66,1.66,0,0,1-1.6-1,1,1,0,0,1-1-.6,60.93,60.93,0,0,1-14.56-12.35c-1.54-1.77-3.4-3.33-4.4-5.53-1.14-1.83-2.91-3.21-3.74-5.26a41.17,41.17,0,0,1-6.81-12.14c-2-4.79-4.09-9.55-4.78-14.76-1.34-3.43-1.6-7.08-2.06-10.67-1.16-9.1-.31-18.11,1.54-27A5.51,5.51,0,0,1,84.09,86c.71-4.87,2.76-9.28,4.72-13.72L90,69.71c6.15-12.12,14.4-22.44,25.75-30.1a15.17,15.17,0,0,1,6.35-4.19,1.48,1.48,0,0,1,1.59-1,24.83,24.83,0,0,1,7.38-3.7c.93-1.25,2.31-1.11,3.62-1.19.68-.37,1.37-.71,2.06-1H28.48v81.09a40.95,40.95,0,0,1,0,78V391A28.48,28.48,0,0,1,55,409.23a1.82,1.82,0,0,1,1.47-.75H81a1.84,1.84,0,0,1,1.83,1.83v24.48A1.84,1.84,0,0,1,81,436.62H56.51a1.84,1.84,0,0,1-1.83-1.83v-4.11A28.48,28.48,0,0,1,28.48,448v75.8h97.63V511.22H90.46v-1.57H90.3V441.1h.16v-2.68h34.07v-6.37h87.82v6.37h33.82v72.8H210.31v12.57h98.3V440l-.56,0a28.48,28.48,0,0,1,0-57l.56,0V187.76A40.93,40.93,0,0,1,279.57,148.59Zm-196.75,353A1.84,1.84,0,0,1,81,503.44H56.51a1.83,1.83,0,0,1-1.83-1.83V477.14a1.83,1.83,0,0,1,1.83-1.83H81a1.84,1.84,0,0,1,1.83,1.83Zm0-33A1.84,1.84,0,0,1,81,470.47H56.51a1.83,1.83,0,0,1-1.83-1.83V444.17a1.83,1.83,0,0,1,1.83-1.83H81a1.84,1.84,0,0,1,1.83,1.83ZM255.94,76.21H256V53.06a16.77,16.77,0,0,1,11.06-15.44l.1,0a16.86,16.86,0,0,1,5.41-.9,17.44,17.44,0,0,1,5.52,1,16.57,16.57,0,0,1,11.06,15.44V77.2h-.08v23.15A16.77,16.77,0,0,1,278,115.79l-.1,0a16.85,16.85,0,0,1-5.4.9,17.73,17.73,0,0,1-5.53-1,16.59,16.59,0,0,1-11.06-15.44ZM279,240h10.19v18.77h-43.5V240H279Zm-92.2-23.18v18.77h-43.5V216.8h43.5Zm-96.49,121H46.84V319h43.5Zm0-27.26H46.84V291.75h43.5Zm0-25.9H46.84V265.85h43.5Zm0-25.87H46.84V240h43.5Zm2-23.18V216.8h43.5v18.77H92.39Zm67.66,132.21h-43.5V349h43.5Zm59.06,0h-43.5V349h43.5Zm8.49-47.52h-1.42V337h-7.54V320.26h-7.8V337h-7.55V320.26h-7.21v17.48h-7.55V320.26h-8.64v17.48h-7.55V320.26h-9v17.48h-7.54V320.26H148v17.48h-7.55V320.26h-7.21v18.2h-7.55v-18.2h-8.64v18.2h-7.55v-18.2h-.13V265.51h.13V247.93h7.55v17.58h8.64V247.93h7.55v17.58h7.21v-18.3H148v18.3h7.8v-18.3h7.54v18.3h9v-18.3h7.55v18.3h8.64v-18.3h7.55v18.3h7.21v-19h7.55v19h7.8v-19h7.54v19h1.42Zm11-84.69H195.1V216.8h43.5Zm7.12,74.95V291.75h43.5v18.77h-43.5Zm41,137.47v43.5H267.91V481.3h0V458.18h0V448Zm3.05-110.21h-43.5V319h43.5Zm0-53.16h-43.5V265.85h43.5Z"/><path class="cls-1" d="M187.65,63a2.7,2.7,0,0,0,.34.17,2.7,2.7,0,0,1-.34-.17Z"/><path class="cls-1" d="M210.78,154.94a3.59,3.59,0,0,0,.17-.34,3.59,3.59,0,0,1-.17.34Z"/><path class="cls-1" d="M189.17,65.2c.1,0,.13.27.19.42h0C189.3,65.47,189.27,65.24,189.17,65.2Z"/><path class="cls-1" d="M208.21,155.27a3.59,3.59,0,0,0,.34.17,2.59,2.59,0,0,1-.33-.17Z"/><path class="cls-1" d="M114.34,170a3.59,3.59,0,0,0,.34.17,3.59,3.59,0,0,1-.34-.17Z"/><path class="cls-1" d="M203.4,156.52a2.06,2.06,0,0,0,.16-.34,2.06,2.06,0,0,1-.16.34Z"/><path class="cls-1" d="M198.85,146a2,2,0,0,0-.33-.16,2,2,0,0,1,.33.16Z"/><path class="cls-1" d="M206.21,155.51l-.44-.19.44.19Z"/><path class="cls-1" d="M123.43,79.57a3.59,3.59,0,0,0-.34-.17,3.59,3.59,0,0,1,.34.17Z"/><path class="cls-2" d="M257.59,53.51a15.17,15.17,0,0,1,10-14,.32.32,0,0,1,.09,0,15.22,15.22,0,0,1,4.9-.82,16.24,16.24,0,0,1,5,.86,15,15,0,0,1,10,14V76.21h1.49v1h.08V53.08a16.57,16.57,0,0,0-11.06-15.44,17.44,17.44,0,0,0-5.52-1,16.86,16.86,0,0,0-5.41.9l-.1,0A16.77,16.77,0,0,0,256,53.06V76.21h1.57Z"/><path class="cls-1" d="M279.57,411.54A28.48,28.48,0,0,0,308.05,440l.56,0a28.47,28.47,0,0,0,0-56.92l-.56,0A28.48,28.48,0,0,0,279.57,411.54Zm49,0A20.51,20.51,0,1,1,308.05,391,20.51,20.51,0,0,1,328.56,411.54Z"/><path class="cls-1" d="M54.68,430.68V410.31a1.87,1.87,0,0,1,.36-1.08,28.48,28.48,0,1,0-.36,21.45ZM28.48,440A20.51,20.51,0,1,1,49,419.51,20.51,20.51,0,0,1,28.48,440Z"/><rect class="cls-3" x="90.3" y="441.1" width="0.15" height="68.56"/><path class="cls-1" d="M166.62,8A20.5,20.5,0,0,1,187,26.16a61.27,61.27,0,0,1,6.27,1.94c.62.23,1.22.48,1.83.72,0-.11,0-.22,0-.33h0a28.47,28.47,0,0,0-56.94-.61,43.67,43.67,0,0,1,8.21-2.49A20.5,20.5,0,0,1,166.62,8Z"/><path class="cls-2" d="M267,115.78a17.73,17.73,0,0,0,5.53,1,16.85,16.85,0,0,0,5.4-.9l.1,0a16.77,16.77,0,0,0,11.06-15.44V76.21H287.6v9.06h-.07V100a15.2,15.2,0,0,1-10,14,.38.38,0,0,1-.1,0,15.11,15.11,0,0,1-4.89.82,16,16,0,0,1-5-.87,15,15,0,0,1-10-14V78.12h.08V76.21h-1.65v24.13A16.59,16.59,0,0,0,267,115.78Z"/><path class="cls-1" d="M283.74,94.56a11.19,11.19,0,1,1-17.42-9.29h-8.73V78.12h-.08V100a15,15,0,0,0,10,14,16,16,0,0,0,5,.87,15.11,15.11,0,0,0,4.89-.82.38.38,0,0,0,.1,0,15.2,15.2,0,0,0,10-14V85.27h-8.74A11.19,11.19,0,0,1,283.74,94.56Z"/><path class="cls-1" d="M277.59,39.53a16.24,16.24,0,0,0-5-.86,15.22,15.22,0,0,0-4.9.82.32.32,0,0,0-.09,0,15.17,15.17,0,0,0-10,14V85.27h8.73a11.18,11.18,0,0,1,12.47,0h8.81V53.53A15,15,0,0,0,277.59,39.53Zm-5,6.46a11.18,11.18,0,1,1-11.18,11.18A11.18,11.18,0,0,1,272.55,46Z"/><circle class="cls-2" cx="272.55" cy="57.17" r="11.18" transform="translate(-5.84 64.15) rotate(-13.28)"/><path class="cls-2" d="M261.37,94.56a11.19,11.19,0,1,0,4.95-9.29A11.19,11.19,0,0,0,261.37,94.56Z"/><rect class="cls-4" x="125.72" y="247.93" width="7.55" height="17.58"/><rect class="cls-4" x="125.72" y="320.26" width="7.55" height="18.2"/><rect class="cls-4" x="140.48" y="320.26" width="7.55" height="17.48"/><rect class="cls-4" x="140.48" y="247.21" width="7.55" height="18.3"/><rect class="cls-4" x="155.83" y="320.26" width="7.55" height="17.48"/><rect class="cls-4" x="155.83" y="247.21" width="7.55" height="18.3"/><rect class="cls-4" x="109.53" y="247.93" width="7.55" height="17.58"/><rect class="cls-4" x="109.53" y="320.26" width="7.55" height="18.2"/><rect class="cls-4" x="188.53" y="320.26" width="7.55" height="17.48"/><rect class="cls-4" x="188.53" y="247.21" width="7.55" height="18.3"/><rect class="cls-4" x="203.29" y="246.49" width="7.55" height="19.02"/><rect class="cls-4" x="203.29" y="320.26" width="7.55" height="16.76"/><rect class="cls-4" x="218.64" y="246.49" width="7.55" height="19.02"/><rect class="cls-4" x="218.64" y="320.26" width="7.55" height="16.76"/><rect class="cls-4" x="172.34" y="247.21" width="7.55" height="18.3"/><rect class="cls-4" x="172.34" y="320.26" width="7.55" height="17.48"/><polygon class="cls-5" points="218.64 265.51 210.84 265.51 203.29 265.51 196.08 265.51 188.53 265.51 179.89 265.51 172.34 265.51 163.37 265.51 155.83 265.51 148.03 265.51 140.48 265.51 133.27 265.51 125.72 265.51 117.08 265.51 109.53 265.51 109.4 265.51 109.4 320.26 109.53 320.26 117.08 320.26 125.72 320.26 133.27 320.26 140.48 320.26 148.03 320.26 155.83 320.26 163.37 320.26 172.34 320.26 179.89 320.26 188.53 320.26 196.08 320.26 203.29 320.26 210.84 320.26 218.64 320.26 226.18 320.26 227.6 320.26 227.6 265.51 226.18 265.51 218.64 265.51"/><rect class="cls-2" x="176.64" y="216.8" width="10.19" height="18.77"/><rect class="cls-2" x="143.33" y="216.8" width="10.19" height="18.77"/><rect class="cls-5" x="153.52" y="216.8" width="23.12" height="18.77"/><rect class="cls-2" x="92.39" y="216.8" width="10.19" height="18.77"/><rect class="cls-2" x="125.7" y="216.8" width="10.19" height="18.77"/><rect class="cls-5" x="102.58" y="216.8" width="23.12" height="18.77"/><rect class="cls-2" x="228.41" y="216.8" width="10.19" height="18.77"/><rect class="cls-2" x="195.1" y="216.8" width="10.19" height="18.77"/><rect class="cls-5" x="205.29" y="216.8" width="23.12" height="18.77"/><rect class="cls-2" x="279.03" y="239.98" width="10.19" height="18.77"/><rect class="cls-2" x="245.72" y="239.98" width="10.19" height="18.77"/><rect class="cls-5" x="255.91" y="239.98" width="23.12" height="18.77"/><rect class="cls-2" x="279.54" y="265.85" width="10.19" height="18.77"/><rect class="cls-2" x="246.23" y="265.85" width="10.19" height="18.77"/><rect class="cls-5" x="256.42" y="265.85" width="23.12" height="18.77"/><rect class="cls-2" x="279.03" y="291.75" width="10.19" height="18.77"/><rect class="cls-2" x="245.72" y="291.75" width="10.19" height="18.77"/><rect class="cls-5" x="255.91" y="291.75" width="23.12" height="18.77"/><rect class="cls-2" x="279.54" y="319.01" width="10.19" height="18.77"/><rect class="cls-2" x="246.23" y="319.01" width="10.19" height="18.77"/><rect class="cls-5" x="256.42" y="319.01" width="23.12" height="18.77"/><rect class="cls-2" x="80.15" y="239.98" width="10.19" height="18.77"/><rect class="cls-2" x="46.84" y="239.98" width="10.19" height="18.77"/><rect class="cls-5" x="57.03" y="239.98" width="23.12" height="18.77"/><rect class="cls-2" x="46.84" y="265.85" width="10.19" height="18.77"/><rect class="cls-2" x="80.15" y="265.85" width="10.19" height="18.77"/><rect class="cls-5" x="57.03" y="265.85" width="23.12" height="18.77"/><rect class="cls-2" x="46.84" y="291.75" width="10.19" height="18.77"/><rect class="cls-2" x="80.15" y="291.75" width="10.19" height="18.77"/><rect class="cls-5" x="57.03" y="291.75" width="23.12" height="18.77"/><rect class="cls-2" x="80.15" y="319.01" width="10.19" height="18.77"/><rect class="cls-2" x="46.84" y="319.01" width="10.19" height="18.77"/><rect class="cls-5" x="57.03" y="319.01" width="23.12" height="18.77"/><rect class="cls-2" x="116.55" y="349.01" width="10.19" height="18.77"/><rect class="cls-2" x="149.86" y="349.01" width="10.19" height="18.77"/><rect class="cls-5" x="126.74" y="349.01" width="23.12" height="18.77"/><rect class="cls-2" x="208.92" y="349.01" width="10.19" height="18.77"/><rect class="cls-2" x="175.61" y="349.01" width="10.19" height="18.77"/><rect class="cls-5" x="185.8" y="349.01" width="23.12" height="18.77"/><polygon class="cls-2" points="267.91 458.18 286.68 458.18 286.68 481.3 267.91 481.3 267.91 491.49 286.68 491.49 286.68 447.99 267.91 447.99 267.91 458.18"/><polygon class="cls-5" points="286.68 458.18 267.91 458.18 267.91 458.18 267.91 481.3 267.91 481.3 286.68 481.3 286.68 458.18"/><path class="cls-5" d="M54.68,430.68v4.11a1.84,1.84,0,0,0,1.83,1.83H81a1.84,1.84,0,0,0,1.83-1.83V410.31A1.84,1.84,0,0,0,81,408.48H56.51a1.82,1.82,0,0,0-1.47.75,1.87,1.87,0,0,0-.36,1.08Zm9.1-13.1h9.9v9.9h-9.9Z"/><path class="cls-5" d="M81,442.34H56.51a1.83,1.83,0,0,0-1.83,1.83v24.47a1.83,1.83,0,0,0,1.83,1.83H81a1.84,1.84,0,0,0,1.83-1.83V444.17A1.84,1.84,0,0,0,81,442.34Zm-7.31,19h-9.9v-9.89h9.9Z"/><path class="cls-5" d="M81,475.31H56.51a1.83,1.83,0,0,0-1.83,1.83v24.47a1.83,1.83,0,0,0,1.83,1.83H81a1.84,1.84,0,0,0,1.83-1.83V477.14A1.84,1.84,0,0,0,81,475.31Zm-7.31,19h-9.9v-9.89h9.9Z"/><rect class="cls-6" x="63.78" y="417.58" width="9.89" height="9.89"/><rect class="cls-6" x="63.78" y="451.44" width="9.89" height="9.89"/><rect class="cls-6" x="63.78" y="484.41" width="9.89" height="9.89"/><polygon class="cls-3" points="246.17 511.21 246.17 438.42 212.35 438.42 212.35 448.17 222.68 448.17 235.93 448.17 235.93 501.43 100.86 501.43 100.86 448.17 114.13 448.17 124.53 448.17 124.53 438.42 90.46 438.42 90.46 441.1 90.46 509.65 90.46 511.21 126.11 511.21 210.31 511.21 246.17 511.21"/><path class="cls-6" d="M222.68,459.13h0V469.2H114.13V459.13h0v-11H100.86v53.26H235.93V448.17H222.68Zm-28.93,30.44H175.67V471.5h18.08Zm-32.08,0H143.6V471.5h18.07Zm-32.06,0H111.54V471.5h18.07Zm96-18.07v18.07H207.54V471.5Z"/><rect class="cls-4" x="111.54" y="471.5" width="18.07" height="18.07"/><rect class="cls-4" x="143.6" y="471.5" width="18.07" height="18.07"/><rect class="cls-4" x="175.67" y="471.5" width="18.07" height="18.07"/><rect class="cls-4" x="207.54" y="471.5" width="18.07" height="18.07"/><polygon class="cls-1" points="124.53 448.17 212.35 448.17 212.35 438.42 212.35 432.05 124.53 432.05 124.53 438.42 124.53 448.17"/><polygon class="cls-3" points="124.53 448.17 114.13 448.17 114.13 459.13 222.68 459.13 222.68 448.17 212.35 448.17 124.53 448.17"/><polygon class="cls-6" points="114.13 469.2 222.7 469.2 222.7 459.13 222.68 459.13 114.13 459.13 114.13 459.13 114.13 469.2"/><path class="cls-7" d="M230.76,147.4h0l0,.11Z"/><path class="cls-7" d="M232.83,61.36c.59,2.7-1.12,4.51-2.59,6.26-1,1.17-1.16,2,.2,3.39-3.4-.59-5,1.89-7.26,2.93a1.62,1.62,0,0,0-.63,2.09c1.11,2.38,2.21,4.76,3.41,7.1.81,1.57,2,1.77,3.47.74l3.43-2.42c1.95-1.4.4-3,0-4.6,2.91,2,2.88,3.61.36,5.57-2.14,1.68-4.53,2.92-6.78,4.39-2.12-3.79-3.22-8.07-5.95-11.54-.56-.71-1.3-2,1-2.11s3.83-2,5.51-3.32a1.64,1.64,0,0,0,.07-2.38c-1.62-2.17-3.24-4.35-4.89-6.49-1.1-1.42-2.41-.42-3.64-.24h0c-2.13,3.13-5.62,3.84-8.87,5-5.62,1.93-5.62,1.92-2.95,7.26,1,2,3,4.39,2.32,6.15-.56,1.45-3.84,1.25-5.91,1.77a46.44,46.44,0,0,1-5.86,1.36c-1.36.16-2,.74-2.23,2.28-1.88-3.09-4.26-1-6.27-1a96,96,0,0,0-10.61,1.29c-1,.14-1.24-.2-1.15-1.16.3-3-.54-5.86-.82-8.79-.16-1.6-.7-2.72-3.12-2.22-3.83.79-7.86-.18-11.79.48-1.07.18-1.15-.61-1-1.58.49-2.48,0-5,.68-7.56.46-1.79-.11-3.12-2.43-2.77s-4.85-.49-7.3-.55c-1.7,0-2.57.51-3,2.19-.84,3.44-1.84,6.85-3,10.38-.35-1.34-.84-2.06-2.37-2-3.67,0-7.16-1.48-10.85-1.56-1.16,0-.93-.65-.49-1.41,1.39-2.43,2.68-4.92,4.07-7.35,1-1.72.67-2.78-1.34-3.21a33.12,33.12,0,0,1-10.7-4.12c-2.21-1.4-4-1.48-5.58.79-.32.46-.88,1.42-1.62.6-.49-.53.14-1.1.54-1.57.74-.88,2.2-1.66.65-3-1.23-1-2.38-.83-3.4.43-.3.38-.65.86-1.34.66-.46-2.58,4-2.62,2.9-5.38-.89-2.22.89-4.36-.09-6.51-11.35,7.66-19.6,18-25.75,30.1,1.31.25.9,1.3,1,2.11.1,1.28-.29,2.66.9,4,2.35-3.58,4.65-7.1,7.15-10.9a8.82,8.82,0,0,0,4.5,5.6c1.47.88,1.09,1.37.42,2.38a73,73,0,0,0-4.52,8.29c-.75,1.54-.4,2.55,1,3.22,2.7,1.26,5.18,3,8.1,3.74.69.19,1.37.23.81,1.33-1.92,3.8-4.14,7.5-2.94,12.14.25,1-1.63,1.43-1.76,2.86-.3,3.36-1.35,6.63-1.21,10.06a4,4,0,0,1-.91,2c-.26-2.29-2-2.67-3.57-3.37-2.72-1.2-5.34-2.64-8-4a1.43,1.43,0,0,1-.74-2c1.48-3.3,1.45-7,2.69-10.34a1.62,1.62,0,0,0-.74-2c-.91-.68-1.62-1.62-2.5-2.33s-1.38-2.3-2.6-1.83c-1,.39-1.21,1.94-1.31,3-.26,2.79-2.23,5.4-.87,8.35a.54.54,0,0,1-.39.8c-.4.1-.85-.17-.81-.46.29-2-2.22-3.69.11-6.24,2-2.2,2.2-5.81,1.84-9-.11-1-.83-1-1.54-1A5.51,5.51,0,0,0,83,88.93c-1.85,8.94-2.7,17.95-1.54,27.05.46,3.59.72,7.24,2.06,10.67,1.36-.27,1.69,1,2.44,1.64,1.57,1.35,2.64,3.29,4.82,3.94.41.12,1,.83,1,1.13-.9,3.84,1.48,7.09,1.81,10.69h0c7.37,4.88,15.58,7.74,24.07,9.87,1.59.4,2.59.25,1.91-1.93-.89-2.83.06-6.07-2.38-9a140.88,140.88,0,0,0,17.52,3.45c1.41.21,3.26,2.77,3.8,4,1.1,2.47-.83,5.56,1.69,7.65-1,2.39-.05,4.7.31,7a4.76,4.76,0,0,0,.46,1.74c.83,1.33.19,1.57-1,1.38-4.38-.72-8.73-1.68-13.13-2.19-5.1-.59-9.71-2.83-14.62-4a40.29,40.29,0,0,1-8.88-3.62c-1.62-.82-3.19-2.08-4.48.39,1,2.2,2.86,3.76,4.4,5.53a60.93,60.93,0,0,0,14.56,12.35c.26-1.49.89-1.8,2.1-.74,2.41,2.13,5.68,2.14,8.48,3.33a1.37,1.37,0,0,0,1.2-.22c.49-.4.23-.95-.1-1.39-1.32-1.75-2-4.13-5.37-4.49,2.94-1,4.62.75,6.59.9,4,.31,8,1.23,12.09,1.54,3.91.3,7.87,1,11.85,1.1,2.4.07,5.62,1.13,5-3.71,1.18.92.87,1.76.89,2.47.05,1.75-.07,3.51.05,5.26.23,3.46.24,3.76-3.12,3.33-6.7-.84-13.54-.23-20.16-1.94-.73-.19-1.77-.46-2.2.24-.54.88.61,1.27,1.05,1.85.28.38,1,.41.88,1.15-1.16.57-2.19-1.2-3.36-.21,8.12,4,16.91,5.53,25.79,6.25,10.65.86,21.1-1,31.27-4a66.93,66.93,0,0,0,26.91-14.86c2.18-2,5-3.24,6.68-5.83h-.07a1.65,1.65,0,0,0-.32,0,10.34,10.34,0,0,0-1.6.36.75.75,0,0,1-.87-.28c-.66-1.05.79-1.89,1.28-2.84.68-1.31,1.9-2.36,2.12-3.88a3.79,3.79,0,0,0,0-.68h0l-9.13,3.27c-.55.2-1.14.67-1.68,0s0-1,.1-1.48c.77-2.59,1.55-5.19,2.28-7.8.17-.64.41-1.22,1.09-1.33,4.29-.68,8.16-2.54,12.1-4.22a3.24,3.24,0,0,0,1.11-.44.06.06,0,0,0,0,0c.07-.15.19-.29.27-.44l.45.19-.33.54c-.08-.06-.27.13-.37.11-.48,3.24-2.35,5.71-2.67,8.89a17.16,17.16,0,0,0,4.6-2.78c.7-.51,1.3-1.34,2.19-.32a37.65,37.65,0,0,0,5.4-8.94,83.46,83.46,0,0,0,8.4-42.21,85.38,85.38,0,0,0-6.05-27c-2.25-5.59-4.76-11.11-8.82-15.71A1.51,1.51,0,0,0,232.83,61.36Zm-1.25,13.32a2,2,0,0,1-.67-2.28c.82.85,1.19,1.4,1.14,2.14C231.87,74.6,231.65,74.73,231.58,74.68ZM112.18,61.45c-.2.58-1.32.52-1.64-.35A11.12,11.12,0,0,0,109,59c-.76-1.19-3.3-1.87-2.47-3.15a9.67,9.67,0,0,1,5.15-4c.36,2.51-4.47,2.78-2,5.77,1.07,1.3,1.16,1.29,4.83.19C114.23,59.39,112.66,60.07,112.18,61.45Zm4.18,30.16c-.14-.07-.37-.1-.41-.2s.1-.28.16-.43l.44.19h0C116.49,91.32,116.43,91.46,116.36,91.61Zm-3.16,77.55a.61.61,0,0,1-.26.08.64.64,0,0,1-.8-.73.63.63,0,0,1,.68-.62.93.93,0,0,1,.25,0,.64.64,0,0,1,.43.59A.76.76,0,0,1,113.2,169.16Zm1.57,1.05h-.09a3.59,3.59,0,0,1-.34-.17h0c0-.11.08-.27.13-.35a.16.16,0,0,1,.07-.07c.1,0,.28.11.43.17C114.91,169.94,114.87,170.17,114.77,170.21Zm6.85,2.1c-.14-.06-.37-.1-.41-.2s.1-.28.17-.43h0a2.83,2.83,0,0,1,.35.14.12.12,0,0,1,.06.06C121.83,172,121.69,172.16,121.62,172.31Zm98.23-4.41a.34.34,0,0,0,0-.12c0-.12.08-.26.16-.29a.14.14,0,0,1,.09,0,3.4,3.4,0,0,1,.34.16h0c-.07.15-.1.38-.2.42s-.12,0-.2,0-.16-.09-.23-.12Zm-1.74-56.37c-1.09-3-1.09-3-.62-5.12C218,108.41,218.58,109.9,218.11,111.53Zm-1.69-7.79c.67-.19,1,0,1,.72,0,.46-.15,1-.69.86-2.76-.75-5.15,1.25-8,.53ZM205.17,93a.62.62,0,0,1,.45.41c0,.15-.24.33-.4.53-.26-.16-.58-.25-.62-.41C204.49,93.12,204.83,93,205.17,93Zm-2.77.41c.24.17.55.26.59.43.11.44-.26.56-.59.52a.67.67,0,0,1-.44-.43C202,93.78,202.22,93.62,202.4,93.42Zm-2.4.75c.1,0,.28.1.43.17h0c-.07.14-.1.37-.21.41s-.28-.1-.42-.17C199.86,94.44,199.89,94.21,200,94.17Zm-3.17-2.11a.14.14,0,0,1,.09,0,1.8,1.8,0,0,1,.34.17h0c0,.11-.08.26-.13.35a.13.13,0,0,1-.07.06c-.1,0-.28-.1-.43-.17C196.7,92.33,196.73,92.1,196.83,92.06ZM196.27,90l.43.19c-.06.15-.09.38-.19.42s-.29-.11-.43-.17l.18-.44ZM196,87.87l.06.07a2.53,2.53,0,0,1,.12.36h0a3.23,3.23,0,0,1-.34.15h-.09c-.11,0-.13-.28-.19-.43C195.74,88,195.92,87.83,196,87.87Zm-.86-2a.12.12,0,0,1,.06-.06c.11,0,.28.1.43.17-.06.14-.1.37-.2.41a.14.14,0,0,1-.09,0,3.59,3.59,0,0,1-.34-.17h0A2.83,2.83,0,0,1,195.17,85.83Zm-34.47-8c.16,0,.22.39.37.66-.22.15-.42.4-.56.36a.68.68,0,0,1-.39-.48C160.09,78.05,160.31,77.75,160.7,77.87ZM123,79.4a.14.14,0,0,1,.09,0,3.59,3.59,0,0,1,.34.17h0a2.83,2.83,0,0,1-.14.35l-.06.06c-.11,0-.29-.1-.43-.16C122.86,79.67,122.89,79.44,123,79.4Zm-4.3,61.49c-1.26-1-.82-2-.57-3.26C119.23,138.84,118.78,139.69,118.7,140.89Zm1.44-48.3a.13.13,0,0,1-.07.06c-.1,0-.28-.1-.43-.16.07-.15.1-.38.2-.42h.09a2.7,2.7,0,0,1,.34.17h0A1.81,1.81,0,0,1,120.14,92.59ZM120.31,66c-.26-.16-.58-.25-.62-.41-.11-.42.23-.58.57-.54a.66.66,0,0,1,.45.42C120.73,65.62,120.47,65.8,120.31,66Zm60.25,91.63c-.29,3.64-.68,7.28-1,10.91-.06.65-.08,1.18-1,1.09-5.86-.58-11.74-.23-17.6-.2-2.19,0-1.39-1.25-1.56-2.32-.8-4.88-.2-9.79-.32-14.68,0-.21.19-.43.45-1,.86,1.39.51,2.54.53,3.64.07,3.08.9,4.27,4,4.19,4.69-.12,9.38-.66,14.07-1,1.83-.14,1.15-1.89,1.83-2.91C181,155.92,180.62,156.89,180.56,157.63Zm-21.82-8.92c.35-.69,1.08-.42,1.65-.42,2.75,0,5.49,0,8.24,0v.82c-1.86.5-3.78.12-5.66.24-.78,0-1.57,0-2.35.12-.56.06-1,1.33-1.67.21A1.26,1.26,0,0,1,158.74,148.71Zm22.19.74c-1.37,1-1.86-.57-2.72-1.33,1.2.52,1.77-2.32,3-.54A1.3,1.3,0,0,1,180.93,149.45Zm1,19.33c-.13,0-.27-.13-.4-.2l.4-.23.39.23C182.17,168.65,182,168.78,181.91,168.78Zm.38-9.67c-.15-.06-.38-.09-.42-.19s.11-.29.17-.43l.44.18h0C182.41,158.82,182.35,159,182.29,159.11Zm16.36-12.67c-.1.05-.28-.1-.42-.16.06-.15.09-.37.19-.41h.1a2,2,0,0,1,.33.16h0C198.79,146.18,198.76,146.4,198.65,146.44Zm2.2,10.51a3.07,3.07,0,0,1-.83.22c-.32,0-.77-.06-.65-.55s.48-.44.83-.39S200.91,156.29,200.85,157Zm2.55-.43h0c-.11-.05-.27-.08-.35-.13a.46.46,0,0,1-.07-.07c0-.11.11-.28.17-.43.14.06.37.09.41.2a.14.14,0,0,1,0,.09A2.06,2.06,0,0,1,203.4,156.52ZM206,156c-.15-.06-.37-.09-.41-.2s.1-.28.16-.43l.44.19h0C206.15,155.66,206.08,155.8,206,156Zm2.62-.51h-.09a3.59,3.59,0,0,1-.34-.17h0a2.83,2.83,0,0,1,.14-.35.13.13,0,0,1,.07-.06c.1,0,.28.1.43.16C208.78,155.17,208.75,155.4,208.64,155.44Zm2.14-.5h0a2.83,2.83,0,0,1-.35-.14l-.06-.06c0-.11.1-.29.16-.43.15.06.38.09.42.2a.14.14,0,0,1,0,.09A3.59,3.59,0,0,1,210.78,154.94Zm2.07-.57c-.1,0-.28-.1-.43-.16l.19-.44h0l.44.19C213,154.1,213,154.33,212.85,154.37Zm21.26-24.79c-.36-.2-.6-.26-.62-.36-.55-3.72-.64-3.7-4.18-2.17-2.08.9-4.28,1.57-6.44,2.27a3.52,3.52,0,0,0-2.73,3.7,15.74,15.74,0,0,1-.44,4.42c-.43,1.53.41,2.65,1.93,3.38-2.24,2-5.1,1.91-7.6,2.59-3.69,1-7.48,1.7-11.25,2.41-2.53.47-2.42-.76-2-2.17.66-2.36.22-4.72.42-7.07.15-1.7-.67-2.2-2.19-2-5.62.68-11.22,1.62-16.87,1.95-5.85.35-11.71.66-17.58.77-9,.18-17.85-1.31-26.79-1.68-.57,0-1.54,0-1.11-.89,1.46-3,.48-6.22.68-9.33s.44-3.36,3.38-2.91a105,105,0,0,0,15.95,1.06c1.89,0,2.39-.65,2.36-2.45-.09-5.79,0-11.59,0-17.39,0-.62,0-1.24,0-1.85.24-4.2.25-4.2-4.15-4.2-3.93,0-7.82-.77-11.73-.9-6-.2-11.65-1.87-17.48-2.7a6.59,6.59,0,0,0-2.06.2c-.91.16-1.32-.54-1.63-1.08-.43-.76.45-.72.85-.93.61-.33.72-.9.89-1.51.67-2.45,1.33-4.9,2.18-7.29.5-1.41.65-2.51-1.09-3.31,3.86,0,7.26,1.53,10.88,2,5.71.7,11.39,1.81,17.15,1.74,2.53,0,5.13,1.72,7.65-.2.4-.31,1.19.42.87.86-.67.92-.58,2-.88,2.92s-1,.48-1.25-.11c-.95-2.5-3-2.07-5-2.09A45,45,0,0,1,146,84.7c-2-.37-2.51.65-2.71,1.93-.31,2-.7,4-1.1,5.91-.36,1.81.08,2.82,2.35,3.08,3.78.43,7.57.58,11.34.95,1.88.18,3.08-.5,3.11-2.6a3.53,3.53,0,0,1,.4-2.41c.89.5.62,1.18.64,1.74.14,3.82.14,4,4.08,3.78,4.88-.21,9.75-.13,14.65-.56,6-.51,11.95-.79,17.86-1.86.92-.17,1.25.12,1.39,1a93,93,0,0,1,1.49,9.29c.13,2.33,1.32,2.35,2.89,2.12s3.17-.62,4.83-.69c-1.25.68-2.28,1.7-3.77,1.81-2,.16-3,1.15-2.81,3.27.23,2.43.35,4.88.57,7.31.14,1.63,1.41,1.73,2.54,1.49,4.19-.86,8.35-1.87,12.53-2.77,2.11-.46,1.53-2.43,2.08-3.75,1,.28.7,1,.74,1.54.07,1,.45,1.48,1.51,1.1,4.35-1.54,8.89-2.62,12.9-5.37C233.91,117.22,235.17,123.3,234.11,129.58Z"/><path class="cls-8" d="M135.23,30c4.23-1.47,8.64.7,12.91-.69,1.42-.46,3.65-1.24,3,2.06-.28,1.41,1.43,1.19,2.56,1.92-2.26,1.39-4.36,2.68-6.45,4-.65.4-1.56.67-1.35,1.69s1.13.68,1.71,1,2.28-.13,1.32,1.64c-.36.65.34.62.74.64.87,0,1.75,0,2.63,0,1.83,0,2.1.9,1.24,2.37-.39.68-.73,1.38-1.05,2.09a3.59,3.59,0,0,1-5.7.75c-.63-.72-.06-1.11.33-1.54.69-.77,1.64-1.41,1.06-2.83a7.06,7.06,0,0,0-2.66,2.71c-1.25,1.82-2.75,2.79-5.1,1.67s-4.66-1.47-6.87-2.6c-1.93-1-1.84-1.75-.07-2.86a67.21,67.21,0,0,1,9.07-4.92c-.75-.57-1.57-.89-1.87-1.48-.79-1.54-1.69-1-2.81-.51A88,88,0,0,0,129.59,39c-.56.34-1.29.93-1.92.31s-.41-1.43,0-2.18c.88-1.57,1-3.59,3.41-4.12.94-.21.29-1.51-.06-2.3a24.83,24.83,0,0,0-7.38,3.7c-.1,1-.85,1-1.59,1a15.17,15.17,0,0,0-6.35,4.19c1,2.15-.8,4.29.09,6.51,1.11,2.76-3.36,2.8-2.9,5.38.69.2,1-.28,1.34-.66,1-1.26,2.17-1.47,3.4-.43,1.55,1.32.09,2.1-.65,3-.4.47-1,1-.54,1.57.74.82,1.3-.14,1.62-.6,1.62-2.27,3.37-2.19,5.58-.79a33.12,33.12,0,0,0,10.7,4.12c2,.43,2.33,1.49,1.34,3.21-1.39,2.43-2.68,4.92-4.07,7.35-.44.76-.67,1.38.49,1.41,3.69.08,7.18,1.58,10.85,1.56,1.53,0,2,.7,2.37,2,1.14-3.53,2.14-6.94,3-10.38.41-1.68,1.28-2.24,3-2.19,2.45.06,4.84.93,7.3.55s2.89,1,2.43,2.77c-.63,2.51-.19,5.08-.68,7.56-.19,1-.11,1.76,1,1.58,3.93-.66,8,.31,11.79-.48,2.42-.5,3,.62,3.12,2.22.28,2.93,1.12,5.82.82,8.79-.09,1,.19,1.3,1.15,1.16a96,96,0,0,1,10.61-1.29c2,0,4.39-2.13,6.27,1,.24-1.54.87-2.12,2.23-2.28a46.44,46.44,0,0,0,5.86-1.36c2.07-.52,5.35-.32,5.91-1.77.69-1.76-1.3-4.13-2.32-6.15-2.67-5.34-2.67-5.33,2.95-7.26,3.25-1.12,6.74-1.83,8.87-5-.26,0-.61-.09-.78,0-3,2.51-5.09,1.2-6.93-1.64a22.74,22.74,0,0,0-3.23-3.78c-1.48-1.46.18-2.21.73-3.47-2.79,1.86-4.28.11-5.83-1.63-1-1.12-2.13-2.1-3.15-3.19-.67-.72-2-1.41-1-2.6a2.84,2.84,0,0,1,3.56-.92c2.75,1.36,5.08,3.39,7.55,5.2,1.28.94-.33,1.82-.22,2.89,2.4-.5,2.59-2.88,4-4,2-1.49,1-3.34.66-5.4a24.78,24.78,0,0,1,8.72,6.56c2.32,2.76.62,7.55-2.87,9-1.21.49-.79,2-1.22,3,1.23-.18,2.54-1.18,3.64.24,1.65,2.14,3.27,4.32,4.89,6.49a1.64,1.64,0,0,1-.07,2.38c-1.68,1.36-3.21,3.26-5.51,3.32s-1.54,1.4-1,2.11c2.73,3.47,3.83,7.75,5.95,11.54,2.25-1.47,4.64-2.71,6.78-4.39,2.52-2,2.55-3.59-.36-5.57.36,1.63,1.91,3.2,0,4.6l-3.43,2.42c-1.43,1-2.66.83-3.47-.74-1.2-2.34-2.3-4.72-3.41-7.1a1.62,1.62,0,0,1,.63-2.09c2.26-1,3.86-3.52,7.26-2.93-1.36-1.37-1.19-2.22-.2-3.39,1.47-1.75,3.18-3.56,2.59-6.26a1.51,1.51,0,0,1,1-1.68c-1.93-4-5-7.13-8-10.28a84.84,84.84,0,0,0-30.76-20.58c-.61-.24-1.21-.49-1.83-.72A61.27,61.27,0,0,0,187,26.16a122.81,122.81,0,0,0-19.11-2.8c-5.22-.47-10.39.66-15.59,1.15a56.61,56.61,0,0,0-5.92.87,43.67,43.67,0,0,0-8.21,2.49c-.49.2-1,.4-1.45.62-.69.33-1.38.67-2.06,1C134.84,29.7,135.1,30.05,135.23,30Zm23.08,2.67a.71.71,0,0,1-1.2.39c-.77-.81-1.81-.1-3.21-.92,1.55-.4,2.46-1.07,3.6-.6C158,31.75,158.48,32,158.31,32.68Zm-6,3.8c-.81,1.41-1.25,2.31-2.75,1.81A3.68,3.68,0,0,1,152.32,36.48Zm0,3.65c-.46-1.23.85-1.78,1.53-2.47,1.33-1.33,2.44-3,4.66-3.33.31.07.84,0,1.1.29.52.51-.08.9-.33,1.32-.79,1.35-1.6,2.68-2.34,4.05-.47.87-1.07,1.51-2.06,1C154,40.52,152.71,41.19,152.32,40.13Zm-5.18,19.59-7.41-1.48c-1.27-.26-1.63-.87-.81-2,.61-.85,1.07-1.8,1.65-2.68,3.23-4.93,4.75-5.39,10.35-3.41.89.31,1.13.53.77,1.43-.92,2.26-1.8,4.54-2.59,6.86A1.64,1.64,0,0,1,147.14,59.72Zm9,0c-1.54-.32-4.28.8-4.89-2-.49-2.32,2.45-6.23,4.11-6.25,3.87,0,5.57.92,5.56,3.1C160.87,59,160.34,59.67,156.12,59.67Zm16.25,11.22c-2.8.53-5.57.22-8.34.37a1.69,1.69,0,0,1-1.62-.67c-.38-.56.06-7.55.6-7.91,1.09-.75,2.37-.24,3.57-.36a11.43,11.43,0,0,1,1.31,0c5.71,0,5.59,0,6.45,5.73C174.63,70,174.41,70.51,172.37,70.89ZM194.28,57.8c2.56-.61,3.59.68,4.5,2.3,1,1.82,2.08,3.65,3.27,5.38.76,1.12.66,1.77-.65,2.1-3.35.86-6.67,1.92-10.2,1.9-1.64,0-2.87,1.33-4.64,1.34a47.7,47.7,0,0,0-7.5.91c-1.83.32-3-.23-3.11-2.1a52,52,0,0,0-1.12-6.7c-.29-1.48.22-2.19,1.94-2.26,2.6-.09,5.18-.55,7.78-.84.42,0,1-.2,1.26,0,.86.67,1.65.77,2.13-.23.75-1.54-.92-.69-1.31-1.18-1.87-2.37-2.87-5.19-4.18-7.86-.43-.87.57-.92,1.09-1.06,1.77-.47,3.55-.87,5.33-1.31a1.69,1.69,0,0,1,1.81.79c1.53,1.9,3,3.83,4.57,5.74C196.23,56,196.79,57.09,194.28,57.8Zm.83-12.94c-.27.82-1.15.67-1.71,1-2.23,1.34-4.17,1.29-5.84-1.07-1.3-1.84-3.29-3.08-4.59-5-.4-.6-2.37-3.06-3.91-.14-.56,1.07-2.13.4-3.23.54-.56.07-1.14.2-1.28.75-.19.77.6.61,1,.87,2.38,1.53,3.41,4.11,4.75,6.41.55.95-.44,1.34-1.29,1.43-7.95.89-15.94.47-23.92.53-1.49,0-2.2-.59-1.38-2.13a6.86,6.86,0,0,0,.43-1c1.84-4.85,1.84-4.85,6.71-4.81,1.14,0,2.27,0,3.75,0-2.13-4.08,1.23-7.51,0-11.07,1.22-.29,1.22,1.15,2,.85a1.41,1.41,0,0,1,2.08.94c.31,1.15-1,.6-1.4,1.06a1,1,0,0,0-.26.68c.12.62.57.49,1,.37a4.32,4.32,0,0,1,3.71.57c1.16.75,2.24-.81,2.57-1.45.78-1.5,1.74-1,2.58-.6C182.05,36,190.58,40.4,195.11,44.86Z"/><path class="cls-8" d="M85.63,87.05c.36,3.23.16,6.84-1.84,9-2.33,2.55.18,4.22-.11,6.24,0,.29.41.56.81.46a.54.54,0,0,0,.39-.8c-1.36-2.95.61-5.56.87-8.35.1-1.08.28-2.63,1.31-3,1.22-.47,1.76,1.14,2.6,1.83s1.59,1.65,2.5,2.33a1.62,1.62,0,0,1,.74,2c-1.24,3.36-1.21,7-2.69,10.34a1.43,1.43,0,0,0,.74,2c2.62,1.41,5.24,2.85,8,4,1.6.7,3.31,1.08,3.57,3.37a4,4,0,0,0,.91-2c-.14-3.43.91-6.7,1.21-10.06.13-1.43,2-1.88,1.76-2.86-1.2-4.64,1-8.34,2.94-12.14.56-1.1-.12-1.14-.81-1.33-2.92-.77-5.4-2.48-8.1-3.74-1.42-.67-1.77-1.68-1-3.22a73,73,0,0,1,4.52-8.29c.67-1,1-1.5-.42-2.38a8.82,8.82,0,0,1-4.5-5.6c-2.5,3.8-4.8,7.32-7.15,10.9-1.19-1.35-.8-2.73-.9-4-.06-.81.35-1.86-1-2.11l-1.15,2.61c-2,4.44-4,8.85-4.72,13.72C84.8,86.07,85.52,86.06,85.63,87.05Z"/><path class="cls-8" d="M103.36,158.42a40.29,40.29,0,0,0,8.88,3.62c4.91,1.15,9.52,3.39,14.62,4,4.4.51,8.75,1.47,13.13,2.19,1.15.19,1.79-.05,1-1.38a4.76,4.76,0,0,1-.46-1.74c-.36-2.32-1.33-4.63-.31-7-2.52-2.09-.59-5.18-1.69-7.65-.54-1.21-2.39-3.77-3.8-4A140.88,140.88,0,0,1,117.17,143c2.44,2.93,1.49,6.17,2.38,9,.68,2.18-.32,2.33-1.91,1.93-8.49-2.13-16.7-5-24.07-9.87-.08,2.62,1.42,4.74,2.22,7.09.32,1,1,2-.65,2.41.83,2,2.6,3.43,3.74,5.26C100.17,156.34,101.74,157.6,103.36,158.42Z"/><path class="cls-7" d="M131.09,33c-2.39.53-2.53,2.55-3.41,4.12-.42.75-.62,1.57,0,2.18s1.36,0,1.92-.31a88,88,0,0,1,8.29-3.89c1.12-.52,2-1,2.81.51.3.59,1.12.91,1.87,1.48A67.21,67.21,0,0,0,133.49,42c-1.77,1.11-1.86,1.87.07,2.86,2.21,1.13,4.67,1.55,6.87,2.6s3.85.15,5.1-1.67a7.06,7.06,0,0,1,2.66-2.71c.58,1.42-.37,2.06-1.06,2.83-.39.43-1,.82-.33,1.54a3.59,3.59,0,0,0,5.7-.75c.32-.71.66-1.41,1.05-2.09.86-1.47.59-2.33-1.24-2.37-.88,0-1.76,0-2.63,0-.4,0-1.1,0-.74-.64,1-1.77-.66-1.26-1.32-1.64s-1.53-.14-1.71-1,.7-1.29,1.35-1.69c2.09-1.3,4.19-2.59,6.45-4-1.13-.73-2.84-.51-2.56-1.92.64-3.3-1.59-2.52-3-2.06-4.27,1.39-8.68-.78-12.91.69-.13,0-.39-.31-.58-.48-1.31.08-2.69-.06-3.62,1.19C131.38,31.51,132,32.81,131.09,33Zm8.68-1.19a.63.63,0,0,1,.46.42c0,.14-.24.32-.41.52-.26-.16-.58-.25-.62-.4C139.09,32,139.43,31.78,139.77,31.83Z"/><path class="cls-8" d="M137,185.37c.14-.74-.6-.77-.88-1.15-.44-.58-1.59-1-1.05-1.85.43-.7,1.47-.43,2.2-.24,6.62,1.71,13.46,1.1,20.16,1.94,3.36.43,3.35.13,3.12-3.33-.12-1.75,0-3.51-.05-5.26,0-.71.29-1.55-.89-2.47.66,4.84-2.56,3.78-5,3.71-4-.1-7.94-.8-11.85-1.1-4.09-.31-8-1.23-12.09-1.54-2-.15-3.65-1.93-6.59-.9,3.38.36,4,2.74,5.37,4.49.33.44.59,1,.1,1.39a1.37,1.37,0,0,1-1.2.22c-2.8-1.19-6.07-1.2-8.48-3.33-1.21-1.06-1.84-.75-2.1.74a1,1,0,0,0,1,.6c.77,0,1.54,0,1.6,1h0c.76,0,1.52,0,1.58,1a37.45,37.45,0,0,0,11.62,5.79C134.84,184.17,135.87,185.94,137,185.37Z"/><path class="cls-8" d="M232.72,153.87a17.16,17.16,0,0,1-4.6,2.78c.33-3.32,2.38-5.86,2.57-8.91a3.5,3.5,0,0,0-1,.1c-3.94,1.68-7.81,3.54-12.1,4.22-.68.11-.92.69-1.09,1.33-.73,2.61-1.51,5.21-2.28,7.8-.14.5-.51,1-.1,1.48s1.13.15,1.68,0l9.13-3.27.12-.22-.12.22a3.79,3.79,0,0,1,0,.68c-.22,1.52-1.44,2.57-2.12,3.88-.49,1-1.94,1.79-1.28,2.84a.75.75,0,0,0,.87.28,10.34,10.34,0,0,1,1.6-.36,1.65,1.65,0,0,1,.32,0h.07a62.81,62.81,0,0,0,10.59-13.17C234,152.53,233.42,153.36,232.72,153.87Z"/><path class="cls-8" d="M91.76,133.36c.07-.3-.54-1-1-1.13-2.18-.65-3.25-2.59-4.82-3.94-.75-.65-1.08-1.91-2.44-1.64.69,5.21,2.8,10,4.78,14.76,2.28-.18,3,2.72,5.24,2.64C93.24,140.45,90.86,137.2,91.76,133.36Z"/><path class="cls-7" d="M95.79,151.14c-.8-2.35-2.3-4.47-2.22-7.09h0c-2.23.08-3-2.82-5.24-2.64a41.17,41.17,0,0,0,6.81,12.14C96.83,153.14,96.11,152.1,95.79,151.14Z"/><path class="cls-7" d="M123.65,34.42a1.48,1.48,0,0,0-1.59,1C122.8,35.42,123.55,35.43,123.65,34.42Z"/><path class="cls-7" d="M120.47,178.33a1.59,1.59,0,0,0,1.58,1C122,178.32,121.23,178.32,120.47,178.33Z"/><path class="cls-7" d="M118.87,177.29a1.66,1.66,0,0,0,1.6,1C120.41,177.25,119.64,177.27,118.87,177.29Z"/><path class="cls-8" d="M220.59,116.39c-1.06.38-1.44-.08-1.51-1.1,0-.53.28-1.26-.74-1.54-.55,1.32,0,3.29-2.08,3.75-4.18.9-8.34,1.91-12.53,2.77-1.13.24-2.4.14-2.54-1.49-.22-2.43-.34-4.88-.57-7.31-.21-2.12.81-3.11,2.81-3.27,1.49-.11,2.52-1.13,3.77-1.81-1.66.07-3.24.47-4.83.69s-2.76.21-2.89-2.12A93,93,0,0,0,198,95.67c-.14-.89-.47-1.18-1.39-1-5.91,1.07-11.89,1.35-17.86,1.86-4.9.43-9.77.35-14.65.56-3.94.17-3.94,0-4.08-3.78,0-.56.25-1.24-.64-1.74A3.53,3.53,0,0,0,159,94c0,2.1-1.23,2.78-3.11,2.6-3.77-.37-7.56-.52-11.34-.95-2.27-.26-2.71-1.27-2.35-3.08.4-2,.79-3.93,1.1-5.91.2-1.28.75-2.3,2.71-1.93a45,45,0,0,0,8.22.52c2,0,4-.41,5,2.09.22.59,1,1.14,1.25.11s.21-2,.88-2.92c.32-.44-.47-1.17-.87-.86-2.52,1.92-5.12.17-7.65.2-5.76.07-11.44-1-17.15-1.74-3.62-.45-7-1.95-10.88-2,1.74.8,1.59,1.9,1.09,3.31-.85,2.39-1.51,4.84-2.18,7.29-.17.61-.28,1.18-.89,1.51-.4.21-1.28.17-.85.93.31.54.72,1.24,1.63,1.08a6.59,6.59,0,0,1,2.06-.2c5.83.83,11.52,2.5,17.48,2.7,3.91.13,7.8.91,11.73.9,4.4,0,4.39,0,4.15,4.2,0,.61,0,1.23,0,1.85,0,5.8-.06,11.6,0,17.39,0,1.8-.47,2.46-2.36,2.45a105,105,0,0,1-15.95-1.06c-2.94-.45-3.2-.06-3.38,2.91s.78,6.29-.68,9.33c-.43.91.54.87,1.11.89,8.94.37,17.79,1.86,26.79,1.68,5.87-.11,11.73-.42,17.58-.77,5.65-.33,11.25-1.27,16.87-1.95,1.52-.18,2.34.32,2.19,2-.2,2.35.24,4.71-.42,7.07-.39,1.41-.5,2.64,2,2.17,3.77-.71,7.56-1.4,11.25-2.41,2.5-.68,5.36-.55,7.6-2.59-1.52-.73-2.36-1.85-1.93-3.38a15.74,15.74,0,0,0,.44-4.42,3.52,3.52,0,0,1,2.73-3.7c2.16-.7,4.36-1.37,6.44-2.27,3.54-1.53,3.63-1.55,4.18,2.17,0,.1.26.16.62.36,1.06-6.28-.2-12.36-.62-18.56C229.48,113.77,224.94,114.85,220.59,116.39Z"/><path class="cls-8" d="M179.91,155.35c-.68,1,0,2.77-1.83,2.91-4.69.36-9.38.9-14.07,1-3.11.08-3.94-1.11-4-4.19,0-1.1.33-2.25-.53-3.64-.26.55-.46.77-.45,1,.12,4.89-.48,9.8.32,14.68.17,1.07-.63,2.33,1.56,2.32,5.86,0,11.74-.38,17.6.2.95.09,1-.44,1-1.09.35-3.63.74-7.27,1-10.91C180.62,156.89,181,155.92,179.91,155.35Z"/><path class="cls-8" d="M109.68,57.58c-2.44-3,2.39-3.26,2-5.77a9.67,9.67,0,0,0-5.15,4c-.83,1.28,1.71,2,2.47,3.15a11.12,11.12,0,0,1,1.51,2.1c.32.87,1.44.93,1.64.35.48-1.38,2-2.06,2.33-3.68C110.84,58.87,110.75,58.88,109.68,57.58Z"/><path class="cls-8" d="M160.61,149.45c.78-.08,1.57-.08,2.35-.12,1.88-.12,3.8.26,5.66-.24v-.82c-2.75,0-5.49,0-8.24,0-.57,0-1.3-.27-1.65.42a1.26,1.26,0,0,0,.2.95C159.63,150.78,160.05,149.51,160.61,149.45Z"/><path class="cls-8" d="M216.76,105.32c.54.14.7-.4.69-.86,0-.68-.36-.91-1-.72l-7.65,2.11C211.61,106.57,214,104.57,216.76,105.32Z"/><path class="cls-8" d="M181.26,147.58c-1.28-1.78-1.85,1.06-3,.54.86.76,1.35,2.29,2.72,1.33A1.3,1.3,0,0,0,181.26,147.58Z"/><path class="cls-8" d="M218.11,111.53c.47-1.63-.07-3.12-.62-5.12C217,108.52,217,108.52,218.11,111.53Z"/><path class="cls-8" d="M118.7,140.89c.08-1.2.53-2-.57-3.26C117.88,138.93,117.44,139.85,118.7,140.89Z"/><path class="cls-8" d="M231.58,74.68c.07,0,.29-.08.47-.14,0-.74-.32-1.29-1.14-2.14A2,2,0,0,0,231.58,74.68Z"/><path class="cls-8" d="M113.07,167.93a.93.93,0,0,0-.25,0,.63.63,0,0,0-.68.62.64.64,0,0,0,.8.73.61.61,0,0,0,.26-.08.76.76,0,0,0,.3-.64A.64.64,0,0,0,113.07,167.93Z"/><path class="cls-8" d="M200.2,156.23c-.35,0-.74,0-.83.39s.33.55.65.55a3.07,3.07,0,0,0,.83-.22C200.91,156.29,200.52,156.27,200.2,156.23Z"/><path class="cls-8" d="M205.22,94c.16-.2.42-.38.4-.53a.62.62,0,0,0-.45-.41c-.34-.05-.68.11-.57.53C204.64,93.7,205,93.79,205.22,94Z"/><path class="cls-8" d="M202.4,94.37c.33,0,.7-.08.59-.52,0-.17-.35-.26-.59-.43-.18.2-.45.36-.44.52A.67.67,0,0,0,202.4,94.37Z"/><path class="cls-8" d="M120.26,65.05c-.34,0-.68.12-.57.54,0,.16.36.25.62.41.16-.2.42-.38.4-.53A.66.66,0,0,0,120.26,65.05Z"/><path class="cls-8" d="M160.51,78.89c.14,0,.34-.21.56-.36-.15-.27-.21-.61-.37-.66-.39-.12-.61.18-.58.54A.68.68,0,0,0,160.51,78.89Z"/><path class="cls-8" d="M196.51,90.56c.1,0,.13-.27.19-.42l-.43-.19h0c-.07.15-.13.3-.19.44C196.22,90.45,196.4,90.6,196.51,90.56Z"/><path class="cls-8" d="M195.78,88.45h.09a3.23,3.23,0,0,0,.34-.15h0a2.53,2.53,0,0,0-.12-.36l-.06-.07c-.11,0-.29.1-.44.15C195.65,88.17,195.67,88.4,195.78,88.45Z"/><path class="cls-8" d="M197.06,92.64a.13.13,0,0,0,.07-.06c.05-.09.08-.24.13-.35h0a1.8,1.8,0,0,0-.34-.17.14.14,0,0,0-.09,0c-.1,0-.13.27-.2.41C196.78,92.54,197,92.68,197.06,92.64Z"/><path class="cls-8" d="M195.37,86.35a.14.14,0,0,0,.09,0c.1,0,.14-.27.2-.41-.15-.07-.32-.21-.43-.17a.12.12,0,0,0-.06.06,2.83,2.83,0,0,0-.14.35h0A3.59,3.59,0,0,0,195.37,86.35Z"/><path class="cls-8" d="M198.52,145.87h-.1c-.1,0-.13.26-.19.41.14.06.32.21.42.16s.14-.26.2-.41h0A2,2,0,0,0,198.52,145.87Z"/><path class="cls-8" d="M123.23,80l.06-.06a2.83,2.83,0,0,0,.14-.35h0a3.59,3.59,0,0,0-.34-.17.14.14,0,0,0-.09,0c-.11,0-.14.27-.2.42C122.94,79.88,123.12,80,123.23,80Z"/><path class="cls-8" d="M230.73,147.51c0,.18,0,.24.06.25s.29-.17.37-.11l.33-.54-.45-.19c-.08.15-.2.29-.27.44a.06.06,0,0,1,0,0Z"/><path class="cls-8" d="M212.61,153.77c-.06.15-.12.29-.19.44.15.06.33.2.43.16s.14-.27.2-.41l-.44-.19Z"/><path class="cls-8" d="M208.42,154.86a.13.13,0,0,0-.07.06,2.83,2.83,0,0,0-.14.35h0a2.59,2.59,0,0,0,.33.17h.09c.11,0,.14-.27.21-.42C208.7,155,208.52,154.82,208.42,154.86Z"/><path class="cls-8" d="M205.77,155.32c-.06.15-.2.33-.16.43s.26.14.41.2c.06-.15.13-.29.19-.44h0Z"/><path class="cls-8" d="M203.15,155.89c-.06.15-.21.32-.17.43a.46.46,0,0,0,.07.07c.08.05.24.08.35.13h0a2.06,2.06,0,0,0,.16-.34.14.14,0,0,0,0-.09C203.52,156,203.29,156,203.15,155.89Z"/><path class="cls-8" d="M200.22,94.75c.11,0,.14-.27.21-.41h0c-.15-.07-.33-.21-.43-.17s-.14.27-.2.41C199.94,94.65,200.12,94.79,200.22,94.75Z"/><path class="cls-8" d="M182,158.49c-.06.14-.21.32-.17.43s.27.13.42.19c.06-.14.12-.29.19-.43h0Z"/><path class="cls-8" d="M220.08,168c.08,0,.15.07.2,0s.13-.27.2-.42h0a3.4,3.4,0,0,0-.34-.16.14.14,0,0,0-.09,0c-.08,0-.12.17-.16.29a.34.34,0,0,1,0,.12h0C219.92,167.93,220,168,220.08,168Z"/><path class="cls-8" d="M119.93,92.07h-.09c-.1,0-.13.27-.2.42.15.06.33.2.43.16a.13.13,0,0,0,.07-.06,1.81,1.81,0,0,0,.13-.35h0A2.7,2.7,0,0,0,119.93,92.07Z"/><path class="cls-8" d="M114.54,169.62a.16.16,0,0,0-.07.07c0,.08-.08.24-.13.35h0a3.59,3.59,0,0,0,.34.17h.09c.1,0,.14-.27.2-.42C114.82,169.73,114.64,169.58,114.54,169.62Z"/><path class="cls-8" d="M121.73,171.82a2.83,2.83,0,0,0-.35-.14h0c-.07.15-.21.32-.17.43s.27.14.41.2c.07-.15.21-.32.17-.43A.12.12,0,0,0,121.73,171.82Z"/><path class="cls-8" d="M116.11,91c-.06.15-.2.32-.16.43s.27.13.41.2c.07-.15.13-.29.19-.44h0Z"/><path class="cls-8" d="M210.53,154.31c-.06.14-.2.32-.16.43l.06.06a2.83,2.83,0,0,0,.35.14h0a3.59,3.59,0,0,0,.17-.34.14.14,0,0,0,0-.09C210.91,154.4,210.68,154.37,210.53,154.31Z"/><path class="cls-8" d="M181.51,168.58c.13.07.27.2.4.2s.26-.13.39-.2l-.39-.23Z"/><path class="cls-7" d="M176.9,33.62c-.84-.39-1.8-.9-2.58.6-.33.64-1.41,2.2-2.57,1.45A4.32,4.32,0,0,0,168,35.1c-.45.12-.9.25-1-.37a1,1,0,0,1,.26-.68c.39-.46,1.71.09,1.4-1.06a1.41,1.41,0,0,0-2.08-.94c-.8.3-.8-1.14-2-.85,1.24,3.56-2.12,7,0,11.07-1.48,0-2.61,0-3.75,0-4.87,0-4.87,0-6.71,4.81a6.86,6.86,0,0,1-.43,1c-.82,1.54-.11,2.15,1.38,2.13,8-.06,16,.36,23.92-.53.85-.09,1.84-.48,1.29-1.43-1.34-2.3-2.37-4.88-4.75-6.41-.39-.26-1.18-.1-1-.87.14-.55.72-.68,1.28-.75,1.1-.14,2.67.53,3.23-.54,1.54-2.92,3.51-.46,3.91.14,1.3,1.95,3.29,3.19,4.59,5,1.67,2.36,3.61,2.41,5.84,1.07.56-.34,1.44-.19,1.71-1C190.58,40.4,182.05,36,176.9,33.62Zm-7.36,7.25c.53,0,1.36.21,1.3,1s-.68.82-1.38.68c-1.09-.22-2.2-.32-3.3-.47l0-.56A31.11,31.11,0,0,1,169.54,40.87Zm-7.23,3.92a1.81,1.81,0,0,1,.51,2.57C161.78,46.75,162.26,46,162.31,44.79Z"/><path class="cls-7" d="M188.87,48.19c-1.78.44-3.56.84-5.33,1.31-.52.14-1.52.19-1.09,1.06,1.31,2.67,2.31,5.49,4.18,7.86.39.49,2.06-.36,1.31,1.18-.48,1-1.27.9-2.13.23-.26-.2-.84,0-1.26,0-2.6.29-5.18.75-7.78.84-1.72.07-2.23.78-1.94,2.26a52,52,0,0,1,1.12,6.7c.12,1.87,1.28,2.42,3.11,2.1a47.7,47.7,0,0,1,7.5-.91c1.77,0,3-1.35,4.64-1.34,3.53,0,6.85-1,10.2-1.9,1.31-.33,1.41-1,.65-2.1-1.19-1.73-2.23-3.56-3.27-5.38-.91-1.62-1.94-2.91-4.5-2.3,2.51-.71,1.95-1.85,1-3.08-1.52-1.91-3-3.84-4.57-5.74A1.69,1.69,0,0,0,188.87,48.19Zm-.79,15H188a2.7,2.7,0,0,1-.34-.17h0c0-.11.08-.27.13-.35a.16.16,0,0,1,.07-.07c.1,0,.28.11.43.17C188.21,62.88,188.18,63.1,188.08,63.15Zm1.28,2.47c-.15.06-.34.19-.44.15s-.13-.28-.18-.42c.14-.06.33-.2.43-.15s.13.27.19.42Zm4-7.78a4.41,4.41,0,0,1-4.23.83C190.8,58.09,191.76,57.57,193.41,57.84Z"/><path class="cls-7" d="M219.78,57.77c3.49-1.4,5.19-6.19,2.87-9a24.78,24.78,0,0,0-8.72-6.56c.33,2.06,1.31,3.91-.66,5.4-1.44,1.09-1.63,3.47-4,4-.11-1.07,1.5-2,.22-2.89-2.47-1.81-4.8-3.84-7.55-5.2a2.84,2.84,0,0,0-3.56.92c-.93,1.19.35,1.88,1,2.6,1,1.09,2.16,2.07,3.15,3.19,1.55,1.74,3,3.49,5.83,1.63-.55,1.26-2.21,2-.73,3.47a22.74,22.74,0,0,1,3.23,3.78c1.84,2.84,3.89,4.15,6.93,1.64.17-.13.52,0,.78,0h0C219,59.74,218.57,58.26,219.78,57.77Z"/><path class="cls-7" d="M167.89,62.31a11.43,11.43,0,0,0-1.31,0c-1.2.12-2.48-.39-3.57.36-.54.36-1,7.35-.6,7.91a1.69,1.69,0,0,0,1.62.67c2.77-.15,5.54.16,8.34-.37,2-.38,2.26-.93,2-2.85C173.48,62.33,173.6,62.31,167.89,62.31Z"/><path class="cls-7" d="M151.69,51.56c.36-.9.12-1.12-.77-1.43-5.6-2-7.12-1.52-10.35,3.41-.58.88-1,1.83-1.65,2.68-.82,1.15-.46,1.76.81,2l7.41,1.48a1.64,1.64,0,0,0,2-1.3C149.89,56.1,150.77,53.82,151.69,51.56Z"/><path class="cls-7" d="M160.9,54.5c0-2.18-1.69-3.13-5.56-3.1-1.66,0-4.6,3.93-4.11,6.25.61,2.82,3.35,1.7,4.89,2C160.34,59.67,160.87,59,160.9,54.5Z"/><path class="cls-7" d="M156.94,40c.74-1.37,1.55-2.7,2.34-4.05.25-.42.85-.81.33-1.32-.26-.25-.79-.22-1.1-.29-2.22.33-3.33,2-4.66,3.33-.68.69-2,1.24-1.53,2.47.39,1.06,1.72.39,2.56.84C155.87,41.5,156.47,40.86,156.94,40Z"/><path class="cls-7" d="M153.9,32.15c1.4.82,2.44.11,3.21.92a.71.71,0,0,0,1.2-.39c.17-.64-.33-.93-.81-1.13C156.36,31.08,155.45,31.75,153.9,32.15Z"/><path class="cls-7" d="M152.32,36.48a3.68,3.68,0,0,0-2.75,1.81C151.07,38.79,151.51,37.89,152.32,36.48Z"/><path class="cls-8" d="M139.82,32.77c.17-.2.42-.38.41-.52a.63.63,0,0,0-.46-.42c-.34,0-.68.12-.57.54C139.24,32.52,139.56,32.61,139.82,32.77Z"/><path class="cls-7" d="M225,159.13l-.12.22h0Z"/><path class="cls-8" d="M169.46,42.53c.7.14,1.32.09,1.38-.68s-.77-1-1.3-1a31.11,31.11,0,0,0-3.42.63l0,.56C167.26,42.21,168.37,42.31,169.46,42.53Z"/><path class="cls-8" d="M162.82,47.36a1.81,1.81,0,0,0-.51-2.57C162.26,46,161.78,46.75,162.82,47.36Z"/><path class="cls-8" d="M193.41,57.84c-1.65-.27-2.61.25-4.23.83A4.41,4.41,0,0,0,193.41,57.84Z"/><path class="cls-8" d="M188.74,65.35c0,.14.08.37.18.42s.29-.09.44-.15h0c-.06-.15-.09-.38-.19-.42S188.88,65.29,188.74,65.35Z"/><path class="cls-8" d="M187.85,62.56a.16.16,0,0,0-.07.07c-.05.08-.08.24-.13.35h0a2.7,2.7,0,0,0,.34.17h.09c.1,0,.13-.27.2-.42C188.13,62.67,188,62.52,187.85,62.56Z"/><text class="cls-9" transform="translate(194.94 426.46) rotate(-90)">N</text><text class="cls-9" transform="translate(194.94 407.33) rotate(-90)">C</text><text class="cls-9" transform="translate(124.5 434.2) rotate(-90)">G</text><text class="cls-9" transform="translate(124.5 416.12) rotate(-90)">N</text><text class="cls-9" transform="translate(124.5 396.99) rotate(-90)">D</text><text class="cls-9" transform="translate(160.06 431.22) rotate(-90)">V</text><text class="cls-9" transform="translate(160.06 413.48) rotate(-90)">C</text><text class="cls-9" transform="translate(160.06 396.63) rotate(-90)">C</text><text class="cls-9" transform="translate(227.52 425.61) rotate(-90)">D</text><text class="cls-9" transform="translate(227.52 406.95) rotate(-90)">1</text></g></g></svg>