<svg xmlns="http://www.w3.org/2000/svg" width="140" height="120" xmlns:xlink="http://www.w3.org/1999/xlink" viewBox="0 0 1440 810"><defs><style>.cls-1{fill:none;}.cls-2{clip-path:url(#clip-path);}.cls-3{fill:#e8e5d7;}.cls-4{fill:#2b2b2b;}.cls-5{fill:#004684;}.cls-6{fill:#737373;}.cls-7{fill:#f1eddd;}.cls-13,.cls-8{fill:#fff;}.cls-9{fill:#f6e089;}.cls-10{fill:#a6a6a6;}.cls-11{fill:#272626;}.cls-12{fill:#c7d0d8;}.cls-13{font-size:19.06px;font-family:Montserrat-Bold, Montserrat;font-weight:700;}</style><clipPath id="clip-path"><rect class="cls-1" width="1440" height="810"/></clipPath></defs><title>Asset 1</title><g id="Layer_2" data-name="Layer 2"><g id="Layer_1-2" data-name="Layer 1"><rect class="cls-1" width="1440" height="810"/><g class="cls-2"><path class="cls-1" d="M661.79,276.08l-46.07,26.65a8.47,8.47,0,0,1,.64,1.06c3,5.85,6.34,11.51,9.8,17.11,3.16,5.13,3.08,5.63-2.09,8.61-7,4.05-14.08,8.11-21.16,12.09-15.91,8.93-31.46,18.5-47.14,27.83-4,2.37-4.11,2.53-2,6.64,1.78,3.44,3.83,6.73,5.81,10.07,3.15,5.33,6.21,10.72,9.53,15.94,2.26,3.55,3.62,3.76,7.25,1.59,11.13-6.65,22.4-13,33.66-19.47,12-6.83,23.78-13.94,35.78-20.73,2.84-1.61,3.93-1.25,5.39,1.35,3.7,6.62,7.57,13.14,11.46,19.65,1.47,2.45.65,3.91-1.59,5.18-3.52,2-7,4.15-10.46,6.19q-11.08,6.46-22.19,12.87c-8.36,4.83-16.89,9.39-25.06,14.54-4.59,2.89-9.63,5-13.93,8.39-1.44,1.13-2.22,2.08-1.21,3.84q8.57,14.85,17.11,29.72c.92,1.6,2,2.08,3.81,1,4.12-2.54,8.38-4.85,12.57-7.26q18.43-10.56,36.85-21.14c7.38-4.24,14.77-8.47,22.09-12.82,2.36-1.4,4.55-1.75,6.05.81,3.84,6.54,7.42,13.23,11.19,19.81,1.56,2.72.44,4.64-1.85,5.82-6.88,3.53-13.23,8-20,11.72-17.2,9.63-34.33,19.36-51.17,29.61-2.54,1.55-2.24,2.72-1.17,4.57,1.55,2.68,3.23,5.28,4.78,8,3.77,6.52,7.4,13.12,11.26,19.59,2.22,3.71,3,3.91,6.42,1.95,4.54-2.63,8.93-5.5,13.47-8.14,7.51-4.37,15.15-8.52,22.6-13q9-5.4,18.14-10.42c5.26-2.87,10.27-6.2,15.52-9.09,3.93-2.17,4.37-2,6.84,2.12,3.18,5.29,6.08,10.76,9.24,16.08,2.91,4.91,2.7,6.41-2.22,9.29-8,4.73-16.19,9.29-24.27,14Q684.2,540,662.89,552.47c-4.89,2.88-5,3.84-2.15,8.6q6.94,11.82,13.68,23.76c2.59,4.59,2.56,4.68,7,2.11,8.55-5,17.06-10,25.63-15,13.63-7.88,27.33-15.65,40.93-23.59,13.36-7.8,26.69-15.64,40.24-23.11,4.07-2.24,8-4.83,12-7.14,3-1.72,3-3,1.27-6.21-2.36-4.25-5.1-8.3-7.42-12.54-6-10.88-12.32-21.49-18.54-32.2-6.43-11.11-12.77-22.27-19.17-33.4q-9.3-16.19-18.66-32.33c-6.4-11-12.88-22-19.27-33.11-7.08-12.24-14.07-24.54-21.17-36.78-5.24-9-10.75-17.94-15.85-27.06-5.79-10.36-11.58-20.72-17.7-30.89A4.24,4.24,0,0,1,661.79,276.08Z"/><path class="cls-1" d="M516.22,309.18a4.24,4.24,0,0,1-.12-4l-1.83,1.07c1.29,5.06,4.44,8.83,6.74,13,4.18,7.63,8.76,15,13.1,22.57a4.18,4.18,0,0,0,2.25,2.15l-.11-.15Z"/><path class="cls-3" d="M537.24,205.75,527.06,212c.06,1-.57,1.88-2.16,2.76-7.29,4-14.41,8.32-21.62,12.46-10.95,6.3-21.95,12.52-32.89,18.85-3.51,2-3.71,3-1.63,6.56,5.56,9.51,10.57,19.36,16.72,28.52,1.43,2.12,1.42,3.34-.87,4.63-3.55,2-7.07,4.08-10.49,6.29-4.19,2.72-4.13,2.78-1.91,7.4,1.35,2.83,3.48,5.22,4.86,7.92,9.85,19.19,21.77,37.17,32.13,56.05,6.61,12.05,13.69,23.84,20.55,35.75q16,27.69,31.9,55.38c10.13,17.57,20.05,35.27,30.5,52.65,8,13.34,15.46,27,23.36,40.4,6.9,11.68,13.59,23.49,20.38,35.24,9,15.49,17.94,30.95,26.84,46.46,2.57,4.48,2.76,4.59,7,2.09q23.06-13.7,46.17-27.3c3-1.78,4.43-1.39,6.31,1.36,4.93,7.21,9.11,14.91,13.27,22.53,7.54,13.83,15.69,27.3,23.35,41,10.1,18.13,20.7,36,31.24,53.88,1.54,2.61.83,3.7-1.45,5-8.91,5.13-17.73,10.42-26.62,15.58-4,2.32-4.26,2.43-2.19,6.16q6.23,11.19,12.85,22.15c2.36,3.88,3.88,4.25,7.59,1.6,4.78-3.4,10-6.08,15-9,20.15-11.68,40.42-23.16,60.6-34.78,16.16-9.31,32.27-18.73,48.41-28.1,2.86-1.65,5.78-3.21,8.61-4.9,3.49-2.07,3.63-2.69,1.56-6.28-3.68-6.39-7.44-12.73-11.08-19.13-1.33-2.33-2-5.07-4.54-7-10.15,5.89-20,11.62-29.88,17.33-3.16,1.83-4.11,1.54-6-1.68q-4.87-8.29-9.74-16.6-9.52-16.39-19-32.8Q821.23,608,808.38,585.6c-4.16-7.23-8.38-14.43-12.44-21.72-2.1-3.79-1.86-4.61,1.95-7,4.44-2.76,9-5.29,13.54-7.92,10.56-6.16,21.17-12.22,31.66-18.49,5.06-3,4.93-3.2,1.52-8.25-.76-1.12-1.28-2.4-2-3.59-3.74-6.6-7.44-13.23-11.23-19.79-6.42-11.09-12.92-22.13-19.34-33.22q-11-18.9-21.86-37.83-6.69-11.6-13.35-23.2c-5.43-9.44-10.83-18.9-16.28-28.33q-11.22-19.38-22.5-38.73-8.75-15.06-17.42-30.15l-12.79-22.11q-9.75-16.94-19.51-33.87c-7.94-13.75-15.93-27.48-23.86-41.23-3.39-5.88-6.59-11.87-10.08-17.68-2-3.28-2.81-3.37-6.11-1.52s-6.69,4-10.07,5.88c-2.91,1.64-4.94,1.47-5.83-1.05-1.24-3.56-3.7-6.34-5.38-9.61-3.54-6.88-7.89-13.34-11.87-20-1.2-2-2.36-2.62-4.68-1.22-8.49,5.11-17.1,10-25.7,14.95-9.26,5.31-18.5,10.67-27.85,15.81-4.67,2.58-5,2.51-7.55-1.81-1.46-2.46-2.91-4.94-4.35-7.41l-.22.09-15.51,6.22Zm100.25,28.33a4.26,4.26,0,0,1,5.81,1.56l20,34.62a4.2,4.2,0,0,1,.38,3.36c6.12,10.17,11.91,20.53,17.7,30.89,5.1,9.12,10.61,18,15.85,27.06,7.1,12.24,14.09,24.54,21.17,36.78,6.39,11.06,12.87,22.06,19.27,33.11q9.36,16.14,18.66,32.33c6.4,11.13,12.74,22.29,19.17,33.4,6.22,10.71,12.59,21.32,18.54,32.2,2.32,4.24,5.06,8.29,7.42,12.54,1.76,3.2,1.74,4.49-1.27,6.21-4.06,2.31-8,4.9-12,7.14-13.55,7.47-26.88,15.31-40.24,23.11-13.6,7.94-27.3,15.71-40.93,23.59-8.57,4.95-17.08,10-25.63,15-4.41,2.57-4.38,2.48-7-2.11q-6.72-11.94-13.68-23.76c-2.81-4.76-2.74-5.72,2.15-8.6q21.27-12.51,42.65-24.85c8.08-4.69,16.22-9.25,24.27-14,4.92-2.88,5.13-4.38,2.22-9.29-3.16-5.32-6.06-10.79-9.24-16.08-2.47-4.12-2.91-4.29-6.84-2.12-5.25,2.89-10.26,6.22-15.52,9.09q-9.18,5-18.14,10.42c-7.45,4.47-15.09,8.62-22.6,13-4.54,2.64-8.93,5.51-13.47,8.14-3.38,2-4.2,1.76-6.42-1.95-3.86-6.47-7.49-13.07-11.26-19.59-1.55-2.69-3.23-5.29-4.78-8-1.07-1.85-1.37-3,1.17-4.57,16.84-10.25,34-20,51.17-29.61,6.73-3.76,13.08-8.19,20-11.72,2.29-1.18,3.41-3.1,1.85-5.82-3.77-6.58-7.35-13.27-11.19-19.81-1.5-2.56-3.69-2.21-6.05-.81-7.32,4.35-14.71,8.58-22.09,12.82q-18.42,10.59-36.85,21.14c-4.19,2.41-8.45,4.72-12.57,7.26-1.82,1.12-2.89.64-3.81-1q-8.57-14.85-17.11-29.72c-1-1.76-.23-2.71,1.21-3.84,4.3-3.39,9.34-5.5,13.93-8.39,8.17-5.15,16.7-9.71,25.06-14.54q11.12-6.4,22.19-12.87c3.5-2,6.94-4.19,10.46-6.19,2.24-1.27,3.06-2.73,1.59-5.18-3.89-6.51-7.76-13-11.46-19.65-1.46-2.6-2.55-3-5.39-1.35-12,6.79-23.81,13.9-35.78,20.73-11.26,6.43-22.53,12.82-33.66,19.47-3.63,2.17-5,2-7.25-1.59-3.32-5.22-6.38-10.61-9.53-15.94-2-3.34-4-6.63-5.81-10.07-2.14-4.11-2-4.27,2-6.64,15.68-9.33,31.23-18.9,47.14-27.83,7.08-4,14.12-8,21.16-12.09,5.17-3,5.25-3.48,2.09-8.61-3.46-5.6-6.79-11.26-9.8-17.11a8.47,8.47,0,0,0-.64-1.06l-73.66,42.63a4.25,4.25,0,0,1-5.7-1.41,4.18,4.18,0,0,1-2.25-2.15c-4.34-7.54-8.92-14.94-13.1-22.57-2.3-4.19-5.45-8-6.74-13l1.83-1.07a4.23,4.23,0,0,1,1.66-1.78Z"/><path class="cls-4" d="M517.76,303.36a4.28,4.28,0,0,0-1.54,5.82l20,34.62.11.15a4.25,4.25,0,0,0,5.7,1.41l73.66-42.63,46.07-26.65a4.24,4.24,0,0,0,1.92-2.46,4.2,4.2,0,0,0-.38-3.36l-20-34.62a4.26,4.26,0,0,0-5.81-1.56Z"/><path class="cls-5" d="M366.85,371.47v77.22a7.2,7.2,0,0,1-4.63,7l0,0a7.06,7.06,0,0,1-2.27.38,7.37,7.37,0,0,1-2.31-.4c-2.68-.94-4.6-3.48-4.63-7.12V374.6l-20.21,4.56v69.53a7.18,7.18,0,0,1-4.63,7l0,0a7.05,7.05,0,0,1-2.26.38,7.38,7.38,0,0,1-2.32-.4c-2.67-.94-4.59-3.48-4.63-7.12v-14a16.74,16.74,0,0,1-20.77-3.2v17.35a7.18,7.18,0,0,1-4.63,7l0,0a7.06,7.06,0,0,1-2.27.38,7.37,7.37,0,0,1-2.31-.4c-2.68-.94-4.59-3.48-4.63-7.12V389.71a16.84,16.84,0,0,1-3.12.3c-.31,0-.62,0-.93,0a99,99,0,0,1-16.41-.41v59.51a7.21,7.21,0,0,1-4.63,7l-.05,0a7,7,0,0,1-2.26.37,7.48,7.48,0,0,1-2.32-.39c-2.67-.94-4.59-3.48-4.63-7.12V386.8l-11.51-2.6a5.7,5.7,0,0,1-2.11.41,5.63,5.63,0,0,1-4.16-1.82l-1.4-.32v65.85a7.21,7.21,0,0,1-4.63,7l0,0a7,7,0,0,1-2.26.37,7.36,7.36,0,0,1-2.31-.39c-2.68-.94-4.6-3.48-4.63-7.12V379.34l-17.5-3.94v72.92a7.2,7.2,0,0,1-4.63,7l0,0a7.06,7.06,0,0,1-2.27.37,7.36,7.36,0,0,1-2.31-.39c-2.68-.94-4.59-3.48-4.63-7.12V372.27l-48.82-11a17.09,17.09,0,0,1-2.21-.68V631.81a28.48,28.48,0,0,1,0,57v75.8h82.48c.42-1.45.88-2.88,1.41-4.28H202.6v-3.71h-5.2V705a21,21,0,0,1-.3-37.71V649.53h1.51a5.67,5.67,0,1,1,10.4-3.12,5.57,5.57,0,0,1-.94,3.12h3.35v16.15a20.89,20.89,0,0,1,9.72,5.41v-3.9a5.66,5.66,0,0,1-1.08-10.62,16.85,16.85,0,0,1-1.95-7.28,5.65,5.65,0,0,1-1.29-3.61c0-.15,0-.3,0-.45A16.72,16.72,0,0,1,213,634.54c0-.38,0-.75.06-1.12a16.71,16.71,0,0,1-4.34-7.4,7.69,7.69,0,0,1-1.1.67,5.67,5.67,0,1,1-8.56,0,9.3,9.3,0,1,1,11.55-14.06,16.8,16.8,0,0,1,31.09,8.85c0,.37,0,.75,0,1.12a16.38,16.38,0,0,1,1.82,2.16,5.66,5.66,0,0,1,2.83,4.9,5.93,5.93,0,0,1-.11,1.13,17.15,17.15,0,0,1,.43,3.74,18.28,18.28,0,0,1-.12,2,16.77,16.77,0,0,1-.24,24.5,5.17,5.17,0,0,1,0,.68,5.67,5.67,0,0,1-10,3.7c-.48,0-1,.07-1.45.07a16.67,16.67,0,0,1-7.16-1.62,5.89,5.89,0,0,1-.76,1.31v5.79a21.18,21.18,0,0,1,6.05-.89,20.91,20.91,0,0,1,9.27,2.18,5.6,5.6,0,0,1,1,.4H253V629.06h5.83v43.57h27.5V629.06h5.81v43.57h3.42a21,21,0,0,1,20.18,0h1.37l.44-.42V629.06h5.81v3.84l6.18-3.35,10.82,20h6.73v6.59a21,21,0,0,1,13.64,39,25.74,25.74,0,0,1-13.81,18.71v42.79h-3.63v3.71H330.09c.53,1.4,1,2.83,1.41,4.28h83V680.79H414a28.48,28.48,0,1,1,0-56.95h.55V360.51a17.91,17.91,0,0,1-2.39.75ZM159.69,632.74a16.81,16.81,0,1,1,16.81-16.81A16.81,16.81,0,0,1,159.69,632.74Zm21.64-71.26h0v11.74H159.7V523.09h21.63v11.75h0Zm11.53-54.22H163.29a2.46,2.46,0,0,1-2.45-2.46V501h-6.77v-2.91h6.77v-6.75h-6.77v-2.91h6.77v-6H154v-2.91h6.8v-4.22a2.45,2.45,0,0,1,2.45-2.45h29.57a2.45,2.45,0,0,1,2.44,2.45v4.22h7.26v2.91H195.3v6h7.29v2.91H195.3v6.75h7.29V501H195.3v3.81A2.45,2.45,0,0,1,192.86,507.26Zm3.64,66-.88-50.12,21.63-.39.2,11.75h0l.47,26.64h0l.21,11.74Zm108.7-17.9a4.18,4.18,0,0,1-4.19,4.17h-7.2v12.38h-5V559.49h-10.3v12.44h-5V559.49H262.05v12.44h-5V559.49h-6.49a4.18,4.18,0,0,1-4.19-4.17V504.87a4.18,4.18,0,0,1,4.19-4.17h6.49V489.14h5V500.7h11.52V489.14h5V500.7h10.3V489.08h5V500.7H301a4.18,4.18,0,0,1,4.19,4.17Zm34.68-75.73H390v21.63H339.88Zm51.26,73.05h-7.29v6.75h7.29v2.92h-7.29v3.8a2.46,2.46,0,0,1-2.44,2.46H351.84a2.46,2.46,0,0,1-2.45-2.46v-3.8h-6.77v-2.92h6.77v-6.75h-6.77v-2.91h6.77v-6h-6.8v-2.91h6.8v-4.22a2.45,2.45,0,0,1,2.45-2.45h29.57a2.45,2.45,0,0,1,2.44,2.45v4.22h7.26v2.91h-7.26v6h7.29Z"/><path class="cls-5" d="M310.49,403.18a16.69,16.69,0,0,1,8.39,2.26v-21.8a5.67,5.67,0,0,1-6.25.06L298.11,387v21.67A16.77,16.77,0,0,1,310.49,403.18Z"/><path class="cls-5" d="M185.44,270.82v-1.54h-51v13a18.72,18.72,0,0,1,2.21-.66Z"/><path class="cls-5" d="M332.8,657.68l-9.42-17.41V668a25.64,25.64,0,0,1,9.42-2.84Z"/><path class="cls-5" d="M375.84,273.57a18.21,18.21,0,0,1,2.1-.14,16.66,16.66,0,0,1,8.9,2.57l25.3,5.57a17.83,17.83,0,0,1,2.39.73v-13H366.85v2.31Z"/><path class="cls-5" d="M385.5,652.32A28.48,28.48,0,0,0,414,680.8h.55a28.47,28.47,0,0,0,0-56.93H414A28.47,28.47,0,0,0,385.5,652.32Zm49,0A20.51,20.51,0,1,1,414,631.81,20.51,20.51,0,0,1,434.49,652.32Z"/><path class="cls-5" d="M162.88,660.29a28.48,28.48,0,1,0-28.47,28.48A28.47,28.47,0,0,0,162.88,660.29ZM134.41,680.8a20.51,20.51,0,1,1,20.51-20.51A20.51,20.51,0,0,1,134.41,680.8Z"/><path class="cls-5" d="M236.26,384.61a5.7,5.7,0,0,0,2.11-.41l-6.27-1.41A5.63,5.63,0,0,0,236.26,384.61Z"/><path class="cls-5" d="M318.88,383.64v-1.35l-6.25,1.41a5.67,5.67,0,0,0,6.25-.06Z"/><path class="cls-5" d="M310.49,403.18a16.77,16.77,0,0,0-12.38,5.46v22.7a16.74,16.74,0,0,0,20.77,3.2v-29.1A16.69,16.69,0,0,0,310.49,403.18Z"/><path class="cls-5" d="M375.84,273.57l11,2.43a16.66,16.66,0,0,0-8.9-2.57A18.21,18.21,0,0,0,375.84,273.57Z"/><path class="cls-5" d="M284.23,389.71v-.07q-2,.21-4.05.33c.31,0,.62,0,.93,0A16.84,16.84,0,0,0,284.23,389.71Z"/><path class="cls-5" d="M243.27,672.63a5.6,5.6,0,0,0-1-.4l.82.4Z"/><path class="cls-5" d="M227,665.15a5.89,5.89,0,0,0,.76-1.31c-.26-.12-.51-.23-.76-.36Z"/><path class="cls-5" d="M220.06,656.57a5.66,5.66,0,0,0,1.08,10.62v-8.88A19.41,19.41,0,0,1,220.06,656.57Z"/><path class="cls-5" d="M240.63,667.36a5.67,5.67,0,0,0,5.67-5.67,5.17,5.17,0,0,0,0-.68,16.73,16.73,0,0,1-9.92,4.38A5.68,5.68,0,0,0,240.63,667.36Z"/><path class="cls-5" d="M209,646.41a5.67,5.67,0,1,0-10.4,3.12h9.46A5.57,5.57,0,0,0,209,646.41Z"/><path class="cls-5" d="M218.21,646.69a15.77,15.77,0,0,1-1.37-1.46c0,.15,0,.3,0,.45a5.65,5.65,0,0,0,1.29,3.61c0-.21,0-.42,0-.64A15.86,15.86,0,0,1,218.21,646.69Z"/><path class="cls-5" d="M199.06,626.7a5.67,5.67,0,1,0,8.56,0,9.21,9.21,0,0,1-8.56,0Z"/><path class="cls-5" d="M246.3,629.67a5.66,5.66,0,0,0-2.83-4.9,16.59,16.59,0,0,1,2.72,6A5.93,5.93,0,0,0,246.3,629.67Z"/><circle class="cls-5" cx="159.69" cy="615.93" r="16.81" transform="translate(-137.24 53.17) rotate(-13.28)"/><path class="cls-5" d="M221.14,648.93a16.84,16.84,0,0,1-2.93-2.24,15.86,15.86,0,0,0-.13,2c0,.22,0,.43,0,.64a16.85,16.85,0,0,0,1.95,7.28,19.41,19.41,0,0,0,1.08,1.74Z"/><path class="cls-5" d="M229.81,651.35a17.74,17.74,0,0,1-2.84-.25v12.38c.25.13.5.24.76.36a16.67,16.67,0,0,0,7.16,1.62c.49,0,1,0,1.45-.07a16.79,16.79,0,0,0,10.16-28.88A16.8,16.8,0,0,1,229.81,651.35Z"/><path class="cls-5" d="M218.21,646.69a16.84,16.84,0,0,0,2.93,2.24V637.86a16.77,16.77,0,0,1-8.08-4.44c0,.37-.06.74-.06,1.12a16.72,16.72,0,0,0,3.84,10.69A15.77,15.77,0,0,0,218.21,646.69Z"/><path class="cls-5" d="M227,638.15v13a17.74,17.74,0,0,0,2.84.25,16.8,16.8,0,0,0,16.69-14.84,18.28,18.28,0,0,0,.12-2,17.15,17.15,0,0,0-.43-3.74,16.59,16.59,0,0,0-2.72-6,16.38,16.38,0,0,0-1.82-2.16A16.79,16.79,0,0,1,227,638.15Z"/><path class="cls-5" d="M221.14,629.06H227v9.09a16.79,16.79,0,0,0,14.68-15.54c0-.37,0-.75,0-1.12a16.8,16.8,0,0,0-31.09-8.85A9.29,9.29,0,0,1,208.72,626a16.75,16.75,0,0,0,12.42,11.84Z"/><path class="cls-5" d="M212.64,618.44a9.31,9.31,0,1,0-13.58,8.26,9.21,9.21,0,0,0,8.56,0,7.69,7.69,0,0,0,1.1-.67A9.29,9.29,0,0,0,212.64,618.44Z"/><path class="cls-5" d="M347.11,697.53v.24h-.17v16a25.74,25.74,0,0,0,13.81-18.71,20.91,20.91,0,0,1-10.34,2.73A21.19,21.19,0,0,1,347.11,697.53Z"/><path class="cls-5" d="M332.8,665.18a25.64,25.64,0,0,0-9.42,2.84v4.61h6.47a20.67,20.67,0,0,1,2.95-7.2Z"/><path class="cls-5" d="M317.57,672.21l-.44.42h.44Z"/><path class="cls-5" d="M305.67,670.05a20.93,20.93,0,0,0-10.09,2.58h20.18A21,21,0,0,0,305.67,670.05Z"/><path class="cls-5" d="M355.73,677.89l-8.62,4.66v15a21.19,21.19,0,0,0,3.3.28,21,21,0,1,0,0-42,21.19,21.19,0,0,0-3.3.28V662Z"/><path class="cls-5" d="M329.85,672.63h2.95v-7.2A20.67,20.67,0,0,0,329.85,672.63Z"/><path class="cls-5" d="M197.1,697.77V667.26a21,21,0,0,0,.3,37.71v-7.2Z"/><path class="cls-5" d="M221.14,672.63v-1.54a20.89,20.89,0,0,0-9.72-5.41v7Z"/><path class="cls-5" d="M243.11,672.63l-.82-.4a20.91,20.91,0,0,0-9.27-2.18,21.18,21.18,0,0,0-6.05.89v1.69Z"/><polygon class="cls-5" points="332.8 657.68 332.8 649.53 340.38 649.53 329.56 629.55 323.38 632.9 323.38 640.27 332.8 657.68"/><polygon class="cls-5" points="347.11 661.96 347.11 682.55 355.73 677.88 347.11 661.96"/><rect class="cls-6" x="221.14" y="760.29" width="5.83" height="9.38"/><polygon class="cls-6" points="226.97 672.63 226.97 670.94 226.97 665.15 226.97 663.48 226.97 651.1 226.97 638.15 226.97 629.06 221.14 629.06 221.14 637.86 221.14 648.93 221.14 658.31 221.14 667.19 221.14 671.09 221.14 672.63 226.97 672.63"/><rect class="cls-6" x="286.35" y="629.06" width="5.81" height="43.57"/><rect class="cls-6" x="286.35" y="756.58" width="5.81" height="14.04"/><rect class="cls-6" x="317.57" y="760.29" width="5.81" height="10.34"/><polygon class="cls-6" points="323.38 672.63 323.38 668.02 323.38 640.27 323.38 632.9 323.38 629.06 317.57 629.06 317.57 672.21 317.57 672.63 323.38 672.63"/><rect class="cls-6" x="253.02" y="629.06" width="5.83" height="43.57"/><rect class="cls-6" x="253.02" y="756.58" width="5.83" height="13.09"/><polygon class="cls-7" points="343.31 697.77 343.31 756.58 346.94 756.58 346.94 713.79 346.94 697.77 343.31 697.77"/><polygon class="cls-7" points="202.6 697.77 197.4 697.77 197.4 704.97 197.4 756.58 202.6 756.58 202.6 697.77"/><path class="cls-7" d="M227,672.63H211.42v3.87h21.1v80.08H313.4V676.5h19.4v-3.87H227Zm82.41,3.87v68.58H234.43V676.5Z"/><path class="cls-7" d="M234.43,676.5v68.58h74.95V676.5Zm68.46,26.89v29.92H241.68V703.39Z"/><rect class="cls-3" x="241.68" y="703.39" width="61.21" height="29.91"/><polygon class="cls-7" points="197.4 697.77 202.6 697.77 202.6 676.5 211.41 676.5 211.41 672.63 211.41 665.68 211.41 649.53 208.07 649.53 198.61 649.53 197.1 649.53 197.1 667.26 197.1 697.77 197.4 697.77"/><polygon class="cls-3" points="226.97 760.29 232.52 760.29 232.52 756.58 232.52 676.5 211.41 676.5 202.6 676.5 202.6 697.77 202.6 756.58 202.6 760.29 218.3 760.29 221.14 760.29 226.97 760.29"/><polygon class="cls-7" points="332.8 657.68 332.8 665.18 332.8 665.43 332.8 672.63 332.8 676.5 343.31 676.5 343.31 697.77 346.94 697.77 347.11 697.77 347.11 697.53 347.11 682.55 347.11 661.96 347.11 656.12 347.11 649.53 340.38 649.53 332.8 649.53 332.8 657.68"/><polygon class="cls-3" points="343.31 697.77 343.31 676.5 332.8 676.5 313.4 676.5 313.4 756.58 313.4 760.29 317.57 760.29 323.38 760.29 330.09 760.29 343.31 760.29 343.31 756.58 343.31 697.77"/><polygon class="cls-8" points="159.7 534.84 181.33 534.84 181.33 523.09 159.7 523.09 159.7 573.22 181.33 573.22 181.33 561.48 159.7 561.48 159.7 534.84"/><polygon class="cls-9" points="159.7 534.84 159.7 561.48 181.33 561.48 181.33 561.48 181.33 534.84 181.33 534.84 159.7 534.84"/><rect class="cls-10" x="383.85" y="540.78" width="7.26" height="2.91"/><rect class="cls-10" x="342.59" y="540.78" width="6.8" height="2.91"/><rect class="cls-10" x="342.62" y="559.39" width="6.77" height="2.91"/><rect class="cls-10" x="383.85" y="559.39" width="7.29" height="2.91"/><rect class="cls-10" x="383.85" y="549.73" width="7.29" height="2.91"/><rect class="cls-10" x="342.62" y="549.73" width="6.77" height="2.91"/><path class="cls-11" d="M383.85,543.69v-7.13a2.45,2.45,0,0,0-2.44-2.45H351.84a2.45,2.45,0,0,0-2.45,2.45v29.55a2.46,2.46,0,0,0,2.45,2.46h29.57a2.46,2.46,0,0,0,2.44-2.46V543.69Z"/><polygon class="cls-8" points="196.3 561.48 195.83 534.85 217.45 534.46 217.25 522.71 195.62 523.1 196.5 573.22 218.13 572.84 217.92 561.1 196.3 561.48"/><polygon class="cls-9" points="196.3 561.48 217.92 561.1 217.93 561.1 217.46 534.46 217.45 534.46 195.83 534.85 196.3 561.48"/><polygon class="cls-8" points="351.63 501.22 351.63 479.59 339.88 479.59 339.88 501.22 364.97 501.22 351.63 501.22"/><rect class="cls-8" x="378.28" y="479.59" width="11.74" height="21.63"/><polygon class="cls-6" points="364.97 501.22 378.28 501.22 378.28 501.22 378.28 479.59 351.63 479.59 351.63 501.22 364.97 501.22"/><rect class="cls-10" x="288.84" y="559.49" width="4.97" height="12.38"/><rect class="cls-10" x="288.84" y="489.08" width="4.97" height="11.61"/><rect class="cls-10" x="257.08" y="559.49" width="4.97" height="12.44"/><rect class="cls-10" x="257.08" y="489.14" width="4.97" height="11.56"/><rect class="cls-10" x="273.57" y="559.49" width="4.97" height="12.44"/><rect class="cls-10" x="273.57" y="489.14" width="4.97" height="11.56"/><path class="cls-11" d="M301,500.7H250.59a4.18,4.18,0,0,0-4.19,4.17v50.45a4.18,4.18,0,0,0,4.19,4.17H301a4.18,4.18,0,0,0,4.19-4.17V504.87A4.18,4.18,0,0,0,301,500.7Z"/><polygon class="cls-9" points="194.87 268.74 185.44 268.74 185.44 269.28 185.44 270.82 194.87 268.74"/><path class="cls-9" d="M190.07,455.3a7.36,7.36,0,0,0,2.31.39,7.06,7.06,0,0,0,2.27-.37l0,0a7.2,7.2,0,0,0,4.63-7V375.4l-13.88-3.13v75.91C185.48,451.82,187.39,454.36,190.07,455.3Z"/><path class="cls-9" d="M221.45,455.3a7.36,7.36,0,0,0,2.31.39,7,7,0,0,0,2.26-.37l0,0a7.21,7.21,0,0,0,4.63-7V382.47l-13.88-3.13v68.84C216.85,451.82,218.77,454.36,221.45,455.3Z"/><path class="cls-9" d="M254.51,456.05a7.48,7.48,0,0,0,2.32.39,7,7,0,0,0,2.26-.37l.05,0a7.21,7.21,0,0,0,4.63-7V389.56a56,56,0,0,1-6-1l-7.9-1.78v62.13C249.92,452.57,251.84,455.11,254.51,456.05Z"/><path class="cls-9" d="M284.23,448.55c0,3.64,1.95,6.18,4.63,7.12a7.37,7.37,0,0,0,2.31.4,7.06,7.06,0,0,0,2.27-.38l0,0a7.18,7.18,0,0,0,4.63-7V387L291,388.58a58.66,58.66,0,0,1-6.76,1.06v58.91Z"/><rect class="cls-10" x="195.3" y="479.47" width="7.26" height="2.91"/><rect class="cls-10" x="154.04" y="479.47" width="6.8" height="2.91"/><rect class="cls-10" x="195.3" y="498.08" width="7.29" height="2.91"/><rect class="cls-10" x="154.07" y="498.08" width="6.77" height="2.91"/><rect class="cls-10" x="195.3" y="488.42" width="7.29" height="2.91"/><rect class="cls-10" x="154.07" y="488.42" width="6.77" height="2.91"/><path class="cls-11" d="M195.3,498.08V475.25a2.45,2.45,0,0,0-2.44-2.45H163.29a2.45,2.45,0,0,0-2.45,2.45V504.8a2.46,2.46,0,0,0,2.45,2.46h29.57a2.45,2.45,0,0,0,2.44-2.46v-6.72Z"/><path class="cls-9" d="M318.88,405.44v43.11c0,3.64,2,6.18,4.63,7.12a7.38,7.38,0,0,0,2.32.4,7.05,7.05,0,0,0,2.26-.38l0,0a7.18,7.18,0,0,0,4.63-7V379.16l-13.88,3.13v23.15Z"/><path class="cls-9" d="M357.6,455.67a7.37,7.37,0,0,0,2.31.4,7.06,7.06,0,0,0,2.27-.38l0,0a7.2,7.2,0,0,0,4.63-7V371.47L353,374.6v73.95C353,452.19,354.92,454.73,357.6,455.67Z"/><polygon class="cls-9" points="366.85 271.59 366.85 269.28 366.85 269.11 355.59 269.11 366.85 271.59"/><path class="cls-5" d="M400.17,287c8.24,1.82,15,10.23,15,18.7v5.09a20.4,20.4,0,0,1,0,24.61v4.48c0,8.64-6.76,17.23-15,19.11L290.72,383.64c-8.24,1.87-21.77,1.87-30,0L151.26,359c-8.24-1.88-15-10.47-15-19.11V334a20.4,20.4,0,0,1,0-21.81v-6.49c0-8.47,6.76-16.88,15-18.7l108.59-23.92v-8.57c-.72.12-1.42.26-2.07.4l-62.92,13.86-9.42,2.08-48.82,10.75a18.72,18.72,0,0,0-2.21.66c-8.09,2.91-14.4,11.44-14.4,20v37.83c0,8.78,6.31,17.49,14.4,20.47a17.09,17.09,0,0,0,2.21.68l48.82,11,13.88,3.13,17.5,3.94,13.88,3.13,1.4.32,6.27,1.41,11.51,2.6,7.9,1.78a56,56,0,0,0,6,1,99,99,0,0,0,16.41.41q2.08-.12,4.05-.33a58.66,58.66,0,0,0,6.76-1.06l7.12-1.61,14.52-3.27,6.25-1.41,13.88-3.13L353,374.6l13.88-3.13,45.29-10.21a17.91,17.91,0,0,0,2.39-.75c8-3,14.22-11.69,14.22-20.4V302.28c0-8.54-6.22-17-14.22-20a17.83,17.83,0,0,0-2.39-.73L386.84,276l-11-2.43-9-2-11.26-2.48L291.69,255v8Z"/><path class="cls-4" d="M151.26,287c-8.24,1.82-15,10.23-15,18.7v6.49a20.51,20.51,0,1,1,0,21.81v5.88c0,8.64,6.76,17.23,15,19.11l109.45,24.68c8.24,1.87,21.77,1.87,30,0L400.17,359c8.24-1.88,15-10.47,15-19.11v-4.48a20.52,20.52,0,1,1,0-24.61v-5.09c0-8.47-6.76-16.88-15-18.7l-108.48-23.9v69.26H259.85V263.05Z"/><path class="cls-12" d="M398.79,302.55a20.58,20.58,0,1,0,16.38,8.21A20.51,20.51,0,0,0,398.79,302.55Z"/><path class="cls-12" d="M153.61,343.57a20.55,20.55,0,1,0-17.35-9.6A20.51,20.51,0,0,0,153.61,343.57Z"/><polygon class="cls-4" points="285.57 314.81 264.31 314.81 264.31 194.79 259.85 196.36 259.85 254.48 259.85 263.05 259.85 332.33 291.69 332.33 291.69 263.07 291.69 255.04 291.69 196.16 285.57 194.01 285.57 314.81"/><path class="cls-3" d="M472.23,91C454.8,72.44,436,55.42,414.58,41.43c-15.68-10.26-32.22-18.72-50.76-22.52-19.24-3.95-37.68-2.3-54.43,9C298.07,35.48,290.08,46,284,58.05c-7.28,14.4-11.27,29.83-13.64,45.71a291,291,0,0,0-2.18,60.16h0a39.73,39.73,0,0,0,.47,4.62l5.88-13.47a1.6,1.6,0,0,1,1.38-.93,1.51,1.51,0,0,1,1.38.93l6.92,15.72a9.29,9.29,0,0,0,.27-.94,35,35,0,0,0,.26-8.81c-1-18.95-.71-37.84,2.25-56.62,2.18-13.78,5.69-27.19,12.17-39.67,13.39-25.84,35.08-35.83,63.43-29.17,16.07,3.76,30.41,11.38,44,20.47C431.1,72.44,452,92.89,471.4,114.85A595.86,595.86,0,0,1,519,177.12l.54-.33,9.83,16.05,15.51-6.22C523.52,152.56,499.76,120.36,472.23,91Z"/><polygon class="cls-4" points="264.31 186 261.45 192.55 264.31 191.54 264.31 186"/><polygon class="cls-4" points="285.57 190.78 290.51 192.5 275.94 159.39 265.06 184.29 285.57 184.29 285.57 190.78"/><path class="cls-4" d="M275.91,154.14a1.6,1.6,0,0,0-1.38.93l-5.88,13.47-11.35,26a1.55,1.55,0,0,0,.28,1.65,1.45,1.45,0,0,0,1.61.42l.66-.23,4.46-1.57v-3.25l-2.86,1,2.86-6.55v-1.71h.75L276,159.39l14.56,33.11-4.94-1.72V194l6.12,2.15,1.08.38a1.49,1.49,0,0,0,1.61-.39,1.57,1.57,0,0,0,.28-1.63l-10.45-23.73-6.92-15.72A1.51,1.51,0,0,0,275.91,154.14Z"/><polygon class="cls-4" points="264.31 314.81 285.57 314.81 285.57 194.01 285.57 190.78 285.57 184.29 265.06 184.29 264.31 184.29 264.31 186 264.31 191.54 264.31 194.79 264.31 314.81"/><text class="cls-13" transform="translate(228.81 620.88) rotate(-90)">G</text><text class="cls-13" transform="translate(228.81 606.72) rotate(-90)">N</text><text class="cls-13" transform="translate(228.81 591.74) rotate(-90)">D</text><text class="cls-13" transform="translate(259 619.13) rotate(-90)">V</text><text class="cls-13" transform="translate(259 605.24) rotate(-90)">C</text><text class="cls-13" transform="translate(259 592.05) rotate(-90)">C</text><text class="cls-13" transform="translate(293.37 617.22) rotate(-90)">N</text><text class="cls-13" transform="translate(293.37 602.24) rotate(-90)">C</text><text class="cls-13" transform="translate(324.75 616.94) rotate(-90)">S</text><text class="cls-13" transform="translate(324.75 604.66) rotate(-90)">I</text><text class="cls-13" transform="translate(324.75 598.6) rotate(-90)">G</text></g></g></g></svg>