<svg xmlns="http://www.w3.org/2000/svg" height="84" width="48" viewBox="0 0 336.53 529.88"><defs><style>.cls-1{fill:#004684;}.cls-2{fill:#737373;}.cls-3{fill:#f1eddd;}.cls-4{fill:#e8e5d7;}.cls-5{fill:#fbfbfc;}.cls-6{font-size:19.86px;font-family:Montserrat-Bold, Montserrat;font-weight:700;}.cls-6,.cls-7{fill:#fff;}.cls-7{font-size:20.18px;font-family:Montserrat-Regular, Montserrat;}</style></defs><title>Asset 1</title><g id="Layer_2" data-name="Layer 2"><g id="Layer_1-2" data-name="Layer 1"><rect class="cls-1" x="121.71" y="519.19" width="4.4" height="4.6"/><rect class="cls-1" x="211.25" y="519.19" width="5.18" height="4.6"/><path class="cls-1" d="M279.57,148.59a40.94,40.94,0,0,1,29-39.18V28.49H196.74a28.48,28.48,0,0,1-57,0H28.48v81.09a40.95,40.95,0,0,1,0,78V391a28.48,28.48,0,0,1,0,57v.84h.06v75h87.1v-4.6h-19V515.5a13.92,13.92,0,0,1-1.72-.15H91.23v-1.09a13.35,13.35,0,0,1,0-24.24V428.51h.24v-19h14.31v19h9.86v-40h6.07v40h26.91v-40h6.06v40H183V388.3h6.05v40.21h27.33v-40h6.13v40h7.62V387.24h28.41V419h10.65v18l6.62,1.7-6.62,25.8v11.27h-2.89l-4.6,18-15.82-4.06v25.65h-3.76v3.84H222.55v4.6h86.06V440l-.56,0a28.48,28.48,0,0,1,0-57l.56,0V187.76A40.93,40.93,0,0,1,279.57,148.59ZM145.45,95.2a5.67,5.67,0,1,1-5.66,5.67A5.67,5.67,0,0,1,145.45,95.2ZM44.19,452.06a4.51,4.51,0,1,1,4.51,4.51A4.51,4.51,0,0,1,44.19,452.06ZM86,481c-.08,2.83-.53,3.29-3.29,3.88-1.37.29-2.78,0-3.81,1.78-1.5,2.53-1.52,4.44.6,6.5,1.67,1.63,1.37,3.17-.31,4.82-3.49,3.43-3.62,3.52-7.75.82a4,4,0,0,0-6.36,2.55c-1.24,5.16-1.72,5.47-7,4.94-1.18-.12-2-.47-2.2-1.77-.18-1-.52-2-.73-3.06-.69-3.34-3.45-4.55-6.38-2.77-4.36,2.65-4.93,2.52-8.23-1.45-.81-1-1-1.77-.23-2.79.41-.54.72-1.15,1.08-1.72,1.79-2.8,1.76-3.65-.13-6.36a3.14,3.14,0,0,0-2.7-1.3c-1.47-.1-3.39,0-3.92-1.62a10.35,10.35,0,0,1,0-6.44c.28-.86,1.28-.9,2.12-1,1.65-.23,3.25-.61,4.35-2.07,1.61-2.14,1.55-3.67-.38-6.77-1.44-2.31-1.19-3,1.53-5.86,1.57-1.63,3.08-1.92,4.92-.51,1.34,1,2.58,2.28,4.62,1.22.79-.41,1.46.64,1.8,1.39,1.23,2.66,2.37,5.36,3.57,8,.79,1.75-.32,2.79-1.35,3.93-3.43,3.85-2.95,8.39,1.09,11,2.26,1.45,4.41,1,6.61-.11s2.95-3.26,3.1-5.71c-.13-2.16-.54-4.31-2.67-5.56a2.27,2.27,0,0,1-1.05-3.08q1.59-4.2,3.36-8.34c.34-.81.92-1.9,2-1.44,1.76.77,2.81-.3,4.06-1.08a5.61,5.61,0,0,1,8.33,3.27c.37,1.39-.71,2.25-1.41,3.15a4.64,4.64,0,0,0-.84,5.13,4.4,4.4,0,0,0,4.21,3c2.9.22,3.42.85,3.43,3.81C86,480,86,480.52,86,481Zm66.62-186.51a5.55,5.55,0,0,1-5.54,5.55H82.5A5.55,5.55,0,0,1,77,294.53v-65A5.55,5.55,0,0,1,82.5,224h64.55a5.55,5.55,0,0,1,5.54,5.54ZM91.11,203.58a5.16,5.16,0,1,1,5.16,5.15A5.15,5.15,0,0,1,91.11,203.58Zm17.14,0a5.15,5.15,0,1,1,5.15,5.15A5.15,5.15,0,0,1,108.25,203.58Zm17.1,0a5.16,5.16,0,1,1,5.16,5.15A5.15,5.15,0,0,1,125.35,203.58ZM152.59,178a5.55,5.55,0,0,1-5.54,5.55H134.91a5.15,5.15,0,1,1-9.56,2.64,5.06,5.06,0,0,1,.76-2.64H118a5.06,5.06,0,0,1,.76,2.64,5.16,5.16,0,1,1-9.56-2.64h-8.49a5.15,5.15,0,1,1-9.56,2.64,5.06,5.06,0,0,1,.76-2.64H82.5A5.55,5.55,0,0,1,77,178V113a5.55,5.55,0,0,1,5.54-5.55h64.55a5.55,5.55,0,0,1,5.54,5.55Zm8.82-82.79a5.67,5.67,0,1,1-5.66,5.67A5.67,5.67,0,0,1,161.41,95.2Zm.74,48.63a5.67,5.67,0,1,1,5.67-5.67A5.67,5.67,0,0,1,162.15,143.83Zm0-18.15a5.67,5.67,0,1,1,5.67-5.67A5.67,5.67,0,0,1,162.15,125.68Zm46.9-30.48a5.67,5.67,0,1,1-5.67,5.67A5.67,5.67,0,0,1,209.05,95.2Zm-15.62,0a5.67,5.67,0,1,1-5.67,5.67A5.67,5.67,0,0,1,193.43,95.2Zm-16,0a5.67,5.67,0,1,1-5.67,5.67A5.67,5.67,0,0,1,177.43,95.2Zm.73,48.63a5.67,5.67,0,1,1,5.67-5.67A5.67,5.67,0,0,1,178.16,143.83Zm0-18.15a5.67,5.67,0,1,1,5.67-5.67A5.67,5.67,0,0,1,178.16,125.68Zm82.51,168.85a5.55,5.55,0,0,1-5.54,5.55H190.58a5.55,5.55,0,0,1-5.53-5.55v-65a5.54,5.54,0,0,1,5.53-5.54h64.55a5.55,5.55,0,0,1,5.54,5.54Zm-62.11-91.31a5.16,5.16,0,1,1,5.15,5.15A5.16,5.16,0,0,1,198.56,203.22Zm17.14,0a5.15,5.15,0,1,1,5.15,5.15A5.15,5.15,0,0,1,215.7,203.22Zm17.1,0a5.15,5.15,0,1,1,5.15,5.15A5.16,5.16,0,0,1,232.8,203.22ZM260.67,178a5.55,5.55,0,0,1-5.54,5.55H242.55a5.15,5.15,0,1,1-9.75,2.29,5,5,0,0,1,.56-2.29H225.6a5,5,0,0,1,.56,2.29,5.15,5.15,0,1,1-10.3,0,5,5,0,0,1,.56-2.29h-8.11a5.15,5.15,0,1,1-9.75,2.29,5,5,0,0,1,.56-2.29h-8.54a5.55,5.55,0,0,1-5.53-5.55V113a5.55,5.55,0,0,1,5.53-5.55h64.55a5.55,5.55,0,0,1,5.54,5.55Z"/><path class="cls-1" d="M168.26,57a28.48,28.48,0,0,0,28.48-28.47h0a28.48,28.48,0,1,0-57,0h0A28.47,28.47,0,0,0,168.26,57ZM147.75,28.48A20.51,20.51,0,1,1,168.26,49,20.51,20.51,0,0,1,147.75,28.48Z"/><path class="cls-1" d="M279.57,411.54A28.48,28.48,0,0,0,308.05,440l.56,0a28.47,28.47,0,0,0,0-56.92l-.56,0A28.48,28.48,0,0,0,279.57,411.54Zm49,0A20.51,20.51,0,1,1,308.05,391,20.51,20.51,0,0,1,328.56,411.54Z"/><path class="cls-1" d="M57,419.51A28.48,28.48,0,1,0,28.48,448,28.48,28.48,0,0,0,57,419.51ZM28.48,440A20.51,20.51,0,1,1,49,419.51,20.51,20.51,0,0,1,28.48,440Z"/><path class="cls-1" d="M145.45,106.54a5.67,5.67,0,1,0-5.66-5.67A5.67,5.67,0,0,0,145.45,106.54Z"/><circle class="cls-1" cx="161.41" cy="100.87" r="5.67" transform="translate(-18.86 39.78) rotate(-13.28)"/><circle class="cls-1" cx="162.15" cy="120.01" r="5.67"/><circle class="cls-1" cx="162.15" cy="138.16" r="5.67"/><circle class="cls-1" cx="177.43" cy="100.87" r="5.67" transform="translate(-18.43 43.46) rotate(-13.28)"/><circle class="cls-1" cx="178.16" cy="120.01" r="5.67" transform="translate(-32.68 161.13) rotate(-45)"/><circle class="cls-1" cx="178.16" cy="138.16" r="5.67" transform="translate(-19.83 30.32) rotate(-9.22)"/><path class="cls-1" d="M193.43,106.54a5.67,5.67,0,1,0-5.67-5.67A5.67,5.67,0,0,0,193.43,106.54Z"/><circle class="cls-1" cx="209.05" cy="100.87" r="5.67" transform="translate(-17.58 50.73) rotate(-13.28)"/><polygon class="cls-2" points="216.43 519.18 216.43 523.79 216.43 528.88 222.55 528.88 222.55 523.79 222.55 519.18 216.43 519.18"/><rect class="cls-2" x="216.42" y="388.55" width="6.12" height="39.96"/><polygon class="cls-1" points="245.91 489.7 261.74 493.76 266.34 475.79 245.91 475.79 245.91 489.7"/><polygon class="cls-1" points="275.85 438.72 269.23 437.02 269.23 464.52 275.85 438.72"/><polygon class="cls-1" points="246.29 431.65 246.29 456.61 245.91 456.61 245.91 475.79 266.34 475.79 269.23 475.79 269.23 464.52 269.23 437.02 269.23 418.97 258.58 418.97 258.58 431.65 246.29 431.65"/><polygon class="cls-1" points="231.98 408.38 246.29 408.38 246.29 431.65 258.58 431.65 258.58 418.97 258.58 387.24 230.17 387.24 230.17 428.51 231.98 428.51 231.98 408.38"/><rect class="cls-2" x="115.64" y="388.54" width="6.06" height="39.97"/><polygon class="cls-2" points="115.64 519.18 115.64 523.79 115.64 528.88 121.7 528.88 121.7 523.79 121.7 519.18 115.64 519.18"/><polygon class="cls-2" points="154.68 528.88 148.97 528.88 148.97 529.88 155.02 529.88 155.02 515.35 154.68 515.35 154.68 528.88"/><rect class="cls-2" x="183.04" y="388.3" width="6.05" height="40.21"/><rect class="cls-2" x="183.04" y="515.35" width="6.05" height="14.53"/><rect class="cls-2" x="148.62" y="388.54" width="6.06" height="39.97"/><polygon class="cls-2" points="154.68 515.35 148.62 515.35 148.62 528.88 148.97 528.88 154.68 528.88 154.68 515.35"/><circle class="cls-1" cx="48.7" cy="452.06" r="4.51"/><path class="cls-1" d="M94.89,515.35a13.92,13.92,0,0,0,1.72.15v-.15Z"/><path class="cls-1" d="M83.48,502.14a13.38,13.38,0,0,0,7.75,12.12V490A13.38,13.38,0,0,0,83.48,502.14Z"/><path class="cls-3" d="M127.55,432.51v82.84h83.67V432.51H232v-4H105.78v4Zm79.51,0v70.95H129.54V432.51Z"/><polygon class="cls-3" points="245.91 456.61 242.16 456.61 242.16 515.35 245.91 515.35 245.91 489.7 245.91 475.79 245.91 456.61"/><polygon class="cls-3" points="96.61 457.77 91.47 457.77 91.47 428.51 91.23 428.51 91.23 490.02 91.23 514.26 91.23 515.35 94.89 515.35 96.61 515.35 96.61 457.77"/><path class="cls-3" d="M129.54,503.46h77.52V432.51H129.54Zm70.8-43.12v30.94H137V460.34Z"/><rect class="cls-4" x="137.03" y="460.34" width="63.31" height="30.94"/><polygon class="cls-3" points="242.16 432.51 242.16 456.61 245.91 456.61 246.29 456.61 246.29 431.65 246.29 408.38 231.98 408.38 231.98 428.51 231.98 432.51 242.16 432.51"/><polygon class="cls-4" points="242.16 456.61 242.16 432.51 231.98 432.51 211.22 432.51 211.22 515.35 211.22 519.18 211.25 519.18 216.43 519.18 222.55 519.18 242.16 519.18 242.16 515.35 242.16 456.61"/><polygon class="cls-3" points="96.61 457.77 96.61 432.51 105.78 432.51 105.78 428.51 105.78 409.53 91.47 409.53 91.47 428.51 91.47 457.77 96.61 457.77"/><polygon class="cls-4" points="126.11 519.18 126.22 519.18 127.55 519.18 127.55 515.35 127.55 432.51 105.78 432.51 96.61 432.51 96.61 457.77 96.61 515.35 96.61 515.5 96.61 519.18 115.64 519.18 121.7 519.18 126.11 519.18"/><path class="cls-1" d="M91.11,186.18a5.16,5.16,0,1,0,9.56-2.64h-8.8A5.06,5.06,0,0,0,91.11,186.18Z"/><circle class="cls-1" cx="96.27" cy="203.58" r="5.15"/><path class="cls-1" d="M108.41,186.18a5.16,5.16,0,0,0,10.31,0,5.06,5.06,0,0,0-.76-2.64h-8.8A5.14,5.14,0,0,0,108.41,186.18Z"/><circle class="cls-1" cx="113.4" cy="203.58" r="5.15"/><path class="cls-1" d="M125.35,186.18a5.16,5.16,0,1,0,9.56-2.64h-8.8A5.06,5.06,0,0,0,125.35,186.18Z"/><circle class="cls-1" cx="130.51" cy="203.58" r="5.15"/><path class="cls-1" d="M198.56,185.83a5.16,5.16,0,1,0,9.75-2.29h-9.19A5,5,0,0,0,198.56,185.83Z"/><path class="cls-1" d="M208.87,203.22a5.16,5.16,0,1,0-5.16,5.15A5.16,5.16,0,0,0,208.87,203.22Z"/><path class="cls-1" d="M215.86,185.83a5.15,5.15,0,1,0,10.3,0,5,5,0,0,0-.56-2.29h-9.18A5,5,0,0,0,215.86,185.83Z"/><circle class="cls-1" cx="220.85" cy="203.22" r="5.15"/><path class="cls-1" d="M232.8,185.83a5.15,5.15,0,1,0,9.75-2.29h-9.19A5,5,0,0,0,232.8,185.83Z"/><circle class="cls-1" cx="237.95" cy="203.22" r="5.15"/><path class="cls-4" d="M147.05,107.41H82.5A5.55,5.55,0,0,0,77,113v65a5.55,5.55,0,0,0,5.54,5.55h64.55a5.55,5.55,0,0,0,5.54-5.55V113A5.55,5.55,0,0,0,147.05,107.41ZM125.54,128.2a5.15,5.15,0,1,1,5.15,5.15A5.14,5.14,0,0,1,125.54,128.2Zm-11.89-5.15a5.15,5.15,0,1,1-5.15,5.15A5.14,5.14,0,0,1,113.65,123.05Zm-16.8,44.74a5.16,5.16,0,1,1,5.15-5.15A5.16,5.16,0,0,1,96.85,167.79Zm0-17.4a5.15,5.15,0,1,1,5.15-5.15A5.15,5.15,0,0,1,96.85,150.39Zm0-17A5.15,5.15,0,1,1,102,128.2,5.16,5.16,0,0,1,96.85,133.35ZM114,167.79a5.16,5.16,0,1,1,5.15-5.15A5.15,5.15,0,0,1,114,167.79Zm.16-17.4a5.15,5.15,0,1,1,5.15-5.15A5.14,5.14,0,0,1,114.15,150.39Zm16.94,17.4a5.16,5.16,0,1,1,5.15-5.15A5.15,5.15,0,0,1,131.09,167.79Zm0-17.4a5.15,5.15,0,1,1,5.15-5.15A5.14,5.14,0,0,1,131.09,150.39Z"/><circle class="cls-1" cx="96.85" cy="128.2" r="5.15"/><circle class="cls-1" cx="96.85" cy="145.24" r="5.15"/><path class="cls-1" d="M96.85,157.48a5.16,5.16,0,1,0,5.15,5.16A5.16,5.16,0,0,0,96.85,157.48Z"/><circle class="cls-1" cx="113.65" cy="128.2" r="5.15" transform="translate(-19.07 19.86) rotate(-9.22)"/><circle class="cls-1" cx="114.15" cy="145.24" r="5.15"/><path class="cls-1" d="M114,157.48a5.16,5.16,0,1,0,5.15,5.16A5.15,5.15,0,0,0,114,157.48Z"/><path class="cls-1" d="M135.84,128.2a5.15,5.15,0,1,0-5.15,5.15A5.14,5.14,0,0,0,135.84,128.2Z"/><circle class="cls-1" cx="131.09" cy="145.24" r="5.15" transform="translate(-29.86 34) rotate(-13.28)"/><path class="cls-1" d="M131.09,157.48a5.16,5.16,0,1,0,5.15,5.16A5.15,5.15,0,0,0,131.09,157.48Z"/><path class="cls-4" d="M255.13,107.41H190.58a5.55,5.55,0,0,0-5.53,5.55v65a5.55,5.55,0,0,0,5.53,5.55h64.55a5.55,5.55,0,0,0,5.54-5.55V113A5.55,5.55,0,0,0,255.13,107.41Zm-16.36,15.64a5.15,5.15,0,1,1-5.15,5.15A5.14,5.14,0,0,1,238.77,123.05Zm-17,0a5.15,5.15,0,1,1-5.15,5.15A5.14,5.14,0,0,1,221.73,123.05Zm-16.8,0a5.15,5.15,0,1,1-5.15,5.15A5.15,5.15,0,0,1,204.93,123.05Zm0,44.74a5.16,5.16,0,1,1,5.16-5.15A5.16,5.16,0,0,1,204.93,167.79Zm0-17.4a5.15,5.15,0,1,1,5.16-5.15A5.15,5.15,0,0,1,204.93,150.39Zm17.14,17.4a5.16,5.16,0,1,1,5.15-5.15A5.15,5.15,0,0,1,222.07,167.79Zm.16-17.4a5.15,5.15,0,1,1,5.15-5.15A5.14,5.14,0,0,1,222.23,150.39Zm16.94,17.4a5.16,5.16,0,1,1,5.15-5.15A5.16,5.16,0,0,1,239.17,167.79Zm0-17.4a5.15,5.15,0,1,1,5.15-5.15A5.15,5.15,0,0,1,239.17,150.39Z"/><circle class="cls-1" cx="204.93" cy="128.2" r="5.15" transform="translate(-17.89 34.48) rotate(-9.22)"/><circle class="cls-1" cx="204.93" cy="145.24" r="5.15" transform="translate(-27.89 50.97) rotate(-13.28)"/><path class="cls-1" d="M204.93,157.48a5.16,5.16,0,1,0,5.16,5.16A5.16,5.16,0,0,0,204.93,157.48Z"/><path class="cls-1" d="M221.73,133.35a5.15,5.15,0,1,0-5.15-5.15A5.15,5.15,0,0,0,221.73,133.35Z"/><circle class="cls-1" cx="222.23" cy="145.24" r="5.15" transform="translate(-27.42 54.94) rotate(-13.28)"/><path class="cls-1" d="M222.07,157.48a5.16,5.16,0,1,0,5.15,5.16A5.15,5.15,0,0,0,222.07,157.48Z"/><circle class="cls-1" cx="238.77" cy="128.2" r="5.15"/><circle class="cls-1" cx="239.17" cy="145.24" r="5.15"/><path class="cls-1" d="M239.17,157.48a5.16,5.16,0,1,0,5.15,5.16A5.16,5.16,0,0,0,239.17,157.48Z"/><path class="cls-4" d="M147.05,224H82.5A5.55,5.55,0,0,0,77,229.5v65a5.55,5.55,0,0,0,5.54,5.55h64.55a5.55,5.55,0,0,0,5.54-5.55v-65A5.55,5.55,0,0,0,147.05,224Zm-50.2,60.37a5.16,5.16,0,1,1,5.15-5.15A5.16,5.16,0,0,1,96.85,284.33Zm0-17.4a5.15,5.15,0,1,1,5.15-5.15A5.15,5.15,0,0,1,96.85,266.93Zm0-17a5.15,5.15,0,1,1,5.15-5.15A5.15,5.15,0,0,1,96.85,249.89Zm16.8-10.3a5.15,5.15,0,1,1-5.15,5.15A5.14,5.14,0,0,1,113.65,239.59Zm.34,44.74a5.16,5.16,0,1,1,5.15-5.15A5.15,5.15,0,0,1,114,284.33Zm.16-17.4a5.15,5.15,0,1,1,5.15-5.15A5.14,5.14,0,0,1,114.15,266.93Zm16.54-27.34a5.15,5.15,0,1,1-5.15,5.15A5.14,5.14,0,0,1,130.69,239.59Zm.4,44.74a5.16,5.16,0,1,1,5.15-5.15A5.15,5.15,0,0,1,131.09,284.33Zm0-17.4a5.15,5.15,0,1,1,5.15-5.15A5.14,5.14,0,0,1,131.09,266.93Z"/><circle class="cls-1" cx="96.85" cy="244.74" r="5.15"/><circle class="cls-1" cx="96.85" cy="261.78" r="5.15"/><circle class="cls-1" cx="96.85" cy="279.18" r="5.15"/><circle class="cls-1" cx="113.65" cy="244.74" r="5.15" transform="translate(-37.74 21.36) rotate(-9.22)"/><circle class="cls-1" cx="114.15" cy="261.78" r="5.15"/><path class="cls-1" d="M114,274a5.16,5.16,0,1,0,5.15,5.16A5.15,5.15,0,0,0,114,274Z"/><path class="cls-1" d="M130.69,249.89a5.15,5.15,0,1,0-5.15-5.15A5.14,5.14,0,0,0,130.69,249.89Z"/><circle class="cls-1" cx="131.09" cy="261.78" r="5.15" transform="translate(-160.93 282.71) rotate(-67.5)"/><circle class="cls-1" cx="131.09" cy="279.18" r="5.15" transform="translate(-177 293.45) rotate(-67.5)"/><path class="cls-4" d="M255.13,224H190.58a5.54,5.54,0,0,0-5.53,5.54v65a5.55,5.55,0,0,0,5.53,5.55h64.55a5.55,5.55,0,0,0,5.54-5.55v-65A5.55,5.55,0,0,0,255.13,224Zm-50.2,60.37a5.16,5.16,0,1,1,5.16-5.15A5.16,5.16,0,0,1,204.93,284.33Zm0-17.4a5.15,5.15,0,1,1,5.16-5.15A5.15,5.15,0,0,1,204.93,266.93Zm0-17a5.15,5.15,0,1,1,5.16-5.15A5.15,5.15,0,0,1,204.93,249.89Zm16.8-10.3a5.15,5.15,0,1,1-5.15,5.15A5.14,5.14,0,0,1,221.73,239.59Zm.34,44.74a5.16,5.16,0,1,1,5.15-5.15A5.15,5.15,0,0,1,222.07,284.33Zm.16-17.4a5.15,5.15,0,1,1,5.15-5.15A5.14,5.14,0,0,1,222.23,266.93Zm16.54-27.34a5.15,5.15,0,1,1-5.15,5.15A5.14,5.14,0,0,1,238.77,239.59Zm.4,44.74a5.16,5.16,0,1,1,5.15-5.15A5.16,5.16,0,0,1,239.17,284.33Zm0-17.4a5.15,5.15,0,1,1,5.15-5.15A5.15,5.15,0,0,1,239.17,266.93Z"/><circle class="cls-1" cx="204.93" cy="244.74" r="5.15" transform="translate(-99.6 340.42) rotate(-67.5)"/><circle class="cls-1" cx="204.93" cy="261.78" r="5.15" transform="translate(-115.34 350.94) rotate(-67.5)"/><circle class="cls-1" cx="204.93" cy="279.18" r="5.15" transform="translate(-131.42 361.67) rotate(-67.5)"/><path class="cls-1" d="M221.73,249.89a5.15,5.15,0,1,0-5.15-5.15A5.14,5.14,0,0,0,221.73,249.89Z"/><circle class="cls-1" cx="222.23" cy="261.78" r="5.15" transform="translate(-104.67 366.92) rotate(-67.5)"/><circle class="cls-1" cx="222.07" cy="279.18" r="5.15"/><circle class="cls-1" cx="238.77" cy="244.74" r="5.15"/><circle class="cls-1" cx="239.17" cy="261.78" r="5.15"/><circle class="cls-1" cx="239.17" cy="279.18" r="5.15"/><path class="cls-5" d="M82.55,475.65a4.4,4.4,0,0,1-4.21-3,4.64,4.64,0,0,1,.84-5.13c.7-.9,1.78-1.76,1.41-3.15a5.61,5.61,0,0,0-8.33-3.27c-1.25.78-2.3,1.85-4.06,1.08-1-.46-1.63.63-2,1.44q-1.77,4.14-3.36,8.34A2.27,2.27,0,0,0,63.92,475c2.13,1.25,2.54,3.4,2.67,5.56-.15,2.45-.77,4.52-3.1,5.71s-4.35,1.56-6.61.11c-4-2.58-4.52-7.12-1.09-11,1-1.14,2.14-2.18,1.35-3.93-1.2-2.68-2.34-5.38-3.57-8-.34-.75-1-1.8-1.8-1.39-2,1.06-3.28-.19-4.62-1.22-1.84-1.41-3.35-1.12-4.92.51-2.72,2.83-3,3.55-1.53,5.86,1.93,3.1,2,4.63.38,6.77-1.1,1.46-2.7,1.84-4.35,2.07-.84.12-1.84.16-2.12,1a10.35,10.35,0,0,0,0,6.44c.53,1.61,2.45,1.52,3.92,1.62a3.14,3.14,0,0,1,2.7,1.3c1.89,2.71,1.92,3.56.13,6.36-.36.57-.67,1.18-1.08,1.72-.76,1-.58,1.82.23,2.79,3.3,4,3.87,4.1,8.23,1.45,2.93-1.78,5.69-.57,6.38,2.77.21,1,.55,2,.73,3.06.21,1.3,1,1.65,2.2,1.77,5.29.53,5.77.22,7-4.94a4,4,0,0,1,6.36-2.55c4.13,2.7,4.26,2.61,7.75-.82,1.68-1.65,2-3.19.31-4.82-2.12-2.06-2.1-4-.6-6.5,1-1.74,2.44-1.49,3.81-1.78,2.76-.59,3.21-1.05,3.29-3.88,0-.52,0-1.05,0-1.58C86,476.5,85.45,475.87,82.55,475.65Z"/><text class="cls-6" transform="translate(125.45 384.26) rotate(-90)">G</text><text class="cls-6" transform="translate(125.45 369.51) rotate(-90)">N</text><text class="cls-6" transform="translate(125.45 353.9) rotate(-90)">D</text><text class="cls-6" transform="translate(157.7 384) rotate(-90)">V</text><text class="cls-6" transform="translate(157.7 369.52) rotate(-90)">C</text><text class="cls-6" transform="translate(157.7 355.78) rotate(-90)">C</text><text class="cls-6" transform="translate(192.88 382.43) rotate(-90)">S</text><text class="cls-6" transform="translate(192.88 369.65) rotate(-90)">D</text><text class="cls-6" transform="translate(192.88 354.42) rotate(-90)">A</text><text class="cls-6" transform="translate(223.85 381.99) rotate(-90)">S</text><text class="cls-6" transform="translate(223.85 369.21) rotate(-90)">C</text><text class="cls-6" transform="translate(223.85 355.47) rotate(-90)">L</text><text class="cls-7" transform="translate(44.81 71.35)">M</text><text class="cls-7" transform="translate(63.48 71.35)">u</text><text class="cls-7" transform="translate(76.65 71.35)">l</text><text class="cls-7" transform="translate(82.6 71.35)">t</text><text class="cls-7" transform="translate(90.81 71.35)">i</text><text class="cls-7" transform="translate(96.54 71.35)">c</text><text class="cls-7" transform="translate(107.92 71.35)">h</text><text class="cls-7" transform="translate(121.42 71.35)">a</text><text class="cls-7" transform="translate(133.24 71.35)">n</text><text class="cls-7" transform="translate(146.62 71.35)">n</text><text class="cls-7" transform="translate(160 71.35)">e</text><text class="cls-7" transform="translate(171.86 71.35)">l</text><text class="cls-7" transform="translate(177.81 71.35)"> </text><text class="cls-7" transform="translate(183.02 71.35)">G</text><text class="cls-7" transform="translate(198.13 71.35)">a</text><text class="cls-7" transform="translate(209.95 71.35)">s</text><text class="cls-7" transform="translate(219.43 71.35)"> </text><text class="cls-7" transform="translate(224.64 71.35)">S</text><text class="cls-7" transform="translate(237.19 71.35)">e</text><text class="cls-7" transform="translate(249.05 71.35)">n</text><text class="cls-7" transform="translate(262.43 71.35)">s</text><text class="cls-7" transform="translate(271.91 71.35)">o</text><text class="cls-7" transform="translate(284.52 71.35)">r</text><text class="cls-7" transform="translate(251.67 91.46)">v</text><text class="cls-7" transform="translate(262.27 91.46)">2</text><text class="cls-7" transform="translate(274.13 91.46)">.</text><text class="cls-7" transform="translate(278.53 91.46)">0</text></g></g></svg>