<?xml version="1.0" standalone="no"?>
<!DOCTYPE svg PUBLIC "-//W3C//DTD SVG 20010904//EN"
 "http://www.w3.org/TR/2001/REC-SVG-20010904/DTD/svg10.dtd">
<svg version="1.0" xmlns="http://www.w3.org/2000/svg"
 width="1920.000000pt" height="1080.000000pt" viewBox="0 0 1920.000000 1080.000000"
 preserveAspectRatio="xMidYMid meet">

<g transform="translate(0.000000,1080.000000) scale(0.100000,-0.100000)"
fill="#000000" stroke="none">
<path d="M9500 9054 c-141 -38 -245 -154 -273 -306 l-11 -58 -738 0 -738 0 2
-541 3 -541 40 -16 c108 -41 222 -152 277 -268 84 -179 69 -381 -42 -543 -53
-79 -126 -142 -210 -182 l-70 -34 -2 -1355 -3 -1355 -55 -8 c-196 -27 -331
-197 -317 -400 12 -178 148 -323 320 -343 l57 -7 0 -503 0 -504 655 0 655 0 0
34 c0 46 36 161 68 216 63 109 192 213 311 251 97 31 242 30 337 -3 190 -66
333 -233 365 -425 l12 -73 663 0 664 0 2 557 3 558 52 7 c223 32 370 278 293
491 -30 83 -69 137 -130 182 -51 37 -150 75 -196 75 l-24 0 0 1299 0 1299 -76
38 c-224 111 -348 355 -300 590 36 179 141 318 295 391 l80 38 1 538 0 537
-743 0 -743 0 -12 61 c-28 152 -132 266 -277 304 -72 18 -123 18 -195 -1z
m210 -115 c101 -45 160 -138 160 -249 -1 -111 -56 -199 -155 -246 l-50 -24
468 0 467 0 0 -470 0 -470 -220 0 -220 0 0 60 0 60 -565 0 -565 0 0 -60 0 -60
-220 0 -220 0 0 470 0 470 473 0 472 0 -50 24 c-209 99 -209 393 0 492 65 31
160 32 225 3z m-1242 -372 c4 -75 -14 -107 -61 -107 -37 0 -58 15 -50 36 3 9
14 11 34 7 29 -5 29 -5 29 41 0 44 -1 46 -29 46 -28 0 -30 4 -22 38 1 2 22 2
49 0 l47 -3 3 -58z m90 -24 c3 -83 3 -83 -23 -83 -24 0 -25 2 -25 65 0 51 -3
65 -15 65 -8 0 -15 9 -15 21 0 17 5 20 38 17 l37 -3 3 -82z m746 -1072 c-27
-63 -7 -84 23 -23 20 42 50 53 70 26 24 -33 11 -116 -16 -99 -8 4 -10 18 -6
36 9 41 -11 37 -29 -6 -16 -37 -49 -48 -74 -23 -15 15 -16 72 -2 98 13 24 44
15 34 -9z m-381 -32 c-1 -8 -5 -24 -9 -36 -5 -17 -2 -23 9 -23 9 0 18 13 22
30 4 17 14 34 23 39 25 13 58 -4 65 -31 7 -26 -5 -85 -16 -80 -4 1 -12 2 -17
2 -7 0 -8 13 -4 35 8 46 -11 46 -26 1 -15 -46 -46 -59 -74 -30 -18 18 -21 66
-5 95 11 22 35 20 32 -2z m1261 -23 c42 -17 63 -63 49 -109 -14 -49 -38 -42
-38 13 0 39 -3 45 -27 54 -33 12 -58 -6 -58 -40 0 -16 7 -24 22 -26 11 -2 22
-11 24 -20 2 -15 -5 -18 -36 -18 -42 0 -50 10 -50 69 0 43 29 76 78 90 1 1 17
-5 36 -13z m-324 -26 c0 -14 -14 -23 -55 -36 -30 -10 -55 -21 -55 -24 0 -3 25
-14 55 -24 42 -13 55 -22 55 -37 0 -25 -11 -24 -95 10 -56 23 -71 33 -73 52
-2 21 6 28 75 55 43 17 81 29 86 27 4 -2 7 -13 7 -23z m-450 -90 c0 -41 -5
-56 -25 -75 -13 -14 -36 -25 -50 -25 -14 0 -37 11 -50 25 -20 19 -25 34 -25
75 l0 50 75 0 75 0 0 -50z m-410 10 c27 -14 41 -64 29 -100 -12 -32 -19 -36
-36 -19 -9 9 -9 16 0 30 16 25 -2 53 -36 57 -32 4 -53 -28 -38 -57 8 -14 7
-22 -4 -31 -17 -14 -35 15 -35 59 0 55 67 90 120 61z m373 -158 c27 -11 37
-21 37 -37 0 -23 -11 -30 -102 -66 l-48 -19 0 25 c0 16 6 25 15 25 10 0 15 11
15 35 0 24 -5 35 -15 35 -9 0 -15 9 -15 25 l0 25 38 -16 c20 -9 54 -23 75 -32z
m-343 -12 c0 -18 -7 -20 -60 -20 l-60 0 0 -35 c0 -24 -5 -35 -15 -35 -12 0
-15 13 -15 55 l0 55 75 0 c68 0 75 -2 75 -20z m-640 -93 c0 -43 -5 -78 -12
-85 -17 -17 -73 -15 -88 3 -18 21 -3 35 30 28 30 -5 30 -5 30 41 0 44 -1 46
-30 46 -23 0 -30 4 -30 20 0 17 7 20 50 20 l50 0 0 -73z m128 57 c29 -20 28
-37 -8 -77 -16 -19 -30 -38 -30 -41 0 -4 14 -5 30 -2 25 3 30 1 30 -15 0 -17
-8 -19 -64 -19 -58 0 -64 2 -59 19 3 10 20 34 39 52 45 44 45 63 0 55 -44 -8
-58 18 -18 33 39 14 55 13 80 -5z m2072 -654 l0 -470 -220 0 -220 0 0 60 0 60
-565 0 -565 0 0 -60 0 -60 -220 0 -220 0 0 470 0 470 1005 0 1005 0 0 -470z
m-1247 -511 c-1 -8 -5 -24 -9 -36 -11 -37 14 -27 30 12 25 59 86 44 86 -21 0
-44 -9 -64 -26 -57 -11 4 -13 15 -8 39 8 45 -11 45 -26 0 -15 -46 -46 -59 -74
-30 -18 18 -21 66 -5 95 11 22 35 20 32 -2z m-389 -18 c-10 -24 -10 -50 0 -53
5 -2 14 13 21 32 13 38 44 51 71 30 15 -14 19 -77 5 -99 -16 -24 -32 -2 -25
35 9 47 -9 43 -29 -6 -12 -31 -21 -40 -39 -40 -13 0 -29 5 -36 12 -15 15 -16
72 -2 98 13 24 45 15 34 -9z m1289 -21 c31 -25 41 -62 27 -105 -8 -24 -16 -32
-26 -28 -12 4 -14 15 -9 43 7 44 -10 63 -52 58 -23 -2 -29 -8 -31 -35 -3 -26
1 -32 20 -35 34 -5 29 -32 -7 -36 -37 -5 -55 19 -55 70 0 75 75 113 133 68z
m-345 -12 c-2 -16 -17 -26 -62 -41 l-59 -20 59 -22 c46 -17 60 -27 62 -45 3
-19 0 -22 -15 -16 -149 57 -154 60 -151 84 2 19 16 29 73 52 87 35 97 36 93 8z
m-859 -104 c24 -30 27 -72 8 -98 -12 -16 -15 -16 -26 -3 -8 10 -9 17 -1 22 15
9 12 41 -5 55 -18 15 -61 6 -69 -16 -3 -8 -2 -24 4 -34 7 -13 6 -21 -3 -29
-20 -16 -37 7 -37 50 0 71 87 106 129 53z m411 -23 c0 -65 -24 -95 -75 -95
-51 0 -75 30 -75 95 l0 49 75 0 75 0 0 -49z m-62 -136 c49 -22 62 -32 62 -49
0 -18 -14 -28 -75 -53 l-75 -32 0 24 c0 12 7 25 15 29 9 3 15 18 15 35 0 16
-6 31 -15 35 -8 3 -15 15 -15 27 0 13 5 19 13 16 6 -3 40 -17 75 -32z m-328 5
c0 -18 -7 -20 -60 -20 l-60 0 0 -30 c0 -20 -5 -30 -15 -30 -11 0 -15 12 -15
50 l0 50 75 0 c68 0 75 -2 75 -20z m-630 -63 c0 -43 -5 -78 -12 -85 -17 -17
-73 -15 -88 3 -18 21 -3 35 30 28 30 -5 30 -5 30 41 0 44 -1 46 -30 46 -18 0
-30 5 -30 13 0 22 11 27 57 27 l43 0 0 -73z m135 62 c4 -6 -3 -21 -15 -34
l-22 -23 21 -11 c28 -15 29 -66 2 -81 -43 -22 -109 -6 -98 24 5 13 11 14 32 4
18 -8 29 -8 36 -1 15 15 3 33 -22 33 -23 0 -25 17 -2 42 15 17 15 18 -10 18
-28 0 -42 14 -32 30 8 13 102 13 110 -1z m2025 -699 l0 -470 -220 0 -220 0 0
60 0 60 -565 0 -565 0 0 -60 0 -60 -220 0 -220 0 0 470 0 470 1005 0 1005 0 0
-470z m-1289 -491 c-12 -44 -12 -59 -2 -59 7 0 17 14 23 30 14 42 44 57 69 34
33 -30 20 -114 -15 -101 -13 5 -14 12 -6 32 12 33 12 35 0 35 -5 0 -16 -16
-24 -35 -16 -37 -49 -48 -74 -23 -24 24 -10 111 17 105 9 -2 14 -10 12 -18z
m-377 -38 c-10 -25 -10 -50 1 -49 6 1 15 15 20 32 12 37 51 48 72 20 15 -20
17 -72 4 -93 -14 -22 -33 -2 -26 29 9 42 -12 46 -25 5 -13 -39 -50 -56 -75
-35 -17 14 -20 72 -5 100 13 24 45 15 34 -9z m1279 -21 c32 -25 43 -72 27
-111 -13 -31 -20 -35 -37 -18 -8 8 -8 19 0 39 15 38 -5 62 -47 58 -27 -3 -31
-7 -34 -35 -3 -26 1 -32 20 -35 34 -5 29 -32 -7 -36 -37 -5 -55 19 -55 70 0
75 75 113 133 68z m-343 -9 c0 -13 -14 -24 -47 -36 -27 -10 -52 -21 -57 -25
-4 -5 17 -16 48 -26 38 -12 56 -23 56 -34 0 -29 -9 -28 -91 4 -72 28 -79 33
-77 56 3 20 15 29 73 52 84 33 95 34 95 9z m-450 -101 c0 -41 -5 -56 -25 -75
-13 -14 -36 -25 -50 -25 -14 0 -37 11 -50 25 -20 19 -25 34 -25 75 l0 50 75 0
75 0 0 -50z m-401 -6 c23 -29 27 -65 10 -95 -8 -16 -13 -18 -24 -9 -11 9 -12
17 -5 30 13 24 13 26 -6 44 -35 35 -88 0 -65 -43 8 -14 7 -22 -4 -31 -11 -9
-16 -7 -24 9 -45 83 61 167 118 95z m401 -179 c0 -17 -15 -27 -75 -52 l-75
-31 0 23 c0 13 7 25 15 29 9 3 15 18 15 36 0 20 -5 30 -15 30 -9 0 -15 9 -15
24 l0 25 75 -32 c60 -24 75 -35 75 -52z m-380 25 c0 -18 -7 -20 -60 -20 l-60
0 0 -30 c0 -20 -5 -30 -15 -30 -11 0 -15 12 -15 50 l0 50 75 0 c68 0 75 -2 75
-20z m-640 -63 c0 -43 -5 -78 -12 -85 -14 -14 -67 -16 -87 -3 -22 14 -7 36 25
36 27 0 29 3 32 43 3 41 2 42 -27 42 -24 0 -31 4 -31 20 0 17 7 20 50 20 l50
0 0 -73z m110 68 c0 -3 -9 -23 -20 -45 -24 -47 -24 -50 -5 -50 8 0 15 6 15 14
0 22 30 28 37 8 4 -9 11 -20 16 -23 15 -10 -15 -69 -34 -69 -9 0 -19 9 -22 19
-4 15 -12 18 -41 16 -30 -3 -36 -1 -36 16 0 36 49 119 70 119 11 0 20 -2 20
-5z m2110 -700 l0 -475 -220 0 -220 0 0 65 0 65 -565 0 -564 0 -3 -62 -3 -63
-217 -3 -218 -2 0 475 0 475 1005 0 1005 0 0 -475z m977 409 c159 -76 200
-284 82 -418 -52 -59 -106 -87 -181 -93 -117 -11 -214 43 -267 148 -78 156 2
337 170 383 67 19 128 13 196 -20z m-3726 -106 c102 -54 157 -153 146 -269 -6
-71 -33 -124 -90 -176 -109 -101 -264 -95 -374 13 -53 53 -83 120 -83 189 0
48 25 122 54 160 88 114 223 147 347 83z m1453 -793 c-4 -23 -2 -35 5 -35 6 0
11 7 11 15 0 8 9 24 20 35 17 17 24 18 41 10 16 -9 19 -19 17 -53 -2 -29 -8
-42 -18 -42 -11 0 -14 9 -12 33 4 42 -4 41 -22 -3 -23 -54 -76 -43 -76 16 0
38 10 59 27 59 11 0 12 -8 7 -35z m-383 -36 c-19 -67 -2 -84 23 -24 18 43 40
53 66 30 34 -31 22 -115 -14 -102 -13 5 -15 11 -6 26 13 25 13 41 0 41 -5 0
-16 -16 -24 -35 -16 -37 -49 -48 -74 -23 -16 16 -15 81 0 96 15 15 34 9 29 -9z
m959 -13 c0 -21 -8 -28 -55 -42 -30 -10 -55 -21 -55 -24 0 -3 25 -14 55 -24
42 -13 55 -22 55 -37 0 -24 -10 -24 -95 10 -58 22 -70 31 -73 51 -2 22 5 28
75 57 96 38 93 38 93 9z m334 10 c42 -17 63 -63 49 -109 -13 -48 -38 -42 -38
11 0 61 -47 86 -79 41 -18 -26 -11 -47 17 -51 12 -2 23 -11 25 -20 3 -15 -4
-18 -36 -18 -45 0 -52 10 -52 69 0 43 29 76 78 90 1 1 17 -5 36 -13z m-814
-99 c0 -50 -24 -79 -65 -79 -41 0 -65 29 -65 79 l0 43 65 0 65 0 0 -43z m-395
-32 c28 -27 33 -71 11 -101 -20 -26 -43 -6 -27 24 19 36 -9 70 -49 57 -24 -7
-32 -32 -20 -55 7 -13 6 -21 -5 -30 -11 -9 -16 -7 -24 9 -20 36 -13 78 15 100
35 28 69 26 99 -4z m340 -82 c73 -36 71 -56 -9 -89 -71 -29 -66 -28 -66 -4 0
11 5 20 10 20 6 0 10 13 10 29 0 17 -4 33 -10 36 -13 8 -13 35 0 35 5 0 35
-12 65 -27z m-315 -73 c0 -18 -7 -20 -60 -20 l-60 0 0 -30 c0 -20 -5 -30 -15
-30 -11 0 -15 12 -15 50 l0 50 75 0 c68 0 75 -2 75 -20z"/>
<path d="M9290 7291 c0 -23 25 -51 45 -51 20 0 45 28 45 51 0 16 -7 19 -45 19
-38 0 -45 -3 -45 -19z"/>
<path d="M9320 7115 c0 -17 9 -19 28 -6 11 7 10 10 -3 15 -23 9 -25 8 -25 -9z"/>
<path d="M9330 5752 c0 -24 19 -42 45 -42 26 0 45 18 45 42 0 15 -8 18 -45 18
-37 0 -45 -3 -45 -18z"/>
<path d="M9360 5575 c0 -17 2 -18 24 -9 18 7 12 24 -10 24 -8 0 -14 -7 -14
-15z"/>
<path d="M9290 4255 c0 -46 71 -58 85 -15 9 30 -2 40 -46 40 -35 0 -39 -3 -39
-25z"/>
<path d="M9320 4085 c0 -17 2 -18 24 -9 18 7 12 24 -10 24 -8 0 -14 -7 -14
-15z"/>
<path d="M9310 2776 c0 -15 7 -27 19 -31 28 -9 51 5 51 31 0 21 -5 24 -35 24
-30 0 -35 -3 -35 -24z"/>
<path d="M9330 2635 c0 -8 7 -15 15 -15 8 0 15 4 15 9 0 5 -7 11 -15 15 -9 3
-15 0 -15 -9z"/>
</g>
</svg>
