<svg xmlns="http://www.w3.org/2000/svg" width="40" height="80" viewBox="0 0 336.53 523.79"><defs><style>.cls-1{fill:#004684;}.cls-2{fill:#c7d0d8;}.cls-3{fill:#f6e089;}.cls-4{fill:#272626;}.cls-5{fill:#012d54;}.cls-6{fill:#fefefe;}.cls-7{fill:#f9fafa;}.cls-8{fill:#f7f8f7;}.cls-9{fill:#f8f8f7;}.cls-10{fill:#e6e9ea;}.cls-11{fill:#013e7f;}.cls-12{fill:#3a4652;}.cls-13{fill:#00427f;}.cls-14{fill:#1b3e5d;}.cls-15{fill:#f4f5f4;}.cls-16{fill:#1d405f;}.cls-17{fill:#eff0f1;}.cls-18{fill:#034480;}.cls-19{fill:#1b405f;}.cls-20{fill:#0e3c61;}.cls-21{fill:#36424e;}.cls-22{fill:#00376c;}.cls-23{fill:#14375c;}.cls-24{fill:#00386c;}.cls-25{fill:#113a5d;}.cls-26{fill:#1e405c;}.cls-27{fill:#0e3b64;}.cls-28{fill:#14385c;}.cls-29{fill:#0f3e6c;}.cls-30{fill:#5d7a91;}.cls-31{fill:#0c4067;}.cls-32{fill:#024784;}.cls-33{fill:#0d4a82;}.cls-34{fill:#074883;}.cls-35{fill:#0f4c83;}.cls-36{fill:#004888;}.cls-37{fill:#0e4a81;}.cls-38{fill:#004b90;}.cls-39{fill:#083966;}.cls-40{fill:#1b3f5d;}.cls-41{font-size:32.39px;fill:#fff;font-family:Montserrat-Regular, Montserrat;}</style></defs><title>Asset 1</title><g id="Layer_2" data-name="Layer 2"><g id="Layer_1-2" data-name="Layer 1"><path class="cls-1" d="M37,51.94A17.24,17.24,0,0,1,54.21,34.76h86.28a28.75,28.75,0,0,1-.7-6.27H28.48v81.09A41.07,41.07,0,0,1,37,113.41Z"/><path class="cls-1" d="M263.86,34.76a16.74,16.74,0,0,1,16.31,0H285a17.24,17.24,0,0,1,17.25,17.18v.43a16.74,16.74,0,0,1,0,20.2V112a40.09,40.09,0,0,1,6.37-2.54V28.49H196.74a28.75,28.75,0,0,1-.7,6.27Z"/><path class="cls-1" d="M302.24,185.23V360.14A17.24,17.24,0,0,1,285,377.32H54.21A17.24,17.24,0,0,1,37,360.14v-94.3h-.44V184a40.57,40.57,0,0,1-8,3.57V391a28.48,28.48,0,0,1,0,57v75.8h92a40.92,40.92,0,0,1,81.83,0H308.61V440l-.56,0a28.48,28.48,0,0,1,0-57l.56,0V187.76A41,41,0,0,1,302.24,185.23Zm-180,203.66a5.67,5.67,0,1,1-5.66-5.67A5.66,5.66,0,0,1,122.22,388.89ZM67.68,422.31h0a2.63,2.63,0,0,1,1.86-1.7c3.41-2.27,6.78-2,10.15.09,1.78,1.09,3.43.16,5.08-.45.21-.08.5-.34.51-.52.07-1.71.79-3.35.48-5.09,0-.2-.32-.37-.49-.55a2.87,2.87,0,0,1-2-.83c-2.85-.06-5.61-.41-8-2.2h0a1.88,1.88,0,0,1-1.5-1.77l-.75-1.37h0A4.29,4.29,0,0,1,73,404a8.68,8.68,0,0,1,6.09-6.18h0c.48-.44.95-.92,1.63-.32,3.43.71,6.24,2.25,7.63,5.71h0c.82,1.16.31,2.47.42,3.71a15,15,0,0,0,.25,3.6c-.25,1.11.58,1,1.15.91a4.54,4.54,0,0,0,2.49-.82h0c.59-1.21.29-2.69,1.11-3.84-.22-.83.48-1.38.72-2,1-2.79.07-4.94-1.84-6.88h0c-.46-.27-1-.52-.48-1.18l-.19-.79h0a3,3,0,0,1-.08-3.46l.29-.37A5.71,5.71,0,0,1,96.87,387l.1-.09.12.06h0a5.69,5.69,0,0,1,5.54,0h0a3.58,3.58,0,0,1,2.63,1.95,3.86,3.86,0,0,1,1.23,1.84h0c1.42,3,1.1,6.22-.78,7.85l-.61.8h0c-.67.38-.86,1.33-1.72,1.5,0,.48-.66.2-.78.59h0c-.28.73-.71,1.22-1.59,1l-1.37.82c-1,2.27-1.23,4.73-2,7.05a2,2,0,0,1,.09.33s-.06.1-.09.15h0c.1.85.78,1.35,1.2,2h0A1.35,1.35,0,0,1,100,414a29.78,29.78,0,0,1,1.49,4.32c.21.42.16,1,.67,1.22h0a1.53,1.53,0,0,1,2,.57,9.89,9.89,0,0,0,2.33-.73c3.91-2.36,7.2-1.08,10.29,1.64h0c1.57,1,1.45,2.57,1.56,4.08.89,2.73-.86,4.53-2.25,6.46h0c-.51,1-1.13,1.76-2.4,1.48-1.49.3-2.93.8-4.52.44-3.83-.85-5.76-3-6.28-7h0c-1.19-.1-.82-1.12-1-1.8-2.27-1.46-3.21-1.14-3.87,1.32a1.28,1.28,0,0,1,.29,1.4c-.53-.32-.17-.86-.34-1.26h0c0,4.42-.93,8.86.65,13.22a5.68,5.68,0,0,0,2.72,2.79c2,1.26,3.62,2.73,4,5.19.08.53.89.53.73,1.16,1.34,2.83,1,5.65,0,8.48-1.75,8.93-13.35,11.26-19.23,6.45l-2.95-2.77a.18.18,0,0,1,0-.16c0-.05.1-.07.15-.11l-.67-1.12h0A2.24,2.24,0,0,1,82.23,457l-.64-1.46c-1-1.82-.27-3.78-.41-5.67.09,0,.23.07.26.14a3.35,3.35,0,0,1,.11.55c.17-3.25,2.28-5.45,4.18-7.76h0a15.88,15.88,0,0,1,3.42-3.57c.08-3.73.19-7.45.21-11.17,0-1.1.4-2.52-.85-3.15a4.54,4.54,0,0,0-4.39.49,6.77,6.77,0,0,0-1.1,1h0a2.29,2.29,0,0,1-.77,1.67c-1.41,4.86-4.88,6.51-9.59,6.21.18.37,1,.39.67.93-.12.22-.9.27-1.23.1-.68-.36.13-.7.16-1.08C67,431.32,66,428.62,67.68,422.31Zm30.63,6.62v6.61h-.18v-6.61Zm36.39-34.37a5.67,5.67,0,1,1,5.67-5.67A5.66,5.66,0,0,1,134.7,394.56Z"/><path class="cls-1" d="M148.74,34.76a20.51,20.51,0,1,1,40-6.28,20.38,20.38,0,0,1-1,6.28H196a28.75,28.75,0,0,0,.7-6.27h0a28.48,28.48,0,1,0-57,0h0a28.75,28.75,0,0,0,.7,6.27Z"/><path class="cls-1" d="M279.57,411.54A28.48,28.48,0,0,0,308.05,440l.56,0a28.47,28.47,0,0,0,0-56.92l-.56,0A28.48,28.48,0,0,0,279.57,411.54Zm49,0A20.51,20.51,0,1,1,308.05,391,20.51,20.51,0,0,1,328.56,411.54Z"/><path class="cls-1" d="M57,419.51A28.48,28.48,0,1,0,28.48,448,28.48,28.48,0,0,0,57,419.51ZM28.48,440A20.51,20.51,0,1,1,49,419.51,20.51,20.51,0,0,1,28.48,440Z"/><path class="cls-1" d="M305.63,62.47a16.7,16.7,0,0,0-3.39-10.1v20.2A16.75,16.75,0,0,0,305.63,62.47Z"/><path class="cls-1" d="M272,32.64a16.73,16.73,0,0,0-8.15,2.12h16.31A16.8,16.8,0,0,0,272,32.64Z"/><circle class="cls-1" cx="116.56" cy="388.89" r="5.67" transform="translate(-86.23 37.18) rotate(-13.28)"/><circle class="cls-1" cx="134.7" cy="388.89" r="5.67" transform="translate(-235.53 209.15) rotate(-45)"/><path class="cls-2" d="M302.24,72.57V51.94A17.24,17.24,0,0,0,285,34.76H54.21A17.24,17.24,0,0,0,37,51.94v88.31h10.9v-45H84.12V317.61H47.86V272.92H37v87.22a17.24,17.24,0,0,0,17.25,17.18H285a17.24,17.24,0,0,0,17.25-17.18V72.57ZM293.86,352a17.24,17.24,0,0,1-17.25,17.18H109A17.25,17.25,0,0,1,91.74,352V58.42A17.25,17.25,0,0,1,109,41.24H276.61a17.24,17.24,0,0,1,17.25,17.18Z"/><rect class="cls-3" x="36.96" y="265.84" width="10.9" height="7.08"/><rect class="cls-3" x="36.96" y="140.25" width="10.9" height="6.72"/><polygon class="cls-4" points="50.05 146.97 50.05 265.84 47.86 265.84 47.86 272.92 47.86 317.61 84.12 317.61 84.12 95.27 47.86 95.27 47.86 140.25 47.86 146.97 50.05 146.97"/><polygon class="cls-4" points="50.05 265.84 50.05 146.97 47.86 146.97 36.96 146.97 36.52 146.97 36.52 184.02 36.52 265.84 36.96 265.84 47.86 265.84 50.05 265.84"/><path class="cls-4" d="M293.86,58.42a17.24,17.24,0,0,0-17.25-17.18H109A17.25,17.25,0,0,0,91.74,58.42V352A17.25,17.25,0,0,0,109,369.17H276.61A17.24,17.24,0,0,0,293.86,352ZM105.41,358.21V54.29H279.92V358.21Z"/><rect class="cls-5" x="105.41" y="54.29" width="174.5" height="303.92"/><path class="cls-6" d="M72.26,434.17l.4.05c4.71.3,8.18-1.35,9.59-6.21a1.59,1.59,0,0,1,.77-1.67h0a6.77,6.77,0,0,1,1.1-1,4.54,4.54,0,0,1,4.39-.49c1.25.63.85,2.05.85,3.15,0,3.72-.13,7.44-.21,11.17-.54,1.76-2.13,2.52-3.42,3.57h0c-1.9,2.31-4,4.51-4.18,7.76,0,1.66,0,3.32,0,5l.64,1.46c.92.5.93,1.47,1.19,2.32h0l.67,1.12c1,.93,2.44,1.5,2.79,3,5.88,4.81,17.48,2.48,19.23-6.45.2-2.83.67-5.65,0-8.48h0c.16-.63-.65-.63-.73-1.16-.4-2.46-2-3.93-4-5.19a5.68,5.68,0,0,1-2.72-2.79C97,435,98,430.57,98,426.15h0l0-.14c.66-2.46,1.6-2.78,3.87-1.32.62.45,1.26.87,1,1.8h0c.52,4,2.45,6.14,6.28,7,1.59.36,3-.14,4.52-.44l2.4-1.48h0c1.39-1.93,3.14-3.73,2.25-6.46L116.82,421h0c-3.09-2.72-6.38-4-10.29-1.64a9.89,9.89,0,0,1-2.33.73c-.84.39-1.43-.13-2-.57h0c-.51-.24-.46-.8-.67-1.22l-3.58-5.81a2.51,2.51,0,0,1-.22-1.68h0c0-.05.1-.11.09-.15a2,2,0,0,0-.09-.33c.13-2.5.07-5.06,2-7.05h0l1.37-.82a2.61,2.61,0,0,1,1.59-1h0c.12-.39.73-.11.78-.59a1.57,1.57,0,0,1,1.71-1.5h0l.61-.8c0-.11-.17-.29-.13-.34,1.84-2.32,1.08-4.95.91-7.51h0a3.86,3.86,0,0,0-1.23-1.84,5.92,5.92,0,0,1-2.63-1.95h0a27,27,0,0,0-5.54,0h0L97,386.9l-.1.09c-.06.41.1.93-.56,1a3.14,3.14,0,0,0-2.67,2.87c-.14.75-.89.83-1.42,1.14l-.29.37c0,1.15,0,2.31.08,3.46h0l.19.79c.45.27.4.75.48,1.18h0c1.91,1.94,2.84,4.09,1.84,6.88-.24.66-.94,1.21-.72,2-.1,1.36.09,2.8-1.11,3.84h0a4.54,4.54,0,0,1-2.49.82c-.57.1-1.4.2-1.15-.91-1-.13-.71-.91-.72-1.47,0-1.94,0-3.89,0-5.84h0c-1.39-3.46-4.2-5-7.63-5.71a3,3,0,0,1-1.63.32h0A8.68,8.68,0,0,0,73,404l0,3.93h0l.75,1.37a3.76,3.76,0,0,1,1.5,1.77h0c2.38,1.79,5.14,2.14,8,2.2a2,2,0,0,1,2,.83c.17.18.45.35.49.55.31,1.74-.41,3.38-.48,5.09,0,.18-.3.44-.51.52-1.65.61-3.3,1.54-5.08.45-3.37-2.05-6.74-2.36-10.15-.09a3.15,3.15,0,0,1-1.86,1.7h0C66,428.62,67,431.32,72.26,434.17Zm36.08-7.38v-.72h0a2.25,2.25,0,0,1,1.82-2.34c1.21-.31,1.88.52,2.52,1.32.45.57.77,1.2.19,1.89a2.78,2.78,0,0,1-3,1.2C109.18,428,108.07,428.17,108.34,426.79ZM97.66,393.22c.43-2.15,1-2.46,2.66-1.55h0c.12.26.23.52.35.77h0l.45.67c1.19.51.76,1.28.28,2a2.09,2.09,0,0,1-4-1,3.18,3.18,0,0,1,.27-.9Zm-4.13,22.89c1.14-.05,2,1.05,2.27,2.21s-1.47,2.51-2.7,2.43a2,2,0,0,1-2-2.08A2.63,2.63,0,0,1,93.53,416.11Zm.83,31.94c1.92.12,4.35,2.91,4.38,5s-2.85,5.08-4.84,5S89.25,455,89.28,453,92.36,447.93,94.36,448.05Zm-11.6-41.42a2.2,2.2,0,0,1-3,.83c-.87-.44-2.16-.76-1.47-2.28h0c.19-.68.51-1.21,1.33-1.13a1.94,1.94,0,0,1,2.89-.05A1.92,1.92,0,0,1,82.76,406.63Zm-8.48,17.94c1.35.08,2.35.58,2.29,2.18,0,1.06-1.47,2.61-2.38,2.56s-2-1.7-2-3.39C72.24,425.09,73,424.5,74.28,424.57Z"/><path class="cls-7" d="M93.64,390.9A3.14,3.14,0,0,1,96.31,388c.66-.11.5-.63.56-1A5.71,5.71,0,0,0,92.22,392C92.75,391.73,93.5,391.65,93.64,390.9Z"/><path class="cls-8" d="M97.9,412.51l3.58,5.81A29.78,29.78,0,0,0,100,414a1.59,1.59,0,0,1-1.11-1.15h0c-.42-.67-1.1-1.17-1.2-2h0A2.51,2.51,0,0,0,97.9,412.51Z"/><path class="cls-9" d="M105.61,398.3c0,.05.08.23.13.34,1.88-1.63,2.2-4.8.78-7.85h0C106.69,393.35,107.45,396,105.61,398.3Z"/><path class="cls-10" d="M106.11,457c1-2.83,1.32-5.65,0-8.48h0C106.78,451.34,106.31,454.16,106.11,457Z"/><path class="cls-8" d="M97.68,410.35c.76-2.32,1-4.78,2-7.05h0C97.75,405.29,97.81,407.85,97.68,410.35Z"/><path class="cls-7" d="M102.63,387a5.69,5.69,0,0,0-5.54,0h0A27,27,0,0,1,102.63,387Z"/><path class="cls-11" d="M98.13,435.54h.18v-6.61h-.18Z"/><path class="cls-12" d="M88.33,409c0,.56-.23,1.34.72,1.47a15,15,0,0,1-.25-3.6c-.11-1.24.4-2.55-.42-3.71h0C88.36,405.15,88.31,407.1,88.33,409Z"/><path class="cls-13" d="M81.44,450c0-.07-.17-.1-.26-.14.14,1.89-.64,3.85.41,5.67,0-1.66,0-3.32,0-5A3.35,3.35,0,0,0,81.44,450Z"/><path class="cls-14" d="M89.15,439.19a15.88,15.88,0,0,0-3.42,3.57h0C87,441.71,88.61,441,89.15,439.19Z"/><path class="cls-15" d="M84.09,460.4s-.12.06-.15.11a.18.18,0,0,0,0,.16l2.95,2.77C86.53,461.9,85.11,461.33,84.09,460.4Z"/><path class="cls-16" d="M118.38,425.1c-.11-1.51,0-3.13-1.56-4.08h0Z"/><path class="cls-17" d="M93.8,406.76c-.82,1.15-.52,2.63-1.11,3.84h0C93.89,409.56,93.7,408.12,93.8,406.76Z"/><path class="cls-18" d="M72.1,435.25c.33.17,1.11.12,1.23-.1.32-.54-.49-.56-.67-.93l-.4-.05C72.23,434.55,71.42,434.89,72.1,435.25Z"/><path class="cls-19" d="M113.73,433c1.27.28,1.89-.51,2.4-1.48h0Z"/><path class="cls-20" d="M91.93,392.41a3,3,0,0,0,.08,3.46h0C92,394.72,92,393.56,91.93,392.41Z"/><path class="cls-7" d="M105.29,389a3.58,3.58,0,0,0-2.63-1.95h0A5.92,5.92,0,0,0,105.29,389Z"/><path class="cls-15" d="M82.23,457a2.24,2.24,0,0,0,1.19,2.32h0C83.16,458.43,83.15,457.46,82.23,457Z"/><path class="cls-21" d="M73,404a4.29,4.29,0,0,0,0,3.93h0Z"/><path class="cls-22" d="M104.2,420.11a1.53,1.53,0,0,0-2-.57h0C102.77,420,103.36,420.5,104.2,420.11Z"/><path class="cls-23" d="M69.54,420.61a2.63,2.63,0,0,0-1.86,1.7h0A3.15,3.15,0,0,0,69.54,420.61Z"/><path class="cls-9" d="M103.41,400.94c.86-.17,1-1.12,1.72-1.5h0A1.57,1.57,0,0,0,103.41,400.94Z"/><path class="cls-24" d="M101.89,424.69c.22.68-.15,1.7,1,1.8h0C103.15,425.56,102.51,425.14,101.89,424.69Z"/><path class="cls-25" d="M73.81,409.29a1.88,1.88,0,0,0,1.5,1.77h0A3.76,3.76,0,0,0,73.81,409.29Z"/><path class="cls-26" d="M83.3,413.26a2.87,2.87,0,0,0,2,.83A2,2,0,0,0,83.3,413.26Z"/><path class="cls-27" d="M101,402.48c.88.27,1.31-.22,1.59-1h0A2.61,2.61,0,0,0,101,402.48Z"/><path class="cls-28" d="M100,414a1.35,1.35,0,0,0-1.11-1.15h0A1.59,1.59,0,0,0,100,414Z"/><path class="cls-29" d="M92.2,396.66c-.48.66,0,.91.48,1.18h0C92.6,397.41,92.65,396.93,92.2,396.66Z"/><path class="cls-30" d="M80.75,397.49c-.68-.6-1.15-.12-1.63.32h0A3,3,0,0,0,80.75,397.49Z"/><path class="cls-31" d="M82.25,428a2.29,2.29,0,0,0,.77-1.67h0A1.59,1.59,0,0,0,82.25,428Z"/><path class="cls-11" d="M98,426.15c.17.4-.19.94.34,1.26A1.28,1.28,0,0,0,98,426l0,.14Z"/><path class="cls-32" d="M93.9,458.08c2,.07,4.86-2.91,4.84-5s-2.46-4.9-4.38-5-5,2.88-5.08,5S92,458,93.9,458.08Z"/><path class="cls-33" d="M93.1,420.75c1.23.08,2.93-1.37,2.7-2.43s-1.13-2.26-2.27-2.21a2.63,2.63,0,0,0-2.42,2.56A2,2,0,0,0,93.1,420.75Z"/><path class="cls-33" d="M74.19,429.31c.91.05,2.34-1.5,2.38-2.56.06-1.6-.94-2.1-2.29-2.18s-2,.52-2.09,1.35C72.15,427.61,73.31,429.26,74.19,429.31Z"/><path class="cls-34" d="M79.6,404.05a2.5,2.5,0,0,1-1.33,1.13h0c-.69,1.52.6,1.84,1.47,2.28a2.2,2.2,0,0,0,3-.83,1.92,1.92,0,0,0-.27-2.63A1.94,1.94,0,0,0,79.6,404.05Z"/><path class="cls-35" d="M98.87,396.32a2.15,2.15,0,0,0,2.53-1.21c.48-.72.91-1.49-.28-2-.92,1.61-1.87-.09-2.81,0h0l-.65.08a3.18,3.18,0,0,0-.27.9A2.16,2.16,0,0,0,98.87,396.32Z"/><path class="cls-36" d="M110.55,427.58c.82-.12,1.74-.25,1.94-1.2s-.57-1.39-1.25-1.7a1.39,1.39,0,0,0-2,.71,1.1,1.1,0,0,1-.84.68h0v.72A2.36,2.36,0,0,0,110.55,427.58Z"/><path class="cls-37" d="M109.9,428.14a2.78,2.78,0,0,0,3-1.2c.58-.69.26-1.32-.19-1.89-.64-.8-1.31-1.63-2.52-1.32a2.25,2.25,0,0,0-1.82,2.34h0a1.1,1.1,0,0,0,.84-.68,1.39,1.39,0,0,1,2-.71c.68.31,1.42.82,1.25,1.7s-1.12,1.08-1.94,1.2a2.36,2.36,0,0,1-2.21-.79C108.07,428.17,109.18,428,109.9,428.14Z"/><path class="cls-38" d="M98.45,392.86a.34.34,0,0,0-.14.28h0c.94-.12,1.89,1.58,2.81,0l-.45-.67h0Z"/><path class="cls-7" d="M98.31,393.14a.34.34,0,0,1,.14-.28,1.59,1.59,0,0,1,1.87-1.19c-1.7-.91-2.23-.6-2.66,1.55h0l.65-.08Z"/><path class="cls-39" d="M98.45,392.86l2.22-.42h0c-.12-.25-.23-.51-.35-.77h0A1.59,1.59,0,0,0,98.45,392.86Z"/><path class="cls-40" d="M79.6,404.05c-.82-.08-1.14.45-1.33,1.13h0A2.5,2.5,0,0,0,79.6,404.05Z"/><text class="cls-41" transform="translate(170.26 461.16)">D</text><text class="cls-41" transform="translate(195.36 461.16)">i</text><text class="cls-41" transform="translate(204.56 461.16)">s</text><text class="cls-41" transform="translate(219.78 461.16)">p</text><text class="cls-41" transform="translate(241.81 461.16)">l</text><text class="cls-41" transform="translate(251.36 461.16)">a</text><text class="cls-41" transform="translate(270.34 461.16)">y</text></g></g></svg>