<svg xmlns="http://www.w3.org/2000/svg" width="20" height ="40" viewBox="0 0 336.53 523.79"><defs><style>.cls-1{font-size:19.86px;fill:#fff;font-family:Montserrat-Bold, Montserrat;font-weight:700;}.cls-2{fill:#004684;}.cls-3{fill:#5271ff;}.cls-4{fill:#f1eddd;}.cls-5{fill:#d9d9d9;}.cls-6{fill:#a6a6a6;}.cls-7{fill:#5271fe;}.cls-8{fill:#03508d;}.cls-9{fill:#034f8d;}.cls-10{fill:#e5f4fb;}.cls-11{fill:#4c75fa;}.cls-12{fill:#4f75fb;}.cls-13{fill:#4e76fa;}.cls-14{fill:#4f76fa;}.cls-15{fill:#fdfdfd;}.cls-16{fill:#fcfdfd;}.cls-17{fill:#fdfdfc;}.cls-18{fill:#e7f5fb;}.cls-19{fill:#f0f9fc;}.cls-20{fill:#e7f4fa;}.cls-21{fill:#fbfcfc;}.cls-22{fill:#e5f3fa;}.cls-23{fill:#e6f3fb;}.cls-24{fill:#f9fcfc;}.cls-25{fill:#e4f4fb;}.cls-26{fill:#e6f4fb;}.cls-27{fill:#fcfcfd;}.cls-28{fill:#fbfcfd;}.cls-29{fill:#e9f4fb;}.cls-30{fill:#fbfbfc;}.cls-31{fill:#f0f7fb;}.cls-32{fill:#f1f7fb;}.cls-33{fill:#446ffa;}.cls-34{fill:#e7f2fa;}.cls-35{fill:#e7f4fb;}.cls-36{fill:#f1f8fb;}.cls-37{fill:#f0f8fb;}.cls-38{fill:#f0f8fc;}.cls-39{fill:#f5fcfe;}.cls-40{fill:#e8f4f8;}.cls-41{fill:#e5f2f6;}.cls-42{fill:#fafbfc;}.cls-43{fill:#e7f2f8;}.cls-44{fill:#e5f3f9;}.cls-45{fill:#fbfdfd;}</style></defs><title>Asset 1</title><g id="Layer_2" data-name="Layer 2"><g id="Layer_1-2" data-name="Layer 1"><text class="cls-1" transform="translate(193 421.93) rotate(-90)">N</text><text class="cls-1" transform="translate(193 406.33) rotate(-90)">C</text><path class="cls-2" d="M279.57,148.59a40.94,40.94,0,0,1,29-39.18V28.49H196.74a28.48,28.48,0,0,1-57,0H28.48v81.09a40.95,40.95,0,0,1,0,78V391a28.48,28.48,0,0,1,0,57v75.8h97.63V508.42H92.62V437.79h31.74V435h1.32V431.6h85.21V435h1.27v2.76H243.7v70.63H210.31v15.37h98.3V440l-.56,0a28.48,28.48,0,0,1,0-57l.56,0V187.76A40.93,40.93,0,0,1,279.57,148.59ZM209.05,95.2a5.67,5.67,0,1,1-5.67,5.67A5.67,5.67,0,0,1,209.05,95.2Zm-15.62,0a5.67,5.67,0,1,1-5.67,5.67A5.67,5.67,0,0,1,193.43,95.2Zm-16,0a5.67,5.67,0,1,1-5.67,5.67A5.67,5.67,0,0,1,177.43,95.2Zm-16,0a5.67,5.67,0,1,1-5.66,5.67A5.67,5.67,0,0,1,161.41,95.2Zm-16,0a5.67,5.67,0,1,1-5.66,5.67A5.67,5.67,0,0,1,145.45,95.2Zm-15.85,0a5.67,5.67,0,1,1-5.67,5.67A5.67,5.67,0,0,1,129.6,95.2ZM301.5,247.59q-.15,3.27-.48,6.53t-.8,6.5q-.48,3.24-1.12,6.45c-.43,2.14-.9,4.27-1.43,6.39s-1.12,4.22-1.75,6.31-1.32,4.16-2.05,6.22-1.53,4.09-2.36,6.1-1.72,4-2.65,6-1.92,3.92-2.95,5.85-2.1,3.82-3.23,5.7-2.29,3.71-3.5,5.53q-1.57,2.35-3.26,4.65v4.25c-3.43,3.26-6.12,7.19-9.35,10.65a140.56,140.56,0,0,1-15.1,14c-.49.38-.92.84-1.37,1.26h-4.81q-1.44,1-2.91,2c-1.82,1.22-3.66,2.38-5.54,3.51s-3.77,2.19-5.69,3.22-3.88,2-5.85,2.95-4,1.82-6,2.65-4.05,1.62-6.11,2.36-4.12,1.42-6.21,2.05-4.2,1.22-6.31,1.75-4.25,1-6.39,1.43-4.29.8-6.45,1.12-4.33.59-6.5.8-4.35.38-6.53.48-4.36.17-6.55.17-4.36-.06-6.54-.17-4.36-.26-6.53-.48-4.34-.48-6.5-.8-4.31-.69-6.45-1.12-4.27-.9-6.39-1.43-4.22-1.12-6.31-1.75-4.16-1.32-6.22-2.05-4.09-1.52-6.11-2.36-4-1.72-6-2.65-3.93-1.92-5.85-2.95-3.83-2.1-5.7-3.22S96,353.18,94.15,352c-1-.65-2-1.32-2.92-2H85.5c-2.2-1.94-4.37-3.91-6.6-5.81a121.22,121.22,0,0,1-19.11-20.48,10.66,10.66,0,0,0-2.8-2.84v-6.2c-1.08-1.65-2.14-3.31-3.15-5q-1.68-2.82-3.23-5.7c-1-1.93-2-3.88-2.94-5.85s-1.82-4-2.65-6-1.62-4-2.36-6.1-1.42-4.13-2-6.22-1.22-4.19-1.75-6.31-1-4.25-1.43-6.39-.8-4.29-1.12-6.45-.59-4.33-.8-6.5-.38-4.35-.49-6.53-.16-4.36-.16-6.55.06-4.36.16-6.54.27-4.36.49-6.53.48-4.34.8-6.5.69-4.31,1.12-6.45.9-4.27,1.43-6.39,1.11-4.22,1.75-6.31,1.32-4.16,2-6.22S44.18,192,45,190s1.72-4,2.65-6,1.92-3.92,2.94-5.85,2.11-3.82,3.23-5.7c1-1.68,2.07-3.35,3.15-5V162.2c3.91-4.86,7.46-10,11.89-14.47a178.93,178.93,0,0,1,13.35-12.34c1-.83,2.24-1.51,2.73-2.86h5.73c1.14-.82,2.29-1.62,3.46-2.4,1.82-1.22,3.66-2.38,5.53-3.51s3.77-2.19,5.7-3.22,3.87-2,5.85-3,4-1.82,6-2.65,4.06-1.62,6.11-2.36,4.13-1.42,6.22-2,4.19-1.22,6.31-1.75,4.25-1,6.39-1.43,4.29-.8,6.45-1.12,4.33-.59,6.5-.8,4.35-.38,6.53-.49,4.36-.16,6.54-.16,4.37.06,6.55.16,4.36.27,6.53.49,4.34.48,6.5.8,4.31.69,6.45,1.12,4.27.9,6.39,1.43,4.22,1.11,6.31,1.75c1,.31,2,.63,3,1a5.74,5.74,0,0,1,3,1l.14,0c2.06.74,4.1,1.52,6.11,2.36s4,1.72,6,2.65,3.92,1.92,5.85,3,3.82,2.1,5.69,3.22,3.72,2.29,5.54,3.51c1.16.78,2.32,1.58,3.46,2.4h4.8c4.7,4.65,10.19,8.44,14.64,13.37,2.93,3.24,5.72,6.6,8.54,9.94a8.88,8.88,0,0,0,2.1,2v4.39q1.68,2.29,3.26,4.65,1.81,2.73,3.5,5.53c1.13,1.88,2.2,3.77,3.23,5.7s2,3.88,2.95,5.85,1.81,4,2.65,6,1.62,4.06,2.36,6.11,1.42,4.13,2.05,6.22,1.22,4.19,1.75,6.31,1,4.25,1.43,6.39.8,4.29,1.12,6.45.59,4.33.8,6.5.38,4.35.48,6.53.16,4.36.16,6.54S301.61,245.41,301.5,247.59Z"/><path class="cls-2" d="M168.26,57a28.48,28.48,0,0,0,28.48-28.47h0a28.48,28.48,0,1,0-57,0h0A28.47,28.47,0,0,0,168.26,57ZM147.75,28.48A20.51,20.51,0,1,1,168.26,49,20.51,20.51,0,0,1,147.75,28.48Z"/><path class="cls-2" d="M279.57,411.54A28.48,28.48,0,0,0,308.05,440l.56,0a28.47,28.47,0,0,0,0-56.92l-.56,0A28.48,28.48,0,0,0,279.57,411.54Zm49,0A20.51,20.51,0,1,1,308.05,391,20.51,20.51,0,0,1,328.56,411.54Z"/><path class="cls-2" d="M57,419.51A28.48,28.48,0,1,0,28.48,448,28.48,28.48,0,0,0,57,419.51ZM28.48,440A20.51,20.51,0,1,1,49,419.51,20.51,20.51,0,0,1,28.48,440Z"/><circle class="cls-2" cx="129.6" cy="100.87" r="5.67"/><path class="cls-2" d="M145.45,106.54a5.67,5.67,0,1,0-5.66-5.67A5.67,5.67,0,0,0,145.45,106.54Z"/><circle class="cls-2" cx="161.41" cy="100.87" r="5.67" transform="translate(-18.86 39.78) rotate(-13.28)"/><circle class="cls-2" cx="177.43" cy="100.87" r="5.67" transform="translate(-18.43 43.46) rotate(-13.28)"/><path class="cls-2" d="M193.43,106.54a5.67,5.67,0,1,0-5.67-5.67A5.67,5.67,0,0,0,193.43,106.54Z"/><circle class="cls-2" cx="209.05" cy="100.87" r="5.67" transform="translate(-17.58 50.73) rotate(-13.28)"/><path class="cls-2" d="M210,114.35c1,.34,2,.68,3,1A5.74,5.74,0,0,0,210,114.35Z"/><path class="cls-3" d="M53.84,172.46c-1.12,1.88-2.2,3.77-3.23,5.7s-2,3.88-2.94,5.85-1.82,4-2.65,6-1.62,4.06-2.36,6.11-1.42,4.13-2,6.22-1.22,4.19-1.75,6.31-1,4.25-1.43,6.39-.8,4.29-1.12,6.45-.59,4.33-.8,6.5-.38,4.35-.49,6.53-.16,4.36-.16,6.54.06,4.37.16,6.55.27,4.36.49,6.53.48,4.34.8,6.5.69,4.31,1.12,6.45.9,4.27,1.43,6.39,1.11,4.22,1.75,6.31,1.32,4.16,2,6.22,1.52,4.09,2.36,6.1,1.72,4,2.65,6,1.92,3.92,2.94,5.85,2.11,3.82,3.23,5.7c1,1.68,2.07,3.34,3.15,5V167.47C55.91,169.11,54.85,170.78,53.84,172.46Z"/><path class="cls-3" d="M91.23,350c1,.69,1.94,1.36,2.92,2,1.82,1.22,3.66,2.38,5.53,3.51s3.77,2.19,5.7,3.22,3.87,2,5.85,2.95,4,1.82,6,2.65,4.06,1.62,6.11,2.36,4.13,1.42,6.22,2.05,4.19,1.22,6.31,1.75,4.25,1,6.39,1.43,4.29.8,6.45,1.12,4.33.59,6.5.8,4.35.38,6.53.48,4.36.17,6.54.17,4.37-.06,6.55-.17,4.36-.26,6.53-.48,4.34-.48,6.5-.8,4.31-.69,6.45-1.12,4.27-.9,6.39-1.43,4.22-1.12,6.31-1.75,4.16-1.32,6.21-2.05,4.1-1.52,6.11-2.36,4-1.72,6-2.65,3.92-1.92,5.85-2.95,3.82-2.1,5.69-3.22,3.72-2.29,5.54-3.51q1.47-1,2.91-2H91.23Z"/><path class="cls-3" d="M301,228q-.31-3.25-.8-6.5T299.1,215c-.43-2.14-.9-4.27-1.43-6.39s-1.12-4.22-1.75-6.31-1.32-4.16-2.05-6.22-1.53-4.09-2.36-6.11-1.72-4-2.65-6-1.92-3.92-2.95-5.85-2.1-3.82-3.23-5.7-2.29-3.71-3.5-5.53q-1.57-2.35-3.26-4.65V319.81q1.68-2.3,3.26-4.65,1.81-2.73,3.5-5.53c1.13-1.88,2.2-3.78,3.23-5.7s2-3.88,2.95-5.85,1.81-4,2.65-6,1.62-4,2.36-6.1,1.42-4.13,2.05-6.22,1.22-4.19,1.75-6.31,1-4.25,1.43-6.39.8-4.29,1.12-6.45.59-4.33.8-6.5.38-4.35.48-6.53.16-4.36.16-6.55-.05-4.36-.16-6.54S301.24,230.14,301,228Z"/><path class="cls-3" d="M245.8,132.53h0c-1.14-.82-2.3-1.62-3.46-2.4-1.82-1.22-3.66-2.38-5.54-3.51s-3.77-2.19-5.69-3.22-3.88-2-5.85-3-4-1.82-6-2.65-4.05-1.62-6.11-2.36l-.14,0c-1-.36-2-.7-3-1s-2-.65-3-1c-2.09-.64-4.2-1.22-6.31-1.75s-4.25-1-6.39-1.43-4.29-.8-6.45-1.12-4.33-.59-6.5-.8-4.35-.38-6.53-.49-4.36-.16-6.55-.16-4.36.06-6.54.16-4.36.27-6.53.49-4.34.48-6.5.8-4.31.69-6.45,1.12-4.27.9-6.39,1.43-4.22,1.11-6.31,1.75-4.16,1.32-6.22,2-4.09,1.52-6.11,2.36-4,1.72-6,2.65-3.93,1.92-5.85,3-3.83,2.1-5.7,3.22-3.71,2.29-5.53,3.51c-1.17.78-2.32,1.58-3.46,2.4Z"/><rect class="cls-2" x="210.89" y="435.03" width="1.27" height="2.75"/><rect class="cls-2" x="124.36" y="435.03" width="1.32" height="2.75"/><polygon class="cls-4" points="243.7 508.42 243.7 437.79 212.16 437.79 210.88 437.79 210.88 447.25 220.91 447.25 233.77 447.25 233.77 498.92 102.72 498.92 102.72 447.25 115.59 447.25 125.68 447.25 125.68 437.79 124.36 437.79 92.62 437.79 92.62 508.42 126.11 508.42 210.31 508.42 243.7 508.42"/><path class="cls-5" d="M220.91,457.88h0v9.77H115.59v-9.77h0V447.25H102.72v51.67H233.77V447.25H220.91Zm2.84,12v17.54H206.22V469.88ZM113.08,487.42V469.88h17.53v17.54Zm31.1,0V469.88h17.54v17.54Zm31.12,0V469.88h17.54v17.54Z"/><polygon class="cls-6" points="130.61 469.93 130.61 469.88 113.08 469.88 113.08 469.93 113.08 487.42 130.61 487.42 130.61 469.93"/><polygon class="cls-6" points="161.72 469.93 161.72 469.88 144.18 469.88 144.18 469.93 144.18 487.42 161.72 487.42 161.72 469.93"/><polygon class="cls-6" points="192.84 469.93 192.84 469.88 175.3 469.88 175.3 469.93 175.3 487.42 192.84 487.42 192.84 469.93"/><polygon class="cls-6" points="206.22 469.88 206.22 469.93 206.22 487.42 223.75 487.42 223.75 469.93 223.75 469.88 206.22 469.88"/><polygon class="cls-2" points="125.68 447.25 210.88 447.25 210.88 437.79 210.88 435.03 210.88 431.61 125.68 431.61 125.68 435.03 125.68 437.79 125.68 447.25"/><polygon class="cls-4" points="125.68 447.25 115.59 447.25 115.59 457.88 220.91 457.88 220.91 447.25 210.88 447.25 125.68 447.25"/><polygon class="cls-5" points="115.59 457.88 115.59 457.93 115.59 467.65 220.93 467.65 220.93 457.93 220.93 457.88 220.91 457.88 115.59 457.88 115.59 457.88"/><path class="cls-7" d="M133.71,342.15l.74.25A.82.82,0,0,0,133.71,342.15Z"/><path class="cls-7" d="M254.76,342.19c8-6.74,14.8-14.68,21.16-23V162.74a149.45,149.45,0,0,0-30.12-30.21H89.8a142,142,0,0,0-32.81,34v148.9A155.16,155.16,0,0,0,75.4,337.37c4.7,4.54,9.95,8.4,14.94,12.58H245.26C248.43,347.37,251.62,344.82,254.76,342.19Zm-33.5-8.61a92,92,0,0,1-22.55,9.9,119.85,119.85,0,0,1-19.76,4,116.4,116.4,0,0,1-20.79.07,100.81,100.81,0,0,1-23.71-5.11c-.68-.11-1.31.82-2,.07-.05-.05.24-.4.37-.61a15.45,15.45,0,0,1-5.38-2.16c-1.66-.55-4.2.35-4.39-2.65l.13-.1,0,0-.08.13a4.87,4.87,0,0,1-5.56-2.61,1.46,1.46,0,0,1-.2-.37A117.14,117.14,0,0,1,90,312.9c-37.48-39.69-37.71-103.39-.49-143.31a118.06,118.06,0,0,1,25.57-20.39h0c-.2-.63.09-1,.62-1.29A125.27,125.27,0,0,1,132.14,140c3.34-1.32,7-1.87,10.48-2.8a11.92,11.92,0,0,1,4.76.17c.05-1.09.65-1.55,1.71-1.63,7-.5,13.94-2.22,21-1.6,5.76.5,11.57.54,17.28,1.58a6.51,6.51,0,0,1,3,1.08c4.43.86,8.88,1.59,12.94,3.74.92.49,2.07.53,3,.93,13,5.32,24.83,12.37,34.92,22.43A228.72,228.72,0,0,1,257,182c2.1,2.59,3.28,5.93,4.87,8.93A99.84,99.84,0,0,1,270.13,211c2.62,9.53,4.46,19.25,4.3,29.18-.12,7.23-.34,14.42-2,21.6-1.6,6.87-3.83,13.52-5.7,20.29-.37,1.37-1.44,2.3-2,3.59a107.75,107.75,0,0,1-43.41,48Z"/><path class="cls-7" d="M146.56,137.63a1.33,1.33,0,0,0,.82-.21h0Z"/><path class="cls-7" d="M231.27,231.8h0Z"/><path class="cls-7" d="M143.07,331.08h-.13v0Z"/><path class="cls-7" d="M231.24,231.8h0s0,0,0,0Z"/><path class="cls-8" d="M57,315.42v5.4a10.66,10.66,0,0,1,2.8,2.84A121.22,121.22,0,0,0,78.9,344.14c2.23,1.9,4.4,3.87,6.6,5.81h4.84c-5-4.18-10.24-8-14.94-12.58A155.16,155.16,0,0,1,57,315.42Z"/><path class="cls-8" d="M254.76,342.19c-3.14,2.63-6.33,5.18-9.5,7.76h4.84c.45-.42.88-.88,1.37-1.26a140.56,140.56,0,0,0,15.1-14c3.23-3.46,5.92-7.39,9.35-10.65V319.2C269.56,327.51,262.8,335.45,254.76,342.19Z"/><path class="cls-8" d="M89.8,132.53H85c-.49,1.35-1.72,2-2.73,2.86a178.93,178.93,0,0,0-13.35,12.34c-4.43,4.47-8,9.61-11.89,14.47v4.32A142,142,0,0,1,89.8,132.53Z"/><path class="cls-9" d="M275.92,162.74v-4.85a8.88,8.88,0,0,1-2.1-2c-2.82-3.34-5.61-6.7-8.54-9.94-4.45-4.93-9.94-8.72-14.64-13.37H245.8A149.45,149.45,0,0,1,275.92,162.74Z"/><path class="cls-10" d="M117.51,334.44c-.07-.13-.14-.24-.2-.37A1.46,1.46,0,0,0,117.51,334.44Z"/><path class="cls-10" d="M120.47,333.76c-.14-1.45.1-2.27,2-2.24,3.28.05,6.56-.28,9.85-.44,1-1.61.51-2.24-1.34-2.18-2.87.08-5.74-.09-8.6.09-1.75.11-2.46-.38-2.45-2.17,0-6.83,0-13.66,0-20.49,0-1.14.16-2,1.63-1.69h0c6.25,0,12.51.07,18.77,0,2.43,0,3.51.25,3.5,3.34,0,3.54.23,7.14.31,10.71h0c2-1.75,2.22-4,2.2-6.51-.1-11.64,0-23.28-.06-34.92,0-1.64.3-3.56-2.15-3.88h0c0,5.48-.06,10.95,0,16.43,0,2.21-.87,3-3,3-6-.07-12,0-18,0-1.71,0-2.68-.44-2.68-2.41,0-6.55-.1-13.1-.18-19.64,0-1.84,1.3-1.67,2.43-1.68,4.92,0,9.85,0,14.77,0,1.42,0,2.85-.18,4.27-.12s2.42.66,2.4,2.29l2.14,1.41V255.24c-.06-.51-.13-1-.18-1.53-.27-.66-.86-.85-2-.33h0c0,3.76,0,3.77-3.69,3.78h-9.56l1.41,2.16c3,0,6.09.07,9.14,0,2.45-.06,2.76,1.4,2.69,3.33s0,3.7-2.71,3.69q-9.27-.06-18.55,0c-1.69,0-2.51-.64-2.43-2.37a5.11,5.11,0,0,0-.18-1.61c-.69-2.39.48-3.08,2.63-3,2.6.05,5.2,0,7.8,0h0c-2.29-2.52-5.31-2.37-8.25-2.1-2,.18-2.63-.49-2.53-2.35.08-1.44-.07-2.89,0-4.31.15-1.91-.4-3.36-2.19-4.2h0c-1.23,3.32-.38,6.77-.44,10.13-.2,10.43-.07,20.85-.07,31.28q0,20.43,0,40.88c0,.84.4,2-.58,2.45s-1.58-.59-2.38-.91c-2.83-1.14-3.55-3.23-3.54-6.2q.1-82.9,0-165.81c0-3.85,1.47-5.83,5.1-7.12,1-.36,1.2.07,1.42.92.44,1.72-.1,3.39-.07,5.09.18,8.35.09,16.71.19,25.06.19,15.71-.08,31.42-.18,47.13,0,4.12.39,8.24,0,12.36a4.47,4.47,0,0,0,.5,3.13h0c.64.21,1,1.24,1.78.85s.31-1.29.37-2c.29-3.58-.59-7.22.54-10.76h0l1.68-1.32a4.14,4.14,0,0,1-1.67-1.53.62.62,0,0,1-.11-.17c-.8-1.44-.77-3.46.1-6.15h23.13c.56.47.67,1.68,1.77,1.27.92-.34.88-1.27.91-2.07s0-1.62,0-2.42q0-38.1,0-76.2c0-1.24-.25-2.53.52-3.67h0c.75-2.65,3.14-1.64,4.83-2.18-1.16-1.57,1-.85,1.08-1.56l-5.35.54h0a1.33,1.33,0,0,1-.82.21c-4.77,1.3-9.67,2.13-14.25,4.11a3.31,3.31,0,0,0,2.14.51h0c1-.86,2-1.43,3.21-.57,6.27-2,6.23-2,6.36,4.51,0,1.57.07,3-2,3-6.58-.1-13.18.49-19.75-.35-.54-.07-1.08,0-1.29-.68h0c-1.2-.47.82-1.2-.13-1.69-2.14.46-3.77,2-5.79,2.72h0A118.06,118.06,0,0,0,89.5,169.59c-37.22,39.92-37,103.62.49,143.31a117.14,117.14,0,0,0,27.32,21.17l2.09.73Zm1.63-38.3c3.3,0,6.6,0,9.91,0,3,0,6.08.1,9.11,0,2.68-.12,3,1.36,3,3.55s-.68,3-2.93,3q-9.24-.17-18.49,0c-1.89,0-2.61-.57-2.32-2.46a6.41,6.41,0,0,0-.07-2.14C120.07,295.89,120.75,295.45,122.1,295.46Zm-1.71-105.9c-.21-1.43.45-2,1.78-2h19.31c1.44,0,2,.65,2.14,2.1.42,4.89.46,4.88-4.41,4.89h-7c-3,0-6.08,0-9.11,0-2,0-3.12-.62-2.72-2.86A7,7,0,0,0,120.39,189.56Zm23.68,27.72c-.07,3.34-.64,3.71-4.09,3.72h-8c-3,0-5.91-.05-8.86,0-1.75,0-2.65-.53-2.63-2.45q.09-9.56,0-19.11c0-2,1-2.55,2.65-2.43,6.25.46,12.51.15,18.77.23,1.57,0,2.27.66,2.26,2.26C144.09,205.44,144.19,211.36,144.07,217.28Zm-2.95-32.39q-9.26-.12-18.51,0c-1.79,0-2.3-.54-2.21-2.33.16-3.22,0-6.45,0-9.68h0c0-3.22.09-6.46,0-9.68-.07-1.6.57-2.08,2-2.08,6.44,0,12.88,0,19.32,0,1.44,0,2.18.42,2.27,2.19.31,6.18,0,12.37.19,18.55C144.19,184.08,143.3,184.92,141.12,184.89ZM122.64,152c3.13,0,6.26,0,9.38,0s6.43,0,9.65,0c3.06-.05,2,2.45,2.32,3.9s-.56,2.57-2.28,2.57c-6.34,0-12.68,0-19,0-2.32,0-2.28-1.51-2.23-3.1S120.07,151.92,122.64,152ZM86.69,305.22c.29-.54.89-.55,1.42-.55h17.7c1.21,0,2.2.44,2.21,1.8,0,6.33,0,12.67,0,19.57-8.3-5.73-14.72-12.42-20.83-19.44C86.87,306.21,86.36,305.83,86.69,305.22Zm21.37-5.28c.23,2-.88,2.25-2.67,2.12-2.93-.23-5.89-.06-8.84-.06v-.06c-3.21,0-6.43-.09-9.64,0-2.64.1-2.47-1.61-2.5-3.39s.09-3.17,2.49-3.13c6.24.09,12.5,0,18.75,0C109.25,295.45,107.85,298.17,108.06,299.94Zm-.88-138.63c1,.51.9,1.47.9,2.35,0,3.13,0,6.27,0,9.41s0,6.27,0,9.41c0,1.72-.7,2.41-2.4,2.4-6.35,0-12.69,0-19,0-1.59,0-2.06-.74-2.28-2.27-.55-3.9,2.17-6.12,4.23-8.59a91.16,91.16,0,0,1,11.47-11.61C101.08,161.57,106.08,160.76,107.18,161.31Zm-1.09-3.59a1.35,1.35,0,0,1,1.44-.88c.43.06.47.44.38.82a1.15,1.15,0,0,1-1.52.63A.67.67,0,0,1,106.09,157.72Zm2,131.89c.07,2.56-.91,3.32-3.3,3.18-2.77-.15-5.55,0-8.32,0-3.23,0-6.45-.05-9.67,0-1.69,0-2.45-.63-2.43-2.37q.06-9.57,0-19.12c0-1.68.7-2.63,2.38-2.49,6.08.5,12.17.19,18.25.18,2.35,0,3.13.8,3.08,3.14C108,277.94,108,283.78,108.14,289.61ZM84.4,235.87c0-2.21.87-3,3-3q9,.12,18,0c1.94,0,2.76.68,2.7,2.67-.1,3.14,0,6.28,0,9.42s-.06,6.11,0,9.16c0,1.85-.73,2.55-2.55,2.53-6.18-.05-12.35-.07-18.52,0-2,0-2.66-.82-2.64-2.74Q84.51,244.9,84.4,235.87Zm2.38-12.18c6.36.07,12.72.06,19.08,0,2.33,0,2.27,1.51,2.23,3.1s.37,3.42-2.21,3.39c-3.14-.05-6.27,0-9.41,0s-6.45-.07-9.67,0c-2.49.07-2.39-1.55-2.38-3.25S84.28,223.66,86.78,223.69Zm-2.34,42.09c0-7-.73-6.48,6.46-6.44h6.44l7.93,0c1.07,0,2.14,0,2.81,1.06,0,6.72.65,5.89-5.76,5.93-5.06,0-10.12,0-15.19,0h-.56a2.88,2.88,0,0,1-2.13-.52Zm23.64-46.92h0c0,1.24-.35,2.12-1.78,2.12q-10.18,0-20.37-.1a1.29,1.29,0,0,1-.56-.19,1.1,1.1,0,0,1-.41-.22h0a3.67,3.67,0,0,1-.53-2.31V199.59a3.67,3.67,0,0,1,.53-2.31c6.78,0,13.56,0,20.34-.1,2.28,0,2.86,1,2.83,3.13C108,206.49,108.09,212.67,108.08,218.86Zm-2.78-24.31c-6.07,0-12.15,0-18.23,0-2.45,0-2.7-1.45-2.66-3.35s-.13-3.72,2.61-3.67c3.13.06,6.26,0,9.38,0,2.95,0,5.9.08,8.85,0,2.31-.07,2.89,1.1,2.88,3.16S108,194.56,105.3,194.55ZM81.56,297.42l-.76.3c-2.15-3.91-5.49-7.26-5.51-12.21-.05-17.4,0-34.81,0-52.21,0-11.57.23-23.15-.09-34.71-.17-5.87,3.23-9.76,6.38-14Zm-9.51-17.69c-2-2.71-2.51-5.81-3.51-8.75-.29-.85-.13-1.66.93-1.85s2-.24,2.54.89a6.7,6.7,0,0,1,.53,2.33C72.64,274.81,71.59,277.19,72.05,279.73ZM67.7,232.88c1.91.16,4.22-.76,4.63,2.51s.06,6.63.12,9.94c0,3,0,6.09,0,9.14,0,1.71-.93,2.45-2.58,2.14s-4.34,1.12-4.76-2c-.85-6.3-1.46-12.61-.76-19C64.59,233.43,65.66,232.7,67.7,232.88ZM65,227.6c.13-3.18.74-3.91,3.91-3.89,2.89,0,3.42.61,3.38,3.72,0,2.31-.64,2.76-4.21,2.75C66.72,230.24,64.92,230.43,65,227.6Zm4.44,31.76c1.78-.22,3.2.19,3.07,2.53-.2,3.69-.71,4.47-3.15,4.43S66,264.61,66.07,261C66.14,258.37,68.21,259.52,69.47,259.36Zm3.06-42.3c-.15,1.49.2,3.42-2,3.9-3.47.75-4.42-.27-3.58-3.73a104.07,104.07,0,0,1,4-13.13,2.25,2.25,0,0,1,1.2-1.59C71.88,207.5,73,212.26,72.53,217.06Z"/><polygon class="cls-10" points="134.45 142.25 134.45 142.25 134.45 142.25 134.45 142.25"/><polygon class="cls-10" points="84.96 220.47 84.96 220.47 84.96 220.47 84.96 220.47"/><path class="cls-10" d="M146.82,261.76v3.91C146.85,264.37,146.85,263.06,146.82,261.76Z"/><path class="cls-10" d="M133.88,142.5a1.17,1.17,0,0,0,.57-.25Z"/><path class="cls-11" d="M264.67,285.62c.6-1.29,1.67-2.22,2-3.59,1.87-6.77,4.1-13.42,5.7-20.29,1.68-7.18,1.9-14.37,2-21.6.16-9.93-1.68-19.65-4.3-29.18a99.84,99.84,0,0,0-8.29-20.05c-1.59-3-2.77-6.34-4.87-8.93a228.72,228.72,0,0,0-15.67-18c-10.09-10.06-21.91-17.11-34.92-22.43-1-.4-2.13-.44-3-.93-4.06-2.15-8.51-2.88-12.94-3.74-.92,1.07-2.42-.94-3.25.61,1.81,1.38,4.24.86,6.13,2h0a3.08,3.08,0,0,1,2,.59,12.36,12.36,0,0,1,5.21,1.69,67.6,67.6,0,0,1,15.19,6.46,8,8,0,0,1,3.66,2.19h0c2.16,1.24,4.71,1.91,6.12,4.23l1,.13,1.23.92a13.9,13.9,0,0,1,3.62,2.86,5.43,5.43,0,0,1,2.69,2.08h0A85.57,85.57,0,0,1,251.16,179a19.4,19.4,0,0,1,3.28,4.79A59.16,59.16,0,0,1,261,195.45h0a30.06,30.06,0,0,1,3,6.72,74.29,74.29,0,0,1,5,16.63,15.31,15.31,0,0,1,1,4.91l.51,1.27h0c.06-.24,0-.62.19-.71.61-.35.43.31.4.46a6.77,6.77,0,0,1-.21.89,1.85,1.85,0,0,1-.22.78c0,.86,0,1.72,0,2.58a11,11,0,0,1,.45,4.45h0a81,81,0,0,1-1,23.77,7,7,0,0,1-.52,3.33h0a23.46,23.46,0,0,1-1.25,5.8,9,9,0,0,1-.93,3.33h0A48.84,48.84,0,0,1,264,279.79a32.08,32.08,0,0,1-3.15,7,59.2,59.2,0,0,1-6.38,11.39h0a5,5,0,0,1-1.42,2.2h0c-1.19,1.57-1.92,3.48-3.5,4.76a93,93,0,0,1-22,21.24h0a4.9,4.9,0,0,1-2.15,1.52h0a34.31,34.31,0,0,1-6.91,4.31,6.38,6.38,0,0,1-2.8,1.59h0a45.24,45.24,0,0,1-9.13,4.28,37.61,37.61,0,0,1-8.66,3.16h0a27.66,27.66,0,0,1-6.32,1.73,13.68,13.68,0,0,1-4.93,1.08h0a7.81,7.81,0,0,1-3.2.63c-.59.87-1.1-.06-1.65-.07h0c-.21.53-.64.51-1.1.45a79.19,79.19,0,0,1-23.66.56,30.86,30.86,0,0,1-6.5-.76,98.23,98.23,0,0,1-22.31-5.8l-.77.62a15.45,15.45,0,0,0,5.38,2.16l.87.29a.82.82,0,0,1,.74.25h0a100.81,100.81,0,0,0,23.71,5.11,116.4,116.4,0,0,0,20.79-.07,119.85,119.85,0,0,0,19.76-4,92,92,0,0,0,22.55-9.9,107.75,107.75,0,0,0,43.41-48Z"/><path class="cls-12" d="M179.35,137l-.23-.27A.41.41,0,0,0,179.35,137Z"/><path class="cls-12" d="M147.4,137.41h0l5.35-.54a15.81,15.81,0,0,1,5.39-.56,76.54,76.54,0,0,1,21,.41,9.36,9.36,0,0,1,4,.6h0l4,.12c.83-1.55,2.33.46,3.25-.61a6.51,6.51,0,0,0-3-1.08c-5.71-1-11.52-1.08-17.28-1.58-7.09-.62-14,1.1-21,1.6-1.06.08-1.66.54-1.71,1.63Z"/><path class="cls-13" d="M132.31,141.74h0c4.58-2,9.48-2.81,14.25-4.11l.82-.22h0a11.92,11.92,0,0,0-4.76-.17c-3.5.93-7.14,1.48-10.48,2.8a125.27,125.27,0,0,0-16.45,7.87c-.53.3-.82.66-.62,1.29h0c2-.71,3.65-2.26,5.79-2.72A56.66,56.66,0,0,1,132.31,141.74Z"/><path class="cls-14" d="M119.4,334.8l-2.09-.73c.06.13.13.24.2.37a4.87,4.87,0,0,0,5.56,2.61l.08-.13Z"/><path class="cls-14" d="M128.23,339.08c-.09-.15-.17-.3-.26-.44L123.2,337l-.13.1c.19,3,2.73,2.1,4.39,2.65l.77-.62Z"/><path class="cls-14" d="M134.45,342.4l-.74-.25-.87-.29c-.13.21-.42.56-.37.61.67.75,1.3-.18,2-.07Z"/><path class="cls-15" d="M146.09,253.71c0,.51.12,1,.18,1.53v-.36A3.2,3.2,0,0,0,146.09,253.71Z"/><path class="cls-15" d="M146.82,235h0v26.72c0,1.3,0,2.61,0,3.91v77.27l.53.53h0l4.85.56h0c1.39-.64,1-1.93,1-3,.05-1.87,0-3.73,0-5.6h0c0-24.43-.06-48.87,0-73.3,0-4.08.05-8.05-2.73-11.41h0c-3-4.52-3.18-9.46-2.14-14.57h0a28.17,28.17,0,0,1,4.83-8.64h0q0-42.82,0-85.66c0-1.3.62-3.06-1.6-3.38h0c-1.69.54-4.08-.47-4.83,2.18h0Z"/><path class="cls-15" d="M147.36,343.47a1.2,1.2,0,0,0,.27.19Z"/><path class="cls-15" d="M117.77,244.75h0a4.47,4.47,0,0,1-.5-3.13c.36-4.12-.06-8.24,0-12.36.1-15.71.37-31.42.18-47.13-.1-8.35,0-16.71-.19-25.06,0-1.7.51-3.37.07-5.09-.22-.85-.4-1.28-1.42-.92-3.63,1.29-5.1,3.27-5.1,7.12q0,82.9,0,165.81c0,3,.71,5.06,3.54,6.2.8.32,1.45,1.37,2.38.91s.58-1.61.58-2.45q0-20.44,0-40.88c0-10.43-.13-20.85.07-31.28.06-3.36-.79-6.81.44-10.13h0C117.77,245.82,117.77,245.29,117.77,244.75Z"/><path class="cls-10" d="M153.25,141.82q0,42.84,0,85.66h0c.22,1.21,0,3,2.16,1.63h0c5.77-5.15,12.2-6.68,19.49-3.65,5.08,2.12,7.92,6.13,9.56,11.19,1.87.45,2-.88,2.15-2.15h0c-.58-1.31-.87-2.88-1.79-3.87-2.35-2.55-2.56-5.49-2.55-8.72.07-27.28,0-54.55,0-81.83a3.51,3.51,0,0,1-2.15,0c.21,2.06-.47,4.16,1.14,6.13.78.94-1.7,1.22-1.67,2.51h0a8.58,8.58,0,0,1-3.95.52c-5.72,0-11.44,0-17.17,0-1.8,0-2.64-.63-2.57-2.51a60.86,60.86,0,0,0,0-6.19,2.71,2.71,0,0,1,2.18-3.17v-1.07a15.81,15.81,0,0,0-5.39.56c-.1.71-2.24,0-1.08,1.56h0C153.87,138.76,153.25,140.52,153.25,141.82Zm3.39,82.66-.26-.33c.12-.09.24-.23.36-.23s.17.19.26.3ZM158.5,221c-1.82,0-2.57-.68-2.55-2.53.06-6.29.05-12.57,0-18.85,0-1.73.72-2.39,2.42-2.39,6.35,0,12.7-.06,19.05-.13,1.63,0,2.22.79,2.21,2.32,0,3.14,0,6.29,0,9.43s-.06,6.28,0,9.42c.05,1.93-.63,2.76-2.63,2.74C170.85,221,164.68,221,158.5,221ZM179,224.53c-.36-.11-.65-.38-.52-.79.06-.18.38-.28.51-.37.48.11.8.32.78.72S179.36,224.65,179,224.53Zm.65-34.14c-.17,1.7.81,4.07-2.37,4s-6.44,0-9.66,0v.14c-3,0-5.92-.07-8.87,0s-2.74-1.82-2.78-3.8.15-3.29,2.67-3.25c6.17.12,12.34.09,18.51,0C179.24,187.52,179.81,188.57,179.63,190.39ZM158.14,152q9.68,0,19.35,0c2.6,0,2.07,1.91,2.14,3.46s0,3.09-2.3,3c-3.22-.08-6.45,0-9.68,0s-6.27,0-9.4,0c-2.3.05-2.34-1.44-2.28-3.06S155.54,151.94,158.14,152Zm.56,9.16q9.13.09,18.28,0c2,0,2.74.72,2.68,2.69-.09,3.15,0,6.29,0,9.44,0,3-.06,5.93,0,8.89.06,1.92-.6,2.79-2.62,2.76-6.18-.07-12.37-.06-18.55,0-1.84,0-2.56-.71-2.54-2.55.06-6.2.07-12.4,0-18.6C155.92,161.68,156.8,161.09,158.7,161.11Z"/><path class="cls-16" d="M75.27,233.3c0,17.4,0,34.81,0,52.21,0,4.95,3.36,8.3,5.51,12.21l.76-.3V184.62c-3.15,4.21-6.55,8.1-6.38,14C75.5,210.15,75.27,221.73,75.27,233.3Z"/><path class="cls-15" d="M105.05,269c-6.08,0-12.17.32-18.25-.18-1.68-.14-2.39.81-2.38,2.49q0,9.56,0,19.12c0,1.74.74,2.4,2.43,2.37,3.22-.06,6.44,0,9.67,0,2.77,0,5.55-.12,8.32,0,2.39.14,3.37-.62,3.3-3.18-.15-5.83-.13-11.67,0-17.5C108.18,269.77,107.4,269,105.05,269Z"/><path class="cls-15" d="M144.13,271.18c0-1.63-1-2.23-2.4-2.29s-2.85.12-4.27.12c-4.92,0-9.85,0-14.77,0-1.13,0-2.45-.16-2.43,1.68.08,6.54.18,13.09.18,19.64,0,2,1,2.43,2.68,2.41,6,0,12-.06,18,0,2.17,0,3.07-.79,3-3-.09-5.48,0-10.95,0-16.43h0C143.57,272.63,144.06,271.91,144.13,271.18Z"/><path class="cls-15" d="M144.12,199.52c0-1.6-.69-2.24-2.26-2.26-6.26-.08-12.52.23-18.77-.23-1.7-.12-2.67.47-2.65,2.43q.09,9.56,0,19.11c0,1.92.88,2.49,2.63,2.45,3-.07,5.91,0,8.86,0h8c3.45,0,4-.38,4.09-3.72C144.19,211.36,144.09,205.44,144.12,199.52Z"/><path class="cls-15" d="M87,256.65c6.17-.08,12.34-.06,18.52,0,1.82,0,2.6-.68,2.55-2.53-.08-3.05,0-6.11,0-9.16s-.07-6.28,0-9.42c.06-2-.76-2.69-2.7-2.67q-9,.1-18,0c-2.17,0-3.07.8-3,3q.12,9,0,18C84.38,255.83,85,256.67,87,256.65Z"/><path class="cls-15" d="M144,163.33c-.09-1.77-.83-2.19-2.27-2.19-6.44,0-12.88,0-19.32,0-1.42,0-2.06.48-2,2.08.13,3.22,0,6.46,0,9.68h0c0,3.23.12,6.46,0,9.68-.09,1.79.42,2.35,2.21,2.33q9.26-.14,18.51,0c2.18,0,3.07-.81,3-3C144,175.7,144.26,169.51,144,163.33Z"/><path class="cls-15" d="M120.45,307.81c0,5.92.07,11.83,0,17.75,0,2.08.7,2.88,2.8,2.85,5.81-.09,11.62-.1,17.43,0,2.08,0,3.24-.64,3.47-2.74h0v-7c-.08-3.57-.32-7.17-.31-10.71,0-3.09-1.07-3.38-3.5-3.34-6.26.1-12.52,0-18.77,0h0A3.75,3.75,0,0,0,120.45,307.81Z"/><path class="cls-15" d="M105.3,197.18c-6.78.09-13.56.07-20.34.1v23.19a23.35,23.35,0,0,1,8.17-.07c2.19.39,4.13-1.44,6.46-1.05,1.64.27,3.31,0,4.94.73a2.44,2.44,0,0,0,3.55-1.22c0-6.19,0-12.37,0-18.55C108.16,198.2,107.58,197.15,105.3,197.18Z"/><polygon class="cls-15" points="84.96 220.47 84.96 220.47 84.96 220.47 84.96 220.47 84.96 220.47"/><path class="cls-15" d="M85,220.47a1.1,1.1,0,0,0,.41.22,4.1,4.1,0,0,0-.41-.22Z"/><path class="cls-15" d="M100.08,162.4A91.16,91.16,0,0,0,88.61,174c-2.06,2.47-4.78,4.69-4.23,8.59.22,1.53.69,2.27,2.28,2.27,6.35,0,12.69,0,19,0,1.7,0,2.43-.68,2.4-2.4,0-3.14,0-6.28,0-9.41s0-6.28,0-9.41c0-.88.12-1.84-.9-2.35S101.08,161.57,100.08,162.4Z"/><path class="cls-15" d="M108,326c0-6.9,0-13.24,0-19.57,0-1.36-1-1.8-2.21-1.8H88.11c-.53,0-1.13,0-1.42.55s.18,1,.52,1.38C93.32,313.62,99.74,320.31,108,326Z"/><path class="cls-17" d="M65.11,254.64c.42,3.09,3,1.65,4.76,2s2.57-.43,2.58-2.14c0-3.05,0-6.1,0-9.14-.06-3.31.29-6.62-.12-9.94s-2.72-2.35-4.63-2.51-3.11.55-3.35,2.77C63.65,242,64.26,248.34,65.11,254.64Z"/><path class="cls-18" d="M143,331.1v0c-2.29,0-4.57,0-6.85,0-.65,0-1.65.24-1.65-.83,0-.83.82-1.16,1.55-1.2,1.7-.09,3.4-.06,5.1-.12a4.69,4.69,0,0,0,2.35-.29c2.53-1.79,2.72.15,2.79,1.79.14,3.13,0,6.28.06,9.42a4.9,4.9,0,0,0,.54,3.12h0V235h0c-1-1.84-.48-3.83-.5-5.74s-.71-2.16-2.2-1.29c-.82,2.41-2.61,3-4.87,2.53a19.11,19.11,0,0,0-4.26-.35h0c.82.73,3.52.32,1.61,2.69,7,0,7,0,7,7.14a110.3,110.3,0,0,0,.54,13.36h0c1.09-.52,1.68-.33,2,.33a3.2,3.2,0,0,1,.18,1.17v17.71l-2.14-1.41c-.07.73-.56,1.45,0,2.17h0c2.45.32,2.14,2.24,2.15,3.88,0,11.64,0,23.28.06,34.92,0,2.52-.21,4.76-2.2,6.51h0v1.08c.67-.18,1.11-.94,2.15-.73,0,1.93,0,3.89,0,5.84,0,.6.25,1.4-.4,1.73-.85.44-1.17-.55-1.74-.9h0c-.23,2.1-1.39,2.78-3.47,2.74-5.81-.11-11.62-.1-17.43,0-2.1,0-2.83-.77-2.8-2.85.09-5.92,0-11.83,0-17.75a3.75,3.75,0,0,1,1.1-3.17h0c-1.47-.34-1.63.55-1.63,1.69,0,6.83,0,13.66,0,20.49,0,1.79.7,2.28,2.45,2.17,2.86-.18,5.73,0,8.6-.09,1.85-.06,2.31.57,1.34,2.18A23.93,23.93,0,0,0,143,331.1Z"/><path class="cls-16" d="M130.69,259.32h0c-2.6,0-5.2,0-7.8,0-2.15,0-3.32.65-2.63,3a5.11,5.11,0,0,1,.18,1.61c-.08,1.73.74,2.39,2.43,2.37q9.27-.06,18.55,0c2.66,0,2.65-1.8,2.71-3.69s-.24-3.39-2.69-3.33c-3.05.08-6.09,0-9.14,0Z"/><path class="cls-15" d="M105.25,187.55c-3,.1-5.9,0-8.85,0-3.12,0-6.25.05-9.38,0-2.74-.05-2.57,1.81-2.61,3.67s.21,3.37,2.66,3.35c6.08-.07,12.16,0,18.23,0,2.73,0,2.81-1.78,2.83-3.84S107.56,187.48,105.25,187.55Z"/><path class="cls-15" d="M123.13,194.57c3,0,6.07,0,9.11,0h7c4.87,0,4.83,0,4.41-4.89-.12-1.45-.7-2.11-2.14-2.1H122.17c-1.33,0-2,.55-1.78,2a7,7,0,0,1,0,2.15C120,194,121.16,194.59,123.13,194.57Z"/><path class="cls-15" d="M120.43,299.52c-.29,1.89.43,2.49,2.32,2.46q9.24-.15,18.49,0c2.25,0,3-.83,2.93-3s-.37-3.67-3-3.55c-3,.14-6.08,0-9.11,0-3.31,0-6.61,0-9.91,0-1.35,0-2,.43-1.74,1.92A6.41,6.41,0,0,1,120.43,299.52Z"/><path class="cls-15" d="M105.65,295.46c-6.25,0-12.51.07-18.75,0-2.4,0-2.52,1.36-2.49,3.13s-.14,3.49,2.5,3.39c3.21-.11,6.43,0,9.64,0V302c3,0,5.91-.17,8.84.06,1.79.13,2.9-.12,2.67-2.12C107.85,298.17,109.25,295.45,105.65,295.46Z"/><path class="cls-15" d="M86.8,230.2c3.22-.09,6.45,0,9.67,0s6.27,0,9.41,0c2.58,0,2.17-1.81,2.21-3.39s.1-3.12-2.23-3.1c-6.36.05-12.72.06-19.08,0-2.5,0-2.36,1.59-2.36,3.26S84.31,230.27,86.8,230.2Z"/><path class="cls-15" d="M127,230.18c2.66,0,5.32,0,8,0h0a19.11,19.11,0,0,1,4.26.35c2.26.49,4.05-.12,4.87-2.53a13,13,0,0,1-.53-4.3H120.46C120.55,231.16,119.5,230.1,127,230.18Z"/><path class="cls-15" d="M120.47,230a1,1,0,0,1-.11-.17A.62.62,0,0,0,120.47,230Z"/><path class="cls-15" d="M120.46,155.34c0,1.59-.09,3.11,2.23,3.1,6.34-.05,12.68,0,19,0,1.72,0,2.61-1.07,2.28-2.57s.74-4-2.32-3.9c-3.22.06-6.43,0-9.65,0s-6.25,0-9.38,0C120.07,151.92,120.5,153.78,120.46,155.34Z"/><path class="cls-15" d="M143.88,332.44a6.78,6.78,0,0,0-.81-1.36l-.12,0a23.93,23.93,0,0,1-10.65,0c-3.29.16-6.57.49-9.85.44-1.88,0-2.12.79-2,2.24l9.16,4.32h10.16C144,338.08,145.13,336.53,143.88,332.44Z"/><path class="cls-15" d="M133.88,142.5,121,148.17h0c.21.65.75.61,1.29.68,6.57.84,13.17.25,19.75.35,2.06,0,2-1.44,2-3-.13-6.54-.09-6.54-6.36-4.51l-3.21.57h0A1.17,1.17,0,0,1,133.88,142.5Z"/><path class="cls-16" d="M90.52,265.8c4.66,0,9.31,0,14,0,1.57,0,2.68-.37,2.49-2.25,0-.43,0-.9-.62-1a68.33,68.33,0,0,0-18-.47c-2.69.3-1.38,2.72-1.78,4.22h.56C88.18,265.59,89.37,265.8,90.52,265.8Z"/><path class="cls-16" d="M72.15,202.51A2.25,2.25,0,0,0,71,204.1a104.07,104.07,0,0,0-4,13.13c-.84,3.46.11,4.48,3.58,3.73,2.21-.48,1.86-2.41,2-3.9C73,212.26,71.88,207.5,72.15,202.51Z"/><path class="cls-16" d="M86.57,266.3h0c.4-1.5-.91-3.92,1.78-4.22a68.33,68.33,0,0,1,18,.47c.63.1.58.57.62,1,.19,1.88-.92,2.26-2.49,2.25-4.66,0-9.31,0-14,0-1.15,0-2.34-.21-3.39.51,5.07,0,10.13,0,15.19,0,6.41,0,5.75.79,5.76-5.93H99.85c-1,0-2,.11-2.51-1H90.9c1.32,1,3,.13,5,1.05-2.92,0-5.14.15-7.33,0-2.59-.21-3.61,1-3.65,3.38a3.35,3.35,0,0,1-.53,2h0A2.88,2.88,0,0,0,86.57,266.3Z"/><path class="cls-19" d="M144.12,228c1.49-.87,2.19-.64,2.2,1.29s-.49,3.9.5,5.74h0V140.62h0c-.77,1.14-.52,2.43-.52,3.67q0,38.1,0,76.2c0,.8,0,1.61,0,2.42s0,1.73-.91,2.07c-1.1.41-1.21-.8-1.77-1.27h0A13,13,0,0,0,144.12,228Z"/><path class="cls-20" d="M120.47,232.89H136.6c1.91-2.37-.79-2-1.61-2.69h0c-2.66,0-5.32,0-8,0-7.51-.08-6.46,1-6.55-6.47-.87,2.69-.9,4.71-.1,6.15a1,1,0,0,0,.11.17,4.14,4.14,0,0,0,1.67,1.53l-1.68,1.32h0Z"/><path class="cls-15" d="M68.11,230.18c3.57,0,4.18-.44,4.21-2.75,0-3.11-.49-3.7-3.38-3.72-3.17,0-3.78.71-3.91,3.89C64.92,230.43,66.72,230.24,68.11,230.18Z"/><path class="cls-21" d="M69.39,266.32c2.44,0,3-.74,3.15-4.43.13-2.34-1.29-2.75-3.07-2.53-1.26.16-3.33-1-3.4,1.65C66,264.61,67,266.27,69.39,266.32Z"/><path class="cls-18" d="M144.13,253.38c-.34,2.81-2,3.42-4.63,3.31-5.37-.22-10.75-.15-16.13,0-2.25,0-3-.8-3-3,.1-6.93,0-13.85,0-20.77h0c-1.13,3.54-.25,7.18-.54,10.76-.06.67.33,1.58-.37,2s-1.14-.64-1.78-.85h0c0,.54,0,1.07,0,1.61h0c1.79.84,2.34,2.29,2.19,4.2-.11,1.42,0,2.87,0,4.31-.1,1.86.58,2.53,2.53,2.35,2.94-.27,6-.42,8.25,2.1h1.61l-1.41-2.16h9.56c3.64,0,3.64,0,3.69-3.78h0Z"/><path class="cls-16" d="M72,270c-.49-1.13-1.55-1.07-2.54-.89s-1.22,1-.93,1.85c1,2.94,1.55,6,3.51,8.75-.46-2.54.59-4.92.49-7.38A6.7,6.7,0,0,0,72,270Z"/><polygon class="cls-16" points="84.96 220.47 84.96 220.47 84.96 220.47 84.96 220.47"/><path class="cls-16" d="M104.53,220.08c-1.63-.74-3.3-.46-4.94-.73-2.33-.39-4.27,1.44-6.46,1.05a23.35,23.35,0,0,0-8.17.07h0a4.1,4.1,0,0,1,.41.22,1.29,1.29,0,0,0,.56.19q10.18.08,20.37.1c1.43,0,1.82-.88,1.78-2.12h0A2.44,2.44,0,0,1,104.53,220.08Z"/><path class="cls-22" d="M120.86,146.48c1,.49-1.07,1.22.13,1.69h0l12.89-5.67.57-.25a3.31,3.31,0,0,1-2.14-.51h0A56.66,56.66,0,0,0,120.86,146.48Z"/><path class="cls-23" d="M129.63,338.08h0l-9.16-4.32-1.07,1,3.75,2.12,0,0,4.77,1.69Z"/><path class="cls-16" d="M88.62,260.36c2.19.18,4.41,0,7.33,0-2.08-.92-3.73-.08-5-1.05h0c-7.19,0-6.46-.6-6.46,6.44h0a3.35,3.35,0,0,0,.53-2C85,261.33,86,260.15,88.62,260.36Z"/><path class="cls-16" d="M85,220.47V197.28a3.67,3.67,0,0,0-.53,2.31v18.57a3.67,3.67,0,0,0,.53,2.31Z"/><path class="cls-16" d="M99.85,260.39h8.23c-.67-1.06-1.74-1.07-2.81-1.06l-7.93,0h0C97.85,260.5,98.89,260.38,99.85,260.39Z"/><path class="cls-24" d="M107.91,157.66c.09-.38,0-.76-.38-.82a1.35,1.35,0,0,0-1.44.88.67.67,0,0,0,.3.57A1.15,1.15,0,0,0,107.91,157.66Z"/><path class="cls-22" d="M134.45,142.25h0l3.21-.57c-1.26-.86-2.26-.29-3.21.57Z"/><path class="cls-10" d="M186.65,344.07Z"/><path class="cls-10" d="M183.14,137.33h0l-3,.59v2.16a3.51,3.51,0,0,0,2.15,0c.54-2.44,2.38-1.78,3.84-1.43s3.14.49,2.82,3a38.69,38.69,0,0,0,.2,10.19c.62,4.44-.74,8.9,0,13.39a20.81,20.81,0,0,1,.09,5.35c-1,11.12-.55,22.26-.33,33.38.13,6.27-.33,12.52-.21,18.78.14,8.06,1.16,16.08.61,24.16a148,148,0,0,0-.52,17.74c.71,13.54-.41,27.07,0,40.61.22,7.75.56,15.51.43,23.27-.07,4.29-.7,8.57-.07,12.87.28,2-1.55,1.87-2.47,2.65h0a13.68,13.68,0,0,0,4.93-1.08c-1-1,0-1.77.56-1.92,1.9-.46,3.88-1,5.76.19h0a37.61,37.61,0,0,0,8.66-3.16c-3.94,0-7.88,0-11.81,0-1,0-2.41.24-2.6-1.23-.22-1.74-.56-3.57.35-5.24.11-.2.64-.24,1-.24,6.58,0,13.16,0,19.74,0,1.52,0,2.61.66,2.47,2.45a6.38,6.38,0,0,0,2.8-1.59c-.47-1.59-.11-3.21-.11-4.81q0-86.39,0-172.76c0-1.47-.5-3.11.94-4.28a8,8,0,0,0-3.66-2.19,3.24,3.24,0,0,1-2.4,1c-6.15,0-12.29,0-18.44.1-2,0-3-.64-2.84-2.78s0-4.27,0-6.41h0l1.26-.63h0c-1.89-1.14-4.32-.62-6.13-2Zm32.56,80.53c0,2.31-.83,3.21-3.15,3.17-5.91-.09-11.82-.08-17.73,0-2.06,0-2.93-.68-2.85-2.8.12-3,0-6.1,0-9.15s0-6.29,0-9.43c0-1.72.71-2.4,2.41-2.4,6.09,0,12.17-.06,18.26-.12,2,0,3.11.59,3.05,3C215.57,206,215.6,211.93,215.7,217.86Zm0,72.08c0,2.1-.89,2.86-2.92,2.84q-9.12-.09-18.26,0c-1.86,0-2.53-.76-2.52-2.58.06-6.2.1-12.39,0-18.59-.05-2.51,1.39-2.75,3.26-2.74h8.85V269c3,0,5.91.07,8.87,0,1.9-.06,2.77.59,2.75,2.62Q215.59,280.77,215.68,289.94Zm-2.57,12c-3.14-.12-6.27,0-9.41,0s-6.1-.09-9.14,0c-2.33.09-2.65-1.21-2.57-3.07s-.26-3.5,2.44-3.46q9.4.13,18.81,0c2.71,0,2.37,1.75,2.44,3.46C215.76,300.77,215.44,302.06,213.11,302ZM196.5,259.32H204c3,0,6.08,0,9.12,0,2.55,0,2.55,1.67,2.53,3.48s.11,3.53-2.47,3.52q-9.54,0-19.08,0c-1.45,0-2-.68-2.13-2.12C191.63,259.64,191.87,259.33,196.5,259.32Zm16.6-29.11c-3.13-.12-6.27,0-9.41,0s-6.09-.09-9.13,0c-2.34.09-2.65-1.21-2.58-3.07s-.24-3.49,2.46-3.46q9.41.13,18.81,0c2.71,0,2.36,1.76,2.43,3.47C215.76,229,215.42,230.3,213.1,230.21Zm2.56-57c0,3-.06,5.93,0,8.89.05,1.9-.57,2.8-2.61,2.77-6.18-.08-12.36-.06-18.55,0-1.83,0-2.56-.69-2.55-2.54q.09-9.3,0-18.6c0-2,.83-2.66,2.74-2.64q9.14.1,18.28,0c2,0,2.75.71,2.69,2.69C215.6,166.93,215.66,170.08,215.66,173.23Zm-20.94,14.31c2.94.14,5.89,0,8.84,0,3.13,0,6.26.08,9.39,0,2.66-.08,2.78,1.6,2.72,3.55,0,1.73.22,3.4-2.51,3.35-6.16-.1-12.33,0-18.49.12-2.94.05-2.6-2-2.69-3.86S192.28,187.42,194.72,187.54ZM192,235.27c.07-1.71.72-2.41,2.42-2.39q9.27.06,18.54,0c1.93,0,2.77.8,2.74,2.75-.06,3,0,6.1,0,9.16s0,6.28,0,9.43c0,1.7-.66,2.43-2.39,2.42q-9.39-.06-18.8,0c-1.64,0-2.37-.54-2.52-2.31A142.47,142.47,0,0,1,192,235.27Zm21.48,93.11q-9.66,0-19.31,0c-1.75,0-2.34-.82-2.29-2.51.08-3.13,0-6.28,0-9.42H192c0-3.05,0-6.11,0-9.16,0-1.78.71-2.66,2.54-2.64,6.36,0,12.71,0,19.06.05,1.52,0,2,.89,2.05,2.24q0,9.71,0,19.4C215.66,327.84,214.87,328.38,213.46,328.38Zm-19-176.46c3.12.14,6.25,0,9.38,0s6.26.08,9.39,0c2.68-.09,2.41,1.69,2.46,3.43s-.17,3.13-2.53,3.1c-6.25-.09-12.51-.08-18.77,0-2.1,0-2.74-1.15-2.59-2.86S191.57,151.8,194.45,151.92Z"/><path class="cls-15" d="M186.67,344.06c.92-.78,2.75-.68,2.47-2.65-.63-4.3,0-8.58.07-12.87.13-7.76-.21-15.52-.43-23.27-.38-13.54.74-27.07,0-40.61a148,148,0,0,1,.52-17.74c.55-8.08-.47-16.1-.61-24.16-.12-6.26.34-12.51.21-18.78-.22-11.12-.71-22.26.33-33.38a20.81,20.81,0,0,0-.09-5.35c-.73-4.49.63-8.95,0-13.39a38.69,38.69,0,0,1-.2-10.19c.32-2.53-1.38-2.67-2.82-3s-3.3-1-3.84,1.43c0,27.28,0,54.55,0,81.83,0,3.23.2,6.17,2.55,8.72.92,1,1.21,2.56,1.79,3.87h0c.73,1,.49,2.13.54,3.23h0c.72,1,.49,2.14.53,3.24a14.5,14.5,0,0,1-1.06,6.48h0a9.26,9.26,0,0,1-2.11,4.59c-2.06,2.38-2.24,5.08-2.23,8q.07,37.67,0,75.33h0v5.93a6.94,6.94,0,0,1-.52,3.31h0c.55,0,1.06.94,1.65.07C184.38,343.77,185.54,344,186.67,344.06Z"/><path class="cls-15" d="M186.67,344.06h0Z"/><path class="cls-15" d="M218.38,154.66q0,86.39,0,172.76c0,1.6-.36,3.22.11,4.81a34.31,34.31,0,0,0,6.91-4.31h0a7.12,7.12,0,0,1-.58-3.41q0-10.2,0-20.42h0q0-31.35,0-62.69a5.14,5.14,0,0,1,.52-3.13h0a8.21,8.21,0,0,1-.52-3.7V158c0-1.15-.2-2.36.62-3.36-1.41-2.32-4-3-6.12-4.23h0C217.88,151.55,218.38,153.19,218.38,154.66Z"/><path class="cls-10" d="M182.32,341.32c-1.63.08-1.14-1.36-1.38-2.14-.48-1.53.31-2.75,1.38-3.79h0q0-37.67,0-75.33c0-2.94.17-5.64,2.23-8a9.26,9.26,0,0,0,2.11-4.59h0c-.26-.77-.68-.59-1.13-.2-.71.6-1.41,1.21-2.11,1.82-3.9,5.94-9.1,9.58-16.49,9.15-5.72-.32-10.14-3.11-13.62-7.54h0c-.91-.73-1.81-1.86-2.71,0h0c2.78,3.36,2.75,7.33,2.73,11.41-.07,24.43,0,48.87,0,73.3a11,11,0,0,0,2.67,2.68c0-1.16,0-2.32,0-3.48,0-2.9,1-3.81,4-3.42,5.86.79,11.73.47,17.6.21,1.62-.07,2.09.42,2.07,1.87,0,1.61,0,3.22,0,4.83l.53,2.69a14.54,14.54,0,0,0,.53,4.3h0c.46.06.89.08,1.1-.45h0A6.94,6.94,0,0,0,182.32,341.32ZM156,271.69c0-2,.72-2.71,2.68-2.69,6.18.07,12.35,0,18.53,0,1.43,0,2.47.31,2.47,2,0,6.56,0,13.11,0,19.66a5.44,5.44,0,0,1-.49,1.51h0c-1.31.85-2.78.51-4.19.52-5.37,0-10.74-.05-16.11,0-2.05,0-2.89-.65-2.86-2.79C156,283.9,156,277.79,156,271.69Zm21.49,30.25c-3.22,0-6.45,0-9.67,0s-6.28-.08-9.41,0c-2.48.08-2.42-1.52-2.4-3.23s-.18-3.31,2.34-3.28q9.54.09,19.09,0c2.32,0,2.29,1.49,2.24,3.1S180,302,177.44,301.94Zm-1.21,26.48c-2.86-.17-5.74,0-8.6,0-3,0-6.1-.06-9.14,0-1.86,0-2.55-.73-2.54-2.57.06-6.2,0-12.4,0-18.6,0-1.8.75-2.58,2.6-2.57,5.82,0,11.64,0,17.46,0,3.33,0,3.59.25,3.6,3.47,0,5.66-.11,11.33.06,17C179.77,327.79,178.73,328.56,176.23,328.42Zm3.22-63.25c-.29,1.56-1.83,1.12-2.93,1.13-3,.05-5.91,0-8.87,0s-6.09,0-9.13,0c-2.52,0-2.7-.62-2.58-4.65.06-2.25,1.32-2.48,3-2.28,2.65.33,5.05,1.71,7.85,1.63a28.24,28.24,0,0,0,8.72-1.27c1.18-.42,2.63-.9,3.51.24C180.21,261.49,179.77,263.45,179.45,265.17Z"/><path class="cls-15" d="M253.88,187.14q0,10.73,0,21.46v3.24h0v7.55h0V259.8q0,16.68,0,33.35a17.21,17.21,0,0,0,.6,5.05h0a59.2,59.2,0,0,0,6.38-11.39c-.61-1.79,0-3.57,0-5.35q0-40.59,0-81.19c0-1.6-.42-3.22.09-4.82h0a59.16,59.16,0,0,0-6.51-11.69C253.69,184.79,253.88,186,253.88,187.14Z"/><path class="cls-10" d="M253.87,293.15q0-16.68,0-33.35V219.39h0c-.88,0-1.27-.79-1.89-1.32-.54.94,0,2.13-.82,2.93H228.05c-1.44-.11-2.26.3-2.46,2-.55,4.53.08,9,.29,13.74.82-2.87,2.13-5,5.36-4.95l0,0c-.73-1.74-2.73-.54-3.75-1.6.12-7.41-1-6.4,6.58-6.46,5.7,0,11.39,0,17.09,0,1,2,.53,4,.41,6.06-.1,1.75-1.42,2-2.9,2-5.8,0-11.59,0-17.39,0h0c1,.72,2.22.52,3.36.52,4.56,0,9.12,0,13.68,0a4.41,4.41,0,0,1,2.84.55h0c0,6.82-.06,13.64.05,20.45,0,2.36-.58,3.4-3.16,3.33-5.8-.15-11.62-.16-17.43,0-2.57.07-3.22-1-3.16-3.33.13-4.84,0-9.68,0-14.53-1.14,1.47-1.39-.59-2.17-.54h0a5.14,5.14,0,0,0-.52,3.13q0,31.35,0,62.69c1-.15,1.29-1.94,2.67-1.07v-1.1h0c0-7.22-.6-6.42,6.51-6.45,5.72,0,11.44,0,17.16,0,.39.47,1.81.62.51,1.63,0,.17,0,.34,0,.52.39,1-.28,2.43,1.34,2.79h0a5,5,0,0,0,1.42-2.2h0A17.21,17.21,0,0,1,253.87,293.15Zm-26.35-29.68c.14-1.75-.67-4.1,2.37-4.12,6.35,0,12.69,0,19,0,3,0,2.12,2.24,2.25,3.86s0,3.24-2.44,3.15c-3.12-.1-6.25,0-9.38,0s-6.26-.07-9.38,0C227.83,266.41,227.37,265.25,227.52,263.47Zm23.69,26.61c0,2-.7,2.73-2.68,2.7-5.91-.07-11.82-.1-17.73,0-2.41,0-3.57-.79-3.3-3.27h0c-.24-.24-.7-.49-.7-.72q.07-9,.24-18a4.1,4.1,0,0,1,.47-1.24,7.72,7.72,0,0,1,3.68-.55c5.91-.06,11.82-.08,17.73-.23,1.82-.05,2.41.83,2.4,2.42C251.28,277.5,251.18,283.79,251.21,290.08Z"/><path class="cls-15" d="M227.51,161.66h0V180c0,.36,0,.73,0,1.09.11,3.65.21,3.76,3.78,3.77h17.05a6.83,6.83,0,0,0,3.37-.56h0c-.68-1.73-.32-3.56-.54-5.34a85.57,85.57,0,0,0-17.22-18.37h0C231.94,161.77,229.56,160.72,227.51,161.66Z"/><path class="cls-20" d="M224.82,158v76.6a8.21,8.21,0,0,0,.52,3.7h0c.78-.05,1,2,2.17.54,0-5.92,0-5.92,6-5.92h17.68a4.41,4.41,0,0,0-2.84-.55c-4.56,0-9.12,0-13.68,0-1.14,0-2.32.2-3.36-.52h0c-3.23-.08-4.54,2.08-5.36,4.95-.21-4.73-.84-9.21-.29-13.74.2-1.7,1-2.11,2.46-2l-.54-1.08-.54-.54c-.76.1-1.28.23-1.26-1,.09-7.69,0-15.37.1-23.06,0-1.12-.85-2.22.08-3.67.86,2.38,2.77,3.42,5,4.49-1.09,1-2.5.25-3.33,1.11h0c6.87,0,13.74.06,20.61-.05,2.33,0,3.14.75,3.1,3.1-.12,6.89-.05,13.78-.06,20.67.8-.8.28-2,.82-2.93.62.53,1,1.28,1.89,1.32h0V216.7c-1.19-.55-2.19-1.2-2.13-2.76s1.2-1.64,2.13-2.1h0V208.6l-2.16.73c0-3.46,0-6.85,0-10.24,0-1.85-.13-2.73-2.64-2.51-4.88.43-9.82.14-14.74.14-1.05,0-2.28-.24-2.29-1.37,0-1.39,1.38-.73,2.12-.74,5.09-.06,10.2-.1,15.29,0,1.68,0,2.19-.49,2.27-2.09.28-5,.32-5-4.63-5-5.9,0-11.8-.07-17.7-.2a2,2,0,0,0-2.11,1.22c-.22.44-.27,1.2-1,1a1.37,1.37,0,0,1-.83-1.29c-.1-1.06-.39-2.24.3-3.13,1-1.25,1.68.37,2.53.41,1.24,0,2.48-.14,3.73-.14,5.9,0,11.8,0,17.71.07,1,0,1.81.06,2-1.17h0a6.83,6.83,0,0,1-3.37.56H231.28c-3.57,0-3.67-.12-3.78-3.77-.89,0-1.22.9-2,1.3a30.05,30.05,0,0,1,.05-5.38c.89-4.72,0-9.4,0-14.1,0-1.48.48-7.45.9-8.17l-1-.13C224.62,155.61,224.82,156.82,224.82,158Z"/><path class="cls-25" d="M260.86,200.27q0,40.59,0,81.19c0,1.78-.63,3.56,0,5.35a32.08,32.08,0,0,0,3.15-7c-.93-3.08-.65-6.27-.27-9.33.25-2.12,2.1-1.9,3.63-.81h0a9,9,0,0,0,.93-3.33h-1.06c-3.31,0-5.05-3-3.49-6.07.73-1.43,4-1.28,5.8.27h0a7,7,0,0,0,.52-3.33,21.1,21.1,0,0,0-2.08-.38c-4.44-.42-4.44-.41-4.44-5.05,0-5.18.11-10.37-.05-15.55-.08-2.59.81-3.62,3.38-3.35,1.4.15,2.86-.12,4.19.56h0a11,11,0,0,0-.45-4.45c-.74,1.12-5.18,1.75-6.37.9-.82-.58-1.07-4.74-.29-5.58s1.82-.54,2.77-.57,2.14,0,3.2,0a15.31,15.31,0,0,0-1-4.91c0,2.54-1.78,2.18-3.38,2.2s-2.1-1-2-2.47c.24-5.45-.51-10.93.43-16.36a30.06,30.06,0,0,0-3-6.72h0C260.44,197.05,260.86,198.67,260.86,200.27Z"/><path class="cls-15" d="M230.42,304.87c-1,0-1.94.2-2.91.31V323c0,1.14,0,2.28,0,3.42h0a93,93,0,0,0,22-21.24C243.19,304.18,236.8,304.65,230.42,304.87Z"/><path class="cls-15" d="M266.87,232.86c-2.57-.27-3.46.76-3.38,3.35.16,5.18.05,10.37.05,15.55,0,4.64,0,4.63,4.44,5.05a21.1,21.1,0,0,1,2.08.38,81,81,0,0,0,1-23.77h0C269.73,232.74,268.27,233,266.87,232.86Z"/><path class="cls-10" d="M251.7,184.31h0c-.17,1.23-1,1.18-2,1.17-5.91-.06-11.81-.07-17.71-.07-1.25,0-2.49.19-3.73.14-.85,0-1.55-1.66-2.53-.41-.69.89-.4,2.07-.3,3.13a1.37,1.37,0,0,0,.83,1.29c.74.21.79-.55,1-1a2,2,0,0,1,2.11-1.22c5.9.13,11.8.17,17.7.2,5,0,4.91,0,4.63,5-.08,1.6-.59,2.13-2.27,2.09-5.09-.15-10.2-.11-15.29,0-.74,0-2.12-.65-2.12.74,0,1.13,1.24,1.37,2.29,1.37,4.92,0,9.86.29,14.74-.14,2.51-.22,2.66.66,2.64,2.51,0,3.39,0,6.78,0,10.24l2.16-.73q0-10.72,0-21.46c0-1.15-.19-2.35.56-3.38a19.4,19.4,0,0,0-3.28-4.79C251.38,180.75,251,182.58,251.7,184.31Z"/><path class="cls-15" d="M213.22,331.37c-6.58,0-13.16,0-19.74,0-.34,0-.87,0-1,.24-.91,1.67-.57,3.5-.35,5.24.19,1.47,1.56,1.22,2.6,1.23,3.93,0,7.87,0,11.81,0a45.24,45.24,0,0,0,9.13-4.28h0C215.83,332,214.74,331.38,213.22,331.37Z"/><path class="cls-16" d="M195.26,140.05c-1.08.73-2.17.28-3.25,0,0,2.14.08,4.28,0,6.41s.81,2.82,2.84,2.78c6.15-.1,12.29-.08,18.44-.1a3.24,3.24,0,0,0,2.4-1,67.6,67.6,0,0,0-15.19-6.46C198.53,141.8,196.64,141.71,195.26,140.05Z"/><path class="cls-10" d="M147.63,343.66a1.2,1.2,0,0,1-.27-.19h0l-.53-.53h0a4.9,4.9,0,0,1-.54-3.12c0-3.14.08-6.29-.06-9.42-.07-1.64-.26-3.58-2.79-1.79a4.69,4.69,0,0,1-2.35.29c-1.7.06-3.4,0-5.1.12-.73,0-1.55.37-1.55,1.2,0,1.07,1,.81,1.65.83,2.28,0,4.56,0,6.85,0h.13a6.78,6.78,0,0,1,.81,1.36c1.25,4.09.12,5.64-4.09,5.64H129.63l-1.66.56c.09.14.17.29.26.44h0a98.23,98.23,0,0,0,22.31,5.8C149.83,343.88,148.54,344.2,147.63,343.66Zm-7.76-2.37c1.28-.64,2.54-.7,4.5.16A5.49,5.49,0,0,1,139.87,341.29Z"/><path class="cls-26" d="M251.71,297.61c-1.41,4.35-1.41,4.34-6.35,4.33l-17.85,0V303c2,.71-.1,1.44,0,2.16h0c1-.11,1.94-.28,2.91-.31,6.38-.22,12.77-.69,19.13.29,1.58-1.28,2.31-3.19,3.5-4.76h0C251.43,300,252.1,298.57,251.71,297.61Z"/><path class="cls-27" d="M263.54,218.53c-.06,1.43.31,2.49,2,2.47s3.42.34,3.38-2.2a74.29,74.29,0,0,0-5-16.63C263,207.6,263.78,213.08,263.54,218.53Z"/><path class="cls-10" d="M227.51,323c-.07,0-.22-.08-.22-.13-.4-5.9-.8-11.8.22-17.68h0c-.1-.72,2-1.45,0-2.16-1.38-.87-1.7.92-2.67,1.07h0q0,10.21,0,20.42a7.12,7.12,0,0,0,.58,3.41h0a4.9,4.9,0,0,0,2.15-1.52h0C227.54,325.26,227.53,324.12,227.51,323Z"/><path class="cls-10" d="M225.5,162.91c0,4.7.91,9.38,0,14.1a30.05,30.05,0,0,0-.05,5.38c.81-.4,1.14-1.31,2-1.3,0-.36,0-.73,0-1.09-.94-1.57-.48-3.3-.52-5-.09-3.91-.07-7.83-.14-11.75a1.64,1.64,0,0,1,.66-1.62h0c2.05-.94,4.43.11,6.43-1.06h0a5.43,5.43,0,0,0-2.69-2.08c-3.44.09-3.77-.17-3.62-2.86l-1.23-.92C226,155.46,225.5,161.43,225.5,162.91Z"/><path class="cls-27" d="M266.73,223.72c-1,0-2-.26-2.77.57s-.53,5,.29,5.58c1.19.85,5.63.22,6.37-.9,0-.86,0-1.72,0-2.58a1.85,1.85,0,0,0,.22-.78c-.07.26-.15.52-.22.78-.05-.47-.11-.94-.16-1.41h0l-.51-1.27C268.87,223.71,267.8,223.68,266.73,223.72Z"/><path class="cls-28" d="M263.74,260.25c-1.56,3.05.18,6.07,3.49,6.07h1.06a23.46,23.46,0,0,0,1.25-5.8h0C267.72,259,264.47,258.82,263.74,260.25Z"/><path class="cls-29" d="M180.17,340.78h-.54c0,3.73-.09,3.42-3.66,3.87-6.69.84-13.33.31-20-.12l1.06,1.1a79.19,79.19,0,0,0,23.66-.56h0A14.54,14.54,0,0,1,180.17,340.78Z"/><path class="cls-30" d="M263.73,270.46c-.38,3.06-.66,6.25.27,9.33a48.84,48.84,0,0,0,3.36-10.14h0C265.83,268.56,264,268.34,263.73,270.46Z"/><path class="cls-10" d="M156,344.54h0c0-.17,0-.35,0-.52-1.19-1.53.28-3.9-1.75-5.52-.63,1.49-.27,2.81-.41,4.07-.11.91.08,2.23-1.59,1.46l-4.85-.56h0l.27.19c.91.54,2.2.22,2.91,1.22a30.86,30.86,0,0,0,6.5.76Z"/><path class="cls-31" d="M192.14,341.07c-.59.15-1.59.92-.56,1.92a27.66,27.66,0,0,0,6.32-1.73h0C196,340.1,194,340.61,192.14,341.07Z"/><path class="cls-32" d="M231.25,158.52a13.9,13.9,0,0,0-3.62-2.86C227.48,158.35,227.81,158.61,231.25,158.52Z"/><path class="cls-29" d="M195.26,140.05c1.38,1.66,3.27,1.75,5.21,1.68a12.36,12.36,0,0,0-5.21-1.69Z"/><path class="cls-29" d="M192,140.08h0c1.08.25,2.17.7,3.25,0h0a3.08,3.08,0,0,0-2-.59h0Z"/><path class="cls-33" d="M270.82,225.61a6.77,6.77,0,0,0,.21-.89c0-.15.21-.81-.4-.46-.15.09-.13.47-.19.71h0c.05.47.11.94.16,1.41C270.67,226.13,270.75,225.87,270.82,225.61Z"/><path class="cls-10" d="M186.67,344.06h0c-1.13-.05-2.29-.29-3.22.64a7.81,7.81,0,0,0,3.2-.63h0Z"/><path class="cls-34" d="M158.12,137.39c6,0,11.94,0,17.9,0,3.15,0,3.58.48,3.61,3.54,0,2.59,0,5.18,0,7.78h0c0-1.29,2.45-1.57,1.67-2.51-1.61-2-.93-4.07-1.14-6.13v-2.16l-.82-.92a.41.41,0,0,1-.23-.27,76.54,76.54,0,0,0-21-.41Z"/><path class="cls-10" d="M180.17,137.92l3-.59h0a9.36,9.36,0,0,0-4-.6l.23.27Z"/><path class="cls-35" d="M151.67,235c-1.59-1.2-2.1.87-3.23,1.08h0c-1,5.11-.85,10,2.14,14.57h0c.9-1.87,1.8-.74,2.71,0A20.26,20.26,0,0,1,151.67,235Z"/><path class="cls-22" d="M153.26,341c0,1.1.34,2.39-1,3h0c1.67.77,1.48-.55,1.59-1.46.14-1.26-.22-2.58.41-4.07,2,1.62.56,4,1.75,5.52-.37-2.66.9-3.34,3.38-3.29,6.76.14,13.53,0,20.29.06h.54l-.53-2.69h-3.23c.67.84.22,1.07-.59,1.07l-17.82,0a2.35,2.35,0,0,1-2-1.06h0a11,11,0,0,1-2.67-2.68h0C153.29,337.27,153.31,339.13,153.26,341Zm23.63-1.12v.27H160.32v-.27Z"/><path class="cls-36" d="M151.67,235q1.89-3,3.76-5.93c-2.14,1.36-1.94-.42-2.16-1.63h0a28.17,28.17,0,0,0-4.83,8.64h0C149.57,235.91,150.08,233.84,151.67,235Z"/><path class="cls-15" d="M184.48,236.65c-1.64-5.06-4.48-9.07-9.56-11.19-7.29-3-13.72-1.5-19.49,3.65h0q-1.87,3-3.76,5.93a20.26,20.26,0,0,0,1.62,15.64h0c3.48,4.43,7.9,7.22,13.62,7.54,7.39.43,12.59-3.21,16.49-9.15C184.24,245,185.92,241,184.48,236.65Zm-5.37,12.43h0c-1.74,2.9-4,3.45-6.48,1.61-1.87-2.11-2.15-4.35-.75-5.93a4.6,4.6,0,0,1,6.14-.55l.54.54C179.17,246.14,180,247.49,179.11,249.08Z"/><path class="cls-15" d="M179.66,218.29c-.09-3.14,0-6.28,0-9.42s0-6.29,0-9.43c0-1.53-.58-2.34-2.21-2.32-6.35.07-12.7.13-19.05.13-1.7,0-2.43.66-2.42,2.39,0,6.28,0,12.56,0,18.85,0,1.85.73,2.55,2.55,2.53,6.18-.05,12.35-.07,18.53,0C179,221.05,179.71,220.22,179.66,218.29Z"/><path class="cls-15" d="M156,182.33c0,1.84.7,2.57,2.54,2.55,6.18,0,12.37-.06,18.55,0,2,0,2.68-.84,2.62-2.76-.09-3,0-5.93,0-8.89,0-3.15-.06-6.29,0-9.44.06-2-.71-2.72-2.68-2.69q-9.14.1-18.28,0c-1.9,0-2.78.57-2.76,2.62C156,169.93,156,176.13,156,182.33Z"/><path class="cls-15" d="M179.63,140.94c0-3.06-.46-3.52-3.61-3.54-6,0-11.93,0-17.9,0a2.71,2.71,0,0,0-2.18,3.17,60.86,60.86,0,0,1,0,6.19c-.07,1.88.77,2.53,2.57,2.51,5.73,0,11.45,0,17.17,0a8.58,8.58,0,0,0,3.95-.52h0C179.64,146.12,179.65,143.53,179.63,140.94Z"/><path class="cls-15" d="M177.13,187.54c-6.17.08-12.34.11-18.51,0-2.52,0-2.72,1.33-2.67,3.25s-.12,3.9,2.78,3.8,5.91,0,8.87,0v-.14c3.22,0,6.44,0,9.66,0s2.2-2.34,2.37-4S179.24,187.52,177.13,187.54Z"/><path class="cls-15" d="M158.25,158.44c3.13-.07,6.27,0,9.4,0s6.46-.06,9.68,0c2.28.06,2.38-1.39,2.3-3s.46-3.46-2.14-3.46q-9.68,0-19.35,0c-2.6,0-2.1,1.87-2.17,3.43S156,158.49,158.25,158.44Z"/><path class="cls-37" d="M184.48,236.65c1.44,4.3-.24,8.32-1.08,12.42.7-.61,1.4-1.22,2.11-1.82.45-.39.87-.57,1.13.2h0A14.5,14.5,0,0,0,187.7,241c-2.34-.72-2.1-1.87-.53-3.24h0c0-1.1.19-2.25-.54-3.23h0C186.46,235.77,186.35,237.1,184.48,236.65Z"/><path class="cls-38" d="M179,223.37c-.13.09-.45.19-.51.37-.13.41.16.68.52.79s.75,0,.77-.44S179.45,223.48,179,223.37Z"/><path class="cls-39" d="M156.74,223.92c-.12,0-.24.14-.36.23l.26.33.36-.26C156.91,224.11,156.82,223.92,156.74,223.92Z"/><path class="cls-10" d="M144.13,325.68c.57.35.89,1.34,1.74.9.65-.33.39-1.13.4-1.73,0-2,0-3.91,0-5.84-1-.21-1.48.55-2.15.73v5.94Z"/><path class="cls-15" d="M120.47,232.89h0c0,6.92,0,13.84,0,20.77,0,2.2.7,3,3,3,5.38-.12,10.76-.19,16.13,0,2.65.11,4.29-.5,4.63-3.31a110.3,110.3,0,0,1-.54-13.36c0-7.15,0-7.15-7-7.14Z"/><path class="cls-15" d="M192,254.32c.15,1.77.88,2.32,2.52,2.31q9.4,0,18.8,0c1.73,0,2.42-.72,2.39-2.42-.06-3.15,0-6.29,0-9.43s0-6.11,0-9.16c0-2-.81-2.76-2.74-2.75q-9.27.07-18.54,0c-1.7,0-2.35.68-2.42,2.39A142.47,142.47,0,0,0,192,254.32Z"/><path class="cls-15" d="M212.66,197.13c-6.09.06-12.17.13-18.26.12-1.7,0-2.44.68-2.41,2.4.06,3.14,0,6.29,0,9.43s.08,6.1,0,9.15c-.08,2.12.79,2.83,2.85,2.8,5.91-.08,11.82-.09,17.73,0,2.32,0,3.18-.86,3.15-3.17-.1-5.93-.13-11.86,0-17.78C215.77,197.72,214.66,197.11,212.66,197.13Z"/><path class="cls-15" d="M212.94,269c-3,.09-5.91,0-8.87,0v-.15h-8.85c-1.87,0-3.31.23-3.26,2.74.12,6.2.08,12.39,0,18.59,0,1.82.66,2.6,2.52,2.58q9.13-.09,18.26,0c2,0,2.94-.74,2.92-2.84q-.09-9.17,0-18.32C215.71,269.59,214.84,268.94,212.94,269Z"/><path class="cls-15" d="M213,161.1q-9.13.12-18.28,0c-1.91,0-2.77.61-2.74,2.64q.11,9.3,0,18.6c0,1.85.72,2.56,2.55,2.54,6.19,0,12.37-.07,18.55,0,2,0,2.66-.87,2.61-2.77-.09-3,0-5.93,0-8.89,0-3.15-.06-6.3,0-9.44C215.75,161.81,215,161.08,213,161.1Z"/><path class="cls-15" d="M215.65,306.94c0-1.35-.53-2.24-2.05-2.24-6.35,0-12.7,0-19.06-.05-1.83,0-2.57.86-2.54,2.64,0,3,0,6.11,0,9.16h-.13c0,3.14.06,6.29,0,9.42-.05,1.69.54,2.52,2.29,2.51q9.66,0,19.31,0c1.41,0,2.2-.54,2.19-2Q215.64,316.64,215.65,306.94Z"/><path class="cls-16" d="M194.12,266.32q9.54,0,19.08,0c2.58,0,2.46-1.75,2.47-3.52s0-3.52-2.53-3.48c-3,.05-6.08,0-9.12,0H196.5c-4.63,0-4.87.32-4.51,4.88C192.1,265.64,192.67,266.32,194.12,266.32Z"/><path class="cls-15" d="M192,190.71c.09,1.9-.25,3.91,2.69,3.86,6.16-.1,12.33-.22,18.49-.12,2.73.05,2.46-1.62,2.51-3.35.06-1.95-.06-3.63-2.72-3.55-3.13.1-6.26,0-9.39,0-2.95,0-5.9.11-8.84,0C192.28,187.42,191.89,188.71,192,190.71Z"/><path class="cls-15" d="M194.38,158.45c6.26-.07,12.52-.08,18.77,0,2.36,0,2.59-1.29,2.53-3.1s.22-3.52-2.46-3.43c-3.13.1-6.26,0-9.39,0s-6.26.11-9.38,0c-2.88-.12-2.52,2-2.66,3.67S192.28,158.48,194.38,158.45Z"/><path class="cls-15" d="M213.25,223.68q-9.41.13-18.81,0c-2.7,0-2.39,1.73-2.46,3.46s.24,3.16,2.58,3.07c3-.12,6.09,0,9.13,0s6.28-.09,9.41,0c2.32.09,2.66-1.19,2.58-3.06C215.61,225.44,216,223.65,213.25,223.68Z"/><path class="cls-15" d="M213.24,295.44q-9.41.12-18.81,0c-2.7,0-2.38,1.74-2.44,3.46s.24,3.16,2.57,3.07c3-.12,6.09,0,9.14,0s6.27-.09,9.41,0c2.33.09,2.65-1.2,2.57-3.07C215.61,297.19,216,295.4,213.24,295.44Z"/><path class="cls-22" d="M180.94,339.18c.24.78-.25,2.22,1.38,2.14v-5.93h0C181.25,336.43,180.46,337.65,180.94,339.18Z"/><path class="cls-40" d="M187.7,241c0-1.1.19-2.25-.53-3.24h0C185.6,239.1,185.36,240.25,187.7,241Z"/><path class="cls-15" d="M179.63,308.12c0-3.22-.27-3.47-3.6-3.47-5.82,0-11.64.06-17.46,0-1.85,0-2.61.77-2.6,2.57,0,6.2,0,12.4,0,18.6,0,1.84.68,2.61,2.54,2.57,3-.08,6.09,0,9.14,0,2.86,0,5.74-.13,8.6,0,2.5.14,3.54-.63,3.46-3.31C179.52,319.45,179.65,313.78,179.63,308.12Z"/><path class="cls-15" d="M156,338.08h23.67c0-1.61,0-3.22,0-4.83,0-1.45-.45-1.94-2.07-1.87-5.87.26-11.74.58-17.6-.21-3-.39-4,.52-4,3.42,0,1.16,0,2.32,0,3.48Z"/><path class="cls-16" d="M177.39,295.45q-9.54.07-19.09,0c-2.52,0-2.32,1.62-2.34,3.28s-.08,3.31,2.4,3.23c3.13-.1,6.27,0,9.41,0s6.45,0,9.67,0c2.59,0,2.15-1.82,2.19-3.39S179.71,295.44,177.39,295.45Z"/><path class="cls-16" d="M175.52,259.73A28.24,28.24,0,0,1,166.8,261c-2.8.08-5.2-1.3-7.85-1.63-1.69-.2-2.95,0-3,2.28-.12,4,.06,4.61,2.58,4.65,3,.06,6.09,0,9.13,0s5.92,0,8.87,0c1.1,0,2.64.43,2.93-1.13.32-1.72.76-3.68-.42-5.2C178.15,258.83,176.7,259.31,175.52,259.73Z"/><path class="cls-16" d="M158.8,292.79c5.37-.09,10.74,0,16.11,0,1.41,0,2.88.33,4.19-.52h0c-6.62,0-13.23-.11-19.85-.08-1.49,0-2.3-.27-1.84-2,.36-1.28-.34-2.47-.32-3.72,0-2.84-.34-5.68.71-8.51a9.63,9.63,0,0,0-.18-6.35c-.46-1.39-.05-2,1.44-2q9,0,18,0c1.94,0,2,1.27,2,2.73q0,10,0,19.92h0a5.44,5.44,0,0,0,.49-1.51c0-6.55,0-13.1,0-19.66,0-1.73-1-2.05-2.47-2-6.18,0-12.35.05-18.53,0-2,0-2.71.71-2.68,2.69.07,6.1.08,12.21,0,18.31C155.91,292.14,156.75,292.82,158.8,292.79Z"/><path class="cls-10" d="M253.87,211.84c-.93.46-2.07.66-2.13,2.1s.94,2.21,2.13,2.76v-4.86Z"/><path class="cls-15" d="M248.92,268.79c-5.91.15-11.82.17-17.73.23a7.72,7.72,0,0,0-3.68.55q0,10,0,20h0c-.27,2.48.89,3.31,3.3,3.27,5.91-.12,11.82-.09,17.73,0,2,0,2.69-.74,2.68-2.7,0-6.29.07-12.58.11-18.87C251.33,269.62,250.74,268.74,248.92,268.79Z"/><path class="cls-15" d="M251.16,221c0-6.89-.06-13.78.06-20.67,0-2.35-.77-3.14-3.1-3.1-6.87.11-13.74,0-20.61.05v22.65l.54,1.08Z"/><path class="cls-15" d="M227.47,253.34c-.06,2.37.59,3.4,3.16,3.33,5.81-.16,11.63-.15,17.43,0,2.58.07,3.2-1,3.16-3.33-.11-6.81-.05-13.63-.05-20.45H233.49c-6,0-6,0-6,5.92C227.51,243.66,227.6,248.5,227.47,253.34Z"/><path class="cls-16" d="M230,266.34c3.12-.09,6.25,0,9.38,0s6.26-.08,9.38,0c2.41.09,2.58-1.39,2.44-3.15s.75-3.87-2.25-3.86c-6.34,0-12.68,0-19,0-3,0-2.23,2.37-2.37,4.12S227.83,266.41,230,266.34Z"/><path class="cls-15" d="M245.36,301.94c4.94,0,4.94,0,6.35-4.33,0-.18,0-.35,0-.52l-.51-1.63c-5.72,0-11.44,0-17.16,0-7.11,0-6.49-.77-6.51,6.45h0Z"/><path class="cls-15" d="M247.8,230.23c2.49.05,3.71-.66,3.4-3.31a28.63,28.63,0,0,1,0-3.21c-5.7,0-11.39,0-17.09,0-7.62.06-6.46-1-6.58,6.46C234.27,230.17,241,230.09,247.8,230.23Z"/><path class="cls-20" d="M248.69,231.8c1.48,0,2.8-.28,2.9-2,.12-2,.57-4.1-.41-6.06a28.63,28.63,0,0,0,0,3.21c.31,2.65-.91,3.36-3.4,3.31-6.76-.14-13.53-.06-20.29-.06,1,1.06,3-.14,3.75,1.6,0,0,0,0,0,0h0C237.1,231.8,242.89,231.78,248.69,231.8Z"/><path class="cls-41" d="M227.51,269.57a4.1,4.1,0,0,0-.47,1.24q-.16,9-.24,18c0,.23.46.48.7.72h0Q227.52,279.54,227.51,269.57Z"/><path class="cls-26" d="M251.18,295.46l.51,1.63C253,296.08,251.57,295.93,251.18,295.46Z"/><path class="cls-41" d="M227.51,161.66a1.64,1.64,0,0,0-.66,1.62c.07,3.92.05,7.84.14,11.75,0,1.67-.42,3.4.52,5V161.67Z"/><path class="cls-10" d="M227,200.38a5,5,0,0,1,.54-3.11h0c.83-.86,2.24-.16,3.33-1.11-2.18-1.07-4.09-2.11-5-4.49-.93,1.45-.08,2.55-.08,3.67-.05,7.69,0,15.37-.1,23.06,0,1.22.5,1.09,1.26,1Z"/><path class="cls-41" d="M227.51,197.28h0a5,5,0,0,0-.54,3.11v19l.54.54Z"/><path class="cls-41" d="M227.29,322.85s.15.09.22.13v-17.8h0C226.49,311.05,226.89,317,227.29,322.85Z"/><path class="cls-42" d="M139.87,341.29a5.49,5.49,0,0,0,4.5.16C142.41,340.59,141.15,340.65,139.87,341.29Z"/><path class="cls-15" d="M159.34,340.73c-2.48-.05-3.75.63-3.38,3.29,0,.17,0,.35,0,.52h0c6.66.43,13.3,1,20,.12,3.57-.45,3.61-.14,3.66-3.87h0C172.87,340.78,166.1,340.87,159.34,340.73Z"/><path class="cls-10" d="M156,338.08a2.35,2.35,0,0,0,2,1.06l17.82,0c.81,0,1.26-.23.59-1.07H156Z"/><path class="cls-10" d="M176.9,340.15v-.27H160.32v.27Z"/><path class="cls-37" d="M176.4,246.38a9.37,9.37,0,0,1-.11,1.3c-.17.75-.6,1.27-1.46,1.13A1,1,0,0,1,174,248c-.14-.87.37-1.3,1.13-1.47a11.21,11.21,0,0,1,1.3-.11c-.59-.57-1.85-.86-1.22-2,.77-1.4,1.88-.09,2.84-.15a4.6,4.6,0,0,0-6.14.55c-1.4,1.58-1.12,3.82.75,5.93,1.82-.67,3.77-1,5.46-2,.46-.29.84-.18,1,.39h0c.93-1.59.06-2.94-.55-4.33C178.23,245.82,178.36,247.48,176.4,246.38Z"/><path class="cls-43" d="M178.09,248.69c-1.69,1-3.64,1.33-5.46,2,2.53,1.84,4.74,1.29,6.48-1.61h0C178.93,248.51,178.55,248.4,178.09,248.69Z"/><path class="cls-44" d="M175.18,244.36c-.63,1.15.63,1.44,1.22,2h0c2,1.1,1.83-.56,2.16-1.63l-.54-.54C177.06,244.27,176,243,175.18,244.36Z"/><polygon class="cls-15" points="179.1 292.23 179.1 292.23 179.1 292.23 179.1 292.23 179.1 292.23"/><path class="cls-15" d="M179.1,272.31c0-1.46-.11-2.74-2-2.73q-9,0-18,0c-1.49,0-1.9.65-1.44,2a9.63,9.63,0,0,1,.18,6.35c-1.05,2.83-.66,5.67-.71,8.51,0,1.25.68,2.44.32,3.72-.46,1.69.35,2,1.84,2,6.62,0,13.23,0,19.85.08Q179.1,282.27,179.1,272.31Z"/><path class="cls-45" d="M176.4,246.37a11.21,11.21,0,0,0-1.3.11c-.76.17-1.27.6-1.13,1.47a1,1,0,0,0,.86.86c.86.14,1.29-.38,1.46-1.13a9.37,9.37,0,0,0,.11-1.3Z"/><text class="cls-1" transform="translate(126.24 426.32) rotate(-90)">G</text><text class="cls-1" transform="translate(126.24 411.56) rotate(-90)">N</text><text class="cls-1" transform="translate(126.24 395.96) rotate(-90)">D</text><text class="cls-1" transform="translate(157.7 425.25) rotate(-90)">V</text><text class="cls-1" transform="translate(157.7 410.77) rotate(-90)">C</text><text class="cls-1" transform="translate(157.7 397.03) rotate(-90)">C</text><text class="cls-1" transform="translate(225.65 423.62) rotate(-90)">S</text><text class="cls-1" transform="translate(225.65 410.83) rotate(-90)">I</text><text class="cls-1" transform="translate(225.65 404.52) rotate(-90)">G</text></g></g></svg>