<svg xmlns="http://www.w3.org/2000/svg" width="150" height="120" viewBox="0 0 768.82 642.16"><defs><style>.cls-1{font-size:19.86px;font-family:Montserrat-Bold, Montserrat;font-weight:700;}.cls-1,.cls-5{fill:#fff;}.cls-2{fill:none;}.cls-3{fill:#ff2b2b;}.cls-4{fill:#004684;}.cls-6{fill:#2e2d2d;}.cls-7{fill:#f6e089;}.cls-8{fill:#a6a6a6;}.cls-9{fill:#272626;}.cls-10{fill:#d9d9d9;}.cls-11{fill:#545454;}.cls-12{fill:#f1eddd;}.cls-13{fill:#d3d2d2;}.cls-14{fill:#e8e5d7;}</style></defs><title>Asset 1</title><g id="Layer_2" data-name="Layer 2"><g id="Layer_1-2" data-name="Layer 1"><text class="cls-1" transform="translate(126.12 556.59) rotate(-90)">G</text><text class="cls-1" transform="translate(126.12 541.84) rotate(-90)">N</text><text class="cls-1" transform="translate(126.12 526.24) rotate(-90)">D</text><text class="cls-1" transform="translate(159.19 554.77) rotate(-90)">V</text><text class="cls-1" transform="translate(159.19 540.3) rotate(-90)">C</text><text class="cls-1" transform="translate(159.19 526.56) rotate(-90)">C</text><text class="cls-1" transform="translate(228.42 552.88) rotate(-90)">O</text><text class="cls-1" transform="translate(228.42 536.9) rotate(-90)">U</text><text class="cls-1" transform="translate(228.42 521.85) rotate(-90)">T</text><path class="cls-2" d="M514.9-389.66h2.78v-77.16a6.75,6.75,0,0,0-6.72-6.73H84.1a6.75,6.75,0,0,0-6.72,6.73v39.59h.12v44.06a28.38,28.38,0,0,1,9.59,21.31H199v28.48H320.64c-.57-1.17-1.12-2.35-1.62-3.56-.76-1.84-1.44-3.72-2-5.64s-1.06-3.85-1.45-5.81a59.27,59.27,0,0,1-.88-5.93,59.71,59.71,0,0,1-.3-6,59.91,59.91,0,0,1,.3-6,59.71,59.71,0,0,1,.88-5.93c.39-2,.87-3.89,1.45-5.81s1.26-3.79,2-5.64,1.62-3.65,2.56-5.42,2-3.47,3.08-5.14,2.3-3.26,3.57-4.81a58.45,58.45,0,0,1,4-4.44,58.32,58.32,0,0,1,4.44-4,59.84,59.84,0,0,1,4.81-3.57c1.66-1.12,3.38-2.14,5.14-3.09s3.57-1.79,5.42-2.56,3.73-1.44,5.64-2,3.85-1.06,5.81-1.45a59.27,59.27,0,0,1,5.93-.88,59.91,59.91,0,0,1,6-.3,59.86,59.86,0,0,1,6,.3,59.27,59.27,0,0,1,5.93.88q2.94.58,5.81,1.45c1.91.58,3.8,1.26,5.64,2s3.66,1.62,5.42,2.56,3.48,2,5.14,3.09a59.84,59.84,0,0,1,4.81,3.57,58.32,58.32,0,0,1,4.44,4,58.45,58.45,0,0,1,4,4.44q1.91,2.32,3.57,4.81c1.11,1.67,2.13,3.38,3.08,5.14s1.79,3.57,2.56,5.42,1.44,3.73,2,5.64,1.06,3.85,1.45,5.81a59.71,59.71,0,0,1,.88,5.93,59.91,59.91,0,0,1,.3,6,59.71,59.71,0,0,1-.3,6,59.27,59.27,0,0,1-.88,5.93q-.58,2.94-1.45,5.81a58.16,58.16,0,0,1-2,5.64c-.5,1.21-1.05,2.39-1.62,3.56H473.7V-324h41.2Z" transform="translate(109.65 508.72)"/><path class="cls-2" d="M71.18-387.42v-79.4A12.94,12.94,0,0,1,84.1-479.75H511a12.94,12.94,0,0,1,12.92,12.93v77.16h2.78V-324h77.1v-65.7h2.75V-495.79a6.75,6.75,0,0,0-6.7-6.73H55.11a6.75,6.75,0,0,0-6.7,6.73v107.34a28.3,28.3,0,0,1,10.2-1.89A28.31,28.31,0,0,1,71.18-387.42Z" transform="translate(109.65 508.72)"/><path class="cls-3" d="M523.88-466.82A12.94,12.94,0,0,0,511-479.75H84.1a12.94,12.94,0,0,0-12.92,12.93v79.4l.63.32v-40.13h5.57v-39.59a6.75,6.75,0,0,1,6.72-6.73H511a6.75,6.75,0,0,1,6.72,6.73v77.16h6.2Z" transform="translate(109.65 508.72)"/><path d="M47.46-388.07c.31-.14.63-.26.95-.38V-495.79a6.75,6.75,0,0,1,6.7-6.73h544.7a6.75,6.75,0,0,1,6.7,6.73v106.13h6.18V-495.79a12.93,12.93,0,0,0-12.88-12.93H55.11a12.93,12.93,0,0,0-12.88,12.93v64.72h5.23Z" transform="translate(109.65 508.72)"/><path class="cls-4" d="M64.23-333.94h7.58v-2.69A28.15,28.15,0,0,1,64.23-333.94Z" transform="translate(109.65 508.72)"/><path class="cls-4" d="M198.4-202.75a41,41,0,0,1-28.48-39,41,41,0,0,1,28.48-39v-52.61H199v-28.48H87.09a28.4,28.4,0,0,1-9.59,21.3v6.61H106v73.34H71.66v3.71a5.64,5.64,0,0,1,2.52,4.71,5.64,5.64,0,0,1-1.9,4.22h4.29v5.75h0v38.39h0v6H54.94v-49.25a5.71,5.71,0,0,1-2.44.56,5.67,5.67,0,0,1-5.67-5.67,5.6,5.6,0,0,1,.37-2H45.9v-6.41H11.28v-73.34H41.77v-5a28.42,28.42,0,0,1-11.63-23H-81.17v81.09a41,41,0,0,1,28.48,39,41,41,0,0,1-28.48,39V.69A28.48,28.48,0,0,1-52.69,29.17,28.48,28.48,0,0,1-81.17,57.65v75.8H18.27a40,40,0,0,1,.66-6.53H-19.36V53.58H15V47.16h88.48v6.42h34.07v73.34H99.45a42.37,42.37,0,0,1,.66,6.53H199V49.66l-.56,0a28.48,28.48,0,0,1,0-57l.56,0v-5.26h-.56ZM118.91-102.07v26.64h0v11.74H97.28v-50.13h21.63v11.75Zm-10.87-36a3.1,3.1,0,0,1-3.1,3.1H97.17v8.54H93.49V-135H85v8.54H81.3V-135H73.68v8.58H70V-135H62.25v8.54H58.58V-135H50.69a3.1,3.1,0,0,1-3.09-3.1v-37.47a3.1,3.1,0,0,1,3.09-3.1h7.89v-9h3.67v9H70v-9h3.67v9H81.3v-9H85v9h8.52v-9h3.68v9h7.77a3.1,3.1,0,0,1,3.1,3.1ZM89-102.07v26.64h0v11.74H67.32v-50.13H89v11.75ZM108-178.59a6.57,6.57,0,0,1,6.57-6.57,6.57,6.57,0,0,1,6.57,6.57,6.57,6.57,0,0,1-6.57,6.56A6.57,6.57,0,0,1,108-178.59ZM84.51-257.85a5.67,5.67,0,0,1,5.67,5.67,5.6,5.6,0,0,1-1.9,4.22h8.08a5.64,5.64,0,0,1-1.9-4.22,5.67,5.67,0,0,1,5.67-5.67,5.67,5.67,0,0,1,5.67,5.67,5.64,5.64,0,0,1-1.9,4.22h.83v11.76h0v26.64h0v11.74H83.1V-246.7a5.65,5.65,0,0,1-4.25-5.48A5.66,5.66,0,0,1,84.51-257.85Zm-38,9.89v11.76h0v26.64h0v11.74H24.9V-248Zm-25.85-9.89a5.67,5.67,0,0,1,5.67,5.67,5.67,5.67,0,0,1-5.67,5.67A5.67,5.67,0,0,1,15-252.18,5.67,5.67,0,0,1,20.68-257.85ZM.56,4.38h-67v-67h67ZM7-182.68H28.66v11.75h0v26.65h0v11.74H7Zm1.07,119v-50.13H29.73v11.75h0v26.64h0v11.74Zm30.51,47h0V-4.93H17V-55.07H38.61v11.75h0Zm.12-97.15H60.36v11.75h0v26.64h0v11.74H38.73ZM108-11a3.1,3.1,0,0,1-3.1,3.1H97.17V.65H93.49V-7.89H85V.65H81.3V-7.89H73.68V.69H70V-7.89H62.25V.65H58.58V-7.89H50.69A3.1,3.1,0,0,1,47.6-11V-48.46a3.1,3.1,0,0,1,3.09-3.1h7.89v-9h3.67v9H70v-9h3.67v9H81.3v-9H85v9h8.52v-9h3.68v9h7.77a3.1,3.1,0,0,1,3.1,3.1Zm32.46-5.68h0V-4.93H118.86V-55.07H140.5v11.75h0Zm6.91-58.76h0v11.74H125.78v-50.13h21.63v11.75h0Z" transform="translate(109.65 508.72)"/><path class="cls-4" d="M56.27-248h8.47a5.64,5.64,0,0,1-1.9-4.22,5.6,5.6,0,0,1,.37-2H57.79a5.61,5.61,0,0,1,.38,2A5.64,5.64,0,0,1,56.27-248Z" transform="translate(109.65 508.72)"/><path class="cls-4" d="M53-333.94a28.72,28.72,0,0,1-5.54-1.71v1.71Z" transform="translate(109.65 508.72)"/><path class="cls-4" d="M77.5-383.17v13.3a20.54,20.54,0,0,1,1.62,8,20.49,20.49,0,0,1-1.62,8v13.31a28.4,28.4,0,0,0,9.59-21.3h0A28.38,28.38,0,0,0,77.5-383.17Z" transform="translate(109.65 508.72)"/><path class="cls-4" d="M58.61-382.37a20.4,20.4,0,0,1,13.2,4.82v-9.55l-.63-.32a28.31,28.31,0,0,0-12.57-2.92,28.3,28.3,0,0,0-10.2,1.89c-.32.12-.64.24-.95.38v9A20.37,20.37,0,0,1,58.61-382.37Z" transform="translate(109.65 508.72)"/><path class="cls-4" d="M53-333.94H64.23a28.15,28.15,0,0,0,7.58-2.69v-9.54a20.45,20.45,0,0,1-13.2,4.82,20.46,20.46,0,0,1-11.15-3.31v9A28.72,28.72,0,0,0,53-333.94Z" transform="translate(109.65 508.72)"/><path class="cls-4" d="M41.77-338.9v-11.28a20.37,20.37,0,0,1-3.67-11.68,20.33,20.33,0,0,1,3.67-11.68v-11.28a28.4,28.4,0,0,0-11.63,23h0A28.42,28.42,0,0,0,41.77-338.9Z" transform="translate(109.65 508.72)"/><path class="cls-4" d="M169.92,21.2A28.48,28.48,0,0,0,198.4,49.68l.56,0a28.47,28.47,0,0,0,0-56.92l-.56,0A28.48,28.48,0,0,0,169.92,21.2Zm49,0A20.51,20.51,0,1,1,198.4.69,20.51,20.51,0,0,1,218.91,21.2Z" transform="translate(109.65 508.72)"/><path class="cls-4" d="M-52.69,29.17A28.48,28.48,0,0,0-81.17.69a28.48,28.48,0,0,0-28.48,28.48A28.48,28.48,0,0,0-81.17,57.65,28.48,28.48,0,0,0-52.69,29.17ZM-81.17,49.68a20.51,20.51,0,0,1-20.51-20.51A20.51,20.51,0,0,1-81.17,8.66,20.51,20.51,0,0,1-60.66,29.17,20.51,20.51,0,0,1-81.17,49.68Z" transform="translate(109.65 508.72)"/><circle class="cls-4" cx="20.68" cy="-252.18" r="5.67" transform="translate(294.03 449.47) rotate(-45)"/><path class="cls-4" d="M56.27-248a5.64,5.64,0,0,0,1.9-4.22,5.61,5.61,0,0,0-.38-2H47.2a5.6,5.6,0,0,0-.37,2,5.67,5.67,0,0,0,5.67,5.67,5.71,5.71,0,0,0,2.44-.56V-248Z" transform="translate(109.65 508.72)"/><path class="cls-4" d="M63.21-254.19a5.6,5.6,0,0,0-.37,2,5.64,5.64,0,0,0,1.9,4.22h7.54a5.64,5.64,0,0,0,1.9-4.22,5.64,5.64,0,0,0-2.52-4.71v2.7Z" transform="translate(109.65 508.72)"/><path class="cls-4" d="M83.1-246.7V-248h5.18a5.6,5.6,0,0,0,1.9-4.22,5.67,5.67,0,0,0-5.67-5.67,5.66,5.66,0,0,0-5.66,5.67A5.65,5.65,0,0,0,83.1-246.7Z" transform="translate(109.65 508.72)"/><path class="cls-4" d="M105.8-252.18a5.67,5.67,0,0,0-5.67-5.67,5.67,5.67,0,0,0-5.67,5.67,5.64,5.64,0,0,0,1.9,4.22h7.54A5.64,5.64,0,0,0,105.8-252.18Z" transform="translate(109.65 508.72)"/><polygon class="cls-5" points="138.31 364.43 116.69 364.43 116.69 337.79 138.31 337.79 138.31 326.04 116.68 326.04 116.68 376.17 138.31 376.17 138.31 364.43"/><polygon class="cls-6" points="116.69 364.43 138.31 364.43 138.32 364.43 138.32 337.79 138.31 337.79 116.69 337.79 116.69 364.43"/><polygon class="cls-5" points="235.43 406.65 257.06 406.65 257.06 394.89 235.43 394.89 235.43 445.03 257.06 445.03 257.06 433.29 235.43 433.29 235.43 406.65"/><polygon class="cls-6" points="235.43 406.65 235.43 433.29 257.06 433.29 257.06 433.29 257.06 406.65 257.06 406.65 235.43 406.65"/><polygon class="cls-5" points="206.93 394.89 206.93 445.03 228.56 445.03 228.56 433.29 206.93 433.29 206.93 406.65 228.56 406.65 228.56 394.89 206.93 394.89"/><polygon class="cls-7" points="206.93 433.29 228.56 433.29 228.56 433.29 228.56 406.65 228.56 406.65 206.93 406.65 206.93 433.29"/><polygon class="cls-5" points="176.97 394.89 176.97 445.03 198.6 445.03 198.6 433.29 176.97 433.29 176.97 406.65 198.6 406.65 198.6 394.89 176.97 394.89"/><polygon class="cls-6" points="176.97 433.29 198.6 433.29 198.6 433.29 198.6 406.65 198.6 406.65 176.97 406.65 176.97 433.29"/><polygon class="cls-5" points="170.01 433.29 148.38 433.29 148.38 406.65 170.01 406.65 170.01 394.89 148.38 394.89 148.38 445.03 170.01 445.03 170.01 433.29"/><polygon class="cls-6" points="148.38 433.29 170.01 433.29 170.01 433.29 170.01 406.65 170.01 406.65 148.38 406.65 148.38 433.29"/><polygon class="cls-5" points="139.38 433.29 117.76 433.29 117.76 406.65 139.38 406.65 139.38 394.89 117.75 394.89 117.75 445.03 139.38 445.03 139.38 433.29"/><polygon class="cls-7" points="117.76 433.29 139.38 433.29 139.39 433.29 139.39 406.65 139.38 406.65 117.76 406.65 117.76 433.29"/><rect class="cls-8" x="179.66" y="500.82" width="3.68" height="8.58"/><rect class="cls-8" x="179.66" y="448.17" width="3.68" height="8.98"/><rect class="cls-8" x="203.14" y="448.13" width="3.68" height="9.02"/><rect class="cls-8" x="203.14" y="500.82" width="3.68" height="8.54"/><rect class="cls-8" x="190.95" y="448.13" width="3.68" height="9.02"/><rect class="cls-8" x="190.95" y="500.82" width="3.68" height="8.54"/><rect class="cls-8" x="168.23" y="500.82" width="3.68" height="8.54"/><rect class="cls-8" x="168.23" y="448.13" width="3.68" height="9.02"/><path class="cls-9" d="M104.94-51.56H50.69a3.1,3.1,0,0,0-3.09,3.1V-11a3.1,3.1,0,0,0,3.09,3.1h54.25A3.1,3.1,0,0,0,108-11V-48.46A3.1,3.1,0,0,0,104.94-51.56Z" transform="translate(109.65 508.72)"/><rect class="cls-8" x="179.66" y="373.7" width="3.68" height="8.58"/><rect class="cls-8" x="179.66" y="321.05" width="3.68" height="8.98"/><rect class="cls-8" x="203.14" y="373.7" width="3.68" height="8.54"/><rect class="cls-8" x="203.14" y="321.01" width="3.68" height="9.02"/><rect class="cls-8" x="190.95" y="373.7" width="3.68" height="8.54"/><rect class="cls-8" x="190.95" y="321.01" width="3.68" height="9.02"/><rect class="cls-8" x="168.23" y="373.7" width="3.68" height="8.54"/><rect class="cls-8" x="168.23" y="321.01" width="3.68" height="9.02"/><path class="cls-9" d="M104.94-178.68H50.69a3.1,3.1,0,0,0-3.09,3.1v37.47a3.1,3.1,0,0,0,3.09,3.1h54.25a3.1,3.1,0,0,0,3.1-3.1v-37.47A3.1,3.1,0,0,0,104.94-178.68Z" transform="translate(109.65 508.72)"/><polygon class="cls-5" points="228.52 465.4 250.15 465.4 250.15 453.65 228.51 453.65 228.51 503.78 250.15 503.78 250.15 492.04 228.52 492.04 228.52 465.4"/><polygon class="cls-7" points="228.52 465.4 228.52 492.04 250.15 492.04 250.15 492.04 250.15 465.4 250.15 465.4 228.52 465.4"/><polygon class="cls-5" points="126.63 465.4 148.26 465.4 148.26 453.65 126.63 453.65 126.63 503.78 148.26 503.78 148.26 492.04 126.63 492.04 126.63 465.4"/><polygon class="cls-6" points="126.63 465.4 126.63 492.04 148.26 492.04 148.26 492.04 148.26 465.4 148.26 465.4 126.63 465.4"/><path class="cls-10" d="M-66.41,4.38h67v-67h-67Zm14.25-37h3.5A16.21,16.21,0,0,1-37-44.8V-47h8.55v2.24A16.21,16.21,0,0,1-17-32.6h3.7V-24H-17.5a16.23,16.23,0,0,1-11,10.44v3.94H-37v-3.89A16.19,16.19,0,0,1-48.19-24h-4Z" transform="translate(109.65 508.72)"/><path class="cls-5" d="M-48.19-24A16.19,16.19,0,0,0-37-13.55V-24Z" transform="translate(109.65 508.72)"/><path class="cls-5" d="M-37-44.8A16.21,16.21,0,0,0-48.66-32.6H-37Z" transform="translate(109.65 508.72)"/><path class="cls-5" d="M-17-32.6A16.21,16.21,0,0,0-28.47-44.74V-32.6Z" transform="translate(109.65 508.72)"/><path class="cls-5" d="M-28.47-13.6A16.23,16.23,0,0,0-17.5-24h-11Z" transform="translate(109.65 508.72)"/><polygon class="cls-11" points="72.63 484.67 72.63 495.17 72.63 499.05 81.18 499.05 81.18 495.11 81.18 484.67 92.15 484.67 96.32 484.67 96.32 476.12 92.62 476.12 81.18 476.12 81.18 463.97 81.18 461.74 72.63 461.74 72.63 463.92 72.63 476.12 60.99 476.12 57.49 476.12 57.49 484.67 61.46 484.67 72.63 484.67"/><polygon class="cls-12" points="247.17 635.64 247.17 562.29 213.1 562.29 213.1 572.12 223.5 572.12 236.86 572.12 236.86 625.77 100.77 625.77 100.77 572.12 114.14 572.12 124.62 572.12 124.62 562.29 90.29 562.29 90.29 635.64 128.58 635.64 209.1 635.64 247.17 635.64"/><path class="cls-10" d="M113.88,74.44V84.59H4.49V74.44h0v-11H-8.88v53.66H127.21V63.4H113.85v11Zm2.93,12.47v18.2H98.6V86.91Zm-32.1,0v18.2H66.5V86.91Zm-32.32,0v18.2H34.18V86.91Zm-32.3,0v18.2H1.88V86.91Z" transform="translate(109.65 508.72)"/><rect class="cls-8" x="111.53" y="595.62" width="18.21" height="18.21"/><rect class="cls-8" x="143.83" y="595.62" width="18.21" height="18.21"/><rect class="cls-8" x="176.15" y="595.62" width="18.21" height="18.21"/><rect class="cls-8" x="208.25" y="595.62" width="18.21" height="18.21"/><polygon class="cls-4" points="124.62 572.12 213.1 572.12 213.1 562.29 213.1 555.87 124.62 555.87 124.62 562.29 124.62 572.12"/><polygon class="cls-12" points="114.14 572.12 114.14 583.16 223.5 583.16 223.5 572.12 213.1 572.12 124.62 572.12 114.14 572.12"/><polygon class="cls-10" points="114.14 593.3 223.53 593.3 223.53 583.16 223.5 583.16 114.14 583.16 114.14 583.16 114.14 593.3"/><polygon class="cls-12" points="187.15 184.63 205.16 184.63 205.16 238.29 191.79 238.29 191.79 238.3 181.31 238.3 181.31 248.12 215.64 248.12 215.64 174.77 187.15 174.77 187.15 183.18 187.15 184.63"/><polygon class="cls-12" points="181.46 184.63 181.46 174.77 173.88 174.77 162.65 174.77 157.11 174.77 157.11 183.18 157.11 184.63 181.46 184.63"/><polygon class="cls-12" points="155.55 238.3 143.91 238.3 143.91 238.29 130.9 238.29 130.9 184.63 151.42 184.63 151.42 174.77 120.92 174.77 120.92 248.12 155.55 248.12 155.55 238.3"/><polygon class="cls-10" points="130.9 238.29 143.91 238.29 143.91 227.26 136.49 227.26 136.49 217.11 191.79 217.11 191.79 227.26 191.79 227.26 191.79 238.29 205.16 238.29 205.16 184.63 187.15 184.63 187.15 196.58 194.39 196.58 194.39 214.79 176.18 214.79 176.18 196.58 181.46 196.58 181.46 184.63 157.11 184.63 157.11 196.58 162.09 196.58 162.09 214.79 143.88 214.79 143.88 196.58 151.42 196.58 151.42 184.63 130.9 184.63 130.9 238.29"/><polygon class="cls-8" points="176.18 196.58 176.18 214.79 194.39 214.79 194.39 196.58 187.15 196.58 187.15 206.93 181.46 206.93 181.46 196.58 176.18 196.58"/><polygon class="cls-8" points="143.88 214.79 162.09 214.79 162.09 196.58 157.11 196.58 157.11 206.93 151.42 206.93 151.42 196.58 143.88 196.58 143.88 214.79"/><polygon class="cls-4" points="181.31 238.3 155.55 238.3 155.55 248.12 155.55 254.53 156.85 254.53 167.44 254.53 172.86 254.53 181.31 254.53 181.31 251.82 181.31 248.12 181.31 238.3"/><polygon class="cls-12" points="191.79 227.26 143.91 227.26 143.91 238.29 143.91 238.3 155.55 238.3 181.31 238.3 191.79 238.3 191.79 238.29 191.79 227.26"/><polygon class="cls-10" points="191.79 227.26 191.79 227.26 191.79 217.11 136.49 217.11 136.49 227.26 143.91 227.26 191.79 227.26"/><circle class="cls-10" cx="224.26" cy="330.12" r="6.57"/><polygon class="cls-5" points="134.55 310.89 156.18 310.89 156.18 299.15 134.55 299.15 134.55 272.51 156.18 272.51 156.18 260.76 134.55 260.76 134.55 310.89"/><polygon class="cls-6" points="134.55 272.51 134.55 299.15 156.18 299.15 156.18 299.15 156.18 272.51 156.18 272.51 134.55 272.51"/><polygon class="cls-5" points="174.39 260.76 165.92 260.76 164.59 260.76 164.59 261.64 164.59 310.89 186.22 310.89 186.22 304.9 164.6 304.9 164.6 266.51 186.22 266.51 186.22 260.76 181.93 260.76 174.39 260.76"/><polygon class="cls-10" points="164.6 266.51 164.6 304.9 186.22 304.9 186.23 304.9 186.23 266.51 186.22 266.51 164.6 266.51"/><polygon class="cls-5" points="192.75 262.02 192.75 310.89 214.38 310.89 214.38 299.15 192.75 299.15 192.75 272.51 214.38 272.51 214.38 260.76 213.55 260.76 206.01 260.76 197.94 260.76 192.75 260.76 192.75 262.02"/><polygon class="cls-6" points="192.75 299.15 214.38 299.15 214.38 299.15 214.38 272.51 214.38 272.51 192.75 272.51 192.75 299.15"/><polygon points="151.42 158.53 151.42 169.81 151.42 174.77 151.42 184.63 151.42 196.58 151.42 206.93 157.11 206.93 157.11 196.58 157.11 184.63 157.11 183.18 157.11 174.77 157.11 173.06 157.11 164.05 157.11 129.65 157.11 120.64 157.11 77.64 151.88 77.64 151.42 77.64 151.42 123.89 151.42 135.17 151.42 158.53"/><polygon class="cls-3" points="187.15 138.84 187.15 125.54 187.15 81.48 187.03 81.48 181.46 81.48 181.46 121.62 181.46 131.16 181.46 162.54 181.46 172.09 181.46 174.77 181.46 184.63 181.46 196.58 181.46 206.93 187.15 206.93 187.15 196.58 187.15 184.63 187.15 183.18 187.15 174.77 187.15 168.16 187.15 154.86 187.15 138.84"/><polygon class="cls-13" points="768.82 184.76 725.17 184.76 725.17 199.76 751.99 199.76 751.99 254.69 751.99 472.92 751.99 480.33 715.02 480.33 715.02 480.36 658.83 480.36 658.83 480.33 599.3 480.33 599.3 199.76 624.55 199.76 624.55 184.76 583.35 184.76 583.35 495.19 768.82 495.19 768.82 184.76"/><polygon class="cls-13" points="636.31 199.76 662.92 199.76 662.92 255.29 663.17 255.29 663.17 299.16 688.37 299.16 688.37 254.69 688.37 199.76 713.41 199.76 713.41 184.76 636.31 184.76 636.31 199.76"/><polygon class="cls-14" points="599.55 473.52 599.55 255.29 624.55 255.29 624.55 254.54 624.55 199.76 599.3 199.76 599.3 480.33 658.83 480.33 658.83 473.52 599.55 473.52"/><polygon class="cls-14" points="662.92 199.76 636.31 199.76 636.31 205.68 636.31 254.54 636.31 255.29 662.92 255.29 662.92 199.76"/><polygon class="cls-14" points="688.37 472.92 688.37 299.16 663.17 299.16 663.17 473.52 658.83 473.52 658.83 480.33 658.83 480.36 715.02 480.36 715.02 480.33 688.37 480.33 688.37 472.92"/><polygon class="cls-14" points="725.17 254.54 725.17 254.69 751.99 254.69 751.99 199.76 725.17 199.76 725.17 205.68 725.17 254.54"/><polygon class="cls-14" points="688.37 254.69 713.41 254.69 713.41 254.54 713.41 199.76 688.37 199.76 688.37 254.69"/><polygon class="cls-14" points="688.37 472.92 688.37 480.33 715.02 480.33 751.99 480.33 751.99 472.92 688.37 472.92"/><polygon points="713.41 119.05 713.41 184.75 725.17 184.75 725.17 119.05 722.34 119.05 716.16 119.05 713.41 119.05"/><polygon class="cls-7" points="713.41 184.75 713.41 184.76 713.41 199.76 713.41 254.54 713.41 254.69 725.17 254.69 725.17 254.54 725.17 205.68 725.17 199.76 725.17 184.76 725.17 184.75 713.41 184.75"/><polygon points="633.53 119.05 627.33 119.05 624.55 119.05 624.55 184.75 636.31 184.75 636.31 119.05 633.53 119.05"/><polygon class="cls-14" points="713.41 254.69 688.37 254.69 688.37 299.16 688.37 472.92 751.99 472.92 751.99 254.69 725.17 254.69 713.41 254.69"/><polygon class="cls-7" points="624.55 255.29 636.31 255.29 636.31 254.54 636.31 205.68 636.31 199.76 636.31 184.76 636.31 184.75 624.55 184.75 624.55 184.76 624.55 199.76 624.55 254.54 624.55 255.29"/><polygon class="cls-14" points="662.92 255.29 636.31 255.29 624.55 255.29 599.55 255.29 599.55 473.52 658.83 473.52 663.17 473.52 663.17 299.16 663.17 255.29 662.92 255.29"/><text class="cls-1" transform="translate(192.54 552.21) rotate(-90)">N</text><text class="cls-1" transform="translate(192.54 536.61) rotate(-90)">C</text><text class="cls-1" transform="translate(126.53 555.73) rotate(-90)">G</text><text class="cls-1" transform="translate(126.53 540.98) rotate(-90)">N</text><text class="cls-1" transform="translate(126.53 525.37) rotate(-90)">D</text><text class="cls-1" transform="translate(159.59 553.91) rotate(-90)">V</text><text class="cls-1" transform="translate(159.59 539.44) rotate(-90)">C</text><text class="cls-1" transform="translate(159.59 525.7) rotate(-90)">C</text><text class="cls-1" transform="translate(228.83 552.02) rotate(-90)">O</text><text class="cls-1" transform="translate(228.83 536.04) rotate(-90)">U</text><text class="cls-1" transform="translate(228.83 520.99) rotate(-90)">T</text><text class="cls-1" transform="translate(192.94 551.35) rotate(-90)">N</text><text class="cls-1" transform="translate(192.94 535.74) rotate(-90)">C</text></g></g></svg>