<svg xmlns="http://www.w3.org/2000/svg" width="40" height="40" viewBox="0 0 280.14 330.3"><defs><style>.cls-1{fill:#004684;}.cls-2,.cls-9{fill:#fff;}.cls-3{fill:#2b2b2b;}.cls-4{fill:#e8e5d7;}.cls-5{fill:#c7d0d8;}.cls-6{fill:#fefefe;}.cls-7{fill:#737373;}.cls-8{fill:#f1eddd;}.cls-9{font-size:19.86px;font-family:Montserrat-Bold, Montserrat;font-weight:700;}</style></defs><title>Asset 1</title><g id="Layer_2" data-name="Layer 2"><g id="Layer_1-2" data-name="Layer 1"><path class="cls-1" d="M572.46,241h48.88V151.94a18.25,18.25,0,0,0-18.21-18.22H509.19a27.52,27.52,0,0,1,.29,4,28.48,28.48,0,1,1-57,0,27.52,27.52,0,0,1,.29-4H359.43a18.25,18.25,0,0,0-18.22,18.22v65.51a56.64,56.64,0,0,1,10,3v-15h3.57v-5h47.19a19.83,19.83,0,0,1,35.88-.28h20.1v13.79H439.1a19.76,19.76,0,0,1-3.44,6.93V225a20.17,20.17,0,0,1,0,19.45V295a20.18,20.18,0,0,1,0,19.46v1.31a24.76,24.76,0,0,1,7.18,15.11h7.23l22.27-12.06,4.84,8.94-19.26,10.43v6.48h-6.34a20.88,20.88,0,0,1,.27,3.18,20.22,20.22,0,0,1-37.82,10,24.84,24.84,0,0,1-16.42-10.55,26.81,26.81,0,0,1-2.22-2.76H354.75v-3.5h-3.57v-16a55.81,55.81,0,0,1-10,3v67.53a18.25,18.25,0,0,0,18.22,18.22h93.23c-.09-.92-.14-1.86-.14-2.8a28.48,28.48,0,1,1,57,0c0,.94-.05,1.88-.14,2.8h93.79a18.25,18.25,0,0,0,18.21-18.22V303.3H572.46ZM556.38,341.86h-46V322h46Zm-29.47-30.27A40.94,40.94,0,0,1,505,236.07H491.21V216.22h76.62v19.85h-19a40.94,40.94,0,0,1-21.91,75.52Z" transform="translate(-341.2 -109.23)"/><path class="cls-1" d="M481,166.18a28.48,28.48,0,0,0,28.48-28.48,27.52,27.52,0,0,0-.29-4,28.47,28.47,0,0,0-56.38,0,27.52,27.52,0,0,0-.29,4A28.48,28.48,0,0,0,481,166.18Zm0-49a20.51,20.51,0,1,1-20.51,20.51A20.51,20.51,0,0,1,481,117.19Z" transform="translate(-341.2 -109.23)"/><path class="cls-1" d="M481,382.57a28.48,28.48,0,0,0-28.48,28.48c0,.94.05,1.88.14,2.8a28.48,28.48,0,0,0,56.68,0c.09-.92.14-1.86.14-2.8A28.48,28.48,0,0,0,481,382.57Zm0,49a20.51,20.51,0,1,1,20.51-20.51A20.51,20.51,0,0,1,481,431.56Z" transform="translate(-341.2 -109.23)"/><path class="cls-1" d="M395.39,344.55a26.81,26.81,0,0,0,2.22,2.76,24.6,24.6,0,0,1-1.62-2.76Z" transform="translate(-341.2 -109.23)"/><path class="cls-1" d="M411.43,200.13h26.39a19.83,19.83,0,0,0-35.88.28h9.49Z" transform="translate(-341.2 -109.23)"/><path class="cls-1" d="M435.66,220.85a19.76,19.76,0,0,0,3.44-6.93h-3.44Z" transform="translate(-341.2 -109.23)"/><rect class="cls-2" x="169.17" y="212.79" width="10.78" height="19.85"/><rect class="cls-2" x="204.39" y="212.79" width="10.78" height="19.85"/><rect class="cls-3" x="179.95" y="212.79" width="24.44" height="19.85"/><path class="cls-2" d="M548.82,236.07H535.14a35.57,35.57,0,1,1-16.72,0H505a40.95,40.95,0,1,0,43.83,0Z" transform="translate(-341.2 -109.23)"/><path class="cls-4" d="M491.21,270.65a35.58,35.58,0,1,0,43.93-34.58H518.42A35.57,35.57,0,0,0,491.21,270.65Zm61.66-12.16a11.19,11.19,0,0,1-1.07,4.77,26,26,0,1,1-12.95-15.67,11.4,11.4,0,0,1,2.76-.35A11.25,11.25,0,0,1,552.87,258.49Z" transform="translate(-341.2 -109.23)"/><path class="cls-5" d="M541.61,269.75a11.25,11.25,0,0,1-2.76-22.16,25.95,25.95,0,1,0,12.95,15.67A11.26,11.26,0,0,1,541.61,269.75Z" transform="translate(-341.2 -109.23)"/><path class="cls-6" d="M530.36,258.49a11.26,11.26,0,1,0,11.25-11.25,11.4,11.4,0,0,0-2.76.35A11.25,11.25,0,0,0,530.36,258.49Z" transform="translate(-341.2 -109.23)"/><path class="cls-1" d="M411.4,347.89a20.88,20.88,0,0,1,.27-3.18h-.24v-.16H396a24.8,24.8,0,0,0,18,13.31A20.15,20.15,0,0,1,411.4,347.89Z" transform="translate(-341.2 -109.23)"/><path class="cls-1" d="M435.66,328.07a20.18,20.18,0,0,1,6.95,2.85h.23a24.76,24.76,0,0,0-7.18-15.11Z" transform="translate(-341.2 -109.23)"/><path class="cls-1" d="M438.16,304.77a20.08,20.08,0,0,0-2.5-9.73V314.5A20.14,20.14,0,0,0,438.16,304.77Z" transform="translate(-341.2 -109.23)"/><path class="cls-1" d="M430.6,353l-4.5-8.31H411.67a20.88,20.88,0,0,0-.27,3.18,20.23,20.23,0,1,0,40.45,0,20.88,20.88,0,0,0-.27-3.18H446Z" transform="translate(-341.2 -109.23)"/><path class="cls-1" d="M442.61,330.92a20.18,20.18,0,0,0-6.95-2.85v2.85Z" transform="translate(-341.2 -109.23)"/><path class="cls-1" d="M438.16,234.75a20.08,20.08,0,0,0-2.5-9.73v19.45A20.07,20.07,0,0,0,438.16,234.75Z" transform="translate(-341.2 -109.23)"/><polygon class="cls-1" points="116.72 229 135.98 218.57 131.14 209.63 108.87 221.69 116.72 221.69 116.72 229"/><polygon class="cls-1" points="89.39 243.79 104.74 235.49 84.89 235.49 89.39 243.79"/><rect class="cls-7" x="0.94" y="114.1" width="9.04" height="5.61"/><rect class="cls-7" x="0.01" y="176.87" width="13.54" height="5.61"/><rect class="cls-7" y="206.97" width="9.97" height="5.61"/><rect class="cls-7" x="0.93" y="144.85" width="12.62" height="5.61"/><polygon class="cls-8" points="70.22 96.2 70.22 91.19 60.74 91.19 13.55 91.19 13.55 96.2 70.22 96.2"/><path class="cls-8" d="M431.93,213.92v20.34H354.75v78h77.18v18.7h3.73v-117Zm-66.1,94.42V236.11h66.1v72.23Z" transform="translate(-341.2 -109.23)"/><polygon class="cls-8" points="70.22 235.32 70.22 231.82 13.55 231.82 13.55 235.32 54.19 235.32 54.79 235.32 70.22 235.32"/><path class="cls-8" d="M431.93,236.11h-66.1v72.23h66.1Zm-54.75,66v-59H406v59Z" transform="translate(-341.2 -109.23)"/><rect class="cls-4" x="35.98" y="133.86" width="28.83" height="58.99"/><polygon class="cls-8" points="70.22 91.19 70.22 96.2 90.73 96.2 90.73 104.7 94.46 104.7 97.89 104.7 116.72 104.7 116.72 90.91 96.61 90.91 70.22 90.91 70.22 91.19"/><polygon class="cls-4" points="9.97 119.72 9.97 125.03 13.55 125.03 90.73 125.03 90.73 104.7 90.73 96.2 70.22 96.2 13.55 96.2 9.97 96.2 9.97 111.25 9.97 114.1 9.97 119.72"/><polygon class="cls-8" points="94.46 221.69 90.73 221.69 90.73 231.82 70.22 231.82 70.22 235.32 70.22 235.49 70.47 235.49 84.89 235.49 104.74 235.49 110.37 235.49 116.72 235.49 116.72 229 116.72 221.69 108.87 221.69 101.64 221.69 101.4 221.69 94.46 221.69"/><polygon class="cls-4" points="70.22 231.82 90.73 231.82 90.73 221.69 90.73 202.99 13.55 202.99 9.97 202.99 9.97 206.97 9.97 212.58 9.97 215.86 9.97 231.82 13.55 231.82 70.22 231.82"/><polygon class="cls-1" points="193.94 126.84 207.62 126.84 226.63 126.84 226.63 107 150.01 107 150.01 126.84 163.79 126.84 177.22 126.84 193.94 126.84"/><text class="cls-9" transform="translate(98.75 124.42)">G</text><text class="cls-9" transform="translate(113.5 124.42)">N</text><text class="cls-9" transform="translate(129.1 124.42)">D</text><text class="cls-9" transform="translate(100.65 187.32)">N</text><text class="cls-9" transform="translate(116.26 187.32)">C</text><text class="cls-9" transform="translate(100.56 157.45)">V</text><text class="cls-9" transform="translate(115.04 157.45)">C</text><text class="cls-9" transform="translate(128.78 157.45)">C</text><text class="cls-9" transform="translate(100.99 216.74)">S</text><text class="cls-9" transform="translate(113.78 216.74)">I</text><text class="cls-9" transform="translate(120.09 216.74)">G</text></g></g></svg>