<svg xmlns="http://www.w3.org/2000/svg" width="120" height="30" viewBox="0 0 648.03 296.1"><defs><style>.cls-1{fill:#4c80c5;}.cls-2{fill:#0f54b1;}.cls-3{fill:#004aad;}.cls-4{fill:#faf7f7;}.cls-5{fill:#fff;}</style></defs><title>Asset 1</title><g id="Layer_2" data-name="Layer 2"><g id="Layer_1-2" data-name="Layer 1"><path class="cls-1" d="M512.48,307a16.5,16.5,0,0,1-1.36,1,14.4,14.4,0,0,1-1.46.87,15.37,15.37,0,0,1-1.53.73q-.78.31-1.59.57c-.54.16-1.09.3-1.64.41s-1.11.19-1.68.25-1.12.08-1.69.08-1.13,0-1.69-.08-1.12-.14-1.67-.25-1.1-.25-1.65-.41-1.07-.36-1.59-.57-1-.46-1.53-.73A14.26,14.26,0,0,1,492,308a16.5,16.5,0,0,1-1.36-1,16.91,16.91,0,0,1-1.26-1.13c-.39-.4-.77-.82-1.13-1.26a15,15,0,0,1-1-1.36c-.31-.47-.6-.95-.87-1.45a17.8,17.8,0,0,1-1.71-4.77,15.61,15.61,0,0,1-.24-1.67,15.91,15.91,0,0,1,0-3.38,16.17,16.17,0,0,1,.24-1.68,15.77,15.77,0,0,1,.42-1.64,17.68,17.68,0,0,1,1.29-3.12c.27-.5.56-1,.87-1.45a15,15,0,0,1,1-1.36c.36-.44.74-.86,1.13-1.26s.82-.78,1.26-1.14.89-.69,1.36-1a14.26,14.26,0,0,1,1.45-.87c.5-.27,1-.51,1.53-.73s1.05-.4,1.59-.57,1.09-.3,1.65-.41,1.11-.19,1.67-.25,1.13-.08,1.69-.08,1.13,0,1.69.08,1.12.14,1.68.25,1.1.25,1.64.41,1.07.36,1.59.57a15.37,15.37,0,0,1,1.53.73,14.4,14.4,0,0,1,1.46.87c.46.31.91.64,1.34,1h22.12V194.64a29,29,0,0,0-29-29H471.44V421.12h34.17a29,29,0,0,0,29-29V306.91H512.53Z" transform="translate(113.44 -125.02)"/><path class="cls-1" d="M-84.47,165.61a29,29,0,0,0-29,29v85.63h18.3c.43-.35.88-.68,1.34-1a14.26,14.26,0,0,1,1.45-.87c.5-.27,1-.51,1.53-.73s1-.4,1.59-.57,1.09-.3,1.65-.41,1.11-.19,1.67-.25,1.13-.08,1.69-.08,1.13,0,1.69.08,1.12.14,1.68.25,1.1.25,1.64.41,1.07.36,1.59.57a15.37,15.37,0,0,1,1.53.73,14.4,14.4,0,0,1,1.46.87c.47.31.92.65,1.36,1s.85.74,1.25,1.14.78.82,1.14,1.26.69.89,1,1.36.6.95.87,1.45.5,1,.72,1.53a15.05,15.05,0,0,1,.57,1.59c.16.54.3,1.09.41,1.64s.19,1.12.25,1.68.08,1.12.08,1.69,0,1.13-.08,1.69-.14,1.12-.25,1.67-.25,1.11-.41,1.65a15.05,15.05,0,0,1-.57,1.59q-.33.78-.72,1.53c-.27.5-.56,1-.87,1.45s-.65.93-1,1.36-.74.86-1.14,1.26-.82.77-1.25,1.13a16.5,16.5,0,0,1-1.36,1,14.4,14.4,0,0,1-1.46.87,15.37,15.37,0,0,1-1.53.73q-.78.31-1.59.57c-.54.16-1.09.3-1.64.41s-1.11.19-1.68.25-1.12.08-1.69.08-1.13,0-1.69-.08-1.12-.14-1.67-.25-1.1-.25-1.65-.41-1.07-.36-1.59-.57-1-.46-1.53-.73A14.26,14.26,0,0,1-93.8,308a16.5,16.5,0,0,1-1.36-1l0,0h-18.23v85.18a29,29,0,0,0,29,29h34.76V165.61Z" transform="translate(113.44 -125.02)"/><path class="cls-2" d="M240.74,165.61l54.86,12.58c.49-.21,1-.43,1.48-.63q2.85-1.19,5.76-2.22c1.93-.7,3.88-1.34,5.85-1.94s3.95-1.14,5.94-1.64,4-.95,6-1.35,4-.75,6.07-1.06,4.08-.55,6.12-.75,4.1-.35,6.15-.45,4.11-.16,6.17-.16,4.11,0,6.16.16,4.1.25,6.15.45,4.09.45,6.12.75,4.06.66,6.08,1.06,4,.85,6,1.35,4,1.05,5.94,1.64,3.92,1.24,5.86,1.94,3.85,1.43,5.75,2.22,3.78,1.62,5.64,2.5,3.69,1.8,5.51,2.77,3.6,2,5.36,3,3.5,2.15,5.21,3.3,3.39,2.32,5,3.55,3.27,2.49,4.86,3.79,3.15,2.65,4.67,4,3,2.79,4.47,4.25,2.87,2.94,4.25,4.46,2.72,3.08,4,4.67,2.57,3.21,3.79,4.86,2.41,3.34,3.55,5.05,2.24,3.44,3.3,5.2,2.07,3.56,3,5.37,1.89,3.65,2.77,5.51,1.71,3.73,2.5,5.63,1.53,3.82,2.22,5.76,1.34,3.88,1.93,5.85,1.15,4,1.65,5.94,1,4,1.35,6,.75,4,1.05,6.08.56,4.07.76,6.12.35,4.09.45,6.14.15,4.11.15,6.17,0,4.11-.15,6.16-.25,4.11-.45,6.15-.46,4.09-.76,6.12-.65,4.06-1.05,6.08-.85,4-1.35,6-1,4-1.65,5.95-1.24,3.91-1.93,5.85-1.43,3.85-2.22,5.75-1.62,3.78-2.5,5.64-1.8,3.69-2.77,5.51-2,3.6-3,5.36-2.16,3.5-3.3,5.21-2.33,3.39-3.55,5-2.49,3.28-3.79,4.86-2.65,3.15-4,4.67-2.8,3-4.25,4.47-2.94,2.87-4.47,4.25-3.08,2.72-4.67,4-3.21,2.57-4.86,3.79-3.33,2.41-5,3.55-3.45,2.24-5.21,3.3-3.55,2.07-5.36,3-3.65,1.89-5.51,2.77-3.74,1.71-5.64,2.5-3.82,1.53-5.75,2.22-3.89,1.34-5.86,1.93-3.94,1.15-5.94,1.65-4,.95-6,1.35-4.05.75-6.08,1.05-4.07.56-6.12.76-4.1.35-6.15.45-4.11.15-6.16.15-4.11-.05-6.17-.15-4.1-.25-6.15-.45-4.08-.45-6.12-.76-4.05-.65-6.07-1.05-4-.85-6-1.35-4-1.05-5.94-1.65-3.92-1.24-5.85-1.93-3.86-1.43-5.76-2.22-3.78-1.62-5.63-2.5-3.7-1.8-5.51-2.77-3.6-2-5.37-3-3.5-2.16-5.21-3.3-3.39-2.32-5-3.55-3.27-2.49-4.86-3.79-3.14-2.65-4.67-4-3-2.8-4.46-4.25-2.87-2.94-4.25-4.47-2.73-3.08-4-4.67-2.57-3.21-3.8-4.86-2.4-3.33-3.55-5-2.24-3.44-3.29-5.21-2.07-3.55-3-5.36-1.9-3.65-2.78-5.51-1.71-3.74-2.49-5.64c-.17-.4-.33-.82-.5-1.22l-194-116.38.24-.41a52.38,52.38,0,0,1-10.27-8L21.77,214l.48-.78a53.36,53.36,0,0,1-11.84-47.62H-49.71V421.12H471.44V165.61Z" transform="translate(113.44 -125.02)"/><path class="cls-3" d="M365,194c1.63.32,3.26.69,4.87,1.09,1.37.34,2.73.72,4.08,1.12l1.9.44,0,.13c1.21.38,2.41.78,3.59,1.2q2.36.84,4.66,1.8t4.56,2c1.5.71,3,1.46,4.45,2.24s2.92,1.61,4.34,2.46,2.83,1.75,4.22,2.67,2.74,1.88,4.08,2.87,2.64,2,3.93,3.07,2.54,2.14,3.77,3.26,2.44,2.26,3.62,3.44,2.32,2.38,3.44,3.61,2.2,2.49,3.25,3.78,2.08,2.6,3.07,3.93,2,2.7,2.88,4.08,1.81,2.79,2.66,4.21,1.68,2.88,2.46,4.34,1.53,3,2.25,4.46,1.38,3,2,4.56,1.23,3.09,1.79,4.65,1.08,3.15,1.57,4.74.92,3.19,1.33,4.81.77,3.23,1.09,4.86.61,3.27.85,4.92.45,3.29.61,5,.29,3.31.37,5,.12,3.33.12,5,0,3.32-.12,5-.2,3.31-.37,5-.36,3.31-.61,4.95-.53,3.28-.85,4.91-.69,3.26-1.09,4.87-.85,3.22-1.33,4.81-1,3.17-1.57,4.74-1.16,3.11-1.79,4.65-1.31,3.06-2,4.56-1.46,3-2.25,4.45-1.6,2.92-2.46,4.34-1.74,2.84-2.66,4.22-1.89,2.74-2.88,4.08-2,2.64-3.07,3.93-2.14,2.54-3.25,3.78-2.27,2.43-3.44,3.61-2.38,2.32-3.62,3.44-2.49,2.2-3.77,3.26-2.6,2.07-3.93,3.06-2.7,1.95-4.08,2.88-2.79,1.81-4.22,2.67-2.87,1.67-4.34,2.45-2.95,1.54-4.45,2.25-3,1.38-4.56,2-3.09,1.23-4.66,1.79-3.14,1.09-4.73,1.57-3.2.92-4.81,1.33-3.24.77-4.87,1.09-3.27.61-4.91.85-3.3.45-4.95.61-3.31.29-5,.37-3.32.12-5,.12-3.33,0-5-.12-3.32-.2-5-.37-3.31-.36-4.95-.61-3.29-.52-4.92-.85-3.25-.69-4.87-1.09-3.21-.85-4.8-1.33-3.17-1-4.74-1.57c-1.31-.47-2.61-1-3.91-1.49l0,.07-.45-.27-.25-.1q-2.31-1-4.56-2c-1.51-.71-3-1.46-4.46-2.25s-2.91-1.6-4.34-2.45-2.83-1.75-4.21-2.67-2.74-1.88-4.08-2.88-2.65-2-3.93-3.06c-.43-.35-.83-.73-1.25-1.08l-5.95-3.63-17-10.28L228.6,340.47c.17.4.33.82.5,1.22q1.17,2.85,2.49,5.64c.88,1.86,1.81,3.69,2.78,5.51s2,3.6,3,5.36,2.15,3.5,3.29,5.21,2.33,3.39,3.55,5,2.49,3.28,3.8,4.86,2.64,3.15,4,4.67,2.79,3,4.25,4.47,2.94,2.87,4.46,4.25,3.08,2.72,4.67,4,3.21,2.57,4.86,3.79,3.33,2.41,5,3.55,3.45,2.24,5.21,3.3,3.55,2.07,5.37,3,3.65,1.89,5.51,2.77,3.73,1.71,5.63,2.5,3.82,1.53,5.76,2.22,3.88,1.34,5.85,1.93,3.95,1.15,5.94,1.65,4,.95,6,1.35,4,.75,6.07,1.05,4.08.56,6.12.76,4.1.35,6.15.45,4.11.15,6.17.15,4.11-.05,6.16-.15,4.1-.25,6.15-.45,4.09-.45,6.12-.76,4.06-.65,6.08-1.05,4-.85,6-1.35,4-1.05,5.94-1.65,3.92-1.24,5.86-1.93,3.85-1.43,5.75-2.22,3.78-1.62,5.64-2.5,3.69-1.8,5.51-2.77,3.6-2,5.36-3,3.5-2.16,5.21-3.3,3.39-2.32,5-3.55,3.27-2.49,4.86-3.79,3.15-2.65,4.67-4,3-2.8,4.47-4.25,2.87-2.94,4.25-4.47,2.72-3.08,4-4.67,2.57-3.21,3.79-4.86,2.41-3.33,3.55-5,2.24-3.44,3.3-5.21,2.07-3.55,3-5.36,1.89-3.65,2.77-5.51,1.71-3.74,2.5-5.64,1.53-3.81,2.22-5.75,1.34-3.89,1.93-5.85,1.15-3.95,1.65-5.95,1-4,1.35-6,.75-4,1.05-6.08.56-4.07.76-6.12.35-4.09.45-6.15.15-4.11.15-6.16,0-4.11-.15-6.17-.25-4.1-.45-6.14-.46-4.09-.76-6.12-.65-4.06-1.05-6.08-.85-4-1.35-6-1-4-1.65-5.94-1.24-3.92-1.93-5.85-1.43-3.86-2.22-5.76-1.62-3.77-2.5-5.63-1.8-3.7-2.77-5.51-2-3.6-3-5.37-2.16-3.5-3.3-5.2-2.33-3.39-3.55-5.05-2.49-3.27-3.79-4.86-2.65-3.14-4-4.67-2.8-3-4.25-4.46-2.94-2.87-4.47-4.25-3.08-2.73-4.67-4-3.21-2.57-4.86-3.79-3.33-2.41-5-3.55-3.45-2.25-5.21-3.3-3.55-2.07-5.36-3-3.65-1.9-5.51-2.77-3.74-1.72-5.64-2.5-3.82-1.53-5.75-2.22-3.89-1.34-5.86-1.94-3.94-1.14-5.94-1.64-4-.95-6-1.35-4.05-.75-6.08-1.06-4.07-.55-6.12-.75-4.1-.35-6.15-.45-4.11-.16-6.16-.16-4.11,0-6.17.16-4.1.25-6.15.45-4.08.45-6.12.75-4.05.66-6.07,1.06-4,.85-6,1.35-4,1.05-5.94,1.64-3.92,1.24-5.85,1.94-3.86,1.43-5.76,2.22c-.5.2-1,.42-1.48.63l66.13,15.17C362.82,193.54,363.9,193.73,365,194Z" transform="translate(113.44 -125.02)"/><path class="cls-4" d="M365,194c-1.08-.22-2.16-.41-3.25-.59l12.2,2.8c-1.35-.4-2.71-.78-4.08-1.12C368.24,194.64,366.61,194.27,365,194Z" transform="translate(113.44 -125.02)"/><path class="cls-4" d="M379.85,209.27c1.39.57,2.77,1.18,4.13,1.83s2.71,1.32,4,2,2.64,1.46,3.94,2.23,2.56,1.58,3.82,2.42,2.48,1.71,3.69,2.6,2.4,1.83,3.57,2.79,2.31,1.94,3.42,3,2.21,2,3.28,3.12,2.1,2.15,3.12,3.27,2,2.26,2.95,3.43,1.88,2.35,2.78,3.56,1.77,2.44,2.61,3.7,1.64,2.53,2.41,3.82,1.52,2.6,2.23,3.93,1.39,2.68,2,4,1.25,2.74,1.83,4.14,1.12,2.8,1.63,4.21,1,2.86,1.41,4.3.84,2.89,1.21,4.36.7,2.93,1,4.41.55,3,.77,4.45.41,3,.56,4.49.26,3,.33,4.51.11,3,.11,4.52,0,3-.11,4.52-.18,3-.33,4.51-.33,3-.56,4.49-.47,3-.77,4.46-.62,2.94-1,4.41-.77,2.91-1.21,4.36-.91,2.87-1.41,4.29-1,2.82-1.63,4.22-1.19,2.77-1.83,4.13-1.33,2.71-2,4-1.45,2.64-2.23,3.94-1.58,2.56-2.41,3.82-1.71,2.48-2.61,3.69-1.82,2.4-2.78,3.57-1.94,2.3-2.95,3.42-2.06,2.21-3.12,3.28-2.16,2.1-3.28,3.11-2.26,2-3.42,3-2.35,1.88-3.57,2.78-2.44,1.77-3.69,2.6-2.53,1.65-3.82,2.42-2.61,1.52-3.94,2.23-2.67,1.39-4,2-2.74,1.25-4.13,1.83-2.8,1.12-4.22,1.63-2.85,1-4.29,1.41-2.9.84-4.36,1.21-2.93.7-4.41,1-3,.55-4.46.77-3,.41-4.49.56-3,.26-4.51.33-3,.11-4.52.11-3,0-4.52-.11-3-.19-4.51-.33-3-.34-4.48-.56-3-.48-4.46-.77-2.95-.62-4.41-1-2.92-.77-4.36-1.21-2.87-.91-4.29-1.41c-.68-.25-1.34-.52-2-.78L307,387.81c1.3.52,2.6,1,3.91,1.49,1.57.56,3.15,1.09,4.74,1.57s3.19.92,4.8,1.33,3.24.77,4.87,1.09,3.27.61,4.92.85,3.29.45,4.95.61,3.31.29,5,.37,3.32.12,5,.12,3.32,0,5-.12,3.32-.2,5-.37,3.3-.36,4.95-.61,3.28-.52,4.91-.85,3.26-.69,4.87-1.09,3.22-.85,4.81-1.33,3.17-1,4.73-1.57,3.12-1.16,4.66-1.79,3.05-1.31,4.56-2,3-1.46,4.45-2.25,2.92-1.6,4.34-2.45,2.83-1.75,4.22-2.67,2.74-1.88,4.08-2.88,2.64-2,3.93-3.06,2.54-2.15,3.77-3.26,2.44-2.27,3.62-3.44,2.32-2.38,3.44-3.61,2.2-2.5,3.25-3.78,2.08-2.6,3.07-3.93,2-2.7,2.88-4.08,1.81-2.79,2.66-4.22,1.68-2.87,2.46-4.34,1.53-2.95,2.25-4.45,1.38-3,2-4.56,1.23-3.09,1.79-4.65,1.08-3.15,1.57-4.74.92-3.19,1.33-4.81.77-3.23,1.09-4.87.61-3.26.85-4.91.45-3.3.61-4.95.29-3.31.37-5,.12-3.33.12-5,0-3.33-.12-5-.2-3.32-.37-5-.36-3.31-.61-5-.53-3.29-.85-4.92-.69-3.25-1.09-4.86-.85-3.22-1.33-4.81-1-3.17-1.57-4.74-1.16-3.11-1.79-4.65-1.31-3.06-2-4.56-1.46-3-2.25-4.46-1.6-2.91-2.46-4.34-1.74-2.83-2.66-4.21-1.89-2.74-2.88-4.08-2-2.65-3.07-3.93-2.14-2.55-3.25-3.78-2.27-2.43-3.44-3.61-2.38-2.32-3.62-3.44-2.49-2.2-3.77-3.26S407,213,405.7,212s-2.7-2-4.08-2.87-2.79-1.81-4.22-2.67-2.87-1.67-4.34-2.46-2.95-1.53-4.45-2.24-3-1.38-4.56-2-3.09-1.24-4.66-1.8c-1.18-.42-2.38-.82-3.59-1.2l-2.33,10.19c.72.24,1.44.46,2.16.72C377.05,208.15,378.46,208.69,379.85,209.27Z" transform="translate(113.44 -125.02)"/><path class="cls-4" d="M279.44,371.1c.42.35.82.73,1.25,1.08q1.92,1.57,3.93,3.06c1.34,1,2.69,1.95,4.08,2.88s2.79,1.81,4.21,2.67,2.87,1.67,4.34,2.45,2.95,1.54,4.46,2.25,3,1.38,4.56,2l.25.1Z" transform="translate(113.44 -125.02)"/><path class="cls-4" d="M351.54,202.54c.69.06,1.39.09,2.08.16,1.5.14,3,.33,4.49.55s3,.48,4.46.77,2.95.63,4.41,1,2.91.77,4.36,1.21c.71.22,1.42.47,2.13.7l2.33-10.19,0-.13-1.9-.44-12.2-2.8L295.6,178.19l-54.86-12.58L83.21,129.48l51.66,20.75Z" transform="translate(113.44 -125.02)"/><path class="cls-4" d="M34.78,223.12l.52-.87L24.55,215.7a52.38,52.38,0,0,0,10.27,8l.24-.39Z" transform="translate(113.44 -125.02)"/><path class="cls-4" d="M22.25,213.23,25.44,208l-.66-.4.73-1.2a47.57,47.57,0,0,1,57.06-70.87l13,5.23,39.29,9.48L83.21,129.48l-1.57-.63a53,53,0,0,0-59.39,84.38Z" transform="translate(113.44 -125.02)"/><path class="cls-4" d="M309.34,379.5l-1.34-.59L304,385.66l-.28-.17-.11.17-30.07-18.19,5.95,3.63,27.08,16.51.45.27,0-.07,4.55-7.46C310.82,380.07,310.07,379.8,309.34,379.5Z" transform="translate(113.44 -125.02)"/><path class="cls-4" d="M35.3,222.25l2.19-3.62a47,47,0,0,1-9.82-9.31L25.44,208l-3.19,5.24-.48.78,2.78,1.69Z" transform="translate(113.44 -125.02)"/><polygon class="cls-4" points="148.5 98.27 148.26 98.66 148.02 99.07 342.05 215.45 369.94 232.18 148.5 98.27"/><path class="cls-4" d="M304,385.66l4.05-6.75-.28-.13-4.05,6.71Z" transform="translate(113.44 -125.02)"/><path class="cls-5" d="M375.7,208.38l-14.11,58.44-16.78-4.06a47.68,47.68,0,0,1,1.24,11.64l.51,0c.65.07,1.3.16,1.95.29s1.28.29,1.91.48,1.24.41,1.85.66a19.31,19.31,0,0,1,3.47,1.86,19.51,19.51,0,0,1,1.58,1.17c.51.42,1,.86,1.46,1.32s.9.95,1.32,1.46.81,1,1.17,1.58a20.15,20.15,0,0,1,1.85,3.47,17,17,0,0,1,.67,1.85c.19.63.35,1.27.48,1.91s.22,1.29.28,1.95a19.36,19.36,0,0,1,0,3.93c-.06.65-.16,1.3-.28,1.95s-.29,1.28-.48,1.91a18.65,18.65,0,0,1-.67,1.85,20.15,20.15,0,0,1-1.85,3.47c-.36.54-.76,1.07-1.17,1.58s-.86,1-1.32,1.46-.95.9-1.46,1.32-1,.81-1.58,1.17a20.15,20.15,0,0,1-3.47,1.85,18.65,18.65,0,0,1-1.85.67c-.63.19-1.27.35-1.91.48s-1.3.22-1.95.28a19.36,19.36,0,0,1-3.93,0c-.66-.06-1.31-.16-1.95-.28s-1.28-.29-1.91-.48a17,17,0,0,1-1.85-.67,20.15,20.15,0,0,1-3.47-1.85c-.55-.36-1.07-.76-1.58-1.17s-.9-.78-1.33-1.2a47.41,47.41,0,0,1-9.29,6.61l24,14.39L314.3,381.24l-5.92-3.55-.66,1.09.28.13,1.34.59c.73.3,1.48.57,2.22.85s1.32.53,2,.78c1.42.5,2.85,1,4.29,1.41s2.9.84,4.36,1.21,2.93.7,4.41,1,3,.55,4.46.77,3,.41,4.48.56,3,.26,4.51.33,3,.11,4.52.11,3,0,4.52-.11,3-.19,4.51-.33,3-.34,4.49-.56,3-.48,4.46-.77,2.95-.62,4.41-1,2.91-.77,4.36-1.21,2.87-.91,4.29-1.41,2.83-1.06,4.22-1.63,2.77-1.19,4.13-1.83,2.71-1.33,4-2,2.64-1.45,3.94-2.23,2.56-1.58,3.82-2.42,2.48-1.7,3.69-2.6,2.4-1.83,3.57-2.78,2.31-1.94,3.42-3,2.21-2.05,3.28-3.11,2.1-2.16,3.12-3.28,2-2.26,2.95-3.42,1.88-2.36,2.78-3.57,1.77-2.44,2.61-3.69,1.64-2.53,2.41-3.82,1.52-2.61,2.23-3.94,1.39-2.68,2-4,1.25-2.74,1.83-4.13,1.12-2.8,1.63-4.22,1-2.85,1.41-4.29.84-2.9,1.21-4.36.7-2.94,1-4.41.55-3,.77-4.46.41-3,.56-4.49.26-3,.33-4.51.11-3,.11-4.52,0-3-.11-4.52-.18-3-.33-4.51-.33-3-.56-4.49-.47-3-.77-4.45-.62-3-1-4.41-.77-2.92-1.21-4.36-.91-2.88-1.41-4.3-1-2.82-1.63-4.21-1.19-2.78-1.83-4.14-1.33-2.71-2-4-1.45-2.64-2.23-3.93-1.58-2.57-2.41-3.82-1.71-2.49-2.61-3.7-1.82-2.4-2.78-3.56-1.94-2.31-2.95-3.43-2.06-2.21-3.12-3.27-2.16-2.11-3.28-3.12-2.26-2-3.42-3-2.35-1.89-3.57-2.79-2.44-1.76-3.69-2.6-2.53-1.64-3.82-2.42-2.61-1.52-3.94-2.23-2.67-1.39-4-2-2.74-1.26-4.13-1.83-2.8-1.12-4.22-1.63c-.72-.26-1.44-.48-2.16-.72s-1.42-.48-2.13-.7c-1.45-.44-2.9-.84-4.36-1.21s-2.93-.69-4.41-1-3-.55-4.46-.77-3-.41-4.49-.55c-.69-.07-1.39-.1-2.08-.16Z" transform="translate(113.44 -125.02)"/><path class="cls-5" d="M38,185.52A36.32,36.32,0,0,1,54.3,158.39L55.71,156l1.26.76a36.88,36.88,0,0,1,6.68-2.8l4.78-19.81,27.15,6.56-13-5.23a47.57,47.57,0,0,0-57.06,70.87Z" transform="translate(113.44 -125.02)"/><path class="cls-5" d="M27.67,209.32a47,47,0,0,0,9.82,9.31L39,216.12Z" transform="translate(113.44 -125.02)"/><path class="cls-5" d="M330.54,308.69l-.13-.12c-.46-.47-.9-.95-1.32-1.46a20.88,20.88,0,0,1-2.19-3.27,19.27,19.27,0,0,1-.84-1.78c-.25-.61-.47-1.23-.66-1.85s-.35-1.27-.48-1.91-.22-1.3-.29-1.95-.09-1.31-.09-2,0-1.31.09-2,.16-1.31.29-1.95.29-1.28.48-1.91a19.54,19.54,0,0,1,2.52-5.32,17.9,17.9,0,0,1,1.17-1.58c.42-.51.86-1,1.32-1.46s.95-.9,1.46-1.32a17.9,17.9,0,0,1,1.58-1.17,19.78,19.78,0,0,1,5.32-2.52c.63-.19,1.27-.35,1.91-.48s1.29-.22,1.95-.29,1.31-.09,2-.09c.49,0,1,0,1.46.07a47.68,47.68,0,0,0-1.24-11.64l-165.76-40a11.07,11.07,0,0,1,.65,3.22l20.43,8.2c.16-.12.32-.25.5-.37a11.74,11.74,0,0,1,2.1-1.12A11.51,11.51,0,0,1,205,232a11.82,11.82,0,0,1,4.74,0,11.51,11.51,0,0,1,2.28.69,11.74,11.74,0,0,1,2.1,1.12,12.2,12.2,0,0,1,4.48,5.46,12.52,12.52,0,0,1,.69,2.28c0,.11,0,.23,0,.35l24.25,9.74c.09-.1.17-.2.27-.3a12.63,12.63,0,0,1,1.84-1.51,12.47,12.47,0,0,1,2.1-1.12,12.25,12.25,0,0,1,2.28-.7,12.38,12.38,0,0,1,4.75,0,12.25,12.25,0,0,1,2.28.7,12.47,12.47,0,0,1,2.1,1.12,12.14,12.14,0,0,1,3.35,3.35,12.47,12.47,0,0,1,1.12,2.1,11.51,11.51,0,0,1,.69,2.28,11.91,11.91,0,0,1,.24,2.37h0l33.89,13.61a11.94,11.94,0,0,1-8.9,22.15l-3.24-1.3,34.88,20.91A47.41,47.41,0,0,0,330.54,308.69Z" transform="translate(113.44 -125.02)"/><path class="cls-5" d="M158.76,217.85l.33.19.1-.09Z" transform="translate(113.44 -125.02)"/><path class="cls-5" d="M197.27,237.15a12.7,12.7,0,0,1,1.52-1.84,12.21,12.21,0,0,1,1.34-1.14L179.7,226c0,.25,0,.5,0,.76a11.76,11.76,0,0,1-.24,2.37c-.07.35-.16.69-.26,1l16.61,10c.09-.28.19-.56.3-.83A12.91,12.91,0,0,1,197.27,237.15Z" transform="translate(113.44 -125.02)"/><path class="cls-5" d="M242.36,266.68a12.47,12.47,0,0,1-1.12-2.1,12.25,12.25,0,0,1-.7-2.28,12.38,12.38,0,0,1,0-4.75,12.25,12.25,0,0,1,.7-2.28,12.47,12.47,0,0,1,1.12-2.1,12.29,12.29,0,0,1,1.24-1.54l-24.25-9.74a12.43,12.43,0,0,1,.18,2,12.69,12.69,0,0,1-.23,2.37,13,13,0,0,1-.69,2.28,12.52,12.52,0,0,1-1.13,2.1,11.32,11.32,0,0,1-1.31,1.62l29.34,17.6a13.3,13.3,0,0,1-1.64-1.36A12.63,12.63,0,0,1,242.36,266.68Z" transform="translate(113.44 -125.02)"/><path class="cls-5" d="M305.12,289.06a11.89,11.89,0,0,0-6.61-15.52l-33.89-13.61a11.76,11.76,0,0,1-.24,2.37,11.51,11.51,0,0,1-.69,2.28,12.47,12.47,0,0,1-1.12,2.1,12.14,12.14,0,0,1-3.35,3.35,12.47,12.47,0,0,1-2.1,1.12,11.51,11.51,0,0,1-2.28.69,11.87,11.87,0,0,1-4.75,0,11.51,11.51,0,0,1-2.28-.69c-.29-.12-.57-.26-.85-.4l39.41,23.64,3.24,1.3A11.88,11.88,0,0,0,305.12,289.06Z" transform="translate(113.44 -125.02)"/><path class="cls-3" d="M342.63,274.42c-.66.07-1.31.16-1.95.29s-1.28.29-1.91.48a19.54,19.54,0,0,0-5.32,2.52,17.9,17.9,0,0,0-1.58,1.17c-.51.42-1,.86-1.46,1.32s-.9.95-1.32,1.46a17.9,17.9,0,0,0-1.17,1.58,19.78,19.78,0,0,0-2.52,5.32c-.19.63-.35,1.27-.48,1.91s-.22,1.29-.29,1.95-.09,1.31-.09,2,0,1.32.09,2,.16,1.3.29,1.95.29,1.28.48,1.91.41,1.24.66,1.85a19.31,19.31,0,0,0,1.86,3.47,19.51,19.51,0,0,0,1.17,1.58c.42.51.86,1,1.32,1.46l.13.12c.43.42.87.82,1.33,1.2s1,.81,1.58,1.17a20.15,20.15,0,0,0,3.47,1.85,17,17,0,0,0,1.85.67c.63.19,1.27.35,1.91.48s1.29.22,1.95.28a19.36,19.36,0,0,0,3.93,0c.65-.06,1.3-.16,1.95-.28s1.28-.29,1.91-.48a18.65,18.65,0,0,0,1.85-.67,20.15,20.15,0,0,0,3.47-1.85c.54-.36,1.07-.76,1.58-1.17s1-.86,1.46-1.32.9-.95,1.32-1.46.81-1,1.17-1.58a20.15,20.15,0,0,0,1.85-3.47,18.65,18.65,0,0,0,.67-1.85c.19-.63.35-1.27.48-1.91s.22-1.3.28-1.95a19.36,19.36,0,0,0,0-3.93c-.06-.66-.16-1.31-.28-1.95s-.29-1.28-.48-1.91a17,17,0,0,0-.67-1.85,20.15,20.15,0,0,0-1.85-3.47c-.36-.55-.76-1.07-1.17-1.58s-.86-1-1.32-1.46-.95-.9-1.46-1.32a20.88,20.88,0,0,0-3.27-2.19,19.27,19.27,0,0,0-1.78-.84c-.61-.25-1.23-.47-1.85-.66s-1.27-.35-1.91-.48-1.3-.22-1.95-.29l-.51,0c-.49,0-1-.07-1.46-.07C343.94,274.33,343.28,274.36,342.63,274.42Z" transform="translate(113.44 -125.02)"/><path class="cls-5" d="M68.43,134.19,63.65,154a36.94,36.94,0,0,1,10.46-1.66L68,163.41l57.77,34.65c.34,0,.67-.05,1-.05a11.76,11.76,0,0,1,2.37.24,11.51,11.51,0,0,1,2.28.69,11.74,11.74,0,0,1,2.1,1.12,12.14,12.14,0,0,1,3.35,3.35,12.57,12.57,0,0,1,1.05,1.94l20.83,12.5.43.1a11.75,11.75,0,0,1,3.74-2.45,11.51,11.51,0,0,1,2.28-.69,11.82,11.82,0,0,1,4.74,0,11.12,11.12,0,0,1,2.28.69,12.42,12.42,0,0,1,2.1,1.12,11.86,11.86,0,0,1,3.36,3.36,11.74,11.74,0,0,1,1.12,2.1c.09.22.16.44.24.67l165.76,40,16.78,4.06,14.11-58.44-24.16-5.84L134.87,150.23l-39.29-9.48Z" transform="translate(113.44 -125.02)"/><polygon class="cls-4" points="417.01 260.64 417.11 260.47 421.17 253.76 421.82 252.68 152.45 91.11 150.94 93.61 148.74 97.23 148.22 98.1 148.5 98.27 369.94 232.18 386.93 242.45 417.01 260.64"/><path class="cls-5" d="M55.71,156l-1.41,2.35q1.31-.85,2.67-1.59Z" transform="translate(113.44 -125.02)"/><path class="cls-5" d="M39,216.12,308.38,377.69l5.92,3.55,30.92-51.55-24-14.39-34.88-20.91L247,270.75a11.91,11.91,0,0,1-1.25-.72l-.2-.15-29.34-17.6-.2.22a12.12,12.12,0,0,1-1.84,1.51,11.74,11.74,0,0,1-2.1,1.12,12.25,12.25,0,0,1-2.28.7,12.33,12.33,0,0,1-4.74,0,12.25,12.25,0,0,1-2.28-.7,12.09,12.09,0,0,1-3.94-2.63,12.18,12.18,0,0,1-1.52-1.84,13.24,13.24,0,0,1-1.12-2.1,12.22,12.22,0,0,1-.69-2.28,11.9,11.9,0,0,1-.23-2.37,11.76,11.76,0,0,1,.23-2.37,11.92,11.92,0,0,1,.39-1.45l-16.61-10a10.84,10.84,0,0,1-.43,1.25,11.74,11.74,0,0,1-1.12,2.1,12.75,12.75,0,0,1-1.51,1.84,11.63,11.63,0,0,1-1.85,1.51,11.79,11.79,0,0,1-2.1,1.13,12.25,12.25,0,0,1-7,.69,13,13,0,0,1-2.28-.69,11.79,11.79,0,0,1-2.1-1.13,12.14,12.14,0,0,1-3.35-3.35,11.79,11.79,0,0,1-1.13-2.1,13,13,0,0,1-.69-2.28,12.18,12.18,0,0,1,.69-7,11.79,11.79,0,0,1,1.13-2.1,11.63,11.63,0,0,1,1.51-1.85.81.81,0,0,0,.1-.09l-.33-.19-20.83-12.5a1.3,1.3,0,0,0,.08.17,12.25,12.25,0,0,1,.69,7,13,13,0,0,1-.69,2.28,12.52,12.52,0,0,1-1.13,2.1,11.55,11.55,0,0,1-1.51,1.84,12.12,12.12,0,0,1-1.84,1.51,11.74,11.74,0,0,1-2.1,1.12,12.25,12.25,0,0,1-2.28.7,12.33,12.33,0,0,1-4.74,0,12.42,12.42,0,0,1-4.38-1.82,12.2,12.2,0,0,1-1.85-1.51,12.75,12.75,0,0,1-1.51-1.84,13.24,13.24,0,0,1-1.12-2.1,11.51,11.51,0,0,1-.69-2.28,12.38,12.38,0,0,1,0-4.75,11.23,11.23,0,0,1,.69-2.27,12.91,12.91,0,0,1,1.12-2.11,13.31,13.31,0,0,1,1.51-1.84,12.2,12.2,0,0,1,1.85-1.51,11.74,11.74,0,0,1,2.1-1.12,11.12,11.12,0,0,1,2.28-.69,12.36,12.36,0,0,1,1.36-.19L68,163.41,43.31,208.08A37,37,0,0,1,38,185.52L25.51,206.39l-.73,1.2.66.4,2.23,1.33Zm50.28-33.28a12.53,12.53,0,0,1,2.37.23,13,13,0,0,1,2.28.69,11.79,11.79,0,0,1,2.1,1.13,12.14,12.14,0,0,1,3.35,3.35,11.79,11.79,0,0,1,1.13,2.1,13,13,0,0,1,.69,2.28,12.18,12.18,0,0,1-.69,7,11.79,11.79,0,0,1-1.13,2.1,11.63,11.63,0,0,1-1.51,1.85A12.75,12.75,0,0,1,96,205.1a12.42,12.42,0,0,1-2.1,1.12,11.51,11.51,0,0,1-2.28.69,11.82,11.82,0,0,1-4.74,0,11.12,11.12,0,0,1-2.28-.69,12.42,12.42,0,0,1-2.1-1.12,11.86,11.86,0,0,1-3.36-3.36,12.42,12.42,0,0,1-1.12-2.1,11.12,11.12,0,0,1-.69-2.28,12.33,12.33,0,0,1,0-4.74,11.51,11.51,0,0,1,.69-2.28,12.42,12.42,0,0,1,1.12-2.1,12.75,12.75,0,0,1,1.51-1.84,11.63,11.63,0,0,1,1.85-1.51,11.79,11.79,0,0,1,2.1-1.13,12.1,12.1,0,0,1,4.65-.92Z" transform="translate(113.44 -125.02)"/><path class="cls-3" d="M250.09,271.84a11.87,11.87,0,0,0,4.75,0,11.51,11.51,0,0,0,2.28-.69,12.47,12.47,0,0,0,2.1-1.12,12.14,12.14,0,0,0,3.35-3.35,12.47,12.47,0,0,0,1.12-2.1,11.51,11.51,0,0,0,.69-2.28,11.76,11.76,0,0,0,.24-2.37h0a11.91,11.91,0,0,0-.24-2.37,11.51,11.51,0,0,0-.69-2.28,12.47,12.47,0,0,0-1.12-2.1,12.14,12.14,0,0,0-3.35-3.35,12.47,12.47,0,0,0-2.1-1.12,12.25,12.25,0,0,0-2.28-.7,12.38,12.38,0,0,0-4.75,0,12.25,12.25,0,0,0-2.28.7,12.47,12.47,0,0,0-2.1,1.12,12.63,12.63,0,0,0-1.84,1.51c-.1.1-.18.2-.27.3a12.29,12.29,0,0,0-1.24,1.54,12.47,12.47,0,0,0-1.12,2.1,12.25,12.25,0,0,0-.7,2.28,12.38,12.38,0,0,0,0,4.75,12.25,12.25,0,0,0,.7,2.28,12.47,12.47,0,0,0,1.12,2.1,12.63,12.63,0,0,0,1.51,1.84,13.3,13.3,0,0,0,1.64,1.36l.2.15a11.91,11.91,0,0,0,1.25.72c.28.14.56.28.85.4A11.51,11.51,0,0,0,250.09,271.84Z" transform="translate(113.44 -125.02)"/><path class="cls-3" d="M218.61,248.56a13,13,0,0,0,.69-2.28,12.69,12.69,0,0,0,.23-2.37,12.43,12.43,0,0,0-.18-2c0-.12,0-.24,0-.35a12.52,12.52,0,0,0-.69-2.28,12.23,12.23,0,0,0-1.13-2.11,12.14,12.14,0,0,0-3.35-3.35,11.74,11.74,0,0,0-2.1-1.12,11.51,11.51,0,0,0-2.28-.69,11.82,11.82,0,0,0-4.74,0,11.51,11.51,0,0,0-2.28.69,11.74,11.74,0,0,0-2.1,1.12c-.18.12-.34.25-.5.37a12.21,12.21,0,0,0-1.34,1.14,12.7,12.7,0,0,0-1.52,1.84,12.91,12.91,0,0,0-1.12,2.11c-.11.27-.21.55-.3.83a11.92,11.92,0,0,0-.39,1.45,11.76,11.76,0,0,0-.23,2.37,11.9,11.9,0,0,0,.23,2.37,12.22,12.22,0,0,0,.69,2.28,13.24,13.24,0,0,0,1.12,2.1,12.18,12.18,0,0,0,1.52,1.84,12.09,12.09,0,0,0,3.94,2.63,12.25,12.25,0,0,0,2.28.7,12.33,12.33,0,0,0,4.74,0,12.25,12.25,0,0,0,2.28-.7,11.74,11.74,0,0,0,2.1-1.12A12.12,12.12,0,0,0,216,252.5l.2-.22a11.32,11.32,0,0,0,1.31-1.62A12.52,12.52,0,0,0,218.61,248.56Z" transform="translate(113.44 -125.02)"/><path class="cls-3" d="M179.74,226.73c0-.26,0-.51,0-.76a11.07,11.07,0,0,0-.65-3.22c-.08-.23-.15-.45-.24-.67a11.74,11.74,0,0,0-1.12-2.1,11.86,11.86,0,0,0-3.36-3.36,12.42,12.42,0,0,0-2.1-1.12,11.12,11.12,0,0,0-2.28-.69,11.82,11.82,0,0,0-4.74,0,11.51,11.51,0,0,0-2.28.69,11.75,11.75,0,0,0-3.74,2.45l-.1.09a.81.81,0,0,1-.1.09,11.63,11.63,0,0,0-1.51,1.85,11.79,11.79,0,0,0-1.13,2.1,12.25,12.25,0,0,0-.69,7,13,13,0,0,0,.69,2.28,11.79,11.79,0,0,0,1.13,2.1,12.14,12.14,0,0,0,3.35,3.35,11.79,11.79,0,0,0,2.1,1.13,13,13,0,0,0,2.28.69,12.18,12.18,0,0,0,7-.69,11.79,11.79,0,0,0,2.1-1.13,11.63,11.63,0,0,0,1.85-1.51,12.75,12.75,0,0,0,1.51-1.84,11.74,11.74,0,0,0,1.12-2.1,10.84,10.84,0,0,0,.43-1.25c.1-.34.19-.68.26-1A11.76,11.76,0,0,0,179.74,226.73Z" transform="translate(113.44 -125.02)"/><path class="cls-3" d="M136.88,203.41a12.14,12.14,0,0,0-3.35-3.35,11.74,11.74,0,0,0-2.1-1.12,11.51,11.51,0,0,0-2.28-.69,11.76,11.76,0,0,0-2.37-.24c-.34,0-.67,0-1,.05a12.36,12.36,0,0,0-1.36.19,11.12,11.12,0,0,0-2.28.69,11.74,11.74,0,0,0-2.1,1.12,12.2,12.2,0,0,0-1.85,1.51,13.31,13.31,0,0,0-1.51,1.84,12.91,12.91,0,0,0-1.12,2.11,11.23,11.23,0,0,0-.69,2.27,12.38,12.38,0,0,0,0,4.75,11.51,11.51,0,0,0,.69,2.28,13.24,13.24,0,0,0,1.12,2.1,12.75,12.75,0,0,0,1.51,1.84,12.2,12.2,0,0,0,1.85,1.51,12.42,12.42,0,0,0,4.38,1.82,12.33,12.33,0,0,0,4.74,0,12.25,12.25,0,0,0,2.28-.7,11.74,11.74,0,0,0,2.1-1.12,12.12,12.12,0,0,0,1.84-1.51,11.55,11.55,0,0,0,1.51-1.84,12.52,12.52,0,0,0,1.13-2.1,13,13,0,0,0,.69-2.28,12.13,12.13,0,0,0-.69-7,1.3,1.3,0,0,1-.08-.17A12.57,12.57,0,0,0,136.88,203.41Z" transform="translate(113.44 -125.02)"/><path class="cls-3" d="M84.63,183.76a11.79,11.79,0,0,0-2.1,1.13,11.63,11.63,0,0,0-1.85,1.51,12.75,12.75,0,0,0-1.51,1.84,12.42,12.42,0,0,0-1.12,2.1,11.51,11.51,0,0,0-.69,2.28,12.33,12.33,0,0,0,0,4.74,11.12,11.12,0,0,0,.69,2.28,12.42,12.42,0,0,0,1.12,2.1,11.86,11.86,0,0,0,3.36,3.36,12.42,12.42,0,0,0,2.1,1.12,11.12,11.12,0,0,0,2.28.69,11.82,11.82,0,0,0,4.74,0,11.51,11.51,0,0,0,2.28-.69A12.42,12.42,0,0,0,96,205.1a12.75,12.75,0,0,0,1.84-1.51,11.63,11.63,0,0,0,1.51-1.85,11.79,11.79,0,0,0,1.13-2.1,12.25,12.25,0,0,0,.69-7,13,13,0,0,0-.69-2.28,11.79,11.79,0,0,0-1.13-2.1A12.14,12.14,0,0,0,96,184.89a11.79,11.79,0,0,0-2.1-1.13,13,13,0,0,0-2.28-.69,12.18,12.18,0,0,0-7,.69Z" transform="translate(113.44 -125.02)"/><path class="cls-3" d="M74.11,152.34A37.33,37.33,0,0,0,57,156.8q-1.36.73-2.67,1.59A36.32,36.32,0,0,0,38,185.52a37,37,0,0,0,5.29,22.56L68,163.41Z" transform="translate(113.44 -125.02)"/></g></g></svg>