<svg xmlns="http://www.w3.org/2000/svg" width="40" height="80" viewBox="0 0 339.86 531.69"><defs><style>.cls-1{fill:#004684;}.cls-2,.cls-8{fill:#fff;}.cls-3{fill:#2b2b2b;}.cls-4{fill:#a6a6a6;}.cls-5{fill:#737373;}.cls-6{fill:#f1eddd;}.cls-7{fill:#e8e5d7;}.cls-8{font-size:20.05px;font-family:Montserrat-Bold, Montserrat;font-weight:700;}</style></defs><title>Asset 1</title><g id="Layer_2" data-name="Layer 2"><g id="Layer_1-2" data-name="Layer 1"><path class="cls-1" d="M593.41,144.2a41.36,41.36,0,0,1,29.32-39.57V22.91h-113a28.76,28.76,0,0,1-57.52,0H339.83V104.8a41.36,41.36,0,0,1,0,78.79V389a28.76,28.76,0,0,1,0,57.52v76.55h85.1a60.85,60.85,0,0,1,2.27-7.62H411.51v-3.71h-5.2v-8.25L376,459.75,398.81,444l-19.14-8.17L402,383.55l26.13,11.16-1.1,2.57a5.66,5.66,0,0,1,2.1-1.58,14.5,14.5,0,0,1,.94-1.5v-9.94h5.83V389a16.8,16.8,0,0,1,19.28,27.19,4.91,4.91,0,0,1,0,.67,5.67,5.67,0,0,1-10,3.7,13.94,13.94,0,0,1-1.45.08,16.72,16.72,0,0,1-7.17-1.62,5.79,5.79,0,0,1-.75,1.3v5.79a20.88,20.88,0,0,1,15.32,1.29,5.53,5.53,0,0,1,1,.41h9.75V384.26h5.83v43.58h27.51V384.27h5.81v43.57h3.41a20.95,20.95,0,0,1,20.18,0h1.81V384.27h5.81v43.57h9.43v-23.1H556v13.82h25.42v18.06l6.62,1.69-6.62,25.81v11.26h-2.89l-4.6,18-18.1-4.64v23.07h-3.63v3.71H539a59.22,59.22,0,0,1,2.27,7.62h81.46V438.5h-.56a28.76,28.76,0,0,1,0-57.52l.56,0V183.76A41.35,41.35,0,0,1,593.41,144.2ZM418.88,269.93v-.14h19.05v.14h7.41v15.46H409.5V269.93Zm-9.38-5.22V249.24h35.84v15.47H409.5ZM446,325.79H410.13V310.33H446Zm0-20.54H410.13V289.78H446Zm53,18h-9.69v2.53H473.75V312.57H463V303h10.76V289.79h15.54v2.45h9.36v9.57h-9.36V313.7H499Zm0-40.54h-9.69v2.53H473.75V272H463v-9.57h10.76V249.25h15.54v2.46h9.36v9.56h-9.36v11.89H499Zm0-49.12v9.57h-9.69v2.52H473.75V233.43H445.92V237h0v8.4H430.46v-12h-6.17v3.7h0v8.39H408.83V209.69H417V207.8a6,6,0,0,1,4.85-5.84V118.22a7.29,7.29,0,0,1,7.26-7.29H526.2a7.29,7.29,0,0,1,7.26,7.29v83.64h3.24a5.94,5.94,0,0,1,5.92,5.94v19.68a6,6,0,0,1-5.92,6h-8.88v3.7h0v8.39H512.35V233.43H489.29v.18Zm13.37,17.24h15.47v8.4h0v19h0v8.4H512.35Zm37.14,74.94H513.65V310.33h35.84Zm0-20.54H513.65V289.78h35.84Z" transform="translate(-311.07 5.86)"/><path class="cls-1" d="M430.05,427.84V422.4A5.67,5.67,0,0,1,429,411.77a16.68,16.68,0,0,1-2-7.28,5.65,5.65,0,0,1-1.3-3.61,5.06,5.06,0,0,1,0-.68L420.32,413v14.89Z" transform="translate(-311.07 5.86)"/><polygon class="cls-1" points="94.94 452.33 94.73 452.83 88.95 450.36 95.24 459.45 95.24 458.84 94.94 458.84 94.94 452.33"/><path class="cls-1" d="M481,51.66a28.76,28.76,0,0,0,28.76-28.75h0a28.76,28.76,0,1,0-57.52,0h0A28.76,28.76,0,0,0,481,51.66ZM460.29,22.9A20.71,20.71,0,1,1,481,43.61,20.71,20.71,0,0,1,460.29,22.9Z" transform="translate(-311.07 5.86)"/><path class="cls-1" d="M593.41,409.75a28.75,28.75,0,0,0,28.76,28.76h.56a28.75,28.75,0,0,0,0-57.49l-.56,0A28.76,28.76,0,0,0,593.41,409.75Zm49.47,0A20.71,20.71,0,1,1,622.17,389,20.71,20.71,0,0,1,642.88,409.75Z" transform="translate(-311.07 5.86)"/><path class="cls-1" d="M368.59,417.8A28.76,28.76,0,0,0,339.83,389h0a28.76,28.76,0,0,0,0,57.52h0A28.75,28.75,0,0,0,368.59,417.8Zm-28.76,20.71a20.71,20.71,0,1,1,20.71-20.71A20.71,20.71,0,0,1,339.83,438.51Z" transform="translate(-311.07 5.86)"/><path class="cls-2" d="M432.08,201.86V126.63a5.94,5.94,0,0,1,5.94-5.92h79.52a6,6,0,0,1,6,5.92v75.23h10V118.22a7.29,7.29,0,0,0-7.26-7.29H429.09a7.29,7.29,0,0,0-7.26,7.29V202a6.38,6.38,0,0,1,1.08-.1Z" transform="translate(-311.07 5.86)"/><polygon class="cls-1" points="151.92 238.34 151.92 228.77 162.68 228.77 162.68 227.06 134.85 227.06 134.85 239.29 162.68 239.29 162.68 238.34 151.92 238.34"/><polygon class="cls-1" points="187.59 227.06 187.59 227.58 178.22 227.58 178.22 239.29 201.28 239.29 201.28 227.06 187.59 227.06"/><path class="cls-1" d="M430.46,209.59h1.62v-7.73h-9.17a6.38,6.38,0,0,0-1.08.1A6,6,0,0,0,417,207.8v1.89h7.31v8.39h0v15.35h6.17Z" transform="translate(-311.07 5.86)"/><path class="cls-1" d="M523.49,209.69h4.33v8.39h0v15.35h8.88a6,6,0,0,0,5.92-6V207.8a5.94,5.94,0,0,0-5.92-5.94H523.49Z" transform="translate(-311.07 5.86)"/><path class="cls-1" d="M498.65,221.2h13.7V209.69h11.14V126.63a6,6,0,0,0-6-5.92H438a5.94,5.94,0,0,0-5.94,5.92v83h13.84V218h0v3.22h27.83V209.69h15.54v2.46h9.36Zm-42.17-59.6h4.59v-2.43h-4.59v-6.59h4.59v-2.4h-4.59v-6.6h4.59V140.4a1.4,1.4,0,0,1,1.39-1.4H493.7a1.4,1.4,0,0,1,1.39,1.4v3.18h6v6.6h-6v2.4h6v6.59h-6v2.43h6.23v6.6h-6.23v3.43a1.4,1.4,0,0,1-1.39,1.4H462.46a1.4,1.4,0,0,1-1.39-1.4V168.2h-4.59Z" transform="translate(-311.07 5.86)"/><polygon class="cls-2" points="216.75 284.16 201.29 284.16 201.29 265.11 216.75 265.11 216.75 256.71 201.28 256.71 201.28 292.55 216.75 292.55 216.75 284.16"/><polygon class="cls-3" points="201.29 284.16 216.75 284.16 216.75 284.16 216.75 265.11 216.75 265.11 201.29 265.11 201.29 284.16"/><rect class="cls-2" x="202.58" y="295.65" width="8.4" height="15.46"/><rect class="cls-2" x="230.02" y="295.65" width="8.4" height="15.46"/><rect class="cls-3" x="210.98" y="295.65" width="19.05" height="15.46"/><rect class="cls-2" x="202.58" y="316.19" width="8.4" height="15.46"/><rect class="cls-2" x="230.02" y="316.19" width="8.4" height="15.46"/><rect class="cls-3" x="210.98" y="316.19" width="19.05" height="15.46"/><polygon class="cls-2" points="201.29 223.94 216.75 223.94 216.75 215.55 212.42 215.55 201.28 215.55 201.28 227.06 201.28 239.29 201.28 251.39 216.75 251.39 216.75 242.99 201.29 242.99 201.29 223.94"/><polygon class="cls-3" points="216.75 223.94 201.29 223.94 201.29 242.99 216.75 242.99 216.75 242.99 216.75 239.29 216.75 223.94 216.75 223.94"/><rect class="cls-2" x="126.5" y="295.65" width="8.4" height="15.46"/><rect class="cls-2" x="99.06" y="295.65" width="8.4" height="15.46"/><rect class="cls-3" x="107.45" y="295.65" width="19.05" height="15.46"/><rect class="cls-2" x="99.06" y="316.19" width="8.4" height="15.46"/><rect class="cls-2" x="126.5" y="316.19" width="8.4" height="15.46"/><rect class="cls-3" x="107.45" y="316.19" width="19.05" height="15.46"/><polygon class="cls-2" points="97.76 223.94 113.22 223.94 113.22 215.55 105.91 215.55 97.76 215.55 97.76 251.39 113.22 251.39 113.22 242.99 97.76 242.99 97.76 223.94"/><polygon class="cls-3" points="113.22 223.94 97.76 223.94 97.76 242.99 113.22 242.99 113.22 242.99 113.22 239.29 113.22 223.94 113.22 223.94"/><polygon class="cls-2" points="119.39 223.85 134.85 223.85 134.85 215.45 121.01 215.45 119.39 215.45 119.39 239.29 119.39 251.29 134.85 251.29 134.85 242.89 119.39 242.89 119.39 223.85"/><polygon class="cls-3" points="134.85 223.85 134.85 223.85 119.39 223.85 119.39 242.89 134.85 242.89 134.85 242.89 134.85 239.29 134.85 227.06 134.85 223.85"/><rect class="cls-2" x="178.22" y="319.57" width="9.69" height="9.57"/><rect class="cls-2" x="178.22" y="298.11" width="9.37" height="9.57"/><rect class="cls-2" x="151.92" y="308.87" width="10.76" height="9.57"/><polygon class="cls-3" points="178.22 307.68 178.22 298.11 178.22 295.65 162.68 295.65 162.68 308.87 162.68 318.43 162.68 331.66 178.22 331.66 178.22 329.14 178.22 319.57 178.22 307.68"/><rect class="cls-2" x="178.22" y="279.03" width="9.69" height="9.57"/><rect class="cls-2" x="178.22" y="257.57" width="9.37" height="9.57"/><rect class="cls-2" x="151.92" y="268.33" width="10.76" height="9.57"/><polygon class="cls-3" points="178.22 267.14 178.22 257.57 178.22 255.11 162.68 255.11 162.68 268.33 162.68 277.89 162.68 291.13 178.22 291.13 178.22 288.6 178.22 279.03 178.22 267.14"/><rect class="cls-2" x="178.22" y="239.47" width="9.69" height="9.57"/><polygon class="cls-2" points="187.59 227.06 187.59 218.01 178.22 218.01 178.22 227.58 187.59 227.58 187.59 227.06"/><rect class="cls-2" x="151.92" y="228.77" width="10.76" height="9.57"/><polygon class="cls-3" points="178.22 227.58 178.22 218.01 178.22 215.56 162.68 215.56 162.68 227.06 162.68 228.77 162.68 238.34 162.68 239.29 162.68 251.57 178.22 251.57 178.22 249.04 178.22 239.47 178.22 239.29 178.22 227.58"/><rect class="cls-2" x="145.41" y="149.45" width="4.6" height="6.6"/><rect class="cls-2" x="145.41" y="158.44" width="4.6" height="6.6"/><rect class="cls-2" x="145.41" y="167.47" width="4.6" height="6.6"/><rect class="cls-2" x="184.02" y="149.45" width="5.96" height="6.6"/><rect class="cls-2" x="184.02" y="158.44" width="5.96" height="6.6"/><rect class="cls-2" x="184.02" y="167.47" width="6.23" height="6.6"/><path class="cls-4" d="M461.07,171.63a1.4,1.4,0,0,0,1.39,1.4H493.7a1.4,1.4,0,0,0,1.39-1.4V140.4a1.4,1.4,0,0,0-1.39-1.4H462.46a1.4,1.4,0,0,0-1.39,1.4v31.23Zm8.6-16.1a8.45,8.45,0,1,1,15.48,4.68l2.24,2-2.83,3.23-2.66-2.34a8.29,8.29,0,0,1-3.78.9A8.44,8.44,0,0,1,469.67,155.53Z" transform="translate(-311.07 5.86)"/><path class="cls-2" d="M478.12,164a8.29,8.29,0,0,0,3.78-.9L477,158.75l2.83-3.22,5.34,4.68a8.45,8.45,0,1,0-7,3.76Z" transform="translate(-311.07 5.86)"/><polygon class="cls-2" points="165.91 164.62 170.83 168.94 173.49 171.28 176.33 168.05 174.08 166.08 168.74 161.39 165.91 164.62"/><polygon class="cls-2" points="98.43 291.25 134.27 291.25 134.27 275.79 126.86 275.79 126.86 291.12 107.81 291.12 107.81 275.79 98.43 275.79 98.43 291.25"/><rect class="cls-2" x="125.87" y="255.11" width="8.4" height="15.46"/><rect class="cls-2" x="98.43" y="255.11" width="8.4" height="15.46"/><polygon class="cls-3" points="126.86 291.12 126.86 275.79 126.86 275.65 107.81 275.65 107.81 275.79 107.81 291.12 126.86 291.12"/><rect class="cls-3" x="106.82" y="255.11" width="19.05" height="15.46"/><polygon class="cls-1" points="88.95 450.36 87.74 449.85 64.95 465.61 95.24 509.4 95.24 459.45 88.95 450.36"/><path class="cls-1" d="M405.8,447l.21-.5V404.74h14.31V413l5.45-12.75a5.61,5.61,0,0,1,1.24-2.92l1.1-2.57L402,383.55l-22.31,52.26L398.81,444l1.21.52Z" transform="translate(-311.07 5.86)"/><polygon class="cls-1" points="244.78 494.58 262.88 499.22 267.49 481.24 244.78 481.24 244.78 494.58"/><polygon class="cls-1" points="276.99 444.18 270.37 442.48 270.37 469.98 276.99 444.18"/><polygon class="cls-1" points="244.95 458.84 244.78 458.84 244.78 481.24 267.49 481.24 270.37 481.24 270.37 469.98 270.37 442.48 270.37 424.42 244.95 424.42 244.95 458.84"/><path class="cls-1" d="M452.17,427.84a5.53,5.53,0,0,0-1-.41c.27.14.55.26.81.41Z" transform="translate(-311.07 5.86)"/><path class="cls-1" d="M435.88,420.35a5.79,5.79,0,0,0,.75-1.3c-.25-.12-.51-.23-.75-.37Z" transform="translate(-311.07 5.86)"/><path class="cls-1" d="M425.72,416.89a5.68,5.68,0,0,0,4.33,5.51v-8.89a16.3,16.3,0,0,1-1.08-1.74A5.67,5.67,0,0,0,425.72,416.89Z" transform="translate(-311.07 5.86)"/><path class="cls-1" d="M449.54,422.56a5.67,5.67,0,0,0,5.67-5.67,4.91,4.91,0,0,0,0-.67,16.69,16.69,0,0,1-9.91,4.37A5.63,5.63,0,0,0,449.54,422.56Z" transform="translate(-311.07 5.86)"/><path class="cls-1" d="M425.72,400.88a5.65,5.65,0,0,0,1.3,3.61c0-.21,0-.42,0-.63a16.64,16.64,0,0,1,2.12-8.16,5.6,5.6,0,0,0-3.34,4.5A5.06,5.06,0,0,0,425.72,400.88Z" transform="translate(-311.07 5.86)"/><path class="cls-1" d="M435.88,418.68c.24.14.5.25.75.37a16.72,16.72,0,0,0,7.17,1.62,13.94,13.94,0,0,0,1.45-.08A16.8,16.8,0,1,0,435.88,389Z" transform="translate(-311.07 5.86)"/><path class="cls-1" d="M427,404.49a16.68,16.68,0,0,0,2,7.28,16.3,16.3,0,0,0,1.08,1.74V394.2a14.5,14.5,0,0,0-.94,1.5,16.64,16.64,0,0,0-2.12,8.16C427,404.07,427,404.28,427,404.49Z" transform="translate(-311.07 5.86)"/><path class="cls-1" d="M514.57,425.25a20.88,20.88,0,0,0-10.09,2.59h20.18A20.82,20.82,0,0,0,514.57,425.25Z" transform="translate(-311.07 5.86)"/><path class="cls-1" d="M452,427.84c-.26-.15-.54-.27-.81-.41a20.88,20.88,0,0,0-15.32-1.29v1.7Z" transform="translate(-311.07 5.86)"/><polygon class="cls-5" points="118.98 419.38 118.98 428.26 118.98 433.7 124.81 433.7 124.81 432.01 124.81 426.21 124.81 424.55 124.81 394.89 124.81 390.13 118.98 390.13 118.98 400.07 118.98 419.38"/><rect class="cls-5" x="118.98" y="521.36" width="5.83" height="9.38"/><rect class="cls-5" x="184.19" y="390.13" width="5.81" height="43.57"/><rect class="cls-5" x="184.19" y="517.65" width="5.81" height="14.04"/><rect class="cls-5" x="215.4" y="390.13" width="5.81" height="43.57"/><rect class="cls-5" x="215.4" y="521.36" width="5.81" height="10.34"/><rect class="cls-5" x="150.86" y="390.13" width="5.83" height="43.57"/><rect class="cls-5" x="150.86" y="517.65" width="5.83" height="13.09"/><polygon class="cls-6" points="100.44 458.84 95.24 458.84 95.24 459.45 95.24 509.4 95.24 517.65 100.44 517.65 100.44 458.84"/><polygon class="cls-6" points="244.78 458.84 241.15 458.84 241.15 517.65 244.78 517.65 244.78 494.58 244.78 481.24 244.78 458.84"/><path class="cls-6" d="M435.88,427.84H420.32v3.86h21.1v80.08H522.3V431.7h19.41v-3.86H435.88Zm82.4,3.86v68.59H443.34V431.7Z" transform="translate(-311.07 5.86)"/><path class="cls-6" d="M443.34,431.7v68.59h74.94V431.7Zm68.45,26.9v29.91H450.58V458.6Z" transform="translate(-311.07 5.86)"/><rect class="cls-7" x="139.51" y="464.46" width="61.21" height="29.91"/><polygon class="cls-6" points="109.25 418.81 109.25 410.6 94.94 410.6 94.94 452.33 94.94 458.84 95.24 458.84 100.44 458.84 100.44 437.57 109.25 437.57 109.25 433.7 109.25 418.81"/><polygon class="cls-7" points="124.81 521.36 130.35 521.36 130.35 517.65 130.35 437.57 109.25 437.57 100.44 437.57 100.44 458.84 100.44 517.65 100.44 521.36 116.14 521.36 118.98 521.36 124.81 521.36"/><polygon class="cls-6" points="241.15 437.57 241.15 458.84 244.78 458.84 244.95 458.84 244.95 424.42 244.95 410.6 230.64 410.6 230.64 433.7 230.64 437.57 241.15 437.57"/><polygon class="cls-7" points="241.15 458.84 241.15 437.57 230.64 437.57 211.24 437.57 211.24 517.65 211.24 521.36 215.4 521.36 221.21 521.36 227.93 521.36 241.15 521.36 241.15 517.65 241.15 458.84"/><text class="cls-8" transform="translate(159 385.25) rotate(-90)">V</text><text class="cls-8" transform="translate(159 370.63) rotate(-90)">C</text><text class="cls-8" transform="translate(159 356.75) rotate(-90)">C</text><text class="cls-8" transform="translate(192.15 385.9) rotate(-90)">S</text><text class="cls-8" transform="translate(192.15 372.99) rotate(-90)">D</text><text class="cls-8" transform="translate(192.15 357.61) rotate(-90)">A</text><text class="cls-8" transform="translate(225.17 385.34) rotate(-90)">S</text><text class="cls-8" transform="translate(225.17 372.43) rotate(-90)">C</text><text class="cls-8" transform="translate(225.17 358.56) rotate(-90)">L</text><text class="cls-8" transform="translate(127.99 387.08) rotate(-90)">G</text><text class="cls-8" transform="translate(127.99 372.19) rotate(-90)">N</text><text class="cls-8" transform="translate(127.99 356.42) rotate(-90)">D</text></g></g></svg>