<svg xmlns="http://www.w3.org/2000/svg" width="120" height="48" viewBox="0 0 825.5 335.27"><defs><style>.cls-1,.cls-11{font-size:19.86px;}.cls-1,.cls-11,.cls-7{fill:#fff;}.cls-1{font-family:Montserrat-Regular, Montserrat;}.cls-2{fill:#004684;}.cls-3{fill:#d9d9d9;}.cls-4{fill:#1a1a1a;}.cls-5{fill:#e8e5d7;}.cls-6{fill:#2b2b2b;}.cls-8{fill:#f6e089;}.cls-9{fill:#f1eddd;}.cls-10{fill:#a6a6a6;}.cls-11{font-family:Montserrat-Bold, Montserrat;font-weight:700;}</style></defs><title>Asset 1</title><g id="Layer_2" data-name="Layer 2"><g id="Layer_1-2" data-name="Layer 1"><text class="cls-1" transform="translate(223.96 252.52)"> </text><text class="cls-1" transform="translate(704.6 252.52)"> </text><path class="cls-2" d="M868.31,272.08a28.48,28.48,0,0,1,28.43-28.48V151.94a18.23,18.23,0,0,0-18.18-18.22H791.5a28.48,28.48,0,1,1-55.41,0H502.43a28.47,28.47,0,0,1-56.88,0H227.45c0,.42,0,.84,0,1.26a28.48,28.48,0,0,1-57,0c0-.42,0-.84,0-1.26H89.41a18.23,18.23,0,0,0-18.18,18.22V245a28.48,28.48,0,0,1,0,57v93.65a18.23,18.23,0,0,0,18.18,18.22h81.13c0-.19,0-.37,0-.56a28.48,28.48,0,0,1,23.4-28h-1V374.5h0V350.06h0V339.28h19.85v46h-8.71a28.48,28.48,0,0,1,23.4,28c0,.19,0,.37,0,.56H452.54c0-.19,0-.37,0-.56a28.48,28.48,0,1,1,57,0c0,.19,0,.37,0,.56h227a28.48,28.48,0,1,1,55.77-8.11,28.6,28.6,0,0,1-1.17,8.11h87.46a18.23,18.23,0,0,0,18.18-18.22V300.56A28.48,28.48,0,0,1,868.31,272.08ZM176.5,349H105.87V319.5h-2.74v-3.58H99.7V230.71h6.17V197.9H176.5ZM213,209.46H193.14V198.68h0V174.24h0V163.46H213ZM716.77,359.93V352.4H366.56v-2.67H716.77V342.2l13.14,8.87Zm126.42-31.11a8.91,8.91,0,0,1-8.89,8.91h-577a8.91,8.91,0,0,1-8.89-8.91V209.71a8.91,8.91,0,0,1,8.89-8.91h144a6.46,6.46,0,0,1,12-1.71,6.4,6.4,0,0,1,4.12,1.71H834.3a8.91,8.91,0,0,1,8.89,8.91Zm9.52-137H832.87V181h0V156.6h0V145.82h19.84ZM858.36,181V156.6h0V145.82h19.85v46H858.36V181Z" transform="translate(-71.23 -106.5)"/><path class="cls-2" d="M204.08,385.27H193.92a28.48,28.48,0,0,0-23.4,28c0,.19,0,.37,0,.56a28.47,28.47,0,0,0,56.92,0c0-.19,0-.37,0-.56A28.48,28.48,0,0,0,204.08,385.27ZM199,433.8a20.51,20.51,0,1,1,20.51-20.51A20.51,20.51,0,0,1,199,433.8Z" transform="translate(-71.23 -106.5)"/><path class="cls-2" d="M413,199.08h.27a6.46,6.46,0,0,0-12,1.71h7.36A6.41,6.41,0,0,1,413,199.08Z" transform="translate(-71.23 -106.5)"/><path class="cls-2" d="M408.6,200.8h8.77a6.4,6.4,0,0,0-4.12-1.71H413A6.41,6.41,0,0,0,408.6,200.8Z" transform="translate(-71.23 -106.5)"/><path class="cls-2" d="M763.8,377.26a28.51,28.51,0,1,0,28.47,28.48A28.47,28.47,0,0,0,763.8,377.26Zm0,49a20.51,20.51,0,1,1,20.5-20.5A20.5,20.5,0,0,1,763.8,426.24Z" transform="translate(-71.23 -106.5)"/><path class="cls-2" d="M199,163.46A28.48,28.48,0,0,0,227.48,135c0-.42,0-.84,0-1.26a28.48,28.48,0,0,0-56.9,0c0,.42,0,.84,0,1.26A28.48,28.48,0,0,0,199,163.46Zm0-49A20.51,20.51,0,1,1,178.49,135,20.51,20.51,0,0,1,199,114.47Z" transform="translate(-71.23 -106.5)"/><path class="cls-2" d="M763.8,168.79a28.49,28.49,0,1,0-28.48-28.48A28.46,28.46,0,0,0,763.8,168.79Zm0-49a20.51,20.51,0,1,1-20.51,20.5A20.49,20.49,0,0,1,763.8,119.81Z" transform="translate(-71.23 -106.5)"/><path class="cls-3" d="M834.3,200.8h-577a8.91,8.91,0,0,0-8.89,8.91V328.82a8.91,8.91,0,0,0,8.89,8.91h577a8.91,8.91,0,0,0,8.89-8.91V209.71A8.91,8.91,0,0,0,834.3,200.8ZM269.11,278.93a9.62,9.62,0,1,1,9.62-9.62A9.62,9.62,0,0,1,269.11,278.93Zm531.83,1.65a6.9,6.9,0,0,1-6.88,6.9H292.78a6.9,6.9,0,0,1-6.88-6.9V257.75a6.9,6.9,0,0,1,6.88-6.9H461a6.62,6.62,0,0,1,1.1-.1h67a6.5,6.5,0,0,1,1.09.1H794.06a6.9,6.9,0,0,1,6.88,6.9Zm18-1.93a9.62,9.62,0,1,1,9.62-9.62A9.61,9.61,0,0,1,818.9,278.65Z" transform="translate(-71.23 -106.5)"/><circle class="cls-4" cx="269.11" cy="269.31" r="9.62" transform="translate(-182.84 162.67) rotate(-45)"/><circle class="cls-4" cx="818.9" cy="269.03" r="9.62" transform="translate(-111.85 227.36) rotate(-22.5)"/><path class="cls-4" d="M794.06,250.85H530.19a6.9,6.9,0,0,1,5.8,6.8v22.84a6.91,6.91,0,0,1-6.89,6.9h-67a6.91,6.91,0,0,1-6.9-6.9V257.65a6.9,6.9,0,0,1,5.8-6.8H292.78a6.9,6.9,0,0,0-6.88,6.9v22.83a6.9,6.9,0,0,0,6.88,6.9H794.06a6.9,6.9,0,0,0,6.88-6.9V257.75A6.9,6.9,0,0,0,794.06,250.85Z" transform="translate(-71.23 -106.5)"/><path class="cls-5" d="M455.2,257.65v22.84a6.91,6.91,0,0,0,6.9,6.9h67a6.91,6.91,0,0,0,6.89-6.9V257.65a6.9,6.9,0,0,0-5.8-6.8,6.5,6.5,0,0,0-1.09-.1h-67a6.62,6.62,0,0,0-1.1.1A6.9,6.9,0,0,0,455.2,257.65ZM520.05,284H471.12V254.51h48.93Z" transform="translate(-71.23 -106.5)"/><rect class="cls-6" x="399.88" y="148.01" width="48.93" height="29.44"/><polygon class="cls-7" points="761.63 50.1 781.47 50.1 781.47 74.54 761.63 74.54 761.63 85.31 781.48 85.31 781.48 39.32 761.63 39.32 761.63 50.1"/><polygon class="cls-6" points="781.47 50.1 761.63 50.1 761.63 50.1 761.63 74.54 761.63 74.54 781.47 74.54 781.47 50.1"/><polygon class="cls-7" points="806.98 85.31 806.98 39.32 787.13 39.32 787.13 50.1 806.97 50.1 806.97 74.54 787.13 74.54 787.13 85.31 806.98 85.31"/><polygon class="cls-8" points="806.97 50.1 787.13 50.1 787.13 50.1 787.13 74.54 787.13 74.54 806.97 74.54 806.97 50.1"/><polygon class="cls-7" points="121.9 67.74 141.74 67.74 141.74 92.18 121.9 92.18 121.9 102.95 141.75 102.95 141.75 56.96 121.9 56.96 121.9 67.74"/><polygon class="cls-8" points="141.74 67.74 121.9 67.74 121.9 67.74 121.9 92.18 121.9 92.18 141.74 92.18 141.74 67.74"/><polygon class="cls-7" points="141.56 278.77 141.56 232.78 121.71 232.78 121.71 243.56 141.55 243.56 141.55 268 121.71 268 121.71 278.77 122.69 278.77 132.84 278.77 141.56 278.77"/><polygon class="cls-8" points="141.55 243.56 121.71 243.56 121.71 243.56 121.71 268 121.71 268 141.55 268 141.55 243.56"/><rect class="cls-7" x="295.32" y="243.23" width="350.21" height="2.67"/><polygon class="cls-7" points="645.53 243.23 645.53 245.9 645.53 253.43 658.68 244.56 645.53 235.7 645.53 243.23"/><rect class="cls-2" x="31.89" y="209.42" width="2.75" height="3.58"/><polygon class="cls-9" points="34.64 124.21 44.1 124.21 44.1 114.19 44.1 114.19 44.1 101.33 95.77 101.33 95.77 232.38 44.1 232.38 44.1 219.51 44.1 219.51 44.1 209.42 34.64 209.42 34.64 213 34.64 242.48 105.27 242.48 105.27 91.4 34.64 91.4 34.64 124.21"/><path class="cls-3" d="M126,220.69v0h9.77V326h-20.4v12.87H167v-131H115.33v12.86Zm12-2.85H155.5v17.54H138ZM138,311H155.5v17.53H138Zm0-31.11H155.5v17.54H138Zm0-31.12H155.5v17.53H138Z" transform="translate(-71.23 -106.5)"/><polygon class="cls-10" points="71.05 222.02 84.27 222.02 84.27 204.48 71.05 204.48 66.78 204.48 66.73 204.48 66.73 222.02 66.78 222.02 71.05 222.02"/><polygon class="cls-10" points="71.05 190.92 84.27 190.92 84.27 173.38 71.05 173.38 66.78 173.38 66.73 173.38 66.73 190.92 66.78 190.92 71.05 190.92"/><polygon class="cls-10" points="71.05 159.79 84.27 159.79 84.27 142.26 71.05 142.26 66.78 142.26 66.73 142.26 66.73 159.79 66.78 159.79 71.05 159.79"/><polygon class="cls-10" points="71.05 128.88 84.27 128.88 84.27 111.34 71.05 111.34 66.78 111.34 66.73 111.34 66.73 128.88 66.78 128.88 71.05 128.88"/><polygon class="cls-2" points="44.1 209.42 44.1 124.21 34.64 124.21 28.46 124.21 28.46 209.42 31.89 209.42 34.64 209.42 44.1 209.42"/><polygon class="cls-9" points="44.1 209.42 44.1 219.51 44.1 219.51 54.73 219.51 54.73 114.19 44.1 114.19 44.1 114.19 44.1 124.21 44.1 209.42"/><polygon class="cls-3" points="54.78 219.51 59.04 219.51 64.5 219.51 64.5 114.17 59.04 114.17 54.78 114.17 54.73 114.17 54.73 114.19 54.73 219.51 54.73 219.51 54.78 219.51"/><text class="cls-11" transform="translate(110.26 126.07)">O</text><text class="cls-11" transform="translate(126.24 126.07)">U</text><text class="cls-11" transform="translate(141.29 126.07)">T</text><text class="cls-11" transform="translate(111.98 155.7)">L</text><text class="cls-11" transform="translate(123.1 155.7)">E</text><text class="cls-11" transform="translate(136.48 155.7)">D</text><text class="cls-11" transform="translate(110.68 190.22)">V</text><text class="cls-11" transform="translate(125.15 190.22)">C</text><text class="cls-11" transform="translate(138.89 190.22)">C</text><text class="cls-11" transform="translate(108.86 222.96)">G</text><text class="cls-11" transform="translate(123.61 222.96)">N</text><text class="cls-11" transform="translate(139.22 222.96)">D</text><text class="cls-1" transform="translate(181.21 252.52)">O</text><text class="cls-1" transform="translate(197.3 252.52)">U</text><text class="cls-1" transform="translate(212.46 252.52)">T</text><text class="cls-1" transform="translate(229.08 252.52)">(</text><text class="cls-1" transform="translate(235.42 252.52)">G</text><text class="cls-1" transform="translate(250.29 252.52)">N</text><text class="cls-1" transform="translate(266.01 252.52)">D</text><text class="cls-1" transform="translate(281.4 252.52)">)</text><text class="cls-1" transform="translate(661.86 252.52)">O</text><text class="cls-1" transform="translate(677.94 252.52)">U</text><text class="cls-1" transform="translate(693.11 252.52)">T</text><text class="cls-1" transform="translate(709.72 252.52)">(</text><text class="cls-1" transform="translate(716.06 252.52)">V</text><text class="cls-1" transform="translate(729.76 252.52)">C</text><text class="cls-1" transform="translate(743.6 252.52)">C</text><text class="cls-1" transform="translate(757.43 252.52)">)</text></g></g></svg>