<svg xmlns="http://www.w3.org/2000/svg" height="40" width="40" viewBox="0 0 328.09 280.13"><defs><style>.cls-1{fill:#004684;}.cls-2{fill:#f1eddd;}.cls-3{fill:#d9d9d9;}.cls-4{fill:#a6a6a6;}.cls-5,.cls-8{fill:#fff;}.cls-6{fill:#2b2b2b;}.cls-7{fill:#272626;}.cls-8{font-size:20.92px;font-family:Montserrat-Bold, Montserrat;font-weight:700;}</style></defs><title>Asset 1</title><g id="Layer_2" data-name="Layer 2"><g id="Layer_1-2" data-name="Layer 1"><path class="cls-1" d="M609.05,300.91a63,63,0,1,1-76.77-22.41A17.69,17.69,0,0,1,565.47,274a62.72,62.72,0,0,1,24.09,8.46,28.45,28.45,0,0,1,31.15-37.21v-93.4a18.24,18.24,0,0,0-18.21-18.21H521.87a40.81,40.81,0,0,1-4.64,18.94h40v70.63H524.22v6.17H439v-6.17H406.2V152.6h38.43A40.81,40.81,0,0,1,440,133.66H358.8a18.24,18.24,0,0,0-18.21,18.21v93.51a28.47,28.47,0,0,1,24.64,48.52h18.62v46H364V329.12h0V304.67h0V295a28.37,28.37,0,0,1-23.41,6.48v94.07a18.24,18.24,0,0,0,18.21,18.21H440c0-.18,0-.37,0-.55a40.94,40.94,0,1,1,81.88,0c0,.18,0,.37,0,.55H602.5a18.23,18.23,0,0,0,18.21-18.21V301.62a29.66,29.66,0,0,1-4.14.3A28.61,28.61,0,0,1,609.05,300.91Zm-225.2,96H364V386.11h0V361.67h0V350.9h19.85Zm89.9-49.76h-2.27v19.5H464v-19.5H451.13v19.5h-7.52v-19.5h-12.4v19.5h-7.52v-19.5H412.52v19.5H405v-19.5h-2.75V292.6H405V276.46h7.52V292.6h11.17V276.46h7.52V292.6h12.4V276.46h7.52V292.6H464V276.46h4.73V236.1h25.93v85.66H473.75Z" transform="translate(-316.95 -133.66)"/><path class="cls-1" d="M645,273.44a28.48,28.48,0,1,0-55.48,9,63.4,63.4,0,0,1,19.49,18.43,28.61,28.61,0,0,0,7.52,1,29.66,29.66,0,0,0,4.14-.3A28.48,28.48,0,0,0,645,273.44ZM616.57,294a20.51,20.51,0,1,1,20.51-20.51A20.51,20.51,0,0,1,616.57,294Z" transform="translate(-316.95 -133.66)"/><path class="cls-1" d="M364,295V293.9h1.23A28.59,28.59,0,1,0,364,295Zm-39.08-21.58A20.51,20.51,0,1,1,345.43,294,20.51,20.51,0,0,1,324.92,273.44Z" transform="translate(-316.95 -133.66)"/><polygon class="cls-1" points="177.68 102.44 151.75 102.44 151.75 142.81 154.53 142.81 154.53 158.94 156.8 158.94 156.8 188.11 177.68 188.11 177.68 102.44"/><polygon class="cls-2" points="89.25 18.94 89.25 89.57 122.06 89.57 122.06 80.11 112.03 80.11 112.03 80.11 99.18 80.11 99.18 28.43 230.23 28.43 230.23 80.11 217.35 80.11 217.35 80.11 207.27 80.11 207.27 89.57 240.33 89.57 240.33 18.94 200.28 18.94 127.68 18.94 89.25 18.94"/><path class="cls-3" d="M429,203.13v-9.77H534.3v9.77h0v10.63h12.88V162.09h-131v51.67H429V203.13Zm28.1-12V173.6h17.53v17.53Zm31.12,0V173.6h17.53v17.53Zm31.1,0V173.6h17.54v17.53ZM426.14,173.6h17.54v17.53H426.14Z" transform="translate(-316.95 -133.66)"/><rect class="cls-4" x="202.33" y="39.94" width="17.54" height="17.54"/><rect class="cls-4" x="171.23" y="39.94" width="17.54" height="17.54"/><rect class="cls-4" x="140.11" y="39.94" width="17.54" height="17.54"/><rect class="cls-4" x="109.19" y="39.94" width="17.54" height="17.54"/><polygon class="cls-1" points="207.27 80.11 122.06 80.11 122.06 89.57 122.06 95.75 207.27 95.75 207.27 89.57 207.27 80.11"/><polygon class="cls-2" points="217.35 80.11 217.35 80.11 217.35 69.48 112.03 69.48 112.03 80.11 112.03 80.11 122.06 80.11 207.27 80.11 217.35 80.11"/><polygon class="cls-3" points="217.35 59.71 112.01 59.71 112.01 69.48 112.03 69.48 217.35 69.48 217.35 69.48 217.35 59.71"/><path class="cls-1" d="M565.47,274a17.69,17.69,0,0,0-33.19,4.48A62.72,62.72,0,0,1,565.47,274Z" transform="translate(-316.95 -133.66)"/><polygon class="cls-5" points="47.05 228.01 66.9 228.01 66.9 252.46 47.05 252.46 47.05 263.24 66.9 263.24 66.9 217.24 47.05 217.24 47.05 228.01"/><polygon class="cls-6" points="66.9 228.01 47.05 228.01 47.05 228.01 47.05 252.46 47.05 252.46 66.9 252.46 66.9 228.01"/><path class="cls-5" d="M557,273.44a63.49,63.49,0,1,0,8.43.58A62.83,62.83,0,0,0,557,273.44Zm60.41,63.24a60.22,60.22,0,1,1-60.22-60.22A60.21,60.21,0,0,1,617.45,336.68Z" transform="translate(-316.95 -133.66)"/><circle class="cls-7" cx="557.23" cy="336.68" r="60.22" transform="translate(-391.81 358.98) rotate(-45)"/><rect class="cls-4" x="126.66" y="142.81" width="7.52" height="16.13"/><rect class="cls-4" x="126.66" y="213.47" width="7.52" height="19.5"/><rect class="cls-4" x="106.74" y="142.81" width="7.52" height="16.13"/><rect class="cls-4" x="106.74" y="213.47" width="7.52" height="19.5"/><rect class="cls-4" x="147.02" y="213.47" width="7.52" height="19.5"/><polygon class="cls-4" points="154.53 158.94 154.53 142.81 151.75 142.81 147.02 142.81 147.02 158.94 154.53 158.94"/><rect class="cls-4" x="88.05" y="142.81" width="7.52" height="16.13"/><rect class="cls-4" x="88.05" y="213.47" width="7.52" height="19.5"/><polygon class="cls-6" points="154.53 158.94 147.02 158.94 134.18 158.94 126.66 158.94 114.25 158.94 106.74 158.94 95.57 158.94 88.05 158.94 85.3 158.94 85.3 213.47 88.05 213.47 95.57 213.47 106.74 213.47 114.25 213.47 126.66 213.47 134.18 213.47 147.02 213.47 154.53 213.47 156.8 213.47 156.8 188.11 156.8 158.94 154.53 158.94"/><polygon class="cls-5" points="47.05 161.36 47.05 171.02 66.9 171.02 66.9 195.46 47.05 195.46 47.05 206.24 66.9 206.24 66.9 160.25 48.28 160.25 47.05 160.25 47.05 161.36"/><polygon class="cls-6" points="66.9 171.02 47.05 171.02 47.05 171.02 47.05 195.46 47.05 195.46 66.9 195.46 66.9 171.02"/><text class="cls-8" transform="translate(135.08 96.13) rotate(90)">N</text><text class="cls-8" transform="translate(135.08 112.57) rotate(90)">C</text><text class="cls-8" transform="translate(101 96.07) rotate(90)">S</text><text class="cls-8" transform="translate(101 109.54) rotate(90)">I</text><text class="cls-8" transform="translate(101 116.19) rotate(90)">G</text><text class="cls-8" transform="translate(204.09 95.81) rotate(90)">G</text><text class="cls-8" transform="translate(204.09 111.35) rotate(90)">N</text><text class="cls-8" transform="translate(204.09 127.79) rotate(90)">D</text><text class="cls-8" transform="translate(169.42 96.74) rotate(90)">V</text><text class="cls-8" transform="translate(169.42 111.99) rotate(90)">C</text><text class="cls-8" transform="translate(169.42 126.46) rotate(90)">C</text></g></g></svg>