<svg xmlns="http://www.w3.org/2000/svg" width="40" height="40" viewBox="0 0 280.13 336.53"><defs><style>.cls-1{fill:#004684;}.cls-2{fill:#d9d9d9;}.cls-3{fill:#2e2d2d;}.cls-4{fill:#c7d0d8;}.cls-5{fill:#1a1a1a;}.cls-6{fill:#f1eddd;}.cls-7{fill:#a6a6a6;}.cls-8{fill:#fefefe;}.cls-9{fill:#fdfdfd;}.cls-10{fill:#fcfcfc;}.cls-11{fill:#f6f7f6;}.cls-12{fill:#fafbfb;}.cls-13{fill:#03447f;}.cls-14{fill:#073f74;}.cls-15{fill:#004182;}.cls-16{fill:#013d80;}.cls-17{fill:#033b71;}.cls-18{fill:#23445f;}.cls-19{fill:#103f6b;}.cls-20{fill:#0d3e6f;}.cls-21{fill:#1b3a55;}.cls-22{fill:#0f3e67;}.cls-23{fill:#0d3d66;}.cls-24{fill:#004688;}.cls-25{fill:#114c82;}.cls-26{fill:#134c81;}.cls-27{fill:#0f4b82;}.cls-28{fill:#064781;}.cls-29{fill:#064885;}.cls-30{fill:#fdfcf6;}.cls-31{fill:#f7f8f7;}.cls-32{fill:#144d81;}.cls-33{fill:#124d84;}.cls-34{fill:#014684;}.cls-35{fill:#f9fafa;}.cls-36{fill:#f8fafa;}.cls-37{fill:#f8faf9;}.cls-38{fill:#f2f5f6;}.cls-39{fill:#f5f7f8;}.cls-40{fill:#014080;}.cls-41{fill:#013f81;}.cls-42{fill:#f4f6f6;}.cls-43{fill:#013c7e;}.cls-44{fill:#f7f8f8;}.cls-45{fill:#023b7d;}.cls-46{fill:#f8f9f9;}.cls-47{fill:#43729e;}.cls-48{fill:#023d80;}.cls-49{font-size:19.86px;fill:#fff;font-family:Montserrat-Bold, Montserrat;font-weight:700;}</style></defs><title>Asset 1</title><g id="Layer_2" data-name="Layer 2"><g id="Layer_1-2" data-name="Layer 1"><path class="cls-1" d="M251.09,166.9a28.48,28.48,0,0,1,28.48-28.48l.56,0V46.13a18.25,18.25,0,0,0-18.22-18.22H168.25c0,.19,0,.38,0,.57a28.42,28.42,0,0,1-10.61,22.17h60.68V124H184v6.41H95.52V124H61.45V50.65h60.47a28.42,28.42,0,0,1-10.61-22.17c0-.19,0-.38,0-.57H18.22A18.25,18.25,0,0,0,0,46.13v92.39c.75-.06,1.5-.1,2.26-.1a28.48,28.48,0,0,1,0,57c-.76,0-1.51,0-2.26-.1v94.55A18.25,18.25,0,0,0,18.22,308h93.09a28.37,28.37,0,0,1,8.89-20.65,8,8,0,0,1-6.38-7.84V178.76a8,8,0,0,1,8-8h36a8,8,0,0,1,8,8v7.4a9.24,9.24,0,0,1,0,16.82v18.9a9.24,9.24,0,0,1,0,16.82v17.43a9.25,9.25,0,0,1,0,16.83v6.59a8,8,0,0,1-6.46,7.85A28.38,28.38,0,0,1,168.26,308h93.65a18.25,18.25,0,0,0,18.22-18.21V195.36l-.56,0A28.48,28.48,0,0,1,251.09,166.9ZM5,55.43a4.62,4.62,0,0,1,7.79,2.89A6.2,6.2,0,1,1,1,61.19,6.21,6.21,0,0,1,5,55.43ZM1,110.83V95.94H2.23a9.23,9.23,0,0,1,3.82-7.47H3v-21H8.44v12a3.73,3.73,0,0,1,0,7.07v.74a9.34,9.34,0,0,1,3.05-.52A9.24,9.24,0,0,1,16.19,88,8,8,0,0,1,17,86c1.73-3.06.86-5.34-2.57-6.72-.31.46-.67.83-1.28.52-.13-.06-.18-.26-.27-.39l1-.22h0c-.87-.9-2.58-.18-3.19-1.58-.87-1.82-.5-3.65-.06-5.48h0c.26-2,2-1.67,3.27-1.85A5.11,5.11,0,0,0,17,69.1c.37-.77.74-1.53,1.12-2.29,0-.37.07-.73.49-.89-.41-1.64-1.65-2.83-2.4-4.27-.37-.7-1.28-1.4-.22-2.25a.69.69,0,0,0,0,.34,2,2,0,0,1,0-.34.21.21,0,0,1,.21-.27c3.36-4.29,3.95-4.42,7.62-1.7l.87.52a5.14,5.14,0,0,0,2.64.13h0c1.84-.47,2.56-1.67,2.91-3.5.28-1.44-.19-3.55,2.19-4l1.87-.47c.86-.4,1.74-1.18,2.55.09h0a4,4,0,0,0,.29.39c1.94.51,1.88,2.26,2.27,3.66,1.08,3.87,3.45,4.85,6.8,2.71s3.69-2.06,6.37.94c2.32,1.39,2.27,3,.63,4.95-.77.91-1.73,1.78-1.88,3.09a.36.36,0,0,1,.16.43A7.11,7.11,0,0,1,53,69.17c.86,1.39,2.39,1,3.63,1.24,2.84.62,2.82,2.93,2.77,4.9,0,1.81-.38,3.94-3.2,3.8-2.24-.11-3.26,1.23-4,3.15s-.7,3.46,1,4.82a2.61,2.61,0,0,1,1.27,2.44c-.5,2.89-4.81,4.86-7.46,3.51-1.23-.62-2.2-2-3.79-1.67-1.84.33-2.56-.7-3.09-2.13-.32-.9-.72-1.76-1.09-2.64h0c-2,1.25-4.24.39-6.54.68,1.57-1.53.43-2.68-.34-3.88h0c-1.54,2.32-2,5.18-3.75,7.39-1.07,1.45-1.5,1.48-2.18.18h0c-1.21-.29-1.79.45-2.63,1.18s-1.8,1.75-3,1.73a8.73,8.73,0,0,1,.24,2.06H22v14.89ZM219.28,74.17V71.89A3,3,0,0,1,219.28,74.17Zm26.59,45.88a9.2,9.2,0,0,1,2.7-6.53,9.24,9.24,0,0,1-2.12-9.75c-3.15,1.87-7.44,1.23-10.89-1.2-2.14-1.49-3.19-3.58-4.11-5.85h0a4.14,4.14,0,0,1-.08-4.09c.42-3.39,2.57-5.65,5-7.69a3.06,3.06,0,0,0,1.16-2.65c0-2.88.06-5.76.07-8.64,0-1.43-.57-2.26-2.15-1.78h0c-.46.73-1.18.47-1.83.52-1.1.25-1.48,1.17-1.87,2.08h0a3.09,3.09,0,0,1-.77,2.09,1,1,0,0,1-.69.87,3.35,3.35,0,0,1-1.71,1.25h0c-2.16,1.07-4.27,1.31-6.24-.45-2.08-1.57-3.26-5.53-2.29-7.66.89-2,4.78-3.81,7.11-3.26a8.1,8.1,0,0,1,2.44,1.18,3.82,3.82,0,0,0,4-.08c1.72-.85.94-2.69,1.13-4,.17-1.13-1-1.77-2.23-1.81-1.53-.06-3.11.18-4.46-.85l-1.12-.45h0a1.31,1.31,0,0,1-1.32-1.18l-.75-1.72-.07-.78h0c-.42-3.46.65-5.4,3.67-6.67h0a2.93,2.93,0,0,1,3.35-.42l.18,0,.15.11h0c3.42,1.11,4.6,2.68,4.6,6.15,0,.75,0,1.5,0,2.25-.06,1.66.52,2.63,2.36,2.26l.1-.09.12.08h0c1-.46,1-1.5,1.34-2.32a8.94,8.94,0,0,0-1-10h0a2,2,0,0,1-.07-3c.8-3.74,4.79-5.39,8-4.6h0c.85-.45,1.33,0,1.62.76a7.38,7.38,0,0,1,2.64,5.39h0l.48-.53c.06.62.66,1.4-.48,1.65-.59,2.9-3.06,4-5.1,5.56h0a3.93,3.93,0,0,1-1.31,1.76l-.67,1.28h0c.11,1.53-.82,3-.45,4.51,1.77,1.08,2.32,3,2.83,4.77s1.33,2.18,3,1.57,3.06-1.53,4.81-1.56h0c.76-.39,1.26,0,1.66.6,1.11.91,2.77,1.18,3.25,2.84h0c.85.56.83,1.42.76,2.29,1,3.13-2.49,6.47-5.61,6.79a6.06,6.06,0,0,1-6.6-5.45c-.31-2.13-2-2.87-3.67-1.6h0a29.53,29.53,0,0,0,.14,12l.7,0c.4-.53.29-1.39,1-1.72a.34.34,0,0,1,.16-.07.46.46,0,0,0-.16.07c-.57.44,1.32,2.37-1,1.74h0c.11,1.54,1.68,1.63,2.43,2.54.9.1.91,1,1.38,1.52a11,11,0,0,1,1,11,9,9,0,0,1,1.67-.76c0-.17,0-.33,0-.5a9.26,9.26,0,1,1,17.27,4.63A9.24,9.24,0,0,1,263.44,116a9.25,9.25,0,1,1-17.57,4Z"/><path class="cls-1" d="M226.86,52.58l.12-.13c-.17-.06-.34-.14-.54-.23Z"/><path class="cls-1" d="M159.39,287.4a8,8,0,0,1-1.56.16H140.14a20.51,20.51,0,1,1-.71,0H121.84a8.07,8.07,0,0,1-1.64-.17A28.37,28.37,0,0,0,111.31,308h0a28.48,28.48,0,1,0,56.95,0h0A28.38,28.38,0,0,0,159.39,287.4Z"/><path class="cls-1" d="M22,95.94H20.75a9.26,9.26,0,0,1-18.51,0H1v14.89H22Z"/><path class="cls-1" d="M121.92,50.65h35.73a28.42,28.42,0,0,0,10.61-22.17c0-.19,0-.38,0-.57a28.47,28.47,0,0,0-56.93,0c0,.19,0,.38,0,.57A28.42,28.42,0,0,0,121.92,50.65ZM139.79,8a20.51,20.51,0,1,1-20.51,20.51A20.5,20.5,0,0,1,139.79,8Z"/><path class="cls-2" d="M171.26,194.57a9.24,9.24,0,0,0-5.41-8.41V203A9.25,9.25,0,0,0,171.26,194.57Z"/><path class="cls-2" d="M171.26,230.29a9.24,9.24,0,0,0-5.41-8.41V238.7A9.24,9.24,0,0,0,171.26,230.29Z"/><path class="cls-2" d="M171.26,264.55a9.27,9.27,0,0,0-5.41-8.42V273A9.27,9.27,0,0,0,171.26,264.55Z"/><path class="cls-3" d="M139.43,287.56h18.4a8.06,8.06,0,0,0,8-8V178.76a8,8,0,0,0-8-8h-36a8,8,0,0,0-8,8V279.55a8,8,0,0,0,8,8Zm-17-3-6.11-6.21h0V179.68l6.12-6.23h34.14v0l6.21,6.21v98.63l-6.23,6.21Z"/><polygon class="cls-4" points="116.28 278.31 116.3 278.31 116.28 278.29 116.28 278.31"/><polygon class="cls-4" points="156.54 173.45 156.52 173.45 156.54 173.47 156.54 173.45"/><path class="cls-4" d="M156.52,284.52l6.23-6.21V179.68l-6.21-6.21,0,0H122.4l-6.12,6.23v98.63l6.11,6.21Zm-31.88-75.94h1.15v-19a3.33,3.33,0,0,1,3.33-3.32h21.39a3.32,3.32,0,0,1,3.32,3.32v19h1v30.23h-1v28.25a3.32,3.32,0,0,1-3.32,3.32H129.12a3.33,3.33,0,0,1-3.33-3.32V238.81h-1.15Z"/><path class="cls-1" d="M12.74,58.32A4.62,4.62,0,0,0,5,55.43a6.2,6.2,0,0,1,7.79,2.89Z"/><path class="cls-1" d="M11.49,105.19a9.25,9.25,0,0,0,9.26-9.25h0a8.73,8.73,0,0,0-.24-2.06,2.87,2.87,0,0,1-1.4-.44c-2.52-1.51-3.48-3.26-2.92-5.47a9.24,9.24,0,0,0-4.7-1.28,9.34,9.34,0,0,0-3.05.52v1.26H6.05a9.23,9.23,0,0,0-3.82,7.47h0A9.25,9.25,0,0,0,11.49,105.19Z"/><path class="cls-1" d="M11,82.93a3.75,3.75,0,0,0-2.55-3.54v7.07A3.74,3.74,0,0,0,11,82.93Z"/><path class="cls-1" d="M264.38,120.05a9.2,9.2,0,0,0-.94-4,9.09,9.09,0,0,1-5.19-.31,9.23,9.23,0,0,1-9.68-2.17,9.26,9.26,0,1,0,15.81,6.53Z"/><path class="cls-1" d="M264.36,106.48c0,.17,0,.33,0,.5a9.25,9.25,0,0,1-6.13,8.71,9.25,9.25,0,0,0,11.14-13.34A9.18,9.18,0,0,1,264.36,106.48Z"/><path class="cls-1" d="M264.36,106.48a9.26,9.26,0,1,0-12.24-8.76c0,.17,0,.33,0,.5a9.12,9.12,0,0,1,3-.5A9.25,9.25,0,0,1,264.36,106.48Z"/><path class="cls-3" d="M153.83,189.58a3.32,3.32,0,0,0-3.32-3.32H129.12a3.33,3.33,0,0,0-3.33,3.32v19h28Z"/><path class="cls-3" d="M125.79,267.06a3.33,3.33,0,0,0,3.33,3.32h21.39a3.32,3.32,0,0,0,3.32-3.32V238.81h-28Z"/><polygon class="cls-5" points="153.83 238.81 154.86 238.81 154.86 208.58 153.83 208.58 125.79 208.58 124.64 208.58 124.64 238.81 125.79 238.81 153.83 238.81"/><polygon class="cls-6" points="61.45 50.65 61.45 123.99 95.52 123.99 95.52 114.17 85.11 114.17 85.11 114.17 71.76 114.17 71.76 60.51 207.85 60.51 207.85 114.17 194.48 114.17 194.48 114.17 184 114.17 184 123.99 218.33 123.99 218.33 50.65 157.65 50.65 121.92 50.65 61.45 50.65"/><path class="cls-2" d="M85.09,103.13V93H194.48v10.15h0v11h13.37V60.51H71.76v53.66H85.11v-11ZM82.15,90.66V72.45h18.21V90.66Zm32.11,0V72.45h18.21V90.66Zm32.32,0V72.45h18.2V90.66Zm32.29,0V72.45h18.21V90.66Z"/><rect class="cls-7" x="178.87" y="72.45" width="18.21" height="18.21"/><rect class="cls-7" x="146.58" y="72.45" width="18.21" height="18.21"/><rect class="cls-7" x="114.26" y="72.45" width="18.21" height="18.21"/><rect class="cls-7" x="82.15" y="72.45" width="18.21" height="18.21"/><polygon class="cls-1" points="184 114.17 95.52 114.17 95.52 123.99 95.52 130.4 184 130.4 184 123.99 184 114.17"/><polygon class="cls-6" points="184 114.17 194.48 114.17 194.48 114.17 194.48 103.13 85.11 103.13 85.11 114.17 85.11 114.17 95.52 114.17 184 114.17"/><polygon class="cls-2" points="194.48 92.98 85.09 92.98 85.09 103.13 85.11 103.13 194.48 103.13 194.48 103.13 194.48 92.98"/><path class="cls-1" d="M255.12,116.24a9.28,9.28,0,0,0,9.26-9.26c0-.17,0-.33,0-.5a9.25,9.25,0,0,0-9.24-8.76,9.12,9.12,0,0,0-3,.5,9,9,0,0,0-1.67.76,10.44,10.44,0,0,1-3.77,4.64l-.26.15a9.25,9.25,0,0,0,8.67,12.47Z"/><path class="cls-1" d="M7.24,67.39A6.2,6.2,0,1,0,1,61.19,6.19,6.19,0,0,0,7.24,67.39Z"/><polygon class="cls-1" points="8.44 87.2 8.44 86.46 8.44 79.39 8.44 67.42 2.99 67.42 2.99 88.46 6.04 88.46 8.44 88.46 8.44 87.2"/><path class="cls-8" d="M250.48,99a11,11,0,0,0-1-11,1.78,1.78,0,0,1-1.38-1.52c-.75-.91-2.32-1-2.43-2.54h0v0l-.7,0A2,2,0,0,1,244,82q0-4.4,0-8.77c0-.54-.16-1.3.79-1.32,1.65-1.27,3.36-.53,3.67,1.6A6.06,6.06,0,0,0,255,79c3.12-.32,6.58-3.66,5.61-6.79-.25-.76-.5-1.53-.76-2.29h0c-.48-1.66-2.14-1.93-3.25-2.84l-1.66-.6h0c-1.75,0-3.23,1-4.81,1.56s-2.48.15-3-1.57-1.06-3.69-2.83-4.77c-1,.34-1.92.08-2-.87s.12-2.5,1.35-2.83c.62-.16.73-.62,1.14-.81-.26-1,1-2.37-1.22-2.93-1.08-.27-.86.26-.92.55-.38,1.7-.65,3.42-1,5.12-.27,1.34-.92,2.07-2.35,1.3h0l-.12-.08-.1.09c-2.72,1-4.61.41-3.84-2.8a12.61,12.61,0,0,0-.14-4.46c-.15-1.36-1.39-1.79-2.37-2.25-.66-.31-.87-.5-.6-1.15h0l-.15-.11-.18,0c-1.08.43-2.11,1.22-3.35.42h0c0,.92.77,2.42-1.49,1.54l-.12.13c1.33,1.17,1.25,1.84-.26,2.1-1.71.29-.86,2.16-1.8,2.9l.07.78c2.72,0,3.79,1.1,3.19,3.35h0c1.35,1,2.93.79,4.46.85,1.2,0,2.4.68,2.23,1.81-.19,1.35.59,3.19-1.13,4a3.82,3.82,0,0,1-4,.08,8.1,8.1,0,0,0-2.44-1.18c-2.33-.55-6.22,1.29-7.11,3.26-1,2.13.21,6.09,2.29,7.66a40.79,40.79,0,0,0,6.25.45h0c.47-.57.15-2.24,1.71-1.25a1,1,0,0,0,.69-.87c.09-.76-.76-1.88.77-2.09h0c.39-.91.77-1.83,1.87-2.08a2,2,0,0,1,1.83-.52h0c1.58-.48,2.15.35,2.15,1.78,0,2.88-.11,5.76-.07,8.64a3.06,3.06,0,0,1-1.16,2.65c-2.42,2-4.57,4.3-5,7.69,0,1.36,0,2.73.08,4.09.92,2.27,2,4.36,4.11,5.85,3.45,2.43,7.74,3.07,10.89,1.2l.26-.15A10.44,10.44,0,0,0,250.48,99Zm3.93-27.89a2,2,0,0,1,2,1.85,1.91,1.91,0,0,1-2.11,1.7c-.8-.06-1.9,0-1.78-1.23C252.54,72,253.34,71.11,254.41,71.09Zm-27.63,5.77c-.59.88-.92-.82-1.49-1.23L224.8,75c-.64-.78-1.31-1.66-.64-2.64s1.76-.64,2.72-.38c1-.38,1.11.23,1.18,1A6.26,6.26,0,0,1,226.78,76.86Zm7.65-19c-1.34-.74-2,.78-3.14.84a2.93,2.93,0,0,1-3-1.34,1.17,1.17,0,0,1,.63-1.84h0l0,0c-.28-1.44.72-1.61,1.71-1.59.07-1-.86-.58-1.1-1.14,1.22-.41,2-.55,2.5,1.14.23.79.5,2.61,2.29,2.39.36,0,.47.44.49.77S234.65,58,234.43,57.89Zm2.63,28.25a.79.79,0,0,1-.76.51,1.89,1.89,0,0,1-.09-.38,2.58,2.58,0,0,1,.6-.44C237.05,85.73,237.19,85.91,237.06,86.14ZM241,65.31a4.07,4.07,0,0,0,.6-.06h0c.91-.4,1,.27,1.21.89.51,1.71-.83,2.13-1.89,2.49s-1.68-.49-1.8-1.36C238.91,66,239.57,65.21,241,65.31Zm2.95,31.45c-1,1.35-2.06,2.5-3.87,1.23h0l-.53-.46h0c-.89-.13-.87-.85-1-1.5-1.58-1.28-1.21-3,1-4.55.37-.21.58-.74,1.13-.6h0c1.94-1,2.82.73,3.67,1.74a2.75,2.75,0,0,1-.42,4.14Z"/><path class="cls-9" d="M241.68,59.89c.35-1.7.62-3.42,1-5.12.06-.29-.16-.82.92-.55,2.23.56,1,1.94,1.22,2.93h0l.67-1.28a1.86,1.86,0,0,1,1.31-1.76h0c2-1.53,4.51-2.66,5.1-5.56V47.43h0A7.38,7.38,0,0,0,249.27,42l-1.62-.76h0c-3.22-.79-7.21.86-8,4.6,0,1,.05,2,.07,3h0a8.94,8.94,0,0,1,1,10c-.38.82-.35,1.86-1.34,2.32h0C240.76,62,241.41,61.23,241.68,59.89Zm4.23-14.32c.63.12,1.69.83,1.56,1.79a2,2,0,0,1-2.06,1.85c-.95-.06-1.26-.89-1.49-1.83C244.59,46.79,244.74,45.35,245.91,45.57Z"/><path class="cls-10" d="M232.76,51.69c1,.46,2.22.89,2.37,2.25a12.61,12.61,0,0,1,.14,4.46c-.77,3.21,1.12,3.83,3.84,2.8-1.84.37-2.42-.6-2.36-2.26,0-.75,0-1.5,0-2.25,0-3.47-1.18-5-4.6-6.15h0C231.89,51.19,232.1,51.38,232.76,51.69Z"/><path class="cls-10" d="M226.6,54.68c1.51-.26,1.59-.93.26-2.1l-.42-.36c.2.09.37.17.54.23,2.26.88,1.52-.62,1.49-1.54-3,1.27-4.09,3.21-3.67,6.67h0C225.74,56.84,224.89,55,226.6,54.68Z"/><path class="cls-9" d="M244.82,57.15c-.41.19-.52.65-1.14.81-1.23.33-1.51,1.74-1.35,2.83s1.09,1.21,2,.87c-.37-1.56.56-3,.45-4.51h0Z"/><path class="cls-10" d="M224.87,58.36l.75,1.72a2.58,2.58,0,0,1,1.32,1.18h0l1.12.45h0C228.66,59.46,227.59,58.34,224.87,58.36Z"/><path class="cls-11" d="M244,73.23q0,4.38,0,8.77a2,2,0,0,0,.92,1.9,29.53,29.53,0,0,1-.14-12h0C243.82,71.93,244,72.69,244,73.23Z"/><path class="cls-12" d="M222.32,78.23c2,1.76,4.08,1.52,6.24.45h0A40.79,40.79,0,0,1,222.32,78.23Z"/><path class="cls-10" d="M231.83,50.48a2.93,2.93,0,0,0-3.35.42h0C229.72,51.7,230.75,50.91,231.83,50.48Z"/><path class="cls-13" d="M246.63,82.23a.46.46,0,0,1,.16-.07A.34.34,0,0,0,246.63,82.23Z"/><path class="cls-13" d="M245.62,84c2.33.63.44-1.3,1-1.74-.73.33-.62,1.19-1,1.72v0Z"/><path class="cls-14" d="M239.64,45.88a2,2,0,0,0,.07,3h0C239.69,47.89,239.66,46.88,239.64,45.88Z"/><path class="cls-15" d="M231.45,96.72h0c0-1.36-.06-2.73-.08-4.09A4.14,4.14,0,0,0,231.45,96.72Z"/><path class="cls-12" d="M228.57,78.68a3.35,3.35,0,0,0,1.71-1.25C228.72,76.44,229,78.11,228.57,78.68Z"/><path class="cls-16" d="M219.28,71.89v2.28A3,3,0,0,0,219.28,71.89Z"/><path class="cls-12" d="M231,76.56a3.09,3.09,0,0,0,.77-2.09h0C230.21,74.68,231.06,75.8,231,76.56Z"/><path class="cls-17" d="M251.91,48.55c1.14-.25.54-1,.48-1.65l-.48.53h0Z"/><path class="cls-11" d="M249.43,88c-.47-.5-.48-1.42-1.38-1.52A1.78,1.78,0,0,0,249.43,88Z"/><path class="cls-18" d="M260.65,72.17c.07-.87.09-1.73-.76-2.29h0C260.15,70.64,260.4,71.41,260.65,72.17Z"/><path class="cls-19" d="M233.61,72.39c.65,0,1.37.21,1.83-.52h0A2,2,0,0,0,233.61,72.39Z"/><path class="cls-20" d="M245.5,55.87a3.93,3.93,0,0,0,1.31-1.76h0A1.86,1.86,0,0,0,245.5,55.87Z"/><path class="cls-21" d="M256.64,67c-.4-.64-.9-1-1.66-.6h0Z"/><path class="cls-22" d="M225.62,60.08a1.31,1.31,0,0,0,1.32,1.18h0A2.58,2.58,0,0,0,225.62,60.08Z"/><path class="cls-23" d="M249.27,42c-.29-.8-.77-1.21-1.62-.76h0Z"/><path class="cls-24" d="M243.17,96.76A1.35,1.35,0,0,1,242,96c1.2-.25,2.63-.34,2.27-2.14s-1.42.28-2-.4a1.48,1.48,0,0,1-.4-1.24c-.43-.45-1.22-.54-1.29-1.34h0c-.55-.14-.76.39-1.13.6.49.43,1,1,.2,1.44-1.46.72-1,2-1.15,3.12a1.81,1.81,0,0,1,.93,1.49h0L240,98h0C241.32,98.22,242.22,97.42,243.17,96.76Zm-1.11-2.53a.69.69,0,0,1,.42.34c.09.24-.1.38-.32.32a1.55,1.55,0,0,1-.41-.3C241.7,94.27,241.84,94.15,242.06,94.23Zm-1.84.7c-.21-.06-.37-.26-.7-.5.32-.12.48-.24.6-.21s.58.19.61.34C240.8,94.87,240.48,95,240.22,94.93Z"/><path class="cls-10" d="M234.38,56.32c-1.79.22-2.06-1.6-2.29-2.39-.51-1.69-1.28-1.55-2.5-1.14.24.56,1.17.18,1.1,1.14-1,0-2,.15-1.71,1.59.24-.12.47-.25.72-.36,1-.46,2-.66,2.69.43a1.58,1.58,0,0,1-.23,2.07,2,2,0,0,1-2.6.23,1.47,1.47,0,0,1-.6-2.34,1.17,1.17,0,0,0-.63,1.84,2.93,2.93,0,0,0,3,1.34c1.11-.06,1.8-1.58,3.14-.84.22.12.46-.45.44-.8S234.74,56.27,234.38,56.32Z"/><path class="cls-25" d="M254.32,74.64a1.91,1.91,0,0,0,2.11-1.7,2,2,0,0,0-2-1.85c-1.07,0-1.87.9-1.87,2.32C252.42,74.67,253.52,74.58,254.32,74.64Z"/><path class="cls-26" d="M226.88,72h0c-1-.26-2-.62-2.72.38s0,1.86.64,2.64l.49.62C227.55,74.76,227.87,74,226.88,72Z"/><path class="cls-27" d="M240.88,68.63c1.06-.36,2.4-.78,1.89-2.49-.41-.29-.81-.59-1.21-.89a4.07,4.07,0,0,1-.6.06c-1.39-.1-2.05.67-1.88,2C239.2,68.14,239.89,69,240.88,68.63Z"/><path class="cls-28" d="M244.33,92.62c-.85-1-1.73-2.75-3.67-1.74h0c.07.8.86.89,1.29,1.34.89.16.64.7.4,1.24.54.68,1.61-1.36,2,.4S243.24,95.75,242,96a1.35,1.35,0,0,0,1.13.76c.25-.31.49-.12.74,0A2.75,2.75,0,0,0,244.33,92.62Z"/><path class="cls-12" d="M226.88,72h0c1,2,.67,2.77-1.59,3.64.57.41.9,2.11,1.49,1.23A6.26,6.26,0,0,0,228.06,73C228,72.22,227.89,71.61,226.88,72Z"/><path class="cls-28" d="M238.58,96c.13-1.12-.31-2.4,1.15-3.12.8-.39.29-1-.2-1.44-2.19,1.55-2.56,3.27-1,4.55h0Z"/><path class="cls-29" d="M243.17,96.76c-.95.66-1.85,1.46-3.13,1.23h0c1.81,1.27,2.87.12,3.87-1.23h0C243.66,96.64,243.42,96.45,243.17,96.76Z"/><path class="cls-30" d="M236.81,85.83a2.58,2.58,0,0,0-.6.44,1.89,1.89,0,0,0,.09.38.79.79,0,0,0,.76-.51C237.19,85.91,237.05,85.73,236.81,85.83Z"/><path class="cls-29" d="M238.58,96h0c.09.65.07,1.37,1,1.5h0A1.81,1.81,0,0,0,238.58,96Z"/><path class="cls-31" d="M241.56,65.25h0c.4.3.8.6,1.21.89C242.6,65.52,242.47,64.85,241.56,65.25Z"/><path class="cls-32" d="M245.41,49.21a2,2,0,0,0,2.06-1.85c.13-1-.93-1.67-1.56-1.79-1.17-.22-1.32,1.22-2,1.81C244.15,48.32,244.46,49.15,245.41,49.21Z"/><path class="cls-29" d="M240.73,94.56c0-.15-.38-.28-.61-.34s-.28.09-.6.21c.33.24.49.44.7.5S240.8,94.87,240.73,94.56Z"/><path class="cls-28" d="M242.16,94.89c.22.06.41-.08.32-.32a.69.69,0,0,0-.42-.34c-.22-.08-.36,0-.31.36A1.55,1.55,0,0,0,242.16,94.89Z"/><path class="cls-29" d="M242,92.22a1.48,1.48,0,0,0,.4,1.24C242.59,92.92,242.84,92.38,242,92.22Z"/><path class="cls-33" d="M229.56,57.89a2,2,0,0,0,2.6-.23,1.58,1.58,0,0,0,.23-2.07c-.7-1.09-1.7-.89-2.69-.43-.25.11-.48.24-.72.36l0,0h0A1.47,1.47,0,0,0,229.56,57.89Z"/><path class="cls-8" d="M19.11,93.43a2.87,2.87,0,0,0,1.4.44c1.24,0,2.18-1,3-1.73S25,90.67,26.18,91h0c0-.33,0-.91.09-.94a2,2,0,0,1,2.09.76c1.76-2.21,2.21-5.07,3.75-7.39h0c.62-2-.28-3.4-1.75-4.5a5.08,5.08,0,0,1-1.84-2.35v-3.7h0C29,72,29.5,71.1,30,70.23c-.13-2.47,1.56-2.29,3.23-2.13,1.1-.6,2.15.19,3.24.11l2.66,1.46c1.82-.44,2,.45,1.49,1.82l.08,1.88a1.45,1.45,0,0,1,0,2.11,4.13,4.13,0,0,1-2.15,4.18,2.19,2.19,0,0,0-.92,3.14c.65,1.22.79,2.57,1.36,3.79h0c.37.88.77,1.74,1.09,2.64.53,1.43,1.25,2.46,3.09,2.13,1.59-.29,2.56,1,3.79,1.67,2.65,1.35,7-.62,7.46-3.51a2.61,2.61,0,0,0-1.27-2.44c-1.72-1.36-1.78-2.89-1-4.82s1.78-3.26,4-3.15c2.82.14,3.17-2,3.2-3.8,0-2,.07-4.28-2.77-4.9-1.24-.27-2.77.15-3.63-1.24-.38.16-.64,1.12-1.16.32a3.09,3.09,0,0,1-.31-3.1.36.36,0,0,0-.16-.43h0c-1-.86-.54-1.73,0-2.58a7.6,7.6,0,0,0,1.24-5.46c-2.68-3-3-3.06-6.37-.94s-5.72,1.16-6.8-2.71c-.39-1.4-.33-3.15-2.27-3.66H32.42c-2.38.43-1.91,2.54-2.19,4-.35,1.83-1.07,3-2.91,3.5h0A1.72,1.72,0,0,1,24.68,58l-.87-.52c-2.51.72-5.44-.43-7.62,1.7a.21.21,0,0,0-.21.27,2,2,0,0,0,0,.34c.12.55,1.28-.07,1.35.88.16,2.28,1.83,3,4.29,2.77a7.7,7.7,0,0,1-3,2.53c-.42.16-.46.52-.49.89.76,1.3.18,2-1.12,2.29a5.11,5.11,0,0,1-3.08,1.17c-1.23.18-3-.16-3.27,1.85h0l.06,5.48c.61,1.4,2.32.68,3.19,1.58h0l.56.09c3.43,1.38,4.3,3.66,2.57,6.72a8,8,0,0,0-.83,2C15.63,90.17,16.59,91.92,19.11,93.43Z"/><path class="cls-34" d="M37.63,82.8a2.19,2.19,0,0,1,.92-3.14,4.13,4.13,0,0,0,2.15-4.18,1.4,1.4,0,0,1,0-2.11l-.08-1.88-1.49-1.82-2.66-1.46a1.57,1.57,0,0,1,0,.48,3.09,3.09,0,0,1-3.15.11h0a.28.28,0,0,1-.11-.3h0c-1.33.09-1.95,1.44-3.16,1.73-.5.87-1,1.74-1.49,2.61h0c1.47,1.23,1.46,2.46,0,3.7a5.08,5.08,0,0,0,1.84,2.35c1.47,1.1,2.37,2.55,1.75,4.5h0c.77,1.2,1.91,2.35.34,3.88,2.3-.29,4.53.57,6.54-.68h0C38.42,85.37,38.28,84,37.63,82.8Z"/><path class="cls-35" d="M21.6,63.39c-2.46.24-4.13-.49-4.29-2.77-.07-.95-1.23-.33-1.35-.88a.69.69,0,0,1,0-.34c-1.06.85-.15,1.55.22,2.25.75,1.44,2,2.63,2.4,4.27A7.7,7.7,0,0,0,21.6,63.39Z"/><path class="cls-36" d="M51.33,63.38c-.55.85-1,1.72,0,2.58h0c.15-1.31,1.11-2.18,1.88-3.09,1.64-1.94,1.69-3.56-.63-4.95A7.6,7.6,0,0,1,51.33,63.38Z"/><path class="cls-35" d="M16.19,59.13c2.18-2.13,5.11-1,7.62-1.7C20.14,54.71,19.55,54.84,16.19,59.13Z"/><path class="cls-37" d="M26.27,90c-.11,0-.07.61-.09.94h0c.68,1.3,1.11,1.27,2.18-.18A2,2,0,0,0,26.27,90Z"/><path class="cls-36" d="M51.79,69.49c.52.8.78-.16,1.16-.32a7.11,7.11,0,0,0-1.47-2.78A3.09,3.09,0,0,0,51.79,69.49Z"/><path class="cls-38" d="M10.64,72.12c-.44,1.83-.81,3.66.06,5.48l-.06-5.48Z"/><path class="cls-39" d="M36.84,50.22h0l-2.55-.09-1.87.47h4.71A4,4,0,0,1,36.84,50.22Z"/><path class="cls-35" d="M18.11,66.81c-.38.76-.75,1.52-1.12,2.29C18.29,68.77,18.87,68.11,18.11,66.81Z"/><path class="cls-40" d="M36.84,50.22c-.81-1.27-1.69-.49-2.55-.09l2.55.09Z"/><path class="cls-41" d="M13.89,79.18l-1,.22c.09.13.14.33.27.39.61.31,1-.06,1.28-.52l-.56-.09Z"/><path class="cls-42" d="M27.32,58.08h0A5.14,5.14,0,0,1,24.68,58,1.72,1.72,0,0,0,27.32,58.08Z"/><path class="cls-43" d="M28.51,72.84h0v3.7C30,75.3,30,74.07,28.51,72.84Z"/><path class="cls-44" d="M33.16,68.5h0a.92.92,0,0,1,.07-.4c-1.67-.16-3.36-.34-3.23,2.13C31.21,69.94,31.83,68.59,33.16,68.5Z"/><path class="cls-45" d="M40.7,75.48a1.45,1.45,0,0,0,0-2.11A1.4,1.4,0,0,0,40.7,75.48Z"/><path class="cls-46" d="M39.13,69.67l1.49,1.82C41.1,70.12,41,69.23,39.13,69.67Z"/><path class="cls-47" d="M33.16,68.5h0a.28.28,0,0,0,.11.3h0a8.15,8.15,0,0,1,3.15-.11,1.57,1.57,0,0,0,0-.48c-1.09.08-2.14-.71-3.24-.11A.92.92,0,0,0,33.16,68.5Z"/><path class="cls-48" d="M33.27,68.8h0a3.09,3.09,0,0,0,3.15-.11A8.15,8.15,0,0,0,33.27,68.8Z"/><text class="cls-49" transform="translate(179.19 203.34)">H</text><text class="cls-49" transform="translate(194.8 203.34)">I</text><text class="cls-49" transform="translate(201.11 203.34)">G</text><text class="cls-49" transform="translate(215.87 203.34)">H</text><text class="cls-49" transform="translate(178.68 237.22)">S</text><text class="cls-49" transform="translate(191.47 237.22)">I</text><text class="cls-49" transform="translate(197.78 237.22)">G</text><text class="cls-49" transform="translate(182.24 267.97)">L</text><text class="cls-49" transform="translate(193.36 267.97)">O</text><text class="cls-49" transform="translate(209.34 267.97)">W</text><text class="cls-49" transform="translate(197.6 160.6) rotate(-90)">S</text><text class="cls-49" transform="translate(197.6 147.81) rotate(-90)">I</text><text class="cls-49" transform="translate(197.6 141.5) rotate(-90)">G</text><text class="cls-49" transform="translate(165.58 156.09) rotate(-90)">N</text><text class="cls-49" transform="translate(165.58 140.49) rotate(-90)">C</text><text class="cls-49" transform="translate(131.17 169.48) rotate(-90)">V</text><text class="cls-49" transform="translate(131.17 155.01) rotate(-90)">C</text><text class="cls-49" transform="translate(131.17 141.27) rotate(-90)">C</text><text class="cls-49" transform="translate(98.31 173.55) rotate(-90)">G</text><text class="cls-49" transform="translate(98.31 158.8) rotate(-90)">N</text><text class="cls-49" transform="translate(98.31 143.2) rotate(-90)">D</text></g></g></svg>