<svg xmlns="http://www.w3.org/2000/svg" width="40" height="48" viewBox="0 0 328.09 280.13"><defs><style>.cls-1{fill:#004684;}.cls-2{fill:#a6a6a6;}.cls-3{fill:#2b2b2b;}.cls-4,.cls-8{fill:#fff;}.cls-5{fill:#f6e089;}.cls-6{fill:#f1eddd;}.cls-7{fill:#d9d9d9;}.cls-8{font-size:19.86px;font-family:Montserrat-Bold, Montserrat;font-weight:700;}</style></defs><title>Asset 1</title><g id="Layer_2" data-name="Layer 2"><g id="Layer_1-2" data-name="Layer 1"><path class="cls-1" d="M588.09,273.44a28.43,28.43,0,0,1,32.62-28.17v-93.4a18.24,18.24,0,0,0-18.21-18.21H521.87a40.76,40.76,0,0,1-3.74,17.1h39.22v70.63H527.86v2.74h-3.57v3.43H439.08v-6.17H406.27V150.76h37.46a40.91,40.91,0,0,1-3.74-17.1H358.8a18.24,18.24,0,0,0-18.21,18.21v93.51a28.48,28.48,0,1,1,0,56.12v94.07a18.24,18.24,0,0,0,18.21,18.21H440c0-.18,0-.37,0-.55a40.94,40.94,0,1,1,81.88,0c0,.18,0,.37,0,.55H602.5a18.23,18.23,0,0,0,18.21-18.21V301.62a29.66,29.66,0,0,1-4.14.3A28.48,28.48,0,0,1,588.09,273.44ZM400.5,400.31H380.66V389.53h0V365.08h0V354.31H400.5Zm0-58.28H380.66V331.25h0V306.81h0V296H400.5Zm59.4-70.89h46V291h-46ZM520.5,304H506.1V315h14.4v6.71H506.1v11.46h14.4v6.71H506.1v10.72h14.4v6.71H506.1v.32H457.41v-.32H440v-6.71h17.42V339.92H440v-6.71h17.42V321.75H440V315h17.42V304H440v-6.71h17.42v-1.16H506.1v1.16h14.4Z" transform="translate(-316.95 -133.66)"/><path class="cls-1" d="M645,273.44a28.48,28.48,0,1,0-28.47,28.48,29.66,29.66,0,0,0,4.14-.3A28.48,28.48,0,0,0,645,273.44ZM616.57,294a20.51,20.51,0,1,1,20.51-20.51A20.51,20.51,0,0,1,616.57,294Z" transform="translate(-316.95 -133.66)"/><path class="cls-1" d="M373.91,273.44a28.45,28.45,0,1,0-28.48,28.48A28.48,28.48,0,0,0,373.91,273.44Zm-49,0A20.51,20.51,0,1,1,345.43,294,20.51,20.51,0,0,1,324.92,273.44Z" transform="translate(-316.95 -133.66)"/><rect class="cls-2" x="123.04" y="181.38" width="17.42" height="6.71"/><rect class="cls-2" x="189.15" y="181.38" width="14.4" height="6.71"/><rect class="cls-2" x="189.15" y="163.59" width="14.4" height="6.71"/><rect class="cls-2" x="123.04" y="163.59" width="17.42" height="6.71"/><rect class="cls-2" x="189.15" y="199.55" width="14.4" height="6.71"/><rect class="cls-2" x="123.04" y="199.55" width="17.42" height="6.71"/><rect class="cls-2" x="123.04" y="216.99" width="17.42" height="6.71"/><rect class="cls-2" x="189.15" y="216.99" width="14.4" height="6.71"/><polygon class="cls-3" points="189.15 162.43 140.46 162.43 140.46 163.59 140.46 170.3 140.46 181.38 140.46 188.09 140.46 199.55 140.46 206.26 140.46 216.99 140.46 223.7 140.46 224.02 189.15 224.02 189.15 223.7 189.15 216.99 189.15 206.26 189.15 199.55 189.15 188.09 189.15 181.38 189.15 170.3 189.15 163.59 189.15 162.43"/><rect class="cls-4" x="142.95" y="137.48" width="10.77" height="19.85"/><rect class="cls-4" x="178.16" y="137.48" width="10.78" height="19.85"/><rect class="cls-5" x="153.72" y="137.48" width="24.44" height="19.85"/><polygon class="cls-4" points="63.71 231.43 83.55 231.43 83.55 255.87 63.71 255.87 63.71 266.65 83.55 266.65 83.55 220.66 63.71 220.66 63.71 231.43"/><polygon class="cls-3" points="83.55 231.43 63.71 231.43 63.7 231.43 63.7 255.87 63.71 255.87 83.55 255.87 83.55 231.43"/><polygon class="cls-4" points="63.71 173.15 83.55 173.15 83.55 197.6 63.71 197.6 63.71 208.38 83.55 208.38 83.55 162.38 63.71 162.38 63.71 173.15"/><polygon class="cls-3" points="83.55 173.15 63.71 173.15 63.7 173.15 63.7 197.6 63.71 197.6 83.55 197.6 83.55 173.15"/><rect class="cls-1" x="207.34" y="87.73" width="3.58" height="2.74"/><polygon class="cls-6" points="89.31 17.1 89.31 87.73 122.13 87.73 122.13 78.27 112.1 78.27 112.1 78.27 99.24 78.27 99.24 26.59 230.3 26.59 230.3 78.27 217.42 78.27 217.42 78.27 207.34 78.27 207.34 87.73 210.91 87.73 240.4 87.73 240.4 17.1 201.18 17.1 126.78 17.1 89.31 17.1"/><path class="cls-7" d="M429.05,201.29h0v-9.77H534.37v9.77h0v10.63h12.88V160.25H416.19v51.67h12.86Zm-2.84-12V171.75h17.53v17.54Zm30.91,0V171.75h17.54v17.54Zm31.13,0V171.75h17.53v17.54Zm31.1-17.54h17.54v17.54H519.35V171.75Z" transform="translate(-316.95 -133.66)"/><polygon class="cls-2" points="202.4 51.32 202.4 55.58 202.4 55.63 219.94 55.63 219.94 55.58 219.94 51.32 219.94 38.1 202.4 38.1 202.4 51.32"/><polygon class="cls-2" points="188.83 55.58 188.83 51.32 188.83 38.1 171.3 38.1 171.3 51.32 171.3 55.58 171.3 55.63 188.83 55.63 188.83 55.58"/><polygon class="cls-2" points="157.71 55.58 157.71 51.32 157.71 38.1 140.17 38.1 140.17 51.32 140.17 55.58 140.17 55.63 157.71 55.63 157.71 55.58"/><polygon class="cls-2" points="126.79 55.63 126.79 55.58 126.79 51.32 126.79 38.1 109.26 38.1 109.26 51.32 109.26 55.58 109.26 55.63 126.79 55.63"/><polygon class="cls-1" points="207.34 78.27 122.13 78.27 122.13 87.73 122.13 93.91 207.34 93.91 207.34 90.47 207.34 87.73 207.34 78.27"/><polygon class="cls-6" points="207.34 78.27 217.42 78.27 217.42 78.27 217.42 67.64 112.1 67.64 112.1 78.27 112.1 78.27 122.13 78.27 207.34 78.27"/><polygon class="cls-7" points="217.42 67.64 217.42 67.59 217.42 63.33 217.42 57.87 112.08 57.87 112.08 63.33 112.08 67.59 112.08 67.64 112.1 67.64 217.42 67.64 217.42 67.64"/><text class="cls-8" transform="translate(139.96 92.08) rotate(90)">N</text><text class="cls-8" transform="translate(139.96 107.68) rotate(90)">C</text><text class="cls-8" transform="translate(110.09 92.88) rotate(90)">S</text><text class="cls-8" transform="translate(110.09 105.67) rotate(90)">I</text><text class="cls-8" transform="translate(110.09 111.98) rotate(90)">G</text><text class="cls-8" transform="translate(203.05 90.9) rotate(90)">G</text><text class="cls-8" transform="translate(203.05 105.65) rotate(90)">N</text><text class="cls-8" transform="translate(203.05 121.26) rotate(90)">D</text><text class="cls-8" transform="translate(172.96 92.34) rotate(90)">V</text><text class="cls-8" transform="translate(172.96 106.81) rotate(90)">C</text><text class="cls-8" transform="translate(172.96 120.55) rotate(90)">C</text></g></g></svg>