<svg xmlns="http://www.w3.org/2000/svg" width="40" height="80" viewBox="0 0 412.53 671.69"><defs><style>.cls-1{fill:#004684;}.cls-11,.cls-2{fill:#fff;}.cls-3{fill:#2b2b2b;}.cls-4{fill:#272626;}.cls-5{fill:#a6a6a6;}.cls-6{fill:#d9d9d9;}.cls-7{fill:#2e2d2d;}.cls-8{fill:#737373;}.cls-9{fill:#f1eddd;}.cls-10{fill:#e8e5d7;}.cls-11{font-size:24.34px;font-family:Montserrat-Bold, Montserrat;font-weight:700;}</style></defs><title>Asset 2</title><g id="Layer_2" data-name="Layer 2"><g id="Layer_1-2" data-name="Layer 1"><path class="cls-1" d="M474.93,4h-124V50.57H615.78V4H487.07a34.69,34.69,0,0,1-6.07.54A34.69,34.69,0,0,1,474.93,4Zm-97,36.29A13.71,13.71,0,1,1,391.6,26.57,13.71,13.71,0,0,1,377.89,40.28Zm40.77-.75a13.71,13.71,0,1,1,13.71-13.71A13.71,13.71,0,0,1,418.66,39.53Zm44.75-.75a13.71,13.71,0,1,1,13.71-13.71A13.71,13.71,0,0,1,463.41,38.78ZM587.84,11.36a13.71,13.71,0,1,1-13.7,13.71A13.71,13.71,0,0,1,587.84,11.36Zm-40.18,0A13.71,13.71,0,1,1,534,25.07,13.71,13.71,0,0,1,547.66,11.36Zm-41.53,0a13.71,13.71,0,1,1-13.7,13.71A13.71,13.71,0,0,1,506.13,11.36Z" transform="translate(-274.74 65.29)"/><rect class="cls-1" x="257.8" y="635.98" width="0.68" height="6.09"/><rect class="cls-1" x="150.55" y="635.98" width="4.04" height="6.09"/><path class="cls-1" d="M617.45,116.85a50.19,50.19,0,0,1,35.59-48V-30.36H515.91a34.91,34.91,0,0,1-23,32.8H617.36V52.15h-268V2.44h119.7a34.91,34.91,0,0,1-23-32.8H309.65V69a50.2,50.2,0,0,1,0,95.63V414.05a34.91,34.91,0,0,1,0,69.82v92.92H418.38v-6.1h-21.7V566.5a14.87,14.87,0,0,1-2-.18h-4.12v-1.24a15.21,15.21,0,0,1,0-27.61V509a14.89,14.89,0,0,1-3.49.42,15.24,15.24,0,1,1,0-30.47,14.89,14.89,0,0,1,3.49.42v-12h.27V445.74h16.31v21.63h11.25V421.82h6.9v45.55H456V421.82h6.91v45.55h32.31V421.55h6.9v45.82h31.15V421.83h7v45.54H551V444.42h16.31v55h-.43v66.93h-4.28v4.37H540.2v6.1H653V474.08l-.69,0a34.91,34.91,0,0,1,0-69.82l.69,0V164.88A50.2,50.2,0,0,1,617.45,116.85ZM393.4,279.63V256.51h0V246.32h18.77v43.5H393.4V279.63Zm45.07,57.64H395V318.5h43.5Zm0-24.93H395V293.57h43.5Zm-18.82-32.83V256.39h0V246.2h18.77v43.5H419.65V279.51Zm83.18,54.7H491.06v3.07H472.2V321.22H459.14V309.61H472.2v-16h18.86v3h11.37v11.62H491.06V322.6h11.77Zm0-49.2H491.06v3.06H472.2V272H459.14V260.4H472.2v-16h18.86v3h11.37V259H491.06v14.43h11.77Zm0-48H491.06v3.07H472.2v-14.9H438.42v14.57H419.65V229.54h0v-4.38h-7.48v14.69H393.4V229.66h0V206.54h0V196.35h9.89v-2.3a7.22,7.22,0,0,1,5.89-7.09V85.33A8.85,8.85,0,0,1,418,76.47H535.87a8.85,8.85,0,0,1,8.81,8.86V186.84h3.92a7.22,7.22,0,0,1,7.2,7.21v2.18h8.28v43.5H545.31V229.54h0v-4.38h-7.48v14.69H519.06V229.66h0v-4.5h-28v.22h11.77Zm42.48,42.52V256.39h0V246.2h18.77v43.5H545.31V279.51Zm-26.25.12V256.51h0V246.32h18.77v43.5H519.06V279.63Zm45.07,57.64h-43.5V318.5h43.5Zm0-24.93h-43.5V293.57h43.5Z" transform="translate(-274.74 65.29)"/><path class="cls-1" d="M481,4.53A34.69,34.69,0,0,0,487.07,4H474.93A34.69,34.69,0,0,0,481,4.53Z" transform="translate(-274.74 65.29)"/><path class="cls-1" d="M469.09,2.44h23.82a34.91,34.91,0,0,0,23-32.8v0A34.91,34.91,0,0,0,481-65.29a34.91,34.91,0,0,0-34.91,34.91v0A34.91,34.91,0,0,0,469.09,2.44ZM455.86-30.38A25.13,25.13,0,0,1,481-55.52a25.13,25.13,0,0,1,25.14,25.14A25.13,25.13,0,0,1,481-5.24,25.13,25.13,0,0,1,455.86-30.38Z" transform="translate(-274.74 65.29)"/><path class="cls-1" d="M617.45,439.19a34.9,34.9,0,0,0,34.9,34.91l.69,0a34.9,34.9,0,0,0,0-69.78l-.69,0A34.9,34.9,0,0,0,617.45,439.19Zm60,0a25.14,25.14,0,1,1-25.14-25.14A25.13,25.13,0,0,1,677.49,439.19Z" transform="translate(-274.74 65.29)"/><path class="cls-1" d="M344.55,449a34.91,34.91,0,1,0-34.9,34.91A34.9,34.9,0,0,0,344.55,449Zm-34.9,25.14A25.14,25.14,0,1,1,334.79,449,25.13,25.13,0,0,1,309.65,474.1Z" transform="translate(-274.74 65.29)"/><path class="cls-2" d="M349.39,2.44V52.15h268V2.44h-268ZM615.78,4V50.57H350.94V4H615.78Z" transform="translate(-274.74 65.29)"/><path class="cls-1" d="M419.65,206.42V196.23h2v-9.39H410.48a7,7,0,0,0-1.3.12,7.22,7.22,0,0,0-5.89,7.09v2.3h8.88v28.81h7.48V206.42Z" transform="translate(-274.74 65.29)"/><polygon class="cls-1" points="184.41 289.29 184.41 277.68 197.47 277.68 197.47 275.61 163.69 275.61 163.69 290.45 197.47 290.45 197.47 289.29 184.41 289.29"/><polygon class="cls-1" points="227.7 275.61 227.7 276.23 216.33 276.23 216.33 290.45 244.32 290.45 244.32 275.61 227.7 275.61"/><path class="cls-1" d="M532.57,196.35h5.26v28.81h7.48V206.42h0V196.23H555.8v-2.18a7.22,7.22,0,0,0-7.2-7.21h-16Z" transform="translate(-274.74 65.29)"/><path class="cls-1" d="M502.43,210.32h16.63v-3.78h0V196.35h13.51V95.53a7.21,7.21,0,0,0-7.21-7.18H428.83a7.21,7.21,0,0,0-7.21,7.18v100.7h16.8v14.09H472.2v-14h18.86v3h11.37ZM444.3,109.19a2.7,2.7,0,0,1,2.69-2.7H509.1a2.7,2.7,0,0,1,2.69,2.7V149.7a2.7,2.7,0,0,1-2.69,2.7H447a2.7,2.7,0,0,1-2.69-2.7Z" transform="translate(-274.74 65.29)"/><polygon class="cls-2" points="263.09 355.11 263.09 311.61 244.32 311.61 244.32 321.8 263.09 321.8 263.09 344.92 244.32 344.92 244.32 355.11 263.09 355.11"/><polygon class="cls-3" points="263.09 321.8 244.32 321.8 244.32 321.8 244.32 344.92 244.32 344.92 263.09 344.92 263.09 321.8"/><polygon class="cls-2" points="289.34 354.99 289.34 311.49 270.57 311.49 270.57 321.68 289.34 321.68 289.34 344.8 270.57 344.8 270.57 354.99 289.34 354.99"/><polygon class="cls-3" points="289.34 321.68 270.57 321.68 270.57 321.68 270.57 344.8 270.57 344.8 289.34 344.8 289.34 321.68"/><rect class="cls-2" x="245.89" y="358.86" width="10.19" height="18.77"/><rect class="cls-2" x="279.2" y="358.86" width="10.19" height="18.77"/><rect class="cls-3" x="256.08" y="358.86" width="23.12" height="18.77"/><rect class="cls-2" x="279.2" y="383.79" width="10.19" height="18.77"/><rect class="cls-2" x="245.89" y="383.79" width="10.19" height="18.77"/><rect class="cls-3" x="256.08" y="383.79" width="23.12" height="18.77"/><polygon class="cls-2" points="263.09 261.64 257.83 261.64 244.32 261.64 244.32 271.83 263.09 271.83 263.09 294.95 244.32 294.95 244.32 305.14 263.09 305.14 263.09 290.45 263.09 261.64"/><polygon class="cls-3" points="263.09 271.83 244.32 271.83 244.32 271.83 244.32 275.61 244.32 290.45 244.32 294.95 244.32 294.95 263.09 294.95 263.09 271.83"/><polygon class="cls-2" points="270.57 271.71 289.34 271.71 289.34 294.83 270.57 294.83 270.57 305.02 289.34 305.02 289.34 261.52 281.06 261.52 270.57 261.52 270.57 271.71"/><polygon class="cls-3" points="289.34 271.71 270.57 271.71 270.57 271.71 270.57 290.45 270.57 294.83 270.57 294.83 289.34 294.83 289.34 271.71"/><polygon class="cls-2" points="137.44 355.11 137.44 311.61 118.67 311.61 118.67 321.8 137.43 321.8 137.43 344.92 118.67 344.92 118.67 355.11 137.44 355.11"/><polygon class="cls-3" points="137.43 321.8 118.67 321.8 118.66 321.8 118.66 344.92 118.67 344.92 137.43 344.92 137.43 321.8"/><polygon class="cls-2" points="163.69 354.99 163.69 311.49 144.92 311.49 144.92 321.68 163.68 321.68 163.68 344.8 144.92 344.8 144.92 354.99 163.69 354.99"/><polygon class="cls-3" points="163.68 321.68 144.92 321.68 144.91 321.68 144.91 344.8 144.92 344.8 163.68 344.8 163.68 321.68"/><rect class="cls-2" x="120.23" y="358.86" width="10.19" height="18.77"/><rect class="cls-2" x="153.54" y="358.86" width="10.19" height="18.77"/><rect class="cls-3" x="130.43" y="358.86" width="23.12" height="18.77"/><rect class="cls-2" x="120.23" y="383.79" width="10.19" height="18.77"/><rect class="cls-2" x="153.54" y="383.79" width="10.19" height="18.77"/><rect class="cls-3" x="130.43" y="383.79" width="23.12" height="18.77"/><polygon class="cls-2" points="137.44 261.64 128.55 261.64 118.67 261.64 118.67 271.83 137.43 271.83 137.43 294.95 118.67 294.95 118.67 305.14 137.44 305.14 137.44 290.45 137.44 261.64"/><polygon class="cls-3" points="137.43 271.83 118.67 271.83 118.66 271.83 118.66 294.95 118.67 294.95 137.43 294.95 137.43 271.83"/><polygon class="cls-2" points="163.69 261.52 146.88 261.52 144.92 261.52 144.92 271.71 163.68 271.71 163.68 294.83 144.92 294.83 144.92 305.02 163.69 305.02 163.69 290.45 163.69 275.61 163.69 261.52"/><polygon class="cls-3" points="163.68 271.71 144.92 271.71 144.91 271.71 144.91 290.45 144.91 294.83 144.92 294.83 163.68 294.83 163.68 271.71"/><rect class="cls-2" x="216.33" y="387.89" width="11.77" height="11.61"/><rect class="cls-2" x="216.33" y="361.84" width="11.37" height="11.61"/><rect class="cls-2" x="184.41" y="374.9" width="13.06" height="11.61"/><polygon class="cls-3" points="216.33 373.46 216.33 361.84 216.33 358.86 197.47 358.86 197.47 374.9 197.47 386.51 197.47 402.57 216.33 402.57 216.33 399.5 216.33 387.89 216.33 373.46"/><rect class="cls-2" x="216.33" y="338.68" width="11.77" height="11.61"/><rect class="cls-2" x="216.33" y="312.63" width="11.37" height="11.61"/><rect class="cls-2" x="184.41" y="325.69" width="13.06" height="11.61"/><polygon class="cls-4" points="216.33 324.25 216.33 312.63 216.33 309.65 197.47 309.65 197.47 325.69 197.47 337.31 197.47 353.36 216.33 353.36 216.33 350.3 216.33 338.68 216.33 324.25"/><rect class="cls-2" x="216.33" y="290.67" width="11.77" height="11.61"/><polygon class="cls-2" points="227.7 275.61 227.7 264.62 216.33 264.62 216.33 276.23 227.7 276.23 227.7 275.61"/><rect class="cls-2" x="184.41" y="277.68" width="13.06" height="11.61"/><polygon class="cls-3" points="216.33 290.45 216.33 276.23 216.33 264.62 216.33 261.64 197.47 261.64 197.47 275.61 197.47 277.68 197.47 289.29 197.47 290.45 197.47 305.35 216.33 305.35 216.33 302.28 216.33 290.67 216.33 290.45"/><path class="cls-5" d="M447,152.4H509.1a2.7,2.7,0,0,0,2.69-2.7V109.19a2.7,2.7,0,0,0-2.69-2.7H447a2.7,2.7,0,0,0-2.69,2.7V149.7A2.7,2.7,0,0,0,447,152.4Zm1.42-40.75a2.37,2.37,0,0,1,2.37-2.37h54.53a2.37,2.37,0,0,1,2.37,2.37v35.57a2.38,2.38,0,0,1-2.37,2.38H450.78a2.38,2.38,0,0,1-2.37-2.38Z" transform="translate(-274.74 65.29)"/><path class="cls-6" d="M450.78,149.6h54.53a2.38,2.38,0,0,0,2.37-2.38V111.65a2.37,2.37,0,0,0-2.37-2.37H450.78a2.37,2.37,0,0,0-2.37,2.37v35.57A2.38,2.38,0,0,0,450.78,149.6Zm12.63-36a7.89,7.89,0,1,1-7.9,7.89A7.89,7.89,0,0,1,463.41,113.62Z" transform="translate(-274.74 65.29)"/><circle class="cls-7" cx="463.41" cy="121.51" r="7.89" transform="translate(-290.26 175.01) rotate(-13.28)"/><rect class="cls-2" x="155.56" y="635.98" width="0.12" height="35.7"/><rect class="cls-8" x="258.48" y="487.12" width="6.98" height="45.54"/><polygon class="cls-8" points="258.48 635.98 258.48 642.08 258.48 647.03 265.46 647.03 265.46 642.08 265.46 635.98 258.48 635.98"/><rect class="cls-8" x="143.64" y="487.11" width="6.91" height="45.54"/><polygon class="cls-8" points="143.64 635.98 143.64 642.08 143.64 647.03 150.54 647.03 150.54 642.08 150.54 635.98 143.64 635.98"/><polygon class="cls-8" points="188.12 647.03 181.62 647.03 181.62 648.17 188.51 648.17 188.51 631.61 188.12 631.61 188.12 647.03"/><rect class="cls-8" x="220.44" y="486.84" width="6.9" height="45.82"/><rect class="cls-8" x="220.44" y="631.61" width="6.9" height="16.56"/><rect class="cls-8" x="181.21" y="487.11" width="6.91" height="45.54"/><polygon class="cls-8" points="181.21 647.03 181.62 647.03 188.12 647.03 188.12 631.61 181.21 631.61 181.21 647.03"/><path class="cls-1" d="M394.67,566.32a14.87,14.87,0,0,0,2,.18v-.18Z" transform="translate(-274.74 65.29)"/><path class="cls-1" d="M381.72,551.28a15.21,15.21,0,0,0,8.83,13.8V537.47A15.22,15.22,0,0,0,381.72,551.28Z" transform="translate(-274.74 65.29)"/><path class="cls-1" d="M387.06,479a15.24,15.24,0,1,0,0,30.47,14.89,14.89,0,0,0,3.49-.42V479.38A14.89,14.89,0,0,0,387.06,479Z" transform="translate(-274.74 65.29)"/><rect class="cls-9" x="287.81" y="564.67" width="4.28" height="66.94"/><path class="cls-9" d="M431.94,471.92v94.4h95.35v-94.4H551v-4.55H407.13v4.55Zm90.61,0v80.85H434.21V471.92Z" transform="translate(-274.74 65.29)"/><polygon class="cls-9" points="121.95 565.99 116.09 565.99 116.09 532.66 115.81 532.66 115.81 544.67 115.81 574.3 115.81 602.76 115.81 630.37 115.81 631.61 119.94 631.61 121.95 631.61 121.95 565.99"/><path class="cls-9" d="M434.21,552.77h88.34V471.92H434.21Zm8.53-13.88V503.63h72.15v35.26Z" transform="translate(-274.74 65.29)"/><rect class="cls-10" x="168" y="568.92" width="72.15" height="35.26"/><polygon class="cls-9" points="287.81 537.21 287.81 564.67 292.09 564.67 292.52 564.67 292.52 509.71 276.21 509.71 276.21 532.66 276.21 537.21 287.81 537.21"/><polygon class="cls-10" points="287.81 537.21 276.21 537.21 252.55 537.21 252.55 631.61 252.55 635.98 252.59 635.98 257.8 635.98 258.48 635.98 265.46 635.98 287.81 635.98 287.81 631.61 287.81 564.67 287.81 537.21"/><polygon class="cls-9" points="116.09 565.99 121.95 565.99 121.95 537.21 132.4 537.21 132.4 532.66 132.4 511.02 116.09 511.02 116.09 532.66 116.09 565.99"/><polygon class="cls-10" points="154.59 635.98 155.56 635.98 155.69 635.98 157.21 635.98 157.21 631.61 157.21 537.21 132.4 537.21 121.95 537.21 121.95 565.99 121.95 631.61 121.95 631.79 121.95 635.98 143.64 635.98 150.54 635.98 154.59 635.98"/><text class="cls-11" transform="translate(150.8 477.34) rotate(-90)">G</text><text class="cls-11" transform="translate(150.8 459.26) rotate(-90)">N</text><text class="cls-11" transform="translate(150.8 440.13) rotate(-90)">D</text><text class="cls-11" transform="translate(189.36 475.11) rotate(-90)">V</text><text class="cls-11" transform="translate(189.36 457.37) rotate(-90)">C</text><text class="cls-11" transform="translate(189.36 440.53) rotate(-90)">C</text><text class="cls-11" transform="translate(233.24 475.91) rotate(-90)">S</text><text class="cls-11" transform="translate(233.24 460.23) rotate(-90)">D</text><text class="cls-11" transform="translate(233.24 441.57) rotate(-90)">A</text><text class="cls-11" transform="translate(273.32 475.23) rotate(-90)">S</text><text class="cls-11" transform="translate(273.32 459.56) rotate(-90)">C</text><text class="cls-11" transform="translate(273.32 442.72) rotate(-90)">L</text></g></g></svg>