<svg xmlns="http://www.w3.org/2000/svg" width="40" height="40" viewBox="0 0 335.67 280.13"><defs><style>.cls-1{fill:#004684;}.cls-2,.cls-9{fill:#fff;}.cls-3{fill:#2b2b2b;}.cls-4{fill:#fefefe;}.cls-5{fill:#d9d9d9;}.cls-6{fill:#1a1a1a;}.cls-7{fill:#f1eddd;}.cls-8{fill:#a6a6a6;}.cls-9{font-size:19.86px;font-family:Montserrat-Bold, Montserrat;font-weight:700;}</style></defs><title>Asset 1</title><g id="Layer_2" data-name="Layer 2"><g id="Layer_1-2" data-name="Layer 1"><path class="cls-1" d="M592.31,263.65a28.46,28.46,0,0,1,27.48-28.45V150.51a18.25,18.25,0,0,0-18.22-18.22H520.36c0,.48,0,1,0,1.43a40.94,40.94,0,1,1-81.88,0c0-.48,0-.95,0-1.43H357.88a18.25,18.25,0,0,0-18.22,18.22v94.42c.8-.07,1.6-.11,2.42-.11a28.48,28.48,0,0,1,0,56.95c-.82,0-1.62,0-2.42-.11v92.55a18.25,18.25,0,0,0,18.22,18.21h82.2a40.93,40.93,0,0,1,81.84,0h79.65a18.25,18.25,0,0,0,18.22-18.21V292.1A28.46,28.46,0,0,1,592.31,263.65ZM476.87,347.72H406.24V314.66h-6.18V229.45h6.18V196.64h70.63ZM520.39,292H500.54V281.21h0V256.76h0V246h19.85Zm64.5,80.27H544.46V167.19h40.43Z" transform="translate(-313.6 -132.29)"/><path class="cls-1" d="M582.52,169.51H546.79V369.89h35.73ZM579.3,350.2,574,355.46a9.42,9.42,0,0,1-18.78.13L550,350.2h0V188.49l5.3-5.45a9.42,9.42,0,0,1,18.75.16l5.28,5.29Z" transform="translate(-313.6 -132.29)"/><path class="cls-1" d="M620.79,235.17c-.34,0-.67,0-1,0a28.47,28.47,0,0,0,0,56.9c.33,0,.66,0,1,0a28.48,28.48,0,0,0,0-57Zm0,49a20.51,20.51,0,1,1,20.5-20.51A20.51,20.51,0,0,1,620.79,284.16Z" transform="translate(-313.6 -132.29)"/><path class="cls-1" d="M370.55,273.3a28.46,28.46,0,0,0-28.47-28.48c-.82,0-1.62,0-2.42.11a28.47,28.47,0,0,0,0,56.73c.8.07,1.6.11,2.42.11A28.46,28.46,0,0,0,370.55,273.3Zm-49,0a20.51,20.51,0,1,1,20.51,20.5A20.51,20.51,0,0,1,321.57,273.3Z" transform="translate(-313.6 -132.29)"/><polygon class="cls-2" points="186.95 124.47 206.79 124.47 206.79 148.91 186.95 148.91 186.95 159.69 206.79 159.69 206.79 113.69 186.95 113.69 186.95 124.47"/><polygon class="cls-3" points="206.79 124.47 186.95 124.47 186.94 124.47 186.94 148.91 186.95 148.91 206.79 148.91 206.79 124.47"/><path class="cls-4" d="M544.46,372.25h40.43V167.19H544.46Zm2.33-202.74h35.73V369.89H546.79Z" transform="translate(-313.6 -132.29)"/><path class="cls-5" d="M570.48,179.66h0v0L574,183.2a9.42,9.42,0,0,0-18.75-.16l3.29-3.38Z" transform="translate(-313.6 -132.29)"/><path class="cls-5" d="M558.56,359l-3.31-3.41a9.42,9.42,0,0,0,18.78-.13L570.48,359Z" transform="translate(-313.6 -132.29)"/><polygon class="cls-6" points="236.37 217.9 236.4 217.9 236.37 217.88 236.37 217.9"/><polygon class="cls-6" points="256.88 47.37 256.91 47.39 256.91 47.37 256.88 47.37"/><polygon class="cls-6" points="256.91 47.39 256.88 47.37 244.97 47.37 241.68 50.75 236.37 56.19 236.37 217.88 236.4 217.9 241.65 223.3 244.97 226.7 256.88 226.7 260.43 223.16 265.7 217.9 265.7 56.19 260.42 50.91 256.91 47.39"/><polygon class="cls-7" points="92.64 97.16 102.1 97.16 102.1 87.13 102.11 87.13 102.11 74.27 153.78 74.27 153.78 205.33 102.11 205.33 102.11 192.46 102.1 192.46 102.1 182.36 92.64 182.36 92.64 215.43 163.28 215.43 163.28 64.35 92.64 64.35 92.64 97.16"/><path class="cls-5" d="M426.33,219.41h9.77V324.75H415.7v12.87h51.67v-131H415.7v12.86h10.63Zm12-2.83h17.53v17.54H438.34Zm0,30.92h17.53V265H438.34Zm0,31.12h17.53v17.54H438.34Zm0,31.11h17.53v17.53H438.34Z" transform="translate(-313.6 -132.29)"/><rect class="cls-8" x="124.74" y="177.43" width="17.54" height="17.54"/><rect class="cls-8" x="124.74" y="146.33" width="17.54" height="17.54"/><rect class="cls-8" x="124.74" y="115.21" width="17.54" height="17.54"/><rect class="cls-8" x="124.74" y="84.29" width="17.54" height="17.54"/><polygon class="cls-1" points="102.1 97.16 92.64 97.16 86.47 97.16 86.47 182.36 92.64 182.36 102.1 182.36 102.1 97.16"/><polygon class="cls-7" points="102.1 192.46 102.11 192.46 112.73 192.46 112.73 87.13 102.11 87.13 102.1 87.13 102.1 97.16 102.1 182.36 102.1 192.46"/><polygon class="cls-5" points="122.5 192.46 122.5 87.11 112.73 87.11 112.73 87.13 112.73 192.46 112.73 192.46 122.5 192.46"/><text class="cls-9" transform="translate(43.23 193.93)">G</text><text class="cls-9" transform="translate(57.98 193.93)">N</text><text class="cls-9" transform="translate(73.59 193.93)">D</text><text class="cls-9" transform="translate(55.86 126.78)">N</text><text class="cls-9" transform="translate(71.46 126.78)">C</text><text class="cls-9" transform="translate(52.39 97.16)">S</text><text class="cls-9" transform="translate(65.17 97.16)">I</text><text class="cls-9" transform="translate(71.49 97.16)">G</text><text class="cls-9" transform="translate(48.05 161.4)">V</text><text class="cls-9" transform="translate(62.52 161.4)">C</text><text class="cls-9" transform="translate(76.26 161.4)">C</text></g></g></svg>