<svg xmlns="http://www.w3.org/2000/svg" width="40" height="40" viewBox="0 0 280.13 328.09"><defs><style>.cls-1{fill:#004684;}.cls-2{fill:#a6a6a6;}.cls-3{fill:#2b2b2b;}.cls-4{fill:#fff;}.cls-5{fill:#f6e089;}.cls-6{fill:#f1eddd;}.cls-7{fill:#d9d9d9;}.cls-8{fill:#fefefe;}.cls-9{fill:#fdfdfd;}.cls-10{fill:#fcfcfc;}.cls-11{fill:#f6f7f6;}.cls-12{fill:#fafbfb;}.cls-13{fill:#03447f;}.cls-14{fill:#073f74;}.cls-15{fill:#004182;}.cls-16{fill:#013d80;}.cls-17{fill:#033b71;}.cls-18{fill:#23445f;}.cls-19{fill:#103f6b;}.cls-20{fill:#0d3e6f;}.cls-21{fill:#1b3a55;}.cls-22{fill:#0f3e67;}.cls-23{fill:#0d3d66;}.cls-24{fill:#004688;}.cls-25{fill:#114c82;}.cls-26{fill:#134c81;}.cls-27{fill:#0f4b82;}.cls-28{fill:#064781;}.cls-29{fill:#064885;}.cls-30{fill:#fdfcf6;}.cls-31{fill:#f7f8f7;}.cls-32{fill:#144d81;}.cls-33{fill:#124d84;}.cls-34{fill:#014684;}.cls-35{fill:#f9fafa;}.cls-36{fill:#f8fafa;}.cls-37{fill:#f8faf9;}.cls-38{fill:#f2f5f6;}.cls-39{fill:#f5f7f8;}.cls-40{fill:#014080;}.cls-41{fill:#013f81;}.cls-42{fill:#f4f6f6;}.cls-43{fill:#013c7e;}.cls-44{fill:#f7f8f8;}.cls-45{fill:#023b7d;}.cls-46{fill:#f8f9f9;}.cls-47{fill:#43729e;}.cls-48{fill:#023d80;}</style></defs><title>Asset 1</title><g id="Layer_2" data-name="Layer 2"><g id="Layer_1-2" data-name="Layer 1"><path class="cls-1" d="M-101.52-11.25h6.37V-45.07h1.47v-.19h70v.2h1.32V21.51A50.16,50.16,0,0,1,1.32-8.78c1.13-1.31,2.29-2.58,3.52-3.81a67.85,67.85,0,0,1,48.34-20c.72,0,1.44,0,2.15.06a27,27,0,0,1,2.17-10A26.89,26.89,0,0,1,92.77-56.83,97.41,97.41,0,0,1,147.69,2.38a40.7,40.7,0,0,1,21.48-6.09l.55,0V-84.33a18.25,18.25,0,0,0-18.21-18.22h-94a28.45,28.45,0,0,1,.31,4.15A28.47,28.47,0,0,1,29.38-69.92,28.47,28.47,0,0,1,.9-98.4a28.45,28.45,0,0,1,.31-4.15h-93.4A18.24,18.24,0,0,0-110.4-84.33V-8.25a41.23,41.23,0,0,1,8.88,1ZM-53-87.61h0V-98.39h19.85v46H-53V-63.17h0Zm-28.56,0h0V-98.39h19.84v46H-81.58V-63.17h0Z" transform="translate(110.4 126.87)"/><path class="cls-1" d="M145.32,70.51a98,98,0,0,1-52.55,53A26.84,26.84,0,0,1,57.5,109.23a27.45,27.45,0,0,1-1.61-5.16c-.9,0-1.8.07-2.71.07a67.89,67.89,0,0,1-48.34-20,70.6,70.6,0,0,1-6.11-7A50,50,0,0,1-22.35,48.44v62.2h-72.8v-34h-3.21v0h-3.16V72.65a40.62,40.62,0,0,1-8.88,1v85.73a18.24,18.24,0,0,0,18.21,18.22H1.32a28.56,28.56,0,0,1-.42-4.84,28.86,28.86,0,0,1,.53-5.45H-17.44V156.52h0V132.07h0V121.29H2.4v42.34a28.47,28.47,0,0,1,55,14h94.07a18.25,18.25,0,0,0,18.21-18.22V78.17h-.55A40.78,40.78,0,0,1,145.32,70.51ZM-81.07,167.29h-19.84V156.52h0V132.07h0V121.29h19.84Zm60.66-32.81H-30.7v7.93h10.29v4.8H-30.7v8.2h10.29v4.81H-30.7v.34H-65.57v-.34H-78v-4.81h12.46v-8.2H-78v-4.8h12.46v-7.93H-78v-4.8h12.46v-.84H-30.7v.84h10.29Z" transform="translate(110.4 126.87)"/><path class="cls-1" d="M29.38-69.92A28.47,28.47,0,0,0,57.86-98.4a28.45,28.45,0,0,0-.31-4.15,28.47,28.47,0,0,0-28.17-24.32A28.47,28.47,0,0,0,1.21-102.55,28.45,28.45,0,0,0,.9-98.4,28.47,28.47,0,0,0,29.38-69.92Zm0-49A20.5,20.5,0,0,1,49.89-98.4,20.51,20.51,0,0,1,29.38-77.89,20.51,20.51,0,0,1,8.87-98.4,20.5,20.5,0,0,1,29.38-118.9Z" transform="translate(110.4 126.87)"/><path class="cls-1" d="M29.38,144.27a28.47,28.47,0,0,0-27,19.36v3.66h-1a28.86,28.86,0,0,0-.53,5.45,28.48,28.48,0,1,0,28.48-28.47Zm0,49a20.51,20.51,0,1,1,20.51-20.51A20.51,20.51,0,0,1,29.38,193.25Z" transform="translate(110.4 126.87)"/><rect class="cls-2" x="79.71" y="269.28" width="10.29" height="4.8"/><rect class="cls-2" x="32.37" y="269.28" width="12.47" height="4.8"/><rect class="cls-2" x="79.71" y="256.55" width="10.29" height="4.8"/><rect class="cls-2" x="32.37" y="256.55" width="12.47" height="4.8"/><rect class="cls-2" x="32.37" y="282.29" width="12.47" height="4.8"/><rect class="cls-2" x="79.71" y="282.29" width="10.29" height="4.8"/><polygon class="cls-3" points="79.71 255.71 44.84 255.71 44.84 256.55 44.84 261.35 44.84 269.28 44.84 274.08 44.84 282.29 44.84 287.09 44.84 287.43 79.71 287.43 79.71 287.09 79.71 282.29 79.71 274.08 79.71 269.28 79.71 261.35 79.71 256.55 79.71 255.71"/><polygon class="cls-4" points="9.49 258.94 29.33 258.94 29.33 283.39 9.49 283.39 9.49 294.16 29.34 294.16 29.34 248.16 9.49 248.16 9.49 258.94"/><polygon class="cls-3" points="29.33 258.94 9.49 258.94 9.49 258.94 9.49 283.39 9.49 283.39 29.33 283.39 29.33 258.94"/><polygon class="cls-4" points="112.81 290.5 112.81 248.16 92.96 248.16 92.96 258.94 112.8 258.94 112.8 283.39 92.96 283.39 92.96 294.16 111.83 294.16 112.81 294.16 112.81 290.5"/><polygon class="cls-3" points="112.8 258.94 92.96 258.94 92.96 258.94 92.96 283.39 92.96 283.39 112.8 283.39 112.8 258.94"/><polygon class="cls-4" points="77.22 63.7 57.38 63.7 57.38 74.48 77.22 74.48 77.22 28.48 57.38 28.48 57.38 39.26 77.22 39.26 77.22 63.7"/><polygon class="cls-3" points="77.22 63.7 77.22 39.26 57.38 39.26 57.37 39.26 57.37 63.7 57.38 63.7 77.22 63.7"/><polygon class="cls-4" points="48.66 63.7 28.82 63.7 28.82 74.48 48.67 74.48 48.67 28.48 28.82 28.48 28.82 39.26 48.66 39.26 48.66 63.7"/><polygon class="cls-5" points="48.66 63.7 48.66 39.26 28.82 39.26 28.82 39.26 28.82 63.7 28.82 63.7 48.66 63.7"/><path class="cls-1" d="M7.23,39.86c-.31.48-.68.86-1.31.54-.13-.07-.19-.27-.28-.41l1-.23h0c-.73-.76-2-.41-2.82-1A22.6,22.6,0,0,0,8.89,49.57a7.41,7.41,0,0,1,1-2.72C11.64,43.67,10.75,41.29,7.23,39.86Z" transform="translate(110.4 126.87)"/><path class="cls-1" d="M9.84,29.27,11,26.89c0-.38.08-.75.51-.92C11.07,24.26,9.8,23,9,21.52c-.12-.25-.32-.5-.48-.76A22.69,22.69,0,0,0,3.85,31.19c.7-.71,1.91-.56,2.83-.69A5.19,5.19,0,0,0,9.84,29.27Z" transform="translate(110.4 126.87)"/><path class="cls-1" d="M90.25,9.47h0L90.72,9c.06.59.66,1.35-.47,1.6-.58,2.8-3,3.89-5,5.37h0A3.88,3.88,0,0,1,84,17.64c-.23.41-.45.82-.67,1.23h0c.11,1.48-.81,2.86-.44,4.36,1.75,1.05,2.28,2.87,2.79,4.63s1.3,2.1,2.91,1.51,3-1.48,4.73-1.51h0c.75-.37,1.24,0,1.63.58,1.1.88,2.73,1.14,3.2,2.74h0a1.51,1.51,0,0,1,.61.71A43.86,43.86,0,0,0,87.45,3.84a2.23,2.23,0,0,1,.2.41A7.11,7.11,0,0,1,90.25,9.47Z" transform="translate(110.4 126.87)"/><path class="cls-1" d="M65.61,14.46l.11-.13-.53-.22A5.19,5.19,0,0,1,65.61,14.46Z" transform="translate(110.4 126.87)"/><path class="cls-1" d="M13.2-12.43a62,62,0,0,1,40-14.47c.89,0,1.78,0,2.67.06-.11-.54-.21-1.08-.28-1.63-.8,0-1.6-.06-2.4-.06A63.83,63.83,0,0,0,10.65-12.42,12.79,12.79,0,0,1,13.2-12.43Z" transform="translate(110.4 126.87)"/><path class="cls-1" d="M71.79,74A44.41,44.41,0,0,0,98.65,36.1,7,7,0,0,1,93.33,40a5.93,5.93,0,0,1-6.49-5.27c-.31-2.06-2-2.78-3.62-1.54h0a28.17,28.17,0,0,0,.14,11.6l.69,0c.4-.51.29-1.34,1-1.67l.17-.07-.17.07c-.56.43,1.3,2.3-1,1.69h0c.11,1.49,1.66,1.58,2.39,2.46.88.1.9,1,1.36,1.47,3.66,4.72,2,12.07-2.68,15.08-3.12,2-7.48,1.39-11-1a11.72,11.72,0,0,1-4-5.66h0a4,4,0,0,1-.08-4c.42-3.28,2.53-5.47,4.91-7.45A2.94,2.94,0,0,0,76.1,43.2c0-2.79.05-5.58.06-8.37,0-1.38-.56-2.18-2.12-1.71h0c-.44.7-1.16.45-1.79.5-1.09.24-1.46,1.12-1.84,2a3,3,0,0,1-.76,2,1,1,0,0,1-.68.84h0a3.24,3.24,0,0,1-1.68,1.21h0c-2.13,1-4.21,1.27-6.15-.43-2-1.52-3.2-5.35-2.25-7.41.88-1.9,4.7-3.69,7-3.16a8,8,0,0,1,2.4,1.15,3.82,3.82,0,0,0,4-.08c1.69-.82.93-2.61,1.12-3.91.16-1.09-1-1.71-2.19-1.75-1.51-.06-3.07.17-4.4-.82l-1.1-.44h0a1.28,1.28,0,0,1-1.3-1.14c-.24-.56-.49-1.11-.73-1.67l-.08-.75h0c-.41-3.34.64-5.23,3.61-6.45h0a2.92,2.92,0,0,1,3.29-.41l.18,0,.15.1c3.36,1.07,4.52,2.59,4.52,5.95,0,.73,0,1.45,0,2.17-.06,1.62.51,2.55,2.31,2.19l.11-.09.11.08h0c1-.44.95-1.44,1.33-2.24a8.56,8.56,0,0,0-1-9.66h0c-.83-1-1-1.91-.07-2.91.78-3.61,4.71-5.21,7.87-4.45h0a1.05,1.05,0,0,1,1-.06A44.84,44.84,0,0,0,71.79-7.35,26.72,26.72,0,0,1,56.92-23c-1.23-.08-2.48-.13-3.73-.13A58.34,58.34,0,0,0,17.72-11.24a13.64,13.64,0,0,1,7,7.18A13.75,13.75,0,0,1,17.38,14a22.65,22.65,0,0,0-2.94,1.52,15.24,15.24,0,0,1,2.39,1.58l.89.54a5.3,5.3,0,0,0,2.71.13c1.89-.49,2.63-1.74,3-3.64.29-1.5-.19-3.7,2.24-4.14l1.92-.49c.89-.41,1.79-1.23,2.61.09h0l.3.41h0c2,.52,1.93,2.35,2.33,3.81,1.11,4,3.54,5,7,2.82s3.79-2.15,6.54,1c2.38,1.45,2.33,3.13.65,5.15-.79.95-1.78,1.86-1.93,3.22a.37.37,0,0,1,.16.45,7.43,7.43,0,0,1,1.51,2.89c.88,1.45,2.45,1,3.72,1.29,2.91.64,2.89,3,2.85,5.1,0,1.88-.39,4.1-3.29,3.95C47.71,39.58,46.66,41,45.88,43s-.72,3.6,1,5a2.72,2.72,0,0,1,1.29,2.55c-.51,3-4.92,5-7.64,3.65-1.26-.65-2.26-2-3.89-1.74-1.88.34-2.62-.73-3.17-2.22-.33-.93-.74-1.83-1.12-2.74-2.06,1.29-4.34.4-6.7.7,1.61-1.59.43-2.79-.35-4-1.58,2.42-2.05,5.39-3.85,7.69-1.1,1.51-1.54,1.55-2.24.19h0c-1.24-.3-1.83.47-2.69,1.23a12.12,12.12,0,0,1-1.65,1.35,23.58,23.58,0,0,0,2.46,1.24,13.79,13.79,0,0,1-.82,25.73A58.34,58.34,0,0,0,53.19,94.39c.85,0,1.69,0,2.53-.06A26.62,26.62,0,0,1,71.79,74ZM58.15,35.34v-2.2A2.83,2.83,0,0,1,58.15,35.34Z" transform="translate(110.4 126.87)"/><path class="cls-1" d="M55.36,98.09c-.72,0-1.44,0-2.17,0A62,62,0,0,1,11.68,82.36a14.49,14.49,0,0,1-3.24-.47A63.91,63.91,0,0,0,53.18,100c.74,0,1.47,0,2.2-.05C55.35,99.35,55.35,98.72,55.36,98.09Z" transform="translate(110.4 126.87)"/><path class="cls-1" d="M92.77-56.83A26.89,26.89,0,0,0,57.5-42.57a27,27,0,0,0-2.17,10,67.78,67.78,0,0,1,46.2,20,67.91,67.91,0,0,1,20,48.35,67.88,67.88,0,0,1-20,48.35,67.78,67.78,0,0,1-45.64,20,27.45,27.45,0,0,0,1.61,5.16,26.84,26.84,0,0,0,35.27,14.26,98,98,0,0,0,52.55-53,40.93,40.93,0,0,1,2.37-68.13A97.41,97.41,0,0,0,92.77-56.83Z" transform="translate(110.4 126.87)"/><path class="cls-1" d="M97.39-8.59a62.49,62.49,0,0,1,0,88.41,62,62,0,0,1-42,18.27c0,.63,0,1.26,0,1.9a64.27,64.27,0,0,0,62.09-64.23A64.28,64.28,0,0,0,55.58-28.47c.07.55.17,1.09.28,1.63A62,62,0,0,1,97.39-8.59Z" transform="translate(110.4 126.87)"/><path class="cls-1" d="M112,35.62A58.75,58.75,0,0,0,56.92-23,26.72,26.72,0,0,0,71.79-7.35,44.84,44.84,0,0,1,87.1,3.46a1.29,1.29,0,0,1,.35.38A43.86,43.86,0,0,1,98.72,31.9a3.13,3.13,0,0,1,.13,1.5,3.82,3.82,0,0,1-.2,2.7A44.41,44.41,0,0,1,71.79,74,26.62,26.62,0,0,0,55.72,94.33,58.78,58.78,0,0,0,112,35.62Z" transform="translate(110.4 126.87)"/><path class="cls-1" d="M1.32-8.78A50.16,50.16,0,0,0-22.35,21.51V48.44A50,50,0,0,0-1.27,77.12,68.33,68.33,0,0,1,1.32-8.78Z" transform="translate(110.4 126.87)"/><path class="cls-1" d="M9,79.82A62.52,62.52,0,0,1,9-8.59q2-2,4.22-3.84a12.79,12.79,0,0,0-2.55,0c-1,.88-2,1.78-2.92,2.73a64.27,64.27,0,0,0,0,90.9l.71.68a14.49,14.49,0,0,0,3.24.47C10.76,81.54,9.86,80.7,9,79.82Z" transform="translate(110.4 126.87)"/><path class="cls-1" d="M24.71,73.94a13.69,13.69,0,0,0-7.33-18.1,23.58,23.58,0,0,1-2.46-1.24,2.53,2.53,0,0,1-2.9,0c-2.34-1.41-3.36-3-3.13-5A22.6,22.6,0,0,1,3.84,38.71a1.45,1.45,0,0,1-.45-.59c-.9-1.89-.51-3.8-.07-5.7h0a2.13,2.13,0,0,1,.53-1.23A22.69,22.69,0,0,1,8.54,20.76a1,1,0,0,1,.26-1.57.72.72,0,0,0,0,.35c0-.12,0-.23,0-.35A.23.23,0,0,1,9,18.9c2.55-3.3,3.54-4.23,5.42-3.34A22.65,22.65,0,0,1,17.38,14a13.75,13.75,0,0,0,7.33-18.1,13.64,13.64,0,0,0-7-7.18,60.82,60.82,0,0,0-6.09,5.3,58.77,58.77,0,0,0,0,83.11,60.08,60.08,0,0,0,4.93,4.4A13.78,13.78,0,0,0,24.71,73.94Z" transform="translate(110.4 126.87)"/><path class="cls-4" d="M121.57,35.76a67.91,67.91,0,0,0-20-48.35,67.78,67.78,0,0,0-46.2-20c-.71,0-1.43-.06-2.15-.06a67.85,67.85,0,0,0-48.34,20c-1.23,1.23-2.39,2.5-3.52,3.81a68.33,68.33,0,0,0-2.59,85.9,70.6,70.6,0,0,0,6.11,7,67.89,67.89,0,0,0,48.34,20c.91,0,1.81,0,2.71-.07a67.78,67.78,0,0,0,45.64-20A67.88,67.88,0,0,0,121.57,35.76ZM8.44,81.89l-.71-.68a64.27,64.27,0,0,1,0-90.9c.95-1,1.93-1.85,2.92-2.73A63.83,63.83,0,0,1,53.18-28.53c.8,0,1.6,0,2.4.06a64.28,64.28,0,0,1,61.89,64.23A64.27,64.27,0,0,1,55.38,100c-.73,0-1.46.05-2.2.05A63.91,63.91,0,0,1,8.44,81.89Z" transform="translate(110.4 126.87)"/><polygon class="cls-6" points="86.48 81.79 86.48 81.8 86.73 81.8 86.73 81.6 85.28 81.6 85.28 81.79 86.48 81.79"/><rect class="cls-6" x="85.28" y="81.79" width="1.2" height="0.01"/><polygon class="cls-6" points="85.03 81.79 85.03 81.8 85.28 81.8 85.28 81.79 85.28 81.6 18.17 81.6 16.73 81.6 16.73 81.79 17.92 81.79 85.03 81.79"/><polygon class="cls-6" points="85.03 81.8 85.03 81.79 17.92 81.79 16.73 81.79 16.48 81.79 16.48 81.8 85.03 81.8"/><polygon class="cls-1" points="12.05 203.44 12.05 203.46 13.5 203.46 15.25 203.46 15.25 203.44 12.05 203.44"/><polygon class="cls-6" points="88.05 81.8 86.73 81.8 86.48 81.8 85.28 81.8 85.03 81.8 16.48 81.8 15.25 81.8 15.25 115.62 25.01 115.62 25.01 92.04 78.26 92.04 78.26 227.11 25.01 227.11 25.01 203.44 15.25 203.44 15.25 203.46 15.25 237.51 88.05 237.51 88.05 175.31 88.05 148.38 88.05 81.8"/><path class="cls-7" d="M-85.4-21.58h11v0h10.07V87h-21V76.57h0v23.67h53.26V-34.83H-85.4v23.58h0ZM-62.07,7.36H-44V25.43H-62.07Zm0,64.13H-44V89.57H-62.07Zm0-14V39.43H-44V57.51ZM-44-6.43H-62.07V-24.51H-44Z" transform="translate(110.4 126.87)"/><rect class="cls-2" x="48.34" y="198.36" width="18.07" height="18.07"/><rect class="cls-2" x="48.34" y="166.31" width="18.07" height="18.07"/><rect class="cls-2" x="48.34" y="134.23" width="18.07" height="18.07"/><rect class="cls-2" x="48.34" y="102.37" width="18.07" height="18.07"/><path class="cls-1" d="M-95.15,76.57h9.75V65.1a40.72,40.72,0,0,1-16.12,7.55v3.92h6.37Z" transform="translate(110.4 126.87)"/><path class="cls-1" d="M-85.4-11.25h-16.12v4A40.74,40.74,0,0,1-85.4.28Z" transform="translate(110.4 126.87)"/><polygon class="cls-6" points="25.01 213.84 35.97 213.84 35.97 105.29 25.01 105.29 25.01 115.62 25.01 127.15 25.01 191.97 25.01 203.44 25.01 213.84"/><polygon class="cls-7" points="46.04 213.85 46.04 105.27 35.97 105.27 35.97 105.29 35.97 213.84 35.97 213.85 46.04 213.85"/><polygon class="cls-8" points="193.69 145.74 193.69 145.74 193.69 145.74 193.69 145.74"/><path class="cls-8" d="M98.1,31.19h0c-.47-1.6-2.1-1.86-3.2-2.74l-1.63-.58h0c-1.73,0-3.18.95-4.73,1.51s-2.44.14-2.91-1.51-1-3.58-2.79-4.63c-.94.33-1.89.09-2-.83s.12-2.42,1.34-2.74c.6-.16.71-.6,1.12-.79-.27-1,1-2.29-1.2-2.83-1.07-.26-.85.25-.91.53-.37,1.64-.64,3.31-1,5-.27,1.29-.91,2-2.32,1.25h0l-.11-.08-.11.09c-2.67,1-4.53.4-3.77-2.71a12.23,12.23,0,0,0-.14-4.31c-.14-1.31-1.37-1.73-2.33-2.17-.65-.3-.86-.49-.59-1.12l-.15-.1-.18,0c-1.06.41-2.08,1.19-3.29.41h0c0,.89.77,2.34-1.46,1.49l-.11.13c1.3,1.13,1.22,1.78-.26,2-1.69.29-.85,2.09-1.78,2.81h0l.08.75c2.68,0,3.72,1.07,3.13,3.25h0c1.33,1,2.89.76,4.4.82,1.17,0,2.35.66,2.19,1.75-.19,1.3.57,3.09-1.12,3.91a3.82,3.82,0,0,1-4,.08,8,8,0,0,0-2.4-1.15c-2.3-.53-6.12,1.26-7,3.16-1,2.06.21,5.89,2.25,7.41a42.29,42.29,0,0,0,6.15.43h0c.46-.54.14-2.16,1.68-1.21h0a1,1,0,0,0,.68-.84c.08-.74-.75-1.81.76-2,.38-.89.75-1.77,1.84-2a1.91,1.91,0,0,1,1.79-.5h0c1.56-.47,2.12.33,2.12,1.71,0,2.79-.1,5.58-.06,8.37A2.94,2.94,0,0,1,75,45.75c-2.38,2-4.49,4.17-4.91,7.45,0,1.32,0,2.64.08,4a11.72,11.72,0,0,0,4,5.66c3.49,2.4,7.85,3,11,1,4.69-3,6.34-10.36,2.68-15.08a1.72,1.72,0,0,1-1.36-1.47c-.73-.88-2.28-1-2.39-2.46h0v0l-.69,0a1.91,1.91,0,0,1-.91-1.85c0-2.83,0-5.65,0-8.48,0-.52-.16-1.26.77-1.27h0c1.63-1.24,3.31-.52,3.62,1.54A5.93,5.93,0,0,0,93.33,40a7,7,0,0,0,5.32-3.87,3.82,3.82,0,0,0,.2-2.7ZM65.52,37.94c-.57.85-.9-.79-1.46-1.19-.16-.2-.32-.4-.49-.59-.63-.76-1.28-1.61-.62-2.56s1.72-.62,2.67-.37c1-.37,1.1.23,1.17,1A5.92,5.92,0,0,1,65.52,37.94Zm7.53-18.35c-1.31-.71-2,.75-3.09.81a2.87,2.87,0,0,1-2.91-1.3,1.13,1.13,0,0,1,.62-1.78h0l0,0c-.27-1.4.71-1.56,1.68-1.54.07-.93-.85-.56-1.08-1.1,1.2-.4,2-.54,2.46,1.1.23.77.49,2.53,2.25,2.31.36,0,.46.43.48.75S73.26,19.71,73.05,19.59Zm2.59,27.33c-.16.27-.37.53-.74.49,0,0-.06-.21-.09-.37a2.39,2.39,0,0,1,.58-.42C75.63,46.52,75.77,46.7,75.64,46.92Zm3.84-20.16a3,3,0,0,0,.59-.05h0c.89-.39,1,.26,1.18.87.51,1.64-.81,2.05-1.85,2.4s-1.66-.47-1.77-1.32C77.46,27.42,78.11,26.67,79.48,26.76ZM82.8,53.19a2.64,2.64,0,0,1-.42,4h0c-1,1.31-2,2.42-3.81,1.19h0c-.18-.14-.35-.29-.52-.44h0c-.87-.12-.85-.82-1-1.45-1.55-1.24-1.19-2.91,1-4.4.36-.21.57-.72,1.11-.59h0C81.09,50.53,82,52.21,82.8,53.19Zm9.82-17.4c-.79-.06-1.87,0-1.75-1.18,0-1.38.78-2.24,1.84-2.25a1.94,1.94,0,0,1,2,1.79A1.87,1.87,0,0,1,92.62,35.79Z" transform="translate(110.4 126.87)"/><path class="cls-9" d="M80.19,21.53c.34-1.65.61-3.32,1-5,.06-.28-.16-.79.91-.53,2.18.54.93,1.87,1.2,2.83h0c.22-.41.44-.82.67-1.23a1.78,1.78,0,0,1,1.28-1.71h0c2-1.48,4.44-2.57,5-5.37V9.47h0a7.11,7.11,0,0,0-2.6-5.22l-1.6-.73h0C82.89,2.76,79,4.36,78.18,8l.07,2.91h0a8.56,8.56,0,0,1,1,9.66c-.38.8-.36,1.8-1.33,2.24h0C79.28,23.53,79.92,22.82,80.19,21.53ZM84.34,7.67c.63.12,1.67.81,1.54,1.74a1.9,1.9,0,0,1-2,1.78c-.93,0-1.23-.86-1.46-1.76C83.05,8.86,83.19,7.46,84.34,7.67Z" transform="translate(110.4 126.87)"/><path class="cls-10" d="M71.41,13.6c1,.44,2.19.86,2.33,2.17a12.23,12.23,0,0,1,.14,4.31c-.76,3.11,1.1,3.71,3.77,2.71-1.8.36-2.37-.57-2.31-2.19,0-.72,0-1.44,0-2.17,0-3.36-1.16-4.88-4.52-5.95C70.55,13.11,70.76,13.3,71.41,13.6Z" transform="translate(110.4 126.87)"/><path class="cls-10" d="M65.35,16.48c1.48-.24,1.56-.89.26-2a5.19,5.19,0,0,0-.42-.35l.53.22c2.23.85,1.5-.6,1.46-1.49-3,1.22-4,3.11-3.61,6.45h0C64.5,18.57,63.66,16.77,65.35,16.48Z" transform="translate(110.4 126.87)"/><path class="cls-9" d="M83.28,18.87c-.41.19-.52.63-1.12.79-1.22.32-1.49,1.68-1.34,2.74s1.08,1.16,2,.83c-.37-1.5.55-2.88.44-4.36Z" transform="translate(110.4 126.87)"/><path class="cls-10" d="M63.65,20c.24.56.49,1.11.73,1.67a2.46,2.46,0,0,1,1.3,1.14h0l1.1.44h0C67.37,21.11,66.33,20,63.65,20Z" transform="translate(110.4 126.87)"/><path class="cls-11" d="M82.45,34.43c0,2.83,0,5.65,0,8.48a1.91,1.91,0,0,0,.91,1.85,28.17,28.17,0,0,1-.14-11.6h0C82.29,33.17,82.46,33.91,82.45,34.43Z" transform="translate(110.4 126.87)"/><path class="cls-12" d="M61.13,39.27c1.94,1.7,4,1.47,6.15.43h0A42.29,42.29,0,0,1,61.13,39.27Z" transform="translate(110.4 126.87)"/><path class="cls-10" d="M70.49,12.42a2.92,2.92,0,0,0-3.29.41h0C68.41,13.61,69.43,12.83,70.49,12.42Z" transform="translate(110.4 126.87)"/><path class="cls-13" d="M85.05,43.13c-.71.33-.6,1.16-1,1.67v0C86.35,45.43,84.49,43.56,85.05,43.13Z" transform="translate(110.4 126.87)"/><path class="cls-13" d="M85.05,43.13l.17-.07Z" transform="translate(110.4 126.87)"/><path class="cls-14" d="M78.18,8c-1,1-.76,2,.07,2.91h0Z" transform="translate(110.4 126.87)"/><path class="cls-15" d="M70.12,57.16h0c0-1.32-.06-2.64-.08-4A4,4,0,0,0,70.12,57.16Z" transform="translate(110.4 126.87)"/><path class="cls-12" d="M67.29,39.7A3.24,3.24,0,0,0,69,38.49h0C67.43,37.54,67.75,39.16,67.29,39.7Z" transform="translate(110.4 126.87)"/><path class="cls-16" d="M58.15,35.34a2.83,2.83,0,0,0,0-2.2Z" transform="translate(110.4 126.87)"/><path class="cls-12" d="M69.65,37.65a3,3,0,0,0,.76-2C68.9,35.84,69.73,36.91,69.65,37.65Z" transform="translate(110.4 126.87)"/><path class="cls-17" d="M90.25,10.56c1.13-.25.53-1,.47-1.6l-.47.51h0Z" transform="translate(110.4 126.87)"/><path class="cls-11" d="M87.81,48.75c-.46-.48-.48-1.37-1.36-1.47A1.72,1.72,0,0,0,87.81,48.75Z" transform="translate(110.4 126.87)"/><path class="cls-18" d="M98.11,31.19h0l.75,2.21a3.13,3.13,0,0,0-.13-1.5A1.51,1.51,0,0,0,98.11,31.19Z" transform="translate(110.4 126.87)"/><path class="cls-19" d="M72.25,33.62c.63,0,1.35.2,1.79-.5h0A1.91,1.91,0,0,0,72.25,33.62Z" transform="translate(110.4 126.87)"/><path class="cls-20" d="M84,17.64a3.88,3.88,0,0,0,1.28-1.71h0A1.78,1.78,0,0,0,84,17.64Z" transform="translate(110.4 126.87)"/><path class="cls-21" d="M94.9,28.44c-.39-.62-.88-1-1.63-.58h0Z" transform="translate(110.4 126.87)"/><path class="cls-22" d="M64.38,21.71a1.28,1.28,0,0,0,1.3,1.14h0A2.46,2.46,0,0,0,64.38,21.71Z" transform="translate(110.4 126.87)"/><path class="cls-23" d="M86.05,3.52h0l1.6.73a2.23,2.23,0,0,0-.2-.41,1.29,1.29,0,0,0-.35-.38A1.05,1.05,0,0,0,86.05,3.52Z" transform="translate(110.4 126.87)"/><path class="cls-24" d="M81.65,57.19a1.32,1.32,0,0,1-1.11-.73c1.18-.25,2.58-.33,2.23-2.07s-1.39.27-1.92-.39h0a1.41,1.41,0,0,1-.4-1.2c-.42-.44-1.2-.52-1.27-1.3h0c-.54-.13-.75.38-1.11.59.48.41,1,1,.2,1.39-1.44.7-1,1.93-1.14,3a1.75,1.75,0,0,1,.92,1.44h0c.17.15.34.3.52.44h0C79.84,58.6,80.72,57.83,81.65,57.19Zm-1.09-2.45a.73.73,0,0,1,.41.34c.09.22-.1.36-.31.3a1.18,1.18,0,0,1-.4-.29C80.21,54.78,80.34,54.67,80.56,54.74Zm-1.81.68a3.23,3.23,0,0,1-.69-.48c.31-.12.47-.24.59-.2s.57.18.6.33S79,55.5,78.75,55.42Z" transform="translate(110.4 126.87)"/><path class="cls-10" d="M73,18.07c-1.76.22-2-1.54-2.25-2.31-.5-1.64-1.26-1.5-2.46-1.1.23.54,1.15.17,1.08,1.1-1,0-2,.14-1.68,1.54L68.4,17c1-.44,2-.64,2.64.41a1.53,1.53,0,0,1-.22,2,2,2,0,0,1-2.56.22,1.41,1.41,0,0,1-.59-2.27h0a1.13,1.13,0,0,0-.62,1.78A2.87,2.87,0,0,0,70,20.4c1.1-.06,1.78-1.52,3.09-.81.21.12.45-.43.43-.77S73.36,18,73,18.07Z" transform="translate(110.4 126.87)"/><path class="cls-25" d="M92.71,32.36c-1.06,0-1.84.87-1.84,2.25-.12,1.22,1,1.12,1.75,1.18a1.87,1.87,0,0,0,2.08-1.64A1.94,1.94,0,0,0,92.71,32.36Z" transform="translate(110.4 126.87)"/><path class="cls-26" d="M65.62,33.23c-1-.25-2-.6-2.67.37s0,1.8.62,2.56c.17.19.33.39.49.59C66.28,35.91,66.6,35.2,65.62,33.23Z" transform="translate(110.4 126.87)"/><path class="cls-27" d="M79.4,30c1-.35,2.36-.76,1.85-2.4l-1.18-.87a3,3,0,0,1-.59.05c-1.37-.09-2,.66-1.85,1.9C77.74,29.51,78.42,30.32,79.4,30Z" transform="translate(110.4 126.87)"/><path class="cls-28" d="M79.18,51.5h0c.07.78.85.86,1.27,1.3.87.15.63.68.4,1.2h0c.53.66,1.58-1.32,1.92.39s-1,1.82-2.23,2.07a1.32,1.32,0,0,0,1.11.73c.24-.29.49-.12.73,0h0a2.64,2.64,0,0,0,.42-4C82,52.21,81.09,50.53,79.18,51.5Z" transform="translate(110.4 126.87)"/><path class="cls-12" d="M65.62,33.23c1,2,.66,2.68-1.56,3.52.56.4.89,2,1.46,1.19a5.92,5.92,0,0,0,1.27-3.71C66.72,33.46,66.62,32.86,65.62,33.23Z" transform="translate(110.4 126.87)"/><path class="cls-28" d="M77.13,56.5c.13-1.09-.3-2.32,1.14-3,.78-.38.28-1-.2-1.39-2.16,1.49-2.52,3.16-1,4.4h0Z" transform="translate(110.4 126.87)"/><path class="cls-29" d="M81.65,57.19c-.93.64-1.81,1.41-3.08,1.19h0c1.78,1.23,2.83.12,3.81-1.19h0C82.14,57.07,81.89,56.9,81.65,57.19Z" transform="translate(110.4 126.87)"/><path class="cls-30" d="M75.39,46.62a2.39,2.39,0,0,0-.58.42c0,.16,0,.36.09.37.37,0,.58-.22.74-.49S75.63,46.52,75.39,46.62Z" transform="translate(110.4 126.87)"/><path class="cls-29" d="M77.13,56.5l0,0h0c.1.63.08,1.33,1,1.45h0A1.75,1.75,0,0,0,77.13,56.5Z" transform="translate(110.4 126.87)"/><path class="cls-31" d="M80.07,26.71h0l1.18.87C81.09,27,81,26.32,80.07,26.71Z" transform="translate(110.4 126.87)"/><path class="cls-32" d="M83.85,11.19a1.9,1.9,0,0,0,2-1.78C86,8.48,85,7.79,84.34,7.67c-1.15-.21-1.29,1.19-2,1.76C82.62,10.33,82.92,11.14,83.85,11.19Z" transform="translate(110.4 126.87)"/><path class="cls-29" d="M79.25,55.07c0-.15-.37-.27-.6-.33s-.28.08-.59.2a3.23,3.23,0,0,0,.69.48C79,55.5,79.32,55.37,79.25,55.07Z" transform="translate(110.4 126.87)"/><path class="cls-28" d="M80.66,55.38c.21.06.4-.08.31-.3a.73.73,0,0,0-.41-.34c-.22-.07-.35,0-.3.35A1.18,1.18,0,0,0,80.66,55.38Z" transform="translate(110.4 126.87)"/><path class="cls-29" d="M80.85,54c.23-.52.47-1-.4-1.2a1.41,1.41,0,0,0,.4,1.2Z" transform="translate(110.4 126.87)"/><path class="cls-33" d="M68.26,19.59a2,2,0,0,0,2.56-.22,1.53,1.53,0,0,0,.22-2c-.68-1.05-1.67-.85-2.64-.41l-.71.35,0,0h0A1.41,1.41,0,0,0,68.26,19.59Z" transform="translate(110.4 126.87)"/><path class="cls-8" d="M9,18.9a.23.23,0,0,0-.22.29c0,.12,0,.23,0,.35.12.57,1.31-.08,1.38.91.17,2.38,1.89,3.14,4.41,2.89A8.11,8.11,0,0,1,11.49,26c-.43.17-.48.54-.51.92.78,1.35.19,2.05-1.14,2.38A5.19,5.19,0,0,1,6.68,30.5c-.92.13-2.13,0-2.83.69a2.13,2.13,0,0,0-.53,1.23h0c0,1.9.05,3.8.07,5.7a1.45,1.45,0,0,0,.45.59c.8.64,2.09.29,2.82,1h0l.57.1c3.52,1.43,4.41,3.81,2.63,7a7.41,7.41,0,0,0-1,2.72c-.23,2,.79,3.61,3.13,5a2.53,2.53,0,0,0,2.9,0,12.12,12.12,0,0,0,1.65-1.35c.86-.76,1.45-1.53,2.69-1.23h0c0-.34,0-.94.09-1a2,2,0,0,1,2.15.78c1.8-2.3,2.27-5.27,3.85-7.69.63-2-.3-3.53-1.8-4.68A5.31,5.31,0,0,1,21.66,37c0-1.29,0-2.57,0-3.85h0l1.53-2.71c-.13-2.58,1.6-2.38,3.31-2.23,1.13-.62,2.21.21,3.33.12l2.73,1.52c1.87-.46,2,.47,1.52,1.9l.09,1.95a1.53,1.53,0,0,1,0,2.2h0A4.31,4.31,0,0,1,32,40.26,2.29,2.29,0,0,0,31,43.53c.66,1.28.81,2.68,1.39,3.95.38.91.79,1.81,1.12,2.74.55,1.49,1.29,2.56,3.17,2.22,1.63-.3,2.63,1.09,3.89,1.74,2.72,1.4,7.13-.65,7.64-3.65A2.72,2.72,0,0,0,46.93,48c-1.77-1.41-1.84-3-1-5s1.83-3.39,4.12-3.28c2.9.15,3.25-2.07,3.29-3.95,0-2.05.06-4.46-2.85-5.1-1.27-.28-2.84.16-3.72-1.29-.39.17-.65,1.17-1.19.34a3.29,3.29,0,0,1-.32-3.23.37.37,0,0,0-.16-.45c-1-.9-.55-1.8,0-2.68a8,8,0,0,0,1.27-5.69c-2.75-3.12-3.13-3.18-6.54-1s-5.86,1.2-7-2.82c-.4-1.46-.34-3.29-2.33-3.81H25.66c-2.43.44-1.95,2.64-2.24,4.14-.36,1.9-1.1,3.15-3,3.64a1.75,1.75,0,0,1-2.71-.13l-.89-.54C14.26,17.88,11.26,16.69,9,18.9Z" transform="translate(110.4 126.87)"/><path class="cls-34" d="M32,40.26a4.31,4.31,0,0,0,2.2-4.34h0a1.47,1.47,0,0,1,0-2.2l-.09-1.95c-.5-.64-1-1.27-1.52-1.9l-2.73-1.52a1.67,1.67,0,0,1-.05.5,3.17,3.17,0,0,1-3.24.11h0a.3.3,0,0,1-.11-.31c-1.36.09-2,1.5-3.24,1.81l-1.53,2.71h0c1.51,1.28,1.5,2.56,0,3.85a5.31,5.31,0,0,0,1.89,2.44c1.5,1.15,2.43,2.66,1.8,4.68.78,1.25,2,2.45.35,4,2.36-.3,4.64.59,6.7-.7-.58-1.27-.73-2.67-1.39-3.95A2.29,2.29,0,0,1,32,40.26Z" transform="translate(110.4 126.87)"/><path class="cls-35" d="M11.49,26a8.11,8.11,0,0,0,3.08-2.63c-2.52.25-4.24-.51-4.41-2.89-.07-1-1.26-.34-1.38-.91a.72.72,0,0,1,0-.35,1,1,0,0,0-.26,1.57c.16.26.36.51.48.76C9.8,23,11.07,24.26,11.49,26Z" transform="translate(110.4 126.87)"/><path class="cls-36" d="M45.06,23.33c-.56.88-1,1.78,0,2.68.15-1.36,1.14-2.27,1.93-3.22,1.68-2,1.73-3.7-.65-5.15A8,8,0,0,1,45.06,23.33Z" transform="translate(110.4 126.87)"/><path class="cls-35" d="M9,18.9c2.24-2.21,5.24-1,7.81-1.76a15.24,15.24,0,0,0-2.39-1.58C12.56,14.67,11.57,15.6,9,18.9Z" transform="translate(110.4 126.87)"/><path class="cls-37" d="M19.35,51.05c-.11,0-.06.63-.09,1h0c.7,1.36,1.14,1.32,2.24-.19A2,2,0,0,0,19.35,51.05Z" transform="translate(110.4 126.87)"/><path class="cls-36" d="M45.53,29.69c.54.83.8-.17,1.19-.34a7.43,7.43,0,0,0-1.51-2.89A3.29,3.29,0,0,0,45.53,29.69Z" transform="translate(110.4 126.87)"/><path class="cls-38" d="M3.32,32.42c-.44,1.9-.83,3.81.07,5.7,0-1.9,0-3.8-.07-5.7Z" transform="translate(110.4 126.87)"/><path class="cls-39" d="M30.49,10l-.3-.41h0l-2.61-.09L25.66,10Z" transform="translate(110.4 126.87)"/><path class="cls-35" d="M11,26.89,9.84,29.27C11.17,28.94,11.76,28.24,11,26.89Z" transform="translate(110.4 126.87)"/><path class="cls-40" d="M30.19,9.63c-.82-1.32-1.72-.5-2.61-.09l2.61.09Z" transform="translate(110.4 126.87)"/><path class="cls-41" d="M5.92,40.4c.63.32,1-.06,1.31-.54l-.57-.1h0l-1,.23C5.73,40.13,5.79,40.33,5.92,40.4Z" transform="translate(110.4 126.87)"/><path class="cls-42" d="M20.43,17.81a5.3,5.3,0,0,1-2.71-.13A1.75,1.75,0,0,0,20.43,17.81Z" transform="translate(110.4 126.87)"/><path class="cls-43" d="M21.65,33.17h0c0,1.28,0,2.56,0,3.85C23.15,35.73,23.16,34.45,21.65,33.17Z" transform="translate(110.4 126.87)"/><path class="cls-44" d="M26.42,28.65a1,1,0,0,1,.07-.42c-1.71-.15-3.44-.35-3.31,2.23C24.43,30.15,25.06,28.74,26.42,28.65Z" transform="translate(110.4 126.87)"/><path class="cls-45" d="M34.16,35.92h0a1.53,1.53,0,0,0,0-2.2A1.47,1.47,0,0,0,34.16,35.92Z" transform="translate(110.4 126.87)"/><path class="cls-46" d="M32.55,29.87c.51.63,1,1.26,1.52,1.9C34.56,30.34,34.42,29.41,32.55,29.87Z" transform="translate(110.4 126.87)"/><path class="cls-47" d="M26.42,28.65a.3.3,0,0,0,.11.31h0a8.41,8.41,0,0,1,3.24-.11,1.67,1.67,0,0,0,.05-.5c-1.12.09-2.2-.74-3.33-.12A1,1,0,0,0,26.42,28.65Z" transform="translate(110.4 126.87)"/><path class="cls-48" d="M26.53,29h0a3.17,3.17,0,0,0,3.24-.11A8.41,8.41,0,0,0,26.53,29Z" transform="translate(110.4 126.87)"/><path class="cls-4" d="M115.71,35.62A62.53,62.53,0,0,0,55.86-26.84c-.89,0-1.78-.06-2.67-.06a62,62,0,0,0-40,14.47Q11-10.62,9-8.59A62.52,62.52,0,0,0,9,79.82c.88.88,1.78,1.72,2.7,2.54A62,62,0,0,0,53.19,98.14c.73,0,1.45,0,2.17,0a62.53,62.53,0,0,0,60.35-62.47Zm-60,58.71c-.84,0-1.68.06-2.53.06A58.34,58.34,0,0,1,16.56,81.57a60.08,60.08,0,0,1-4.93-4.4,58.77,58.77,0,0,1,0-83.11,60.82,60.82,0,0,1,6.09-5.3A58.34,58.34,0,0,1,53.19-23.15c1.25,0,2.5,0,3.73.13a58.75,58.75,0,0,1,55,58.64A58.78,58.78,0,0,1,55.72,94.33Z" transform="translate(110.4 126.87)"/></g></g></svg>