<svg xmlns="http://www.w3.org/2000/svg" width="100" height="50" viewBox="0 0 556.52 282.85"><defs><style>.cls-1{font-size:19.86px;fill:#fff;font-family:Montserrat-Bold, Montserrat;font-weight:700;}.cls-2{fill:#004684;}.cls-3{fill:#d9d9d9;}.cls-4{fill:#272626;}.cls-5{fill:#fefefe;}.cls-6{fill:#737373;}.cls-7{fill:#f1eddd;}.cls-8{fill:#e8e5d7;}.cls-9{fill:#fdfdfd;}.cls-10{fill:#fbfbfb;}.cls-11{fill:#034682;}.cls-12{fill:#f8f9f8;}.cls-13{fill:#f2f5f6;}.cls-14{fill:#064883;}.cls-15{fill:#014580;}.cls-16{fill:#014182;}.cls-17{fill:#013e81;}.cls-18{fill:#02488c;}.cls-19{fill:#123f6a;}.cls-20{fill:#0b4072;}.cls-21{fill:#033b6e;}.cls-22{fill:#0c3d67;}.cls-23{fill:#054785;}.cls-24{fill:#054781;}.cls-25{fill:#124d83;}.cls-26{fill:#124c81;}.cls-27{fill:#0d4a81;}.cls-28{fill:#0e4371;}.cls-29{fill:#0b4a84;}.cls-30{fill:#013e75;}.cls-31{fill:#144d81;}.cls-32{fill:#03447f;}</style></defs><title>Asset 2</title><g id="Layer_2" data-name="Layer 2"><g id="Layer_1-2" data-name="Layer 1"><text class="cls-1" transform="translate(250.85 198.06) rotate(-90)">G</text><text class="cls-1" transform="translate(250.85 183.31) rotate(-90)">N</text><text class="cls-1" transform="translate(250.85 167.7) rotate(-90)">D</text><path class="cls-2" d="M538.32,0H18.2A18.24,18.24,0,0,0,0,18.22V261.91a18.24,18.24,0,0,0,18.2,18.22h226a39.13,39.13,0,0,1,1.95-4.38H234v-2.54h-3.57V237.8a14.38,14.38,0,0,1-.2-25.88V199.76H240v11.08a14.39,14.39,0,0,1,7.65,4.77h.25a14.41,14.41,0,0,1,13.84,0h36a14.43,14.43,0,0,1,13.85,0h.94l.26-.24v-1.53h1.82a17.55,17.55,0,0,1,8.67-3.34v-5.15l-8.58-15.85,6.36-3.45,7.43,13.71h4.61v4.52a14.09,14.09,0,0,1,2.27-.19A14.39,14.39,0,0,1,342.47,231,17.64,17.64,0,0,1,333,243.83v29.38h-2.5v2.54H318.89a39.13,39.13,0,0,1,1.95,4.38H538.32a18.24,18.24,0,0,0,18.2-18.22V18.22A18.24,18.24,0,0,0,538.32,0ZM6.05,156.31a28.48,28.48,0,1,1,28.48,28.48A28.48,28.48,0,0,1,6.05,156.31ZM40,230.85a3.54,3.54,0,0,1,.09,2.56A3.7,3.7,0,0,1,40,230.85Zm38.78,7.52A6.45,6.45,0,0,1,72,232.65c-.26-2.19-1.5-2.91-3.51-2.68-.07.33,0,.73-.54.73a33.81,33.81,0,0,0,.09,13c5.56,3.32,8.75,8.34,6.48,15.55-1.58,5-5.35,6.69-9.73,7.17C60.07,267,56,263.79,54,259c-.2-.47-.43-.93-.65-1.39h0a4.48,4.48,0,0,1-.09-4.44c.48-.84.16-1.94.9-2.69a2.51,2.51,0,0,1,1.33-2.13l3.2-3.24A4.7,4.7,0,0,0,60,241.37c-.1-2.76.05-5.52.07-8.28,0-1.06,0-2.12-1.14-2.71l-1.22.27h0c-.51.79-1.3.51-2,.55a5.63,5.63,0,0,0-2.47,3.62,1.78,1.78,0,0,1-.82,1.5l-.34.37h0c-3.42,3.09-6.92,3-10-.05a5.41,5.41,0,0,1-1.34-4.51v-.9c-.41-2,1-2.95,2.28-4a8,8,0,0,1,4.83-1.72h0c.26-.29.59-.57,1-.38,2,1,3.92,2,6.25,1.29.09,0,.29.31.43.47l.1,0h0c-.23-3.92-.95-4.85-4.93-5.4-1.26-.17-.74-.9-.94-1.44h0c-2-1.65-4.11-3.05-3.86-6.24a6.75,6.75,0,0,1,5-6.34c2.73-.94,5,.18,6.89,2.15.46.48.85,1,1.27,1.53h0c.17.15.35.29.53.43h0c.86,2.11.25,4.31.35,6.46h0l.06.67H62c.33-.24.89-.13,1-.66h0c0-.85-.25-1.75.45-2.48.38-1,.82-2,1.12-3a3.44,3.44,0,0,0-.53-3.47,7.72,7.72,0,0,1-1-8.6c1.16-2.28,3.43-2.88,5.76-3.13a12.78,12.78,0,0,1,2.22.13h0c.94-.49,1.46,0,1.78.82a8.29,8.29,0,0,1,2.76,4.67,6.48,6.48,0,0,1-3.28,7c-.75.47-1.46,1-2.19,1.5a4.13,4.13,0,0,1-1.42,1.9,12.5,12.5,0,0,0-1.25,6.28l0,.08h0c2.07,1.2,2.51,3.42,3.11,5.43.5,1.65,1.38,2,2.83,1.51a7.78,7.78,0,0,0,1.87-.71c4.15-2.8,10,.78,10.15,6.5C85.54,235.21,82.21,238.23,78.75,238.37Zm-30-15.89c1.73-.73,1.95,1.66,3.36,1.29C50.49,224.7,50.05,222.83,48.78,222.48Zm3.72,2.78c-.75,1-1.24,0-1.81,0A1.65,1.65,0,0,1,52.5,225.26Zm9.42-15.77c.1-.09.22-.26.31-.25.28,0,.3.28.19.47s-.24.11-.36.16ZM76.44,203c.5.9.8,1.79,0,2.69h0A2.14,2.14,0,0,1,76.44,203ZM144,207.8a77.72,77.72,0,1,1,77.71-77.72A77.7,77.7,0,0,1,144,207.8ZM318.65,35a28.48,28.48,0,1,1,28.47,28.48A28.47,28.47,0,0,1,318.65,35Zm77.46,239.68a28.48,28.48,0,1,1,28.48-28.47A28.47,28.47,0,0,1,396.11,274.72Zm20-66.92a77.72,77.72,0,1,1,77.72-77.72A77.71,77.71,0,0,1,416.12,207.8Z"/><path class="cls-2" d="M40.71,232.13c.08.2.15.38.21.55A.84.84,0,0,0,40.71,232.13Z"/><path class="cls-2" d="M63.25,217l-.18,1A1.84,1.84,0,0,0,63.25,217Z"/><path class="cls-3" d="M144,52.36a77.72,77.72,0,1,0,77.71,77.72A77.71,77.71,0,0,0,144,52.36Zm0,133.69a56,56,0,1,1,56-56A56,56,0,0,1,144,186.05Z"/><circle class="cls-4" cx="144.04" cy="130.08" r="55.97"/><path class="cls-5" d="M63,156.31a28.48,28.48,0,1,0-28.48,28.48A28.48,28.48,0,0,0,63,156.31ZM34.53,181.57A25.27,25.27,0,1,1,59.8,156.3,25.27,25.27,0,0,1,34.53,181.57Z"/><path class="cls-2" d="M34.53,131A25.27,25.27,0,1,0,59.8,156.3,25.27,25.27,0,0,0,34.53,131Zm0,46.3a21,21,0,1,1,21-21A21,21,0,0,1,34.53,177.33Z"/><path class="cls-5" d="M347.12,63.52A28.48,28.48,0,1,0,318.65,35,28.48,28.48,0,0,0,347.12,63.52ZM322.71,35A24.49,24.49,0,1,1,347.2,59.53,24.48,24.48,0,0,1,322.71,35Z"/><path class="cls-2" d="M371.69,35A24.49,24.49,0,1,0,347.2,59.53,24.48,24.48,0,0,0,371.69,35Zm-45.08,0a21,21,0,1,1,21,21A21,21,0,0,1,326.61,35Z"/><path class="cls-5" d="M396.11,217.77a28.48,28.48,0,1,0,28.48,28.48A28.48,28.48,0,0,0,396.11,217.77Zm0,53.35a24.5,24.5,0,1,1,24.49-24.5A24.49,24.49,0,0,1,396.11,271.12Z"/><path class="cls-2" d="M396.11,222.13a24.5,24.5,0,1,0,24.49,24.49A24.48,24.48,0,0,0,396.11,222.13Zm0,44.77a21,21,0,1,1,21-21A21,21,0,0,1,396.11,266.9Z"/><path class="cls-3" d="M416.12,52.36a77.72,77.72,0,1,0,77.72,77.72A77.71,77.71,0,0,0,416.12,52.36Zm0,133.69a56,56,0,1,1,56-56A56,56,0,0,1,416.12,186.05Z"/><circle class="cls-4" cx="416.12" cy="130.08" r="55.97" transform="translate(-15.46 68.33) rotate(-9.22)"/><path class="cls-2" d="M312.82,215.37l-.26.24h.26Z"/><path class="cls-2" d="M316.81,215.61h4.47a14.45,14.45,0,0,1,2-4.94v-.17a17.55,17.55,0,0,0-8.67,3.34h2.17Z"/><path class="cls-2" d="M333.13,232.69v.17H333v11A17.64,17.64,0,0,0,342.47,231a14.33,14.33,0,0,1-7.07,1.86A14.09,14.09,0,0,1,333.13,232.69Z"/><path class="cls-2" d="M304.7,213.84a14.36,14.36,0,0,0-6.93,1.77h13.85A14.29,14.29,0,0,0,304.7,213.84Z"/><path class="cls-2" d="M339.05,219.21l-5.92,3.21v10.27a14.09,14.09,0,0,0,2.27.19,14.4,14.4,0,0,0,0-28.79,14.09,14.09,0,0,0-2.27.19v4Z"/><path class="cls-2" d="M321.28,215.61h2v-4.94A14.45,14.45,0,0,0,321.28,215.61Z"/><path class="cls-2" d="M230.21,232.86V211.92a14.38,14.38,0,0,0,.2,25.88v-4.94Z"/><path class="cls-2" d="M247.68,215.61a14.39,14.39,0,0,0-7.65-4.77v4.77Z"/><path class="cls-2" d="M254.85,213.84a14.29,14.29,0,0,0-6.92,1.77h13.84A14.29,14.29,0,0,0,254.85,213.84Z"/><polygon class="cls-2" points="328.51 199.76 321.09 186.05 314.73 189.5 323.31 205.35 323.31 199.76 328.51 199.76"/><polygon class="cls-2" points="333.13 208.29 333.13 222.41 339.05 219.21 333.13 208.29"/><rect class="cls-6" x="246.72" y="275.75" width="4" height="6.44"/><rect class="cls-6" x="291.37" y="273.21" width="4" height="9.64"/><rect class="cls-6" x="312.82" y="275.75" width="3.99" height="7.1"/><polygon class="cls-6" points="316.81 215.61 316.81 213.84 314.64 213.84 312.82 213.84 312.82 215.37 312.82 215.61 316.81 215.61"/><rect class="cls-6" x="268.62" y="273.21" width="3.99" height="8.98"/><polygon class="cls-7" points="330.52 232.86 330.52 273.21 333.02 273.21 333.02 243.83 333.02 232.86 330.52 232.86"/><polygon class="cls-7" points="233.98 232.86 230.41 232.86 230.41 237.8 230.41 273.21 233.98 273.21 233.98 232.86"/><path class="cls-7" d="M240,218.26h14.48v54.95H310V218.26h13.31v-2.65H240Zm67.21,0v47.06H255.82V218.26Z"/><path class="cls-7" d="M255.82,265.32h51.42V218.26H255.82Zm5-8.08V236.71h42v20.53Z"/><rect class="cls-8" x="260.79" y="236.71" width="42" height="20.52"/><polygon class="cls-7" points="230.41 232.86 233.98 232.86 233.98 218.26 240.03 218.26 240.03 215.61 240.03 210.84 240.03 199.76 230.21 199.76 230.21 211.92 230.21 232.86 230.41 232.86"/><polygon class="cls-8" points="250.72 275.75 254.5 275.75 254.5 273.21 254.5 218.26 240.03 218.26 233.98 218.26 233.98 232.86 233.98 273.21 233.98 275.75 246.14 275.75 246.72 275.75 250.72 275.75"/><polygon class="cls-7" points="323.31 215.61 323.31 218.26 330.52 218.26 330.52 232.86 333.02 232.86 333.13 232.86 333.13 232.69 333.13 222.41 333.13 208.29 333.13 204.28 333.13 199.76 328.51 199.76 323.31 199.76 323.31 205.35 323.31 210.5 323.31 210.67 323.31 215.61"/><polygon class="cls-8" points="330.52 232.86 330.52 218.26 323.31 218.26 310 218.26 310 273.21 310 275.75 312.82 275.75 316.81 275.75 318.89 275.75 330.52 275.75 330.52 273.21 330.52 232.86"/><path class="cls-5" d="M68.4,229.44h0c-.56-.63-1.21-1.25,0-1.92a.65.65,0,0,0,.27-.95c-.26-.44-.58-.25-.93-.07-1.17.63-2.87.09-3.43,2.16-.34,1.26-1.78.37-2.54-.11-1.34-.83-1.58-3.82-.5-5,.29-.3.69,0,1,.1h0l2.11-.23c2.87.23,3.63-1.28,3.14-3.83l0-.08c-1.23-.11-1.57-.89-1.2-2.24-.88.63-.22,1.54-1,1.88-.89-.36-.08-1.42-.9-2-.38,1.1-.11,3.31-2.32,1.81h0c-.67-.34-1.57.71-2.14-.33h0l-.06-.67h0l-.41-.23c-.72-2.18,0-4.46-.47-6.66-.42-.51-.81-1.05-1.27-1.53-1.9-2-4.16-3.09-6.89-2.15a6.75,6.75,0,0,0-5,6.34c-.25,3.19,1.89,4.59,3.86,6.24,2.12,1,4.65-.18,6.67,1.3h0c1.19.79.66,1.78.33,2.76s.72,2.46-1.13,2.78l-.1,0c-1.58,1-3.1.76-4.66-.11a29,29,0,0,0-3-1.27h0A8,8,0,0,0,43,227.21c-.14,1.69-.47,3.28-2.28,4v.9a.84.84,0,0,1,.21.55c.71,1.78.93,1.62,3.51-.27-.15-.87-2.54.31-1.4-1.38.27-.4,1.88-1.57,3.15-.6h0l2.13.35c1.27-.75,1.63.56,1.44,1-.79,1.9.23,2.85,1.53,3.81a4.28,4.28,0,0,1,.76,1.07h0l.34-.37c-.49-.92.17-1.21.82-1.5a5.63,5.63,0,0,1,2.47-3.62,2.22,2.22,0,0,1,2-.55h0l1.22-.27c1.64-.12,1.73,1.17,1.84,2.22.37,3.54-.27,7.06-.27,10.59a2,2,0,0,1-1.83,1.95l-3.2,3.24a3,3,0,0,1-1.33,2.13h0c-.74.75-.42,1.85-.9,2.69l.09,4.44c.22.46.45.92.65,1.39,2,4.76,6.11,7.92,10.8,7.42,4.38-.48,8.15-2.15,9.73-7.17,2.27-7.21-.92-12.23-6.48-15.55-.23-.27-.63-.53-.67-.83a56.65,56.65,0,0,1-.1-11.86.48.48,0,0,1,.68-.34h0c.5,0,.47-.4.54-.73l-.06-.53Zm-16-13.62c-1-.11-2.29-.59-2.15-1.79s1.32-1.87,2.64-1.92A1.65,1.65,0,0,1,54.58,214,1.81,1.81,0,0,1,52.36,215.82Zm15.22,41h0c-1.71,2.93-3.69,3.63-5.88,1.28-2.3-3-2-4.43.63-6.34a3,3,0,0,1,4.31.4C68,253.44,69,254.93,67.58,256.82Z"/><path class="cls-9" d="M75.33,225.85a7.78,7.78,0,0,1-1.87.71c-1.45.46-2.33.14-2.83-1.51-.6-2-1-4.23-3.11-5.43h0c.49,2.55-.27,4.06-3.14,3.83.89.7,1.89,1.37.83,2.68-.7.87-1.54,1.52-2.65.8-1.39-.92-1-2.09-.29-3.25h0c-.34-.13-.74-.4-1-.1-1.08,1.14-.84,4.13.5,5,.76.48,2.2,1.37,2.54.11.56-2.07,2.26-1.53,3.43-2.16.35-.18.67-.37.93.07a.65.65,0,0,1-.27.95c-1.18.67-.53,1.29,0,1.92.26-1,1-.66,1.87-.86-.57.89-1.25.8-1.87.87h0l.06.53c2-.23,3.25.49,3.51,2.68a6.45,6.45,0,0,0,6.78,5.72c3.46-.14,6.79-3.16,6.73-6C85.36,226.63,79.48,223.05,75.33,225.85Zm5.12,6.68a2.55,2.55,0,0,1-3.33.87c-1.08-.46-.79-1.4-.31-2.23h0l.44-.43c.89-1.38,1.91-1,2.83-.1C80.55,231.1,81.14,231.62,80.45,232.53Z"/><path class="cls-9" d="M62.06,219h0c2.21,1.5,1.94-.71,2.32-1.81.82.58,0,1.64.9,2,.78-.34.12-1.25,1-1.88-.37,1.35,0,2.13,1.2,2.24a12.5,12.5,0,0,1,1.25-6.28,2,2,0,0,1,1.42-1.9c.73-.5,1.44-1,2.19-1.5a6.48,6.48,0,0,0,3.28-7,8.29,8.29,0,0,0-2.76-4.67l-1.78-.82h0a12.78,12.78,0,0,0-2.22-.13c-2.33.25-4.6.85-5.76,3.13a7.72,7.72,0,0,0,1,8.6,3.44,3.44,0,0,1,.53,3.47c-.3,1-.74,2-1.12,3L63.25,217a1.84,1.84,0,0,1-.18,1h0c-.15.53-.71.42-1,.66ZM69,202.06A2.07,2.07,0,0,1,70.87,204a2.26,2.26,0,0,1-2,2.06,1.74,1.74,0,0,1-1.75-1.87A2.12,2.12,0,0,1,69,202.06Z"/><path class="cls-10" d="M51.28,235.62c-1.3-1-2.32-1.91-1.53-3.81.19-.47-.17-1.78-1.44-1l.12.18a2.13,2.13,0,0,1-.6,3.28c-.76.52-1.26.43-2-.46-1.14-1.41-.86-2.34.33-3.35h0c-1.27-1-2.88.2-3.15.6-1.14,1.69,1.25.51,1.4,1.38-2.58,1.89-2.8,2.05-3.51.27-.06-.17-.13-.35-.21-.55a5.41,5.41,0,0,0,1.34,4.51c3.07,3.09,6.57,3.14,10,.05h0A4.28,4.28,0,0,0,51.28,235.62Z"/><path class="cls-11" d="M56.68,224.05c-.55-.87-.28-1.84-.33-2.76h0c-2-1.48-4.55-.33-6.67-1.3h0c.2.54-.32,1.27.94,1.44,4,.55,4.7,1.48,4.93,5.4h0C57.4,226.51,56.45,225,56.68,224.05Z"/><path class="cls-12" d="M60.48,243.19c0-3.53.64-7.05.27-10.59-.11-1-.2-2.34-1.84-2.22,1.12.59,1.15,1.65,1.14,2.71,0,2.76-.17,5.52-.07,8.28a4.7,4.7,0,0,1-1.33,3.77A2,2,0,0,0,60.48,243.19Z"/><path class="cls-13" d="M67.24,231a56.65,56.65,0,0,0,.1,11.86c0,.3.44.56.67.83a33.81,33.81,0,0,1-.09-13h0A.48.48,0,0,0,67.24,231Z"/><path class="cls-11" d="M50.79,226.76c1.56.87,3.08,1.15,4.66.11-.14-.16-.34-.5-.43-.47-2.33.71-4.29-.27-6.25-1.29-.37-.19-.7.09-1,.38h0A29,29,0,0,1,50.79,226.76Z"/><path class="cls-10" d="M43,227.21c-1.23,1.07-2.69,2-2.28,4C42.51,230.49,42.84,228.9,43,227.21Z"/><polygon class="cls-14" points="59.49 211.52 59.49 211.52 59.49 211.52 59.49 211.52"/><path class="cls-14" d="M59.44,217.75l.06-6.23c-.18-.14-.36-.28-.53-.43h0C59.43,213.29,58.72,215.57,59.44,217.75Z"/><path class="cls-15" d="M59.44,217.75l.41.23h0c-.1-2.15.51-4.35-.35-6.46h0Z"/><path class="cls-11" d="M48.78,222.48c1.27.35,1.71,2.22,3.36,1.29C50.73,224.14,50.51,221.75,48.78,222.48Z"/><path class="cls-16" d="M53.31,257.64h0l-.09-4.44A4.48,4.48,0,0,0,53.31,257.64Z"/><path class="cls-11" d="M52.5,225.26a1.65,1.65,0,0,0-1.81,0C51.26,225.24,51.75,226.25,52.5,225.26Z"/><path class="cls-17" d="M40,230.85a3.7,3.7,0,0,0,.09,2.56A3.54,3.54,0,0,0,40,230.85Z"/><path class="cls-12" d="M55.45,248.38a2.51,2.51,0,0,0-1.33,2.13h0A3,3,0,0,0,55.45,248.38Z"/><polygon class="cls-18" points="76.44 205.66 76.44 205.66 76.44 205.66 76.44 205.66"/><path class="cls-18" d="M76.44,203v2.69C77.24,204.76,76.94,203.87,76.44,203Z"/><path class="cls-19" d="M55.67,231.2c.72,0,1.51.24,2-.55h0A2.22,2.22,0,0,0,55.67,231.2Z"/><path class="cls-20" d="M68.73,213.26a4.13,4.13,0,0,0,1.42-1.9A2,2,0,0,0,68.73,213.26Z"/><path class="cls-21" d="M76.44,205.66h0V203a2.14,2.14,0,0,0,0,2.69Z"/><path class="cls-10" d="M52.38,236.32a1.78,1.78,0,0,0,.82-1.5C52.55,235.11,51.89,235.4,52.38,236.32Z"/><path class="cls-14" d="M62.05,219h0l0-.33H59.91C60.48,219.7,61.38,218.65,62.05,219Z"/><path class="cls-14" d="M63.07,218l.18-1,.27-1.47c-.7.73-.44,1.63-.45,2.48Z"/><path class="cls-15" d="M62.42,209.71c.11-.19.09-.43-.19-.47-.09,0-.21.16-.31.25l.14.38C62.18,209.82,62.37,209.81,62.42,209.71Z"/><path class="cls-22" d="M72.86,198.24c-.32-.87-.84-1.31-1.78-.82h0Z"/><path class="cls-23" d="M62.33,251.76c-2.66,1.91-2.93,3.33-.63,6.34.74-1,1.43-2.07,2.85-1.18.53-.81-.7-.76-.45-1.36.13-.3,0-.84.51-.8.25,0,.7.35.68.46-.47,2.33,1.49,1.14,2.29,1.6,1.37-1.89.37-3.38-.94-4.66A3,3,0,0,0,62.33,251.76Zm4.13,3.55c-.07-.67-1.13-.8-.81-1.65,0-.07.29-.14.39-.09C66.8,254,66.52,254.66,66.46,255.31Z"/><path class="cls-24" d="M65.29,255.22c0-.11-.43-.44-.68-.46-.55,0-.38.5-.51.8-.25.6,1,.55.45,1.36-1.42-.89-2.11.2-2.85,1.18,2.19,2.35,4.17,1.65,5.88-1.28h0C66.78,256.36,64.82,257.55,65.29,255.22Z"/><path class="cls-25" d="M52.85,212.11c-1.32,0-2.5.66-2.64,1.92s1.12,1.68,2.15,1.79A1.81,1.81,0,0,0,54.58,214,1.65,1.65,0,0,0,52.85,212.11Z"/><path class="cls-26" d="M45.85,233.78c.72.89,1.22,1,2,.46a2.13,2.13,0,0,0,.6-3.28l-.12-.18-2.13-.35h0C45,231.44,44.71,232.37,45.85,233.78Z"/><path class="cls-27" d="M62.27,223.68c-.74,1.16-1.1,2.33.29,3.25,1.11.72,2,.07,2.65-.8,1.06-1.31.06-2-.83-2.68l-2.11.23Z"/><path class="cls-28" d="M56.68,224.05c.33-1,.86-2-.33-2.76h0C56.4,222.21,56.13,223.18,56.68,224.05Z"/><path class="cls-29" d="M80.08,230.64c-.92-.89-1.94-1.28-2.83.1.43.54.08,1.08-.11,2.32-.18-1.05-.25-1.47-.33-1.89h0c-.48.83-.77,1.77.31,2.23a2.55,2.55,0,0,0,3.33-.87C81.14,231.62,80.55,231.1,80.08,230.64Z"/><path class="cls-5" d="M68.4,229.44c.62-.07,1.3,0,1.87-.87-.83.2-1.61-.16-1.87.86Z"/><path class="cls-30" d="M77.25,230.74l-.44.43h0c.08.42.15.84.33,1.89C77.33,231.82,77.68,231.28,77.25,230.74Z"/><path class="cls-31" d="M68.85,206.07a2.26,2.26,0,0,0,2-2.06A2.07,2.07,0,0,0,69,202.06a2.12,2.12,0,0,0-1.86,2.14A1.74,1.74,0,0,0,68.85,206.07Z"/><path class="cls-32" d="M66,253.57c-.1,0-.37,0-.39.09-.32.85.74,1,.81,1.65C66.52,254.66,66.8,254,66,253.57Z"/><text class="cls-1" transform="translate(275.57 197.61) rotate(-90)">V</text><text class="cls-1" transform="translate(275.57 183.13) rotate(-90)">C</text><text class="cls-1" transform="translate(275.57 169.39) rotate(-90)">C</text><text class="cls-1" transform="translate(302.05 195.57) rotate(-90)">N</text><text class="cls-1" transform="translate(302.05 179.96) rotate(-90)">C</text><text class="cls-1" transform="translate(326.31 196.27) rotate(-90)">S</text><text class="cls-1" transform="translate(326.31 183.48) rotate(-90)">I</text><text class="cls-1" transform="translate(326.31 177.17) rotate(-90)">G</text><text class="cls-1" transform="translate(248.72 197.96) rotate(-90)">G</text><text class="cls-1" transform="translate(248.72 183.21) rotate(-90)">N</text><text class="cls-1" transform="translate(248.72 167.61) rotate(-90)">D</text></g></g></svg>