<svg xmlns="http://www.w3.org/2000/svg" width="150" height="100" viewBox="0 0 909.19 618.77"><defs><style>.cls-1{font-size:19.06px;font-family:Montserrat-Bold, Montserrat;font-weight:700;}.cls-1,.cls-5{fill:#fff;}.cls-2{fill:none;}.cls-3{fill:#ff2b2b;}.cls-4{fill:#004684;}.cls-6{fill:#f1eddd;}.cls-7{fill:#d9d9d9;}.cls-8{fill:#a6a6a6;}.cls-9{fill:#ffc331;}.cls-10{fill:#2b2b2b;}.cls-11{fill:#2e2d2d;}.cls-12{fill:#272626;}.cls-13{fill:#545454;}.cls-14{fill:#fefefe;}.cls-15{fill:#737373;}.cls-16{fill:#e8e5d7;}.cls-17{fill:#89725c;}</style></defs><title>Asset 1</title><g id="Layer_2" data-name="Layer 2"><g id="Layer_1-2" data-name="Layer 1"><text class="cls-1" transform="translate(122.88 529.83) rotate(-90)">G</text><text class="cls-1" transform="translate(122.88 515.67) rotate(-90)">N</text><text class="cls-1" transform="translate(122.88 500.69) rotate(-90)">D</text><path class="cls-2" d="M639.77-478.86h-582a6.75,6.75,0,0,0-6.7,6.73V-388a28.38,28.38,0,0,1,10.54-2,28.29,28.29,0,0,1,15.33,4.49v-61.33a12.93,12.93,0,0,1,12.88-12.93H609a12.93,12.93,0,0,1,12.88,12.93v197c2-.28,4.09-.54,6.15-.74q3.88-.39,7.78-.57t7.8-.2c1,0,1.94,0,2.91,0V-472.13A6.75,6.75,0,0,0,639.77-478.86Z" transform="translate(106.66 485.06)"/><path class="cls-3" d="M609-459.85H89.82a12.93,12.93,0,0,0-12.88,12.93v61.33l.08,0v-47.14h5.69v52c.14.15.27.31.41.47v-66.67a6.75,6.75,0,0,1,6.7-6.73H609a6.75,6.75,0,0,1,6.7,6.73v198c1.53-.27,3.05-.53,4.59-.76l1.59-.21v-197A12.93,12.93,0,0,0,609-459.85Z" transform="translate(106.66 485.06)"/><path d="M50.43-387.8l.64-.25v-84.08a6.75,6.75,0,0,1,6.7-6.73h582a6.75,6.75,0,0,1,6.71,6.73v220.72c1.63,0,3.26.07,4.89.16l1.28.07V-472.13a12.93,12.93,0,0,0-12.88-12.93h-582a12.93,12.93,0,0,0-12.88,12.93v35.6h5.54Z" transform="translate(106.66 485.06)"/><path class="cls-4" d="M-18.3-14.57c.07-.31.16-.62.26-.92h-.26Z" transform="translate(106.66 485.06)"/><path class="cls-4" d="M145.14-305.53a23.17,23.17,0,0,0,14.24-4.9l-5.32-5.33c0,1.1.09,2.2.13,3.3a2.16,2.16,0,0,1-.75,1.81,1.54,1.54,0,0,1-2.63-.87,28.72,28.72,0,0,1-.34-3.08l-.33-5.07-1.63-1.63-.06,10.91c0,.42,0,.85-.07,1.27a1.77,1.77,0,0,1-1.76,1.58,1.58,1.58,0,0,1-1.72-1.55c-.08-.84-.11-1.69-.12-2.54-.05-3.73-.08-7.46-.12-11.19,0-.13,0-.3,0-.37a7.31,7.31,0,0,0-.64-.6c-.18.22-.5.43-.51.67-.13,1.84-.2,3.68-.3,5.52s-.2,3.85-.35,5.77c-.09,1.17-.68,1.76-1.59,1.72a2,2,0,0,1-1.89-1.95c0-1.16,0-2.33,0-3.5.08-2.43.17-4.87.25-7.3,0-.46.06-.93.07-1.39s-.17-.71-.62-.73-.55.28-.59.66c-.2,2.34-.41,4.68-.61,7a23.59,23.59,0,0,1-.25,2.39,1.15,1.15,0,0,1-2,.61,3.07,3.07,0,0,1-.77-1.67,44.75,44.75,0,0,1,.29-9.18A14.36,14.36,0,0,0,135-328a37.16,37.16,0,0,1-.1-6.91L126.79-343a23.15,23.15,0,0,0-4.9,14.24A23.24,23.24,0,0,0,145.14-305.53Z" transform="translate(106.66 485.06)"/><path class="cls-4" d="M136.51-341.53a11.16,11.16,0,0,0,.38-4.78c0-.56,0-1.12-.08-1.73H150.5a17.1,17.1,0,0,1,0,2.15,5.09,5.09,0,0,0,2.16,5.14,29.13,29.13,0,0,1,2.73,2.35,15,15,0,0,1,3,4.56,32.15,32.15,0,0,0,3.64,6.3,1.36,1.36,0,0,1-.75,2.29,3.09,3.09,0,0,1-3.1-.76,14.9,14.9,0,0,1-3.05-4.33,2.86,2.86,0,0,0-.66-.84c-.37-.3-.66-.17-.75.31a4.37,4.37,0,0,0-.08.88c.06,1.91.12,3.81.19,5.72l9.72,9.73a23.19,23.19,0,0,0,4.9-14.24A23.24,23.24,0,0,0,145.14-352a23.16,23.16,0,0,0-14.24,4.89Z" transform="translate(106.66 485.06)"/><path class="cls-4" d="M202,49.93h-.56a28.48,28.48,0,0,1,0-56.95H202V-202.31a41,41,0,0,1-29-39.18,41,41,0,0,1,29-39.18v-80.91H90.09a28.39,28.39,0,0,1-7.38,19.1v2.54h26.07v73.35H77.05v5.73H49.9v-5.73H14.55v-73.35H43.13a28.42,28.42,0,0,1-10-21.64H-78.18v81.09a40.94,40.94,0,0,1,28.48,39,41,41,0,0,1-28.48,39V1A28.48,28.48,0,0,1-49.7,29.43,28.48,28.48,0,0,1-78.18,57.91v75.8H4.3a60.17,60.17,0,0,1,3-8.09H-14v-51A21,21,0,0,1-27.15,55.18a21,21,0,0,1,13.82-19.7,5.64,5.64,0,0,1-1.58-3.92,5.67,5.67,0,0,1,5.67-5.67,5.67,5.67,0,0,1,5.67,5.67,5.71,5.71,0,0,1-.7,2.73A21,21,0,0,1,10.1,41.92a20.84,20.84,0,0,1,7.58-2.53,5.66,5.66,0,0,1,10.39,1.25c.56.22,1.1.47,1.64.73a5.69,5.69,0,0,1,2.09,1.18l.85.58a6,6,0,0,1-.09-1,5.67,5.67,0,1,1,10,3.69h7.41a5.67,5.67,0,1,1,8.6,0H66a5.67,5.67,0,1,1,8.6,0h3.22a20.88,20.88,0,0,1,15.31-6.67,21.33,21.33,0,0,1,4,.38,5.67,5.67,0,0,1,10.06,0,25.66,25.66,0,0,1,13.28-5.23,20.88,20.88,0,0,1,2.34-2.88l-15-27.72,9.27-5,14.72,27.2a21,21,0,0,1,16.46,38.33A25.56,25.56,0,0,1,142.92,76v49.66h-27a58.83,58.83,0,0,1,3,8.09h83ZM168.08-154.22a4.87,4.87,0,0,1-4.86,4.87H98.08a4.88,4.88,0,0,1-4.87-4.87v-65.14a4.88,4.88,0,0,1,4.87-4.87h65.14a4.87,4.87,0,0,1,4.86,4.87ZM145.14-357.85a29.05,29.05,0,0,1,29.06,29.07,29.05,29.05,0,0,1-29.06,29.06,29.05,29.05,0,0,1-29.06-29.06A29.05,29.05,0,0,1,145.14-357.85ZM93-255.68h50.14V-234H93ZM54.39-179H66.13v21.63H16V-179h38.4Zm-64.94-68.83A3.58,3.58,0,0,1-7-251.44H-3.5v-9.41h5v9.41H13.14v-9.41h5v9.41H28.53v-9.41h5v9.41H36.1a3.58,3.58,0,0,1,3.58,3.56v43.1a3.58,3.58,0,0,1-3.58,3.56H33.54v7h-5v-7H18.15v7.06h-5v-7.06H1.51v7.06h-5v-7.06H-7a3.58,3.58,0,0,1-3.58-3.56Zm-41-45.94v-50.13h21.63v11.75h0v26.64h0v11.74ZM-63.06-188.73h8.15V-192h-8.15v-12.22h8.15v-2.15h28.26v1.64h9.9v12.23h-9.9v3h9.57v12.23h-9.57v2.94h9.57v12.23h-9.57v1.58H-54.91v-.61h-7.63v-12.22h7.63v-3.17h-8.15Zm-5.69,44.64A4.88,4.88,0,0,1-63.88-149H1.25a4.88,4.88,0,0,1,4.87,4.87v65.14a4.87,4.87,0,0,1-4.87,4.86H-63.88a4.87,4.87,0,0,1-4.87-4.86ZM-9.24,21.22a5.67,5.67,0,0,1-5.67-5.67A5.67,5.67,0,0,1-9.24,9.88a5.67,5.67,0,0,1,5.67,5.67A5.67,5.67,0,0,1-9.24,21.22ZM55.05-24.66H51.9v12.71H39.68V-24.66H24.5v3.73A16.76,16.76,0,0,1,29.12-9.37c0,.38,0,.75-.06,1.12a16.45,16.45,0,0,1,1.83,2.16,5.66,5.66,0,0,1,2.83,4.9,5.93,5.93,0,0,1-.11,1.13A17.15,17.15,0,0,1,34,3.68a16,16,0,0,1-.13,2,16.74,16.74,0,0,1-.24,24.5,5.19,5.19,0,0,1,0,.68,5.67,5.67,0,0,1-10,3.7c-.48,0-1,.07-1.45.07A16.72,16.72,0,0,1,15.14,33a5.67,5.67,0,1,1-7.66-7.27,16.71,16.71,0,0,1-1.95-7.28,5.65,5.65,0,0,1-1.3-3.61c0-.15,0-.3,0-.44A16.79,16.79,0,0,1,.42,3.68c0-.37,0-.75,0-1.12a16.9,16.9,0,0,1-4.34-7.4A8.66,8.66,0,0,1-5-4.16,5.62,5.62,0,0,1-3.57-.46,5.67,5.67,0,0,1-9.24,5.21,5.67,5.67,0,0,1-14.91-.46a5.65,5.65,0,0,1,1.38-3.7,9.3,9.3,0,0,1-5-7.23h-18A16.82,16.82,0,0,1-52.89,1.88,16.81,16.81,0,0,1-69.7-14.93,16.8,16.8,0,0,1-52.89-31.74a16.82,16.82,0,0,1,3.11.3V-56.57h9.84v-5H-18.3v5h7.79v34.93a10.38,10.38,0,0,1,1.26-.09A9.27,9.27,0,0,1-2-18.21a16.79,16.79,0,0,1,11-7.65V-44.51H25.94V-58.25H38.16v13.74H55.05ZM94.78-24h0v11.75H73.14V-62.42H94.77v11.75h0Zm59.64,1.79h-3.14V-9.53H139.06V-22.24H123.87V-9.86H111.65V-22.24h-3.22V-42.09h16.89V-55.84h12.22v13.75h16.88ZM55.14-82.64v-13H46.23v-32h8.91v-13.06h128v13.06h8.55v32h-8.55v13Zm115,21.54h21.63v11.75h0v26.64h0V-11H170.09Z" transform="translate(106.66 485.06)"/><rect class="cls-5" x="80.01" y="295.58" width="9.56" height="12.22"/><path class="cls-4" d="M83.12-380.25c-.14-.16-.27-.32-.41-.47v38.24a28.39,28.39,0,0,0,7.38-19.1v0A28.37,28.37,0,0,0,83.12-380.25Z" transform="translate(106.66 485.06)"/><path class="cls-4" d="M61.61-382.11a20.41,20.41,0,0,1,15.41,7v-10.44l-.08,0a28.29,28.29,0,0,0-15.33-4.49,28.38,28.38,0,0,0-10.54,2l-.64.25v9A20.36,20.36,0,0,1,61.61-382.11Z" transform="translate(106.66 485.06)"/><path class="cls-4" d="M43.13-339.94h1.6v-10A20.36,20.36,0,0,1,41.1-361.6a20.39,20.39,0,0,1,3.63-11.64v-11.29a28.43,28.43,0,0,0-11.6,22.93v0A28.42,28.42,0,0,0,43.13-339.94Z" transform="translate(106.66 485.06)"/><path class="cls-4" d="M77-339.94v-8.16a20.41,20.41,0,0,1-15.41,7,20.36,20.36,0,0,1-11.18-3.33v4.48Z" transform="translate(106.66 485.06)"/><path class="cls-4" d="M172.92,21.46a28.46,28.46,0,0,0,28.47,28.48H202A28.47,28.47,0,0,0,202-7h-.56A28.46,28.46,0,0,0,172.92,21.46Zm49,0A20.51,20.51,0,1,1,201.39,1,20.51,20.51,0,0,1,221.9,21.46Z" transform="translate(106.66 485.06)"/><path class="cls-4" d="M-49.7,29.43A28.48,28.48,0,0,0-78.18,1a28.48,28.48,0,0,0-28.48,28.48A28.48,28.48,0,0,0-78.18,57.91,28.48,28.48,0,0,0-49.7,29.43ZM-78.18,49.94A20.51,20.51,0,0,1-98.69,29.43,20.51,20.51,0,0,1-78.18,8.92,20.51,20.51,0,0,1-57.67,29.43,20.51,20.51,0,0,1-78.18,49.94Z" transform="translate(106.66 485.06)"/><path class="cls-4" d="M29.71,41.37a22.46,22.46,0,0,1,2.09,1.18A5.69,5.69,0,0,0,29.71,41.37Z" transform="translate(106.66 485.06)"/><path class="cls-4" d="M-4.27,34.29a5.71,5.71,0,0,0,.7-2.73,5.67,5.67,0,0,0-5.67-5.67,5.67,5.67,0,0,0-5.67,5.67,5.64,5.64,0,0,0,1.58,3.92A21,21,0,0,1-6.16,34.2C-5.52,34.2-4.89,34.24-4.27,34.29Z" transform="translate(106.66 485.06)"/><path class="cls-4" d="M7.48,25.71A5.67,5.67,0,1,0,15.14,33,16.8,16.8,0,0,1,7.48,25.71Z" transform="translate(106.66 485.06)"/><path class="cls-4" d="M28.05,36.5a5.67,5.67,0,0,0,5.67-5.67,5.19,5.19,0,0,0,0-.68,16.7,16.7,0,0,1-9.91,4.38A5.63,5.63,0,0,0,28.05,36.5Z" transform="translate(106.66 485.06)"/><circle class="cls-4" cx="-9.24" cy="15.55" r="5.67" transform="translate(102.84 483.35) rotate(-13.28)"/><path class="cls-4" d="M5.62,15.83a18.78,18.78,0,0,1-1.37-1.45c0,.14,0,.29,0,.44a5.65,5.65,0,0,0,1.3,3.61c0-.21,0-.42,0-.64A18.09,18.09,0,0,1,5.62,15.83Z" transform="translate(106.66 485.06)"/><path class="cls-4" d="M-13.53-4.16a5.65,5.65,0,0,0-1.38,3.7A5.67,5.67,0,0,0-9.24,5.21,5.67,5.67,0,0,0-3.57-.46,5.62,5.62,0,0,0-5-4.16,9.35,9.35,0,0,1-9.25-3.11,9.18,9.18,0,0,1-13.53-4.16Z" transform="translate(106.66 485.06)"/><path class="cls-4" d="M33.72-1.19a5.66,5.66,0,0,0-2.83-4.9,16.76,16.76,0,0,1,2.72,6A5.93,5.93,0,0,0,33.72-1.19Z" transform="translate(106.66 485.06)"/><path class="cls-4" d="M-39.94-15.49h-9.84V-31.44a16.82,16.82,0,0,0-3.11-.3A16.8,16.8,0,0,0-69.7-14.93,16.81,16.81,0,0,0-52.89,1.88,16.82,16.82,0,0,0-36.46-11.39h-3.48Z" transform="translate(106.66 485.06)"/><path class="cls-4" d="M17.23,20.49A16.76,16.76,0,0,1,5.62,15.83a18.09,18.09,0,0,0-.12,2c0,.22,0,.43,0,.64A16.83,16.83,0,0,0,22.31,34.6c.49,0,1,0,1.45-.07A16.79,16.79,0,0,0,33.91,5.65,16.79,16.79,0,0,1,17.23,20.49Z" transform="translate(106.66 485.06)"/><path class="cls-4" d="M12.31,7.44A16.78,16.78,0,0,1,.47,2.56c0,.37,0,.75,0,1.12a16.79,16.79,0,0,0,3.83,10.7,18.78,18.78,0,0,0,1.37,1.45A16.79,16.79,0,0,0,33.91,5.65a16,16,0,0,0,.13-2,17.15,17.15,0,0,0-.43-3.74,16.76,16.76,0,0,0-2.72-6,16.45,16.45,0,0,0-1.83-2.16A16.79,16.79,0,0,1,12.31,7.44Z" transform="translate(106.66 485.06)"/><path class="cls-4" d="M12.27-12.28V-24.66H9.05v-1.2A16.79,16.79,0,0,0-2-18.21a9.24,9.24,0,0,1,2,5.79A9.26,9.26,0,0,1-3.87-4.84,16.9,16.9,0,0,0,.47,2.56,16.78,16.78,0,0,0,12.31,7.44,16.79,16.79,0,0,0,29.06-8.25c0-.37.06-.74.06-1.12A16.76,16.76,0,0,0,24.5-20.93v8.65Z" transform="translate(106.66 485.06)"/><path class="cls-4" d="M.06-12.42a9.24,9.24,0,0,0-2-5.79,9.27,9.27,0,0,0-7.28-3.52,10.38,10.38,0,0,0-1.26.09v6.15H-18c-.1.3-.19.61-.26.92v3.18h-.2a9.3,9.3,0,0,0,5,7.23A9.18,9.18,0,0,0-9.25-3.11,9.35,9.35,0,0,0-5-4.16a8.66,8.66,0,0,0,1.09-.68A9.26,9.26,0,0,0,.06-12.42Z" transform="translate(106.66 485.06)"/><path class="cls-4" d="M142.92,76a25.56,25.56,0,0,0,5.24-11.74,20.62,20.62,0,0,1-5.24,2.08Z" transform="translate(106.66 485.06)"/><path class="cls-4" d="M107.16,44.64c.43.39.85.8,1.24,1.22h.45v.49a21,21,0,0,1,3.67,5.93h5.29a21,21,0,0,1,2.56-18,25.66,25.66,0,0,0-13.28,5.23,5.69,5.69,0,0,1,.65,2.63A5.54,5.54,0,0,1,107.16,44.64Z" transform="translate(106.66 485.06)"/><path class="cls-4" d="M96.4,42.17a5.67,5.67,0,0,1,.63-2.6,21.33,21.33,0,0,0-4-.38,20.88,20.88,0,0,0-15.31,6.67h20A5.65,5.65,0,0,1,96.4,42.17Z" transform="translate(106.66 485.06)"/><path class="cls-4" d="M107.16,44.64a5.8,5.8,0,0,1-.79,1.22h2C108,45.44,107.59,45,107.16,44.64Z" transform="translate(106.66 485.06)"/><path class="cls-4" d="M108.85,52.28h3.67a21,21,0,0,0-3.67-5.93Z" transform="translate(106.66 485.06)"/><path class="cls-4" d="M117.81,52.28h25.11v14a20.62,20.62,0,0,0,5.24-2.08A21,21,0,0,0,131.7,25.89L143.15,47l-9.28,5L122.71,31.43a21,21,0,0,0-4.9,20.85Z" transform="translate(106.66 485.06)"/><path class="cls-4" d="M-14,52.28H1a21,21,0,0,1,9.1-10.36A21,21,0,0,0-4.27,34.29c-.62,0-1.25-.09-1.89-.09a21,21,0,0,0-7.17,1.28,21,21,0,0,0-13.82,19.7A21,21,0,0,0-14,74.66Z" transform="translate(106.66 485.06)"/><path class="cls-4" d="M28.29,42.17a5.65,5.65,0,0,1-1.37,3.69h7a5.71,5.71,0,0,1-1.28-2.73l-.85-.58a22.46,22.46,0,0,0-2.09-1.18c-.54-.26-1.08-.51-1.64-.73A5.55,5.55,0,0,1,28.29,42.17Z" transform="translate(106.66 485.06)"/><path class="cls-4" d="M1,52.28H20.37V47.37a5.66,5.66,0,0,1-2.69-8A20.92,20.92,0,0,0,1,52.28Z" transform="translate(106.66 485.06)"/><polygon class="cls-4" points="240.53 537.1 249.8 532.08 238.36 510.95 223.63 483.75 214.36 488.77 229.37 516.48 240.53 537.1"/><polygon class="cls-6" points="183.68 154.98 183.68 145.12 157.08 145.12 157.08 154.07 157.08 154.98 183.68 154.98"/><polygon class="cls-6" points="189.37 154.98 204.96 154.98 204.96 208.64 191.59 208.64 191.59 208.65 183.71 208.65 183.71 218.47 215.43 218.47 215.43 145.12 189.37 145.12 189.37 154.06 189.37 154.98"/><polygon class="cls-6" points="148.69 208.65 148.69 208.64 135.67 208.64 135.67 154.98 151.38 154.98 151.38 145.12 149.78 145.12 121.2 145.12 121.2 218.47 156.55 218.47 156.55 208.65 148.69 208.65"/><polygon class="cls-7" points="135.67 208.64 148.69 208.64 148.69 197.6 136.15 197.6 136.15 187.46 191.59 187.46 191.59 197.28 191.59 197.28 191.59 208.64 204.96 208.64 204.96 154.98 189.37 154.98 189.37 166.92 194.19 166.92 194.19 185.13 175.98 185.13 175.98 166.92 183.68 166.92 183.68 154.98 157.08 154.98 157.08 166.92 161.89 166.92 161.89 185.13 143.68 185.13 143.68 166.92 151.38 166.92 151.38 154.98 135.67 154.98 135.67 208.64"/><polygon class="cls-8" points="175.98 166.92 175.98 185.13 194.19 185.13 194.19 166.92 189.37 166.92 189.37 177.82 183.68 177.82 183.68 166.92 175.98 166.92"/><polygon class="cls-8" points="143.68 185.13 161.89 185.13 161.89 166.92 157.08 166.92 157.08 177.82 151.38 177.82 151.38 166.92 143.68 166.92 143.68 185.13"/><polygon class="cls-4" points="183.71 208.65 156.55 208.65 156.55 218.47 156.55 224.2 183.71 224.2 183.71 218.47 183.71 208.65"/><polygon class="cls-6" points="191.59 197.28 191.59 197.6 148.69 197.6 148.69 208.64 148.69 208.65 156.55 208.65 183.71 208.65 191.59 208.65 191.59 208.64 191.59 197.28 191.59 197.28"/><polygon class="cls-7" points="191.59 197.6 191.59 197.28 191.59 187.46 136.15 187.46 136.15 197.6 148.69 197.6 191.59 197.6"/><path class="cls-4" d="M97.77,45.86h8.6a5.8,5.8,0,0,0,.79-1.22,5.54,5.54,0,0,0,.58-2.47,5.67,5.67,0,1,0-10,3.69Z" transform="translate(106.66 485.06)"/><path class="cls-4" d="M75.92,42.17a5.67,5.67,0,1,0-10,3.69h8.6A5.65,5.65,0,0,0,75.92,42.17Z" transform="translate(106.66 485.06)"/><path class="cls-4" d="M59.91,42.17a5.67,5.67,0,1,0-10,3.69h8.6A5.65,5.65,0,0,0,59.91,42.17Z" transform="translate(106.66 485.06)"/><path class="cls-4" d="M33.93,45.86h8.6a5.67,5.67,0,1,0-10-3.69,6,6,0,0,0,.09,1A5.71,5.71,0,0,0,33.93,45.86Z" transform="translate(106.66 485.06)"/><path class="cls-4" d="M20.37,47.37V45.86h6.55a5.65,5.65,0,0,0,1.37-3.69,5.55,5.55,0,0,0-.22-1.53,5.67,5.67,0,1,0-7.7,6.73Z" transform="translate(106.66 485.06)"/><polygon class="cls-6" points="222.58 610.68 249.58 610.68 249.58 561.02 249.58 551.36 249.58 537.33 224.47 537.33 219.18 537.33 215.5 537.33 215.5 547.16 225.91 547.16 239.27 547.16 239.27 600.82 103.18 600.82 103.18 547.16 116.54 547.16 127.02 547.16 127.02 537.33 107.65 537.33 92.69 537.33 92.69 559.71 92.69 610.68 113.96 610.68 222.58 610.68"/><path class="cls-7" d="M119.28,73.14V83.29H9.89V73.14h0v-11H-3.48v53.66H132.61V62.1H119.26v11ZM39.58,85.61H57.79v18.21H39.58Zm32.32,0H90.11v18.21H71.9Zm50.31,0v18.21H104V85.61Zm-96.72,0v18.21H7.28V85.61Z" transform="translate(106.66 485.06)"/><rect class="cls-8" x="113.94" y="570.66" width="18.21" height="18.21"/><rect class="cls-8" x="146.23" y="570.66" width="18.21" height="18.21"/><rect class="cls-8" x="178.55" y="570.66" width="18.21" height="18.21"/><rect class="cls-8" x="210.66" y="570.66" width="18.21" height="18.21"/><polygon class="cls-4" points="140.59 530.91 133.57 530.91 127.02 530.91 127.02 532.43 127.02 537.33 127.02 547.16 215.5 547.16 215.5 537.33 215.5 531.4 215.5 530.91 215.06 530.91 213.02 530.91 204.43 530.91 184.42 530.91 181.2 530.91 172.61 530.91 165.19 530.91 156.59 530.91 149.19 530.91 140.59 530.91"/><polygon class="cls-6" points="127.02 547.16 116.54 547.16 116.54 558.2 225.91 558.2 225.91 547.16 215.5 547.16 127.02 547.16"/><polygon class="cls-7" points="116.54 568.35 225.93 568.35 225.93 558.2 225.91 558.2 116.54 558.2 116.54 558.2 116.54 568.35"/><rect class="cls-5" x="66.72" y="423.53" width="21.63" height="4.95"/><polygon class="cls-5" points="88.35 470.49 88.35 469.57 66.72 469.57 66.72 473.67 70.19 473.67 88.15 473.67 88.35 473.67 88.35 470.49"/><polygon class="cls-9" points="66.72 469.57 88.35 469.57 88.62 469.57 96.14 469.57 96.14 463.42 96.14 428.48 88.35 428.48 66.72 428.48 56.87 428.48 56.87 453.61 56.87 469.57 66.72 469.57"/><rect class="cls-5" x="80.01" y="310.75" width="9.56" height="12.22"/><rect class="cls-5" x="80.01" y="280.34" width="9.9" height="12.22"/><rect class="cls-5" x="43.6" y="296.33" width="8.15" height="12.22"/><rect class="cls-5" x="44.12" y="311.72" width="7.63" height="12.22"/><rect class="cls-5" x="43.6" y="280.84" width="8.15" height="12.22"/><polygon class="cls-10" points="51.74 311.72 51.74 323.95 51.74 324.56 80.01 324.56 80.01 322.97 80.01 310.75 80.01 307.8 80.01 295.58 80.01 292.56 80.01 280.34 80.01 278.7 51.74 278.7 51.74 280.84 51.74 293.07 51.74 296.33 51.74 308.55 51.74 311.72"/><polygon class="cls-5" points="118.93 460.39 118.93 472.78 131.15 472.78 131.15 464.12 131.15 460.39 118.93 460.39"/><rect class="cls-5" x="146.34" y="460.39" width="12.22" height="12.72"/><rect class="cls-5" x="132.6" y="426.8" width="12.22" height="13.75"/><polygon class="cls-10" points="132.6 440.55 115.71 440.55 115.71 459.19 115.71 460.39 118.93 460.39 131.15 460.39 146.34 460.39 158.56 460.39 161.7 460.39 161.7 440.55 144.82 440.55 132.6 440.55"/><polygon class="cls-5" points="76.74 179.5 55.11 179.5 55.11 152.86 76.74 152.86 76.74 141.1 55.11 141.1 55.11 191.24 76.74 191.24 76.74 179.5"/><polygon class="cls-11" points="55.11 179.5 76.74 179.5 76.74 179.5 76.74 152.86 76.74 152.86 55.11 152.86 55.11 179.5"/><rect class="cls-5" x="289.78" y="357.43" width="8.55" height="31.97"/><rect class="cls-5" x="152.88" y="357.43" width="8.91" height="31.97"/><polygon class="cls-9" points="289.78 389.4 289.78 357.43 289.78 344.37 161.8 344.37 161.8 357.43 161.8 389.4 161.8 402.41 289.78 402.41 289.78 389.4"/><rect class="cls-8" x="135.19" y="224.21" width="5.01" height="9.41"/><rect class="cls-8" x="135.19" y="283.84" width="5.01" height="7.01"/><rect class="cls-8" x="103.15" y="283.84" width="5.01" height="7.05"/><rect class="cls-8" x="103.15" y="224.2" width="5.01" height="9.41"/><rect class="cls-8" x="119.79" y="283.84" width="5.01" height="7.05"/><rect class="cls-8" x="119.79" y="224.2" width="5.01" height="9.41"/><path class="cls-12" d="M-7-201.22H36.1a3.58,3.58,0,0,0,3.58-3.56v-43.1a3.58,3.58,0,0,0-3.58-3.56H-7a3.58,3.58,0,0,0-3.58,3.56v43.1A3.58,3.58,0,0,0-7-201.22Z" transform="translate(106.66 485.06)"/><rect class="cls-5" x="218.3" y="462.81" width="12.22" height="12.38"/><rect class="cls-5" x="245.71" y="462.81" width="12.22" height="12.72"/><rect class="cls-5" x="231.97" y="429.22" width="12.22" height="13.75"/><polygon class="cls-10" points="231.97 442.97 215.08 442.97 215.08 462.81 218.3 462.81 230.53 462.81 245.71 462.81 257.94 462.81 261.08 462.81 261.08 442.97 244.19 442.97 231.97 442.97"/><polygon class="cls-5" points="179.8 434.39 201.43 434.39 201.43 422.64 179.8 422.64 179.8 472.77 201.43 472.77 201.43 461.03 179.8 461.03 179.8 434.39"/><polygon class="cls-11" points="179.8 434.39 179.8 461.03 201.43 461.03 201.43 461.03 201.43 434.39 201.43 434.39 179.8 434.39"/><polygon class="cls-5" points="298.37 462.35 276.75 462.35 276.75 435.7 298.37 435.7 298.37 423.95 276.74 423.95 276.74 474.09 298.37 474.09 298.37 462.35"/><polygon class="cls-11" points="276.75 462.35 298.37 462.35 298.38 462.35 298.38 435.7 298.37 435.7 276.75 435.7 276.75 462.35"/><path class="cls-10" d="M163.22-224.23H98.08a4.88,4.88,0,0,0-4.87,4.87v65.14a4.88,4.88,0,0,0,4.87,4.87h65.14a4.87,4.87,0,0,0,4.86-4.87v-65.14A4.87,4.87,0,0,0,163.22-224.23Zm-9.94,51.6a26.37,26.37,0,0,1-1.6,2.17c-.57.7-1.18,1.36-1.81,2s-1.31,1.24-2,1.81-1.42,1.11-2.17,1.61-1.52,1-2.31,1.39-1.61.81-2.44,1.15a26.54,26.54,0,0,1-2.54.91c-.87.26-1.74.48-2.62.66s-1.77.3-2.67.39a26.91,26.91,0,0,1-2.69.13,27,27,0,0,1-2.7-.13q-1.35-.14-2.67-.39c-.88-.18-1.75-.4-2.62-.66a26.54,26.54,0,0,1-2.54-.91c-.83-.34-1.64-.73-2.43-1.15s-1.57-.89-2.32-1.39-1.47-1-2.17-1.61-1.36-1.17-2-1.81-1.24-1.3-1.81-2a26.37,26.37,0,0,1-1.6-2.17,25.7,25.7,0,0,1-1.39-2.31,24.65,24.65,0,0,1-1.15-2.44,25.6,25.6,0,0,1-.91-2.54,25.74,25.74,0,0,1-.66-2.62,26.67,26.67,0,0,1-.4-2.66c-.08-.9-.13-1.8-.13-2.7s0-1.8.13-2.69a26.43,26.43,0,0,1,.4-2.67,25.74,25.74,0,0,1,.66-2.62,25.6,25.6,0,0,1,.91-2.54,24.65,24.65,0,0,1,1.15-2.44c.42-.79.89-1.56,1.39-2.31s1-1.47,1.6-2.17,1.18-1.36,1.81-2,1.31-1.24,2-1.81,1.42-1.11,2.17-1.61,1.52-1,2.32-1.39,1.6-.8,2.43-1.15,1.68-.65,2.54-.91,1.74-.48,2.62-.65a26.43,26.43,0,0,1,2.67-.4,27,27,0,0,1,2.7-.13,26.91,26.91,0,0,1,2.69.13,26.43,26.43,0,0,1,2.67.4c.88.17,1.75.39,2.62.65s1.7.57,2.54.91,1.64.73,2.44,1.15,1.56.89,2.31,1.39,1.47,1,2.17,1.61,1.36,1.17,2,1.81,1.24,1.3,1.81,2,1.1,1.42,1.6,2.17a24.81,24.81,0,0,1,1.39,2.31c.43.79.81,1.61,1.16,2.44s.64,1.68.9,2.54a25.74,25.74,0,0,1,.66,2.62,26.43,26.43,0,0,1,.4,2.67c.08.89.13,1.79.13,2.69s0,1.8-.13,2.7a26.67,26.67,0,0,1-.4,2.66,25.74,25.74,0,0,1-.66,2.62c-.26.86-.56,1.71-.9,2.54s-.73,1.65-1.16,2.44A23.57,23.57,0,0,1,153.28-172.63Z" transform="translate(106.66 485.06)"/><path class="cls-13" d="M155.83-177.38c.34-.83.64-1.68.9-2.54a25.74,25.74,0,0,0,.66-2.62,26.67,26.67,0,0,0,.4-2.66c.08-.9.13-1.8.13-2.7s0-1.8-.13-2.69a26.43,26.43,0,0,0-.4-2.67,25.74,25.74,0,0,0-.66-2.62c-.26-.86-.56-1.71-.9-2.54s-.73-1.65-1.16-2.44a24.81,24.81,0,0,0-1.39-2.31c-.5-.75-1-1.47-1.6-2.17s-1.18-1.36-1.81-2-1.31-1.24-2-1.81-1.42-1.11-2.17-1.61-1.52-1-2.31-1.39-1.61-.8-2.44-1.15-1.68-.65-2.54-.91-1.74-.48-2.62-.65a26.43,26.43,0,0,0-2.67-.4,26.91,26.91,0,0,0-2.69-.13,27,27,0,0,0-2.7.13,26.43,26.43,0,0,0-2.67.4c-.88.17-1.75.39-2.62.65s-1.7.57-2.54.91-1.64.73-2.43,1.15-1.57.89-2.32,1.39-1.47,1-2.17,1.61-1.36,1.17-2,1.81-1.24,1.3-1.81,2-1.1,1.42-1.6,2.17-1,1.52-1.39,2.31a24.65,24.65,0,0,0-1.15,2.44,25.6,25.6,0,0,0-.91,2.54,25.74,25.74,0,0,0-.66,2.62,26.43,26.43,0,0,0-.4,2.67c-.08.89-.13,1.79-.13,2.69s0,1.8.13,2.7a26.67,26.67,0,0,0,.4,2.66,25.74,25.74,0,0,0,.66,2.62,25.6,25.6,0,0,0,.91,2.54,24.65,24.65,0,0,0,1.15,2.44,25.7,25.7,0,0,0,1.39,2.31,26.37,26.37,0,0,0,1.6,2.17c.57.7,1.18,1.36,1.81,2s1.31,1.24,2,1.81,1.42,1.11,2.17,1.61,1.52,1,2.32,1.39,1.6.81,2.43,1.15a26.54,26.54,0,0,0,2.54.91c.87.26,1.74.48,2.62.66s1.77.3,2.67.39a27,27,0,0,0,2.7.13,26.91,26.91,0,0,0,2.69-.13q1.35-.14,2.67-.39c.88-.18,1.75-.4,2.62-.66a26.54,26.54,0,0,0,2.54-.91c.83-.34,1.64-.73,2.44-1.15s1.56-.89,2.31-1.39,1.47-1,2.17-1.61,1.36-1.17,2-1.81,1.24-1.3,1.81-2a26.37,26.37,0,0,0,1.6-2.17,23.57,23.57,0,0,0,1.39-2.31C155.1-175.73,155.48-176.55,155.83-177.38Z" transform="translate(106.66 485.06)"/><path class="cls-10" d="M-63.88-74.09H1.25a4.87,4.87,0,0,0,4.87-4.86v-65.14A4.88,4.88,0,0,0,1.25-149H-63.88a4.88,4.88,0,0,0-4.87,4.87v65.14A4.87,4.87,0,0,0-63.88-74.09Zm5-41.24a26.67,26.67,0,0,1,.4-2.66,25.7,25.7,0,0,1,.65-2.62c.27-.86.57-1.71.91-2.54s.73-1.65,1.16-2.44a25.77,25.77,0,0,1,1.38-2.32c.5-.74,1-1.47,1.61-2.16s1.18-1.36,1.81-2,1.31-1.24,2-1.81,1.42-1.11,2.17-1.61,1.52-1,2.31-1.39,1.61-.81,2.44-1.15a25.6,25.6,0,0,1,2.54-.91c.86-.26,1.74-.48,2.62-.66s1.77-.3,2.67-.39a26.77,26.77,0,0,1,2.69-.13c.9,0,1.8,0,2.7.13s1.78.22,2.67.39,1.75.4,2.61.66A24.72,24.72,0,0,1-21-138a25.91,25.91,0,0,1,2.44,1.15c.8.43,1.57.89,2.32,1.39a26.32,26.32,0,0,1,2.16,1.61,24.55,24.55,0,0,1,2,1.81c.64.64,1.24,1.3,1.82,2s1.1,1.42,1.6,2.16,1,1.52,1.39,2.32.81,1.61,1.15,2.44a25.6,25.6,0,0,1,.91,2.54c.26.86.48,1.73.66,2.62a26.64,26.64,0,0,1,.39,2.66c.09.9.14,1.8.14,2.7a26.77,26.77,0,0,1-.14,2.69,26.41,26.41,0,0,1-.39,2.67c-.18.89-.4,1.76-.66,2.62a25.6,25.6,0,0,1-.91,2.54c-.34.83-.73,1.64-1.15,2.44s-.89,1.56-1.39,2.31-1,1.47-1.6,2.17-1.18,1.36-1.82,2a24.55,24.55,0,0,1-2,1.81,26.32,26.32,0,0,1-2.16,1.61c-.75.5-1.52,1-2.32,1.39s-1.6.8-2.44,1.15-1.67.65-2.54.91a26.18,26.18,0,0,1-2.61.65c-.89.18-1.78.31-2.67.4s-1.8.13-2.7.13a26.77,26.77,0,0,1-2.69-.13,26.43,26.43,0,0,1-2.67-.4,26.37,26.37,0,0,1-2.62-.65c-.86-.26-1.71-.57-2.54-.91S-43.7-88-44.5-88.38s-1.56-.89-2.31-1.39-1.47-1-2.17-1.61-1.36-1.17-2-1.81-1.24-1.3-1.81-2-1.11-1.42-1.61-2.17-1-1.52-1.38-2.31-.81-1.61-1.16-2.44-.64-1.68-.91-2.54a25.7,25.7,0,0,1-.65-2.62,26.43,26.43,0,0,1-.4-2.67,26.77,26.77,0,0,1-.13-2.69C-59-113.53-59-114.43-58.9-115.33Z" transform="translate(106.66 485.06)"/><path class="cls-13" d="M-58.5-107.27a25.7,25.7,0,0,0,.65,2.62c.27.86.57,1.71.91,2.54s.73,1.64,1.16,2.44.88,1.56,1.38,2.31,1,1.47,1.61,2.17,1.18,1.36,1.81,2,1.31,1.24,2,1.81,1.42,1.11,2.17,1.61,1.52,1,2.31,1.39,1.61.8,2.44,1.15,1.68.65,2.54.91a26.37,26.37,0,0,0,2.62.65,26.43,26.43,0,0,0,2.67.4,26.77,26.77,0,0,0,2.69.13c.9,0,1.8,0,2.7-.13s1.78-.22,2.67-.4a26.18,26.18,0,0,0,2.61-.65c.87-.26,1.71-.57,2.54-.91s1.65-.73,2.44-1.15,1.57-.89,2.32-1.39a26.32,26.32,0,0,0,2.16-1.61,24.55,24.55,0,0,0,2-1.81c.64-.64,1.24-1.3,1.82-2s1.1-1.42,1.6-2.17,1-1.52,1.39-2.31.81-1.61,1.15-2.44a25.6,25.6,0,0,0,.91-2.54c.26-.86.48-1.73.66-2.62a26.41,26.41,0,0,0,.39-2.67A26.77,26.77,0,0,0-4-112.63c0-.9,0-1.8-.14-2.7A26.64,26.64,0,0,0-4.57-118c-.18-.89-.4-1.76-.66-2.62a25.6,25.6,0,0,0-.91-2.54c-.34-.83-.73-1.65-1.15-2.44s-.89-1.57-1.39-2.32-1-1.47-1.6-2.16-1.18-1.36-1.82-2a24.55,24.55,0,0,0-2-1.81,26.32,26.32,0,0,0-2.16-1.61c-.75-.5-1.52-1-2.32-1.39A25.91,25.91,0,0,0-21-138a24.72,24.72,0,0,0-2.54-.91q-1.29-.39-2.61-.66t-2.67-.39c-.9-.09-1.8-.13-2.7-.13a26.77,26.77,0,0,0-2.69.13q-1.35.13-2.67.39c-.88.18-1.76.4-2.62.66a25.6,25.6,0,0,0-2.54.91c-.83.34-1.64.73-2.44,1.15s-1.56.89-2.31,1.39-1.47,1-2.17,1.61-1.36,1.17-2,1.81-1.24,1.3-1.81,2-1.11,1.42-1.61,2.16a25.77,25.77,0,0,0-1.38,2.32c-.43.79-.81,1.61-1.16,2.44s-.64,1.68-.91,2.54A25.7,25.7,0,0,0-58.5-118a26.67,26.67,0,0,0-.4,2.66c-.09.9-.13,1.8-.13,2.7a26.77,26.77,0,0,0,.13,2.69A26.43,26.43,0,0,0-58.5-107.27Z" transform="translate(106.66 485.06)"/><rect class="cls-5" x="199.65" y="229.37" width="11.75" height="21.63"/><rect class="cls-5" x="238.04" y="229.37" width="11.74" height="21.63"/><rect class="cls-11" x="211.4" y="229.37" width="26.64" height="21.63"/><rect class="cls-5" x="122.65" y="306" width="11.75" height="21.63"/><rect class="cls-5" x="161.05" y="306" width="11.74" height="21.63"/><rect class="cls-11" x="134.4" y="306" width="26.64" height="21.63"/><path class="cls-14" d="M153.66-330.87c.09-.48.38-.61.75-.31a2.86,2.86,0,0,1,.66.84,14.9,14.9,0,0,0,3.05,4.33,3.09,3.09,0,0,0,3.1.76,1.36,1.36,0,0,0,.75-2.29,32.15,32.15,0,0,1-3.64-6.3,15,15,0,0,0-3-4.56,29.13,29.13,0,0,0-2.73-2.35,5.09,5.09,0,0,1-2.16-5.14,17.1,17.1,0,0,0,0-2.15H136.81c0,.61.06,1.17.08,1.73a11.16,11.16,0,0,1-.38,4.78l17.26,17.26c-.07-1.91-.13-3.81-.19-5.72A4.37,4.37,0,0,1,153.66-330.87Z" transform="translate(106.66 485.06)"/><path class="cls-14" d="M135-328a14.36,14.36,0,0,1,.1,2.85,44.75,44.75,0,0,0-.29,9.18,3.07,3.07,0,0,0,.77,1.67,1.15,1.15,0,0,0,2-.61,23.59,23.59,0,0,0,.25-2.39c.2-2.34.41-4.68.61-7,0-.38.15-.67.59-.66s.62.32.62.73-.05.93-.07,1.39c-.08,2.43-.17,4.87-.25,7.3,0,1.17-.07,2.34,0,3.5a2,2,0,0,0,1.89,1.95c.91,0,1.5-.55,1.59-1.72.15-1.92.25-3.85.35-5.77s.17-3.68.3-5.52c0-.24.33-.45.51-.67a7.31,7.31,0,0,1,.64.6c.07.07,0,.24,0,.37,0,3.73.07,7.46.12,11.19,0,.85,0,1.7.12,2.54a1.58,1.58,0,0,0,1.72,1.55,1.77,1.77,0,0,0,1.76-1.58c0-.42.07-.85.07-1.27l.06-10.91-13.6-13.61A37.16,37.16,0,0,0,135-328Z" transform="translate(106.66 485.06)"/><path class="cls-14" d="M150.81-311.52a1.54,1.54,0,0,0,2.63.87,2.16,2.16,0,0,0,.75-1.81c0-1.1-.09-2.2-.13-3.3l-3.92-3.91.33,5.07A28.72,28.72,0,0,0,150.81-311.52Z" transform="translate(106.66 485.06)"/><path class="cls-5" d="M145.14-299.72a29.05,29.05,0,0,0,29.06-29.06,29.05,29.05,0,0,0-29.06-29.07,29.05,29.05,0,0,0-29.06,29.07A29.05,29.05,0,0,0,145.14-299.72Zm0-52.31a23.24,23.24,0,0,1,23.25,23.25,23.19,23.19,0,0,1-4.9,14.24l-9.72-9.73-17.26-17.26-5.61-5.61A23.16,23.16,0,0,1,145.14-352Zm-18.35,9,8.12,8.11,13.6,13.61,1.63,1.63,3.92,3.91,5.32,5.33a23.17,23.17,0,0,1-14.24,4.9,23.24,23.24,0,0,1-23.25-23.25A23.15,23.15,0,0,1,126.79-343Z" transform="translate(106.66 485.06)"/><polygon points="151.38 135.1 151.38 145.12 151.38 154.98 151.38 166.92 151.38 177.82 157.08 177.82 157.08 166.92 157.08 154.98 157.08 154.07 157.08 145.12 157.08 140.64 157.08 106.28 157.08 97.26 157.08 48.53 151.55 48.53 151.38 48.53 151.38 100.52 151.38 111.82 151.38 135.1"/><polygon class="cls-3" points="189.37 104.34 189.37 52.37 183.68 52.37 183.68 99.52 183.68 109.96 183.68 136.96 183.68 145.12 183.68 154.98 183.68 166.92 183.68 177.82 189.37 177.82 189.37 166.92 189.37 154.98 189.37 154.06 189.37 145.12 189.37 142.58 189.37 104.34"/><path class="cls-7" d="M802.34-100.28c-.13-2.6-.32-5.2-.57-7.78s-.58-5.17-1-7.75-.82-5.13-1.33-7.69-1.08-5.08-1.71-7.61-1.33-5-2.08-7.52-1.57-5-2.45-7.41-1.81-4.87-2.81-7.28-2-4.78-3.16-7.13-2.28-4.67-3.51-7-2.5-4.56-3.84-6.79-2.73-4.43-4.18-6.59-2.94-4.29-4.49-6.38-3.15-4.14-4.8-6.15-3.35-4-5.1-5.91-3.54-3.81-5.38-5.65-3.72-3.63-5.65-5.38-3.89-3.44-5.9-5.09-4.07-3.25-6.15-4.8-4.22-3.05-6.38-4.5-4.36-2.83-6.6-4.17-4.49-2.62-6.78-3.85-4.62-2.39-7-3.5-4.73-2.17-7.14-3.17-4.83-1.93-7.28-2.8-4.91-1.7-7.4-2.45-5-1.45-7.52-2.08-5.07-1.2-7.62-1.71-5.11-1-7.68-1.34-5.16-.7-7.75-1c-2.16-.21-4.33-.37-6.5-.5l-1.28-.07c-1.63-.09-3.26-.13-4.89-.16-1,0-1.94,0-2.91,0q-3.9,0-7.8.2t-7.78.57c-2.06.2-4.11.46-6.15.74l-1.59.21c-1.54.23-3.06.49-4.59.76-1,.19-2.07.37-3.1.58q-3.82.76-7.61,1.71c-2.53.63-5,1.32-7.52,2.08s-5,1.57-7.41,2.45-4.88,1.81-7.28,2.8-4.78,2-7.13,3.17-4.68,2.28-7,3.5-4.56,2.51-6.79,3.85-4.43,2.73-6.59,4.17-4.29,2.95-6.38,4.5-4.14,3.15-6.15,4.8-4,3.35-5.91,5.09l-2.08,1.93c-1.21,1.14-2.4,2.28-3.57,3.45-1.84,1.84-3.64,3.73-5.38,5.65s-3.45,3.9-5.1,5.91-3.25,4.06-4.8,6.15-3,4.22-4.49,6.38-2.84,4.36-4.18,6.59-2.62,4.5-3.84,6.79-2.4,4.62-3.51,7-2.17,4.73-3.16,7.13-1.93,4.83-2.81,7.28-1.69,4.92-2.45,7.41-1.45,5-2.08,7.52-1.2,5.06-1.71,7.61-1,5.12-1.33,7.69-.7,5.16-1,7.75-.44,5.18-.57,7.78-.19,5.19-.19,7.8.06,5.2.19,7.8.32,5.19.57,7.78.58,5.17,1,7.74.83,5.14,1.33,7.69,1.08,5.09,1.71,7.61,1.33,5,2.08,7.52,1.57,5,2.45,7.41,1.81,4.88,2.81,7.28,2.05,4.78,3.16,7.13,2.28,4.68,3.51,7,2.51,4.56,3.84,6.79S510-6.33,511.4-4.17s2.94,4.29,4.49,6.38,3.15,4.14,4.8,6.15,3.35,4,5.1,5.91,3.54,3.81,5.38,5.65,3.72,3.63,5.65,5.38,3.9,3.45,5.91,5.1,4.06,3.25,6.15,4.8,4.21,3,6.38,4.49c1.55,1,3.13,2,4.72,3,.62.39,1.24.78,1.87,1.15q3.35,2,6.79,3.85c2.29,1.23,4.61,2.39,7,3.51s4.73,2.16,7.13,3.16,4.83,1.93,7.28,2.81,4.92,1.69,7.41,2.44,5,1.45,7.52,2.09,5.06,1.2,7.61,1.7,5.11,1,7.69,1.34,5.15.7,7.74.95,5.18.45,7.78.58,5.2.19,7.8.19,5.2-.06,7.8-.19,5.19-.32,7.78-.58,5.17-.57,7.75-.95,5.13-.83,7.68-1.34,5.09-1.07,7.62-1.7,5-1.33,7.52-2.09,4.95-1.57,7.4-2.44,4.88-1.82,7.28-2.81,4.78-2.05,7.14-3.16,4.67-2.28,7-3.51,4.55-2.51,6.78-3.85,4.43-2.73,6.6-4.17,4.29-2.94,6.38-4.49,4.13-3.15,6.15-4.8,4-3.35,5.9-5.1,3.82-3.54,5.65-5.38,3.64-3.72,5.38-5.65,3.45-3.9,5.1-5.91,3.25-4.06,4.8-6.15,3-4.22,4.49-6.38,2.84-4.36,4.18-6.59,2.62-4.49,3.84-6.79,2.4-4.62,3.51-7,2.17-4.73,3.16-7.13,1.93-4.83,2.81-7.28,1.69-4.92,2.45-7.41,1.45-5,2.08-7.52,1.2-5.06,1.71-7.61.95-5.12,1.33-7.69.7-5.15,1-7.74.44-5.19.57-7.78.19-5.2.19-7.8S802.47-97.69,802.34-100.28ZM777.42-86.91q-.17,3.28-.49,6.55c-.21,2.19-.48,4.36-.8,6.53s-.7,4.33-1.13,6.48-.9,4.29-1.44,6.42-1.12,4.24-1.75,6.34-1.33,4.18-2.07,6.25-1.52,4.11-2.36,6.13-1.73,4-2.67,6-1.92,3.94-3,5.87-2.12,3.84-3.25,5.72S756.21-20.86,755-19s-2.48,3.62-3.78,5.38-2.66,3.49-4.05,5.18-2.82,3.36-4.3,5-3,3.22-4.53,4.77-3.14,3.06-4.76,4.53-3.29,2.91-5,4.3-3.42,2.74-5.18,4.05-3.55,2.56-5.38,3.78-3.67,2.39-5.56,3.52-3.78,2.21-5.72,3.24-3.89,2-5.87,3-4,1.83-6,2.67-4.07,1.62-6.13,2.36-4.15,1.43-6.25,2.07-4.21,1.22-6.34,1.75-4.26,1-6.42,1.44-4.31.8-6.48,1.13-4.34.59-6.52.8-4.37.38-6.56.49-4.39.16-6.58.16-4.38-.06-6.57-.16-4.38-.27-6.56-.49-4.36-.48-6.53-.8-4.33-.7-6.48-1.13S613.14,37,611,36.5s-4.24-1.12-6.34-1.75-4.18-1.33-6.24-2.07-4.12-1.52-6.14-2.36-4-1.73-6-2.67-3.95-1.92-5.88-3-3.84-2.11-5.72-3.24-3.74-2.3-5.56-3.52-3.62-2.48-5.38-3.78-3.49-2.66-5.18-4.05-3.36-2.82-5-4.3-3.22-3-4.77-4.53-3.06-3.14-4.53-4.77-2.91-3.28-4.3-5-2.74-3.42-4-5.18-2.57-3.56-3.79-5.38-2.39-3.68-3.52-5.56-2.21-3.79-3.24-5.72-2-3.89-3-5.87-1.83-4-2.67-6-1.62-4.07-2.36-6.13-1.43-4.15-2.07-6.25-1.22-4.21-1.75-6.34-1-4.27-1.44-6.42-.8-4.31-1.13-6.48-.59-4.34-.8-6.53-.38-4.36-.49-6.55-.16-4.39-.16-6.58.06-4.39.16-6.58.27-4.37.49-6.56.48-4.35.8-6.52.7-4.33,1.13-6.48.91-4.29,1.44-6.42,1.12-4.24,1.75-6.34,1.33-4.18,2.07-6.25,1.52-4.11,2.36-6.13,1.73-4,2.67-6,1.92-3.94,3-5.87,2.11-3.84,3.24-5.72,2.3-3.74,3.52-5.56,2.48-3.62,3.79-5.38,2.65-3.49,4-5.18,2.83-3.36,4.3-5,3-3.22,4.53-4.77,3.14-3.06,4.77-4.53,3.28-2.91,5-4.3,3.42-2.74,5.18-4,3.56-2.56,5.38-3.78,3.68-2.39,5.56-3.52,3.79-2.21,5.72-3.24,3.89-2,5.88-3,4-1.83,6-2.67,4.07-1.63,6.14-2.36,4.14-1.43,6.24-2.07,4.21-1.22,6.34-1.75,4.27-1,6.42-1.44,4.31-.81,6.48-1.13,4.34-.59,6.53-.8,4.37-.38,6.56-.49,4.38-.16,6.57-.16,4.39.06,6.58.16,4.37.27,6.56.49,4.35.48,6.52.8,4.33.7,6.48,1.13,4.29.91,6.42,1.44,4.24,1.12,6.34,1.75,4.18,1.33,6.25,2.07,4.11,1.52,6.13,2.36,4,1.73,6,2.67,3.94,1.92,5.87,3,3.84,2.11,5.72,3.24,3.74,2.3,5.56,3.52,3.62,2.48,5.38,3.78,3.49,2.66,5.18,4,3.36,2.82,5,4.3,3.21,3,4.76,4.53,3.06,3.14,4.53,4.77,2.91,3.28,4.3,5,2.74,3.42,4.05,5.18,2.57,3.56,3.78,5.38,2.4,3.68,3.52,5.56,2.21,3.78,3.25,5.72,2,3.89,3,5.87,1.83,4,2.67,6,1.63,4.07,2.36,6.13,1.43,4.15,2.07,6.25,1.22,4.21,1.75,6.34,1,4.27,1.44,6.42.81,4.31,1.13,6.48.59,4.34.8,6.52.38,4.37.49,6.56.16,4.39.16,6.58S777.52-89.11,777.42-86.91Z" transform="translate(106.66 485.06)"/><path class="cls-15" d="M776.93-106.63q-.31-3.27-.8-6.52T775-119.63q-.63-3.23-1.44-6.42c-.53-2.13-1.12-4.24-1.75-6.34s-1.33-4.18-2.07-6.25-1.52-4.11-2.36-6.13-1.73-4-2.67-6-1.92-3.94-3-5.87-2.12-3.84-3.25-5.72-2.3-3.74-3.52-5.56-2.48-3.62-3.78-5.38-2.66-3.49-4.05-5.18-2.82-3.36-4.3-5-3-3.22-4.53-4.77-3.14-3.06-4.76-4.53-3.29-2.91-5-4.3-3.42-2.74-5.18-4-3.55-2.56-5.38-3.78-3.67-2.39-5.56-3.52-3.78-2.21-5.72-3.24-3.89-2-5.87-3-4-1.83-6-2.67-4.07-1.63-6.13-2.36-4.15-1.43-6.25-2.07-4.21-1.22-6.34-1.75-4.26-1-6.42-1.44-4.31-.81-6.48-1.13-4.34-.59-6.52-.8-4.37-.38-6.56-.49-4.39-.16-6.58-.16-4.38.06-6.57.16-4.38.27-6.56.49-4.36.48-6.53.8-4.33.7-6.48,1.13-4.29.91-6.42,1.44-4.24,1.12-6.34,1.75-4.18,1.33-6.24,2.07-4.12,1.52-6.14,2.36-4,1.73-6,2.67-3.95,1.92-5.88,3-3.84,2.11-5.72,3.24-3.74,2.3-5.56,3.52-3.62,2.48-5.38,3.78-3.49,2.66-5.18,4-3.36,2.82-5,4.3-3.22,3-4.77,4.53-3.06,3.14-4.53,4.77-2.91,3.28-4.3,5-2.74,3.42-4,5.18-2.57,3.56-3.79,5.38-2.39,3.68-3.52,5.56-2.21,3.78-3.24,5.72-2,3.89-3,5.87-1.83,4-2.67,6-1.62,4.07-2.36,6.13-1.43,4.15-2.07,6.25-1.22,4.21-1.75,6.34-1,4.27-1.44,6.42-.8,4.31-1.13,6.48-.59,4.34-.8,6.52-.38,4.37-.49,6.56-.16,4.39-.16,6.58.06,4.38.16,6.58.27,4.37.49,6.55.48,4.36.8,6.53.7,4.33,1.13,6.48.91,4.29,1.44,6.42,1.12,4.24,1.75,6.34,1.33,4.18,2.07,6.25,1.52,4.11,2.36,6.13,1.73,4,2.67,6,1.92,3.94,3,5.87,2.11,3.84,3.24,5.72,2.3,3.74,3.52,5.56,2.48,3.62,3.79,5.38,2.65,3.49,4,5.18,2.83,3.36,4.3,5,3,3.22,4.53,4.77S552,4.33,553.58,5.8s3.28,2.91,5,4.3,3.42,2.74,5.18,4.05,3.56,2.56,5.38,3.78,3.68,2.39,5.56,3.52,3.79,2.21,5.72,3.24,3.89,2,5.88,3,4,1.83,6,2.67,4.07,1.62,6.14,2.36,4.14,1.43,6.24,2.07S608.88,36,611,36.5s4.27,1,6.42,1.44,4.31.8,6.48,1.13,4.34.59,6.53.8,4.37.38,6.56.49,4.38.16,6.57.16,4.39-.06,6.58-.16,4.37-.27,6.56-.49,4.35-.48,6.52-.8,4.33-.7,6.48-1.13S674,37,676.13,36.5s4.24-1.12,6.34-1.75,4.18-1.33,6.25-2.07,4.11-1.52,6.13-2.36,4-1.73,6-2.67,3.94-1.92,5.87-3,3.84-2.11,5.72-3.24,3.74-2.3,5.56-3.52,3.62-2.48,5.38-3.78,3.49-2.66,5.18-4.05,3.36-2.82,5-4.3,3.21-3,4.76-4.53,3.06-3.14,4.53-4.77,2.91-3.28,4.3-5,2.74-3.42,4.05-5.18S753.78-17.22,755-19s2.4-3.68,3.52-5.56,2.21-3.79,3.25-5.72,2-3.89,3-5.87,1.83-4,2.67-6,1.63-4.07,2.36-6.13,1.43-4.15,2.07-6.25,1.22-4.21,1.75-6.34,1-4.27,1.44-6.42.81-4.31,1.13-6.48.59-4.34.8-6.53.38-4.36.49-6.55.16-4.39.16-6.58-.06-4.39-.16-6.58S777.15-104.44,776.93-106.63Zm-3.84,19.55c-.11,2.12-.26,4.23-.47,6.35s-.47,4.21-.78,6.31-.68,4.19-1.09,6.27-.88,4.15-1.39,6.21-1.08,4.1-1.7,6.13-1.28,4-2,6-1.47,4-2.29,5.94-1.67,3.9-2.57,5.81-1.86,3.82-2.86,5.69-2.05,3.71-3.14,5.53-2.23,3.61-3.4,5.38-2.4,3.5-3.67,5.2-2.57,3.38-3.91,5S741.09-8,739.66-6.39s-2.89,3.11-4.39,4.61-3,3-4.6,4.39-3.18,2.81-4.82,4.15-3.31,2.65-5,3.92-3.43,2.48-5.2,3.66-3.55,2.32-5.37,3.41-3.67,2.13-5.54,3.13-3.77,2-5.68,2.86-3.86,1.77-5.82,2.58-3.94,1.58-5.94,2.29-4,1.38-6,2-4.07,1.18-6.13,1.69-4.13,1-6.21,1.4-4.17.77-6.27,1.09-4.2.57-6.31.77-4.23.37-6.35.47-4.24.16-6.36.16-4.24,0-6.36-.16-4.23-.26-6.34-.47-4.22-.46-6.32-.77-4.19-.68-6.27-1.09-4.15-.88-6.2-1.4S608,31.22,606,30.61s-4-1.28-6-2-4-1.48-5.93-2.29-3.9-1.67-5.82-2.58-3.81-1.86-5.68-2.86-3.72-2-5.54-3.13-3.61-2.23-5.37-3.41-3.5-2.4-5.21-3.66-3.37-2.57-5-3.92S558.13,4,556.56,2.61,553.45-.28,552-1.78s-3-3-4.39-4.61-2.81-3.17-4.15-4.81-2.65-3.32-3.92-5-2.48-3.44-3.66-5.2-2.31-3.56-3.4-5.38-2.14-3.66-3.14-5.53-1.95-3.77-2.86-5.69-1.77-3.85-2.58-5.81-1.57-3.94-2.29-5.94-1.38-4-2-6-1.19-4.08-1.7-6.13-1-4.13-1.39-6.21-.78-4.17-1.09-6.27-.57-4.2-.78-6.31-.37-4.23-.47-6.35-.16-4.24-.16-6.36.06-4.24.16-6.36.26-4.23.47-6.35.47-4.21.78-6.31.67-4.19,1.09-6.27.87-4.15,1.39-6.21,1.08-4.1,1.7-6.13,1.28-4,2-6,1.48-4,2.29-5.94,1.67-3.9,2.58-5.81,1.86-3.82,2.86-5.69,2.05-3.71,3.14-5.53,2.22-3.61,3.4-5.38,2.4-3.5,3.66-5.2,2.57-3.38,3.92-5,2.73-3.24,4.15-4.81,2.89-3.11,4.39-4.61,3-3,4.61-4.39,3.18-2.81,4.82-4.15,3.31-2.66,5-3.92,3.44-2.48,5.21-3.66,3.55-2.32,5.37-3.41,3.67-2.13,5.54-3.13,3.76-2,5.68-2.86,3.86-1.77,5.82-2.58,3.94-1.58,5.93-2.29,4-1.38,6-2,4.08-1.18,6.14-1.69,4.12-1,6.2-1.4,4.17-.77,6.27-1.09,4.21-.57,6.32-.77,4.22-.37,6.34-.47,4.24-.16,6.36-.16,4.24,0,6.36.16,4.24.26,6.35.47,4.22.46,6.31.77,4.19.68,6.27,1.09,4.15.88,6.21,1.4,4.1,1.08,6.13,1.69,4,1.28,6,2,4,1.48,5.94,2.29,3.9,1.67,5.82,2.58,3.81,1.86,5.68,2.86,3.72,2,5.54,3.13,3.61,2.23,5.37,3.41,3.5,2.4,5.2,3.66,3.38,2.57,5,3.92,3.24,2.73,4.82,4.15,3.1,2.89,4.6,4.39,3,3,4.39,4.61,2.81,3.17,4.16,4.81,2.65,3.32,3.91,5,2.49,3.44,3.67,5.2,2.31,3.56,3.4,5.38,2.14,3.66,3.14,5.53,1.95,3.77,2.86,5.69,1.76,3.85,2.57,5.81,1.58,3.94,2.29,5.94,1.38,4,2,6,1.18,4.07,1.7,6.13,1,4.13,1.39,6.21.78,4.17,1.09,6.27.57,4.2.78,6.31.36,4.23.47,6.35.15,4.24.15,6.36S773.19-89.2,773.09-87.08Z" transform="translate(106.66 485.06)"/><path class="cls-16" d="M772.62-106.15q-.32-3.16-.78-6.31c-.31-2.1-.68-4.19-1.09-6.27s-.88-4.15-1.39-6.21-1.08-4.1-1.7-6.13-1.28-4-2-6-1.47-4-2.29-5.94-1.67-3.9-2.57-5.81-1.86-3.82-2.86-5.69-2.05-3.71-3.14-5.53-2.23-3.61-3.4-5.38-2.4-3.5-3.67-5.2-2.57-3.38-3.91-5-2.73-3.24-4.16-4.81-2.89-3.11-4.39-4.61-3-3-4.6-4.39-3.18-2.81-4.82-4.15-3.31-2.66-5-3.92-3.43-2.48-5.2-3.66-3.55-2.32-5.37-3.41-3.67-2.13-5.54-3.13-3.77-2-5.68-2.86-3.86-1.77-5.82-2.58-3.94-1.58-5.94-2.29-4-1.38-6-2-4.07-1.18-6.13-1.69-4.13-1-6.21-1.4-4.17-.77-6.27-1.09-4.2-.57-6.31-.77-4.23-.37-6.35-.47-4.24-.16-6.36-.16-4.24,0-6.36.16-4.23.26-6.34.47-4.22.46-6.32.77-4.19.68-6.27,1.09-4.15.88-6.2,1.4S608-218.1,606-217.49s-4,1.28-6,2S596-214,594-213.2s-3.9,1.67-5.82,2.58-3.81,1.86-5.68,2.86-3.72,2-5.54,3.13-3.61,2.23-5.37,3.41-3.5,2.4-5.21,3.66-3.37,2.57-5,3.92-3.25,2.73-4.82,4.15-3.11,2.89-4.61,4.39-3,3-4.39,4.61-2.81,3.17-4.15,4.81-2.65,3.32-3.92,5-2.48,3.44-3.66,5.2-2.31,3.56-3.4,5.38-2.14,3.66-3.14,5.53-1.95,3.77-2.86,5.69-1.77,3.85-2.58,5.81-1.57,3.94-2.29,5.94-1.38,4-2,6-1.19,4.07-1.7,6.13-1,4.13-1.39,6.21-.78,4.17-1.09,6.27-.57,4.2-.78,6.31-.37,4.23-.47,6.35-.16,4.24-.16,6.36.06,4.24.16,6.36.26,4.23.47,6.35.47,4.21.78,6.31.67,4.19,1.09,6.27.87,4.15,1.39,6.21,1.08,4.1,1.7,6.13,1.28,4,2,6,1.48,4,2.29,5.94,1.67,3.9,2.58,5.81,1.86,3.82,2.86,5.69,2.05,3.71,3.14,5.53,2.22,3.61,3.4,5.38,2.4,3.5,3.66,5.2,2.57,3.38,3.92,5,2.73,3.24,4.15,4.81,2.89,3.11,4.39,4.61,3,3,4.61,4.39,3.18,2.81,4.82,4.15,3.31,2.65,5,3.92,3.44,2.48,5.21,3.66,3.55,2.32,5.37,3.41,3.67,2.13,5.54,3.13,3.76,2,5.68,2.86,3.86,1.77,5.82,2.58,3.94,1.58,5.93,2.29,4,1.38,6,2,4.08,1.18,6.14,1.69,4.12,1,6.2,1.4,4.17.77,6.27,1.09,4.21.57,6.32.77,4.22.37,6.34.47,4.24.16,6.36.16,4.24,0,6.36-.16,4.24-.26,6.35-.47,4.22-.46,6.31-.77,4.19-.68,6.27-1.09,4.15-.88,6.21-1.4,4.1-1.08,6.13-1.69,4-1.28,6-2,4-1.48,5.94-2.29,3.9-1.67,5.82-2.58,3.81-1.86,5.68-2.86,3.72-2,5.54-3.13,3.61-2.23,5.37-3.41,3.5-2.4,5.2-3.66,3.38-2.57,5-3.92,3.24-2.73,4.82-4.15,3.1-2.89,4.6-4.39,3-3,4.39-4.61,2.81-3.17,4.16-4.81,2.65-3.32,3.91-5,2.49-3.44,3.67-5.2,2.31-3.56,3.4-5.38,2.14-3.66,3.14-5.53,1.95-3.77,2.86-5.69,1.76-3.85,2.57-5.81,1.58-3.94,2.29-5.94,1.38-4,2-6,1.18-4.08,1.7-6.13,1-4.13,1.39-6.21.78-4.17,1.09-6.27.57-4.2.78-6.31.36-4.23.47-6.35.15-4.24.15-6.36,0-4.24-.15-6.36S772.83-104,772.62-106.15ZM760-89.34q-.13,2.85-.42,5.7c-.18,1.9-.42,3.79-.7,5.68s-.6,3.76-1,5.63-.79,3.73-1.26,5.58-1,3.69-1.52,5.52-1.15,3.63-1.8,5.43-1.33,3.57-2.06,5.33-1.5,3.51-2.31,5.23-1.68,3.43-2.57,5.11-1.84,3.34-2.82,5-2,3.24-3.06,4.83-2.16,3.14-3.3,4.67-2.31,3-3.51,4.51-2.46,2.92-3.74,4.33-2.6,2.8-3.94,4.14-2.73,2.67-4.15,3.95S719-6.2,717.49-5s-3,2.39-4.51,3.52-3.09,2.24-4.67,3.3-3.2,2.08-4.83,3.06-3.3,1.92-5,2.81-3.38,1.76-5.11,2.58-3.47,1.58-5.23,2.31-3.54,1.42-5.33,2.06-3.61,1.24-5.43,1.8-3.67,1.06-5.52,1.52-3.71.88-5.58,1.25-3.75.7-5.63,1-3.78.52-5.68.7-3.8.33-5.7.42-3.81.14-5.72.14-3.81,0-5.72-.14-3.8-.23-5.7-.42-3.79-.42-5.68-.7-3.76-.6-5.63-1-3.73-.78-5.58-1.25-3.69-1-5.51-1.52-3.64-1.16-5.43-1.8-3.58-1.33-5.34-2.06-3.51-1.5-5.23-2.31-3.43-1.68-5.11-2.58-3.34-1.83-5-2.81-3.25-2-4.84-3.06-3.14-2.16-4.67-3.3-3-2.31-4.51-3.52-2.92-2.45-4.33-3.73-2.8-2.6-4.14-3.95-2.67-2.72-3.95-4.14-2.52-2.85-3.73-4.33-2.39-3-3.52-4.51-2.24-3.09-3.29-4.67-2.08-3.2-3.06-4.83-1.92-3.3-2.82-5-1.76-3.39-2.57-5.11-1.59-3.47-2.32-5.23S534.5-54,533.86-55.8s-1.24-3.61-1.79-5.43-1.07-3.67-1.53-5.52-.88-3.71-1.25-5.58-.7-3.75-1-5.63-.51-3.78-.7-5.68-.33-3.8-.42-5.7-.14-3.81-.14-5.72,0-3.81.14-5.72.23-3.8.42-5.7.42-3.79.7-5.68.6-3.76,1-5.63.79-3.73,1.25-5.58,1-3.69,1.53-5.51,1.15-3.64,1.79-5.44,1.33-3.57,2.06-5.33,1.5-3.51,2.32-5.23,1.67-3.43,2.57-5.11,1.84-3.34,2.82-5,2-3.25,3.06-4.84,2.15-3.14,3.29-4.67,2.31-3,3.52-4.51,2.45-2.92,3.73-4.33,2.6-2.8,3.95-4.14,2.73-2.67,4.14-4,2.86-2.52,4.33-3.73,3-2.39,4.51-3.52,3.09-2.24,4.67-3.3S582-194,583.67-195s3.29-1.92,5-2.81,3.39-1.76,5.11-2.58,3.47-1.58,5.23-2.31,3.54-1.42,5.34-2.06,3.6-1.24,5.43-1.8,3.66-1.06,5.51-1.52,3.71-.88,5.58-1.25,3.75-.7,5.63-1,3.78-.52,5.68-.7,3.8-.33,5.7-.42,3.81-.14,5.72-.14,3.81,0,5.72.14,3.8.23,5.7.42,3.79.42,5.68.7,3.76.6,5.63,1,3.73.79,5.58,1.25,3.69,1,5.52,1.52,3.63,1.16,5.43,1.8,3.57,1.33,5.33,2.06,3.51,1.5,5.23,2.31,3.43,1.68,5.11,2.58,3.34,1.83,5,2.81,3.24,2,4.83,3.06,3.14,2.16,4.67,3.3,3,2.31,4.51,3.52,2.92,2.45,4.33,3.73,2.8,2.6,4.15,4,2.66,2.72,3.94,4.14,2.53,2.85,3.74,4.33,2.38,3,3.51,4.51,2.24,3.09,3.3,4.67,2.08,3.2,3.06,4.84,1.92,3.29,2.82,5,1.75,3.39,2.57,5.11,1.58,3.47,2.31,5.23,1.42,3.54,2.06,5.33,1.24,3.61,1.8,5.44,1.06,3.66,1.52,5.51.88,3.71,1.26,5.58.69,3.75,1,5.63.52,3.78.7,5.68.33,3.8.42,5.7.14,3.81.14,5.72S760.05-91.25,760-89.34Z" transform="translate(106.66 485.06)"/><path class="cls-7" d="M759.53-106.48c-.18-1.9-.42-3.79-.7-5.68s-.6-3.76-1-5.63-.79-3.73-1.26-5.58-1-3.69-1.52-5.51-1.15-3.64-1.8-5.44-1.33-3.57-2.06-5.33-1.5-3.51-2.31-5.23-1.68-3.43-2.57-5.11-1.84-3.34-2.82-5-2-3.25-3.06-4.84-2.16-3.14-3.3-4.67-2.31-3-3.51-4.51-2.46-2.92-3.74-4.33-2.6-2.8-3.94-4.14-2.73-2.67-4.15-4-2.85-2.52-4.33-3.73-3-2.39-4.51-3.52-3.09-2.24-4.67-3.3-3.2-2.07-4.83-3.06-3.3-1.92-5-2.81-3.38-1.76-5.11-2.58-3.47-1.58-5.23-2.31-3.54-1.42-5.33-2.06-3.61-1.24-5.43-1.8-3.67-1.06-5.52-1.52-3.71-.88-5.58-1.25-3.75-.7-5.63-1-3.78-.52-5.68-.7-3.8-.33-5.7-.42-3.81-.14-5.72-.14-3.81,0-5.72.14-3.8.23-5.7.42-3.79.42-5.68.7-3.76.6-5.63,1-3.73.79-5.58,1.25-3.69,1-5.51,1.52-3.64,1.16-5.43,1.8-3.58,1.33-5.34,2.06-3.51,1.5-5.23,2.31-3.43,1.68-5.11,2.58-3.34,1.83-5,2.81-3.25,2-4.84,3.06-3.14,2.16-4.67,3.3-3,2.31-4.51,3.52-2.92,2.45-4.33,3.73-2.8,2.6-4.14,4-2.67,2.72-3.95,4.14-2.52,2.85-3.73,4.33-2.39,3-3.52,4.51-2.24,3.09-3.29,4.67-2.08,3.2-3.06,4.84-1.92,3.29-2.82,5-1.76,3.39-2.57,5.11-1.59,3.47-2.32,5.23-1.42,3.54-2.06,5.33-1.24,3.61-1.79,5.44-1.07,3.66-1.53,5.51-.88,3.71-1.25,5.58-.7,3.75-1,5.63-.51,3.78-.7,5.68-.33,3.8-.42,5.7-.14,3.81-.14,5.72,0,3.81.14,5.72.23,3.8.42,5.7.42,3.79.7,5.68.6,3.76,1,5.63.79,3.73,1.25,5.58,1,3.69,1.53,5.52,1.15,3.63,1.79,5.43,1.33,3.57,2.06,5.33,1.5,3.51,2.32,5.23,1.67,3.43,2.57,5.11,1.84,3.34,2.82,5,2,3.24,3.06,4.83,2.15,3.14,3.29,4.67,2.31,3,3.52,4.51,2.45,2.92,3.73,4.33,2.6,2.8,3.95,4.14,2.73,2.67,4.14,3.95S568.18-6.2,569.65-5s3,2.39,4.51,3.52,3.09,2.24,4.67,3.3,3.2,2.08,4.84,3.06,3.29,1.92,5,2.81,3.39,1.76,5.11,2.58,3.47,1.58,5.23,2.31,3.54,1.42,5.34,2.06,3.6,1.24,5.43,1.8,3.66,1.06,5.51,1.52,3.71.88,5.58,1.25,3.75.7,5.63,1,3.78.52,5.68.7,3.8.33,5.7.42,3.81.14,5.72.14,3.81,0,5.72-.14,3.8-.23,5.7-.42,3.79-.42,5.68-.7,3.76-.6,5.63-1,3.73-.78,5.58-1.25,3.69-1,5.52-1.52,3.63-1.16,5.43-1.8,3.57-1.33,5.33-2.06,3.51-1.5,5.23-2.31,3.43-1.68,5.11-2.58,3.34-1.83,5-2.81,3.24-2,4.83-3.06,3.14-2.16,4.67-3.3,3-2.31,4.51-3.52,2.92-2.45,4.33-3.73,2.8-2.6,4.15-3.95,2.66-2.72,3.94-4.14,2.53-2.85,3.74-4.33,2.38-3,3.51-4.51,2.24-3.09,3.3-4.67,2.08-3.2,3.06-4.83,1.92-3.3,2.82-5,1.75-3.39,2.57-5.11,1.58-3.47,2.31-5.23,1.42-3.54,2.06-5.33,1.24-3.61,1.8-5.43,1.06-3.67,1.52-5.52.88-3.71,1.26-5.58.69-3.75,1-5.63.52-3.78.7-5.68.33-3.8.42-5.7.14-3.81.14-5.72,0-3.81-.14-5.72S759.72-104.58,759.53-106.48Zm-32.39,18.1c-.07,1.37-.17,2.73-.3,4.09s-.31,2.72-.51,4.08-.43,2.7-.7,4-.56,2.68-.9,4-.69,2.64-1.09,4-.83,2.61-1.29,3.9-1,2.56-1.48,3.83-1.07,2.51-1.66,3.75-1.2,2.46-1.85,3.67-1.31,2.39-2,3.57-1.43,2.33-2.19,3.47-1.55,2.25-2.37,3.35-1.65,2.18-2.52,3.24-1.76,2.09-2.68,3.11-1.87,2-2.83,3-2,1.91-3,2.83-2,1.81-3.1,2.68-2.14,1.71-3.24,2.53-2.22,1.6-3.36,2.36-2.29,1.49-3.46,2.19-2.37,1.38-3.58,2-2.42,1.26-3.66,1.84-2.49,1.14-3.75,1.67-2.55,1-3.83,1.47-2.59.89-3.9,1.29-2.63.76-4,1.1-2.66.63-4,.9-2.69.5-4,.7-2.71.37-4.07.5-2.73.23-4.09.3-2.74.1-4.11.1-2.73,0-4.1-.1-2.73-.17-4.09-.3-2.72-.3-4.08-.5-2.7-.44-4-.7-2.68-.57-4-.9-2.64-.7-3.95-1.1-2.61-.82-3.9-1.29-2.56-.95-3.83-1.47-2.51-1.08-3.75-1.67-2.46-1.2-3.67-1.84-2.4-1.32-3.57-2-2.33-1.43-3.47-2.19-2.25-1.55-3.35-2.36-2.18-1.66-3.24-2.53-2.09-1.76-3.11-2.68-2-1.86-3-2.83-1.91-2-2.83-3-1.81-2-2.68-3.11-1.71-2.14-2.53-3.24-1.6-2.22-2.36-3.35-1.49-2.3-2.2-3.47-1.37-2.37-2-3.57-1.26-2.43-1.84-3.67-1.14-2.49-1.67-3.75-1-2.54-1.47-3.83-.89-2.59-1.29-3.9-.76-2.63-1.1-4-.63-2.67-.9-4-.5-2.69-.7-4-.37-2.71-.5-4.08-.24-2.72-.3-4.09-.1-2.74-.1-4.1,0-2.74.1-4.11.17-2.73.3-4.09.3-2.72.5-4.07.44-2.71.7-4,.57-2.68.9-4,.7-2.65,1.1-4,.82-2.61,1.29-3.9,1-2.56,1.47-3.83,1.08-2.51,1.67-3.75,1.2-2.46,1.84-3.66,1.32-2.4,2-3.58,1.44-2.33,2.2-3.46,1.55-2.26,2.36-3.36,1.66-2.18,2.53-3.24,1.76-2.09,2.68-3.1,1.86-2,2.83-3,2-1.91,3-2.83,2-1.81,3.11-2.68,2.14-1.71,3.24-2.52,2.21-1.61,3.35-2.37,2.3-1.49,3.47-2.19,2.36-1.38,3.57-2,2.43-1.26,3.67-1.84,2.49-1.14,3.75-1.66,2.54-1,3.83-1.48,2.59-.89,3.9-1.29,2.63-.76,3.95-1.09,2.67-.64,4-.9,2.69-.5,4-.7,2.71-.37,4.08-.51,2.72-.23,4.09-.3,2.73-.1,4.1-.1,2.74,0,4.11.1,2.73.17,4.09.3,2.72.3,4.07.51,2.71.43,4,.7,2.68.56,4,.9,2.65.69,4,1.09,2.61.83,3.9,1.29,2.56.95,3.83,1.48,2.51,1.07,3.75,1.66,2.46,1.2,3.66,1.84,2.4,1.32,3.58,2,2.33,1.43,3.46,2.19,2.26,1.55,3.36,2.37,2.18,1.65,3.24,2.52,2.09,1.76,3.1,2.68,2,1.87,3,2.83,1.91,2,2.83,3,1.81,2,2.68,3.1,1.71,2.14,2.52,3.24,1.61,2.22,2.37,3.36,1.49,2.29,2.19,3.46,1.38,2.37,2,3.58,1.27,2.42,1.85,3.66,1.14,2.49,1.66,3.75,1,2.54,1.48,3.83.89,2.59,1.29,3.9.76,2.63,1.09,4,.64,2.66.9,4,.5,2.69.7,4,.37,2.71.51,4.07.23,2.73.3,4.09.1,2.74.1,4.11S727.21-89.75,727.14-88.38Z" transform="translate(106.66 485.06)"/><path class="cls-17" d="M726.84-100.68c-.14-1.36-.31-2.72-.51-4.07s-.43-2.71-.7-4-.56-2.68-.9-4-.69-2.65-1.09-4-.83-2.61-1.29-3.9-1-2.56-1.48-3.83-1.07-2.51-1.66-3.75-1.2-2.46-1.85-3.66-1.31-2.4-2-3.58-1.43-2.33-2.19-3.46-1.55-2.26-2.37-3.36-1.65-2.18-2.52-3.24-1.76-2.09-2.68-3.1-1.87-2-2.83-3-2-1.91-3-2.83-2-1.81-3.1-2.68-2.14-1.71-3.24-2.52-2.22-1.61-3.36-2.37-2.29-1.49-3.46-2.19-2.37-1.38-3.58-2-2.42-1.26-3.66-1.84-2.49-1.14-3.75-1.66-2.55-1-3.83-1.48-2.59-.89-3.9-1.29-2.63-.76-4-1.09-2.66-.64-4-.9-2.69-.5-4-.7-2.71-.37-4.07-.51-2.73-.23-4.09-.3-2.74-.1-4.11-.1-2.73,0-4.1.1-2.73.17-4.09.3-2.72.3-4.08.51-2.7.43-4,.7-2.68.56-4,.9-2.64.69-3.95,1.09-2.61.83-3.9,1.29-2.56.95-3.83,1.48-2.51,1.07-3.75,1.66-2.46,1.2-3.67,1.84-2.4,1.32-3.57,2-2.33,1.43-3.47,2.19-2.25,1.55-3.35,2.37-2.18,1.65-3.24,2.52-2.09,1.76-3.11,2.68-2,1.87-3,2.83-1.91,2-2.83,3-1.81,2-2.68,3.1-1.71,2.14-2.53,3.24-1.6,2.22-2.36,3.36-1.49,2.29-2.2,3.46-1.37,2.37-2,3.58-1.26,2.42-1.84,3.66-1.14,2.49-1.67,3.75-1,2.54-1.47,3.83-.89,2.59-1.29,3.9-.76,2.63-1.1,4-.63,2.66-.9,4-.5,2.69-.7,4-.37,2.71-.5,4.07-.24,2.73-.3,4.09-.1,2.74-.1,4.11,0,2.73.1,4.1.17,2.73.3,4.09.3,2.72.5,4.08.44,2.7.7,4,.57,2.68.9,4,.7,2.64,1.1,4,.82,2.61,1.29,3.9,1,2.56,1.47,3.83S567.43-58,568-56.73s1.2,2.46,1.84,3.67,1.32,2.39,2,3.57,1.44,2.33,2.2,3.47,1.55,2.25,2.36,3.35,1.66,2.18,2.53,3.24,1.76,2.09,2.68,3.11,1.86,2,2.83,3,2,1.91,3,2.83,2,1.81,3.11,2.68,2.14,1.71,3.24,2.53,2.21,1.6,3.35,2.36,2.3,1.49,3.47,2.19,2.36,1.38,3.57,2,2.43,1.26,3.67,1.84,2.49,1.14,3.75,1.67,2.54,1,3.83,1.47,2.59.89,3.9,1.29,2.63.76,3.95,1.1,2.67.63,4,.9,2.69.5,4,.7,2.71.37,4.08.5,2.72.23,4.09.3,2.73.1,4.1.1,2.74,0,4.11-.1,2.73-.17,4.09-.3,2.72-.3,4.07-.5,2.71-.44,4-.7,2.68-.57,4-.9,2.65-.7,4-1.1,2.61-.82,3.9-1.29,2.56-.95,3.83-1.47,2.51-1.08,3.75-1.67,2.46-1.2,3.66-1.84,2.4-1.32,3.58-2,2.33-1.43,3.46-2.19,2.26-1.55,3.36-2.36,2.18-1.66,3.24-2.53,2.09-1.76,3.1-2.68,2-1.86,3-2.83,1.91-2,2.83-3,1.81-2,2.68-3.11,1.71-2.14,2.52-3.24,1.61-2.22,2.37-3.35,1.49-2.3,2.19-3.47,1.38-2.37,2-3.57,1.27-2.43,1.85-3.67,1.14-2.49,1.66-3.75,1-2.54,1.48-3.83.89-2.59,1.29-3.9.76-2.63,1.09-4,.64-2.67.9-4,.5-2.69.7-4,.37-2.71.51-4.08.23-2.72.3-4.09.1-2.74.1-4.1,0-2.74-.1-4.11S727-99.32,726.84-100.68Z" transform="translate(106.66 485.06)"/><text class="cls-1" transform="translate(218.82 525.8) rotate(-90)">E</text><text class="cls-1" transform="translate(218.82 512.95) rotate(-90)">N</text><text class="cls-1" transform="translate(153.07 526.58) rotate(-90)">V</text><text class="cls-1" transform="translate(153.07 512.69) rotate(-90)">C</text><text class="cls-1" transform="translate(153.07 499.5) rotate(-90)">C</text><text class="cls-1" transform="translate(187.44 526.17) rotate(-90)">N</text><text class="cls-1" transform="translate(187.44 511.19) rotate(-90)">C</text><text class="cls-1" transform="translate(122.86 529.94) rotate(-90)">G</text><text class="cls-1" transform="translate(122.86 515.78) rotate(-90)">N</text><text class="cls-1" transform="translate(122.86 500.8) rotate(-90)">D</text><text class="cls-1" transform="translate(218.8 525.91) rotate(-90)">E</text><text class="cls-1" transform="translate(218.8 513.07) rotate(-90)">N</text><text class="cls-1" transform="translate(153.05 526.7) rotate(-90)">V</text><text class="cls-1" transform="translate(153.05 512.8) rotate(-90)">C</text><text class="cls-1" transform="translate(153.05 499.61) rotate(-90)">C</text><text class="cls-1" transform="translate(187.41 526.28) rotate(-90)">N</text><text class="cls-1" transform="translate(187.41 511.3) rotate(-90)">C</text></g></g></svg>