<svg xmlns="http://www.w3.org/2000/svg" width="40" height="80" viewBox="0 0 336.53 523.79"><defs><style>.cls-1{fill:#004684;}.cls-2,.cls-8{fill:#fff;}.cls-3{fill:#2b2b2b;}.cls-4{fill:#a6a6a6;}.cls-5{fill:#2e2d2d;}.cls-6{fill:#f1eddd;}.cls-7{fill:#d9d9d9;}.cls-8{font-size:19.86px;font-family:Montserrat-Bold, Montserrat;font-weight:700;}</style></defs><title>Asset 1</title><g id="Layer_2" data-name="Layer 2"><g id="Layer_1-2" data-name="Layer 1"><path class="cls-1" d="M592.31,145.45a41,41,0,0,1,29-39.18V25.36H509.48a28.48,28.48,0,0,1-57,0H341.21v81.09a40.95,40.95,0,0,1,0,78V387.89a28.48,28.48,0,0,1,0,57v75.8h97.64V505.14H523v15.51h98.3V436.87h-.55a28.48,28.48,0,1,1,0-56.95h.55V184.63A41,41,0,0,1,592.31,145.45ZM574.86,83.72V53.84H582V308h-7.13Zm-18.32,0V53.84h7.13V308h-7.13Zm-20,0V53.84h7.13V308h-7.13ZM539.8,315a7.41,7.41,0,1,1-7.41,7.41A7.41,7.41,0,0,1,539.8,315ZM516.87,83.72V53.84H524V308h-7.14ZM518.8,315a7.41,7.41,0,1,1-7.41,7.41A7.41,7.41,0,0,1,518.8,315ZM496.89,83.72V53.84H504V308h-7.14ZM500.18,315a7.41,7.41,0,1,1-7.41,7.41A7.4,7.4,0,0,1,500.18,315ZM476.53,83.72V53.84h7.14V308h-7.14ZM479.82,315a7.41,7.41,0,1,1-7.41,7.41A7.4,7.4,0,0,1,479.82,315Zm15,21h11.75V357.7H456.45V336.06h38.39ZM456.43,83.72V53.84h7.13V308h-7.13ZM459.71,315a7.41,7.41,0,1,1-7.41,7.41A7.41,7.41,0,0,1,459.71,315ZM437.37,83.72V53.84h7.13V308h-7.13ZM440.65,315a7.41,7.41,0,1,1-7.41,7.41A7.41,7.41,0,0,1,440.65,315ZM418.48,83.72V53.84h7.14V308h-7.14ZM421.76,315a7.41,7.41,0,1,1-7.4,7.41A7.41,7.41,0,0,1,421.76,315ZM399.19,83.72V53.84h7.14V308h-7.14Zm-18.23,0V53.84h7.13V308H381Zm2.53,246.14a7.41,7.41,0,1,1,7.41-7.41A7.41,7.41,0,0,1,383.49,329.86Zm11.58-7.41a7.41,7.41,0,1,1,7.41,7.41A7.41,7.41,0,0,1,395.07,322.45Zm161.86,175.7H405.85V427.51h33.06v-6.18h85.2v6.18h32.82Zm2.89-168.29a7.41,7.41,0,1,1,7.41-7.41A7.4,7.4,0,0,1,559.82,329.86Zm18.32,0a7.41,7.41,0,1,1,7.41-7.41A7.41,7.41,0,0,1,578.14,329.86Z" transform="translate(-312.74 3.14)"/><path class="cls-1" d="M481,53.82a28.47,28.47,0,0,0,28.48-28.46v0a28.48,28.48,0,0,0-57,0v0A28.47,28.47,0,0,0,481,53.82ZM460.49,25.34A20.51,20.51,0,1,1,481,45.85,20.51,20.51,0,0,1,460.49,25.34Z" transform="translate(-312.74 3.14)"/><path class="cls-1" d="M592.31,408.4a28.47,28.47,0,0,0,28.48,28.48h.55a28.47,28.47,0,0,0,0-56.93h-.55A28.46,28.46,0,0,0,592.31,408.4Zm49,0a20.51,20.51,0,1,1-20.5-20.51A20.5,20.5,0,0,1,641.29,408.4Z" transform="translate(-312.74 3.14)"/><path class="cls-1" d="M369.69,416.37a28.48,28.48,0,1,0-28.48,28.48A28.47,28.47,0,0,0,369.69,416.37Zm-28.48,20.51a20.51,20.51,0,1,1,20.51-20.51A20.5,20.5,0,0,1,341.21,436.88Z" transform="translate(-312.74 3.14)"/><rect class="cls-2" x="143.72" y="339.2" width="11.75" height="21.63"/><rect class="cls-2" x="182.1" y="339.2" width="11.75" height="21.63"/><path class="cls-3" d="M494.84,357.7V336.06H468.2V357.7Zm-13.35-15.53a4.69,4.69,0,1,1-4.68,4.69A4.69,4.69,0,0,1,481.49,342.17Z" transform="translate(-312.74 3.14)"/><circle class="cls-2" cx="481.49" cy="346.86" r="4.68" transform="translate(-362.08 84.74) rotate(-9.22)"/><polygon class="cls-4" points="75.36 56.98 68.22 56.98 68.22 86.86 68.22 311.11 75.36 311.11 75.36 56.98"/><path class="cls-4" d="M383.49,315a7.41,7.41,0,1,0,7.41,7.41A7.41,7.41,0,0,0,383.49,315Zm0,11.86a4.45,4.45,0,1,1,4.45-4.45A4.45,4.45,0,0,1,383.49,326.9Z" transform="translate(-312.74 3.14)"/><circle class="cls-5" cx="70.75" cy="325.59" r="4.45"/><polygon class="cls-4" points="93.59 56.98 86.46 56.98 86.46 86.86 86.46 311.11 93.59 311.11 93.59 56.98"/><polygon class="cls-4" points="112.88 56.98 105.74 56.98 105.74 86.86 105.74 311.11 112.88 311.11 112.88 56.98"/><polygon class="cls-4" points="131.77 56.98 124.63 56.98 124.63 86.86 124.63 311.11 131.77 311.11 131.77 56.98"/><polygon class="cls-4" points="150.82 56.98 143.69 56.98 143.69 86.86 143.69 311.11 150.82 311.11 150.82 56.98"/><polygon class="cls-4" points="170.93 56.98 163.8 56.98 163.8 86.86 163.8 311.11 170.93 311.11 170.93 56.98"/><polygon class="cls-4" points="191.29 56.98 184.16 56.98 184.16 86.86 184.16 311.11 191.29 311.11 191.29 56.98"/><polygon class="cls-4" points="211.27 56.98 204.14 56.98 204.14 86.86 204.14 311.11 211.27 311.11 211.27 56.98"/><polygon class="cls-4" points="230.92 56.98 223.78 56.98 223.78 86.86 223.78 311.11 230.92 311.11 230.92 56.98"/><polygon class="cls-4" points="250.94 56.98 243.8 56.98 243.8 86.86 243.8 311.11 250.94 311.11 250.94 56.98"/><polygon class="cls-4" points="269.26 56.98 262.12 56.98 262.12 86.86 262.12 311.11 269.26 311.11 269.26 56.98"/><path class="cls-4" d="M409.88,322.45a7.41,7.41,0,1,0-7.4,7.41A7.4,7.4,0,0,0,409.88,322.45Zm-7.4,4.45a4.45,4.45,0,1,1,4.45-4.45A4.45,4.45,0,0,1,402.48,326.9Z" transform="translate(-312.74 3.14)"/><circle class="cls-5" cx="89.74" cy="325.59" r="4.45"/><path class="cls-4" d="M421.76,329.86a7.41,7.41,0,1,0-7.4-7.41A7.41,7.41,0,0,0,421.76,329.86Zm0-11.86a4.45,4.45,0,1,1-4.44,4.45A4.45,4.45,0,0,1,421.76,318Z" transform="translate(-312.74 3.14)"/><circle class="cls-5" cx="109.03" cy="325.59" r="4.45"/><path class="cls-4" d="M440.65,329.86a7.41,7.41,0,1,0-7.41-7.41A7.41,7.41,0,0,0,440.65,329.86Zm0-11.86a4.45,4.45,0,1,1-4.45,4.45A4.45,4.45,0,0,1,440.65,318Z" transform="translate(-312.74 3.14)"/><circle class="cls-5" cx="127.91" cy="325.59" r="4.45"/><path class="cls-4" d="M459.71,329.86a7.41,7.41,0,1,0-7.41-7.41A7.41,7.41,0,0,0,459.71,329.86Zm0-11.86a4.45,4.45,0,1,1-4.45,4.45A4.45,4.45,0,0,1,459.71,318Z" transform="translate(-312.74 3.14)"/><circle class="cls-5" cx="459.71" cy="322.45" r="4.45" transform="translate(-406.1 422.64) rotate(-45)"/><path class="cls-4" d="M479.82,329.86a7.41,7.41,0,1,0-7.41-7.41A7.4,7.4,0,0,0,479.82,329.86Zm0-11.86a4.45,4.45,0,1,1-4.45,4.45A4.45,4.45,0,0,1,479.82,318Z" transform="translate(-312.74 3.14)"/><circle class="cls-5" cx="479.82" cy="322.45" r="4.45" transform="translate(-400.21 436.86) rotate(-45)"/><path class="cls-4" d="M500.18,329.86a7.41,7.41,0,1,0-7.41-7.41A7.4,7.4,0,0,0,500.18,329.86Zm0-11.86a4.45,4.45,0,1,1-4.45,4.45A4.44,4.44,0,0,1,500.18,318Z" transform="translate(-312.74 3.14)"/><circle class="cls-5" cx="187.44" cy="325.59" r="4.45"/><path class="cls-4" d="M518.8,329.86a7.41,7.41,0,1,0-7.41-7.41A7.41,7.41,0,0,0,518.8,329.86Zm0-11.86a4.45,4.45,0,1,1-4.45,4.45A4.45,4.45,0,0,1,518.8,318Z" transform="translate(-312.74 3.14)"/><circle class="cls-5" cx="518.8" cy="322.45" r="4.45" transform="translate(-372.94 130.96) rotate(-13.28)"/><path class="cls-4" d="M539.8,329.86a7.41,7.41,0,1,0-7.41-7.41A7.41,7.41,0,0,0,539.8,329.86Zm0-11.86a4.45,4.45,0,1,1-4.45,4.45A4.45,4.45,0,0,1,539.8,318Z" transform="translate(-312.74 3.14)"/><circle class="cls-5" cx="539.8" cy="322.45" r="4.45" transform="translate(-372.38 135.78) rotate(-13.28)"/><path class="cls-4" d="M559.82,315a7.41,7.41,0,1,0,7.41,7.41A7.4,7.4,0,0,0,559.82,315Zm0,11.86a4.45,4.45,0,1,1,4.45-4.45A4.45,4.45,0,0,1,559.82,326.9Z" transform="translate(-312.74 3.14)"/><circle class="cls-5" cx="247.09" cy="325.59" r="4.45"/><path class="cls-4" d="M578.14,315a7.41,7.41,0,1,0,7.41,7.41A7.41,7.41,0,0,0,578.14,315Zm0,11.86a4.45,4.45,0,1,1,4.45-4.45A4.45,4.45,0,0,1,578.14,326.9Z" transform="translate(-312.74 3.14)"/><circle class="cls-5" cx="265.4" cy="325.59" r="4.45"/><polygon class="cls-6" points="211.38 440.11 221.4 440.11 234.26 440.11 234.26 491.78 103.21 491.78 103.21 440.11 116.08 440.11 126.17 440.11 126.17 430.65 93.11 430.65 93.11 501.28 244.19 501.28 244.19 430.65 211.38 430.65 211.38 440.11"/><path class="cls-7" d="M534.14,447.61h0v9.77H428.82v-9.77h0V437H416v51.67H547V437H534.14Zm2.84,12v17.54H519.45V459.61Zm-30.91,0v17.54H488.53V459.61Zm-31.12,0v17.54H457.41V459.61Zm-31.11,0v17.54H426.31V459.61Z" transform="translate(-312.74 3.14)"/><rect class="cls-4" x="113.57" y="462.75" width="17.54" height="17.54"/><rect class="cls-4" x="144.67" y="462.75" width="17.54" height="17.54"/><rect class="cls-4" x="175.8" y="462.75" width="17.54" height="17.54"/><rect class="cls-4" x="206.71" y="462.75" width="17.54" height="17.54"/><polygon class="cls-1" points="126.17 440.11 211.38 440.11 211.38 430.65 211.38 424.47 126.17 424.47 126.17 430.65 126.17 440.11"/><polygon class="cls-6" points="126.17 440.11 116.08 440.11 116.08 450.75 221.4 450.75 221.4 440.11 211.38 440.11 126.17 440.11"/><polygon class="cls-7" points="116.08 460.52 221.42 460.52 221.42 450.75 221.4 450.75 116.08 450.75 116.08 450.75 116.08 460.52"/><text class="cls-8" transform="translate(126.24 424.3) rotate(-90)">G</text><text class="cls-8" transform="translate(126.24 409.55) rotate(-90)">N</text><text class="cls-8" transform="translate(126.24 393.94) rotate(-90)">D</text><text class="cls-8" transform="translate(157.7 422.48) rotate(-90)">V</text><text class="cls-8" transform="translate(157.7 408.01) rotate(-90)">C</text><text class="cls-8" transform="translate(157.7 394.27) rotate(-90)">C</text><text class="cls-8" transform="translate(193.49 423.08) rotate(-90)">N</text><text class="cls-8" transform="translate(193.49 407.47) rotate(-90)">C</text><text class="cls-8" transform="translate(226.19 423.08) rotate(-90)">S</text><text class="cls-8" transform="translate(226.19 410.3) rotate(-90)">I</text><text class="cls-8" transform="translate(226.19 403.98) rotate(-90)">G</text></g></g></svg>