<?xml version="1.0" encoding="UTF-8"?><svg id="Calque_2" xmlns="http://www.w3.org/2000/svg" xmlns:xlink="http://www.w3.org/1999/xlink" viewBox="0 0 543.89 441.86"><defs><style>.cls-1{fill:url(#Dégradé_sans_nom_5);}.cls-2{fill:#363636;}.cls-3{fill:#1bc9d3;}.cls-4{fill:#646a6d;}.cls-5{fill:#e5e5e5;}.cls-6{fill:url(#Dégradé_sans_nom_5-2);}.cls-7{fill:#a9fcfe;}.cls-8{fill:#20848a;}</style><linearGradient id="Dégradé_sans_nom_5" x1="170.68" y1="270.49" x2="543.89" y2="270.49" gradientTransform="translate(0 614.21) scale(1 -1)" gradientUnits="userSpaceOnUse"><stop offset="0" stop-color="#fff"/><stop offset="1" stop-color="#fff" stop-opacity="0"/></linearGradient><linearGradient id="Dégradé_sans_nom_5-2" y1="98.15" y2="98.15" gradientTransform="matrix(1,0,0,1,0,0)" xlink:href="#Dégradé_sans_nom_5"/></defs><g id="Calque_1-2"><g id="loti-bot-top"><g id="headlights"><polygon id="headlights-right" class="cls-1" points="216.02 245.57 543.89 245.57 543.56 441.86 170.68 313.59 216.02 245.57"/><polygon id="headlights-left" class="cls-6" points="216.02 196.29 543.89 196.29 543.56 0 170.68 128.28 216.02 196.29"/></g><g id="leds"><path id="led-right" class="cls-7" d="M222.26,191.71c1.41.05,2.42-1.33,1.96-2.67-13.46-38.9-51.44-74.52-117.21-74.52-47.76,0-85.08,30.14-100.76,67.82-.27.64.2,1.36.89,1.38l215.12,7.99Z"/><path id="led-left" class="cls-7" d="M222.26,252.91c1.41-.05,2.42,1.33,1.96,2.67-13.46,38.9-51.44,74.52-117.21,74.52-47.76,0-85.08-30.14-100.76-67.82-.27-.64.2-1.36.89-1.38l215.12-7.99Z"/></g><path id="body" class="cls-5" d="M158.4,147.12l-76.99-7.83C37.88,134.86.07,169.03.07,212.78v9.53h-.07v9.53c0,43.75,37.81,77.91,81.34,73.49l76.99-7.83c38.58-3.92,67.94-36.41,67.94-75.19h0s.07,0,.07,0h0c0-38.78-29.35-71.27-67.94-75.19Z"/><path id="body2" class="cls-8" d="M113.12,262.05c-.94-7.77-2.96-8.14-8.28-11.26l-32.2-13.75c-6.63-2.09-11.28-8.05-11.71-14.97.43-6.93,5.08-12.89,11.71-14.97l32.2-13.75c5.32-3.12,7.34-3.49,8.28-11.26l2.38-19.65c.96-7.92-4.87-15.05-12.82-15.68l-20.15-1.61c-39.61-3.35-73.62,27.9-73.62,67.65v18.56c0,39.76,34.01,71.01,73.62,67.65l20.15-1.61c7.95-.63,13.78-7.76,12.82-15.68l-2.38-19.65Z"/><g id="head"><path id="head-2" class="cls-2" d="M163.67,158.05h0c-25.71,0-46.55,25.84-46.55,51.55v26.92c0,25.71,20.84,51.55,46.55,51.55h0c28.43,0,51.47-31.04,51.47-59.47v-11.09c0-28.43-23.04-59.47-51.47-59.47Z"/><g id="face"><rect class="cls-3" x="162.67" y="192.99" width="23.52" height="15.1" rx="7.55" ry="7.55" transform="translate(-28.84 29.3) rotate(-8.87)"/><rect class="cls-3" x="162.67" y="235.66" width="23.52" height="15.1" rx="7.55" ry="7.55" transform="translate(39.59 -23.99) rotate(8.87)"/><path class="cls-3" d="M160.98,191.64c1.09-1.3-.66-3.05-1.96-1.96-6.33,5.3-12.79,11.64-12.79,15.42,0,7.4,10.64,6.54,10.64,1.32,0-3.34-1.59-3.02-1.59-4.79,0-1.58,2.39-6.02,5.7-9.99Z"/><path class="cls-3" d="M160.98,252.32c1.09,1.3-.66,3.05-1.96,1.96-6.33-5.3-12.79-11.64-12.79-15.42,0-7.4,10.64-6.54,10.64-1.32,0,3.34-1.59,3.02-1.59,4.79,0,1.58,2.39,6.02,5.7,9.99Z"/></g></g><g id="pen"><circle id="pen-hole" class="cls-2" cx="90.12" cy="222.19" r="12.7"/><circle id="pen-2" class="cls-4" cx="90.12" cy="222.19" r="10.51"/></g></g></g></svg>