<?xml version="1.0" encoding="UTF-8"?><svg id="Calque_2" xmlns="http://www.w3.org/2000/svg" viewBox="0 0 56.69 56.69"><defs><style>.cls-1{fill:none;}.cls-1,.cls-2{stroke-width:0px;}.cls-2{fill:#fff;}</style></defs><g id="Calque_1-2"><g id="IA_posture"><path class="cls-2" d="M35.82,25.68c-4.32-1.54-5.11-6.33-5.15-6.54-.08-.52-.49-.9-.97-.98-.01-.03-.03-.05-.05-.08.3.06.61.1.93.1,2.47,0,4.48-2.01,4.48-4.48s-2.01-4.48-4.48-4.48-4.48,2.01-4.48,4.48c0,1.64.89,3.06,2.2,3.84-.11.03-.21.08-.31.14l-5.68,3.68c-.42.27-.62.78-.51,1.26l1.25,5.37c.15.64.79,1.03,1.42.89.64-.15,1.04-.79.89-1.42l-1.06-4.56,2.72-1.76-1.48,8.73s0,.02,0,.03c0,.03-.01.06-.02.1,0,.08-.52,7.99-5.26,15.68-.34.56-.17,1.29.39,1.63.19.12.41.18.62.18.4,0,.79-.2,1.01-.56,3.21-5.2,4.59-10.41,5.19-13.62l2.06,3.05.47,9.21c.03.63.56,1.13,1.18,1.13.02,0,.04,0,.06,0,.65-.03,1.16-.59,1.12-1.24l-.49-9.54c-.01-.22-.08-.42-.2-.6l-3.72-5.5,1.27-7.46c.88,1.97,2.59,4.43,5.8,5.58.13.05.27.07.4.07.49,0,.94-.3,1.12-.79.22-.62-.1-1.3-.72-1.52Z"/><rect class="cls-1" width="56.69" height="56.69"/></g></g></svg>