<?xml version="1.0" encoding="UTF-8"?>
<svg xmlns="http://www.w3.org/2000/svg" xmlns:xlink="http://www.w3.org/1999/xlink" width="17px" height="25px" viewBox="0 0 17 25" version="1.1">
<g id="surface1">
<path style=" stroke:none;fill-rule:nonzero;fill:rgb(13.333333%,70.980392%,45.098039%);fill-opacity:1;" d="M 0.710938 0.28125 C 0.316406 0.28125 0 0.597656 0 0.988281 L 0 24.011719 C -0.0117188 24.207031 0.0585938 24.398438 0.191406 24.542969 C 0.328125 24.683594 0.515625 24.765625 0.710938 24.765625 L 16.289062 24.765625 C 16.679688 24.757812 16.996094 24.445312 17 24.054688 L 17 0.988281 C 17 0.597656 16.683594 0.28125 16.289062 0.28125 Z M 14.773438 0.875 C 14.890625 0.878906 14.984375 0.976562 14.984375 1.09375 L 14.984375 5.28125 C 14.964844 5.382812 14.875 5.457031 14.769531 5.457031 C 14.664062 5.457031 14.574219 5.382812 14.554688 5.28125 L 14.554688 1.300781 L 12.847656 1.300781 L 12.847656 5.28125 C 12.824219 5.382812 12.734375 5.457031 12.632812 5.457031 C 12.527344 5.457031 12.4375 5.382812 12.417969 5.28125 L 12.417969 1.300781 L 10.777344 1.300781 L 10.777344 3.183594 C 10.777344 3.304688 10.679688 3.402344 10.558594 3.402344 L 8.289062 3.402344 C 8.167969 3.402344 8.070312 3.304688 8.070312 3.183594 L 8.070312 1.300781 L 6.1875 1.300781 L 6.1875 3.183594 C 6.1875 3.238281 6.167969 3.296875 6.128906 3.335938 C 6.089844 3.378906 6.035156 3.402344 5.976562 3.402344 L 3.75 3.402344 C 3.6875 3.410156 3.625 3.390625 3.578125 3.347656 C 3.53125 3.304688 3.503906 3.246094 3.503906 3.183594 L 3.503906 1.300781 L 1.753906 1.300781 L 1.753906 5.28125 C 1.730469 5.382812 1.640625 5.457031 1.539062 5.457031 C 1.433594 5.457031 1.34375 5.382812 1.324219 5.28125 L 1.324219 1.09375 C 1.324219 0.972656 1.421875 0.875 1.542969 0.875 L 3.75 0.875 C 3.871094 0.875 3.96875 0.972656 3.96875 1.09375 L 3.96875 2.972656 L 5.722656 2.972656 L 5.722656 1.09375 C 5.722656 1.027344 5.75 0.964844 5.796875 0.925781 C 5.847656 0.882812 5.914062 0.863281 5.976562 0.875 L 8.289062 0.875 C 8.40625 0.878906 8.5 0.976562 8.5 1.09375 L 8.5 2.972656 L 10.347656 2.972656 L 10.347656 1.09375 C 10.347656 0.976562 10.441406 0.878906 10.558594 0.875 Z M 14.273438 11.804688 L 13.679688 11.804688 C 13.679688 11.875 13.679688 11.925781 13.679688 11.980469 L 13.679688 13.003906 C 13.703125 13.796875 13.246094 14.527344 12.523438 14.855469 C 11.917969 15.128906 11.285156 15.335938 10.636719 15.476562 C 10.207031 15.597656 9.785156 15.742188 9.367188 15.90625 C 9.015625 16.019531 8.789062 16.359375 8.816406 16.726562 C 8.816406 17.324219 8.816406 17.917969 8.816406 18.476562 C 8.816406 18.582031 8.886719 18.597656 8.945312 18.625 C 9.738281 18.972656 10.175781 19.820312 10 20.664062 C 9.820312 21.507812 9.078125 22.109375 8.214844 22.109375 C 7.351562 22.109375 6.609375 21.507812 6.429688 20.664062 C 6.253906 19.820312 6.695312 18.972656 7.484375 18.625 C 7.558594 18.597656 7.605469 18.523438 7.597656 18.441406 C 7.605469 18.019531 7.3125 17.652344 6.894531 17.566406 C 6.519531 17.410156 6.125 17.296875 5.730469 17.175781 C 5.175781 17.042969 4.644531 16.816406 4.171875 16.5 C 3.667969 16.152344 3.363281 15.582031 3.355469 14.96875 C 3.355469 14.53125 3.355469 14.097656 3.355469 13.648438 C 3.34375 13.542969 3.28125 13.453125 3.191406 13.394531 C 2.820312 13.128906 2.648438 12.667969 2.75 12.222656 C 2.832031 11.769531 3.175781 11.402344 3.628906 11.296875 C 4.148438 11.183594 4.683594 11.425781 4.941406 11.894531 C 5.195312 12.363281 5.109375 12.941406 4.730469 13.316406 C 4.59375 13.414062 4.519531 13.578125 4.539062 13.746094 C 4.539062 14.070312 4.539062 14.394531 4.539062 14.714844 C 4.472656 15.195312 4.785156 15.648438 5.257812 15.757812 C 5.554688 15.878906 5.871094 15.976562 6.132812 16.070312 L 7.554688 16.535156 L 7.554688 9.382812 L 6.378906 9.382812 L 8.191406 6.402344 L 10.007812 9.417969 L 8.816406 9.417969 L 8.816406 14.855469 C 8.9375 14.796875 9.0625 14.742188 9.191406 14.699219 L 11.042969 14.164062 C 11.339844 14.066406 11.632812 13.953125 11.917969 13.824219 C 12.253906 13.691406 12.464844 13.355469 12.433594 12.992188 C 12.433594 12.617188 12.433594 12.25 12.433594 11.855469 L 11.828125 11.855469 L 11.828125 9.398438 L 14.238281 9.398438 Z M 14.273438 11.804688 "/>
</g>
</svg>
