<svg xmlns="http://www.w3.org/2000/svg" viewBox="0 0 56.69 56.69"><defs><style>.cls-1{fill:none;}.cls-2{fill:#fff;}</style></defs><g id="Calque_2" data-name="Calque 2"><g id="Calque_1-2" data-name="Calque 1"><g id="IA_image" data-name="IA image"><rect class="cls-1" width="56.69" height="56.69"/><path id="icon-fullscreen" class="cls-2" d="M42.89,44.86H34.08a2.3,2.3,0,0,1-2.3-2.3h0a2.3,2.3,0,0,1,2.3-2.3H40.6V33.74a2.3,2.3,0,0,1,2.3-2.3h0a2.3,2.3,0,0,1,2.3,2.3h0v8.82a2.31,2.31,0,0,1-2.3,2.3Zm-20.28-.19H13.8a2.3,2.3,0,0,1-2.3-2.3h0V33.55a2.3,2.3,0,0,1,2.3-2.3h0a2.3,2.3,0,0,1,2.3,2.3h0v6.52h6.52a2.3,2.3,0,0,1,2.3,2.3h0a2.31,2.31,0,0,1-2.3,2.3ZM42.89,25.25a2.3,2.3,0,0,1-2.3-2.3h0V16.43H34.06a2.3,2.3,0,0,1-2.29-2.3h0a2.3,2.3,0,0,1,2.29-2.29h8.82a2.3,2.3,0,0,1,2.3,2.29h0V23a2.29,2.29,0,0,1-2.29,2.3Zm-29.1,0A2.29,2.29,0,0,1,11.5,23h0V14.14a2.29,2.29,0,0,1,2.29-2.3h8.82a2.3,2.3,0,0,1,2.3,2.3h0a2.3,2.3,0,0,1-2.3,2.3H16.09V23a2.3,2.3,0,0,1-2.3,2.29Z"/></g></g></g></svg>