<svg xmlns="http://www.w3.org/2000/svg" viewBox="0 0 56.69 56.69"><defs><style>.cls-1{fill:none;}.cls-2{fill:#ff3431;}</style></defs><g id="Calque_2" data-name="Calque 2"><g id="Calque_1-2" data-name="Calque 1"><g id="Croquet"><rect class="cls-1" width="56.69" height="56.69"/><path class="cls-2" d="M37.69,43.59c-2.13-.86-4-1.68-6-2.41A3.52,3.52,0,0,0,29.93,41c-7,1.33-14.89-2.48-16.35-10.92C12,20.94,18.74,13.6,27.75,14c6.8.28,11.72,4.36,13.08,10.85A13.25,13.25,0,0,1,38.5,35.67a4,4,0,0,0-.67,2c-.1,1.51,0,3,0,4.56C37.79,42.64,37.73,43,37.69,43.59Zm-5.53-16a4.67,4.67,0,0,0-4.92-4.89,4.73,4.73,0,0,0-4.93,4.91,4.69,4.69,0,0,0,4.91,5A4.79,4.79,0,0,0,32.16,27.57Z"/></g></g></g></svg>