<svg xmlns="http://www.w3.org/2000/svg" viewBox="0 0 248.21 251.24"><defs><style>.cls-1{fill:#fff;}</style></defs><g id="Calque_2" data-name="Calque 2"><g id="Calque_1-2" data-name="Calque 1"><rect class="cls-1" x="37.21" y="228.24" width="5" height="23"/><path class="cls-1" d="M.21,239.9c0,6.65,4.54,10.91,11,11.3v-23H.21Z"/><rect class="cls-1" x="43.21" y="228.24" width="5" height="23"/><rect class="cls-1" x="49.21" y="228.24" width="5" height="23"/><rect class="cls-1" x="55.21" y="228.24" width="5" height="23"/><rect class="cls-1" x="206.21" y="228.24" width="5" height="23"/><path class="cls-1" d="M237.21,251.2c6.46-.39,11-4.65,11-11.3V228.24h-11Z"/><rect class="cls-1" x="200.21" y="228.24" width="5" height="23"/><rect class="cls-1" x="194.21" y="228.24" width="5" height="23"/><rect class="cls-1" x="188.21" y="228.24" width="5" height="23"/><rect class="cls-1" x="92.21" y="228.24" width="4" height="23"/><rect class="cls-1" x="97.21" y="228.24" width="4" height="23"/><rect class="cls-1" x="102.21" y="228.24" width="4" height="23"/><rect class="cls-1" x="107.21" y="228.24" width="4" height="23"/><rect class="cls-1" x="86.21" y="228.24" width="5" height="23"/><rect class="cls-1" x="142.21" y="228.24" width="4" height="23"/><rect class="cls-1" x="147.21" y="228.24" width="4" height="23"/><rect class="cls-1" x="152.21" y="228.24" width="4" height="23"/><rect class="cls-1" x="157.21" y="228.24" width="5" height="23"/><rect class="cls-1" x="137.21" y="228.24" width="4" height="23"/><path class="cls-1" d="M24.23,210.46c-6.8,0-12.32,5.91-12.32,12.72,0,1.65.33,2.06.92,5.06H12.2v23h4.34l3-3h9.85l3,3H36.2v-23h-.56c.59-3,.92-3.54.92-5.19A12.55,12.55,0,0,0,24.23,210.46Zm0,21.65a9.58,9.58,0,1,1,9.58-9.58A9.58,9.58,0,0,1,24.23,232.11Z"/><path class="cls-1" d="M73.25,210.46c-6.8,0-12.32,5.91-12.32,12.72,0,1.65.33,2.06.92,5.06h-.63v23h4.34l3-3h9.85l3,3h3.87v-23h-.56c.59-3,.92-3.54.92-5.19A12.55,12.55,0,0,0,73.25,210.46Zm0,21.65a9.58,9.58,0,1,1,9.58-9.58A9.58,9.58,0,0,1,73.25,232.11Z"/><path class="cls-1" d="M175.25,210.45c-6.81,0-12.33,5.91-12.33,12.72,0,1.65.33,2.06.92,5.06h-.63v23h4.34l3-3h9.85l3,3h3.87v-23h-.56c.59-3,.92-3.54.92-5.19A12.55,12.55,0,0,0,175.25,210.45Zm0,21.65a9.58,9.58,0,1,1,9.57-9.58A9.58,9.58,0,0,1,175.25,232.1Z"/><path class="cls-1" d="M224.21,210.45c-6.81,0-12.33,5.91-12.33,12.72,0,1.65.33,2.06.92,5.06h-.63v23h4.34l3-3h9.85l3,3h3.87v-23h-.56c.59-3,.92-3.54.92-5.19A12.55,12.55,0,0,0,224.21,210.45Zm0,21.65a9.58,9.58,0,1,1,9.58-9.58A9.58,9.58,0,0,1,224.21,232.1Z"/><path class="cls-1" d="M124.25,210.46c-6.8,0-12.32,5.91-12.32,12.72,0,1.65.33,2.06.92,5.06h-.63v23h4.34l3-3h9.85l3,3h3.87v-23h-.56c.59-3,.92-3.54.92-5.19A12.55,12.55,0,0,0,124.25,210.46Zm0,21.65a9.58,9.58,0,1,1,9.58-9.58A9.57,9.57,0,0,1,124.25,232.11Z"/><polygon class="cls-1" points="84.21 55.24 84.21 60.96 88.93 55.25 84.21 55.24"/><polygon class="cls-1" points="76.16 55.26 56.89 55.28 57.5 75.66 76.16 55.26"/><path class="cls-1" d="M49.05,55.31H14A14,14,0,0,0,0,69.46l.5,38.32Z"/><path class="cls-1" d="M232.84,55.24h-91V51.8c0-.07,0-.13,0-.2v-17a5,5,0,0,0-5-5h-6.66V23.76a1,1,0,0,0-1-1h-1.22c-1.42-12,.72-13.85,1-14C131.46,7,143,13.37,151.41,18c17.34,9.61,40,22.19,65.06,22.19a71.18,71.18,0,0,0,15.39-1.66L230,30.27c-28,6.14-54.87-8.78-74.51-19.67C141.29,2.7,131-3,124.1,1.71c-4.54,3.1-6,9.47-4.74,21.05H117.5a1,1,0,0,0-1,1v5.85h-6.66a5,5,0,0,0-5,5V55.24H95.78L94,57.17,83.3,68.87l-4.93,5.38v-14L56.57,83.59l-4.74,5.08-.16-7-.5-21.3L2.57,112.71.21,115.25l0,107.16H6.3a18.59,18.59,0,0,1,12.76-16.79,14.4,14.4,0,0,1,5.23-1,14.55,14.55,0,0,1,5.1.93,18.32,18.32,0,0,1,12.88,16.85h13a18.75,18.75,0,0,1,12.12-16.57,14.75,14.75,0,0,1,5.86-1.21,14.34,14.34,0,0,1,4.94.88,18.26,18.26,0,0,1,13,16.9h15a18.75,18.75,0,0,1,12.12-16.57,14.78,14.78,0,0,1,5.86-1.21,14.31,14.31,0,0,1,4.86.86,18.25,18.25,0,0,1,13.13,16.92h15A18.59,18.59,0,0,1,170,205.64a14.69,14.69,0,0,1,5.32-1,14.2,14.2,0,0,1,4.77.82,18.25,18.25,0,0,1,13.22,17h13a18.52,18.52,0,0,1,12.87-16.83,14.4,14.4,0,0,1,10.1-.07,18.3,18.3,0,0,1,13,16.9h6V70.85C248.21,62.62,241.09,55.24,232.84,55.24Zm-62.65,61.64h-4.72c0,.57-.06,1-.06,1.44v8.11a15.73,15.73,0,0,1-9.23,14.77,74.83,74.83,0,0,1-15,5,104.8,104.8,0,0,0-10.09,3.39,6.33,6.33,0,0,0-4.38,6.55c.12,4.75,0,9.51,0,14.25,0,.81.52.92,1,1.15a14.48,14.48,0,1,1-11.64,0,1.35,1.35,0,0,0,.94-1.44,7.19,7.19,0,0,0-5.57-7.09c-3-1.19-6.19-2.09-9.31-3.07a39.8,39.8,0,0,1-12.42-5.42,15.15,15.15,0,0,1-6.48-12.14c-.11-3.53-.1-7.05-.06-10.58a2.68,2.68,0,0,0-1.15-2.45A9,9,0,0,1,78.56,120a9.21,9.21,0,0,1,6.88-7.41,9.55,9.55,0,0,1,11,4.71A9.45,9.45,0,0,1,94.32,129a3.63,3.63,0,0,0-1.58,3.37c.13,2.57,0,5.16,0,7.74a7.4,7.4,0,0,0,5.58,8.32c2.39,1,4.87,1.69,7.31,2.5,3.72,1.23,7.44,2.44,11.29,3.7v-57H107.4l14.45-24.11,14.41,24h-9.47v43.35a29.29,29.29,0,0,1,3-1.25c4.9-1.44,9.84-2.76,14.73-4.25a63.86,63.86,0,0,0,7.22-2.69,6.47,6.47,0,0,0,4.13-6.62c-.08-3,0-6,0-9.09H151V97.73h19.16Z"/></g></g></svg>