<svg xmlns="http://www.w3.org/2000/svg" viewBox="0 0 39 36.04"><defs><style>.cls-1{fill:#fff;}</style></defs><g id="Calque_2" data-name="Calque 2"><g id="Calque_1-2" data-name="Calque 1"><path id="STM32" class="cls-1" d="M25.38,36l1-1.08,11.5,0c.58,0,1.13-.34,1.12-.89V5.39L37.88,4.25H17.1L15.83,3V.9L14.91,0H.94L0,1,0,34.34a2.3,2.3,0,0,0,.91.58H6.43L7.62,36Zm.71-19.78h-.67a1.62,1.62,0,0,0,0,.21v1.16a2.26,2.26,0,0,1-1.33,2.12,10.26,10.26,0,0,1-2.15.72c-.49.14-1,.3-1.45.48a.9.9,0,0,0-.62.94c0,.69,0,1.37,0,2,0,.12.07.13.14.16a2.08,2.08,0,1,1-1.67,0,.19.19,0,0,0,.14-.2,1,1,0,0,0-.8-1c-.44-.17-.89-.3-1.34-.44a5.78,5.78,0,0,1-1.78-.78,2.16,2.16,0,0,1-.93-1.74c0-.51,0-1,0-1.52a.38.38,0,0,0-.17-.35,1.31,1.31,0,0,1-.5-1.35,1.33,1.33,0,0,1,1-1.06,1.38,1.38,0,0,1,1.58.68A1.35,1.35,0,0,1,15.2,18a.53.53,0,0,0-.22.48c0,.37,0,.74,0,1.11a1.07,1.07,0,0,0,.81,1.2c.34.14.69.24,1,.36l1.62.53V13.45H17.08L19.16,10l2.06,3.45H19.86v6.22a3.25,3.25,0,0,1,.43-.18c.7-.2,1.41-.39,2.11-.61a10,10,0,0,0,1-.38.92.92,0,0,0,.59-.95c0-.43,0-.86,0-1.31h-.69V13.48h2.75Z"/></g></g></svg>