<svg xmlns="http://www.w3.org/2000/svg" width="24" height="17.518" fill="#444c60"><path d="M8.517 7.368H19.4V5.543L24 8.3l-4.586 2.75V9.242h-8.269a5.351 5.351 0 0 1 .237.564c.275.935.527 1.877.811 2.809a12.686 12.686 0 0 0 .514 1.378 1.233 1.233 0 0 0 1.263.788c.569-.016 1.138 0 1.735 0v-.914h3.664v3.655h-3.653v-.9c-.109-.005-.192-.012-.275-.012h-1.548a3 3 0 0 1-2.817-1.761 14.189 14.189 0 0 1-.95-2.858c-.184-.651-.4-1.3-.647-1.925a1.206 1.206 0 0 0-1.249-.835c-.906.023-1.814.01-2.72 0-.154 0-.174.1-.219.193a2.762 2.762 0 1 1 0-2.221.26.26 0 0 0 .275.18 1.372 1.372 0 0 0 1.352-1.064c.228-.579.4-1.18.587-1.776a7.54 7.54 0 0 1 1.034-2.369A2.889 2.889 0 0 1 10.855.938a45.21 45.21 0 0 1 2.017-.011.516.516 0 0 0 .469-.22 1.724 1.724 0 0 1 1.788-.666 1.758 1.758 0 0 1 1.415 1.313 1.821 1.821 0 0 1-.9 2.093 1.8 1.8 0 0 1-2.236-.4.692.692 0 0 0-.644-.3c-.491.025-.985.007-1.477.007A1.412 1.412 0 0 0 9.7 3.819c-.183.455-.322.928-.476 1.394-.236.709-.466 1.42-.707 2.155z"/></svg>