<?xml version="1.0" encoding="UTF-8"?>
<svg xmlns="http://www.w3.org/2000/svg" xmlns:xlink="http://www.w3.org/1999/xlink" width="25pt" height="25pt" viewBox="0 0 25 25" version="1.1">
<g id="surface1">
<path style=" stroke:none;fill-rule:nonzero;fill:rgb(14.117647%,62.745098%,41.176471%);fill-opacity:1;" d="M 3.75 22.710938 L 4.253906 22.710938 L 4.253906 25 L 3.75 25 Z M 3.75 22.710938 "/>
<path style=" stroke:none;fill-rule:nonzero;fill:rgb(14.117647%,62.745098%,41.176471%);fill-opacity:1;" d="M 0.0234375 23.871094 C 0.0234375 24.535156 0.480469 24.957031 1.128906 24.996094 L 1.128906 22.707031 L 0.0234375 22.707031 Z M 0.0234375 23.871094 "/>
<path style=" stroke:none;fill-rule:nonzero;fill:rgb(14.117647%,62.745098%,41.176471%);fill-opacity:1;" d="M 4.351562 22.710938 L 4.855469 22.710938 L 4.855469 25 L 4.351562 25 Z M 4.351562 22.710938 "/>
<path style=" stroke:none;fill-rule:nonzero;fill:rgb(14.117647%,62.745098%,41.176471%);fill-opacity:1;" d="M 4.957031 22.710938 L 5.460938 22.710938 L 5.460938 25 L 4.957031 25 Z M 4.957031 22.710938 "/>
<path style=" stroke:none;fill-rule:nonzero;fill:rgb(14.117647%,62.745098%,41.176471%);fill-opacity:1;" d="M 5.5625 22.710938 L 6.066406 22.710938 L 6.066406 25 L 5.5625 25 Z M 5.5625 22.710938 "/>
<path style=" stroke:none;fill-rule:nonzero;fill:rgb(14.117647%,62.745098%,41.176471%);fill-opacity:1;" d="M 20.769531 22.710938 L 21.273438 22.710938 L 21.273438 25 L 20.769531 25 Z M 20.769531 22.710938 "/>
<path style=" stroke:none;fill-rule:nonzero;fill:rgb(14.117647%,62.745098%,41.176471%);fill-opacity:1;" d="M 23.890625 24.996094 C 24.542969 24.957031 25 24.535156 25 23.871094 L 25 22.710938 L 23.890625 22.710938 Z M 23.890625 24.996094 "/>
<path style=" stroke:none;fill-rule:nonzero;fill:rgb(14.117647%,62.745098%,41.176471%);fill-opacity:1;" d="M 20.164062 22.710938 L 20.667969 22.710938 L 20.667969 25 L 20.164062 25 Z M 20.164062 22.710938 "/>
<path style=" stroke:none;fill-rule:nonzero;fill:rgb(14.117647%,62.745098%,41.176471%);fill-opacity:1;" d="M 19.558594 22.710938 L 20.0625 22.710938 L 20.0625 25 L 19.558594 25 Z M 19.558594 22.710938 "/>
<path style=" stroke:none;fill-rule:nonzero;fill:rgb(14.117647%,62.745098%,41.176471%);fill-opacity:1;" d="M 18.957031 22.710938 L 19.460938 22.710938 L 19.460938 25 L 18.957031 25 Z M 18.957031 22.710938 "/>
<path style=" stroke:none;fill-rule:nonzero;fill:rgb(14.117647%,62.745098%,41.176471%);fill-opacity:1;" d="M 9.289062 22.710938 L 9.691406 22.710938 L 9.691406 25 L 9.289062 25 Z M 9.289062 22.710938 "/>
<path style=" stroke:none;fill-rule:nonzero;fill:rgb(14.117647%,62.745098%,41.176471%);fill-opacity:1;" d="M 9.792969 22.710938 L 10.195312 22.710938 L 10.195312 25 L 9.792969 25 Z M 9.792969 22.710938 "/>
<path style=" stroke:none;fill-rule:nonzero;fill:rgb(14.117647%,62.745098%,41.176471%);fill-opacity:1;" d="M 10.296875 22.710938 L 10.699219 22.710938 L 10.699219 25 L 10.296875 25 Z M 10.296875 22.710938 "/>
<path style=" stroke:none;fill-rule:nonzero;fill:rgb(14.117647%,62.745098%,41.176471%);fill-opacity:1;" d="M 10.796875 22.710938 L 11.203125 22.710938 L 11.203125 25 L 10.796875 25 Z M 10.796875 22.710938 "/>
<path style=" stroke:none;fill-rule:nonzero;fill:rgb(14.117647%,62.745098%,41.176471%);fill-opacity:1;" d="M 8.683594 22.710938 L 9.1875 22.710938 L 9.1875 25 L 8.683594 25 Z M 8.683594 22.710938 "/>
<path style=" stroke:none;fill-rule:nonzero;fill:rgb(14.117647%,62.745098%,41.176471%);fill-opacity:1;" d="M 14.324219 22.710938 L 14.726562 22.710938 L 14.726562 25 L 14.324219 25 Z M 14.324219 22.710938 "/>
<path style=" stroke:none;fill-rule:nonzero;fill:rgb(14.117647%,62.745098%,41.176471%);fill-opacity:1;" d="M 14.828125 22.710938 L 15.230469 22.710938 L 15.230469 25 L 14.828125 25 Z M 14.828125 22.710938 "/>
<path style=" stroke:none;fill-rule:nonzero;fill:rgb(14.117647%,62.745098%,41.176471%);fill-opacity:1;" d="M 15.332031 22.710938 L 15.734375 22.710938 L 15.734375 25 L 15.332031 25 Z M 15.332031 22.710938 "/>
<path style=" stroke:none;fill-rule:nonzero;fill:rgb(14.117647%,62.745098%,41.176471%);fill-opacity:1;" d="M 15.835938 22.710938 L 16.335938 22.710938 L 16.335938 25 L 15.835938 25 Z M 15.835938 22.710938 "/>
<path style=" stroke:none;fill-rule:nonzero;fill:rgb(14.117647%,62.745098%,41.176471%);fill-opacity:1;" d="M 13.820312 22.710938 L 14.222656 22.710938 L 14.222656 25 L 13.820312 25 Z M 13.820312 22.710938 "/>
<path style=" stroke:none;fill-rule:nonzero;fill:rgb(14.117647%,62.745098%,41.176471%);fill-opacity:1;" d="M 2.441406 20.941406 C 1.757812 20.941406 1.199219 21.53125 1.199219 22.207031 C 1.199219 22.371094 1.234375 22.414062 1.292969 22.710938 L 1.230469 22.710938 L 1.230469 25 L 1.667969 25 L 1.96875 24.703125 L 2.960938 24.703125 L 3.261719 25 L 3.648438 25 L 3.648438 22.710938 L 3.589844 22.710938 C 3.648438 22.414062 3.683594 22.359375 3.683594 22.195312 C 3.6875 21.511719 3.132812 20.953125 2.441406 20.941406 Z M 2.441406 23.097656 C 1.910156 23.097656 1.476562 22.667969 1.476562 22.144531 C 1.476562 21.617188 1.910156 21.191406 2.441406 21.191406 C 2.972656 21.191406 3.40625 21.617188 3.40625 22.144531 C 3.40625 22.667969 2.972656 23.097656 2.441406 23.097656 Z M 2.441406 23.097656 "/>
<path style=" stroke:none;fill-rule:nonzero;fill:rgb(14.117647%,62.745098%,41.176471%);fill-opacity:1;" d="M 7.378906 20.941406 C 6.695312 20.941406 6.136719 21.53125 6.136719 22.207031 C 6.136719 22.371094 6.171875 22.414062 6.230469 22.710938 L 6.167969 22.710938 L 6.167969 25 L 6.605469 25 L 6.90625 24.703125 L 7.898438 24.703125 L 8.199219 25 L 8.589844 25 L 8.589844 22.710938 L 8.535156 22.710938 C 8.59375 22.414062 8.625 22.359375 8.625 22.195312 C 8.628906 21.511719 8.070312 20.949219 7.378906 20.941406 Z M 7.378906 23.097656 C 6.84375 23.097656 6.414062 22.667969 6.414062 22.144531 C 6.414062 21.617188 6.84375 21.191406 7.378906 21.191406 C 7.910156 21.191406 8.34375 21.617188 8.34375 22.144531 C 8.34375 22.667969 7.910156 23.097656 7.378906 23.097656 Z M 7.378906 23.097656 "/>
<path style=" stroke:none;fill-rule:nonzero;fill:rgb(14.117647%,62.745098%,41.176471%);fill-opacity:1;" d="M 17.652344 20.941406 C 16.964844 20.941406 16.410156 21.527344 16.410156 22.207031 C 16.410156 22.371094 16.441406 22.410156 16.5 22.710938 L 16.4375 22.710938 L 16.4375 25 L 16.875 25 L 17.175781 24.699219 L 18.167969 24.699219 L 18.472656 25 L 18.863281 25 L 18.863281 22.710938 L 18.804688 22.710938 C 18.863281 22.410156 18.898438 22.359375 18.898438 22.195312 C 18.898438 21.507812 18.34375 20.949219 17.652344 20.941406 Z M 17.652344 23.09375 C 17.117188 23.097656 16.683594 22.667969 16.683594 22.144531 C 16.683594 21.617188 17.117188 21.1875 17.648438 21.1875 C 18.183594 21.1875 18.613281 21.617188 18.613281 22.140625 C 18.613281 22.667969 18.183594 23.09375 17.652344 23.09375 Z M 17.652344 23.09375 "/>
<path style=" stroke:none;fill-rule:nonzero;fill:rgb(14.117647%,62.745098%,41.176471%);fill-opacity:1;" d="M 22.582031 20.941406 C 21.894531 20.941406 21.339844 21.527344 21.339844 22.207031 C 21.339844 22.371094 21.375 22.410156 21.433594 22.710938 L 21.367188 22.710938 L 21.367188 25 L 21.804688 25 L 22.109375 24.699219 L 23.101562 24.699219 L 23.402344 25 L 23.792969 25 L 23.792969 22.710938 L 23.734375 22.710938 C 23.796875 22.410156 23.828125 22.359375 23.828125 22.195312 C 23.832031 21.507812 23.273438 20.949219 22.582031 20.941406 Z M 22.582031 23.09375 C 22.046875 23.09375 21.617188 22.667969 21.617188 22.140625 C 21.617188 21.617188 22.046875 21.1875 22.582031 21.1875 C 23.113281 21.1875 23.546875 21.617188 23.546875 22.140625 C 23.546875 22.667969 23.113281 23.09375 22.582031 23.09375 Z M 22.582031 23.09375 "/>
<path style=" stroke:none;fill-rule:nonzero;fill:rgb(14.117647%,62.745098%,41.176471%);fill-opacity:1;" d="M 12.515625 20.941406 C 11.828125 20.941406 11.273438 21.53125 11.273438 22.207031 C 11.273438 22.371094 11.308594 22.414062 11.367188 22.710938 L 11.304688 22.710938 L 11.304688 25 L 11.738281 25 L 12.042969 24.703125 L 13.035156 24.703125 L 13.335938 25 L 13.726562 25 L 13.726562 22.710938 L 13.667969 22.710938 C 13.730469 22.414062 13.761719 22.359375 13.761719 22.195312 C 13.765625 21.511719 13.207031 20.949219 12.515625 20.941406 Z M 12.515625 23.097656 C 11.980469 23.097656 11.550781 22.667969 11.550781 22.144531 C 11.550781 21.617188 11.980469 21.191406 12.515625 21.191406 C 13.046875 21.191406 13.480469 21.617188 13.480469 22.144531 C 13.480469 22.394531 13.378906 22.640625 13.195312 22.816406 C 13.015625 22.996094 12.769531 23.097656 12.515625 23.097656 Z M 12.515625 23.097656 "/>
<path style=" stroke:none;fill-rule:nonzero;fill:rgb(14.117647%,62.745098%,41.176471%);fill-opacity:1;" d="M 8.480469 5.496094 L 8.480469 6.066406 L 8.957031 5.496094 Z M 8.480469 5.496094 "/>
<path style=" stroke:none;fill-rule:nonzero;fill:rgb(14.117647%,62.745098%,41.176471%);fill-opacity:1;" d="M 7.671875 5.5 L 5.730469 5.5 L 5.792969 7.527344 Z M 7.671875 5.5 "/>
<path style=" stroke:none;fill-rule:nonzero;fill:rgb(14.117647%,62.745098%,41.176471%);fill-opacity:1;" d="M 4.941406 5.503906 L 1.410156 5.503906 C 1.035156 5.503906 0.671875 5.652344 0.410156 5.917969 C 0.144531 6.179688 -0.00390625 6.539062 0 6.910156 L 0.0507812 10.726562 Z M 4.941406 5.503906 "/>
<path style=" stroke:none;fill-rule:nonzero;fill:rgb(14.117647%,62.745098%,41.176471%);fill-opacity:1;" d="M 23.449219 5.496094 L 14.285156 5.496094 L 14.285156 5.15625 C 14.285156 5.148438 14.285156 5.140625 14.285156 5.132812 L 14.285156 3.441406 C 14.285156 3.167969 14.0625 2.945312 13.78125 2.945312 L 13.113281 2.945312 L 13.113281 2.363281 C 13.113281 2.308594 13.066406 2.265625 13.011719 2.265625 L 12.886719 2.265625 C 12.746094 1.070312 12.960938 0.886719 12.988281 0.871094 C 13.242188 0.695312 14.402344 1.332031 15.25 1.792969 C 16.996094 2.746094 19.277344 4 21.800781 4 C 22.324219 4 22.84375 3.945312 23.351562 3.832031 L 23.164062 3.011719 C 20.34375 3.621094 17.640625 2.136719 15.660156 1.054688 C 14.230469 0.269531 13.195312 -0.296875 12.5 0.171875 C 12.042969 0.480469 11.894531 1.113281 12.023438 2.265625 L 11.835938 2.265625 C 11.777344 2.265625 11.734375 2.308594 11.734375 2.363281 L 11.734375 2.945312 L 11.0625 2.945312 C 10.785156 2.945312 10.558594 3.167969 10.558594 3.445312 L 10.558594 5.496094 L 9.648438 5.496094 L 9.46875 5.6875 L 8.390625 6.851562 L 7.894531 7.386719 L 7.894531 5.996094 L 5.699219 8.316406 L 5.222656 8.824219 L 5.203125 8.125 L 5.15625 6.007812 L 0.261719 11.214844 L 0.0234375 11.46875 L 0.0234375 22.132812 L 0.636719 22.132812 C 0.671875 21.363281 1.183594 20.699219 1.921875 20.460938 C 2.089844 20.394531 2.265625 20.363281 2.449219 20.359375 C 2.625 20.359375 2.796875 20.390625 2.960938 20.453125 C 3.710938 20.683594 4.230469 21.355469 4.257812 22.128906 L 5.566406 22.128906 C 5.605469 21.390625 6.085938 20.742188 6.789062 20.480469 C 6.972656 20.402344 7.175781 20.359375 7.378906 20.359375 C 7.546875 20.359375 7.714844 20.390625 7.875 20.449219 C 8.632812 20.671875 9.160156 21.351562 9.183594 22.128906 L 10.695312 22.128906 C 10.734375 21.390625 11.214844 20.742188 11.917969 20.480469 C 12.101562 20.402344 12.304688 20.359375 12.507812 20.359375 C 12.671875 20.359375 12.839844 20.390625 12.996094 20.445312 C 13.757812 20.667969 14.292969 21.34375 14.316406 22.128906 L 15.828125 22.128906 C 15.867188 21.363281 16.382812 20.699219 17.121094 20.460938 C 17.292969 20.398438 17.472656 20.363281 17.65625 20.363281 C 17.820312 20.363281 17.984375 20.390625 18.136719 20.445312 C 18.90625 20.660156 19.445312 21.347656 19.46875 22.136719 L 20.777344 22.136719 C 20.8125 21.363281 21.332031 20.695312 22.074219 20.460938 C 22.402344 20.339844 22.761719 20.335938 23.09375 20.453125 C 23.847656 20.679688 24.375 21.355469 24.402344 22.136719 L 25.003906 22.136719 L 25.003906 7.050781 C 25 6.230469 24.28125 5.496094 23.449219 5.496094 Z M 17.140625 11.628906 L 16.664062 11.628906 C 16.664062 11.6875 16.660156 11.730469 16.660156 11.773438 L 16.660156 12.582031 C 16.679688 13.210938 16.3125 13.789062 15.730469 14.050781 C 15.246094 14.269531 14.738281 14.433594 14.21875 14.546875 C 13.875 14.644531 13.535156 14.753906 13.203125 14.886719 C 12.921875 14.972656 12.738281 15.246094 12.761719 15.535156 C 12.773438 16.007812 12.761719 16.484375 12.761719 16.953125 C 12.761719 17.035156 12.816406 17.046875 12.863281 17.070312 C 13.496094 17.34375 13.847656 18.015625 13.703125 18.683594 C 13.5625 19.351562 12.96875 19.828125 12.277344 19.828125 C 11.585938 19.828125 10.992188 19.351562 10.851562 18.683594 C 10.707031 18.015625 11.058594 17.34375 11.691406 17.070312 C 11.753906 17.050781 11.792969 16.988281 11.785156 16.925781 C 11.789062 16.589844 11.554688 16.296875 11.222656 16.21875 C 10.921875 16.101562 10.601562 16.011719 10.285156 15.914062 C 9.84375 15.808594 9.417969 15.625 9.035156 15.375 C 8.636719 15.097656 8.394531 14.652344 8.382812 14.167969 C 8.371094 13.816406 8.375 13.464844 8.378906 13.113281 C 8.386719 13.019531 8.34375 12.925781 8.261719 12.871094 C 7.964844 12.660156 7.828125 12.292969 7.914062 11.941406 C 7.976562 11.582031 8.246094 11.289062 8.605469 11.203125 C 9.039062 11.082031 9.5 11.277344 9.714844 11.671875 C 9.929688 12.0625 9.839844 12.546875 9.5 12.835938 C 9.390625 12.910156 9.328125 13.039062 9.339844 13.171875 C 9.355469 13.425781 9.339844 13.683594 9.339844 13.941406 C 9.28125 14.320312 9.527344 14.679688 9.902344 14.769531 C 10.144531 14.871094 10.394531 14.9375 10.640625 15.019531 C 11.015625 15.140625 11.386719 15.261719 11.777344 15.386719 L 11.777344 9.714844 L 10.816406 9.714844 L 12.273438 7.316406 L 13.722656 9.703125 L 12.769531 9.703125 L 12.769531 14.015625 C 12.867188 13.96875 12.96875 13.929688 13.074219 13.894531 C 13.566406 13.75 14.0625 13.617188 14.554688 13.46875 C 14.804688 13.394531 15.046875 13.304688 15.28125 13.203125 C 15.554688 13.097656 15.726562 12.832031 15.699219 12.542969 C 15.691406 12.246094 15.699219 11.945312 15.699219 11.640625 L 15.207031 11.640625 L 15.207031 9.726562 L 17.136719 9.726562 Z M 17.140625 11.628906 "/>
</g>
</svg>
