<svg xmlns="http://www.w3.org/2000/svg" viewBox="0 0 40.29 28.15"><defs><style>.cls-1{fill:#fff;}</style></defs><g id="Calque_2" data-name="Calque 2"><g id="Calque_1-2" data-name="Calque 1"><g id="arduino"><path class="cls-1" d="M0,11.63a.88.88,0,0,0,.86.75H3.59v10A.91.91,0,0,0,2,22.92v3.53a.93.93,0,0,0,.92.93A.91.91,0,0,0,3.59,27v.23a.9.9,0,0,0,.91.89H38.06a.9.9,0,0,0,.91-.89v-.21a.9.9,0,0,1,.25-.62l.81-.82a.83.83,0,0,0,.26-.61V8.56A.83.83,0,0,0,40,8l-.81-.82A.9.9,0,0,1,39,6.51V.89A.9.9,0,0,0,38.06,0H4.5a.9.9,0,0,0-.91.89v5H.86c-.35,0-.79.46-.79.46ZM11.74.41a.89.89,0,1,1,0,1.78.9.9,0,0,1-.91-.89A.9.9,0,0,1,11.74.41ZM11.15,27.8a.89.89,0,1,1,.91-.89A.89.89,0,0,1,11.15,27.8Zm27.78-2.65a.89.89,0,1,1,.9-.89A.9.9,0,0,1,38.93,25.15Zm0-14.86a.89.89,0,1,1,.9-.89A.9.9,0,0,1,38.93,10.29Zm-11.19,1h-.68c0,.08,0,.14,0,.21v1.16a2.26,2.26,0,0,1-1.32,2.12,10.84,10.84,0,0,1-2.15.71c-.49.14-1,.31-1.45.49a.91.91,0,0,0-.63.94c0,.68,0,1.36,0,2.05,0,.11.07.13.14.16a2.06,2.06,0,1,1-1.67,0,.2.2,0,0,0,.14-.21,1,1,0,0,0-.8-1c-.44-.17-.89-.3-1.34-.44a5.89,5.89,0,0,1-1.78-.78,2.18,2.18,0,0,1-.93-1.74c0-.51,0-1,0-1.52a.37.37,0,0,0-.16-.35,1.31,1.31,0,0,1-.5-1.35,1.29,1.29,0,0,1,1-1.06A1.38,1.38,0,0,1,16.85,13a.51.51,0,0,0-.23.48c0,.37,0,.74,0,1.11a1,1,0,0,0,.8,1.19c.34.14.7.25,1.05.36l1.62.53V8.51H18.73L20.8,5.05,22.87,8.5H21.51v6.22a3.79,3.79,0,0,1,.42-.18l2.12-.61a9.88,9.88,0,0,0,1-.39.92.92,0,0,0,.59-.95c0-.43,0-.85,0-1.3H25V8.53h2.75Z"/></g></g></g></svg>