<svg xmlns="http://www.w3.org/2000/svg" viewBox="0 0 27 25"><defs><style>.cls-1{fill:none;}.cls-2{fill:#fff;}</style></defs><g id="Calque_2" data-name="Calque 2"><g id="Layer_1" data-name="Layer 1"><rect class="cls-1" width="27" height="25"/><g id="IA_son" data-name="IA son"><path class="cls-2" d="M14.76,14.52v4.1c0,.13,0,.31,0,.39a.8.8,0,0,1-.46.33c-.13,0-.31-.19-.4-.33a.91.91,0,0,1,0-.44V10.42c0-.12,0-.25,0-.36,0-.28.21-.49.48-.42a.88.88,0,0,1,.42.43,1.13,1.13,0,0,1,0,.49Z"/><path class="cls-2" d="M16.34,12.37c0,1.5,0,3,0,4.51a.92.92,0,0,1,0,.44c-.08.15-.26.35-.39.34s-.34-.17-.46-.31,0-.26,0-.39V7.82c0-.12,0-.28,0-.35s.3-.35.45-.35.32.2.43.35,0,.27,0,.4v4.5Z"/><path class="cls-2" d="M10.65,12.62c0-1.32,0-2.64,0-4,0-.14,0-.31,0-.4s.29-.35.44-.36a.64.64,0,0,1,.43.35,1.8,1.8,0,0,1,0,.66v7.57c0,.63-.13.87-.48.83-.54,0-.45-.47-.45-.82C10.64,15.2,10.65,13.91,10.65,12.62Z"/><path class="cls-2" d="M12.25,10.44c0-1.4,0-2.79,0-4.19,0-.13-.05-.3,0-.39s.29-.35.44-.35.32.2.43.35,0,.27,0,.4v8.56c0,.29-.12.5-.44.51s-.47-.2-.47-.52V10.44Z"/><path class="cls-2" d="M17.93,12.15c0,.4,0,.81,0,1.21a.43.43,0,0,1-.46.49c-.31,0-.45-.2-.45-.5V10.92a.43.43,0,0,1,.46-.49.44.44,0,0,1,.45.5c0,.41,0,.81,0,1.22Z"/><path class="cls-2" d="M10,12.31v1c0,.3-.15.5-.46.51s-.46-.19-.46-.49q0-1,0-2.07c0-.3.13-.51.45-.51s.46.22.47.53Z"/></g></g></g></svg>