<?xml version="1.0" encoding="UTF-8"?><svg id="Calque_2" xmlns="http://www.w3.org/2000/svg" viewBox="0 0 56.69 56.69"><defs><style>.cls-1{fill:none;}.cls-1,.cls-2{stroke-width:0px;}.cls-2{fill:#fff;}</style></defs><g id="Calque_1-2"><g id="icon_phone_sensors_white_bloc"><g id="Http"><rect class="cls-1" width="56.69" height="56.69"/></g><path id="Tracé_6720" class="cls-2" d="M39.03,28.36v10.5c.04,1.24-.38,2.46-1.18,3.4-.95,1.09-2.33,1.69-3.78,1.64-3.82.01-7.65.02-11.47,0-2.63.1-4.85-1.94-4.95-4.57,0-.15,0-.3,0-.45-.02-7.03-.02-14.05,0-21.08-.13-2.35,1.5-4.43,3.81-4.88.4-.09.8-.13,1.2-.13h11.35c2.19-.11,4.17,1.3,4.77,3.4.15.57.23,1.16.23,1.76.02,3.47.01,6.94.01,10.42h0ZM24.45,16.66h-1.66c-.94,0-1.27.33-1.27,1.26v20.84c0,.96.32,1.28,1.29,1.28h11.06c1,0,1.29-.29,1.29-1.31v-20.76c0-.16,0-.32-.02-.49-.03-.42-.36-.77-.78-.8-.7-.04-1.4-.01-2.15-.01,0,.36.01.68,0,1,.03.48-.33.9-.81.93-.03,0-.07,0-.1,0-1.96.02-3.92.02-5.88,0-.47.03-.88-.32-.92-.79,0-.02,0-.03,0-.05-.04-.35-.04-.7-.06-1.1h0Z"/><path class="cls-2" d="M31.07,32.42h-5.43v-.08c0-1.45,1.24-2.67,2.71-2.67s2.71,1.22,2.71,2.67v.08Z"/><path class="cls-2" d="M24.79,30.07c-.09,0-.18-.03-.26-.09-.17-.14-.19-.4-.05-.56,1-1.18,2.4-1.86,3.86-1.86s2.84.66,3.85,1.85c.14.17.12.42-.05.56-.17.14-.42.12-.56-.05-.86-1.01-2-1.57-3.24-1.57s-2.39.56-3.25,1.58c-.08.09-.19.14-.31.14Z"/><path class="cls-2" d="M33.35,28.71c-.11,0-.23-.05-.3-.14-1.25-1.46-2.92-2.27-4.71-2.27s-3.45.8-4.7,2.25c-.14.17-.39.19-.56.04-.17-.14-.19-.4-.04-.56,1.4-1.63,3.28-2.53,5.3-2.53s3.92.9,5.32,2.55c.14.17.12.42-.05.56-.08.06-.17.1-.26.1Z"/></g></g></svg>