<?xml version="1.0" encoding="UTF-8"?><svg id="Calque_2" xmlns="http://www.w3.org/2000/svg" viewBox="0 0 56.69 56.69"><defs><style>.cls-1{fill:none;}.cls-1,.cls-2{stroke-width:0px;}.cls-2{fill:#fff;}</style></defs><g id="Calque_1-2"><g id="ia_text_blocs_white"><rect class="cls-1" width="56.69" height="56.69"/><path id="icon-fullscreen" class="cls-2" d="m43.48,45.51h-6.78c-.98,0-1.77-.79-1.77-1.77h0c0-.98.79-1.77,1.77-1.77h5.02v-5.03c0-.98.79-1.77,1.77-1.77h0c.98,0,1.77.79,1.77,1.77h0v6.8c0,.98-.79,1.77-1.77,1.77,0,0,0,0,0,0Zm-23.31-.15h-6.79c-.98,0-1.77-.79-1.77-1.77h0v-6.8c0-.98.79-1.77,1.77-1.77h0c.98,0,1.77.79,1.77,1.77h0v5.03h5.02c.98,0,1.77.79,1.77,1.77h0c0,.98-.79,1.77-1.77,1.77h0Zm23.3-22.68c-.98,0-1.77-.79-1.77-1.77h0v-5.03h-5.02c-.98,0-1.77-.79-1.77-1.77h0c0-.98.79-1.77,1.77-1.77h6.79c.98,0,1.77.79,1.77,1.77h0v6.8c0,.98-.79,1.77-1.76,1.77h0Zm-30.1,0c-.98,0-1.77-.79-1.77-1.77h0v-6.8c0-.98.79-1.77,1.77-1.77h6.79c.98,0,1.77.79,1.77,1.77h0c0,.98-.79,1.77-1.77,1.77h-5.02v5.03c0,.98-.79,1.76-1.77,1.77h0Z"/><path class="cls-2" d="m24.25,32.54l-2.35,7.11h-3.02l7.69-22.62h3.52l7.72,22.62h-3.12l-2.42-7.11h-8.02Zm7.42-2.28l-2.21-6.51c-.5-1.48-.84-2.82-1.17-4.13h-.07c-.34,1.34-.71,2.72-1.14,4.09l-2.21,6.54h6.81Z"/></g></g></svg>