<?xml version="1.0" encoding="UTF-8"?>
<svg xmlns="http://www.w3.org/2000/svg" xmlns:xlink="http://www.w3.org/1999/xlink" width="25px" height="17px" viewBox="0 0 24 17" version="1.1">
<g id="surface1">
<path style=" stroke:none;fill-rule:nonzero;fill:rgb(13.333333%,70.980392%,45.098039%);fill-opacity:1;" d="M 0 7.027344 C 0.0390625 7.285156 0.253906 7.476562 0.511719 7.476562 L 2.136719 7.476562 L 2.136719 13.507812 C 1.992188 13.339844 1.765625 13.277344 1.558594 13.351562 C 1.351562 13.421875 1.207031 13.609375 1.191406 13.832031 L 1.191406 15.960938 C 1.191406 16.265625 1.4375 16.515625 1.738281 16.519531 C 1.898438 16.507812 2.046875 16.421875 2.136719 16.289062 L 2.136719 16.429688 C 2.140625 16.730469 2.382812 16.96875 2.679688 16.964844 L 22.671875 16.964844 C 22.96875 16.96875 23.210938 16.730469 23.214844 16.429688 L 23.214844 16.304688 C 23.214844 16.164062 23.265625 16.03125 23.363281 15.929688 L 23.84375 15.433594 C 23.945312 15.339844 24 15.207031 24 15.066406 L 24 5.175781 C 23.988281 5.042969 23.925781 4.921875 23.828125 4.839844 L 23.34375 4.34375 C 23.253906 4.230469 23.214844 4.085938 23.230469 3.941406 L 23.230469 0.550781 C 23.230469 0.40625 23.167969 0.265625 23.0625 0.164062 C 22.957031 0.0625 22.816406 0.0078125 22.671875 0.015625 L 2.679688 0.015625 C 2.382812 0.0117188 2.140625 0.253906 2.136719 0.550781 L 2.136719 3.566406 L 0.511719 3.566406 C 0.304688 3.566406 0.0429688 3.84375 0.0429688 3.84375 Z M 6.992188 0.261719 C 7.285156 0.261719 7.523438 0.503906 7.523438 0.800781 C 7.523438 1.097656 7.285156 1.335938 6.992188 1.335938 C 6.695312 1.339844 6.453125 1.097656 6.453125 0.800781 C 6.453125 0.5 6.695312 0.257812 6.992188 0.261719 Z M 6.640625 16.773438 C 6.351562 16.765625 6.121094 16.523438 6.125 16.230469 C 6.128906 15.933594 6.367188 15.699219 6.65625 15.699219 C 6.949219 15.703125 7.183594 15.941406 7.183594 16.238281 C 7.183594 16.382812 7.125 16.519531 7.023438 16.621094 C 6.921875 16.722656 6.785156 16.777344 6.640625 16.773438 Z M 23.191406 15.175781 C 22.898438 15.171875 22.664062 14.929688 22.664062 14.636719 C 22.667969 14.339844 22.90625 14.101562 23.199219 14.101562 C 23.488281 14.105469 23.726562 14.34375 23.726562 14.640625 C 23.722656 14.9375 23.484375 15.175781 23.191406 15.175781 Z M 23.191406 6.21875 C 22.898438 6.214844 22.664062 5.972656 22.664062 5.679688 C 22.667969 5.382812 22.90625 5.144531 23.199219 5.144531 C 23.488281 5.148438 23.726562 5.386719 23.726562 5.683594 C 23.722656 5.980469 23.484375 6.21875 23.191406 6.21875 Z M 16.523438 6.820312 L 16.117188 6.820312 C 16.117188 6.871094 16.117188 6.90625 16.117188 6.949219 L 16.117188 7.648438 C 16.132812 8.195312 15.824219 8.699219 15.332031 8.925781 C 14.921875 9.113281 14.492188 9.257812 14.050781 9.351562 C 13.761719 9.4375 13.457031 9.539062 13.1875 9.648438 C 12.949219 9.726562 12.792969 9.960938 12.8125 10.214844 C 12.8125 10.625 12.8125 11.035156 12.8125 11.449219 C 12.8125 11.515625 12.855469 11.527344 12.898438 11.546875 C 13.425781 11.785156 13.71875 12.367188 13.597656 12.9375 C 13.480469 13.511719 12.980469 13.925781 12.398438 13.925781 C 11.820312 13.925781 11.320312 13.511719 11.199219 12.9375 C 11.078125 12.367188 11.371094 11.785156 11.902344 11.546875 C 11.957031 11.53125 11.992188 11.476562 11.984375 11.421875 C 11.992188 11.128906 11.789062 10.875 11.507812 10.816406 C 11.246094 10.714844 10.976562 10.636719 10.710938 10.550781 C 10.332031 10.457031 9.976562 10.296875 9.648438 10.082031 C 9.3125 9.84375 9.105469 9.453125 9.097656 9.035156 C 9.097656 8.726562 9.097656 8.429688 9.097656 8.117188 C 9.105469 8.035156 9.070312 7.953125 9 7.90625 C 8.75 7.71875 8.632812 7.398438 8.703125 7.09375 C 8.753906 6.777344 8.988281 6.523438 9.296875 6.453125 C 9.652344 6.386719 10.003906 6.558594 10.171875 6.878906 C 10.34375 7.199219 10.289062 7.59375 10.039062 7.851562 C 9.941406 7.914062 9.886719 8.027344 9.898438 8.140625 C 9.898438 8.363281 9.898438 8.585938 9.898438 8.808594 C 9.867188 8.96875 9.898438 9.136719 9.988281 9.269531 C 10.078125 9.40625 10.21875 9.5 10.375 9.527344 C 10.578125 9.613281 10.792969 9.679688 11.003906 9.746094 L 11.96875 10.0625 L 11.96875 5.144531 L 11.15625 5.144531 L 12.390625 3.058594 L 13.625 5.140625 L 12.8125 5.140625 L 12.8125 8.890625 C 12.894531 8.847656 12.976562 8.8125 13.0625 8.78125 L 14.324219 8.414062 C 14.527344 8.34375 14.726562 8.265625 14.921875 8.175781 C 15.152344 8.089844 15.296875 7.855469 15.273438 7.605469 C 15.273438 7.34375 15.273438 7.09375 15.273438 6.820312 L 14.890625 6.820312 L 14.890625 5.15625 L 16.53125 5.15625 Z M 16.523438 6.820312 "/>
</g>
</svg>
