<?xml version="1.0" encoding="UTF-8"?><svg id="Calque_2" xmlns="http://www.w3.org/2000/svg" viewBox="0 0 31.81 31.13"><defs><style>.cls-1{fill:#fff;stroke-width:0px;}</style></defs><g id="Calque_1-2"><g id="icon_speech_text_white"><path class="cls-1" d="M28.63,27.76c2.01-1.68,3.17-4.16,3.18-6.78-.09-5.06-4.26-9.09-9.32-9.01-5.06-.08-9.23,3.95-9.32,9.01.09,5.06,4.26,9.08,9.32,9.01.96,0,1.92-.14,2.84-.43l3.58,1.53c.06.03.13.04.2.04.12,0,.24-.05.34-.13.14-.13.2-.33.14-.51l-.96-2.73ZM23.82,25.16h-5.81c-.34,0-.62-.28-.62-.62,0-.34.28-.62.62-.62h5.81c.34,0,.62.28.62.62s-.28.62-.62.62ZM26.98,21.85h0s-8.98,0-8.98,0c-.34,0-.62-.28-.62-.62,0-.34.28-.62.62-.62h8.98c.34,0,.62.28.62.62,0,.34-.28.62-.62.62ZM26.98,18.54h0s-8.98,0-8.98,0c-.34,0-.62-.28-.62-.62,0-.34.28-.62.62-.62h8.98c.34,0,.62.28.62.62,0,.34-.28.62-.62.62Z"/><path class="cls-1" d="M14.4,16.57c1.23-.79,2.27-1.87,3-3.14-1.23.79-2.27,1.87-3,3.14Z"/><path class="cls-1" d="M18.2,11.63c.26-.83.42-1.71.43-2.62C18.54,3.95,14.38-.08,9.32,0,4.26-.08.09,3.95,0,9.01c.01,2.62,1.18,5.1,3.18,6.78l-.96,2.73c-.06.18,0,.39.14.51.09.08.22.13.34.13.07,0,.14-.01.2-.04l3.58-1.53c.92.28,1.88.43,2.84.43,1.17.02,2.29-.19,3.32-.57,1-2.6,3.03-4.7,5.56-5.81ZM7.98,7.91v-2.79c0-.74.6-1.34,1.34-1.34s1.34.6,1.34,1.34v2.79c0,.74-.6,1.34-1.34,1.34s-1.34-.6-1.34-1.34h0ZM7.94,13.89c.02.3-.2.56-.5.58-.02,0-.04,0-.06,0-.3,0-.55-.24-.55-.55,0-.01,0-.03,0-.04-.02-.3.21-.56.51-.58.02,0,.03,0,.05,0,.3,0,.55.23.55.53,0,.02,0,.03,0,.05ZM9.87,13.89c.02.3-.2.56-.5.58-.02,0-.04,0-.06,0-.3,0-.55-.24-.55-.55,0-.01,0-.03,0-.04-.02-.3.21-.56.51-.58.02,0,.03,0,.05,0,.3,0,.55.23.55.53,0,.02,0,.03,0,.05ZM11.79,13.89c.02.3-.2.56-.5.58-.02,0-.04,0-.06,0-.3,0-.55-.24-.55-.55,0-.01,0-.03,0-.04-.02-.3.21-.56.51-.58.02,0,.03,0,.05,0,.3,0,.55.24.55.53,0,.02,0,.03,0,.05ZM9.76,10.86v1.45c0,.24-.2.44-.44.44-.24,0-.44-.2-.44-.44h0v-1.45c-1.52-.2-2.72-1.39-2.95-2.91-.03-.24.13-.47.38-.5.24-.03.46.13.5.38.18,1.25,1.25,2.17,2.52,2.18,1.26,0,2.33-.93,2.52-2.18.03-.24.26-.41.5-.38.24.03.41.26.38.5,0,0,0,0,0,0-.22,1.52-1.43,2.71-2.95,2.91Z"/></g></g></svg>