<svg xmlns="http://www.w3.org/2000/svg" viewBox="0 0 56.69 56.69"><defs><style>.cls-1{fill:none;}.cls-2{fill:#fff;}</style></defs><g id="Calque_2" data-name="Calque 2"><g id="Calque_1-2" data-name="Calque 1"><g id="P5JS"><rect class="cls-1" width="56.69" height="56.69"/><path class="cls-2" d="M12.59,19.94C15.9,21,19,22,22,23c2.11.71,2.52.47,2.55-1.82,0-2.67,0-5.34,0-8,0-1.4.48-1.89,1.91-1.92,4.92-.1,4.91-.15,4.91,4.75,0,1.78,0,3.56,0,5.34.05,2.06.64,2.42,2.55,1.8,3-1,6.11-1.89,9.38-2.89A41.55,41.55,0,0,1,45,25.31c.1.51-.66,1.56-1.26,1.8a71.19,71.19,0,0,1-7.9,2.79c-2.21.62-1.44,1.73-.68,2.85C37,35.45,38.89,38.11,41,41c-1.64,1.24-3.1,2.46-4.69,3.46-.32.2-1.38-.28-1.74-.72-1.84-2.29-3.61-4.65-5.32-7-1-1.42-1.75-1.43-2.77,0-1.89,2.66-3.92,5.24-6.07,8.08-1.57-1.23-3.07-2.28-4.39-3.53-.3-.28-.19-1.39.13-1.87,1.56-2.32,3.25-4.56,4.89-6.83.92-1.28,1.17-2.17-.86-2.77-2.81-.82-5.5-2.06-8.27-3-1.12-.39-1.31-.92-.89-2C11.56,23.28,12,21.71,12.59,19.94Z"/></g></g></g></svg>