<svg xmlns="http://www.w3.org/2000/svg" width="32.12" height="27" viewBox="0 0 32.12 27"><defs><style>.a{fill:#fff;}</style></defs><path class="a" d="M169.765,296.2a2.326,2.326,0,0,0-4.014-1.5l-1.132,1.2c-.058-.462-.138-.947-.241-1.393a13.558,13.558,0,0,0-25.67-2.116c-.109.255-.21.513-.3.774-.039.113-.078.225-.116.337-.022.064-.169.6-.233.809a6.115,6.115,0,0,0-.165.7,13.555,13.555,0,0,0,5.587,13.7,13.238,13.238,0,0,0,5.7,2.261c.743.1,1.921.3,2.015-.779.047-.546,0-2.706,0-3.227,0-.449.11-1.01-.213-1.377a1.625,1.625,0,0,0-1.107-.42,7.1,7.1,0,0,1-2.739-1.046,7.941,7.941,0,0,1-3.4-4.579,7.683,7.683,0,0,1,11.2-8.689,8.157,8.157,0,0,1,3.651,4.718,6.153,6.153,0,0,1,.15.827l-.023-.019-1.624-1.5a2.328,2.328,0,0,0-3.286.13,2.328,2.328,0,0,0,.128,3.287l6.222,5.749a2.336,2.336,0,0,0,3.271-.111l5.7-6.036a2.306,2.306,0,0,0,.633-1.7Z" transform="translate(-137.651 -284.049)"/></svg>