<svg xmlns="http://www.w3.org/2000/svg" viewBox="-4 0 28 27.95"><defs><style>.cls-1{fill:#fff;}</style></defs><g id="Calque_2" data-name="Calque 2"><g id="Calque_1-2" data-name="Calque 1"><g id="ESP32"><path class="cls-1" d="M.81,0A.81.81,0,0,0,0,.81V27.14A.81.81,0,0,0,.81,28H18.59a.82.82,0,0,0,.81-.81V.81A.81.81,0,0,0,18.59,0ZM16.86.68a.25.25,0,0,1,.24.25V5.72a.25.25,0,0,1-.49,0V1.17H14.66V5.72a.25.25,0,0,1-.49,0V1.17H12.3V3.32a.25.25,0,0,1-.25.25H9.46a.25.25,0,0,1-.25-.25V1.17H7.06V3.32a.24.24,0,0,1-.24.25H4.28A.25.25,0,0,1,4,3.32V1.17H2V5.72a.25.25,0,0,1-.49,0V.93A.25.25,0,0,1,1.76.68H4.28a.25.25,0,0,1,.25.25V3.08h2V.93A.25.25,0,0,1,6.82.68H9.46A.25.25,0,0,1,9.7.93V3.08h2.11V.93a.25.25,0,0,1,.24-.25h4.81Zm-.57,12.5h-.68c0,.08,0,.14,0,.2v1.17a2.25,2.25,0,0,1-1.32,2.12,10.84,10.84,0,0,1-2.15.71,14.53,14.53,0,0,0-1.45.49.92.92,0,0,0-.63.94c0,.68,0,1.36,0,2,0,.12.08.14.15.17a2.08,2.08,0,1,1-1.67,0,.2.2,0,0,0,.13-.21,1,1,0,0,0-.8-1c-.43-.18-.88-.31-1.33-.45a5.44,5.44,0,0,1-1.78-.77,2.15,2.15,0,0,1-.93-1.75c0-.5,0-1,0-1.51A.4.4,0,0,0,3.64,15a1.29,1.29,0,0,1-.5-1.34,1.32,1.32,0,0,1,1-1.06A1.37,1.37,0,0,1,5.4,14.91a.53.53,0,0,0-.22.49c0,.37,0,.74,0,1.11A1.07,1.07,0,0,0,6,17.7c.34.14.7.25,1,.36l1.62.53V10.41H7.28L9.35,7l2.07,3.45H10.06v6.22a3.25,3.25,0,0,1,.43-.18l2.11-.61a10,10,0,0,0,1-.39.94.94,0,0,0,.59-.95c0-.43,0-.85,0-1.3h-.69V10.43h2.75Z"/></g></g></g></svg>
