<?xml version="1.0" encoding="UTF-8"?><svg id="Calque_2" xmlns="http://www.w3.org/2000/svg" viewBox="0 0 9.38 7.53"><defs><style>.cls-1{fill:#21b472;}.cls-2{fill:#fff;}</style></defs><g id="Calque_1-2"><g id="ia_x5F_Gimage_x5F_adacraft"><g id="icon"><path class="cls-2" d="M7.8,5.82c-.28.45-.87.61-1.34.37-.09-.05-.16,0-.16.1.02.24.03.48.05.72,0,.04.01.08,0,.11,0,.2.07.35.27.41h.12c.2-.07.29-.21.28-.42,0-.09,0-.18.01-.27,0-.14.02-.27.03-.41.04.23.07.45.07.68,0,.2.07.35.27.41h.12c.2-.07.28-.21.28-.42.02-.43.05-.85.07-1.27,0-.03-.02-.06-.03-.09-.03.02-.06.04-.08.06Z"/><path class="cls-2" d="M3.73,5.85s-.05-.06-.11-.05c-.07.01-.14.01-.23.01,0,.13.02.26.03.38.02.32.05.64.07.96,0,.2.09.33.28.39h.1c.22-.06.29-.21.29-.43,0-.23.03-.47.04-.7.03.25.06.5.07.75,0,.2.09.33.28.39h.1c.21-.06.29-.2.29-.42,0-.31.04-.62.06-.94-.02,0-.04.01-.06.02-.44.19-.95.04-1.22-.35Z"/><path class="cls-2" d="M9.38,2.55v-.08s-.02-.06-.02-.09c-.06-.34-.29-.58-.63-.65-.03,0-.05-.01-.08-.02.12-.32.09-.62-.15-.87-.27-.28-.59-.31-.93-.16-.21-.64-.94-.78-1.37-.31C6.04.14,5.83,0,5.55,0c-.28,0-.5.12-.66.33-.25-.15-.49-.17-.74-.06-.26.11-.4.32-.46.57-.18-.01-.34-.02-.51-.03-.1-.25-.28-.4-.57-.4-.31,0-.49.19-.58.48-.26-.13-.45-.12-.62.03-.16.15-.19.34-.09.62-.02.01-.04.03-.07.05-.31.19-.58.43-.8.72-.2.25-.36.52-.43.84-.09.41.09.7.48.82.04.01.09.02.13.03.46.08.89,0,1.32-.16.03-.01.07-.02.11-.04.02.45.24.72.66.82-.05.31.03.58.27.78.24.2.52.23.81.12.1.27.29.45.57.52.28.06.52-.01.73-.21.16.21.37.33.63.33.26,0,.47-.11.64-.32.23.21.48.28.78.2.29-.08.46-.29.55-.57.29.11.56.08.8-.11.24-.19.32-.46.29-.76.22-.07.39-.19.49-.39.04-.08.06-.16.1-.24v-.25c-.06-.23-.17-.42-.35-.54.06-.07.14-.13.18-.2.07-.14.12-.28.17-.43ZM1.21,2.67c-.12,0-.22-.11-.22-.25,0-.15.09-.27.21-.28.12,0,.23.11.23.26,0,.14-.1.27-.22.27Z"/></g><g id="text"><path class="cls-1" d="M4.33,1.87h.63l.92,2.43h-.62l-.15-.43h-.93l-.15.43h-.62l.92-2.43ZM4.34,3.4h.62l-.31-.92-.31.92Z"/><path class="cls-1" d="M6.45,3.84v-1.53h-.34v-.45h1.25v.45h-.33v1.53h.33v.45h-1.25v-.45h.34Z"/></g></g></g></svg>