<svg xmlns="http://www.w3.org/2000/svg" viewBox="0 0 56.69 56.69"><defs><style>.cls-1{fill:none;}.cls-2{fill:#fff;}</style></defs><g id="Calque_2" data-name="Calque 2"><g id="Calque_1-2" data-name="Calque 1"><g id="Http"><rect class="cls-1" width="56.69" height="56.69"/><path id="icon" class="cls-2" d="M33.57,13.35a8.92,8.92,0,0,1,5.53,1.74,9.06,9.06,0,0,1,3.64,6.3,9.21,9.21,0,0,1-1.41,6.34,8.72,8.72,0,0,1-5.14,3.79,8.41,8.41,0,0,1-5.9-.5,7,7,0,0,1-1.47-.87.3.3,0,0,0-.46.06c-.36.39-.74.76-1.1,1.15a.43.43,0,0,0-.18.33,3.07,3.07,0,0,1-1.17,2.6c-1.39,1.4-2.74,2.85-4.12,4.26-.75.76-1.44,1.58-2.25,2.27a2.27,2.27,0,0,1-3.15-.32,2.48,2.48,0,0,1,.13-3.31q3.3-3.42,6.61-6.83a2.16,2.16,0,0,1,1.79-.7.62.62,0,0,0,.58-.25,12.16,12.16,0,0,1,1-1,.38.38,0,0,0,.12-.52l-.05-.07a8.4,8.4,0,0,1-1.3-2.95,9.29,9.29,0,0,1-.07-4.13,9,9,0,0,1,4.39-6.2,8.25,8.25,0,0,1,4-1.16m-6,9.21a6.44,6.44,0,0,0,5.82,6.57,6.35,6.35,0,0,0,6.82-5.85.28.28,0,0,0,0-.09,6.35,6.35,0,1,0-12.6-1.64,5.65,5.65,0,0,0-.05,1"/></g></g></g></svg>