<svg xmlns="http://www.w3.org/2000/svg" width="24.91" height="24.69" viewBox="0 0 24.91 24.69">
<defs>
    <style>.b{fill:#FFF;}</style>
</defs>
    <g transform="translate(0.41 0.325)">
        <path class="b" d="M-704.39-34.089a1.7,1.7,0,0,1-1.7-1.7v-6.528a1.7,1.7,0,0,1,1.7-1.7h6.527a1.7,1.7,0,0,1,1.7,1.7,1.7,1.7,0,0,1-1.7,1.7h-4.829v4.83A1.7,1.7,0,0,1-704.39-34.089Zm-7.459,0a1.7,1.7,0,0,1-1.7-1.7v-4.83h-4.831a1.7,1.7,0,0,1-1.7-1.7,1.7,1.7,0,0,1,1.7-1.7h6.528a1.7,1.7,0,0,1,1.7,1.7v6.528A1.7,1.7,0,0,1-711.849-34.089Zm13.982-13.77h-6.526a1.7,1.7,0,0,1-1.7-1.7v-6.526a1.7,1.7,0,0,1,1.7-1.7,1.7,1.7,0,0,1,1.7,1.7v4.828h4.829a1.7,1.7,0,0,1,1.7,1.7A1.7,1.7,0,0,1-697.866-47.859Zm-13.985,0h-6.528a1.7,1.7,0,0,1-1.7-1.7,1.7,1.7,0,0,1,1.7-1.7h4.83v-4.828a1.7,1.7,0,0,1,1.7-1.7,1.7,1.7,0,0,1,1.7,1.7v6.526A1.7,1.7,0,0,1-711.851-47.859Z" transform="translate(720.167 57.954)"/>
    </g>
</svg>