<?xml version="1.0" encoding="UTF-8"?>
<svg xmlns="http://www.w3.org/2000/svg" xmlns:xlink="http://www.w3.org/1999/xlink" width="27px" height="25px" viewBox="0 0 27 25" version="1.1">
<g id="surface1">
<path style=" stroke:none;fill-rule:nonzero;fill:rgb(13.333333%,70.980392%,45.098039%);fill-opacity:1;" d="M 17.566406 24.972656 L 18.257812 24.222656 L 26.210938 24.222656 C 26.613281 24.222656 26.992188 23.988281 26.984375 23.605469 L 26.984375 3.738281 L 26.210938 2.949219 L 11.839844 2.949219 L 10.960938 2.082031 L 10.960938 0.625 L 10.324219 0 L 0.664062 0 L 0.015625 0.695312 L 0.015625 23.820312 C 0.191406 24.003906 0.40625 24.140625 0.644531 24.222656 L 4.460938 24.222656 L 5.285156 24.972656 Z M 18.058594 11.25 L 17.59375 11.25 C 17.589844 11.300781 17.589844 11.347656 17.59375 11.398438 L 17.59375 12.203125 C 17.609375 12.832031 17.246094 13.414062 16.675781 13.671875 C 16.199219 13.894531 15.699219 14.0625 15.1875 14.171875 C 14.847656 14.269531 14.496094 14.378906 14.183594 14.503906 C 13.90625 14.59375 13.730469 14.867188 13.757812 15.15625 C 13.757812 15.636719 13.757812 16.105469 13.757812 16.542969 C 13.757812 16.628906 13.804688 16.632812 13.851562 16.65625 C 14.476562 16.929688 14.824219 17.605469 14.683594 18.273438 C 14.542969 18.941406 13.957031 19.417969 13.273438 19.417969 C 12.59375 19.417969 12.007812 18.941406 11.867188 18.273438 C 11.726562 17.605469 12.074219 16.929688 12.699219 16.65625 C 12.757812 16.636719 12.800781 16.578125 12.792969 16.515625 C 12.800781 16.179688 12.570312 15.890625 12.242188 15.824219 C 11.9375 15.703125 11.625 15.613281 11.316406 15.515625 C 10.875 15.40625 10.460938 15.226562 10.082031 14.976562 C 9.6875 14.703125 9.449219 14.253906 9.441406 13.769531 C 9.441406 13.414062 9.441406 13.074219 9.441406 12.714844 C 9.449219 12.617188 9.402344 12.527344 9.324219 12.472656 C 9.03125 12.257812 8.894531 11.890625 8.976562 11.535156 C 9.042969 11.175781 9.3125 10.886719 9.667969 10.800781 C 10.097656 10.683594 10.550781 10.878906 10.761719 11.273438 C 11 11.679688 10.898438 12.199219 10.527344 12.484375 C 10.421875 12.5625 10.363281 12.6875 10.375 12.820312 C 10.375 13.074219 10.375 13.332031 10.375 13.589844 C 10.316406 13.96875 10.558594 14.332031 10.933594 14.421875 C 11.167969 14.519531 11.410156 14.589844 11.625 14.671875 L 12.746094 15.039062 L 12.746094 9.328125 L 11.828125 9.328125 L 13.265625 6.9375 L 14.6875 9.328125 L 13.75 9.328125 L 13.75 13.644531 C 13.84375 13.597656 13.945312 13.554688 14.046875 13.519531 C 14.53125 13.382812 15.019531 13.25 15.503906 13.097656 C 15.742188 13.019531 15.972656 12.933594 16.195312 12.832031 C 16.464844 12.730469 16.632812 12.460938 16.605469 12.175781 C 16.605469 11.875 16.605469 11.578125 16.605469 11.265625 L 16.128906 11.265625 L 16.128906 9.351562 L 18.03125 9.351562 Z M 18.058594 11.25 "/>
</g>
</svg>
