<svg xmlns="http://www.w3.org/2000/svg" width="25.814" height="24.783" viewBox="0 0 25.814 24.783">
  <path id="icon" d="M-1275.524-668.762h-.567l-.3-.147-.045-.022-2.9-1.431,2.887-3.6-.126.024a.916.916,0,0,0-.147.034l-1.1.392c-.951.339-1.929.688-2.882,1.053a3.511,3.511,0,0,1-1.252.247,3,3,0,0,1-1.436-.373,14.989,14.989,0,0,1-1.493-.954c-.152-.107-.22-.191-.221-.27s.072-.17.25-.3c.125-.089.3-.286.267-.365a.583.583,0,0,0-.382-.332,3.644,3.644,0,0,0-.45-.022h-.335c-.124,0-.271,0-.418-.016l-.078-.008a2.671,2.671,0,0,1-.993-.229c-1.087-.6-2.176-1.227-3.228-1.837l-.018-.01q-.547-.317-1.1-.633c-.067-.039-.133-.081-.224-.14l-.109-.07.638-.13c.481-.1.932-.188,1.382-.293a17.952,17.952,0,0,0,8.484-4.417.882.882,0,0,1,.6-.3,1.1,1.1,0,0,1,.527.17c2.969,1.654,6.129,3.416,9.261,5.168.6.334.717.653.472,1.265a22.575,22.575,0,0,1-4,6.8,3.213,3.213,0,0,1-.658.517c-.11.072-.222.146-.327.223Zm5.81-10.455h0l-2.175-1.219c-.87-.488-1.731-.971-2.593-1.453q-1.074-.6-2.148-1.194t-2.153-1.2c-.349-.195-.5-.332-.53-.489s.049-.345.294-.668c.084-.111.175-.224.278-.345a2.354,2.354,0,0,1,1.812-1.032,3.171,3.171,0,0,1,1.3.337,2.678,2.678,0,0,0,.941.321c.321,0,.515-.257.924-.839,1.161-1.652,2.234-3.171,3.28-4.643a3.764,3.764,0,0,1,.445-.52,1.2,1.2,0,0,1,.842-.386,1.3,1.3,0,0,1,.63.18,1.153,1.153,0,0,1,.625,1.351,4.089,4.089,0,0,1-.252.72q-.571,1.3-1.143,2.6l-.016.036-.023.052q-.584,1.327-1.167,2.654c-.355.808-.276,1.074.472,1.577a1.983,1.983,0,0,1,.94,2.555c-.107.358-.24.708-.38,1.077-.066.174-.132.346-.2.524Zm-19.166-2.353h0a2.006,2.006,0,0,1-1.429-.593,1.957,1.957,0,0,1-.576-1.4,1.975,1.975,0,0,1,2-1.979,1.942,1.942,0,0,1,1.993,1.979A1.971,1.971,0,0,1-1288.88-681.57Zm-2-4.968a.989.989,0,0,1-.708-.286.994.994,0,0,1-.281-.713.956.956,0,0,1,.992-.981.95.95,0,0,1,.995.992A.971.971,0,0,1-1290.881-686.538Z" transform="translate(1293.219 693.045)" stroke="rgba(0,0,0,0)" stroke-miterlimit="10" stroke-width="1"/>
</svg>
