<svg xmlns="http://www.w3.org/2000/svg" width="24" height="30.565" viewBox="0 0 24 30.565">
  <g id="icon-wiring" transform="translate(-383.199 1729.638) rotate(-90)">
    <path id="Tracé_6227" data-name="Tracé 6227" d="M1765.894,390.429a.846.846,0,0,0-.845-.846h-5.661v1.691h5.661A.846.846,0,0,0,1765.894,390.429Z" transform="translate(-36.325 -3.845)" fill="#000"/>
    <path id="Tracé_6228" data-name="Tracé 6228" d="M1724.02,395.732h-19.328a3.931,3.931,0,0,1-3.927-3.927v-.448a3.932,3.932,0,0,1,3.927-3.927h2.088a1.984,1.984,0,0,0,.9,1l2.714,1.455a1.192,1.192,0,0,0,.564.142h9.362a1.193,1.193,0,0,0,1.193-1.193v-4.442a1.193,1.193,0,0,0-1.193-1.193h-9.424a1.192,1.192,0,0,0-.558.139l-2.648,1.4a1.983,1.983,0,0,0-.906,1h-2.091a5.625,5.625,0,0,0-5.618,5.618v.448a5.625,5.625,0,0,0,5.618,5.618h19.328a3.932,3.932,0,0,1,3.927,3.927v.23a3.932,3.932,0,0,1-3.927,3.927h-15.231a.846.846,0,0,0,0,1.691h15.231a5.625,5.625,0,0,0,5.618-5.618v-.23A5.625,5.625,0,0,0,1724.02,395.732Z" fill="#000"/>
  </g>
</svg>
