<?xml version="1.0" standalone="no"?>
<!DOCTYPE svg PUBLIC "-//W3C//DTD SVG 20010904//EN"
 "http://www.w3.org/TR/2001/REC-SVG-20010904/DTD/svg10.dtd">
<svg version="1.0" xmlns="http://www.w3.org/2000/svg"
 width="410.000000pt" height="410.000000pt" viewBox="0 0 410.000000 410.000000"
 preserveAspectRatio="xMidYMid meet">

<g transform="translate(0.000000,410.000000) scale(0.100000,-0.100000)"
fill="#000000" stroke="none">
<path d="M340 2070 l0 -1710 375 0 375 0 0 1335 0 1335 70 0 70 0 0 -1335 0
-1335 820 0 820 0 0 1335 0 1335 70 0 70 0 0 -1335 0 -1335 375 0 375 0 0
1710 0 1710 -820 0 -820 0 0 -1335 0 -1335 -70 0 -70 0 0 1335 0 1335 -820 0
-820 0 0 -1710z m3170 -1240 l0 -170 -100 0 -100 0 0 170 0 170 100 0 100 0 0
-170z"/>
</g>
</svg>
