<svg xmlns="http://www.w3.org/2000/svg" width="24.188" height="27.493" viewBox="0 0 24.188 27.493"><defs><style>.a{fill:#fff;}.b{fill:#ccc;}</style></defs><g transform="translate(-260.906 -16.658)"><path class="a" d="M388.9,136.88H374.131a4.714,4.714,0,0,1-4.708-4.708V114.095a4.714,4.714,0,0,1,4.708-4.708H388.9a4.714,4.714,0,0,1,4.708,4.708v18.078A4.714,4.714,0,0,1,388.9,136.88Z" transform="translate(-108.517 -92.729)"/><g transform="translate(-410.222 -353.02)"><circle class="b" cx="3" cy="3" r="3" transform="translate(674.237 387.173)"/><path class="b" d="M676.1,381.157h-.118a1.784,1.784,0,0,0,.091,3.567,6.688,6.688,0,0,1,6.675,6.663h0a1.785,1.785,0,0,0,3.569,0A10.256,10.256,0,0,0,676.1,381.157Z"/><path class="b" d="M676.1,375.273h-.118a1.784,1.784,0,0,0,.091,3.566,12.594,12.594,0,0,1,12.568,12.548h0a1.785,1.785,0,0,0,3.57,0A16.163,16.163,0,0,0,676.1,375.273Z"/></g></g></svg>