<svg xmlns="http://www.w3.org/2000/svg" width="24.128" height="24.242" viewBox="0 0 24.128 24.242">
  <g id="icon-write" transform="translate(0.128 0.131)">
    <rect id="Boundary" width="24" height="24" fill="none"/>
    <path id="Tracé_6667" data-name="Tracé 6667" d="M0,0S5.209.862,5.209,5.439,0,10.226,0,15.6s7.209,6.367,7.209,6.367" transform="translate(1.022 1.019)" fill="none" stroke="#fff" stroke-linecap="round" stroke-linejoin="round" stroke-width="2"/>
    <path id="icon" d="M-1338.641-7554.64a.333.333,0,0,1-.236-.1.334.334,0,0,1-.084-.315l1.067-4.218,0-.008a.084.084,0,0,1,.008-.021.1.1,0,0,0,.008-.016.294.294,0,0,1,.057-.093.038.038,0,0,0,.005-.01.035.035,0,0,1,.006-.01l8.77-8.69,3.666,3.664-8.764,8.685-.009.006a.054.054,0,0,0-.012.009.242.242,0,0,1-.039.025l-.015.009a.267.267,0,0,1-.059.027l-.007,0a.049.049,0,0,1-.016.008l-4.271,1.031A.349.349,0,0,1-1338.641-7554.64Zm.777-2.045h0l-.317,1.257,1.3-.313a4.388,4.388,0,0,0-.374-.489,5.528,5.528,0,0,0-.612-.454Zm.517-2.054h0l-.345,1.371a7.152,7.152,0,0,1,.906.666,6.841,6.841,0,0,1,.6.794l1.345-.323a3.182,3.182,0,0,0-.338-.576,2.031,2.031,0,0,0-.411-.215,2.175,2.175,0,0,1-.625-.355,2.408,2.408,0,0,1-.411-.672l-.017-.034a2.04,2.04,0,0,0-.237-.415A2.488,2.488,0,0,0-1337.346-7558.738Zm12.448-6.181h0l-3.666-3.664,1.256-1.246a1.518,1.518,0,0,1,1.08-.407,2.253,2.253,0,0,1,1.546.651l.807.8a2.187,2.187,0,0,1,.675,1.523,1.511,1.511,0,0,1-.434,1.087l-1.262,1.252Z" transform="translate(1347.202 7577.411)" fill="#fff"/>
  </g>
</svg>
