<svg id="icon-orthonormal" xmlns="http://www.w3.org/2000/svg" width="23.43" height="23.43" viewBox="0 0 23.43 23.43">
  <path id="Tracé_4899" data-name="Tracé 4899" d="M1067.1,575.546l-3.427-2.743a1.429,1.429,0,0,0-2.322,1.116v1.313H1045.63a1.429,1.429,0,0,0,0,2.857h15.716V579.4a1.43,1.43,0,0,0,2.322,1.116l3.427-2.743a1.428,1.428,0,0,0,0-2.23Z" transform="translate(-1044.201 -560.946)" fill="#fff"/>
  <path id="Tracé_6665" data-name="Tracé 6665" d="M1067.1,575.546l-3.427-2.743a1.429,1.429,0,0,0-2.322,1.116v1.313H1045.63a1.429,1.429,0,0,0,0,2.857h15.716V579.4a1.43,1.43,0,0,0,2.322,1.116l3.427-2.743a1.428,1.428,0,0,0,0-2.23Z" transform="translate(-567.946 1067.631) rotate(-90)" fill="#fff"/>
</svg>
