<svg xmlns="http://www.w3.org/2000/svg" width="24" height="22.5" viewBox="0 0 24 22.5"><defs><style>.a{fill:#fff;}</style></defs><path class="a" d="M-1925.144-4057.728v-17.718a.447.447,0,0,0,.038-.084,2.7,2.7,0,0,1,2.762-2.3q9.209,0,18.418,0a2.7,2.7,0,0,1,2.777,2.766q.008,8.481-.005,16.964a2.978,2.978,0,0,1-.152.941,2.69,2.69,0,0,1-2.646,1.823q-7.065,0-14.131,0c-1.436,0-2.873.007-4.311,0a2.613,2.613,0,0,1-2.39-1.383A5.957,5.957,0,0,1-1925.144-4057.728Zm12.186-.122q4.006,0,8.013,0a3.908,3.908,0,0,0,.421-.017.553.553,0,0,0,.479-.868,2.148,2.148,0,0,0-.17-.281q-1.369-1.956-2.741-3.911a1.067,1.067,0,0,0-1.8-.16c-.333.33-.645.683-1,.99a1.663,1.663,0,0,1-.677.381,1.105,1.105,0,0,1-1.175-.543q-1.7-2.236-3.415-4.466c-.356-.464-.7-.939-1.078-1.386a.723.723,0,0,0-1.294.127c-.037.059-.07.122-.1.185q-2.184,4.322-4.364,8.646a2.091,2.091,0,0,0-.173.457.621.621,0,0,0,.455.78,2.179,2.179,0,0,0,.578.063Q-1916.977-4057.848-1912.958-4057.85Zm5.953-13.322a2.632,2.632,0,0,0-2.618-2.627,2.637,2.637,0,0,0-2.626,2.62,2.63,2.63,0,0,0,2.619,2.625A2.624,2.624,0,0,0-1907-4071.172Z" transform="translate(1925.144 4077.836)"/></svg>