<svg width="63" height="54" viewBox="0 0 63 54" fill="none" xmlns="http://www.w3.org/2000/svg">
<path d="M51.98 53.42C51.6 53.42 51.22 53.28 50.93 52.99L46.46 48.57C45.87 47.99 45.87 47.04 46.45 46.45C47.03 45.86 47.98 45.86 48.57 46.44L51.95 49.78C56.6 44.63 59.14 38.03 59.14 31.04C59.14 15.58 46.55 3 31.08 3C15.61 3 3 15.58 3 31.04C3 37.68 5.52 44.34 9.96 49.54L13.39 46.2C13.98 45.62 14.93 45.63 15.51 46.23C16.09 46.82 16.08 47.77 15.48 48.35L10.93 52.78C10.64 53.06 10.24 53.21 9.85 53.21C9.45 53.21 9.07 53.03 8.79 52.74C3.21 46.83 0 38.93 0 31.04C0 13.92 13.94 0 31.06 0C48.18 0 62.12 13.92 62.12 31.04C62.12 39.33 58.89 47.12 53.03 52.98C52.74 53.27 52.35 53.42 51.97 53.42H51.98Z" fill="#CCCCCC"/>
</svg>
