<?xml version="1.0" encoding="UTF-8"?><svg xmlns="http://www.w3.org/2000/svg" viewBox="0 0 53.59 46.39"><defs><style>.f{fill:#ff9403;}.g{fill:#ce574e;}.h{fill:#24a069;}</style></defs><g id="a"/><g id="b"><g id="c"><g id="d"><g id="e"><path class="h" d="M8.48,46.39C3.17,41.3,0,33.97,0,26.78c0-3.61,.71-7.12,2.1-10.42l5.22,2.21c-1.1,2.6-1.66,5.36-1.66,8.21,0,5.67,2.52,11.48,6.73,15.52l-3.92,4.09Z"/><path class="f" d="M7.33,18.57l-5.22-2.21c1.98-4.68,5.25-8.7,9.45-11.6l3.23,4.66c-3.31,2.29-5.89,5.46-7.45,9.15Z"/><path class="g" d="M45.41,46.05l-3.94-4.08c4.16-4.02,6.45-9.41,6.45-15.18,0-11.64-9.48-21.11-21.14-21.11-4.32,0-8.47,1.29-12.01,3.74l-3.22-4.66C16.04,1.64,21.31,0,26.78,0c14.78,0,26.81,12.02,26.81,26.78,0,7.33-2.91,14.17-8.18,19.26Z"/></g></g></g></g></svg>