<svg xmlns="http://www.w3.org/2000/svg" viewBox="0 0 62.13 54.2"><defs><style>.cls-1{fill:#ccc;}</style></defs><g id="Calque_2" data-name="Calque 2"><g id="Calque_1-2" data-name="Calque 1"><path class="cls-1" d="M31.06,0A31.09,31.09,0,0,0,0,31,32.18,32.18,0,0,0,9.84,53.78a1.5,1.5,0,0,0,1,.42,1.45,1.45,0,0,0,1-.4l4.72-4.64a1.51,1.51,0,0,0,0-2.12,1.49,1.49,0,0,0-2.12,0l-3.57,3.57A29.27,29.27,0,0,1,3.07,32.8H8.91a1.5,1.5,0,0,0,0-3H3a27.92,27.92,0,0,1,7.31-17.65L14.16,16a1.52,1.52,0,0,0,1.06.43A1.45,1.45,0,0,0,16.28,16a1.49,1.49,0,0,0,0-2.12l-3.79-3.79A27.94,27.94,0,0,1,29.91,3V8.8a1.5,1.5,0,0,0,3,0V3.07a28,28,0,0,1,17.14,7.34l-3.77,3.76a1.5,1.5,0,0,0,1.06,2.56,1.49,1.49,0,0,0,1.06-.44l3.74-3.74a27.93,27.93,0,0,1,7,17.25H53.91a1.5,1.5,0,0,0,0,3h5.16a27.72,27.72,0,0,1-7.51,17.39l-3.94-3.93a1.5,1.5,0,0,0-2.12,2.12l4,3.94,1.14,1.06a1.5,1.5,0,0,0,2.06,0A31,31,0,0,0,31.06,0Z"/></g></g></svg>