<?xml version="1.0" encoding="UTF-8"?><svg xmlns="http://www.w3.org/2000/svg" viewBox="0 0 62.13 61.82"><defs><style>.j{fill:none;stroke:#ccc;stroke-linecap:round;stroke-linejoin:round;stroke-width:3px;}.k{fill:#ccc;}</style></defs><g id="a"/><g id="b"><g id="c"><g id="d"><g id="e"><path class="k" d="M51.97,53.42c-.38,0-.76-.14-1.05-.43l-4.47-4.42c-.59-.58-.59-1.53-.01-2.12,.58-.59,1.53-.59,2.12-.01l3.38,3.34c4.65-5.15,7.19-11.75,7.19-18.74,0-15.46-12.59-28.04-28.06-28.04S3,15.58,3,31.04c0,6.64,2.52,13.3,6.96,18.5l3.43-3.34c.59-.58,1.54-.57,2.12,.03,.58,.59,.57,1.54-.03,2.12l-4.55,4.43c-.29,.28-.64,.43-1.08,.43-.4,0-.78-.18-1.06-.47C3.21,46.83,0,38.93,0,31.04,0,13.92,13.93,0,31.06,0s31.06,13.92,31.06,31.04c0,8.29-3.23,16.08-9.09,21.94-.29,.29-.68,.44-1.06,.44Z"/><g><g id="f"><line class="j" x1="7.98" y1="27.32" x2="2.06" y2="26.32"/></g><g id="g"><line class="j" x1="20.66" y1="10.25" x2="17.99" y2="4.88"/></g><g id="h"><line class="j" x1="41.91" y1="10.48" x2="44.69" y2="5.16"/></g><g id="i"><line class="j" x1="54.23" y1="27.81" x2="60.16" y2="26.93"/></g></g></g></g></g></g></svg>