<?xml version="1.0" encoding="utf-8"?>
<!-- Generator: Adobe Illustrator 22.1.0, SVG Export Plug-In . SVG Version: 6.00 Build 0)  -->
<svg version="1.1" id="Calque_1" xmlns="http://www.w3.org/2000/svg" xmlns:xlink="http://www.w3.org/1999/xlink" x="0px" y="0px"
	 viewBox="0 0 500 196" style="enable-background:new 0 0 500 196;" xml:space="preserve">
<style type="text/css">
	.st0{fill:#E31013;}
	.st1{fill:#F07F19;}
	.st2{fill:#15B5BE;}
	.st3{fill:none;}
</style>
<g>
	<g>
		<path d="M418.5,133.9v-17.4h-17.6v9.5c1.9,0.2,3.8,0.6,5.5,1.1C411.1,128.6,415.1,130.9,418.5,133.9z"/>
		<path d="M434.3,176.8c-0.3,1.4-0.7,2.8-1.2,4.1c-1.8,4.6-4.4,8.8-7.7,12.4h19v-16.6H434.3z"/>
		<path class="st0" d="M434.3,176.8h-15.8v-42.9c-3.4-3-7.4-5.3-12-6.8c-1.8-0.6-3.6-0.9-5.5-1.1v67.4h24.6
			c3.3-3.6,5.9-7.8,7.7-12.4C433.7,179.6,434.1,178.2,434.3,176.8z"/>
	</g>
	<g>
		<path d="M226.4,189.4v-12.6h-26v-15.3h23.9V145h-23.9V133H221c-10.9-7.4-23.7-13.2-38.3-15.9v55.2c5.2,2.5,10.4,4.8,15.6,7.1
			C207.6,183.2,216.9,186.6,226.4,189.4z"/>
		<path class="st1" d="M226.4,189.4c-9.5-2.8-18.8-6.2-28-10c-5.3-2.2-10.5-4.6-15.6-7.1v21.1h43.6V189.4z"/>
		<path class="st2" d="M226.4,133v-16.6h-43.6v0.7c14.6,2.7,27.3,8.5,38.3,15.9H226.4z"/>
		<polygon class="st2" points="204.3,93.5 194.1,109.9 213.6,109.9 223.8,93.5 		"/>
	</g>
	<g>
		<polygon class="st3" points="28.6,169 41.8,169 35.2,154.3 		"/>
		<path d="M52.5,151.4l-4.5-10c-12.3,10.9-25.1,21.2-38.4,30.9L0,193.4h17.6l4-8.8H38c2.3-5.7,4.7-11.4,7.1-17.1
			C47.5,162.1,49.9,156.7,52.5,151.4z M28.6,169l6.6-14.7l6.6,14.7H28.6z"/>
		<path class="st0" d="M52.5,151.4c-2.5,5.4-4.9,10.7-7.3,16.2c-2.5,5.7-4.8,11.4-7.1,17.1h10.9l4,8.8h18.5L52.5,151.4z"/>
		<path class="st2" d="M36.2,115.4h-1L9.5,172.3c13.3-9.7,26.1-20,38.4-30.9L36.2,115.4z"/>
		<polygon class="st2" points="45.5,109.9 35.3,93.5 15.8,93.5 26,109.9 		"/>
	</g>
	<g>
		<path d="M127.4,141.5v-25.1h-17.6v12.9C113.6,132.6,119.8,136.8,127.4,141.5z"/>
		<path class="st1" d="M109.8,193.4h43.6v-16.6h-26v-35.3c-7.6-4.7-13.8-8.9-17.6-12.2V193.4z"/>
	</g>
	<path d="M152,141.3v-28.1h17.6v28.1H152z"/>
	<g>
		<path d="M283.3,133c3.1,1,6.1,2.6,9.2,5.2l10-12.9c-7.1-6.1-15.7-9.6-24.9-9.8c1.2,2.8,2.3,5.7,3.3,8.7
			C281.8,127,282.6,130,283.3,133z"/>
		<path d="M294.1,190.3c3.1-1.6,6-3.6,8.7-6l-10-12.9c-1,0.8-2,1.6-3,2.3c0,0.1,0,0.1,0.1,0.2C291.6,179.3,293,184.8,294.1,190.3z"
			/>
		<path d="M237.6,146.8c-0.6,2.6-0.9,5.4-0.9,8.1c0,18.4,12.7,33.9,29.7,38.3C262.5,179.8,252.8,162,237.6,146.8z"/>
		<path class="st2" d="M276.3,194.5c6.2,0,12.2-1.4,17.7-4.2c-1.1-5.5-2.5-11-4.1-16.4c0-0.1,0-0.1-0.1-0.2
			c-4.4,2.9-8.6,4.2-13.5,4.2c-12.1,0-22-9.9-22-23c0-13.1,9.9-23,22-23c2.5,0,4.7,0.3,7,1c-0.7-3-1.5-6-2.4-8.9
			c-1-3-2.1-5.9-3.3-8.7c-0.4,0-0.8,0-1.2,0c-19,0-34.9,13.5-38.7,31.4c15.2,15.2,24.9,33,28.9,46.5
			C269.7,194.1,273,194.5,276.3,194.5z"/>
	</g>
	<g>
		<path class="st3" d="M368.9,154.9c0-1.1-0.1-2.2-0.2-3.3c-0.4-3.3-1.5-6.4-3.1-9.1c0,0,0,0,0-0.1c-3.2-5.3-8.5-9-14.6-10.2
			c-1.3-0.2-2.7-0.4-4-0.4c-4.5,0-8.7,1.4-12.2,3.7c-5.9,4-9.8,11-9.8,19.2c0,13.1,9.9,23,22,23c2.4,0,4.8-0.4,7-1.2
			C362.6,173.8,368.9,165.4,368.9,154.9z"/>
		<path d="M353.9,176.8c-2.2,0.7-4.6,1.2-7,1.2c-12.1,0-22-9.9-22-23c0-8.2,3.9-15.2,9.8-19.2c-1.4-5.6-2.7-11.2-4.2-16.7
			c-13.6,6.3-23.2,20-23.2,36c0,21.8,17.8,39.6,39.6,39.6c5.6,0,10.9-1.2,15.7-3.3C359.8,186.4,356.9,181.5,353.9,176.8z"/>
		<path class="st2" d="M346.9,131.9c1.4,0,2.7,0.1,4,0.4l2.4-16.4c-2.1-0.3-4.2-0.5-6.4-0.5c-5.9,0-11.4,1.3-16.4,3.6
			c1.5,5.5,2.8,11.2,4.2,16.7C338.2,133.3,342.4,131.9,346.9,131.9z"/>
		<path class="st0" d="M368.9,154.9c0,10.5-6.3,18.9-15,21.8c3,4.8,5.9,9.6,8.7,14.5c14-6.1,23.8-20.1,23.8-36.3
			c0-4.7-0.8-9.3-2.4-13.5l-15.4,10.2C368.9,152.7,368.9,153.8,368.9,154.9z"/>
		<path class="st1" d="M378,130.4c-4.9-6.2-11.6-10.9-19.3-13.3c-1.7-0.5-3.5-0.9-5.3-1.2l-2.4,16.4c6.1,1.1,11.4,4.9,14.6,10.2
			c0,0,0,0,0,0.1c1.6,2.7,2.7,5.7,3.1,9.1l15.4-10.2C382.6,137.4,380.5,133.7,378,130.4z"/>
	</g>
	<g>
		<path d="M474,166.8v-5.2h23.9V145H474v-11.4c-3.9-5.5-7.5-11.2-10.8-17.1h-6.8v55.7C462.3,170.5,468.2,168.7,474,166.8z"/>
		<path class="st1" d="M474,133h26v-16.6h-36.8c3.2,5.9,6.8,11.7,10.8,17.1V133z"/>
		<path class="st2" d="M456.4,193.4H500v-16.6h-26v-10c-5.8,1.9-11.7,3.7-17.6,5.4V193.4z"/>
	</g>
	<g>
		<path d="M37.8,12.1c2.6,1.2,5.1,2.8,7.7,4.9l4.1-5.4C46,8.6,42.4,6.4,38.8,5C38.7,7.4,38.3,9.7,37.8,12.1z"/>
		<path d="M34.1,57.6c0,0.2,0,0.3,0,0.5c2.3,1.4,4.6,2.9,6.7,4.7c0.8-1.6,1.2-3.3,1.2-5.1c0-9.6-10.4-13.1-19.6-17.5
			c-1.9,1.8-3.9,3.4-6,4.9C25,49.3,34.1,51.6,34.1,57.6z"/>
		<path class="st1" d="M26.2,2.5C12.4,2.5,1,12.6,1,24.3C1,35.6,8.5,41.1,16.4,45c2.1-1.5,4.1-3.1,6-4.9
			c-7.1-3.5-13.5-7.6-13.5-15.8c0-8,7.5-14.8,17.3-14.8c4,0,7.8,0.8,11.6,2.6c0.5-2.3,0.8-4.7,1-7.1C34.7,3.3,30.6,2.5,26.2,2.5z"/>
		<path class="st2" d="M25.7,64.1c-5.1,0-10-2.1-15.9-6.9l-4.4,5.7c6.8,5.5,13.1,8.3,20.3,8.3c7.2,0,12.8-3.6,15-8.4
			c-2.1-1.7-4.4-3.3-6.7-4.7C33.8,61.9,30.7,64.1,25.7,64.1z"/>
	</g>
	<g>
		<path d="M23.8,38.7c9.3,4.5,20.1,8.2,20.1,19c0,2.3-0.6,4.4-1.6,6.4c1.9,1.7,3.7,3.6,5.4,5.6c2.6-3.5,4.1-7.6,4.1-12
			c0-15.3-13.7-20-23.4-24.4c-1,1.3-2,2.6-3.1,3.8C24.8,37.6,24.3,38.2,23.8,38.7z"/>
		<path d="M40,24.2l4.5-5.9c-2.4-1.9-4.7-3.4-7.1-4.5c-0.6,2.4-1.4,4.8-2.3,7.1C36.7,21.7,38.3,22.8,40,24.2z"/>
		<path class="st1" d="M26.2,18.3c2.9,0,5.8,0.8,8.9,2.6c0.9-2.3,1.7-4.7,2.3-7.1c-3.6-1.7-7.3-2.5-11.2-2.5
			c-8.8,0-15.4,6.1-15.4,13c0,7.3,6,11.1,12.9,14.4c0.5-0.5,1-1,1.5-1.6c1.1-1.2,2.1-2.5,3.1-3.8c-5.4-2.5-9.6-4.8-9.6-9
			C18.7,20.6,21.9,18.3,26.2,18.3z"/>
		<path class="st2" d="M42.3,64.1c-2.8,5.2-8.8,8.9-16.6,8.9c-7.5,0-14.3-2.8-21.5-8.6L0,69.8c8.7,7,16.7,10.1,25.7,10.1
			c9.3,0,17.3-4.2,21.9-10.3C46,67.6,44.2,65.8,42.3,64.1z"/>
	</g>
	<g>
		<path d="M86.7,53.5v24.3h7.4V44.6C91.7,47.6,89.3,50.6,86.7,53.5z"/>
		<path class="st2" d="M94.2,20.4h18.6v-7h-26v40.2c2.5-3,5-6,7.4-9V20.4z"/>
	</g>
	<g>
		<path d="M77.4,64.4v13.4h7.4V55.7C82.4,58.6,79.9,61.5,77.4,64.4z"/>
		<path class="st2" d="M84.9,13.3h-26v7h18.6v44.1c2.5-2.9,5-5.8,7.4-8.7V13.3z"/>
	</g>
	<rect x="58.9" y="4.6" class="st2" width="53.9" height="7"/>
	<g>
		<path d="M164.5,67.1l4.8,10.8h7.8l-8.9-19.8C167,61.1,165.8,64.1,164.5,67.1z"/>
		<path class="st0" d="M143.6,3.5h-0.9l-33.6,74.4h7.4L143,19.4l21.5,47.7c1.3-3,2.5-6,3.8-9L143.6,3.5z"/>
	</g>
	<g>
		<path d="M159.8,77.9h7.5l-3.8-8.5C162.3,72.2,161.1,75,159.8,77.9z"/>
		<path class="st0" d="M160.7,62.9h-35.5l-6.7,15h7.4l3.8-8.4h26l3.8,8.4h0.3c1.3-2.8,2.5-5.7,3.7-8.5L160.7,62.9z"/>
	</g>
	<g>
		<polygon class="st3" points="136.4,54.6 149,54.6 142.7,40.6 		"/>
		<path class="st0" d="M126,61.3h33.9l-16.9-37.6L126,61.3z M136.4,54.6l6.3-14l6.3,14H136.4z"/>
	</g>
	<g>
		<path d="M232.2,48.9c-0.1-0.2-0.3-0.3-0.4-0.5c-1.4-1.6-2.7-3.2-4-4.9c-2.3,2.8-5.6,5.1-9.7,6.4l19,27.9h8.3l-17.6-25.7
			C229.4,51.2,230.9,50.1,232.2,48.9z"/>
		<path d="M208.5,4.6h-20.6v73.3h7.4V11.2h13.1c2.1,0,4.1,0.2,6,0.6c-0.3-2.3-0.5-4.5-0.6-6.8C212.1,4.7,210.3,4.6,208.5,4.6z"/>
		<path class="st0" d="M232.2,48.9c4.8-4.4,7.6-10.4,7.6-16.9c0-15.7-11-25.2-26-27c0.1,2.3,0.3,4.6,0.6,6.8
			c10.2,2,17.5,9.1,17.5,20.2c0,4.3-1.5,8.4-4.2,11.6c1.3,1.7,2.6,3.3,4,4.9C231.9,48.6,232,48.7,232.2,48.9z"/>
	</g>
	<g>
		<path d="M226.7,42.1c-1.7-2.4-3.3-5-4.8-7.6c-1,6.1-5.8,10.1-14.2,10.1h-3.1V19.4h3.8c3.1,0,5.9,0.7,8.1,2c-0.8-2.6-1.4-5.3-1.8-8
			c-2-0.4-4.1-0.7-6.2-0.7h-11.3v65.1h7.4V45.6l22.1,32.3h8.3l-19.6-28.6C220.6,47.8,224.3,45.3,226.7,42.1z"/>
		<path class="st3" d="M216.6,21.5c-2.2-1.3-5-2-8.1-2h-3.8v25.1h3.1c8.3,0,13.1-4,14.2-10.1c0.1-0.8,0.2-1.6,0.2-2.5
			C222.1,27.1,220,23.5,216.6,21.5z"/>
		<path class="st0" d="M222.1,31.9c0,0.9-0.1,1.7-0.2,2.5c1.4,2.7,3,5.2,4.8,7.6c2.2-3,3.3-6.5,3.3-10.2c0-10-6.3-16.4-15.2-18.4
			c0.5,2.7,1.1,5.4,1.8,8C220,23.5,222.1,27.1,222.1,31.9z"/>
	</g>
	<g>
		<path d="M285.1,65.9V20.4h18.6v-7h-26v46C280.2,61.5,282.6,63.7,285.1,65.9z"/>
		<path class="st1" d="M277.7,77.9h7.4v-12c-2.5-2.2-5-4.4-7.4-6.6V77.9z"/>
	</g>
	<g>
		<path d="M354.7,36.4v12.9c0,8.6-4.4,13.9-11.4,13.9c-6.9,0-11.4-5.4-11.4-13.9V25.2c-2.5-1.1-4.9-2.3-7.4-3.4v27.5
			c0,12.7,7.7,21.4,18.8,21.4c11,0,18.8-8.7,18.8-21.4v-8.9C359.7,39.1,357.2,37.7,354.7,36.4z"/>
		<path class="st0" d="M362.1,4.6h-7.4v31.8c2.5,1.3,5,2.7,7.4,4V4.6z"/>
		<path class="st0" d="M332,4.6h-7.4v17.2c2.5,1.1,5,2.2,7.4,3.4V4.6z"/>
	</g>
	<g>
		<path d="M364,41.5v7.8c0,13.7-8.7,23.2-20.7,23.2c-12,0-20.7-9.5-20.7-23.2V21c-2.5-1.1-5-2.2-7.4-3.2v31.6
			c0,18.1,11.8,30.7,28.1,30.7s28.1-12.6,28.1-30.7v-3.5C369,44.3,366.5,42.9,364,41.5z"/>
		<path class="st0" d="M322.7,4.6h-7.4v13.2c2.5,1.1,5,2.1,7.4,3.2V4.6z"/>
		<path class="st0" d="M371.4,4.6H364v36.9c2.5,1.4,5,2.8,7.4,4.3V4.6z"/>
	</g>
	<g>
		<path d="M411,4.6h-3.6v6.6h3.6c7.9,0,14.9,2.9,18.9,8.2c1.8-1.8,3.5-3.6,5.3-5.4C429.6,7.9,420.8,4.6,411,4.6z"/>
		<path d="M390.6,77.9h7.4V63c-2.5-1.8-4.9-3.5-7.4-5.2V77.9z"/>
		<path d="M407.2,69.8c-0.5-0.4-0.9-0.7-1.4-1.1c-0.2-0.2-0.5-0.3-0.6-0.4c-0.4-0.3-0.9-0.7-1.3-1c-1.3-1-2.6-2-4-2.9v13.5h7.4v-7.9
			C407.3,69.9,407.2,69.8,407.2,69.8z"/>
		<path class="st0" d="M405.2,68.2c0.1,0.1,0.3,0.3,0.6,0.4c0.5,0.4,0.9,0.7,1.4,1.1c0.1,0.1,0.1,0.1,0.2,0.2v-7v-5.7v-6.6h-7.4
			v13.7c1.3,1,2.6,1.9,4,2.9C404.3,67.6,404.8,67.9,405.2,68.2z"/>
		<path class="st0" d="M390.6,4.6v53.3c2.5,1.7,5,3.4,7.4,5.2V11.2h9.3V4.6H390.6z"/>
		<path class="st1" d="M441.4,30.9c0-6.9-2.3-12.6-6.3-16.9c-1.8,1.8-3.5,3.6-5.3,5.4c2.3,3.1,3.7,6.9,3.7,11.5
			c0,4.5-1.3,8.3-3.6,11.4l6.6,3.8C439.6,42.1,441.4,36.9,441.4,30.9z"/>
		<path class="st2" d="M430,42.3c-1.7,2.2-3.8,4-6.3,5.4c-1.3,0.7-2.7,1.3-4.1,1.7c-2.6,0.8-5.5,1.3-8.6,1.3h-3.6v6.6h3.6
			c6.2,0,12.1-1.3,16.9-3.9c0.6-0.3,1.1-0.6,1.7-0.9c2.7-1.7,5.1-3.8,7-6.3L430,42.3z"/>
	</g>
	<g>
		<path class="st3" d="M407.4,42.4h3.6c1.7,0,3.3-0.3,4.8-0.7c0.1,0,0.1,0,0.2-0.1c2.4-0.8,4.4-2.2,5.8-4.1c1.3-1.8,2-4,2-6.6
			c0-1.6-0.3-3.1-0.8-4.4c-1.8-4.5-6.5-7.1-12-7.1h-3.6v15.4v4.7V42.4z"/>
		<path d="M407.4,19.4h3.6c5.5,0,10.2,2.6,12,7.1c1.9-1.9,3.7-3.8,5.6-5.7c-3.6-5.1-10.1-7.9-17.6-7.9h-3.6L407.4,19.4z"/>
		<path class="st1" d="M423.8,30.9c0,2.6-0.8,4.8-2,6.6l6.6,3.9c2.1-2.8,3.3-6.3,3.3-10.4c0-4-1.1-7.4-3.1-10.1
			c-1.9,1.9-3.7,3.8-5.6,5.7C423.5,27.8,423.8,29.3,423.8,30.9z"/>
		<polygon class="st0" points="407.4,39.6 407.4,34.8 407.4,34.8 407.4,12.8 399.9,12.8 399.9,49 407.4,49 407.4,42.4 		"/>
		<path class="st2" d="M421.7,37.5c-1.4,1.9-3.4,3.3-5.8,4.1c-0.1,0-0.1,0-0.2,0.1c-1.5,0.5-3.1,0.7-4.8,0.7h-3.6V49h3.6
			c2.6,0,5.1-0.3,7.3-1c1.4-0.4,2.7-0.9,3.9-1.5c2.5-1.3,4.6-3,6.2-5.1L421.7,37.5z"/>
	</g>
	<g>
		<path d="M476.5,33.2c-0.8,2.2-1.6,4.3-2.4,6.5c2.6,1.2,5.3,2.4,7.7,3.8c1.9-1.8,4-3.4,6.3-4.7C484.3,36.6,480.1,34.9,476.5,33.2z"
			/>
		<path d="M488.2,24.2l4.5-5.9c-3.1-2.5-6.1-4.3-9.2-5.4c-0.8,2.3-1.5,4.6-2.3,6.9C483.5,20.7,485.8,22.2,488.2,24.2z"/>
		<path d="M462.1,70.4c-0.9,2.2-1.8,4.3-2.7,6.5c4.3,1.9,8.6,2.9,13.1,3.1c-0.3-2.3-0.5-4.7-0.6-7.1
			C468.5,72.6,465.3,71.8,462.1,70.4z"/>
		<path class="st2" d="M488.3,38.9C488.3,38.9,488.3,38.9,488.3,38.9C488.3,38.9,488.3,38.9,488.3,38.9c-0.1,0-0.1-0.1-0.2-0.1
			c-2.3,1.3-4.4,2.9-6.3,4.7c1.3,0.8,2.6,1.5,3.8,2.4c3.8,2.8,6.5,6.4,6.5,11.7c0,6.7-5,12.6-12.6,14.6c-1.7,0.4-3.6,0.7-5.6,0.7
			c-0.7,0-1.4,0-2.1-0.1c0,2.4,0.2,4.7,0.6,7.1c0.5,0,1,0,1.5,0c1.4,0,2.8-0.1,4.1-0.3c12.6-1.7,21.9-11.2,21.9-22
			C500,48.1,494.7,42.7,488.3,38.9z"/>
		<g>
			<path class="st1" d="M452.5,64.4l-4.2,5.5c1.2,0.9,2.3,1.8,3.5,2.6c2.6,1.8,5.1,3.3,7.6,4.4c0.9-2.2,1.8-4.3,2.7-6.5
				c-3.1-1.4-6.2-3.4-9.5-5.9C452.6,64.4,452.5,64.4,452.5,64.4z"/>
			<path class="st1" d="M474.5,18.3c2.2,0,4.4,0.5,6.8,1.5c0.8-2.3,1.6-4.6,2.3-6.9c-3-1.1-6-1.6-9.1-1.6c-1.3,0-2.6,0.1-3.8,0.4
				c-6.8,1.5-11.6,6.7-11.6,12.6c0,2.9,1,5.3,2.5,7.2c2.8,3.5,7.6,5.8,12.5,8.2c0.8-2.2,1.6-4.3,2.4-6.5c-5.4-2.4-9.6-4.8-9.6-8.9
				C467,20.6,470.2,18.3,474.5,18.3z"/>
		</g>
	</g>
	<g>
		<path d="M493.8,17l4.1-5.4c-3.9-3.2-7.8-5.5-11.6-7c-0.7,2.2-1.4,4.4-2.2,6.6C487.4,12.5,490.6,14.3,493.8,17z"/>
		<path d="M465.5,62.1c-0.9,2.2-1.8,4.4-2.7,6.6c3,1.3,6,2.1,9.1,2.4c0-2.3,0.2-4.7,0.6-7C470.1,63.9,467.9,63.3,465.5,62.1z"/>
		<path d="M480.5,44.9c-2.2-1.2-4.6-2.3-7.1-3.5c-0.8,2.2-1.6,4.3-2.4,6.5c2.1,0.9,4,1.8,5.6,2.7c0.2-0.4,0.4-0.8,0.6-1.2
			C478.3,47.8,479.3,46.3,480.5,44.9z"/>
		<path class="st2" d="M484.1,47.2c-1.1-0.8-2.3-1.5-3.6-2.2c-1.2,1.4-2.3,2.9-3.2,4.5c-0.2,0.4-0.4,0.8-0.6,1.2
			c1.8,1,3.2,2,4.2,3.2c0.9,1.1,1.4,2.3,1.4,3.8c0,3.2-2,5.4-5.4,6.2c-0.9,0.2-1.9,0.3-3,0.3c-0.5,0-1,0-1.5-0.1
			c-0.3,2.3-0.5,4.7-0.6,7c0.7,0.1,1.4,0.1,2.1,0.1c0.2,0,0.4,0,0.7,0c9.2-0.3,15.5-6.5,15.5-13.5C490.2,53,487.7,49.7,484.1,47.2z"
			/>
		<g>
			<path class="st1" d="M453.6,62.9c3.1,2.5,6.1,4.4,9.1,5.8c0.9-2.2,1.8-4.4,2.7-6.6c-2.3-1.1-4.8-2.7-7.4-4.9L453.6,62.9z"/>
			<path class="st1" d="M478.2,2.7c-1.2-0.1-2.4-0.2-3.7-0.2c-13.8,0-25.2,10.1-25.2,21.8c0,7.3,3.1,12.2,7.5,15.8
				c4.2,3.5,9.6,5.7,14.3,7.8c0.8-2.2,1.6-4.3,2.4-6.5c-5.1-2.4-10.1-4.8-13.2-8.6c-1.9-2.3-3.1-5.1-3.1-8.6
				c0-7.8,7.2-14.4,16.6-14.8c0.2,0,0.5,0,0.7,0c3.3,0,6.5,0.6,9.6,1.7c0.7-2.2,1.5-4.4,2.2-6.6C483.6,3.6,480.9,3,478.2,2.7z"/>
		</g>
	</g>
	<g>
		<path d="M284.4,4.6h-34.6v7h50C294.5,9.5,289.3,7.2,284.4,4.6z"/>
		<path class="st0" d="M303.7,11.6v-7h-19.3c4.9,2.7,10.1,4.9,15.4,7H303.7z"/>
	</g>
	<g>
		<path d="M268.4,51.1c2.5,2.2,5,4.4,7.4,6.6V13.3h-26v7h18.6V51.1z"/>
		<path class="st1" d="M268.4,77.9h7.4V57.7c-2.5-2.2-5-4.4-7.4-6.6V77.9z"/>
	</g>
</g>
</svg>
