<?xml version="1.0" encoding="UTF-8" standalone="no"?>
<svg
   id="Calque_1"
   data-name="Calque 1"
   viewBox="0 0 149.01961 109.01765"
   version="1.1"
   sodipodi:docname="tactileo.svg"
   inkscape:version="1.1.2 (b8e25be8, 2022-02-05)"
   width="149.01961"
   height="109.01765"
   xmlns:inkscape="http://www.inkscape.org/namespaces/inkscape"
   xmlns:sodipodi="http://sodipodi.sourceforge.net/DTD/sodipodi-0.dtd"
   xmlns="http://www.w3.org/2000/svg"
   xmlns:svg="http://www.w3.org/2000/svg"
   xmlns:rdf="http://www.w3.org/1999/02/22-rdf-syntax-ns#"
   xmlns:cc="http://creativecommons.org/ns#"
   xmlns:dc="http://purl.org/dc/elements/1.1/">
  <metadata
     id="metadata4003">
    <rdf:RDF>
      <cc:Work
         rdf:about="">
        <dc:format>image/svg+xml</dc:format>
        <dc:type
           rdf:resource="http://purl.org/dc/dcmitype/StillImage" />
      </cc:Work>
    </rdf:RDF>
  </metadata>
  <sodipodi:namedview
     pagecolor="#ffffff"
     bordercolor="#666666"
     borderopacity="1"
     objecttolerance="10"
     gridtolerance="10"
     guidetolerance="10"
     inkscape:pageopacity="0"
     inkscape:pageshadow="2"
     inkscape:window-width="1680"
     inkscape:window-height="912"
     id="namedview4001"
     showgrid="false"
     inkscape:zoom="2.1113611"
     inkscape:cx="-77.911827"
     inkscape:cy="47.836441"
     inkscape:window-x="0"
     inkscape:window-y="25"
     inkscape:window-maximized="1"
     inkscape:current-layer="Calque_1"
     inkscape:pagecheckerboard="0"
     fit-margin-top="0"
     fit-margin-left="0"
     fit-margin-right="0"
     fit-margin-bottom="0" />
  <defs
     id="defs3861">
    <style
       id="style3859">.cls-1,.cls-5{fill:#ec6b1c;}.cls-1,.cls-4{fill-rule:evenodd;}.cls-2,.cls-4{fill:#fff;}.cls-3{fill:#c35a15;}.cls-6{fill:#666;}.cls-7{fill:#14a5de;}.cls-8{fill:#164193;}.cls-9{fill:#e53027;}.cls-10{fill:gray;}</style>
  </defs>
  <g
     id="g138"
     transform="translate(2.5301791e-6,-86.339862)">
    <path
       class="cls-1"
       d="M 117.17,106.09 A 19.75,19.75 0 0 0 80.28,96.28 18.26,18.26 0 0 0 68.67,96.2 19.75,19.75 0 1 0 40.6,122.51 c -2.75,5.22 -5.81,12.26 -5.37,17.19 0.67,7.61 53.62,-5.08 44,10.62 v 0 c 0,0 -2.06,3 2.07,2.55 12.84,-1.4 32.7,-5.87 32.86,-13.17 0.11,-5 -2.94,-12.08 -5.61,-17.3 a 19.73,19.73 0 0 0 8.62,-16.31 z"
       id="path3863"
       inkscape:connector-curvature="0"
       style="fill:#ec6b1c;fill-rule:evenodd" />
    <circle
       class="cls-2"
       cx="51.59"
       cy="106.09"
       r="11.17"
       id="circle3865"
       style="fill:#ffffff" />
    <circle
       class="cls-3"
       cx="54.490002"
       cy="106.09"
       r="6.27"
       id="circle3867"
       style="fill:#c35a15" />
    <circle
       class="cls-2"
       cx="97.410004"
       cy="106.09"
       r="11.17"
       id="circle3869"
       style="fill:#ffffff" />
    <circle
       class="cls-3"
       cx="100.31"
       cy="106.09"
       r="6.27"
       id="circle3871"
       style="fill:#c35a15" />
    <path
       class="cls-4"
       d="m 74.5,129.2 c -16.7,0 -20.37,-10.59 -20.37,-6.49 0,4.1 9.06,11.06 20.37,11.4 11.32,-0.34 20.37,-7.29 20.37,-11.4 0,-4.11 -3.66,6.45 -20.37,6.49 z"
       id="path3873"
       inkscape:connector-curvature="0"
       style="fill:#ffffff;fill-rule:evenodd" />
    <path
       class="cls-5"
       d="m 15.05,190.26 v 5 h -2.46 a 12.14,12.14 0 0 1 -4.87,-1 A 12.63,12.63 0 0 1 1,187.52 12.32,12.32 0 0 1 0,182.65 v -22.6 h 5 v 15.11 h 10.05 v 5 H 5 v 2.52 a 7.6,7.6 0 0 0 0.59,3 7.5,7.5 0 0 0 1.62,2.43 7.53,7.53 0 0 0 5.4,2.21 z"
       id="path3875"
       inkscape:connector-curvature="0"
       style="fill:#ec6b1c" />
    <path
       class="cls-5"
       d="m 29.38,170.12 a 12.07,12.07 0 0 1 4.89,1 12.52,12.52 0 0 1 6.66,6.66 12.24,12.24 0 0 1 1,4.89 v 12.59 H 29.38 a 12.14,12.14 0 0 1 -4.87,-1 12.63,12.63 0 0 1 -6.74,-6.74 12.64,12.64 0 0 1 0,-9.76 12.39,12.39 0 0 1 2.71,-4 12.91,12.91 0 0 1 4,-2.68 12.14,12.14 0 0 1 4.9,-0.96 z m 7.55,20.14 v -7.61 a 7.37,7.37 0 0 0 -0.59,-2.93 7.55,7.55 0 0 0 -4,-4 7.2,7.2 0 0 0 -2.93,-0.59 7.64,7.64 0 0 0 -5.4,2.21 7.55,7.55 0 0 0 -1.63,2.41 7.37,7.37 0 0 0 -0.58,2.93 7.53,7.53 0 0 0 2.21,5.4 7.69,7.69 0 0 0 2.43,1.63 7.6,7.6 0 0 0 3,0.58 z"
       id="path3877"
       inkscape:connector-curvature="0"
       style="fill:#ec6b1c" />
    <path
       class="cls-5"
       d="m 47.06,173.81 a 12.32,12.32 0 0 1 4.17,-2.81 12.59,12.59 0 0 1 9.45,0 12.32,12.32 0 0 1 4.17,2.77 l 1.74,1.74 -3.47,3.52 -1.79,-1.73 a 7.43,7.43 0 0 0 -2.52,-1.68 7.56,7.56 0 0 0 -5.71,0 7.43,7.43 0 0 0 -2.52,1.68 7.1,7.1 0 0 0 -1.68,2.46 7.65,7.65 0 0 0 -0.56,2.85 7.58,7.58 0 0 0 2.24,5.39 7.32,7.32 0 0 0 5.42,2.26 7.61,7.61 0 0 0 2.91,-0.56 6.89,6.89 0 0 0 2.42,-1.7 l 1.79,-1.74 3.47,3.52 -1.74,1.74 a 12.17,12.17 0 0 1 -4.17,2.77 12.59,12.59 0 0 1 -9.45,0 12.17,12.17 0 0 1 -4.17,-2.77 11.88,11.88 0 0 1 -2.74,-4.14 12.88,12.88 0 0 1 0,-9.46 11.88,11.88 0 0 1 2.74,-4.11 z"
       id="path3879"
       inkscape:connector-curvature="0"
       style="fill:#ec6b1c" />
    <path
       class="cls-5"
       d="m 83.6,190.26 v 5 h -2.47 a 12.1,12.1 0 0 1 -4.86,-1 12.49,12.49 0 0 1 -4,-2.71 12.68,12.68 0 0 1 -2.72,-4 12.32,12.32 0 0 1 -1,-4.87 v -22.6 h 5 v 15.11 H 83.6 v 5 H 73.52 v 2.52 a 7.6,7.6 0 0 0 0.59,3 7.5,7.5 0 0 0 1.62,2.43 7.73,7.73 0 0 0 2.44,1.63 7.58,7.58 0 0 0 3,0.58 z"
       id="path3881"
       inkscape:connector-curvature="0"
       style="fill:#ec6b1c" />
    <path
       class="cls-5"
       d="m 90.37,170.12 v 25.12 h -4.93 v -25.12 z"
       id="path3883"
       inkscape:connector-curvature="0"
       style="fill:#ec6b1c" />
    <path
       class="cls-5"
       d="m 97,160.05 v 35.19 h -5 v -35.19 z"
       id="path3885"
       inkscape:connector-curvature="0"
       style="fill:#ec6b1c" />
    <path
       class="cls-5"
       d="m 118.57,186.4 3.52,3.53 -1.73,1.73 a 12.56,12.56 0 0 1 -17.8,0 12,12 0 0 1 -2.74,-4.17 12.91,12.91 0 0 1 -0.89,-4.72 12.73,12.73 0 0 1 0.89,-4.7 12.47,12.47 0 0 1 6.91,-6.91 12.49,12.49 0 0 1 9.46,0 12.15,12.15 0 0 1 4.17,2.76 l 1.73,1.74 -13.93,13.93 a 7.46,7.46 0 0 0 8.67,-1.45 z m -12.48,-9 a 7.5,7.5 0 0 0 -1.46,8.68 l 2.05,-2 2.91,-2.92 c 1,-1 2,-2 3,-2.93 l 2.21,-2.18 a 7.44,7.44 0 0 0 -4.5,-0.73 7.17,7.17 0 0 0 -4.21,2.07 z"
       id="path3887"
       inkscape:connector-curvature="0"
       style="fill:#ec6b1c" />
    <rect
       class="cls-5"
       x="134.06"
       y="166.88"
       width="4.5500002"
       height="11.18"
       id="rect3889"
       style="fill:#ec6b1c" />
    <path
       class="cls-5"
       d="m 148,177.72 a 12.74,12.74 0 0 0 -2.73,-4 13.19,13.19 0 0 0 -4,-2.7 c -0.22,-0.1 -0.44,-0.18 -0.66,-0.26 v 5.61 a 6.44,6.44 0 0 1 1.17,0.91 7.66,7.66 0 0 1 2.23,5.39 7.57,7.57 0 0 1 -0.6,3 7.35,7.35 0 0 1 -1.63,2.45 7.81,7.81 0 0 1 -8.44,1.64 7.59,7.59 0 0 1 -4.09,-4.09 7.74,7.74 0 0 1 -0.59,-3 7.54,7.54 0 0 1 2.23,-5.39 6.91,6.91 0 0 1 1.29,-1 v -5.56 c -0.25,0.09 -0.51,0.18 -0.76,0.29 a 12.68,12.68 0 0 0 -4,2.7 12.85,12.85 0 0 0 -2.71,4 12.75,12.75 0 0 0 0,9.85 13.07,13.07 0 0 0 2.71,4.06 12.67,12.67 0 0 0 13.88,2.73 12.76,12.76 0 0 0 4,-2.73 13,13 0 0 0 2.73,-4.06 12.75,12.75 0 0 0 0,-9.85 z"
       id="path3891"
       inkscape:connector-curvature="0"
       style="fill:#ec6b1c" />
    <path
       class="cls-6"
       d="m 34.48,145.78 v 1 a 2.22,2.22 0 0 1 0.83,-0.81 2.28,2.28 0 0 1 1.11,-0.27 1.7,1.7 0 0 1 1.81,1.16 2.22,2.22 0 0 1 0.86,-0.86 2.35,2.35 0 0 1 1.18,-0.3 c 1.29,0 2,0.7 2,2.11 v 4 H 41.6 v -4 a 1.77,1.77 0 0 0 -0.35,-1.2 1.41,1.41 0 0 0 -1.11,-0.39 1.79,1.79 0 0 0 -1.21,0.47 1.65,1.65 0 0 0 -0.55,1.1 v 4 h -0.67 v -4 a 1.65,1.65 0 0 0 -0.36,-1.16 1.47,1.47 0 0 0 -1.1,-0.38 1.68,1.68 0 0 0 -1.08,0.36 2.17,2.17 0 0 0 -0.67,1.07 v 4.12 h -0.66 v -6 z"
       id="path3893"
       inkscape:connector-curvature="0"
       style="fill:#666666" />
    <path
       class="cls-6"
       d="M 48.08,151.79 A 3.07,3.07 0 0 1 48,151 a 2.28,2.28 0 0 1 -0.89,0.7 2.79,2.79 0 0 1 -1.14,0.25 2,2 0 0 1 -1.41,-0.49 1.59,1.59 0 0 1 -0.53,-1.22 1.61,1.61 0 0 1 0.73,-1.39 3.48,3.48 0 0 1 2,-0.51 H 48 v -0.68 a 1.28,1.28 0 0 0 -0.4,-1 1.62,1.62 0 0 0 -1.16,-0.37 1.87,1.87 0 0 0 -1.15,0.35 1.06,1.06 0 0 0 -0.45,0.86 h -0.67 a 1.53,1.53 0 0 1 0.67,-1.24 2.56,2.56 0 0 1 1.64,-0.52 2.31,2.31 0 0 1 1.58,0.5 1.78,1.78 0 0 1 0.6,1.4 v 2.84 a 3.59,3.59 0 0 0 0.18,1.31 v 0.07 z M 46,151.31 a 2.25,2.25 0 0 0 1.19,-0.32 2,2 0 0 0 0.77,-0.86 v -1.33 h -1.2 a 3,3 0 0 0 -1.56,0.37 1.1,1.1 0 0 0 -0.56,1 1.07,1.07 0 0 0 0.36,0.83 1.37,1.37 0 0 0 1,0.31 z"
       id="path3895"
       inkscape:connector-curvature="0"
       style="fill:#666666" />
    <path
       class="cls-6"
       d="m 54.31,150.26 a 1,1 0 0 0 -0.4,-0.8 3,3 0 0 0 -1.2,-0.46 6.31,6.31 0 0 1 -1.24,-0.39 1.7,1.7 0 0 1 -0.65,-0.54 1.37,1.37 0 0 1 -0.22,-0.77 1.42,1.42 0 0 1 0.6,-1.17 2.37,2.37 0 0 1 1.52,-0.46 2.46,2.46 0 0 1 1.61,0.49 1.59,1.59 0 0 1 0.61,1.3 h -0.67 a 1.08,1.08 0 0 0 -0.44,-0.88 2,2 0 0 0 -2.16,-0.06 0.9,0.9 0 0 0 -0.4,0.76 0.83,0.83 0 0 0 0.33,0.7 3.64,3.64 0 0 0 1.21,0.45 6.14,6.14 0 0 1 1.31,0.44 1.7,1.7 0 0 1 0.64,0.56 1.44,1.44 0 0 1 0.21,0.8 1.43,1.43 0 0 1 -0.61,1.21 2.57,2.57 0 0 1 -1.6,0.46 2.67,2.67 0 0 1 -1.7,-0.51 1.57,1.57 0 0 1 -0.66,-1.29 h 0.67 a 1.18,1.18 0 0 0 0.49,0.91 2,2 0 0 0 1.2,0.33 1.9,1.9 0 0 0 1.12,-0.31 0.9,0.9 0 0 0 0.43,-0.77 z"
       id="path3897"
       inkscape:connector-curvature="0"
       style="fill:#666666" />
    <path
       class="cls-6"
       d="m 58.22,148.76 -0.76,0.73 v 2.3 H 56.8 v -8.53 h 0.66 v 5.46 l 0.63,-0.68 2.3,-2.26 h 0.84 l -2.55,2.53 2.77,3.48 h -0.79 z"
       id="path3899"
       inkscape:connector-curvature="0"
       style="fill:#666666" />
    <path
       class="cls-6"
       d="m 62.33,148.69 a 3.47,3.47 0 0 1 0.34,-1.56 2.51,2.51 0 0 1 2.33,-1.46 2.47,2.47 0 0 1 1.94,0.84 3.21,3.21 0 0 1 0.74,2.23 v 0.14 a 3.57,3.57 0 0 1 -0.33,1.56 2.51,2.51 0 0 1 -1,1.08 2.61,2.61 0 0 1 -1.39,0.38 2.46,2.46 0 0 1 -1.94,-0.84 3.25,3.25 0 0 1 -0.75,-2.23 z m 0.67,0.19 a 2.72,2.72 0 0 0 0.55,1.76 1.88,1.88 0 0 0 2.93,0 2.8,2.8 0 0 0 0.55,-1.82 v -0.13 a 3,3 0 0 0 -0.25,-1.26 2,2 0 0 0 -0.72,-0.88 1.83,1.83 0 0 0 -1,-0.32 1.78,1.78 0 0 0 -1.45,0.7 2.77,2.77 0 0 0 -0.56,1.82 z"
       id="path3901"
       inkscape:connector-curvature="0"
       style="fill:#666666" />
    <path
       class="cls-6"
       d="m 70.43,144.24 v 1.54 h 1.24 v 0.54 h -1.24 v 4 a 1.24,1.24 0 0 0 0.18,0.74 0.68,0.68 0 0 0 0.6,0.25 3.9,3.9 0 0 0 0.54,-0.06 v 0.54 a 2,2 0 0 1 -0.71,0.1 1.21,1.21 0 0 1 -1,-0.4 1.92,1.92 0 0 1 -0.31,-1.17 v -4 h -1.1 v -0.54 h 1.1 v -1.54 z"
       id="path3903"
       inkscape:connector-curvature="0"
       style="fill:#666666" />
    <path
       class="cls-6"
       d="m 74.41,144.24 v 1.54 h 1.25 v 0.54 h -1.25 v 4 a 1.24,1.24 0 0 0 0.18,0.74 0.69,0.69 0 0 0 0.61,0.25 3.65,3.65 0 0 0 0.53,-0.06 v 0.54 a 2,2 0 0 1 -0.71,0.1 1.19,1.19 0 0 1 -1,-0.4 1.86,1.86 0 0 1 -0.31,-1.17 v -4 h -1.07 v -0.54 h 1.11 v -1.54 z"
       id="path3905"
       inkscape:connector-curvature="0"
       style="fill:#666666" />
  </g>
</svg>
