<?xml version="1.0" encoding="UTF-8"?>
<svg id="Calque_2"
    xmlns="http://www.w3.org/2000/svg" viewBox="0 0 999.86 503.17">
    <defs>
        <style>.cls-1{font-family:Montserrat-Bold, Montserrat;font-size:18.72px;font-weight:700;}.cls-1,.cls-2{fill:#fff;}.cls-1,.cls-3,.cls-4{isolation:isolate;}.cls-5{fill:#e8e5d7;}.cls-6{fill:#f1eddd;}.cls-7{fill:#e6c955;}.cls-8{fill:#efe1a8;}.cls-9{fill:#a6a6a6;}.cls-10{fill:#d9d9d9;}.cls-11{fill:#45464a;}.cls-12{fill:gray;}.cls-13{fill:#555;}.cls-14{fill:#2b2b2b;}.cls-3{font-size:29.45px;}.cls-3,.cls-4{font-family:Montserrat-Regular, Montserrat;}.cls-15{letter-spacing:0em;}.cls-16{letter-spacing:-.02em;}.cls-17{letter-spacing:-.01em;}.cls-4{font-size:23.2px;}</style>
    </defs>
    <g id="Calque_1-2">
        <g id="ESP32-WROOM-32D">
            <path id="socle" class="cls-14" d="m903.17,482.75v-78.35h96.69V99.56h-96.69V20.37c-.01-11.23-9.1-20.33-20.33-20.37H50.66c-11.24.02-20.34,9.13-20.36,20.37v462.38c-.01,11.26,9.1,20.4,20.36,20.42h832.18c11.25-.03,20.34-9.17,20.33-20.42Z"/>
            <path id="outline" class="cls-2" d="m896.29,424.73V81.19c-.01-3.19-2.6-5.78-5.79-5.79h-432.89c-3.2,0-5.78,2.6-5.79,5.79v343.54c0,3.2,2.6,5.78,5.79,5.79h432.89c3.19-.01,5.78-2.6,5.79-5.79Zm-2.78,0c0,1.66-1.35,3-3.01,3.01h-432.89c-1.66,0-3-1.35-3.01-3.01V81.19c0-1.66,1.35-3,3.01-3.01h432.89c1.66,0,3,1.35,3.01,3.01v343.54"/>
            <g id="pins">
                <g>
                    <path class="cls-5" d="m897.5,22.04c0-1.04-.1-2.09-.31-3.11-.2-1.02-.5-2.02-.9-2.98-1.19-2.92-3.24-5.4-5.87-7.14-.86-.58-1.78-1.08-2.75-1.47-.96-.39-1.96-.69-2.98-.9-2.06-.4-4.18-.4-6.24,0-1.02.21-2.02.51-2.98.91-.96.4-1.88.89-2.75,1.47-2.62,1.74-4.66,4.23-5.87,7.14-.4.96-.7,1.96-.91,2.98-.2,1.02-.3,2.06-.3,3.11,0,1.04.1,2.08.3,3.11.21,1.02.52,2.02.91,2.98.8,1.93,1.97,3.68,3.44,5.15,1.48,1.48,3.24,2.65,5.17,3.46.96.4,1.96.7,2.98.9,2.06.42,4.18.42,6.24,0,1.02-.2,2.02-.5,2.98-.9,1.93-.81,3.69-1.98,5.17-3.46,1.47-1.48,2.64-3.23,3.44-5.15.4-.96.7-1.96.9-2.98.21-1.03.31-2.07.31-3.12Z"/>
                    <path class="cls-5" d="m853.41,22.04c0-1.04-.11-2.08-.31-3.11-.2-1.02-.5-2.02-.9-2.98-.8-1.93-1.97-3.69-3.46-5.17-.73-.74-1.54-1.4-2.41-1.97-.86-.58-1.78-1.07-2.75-1.47-.97-.4-1.97-.7-3-.91-2.06-.4-4.18-.4-6.24,0-1.02.21-2.02.51-2.98.91-.97.4-1.89.89-2.76,1.47-2.62,1.75-4.65,4.23-5.85,7.14-.4.96-.71,1.96-.91,2.98-.2,1.02-.3,2.06-.3,3.11,0,1.04.1,2.08.3,3.11.2,1.02.51,2.02.91,2.98.8,1.93,1.97,3.68,3.44,5.15.74.74,1.54,1.4,2.41,1.98.87.58,1.79,1.07,2.76,1.47.96.4,1.96.7,2.98.9,2.06.42,4.18.42,6.24,0,1.03-.2,2.03-.5,3-.9.96-.4,1.88-.9,2.75-1.47.87-.58,1.68-1.24,2.41-1.98,1.48-1.47,2.66-3.23,3.46-5.15.4-.96.7-1.96.9-2.98.2-1.02.31-2.06.31-3.11Z"/>
                    <path class="cls-5" d="m807.43,22.04c-.02-1.05-.14-2.09-.36-3.12-.21-1.02-.51-2.02-.91-2.98-1.2-2.91-3.23-5.4-5.85-7.14-.87-.58-1.79-1.08-2.76-1.47-.96-.39-1.95-.68-2.96-.89-2.06-.4-4.18-.4-6.24,0-1.02.21-2.03.51-3,.91-.96.4-1.88.89-2.75,1.47-.87.57-1.68,1.23-2.41,1.97-1.48,1.48-2.66,3.23-3.46,5.17-.39.95-.68,1.95-.87,2.96-.21,1.02-.31,2.06-.31,3.11,0,1.05.1,2.1.31,3.13.2,1.02.5,2.02.9,2.98.8,1.93,1.98,3.68,3.46,5.15.73.74,1.54,1.41,2.41,1.98.87.58,1.79,1.07,2.75,1.47.97.4,1.97.7,3,.9,2.06.42,4.18.42,6.24,0,1.02-.2,2.02-.5,2.98-.9.96-.4,1.89-.89,2.76-1.47.87-.58,1.67-1.25,2.41-1.98,1.47-1.48,2.64-3.23,3.44-5.15.38-.97.67-1.96.86-2.98.22-1.03.34-2.07.36-3.12Z"/>
                    <path class="cls-5" d="m759.87,22.04c0-1.04-.1-2.08-.3-3.11-.21-1.02-.51-2.02-.91-2.98-1.19-2.92-3.24-5.4-5.87-7.14-.86-.58-1.78-1.08-2.75-1.47-.96-.4-1.96-.7-2.98-.91-2.06-.4-4.18-.4-6.24,0-1.02.21-2.02.52-2.98.91-1.93.8-3.68,1.97-5.15,3.44-1.48,1.48-2.66,3.23-3.46,5.17-.4.96-.7,1.96-.9,2.98-.21,1.02-.31,2.06-.31,3.11,0,1.04.1,2.08.31,3.11.2,1.02.5,2.02.9,2.98,1.22,2.9,3.26,5.38,5.87,7.14.87.58,1.79,1.07,2.75,1.47.96.4,1.96.7,2.98.9,2.06.42,4.18.42,6.24,0,1.02-.2,2.02-.5,2.98-.9,1.93-.81,3.69-1.98,5.17-3.46,1.47-1.48,2.64-3.23,3.44-5.15.4-.96.7-1.96.91-2.98.2-1.02.3-2.06.3-3.11Z"/>
                    <path class="cls-5" d="m713.9,22.04c0-1.04-.1-2.09-.31-3.11-.2-1.02-.5-2.02-.9-2.98-.4-.96-.9-1.89-1.47-2.76-.58-.87-1.25-1.67-1.98-2.41-1.48-1.47-3.23-2.64-5.15-3.44-.96-.4-1.96-.7-2.98-.91-2.06-.4-4.18-.4-6.24,0-1.02.21-2.02.51-2.98.91-3.9,1.61-7,4.71-8.61,8.61-.4.96-.7,1.96-.91,2.98-.2,1.02-.3,2.06-.3,3.11,0,1.04.1,2.08.3,3.11.21,1.02.52,2.02.91,2.98.8,1.93,1.97,3.68,3.44,5.15.74.74,1.54,1.4,2.41,1.98.87.58,1.79,1.07,2.76,1.47.96.4,1.96.7,2.98.9,2.06.42,4.18.42,6.24,0,1.02-.2,2.02-.5,2.98-.9.96-.4,1.88-.89,2.75-1.47,1.73-1.17,3.23-2.66,4.39-4.39.58-.87,1.07-1.79,1.47-2.75.4-.96.7-1.96.9-2.98.21-1.02.31-2.06.31-3.11Z"/>
                    <path class="cls-5" d="m668.05,22.04c0-1.04-.1-2.08-.3-3.11-.21-1.02-.51-2.02-.91-2.98-1.61-3.9-4.71-7-8.61-8.61-.96-.4-1.96-.7-2.98-.91-2.06-.4-4.18-.4-6.24,0-1.02.21-2.02.52-2.98.91-1.93.8-3.68,1.97-5.15,3.44-.74.74-1.4,1.54-1.98,2.41-.58.87-1.07,1.79-1.47,2.76-.4.96-.7,1.96-.9,2.98-.21,1.02-.31,2.06-.31,3.11,0,1.04.1,2.08.31,3.11.2,1.02.5,2.02.9,2.98.4.96.89,1.88,1.47,2.75,1.17,1.73,2.66,3.23,4.39,4.39.87.58,1.79,1.07,2.75,1.47.96.4,1.96.7,2.98.9,3.09.61,6.29.3,9.2-.9.96-.4,1.89-.9,2.76-1.47.87-.58,1.67-1.25,2.41-1.98,1.47-1.48,2.64-3.23,3.44-5.15.4-.96.7-1.96.91-2.98.21-1.02.32-2.06.32-3.11Z"/>
                    <path class="cls-5" d="m623.95,22.04c0-1.05-.13-2.09-.35-3.12-.2-1.02-.5-2.02-.9-2.98-.8-1.93-1.97-3.69-3.46-5.17-1.48-1.47-3.23-2.64-5.15-3.44-.96-.39-1.96-.68-2.97-.89-2.06-.4-4.18-.4-6.24,0-1.02.21-2.02.51-2.98.91-.96.4-1.88.89-2.75,1.47-2.62,1.74-4.66,4.23-5.87,7.14-.39.96-.68,1.95-.89,2.96-.2,1.02-.3,2.06-.3,3.11,0,1.05.1,2.1.3,3.13.21,1.02.52,2.02.91,2.98.8,1.93,1.97,3.68,3.44,5.15,1.48,1.48,3.24,2.65,5.17,3.46.95.39,1.94.69,2.96.89,2.06.42,4.18.42,6.24,0,1.02-.2,2.02-.5,2.98-.9.96-.4,1.88-.89,2.75-1.47,2.62-1.75,4.66-4.23,5.87-7.14.39-.96.69-1.95.89-2.97.22-1.03.34-2.07.35-3.12Z"/>
                    <path class="cls-5" d="m577.99,22.04c0-1.04-.11-2.08-.31-3.11-.2-1.02-.5-2.02-.91-2.98-.79-1.94-1.96-3.7-3.44-5.17-.73-.74-1.54-1.4-2.41-1.97-.87-.58-1.79-1.08-2.76-1.47-.96-.4-1.96-.7-2.98-.91-2.06-.4-4.18-.4-6.24,0-1.02.21-2.02.51-2.98.91-.97.4-1.89.89-2.76,1.47-.87.58-1.67,1.24-2.41,1.97-1.49,1.47-2.66,3.23-3.44,5.17-.4.96-.71,1.96-.91,2.98-.2,1.02-.3,2.06-.3,3.11,0,1.04.1,2.08.3,3.11.2,1.02.51,2.02.91,2.98,1.21,2.9,3.24,5.39,5.85,7.14.87.58,1.79,1.07,2.76,1.47.96.4,1.96.7,2.98.9,2.06.42,4.18.42,6.24,0,1.02-.2,2.02-.5,2.98-.9.96-.4,1.89-.89,2.76-1.47.87-.58,1.68-1.24,2.41-1.98,1.48-1.47,2.65-3.22,3.44-5.15.41-.96.71-1.96.91-2.98.2-1.02.31-2.06.31-3.11Z"/>
                    <path class="cls-5" d="m530.41,22.04c0-1.04-.1-2.08-.3-3.11-.2-1.02-.51-2.02-.91-2.98-1.2-2.91-3.23-5.4-5.85-7.14-.87-.58-1.79-1.08-2.76-1.47-.96-.4-1.96-.7-2.98-.91-2.06-.4-4.18-.4-6.24,0-1.02.21-2.03.52-3,.91-.96.4-1.88.89-2.75,1.47-.87.57-1.68,1.23-2.41,1.97-1.48,1.48-2.66,3.23-3.46,5.17-.4.96-.7,1.96-.9,2.98-.2,1.02-.31,2.06-.31,3.11,0,1.04.11,2.08.31,3.11.2,1.02.5,2.02.9,2.98.8,1.93,1.98,3.68,3.46,5.15.73.74,1.54,1.41,2.41,1.98.87.58,1.79,1.07,2.75,1.47.97.4,1.97.7,3,.9,2.06.42,4.18.42,6.24,0,1.02-.2,2.02-.5,2.98-.9.96-.4,1.89-.89,2.76-1.47.87-.58,1.67-1.25,2.41-1.98,1.47-1.48,2.64-3.23,3.44-5.15.4-.96.71-1.96.91-2.98.2-1.02.3-2.06.3-3.11Z"/>
                    <path class="cls-5" d="m484.45,22.04c0-1.04-.1-2.08-.3-3.11-.21-1.02-.51-2.02-.91-2.98-1.19-2.92-3.24-5.4-5.87-7.14-.86-.58-1.78-1.08-2.75-1.47-.96-.4-1.96-.7-2.98-.91-2.06-.4-4.18-.4-6.24,0-1.02.21-2.02.51-2.98.91-.96.4-1.88.89-2.75,1.47-2.62,1.74-4.66,4.23-5.87,7.14-.4.96-.7,1.96-.9,2.98-.21,1.02-.31,2.06-.31,3.11,0,1.04.1,2.08.31,3.11.2,1.02.5,2.02.9,2.98.8,1.93,1.97,3.68,3.44,5.15,1.48,1.48,3.24,2.65,5.17,3.46.96.4,1.96.7,2.98.9,2.06.42,4.18.42,6.24,0,1.02-.2,2.02-.5,2.98-.9,1.93-.81,3.69-1.98,5.17-3.46,1.47-1.48,2.64-3.23,3.44-5.15.4-.96.7-1.96.91-2.98.2-1.02.3-2.06.3-3.11Z"/>
                    <path class="cls-5" d="m440.08,22.04c0-1.04-.11-2.08-.31-3.11-.2-1.02-.5-2.02-.9-2.98-.8-1.93-1.97-3.69-3.46-5.17-.73-.74-1.54-1.4-2.41-1.97-.86-.58-1.78-1.07-2.75-1.47-.97-.4-1.97-.7-3-.91-2.06-.4-4.18-.4-6.24,0-1.02.21-2.02.51-2.98.91-.97.4-1.89.89-2.76,1.47-2.62,1.75-4.65,4.23-5.85,7.14-.4.96-.71,1.96-.91,2.98-.2,1.02-.3,2.06-.3,3.11,0,1.04.1,2.08.3,3.11.2,1.02.51,2.02.91,2.98.8,1.93,1.97,3.68,3.44,5.15.74.74,1.54,1.4,2.41,1.98.87.58,1.79,1.07,2.76,1.47.96.4,1.96.7,2.98.9,2.06.42,4.18.42,6.24,0,1.03-.2,2.03-.5,3-.9.96-.4,1.88-.9,2.75-1.47.87-.58,1.68-1.24,2.41-1.98,1.48-1.47,2.66-3.23,3.46-5.15.4-.96.7-1.96.9-2.98.2-1.02.31-2.06.31-3.11Z"/>
                    <path class="cls-5" d="m395.97,22.04c0-1.04-.1-2.08-.3-3.11-.21-1.02-.51-2.02-.91-2.98-1.2-2.91-3.23-5.4-5.85-7.14-.87-.58-1.79-1.08-2.76-1.47-.96-.4-1.96-.7-2.98-.91-2.06-.4-4.18-.4-6.24,0-1.02.21-2.03.51-3,.91-.96.4-1.88.89-2.75,1.47-.87.57-1.68,1.23-2.41,1.97-1.48,1.48-2.66,3.23-3.46,5.17-.4.96-.7,1.96-.9,2.98-.21,1.02-.31,2.06-.31,3.11,0,1.04.1,2.08.31,3.11.2,1.02.5,2.02.9,2.98.8,1.93,1.98,3.68,3.46,5.15.73.74,1.54,1.41,2.41,1.98.87.58,1.79,1.07,2.75,1.47.97.4,1.97.7,3,.9,2.06.42,4.18.42,6.24,0,1.02-.2,2.02-.5,2.98-.9.96-.4,1.89-.89,2.76-1.47.87-.58,1.67-1.25,2.41-1.98,1.47-1.48,2.64-3.23,3.44-5.15.4-.96.7-1.96.91-2.98.2-1.02.3-2.06.3-3.11Z"/>
                    <path class="cls-5" d="m350.01,22.04c0-1.04-.1-2.09-.31-3.11-.2-1.02-.5-2.02-.9-2.98-1.19-2.92-3.24-5.4-5.87-7.14-.86-.58-1.78-1.08-2.75-1.47-.96-.4-1.96-.7-2.98-.91-2.06-.4-4.18-.4-6.24,0-1.02.21-2.02.51-2.98.91-.96.4-1.88.89-2.75,1.47-2.62,1.74-4.66,4.23-5.87,7.14-.4.96-.7,1.96-.91,2.98-.2,1.02-.3,2.06-.3,3.11,0,1.04.1,2.08.3,3.11.21,1.02.52,2.02.91,2.98.8,1.93,1.97,3.68,3.44,5.15,1.48,1.48,3.24,2.65,5.17,3.46.96.4,1.96.7,2.98.9,2.06.42,4.18.42,6.24,0,1.02-.2,2.02-.5,2.98-.9,1.93-.81,3.69-1.98,5.17-3.46,1.47-1.48,2.64-3.23,3.44-5.15.4-.96.7-1.96.9-2.98.21-1.02.31-2.06.31-3.11Z"/>
                    <path class="cls-5" d="m302.44,22.04c0-1.04-.1-2.09-.31-3.11-.2-1.02-.5-2.02-.9-2.98-.4-.96-.9-1.89-1.47-2.76-.58-.87-1.25-1.67-1.98-2.41-1.48-1.47-3.23-2.64-5.15-3.44-.96-.4-1.96-.7-2.98-.91-2.06-.4-4.18-.4-6.24,0-1.02.21-2.02.51-2.98.91-3.9,1.61-7,4.71-8.61,8.61-.4.96-.7,1.96-.91,2.98-.2,1.02-.3,2.06-.3,3.11,0,1.04.1,2.08.3,3.11.21,1.02.52,2.02.91,2.98.8,1.93,1.97,3.68,3.44,5.15.74.74,1.54,1.4,2.41,1.98.87.58,1.79,1.07,2.76,1.47.96.4,1.96.7,2.98.9,2.06.42,4.18.42,6.24,0,1.02-.2,2.02-.5,2.98-.9.96-.4,1.88-.89,2.75-1.47,1.73-1.17,3.23-2.66,4.39-4.39.58-.87,1.07-1.79,1.47-2.75.4-.96.7-1.96.9-2.98.21-1.02.31-2.06.31-3.11Z"/>
                    <path class="cls-5" d="m256.46,22.04c0-1.04-.1-2.08-.3-3.11-.2-1.02-.51-2.02-.91-2.98-.79-1.94-1.96-3.7-3.44-5.17-.74-.73-1.54-1.4-2.41-1.97-.87-.58-1.79-1.08-2.76-1.47-.96-.4-1.96-.7-2.98-.91-2.06-.4-4.18-.4-6.24,0-1.02.21-2.02.51-2.98.91-.95.4-1.87.89-2.72,1.47-.87.58-1.67,1.24-2.41,1.97-1.49,1.47-2.66,3.23-3.44,5.17-.41.96-.71,1.96-.91,2.98-.2,1.02-.31,2.06-.31,3.11,0,1.04.11,2.08.31,3.11.2,1.02.5,2.02.91,2.98,1.21,2.9,3.24,5.39,5.85,7.14.87.58,1.79,1.07,2.76,1.47.96.4,1.96.7,2.98.9,2.06.42,4.18.42,6.24,0,1.02-.2,2.02-.5,2.98-.9.96-.4,1.89-.89,2.76-1.47,3.5-2.35,5.93-5.99,6.76-10.12.19-1.03.27-2.07.26-3.11Z"/>
                    <path class="cls-5" d="m209.77,22.04c0-1.04-.1-2.09-.31-3.11-.2-1.02-.5-2.02-.9-2.98-.4-.96-.9-1.89-1.47-2.76-.58-.87-1.25-1.67-1.98-2.41-1.48-1.47-3.23-2.64-5.15-3.44-.96-.4-1.96-.7-2.98-.91-2.06-.4-4.18-.4-6.24,0-1.02.21-2.02.51-2.98.91-3.9,1.61-7,4.71-8.61,8.61-.4.96-.7,1.96-.91,2.98-.2,1.02-.3,2.06-.3,3.11,0,1.04.1,2.08.3,3.11.21,1.02.52,2.02.91,2.98.8,1.93,1.97,3.68,3.44,5.15.74.74,1.54,1.4,2.41,1.98.87.58,1.79,1.07,2.76,1.47.96.4,1.96.7,2.98.9,2.06.42,4.18.42,6.24,0,1.02-.2,2.02-.5,2.98-.9.96-.4,1.88-.89,2.75-1.47,1.73-1.17,3.23-2.66,4.39-4.39.58-.87,1.07-1.79,1.47-2.75.4-.96.7-1.96.9-2.98.21-1.02.31-2.06.31-3.11Z"/>
                    <path class="cls-5" d="m165.67,22.04c0-1.04-.1-2.08-.3-3.11-.2-1.02-.51-2.02-.91-2.98-.79-1.94-1.96-3.7-3.44-5.17-.74-.73-1.54-1.4-2.41-1.97-.87-.58-1.79-1.08-2.76-1.47-.96-.4-1.96-.7-2.98-.91-2.06-.4-4.18-.4-6.24,0-1.02.21-2.02.51-2.98.91-.97.4-1.89.89-2.76,1.47-.87.58-1.67,1.24-2.41,1.97-1.49,1.47-2.66,3.23-3.44,5.17-.41.96-.71,1.96-.91,2.98-.2,1.02-.31,2.06-.31,3.11,0,1.04.11,2.08.31,3.11.2,1.02.5,2.02.91,2.98,1.21,2.9,3.24,5.39,5.85,7.14.87.58,1.79,1.07,2.76,1.47.96.4,1.96.7,2.98.9,2.06.42,4.18.42,6.24,0,1.02-.2,2.02-.5,2.98-.9.96-.4,1.89-.89,2.76-1.47,3.5-2.35,5.93-5.99,6.76-10.12.2-1.02.3-2.06.3-3.11Z"/>
                    <path class="cls-5" d="m119.7,22.04c0-1.05-.11-2.09-.31-3.12-.21-1.02-.51-2.02-.91-2.98-.8-1.93-1.97-3.69-3.44-5.17-1.49-1.47-3.24-2.64-5.17-3.44-.96-.39-1.95-.68-2.96-.89-2.06-.4-4.18-.4-6.24,0-1.02.21-2.02.52-2.98.91-1.93.8-3.68,1.97-5.15,3.44-.74.74-1.4,1.54-1.98,2.41-.58.87-1.07,1.79-1.47,2.76-.39.95-.69,1.94-.89,2.96-.21,1.02-.31,2.06-.31,3.11,0,1.05.1,2.1.31,3.13.2,1.02.5,2.02.9,2.98.4.96.89,1.88,1.47,2.75,1.17,1.73,2.66,3.23,4.39,4.39.87.58,1.79,1.07,2.75,1.47.96.39,1.95.69,2.97.89,3.09.61,6.29.3,9.2-.9.96-.4,1.88-.89,2.75-1.47.87-.58,1.68-1.24,2.42-1.98,1.47-1.48,2.64-3.23,3.44-5.15.39-.96.7-1.95.91-2.97.2-1.03.31-2.07.31-3.12Z"/>
                    <path class="cls-5" d="m72.14,22.04c0-1.04-.1-2.09-.31-3.11-.2-1.02-.5-2.02-.9-2.98-1.19-2.92-3.24-5.4-5.87-7.14-.86-.58-1.78-1.08-2.75-1.47-.96-.4-1.96-.7-2.98-.91-2.06-.4-4.18-.4-6.24,0-1.02.21-2.02.51-2.98.91-.96.4-1.88.89-2.75,1.47-2.62,1.74-4.66,4.23-5.87,7.14-.4.96-.7,1.96-.91,2.98-.2,1.02-.3,2.06-.3,3.11,0,1.04.1,2.08.3,3.11.21,1.02.52,2.02.91,2.98.8,1.93,1.97,3.68,3.44,5.15,1.48,1.48,3.24,2.65,5.17,3.46.96.4,1.96.7,2.98.9,2.06.42,4.18.42,6.24,0,1.02-.2,2.02-.5,2.98-.9,1.93-.81,3.69-1.98,5.17-3.46,1.47-1.48,2.64-3.23,3.44-5.15.4-.96.7-1.96.9-2.98.21-1.02.31-2.06.31-3.11Z"/>
                </g>
                <g>
                    <path class="cls-5" d="m897.5,477.78c0-1.04-.1-2.08-.31-3.1-.4-2.05-1.2-4.01-2.37-5.74-.57-.87-1.23-1.68-1.97-2.41-.74-.74-1.55-1.4-2.42-1.98-.87-.58-1.79-1.07-2.75-1.47-.96-.4-1.96-.7-2.98-.9-2.06-.42-4.18-.42-6.24,0-1.02.2-2.02.5-2.98.9-.96.4-1.88.89-2.75,1.47-.87.58-1.68,1.25-2.42,1.98-.74.73-1.4,1.54-1.97,2.41-.58.86-1.07,1.78-1.47,2.75-.4.97-.7,1.97-.91,3-.4,2.06-.4,4.18,0,6.24.21,1.02.51,2.02.91,2.98.4.97.89,1.89,1.47,2.76,1.15,1.74,2.65,3.23,4.39,4.38.86.58,1.78,1.08,2.75,1.47.96.4,1.96.7,2.98.91,2.06.4,4.18.4,6.24,0,1.02-.21,2.02-.51,2.98-.91.96-.4,1.88-.89,2.75-1.47,1.74-1.15,3.24-2.64,4.39-4.38,1.74-2.62,2.67-5.7,2.68-8.85v-.04Z"/>
                    <path class="cls-5" d="m853.41,477.78c0-1.04-.11-2.08-.31-3.1-.2-1.03-.5-2.03-.9-3-.4-.96-.9-1.88-1.47-2.75-1.17-1.73-2.66-3.23-4.39-4.39-.87-.58-1.79-1.07-2.75-1.47-.97-.4-1.97-.7-3-.9-2.06-.42-4.18-.42-6.24,0-1.02.2-2.02.5-2.98.9-.96.4-1.89.89-2.76,1.47-.86.58-1.67,1.25-2.41,1.98-.74.73-1.4,1.54-1.97,2.41-1.17,1.74-1.98,3.69-2.38,5.74-.4,2.06-.4,4.18,0,6.24.41,2.05,1.22,4,2.38,5.74,1.15,1.74,2.64,3.23,4.38,4.38.87.58,1.79,1.08,2.76,1.47.96.4,1.96.7,2.98.91,2.06.4,4.18.4,6.24,0,1.02-.21,2.03-.52,3-.91.96-.4,1.88-.89,2.75-1.47.87-.57,1.68-1.23,2.41-1.97.74-.74,1.4-1.55,1.98-2.41.58-.87,1.07-1.79,1.47-2.76.4-.96.7-1.96.9-2.98.21-1.04.31-2.09.31-3.14Z"/>
                    <path class="cls-5" d="m807.43,477.78c0-1.04-.1-2.08-.3-3.1-.21-1.02-.51-2.03-.91-3-.4-.96-.89-1.88-1.47-2.75-.57-.87-1.23-1.68-1.97-2.41-.74-.74-1.55-1.4-2.41-1.98-.87-.58-1.79-1.07-2.76-1.47-.96-.4-1.96-.7-2.98-.9-2.06-.42-4.18-.42-6.24,0-1.03.2-2.03.5-3,.9-.96.4-1.88.9-2.75,1.47-1.73,1.17-3.23,2.66-4.39,4.39-.58.87-1.07,1.79-1.47,2.75-.4.97-.7,1.97-.9,3-.42,2.06-.42,4.18,0,6.24.2,1.02.5,2.02.9,2.98.4.96.89,1.89,1.47,2.76.58.86,1.25,1.67,1.98,2.41.73.74,1.54,1.4,2.41,1.97.86.58,1.78,1.07,2.75,1.47.97.4,1.97.7,3,.91,2.06.4,4.18.4,6.24,0,1.02-.21,2.02-.51,2.98-.91.97-.4,1.89-.89,2.76-1.47,1.74-1.15,3.23-2.64,4.38-4.38.58-.87,1.08-1.79,1.47-2.76.4-.96.7-1.96.91-2.98.2-1.04.3-2.09.3-3.15Z"/>
                    <path class="cls-5" d="m759.87,477.78c0-1.04-.1-2.08-.3-3.1-.21-1.02-.51-2.03-.91-3-.4-.96-.89-1.88-1.47-2.75-.57-.87-1.23-1.68-1.97-2.41-.74-.74-1.55-1.4-2.42-1.98-.87-.58-1.79-1.07-2.75-1.47-.96-.4-1.96-.7-2.98-.9-2.06-.42-4.18-.42-6.24,0-1.02.2-2.02.5-2.98.9-1.93.8-3.68,1.98-5.15,3.46-.74.73-1.41,1.54-1.98,2.41-1.17,1.73-1.97,3.69-2.37,5.74-.42,2.06-.42,4.18,0,6.24.4,2.05,1.21,4,2.37,5.74.58.87,1.25,1.67,1.98,2.41,1.48,1.47,3.23,2.64,5.15,3.44.96.4,1.96.7,2.98.91,2.06.4,4.18.4,6.24,0,1.02-.21,2.02-.51,2.98-.91.96-.4,1.88-.89,2.75-1.47,1.74-1.15,3.24-2.64,4.39-4.38.58-.87,1.08-1.79,1.47-2.76.4-.96.7-1.96.91-2.98.2-1.04.3-2.09.3-3.14Z"/>
                    <path class="cls-5" d="m713.9,477.78c0-1.04-.1-2.08-.31-3.1-.2-1.03-.5-2.03-.9-3-.4-.96-.9-1.88-1.47-2.75-.58-.87-1.24-1.68-1.98-2.41-1.47-1.48-3.23-2.66-5.15-3.46-.96-.4-1.96-.7-2.98-.9-3.09-.61-6.29-.3-9.2.9-1.93.8-3.69,1.97-5.17,3.46-.74.73-1.4,1.54-1.97,2.41-.58.86-1.07,1.78-1.47,2.75-.4.97-.7,1.97-.91,3-.4,2.06-.4,4.18,0,6.24.21,1.02.51,2.02.91,2.98.4.97.89,1.89,1.47,2.76,1.75,2.62,4.23,4.65,7.14,5.85.96.4,1.96.7,2.98.91,2.06.4,4.18.4,6.24,0,1.02-.21,2.02-.52,2.98-.91,1.93-.8,3.68-1.97,5.15-3.44.74-.74,1.4-1.54,1.98-2.41.58-.87,1.07-1.79,1.47-2.76.4-.96.7-1.96.9-2.98.2-1.04.3-2.09.29-3.15Z"/>
                    <path class="cls-5" d="m668.05,477.78c0-1.04-.1-2.08-.3-3.1-.21-1.02-.51-2.03-.91-3-.4-.96-.89-1.88-1.47-2.75-.57-.87-1.23-1.68-1.97-2.41-1.48-1.48-3.23-2.66-5.17-3.46-.96-.4-1.96-.7-2.98-.9-2.06-.42-4.18-.42-6.24,0-1.02.2-2.02.5-2.98.9-1.93.8-3.68,1.98-5.15,3.46-.74.73-1.41,1.54-1.98,2.41-.58.87-1.07,1.79-1.47,2.75-.4.97-.7,1.97-.9,3-.42,2.06-.42,4.18,0,6.24.2,1.02.5,2.02.9,2.98.4.96.89,1.89,1.47,2.76.58.87,1.25,1.67,1.98,2.41,1.48,1.47,3.23,2.64,5.15,3.44.96.4,1.96.7,2.98.91,2.06.4,4.18.4,6.24,0,1.02-.21,2.02-.51,2.98-.91,2.91-1.2,5.4-3.23,7.14-5.85.58-.87,1.08-1.79,1.47-2.76.4-.96.7-1.96.91-2.98.2-1.04.3-2.09.3-3.15Z"/>
                    <path class="cls-5" d="m623.95,477.78c0-1.04-.1-2.08-.31-3.1-.4-2.05-1.2-4.01-2.37-5.74-.58-.87-1.24-1.68-1.98-2.41-1.47-1.48-3.23-2.66-5.15-3.46-.96-.4-1.96-.7-2.98-.9-2.06-.42-4.18-.42-6.24,0-1.02.2-2.02.5-2.98.9-.96.4-1.88.89-2.75,1.47-.87.58-1.68,1.25-2.42,1.98-.74.73-1.4,1.54-1.97,2.41-.58.86-1.07,1.78-1.47,2.75-.4.97-.7,1.97-.91,3-.4,2.06-.4,4.18,0,6.24.21,1.02.51,2.02.91,2.98.4.97.89,1.89,1.47,2.76,1.15,1.74,2.65,3.23,4.39,4.38.86.58,1.78,1.08,2.75,1.47.96.4,1.96.7,2.98.91,2.06.4,4.18.4,6.24,0,1.02-.21,2.02-.52,2.98-.91,1.93-.8,3.68-1.97,5.15-3.44.74-.74,1.4-1.54,1.98-2.41,1.74-2.62,2.67-5.7,2.68-8.85v-.04Z"/>
                    <path class="cls-5" d="m577.99,477.78c0-1.04-.11-2.08-.31-3.1-.2-1.03-.5-2.03-.91-3-.4-.96-.89-1.88-1.46-2.75-1.17-1.73-2.66-3.23-4.39-4.39-.87-.58-1.79-1.07-2.76-1.47-.96-.4-1.96-.7-2.98-.9-2.06-.42-4.18-.42-6.24,0-1.02.2-2.02.5-2.98.9-.96.4-1.89.89-2.76,1.47-.86.58-1.67,1.25-2.41,1.98-.74.74-1.4,1.54-1.98,2.41-.57.87-1.06,1.79-1.46,2.75-.4.97-.71,1.97-.91,3-.4,2.06-.4,4.18,0,6.24.2,1.02.51,2.02.91,2.98.4.96.89,1.89,1.46,2.76.58.86,1.25,1.67,1.98,2.41.74.73,1.54,1.4,2.41,1.97.87.58,1.79,1.08,2.76,1.47.96.4,1.96.7,2.98.91,2.06.4,4.18.4,6.24,0,1.02-.21,2.02-.51,2.98-.91.97-.4,1.89-.89,2.76-1.47.87-.57,1.68-1.23,2.41-1.97.74-.74,1.4-1.55,1.98-2.41.57-.87,1.06-1.79,1.46-2.76.41-.96.71-1.96.91-2.98.21-1.04.31-2.09.31-3.15Z"/>
                    <path class="cls-5" d="m530.41,477.78c0-1.04-.1-2.08-.3-3.1-.41-2.05-1.22-4-2.38-5.74-.57-.87-1.23-1.68-1.97-2.41-.74-.74-1.55-1.4-2.41-1.98-.87-.58-1.79-1.07-2.76-1.47-.96-.4-1.96-.7-2.98-.9-2.06-.42-4.18-.42-6.24,0-1.03.2-2.03.5-3,.9-.96.4-1.88.9-2.75,1.47-1.73,1.17-3.23,2.66-4.39,4.39-.58.87-1.07,1.79-1.47,2.75-.4.97-.7,1.97-.9,3-.42,2.06-.42,4.18,0,6.24.2,1.02.5,2.02.9,2.98.4.96.89,1.89,1.47,2.76.58.86,1.25,1.67,1.98,2.41.73.74,1.54,1.4,2.41,1.97.86.58,1.78,1.07,2.75,1.47.97.4,1.97.7,3,.91,2.06.4,4.18.4,6.24,0,1.02-.21,2.02-.51,2.98-.91.97-.4,1.89-.89,2.76-1.47,1.74-1.15,3.23-2.64,4.38-4.38,1.16-1.74,1.97-3.69,2.38-5.74.2-1.04.3-2.09.3-3.15Z"/>
                    <path class="cls-5" d="m484.45,477.78c0-1.04-.1-2.08-.3-3.1-.21-1.02-.51-2.03-.91-3-.4-.96-.89-1.88-1.47-2.75-.57-.87-1.23-1.68-1.97-2.41-.74-.74-1.55-1.4-2.42-1.98-.87-.58-1.79-1.07-2.75-1.47-.96-.4-1.96-.7-2.98-.9-2.06-.42-4.18-.42-6.24,0-1.02.2-2.02.5-2.98.9-.96.4-1.88.89-2.75,1.47-.87.58-1.68,1.25-2.42,1.98-.74.73-1.4,1.54-1.97,2.41-1.17,1.73-1.97,3.69-2.37,5.74-.42,2.06-.42,4.18,0,6.24.4,2.05,1.21,4,2.37,5.74,1.15,1.74,2.65,3.23,4.39,4.38.86.58,1.78,1.08,2.75,1.47.96.4,1.96.7,2.98.91,2.06.4,4.18.4,6.24,0,1.02-.21,2.02-.51,2.98-.91.96-.4,1.88-.89,2.75-1.47,1.74-1.15,3.24-2.64,4.39-4.38.58-.87,1.08-1.79,1.47-2.76.4-.96.7-1.96.91-2.98.2-1.04.3-2.09.3-3.14Z"/>
                    <path class="cls-5" d="m440.08,477.78c0-1.04-.11-2.08-.31-3.1-.2-1.03-.5-2.03-.9-3-.4-.96-.9-1.88-1.47-2.75-1.17-1.73-2.66-3.23-4.39-4.39-.87-.58-1.79-1.07-2.75-1.47-.97-.4-1.97-.7-3-.9-2.06-.42-4.18-.42-6.24,0-1.02.2-2.02.5-2.98.9-.96.4-1.89.89-2.76,1.47-.86.58-1.67,1.25-2.41,1.98-.74.73-1.4,1.54-1.97,2.41-1.17,1.74-1.98,3.69-2.38,5.74-.4,2.06-.4,4.18,0,6.24.41,2.05,1.22,4,2.38,5.74,1.15,1.74,2.64,3.23,4.38,4.38.87.58,1.79,1.08,2.76,1.47.96.4,1.96.7,2.98.91,2.06.4,4.18.4,6.24,0,1.02-.21,2.03-.51,3-.91.96-.4,1.88-.89,2.75-1.47.87-.57,1.68-1.23,2.41-1.97.74-.74,1.4-1.55,1.98-2.41.58-.87,1.07-1.79,1.47-2.76.4-.96.7-1.96.9-2.98.21-1.04.31-2.09.31-3.14Z"/>
                    <path class="cls-5" d="m395.97,477.78c0-1.04-.1-2.08-.3-3.1-.21-1.02-.51-2.03-.91-3-.4-.96-.89-1.88-1.47-2.75-.57-.87-1.23-1.68-1.97-2.41-.74-.74-1.55-1.4-2.41-1.98-.87-.58-1.79-1.07-2.76-1.47-.96-.4-1.96-.7-2.98-.9-2.06-.42-4.18-.42-6.24,0-1.03.2-2.03.5-3,.9-.96.4-1.88.9-2.75,1.47-1.73,1.17-3.23,2.66-4.39,4.39-.58.87-1.07,1.79-1.47,2.75-.4.97-.7,1.97-.9,3-.42,2.06-.42,4.18,0,6.24.2,1.02.5,2.02.9,2.98.4.96.89,1.89,1.47,2.76.58.86,1.25,1.67,1.98,2.41.73.74,1.54,1.4,2.41,1.97.86.58,1.78,1.07,2.75,1.47.97.4,1.97.7,3,.91,2.06.4,4.18.4,6.24,0,1.02-.21,2.02-.51,2.98-.91.97-.4,1.89-.89,2.76-1.47,1.74-1.15,3.23-2.64,4.38-4.38.58-.87,1.08-1.79,1.47-2.76.4-.96.7-1.96.91-2.98.2-1.04.3-2.09.3-3.15Z"/>
                    <path class="cls-5" d="m350.01,477.78c0-1.04-.1-2.08-.31-3.1-.4-2.05-1.2-4.01-2.37-5.74-.57-.87-1.23-1.68-1.97-2.41-.74-.74-1.55-1.4-2.42-1.98-.87-.58-1.79-1.07-2.75-1.47-.96-.4-1.96-.7-2.98-.9-2.06-.42-4.18-.42-6.24,0-1.02.2-2.02.5-2.98.9-.96.4-1.88.89-2.75,1.47-.87.58-1.68,1.25-2.42,1.98-.74.73-1.4,1.54-1.97,2.41-.58.86-1.07,1.78-1.47,2.75-.4.97-.7,1.97-.91,3-.4,2.06-.4,4.18,0,6.24.21,1.02.51,2.02.91,2.98.4.97.89,1.89,1.47,2.76,1.15,1.74,2.65,3.23,4.39,4.38.86.58,1.78,1.08,2.75,1.47.96.4,1.96.7,2.98.91,2.06.4,4.18.4,6.24,0,1.02-.21,2.02-.51,2.98-.91.96-.4,1.88-.89,2.75-1.47,1.74-1.15,3.24-2.64,4.39-4.38,1.74-2.62,2.67-5.7,2.68-8.85v-.04Z"/>
                    <path class="cls-5" d="m302.44,477.78c0-1.04-.1-2.08-.31-3.1-.2-1.03-.5-2.03-.9-3-.4-.96-.9-1.88-1.47-2.75-.58-.87-1.24-1.68-1.98-2.41-1.47-1.48-3.23-2.66-5.15-3.46-.96-.4-1.96-.7-2.98-.9-3.09-.61-6.29-.3-9.2.9-1.93.8-3.69,1.97-5.17,3.46-.74.73-1.4,1.54-1.97,2.41-.58.86-1.07,1.78-1.47,2.75-.4.97-.7,1.97-.91,3-.4,2.06-.4,4.18,0,6.24.21,1.02.51,2.02.91,2.98.4.97.89,1.89,1.47,2.76,1.75,2.62,4.23,4.65,7.14,5.85.96.4,1.96.7,2.98.91,2.06.4,4.18.4,6.24,0,1.02-.21,2.02-.52,2.98-.91,1.93-.8,3.68-1.97,5.15-3.44.74-.74,1.4-1.54,1.98-2.41.58-.87,1.07-1.79,1.47-2.76.4-.96.7-1.96.9-2.98.2-1.04.3-2.09.29-3.15Z"/>
                    <path class="cls-5" d="m256.46,477.78c0-1.04-.1-2.08-.3-3.1-.2-1.03-.51-2.03-.91-3-.4-.96-.89-1.88-1.46-2.75-.58-.87-1.25-1.67-1.98-2.41-.74-.74-1.55-1.4-2.41-1.98-.87-.58-1.79-1.07-2.76-1.47-.96-.4-1.96-.7-2.98-.9-2.06-.42-4.18-.42-6.24,0-1.02.2-2.02.5-2.98.9-.96.4-1.89.89-2.76,1.47-.86.58-1.67,1.25-2.41,1.98-.74.74-1.4,1.54-1.98,2.41-.57.87-1.06,1.79-1.46,2.75-.41.96-.71,1.97-.91,3-.42,2.06-.42,4.18,0,6.24.2,1.02.5,2.02.91,2.98.4.96.89,1.89,1.46,2.76.58.86,1.25,1.67,1.98,2.41.74.73,1.54,1.4,2.41,1.97.87.58,1.79,1.08,2.76,1.47.96.4,1.96.7,2.98.91,2.06.4,4.18.4,6.24,0,1.02-.21,2.02-.51,2.98-.91.97-.4,1.89-.89,2.76-1.47.87-.58,1.67-1.24,2.41-1.97.74-.74,1.4-1.55,1.98-2.41.57-.87,1.06-1.79,1.46-2.76.4-.96.71-1.96.91-2.98.2-1.04.3-2.09.3-3.15Z"/>
                    <path class="cls-5" d="m209.77,477.78c0-1.04-.1-2.08-.31-3.1-.2-1.03-.5-2.03-.9-3-.4-.96-.9-1.88-1.47-2.75-.58-.87-1.24-1.68-1.98-2.41-1.47-1.48-3.23-2.66-5.15-3.46-.96-.4-1.96-.7-2.98-.9-3.09-.61-6.29-.3-9.2.9-1.93.8-3.69,1.97-5.17,3.46-.74.73-1.4,1.54-1.97,2.41-.58.86-1.07,1.78-1.47,2.75-.4.97-.7,1.97-.91,3-.4,2.06-.4,4.18,0,6.24.21,1.02.51,2.02.91,2.98.4.97.89,1.89,1.47,2.76,1.75,2.62,4.23,4.65,7.14,5.85.96.4,1.96.7,2.98.91,2.06.4,4.18.4,6.24,0,1.02-.21,2.02-.52,2.98-.91,1.93-.8,3.68-1.97,5.15-3.44.74-.74,1.4-1.54,1.98-2.41.58-.87,1.07-1.79,1.47-2.76.4-.96.7-1.96.9-2.98.2-1.04.3-2.09.29-3.15Z"/>
                    <path class="cls-5" d="m165.67,477.78c0-1.04-.1-2.08-.3-3.1-.2-1.03-.51-2.03-.91-3-.4-.96-.89-1.88-1.46-2.75-.58-.87-1.25-1.67-1.98-2.41-.74-.74-1.55-1.4-2.41-1.98-.87-.58-1.79-1.07-2.76-1.47-.96-.4-1.96-.7-2.98-.9-2.06-.42-4.18-.42-6.24,0-1.02.2-2.02.5-2.98.9-.96.4-1.89.89-2.76,1.47-.86.58-1.67,1.25-2.41,1.98-.74.74-1.4,1.54-1.98,2.41-.57.87-1.06,1.79-1.46,2.75-.41.96-.71,1.97-.91,3-.42,2.06-.42,4.18,0,6.24.2,1.02.5,2.02.91,2.98.4.96.89,1.89,1.46,2.76.58.86,1.25,1.67,1.98,2.41.74.73,1.54,1.4,2.41,1.97.87.58,1.79,1.08,2.76,1.47.96.4,1.96.7,2.98.91,2.06.4,4.18.4,6.24,0,1.02-.21,2.02-.51,2.98-.91.97-.4,1.89-.89,2.76-1.47.87-.58,1.67-1.24,2.41-1.97.74-.74,1.4-1.55,1.98-2.41.57-.87,1.06-1.79,1.46-2.76.4-.96.71-1.96.91-2.98.2-1.04.3-2.09.3-3.15Z"/>
                    <path class="cls-5" d="m119.7,477.78c0-1.04-.1-2.08-.3-3.1-.21-1.02-.51-2.03-.91-3-.4-.96-.89-1.88-1.47-2.75-.57-.87-1.23-1.68-1.97-2.41-1.48-1.48-3.24-2.65-5.17-3.46-.96-.4-1.96-.7-2.98-.9-2.06-.42-4.18-.42-6.24,0-1.02.2-2.02.5-2.98.9-1.93.8-3.68,1.98-5.15,3.46-.74.73-1.41,1.54-1.98,2.41-.58.87-1.07,1.79-1.47,2.75-.4.97-.7,1.97-.9,3-.42,2.06-.42,4.18,0,6.24.2,1.02.5,2.02.9,2.98.4.96.89,1.89,1.47,2.76.58.87,1.25,1.67,1.98,2.41,1.48,1.47,3.23,2.64,5.15,3.44.96.4,1.96.7,2.98.91,2.06.4,4.18.4,6.24,0,1.02-.21,2.02-.51,2.98-.91,1.93-.81,3.68-1.98,5.17-3.44.73-.74,1.4-1.54,1.97-2.41.58-.87,1.08-1.79,1.47-2.76.4-.96.7-1.96.91-2.98.2-1.04.3-2.09.3-3.15Z"/>
                    <path class="cls-5" d="m72.14,477.78c0-1.04-.1-2.08-.31-3.1-.4-2.05-1.2-4.01-2.37-5.74-.57-.87-1.23-1.68-1.97-2.41-.74-.74-1.55-1.4-2.42-1.98-.87-.58-1.79-1.07-2.75-1.47-.96-.4-1.96-.7-2.98-.9-2.06-.42-4.18-.42-6.24,0-1.02.2-2.02.5-2.98.9-.96.4-1.88.89-2.75,1.47-.87.58-1.68,1.25-2.42,1.98-.74.73-1.4,1.54-1.97,2.41-.58.86-1.07,1.78-1.47,2.75-.4.97-.7,1.97-.91,3-.4,2.06-.4,4.18,0,6.24.21,1.02.51,2.02.91,2.98.4.97.89,1.89,1.47,2.76,1.15,1.74,2.65,3.23,4.39,4.38.86.58,1.78,1.08,2.75,1.47.96.4,1.96.7,2.98.91,2.06.4,4.18.4,6.24,0,1.02-.21,2.02-.51,2.98-.91.96-.4,1.88-.89,2.75-1.47,1.74-1.15,3.24-2.64,4.39-4.38,1.74-2.62,2.67-5.7,2.68-8.85v-.04Z"/>
                </g>
            </g>
            <g id="puce">
                <g>
                    <rect class="cls-6" x="875.19" y="371.68" width="14.79" height="45.93"/>
                    <rect class="cls-6" x="851.55" y="371.68" width="14.79" height="45.93"/>
                    <rect class="cls-6" x="827.41" y="371.68" width="14.79" height="45.93"/>
                    <rect class="cls-6" x="802.55" y="371.68" width="14.79" height="45.93"/>
                    <rect class="cls-6" x="778.65" y="371.68" width="14.79" height="45.93"/>
                    <rect class="cls-6" x="754.71" y="371.68" width="14.79" height="45.93"/>
                    <rect class="cls-6" x="730.15" y="371.68" width="14.79" height="45.93"/>
                    <rect class="cls-6" x="705.59" y="371.68" width="14.79" height="45.93"/>
                    <rect class="cls-6" x="680.65" y="371.68" width="14.79" height="45.93"/>
                    <rect class="cls-6" x="655.79" y="371.68" width="14.79" height="45.93"/>
                    <rect class="cls-6" x="629.8" y="371.68" width="14.79" height="45.93"/>
                    <rect class="cls-6" x="604" y="371.68" width="14.79" height="45.93"/>
                    <rect class="cls-6" x="578.23" y="371.68" width="14.79" height="45.93"/>
                    <rect class="cls-6" x="551.14" y="371.68" width="14.79" height="45.93"/>
                    <rect class="cls-6" x="875.19" y="87.01" width="14.79" height="45.93"/>
                    <rect class="cls-6" x="851.55" y="87.01" width="14.79" height="45.93"/>
                    <rect class="cls-6" x="827.41" y="87.01" width="14.79" height="45.93"/>
                    <rect class="cls-6" x="802.55" y="87.01" width="14.79" height="45.93"/>
                    <rect class="cls-6" x="778.65" y="87.01" width="14.79" height="45.93"/>
                    <rect class="cls-6" x="754.71" y="87.01" width="14.79" height="45.93"/>
                    <rect class="cls-6" x="730.15" y="87.01" width="14.79" height="45.93"/>
                    <rect class="cls-6" x="705.59" y="87.01" width="14.79" height="45.93"/>
                    <rect class="cls-6" x="680.65" y="87.01" width="14.79" height="45.93"/>
                    <rect class="cls-6" x="655.79" y="87.01" width="14.79" height="45.93"/>
                    <rect class="cls-6" x="629.8" y="87.01" width="14.79" height="45.93"/>
                    <rect class="cls-6" x="604" y="87.01" width="14.79" height="45.93"/>
                    <rect class="cls-6" x="578.23" y="87.01" width="14.79" height="45.93"/>
                    <rect class="cls-6" x="551.14" y="87.01" width="14.79" height="45.93"/>
                    <rect class="cls-6" x="553.39" y="130.85" width="45.93" height="14.79"/>
                    <rect class="cls-6" x="553.39" y="154.48" width="45.93" height="14.79"/>
                    <rect class="cls-6" x="553.39" y="178.61" width="45.93" height="14.79"/>
                    <rect class="cls-6" x="553.39" y="203.47" width="45.93" height="14.79"/>
                    <rect class="cls-6" x="553.39" y="227.38" width="45.93" height="14.79"/>
                    <rect class="cls-6" x="553.39" y="251.31" width="45.93" height="14.79"/>
                    <rect class="cls-6" x="553.39" y="275.88" width="45.93" height="14.79"/>
                    <rect class="cls-6" x="553.39" y="300.43" width="45.93" height="14.79"/>
                    <rect class="cls-6" x="553.39" y="325.38" width="45.93" height="14.79"/>
                    <rect class="cls-6" x="553.39" y="350.23" width="45.93" height="14.79"/>
                    <rect class="cls-6" x="528.57" y="371.68" width="14.79" height="45.93"/>
                    <rect class="cls-6" x="506.2" y="371.68" width="14.79" height="45.93"/>
                    <rect class="cls-6" x="461.17" y="371.68" width="14.79" height="45.93"/>
                    <rect class="cls-6" x="483.85" y="371.68" width="14.79" height="45.93"/>
                    <rect class="cls-6" x="528.57" y="87.01" width="14.79" height="45.93"/>
                    <rect class="cls-6" x="506.2" y="87.01" width="14.79" height="45.93"/>
                    <rect class="cls-6" x="461.17" y="87.01" width="14.79" height="45.93"/>
                    <rect class="cls-6" x="483.85" y="87.01" width="14.79" height="45.93"/>
                </g>
                <g>
                    <rect class="cls-8" x="881.53" y="99.5" width="14.79" height="45.93"/>
                    <rect class="cls-8" x="857.89" y="99.5" width="14.79" height="45.93"/>
                    <rect class="cls-8" x="833.77" y="99.5" width="14.79" height="45.93"/>
                    <rect class="cls-8" x="808.9" y="99.5" width="14.79" height="45.93"/>
                    <rect class="cls-8" x="784.99" y="99.5" width="14.79" height="45.93"/>
                    <rect class="cls-8" x="761.05" y="99.5" width="14.79" height="45.93"/>
                    <rect class="cls-8" x="736.49" y="99.5" width="14.79" height="45.93"/>
                    <rect class="cls-8" x="711.94" y="99.5" width="14.79" height="45.93"/>
                    <rect class="cls-8" x="686.99" y="99.5" width="14.79" height="45.93"/>
                    <rect class="cls-8" x="662.14" y="99.5" width="14.79" height="45.93"/>
                    <rect class="cls-8" x="636.14" y="99.5" width="14.79" height="45.93"/>
                    <rect class="cls-8" x="610.35" y="99.5" width="14.79" height="45.93"/>
                    <rect class="cls-8" x="584.57" y="99.5" width="14.79" height="45.93"/>
                    <rect class="cls-8" x="882.75" y="357.87" width="14.79" height="45.93"/>
                    <rect class="cls-8" x="859.11" y="357.87" width="14.79" height="45.93"/>
                    <rect class="cls-8" x="834.99" y="357.87" width="14.79" height="45.93"/>
                    <rect class="cls-8" x="810.13" y="357.87" width="14.79" height="45.93"/>
                    <rect class="cls-8" x="786.21" y="357.87" width="14.79" height="45.93"/>
                    <rect class="cls-8" x="762.29" y="357.87" width="14.79" height="45.93"/>
                    <rect class="cls-8" x="737.71" y="357.87" width="14.79" height="45.93"/>
                    <rect class="cls-8" x="713.17" y="357.87" width="14.79" height="45.93"/>
                    <rect class="cls-8" x="688.22" y="357.87" width="14.79" height="45.93"/>
                    <rect class="cls-8" x="663.37" y="357.87" width="14.79" height="45.93"/>
                    <rect class="cls-8" x="637.37" y="357.87" width="14.79" height="45.93"/>
                    <rect class="cls-8" x="611.57" y="357.87" width="14.79" height="45.93"/>
                    <rect class="cls-8" x="585.79" y="357.87" width="14.79" height="45.93"/>
                    <rect class="cls-8" x="557.47" y="135.5" width="45.93" height="14.79"/>
                    <rect class="cls-8" x="557.47" y="159.14" width="45.93" height="14.79"/>
                    <rect class="cls-8" x="557.47" y="183.26" width="45.93" height="14.79"/>
                    <rect class="cls-8" x="557.47" y="208.13" width="45.93" height="14.79"/>
                    <rect class="cls-8" x="557.47" y="232.04" width="45.93" height="14.79"/>
                    <rect class="cls-8" x="557.47" y="255.98" width="45.93" height="14.79"/>
                    <rect class="cls-8" x="557.47" y="280.54" width="45.93" height="14.79"/>
                    <rect class="cls-8" x="557.47" y="305.09" width="45.93" height="14.79"/>
                    <rect class="cls-8" x="557.47" y="330.04" width="45.93" height="14.79"/>
                    <rect class="cls-8" x="557.47" y="354.89" width="45.93" height="14.79"/>
                </g>
                <path class="cls-10" d="m564.5,390.14V114.88c0-5.16,4.17-9.35,9.32-9.36h320.08c5.16.01,9.34,4.2,9.34,9.36v275.26c0,5.16-4.18,9.35-9.34,9.36h-320.08c-5.15-.02-9.32-4.21-9.32-9.36Z"/>
            </g>
            <path id="usb" class="cls-6" d="m114.78,302.72h-22.19v-103.95h22.19v-15.59H0v136.06h114.78v-16.52ZM17.46,221.52v-16.67h40.85v16.67H17.46Zm0,83.05v-16.67h40.85v16.67H17.46Z"/>
            <g id="boutons">
                <g id="bouton_left">
                    <rect class="cls-5" x="40.26" y="103.43" width="124.13" height="29.57"/>
                    <rect class="cls-10" x="61.33" y="90.95" width="82.05" height="54.58"/>
                    <circle id="button_on" class="cls-13" cx="102.34" cy="118.19" r="15.93"/>
                    <circle id="button_off" class="cls-12" cx="102.22" cy="111.19" r="15.93"/>
                </g>
                <g id="bouton_right">
                    <rect class="cls-5" x="40.26" y="356.68" width="124.13" height="29.57"/>
                    <rect class="cls-10" x="61.33" y="344.2" width="82.05" height="54.58"/>
                    <circle id="button_on-2" class="cls-13" cx="102.34" cy="371.45" r="15.93"/>
                    <circle id="button_off-2" class="cls-12" cx="102.22" cy="364.45" r="15.93"/>
                </g>
            </g>
            <g id="texts">
                <g>
                    <text class="cls-1" transform="translate(897 50.96) rotate(-180)">
                        <tspan x="0" y="0">3</tspan>
                    </text>
                    <text class="cls-1" transform="translate(886.54 50.96) rotate(-180)">
                        <tspan x="0" y="0">V</tspan>
                    </text>
                    <text class="cls-1" transform="translate(872.9 50.96) rotate(-180)">
                        <tspan x="0" y="0">3</tspan>
                    </text>
                    <text class="cls-1" transform="translate(851.16 50.96) rotate(-180)">
                        <tspan x="0" y="0">E</tspan>
                    </text>
                    <text class="cls-1" transform="translate(838.54 50.96) rotate(-180)">
                        <tspan x="0" y="0">N</tspan>
                    </text>
                    <text class="cls-1" transform="translate(804.72 50.96) rotate(-180)">
                        <tspan x="0" y="0">V</tspan>
                    </text>
                    <text class="cls-1" transform="translate(791.07 50.96) rotate(-180)">
                        <tspan x="0" y="0">P</tspan>
                    </text>
                    <text class="cls-1" transform="translate(758.14 50.96) rotate(-180)">
                        <tspan x="0" y="0">V</tspan>
                    </text>
                    <text class="cls-1" transform="translate(744.5 50.96) rotate(-180)">
                        <tspan x="0" y="0">N</tspan>
                    </text>
                    <text class="cls-1" transform="translate(709.13 50.96) rotate(-180)">
                        <tspan x="0" y="0">3</tspan>
                    </text>
                    <text class="cls-1" transform="translate(698.69 50.96) rotate(-180)">
                        <tspan x="0" y="0">4</tspan>
                    </text>
                    <text class="cls-1" transform="translate(662.94 50.96) rotate(-180)">
                        <tspan x="0" y="0">3</tspan>
                    </text>
                    <text class="cls-1" transform="translate(652.5 50.96) rotate(-180)">
                        <tspan x="0" y="0">5</tspan>
                    </text>
                    <text class="cls-1" transform="translate(618.89 50.96) rotate(-180)">
                        <tspan x="0" y="0">3</tspan>
                    </text>
                    <text class="cls-1" transform="translate(608.44 50.96) rotate(-180)">
                        <tspan x="0" y="0">2</tspan>
                    </text>
                    <text class="cls-1" transform="translate(572.52 50.96) rotate(-180)">
                        <tspan x="0" y="0">3</tspan>
                    </text>
                    <text class="cls-1" transform="translate(562.07 50.96) rotate(-180)">
                        <tspan x="0" y="0">3</tspan>
                    </text>
                    <text class="cls-1" transform="translate(525.69 50.96) rotate(-180)">
                        <tspan x="0" y="0">2</tspan>
                    </text>
                    <text class="cls-1" transform="translate(514.46 50.96) rotate(-180)">
                        <tspan x="0" y="0">5</tspan>
                    </text>
                    <text class="cls-1" transform="translate(479 50.96) rotate(-180)">
                        <tspan x="0" y="0">2</tspan>
                    </text>
                    <text class="cls-1" transform="translate(467.77 50.96) rotate(-180)">
                        <tspan x="0" y="0">6</tspan>
                    </text>
                    <text class="cls-1" transform="translate(435.35 50.96) rotate(-180)">
                        <tspan x="0" y="0">2</tspan>
                    </text>
                    <text class="cls-1" transform="translate(424.11 50.96) rotate(-180)">
                        <tspan x="0" y="0">7</tspan>
                    </text>
                    <text class="cls-1" transform="translate(389.85 50.96) rotate(-180)">
                        <tspan x="0" y="0">1</tspan>
                    </text>
                    <text class="cls-1" transform="translate(382.14 50.96) rotate(-180)">
                        <tspan x="0" y="0">4</tspan>
                    </text>
                    <text class="cls-1" transform="translate(343.58 50.96) rotate(-180)">
                        <tspan x="0" y="0">1</tspan>
                    </text>
                    <text class="cls-1" transform="translate(335.86 50.96) rotate(-180)">
                        <tspan x="0" y="0">2</tspan>
                    </text>
                    <text class="cls-1" transform="translate(308.02 50.96) rotate(-180)">
                        <tspan x="0" y="0">G</tspan>
                    </text>
                    <text class="cls-1" transform="translate(294.1 50.96) rotate(-180)">
                        <tspan x="0" y="0">N</tspan>
                    </text>
                    <text class="cls-1" transform="translate(279.39 50.96) rotate(-180)">
                        <tspan x="0" y="0">D</tspan>
                    </text>
                    <text class="cls-1" transform="translate(249.65 50.96) rotate(-180)">
                        <tspan x="0" y="0">1</tspan>
                    </text>
                    <text class="cls-1" transform="translate(241.93 50.96) rotate(-180)">
                        <tspan x="0" y="0">3</tspan>
                    </text>
                    <text class="cls-1" transform="translate(206.66 50.96) rotate(-180)">
                        <tspan x="0" y="0">D</tspan>
                    </text>
                    <text class="cls-1" transform="translate(192.3 50.96) rotate(-180)">
                        <tspan x="0" y="0">2</tspan>
                    </text>
                    <text class="cls-1" transform="translate(163.07 50.96) rotate(-180)">
                        <tspan x="0" y="0">D</tspan>
                    </text>
                    <text class="cls-1" transform="translate(148.72 50.96) rotate(-180)">
                        <tspan x="0" y="0">3</tspan>
                    </text>
                    <text class="cls-1" transform="translate(125.97 50.96) rotate(-180)">
                        <tspan x="0" y="0">C</tspan>
                    </text>
                    <text class="cls-1" transform="translate(113.01 50.96) rotate(-180)">
                        <tspan x="0" y="0">M</tspan>
                    </text>
                    <text class="cls-1" transform="translate(95.97 50.96) rotate(-180)">
                        <tspan x="0" y="0">D</tspan>
                    </text>
                    <text class="cls-1" transform="translate(68.62 50.96) rotate(-180)">
                        <tspan x="0" y="0">5</tspan>
                    </text>
                    <text class="cls-1" transform="translate(57.48 50.96) rotate(-180)">
                        <tspan x="0" y="0">V</tspan>
                    </text>
                    <text class="cls-1" transform="translate(855.63 453.46)">
                        <tspan x="0" y="0">G</tspan>
                    </text>
                    <text class="cls-1" transform="translate(869.53 453.46)">
                        <tspan x="0" y="0">N</tspan>
                    </text>
                    <text class="cls-1" transform="translate(884.25 453.46)">
                        <tspan x="0" y="0">D</tspan>
                    </text>
                    <text class="cls-1" transform="translate(826.66 453.46)">
                        <tspan x="0" y="0">2</tspan>
                    </text>
                    <text class="cls-1" transform="translate(837.9 453.46)">
                        <tspan x="0" y="0">3</tspan>
                    </text>
                    <text class="cls-1" transform="translate(779.53 453.46)">
                        <tspan x="0" y="0">2</tspan>
                    </text>
                    <text class="cls-1" transform="translate(790.77 453.46)">
                        <tspan x="0" y="0">2</tspan>
                    </text>
                    <text class="cls-1" transform="translate(731.37 453.46)">
                        <tspan x="0" y="0">T</tspan>
                    </text>
                    <text class="cls-1" transform="translate(742.81 453.46)">
                        <tspan x="0" y="0">X</tspan>
                    </text>
                    <text class="cls-1" transform="translate(684.13 453.46)">
                        <tspan x="0" y="0">R</tspan>
                    </text>
                    <text class="cls-1" transform="translate(697.69 453.46)">
                        <tspan x="0" y="0">X</tspan>
                    </text>
                    <text class="cls-1" transform="translate(642.66 453.46)">
                        <tspan x="0" y="0">2</tspan>
                    </text>
                    <text class="cls-1" transform="translate(653.89 453.46)">
                        <tspan x="0" y="0">1</tspan>
                    </text>
                    <text class="cls-1" transform="translate(586.56 453.46)">
                        <tspan x="0" y="0">G</tspan>
                    </text>
                    <text class="cls-1" transform="translate(600.46 453.46)">
                        <tspan x="0" y="0">N</tspan>
                    </text>
                    <text class="cls-1" transform="translate(615.18 453.46)">
                        <tspan x="0" y="0">D</tspan>
                    </text>
                    <text class="cls-1" transform="translate(551.55 453.46)">
                        <tspan x="0" y="0">1</tspan>
                    </text>
                    <text class="cls-1" transform="translate(559.27 453.46)">
                        <tspan x="0" y="0">9</tspan>
                    </text>
                    <text class="cls-1" transform="translate(504.64 453.46)">
                        <tspan x="0" y="0">1</tspan>
                    </text>
                    <text class="cls-1" transform="translate(512.35 453.46)">
                        <tspan x="0" y="0">8</tspan>
                    </text>
                    <text class="cls-1" transform="translate(461.9 453.46)">
                        <tspan x="0" y="0">5</tspan>
                    </text>
                    <text class="cls-1" transform="translate(414.76 453.46)">
                        <tspan x="0" y="0">1</tspan>
                    </text>
                    <text class="cls-1" transform="translate(422.47 453.46)">
                        <tspan x="0" y="0">7</tspan>
                    </text>
                    <text class="cls-1" transform="translate(370.3 453.46)">
                        <tspan x="0" y="0">1</tspan>
                    </text>
                    <text class="cls-1" transform="translate(378.01 453.46)">
                        <tspan x="0" y="0">6</tspan>
                    </text>
                    <text class="cls-1" transform="translate(327.41 453.46)">
                        <tspan x="0" y="0">4</tspan>
                    </text>
                    <text class="cls-1" transform="translate(281.36 453.46)">
                        <tspan x="0" y="0">8</tspan>
                    </text>
                    <text class="cls-1" transform="translate(234.95 453.46)">
                        <tspan x="0" y="0">2</tspan>
                    </text>
                    <text class="cls-1" transform="translate(184.45 453.46)">
                        <tspan x="0" y="0">1</tspan>
                    </text>
                    <text class="cls-1" transform="translate(192.16 453.46)">
                        <tspan x="0" y="0">5</tspan>
                    </text>
                    <text class="cls-1" transform="translate(138.69 453.46)">
                        <tspan x="0" y="0">D</tspan>
                    </text>
                    <text class="cls-1" transform="translate(153.05 453.46)">
                        <tspan x="0" y="0">1</tspan>
                    </text>
                    <text class="cls-1" transform="translate(88.6 453.46)">
                        <tspan x="0" y="0">D</tspan>
                    </text>
                    <text class="cls-1" transform="translate(102.95 453.46)">
                        <tspan x="0" y="0">0</tspan>
                    </text>
                    <text class="cls-1" transform="translate(38.81 453.46)">
                        <tspan x="0" y="0">C</tspan>
                    </text>
                    <text class="cls-1" transform="translate(51.77 453.46)">
                        <tspan x="0" y="0">L</tspan>
                    </text>
                    <text class="cls-1" transform="translate(62.25 453.46)">
                        <tspan x="0" y="0">K</tspan>
                    </text>
                </g>
                <text class="cls-4" transform="translate(810.06 131.91) rotate(90)">
                    <tspan x="0" y="0">ESP3</tspan>
                    <tspan class="cls-17" x="59.07" y="0">2</tspan>
                    <tspan class="cls-16" x="72.48" y="0">-</tspan>
                    <tspan class="cls-15" x="83.08" y="0">WROOM</tspan>
                    <tspan class="cls-16" x="186.07" y="0">-</tspan>
                    <tspan x="196.68" y="0">32D</tspan>
                </text>
                <text class="cls-3" transform="translate(843.92 166.55) rotate(90)">
                    <tspan x="0" y="0">ESPRESSIF</tspan>
                </text>
            </g>
            <g id="composants">
                <g>
                    <polygon class="cls-9" points="280.44 200.46 271.48 200.46 271.48 307.96 280.44 307.96 280.44 200.46"/>
                    <polygon class="cls-9" points="300.66 200.46 291.7 200.46 291.7 307.96 300.66 307.96 300.66 200.46"/>
                    <polygon class="cls-9" points="240 200.46 231.04 200.46 231.04 307.96 240 307.96 240 200.46"/>
                    <polygon class="cls-9" points="260.22 200.46 251.26 200.46 251.26 307.96 260.22 307.96 260.22 200.46"/>
                    <polygon class="cls-9" points="320.88 200.46 311.91 200.46 311.91 307.96 320.88 307.96 320.88 200.46"/>
                    <polygon class="cls-9" points="292.79 249.6 222.7 249.6 222.7 258.56 330.2 258.56 330.2 249.6 292.79 249.6"/>
                    <polygon class="cls-9" points="292.79 229.38 222.7 229.38 222.7 238.34 330.2 238.34 330.2 229.38 292.79 229.38"/>
                    <polygon class="cls-9" points="292.79 290.04 222.7 290.04 222.7 299 330.2 299 330.2 290.04 292.79 290.04"/>
                    <polygon class="cls-9" points="292.79 269.82 222.7 269.82 222.7 278.78 330.2 278.78 330.2 269.82 292.79 269.82"/>
                    <polygon class="cls-9" points="292.79 209.16 222.7 209.16 222.7 218.12 330.2 218.12 330.2 209.16 292.79 209.16"/>
                    <rect class="cls-11" x="230.39" y="206.65" width="92.86" height="95.3"/>
                </g>
                <g>
                    <g>
                        <rect class="cls-2" x="417.13" y="209.91" width="23" height="37.3"/>
                        <rect class="cls-2" x="346.3" y="210.7" width="23" height="37.3"/>
                        <rect class="cls-2" x="364.16" y="259.1" width="58.6" height="37.34"/>
                        <rect class="cls-2" x="381.67" y="210.7" width="23" height="37.3"/>
                        <rect class="cls-11" x="340.26" y="227.6" width="106.52" height="45.95"/>
                    </g>
                    <g>
                        <rect class="cls-2" x="364.16" y="348.72" width="22.64" height="13.95"/>
                        <rect class="cls-2" x="364.16" y="387.26" width="22.64" height="13.95"/>
                        <rect class="cls-2" x="403.3" y="367.92" width="22.64" height="13.95"/>
                        <rect class="cls-11" x="380.82" y="342.55" width="27.88" height="64.62"/>
                    </g>
                    <g>
                        <rect class="cls-2" x="261.81" y="387.15" width="22.64" height="13.95"/>
                        <rect class="cls-2" x="261.81" y="348.61" width="22.64" height="13.95"/>
                        <rect class="cls-2" x="222.65" y="367.94" width="22.64" height="13.95"/>
                        <rect class="cls-11" x="239.9" y="342.63" width="27.88" height="64.62"/>
                    </g>
                </g>
                <g>
                    <g>
                        <rect class="cls-2" x="364.52" y="99.55" width="80.28" height="34.63"/>
                        <rect class="cls-7" x="383.33" y="99.56" width="42.66" height="34.63"/>
                    </g>
                    <g>
                        <rect class="cls-2" x="364.52" y="144.6" width="80.28" height="34.63"/>
                        <rect class="cls-7" x="383.33" y="144.6" width="42.66" height="34.63"/>
                    </g>
                    <g>
                        <rect class="cls-2" x="290.83" y="148.51" width="62.18" height="26.83"/>
                        <rect class="cls-7" x="305.4" y="148.49" width="33.05" height="26.83"/>
                    </g>
                    <g>
                        <rect class="cls-2" x="219.6" y="103.45" width="62.18" height="26.83"/>
                        <rect class="cls-7" x="234.16" y="103.45" width="33.05" height="26.83"/>
                    </g>
                </g>
                <g>
                    <g>
                        <rect class="cls-2" x="139.68" y="208.16" width="54.55" height="23.54"/>
                        <rect class="cls-14" x="152.46" y="208.18" width="28.99" height="23.54"/>
                    </g>
                    <g>
                        <rect class="cls-2" x="139.68" y="238.78" width="54.55" height="23.54"/>
                        <rect class="cls-14" x="152.46" y="238.78" width="28.99" height="23.54"/>
                    </g>
                    <g>
                        <rect class="cls-2" x="139.68" y="268.83" width="54.55" height="23.54"/>
                        <rect class="cls-14" x="152.46" y="268.83" width="28.99" height="23.54"/>
                    </g>
                    <g>
                        <rect class="cls-2" x="177.04" y="111.79" width="32.36" height="13.97"/>
                        <rect class="cls-14" x="184.63" y="111.79" width="17.2" height="13.97"/>
                    </g>
                    <g>
                        <rect class="cls-2" x="267.73" y="152.86" width="13.97" height="32.36"/>
                        <rect class="cls-14" x="267.73" y="160.45" width="13.97" height="17.2"/>
                    </g>
                    <g>
                        <rect class="cls-2" x="185.62" y="316.64" width="32.36" height="13.97"/>
                        <rect class="cls-14" x="193.21" y="316.64" width="17.2" height="13.97"/>
                    </g>
                    <g>
                        <rect class="cls-2" x="185.62" y="334.8" width="32.36" height="13.97"/>
                        <rect class="cls-14" x="193.21" y="334.8" width="17.2" height="13.97"/>
                    </g>
                    <g>
                        <rect class="cls-2" x="307.1" y="325.77" width="32.36" height="13.97"/>
                        <rect class="cls-14" x="314.67" y="325.77" width="17.2" height="13.97"/>
                    </g>
                    <g>
                        <rect class="cls-2" x="307.1" y="343.93" width="32.36" height="13.97"/>
                        <rect class="cls-14" x="314.67" y="343.93" width="17.2" height="13.97"/>
                    </g>
                    <g>
                        <rect class="cls-2" x="334.07" y="99.5" width="16.64" height="38.56"/>
                        <rect class="cls-14" x="334.07" y="108.53" width="16.64" height="20.49"/>
                    </g>
                    <g>
                        <rect class="cls-2" x="312.43" y="99.5" width="16.64" height="38.56"/>
                        <rect class="cls-14" x="312.43" y="108.53" width="16.64" height="20.49"/>
                    </g>
                    <g>
                        <rect class="cls-2" x="290.8" y="99.5" width="16.64" height="38.56"/>
                        <rect class="cls-14" x="290.8" y="108.53" width="16.64" height="20.49"/>
                    </g>
                    <g>
                        <rect class="cls-2" x="250.14" y="152.86" width="13.97" height="32.36"/>
                        <rect class="cls-14" x="250.14" y="160.45" width="13.97" height="17.2"/>
                    </g>
                    <g>
                        <rect class="cls-2" x="232.95" y="152.86" width="13.97" height="32.36"/>
                        <rect class="cls-14" x="232.95" y="160.45" width="13.97" height="17.2"/>
                    </g>
                    <g>
                        <rect class="cls-2" x="215.78" y="152.86" width="13.97" height="32.36"/>
                        <rect class="cls-14" x="215.69" y="160.45" width="13.97" height="17.2"/>
                    </g>
                    <g>
                        <rect class="cls-2" x="178.05" y="153.74" width="32.36" height="13.97"/>
                        <rect class="cls-14" x="185.62" y="153.74" width="17.2" height="13.97"/>
                    </g>
                    <g>
                        <rect class="cls-2" x="178.05" y="170.4" width="32.36" height="13.97"/>
                        <rect class="cls-14" x="185.62" y="170.4" width="17.2" height="13.97"/>
                    </g>
                </g>
            </g>
        </g>
    </g>
</svg>