<?xml version="1.0" encoding="UTF-8"?>
<svg id="Calque_2"
    xmlns="http://www.w3.org/2000/svg"
    xmlns:xlink="http://www.w3.org/1999/xlink" viewBox="0 0 843.99 825.6">
    <defs>
        <style>.cls-1{fill:none;}.cls-2{fill:#e8e5d7;}.cls-3{fill:#6d6d6d;}.cls-4{fill:#bdbdbd;}.cls-5{fill:gray;}.cls-6{fill:#727272;}.cls-7{fill:#d9d9d9;}.cls-8{fill:#171616;}.cls-9{fill:#dbddda;}.cls-10{fill:#e7e5d5;}.cls-11{fill:#ccc;}.cls-12{fill:#d8d8d8;}.cls-13{fill:#a6a6a6;}.cls-14{clip-path:url(#clippath-1);}.cls-15{clip-path:url(#clippath-3);}.cls-16{clip-path:url(#clippath-4);}.cls-17{clip-path:url(#clippath-2);}.cls-18{fill:#fff;}.cls-19{fill:#fefefe;}.cls-20{fill:#2a2d2e;}.cls-21{fill:#555;}.cls-22{clip-path:url(#clippath);}.cls-23{fill:#999;}.cls-24{fill:#e0d976;}</style>
        <clipPath id="clippath">
            <rect class="cls-1" x="607.41" y="145.13" width="121.5" height="547.88"/>
        </clipPath>
        <clipPath id="clippath-1">
            <rect class="cls-1" x="492.63" y="17.33" width="22.35" height="446.44"/>
        </clipPath>
        <clipPath id="clippath-2">
            <rect class="cls-1" x="555.26" y="17.33" width="22.35" height="317.7"/>
        </clipPath>
        <clipPath id="clippath-3">
            <rect class="cls-1" x="275.28" y="491.43" width="284.55" height="25.52"/>
        </clipPath>
        <clipPath id="clippath-4">
            <rect class="cls-1" x="306.82" y="524.74" width="249.3" height="25.52"/>
        </clipPath>
    </defs>
    <g id="Calque_1-2">
        <g id="ilo-card-front">
            <path d="M763.99,272.03h40.01c22.09,0,40-17.91,40-40V0102.02c0-55-45-100-100-100H119.73C64.73,2.02,19.73,47.02,19.73,102.02v130.01c0,22.09,17.91,40,40,40h40.01c22.09,0,40,17.91,40,40v203.56c0,22.09-17.91,40-40,40h-40.01c-22.09,0-40,17.91-40,40v130.01c0,55,45,100,100,100h0c174.35-167.58,449.92-167.58,624.27,0h0c55,0,100-45,100-100v-130.01c0-22.09-17.91-40-40-40h-40.01c-22.09,0-40-17.91-40-40v-203.56c0-22.09,17.91-40,40-40ZM748.99,74.52c12.43,0,22.5,10.07,22.5,22.5s-10.07,22.5-22.5,22.5-22.5-10.07-22.5-22.5,10.07-22.5,22.5-22.5ZM114.44,119.52c-12.43,0-22.5-10.07-22.5-22.5s10.07-22.5,22.5-22.5,22.5,10.07,22.5,22.5-10.07,22.5-22.5,22.5ZM114.44,753.1c-12.43,0-22.5-10.07-22.5-22.5s10.07-22.5,22.5-22.5,22.5,10.07,22.5,22.5-10.07,22.5-22.5,22.5ZM748.99,708.1c12.43,0,22.5,10.07,22.5,22.5s-10.07,22.5-22.5,22.5-22.5-10.07-22.5-22.5,10.07-22.5,22.5-22.5Z"/>
            <g id="fixations">
                <path class="cls-4" d="M114.44,57.02c-22.09,0-40,17.91-40,40s17.91,40,40,40,40-17.91,40-40-17.91-40-40-40ZM114.44,119.52c-12.43,0-22.5-10.07-22.5-22.5s10.07-22.5,22.5-22.5,22.5,10.07,22.5,22.5-10.07,22.5-22.5,22.5Z"/>
                <path class="cls-4" d="M748.99,57.02c-22.09,0-40,17.91-40,40s17.91,40,40,40,40-17.91,40-40-17.91-40-40-40ZM748.99,119.52c-12.43,0-22.5-10.07-22.5-22.5s10.07-22.5,22.5-22.5,22.5,10.07,22.5,22.5-10.07,22.5-22.5,22.5Z"/>
                <path class="cls-4" d="M114.44,690.6c-22.09,0-40,17.91-40,40s17.91,40,40,40,40-17.91,40-40-17.91-40-40-40ZM114.44,753.1c-12.43,0-22.5-10.07-22.5-22.5s10.07-22.5,22.5-22.5,22.5,10.07,22.5,22.5-10.07,22.5-22.5,22.5Z"/>
                <path class="cls-4" d="M748.99,690.6c-22.09,0-40,17.91-40,40s17.91,40,40,40,40-17.91,40-40-17.91-40-40-40ZM748.99,753.1c-12.43,0-22.5-10.07-22.5-22.5s10.07-22.5,22.5-22.5,22.5,10.07,22.5,22.5-10.07,22.5-22.5,22.5Z"/>
            </g>
            <g id="logo_vittascience">
                <path class="cls-18" d="M518.78,617.48c-1.39.39-2.91,1.42-3.02,2.98-.4,5.42,6.57,5.03,9.88,3.19.53-.3,1.34-.91,1.82-1.3.17-.14,1.2-1.08,1.2-1.2v-4.15c-3.19.17-6.78-.39-9.87.48Z"/>
                <path class="cls-18" d="M487.28,641.94c-3.05-1.76-7.15-1.2-9.44,1.52-1.06,1.26-1.6,3.11-1.65,4.73,1.62,0,3.25,0,4.87,0,3.24,0,6.49,0,9.74,0-.01-2.52-1.33-4.99-3.52-6.25Z"/>
                <path class="cls-18" d="M564.7,641.62c-1.33.6-2.69,1.9-3.34,3.21-.48.98-.74,2.28-.75,3.36.82,0,1.65,0,2.47,0,4.04.02,8.09-.01,12.14,0-.04-5.46-5.56-8.8-10.52-6.57Z"/>
                <path class="cls-18" d="M589.64,647.3c-.12-1.14-.3-2.29-.55-3.41-.43-1.98-1.15-3.88-2.11-5.67-.65-1.21-1.38-2.36-2.26-3.41-.5-.59-.98-1.19-1.53-1.72-1.39-1.34-2.91-2.5-4.6-3.45-1.76-.98-3.63-1.68-5.59-2.12-.98-.22-1.99-.32-3-.42-.78-.08-1.56-.16-2.34-.13-1.23.06-2.45.19-3.67.33-1.75.19-3.42.69-5.02,1.4-1.08.48-2.09,1.11-3.15,1.66-.1.05-.26.06-.35,0-.62-.32-1.21-.68-1.84-.98-1.8-.87-3.66-1.55-5.62-1.93-.91-.18-1.85-.26-2.77-.35-.67-.07-1.35-.1-2.08-.15v-.4c0-4.97,0-9.94,0-14.91,0-1.62-.25-3.2-.65-4.76-.39-1.53-.97-3-1.72-4.39-.59-1.09-1.26-2.12-2.08-3.05-.45-.51-.88-1.04-1.38-1.5-1.19-1.12-2.49-2.1-3.91-2.9-1.19-.67-2.44-1.22-3.75-1.63-1.22-.38-2.46-.64-3.73-.81-1.57-.22-3.15-.23-4.73-.18-1.02.03-2.04.2-3.05.33-2.17.26-4.27.87-6.33,1.58-.34.12-.66.28-1,.38-.12.04-.3.02-.41-.04-1.01-.61-2.07-1.1-3.23-1.37-.2-.05-.33-.14-.46-.33-.64-.97-1.38-1.85-2.3-2.58-.98-.79-2.05-1.42-3.23-1.82-.74-.25-1.51-.41-2.28-.53-.61-.09-1.25-.07-1.87-.08-1.24-.01-2.42.28-3.57.73-1.43.57-2.69,1.38-3.78,2.47-.62.63-1.29,1.22-1.94,1.84-1.48-2.2-3.43-3.8-6-4.58-2.56-.78-5.07-.64-7.54.34-.8-1.23-1.71-2.34-2.87-3.26-1.25-1-2.62-1.77-4.15-2.21-.76-.22-1.55-.32-2.33-.48-.04,0-.07-.04-.11-.06h-3.02c-.37.07-.74.11-1.1.21-.87.25-1.73.51-2.58.82-1.07.39-2.01,1.04-2.89,1.75-1.13.91-2.07,2.01-2.82,3.26-.79,1.3-1.33,2.7-1.59,4.21-.02.11-.18.26-.3.29-.92.25-1.81.58-2.65,1.03-.9.48-1.75,1.04-2.5,1.75-.49.46-1,.91-1.51,1.39-.26-.28-.61-.66-.97-1.02-1.37-1.36-2.99-2.32-4.82-2.92-.9-.29-1.81-.46-2.76-.55-1.76-.17-3.46.07-5.11.63-1.37.47-2.61,1.17-3.72,2.11-1.4,1.17-2.51,2.55-3.29,4.19-.56,1.19-.95,2.43-1.07,3.75-.05.52-.14,1.03-.13,1.55.03,1.7.35,3.34,1.01,4.91.73,1.73,1.43,3.47,2.15,5.2.74,1.78,1.51,3.56,2.25,5.34.71,1.71,1.41,3.42,2.13,5.13.56,1.35,1.14,2.69,1.71,4.03-.67-.29-1.3-.62-1.96-.84-1.34-.44-2.7-.87-4.07-1.21-.96-.24-1.96-.37-2.95-.49-.96-.11-1.94-.15-2.91-.21-.49-.03-.98-.09-1.46-.06-1.03.06-2.07.17-3.1.27-1.44.13-2.84.49-4.21.96-2.04.7-3.9,1.72-5.58,3.08-1.63,1.32-2.98,2.89-4.04,4.69-.95,1.6-1.63,3.31-1.95,5.15-.17.99-.26,2.01-.35,3.01-.19,2.22.19,4.36.9,6.46.22.64.53,1.25.82,1.87.08.18.1.31-.03.5-.91,1.41-1.52,2.93-1.76,4.6-.03.23-.09.45-.13.67v2.67c.09.45.18.91.28,1.36.39,1.79,1.17,3.4,2.32,4.82,1.02,1.25,2.24,2.26,3.68,3.03,1.39.74,2.82,1.38,4.31,1.85,1.44.45,2.91.77,4.39,1.05,1.08.2,2.19.27,3.29.35.91.06,1.82.12,2.73.06,1.16-.07,2.33-.23,3.48-.4,2.1-.3,4.08-1,5.95-1.99,1.16-.61,2.23-1.34,3.24-2.2,5.62,4.02,11.88,5.28,18.67,4.27.17.56.33,1.12.52,1.68.47,1.38,1.18,2.63,2.12,3.75,1.26,1.52,2.77,2.7,4.57,3.52.99.45,2.03.74,3.11.92,1.17.2,2.34.17,3.5.11,1.3-.07,2.55-.42,3.76-.92,1.1-.46,2.1-1.07,3.01-1.81,1.1-.89,2.03-1.95,2.78-3.16.82-1.32,1.38-2.73,1.64-4.26.05-.28.11-.55.15-.78,7.08,2.01,14,1.84,20.75-1.41,4.63,3.54,11.97,3.4,16.55-1.5,2.28,2.44,5.1,3.77,8.44,3.92,3.34.15,6.28-.87,8.83-3.08.42.23.85.49,1.3.72,1.74.9,3.56,1.57,5.46,2,1.06.24,2.14.39,3.22.49,1.15.11,2.31.17,3.47.13,1.44-.05,2.86-.21,4.28-.51,2.43-.5,4.66-1.47,6.84-2.61.16-.08.32-.16.46-.27.22-.17.38-.08.58.04,1.66,1.02,3.41,1.83,5.29,2.33.94.25,1.88.49,2.83.67.66.13,1.34.18,2.01.22,1.22.07,2.45.15,3.68.13,1.07-.02,2.14-.16,3.2-.26,1.55-.15,3.06-.51,4.54-1.02,2.09-.73,4.1-1.63,5.93-2.87,2.35-1.6,3.97-3.75,4.8-6.47.24-.8.33-1.64.45-2.47.22-1.59-.04-3.14-.51-4.66-.04-.11-.02-.28.04-.38.52-1,.91-2.04,1.11-3.15.12-.67.22-1.36.24-2.04.03-.93.03-1.87-.07-2.8ZM424.7,661.9c-3.62,2.28-9.23,1.84-13.11.39-.79-.29-2.4-.91-2.85-1.6-.73-1.11-.1-2.89,1.28-3.09.96-.14,1.65.37,2.52.67,2.3.79,4.27,1.12,6.72.96.83-.05,2.71-.48,3.32-1.03.02-.02.36-.45.41-.51.55-.76.85-2.19.24-2.98-.81-1.05-4.7-1.94-6.07-2.33-2.74-.77-5.28-1.18-7.24-3.49-2.04-2.42-1.54-6.38.38-8.71,1.22-1.49,2.83-2.38,4.73-2.78,3.03-.64,7.83-.29,10.7.96,1.28.56,1.78,2.05.83,3.15-1.14,1.32-2.62.42-4.03.12-2.58-.54-9.09-1.05-9.54,2.72-.13,1.06.3,1.96,1.23,2.47,3.88,2.1,11.31,1.59,13.29,6.49,1.32,3.27.13,6.74-2.8,8.59ZM454.1,661.36c-1.2.73-2.72,1.38-4.09,1.7-7.37,1.75-15.19-2.12-16.64-9.86-1.03-5.49.75-10.97,5.53-14,4.35-2.74,9.93-2.85,14.47-.45.97.51,2.17,1.14,2.2,2.4.02.83-.73,1.87-1.56,2-1.16.18-2.9-1.04-4.1-1.43-2.62-.83-6.61-.46-8.88,1.17-2.07,1.49-3.22,4.19-3.36,6.68-.36,6.43,4.02,10.14,10.29,9.56,1.1-.1,1.91-.33,2.93-.74,1.48-.61,3.12-2.05,4.36-.13.86,1.34,0,2.38-1.13,3.08ZM455.7,606.07c-2,4.79-4.03,9.57-6.04,14.36-.9,2.15-1.73,4.61-2.75,6.67-.74,1.48-2.13,1.94-3.72,1.75-1.89-.22-2.46-2.29-3.09-3.76-2.79-6.47-5.46-13.02-8.06-19.56-.24-2.55,2.94-3.5,4.24-1.36l7.62,19.35,2.85-7.13c0-.11.15-.21.17-.27,1.59-4.03,3.07-8.13,4.77-12.13,1.67-2.14,4.81-.58,4.01,2.09ZM464.06,673.14h-1.51c-3.05-1.01-2.4-5.47,1-5.28,3.04.17,3.36,4.48.51,5.28ZM461.05,605.11c.06-.96.87-1.94,1.83-2.07,1.37-.19,2.51.55,2.69,1.93v22.07c-.44,2.28-3.71,2.52-4.43.31-.24-7.39-.04-14.83-.1-22.24ZM465.64,639.31v21.45c-.27,2.94-4.37,2.96-4.6,0v-21.59c.04-.95.9-1.93,1.84-2.08,1.51-.23,2.66.7,2.76,2.21ZM466.05,595.72c-.23,3.39-5.79,3.15-5.42-.62.11-1.08,1.02-2.13,2.11-2.28,1.95-.26,3.45.87,3.31,2.9ZM470.87,606.74c-.28-.17-.45-.55-.43-.87.04-.68,1.24-1.48,1.72-1.96,1.72-1.7,3.64-3.9,5.45-5.42.41-.34.79-.66,1.36-.39.18.08.53.52.53.7v4.15h5.79c2.32,0,2.39,3.98-.14,3.98h-5.66c0,2.81,0,5.62,0,8.43,0,2.23-.15,4.77,0,6.96.03.45.18,1.38.48,1.71,1.02,1.12,3.31.92,4.66.65.02,0,.14-.13.34-.17,2.27-.51,3.46,2.02,1.75,3.26-.1.07-.21.05-.24.06-2.67,1.6-7.98,1.52-10.15-1-1.13-1.31-1.28-2.67-1.37-4.32-.27-4.81.06-9.69,0-14.5,0-.03-.06-.14-.07-.24-.02-.29.01-.58,0-.86-.36,0-.73,0-1.1,0-.7,0-2.39.13-2.93-.19ZM493.17,651.89c-3.37,0-6.75,0-10.12,0-2.28,0-4.57,0-6.86,0,.19,2.44,1.43,4.86,3.57,6.13,1.93,1.14,4.39,1.32,6.58,1.14,1.37-.11,2.72-.41,4-.91.98-.38,1.66-1.03,2.78-.69,1.16.35,1.75,1.68,1.14,2.76-.71,1.27-4.38,2.53-5.79,2.81-7.92,1.59-15.52-1.43-16.72-10.05-.68-4.88.25-9.82,3.97-13.18,5.62-5.09,15.19-3.23,18.37,3.75.93,2.05,2.75,8.01-.91,8.25ZM493.96,623c-.05-5.13.07-10.26,0-15.39,0-.21,0-.43,0-.64,0-.03-.24-.11-.28-.11-1.07-.13-2.49.16-3.53,0-.7-.11-.86-1.13-.41-1.64.53-.6,1.36-1.27,1.95-1.85,1.74-1.72,3.48-3.45,5.26-5.13.39-.3.89-.32,1.25.03.05.05.28.38.28.4v4.28h5.86c.12,0,.59.17.72.24,1.76.85,1.09,3.74-.86,3.74h-5.73c0,2.69,0,5.39,0,8.09,0,2.31-.25,5.58.08,7.77.37,2.45,3.03,2.24,4.93,1.89.65-.12.99-.41,1.73-.19,1.39.41,1.77,2.24.67,3.17-.27.22-.4.2-.62.31-4.22,2.14-11.3.83-11.32-4.97ZM524.61,661.18c-.38,2.63-4.07,2.75-4.58.12l-.02-14.99c-.26-3.06-1.91-4.89-5.04-5.04-3.19-.15-5.61,1.44-7.65,3.7-.22.25-.86.91-.89,1.2v14.95c-.33,2.8-4.37,2.82-4.59-.07v-21.53c.08-.86.41-1.47,1.17-1.88,1.06-.59,2.24-.36,2.98.62.14.19.45.85.45,1.06v2.23c1.75-1.74,3.72-3.43,6.16-4.09,6.5-1.76,11.66,2.18,12.02,8.79.27,4.89-.2,10.03,0,14.94ZM528.66,626.77v-1.61c-.36.31-.69.66-1.06.96-.13.1-.3.15-.38.21-2.63,2-5.41,2.74-8.75,2.54-8.63-.52-10.24-11.92-1.54-14.74,3.76-1.22,7.82-.72,11.73-.82.05-1.97-.29-4.22-2.04-5.4-2.43-1.65-6.79-1.19-9.5-.47-.73.19-1.83.72-2.56.66-.78-.06-1.59-.83-1.68-1.61-.19-1.7.99-2.13,2.31-2.62,7.25-2.71,16.89-1.97,17.98,7.35v15.62c-.38,1.6-2.31,2.4-3.67,1.34-.33-.26-.86-.98-.86-1.4ZM534.84,654.03c1.43,3.6,4.87,5.28,8.62,5.19,1.29-.03,2.36-.2,3.56-.65.79-.3,2.26-1.22,2.99-1.27,1.76-.12,2.74,2.26,1.44,3.49-1.12,1.06-4.27,2.22-5.79,2.47-9.89,1.6-17.45-5.67-15.82-15.64.45-2.76,1.65-4.91,3.61-6.84,4.46-4.38,11.66-4.85,16.98-1.73.73.43,1.52.89,1.6,1.83.07.72-.13,1.37-.69,1.85-1.25,1.1-2.57-.04-3.77-.55-3.88-1.63-9.07-1.1-11.72,2.43-1.84,2.45-2.12,6.61-1.01,9.41ZM579.74,650.11c-.23.99-1.05,1.62-2.03,1.77-4.21.02-8.43,0-12.64,0-1.51,0-3.02,0-4.53,0,.26,1.46.63,2.87,1.48,4.11,1.96,2.84,5.29,3.4,8.53,3.16,1.48-.11,2.81-.37,4.2-.91,1.11-.43,1.92-1.21,3.16-.52.93.52,1.29,1.65.76,2.59-.77,1.36-4.51,2.54-6,2.81-7.06,1.31-14.25-.83-16.19-8.39-1.13-4.39-.51-10.21,2.48-13.75,1.72-2.03,3.92-3.3,6.57-3.75,7.57-1.28,13.53,3.48,14.15,11.04l.06.11v1.71Z"/>
            </g>
            <g id="esp32_module">
                <rect class="cls-19" x="161.18" y="299.82" width="16.61" height="11.27"/>
                <rect class="cls-19" x="161.18" y="283.49" width="16.61" height="11.27"/>
                <rect class="cls-19" x="161.18" y="267.16" width="16.61" height="11.27"/>
                <rect class="cls-19" x="161.18" y="250.83" width="16.61" height="11.27"/>
                <rect class="cls-19" x="161.18" y="234.49" width="16.61" height="11.27"/>
                <rect class="cls-19" x="161.18" y="218.16" width="16.61" height="11.27"/>
                <rect class="cls-19" x="161.18" y="201.83" width="16.61" height="11.27"/>
                <rect class="cls-19" x="161.18" y="185.49" width="16.61" height="11.27"/>
                <rect class="cls-19" x="161.18" y="169.16" width="16.61" height="11.27"/>
                <rect class="cls-19" x="161.18" y="152.83" width="16.61" height="11.27"/>
                <rect class="cls-19" x="161.18" y="136.5" width="16.61" height="11.27"/>
                <rect class="cls-19" x="161.18" y="120.17" width="16.61" height="11.27"/>
                <rect class="cls-19" x="161.18" y="103.81" width="16.61" height="11.27"/>
                <rect class="cls-19" x="161.18" y="87.7" width="16.61" height="11.27"/>
                <rect class="cls-6" x="173.02" width="231.5" height="327.74"/>
                <path class="cls-24" d="M232.25,10.83c0-2.94-2.39-5.33-5.33-5.33h-28.87c-2.94,0-5.33,2.39-5.33,5.33v56.71h10.66V16.16h18.21v28.89c0,2.94,2.39,5.33,5.33,5.33h32.97c2.94,0,5.33-2.39,5.33-5.33v-28.89h17.2v29.38c0,2.94,2.39,5.33,5.33,5.33h33.7c2.94,0,5.33-2.39,5.33-5.33v-29.38h16.88v60.18h10.66V16.16h17.82v60.18h10.66V010.83c0-2.94-2.39-5.33-5.33-5.33h-56.02c-2.94,0-5.33,2.39-5.33,5.33v29.38h-23.04V010.83c0-2.94-2.39-5.33-5.33-5.33h-27.86c-2.94,0-5.33,2.39-5.33,5.33v28.89h-22.31V010.83Z"/>
                <rect class="cls-19" x="399.19" y="301.84" width="16.61" height="11.38"/>
                <rect class="cls-19" x="399.19" y="285.35" width="16.61" height="11.38"/>
                <rect class="cls-19" x="399.19" y="268.87" width="16.61" height="11.38"/>
                <rect class="cls-19" x="399.19" y="252.38" width="16.61" height="11.38"/>
                <rect class="cls-19" x="399.19" y="235.89" width="16.61" height="11.38"/>
                <rect class="cls-19" x="399.19" y="219.4" width="16.61" height="11.38"/>
                <rect class="cls-19" x="399.19" y="202.91" width="16.61" height="11.38"/>
                <rect class="cls-19" x="399.19" y="186.43" width="16.61" height="11.38"/>
                <rect class="cls-19" x="399.19" y="169.94" width="16.61" height="11.38"/>
                <rect class="cls-19" x="399.19" y="153.46" width="16.61" height="11.38"/>
                <rect class="cls-19" x="399.19" y="136.97" width="16.61" height="11.38"/>
                <rect class="cls-19" x="399.19" y="120.48" width="16.61" height="11.38"/>
                <rect class="cls-19" x="399.19" y="103.97" width="16.61" height="11.38"/>
                <rect class="cls-19" x="399.19" y="87.7" width="16.61" height="11.38"/>
                <rect class="cls-19" x="211.4" y="321.51" width="11.31" height="16.61"/>
                <rect class="cls-19" x="227.78" y="321.51" width="11.31" height="16.61"/>
                <rect class="cls-19" x="244.17" y="321.51" width="11.31" height="16.61"/>
                <rect class="cls-19" x="260.55" y="321.51" width="11.31" height="16.61"/>
                <rect class="cls-19" x="276.93" y="321.51" width="11.31" height="16.61"/>
                <rect class="cls-19" x="293.3" y="321.51" width="11.31" height="16.61"/>
                <rect class="cls-19" x="309.68" y="321.51" width="11.31" height="16.61"/>
                <rect class="cls-19" x="326.06" y="321.51" width="11.31" height="16.61"/>
                <rect class="cls-19" x="342.46" y="321.51" width="11.31" height="16.61"/>
                <rect class="cls-19" x="358.62" y="321.51" width="11.31" height="16.61"/>
                <path class="cls-12" d="M183.6,313.55V87.84c0-2.62,2.19-4.74,4.88-4.74h199.32c2.7,0,4.88,2.12,4.88,4.74v225.72c0,2.62-2.19,4.74-4.88,4.74h-199.32c-2.7,0-4.88-2.12-4.88-4.74Z"/>
            </g>
            <g id="buttons">
                <g id="bouton_2">
                    <rect class="cls-2" x="27.27" y="151.31" width="74.32" height="17.7" rx="1" ry="1"/>
                    <rect class="cls-7" x="37.02" y="141.94" width="54.81" height="36.46" rx="1" ry="1"/>
                    <circle id="button_on" class="cls-21" cx="64.42" cy="160.14" r="10.64"/>
                    <circle id="button_off" class="cls-5" cx="69.01" cy="160.14" r="10.64"/>
                </g>
                <g id="bouton_1">
                    <rect class="cls-2" x="27.27" y="233.16" width="74.32" height="17.7" rx="1" ry="1"/>
                    <rect class="cls-7" x="37.02" y="223.8" width="54.81" height="36.46" rx="1" ry="1"/>
                    <circle id="button_on-2" class="cls-21" cx="64.42" cy="242" r="10.64"/>
                    <circle id="button_off-2" class="cls-5" cx="69.01" cy="242" r="10.64"/>
                </g>
            </g>
            <g class="cls-22">
                <g id="_Grille_de_répétition_">
                    <polygon class="cls-11" points="700.13 201.08 700.13 210 726.2 210 726.2 145.13 666.81 145.13 607.41 145.13 607.41 210 633.48 210 633.48 201.08 666.81 201.08 700.13 201.08"/>
                    <path class="cls-10" d="M721.98,205.15h-17.64v-8.92h-75.08v8.92h-17.64v-55.17h110.36v55.17M726.2,210v-64.87h-118.8v64.87h26.08v-8.92h66.65v8.92h26.08Z"/>
                    <rect class="cls-13" x="695.99" y="165.35" width="15.72" height="13.66" transform="translate(876.03 -531.67) rotate(90)"/>
                    <rect class="cls-13" x="671.3" y="165.35" width="15.72" height="13.66" transform="translate(851.33 -506.97) rotate(90)"/>
                    <rect class="cls-13" x="646.6" y="165.35" width="15.72" height="13.66" transform="translate(826.64 -482.28) rotate(90)"/>
                    <rect class="cls-13" x="621.91" y="165.35" width="15.72" height="13.66" transform="translate(801.94 -457.58) rotate(90)"/>
                </g>
                <g id="_Grille_de_répétition_-2">
                    <polygon class="cls-11" points="700.13 270 700.13 278.92 726.2 278.92 726.2 214.05 666.81 214.05 607.41 214.05 607.41 278.92 633.48 278.92 633.48 270 666.81 270 700.13 270"/>
                    <path class="cls-10" d="M721.98,274.07h-17.64v-8.92h-75.08v8.92h-17.64v-55.17h110.36v55.17M726.2,278.92v-64.87h-118.8v64.87h26.08v-8.92h66.65v8.92h26.08Z"/>
                    <rect class="cls-13" x="695.99" y="234.27" width="15.72" height="13.66" transform="translate(944.95 -462.75) rotate(90)"/>
                    <rect class="cls-13" x="671.3" y="234.27" width="15.72" height="13.66" transform="translate(920.25 -438.06) rotate(90)"/>
                    <rect class="cls-13" x="646.6" y="234.27" width="15.72" height="13.66" transform="translate(895.56 -413.36) rotate(90)"/>
                    <rect class="cls-13" x="621.91" y="234.27" width="15.72" height="13.66" transform="translate(870.86 -388.67) rotate(90)"/>
                </g>
                <g id="_Grille_de_répétition_-3">
                    <polygon class="cls-11" points="700.13 338.92 700.13 347.84 726.2 347.84 726.2 282.97 666.81 282.97 607.41 282.97 607.41 347.84 633.48 347.84 633.48 338.92 666.81 338.92 700.13 338.92"/>
                    <path class="cls-10" d="M721.98,342.99h-17.64v-8.92h-75.08v8.92h-17.64v-55.17h110.36v55.17M726.2,347.84v-64.87h-118.8v64.87h26.08v-8.92h66.65v8.92h26.08Z"/>
                    <rect class="cls-13" x="695.99" y="303.18" width="15.72" height="13.66" transform="translate(1013.86 -393.83) rotate(90)"/>
                    <rect class="cls-13" x="671.3" y="303.18" width="15.72" height="13.66" transform="translate(989.17 -369.14) rotate(90)"/>
                    <rect class="cls-13" x="646.6" y="303.18" width="15.72" height="13.66" transform="translate(964.47 -344.44) rotate(90)"/>
                    <rect class="cls-13" x="621.91" y="303.18" width="15.72" height="13.66" transform="translate(939.78 -319.75) rotate(90)"/>
                </g>
                <g id="_Grille_de_répétition_-4">
                    <polygon class="cls-11" points="700.13 407.84 700.13 416.76 726.2 416.76 726.2 351.88 666.81 351.88 607.41 351.88 607.41 416.76 633.48 416.76 633.48 407.84 666.81 407.84 700.13 407.84"/>
                    <path class="cls-10" d="M721.98,411.9h-17.64v-8.92h-75.08v8.92h-17.64v-55.17h110.36v55.17M726.2,416.76v-64.87h-118.8v64.87h26.08v-8.92h66.65v8.92h26.08Z"/>
                    <rect class="cls-13" x="695.99" y="372.1" width="15.72" height="13.66" transform="translate(1082.78 -324.92) rotate(90)"/>
                    <rect class="cls-13" x="671.3" y="372.1" width="15.72" height="13.66" transform="translate(1058.09 -300.22) rotate(90)"/>
                    <rect class="cls-13" x="646.6" y="372.1" width="15.72" height="13.66" transform="translate(1033.39 -275.53) rotate(90)"/>
                    <rect class="cls-13" x="621.91" y="372.1" width="15.72" height="13.66" transform="translate(1008.7 -250.83) rotate(90)"/>
                </g>
                <g id="_Grille_de_répétition_-5">
                    <polygon class="cls-11" points="700.13 476.75 700.13 485.67 726.2 485.67 726.2 420.8 666.81 420.8 607.41 420.8 607.41 485.67 633.48 485.67 633.48 476.75 666.81 476.75 700.13 476.75"/>
                    <path class="cls-10" d="M721.98,480.82h-17.64v-8.92h-75.08v8.92h-17.64v-55.17h110.36v55.17M726.2,485.67v-64.87h-118.8v64.87h26.08v-8.92h66.65v8.92h26.08Z"/>
                    <rect class="cls-13" x="695.99" y="441.02" width="15.72" height="13.66" transform="translate(1151.7 -256) rotate(90)"/>
                    <rect class="cls-13" x="671.3" y="441.02" width="15.72" height="13.66" transform="translate(1127 -231.3) rotate(90)"/>
                    <rect class="cls-13" x="646.6" y="441.02" width="15.72" height="13.66" transform="translate(1102.31 -206.61) rotate(90)"/>
                    <rect class="cls-13" x="621.91" y="441.02" width="15.72" height="13.66" transform="translate(1077.61 -181.91) rotate(90)"/>
                </g>
                <g id="_Grille_de_répétition_-6">
                    <polygon class="cls-11" points="700.13 545.67 700.13 554.59 726.2 554.59 726.2 489.72 666.81 489.72 607.41 489.72 607.41 554.59 633.48 554.59 633.48 545.67 666.81 545.67 700.13 545.67"/>
                    <path class="cls-10" d="M721.98,549.74h-17.64v-8.92h-75.08v8.92h-17.64v-55.17h110.36v55.17M726.2,554.59v-64.87h-118.8v64.87h26.08v-8.92h66.65v8.92h26.08Z"/>
                    <rect class="cls-13" x="695.99" y="509.94" width="15.72" height="13.66" transform="translate(1220.62 -187.08) rotate(90)"/>
                    <rect class="cls-13" x="671.3" y="509.94" width="15.72" height="13.66" transform="translate(1195.92 -162.39) rotate(90)"/>
                    <rect class="cls-13" x="646.6" y="509.94" width="15.72" height="13.66" transform="translate(1171.23 -137.69) rotate(90)"/>
                    <rect class="cls-13" x="621.91" y="509.94" width="15.72" height="13.66" transform="translate(1146.53 -113) rotate(90)"/>
                </g>
                <g id="_Grille_de_répétition_-7">
                    <polygon class="cls-11" points="700.13 614.59 700.13 623.51 726.2 623.51 726.2 558.64 666.81 558.64 607.41 558.64 607.41 623.51 633.48 623.51 633.48 614.59 666.81 614.59 700.13 614.59"/>
                    <path class="cls-10" d="M721.98,618.65h-17.64v-8.92h-75.08v8.92h-17.64v-55.17h110.36v55.17M726.2,623.51v-64.87h-118.8v64.87h26.08v-8.92h66.65v8.92h26.08Z"/>
                    <rect class="cls-13" x="695.99" y="578.85" width="15.72" height="13.66" transform="translate(1289.53 -118.16) rotate(90)"/>
                    <rect class="cls-13" x="671.3" y="578.85" width="15.72" height="13.66" transform="translate(1264.84 -93.47) rotate(90)"/>
                    <rect class="cls-13" x="646.6" y="578.85" width="15.72" height="13.66" transform="translate(1240.14 -68.77) rotate(90)"/>
                    <rect class="cls-13" x="621.91" y="578.85" width="15.72" height="13.66" transform="translate(1215.45 -44.08) rotate(90)"/>
                </g>
                <g id="_Grille_de_répétition_-8">
                    <polygon class="cls-11" points="700.13 683.51 700.13 692.43 726.2 692.43 726.2 627.55 666.81 627.55 607.41 627.55 607.41 692.43 633.48 692.43 633.48 683.51 666.81 683.51 700.13 683.51"/>
                    <path class="cls-10" d="M721.98,687.57h-17.64v-8.92h-75.08v8.92h-17.64v-55.17h110.36v55.17M726.2,692.43v-64.87h-118.8v64.87h26.08v-8.92h66.65v8.92h26.08Z"/>
                    <rect class="cls-13" x="695.99" y="647.77" width="15.72" height="13.66" transform="translate(1358.45 -49.25) rotate(90)"/>
                    <rect class="cls-13" x="671.3" y="647.77" width="15.72" height="13.66" transform="translate(1333.76 -24.55) rotate(90)"/>
                    <rect class="cls-13" x="646.6" y="647.77" width="15.72" height="13.66" transform="translate(1309.06 .14) rotate(90)"/>
                    <rect class="cls-13" x="621.91" y="647.77" width="15.72" height="13.66" transform="translate(1284.37 24.84) rotate(90)"/>
                </g>
            </g>
            <g id="pins">
                <rect class="cls-9" x="492.63" y="245.28" width="21.78" height="21.78"/>
                <rect class="cls-9" x="555.26" y="310.07" width="21.78" height="21.78"/>
                <rect class="cls-9" x="275.28" y="491.43" width="21.78" height="21.78"/>
                <rect class="cls-9" x="533" y="491.43" width="21.78" height="21.78"/>
                <rect class="cls-9" x="533" y="524.9" width="21.78" height="21.78"/>
                <rect class="cls-9" x="492.63" y="440.32" width="21.78" height="21.78"/>
                <g class="cls-14">
                    <path class="cls-23" d="M503.53,37.7c-5.23,0-9.48-4.25-9.48-9.48s4.25-9.48,9.48-9.48,9.48,4.25,9.48,9.48-4.25,9.48-9.48,9.48Z"/>
                    <path class="cls-9" d="M503.53,20.17c4.44,0,8.06,3.62,8.06,8.06s-3.62,8.06-8.06,8.06-8.06-3.62-8.06-8.06,3.62-8.06,8.06-8.06M503.53,17.33c-6.02,0-10.9,4.88-10.9,10.89s4.88,10.89,10.9,10.89,10.89-4.88,10.89-10.89-4.88-10.89-10.89-10.89h0Z"/>
                    <path class="cls-23" d="M503.53,70.25c-5.23,0-9.48-4.25-9.48-9.48s4.25-9.48,9.48-9.48,9.48,4.25,9.48,9.48-4.25,9.48-9.48,9.48Z"/>
                    <path class="cls-9" d="M503.53,52.71c4.44,0,8.06,3.62,8.06,8.06s-3.62,8.06-8.06,8.06-8.06-3.62-8.06-8.06,3.62-8.06,8.06-8.06M503.53,49.88c-6.02,0-10.9,4.88-10.9,10.89s4.88,10.89,10.9,10.89,10.89-4.88,10.89-10.89-4.88-10.89-10.89-10.89h0Z"/>
                    <path class="cls-23" d="M503.53,102.79c-5.23,0-9.48-4.25-9.48-9.48s4.25-9.48,9.48-9.48,9.48,4.25,9.48,9.48-4.25,9.48-9.48,9.48Z"/>
                    <path class="cls-9" d="M503.53,85.25c4.44,0,8.06,3.62,8.06,8.06s-3.62,8.06-8.06,8.06-8.06-3.62-8.06-8.06,3.62-8.06,8.06-8.06M503.53,82.42c-6.02,0-10.9,4.88-10.9,10.89s4.88,10.89,10.9,10.89,10.89-4.88,10.89-10.89-4.88-10.89-10.89-10.89h0Z"/>
                    <path class="cls-23" d="M503.53,135.33c-5.23,0-9.48-4.25-9.48-9.48s4.25-9.48,9.48-9.48,9.48,4.25,9.48,9.48-4.25,9.48-9.48,9.48Z"/>
                    <path class="cls-9" d="M503.53,117.79c4.44,0,8.06,3.62,8.06,8.06s-3.62,8.06-8.06,8.06-8.06-3.62-8.06-8.06,3.62-8.06,8.06-8.06M503.53,114.96c-6.02,0-10.9,4.88-10.9,10.89s4.88,10.89,10.9,10.89,10.89-4.88,10.89-10.89-4.88-10.89-10.89-10.89h0Z"/>
                    <path class="cls-23" d="M503.53,167.87c-5.23,0-9.48-4.25-9.48-9.48s4.25-9.48,9.48-9.48,9.48,4.25,9.48,9.48-4.25,9.48-9.48,9.48Z"/>
                    <path class="cls-9" d="M503.53,150.34c4.44,0,8.06,3.62,8.06,8.06s-3.62,8.06-8.06,8.06-8.06-3.62-8.06-8.06,3.62-8.06,8.06-8.06M503.53,147.5c-6.02,0-10.9,4.88-10.9,10.89s4.88,10.89,10.9,10.89,10.89-4.88,10.89-10.89-4.88-10.89-10.89-10.89h0Z"/>
                    <path class="cls-23" d="M503.53,200.42c-5.23,0-9.48-4.25-9.48-9.48s4.25-9.48,9.48-9.48,9.48,4.25,9.48,9.48-4.25,9.48-9.48,9.48Z"/>
                    <path class="cls-9" d="M503.53,182.88c4.44,0,8.06,3.62,8.06,8.06s-3.62,8.06-8.06,8.06-8.06-3.62-8.06-8.06,3.62-8.06,8.06-8.06M503.53,180.05c-6.02,0-10.9,4.88-10.9,10.89s4.88,10.89,10.9,10.89,10.89-4.88,10.89-10.89-4.88-10.89-10.89-10.89h0Z"/>
                    <path class="cls-23" d="M503.53,232.96c-5.23,0-9.48-4.25-9.48-9.48s4.25-9.48,9.48-9.48,9.48,4.25,9.48,9.48-4.25,9.48-9.48,9.48Z"/>
                    <path class="cls-9" d="M503.53,215.42c4.44,0,8.06,3.62,8.06,8.06s-3.62,8.06-8.06,8.06-8.06-3.62-8.06-8.06,3.62-8.06,8.06-8.06M503.53,212.59c-6.02,0-10.9,4.88-10.9,10.89s4.88,10.89,10.9,10.89,10.89-4.88,10.89-10.89-4.88-10.89-10.89-10.89h0Z"/>
                    <path class="cls-23" d="M503.53,265.5c-5.23,0-9.48-4.25-9.48-9.48s4.25-9.48,9.48-9.48,9.48,4.25,9.48,9.48-4.25,9.48-9.48,9.48Z"/>
                    <path class="cls-9" d="M503.53,247.97c4.44,0,8.06,3.62,8.06,8.06s-3.62,8.06-8.06,8.06-8.06-3.62-8.06-8.06,3.62-8.06,8.06-8.06M503.53,245.13c-6.02,0-10.9,4.88-10.9,10.89s4.88,10.89,10.9,10.89,10.89-4.88,10.89-10.89-4.88-10.89-10.89-10.89h0Z"/>
                    <path class="cls-23" d="M503.53,298.04c-5.23,0-9.48-4.25-9.48-9.48s4.25-9.48,9.48-9.48,9.48,4.25,9.48,9.48-4.25,9.48-9.48,9.48Z"/>
                    <path class="cls-9" d="M503.53,280.51c4.44,0,8.06,3.62,8.06,8.06s-3.62,8.06-8.06,8.06-8.06-3.62-8.06-8.06,3.62-8.06,8.06-8.06M503.53,277.67c-6.02,0-10.9,4.88-10.9,10.89s4.88,10.89,10.9,10.89,10.89-4.88,10.89-10.89-4.88-10.89-10.89-10.89h0Z"/>
                    <path class="cls-23" d="M503.53,330.59c-5.23,0-9.48-4.25-9.48-9.48s4.25-9.48,9.48-9.48,9.48,4.25,9.48,9.48-4.25,9.48-9.48,9.48Z"/>
                    <path class="cls-9" d="M503.53,313.05c4.44,0,8.06,3.62,8.06,8.06s-3.62,8.06-8.06,8.06-8.06-3.62-8.06-8.06,3.62-8.06,8.06-8.06M503.53,310.22c-6.02,0-10.9,4.88-10.9,10.89s4.88,10.89,10.9,10.89,10.89-4.88,10.89-10.89-4.88-10.89-10.89-10.89h0Z"/>
                    <path class="cls-23" d="M503.53,363.13c-5.23,0-9.48-4.25-9.48-9.48s4.25-9.48,9.48-9.48,9.48,4.25,9.48,9.48-4.25,9.48-9.48,9.48Z"/>
                    <path class="cls-9" d="M503.53,345.59c4.44,0,8.06,3.62,8.06,8.06s-3.62,8.06-8.06,8.06-8.06-3.62-8.06-8.06,3.62-8.06,8.06-8.06M503.53,342.76c-6.02,0-10.9,4.88-10.9,10.89s4.88,10.89,10.9,10.89,10.89-4.88,10.89-10.89-4.88-10.89-10.89-10.89h0Z"/>
                    <path class="cls-23" d="M503.53,395.67c-5.23,0-9.48-4.25-9.48-9.48s4.25-9.48,9.48-9.48,9.48,4.25,9.48,9.48-4.25,9.48-9.48,9.48Z"/>
                    <path class="cls-9" d="M503.53,378.14c4.44,0,8.06,3.62,8.06,8.06s-3.62,8.06-8.06,8.06-8.06-3.62-8.06-8.06,3.62-8.06,8.06-8.06M503.53,375.3c-6.02,0-10.9,4.88-10.9,10.89s4.88,10.89,10.9,10.89,10.89-4.88,10.89-10.89-4.88-10.89-10.89-10.89h0Z"/>
                    <path class="cls-23" d="M503.53,428.22c-5.23,0-9.48-4.25-9.48-9.48s4.25-9.48,9.48-9.48,9.48,4.25,9.48,9.48-4.25,9.48-9.48,9.48Z"/>
                    <path class="cls-9" d="M503.53,410.68c4.44,0,8.06,3.62,8.06,8.06s-3.62,8.06-8.06,8.06-8.06-3.62-8.06-8.06,3.62-8.06,8.06-8.06M503.53,407.84c-6.02,0-10.9,4.88-10.9,10.89s4.88,10.89,10.9,10.89,10.89-4.88,10.89-10.89-4.88-10.89-10.89-10.89h0Z"/>
                    <path class="cls-23" d="M503.53,460.76c-5.23,0-9.48-4.25-9.48-9.48s4.25-9.48,9.48-9.48,9.48,4.25,9.48,9.48-4.25,9.48-9.48,9.48Z"/>
                    <path class="cls-9" d="M503.53,443.22c4.44,0,8.06,3.62,8.06,8.06s-3.62,8.06-8.06,8.06-8.06-3.62-8.06-8.06,3.62-8.06,8.06-8.06M503.53,440.39c-6.02,0-10.9,4.88-10.9,10.89s4.88,10.89,10.9,10.89,10.89-4.88,10.89-10.89-4.88-10.89-10.89-10.89h0Z"/>
                </g>
                <g class="cls-17">
                    <path class="cls-23" d="M566.15,37.7c-5.23,0-9.48-4.25-9.48-9.48s4.25-9.48,9.48-9.48,9.48,4.25,9.48,9.48-4.25,9.48-9.48,9.48Z"/>
                    <path class="cls-9" d="M566.15,20.17c4.44,0,8.06,3.62,8.06,8.06s-3.62,8.06-8.06,8.06-8.06-3.62-8.06-8.06,3.62-8.06,8.06-8.06M566.15,17.33c-6.02,0-10.89,4.88-10.89,10.89s4.88,10.89,10.89,10.89,10.89-4.88,10.89-10.89-4.88-10.89-10.89-10.89h0Z"/>
                    <path class="cls-23" d="M566.15,70.25c-5.23,0-9.48-4.25-9.48-9.48s4.25-9.48,9.48-9.48,9.48,4.25,9.48,9.48-4.25,9.48-9.48,9.48Z"/>
                    <path class="cls-9" d="M566.15,52.71c4.44,0,8.06,3.62,8.06,8.06s-3.62,8.06-8.06,8.06-8.06-3.62-8.06-8.06,3.62-8.06,8.06-8.06M566.15,49.88c-6.02,0-10.89,4.88-10.89,10.89s4.88,10.89,10.89,10.89,10.89-4.88,10.89-10.89-4.88-10.89-10.89-10.89h0Z"/>
                    <path class="cls-23" d="M566.15,102.79c-5.23,0-9.48-4.25-9.48-9.48s4.25-9.48,9.48-9.48,9.48,4.25,9.48,9.48-4.25,9.48-9.48,9.48Z"/>
                    <path class="cls-9" d="M566.15,85.25c4.44,0,8.06,3.62,8.06,8.06s-3.62,8.06-8.06,8.06-8.06-3.62-8.06-8.06,3.62-8.06,8.06-8.06M566.15,82.42c-6.02,0-10.89,4.88-10.89,10.89s4.88,10.89,10.89,10.89,10.89-4.88,10.89-10.89-4.88-10.89-10.89-10.89h0Z"/>
                    <path class="cls-23" d="M566.15,135.33c-5.23,0-9.48-4.25-9.48-9.48s4.25-9.48,9.48-9.48,9.48,4.25,9.48,9.48-4.25,9.48-9.48,9.48Z"/>
                    <path class="cls-9" d="M566.15,117.79c4.44,0,8.06,3.62,8.06,8.06s-3.62,8.06-8.06,8.06-8.06-3.62-8.06-8.06,3.62-8.06,8.06-8.06M566.15,114.96c-6.02,0-10.89,4.88-10.89,10.89s4.88,10.89,10.89,10.89,10.89-4.88,10.89-10.89-4.88-10.89-10.89-10.89h0Z"/>
                    <path class="cls-23" d="M566.15,167.87c-5.23,0-9.48-4.25-9.48-9.48s4.25-9.48,9.48-9.48,9.48,4.25,9.48,9.48-4.25,9.48-9.48,9.48Z"/>
                    <path class="cls-9" d="M566.15,150.34c4.44,0,8.06,3.62,8.06,8.06s-3.62,8.06-8.06,8.06-8.06-3.62-8.06-8.06,3.62-8.06,8.06-8.06M566.15,147.5c-6.02,0-10.89,4.88-10.89,10.89s4.88,10.89,10.89,10.89,10.89-4.88,10.89-10.89-4.88-10.89-10.89-10.89h0Z"/>
                    <path class="cls-23" d="M566.15,200.42c-5.23,0-9.48-4.25-9.48-9.48s4.25-9.48,9.48-9.48,9.48,4.25,9.48,9.48-4.25,9.48-9.48,9.48Z"/>
                    <path class="cls-9" d="M566.15,182.88c4.44,0,8.06,3.62,8.06,8.06s-3.62,8.06-8.06,8.06-8.06-3.62-8.06-8.06,3.62-8.06,8.06-8.06M566.15,180.05c-6.02,0-10.89,4.88-10.89,10.89s4.88,10.89,10.89,10.89,10.89-4.88,10.89-10.89-4.88-10.89-10.89-10.89h0Z"/>
                    <path class="cls-23" d="M566.15,232.96c-5.23,0-9.48-4.25-9.48-9.48s4.25-9.48,9.48-9.48,9.48,4.25,9.48,9.48-4.25,9.48-9.48,9.48Z"/>
                    <path class="cls-9" d="M566.15,215.42c4.44,0,8.06,3.62,8.06,8.06s-3.62,8.06-8.06,8.06-8.06-3.62-8.06-8.06,3.62-8.06,8.06-8.06M566.15,212.59c-6.02,0-10.89,4.88-10.89,10.89s4.88,10.89,10.89,10.89,10.89-4.88,10.89-10.89-4.88-10.89-10.89-10.89h0Z"/>
                    <path class="cls-23" d="M566.15,265.5c-5.23,0-9.48-4.25-9.48-9.48s4.25-9.48,9.48-9.48,9.48,4.25,9.48,9.48-4.25,9.48-9.48,9.48Z"/>
                    <path class="cls-9" d="M566.15,247.97c4.44,0,8.06,3.62,8.06,8.06s-3.62,8.06-8.06,8.06-8.06-3.62-8.06-8.06,3.62-8.06,8.06-8.06M566.15,245.13c-6.02,0-10.89,4.88-10.89,10.89s4.88,10.89,10.89,10.89,10.89-4.88,10.89-10.89-4.88-10.89-10.89-10.89h0Z"/>
                    <path class="cls-23" d="M566.15,298.04c-5.23,0-9.48-4.25-9.48-9.48s4.25-9.48,9.48-9.48,9.48,4.25,9.48,9.48-4.25,9.48-9.48,9.48Z"/>
                    <path class="cls-9" d="M566.15,280.51c4.44,0,8.06,3.62,8.06,8.06s-3.62,8.06-8.06,8.06-8.06-3.62-8.06-8.06,3.62-8.06,8.06-8.06M566.15,277.67c-6.02,0-10.89,4.88-10.89,10.89s4.88,10.89,10.89,10.89,10.89-4.88,10.89-10.89-4.88-10.89-10.89-10.89h0Z"/>
                    <path class="cls-23" d="M566.15,330.59c-5.23,0-9.48-4.25-9.48-9.48s4.25-9.48,9.48-9.48,9.48,4.25,9.48,9.48-4.25,9.48-9.48,9.48Z"/>
                    <path class="cls-9" d="M566.15,313.05c4.44,0,8.06,3.62,8.06,8.06s-3.62,8.06-8.06,8.06-8.06-3.62-8.06-8.06,3.62-8.06,8.06-8.06M566.15,310.22c-6.02,0-10.89,4.88-10.89,10.89s4.88,10.89,10.89,10.89,10.89-4.88,10.89-10.89-4.88-10.89-10.89-10.89h0Z"/>
                </g>
                <g class="cls-15">
                    <path class="cls-23" d="M286.18,511.8c-5.23,0-9.48-4.25-9.48-9.48s4.25-9.48,9.48-9.48,9.48,4.25,9.48,9.48-4.25,9.48-9.48,9.48Z"/>
                    <path class="cls-9" d="M286.18,494.26c4.44,0,8.06,3.62,8.06,8.06s-3.62,8.06-8.06,8.06-8.06-3.62-8.06-8.06,3.62-8.06,8.06-8.06M286.18,491.42c-6.02,0-10.89,4.88-10.89,10.89s4.88,10.9,10.89,10.9,10.89-4.88,10.89-10.9-4.88-10.89-10.89-10.89h0Z"/>
                    <path class="cls-23" d="M318.42,511.8c-5.23,0-9.48-4.25-9.48-9.48s4.25-9.48,9.48-9.48,9.48,4.25,9.48,9.48-4.25,9.48-9.48,9.48Z"/>
                    <path class="cls-9" d="M318.42,494.26c4.44,0,8.06,3.62,8.06,8.06s-3.62,8.06-8.06,8.06-8.06-3.62-8.06-8.06,3.62-8.06,8.06-8.06M318.42,491.42c-6.02,0-10.89,4.88-10.89,10.89s4.88,10.9,10.89,10.9,10.89-4.88,10.89-10.9-4.88-10.89-10.89-10.89h0Z"/>
                    <path class="cls-23" d="M350.67,511.8c-5.23,0-9.48-4.25-9.48-9.48s4.25-9.48,9.48-9.48,9.48,4.25,9.48,9.48-4.25,9.48-9.48,9.48Z"/>
                    <path class="cls-9" d="M350.67,494.26c4.44,0,8.06,3.62,8.06,8.06s-3.62,8.06-8.06,8.06-8.06-3.62-8.06-8.06,3.62-8.06,8.06-8.06M350.67,491.42c-6.02,0-10.89,4.88-10.89,10.89s4.88,10.9,10.89,10.9,10.89-4.88,10.89-10.9-4.88-10.89-10.89-10.89h0Z"/>
                    <path class="cls-23" d="M382.91,511.8c-5.23,0-9.48-4.25-9.48-9.48s4.25-9.48,9.48-9.48,9.48,4.25,9.48,9.48-4.25,9.48-9.48,9.48Z"/>
                    <path class="cls-9" d="M382.91,494.26c4.44,0,8.06,3.62,8.06,8.06s-3.62,8.06-8.06,8.06-8.06-3.62-8.06-8.06,3.62-8.06,8.06-8.06M382.91,491.42c-6.02,0-10.89,4.88-10.89,10.89s4.88,10.9,10.89,10.9,10.89-4.88,10.89-10.9-4.88-10.89-10.89-10.89h0Z"/>
                    <path class="cls-23" d="M415.15,511.8c-5.23,0-9.48-4.25-9.48-9.48s4.25-9.48,9.48-9.48,9.48,4.25,9.48,9.48-4.25,9.48-9.48,9.48Z"/>
                    <path class="cls-9" d="M415.15,494.26c4.44,0,8.06,3.62,8.06,8.06s-3.62,8.06-8.06,8.06-8.06-3.62-8.06-8.06,3.62-8.06,8.06-8.06M415.15,491.42c-6.02,0-10.89,4.88-10.89,10.89s4.88,10.9,10.89,10.9,10.89-4.88,10.89-10.9-4.88-10.89-10.89-10.89h0Z"/>
                    <path class="cls-23" d="M447.4,511.8c-5.23,0-9.48-4.25-9.48-9.48s4.25-9.48,9.48-9.48,9.48,4.25,9.48,9.48-4.25,9.48-9.48,9.48Z"/>
                    <path class="cls-9" d="M447.4,494.26c4.44,0,8.06,3.62,8.06,8.06s-3.62,8.06-8.06,8.06-8.06-3.62-8.06-8.06,3.62-8.06,8.06-8.06M447.4,491.42c-6.02,0-10.89,4.88-10.89,10.89s4.88,10.9,10.89,10.9,10.89-4.88,10.89-10.9-4.88-10.89-10.89-10.89h0Z"/>
                    <path class="cls-23" d="M479.64,511.8c-5.23,0-9.48-4.25-9.48-9.48s4.25-9.48,9.48-9.48,9.48,4.25,9.48,9.48-4.25,9.48-9.48,9.48Z"/>
                    <path class="cls-9" d="M479.64,494.26c4.44,0,8.06,3.62,8.06,8.06s-3.62,8.06-8.06,8.06-8.06-3.62-8.06-8.06,3.62-8.06,8.06-8.06M479.64,491.42c-6.02,0-10.89,4.88-10.89,10.89s4.88,10.9,10.89,10.9,10.89-4.88,10.89-10.9-4.88-10.89-10.89-10.89h0Z"/>
                    <path class="cls-23" d="M511.89,511.8c-5.23,0-9.48-4.25-9.48-9.48s4.25-9.48,9.48-9.48,9.48,4.25,9.48,9.48-4.25,9.48-9.48,9.48Z"/>
                    <path class="cls-9" d="M511.89,494.26c4.44,0,8.06,3.62,8.06,8.06s-3.62,8.06-8.06,8.06-8.06-3.62-8.06-8.06,3.62-8.06,8.06-8.06M511.89,491.42c-6.02,0-10.89,4.88-10.89,10.89s4.88,10.9,10.89,10.9,10.89-4.88,10.89-10.9-4.88-10.89-10.89-10.89h0Z"/>
                    <path class="cls-23" d="M544.13,511.8c-5.23,0-9.48-4.25-9.48-9.48s4.25-9.48,9.48-9.48,9.48,4.25,9.48,9.48-4.25,9.48-9.48,9.48Z"/>
                    <path class="cls-9" d="M544.13,494.26c4.44,0,8.06,3.62,8.06,8.06s-3.62,8.06-8.06,8.06-8.06-3.62-8.06-8.06,3.62-8.06,8.06-8.06M544.13,491.42c-6.02,0-10.89,4.88-10.89,10.89s4.88,10.9,10.89,10.9,10.89-4.88,10.89-10.9-4.88-10.89-10.89-10.89h0Z"/>
                </g>
                <g class="cls-16">
                    <path class="cls-23" d="M317.72,545.11c-5.23,0-9.48-4.25-9.48-9.48s4.25-9.48,9.48-9.48,9.48,4.25,9.48,9.48-4.25,9.48-9.48,9.48Z"/>
                    <path class="cls-9" d="M317.72,527.57c4.44,0,8.06,3.62,8.06,8.06s-3.62,8.06-8.06,8.06-8.06-3.62-8.06-8.06,3.62-8.06,8.06-8.06M317.72,524.74c-6.02,0-10.89,4.88-10.89,10.89s4.88,10.89,10.89,10.89,10.9-4.88,10.9-10.89-4.88-10.89-10.9-10.89h0Z"/>
                    <path class="cls-23" d="M349.96,545.11c-5.23,0-9.48-4.25-9.48-9.48s4.25-9.48,9.48-9.48,9.48,4.25,9.48,9.48-4.25,9.48-9.48,9.48Z"/>
                    <path class="cls-9" d="M349.96,527.57c4.44,0,8.06,3.62,8.06,8.06s-3.62,8.06-8.06,8.06-8.06-3.62-8.06-8.06,3.62-8.06,8.06-8.06M349.96,524.74c-6.02,0-10.89,4.88-10.89,10.89s4.88,10.89,10.89,10.89,10.9-4.88,10.9-10.89-4.88-10.89-10.9-10.89h0Z"/>
                    <path class="cls-23" d="M382.21,545.11c-5.23,0-9.48-4.25-9.48-9.48s4.25-9.48,9.48-9.48,9.48,4.25,9.48,9.48-4.25,9.48-9.48,9.48Z"/>
                    <path class="cls-9" d="M382.21,527.57c4.44,0,8.06,3.62,8.06,8.06s-3.62,8.06-8.06,8.06-8.06-3.62-8.06-8.06,3.62-8.06,8.06-8.06M382.21,524.74c-6.02,0-10.89,4.88-10.89,10.89s4.88,10.89,10.89,10.89,10.9-4.88,10.9-10.89-4.88-10.89-10.9-10.89h0Z"/>
                    <path class="cls-23" d="M414.45,545.11c-5.23,0-9.48-4.25-9.48-9.48s4.25-9.48,9.48-9.48,9.48,4.25,9.48,9.48-4.25,9.48-9.48,9.48Z"/>
                    <path class="cls-9" d="M414.45,527.57c4.44,0,8.06,3.62,8.06,8.06s-3.62,8.06-8.06,8.06-8.06-3.62-8.06-8.06,3.62-8.06,8.06-8.06M414.45,524.74c-6.02,0-10.89,4.88-10.89,10.89s4.88,10.89,10.89,10.89,10.9-4.88,10.9-10.89-4.88-10.89-10.9-10.89h0Z"/>
                    <path class="cls-23" d="M446.7,545.11c-5.23,0-9.48-4.25-9.48-9.48s4.25-9.48,9.48-9.48,9.48,4.25,9.48,9.48-4.25,9.48-9.48,9.48Z"/>
                    <path class="cls-9" d="M446.69,527.57c4.44,0,8.06,3.62,8.06,8.06s-3.62,8.06-8.06,8.06-8.06-3.62-8.06-8.06,3.62-8.06,8.06-8.06M446.69,524.74c-6.02,0-10.89,4.88-10.89,10.89s4.88,10.89,10.89,10.89,10.9-4.88,10.9-10.89-4.88-10.89-10.9-10.89h0Z"/>
                    <path class="cls-23" d="M478.94,545.11c-5.23,0-9.48-4.25-9.48-9.48s4.25-9.48,9.48-9.48,9.48,4.25,9.48,9.48-4.25,9.48-9.48,9.48Z"/>
                    <path class="cls-9" d="M478.94,527.57c4.44,0,8.06,3.62,8.06,8.06s-3.62,8.06-8.06,8.06-8.06-3.62-8.06-8.06,3.62-8.06,8.06-8.06M478.94,524.74c-6.02,0-10.89,4.88-10.89,10.89s4.88,10.89,10.89,10.89,10.9-4.88,10.9-10.89-4.88-10.89-10.9-10.89h0Z"/>
                    <path class="cls-23" d="M511.18,545.11c-5.23,0-9.48-4.25-9.48-9.48s4.25-9.48,9.48-9.48,9.48,4.25,9.48,9.48-4.25,9.48-9.48,9.48Z"/>
                    <path class="cls-9" d="M511.18,527.57c4.44,0,8.06,3.62,8.06,8.06s-3.62,8.06-8.06,8.06-8.06-3.62-8.06-8.06,3.62-8.06,8.06-8.06M511.18,524.74c-6.02,0-10.89,4.88-10.89,10.89s4.88,10.89,10.89,10.89,10.9-4.88,10.9-10.89-4.88-10.89-10.9-10.89h0Z"/>
                    <path class="cls-23" d="M543.43,545.11c-5.23,0-9.48-4.25-9.48-9.48s4.25-9.48,9.48-9.48,9.48,4.25,9.48,9.48-4.25,9.48-9.48,9.48Z"/>
                    <path class="cls-9" d="M543.43,527.57c4.44,0,8.06,3.62,8.06,8.06s-3.62,8.06-8.06,8.06-8.06-3.62-8.06-8.06,3.62-8.06,8.06-8.06M543.43,524.74c-6.02,0-10.89,4.88-10.89,10.89s4.88,10.89,10.89,10.89,10.9-4.88,10.9-10.89-4.88-10.89-10.9-10.89h0Z"/>
                </g>
                <g id="outlines">
                    <path class="cls-18" d="M520.68,469.46h-35.12V7.12h35.12v462.35ZM488.4,466.63h29.45V9.95h-29.45v456.68Z"/>
                    <path class="cls-18" d="M520.68,275.98h-35.12v-38.14h35.12v38.14ZM488.4,273.15h29.45v-32.47h-29.45v32.47Z"/>
                    <path class="cls-18" d="M584.31,336.45h-34.87V010.9h34.87v325.56ZM552.27,333.62h29.2V13.73h-29.2v319.89Z"/>
                    <path class="cls-18" d="M584.31,336.45h-34.87v-34.18h34.87v34.18ZM552.27,333.62h29.2v-28.51h-29.2v28.51Z"/>
                    <path class="cls-18" d="M562.63,518.36h-295.53v-33.12h295.53v33.12ZM269.93,515.52h289.87v-27.45h-289.87v27.45Z"/>
                    <path class="cls-18" d="M368.36,518.36h-66.61v-33.12h66.61v33.12ZM304.58,515.52h60.94v-27.45h-60.94v27.45Z"/>
                    <path class="cls-18" d="M562.63,553.32h-265.1v-37.8h265.1v37.8ZM300.37,550.49h259.43v-32.13h-259.43v32.13Z"/>
                    <path class="cls-18" d="M562.63,553.01h-37.49v-37.49h37.49v37.49ZM527.98,550.18h31.82v-31.82h-31.82v31.82Z"/>
                </g>
            </g>
            <g id="usb">
                <path id="usb-2" class="cls-9" d="M2.51,686.89h99.73c1.95,0,3.53-1.58,3.53-3.53v-21.51c0-.97-.79-1.76-1.76-1.76h-5.15c-1.29,0-2.47.7-3.09,1.83l-6.54,11.97c-.62,1.13-1.8,1.83-3.09,1.83h-5.14v-7.82h-5.93v-12.09h5.93v-7.11h12.26c1.95,0,3.53-1.58,3.53-3.53v-5.72h-6.35v-28.54h6.35v-5.72c0-1.95-1.58-3.53-3.53-3.53h-12.26v-7.11h-5.93v-12.09h5.93v-7.82h5.14c1.29,0,2.47.7,3.09,1.83l6.54,11.97c.62,1.13,1.8,1.83,3.09,1.83h5.15c.97,0,1.76-.79,1.76-1.76v-21.51c0-1.95-1.58-3.53-3.53-3.53H2.51c-1.49.45-2.51,1.82-2.51,3.37v116.64h0c0,1.55,1.02,2.93,2.51,3.37Z"/>
            </g>
            <g id="elements">
                <rect class="cls-9" x="150.24" y="423.83" width="56.67" height="25.01"/>
                <rect class="cls-20" x="160.16" y="423.83" width="36.84" height="25.01"/>
                <rect class="cls-9" x="142.65" y="463.62" width="72.73" height="22.75"/>
                <rect class="cls-20" x="155.37" y="460.2" width="47.28" height="29.59"/>
                <rect class="cls-9" x="319.7" y="636" width="61.94" height="34.6"/>
                <rect class="cls-20" x="330.54" y="636" width="40.26" height="34.6"/>
                <rect class="cls-9" x="339.79" y="607.33" width="7.05" height="19.24" transform="translate(-273.64 960.26) rotate(-90)"/>
                <rect class="cls-9" x="339.79" y="581.56" width="7.05" height="19.24" transform="translate(-247.87 934.49) rotate(-90)"/>
                <rect class="cls-9" x="314.27" y="594.44" width="7.05" height="19.24" transform="translate(-286.27 921.86) rotate(-90)"/>
                <rect class="cls-20" x="313.36" y="593.35" width="35.35" height="21.42" transform="translate(-273.04 935.09) rotate(-90)"/>
                <rect class="cls-9" x="291.26" y="651.35" width="7.05" height="44.76" transform="translate(589.57 1347.46) rotate(180)"/>
                <rect class="cls-9" x="265.49" y="651.35" width="7.05" height="44.76" transform="translate(538.02 1347.46) rotate(180)"/>
                <rect class="cls-9" x="278.38" y="676.87" width="7.05" height="19.24" transform="translate(563.8 1372.98) rotate(180)"/>
                <rect class="cls-20" x="264.23" y="662.54" width="35.35" height="21.42" transform="translate(563.8 1346.51) rotate(180)"/>
                <rect class="cls-9" x="190.67" y="564.01" width="7.05" height="44.76" transform="translate(-392.2 780.58) rotate(-90)"/>
                <rect class="cls-9" x="190.67" y="538.24" width="7.05" height="44.76" transform="translate(-366.42 754.81) rotate(-90)"/>
                <rect class="cls-9" x="190.67" y="551.13" width="7.05" height="44.76" transform="translate(-379.31 767.7) rotate(-90)"/>
                <rect class="cls-20" x="177" y="562.79" width="35.35" height="21.42" transform="translate(-378.84 768.17) rotate(-90)"/>
                <path class="cls-3" d="M191.35,687.23v-73.89c0-.54.34-.98.76-.98h4.16c.42,0,.76.44.76.98v73.89c0,.54-.34.98-.76.98h-4.16c-.42,0-.76-.44-.76-.98Z"/>
                <path class="cls-3" d="M178.25,687.23v-73.89c0-.54.34-.98.76-.98h4.16c.42,0,.76.44.76.98v73.89c0,.54-.34.98-.76.98h-4.16c-.42,0-.76-.44-.76-.98Z"/>
                <path class="cls-3" d="M165.14,687.24v-73.89c0-.54.34-.98.76-.98h4.16c.42,0,.76.44.76.98v73.89c0,.54-.34.98-.76.98h-4.16c-.42,0-.76-.44-.76-.98Z"/>
                <path class="cls-3" d="M204.46,687.24v-73.89c0-.54.34-.98.76-.98h4.16c.42,0,.76.44.76.98v73.89c0,.54-.34.98-.76.98h-4.16c-.42,0-.76-.44-.76-.98Z"/>
                <path class="cls-3" d="M152.03,687.24v-73.89c0-.54.34-.98.76-.98h4.16c.42,0,.76.44.76.98v73.89c0,.54-.34.98-.76.98h-4.16c-.42,0-.76-.44-.76-.98Z"/>
                <rect class="cls-8" x="152.03" y="627.04" width="58.12" height="45.98"/>
            </g>
        </g>
    </g>
</svg>