<?xml version="1.0" encoding="UTF-8"?>
<svg id="Calque_2"
    xmlns="http://www.w3.org/2000/svg"
    xmlns:xlink="http://www.w3.org/1999/xlink" viewBox="0 0 858.43 640.61">
    <defs>
        <style>.clickable{cursor:pointer;}.cls-1{fill:none;}.cls-2{clip-path:url(#clippath);}.cls-3,.cls-4{fill:#f5df88;filter: blur(3px);}.cls-5{fill:#e6e4d6;}.cls-6{fill:#fff;}.cls-7{fill:#fefefe;}.cls-8{fill:#efecdc;}.cls-9{fill:#7d7d7d;}.cls-10{fill:#d8d8d8;}.cls-11{fill:#171616;}.cls-12{fill:#45464a;}.cls-13{fill:#1b1b1b;}.cls-14{fill:#727272;}.cls-15{fill:#545454;}.cls-16{fill:#6d6d6d;}.cls-17{fill:#272626;}.cls-18{clip-path:url(#clippath-1);}.cls-19{clip-path:url(#clippath-4);}.cls-20{clip-path:url(#clippath-3);}.cls-21{clip-path:url(#clippath-2);}.cls-22{clip-path:url(#clippath-7);}.cls-23{clip-path:url(#clippath-8);}.cls-24{clip-path:url(#clippath-6);}.cls-25{clip-path:url(#clippath-5);}</style>
        <clipPath id="clippath">
            <rect class="cls-1" x="241.85" y="24.56" width="296.18" height="26.61"/>
        </clipPath>
        <clipPath id="clippath-1">
            <rect class="cls-1" x="561.13" y="24.56" width="236.94" height="26.61"/>
        </clipPath>
        <clipPath id="clippath-2">
            <rect class="cls-1" x="370.22" y="600.71" width="236.94" height="26.61"/>
        </clipPath>
        <clipPath id="clippath-3">
            <rect class="cls-1" x="631.76" y="600.71" width="176.84" height="26.61"/>
        </clipPath>
        <clipPath id="clippath-4">
            <rect class="cls-1" x="533.17" y="264.25" width="249.58" height="11.82"/>
        </clipPath>
        <clipPath id="clippath-5">
            <rect class="cls-1" x="533.17" y="496.58" width="249.58" height="11.82"/>
        </clipPath>
        <clipPath id="clippath-6">
            <rect class="cls-1" x="557.96" y="277.29" width="213.77" height="11.82"/>
        </clipPath>
        <clipPath id="clippath-7">
            <rect class="cls-1" x="557.96" y="483.59" width="213.37" height="11.82"/>
        </clipPath>
        <clipPath id="clippath-8">
            <rect class="cls-1" x="535.84" y="283.82" width="11.82" height="195.02"/>
        </clipPath>
    </defs>
    <g id="Calque_1-2">
        <g id="Wemos_D1_R32">
            <path id="card" class="cls-17" d="M828.18,168.49V0H37.31V211.56h-5.26c-1.1,0-2,.9-2,2v51.97c0,1.1,.9,2,2,2h5.26v373.08H828.18v-27.32l30.24-30.34V198.45l-30.24-29.96ZM207.69,69.5c-12.21,0-22.11-9.9-22.11-22.11s9.9-22.11,22.11-22.11,22.11,9.9,22.11,22.11-9.9,22.11-22.11,22.11Zm616.31,127.94c12.21,0,22.11,9.9,22.11,22.11s-9.9,22.11-22.11,22.11-22.11-9.9-22.11-22.11,9.9-22.11,22.11-22.11Zm4.14,373.96c-12.21,0-22.11-9.9-22.11-22.11s9.9-22.11,22.11-22.11,22.11,9.9,22.11,22.11-9.9,22.11-22.11,22.11Z"/>
            <path id="power" class="cls-11" d="M134.2,507.24H35.29c-1.66,0-3-1.34-3-3v-1.18H0V0107.38H32.29v-1.18c0-1.66,1.34-3,3-3h98.91c10.7,0,19.38-8.68,19.38-19.38v-60.26c0-10.7-8.68-19.38-19.38-19.38Z"/>
            <g id="reset_button" class="clickable">
                <polygon class="cls-5" points="173.24 67.67 173.24 40.86 150.8 40.86 150.8 39.47 64.02 39.47 64.02 40.86 41.58 40.86 41.58 67.67 64.02 67.67 64.02 97.86 41.58 97.86 41.58 124.66 64.02 124.66 64.02 126.24 150.8 126.24 150.8 124.66 173.24 124.66 173.24 97.86 150.8 97.86 150.8 67.67 173.24 67.67"/>
                <circle class="cls-15" cx="76.82" cy="54.23" r="7.65"/>
                <circle class="cls-15" cx="76.82" cy="110.96" r="7.65"/>
                <circle class="cls-15" cx="136.74" cy="54.23" r="7.65"/>
                <circle class="cls-15" cx="136.74" cy="110.96" r="7.65"/>
                <circle id="button_on" class="cls-15" cx="106.78" cy="82.6" r="21.68"/>
                <circle id="button_off" class="cls-9" cx="106.78" cy="79.11" r="21.68"/>
            </g>
            <path id="usb" class="cls-8" d="M57.32,202.95h-11.33c-.55,0-1,.45-1,1v6.7c0,.55,.45,1,1,1h6.56c.55,0,1,.45,1,1v54.41c0,.55-.45,1-1,1h-6.56c-.55,0-1,.45-1,1v6.7c0,.55,.45,1,1,1h60.79c.55,0,1-.45,1-1v-71.81c0-.55-.45-1-1-1H57.32Zm39.6,64.31h-26.57c-.55,0-1-.45-1-1v-10.76c0-.55,.45-1,1-1h26.57c.55,0,1,.45,1,1V010.76c0,.55-.45,1-1,1Zm0-42.05h-26.57c-.55,0-1-.45-1-1v-10.76c0-.55,.45-1,1-1h26.57c.55,0,1,.45,1,1V010.76c0,.55-.45,1-1,1Z"/>
            <g id="elements">
                <g>
                    <g>
                        <rect class="cls-6" x="103.22" y="328.2" width="79.53" height="35.06" rx="2" ry="2"/>
                        <rect class="cls-11" x="122.81" y="328.2" width="41.76" height="35.06"/>
                    </g>
                    <g>
                        <rect class="cls-6" x="103.22" y="379.22" width="79.53" height="35.06" rx="2" ry="2"/>
                        <rect class="cls-11" x="122.81" y="379.22" width="41.76" height="35.06"/>
                    </g>
                    <g>
                        <rect class="cls-6" x="103.22" y="429.43" width="79.53" height="35.06" rx="2" ry="2"/>
                        <rect class="cls-11" x="122.81" y="429.43" width="41.76" height="35.06"/>
                    </g>
                    <g>
                        <rect class="cls-6" x="295.85" y="438.51" width="79.53" height="35.06" rx="2" ry="2"/>
                        <rect class="cls-11" x="315.45" y="438.51" width="41.76" height="35.06"/>
                    </g>
                    <g>
                        <rect class="cls-6" x="295.85" y="488.72" width="79.53" height="35.06" rx="2" ry="2"/>
                        <rect class="cls-11" x="315.45" y="488.72" width="41.76" height="35.06"/>
                    </g>
                    <g>
                        <rect class="cls-6" x="395.06" y="125.57" width="79.53" height="35.06" rx="2" ry="2"/>
                        <rect class="cls-4" x="414.65" y="125.57" width="41.76" height="35.06"/>
                    </g>
                    <g id="LED_P2">
                        <rect class="cls-6" x="395.06" y="176.6" width="79.53" height="35.06" rx="2" ry="2"/>
                        <rect class="cls-11" x="414.65" y="176.6" width="41.76" height="35.06"/>
                    </g>
                    <g>
                        <rect class="cls-6" x="395.06" y="226.81" width="79.53" height="35.06" rx="2" ry="2"/>
                        <rect class="cls-11" style="fill: blue;filter: blur(3px);" x="414.65" y="226.81" width="41.76" height="35.06"/>
                    </g>
                </g>
                <rect class="cls-10" x="295.85" y="342.28" width="75.85" height="75.85" rx="3" ry="3"/>
                <g>
                    <g>
                        <rect class="cls-16" x="200.9" y="418.37" width="75.85" height="7.31" rx=".98" ry=".98"/>
                        <rect class="cls-16" x="200.9" y="401.39" width="75.85" height="7.31" rx=".98" ry=".98"/>
                        <rect class="cls-16" x="200.9" y="384.41" width="75.85" height="7.31" rx=".98" ry=".98"/>
                        <rect class="cls-16" x="200.9" y="367.44" width="75.85" height="7.31" rx=".98" ry=".98"/>
                        <rect class="cls-11" x="216.1" y="367.44" width="45.98" height="58.24"/>
                    </g>
                    <g>
                        <rect class="cls-16" x="269.76" y="219.56" width="75.85" height="7.31" rx=".98" ry=".98" transform="translate(84.47 530.89) rotate(-90)"/>
                        <rect class="cls-16" x="252.89" y="219.56" width="75.85" height="7.31" rx=".98" ry=".98" transform="translate(67.61 514.02) rotate(-90)"/>
                        <rect class="cls-16" x="236.02" y="219.56" width="75.85" height="7.31" rx=".98" ry=".98" transform="translate(50.74 497.16) rotate(-90)"/>
                        <rect class="cls-16" x="320.36" y="219.56" width="75.85" height="7.31" rx=".98" ry=".98" transform="translate(135.08 581.5) rotate(-90)"/>
                        <rect class="cls-16" x="303.49" y="219.56" width="75.85" height="7.31" rx=".98" ry=".98" transform="translate(118.21 564.63) rotate(-90)"/>
                        <rect class="cls-16" x="286.62" y="219.56" width="75.85" height="7.31" rx=".98" ry=".98" transform="translate(101.34 547.76) rotate(-90)"/>
                        <rect class="cls-16" x="219.15" y="219.56" width="75.85" height="7.31" rx=".98" ry=".98" transform="translate(33.87 480.29) rotate(-90)"/>
                        <rect class="cls-11" x="284.69" y="168.69" width="45.98" height="108.51" transform="translate(84.74 530.63) rotate(-90)"/>
                    </g>
                </g>
                <g>
                    <rect class="cls-11" x="415.27" y="338.1" width="36.27" height="79.21"/>
                    <rect class="cls-7" x="393.64" y="342.28" width="21.63" height="17.12"/>
                    <rect class="cls-7" x="393.64" y="369.14" width="21.63" height="17.12"/>
                    <rect class="cls-7" x="451.55" y="358.01" width="21.63" height="37.99"/>
                    <rect class="cls-7" x="393.64" y="396" width="21.63" height="17.12"/>
                </g>
                <g>
                    <rect class="cls-7" x="696.98" y="218.6" width="79.99" height="36.13" rx="3" ry="3"/>
                    <rect class="cls-3" x="706.53" y="218.6" width="60.89" height="36.13"/>
                </g>
            </g>
            <g id="pins">
                <g>
                    <rect class="cls-14" x="234.07" y="19.45" width="311.75" height="36.82" rx="3" ry="3"/>
                    <g class="cls-2">
                        <g>
                            <g>
                                <rect class="cls-12" x="241.85" y="24.56" width="26.41" height="26.41"/>
                                <rect class="cls-13" x="247.41" y="30.11" width="15.29" height="15.29"/>
                            </g>
                            <g>
                                <rect class="cls-12" x="271.81" y="24.56" width="26.41" height="26.41"/>
                                <rect class="cls-13" x="277.37" y="30.11" width="15.29" height="15.29"/>
                            </g>
                            <g>
                                <rect class="cls-12" x="301.77" y="24.56" width="26.41" height="26.41"/>
                                <rect class="cls-13" x="307.32" y="30.11" width="15.29" height="15.29"/>
                            </g>
                            <g>
                                <rect class="cls-12" x="331.72" y="24.56" width="26.41" height="26.41"/>
                                <rect class="cls-13" x="337.28" y="30.11" width="15.29" height="15.29"/>
                            </g>
                            <g>
                                <rect class="cls-12" x="361.68" y="24.56" width="26.41" height="26.41"/>
                                <rect class="cls-13" x="367.23" y="30.11" width="15.29" height="15.29"/>
                            </g>
                            <g>
                                <rect class="cls-12" x="391.63" y="24.56" width="26.41" height="26.41"/>
                                <rect class="cls-13" x="397.19" y="30.11" width="15.29" height="15.29"/>
                            </g>
                            <g>
                                <rect class="cls-12" x="421.59" y="24.56" width="26.41" height="26.41"/>
                                <rect class="cls-13" x="427.14" y="30.11" width="15.29" height="15.29"/>
                            </g>
                            <g>
                                <rect class="cls-12" x="451.54" y="24.56" width="26.41" height="26.41"/>
                                <rect class="cls-13" x="457.1" y="30.11" width="15.29" height="15.29"/>
                            </g>
                            <g>
                                <rect class="cls-12" x="481.5" y="24.56" width="26.41" height="26.41"/>
                                <rect class="cls-13" x="487.06" y="30.11" width="15.29" height="15.29"/>
                            </g>
                            <g>
                                <rect class="cls-12" x="511.45" y="24.56" width="26.41" height="26.41"/>
                                <rect class="cls-13" x="517.01" y="30.11" width="15.29" height="15.29"/>
                            </g>
                        </g>
                    </g>
                </g>
                <g>
                    <rect class="cls-14" x="553.35" y="19.45" width="252.56" height="36.82" rx="2.7" ry="2.7"/>
                    <g class="cls-18">
                        <g>
                            <g>
                                <rect class="cls-12" x="561.13" y="24.56" width="26.41" height="26.41"/>
                                <rect class="cls-13" x="566.69" y="30.11" width="15.29" height="15.29"/>
                            </g>
                            <g>
                                <rect class="cls-12" x="591.09" y="24.56" width="26.41" height="26.41"/>
                                <rect class="cls-13" x="596.65" y="30.11" width="15.29" height="15.29"/>
                            </g>
                            <g>
                                <rect class="cls-12" x="621.04" y="24.56" width="26.41" height="26.41"/>
                                <rect class="cls-13" x="626.6" y="30.11" width="15.29" height="15.29"/>
                            </g>
                            <g>
                                <rect class="cls-12" x="651" y="24.56" width="26.41" height="26.41"/>
                                <rect class="cls-13" x="656.56" y="30.11" width="15.29" height="15.29"/>
                            </g>
                            <g>
                                <rect class="cls-12" x="680.95" y="24.56" width="26.41" height="26.41"/>
                                <rect class="cls-13" x="686.51" y="30.11" width="15.29" height="15.29"/>
                            </g>
                            <g>
                                <rect class="cls-12" x="710.91" y="24.56" width="26.41" height="26.41"/>
                                <rect class="cls-13" x="716.47" y="30.11" width="15.29" height="15.29"/>
                            </g>
                            <g>
                                <rect class="cls-12" x="740.87" y="24.56" width="26.41" height="26.41"/>
                                <rect class="cls-13" x="746.42" y="30.11" width="15.29" height="15.29"/>
                            </g>
                            <g>
                                <rect class="cls-12" x="770.82" y="24.56" width="26.41" height="26.41"/>
                                <rect class="cls-13" x="776.38" y="30.11" width="15.29" height="15.29"/>
                            </g>
                        </g>
                    </g>
                </g>
                <g>
                    <rect class="cls-14" x="362.44" y="595.6" width="252.56" height="36.82" rx="2.7" ry="2.7"/>
                    <g class="cls-21">
                        <g>
                            <g>
                                <rect class="cls-12" x="370.22" y="600.71" width="26.41" height="26.41"/>
                                <rect class="cls-13" x="375.78" y="606.27" width="15.29" height="15.29"/>
                            </g>
                            <g>
                                <rect class="cls-12" x="400.18" y="600.71" width="26.41" height="26.41"/>
                                <rect class="cls-13" x="405.73" y="606.27" width="15.29" height="15.29"/>
                            </g>
                            <g>
                                <rect class="cls-12" x="430.13" y="600.71" width="26.41" height="26.41"/>
                                <rect class="cls-13" x="435.69" y="606.27" width="15.29" height="15.29"/>
                            </g>
                            <g>
                                <rect class="cls-12" x="460.09" y="600.71" width="26.41" height="26.41"/>
                                <rect class="cls-13" x="465.65" y="606.27" width="15.29" height="15.29"/>
                            </g>
                            <g>
                                <rect class="cls-12" x="490.04" y="600.71" width="26.41" height="26.41"/>
                                <rect class="cls-13" x="495.6" y="606.27" width="15.29" height="15.29"/>
                            </g>
                            <g>
                                <rect class="cls-12" x="520" y="600.71" width="26.41" height="26.41"/>
                                <rect class="cls-13" x="525.56" y="606.27" width="15.29" height="15.29"/>
                            </g>
                            <g>
                                <rect class="cls-12" x="549.96" y="600.71" width="26.41" height="26.41"/>
                                <rect class="cls-13" x="555.51" y="606.27" width="15.29" height="15.29"/>
                            </g>
                            <g>
                                <rect class="cls-12" x="579.91" y="600.71" width="26.41" height="26.41"/>
                                <rect class="cls-13" x="585.47" y="606.27" width="15.29" height="15.29"/>
                            </g>
                        </g>
                    </g>
                </g>
                <g>
                    <rect class="cls-14" x="623.97" y="595.6" width="192.18" height="36.82" rx="2.36" ry="2.36"/>
                    <g class="cls-20">
                        <g>
                            <g>
                                <rect class="cls-12" x="631.76" y="600.71" width="26.41" height="26.41"/>
                                <rect class="cls-13" x="637.31" y="606.27" width="15.29" height="15.29"/>
                            </g>
                            <g>
                                <rect class="cls-12" x="661.71" y="600.71" width="26.41" height="26.41"/>
                                <rect class="cls-13" x="667.27" y="606.27" width="15.29" height="15.29"/>
                            </g>
                            <g>
                                <rect class="cls-12" x="691.67" y="600.71" width="26.41" height="26.41"/>
                                <rect class="cls-13" x="697.23" y="606.27" width="15.29" height="15.29"/>
                            </g>
                            <g>
                                <rect class="cls-12" x="721.62" y="600.71" width="26.41" height="26.41"/>
                                <rect class="cls-13" x="727.18" y="606.27" width="15.29" height="15.29"/>
                            </g>
                            <g>
                                <rect class="cls-12" x="751.58" y="600.71" width="26.41" height="26.41"/>
                                <rect class="cls-13" x="757.14" y="606.27" width="15.29" height="15.29"/>
                            </g>
                            <g>
                                <rect class="cls-12" x="781.53" y="600.71" width="26.41" height="26.41"/>
                                <rect class="cls-13" x="787.09" y="606.27" width="15.29" height="15.29"/>
                            </g>
                        </g>
                    </g>
                </g>
            </g>
            <g id="esp32_module">
                <rect class="cls-14" x="533.17" y="274.29" width="317.07" height="222.29"/>
                <g class="cls-19">
                    <g>
                        <rect class="cls-7" x="533.17" y="264.25" width="12.57" height="10.05"/>
                        <rect class="cls-7" x="551.38" y="264.25" width="12.57" height="10.05"/>
                        <rect class="cls-7" x="569.59" y="264.25" width="12.57" height="10.05"/>
                        <rect class="cls-7" x="587.8" y="264.25" width="12.57" height="10.05"/>
                        <rect class="cls-7" x="606.01" y="264.25" width="12.57" height="10.05"/>
                        <rect class="cls-7" x="624.21" y="264.25" width="12.57" height="10.05"/>
                        <rect class="cls-7" x="642.42" y="264.25" width="12.57" height="10.05"/>
                        <rect class="cls-7" x="660.63" y="264.25" width="12.57" height="10.05"/>
                        <rect class="cls-7" x="678.84" y="264.25" width="12.57" height="10.05"/>
                        <rect class="cls-7" x="697.05" y="264.25" width="12.57" height="10.05"/>
                        <rect class="cls-7" x="715.26" y="264.25" width="12.57" height="10.05"/>
                        <rect class="cls-7" x="733.47" y="264.25" width="12.57" height="10.05"/>
                        <rect class="cls-7" x="751.67" y="264.25" width="12.57" height="10.05"/>
                        <rect class="cls-7" x="769.88" y="264.25" width="12.57" height="10.05"/>
                    </g>
                </g>
                <g class="cls-25">
                    <g>
                        <rect class="cls-7" x="533.17" y="496.58" width="12.57" height="10.05"/>
                        <rect class="cls-7" x="551.38" y="496.58" width="12.57" height="10.05"/>
                        <rect class="cls-7" x="569.59" y="496.58" width="12.57" height="10.05"/>
                        <rect class="cls-7" x="587.8" y="496.58" width="12.57" height="10.05"/>
                        <rect class="cls-7" x="606.01" y="496.58" width="12.57" height="10.05"/>
                        <rect class="cls-7" x="624.21" y="496.58" width="12.57" height="10.05"/>
                        <rect class="cls-7" x="642.42" y="496.58" width="12.57" height="10.05"/>
                        <rect class="cls-7" x="660.63" y="496.58" width="12.57" height="10.05"/>
                        <rect class="cls-7" x="678.84" y="496.58" width="12.57" height="10.05"/>
                        <rect class="cls-7" x="697.05" y="496.58" width="12.57" height="10.05"/>
                        <rect class="cls-7" x="715.26" y="496.58" width="12.57" height="10.05"/>
                        <rect class="cls-7" x="733.47" y="496.58" width="12.57" height="10.05"/>
                        <rect class="cls-7" x="751.67" y="496.58" width="12.57" height="10.05"/>
                        <rect class="cls-7" x="769.88" y="496.58" width="12.57" height="10.05"/>
                    </g>
                </g>
                <g class="cls-24">
                    <g>
                        <rect class="cls-7" x="557.96" y="277.29" width="12.57" height="10.05"/>
                        <rect class="cls-7" x="576.17" y="277.29" width="12.57" height="10.05"/>
                        <rect class="cls-7" x="594.37" y="277.29" width="12.57" height="10.05"/>
                        <rect class="cls-7" x="612.58" y="277.29" width="12.57" height="10.05"/>
                        <rect class="cls-7" x="630.79" y="277.29" width="12.57" height="10.05"/>
                        <rect class="cls-7" x="649" y="277.29" width="12.57" height="10.05"/>
                        <rect class="cls-7" x="667.21" y="277.29" width="12.57" height="10.05"/>
                        <rect class="cls-7" x="685.42" y="277.29" width="12.57" height="10.05"/>
                        <rect class="cls-7" x="703.63" y="277.29" width="12.57" height="10.05"/>
                        <rect class="cls-7" x="721.83" y="277.29" width="12.57" height="10.05"/>
                        <rect class="cls-7" x="740.04" y="277.29" width="12.57" height="10.05"/>
                        <rect class="cls-7" x="758.25" y="277.29" width="12.57" height="10.05"/>
                    </g>
                </g>
                <g class="cls-22">
                    <g>
                        <rect class="cls-7" x="557.96" y="483.59" width="12.57" height="10.05"/>
                        <rect class="cls-7" x="576.17" y="483.59" width="12.57" height="10.05"/>
                        <rect class="cls-7" x="594.37" y="483.59" width="12.57" height="10.05"/>
                        <rect class="cls-7" x="612.58" y="483.59" width="12.57" height="10.05"/>
                        <rect class="cls-7" x="630.79" y="483.59" width="12.57" height="10.05"/>
                        <rect class="cls-7" x="649" y="483.59" width="12.57" height="10.05"/>
                        <rect class="cls-7" x="667.21" y="483.59" width="12.57" height="10.05"/>
                        <rect class="cls-7" x="685.42" y="483.59" width="12.57" height="10.05"/>
                        <rect class="cls-7" x="703.63" y="483.59" width="12.57" height="10.05"/>
                        <rect class="cls-7" x="721.83" y="483.59" width="12.57" height="10.05"/>
                        <rect class="cls-7" x="740.04" y="483.59" width="12.57" height="10.05"/>
                        <rect class="cls-7" x="758.25" y="483.59" width="12.57" height="10.05"/>
                    </g>
                </g>
                <g class="cls-23">
                    <g>
                        <rect class="cls-7" x="534.58" y="467.53" width="12.57" height="10.05" transform="translate(68.31 1013.41) rotate(-90)"/>
                        <rect class="cls-7" x="534.58" y="449.32" width="12.57" height="10.05" transform="translate(86.52 995.2) rotate(-90)"/>
                        <rect class="cls-7" x="534.58" y="431.11" width="12.57" height="10.05" transform="translate(104.73 977) rotate(-90)"/>
                        <rect class="cls-7" x="534.58" y="412.9" width="12.57" height="10.05" transform="translate(122.94 958.79) rotate(-90)"/>
                        <rect class="cls-7" x="534.58" y="394.69" width="12.57" height="10.05" transform="translate(141.15 940.58) rotate(-90)"/>
                        <rect class="cls-7" x="534.58" y="376.48" width="12.57" height="10.05" transform="translate(159.36 922.37) rotate(-90)"/>
                        <rect class="cls-7" x="534.58" y="358.27" width="12.57" height="10.05" transform="translate(177.57 904.16) rotate(-90)"/>
                        <rect class="cls-7" x="534.58" y="340.07" width="12.57" height="10.05" transform="translate(195.77 885.95) rotate(-90)"/>
                        <rect class="cls-7" x="534.58" y="321.86" width="12.57" height="10.05" transform="translate(213.98 867.74) rotate(-90)"/>
                        <rect class="cls-7" x="534.58" y="303.65" width="12.57" height="10.05" transform="translate(232.19 849.54) rotate(-90)"/>
                        <rect class="cls-7" x="534.58" y="285.44" width="12.57" height="10.05" transform="translate(250.4 831.33) rotate(-90)"/>
                    </g>
                </g>
                <rect class="cls-10" x="541.73" y="281.59" width="242.21" height="208.91" rx="4.88" ry="4.88"/>
                <g>
                    <path class="cls-15" d="M677.4,454.07c-1.07-.05-2.23-.08-3.39-.17-.8-.06-1.59-.22-2.39-.34-.59-.09-1.18-.19-1.77-.31-.31-.06-.61-.14-.91-.24-.11-.04-.23-.14-.28-.25-.32-.76-.64-1.53-.93-2.31-.26-.7-.51-1.4-.73-2.11-.19-.61-.34-1.22-.49-1.84-.03-.11,.03-.24,.07-.36,.44-1.17,.88-2.33,1.32-3.5,.07-.2,.17-.39,.23-.59,.06-.2,.18-.24,.35-.18,.31,.1,.61,.2,.91,.3,.39,.12,.78,.24,1.17,.34,.46,.12,.92,.23,1.38,.34,.27,.06,.54,.11,.82,.17,1.66,.31,3.33,.47,5.02,.41,.99-.04,1.98-.06,2.96-.15,.67-.06,1.34-.22,2.01-.34,.49-.09,.98-.19,1.45-.31,.52-.13,1.04-.29,1.55-.46,.56-.18,1.12-.37,1.67-.59,.53-.21,1.06-.42,1.56-.68,.85-.44,1.71-.88,2.53-1.39,.89-.55,1.75-1.16,2.59-1.79,1.42-1.07,2.67-2.31,3.83-3.66,1.17-1.37,2.2-2.85,3.07-4.44,.54-1,1.05-2.02,1.44-3.08,.31-.83,.61-1.67,.87-2.52,.18-.6,.31-1.22,.44-1.83,.13-.61,.26-1.22,.34-1.83,.15-1.08,.28-2.17,.16-3.26-.11-1.03-1.04-1.81-1.97-1.81-.44,0-.89,0-1.27,.25-.58,.38-.98,.89-1.06,1.61-.09,.84-.16,1.68-.27,2.51-.08,.63-.21,1.25-.34,1.88-.12,.58-.27,1.15-.44,1.72-.16,.54-.34,1.09-.56,1.61-.31,.74-.65,1.47-1,2.18-.67,1.33-1.5,2.56-2.43,3.71-1.33,1.64-2.86,3.06-4.59,4.27-.97,.68-1.97,1.29-3.06,1.77-.79,.34-1.57,.7-2.38,.99-.67,.24-1.37,.42-2.06,.58-.81,.19-1.63,.37-2.45,.46-1.02,.11-2.06,.19-3.09,.17-1.1-.02-2.21-.12-3.3-.28-.88-.13-1.75-.35-2.6-.61-.92-.27-1.84-.58-2.71-.97-.93-.41-1.81-.93-2.71-1.4-.2-.1-.26-.28-.23-.5,.13-.87,.25-1.75,.4-2.62,.12-.73,.27-1.45,.44-2.17,.11-.5,.25-1.01,.41-1.5,.05-.16,.19-.29,.31-.42,.77-.87,1.54-1.74,2.3-2.62,.28-.33,.28-.33,.64-.09,.46,.31,.9,.65,1.38,.92,.6,.33,1.22,.62,1.85,.88,.47,.2,.96,.37,1.45,.48,.58,.13,1.16,.23,1.75,.27,.99,.07,1.98,.07,2.95-.13,.71-.15,1.41-.36,2.1-.6,1.82-.66,3.35-1.76,4.64-3.19,.75-.84,1.36-1.77,1.84-2.78,.4-.84,.7-1.71,.87-2.61,.15-.8,.22-1.61,.29-2.42,.08-.97,.23-1.93,.51-2.86,.39-1.3,.99-2.51,1.74-3.63,.92-1.36,2.08-2.48,3.45-3.38,.78-.51,1.61-.95,2.49-1.27,.66-.24,1.35-.4,2.04-.58,1.16-.31,2.33-.21,3.49-.09,1.04,.11,2.07,.31,3.09,.52,.7,.14,1.34,.46,1.96,.79,1.05,.56,2,1.25,2.86,2.08,1,.97,1.83,2.06,2.44,3.31,.33,.68,.63,1.38,.88,2.09,.37,1.04,.55,2.13,.54,3.23,0,1.25-.04,2.5-.13,3.75-.05,.78-.22,1.55-.34,2.32-.09,.56-.2,1.12-.31,1.68-.1,.46-.21,.91-.33,1.36-.09,.37-.2,.73-.3,1.1-.14,.5-.28,1-.45,1.49-.19,.55-.39,1.1-.6,1.64-.21,.53-.42,1.05-.65,1.57-.31,.69-.61,1.39-.97,2.05-.53,.98-1.09,1.94-1.67,2.9-.96,1.58-2.09,3.05-3.29,4.45-1.22,1.42-2.55,2.74-3.98,3.95-1.39,1.18-2.85,2.26-4.4,3.22-.9,.56-1.82,1.08-2.75,1.57-.79,.41-1.6,.77-2.41,1.12-.84,.36-1.68,.7-2.54,.99-.89,.31-1.79,.58-2.7,.81-.89,.23-1.79,.42-2.7,.58-1.05,.19-2.1,.38-3.16,.48-1.22,.11-2.44,.12-3.76,.17Z"/>
                    <path class="cls-15" d="M722.12,416.11c.82,0,1.64,0,2.46,0,.22,0,.39,.06,.54,.23,1.18,1.37,2.26,2.81,3.2,4.36,.4,.65,.77,1.3,1.15,1.96,.06,.1,.07,.24,.05,.36-.12,.85-.24,1.69-.39,2.54-.13,.78-.26,1.56-.43,2.33-.18,.81-.39,1.62-.6,2.42-.14,.52-.28,1.04-.44,1.56-.19,.62-.39,1.24-.6,1.85-.19,.56-.39,1.12-.6,1.67-.22,.59-.45,1.17-.7,1.74-.32,.73-.64,1.45-.98,2.17-.38,.78-.77,1.56-1.18,2.32-.48,.88-.97,1.75-1.49,2.6-.96,1.58-2.02,3.09-3.15,4.55-1.34,1.73-2.78,3.37-4.33,4.92-1.6,1.6-3.29,3.09-5.08,4.48-1.31,1.01-2.65,1.99-4.07,2.85-1.37,.83-2.77,1.62-4.18,2.37-.96,.51-1.97,.94-2.97,1.38-.81,.36-1.62,.69-2.45,1-.83,.31-1.66,.58-2.5,.84-.83,.26-1.66,.51-2.49,.74-.62,.17-1.25,.3-1.88,.44-.76,.17-1.51,.33-2.27,.47-.65,.12-1.3,.21-1.95,.31-.08,.01-.17,0-.24,.03-.62,.22-1.14-.03-1.66-.32-1.49-.85-2.91-1.82-4.27-2.86-.5-.39-.98-.81-1.47-1.21-.12-.1-.18-.21-.17-.38,.02-1.27,.03-2.53,.05-3.8,0-.45,.03-.91,.05-1.36,0-.13,.05-.17,.18-.18,1.56-.08,3.13-.15,4.69-.28,.81-.06,1.62-.21,2.43-.34,.79-.13,1.58-.27,2.37-.44,.61-.13,1.2-.31,1.8-.47,.5-.14,1-.28,1.49-.43,.6-.19,1.19-.4,1.78-.61,.51-.18,1.02-.38,1.53-.58,.55-.23,1.1-.46,1.64-.72,.77-.37,1.54-.73,2.29-1.14,.78-.42,1.56-.86,2.31-1.33,.77-.48,1.53-1,2.27-1.52,1.64-1.15,3.17-2.44,4.62-3.83,1.36-1.3,2.64-2.68,3.78-4.18,.89-1.17,1.74-2.36,2.55-3.58,.82-1.24,1.55-2.54,2.18-3.89,.43-.92,.87-1.85,1.26-2.79,.36-.88,.66-1.79,.97-2.69,.22-.64,.42-1.29,.6-1.94,.17-.61,.31-1.23,.45-1.85,.12-.51,.23-1.03,.33-1.54,.06-.28,.11-.56,.15-.84,.11-.83,.24-1.67,.31-2.5,.12-1.52,.2-3.04,.29-4.56,.01-.19,.07-.25,.26-.25,.84,0,1.68,0,2.53,0,0-.01,0-.03,0-.04Z"/>
                    <path class="cls-15" d="M673.09,465.01c-.24,.21-.47,.41-.69,.62-.41,.4-.81,.8-1.21,1.21-.11,.12-.18,.14-.31,0-1.28-1.28-2.46-2.64-3.52-4.11-.86-1.2-1.7-2.43-2.46-3.69-.66-1.1-1.22-2.25-1.78-3.41-.42-.86-.79-1.75-1.14-2.65-.32-.83-.59-1.68-.85-2.53-.27-.87-.51-1.75-.74-2.63-.13-.51-.21-1.03-.31-1.55-.12-.62-.23-1.25-.34-1.88-.06-.36-.12-.72-.15-1.09-.07-.74-.15-1.49-.16-2.23-.02-1.79-.02-3.59,.01-5.38,.01-.69,.13-1.38,.21-2.07,.09-.73,.2-1.45,.32-2.17,.09-.54,.22-1.07,.34-1.61,.1-.46,.2-.93,.32-1.39,.14-.54,.3-1.08,.47-1.62,.14-.46,.28-.92,.44-1.37,.2-.56,.41-1.12,.63-1.68,.22-.55,.44-1.09,.68-1.63,.27-.6,.53-1.2,.84-1.78,.49-.92,1-1.83,1.53-2.72,1.03-1.72,2.21-3.34,3.49-4.88,1.28-1.54,2.72-2.93,4.2-4.29,1.27-1.16,2.65-2.18,4.06-3.16,1.17-.8,2.36-1.56,3.62-2.21,.95-.49,1.92-.94,2.9-1.38,.82-.36,1.65-.69,2.49-1,.6-.22,1.22-.4,1.83-.58,.89-.26,1.78-.51,2.68-.74,.52-.13,1.06-.22,1.59-.31,.65-.12,1.29-.25,1.94-.34,.64-.09,1.28-.14,1.92-.2,2.22-.2,4.43-.15,6.65-.05,.74,.03,1.47,.13,2.21,.22,.68,.09,1.36,.22,2.03,.34,.54,.1,1.08,.19,1.61,.31,.6,.14,1.2,.3,1.8,.47,.5,.14,1,.28,1.49,.44,.6,.2,1.2,.41,1.79,.62,.48,.18,.95,.36,1.42,.56,.55,.23,1.1,.46,1.64,.71,.66,.32,1.33,.64,1.97,1,1.06,.61,2.14,1.2,3.15,1.88,1.21,.82,2.37,1.7,3.51,2.61,.83,.67,1.59,1.42,2.37,2.15,.22,.21,.22,.24,0,.47-.51,.54-1.04,1.07-1.56,1.6-.15,.15-.26,.15-.41,0-.56-.53-1.11-1.07-1.7-1.55-1.1-.88-2.2-1.76-3.35-2.57-.92-.65-1.9-1.22-2.89-1.77-.9-.51-1.83-.96-2.76-1.41-.56-.27-1.14-.49-1.71-.72-.78-.3-1.56-.6-2.36-.87-.51-.18-1.03-.31-1.55-.45-.83-.21-1.66-.44-2.51-.61-.92-.18-1.84-.32-2.77-.44-1.85-.24-3.71-.29-5.57-.24-1.07,.03-2.13,.12-3.2,.22-.73,.07-1.47,.18-2.19,.3-.55,.09-1.09,.22-1.63,.34-.61,.14-1.22,.28-1.83,.45-.65,.18-1.28,.39-1.92,.6-.55,.18-1.1,.38-1.65,.59-.56,.22-1.11,.45-1.65,.7-.69,.32-1.38,.63-2.04,1-1.04,.58-2.08,1.17-3.1,1.8-1.36,.84-2.62,1.81-3.83,2.84-1.45,1.23-2.8,2.57-4.05,4.01-1.02,1.17-1.96,2.4-2.82,3.69-.87,1.29-1.66,2.62-2.34,4.02-.39,.81-.78,1.61-1.13,2.44-.32,.75-.58,1.53-.85,2.29-.17,.47-.33,.94-.47,1.41-.16,.55-.3,1.1-.44,1.65-.12,.48-.23,.96-.34,1.45-.06,.26-.12,.53-.16,.8-.11,.69-.21,1.39-.31,2.08-.33,2.35-.29,4.71-.22,7.06,.03,1,.21,2.01,.34,3.01,.08,.63,.18,1.26,.3,1.88,.13,.67,.3,1.32,.47,1.98,.1,.41,.2,.82,.32,1.23,.14,.46,.29,.92,.44,1.37,.2,.57,.39,1.14,.61,1.71,.22,.56,.44,1.11,.69,1.65,.36,.76,.73,1.52,1.12,2.27,.38,.72,.79,1.43,1.22,2.12,.94,1.53,1.99,2.99,3.16,4.35,.62,.73,1.27,1.43,1.91,2.14,.05,.06,.11,.12,.21,.24Z"/>
                    <path class="cls-15" d="M699.57,472.52c-.77,0-1.54,0-2.31,0-.54,0-.45-.04-.63-.48-.2-.48-.34-.99-.52-1.48-.06-.16,0-.26,.14-.31,.63-.23,1.26-.45,1.88-.7,.58-.22,1.15-.46,1.71-.71,.64-.28,1.28-.57,1.91-.87,.75-.36,1.5-.72,2.23-1.1,.59-.31,1.18-.63,1.76-.97,.8-.47,1.6-.94,2.37-1.45,1.12-.74,2.23-1.49,3.31-2.29,1.83-1.36,3.57-2.83,5.22-4.41,1.65-1.58,3.24-3.23,4.67-5.02,.96-1.2,1.91-2.42,2.79-3.68,.91-1.32,1.76-2.7,2.58-4.09,.64-1.08,1.22-2.21,1.79-3.33,.4-.79,.75-1.61,1.11-2.42,.31-.7,.6-1.41,.89-2.12,.2-.49,.38-.98,.56-1.47,.15-.4,.26-.44,.65-.29,.42,.16,.85,.3,1.27,.46,.22,.08,.36,.23,.38,.48,.15,1.48,.17,2.97,.03,4.45-.06,.68-.1,1.37-.19,2.05-.09,.69-.22,1.37-.35,2.05-.09,.52-.19,1.03-.31,1.55-.1,.43-.21,.86-.33,1.29-.14,.52-.29,1.04-.46,1.55-.13,.42-.27,.83-.43,1.24-.24,.62-.47,1.24-.75,1.84-.36,.8-.73,1.59-1.15,2.36-.5,.91-1.02,1.82-1.6,2.68-.69,1.01-1.42,2-2.19,2.96-1.24,1.55-2.65,2.93-4.17,4.22-1.21,1.03-2.49,1.98-3.84,2.82-.73,.46-1.48,.91-2.25,1.3-.97,.49-1.97,.94-2.97,1.38-.61,.27-1.24,.51-1.87,.73-.63,.22-1.28,.4-1.92,.58-.6,.17-1.2,.33-1.8,.47-.5,.12-1.01,.23-1.53,.3-.95,.13-1.9,.27-2.85,.34-.95,.07-1.9,.08-2.85,.11,0-.01,0-.03,0-.04Z"/>
                    <path class="cls-15" d="M671.79,416.99c-.05-2.14,.71-3.65,2.14-4.84,.66-.55,1.43-.92,2.26-1.1,.76-.16,1.53-.21,2.31-.09,1.63,.25,2.89,1.1,3.84,2.41,.62,.86,.98,1.83,.99,2.9,0,.63,0,1.27-.14,1.88-.13,.56-.39,1.1-.68,1.6-.46,.82-1.14,1.46-1.95,1.94-.64,.37-1.32,.6-2.04,.74-.7,.13-1.39,.11-2.07-.04-1.23-.26-2.29-.84-3.15-1.78-.6-.66-1.06-1.4-1.29-2.26-.14-.52-.17-1.07-.21-1.35Z"/>
                </g>
            </g>
            <g id="text">
                <g>
                    <path class="cls-6" d="M77.97,342.91c-1.3,1.3-3.17,1.94-5.6,1.94h-9.48v-3.12h9.36c3.3,0,4.94-1.42,4.94-4.27s-1.65-4.25-4.94-4.25h-9.36v-3.07h9.48c2.43,0,4.3,.64,5.6,1.93,1.3,1.29,1.96,3.09,1.96,5.41s-.65,4.13-1.96,5.42Z"/>
                    <path class="cls-6" d="M79.38,324.32c-.37,1.21-.86,2.16-1.46,2.87l-2.42-1.08c.54-.69,.99-1.53,1.33-2.53,.34-1,.52-2,.52-3.01,0-1.25-.2-2.18-.6-2.8-.4-.62-.93-.92-1.58-.92-.48,0-.88,.17-1.19,.52-.31,.34-.56,.78-.73,1.31-.18,.53-.38,1.25-.6,2.16-.3,1.28-.61,2.32-.91,3.11s-.78,1.47-1.43,2.04c-.65,.57-1.52,.85-2.63,.85-.93,0-1.77-.25-2.53-.76s-1.36-1.26-1.81-2.28c-.45-1.02-.67-2.26-.67-3.73,0-1.02,.13-2.03,.38-3.02,.26-.99,.62-1.85,1.1-2.57l2.42,.98c-.43,.74-.76,1.5-.98,2.3-.22,.8-.34,1.58-.34,2.33,0,1.23,.21,2.15,.62,2.75,.42,.6,.97,.9,1.66,.9,.48,0,.87-.17,1.18-.52,.3-.34,.54-.78,.72-1.31,.18-.53,.38-1.25,.6-2.16,.29-1.25,.59-2.27,.9-3.07,.31-.8,.79-1.48,1.43-2.05s1.5-.85,2.59-.85c.93,0,1.77,.25,2.52,.76,.75,.5,1.35,1.27,1.8,2.29,.45,1.02,.67,2.27,.67,3.74,0,1.3-.18,2.55-.55,3.76Z"/>
                    <path class="cls-6" d="M72.48,296.57c.71-.54,1.6-.82,2.65-.82,1.46,0,2.58,.56,3.37,1.68,.79,1.12,1.19,2.75,1.19,4.9v8.35h-16.8v-7.87c0-1.98,.39-3.51,1.16-4.58,.78-1.07,1.84-1.61,3.2-1.61,.83,0,1.57,.19,2.21,.58,.64,.38,1.14,.91,1.49,1.58,.3-.93,.81-1.66,1.52-2.21Zm-7.14,10.99h4.63v-4.42c0-1.09-.2-1.92-.59-2.51-.39-.58-.96-.88-1.72-.88s-1.35,.29-1.74,.88c-.39,.58-.59,1.42-.59,2.51v4.42Zm9.48-8.66c-1.62,0-2.42,1.21-2.42,3.62v5.04h4.85v-5.04c0-2.42-.81-3.62-2.42-3.62Z"/>
                </g>
                <g>
                    <path class="cls-6" d="M642.55,87.83h7.34c1.79,0,3.38,.35,4.78,1.04,1.39,.7,2.47,1.68,3.24,2.95,.77,1.27,1.15,2.74,1.15,4.4s-.38,3.13-1.15,4.4c-.77,1.27-1.85,2.26-3.24,2.95-1.39,.7-2.98,1.04-4.78,1.04h-7.34v-16.8Zm7.2,14.16c1.23,0,2.32-.24,3.25-.71,.94-.47,1.66-1.14,2.16-2.02s.76-1.88,.76-3.04-.25-2.16-.76-3.04-1.22-1.54-2.16-2.02c-.94-.47-2.02-.71-3.25-.71h-4.08v11.52h4.08Z"/>
                    <path class="cls-6" d="M662.37,87.83h3.12v16.8h-3.12v-16.8Z"/>
                    <path class="cls-6" d="M681.5,96.04h2.95v6.7c-.86,.69-1.87,1.22-3.02,1.58-1.15,.37-2.34,.55-3.55,.55-1.71,0-3.26-.37-4.63-1.12-1.38-.74-2.46-1.77-3.24-3.08-.78-1.31-1.18-2.79-1.18-4.44s.39-3.13,1.18-4.44c.78-1.31,1.87-2.34,3.25-3.08s2.94-1.12,4.67-1.12c1.41,0,2.69,.23,3.84,.7s2.12,1.14,2.9,2.04l-1.97,1.92c-1.28-1.28-2.82-1.92-4.63-1.92-1.18,0-2.24,.25-3.16,.74-.92,.5-1.64,1.19-2.16,2.09-.52,.9-.78,1.92-.78,3.07s.26,2.13,.78,3.02c.52,.9,1.24,1.6,2.16,2.11,.92,.51,1.96,.77,3.13,.77,1.31,0,2.46-.29,3.46-.86v-5.23Z"/>
                    <path class="cls-6" d="M688.56,87.83h3.12v16.8h-3.12v-16.8Z"/>
                    <path class="cls-6" d="M699.62,90.47h-5.57v-2.64h14.26v2.64h-5.57v14.16h-3.12v-14.16Z"/>
                    <path class="cls-6" d="M720.72,100.74h-8.4l-1.66,3.89h-3.22l7.56-16.8h3.07l7.58,16.8h-3.26l-1.68-3.89Zm-1.03-2.45l-3.17-7.34-3.14,7.34h6.31Z"/>
                    <path class="cls-6" d="M727.8,87.83h3.12v14.16h8.78v2.64h-11.9v-16.8Z"/>
                </g>
                <g>
                    <path class="cls-6" d="M553.12,228.27h7.34c1.79,0,3.38,.35,4.78,1.04,1.39,.7,2.47,1.68,3.24,2.95,.77,1.27,1.15,2.74,1.15,4.4s-.38,3.13-1.15,4.4c-.77,1.27-1.85,2.26-3.24,2.95-1.39,.7-2.98,1.04-4.78,1.04h-7.34v-16.8Zm7.2,14.16c1.23,0,2.32-.24,3.25-.71,.94-.47,1.66-1.14,2.16-2.02,.5-.87,.76-1.88,.76-3.04s-.25-2.16-.76-3.04c-.5-.87-1.22-1.54-2.16-2.02-.94-.47-2.02-.71-3.25-.71h-4.08v11.52h4.08Z"/>
                    <path class="cls-6" d="M577.31,228.27v16.8h-3.12v-14.18h-3.55v-2.62h6.67Z"/>
                    <path class="cls-6" d="M599.46,245.07l-3.43-4.92c-.14,.02-.36,.02-.65,.02h-3.79v4.9h-3.12v-16.8h6.91c1.46,0,2.72,.24,3.8,.72,1.08,.48,1.91,1.17,2.48,2.06,.58,.9,.86,1.96,.86,3.19s-.31,2.35-.92,3.26c-.62,.91-1.5,1.59-2.65,2.04l3.86,5.52h-3.36Zm-1.13-13.3c-.71-.58-1.74-.86-3.1-.86h-3.65v6.7h3.65c1.36,0,2.39-.29,3.1-.88,.7-.58,1.06-1.41,1.06-2.48s-.35-1.9-1.06-2.47Z"/>
                    <path class="cls-6" d="M615.4,236.79c.82,.86,1.22,1.94,1.22,3.24,0,.98-.25,1.86-.74,2.66-.5,.8-1.25,1.44-2.24,1.91-1,.47-2.22,.71-3.66,.71-1.2,0-2.36-.17-3.47-.52-1.11-.34-2.06-.82-2.84-1.43l1.34-2.42c.61,.51,1.35,.92,2.22,1.21s1.77,.44,2.7,.44c1.1,0,1.97-.23,2.6-.68s.95-1.08,.95-1.86-.3-1.4-.9-1.84c-.6-.44-1.52-.66-2.75-.66h-1.54v-2.14l3.82-4.54h-7.63v-2.62h11.45v2.09l-4.08,4.85c1.55,.19,2.74,.72,3.55,1.58Z"/>
                    <path class="cls-6" d="M630.71,242.43v2.64h-12.38v-2.09l6.67-6.34c.75-.72,1.26-1.35,1.52-1.88s.4-1.07,.4-1.6c0-.78-.26-1.38-.79-1.8-.53-.42-1.3-.62-2.33-.62-1.71,0-3.02,.58-3.94,1.75l-2.18-1.68c.66-.88,1.54-1.56,2.65-2.05,1.11-.49,2.36-.73,3.73-.73,1.82,0,3.28,.43,4.37,1.3s1.63,2.04,1.63,3.53c0,.91-.19,1.77-.58,2.57-.38,.8-1.12,1.71-2.21,2.74l-4.49,4.27h7.92Z"/>
                </g>
                <g>
                    <path class="cls-6" d="M658.83,571.17h-8.4l-1.66,3.89h-3.22l7.56-16.8h3.07l7.58,16.8h-3.26l-1.68-3.89Zm-1.03-2.45l-3.17-7.34-3.14,7.34h6.31Z"/>
                    <path class="cls-6" d="M680.84,558.26v16.8h-2.57l-9.26-11.38v11.38h-3.1v-16.8h2.57l9.26,11.38v-11.38h3.1Z"/>
                    <path class="cls-6" d="M696.25,571.17h-8.4l-1.66,3.89h-3.22l7.56-16.8h3.07l7.58,16.8h-3.26l-1.68-3.89Zm-1.03-2.45l-3.17-7.34-3.14,7.34h6.31Z"/>
                    <path class="cls-6" d="M703.33,558.26h3.12v14.16h8.78v2.64h-11.9v-16.8Z"/>
                    <path class="cls-6" d="M720.61,574.18c-1.38-.74-2.46-1.78-3.24-3.1-.78-1.32-1.18-2.8-1.18-4.43s.39-3.11,1.18-4.43c.78-1.32,1.86-2.35,3.24-3.1,1.38-.74,2.92-1.12,4.63-1.12s3.26,.37,4.63,1.12,2.46,1.77,3.24,3.08c.78,1.31,1.18,2.79,1.18,4.44s-.39,3.13-1.18,4.44c-.78,1.31-1.86,2.34-3.24,3.08s-2.92,1.12-4.63,1.12-3.26-.37-4.63-1.12Zm7.66-2.38c.9-.5,1.6-1.21,2.11-2.11,.51-.9,.77-1.92,.77-3.04s-.26-2.13-.77-3.04c-.51-.9-1.22-1.61-2.11-2.11s-1.9-.76-3.02-.76-2.13,.25-3.02,.76c-.9,.5-1.6,1.21-2.11,2.11-.51,.9-.77,1.92-.77,3.04s.26,2.13,.77,3.04c.51,.9,1.22,1.61,2.11,2.11,.9,.5,1.9,.76,3.02,.76s2.13-.25,3.02-.76Z"/>
                    <path class="cls-6" d="M749.07,566.46h2.95v6.7c-.86,.69-1.87,1.22-3.02,1.58-1.15,.37-2.34,.55-3.55,.55-1.71,0-3.26-.37-4.63-1.12-1.38-.74-2.46-1.77-3.24-3.08-.78-1.31-1.18-2.79-1.18-4.44s.39-3.13,1.18-4.44c.78-1.31,1.87-2.34,3.25-3.08s2.94-1.12,4.67-1.12c1.41,0,2.69,.23,3.84,.7,1.15,.46,2.12,1.14,2.9,2.04l-1.97,1.92c-1.28-1.28-2.82-1.92-4.63-1.92-1.18,0-2.24,.25-3.16,.74-.92,.5-1.64,1.19-2.16,2.09-.52,.9-.78,1.92-.78,3.07s.26,2.13,.78,3.02c.52,.9,1.24,1.6,2.16,2.11,.92,.51,1.96,.77,3.13,.77,1.31,0,2.46-.29,3.46-.86v-5.23Z"/>
                </g>
            </g>
        </g>
    </g>
</svg>