<?xml version="1.0" encoding="UTF-8"?><svg id="Calque_2" xmlns="http://www.w3.org/2000/svg" xmlns:xlink="http://www.w3.org/1999/xlink" viewBox="0 0 98 100.04"><defs><style>.cls-1{fill:none;}.cls-2{fill:#fff;}.cls-3{fill:#333;}.cls-4{fill:#dee8e4;}.cls-5{fill:#22b573;}.cls-6{fill:#5d957c;}.cls-7{fill:#999;filter:url(#drop-shadow-1);}</style><filter id="drop-shadow-1" filterUnits="userSpaceOnUse"><feOffset dx="2" dy="2"/><feGaussianBlur result="blur" stdDeviation="5"/><feFlood flood-color="#000" flood-opacity=".75"/><feComposite in2="blur" operator="in"/><feComposite in="SourceGraphic"/></filter></defs><g id="Calque_2-2"><rect class="cls-1" width="98" height="100"/><g id="icon"><path id="background" class="cls-7" d="m58.52,20.07c-2.13-1.86-5.66-3.07-9.66-3.07s-7.56,1.23-9.69,3.1c-11.04,1.1-19.73,10.49-19.73,21.8l2.31,19.08c0,12.05,9.86,21.91,21.91,21.91h10.7c12.05,0,21.91-9.86,21.91-21.91l2.31-19.08c0-11.43-8.87-20.88-20.06-21.83Z"/><g id="robot"><ellipse id="hat" class="cls-5" cx="48.85" cy="24.31" rx="11.8" ry="7.19"/><path id="face" class="cls-4" d="m54.36,83.01h-10.7c-12.05,0-21.91-9.86-21.91-21.91l-2.31-19.08c0-12.05,9.86-21.91,21.91-21.91h15.32c12.05,0,21.91,9.86,21.91,21.91l-2.31,19.08c0,12.05-9.86,21.91-21.91,21.91Z"/><g id="eyes"><path id="border" class="cls-6" d="m64.19,34.25c-1.92-.07-3.76.2-5.47.77-2.22.73-4.55,1.05-6.89,1.05h-5.65c-2.34,0-4.67-.32-6.89-1.05-1.71-.56-3.56-.84-5.47-.77-8.25.3-14.92,7.08-15.1,15.33-.19,8.83,6.91,16.05,15.69,16.05,2.15,0,4.21-.44,6.08-1.22,2.6-1.09,5.41-1.61,8.23-1.61h.59c2.82,0,5.63.52,8.23,1.61,1.87.79,3.92,1.22,6.08,1.22,8.79,0,15.89-7.22,15.69-16.05-.18-8.26-6.85-15.03-15.1-15.33Z"/><g id="eyes_white"><circle class="cls-2" cx="34.56" cy="49.94" r="11.81"/><circle class="cls-2" cx="63.45" cy="49.94" r="11.81"/></g><g id="eyes_green"><circle class="cls-5" cx="34.77" cy="50.58" r="5.64"/><circle class="cls-5" cx="63.67" cy="50.58" r="5.64"/></g><g id="eyes_dark"><circle cx="34.77" cy="50.58" r="3.32"/><circle cx="63.67" cy="50.58" r="3.32"/></g><g id="eyes_light"><circle class="cls-2" cx="31.93" cy="48.57" r="1.27"/><circle class="cls-2" cx="60.83" cy="48.57" r="1.27"/></g></g><path class="cls-3" d="m74.36,37.43c-.21,0-.42-.08-.57-.25-4.63-4.87-11.74-6.72-18.11-4.73-.41.13-.86-.1-.99-.52-.13-.42.1-.86.52-.99,6.94-2.17,14.68-.15,19.72,5.15.3.32.29.82-.03,1.12-.15.15-.35.22-.54.22Z"/><path class="cls-3" d="m23.77,37.43c-.2,0-.4-.07-.55-.23-.31-.3-.32-.8-.01-1.12,5.15-5.27,12.98-7.17,19.92-4.84.41.14.64.59.5,1s-.59.64-1,.5c-6.38-2.14-13.56-.4-18.29,4.44-.15.16-.36.24-.56.24Z"/><path id="mousse" class="cls-3" d="m48.85,74.67c-3.21,0-6.4-.63-9.01-1.84-.53-.25-.75-.87-.51-1.4.25-.53.87-.76,1.4-.51,4.01,1.87,9.56,2.18,14.15.79.56-.17,1.14.15,1.31.7.17.56-.15,1.14-.7,1.31-2.09.64-4.37.95-6.64.95Z"/></g></g></g></svg>