<?xml version="1.0" encoding="UTF-8"?><svg id="Calque_2" xmlns="http://www.w3.org/2000/svg" xmlns:xlink="http://www.w3.org/1999/xlink" viewBox="0 0 98 100"><defs><style>.cls-1{fill:none;}.cls-2{fill:#fff;}.cls-3{fill:#1a6da8;}.cls-4{filter:url(#drop-shadow-1);}</style><filter id="drop-shadow-1" filterUnits="userSpaceOnUse"><feOffset dx="2" dy="2"/><feGaussianBlur result="blur" stdDeviation="5"/><feFlood flood-color="#000" flood-opacity=".75"/><feComposite in2="blur" operator="in"/><feComposite in="SourceGraphic"/></filter></defs><g id="Calque_2-2"><g id="icon" class="cls-4"><g id="inside"><path class="cls-2" d="m65.73,60.71c1.14-.16,2.31-.22,3.43-.48,7.4-1.73,10.63-10.24,6.19-16.22-3.7-4.98-10.61-5.63-15.57-2.74-3.34,1.94-5.46,5.05-7.43,8.24-.13.21-.04.69.12.93,1.34,1.96,2.61,3.98,4.11,5.81,2.33,2.86,5.34,4.48,9.16,4.46Z"/><path class="cls-2" d="m32.76,60.64c2.37.07,4.96-.84,7.18-2.82,2.42-2.16,4.14-4.85,5.79-7.59.11-.19.08-.58-.04-.78-1.46-2.38-3.07-4.66-5.18-6.53-3.41-3.01-7.38-3.99-11.79-2.96-6.85,1.61-10.29,9.14-6.85,15.1,2.25,3.9,5.86,5.56,10.9,5.58Z"/></g><path id="color" class="cls-3" d="m48.96,55.07c-.46.64-.84,1.17-1.22,1.7-1.72,2.47-3.65,4.73-6.15,6.45-2.45,1.68-5.17,2.55-8.14,2.71-4.56.24-8.79-.66-12.37-3.64-3.68-3.06-5.59-6.92-5.86-11.82-.4-7.23,5.17-14.89,13.89-16.09,6.49-.89,11.99,1.26,16.42,6.08.98,1.07,1.82,2.25,2.73,3.38.21.27.41.54.7.92.26-.32.44-.56.63-.79,1.33-1.57,2.56-3.24,4.02-4.67,3.14-3.07,6.94-4.73,11.35-5.02,4.68-.31,8.86.92,12.38,4.02,4.52,3.99,6.29,9.09,5.07,14.97-1.25,6.04-5.05,10.13-10.92,11.86-7.75,2.28-14.44.38-19.58-6.07-.83-1.04-1.58-2.15-2.37-3.22-.16-.22-.34-.44-.59-.77Zm-16.28,5.56c2.35.07,4.93-.84,7.13-2.82,2.4-2.16,4.11-4.85,5.75-7.59.11-.19.08-.58-.04-.78-1.45-2.38-3.04-4.66-5.14-6.53-3.38-3.01-7.33-3.99-11.71-2.96-6.8,1.61-10.22,9.14-6.81,15.1,2.23,3.9,5.82,5.56,10.83,5.58Zm33.11.11c1.14-.16,2.31-.22,3.43-.48,7.4-1.73,10.63-10.24,6.19-16.22-3.7-4.98-10.61-5.63-15.57-2.74-3.34,1.94-5.46,5.05-7.43,8.24-.13.21-.04.69.12.93,1.34,1.96,2.61,3.98,4.11,5.81,2.33,2.86,5.34,4.48,9.16,4.46Z"/><path id="border" class="cls-2" d="m31.94,34.18c5.28,0,9.83,2.17,13.6,6.28.98,1.07,1.82,2.25,2.73,3.38.21.27.41.54.7.92.26-.32.44-.56.63-.79,1.33-1.57,2.56-3.24,4.02-4.67,3.14-3.07,6.94-4.73,11.35-5.02.47-.03.93-.05,1.39-.05,4.12,0,7.83,1.28,10.99,4.07,4.52,3.99,6.29,9.09,5.07,14.97-1.25,6.04-5.05,10.13-10.92,11.86-2.09.61-4.1.92-6.03.92-5.22,0-9.8-2.28-13.55-7-.83-1.04-1.58-2.15-2.37-3.22-.16-.22-.34-.44-.59-.77-.46.64-.84,1.17-1.22,1.7-1.72,2.47-3.65,4.73-6.15,6.45-2.45,1.68-5.17,2.55-8.14,2.71-.46.02-.91.04-1.36.04-4.04,0-7.79-.99-11.01-3.67-3.68-3.06-5.59-6.92-5.86-11.82-.4-7.23,5.17-14.89,13.89-16.09.96-.13,1.9-.2,2.82-.2m.99,26.45c2.28,0,4.76-.91,6.88-2.82,2.4-2.16,4.11-4.85,5.75-7.59.11-.19.08-.58-.04-.78-1.45-2.38-3.04-4.66-5.14-6.53-2.52-2.24-5.34-3.35-8.43-3.35-1.06,0-2.16.13-3.28.4-6.8,1.61-10.22,9.14-6.81,15.1,2.23,3.9,5.82,5.56,10.83,5.58.08,0,.17,0,.25,0m32.78.1s.05,0,.07,0c1.14-.16,2.31-.22,3.43-.48,7.4-1.73,10.63-10.24,6.19-16.22-2.25-3.03-5.7-4.46-9.17-4.46-2.23,0-4.46.59-6.4,1.71-3.34,1.94-5.46,5.05-7.43,8.24-.13.21-.04.69.12.93,1.34,1.96,2.61,3.98,4.11,5.81,2.32,2.84,5.31,4.46,9.08,4.46m-33.78-28.07c-.99,0-2,.07-3.03.21-4.47.62-8.5,2.86-11.34,6.33-2.68,3.27-4.09,7.4-3.87,11.36.3,5.35,2.39,9.57,6.4,12.91,3.26,2.71,7.18,4.03,11.98,4.03.47,0,.95-.01,1.44-.04,3.3-.17,6.3-1.17,8.92-2.97,2.33-1.6,4.41-3.77,6.53-6.82.03.04.06.09.1.13.52.73,1.06,1.49,1.64,2.22,4,5.02,8.96,7.57,14.74,7.57,2.06,0,4.23-.33,6.46-.99,6.47-1.9,10.61-6.4,11.99-13.01,1.32-6.37-.6-12.05-5.55-16.42-3.35-2.95-7.38-4.45-12-4.45-.49,0-.99.02-1.49.05-4.8.32-8.95,2.15-12.32,5.45-1.08,1.05-2.02,2.21-2.93,3.34-.21.26-.42.51-.63.77-.12-.15-.23-.3-.35-.45-.62-.81-1.27-1.64-1.99-2.43-4.12-4.5-9.07-6.78-14.72-6.78h0Zm.99,26.45c-.07,0-.14,0-.21,0-4.66-.02-7.68-1.55-9.55-4.81-1.35-2.36-1.5-5.16-.42-7.67,1.14-2.63,3.42-4.51,6.25-5.18,1-.24,1.99-.36,2.93-.36,2.71,0,5.2,1,7.42,2.97,1.96,1.75,3.44,3.9,4.63,5.82-1.5,2.49-3.06,4.88-5.2,6.81-1.74,1.57-3.82,2.43-5.86,2.43h0Zm21.04-9.22c1.8-2.89,3.7-5.58,6.62-7.28,1.7-.99,3.65-1.51,5.64-1.51,3.24,0,6.13,1.4,7.95,3.84,1.78,2.39,2.21,5.35,1.19,8.14-1.04,2.85-3.47,4.98-6.5,5.69-.68.16-1.39.24-2.16.32-.34.04-.68.08-1.03.12-3.16,0-5.74-1.28-7.87-3.9-1.11-1.36-2.12-2.87-3.1-4.34-.24-.36-.49-.73-.73-1.09h0Z"/><g id="picto"><path id="less" class="cls-3" d="m35.5,52.53h-7.27c-1,0-1.82-1.43-1.81-2.44s.81-2.43,1.82-2.43h7.27c1,0,1.82,1.43,1.81,2.44s-.81,2.43-1.82,2.43Z"/><path id="more" class="cls-3" d="m70.02,47.69h-2.31s0-1.62,0-1.62c0-1-.45-1.82-1.46-1.82s-1.46.81-1.46,1.82v1.61s-2.7,0-2.7,0c-1,0-1.82,1.43-1.82,2.43s.64,2.43,1.64,2.43h2.53v.79c0,1,.52,1.82,1.52,1.82s1.52-.81,1.52-1.82v-.79h2.42c1,0,1.87-1.42,1.87-2.43s-.76-2.43-1.76-2.43Z"/></g></g><rect class="cls-1" width="98" height="100"/></g></svg>