<svg xmlns="http://www.w3.org/2000/svg" width="2938" height="212" viewBox="0 0 2938 212">
  <defs>
    <style>
      .cls-1 {
        fill: #fff;
        fill-rule: evenodd;
      }
    </style>
  </defs>
  <path class="cls-1" d="M2938,212H0V73c62.538-6.5,124.376,4.7,169,22l45,19C275.346,33.853,466.066-28.687,609,15c84.012,25.678,144.752,68.081,198,124,84.6-40.441,202.69-63.63,313-29a430.057,430.057,0,0,1,95,43l33,22q15.495-11,31-22c21-13.114,45.13-24.486,69-34,89.03-35.487,228.76-33.076,311,7,96.52-65.45,224.61-113.081,377-65,39.06,12.325,77.19,31.3,108,53q18,14,36,28c36.74-17.565,74.51-32.919,120-43,108.97-24.146,215.55,11.679,285,49,99.61-61.234,200.86-96.562,353-61V212Z"/>
</svg>
