<?xml version="1.0" encoding="UTF-8"?><svg id="Calque_2" xmlns="http://www.w3.org/2000/svg" xmlns:xlink="http://www.w3.org/1999/xlink" viewBox="0 0 98 100"><defs><style>.cls-1{fill:none;}.cls-2{fill:#00d4d1;}.cls-3{fill:#fff;}.cls-4{filter:url(#drop-shadow-1);}</style><filter id="drop-shadow-1" filterUnits="userSpaceOnUse"><feOffset dx="2" dy="2"/><feGaussianBlur result="blur" stdDeviation="5"/><feFlood flood-color="#000" flood-opacity=".75"/><feComposite in2="blur" operator="in"/><feComposite in="SourceGraphic"/></filter></defs><g id="Calque_2-2"><rect class="cls-1" width="98" height="100"/><g id="icon" class="cls-4"><path id="background" class="cls-3" d="m54.54,20.98c11.14,2.28,18.72,8.71,22.57,19.37,1.17,3.23,1.63,6.63,1.62,10.08-.01,9.37,0,18.74,0,28.11,0,1.17-.05,1.24-1.26,1.24-9.99,0-19.98.08-29.97-.04-5.67-.07-10.83-1.96-15.49-5.16-4.01-2.75-7.17-6.28-9.45-10.57-.99-1.86-1.95-5.46-2.53-7.78-.31-1.23-.7-4.14-.7-6.42s.4-5.53.55-6.1c2.88-11.18,9.64-18.49,20.28-22,1.18-.39,6.66-1.24,9.26-1.21,2.29.02,4.82.43,5.11.49Z"/><g id="logo"><path class="cls-2" d="m60.09,80.93c-4.93,0-8.96-.02-12.67-.06-5.68-.07-11.16-1.89-16.28-5.41-4.21-2.89-7.53-6.62-9.9-11.08-1.05-1.99-2.02-5.57-2.66-8.09-.36-1.42-.74-4.48-.75-6.77,0-2.38.42-5.76.6-6.46,2.99-11.6,10.13-19.34,21.21-22.99,1.37-.45,6.83-1.29,9.6-1.29h.12c2.42.02,5.06.46,5.38.52,11.67,2.39,19.62,9.21,23.62,20.27,1.16,3.2,1.71,6.65,1.71,10.56,0,6.73,0,13.45,0,20.18v7.93c0,1.96-.7,2.65-2.67,2.65-2.85,0-5.71,0-8.56.01-2.92,0-5.83.01-8.75.01Zm-4.17-12.47c1.6,0,3.19,0,4.79-.03,2.54-.04,4.76-.91,6.6-2.6,2.45-2.25,3.47-5.08,3.2-8.92-.4-5.86-4.5-8.17-7.86-9.07-1.16-.31-2.37-.35-3.5-.35-.33,0-1.69.02-2.04.02h-.54c-2.61-.04-3.23-.67-3.24-3.2,0-.78,0-1.54.02-2.3.02-1.78.04-3.62-.07-5.4-.17-2.94-1.37-5.24-3.56-6.81-1.28-.92-2.83-1.43-4.88-1.6-.42-.03-.83-.05-1.24-.05-2.91,0-6.82.92-8.89,5.31-.77,1.63-1.13,3.15-1.12,4.65.01,1.68.01,3.35.01,5.03,0,2.13,0,4.25.03,6.38.02,1.24.99,2.22,2.22,2.23,1.72,0,2.02-1.57,2.07-2.24.18-2.38.16-4.83.14-7.19-.01-1.31-.02-2.62,0-3.94.06-4,1.87-5.79,5.87-5.79h.43c3.01.07,4.67,1.77,4.67,4.77,0,2.28,0,4.57,0,6.85v4.56c0,2.16.83,2.97,3.05,3,.32,0,.64,0,.96,0,.59,0,1.19,0,1.78-.01.6,0,1.21-.01,1.81-.01,1.1,0,2.54.02,4.03.16,2.69.25,4.04,1.59,4.69,2.67,1.01,1.66,1.1,3.91.24,6.03-.96,2.38-2.93,3.58-5.83,3.58-3.26,0-6.49-.01-9.73-.01h-13.08c-.28,0-.56,0-.83.04-1.28.17-1.69.85-1.9,1.35-.31.77-.18,1.42.41,2.05.54.57,1.23.84,2.16.84,1.77,0,3.52,0,5.27,0h5.34s1.35,0,1.35,0c1.19,0,5.95.02,7.14.02Z"/><path class="cls-3" d="m49.25,20.2s.07,0,.11,0c2.29.02,4.82.43,5.11.49,11.14,2.28,18.72,8.71,22.57,19.37,1.17,3.23,1.63,6.63,1.62,10.08-.01,9.37,0,18.74,0,28.11,0,1.17-.05,1.24-1.26,1.24-5.77,0-11.54.03-17.3.03-4.22,0-8.44-.01-12.67-.06-5.67-.07-10.83-1.96-15.49-5.16-4.01-2.75-7.17-6.28-9.45-10.57-.99-1.86-1.95-5.46-2.53-7.78-.31-1.23-.7-4.14-.7-6.42,0-2.28.4-5.53.55-6.1,2.88-11.18,9.64-18.49,20.28-22,1.16-.38,6.51-1.22,9.16-1.22m-13.37,32.95c1.96,0,3.3-1.41,3.47-3.55.29-3.74.09-7.48.15-11.22.05-3.19,1.24-4.39,4.46-4.39h.01c.13,0,.26,0,.39,0,2.23.05,3.28,1.12,3.29,3.36,0,3.81,0,7.61,0,11.42,0,2.94,1.48,4.38,4.45,4.42.32,0,.64,0,.97,0,1.2,0,2.4-.02,3.61-.02,1.3,0,2.6.03,3.9.15,4.1.38,4.91,3.88,3.75,6.75-.81,2-2.44,2.7-4.52,2.7,0,0-.02,0-.03,0-3.2,0-6.39-.01-9.59-.01-4.13,0-8.25,0-12.38,0h0c-.27,0-.54,0-.8,0-.34,0-.68,0-1.02.05-1.4.19-2.49.9-3.02,2.22-.53,1.3-.27,2.53.69,3.56.85.91,1.95,1.28,3.19,1.28,0,0,.01,0,.02,0,1.76,0,3.53,0,5.29,0,2.22,0,4.44,0,6.66,0,0,0,0,0,0,0,2.39,0,4.78.02,7.16.02,1.6,0,3.19,0,4.79-.03,2.86-.04,5.41-1.03,7.53-2.97,2.96-2.72,3.93-6.14,3.66-10.06-.4-5.78-4.04-9.03-8.91-10.34-1.28-.34-2.57-.4-3.87-.4-.68,0-1.36.02-2.04.02-.17,0-.34,0-.52,0-1.84-.03-1.84,0-1.84-1.79,0-2.59.1-5.19-.05-7.77-.19-3.2-1.47-5.95-4.15-7.88-1.65-1.19-3.57-1.7-5.59-1.87-.46-.04-.91-.06-1.35-.06-4.32,0-8.15,1.82-10.17,6.12-.79,1.67-1.27,3.4-1.26,5.27.03,3.8-.02,7.61.04,11.41.03,2.04,1.67,3.61,3.62,3.63,0,0,.02,0,.03,0m13.38-35.78h0c-2.94,0-8.56.87-10.04,1.36-11.57,3.81-19.02,11.88-22.14,23.98-.22.86-.64,4.33-.64,6.82,0,2.47.41,5.61.79,7.11,1.04,4.12,1.92,6.79,2.78,8.41,2.47,4.66,5.95,8.56,10.34,11.58,5.36,3.68,11.1,5.59,17.06,5.66,3.72.04,7.76.06,12.7.06,2.9,0,5.8,0,8.7-.01,2.87,0,5.73-.01,8.6-.01.82,0,2.07,0,3.07-1,1.02-1.01,1.02-2.25,1.02-3.07v-7.9c0-6.73-.01-13.46,0-20.2,0-4.08-.58-7.69-1.79-11.05-4.18-11.55-12.48-18.68-24.67-21.18-.4-.08-3.12-.53-5.65-.55h-.13Zm-13.38,35.78v-2.83c-.4,0-.81-.32-.82-.83-.03-2.11-.03-4.27-.03-6.36,0-1.68,0-3.36-.01-5.04-.01-1.3.3-2.58.99-4.04,1.4-2.98,3.96-4.5,7.6-4.5.36,0,.74.02,1.12.05,1.79.15,3.11.58,4.17,1.34,1.85,1.33,2.82,3.21,2.98,5.75.1,1.72.08,3.45.06,5.28,0,.77-.02,1.55-.02,2.32,0,3.32,1.24,4.57,4.57,4.62h.07c.19,0,.37,0,.56,0,.35,0,.7,0,1.05,0,.33,0,.66,0,.99,0,1.03,0,2.13.04,3.13.31,4.24,1.14,6.54,3.76,6.81,7.8.23,3.37-.64,5.84-2.75,7.78-1.6,1.46-3.45,2.19-5.66,2.23-1.4.02-2.91.03-4.74.03-1.19,0-2.38,0-3.57,0-1.2,0-2.39,0-3.59,0h-2.82s-.51,0-.51,0h-3.33c-1.77,0-3.53,0-5.3,0-.68,0-.95-.19-1.14-.39-.25-.26-.22-.33-.13-.55.08-.19.16-.4.77-.48.2-.03.45-.03.65-.03h.37s.43,0,.43,0h4.98c2.47,0,4.94,0,7.41,0,3.19,0,6.39,0,9.58.01,4.45,0,6.36-2.43,7.18-4.47,1.03-2.53.9-5.26-.34-7.3-1.17-1.92-3.22-3.11-5.77-3.34-1.54-.14-3.03-.16-4.16-.16-.61,0-1.22,0-1.83.01-.59,0-1.18.01-1.77.01-.31,0-.62,0-.93,0-1.52-.02-1.65-.28-1.65-1.59v-4.52c0-2.3,0-4.6,0-6.9,0-3.78-2.27-6.09-6.05-6.19-.13,0-.26,0-.4,0h-.05c-4.78,0-7.23,2.42-7.3,7.18-.02,1.33-.01,2.67,0,3.97.02,2.45.04,4.76-.14,7.07-.07.93-.44.93-.64.93v2.83h0Z"/></g></g></g></svg>