<?xml version="1.0" encoding="UTF-8"?><svg id="Calque_2" xmlns="http://www.w3.org/2000/svg" xmlns:xlink="http://www.w3.org/1999/xlink" viewBox="0 0 100 102"><defs><style>.cls-1{fill:none;}.cls-2{fill:#fff;}.cls-3{fill:#ce574e;filter:url(#drop-shadow-1);}</style><filter id="drop-shadow-1" filterUnits="userSpaceOnUse"><feOffset dx="2" dy="2"/><feGaussianBlur result="blur" stdDeviation="5"/><feFlood flood-color="#000" flood-opacity=".75"/><feComposite in2="blur" operator="in"/><feComposite in="SourceGraphic"/></filter></defs><g id="Calque_2-2"><g id="icon_esp32"><ellipse id="background" class="cls-3" cx="49" cy="50" rx="32.74" ry="33.25"/><g id="logo"><path class="cls-2" d="m61.76,68.3c-.04.88-.06,1.84-.14,2.8-.05.66-.18,1.32-.28,1.97-.07.49-.16.98-.25,1.46-.05.25-.11.51-.19.75-.03.09-.12.19-.2.23-.62.27-1.25.53-1.88.77-.57.22-1.14.42-1.72.6-.49.16-.99.28-1.5.41-.09.02-.2-.02-.29-.06-.95-.36-1.9-.73-2.85-1.09-.16-.06-.32-.14-.48-.19-.16-.05-.19-.15-.15-.29.08-.25.17-.5.24-.75.1-.32.19-.64.28-.97.1-.38.19-.76.28-1.14.05-.22.09-.45.13-.67.25-1.37.39-2.75.33-4.15-.03-.82-.05-1.63-.12-2.44-.05-.56-.18-1.11-.28-1.66-.07-.4-.15-.81-.25-1.2-.11-.43-.24-.86-.38-1.28-.15-.46-.3-.92-.48-1.38-.17-.44-.34-.87-.56-1.29-.36-.71-.72-1.41-1.13-2.09-.45-.73-.94-1.45-1.45-2.14-.87-1.17-1.88-2.21-2.98-3.16-1.12-.97-2.32-1.82-3.62-2.53-.81-.45-1.64-.87-2.51-1.19-.68-.25-1.36-.5-2.05-.72-.49-.15-.99-.25-1.49-.36-.49-.11-.99-.21-1.49-.28-.88-.12-1.77-.23-2.65-.13-.84.09-1.48.86-1.48,1.63,0,.36,0,.73.2,1.05.31.48.73.81,1.31.87.68.07,1.36.13,2.04.22.51.07,1.02.17,1.53.28.47.1.94.22,1.4.36.44.13.89.28,1.31.46.6.26,1.19.53,1.78.83,1.08.55,2.08,1.23,3.02,2.01,1.34,1.1,2.49,2.37,3.48,3.79.55.8,1.05,1.63,1.44,2.53.28.65.57,1.3.81,1.96.2.55.34,1.13.47,1.7.15.67.3,1.34.38,2.03.09.85.15,1.7.14,2.55-.02.91-.1,1.82-.23,2.72-.1.72-.29,1.44-.49,2.14-.22.76-.47,1.52-.79,2.24-.33.77-.75,1.5-1.14,2.24-.08.16-.22.22-.41.19-.71-.11-1.43-.21-2.13-.33-.59-.1-1.18-.23-1.77-.36-.41-.09-.82-.21-1.22-.34-.13-.04-.23-.16-.34-.26-.71-.63-1.42-1.27-2.13-1.9-.26-.23-.27-.23-.07-.53.25-.38.53-.74.75-1.14.27-.49.5-1.01.72-1.53.16-.39.3-.79.39-1.2.11-.47.19-.96.22-1.45.06-.82.06-1.64-.11-2.44-.12-.59-.29-1.17-.49-1.73-.53-1.5-1.43-2.77-2.6-3.83-.68-.62-1.44-1.12-2.26-1.52-.68-.33-1.39-.58-2.12-.72-.65-.12-1.31-.18-1.97-.24-.79-.06-1.57-.19-2.33-.42-1.06-.32-2.04-.81-2.96-1.44-1.11-.76-2.02-1.72-2.75-2.85-.42-.65-.77-1.33-1.03-2.05-.2-.55-.33-1.12-.47-1.68-.25-.95-.17-1.93-.07-2.89.09-.86.25-1.71.42-2.55.11-.57.37-1.1.65-1.62.46-.86,1.02-1.66,1.69-2.36.79-.82,1.68-1.51,2.7-2.02.55-.27,1.12-.52,1.7-.73.85-.3,1.73-.45,2.63-.45,1.02,0,2.04.03,3.05.1.63.04,1.26.18,1.89.28.46.08.91.16,1.37.26.37.08.74.18,1.11.27.3.08.6.16.89.25.4.12.81.23,1.21.37.45.15.89.32,1.34.5.43.17.86.35,1.28.54.56.26,1.13.5,1.67.8.8.44,1.58.9,2.36,1.38,1.29.79,2.48,1.72,3.62,2.72,1.16,1.01,2.23,2.1,3.22,3.28.96,1.15,1.84,2.35,2.62,3.63.45.74.88,1.5,1.28,2.27.33.65.63,1.32.91,1.99.29.69.57,1.39.81,2.1.25.73.47,1.48.66,2.23.19.73.34,1.48.47,2.23.15.87.31,1.74.39,2.61.09,1,.1,2.02.14,3.11Z"/><path class="cls-2" d="m30.86,31.37c0-.68,0-1.36,0-2.03,0-.18.05-.32.19-.44,1.11-.98,2.29-1.86,3.55-2.64.53-.33,1.06-.64,1.6-.95.08-.05.2-.06.29-.04.69.1,1.38.2,2.06.32.63.11,1.27.22,1.89.36.66.15,1.32.32,1.97.5.43.11.85.23,1.27.36.51.16,1.01.32,1.51.5.46.16.91.32,1.36.49.48.18.95.37,1.42.58.59.26,1.18.53,1.77.81.64.31,1.27.63,1.89.98.71.39,1.42.8,2.12,1.23,1.28.8,2.52,1.67,3.71,2.6,1.41,1.11,2.74,2.3,4,3.57,1.3,1.32,2.52,2.72,3.65,4.19.83,1.08,1.62,2.19,2.32,3.36.68,1.13,1.32,2.29,1.93,3.45.42.8.77,1.63,1.13,2.45.29.67.56,1.34.81,2.02.25.68.47,1.37.69,2.07.21.68.42,1.37.61,2.06.14.51.25,1.03.36,1.55.13.62.27,1.25.38,1.88.1.53.17,1.07.25,1.61,0,.07,0,.14.02.2.18.51-.02.94-.26,1.37-.69,1.23-1.48,2.4-2.33,3.52-.32.42-.66.81-.99,1.22-.08.1-.17.15-.31.14-1.03-.02-2.06-.02-3.09-.04-.37,0-.74-.03-1.11-.04-.11,0-.14-.04-.14-.15-.07-1.29-.13-2.58-.22-3.87-.05-.67-.17-1.34-.28-2.01-.11-.65-.22-1.31-.36-1.96-.11-.5-.25-.99-.38-1.49-.11-.41-.23-.82-.35-1.23-.16-.49-.32-.98-.5-1.47-.15-.42-.31-.85-.48-1.26-.19-.46-.38-.91-.59-1.36-.3-.63-.6-1.27-.93-1.89-.34-.65-.7-1.28-1.09-1.91-.39-.64-.81-1.26-1.24-1.88-.94-1.35-1.99-2.62-3.12-3.81-1.06-1.12-2.18-2.18-3.4-3.12-.95-.73-1.92-1.44-2.92-2.1-1.01-.67-2.07-1.28-3.17-1.8-.75-.36-1.5-.72-2.27-1.04-.72-.3-1.46-.55-2.19-.8-.52-.18-1.05-.35-1.58-.5-.5-.14-1-.25-1.51-.37-.42-.1-.84-.19-1.25-.28-.23-.05-.46-.09-.69-.12-.68-.09-1.36-.2-2.04-.26-1.24-.1-2.47-.17-3.71-.24-.15,0-.21-.06-.21-.22,0-.7,0-1.39,0-2.09-.01,0-.02,0-.03,0Z"/><path class="cls-2" d="m70.67,71.86c.17.2.33.39.5.57.32.34.65.67.98,1,.09.09.11.15,0,.26-1.04,1.06-2.15,2.04-3.34,2.91-.98.71-1.98,1.4-3.01,2.03-.89.54-1.83,1.01-2.77,1.47-.7.35-1.43.65-2.16.94-.67.26-1.37.49-2.06.7-.71.22-1.43.42-2.14.61-.41.11-.84.18-1.26.26-.51.1-1.02.19-1.53.28-.29.05-.59.1-.88.12-.61.05-1.21.13-1.82.13-1.46.02-2.92.02-4.38,0-.56-.01-1.13-.1-1.69-.18-.59-.08-1.18-.16-1.77-.26-.44-.08-.87-.18-1.31-.28-.38-.08-.76-.16-1.13-.26-.44-.12-.88-.25-1.32-.39-.37-.12-.75-.23-1.12-.36-.46-.16-.91-.34-1.37-.52-.45-.18-.89-.36-1.33-.56-.49-.22-.98-.44-1.45-.7-.75-.41-1.49-.82-2.22-1.26-1.4-.85-2.72-1.82-3.97-2.88-1.26-1.06-2.39-2.25-3.49-3.47-.95-1.05-1.78-2.18-2.57-3.35-.65-.96-1.27-1.95-1.8-2.99-.4-.79-.77-1.59-1.12-2.39-.3-.68-.56-1.36-.82-2.06-.18-.5-.33-1-.47-1.51-.21-.73-.41-1.47-.6-2.21-.11-.43-.18-.87-.25-1.31-.1-.53-.2-1.07-.27-1.6-.07-.53-.12-1.06-.17-1.59-.17-1.83-.12-3.66-.04-5.49.03-.61.1-1.22.18-1.82.07-.56.18-1.12.28-1.68.08-.45.16-.89.26-1.33.11-.5.25-.99.38-1.49.11-.41.23-.82.36-1.23.16-.5.33-.99.51-1.48.14-.4.3-.79.45-1.18.19-.45.37-.91.58-1.36.26-.55.52-1.1.82-1.62.49-.88.98-1.77,1.53-2.6.67-1,1.38-1.96,2.13-2.9.54-.69,1.16-1.31,1.75-1.96.17-.19.19-.18.38,0,.44.42.87.86,1.31,1.29.12.12.12.21,0,.34-.43.46-.87.91-1.26,1.41-.72.91-1.44,1.82-2.1,2.77-.53.76-.99,1.57-1.44,2.38-.41.74-.78,1.51-1.15,2.28-.22.46-.4.94-.58,1.41-.25.64-.49,1.29-.71,1.95-.14.42-.25.85-.36,1.28-.17.69-.36,1.37-.5,2.07-.15.76-.26,1.52-.36,2.29-.2,1.53-.24,3.06-.19,4.6.03.88.1,1.76.18,2.64.06.61.15,1.21.25,1.81.07.45.18.9.28,1.35.11.5.23,1.01.36,1.51.15.53.32,1.06.49,1.59.15.46.31.91.48,1.36.18.46.36.92.57,1.36.26.57.52,1.14.81,1.68.47.86.96,1.72,1.47,2.56.68,1.12,1.47,2.16,2.31,3.17,1,1.2,2.09,2.31,3.26,3.34.95.84,1.95,1.62,3,2.33,1.05.71,2.14,1.37,3.28,1.93.66.32,1.31.65,1.99.93.61.26,1.24.47,1.87.7.38.14.76.27,1.15.39.44.13.89.25,1.34.36.39.1.79.19,1.18.28.21.05.43.1.65.13.56.09,1.13.18,1.69.26,1.91.27,3.83.24,5.75.18.82-.03,1.63-.17,2.45-.28.51-.07,1.03-.15,1.53-.25.54-.11,1.08-.25,1.61-.38.33-.08.67-.17,1-.26.38-.11.75-.24,1.12-.37.47-.16.93-.32,1.39-.51.45-.18.9-.36,1.35-.57.62-.3,1.24-.6,1.85-.93.59-.32,1.16-.65,1.73-1,1.25-.78,2.43-1.65,3.54-2.61.59-.51,1.16-1.05,1.75-1.58.05-.04.1-.09.19-.18Z"/><path class="cls-2" d="m76.78,49.99c0,.64,0,1.27,0,1.91,0,.45-.03.37-.39.52-.39.16-.81.28-1.21.43-.13.05-.21,0-.25-.12-.19-.52-.37-1.04-.57-1.56-.18-.48-.38-.95-.58-1.42-.23-.53-.46-1.06-.71-1.58-.29-.62-.59-1.24-.9-1.84-.25-.49-.51-.98-.79-1.45-.38-.66-.76-1.32-1.18-1.95-.6-.92-1.22-1.84-1.86-2.73-1.1-1.52-2.3-2.95-3.59-4.31-1.29-1.37-2.63-2.67-4.08-3.86-.98-.8-1.97-1.58-3-2.3-1.08-.75-2.2-1.45-3.33-2.13-.88-.53-1.8-1-2.71-1.48-.64-.33-1.31-.62-1.97-.92-.57-.25-1.15-.49-1.72-.73-.4-.16-.79-.32-1.19-.47-.32-.12-.36-.21-.24-.54.13-.35.25-.7.37-1.05.07-.19.19-.29.39-.31,1.21-.12,2.42-.14,3.62-.02.56.05,1.12.08,1.67.15.56.07,1.12.18,1.67.29.42.08.84.16,1.26.26.35.08.7.18,1.05.28.42.12.84.24,1.26.38.34.11.68.22,1.01.35.5.2,1.01.39,1.5.62.65.3,1.3.6,1.92.95.74.41,1.48.84,2.18,1.33.83.57,1.63,1.17,2.41,1.81,1.26,1.02,2.39,2.19,3.43,3.44.84,1,1.61,2.06,2.3,3.17.38.61.74,1.22,1.06,1.86.4.8.76,1.63,1.12,2.45.22.51.42,1.02.59,1.55.18.52.33,1.06.47,1.59.14.49.27.99.38,1.49.1.42.19.84.25,1.26.11.78.22,1.57.28,2.35.06.78.06,1.57.09,2.36-.01,0-.02,0-.03,0Z"/><path class="cls-2" d="m31.58,72.93c-1.74.04-2.97-.59-3.94-1.77-.45-.54-.75-1.18-.9-1.87-.13-.63-.17-1.26-.07-1.91.21-1.35.9-2.39,1.96-3.17.7-.51,1.49-.81,2.36-.81.51,0,1.03,0,1.53.12.45.11.89.32,1.3.56.67.38,1.19.94,1.58,1.61.3.52.49,1.09.6,1.69.11.58.09,1.15-.03,1.71-.22,1.02-.69,1.89-1.45,2.6-.54.5-1.14.88-1.84,1.07-.42.12-.87.14-1.1.17Z"/></g></g><rect class="cls-1" width="98" height="100"/></g></svg>