<?xml version="1.0" encoding="UTF-8"?><svg id="Calque_2" xmlns="http://www.w3.org/2000/svg" xmlns:xlink="http://www.w3.org/1999/xlink" viewBox="0 0 98 100"><defs><style>.cls-1{fill:none;}.cls-2{fill:#fff;}.cls-3{fill:#ce574e;}.cls-4{filter:url(#drop-shadow-1);}</style><filter id="drop-shadow-1" filterUnits="userSpaceOnUse"><feOffset dx="2" dy="2"/><feGaussianBlur result="blur" stdDeviation="5"/><feFlood flood-color="#000" flood-opacity=".75"/><feComposite in2="blur" operator="in"/><feComposite in="SourceGraphic"/></filter></defs><g id="Calque_2-2"><rect class="cls-1" width="98" height="100"/><g id="icon"><g id="icon-2" class="cls-4"><circle id="background" class="cls-3" cx="49" cy="50" r="30.84"/><path id="border" class="cls-2" d="m49,19.16c17.03,0,30.83,13.8,30.84,30.83,0,17.03-13.8,30.85-30.83,30.85h-.01c-17.03,0-30.83-13.8-30.84-30.83,0-17.03,13.8-30.85,30.83-30.85h.01m0-1.9h-.01c-18.05,0-32.73,14.7-32.73,32.75,0,18.05,14.69,32.73,32.74,32.73,18.06,0,32.75-14.7,32.74-32.75,0-18.05-14.69-32.73-32.74-32.73h0Z"/></g><g id="head"><path class="cls-2" d="m42.01,66.51c-.06,0-.11,0-.17,0-.33-.02-.57-.26-.54-.56.05-.44.1-.88.17-1.32.1-.63.22-1.26.32-1.89.13-.83.26-1.65.38-2.48.09-.6.11-1.2,0-1.8-.22-1.2-.82-2.2-1.66-3.07-1.48-1.52-2.59-3.26-3.26-5.28-.28-.85-.48-1.71-.55-2.6-.05-.62-.03-1.24-.04-1.86,0-.82.11-1.63.3-2.43.7-2.97,2.26-5.4,4.68-7.27,2.16-1.67,4.62-2.55,7.36-2.65.85-.03,1.7-.02,2.54.11,1.59.24,3.08.77,4.46,1.59,2.37,1.41,4.17,3.32,5.26,5.88.6,1.42.89,2.91.97,4.45.01.22.04.45.12.66.47,1.16.96,2.31,1.43,3.47.28.68.59,1.36.81,2.07.32,1.01-.14,1.99-1.15,2.36-.42.15-.83.32-1.24.48-.13.05-.21.13-.23.27-.09.63-.18,1.26-.28,1.89-.17,1.09-.34,2.18-.52,3.26-.05.3-.11.6-.33.83-.21.22-.42.44-.66.62-.85.64-1.83.79-2.86.69-.27-.03-.37.02-.42.29-.06.33-.12.66-.19.99-.18.92-.36,1.84-.54,2.76-.08.4-.24.52-.65.52-2.26,0-4.51,0-6.77,0-2.25,0-4.49,0-6.74,0Zm12.25-1.61c.19,0,.29-.1.3-.29.01-.65-.02-1.3-.25-1.92-.3-.83-.87-1.4-1.72-1.65-.93-.28-1.86-.56-2.79-.82-.99-.27-1.74-.84-2.26-1.72-.22-.38-.41-.77-.6-1.17-.14-.31-.06-.6.15-.86.2-.24.54-.28.78-.07.17.15.32.33.46.51.18.23.36.47.53.72.24.34.55.56.94.68,1.14.34,2.28.67,3.42,1.01.97.28,1.93.55,2.9.83.55.16,1.11.14,1.67.07.19-.02.37-.07.56-.1.59-.09,1.02-.43,1.13-1.21.12-.83.26-1.65.39-2.48.14-.89.28-1.78.41-2.68.06-.42.28-.71.68-.87.51-.19,1.01-.38,1.52-.57.04-.02.09-.03.13-.05.21-.1.25-.19.17-.4-.09-.25-.19-.49-.3-.74-.58-1.41-1.16-2.83-1.74-4.24-.18-.44-.27-.89-.28-1.37-.04-2.32-.77-4.41-2.24-6.21-1.38-1.7-3.11-2.93-5.19-3.66-.81-.28-1.64-.45-2.5-.5-.35-.02-.7-.05-1.06-.06-1.13-.02-2.23.18-3.3.54-3.91,1.29-6.35,3.99-7.43,7.93-.18.64-.26,1.32-.3,1.99-.18,3.14.89,5.83,2.97,8.15.44.5.89.99,1.28,1.53.66.91,1.05,1.94,1.21,3.05.07.5.13,1.02.11,1.52-.03.64-.12,1.28-.22,1.91-.15.97-.33,1.93-.5,2.9-.04.24,0,.29.25.29,1.78,0,3.56,0,5.34,0h0c1.79,0,3.57,0,5.36,0Z"/><path class="cls-2" d="m42.28,42.69c.27-1.27.91-2.26,2.16-2.77.15-.06.31-.16.39-.28.42-.66,1.01-1.09,1.72-1.37.66-.26,1.36-.28,2.05-.27.16,0,.32.05.47.11.12.04.22.12.33.19.14.08.27.08.41,0,.07-.04.14-.1.21-.13.13-.05.27-.12.4-.11.48.02.96.04,1.44.1.3.04.6.1.87.21.57.23.97.65,1.25,1.2.1.2.25.3.44.37.21.07.43.13.61.24,1.23.74,1.95,1.8,1.97,3.28,0,.33.01.66-.03.98-.07.5-.23.97-.45,1.43-.06.13-.05.24.04.35.52.65.53,1.4.35,2.16-.13.57-.44,1.04-.95,1.35-.17.11-.17.14-.1.33.03.08.06.18.06.27,0,.21.01.42,0,.63-.03.54-.25,1-.66,1.35-.3.26-1.02.52-1.44.51-.25,0-.5-.01-.57.31,0,.01-.02.03-.02.04-.42.67-1.02,1.04-1.81,1.06-.54.02-1.09.09-1.56-.31-.21-.18-.34-.13-.56.04-.13.1-.29.21-.45.24-.48.08-.96.08-1.43-.02-.66-.14-1.2-.46-1.48-1.11-.07-.15-.17-.21-.32-.24-.21-.04-.42-.08-.62-.16-1.15-.43-1.6-1.46-1.3-2.55.06-.24.06-.27-.15-.41-.14-.09-.3-.16-.43-.27-.95-.81-1.24-2.31-.48-3.3.08-.11.09-.22.04-.35-.05-.11-.11-.22-.16-.33-.26-.55-.33-1.14-.32-1.75.03-.34.02-.68.09-1Zm6.94,5.51c0-.22-.03-.28-.24-.28-.41-.01-.83,0-1.24,0-.13,0-.19.07-.19.19,0,.28-.02.56,0,.84,0,.12.08.25.15.36.1.14.25.26.36.4.07.09.15.19.16.3.04.39.08.77-.24,1.09-.23.22-.49.32-.81.34-.39.02-.66-.12-.91-.4-.22-.24-.2-.52-.21-.8,0-.31.13-.52.36-.7.25-.2.37-.45.35-.79-.02-.45,0-.9,0-1.35,0-.25.03-.27.27-.27.64,0,1.29,0,1.93,0,.22,0,.25-.03.25-.24,0-.73,0-1.46,0-2.2,0-.21-.05-.25-.25-.25-.42,0-.84,0-1.26,0-.2,0-.24-.04-.24-.24,0-.37.01-.75.03-1.12.01-.37-.18-.52-.52-.38-.13.05-.23.16-.34.25-.07.06-.11.13-.17.2-.14.16-.3.25-.52.23-.2-.02-.41,0-.61-.05-.36-.08-.65-.48-.66-.85,0-.06,0-.11,0-.17-.07-.61.33-.94.7-1.08.49-.18.98-.05,1.26.37.15.23.35.29.58.29.23,0,.46-.02.69-.02.3,0,.34.04.34.33,0,.33-.02.66-.02,1,0,.31.07.39.37.44.14.02.29.01.43,0,.13,0,.19-.08.19-.21,0-1.09,0-2.17-.01-3.26,0-.27-.08-.56-.18-.82-.15-.39-.5-.54-.91-.48-.28.05-.57.03-.83.12-.55.19-1.11.39-1.5.85-.14.16-.23.37-.35.56-.04.06-.1.14-.16.15-1.25.28-1.86,1.15-2.15,2.32-.21.84-.03,1.64.25,2.43.01.04.09.09.13.09.38,0,.77-.01,1.15-.03.05,0,.11-.05.13-.09.31-.55.72-.71,1.26-.55.77.23.95.84.76,1.48-.1.34-.34.55-.69.62-.33.07-.66.05-.98-.09-.14-.06-.23-.15-.26-.31-.03-.2-.1-.25-.3-.25-.32,0-.63.01-.95.03-.22.01-.31.1-.31.32,0,.32-.07.61-.25.88-.04.05-.03.15-.01.22.15.89.74,1.36,1.56,1.6.02,0,.04,0,.06.01.25.06.3.24.18.48-.13.24-.24.5-.33.75-.13.37,0,.68.25.95.3.32.69.44,1.1.54.13.03.27.05.41.07.12.01.2.07.24.18.01.03.02.06.03.09.27.77.92,1.18,1.73,1.12.51-.04.9-.46.91-.98,0-.86,0-1.73,0-2.59.01,0,.02,0,.03,0,0-.55,0-1.1,0-1.64Zm6.81.1c.05-.15.08-.3.13-.46.05-.19.05-.38-.05-.55-.2-.32-.4-.63-.61-.94-.06-.08-.09-.15-.05-.25.12-.28.21-.56.34-.84.24-.5.33-1.04.39-1.58.05-.4-.1-.79-.26-1.16-.14-.32-.31-.62-.49-.92-.2-.32-.51-.53-.86-.68-.31-.14-.64-.25-.96-.36-.1-.03-.16-.08-.2-.18-.28-.82-.87-1.27-1.7-1.44-.2-.04-.41-.07-.62-.1-.53-.07-.86.15-.96.66-.08.39-.1.8-.13,1.2-.02.3-.01.59-.02.89,0,.2.05.27.25.27.76,0,1.52,0,2.27,0,.12,0,.24-.1.34-.17.08-.05.14-.14.2-.22.39-.58,1.49-.34,1.74.17.08.15.09.34.11.51.02.14.02.29,0,.42-.09.43-.43.73-.86.76-.17.01-.34.01-.5,0-.27-.03-.47-.18-.6-.41-.1-.18-.25-.26-.43-.27-.47-.02-.94-.02-1.41-.02-.28,0-.55.01-.83.01-.19,0-.25.05-.27.24,0,.06,0,.12,0,.18,0,1.63,0,3.26,0,4.88,0,.59.01,1.19.02,1.78,0,.1.02.18.13.19.3.01.59.02.89.02.18,0,.32-.09.45-.21.1-.11.21-.21.31-.32.1-.12.21-.17.36-.17.22,0,.44,0,.66.01.31.03.7.48.71.8,0,.09,0,.18,0,.28.04.46-.2.77-.56,1-.06.04-.14.06-.22.07-.21.01-.42.03-.63,0-.13-.02-.25-.1-.36-.18-.14-.11-.27-.25-.4-.38-.11-.11-.25-.15-.41-.15-.24,0-.48.01-.72.02-.18,0-.22.04-.22.23,0,.44,0,.87,0,1.31,0,.16.03.33.08.48.17.52.65.81,1.18.67.3-.07.59-.2.86-.35.3-.16.48-.44.56-.78.04-.15.12-.23.25-.25.26-.05.53-.07.78-.13.25-.05.51-.1.75-.19.56-.21.82-1.06.44-1.61-.08-.11-.1-.28-.1-.42-.01-.42,0-.84,0-1.26,0-.13-.09-.16-.2-.16-.19,0-.39,0-.58,0-.71,0-1.41,0-2.12,0-.22,0-.23,0-.24-.22,0-.31,0-.61.01-.92.02-.36-.06-.68-.38-.9-.48-.34-.44-1.32.03-1.68.52-.39,1.57-.28,1.79.58.15.58,0,.94-.49,1.28-.16.11-.18.28-.19.45,0,.14.01.29.01.43,0,.11.05.17.16.19.07,0,.14.01.21.01.85,0,1.7,0,2.55,0,.2,0,.22.02.22.22,0,.3,0,.59,0,.89,0,.08.01.16.02.28.21-.17.34-.34.41-.57Zm-3.98-3.15c-.13,0-.27.15-.27.28,0,.13.16.28.29.27.13,0,.28-.17.27-.29,0-.13-.16-.27-.29-.26Zm1.77-2.67c.12,0,.2-.1.2-.22,0-.12-.1-.21-.22-.21-.11,0-.21.1-.21.22,0,.12.11.22.23.21Zm-1.19,7.84c0-.12-.12-.22-.23-.21-.11,0-.19.1-.18.22,0,.13.09.23.2.22.12,0,.22-.11.22-.23Zm-5.26,0c0-.11-.11-.22-.22-.22-.11,0-.21.11-.22.22,0,.12.1.21.22.21.12,0,.22-.1.22-.21Zm-1.82-4.56c0,.11.1.21.22.21.11,0,.23-.13.22-.25,0-.12-.07-.17-.2-.17-.12,0-.23.1-.24.21Zm.41-3.5c0-.12-.08-.21-.19-.21-.13,0-.22.09-.22.22,0,.13.07.2.21.2.12,0,.21-.08.21-.21Z"/></g></g></g></svg>