<?xml version="1.0" encoding="UTF-8"?><svg id="Calque_2" xmlns="http://www.w3.org/2000/svg" xmlns:xlink="http://www.w3.org/1999/xlink" viewBox="0 0 98 100"><defs><style>.cls-1{fill:none;}.cls-2{font-family:Montserrat-ExtraBold, Montserrat;font-size:13.58px;font-weight:700;}.cls-2,.cls-3,.cls-4{fill:#fff;}.cls-2,.cls-5{isolation:isolate;}.cls-6{letter-spacing:-.02em;}.cls-7{fill:#0049a7;}.cls-8{letter-spacing:0em;}.cls-9{filter:url(#drop-shadow-1);}.cls-4{fill-rule:evenodd;}.cls-10{letter-spacing:-.04em;}</style><filter id="drop-shadow-1" filterUnits="userSpaceOnUse"><feOffset dx="2" dy="2"/><feGaussianBlur result="blur" stdDeviation="5"/><feFlood flood-color="#000" flood-opacity=".75"/><feComposite in2="blur" operator="in"/><feComposite in="SourceGraphic"/></filter></defs><g id="Calque_2-2"><rect class="cls-1" width="98" height="100"/><g id="icon" class="cls-9"><circle id="background" class="cls-7" cx="49" cy="50" r="31.52"/><path id="border" class="cls-3" d="m49,82.49c-8.68,0-16.83-3.38-22.97-9.51-6.14-6.14-9.52-14.29-9.52-22.97,0-17.92,14.57-32.5,32.48-32.5h.01c17.91,0,32.49,14.57,32.49,32.48h0c0,17.92-14.57,32.5-32.48,32.5h-.01Zm0-63.05h-.01c-16.85,0-30.55,13.72-30.54,30.56,0,8.16,3.18,15.83,8.96,21.6,5.77,5.77,13.44,8.94,21.6,8.94h.01c16.85,0,30.55-13.72,30.54-30.56h0c0-16.84-13.71-30.54-30.55-30.54Z"/><path id="Nucleo_logo_0" class="cls-4" d="m50.95,29.55v.88c.42.82-.55,2.8-2.14,4.39-1.58,1.6-3.54,2.58-4.35,2.17h-.87c-2.28,0-4.14,1.85-4.14,4.14s1.85,4.14,4.14,4.14,4.14-1.85,4.14-4.14v-.88c-.42-.82.54-2.79,2.13-4.39,1.59-1.6,3.55-2.58,4.35-2.17h1.76c.81-.42,2.81.57,4.44,2.18,1.63,1.61,2.63,3.59,2.22,4.4v1.7c.37.78-.63,2.63-2.21,4.11-1.58,1.48-3.57,2.32-4.41,1.87h-.92c-2.28,0-4.14,1.85-4.14,4.14s1.85,4.14,4.14,4.14,4.13-1.85,4.13-4.14v-.83c-.37-.78.63-2.63,2.21-4.11,1.58-1.48,3.57-2.32,4.41-1.87h.92c2.27,0,4.14-1.85,4.14-4.14s-1.86-4.14-4.14-4.14h-.88c-.82.42-2.81-.57-4.45-2.18-1.63-1.61-2.63-3.59-2.22-4.4v-.87c0-2.29-1.85-4.14-4.13-4.14s-4.13,1.85-4.13,4.14h0Zm-3.22,22.54v-.84c-.38-.79.57-2.63,2.12-4.1,1.53-1.47,3.49-2.31,4.32-1.87h.92c2.28,0,4.13-1.85,4.13-4.14s-1.85-4.14-4.13-4.14-4.14,1.85-4.14,4.14v.84c.38.79-.58,2.63-2.12,4.1-1.54,1.47-3.5,2.31-4.33,1.87h-1.84c-.84.46-2.84-.38-4.43-1.87-1.59-1.49-2.59-3.34-2.23-4.11v-1.7c-.4-.81.61-2.79,2.24-4.41,1.64-1.61,3.64-2.59,4.47-2.17h.89c2.28,0,4.14-1.85,4.14-4.14s-1.85-4.14-4.14-4.14-4.14,1.85-4.14,4.14v.87c.4.81-.61,2.79-2.24,4.41-1.63,1.61-3.64,2.59-4.46,2.18h-.89c-2.28,0-4.13,1.85-4.13,4.14s1.85,4.14,4.13,4.14h.93c.84-.46,2.84.38,4.43,1.87,1.59,1.49,2.59,3.34,2.23,4.11v.83c0,2.29,1.85,4.14,4.14,4.14s4.14-1.85,4.14-4.14h0,0Z"/><g id="Micro:bit" class="cls-5"><text class="cls-2" transform="translate(31.88 69.56)"><tspan class="cls-8" x="0" y="0">L</tspan><tspan class="cls-10" x="8.16" y="0">4</tspan><tspan class="cls-6" x="17.15" y="0">7</tspan><tspan x="25.47" y="0">6</tspan></text></g></g></g></svg>