<svg xmlns="http://www.w3.org/2000/svg" xmlns:xlink="http://www.w3.org/1999/xlink" viewBox="0 0 30.33 25.78"><defs><style>.cls-1,.cls-3{fill:none;}.cls-2{clip-path:url(#clip-path);}.cls-3{stroke:#000;stroke-linecap:round;stroke-linejoin:round;stroke-width:1.5px;}</style><clipPath id="clip-path" transform="translate(-0.01 0.11)"><rect class="cls-1" width="31" height="26"/></clipPath></defs><g id="Calque_2" data-name="Calque 2"><g id="Calque_1-2" data-name="Calque 1"><g class="cls-2"><g id="Livraison"><rect id="Rectangle_249" data-name="Rectangle 249" class="cls-3" x="0.75" y="0.75" width="18.21" height="15.18" rx="1"/><path id="Tracé_471" data-name="Tracé 471" class="cls-3" d="M25,21.89h3a1.53,1.53,0,0,0,1.52-1.52V14.61a3,3,0,0,0-.66-1.9L25,7.85a3,3,0,0,0-2.37-1.14H19" transform="translate(-0.01 0.11)"/><line id="Ligne_19" data-name="Ligne 19" class="cls-3" x1="12.89" y1="22" x2="18.96" y2="22"/><path id="Tracé_472" data-name="Tracé 472" class="cls-3" d="M3.79,15.82v4.55a1.53,1.53,0,0,0,1.52,1.52H6.83" transform="translate(-0.01 0.11)"/><path id="Tracé_473" data-name="Tracé 473" class="cls-3" d="M23.24,9.75c-.73-.15-1.23.68-1.23,1.51v3a1.52,1.52,0,0,0,1.51,1.52H25c.83,0,1.7-.7,1.52-1.52" transform="translate(-0.01 0.11)"/><path id="Tracé_474" data-name="Tracé 474" class="cls-3" d="M9.86,24.92h0a3,3,0,1,1,3-3h0A3,3,0,0,1,9.86,24.92Z" transform="translate(-0.01 0.11)"/><path id="Tracé_475" data-name="Tracé 475" class="cls-3" d="M22,24.92h0a3,3,0,1,1,3-3h0A3,3,0,0,1,22,24.92Z" transform="translate(-0.01 0.11)"/></g></g></g></g></svg>