<?xml version="1.0" encoding="UTF-8"?><svg id="Calque_2" xmlns="http://www.w3.org/2000/svg" xmlns:xlink="http://www.w3.org/1999/xlink" viewBox="0 0 98 100"><defs><style>.cls-1{fill:none;}.cls-2{fill:#0077c8;}.cls-3{fill:#fff;}.cls-4{filter:url(#drop-shadow-1);}</style><filter id="drop-shadow-1" filterUnits="userSpaceOnUse"><feOffset dx="2" dy="2"/><feGaussianBlur result="blur" stdDeviation="5"/><feFlood flood-color="#000" flood-opacity=".75"/><feComposite in2="blur" operator="in"/><feComposite in="SourceGraphic"/></filter></defs><g id="Calque_2-2"><rect class="cls-1" width="98" height="100"/><g id="icon" class="cls-4"><circle id="background" class="cls-2" cx="49" cy="50" r="31.52"/><path id="border" class="cls-3" d="m49,82.49c-8.68,0-16.83-3.38-22.97-9.51-6.14-6.14-9.52-14.29-9.52-22.97,0-17.92,14.57-32.5,32.48-32.5h.01c17.91,0,32.49,14.57,32.49,32.48h0c0,17.92-14.57,32.5-32.48,32.5h-.01Zm0-63.05h-.01c-16.85,0-30.55,13.72-30.54,30.56,0,8.16,3.18,15.83,8.96,21.6,5.77,5.77,13.44,8.94,21.6,8.94h.01c16.85,0,30.55-13.72,30.54-30.56h0c0-16.84-13.71-30.54-30.55-30.54Z"/><g id="icon-2"><path class="cls-3" d="m48.4,41.91l-5.69,2.43c-.79.41-1.48-.02-1.48-.02h0s-4.68-2-4.68-2c-.17-.07-.32-.21-.4-.39-.17-.38.01-.83.4-.99l11.02-4.71c.46-.19,1.26-.33,1.59.16.2.37.16.72-.4.97l-9.78,4.18s-.25.08,0,.17l2.56,1.09h0s0,0,0,0l.06.02c.12.05.42.13.74.03l7.07-3.02c1.66-.68,2.54-1.19,4.47-1.11,1.68.11,4.52,1.04,5.64,2.28.33.37.52.75.57,1.14.06.45-.07.87-.38,1.24-.23.28-.58.53-1.04.73l-8.64,3.69h0c-.39.17-.84-.01-1-.39-.3-.69.36-1.08.75-1.25l7.54-3.14c.44-.19,1.14-.69.78-1.09-.84-.93-3.05-1.66-4.31-1.74-1.87-.13-3.65.97-5.36,1.7Z"/><path class="cls-3" d="m47.97,66.31c.17.07.35.13.52.17.18.04.35.06.53.06s.35-.02.53-.06c.17-.04.35-.09.52-.17l20.59-8.81c.11-.05.21-.11.3-.18.09-.07.17-.16.23-.25.06-.09.11-.19.14-.3.03-.11.05-.23.05-.35,0-4.31,0-8.6,0-12.91,0-.02,0-.03,0-.04,0,0,0-.01-.02-.02,0,0-.02,0-.03,0-.04,0-.08,0-.12.02-6.73,2.99-13.59,5.81-20.37,8.71-.3.13-.61.23-.91.29-.3.06-.61.1-.91.1s-.61-.03-.91-.1c-.3-.06-.61-.16-.91-.29-7.3-3.12-14.59-6.28-21.91-9.37-.24-.11-.42-.3-.51-.53-.09-.23-.1-.49,0-.73h0c.05-.12.12-.22.21-.31.09-.09.19-.16.3-.2l21.9-9.37c.3-.13.61-.23.91-.29.3-.06.61-.1.91-.1s.61.03.91.1c.3.06.61.16.91.29l17.05,7.29c.14.06.28.15.4.26.12.11.21.23.26.37.05.14.05.28-.01.43-.03.07-.08.15-.15.22h0c-.24.25-.58.35-.93.35-.53,0-1.1-.18-1.39-.3l-16-6.84c-.17-.07-.35-.13-.52-.17-.18-.04-.35-.06-.53-.06-.35,0-.7.07-1.05.22l-19.61,8.39s-.03.02-.04.04c0,.02-.01.03-.01.05s0,.04.01.05c0,.02.02.03.04.04l19.61,8.39c.17.07.35.13.52.17.18.04.35.06.53.06s.35-.02.53-.06c.17-.04.35-.09.52-.17l21.9-9.37c.25-.11.51-.1.75-.01.23.09.43.27.54.51.03.06.05.12.06.19.01.05.02.11.02.16h0c0,4.84,0,9.68,0,14.52,0,.31-.04.61-.13.9-.09.29-.22.56-.38.82-.17.25-.37.47-.6.67-.23.19-.49.35-.78.47l-20.59,8.81c-.3.13-.61.23-.91.29-.3.06-.61.1-.91.1s-.61-.03-.91-.1c-.3-.06-.61-.16-.91-.29l-20.59-8.81c-.29-.12-.55-.28-.78-.47-.24-.19-.44-.42-.6-.67-.17-.25-.3-.53-.38-.82-.09-.29-.13-.59-.13-.9v-9.86c0-.27.11-.51.29-.69.18-.18.42-.28.69-.28s.52.11.69.28c.18.18.29.42.29.69v9.86c0,.12.02.24.05.35.03.11.08.21.14.3.06.09.14.18.23.25.09.07.19.13.3.18l20.59,8.81h0Z"/></g></g></g></svg>