<?xml version="1.0" encoding="UTF-8"?><svg id="Calque_2" xmlns="http://www.w3.org/2000/svg" xmlns:xlink="http://www.w3.org/1999/xlink" viewBox="0 0 98 100"><defs><style>.cls-1{fill:none;}.cls-2{fill:#fff;}.cls-3,.cls-4{fill:#12acb1;}.cls-5{filter:url(#drop-shadow-1);}.cls-4{font-family:Montserrat-ExtraBold, Montserrat;font-size:19.01px;font-weight:700;}</style><filter id="drop-shadow-1" filterUnits="userSpaceOnUse"><feOffset dx="2" dy="2"/><feGaussianBlur result="blur" stdDeviation="5"/><feFlood flood-color="#000" flood-opacity=".75"/><feComposite in2="blur" operator="in"/><feComposite in="SourceGraphic"/></filter></defs><g id="Calque_2-2"><rect class="cls-1" width="98" height="100"/><g id="icon" class="cls-5"><circle id="background" class="cls-3" cx="49" cy="50" r="30.88"/><path id="border" class="cls-2" d="m49,19.12c17.05,0,30.87,13.82,30.88,30.87,0,17.05-13.81,30.88-30.87,30.89h-.01c-17.05,0-30.87-13.82-30.88-30.87,0-17.05,13.81-30.88,30.87-30.89h.01m0-1.9h-.01c-18.07,0-32.77,14.72-32.77,32.79,0,18.07,14.71,32.77,32.78,32.77,18.09,0,32.78-14.72,32.78-32.79,0-18.07-14.71-32.77-32.78-32.77h0Z"/><path id="mbot" class="cls-2" d="m48.96,67.16c.83-.27,1.59-.8,1.59-1.57v-.92c0-.09,0-.18,0-.27v-1.2c0-.23-.08-.46-.23-.63h18.06c.17,0,.3-.15.28-.32-.02-.14-.15-.24-.3-.24h-6s0,0,0,0v-.35s0,0,0,0c.43,0,.78-.35.78-.78v-1.83l.99-.32c.06-.02.11-.08.11-.14v-.57h.81c.31,0,.57-1.08.57-2.41s-.26-2.41-.57-2.41h-.81v-1.23h0v-1.23h.81c.31,0,.57-1.08.57-2.41s-.26-2.41-.57-2.41h-.81v-.57c0-.07-.04-.12-.11-.14l-.99-.32v-2.09c0-.43-.35-.78-.78-.78,0,0,0,0,0,0v-.32s0,0,0,0h6c.14,0,.28-.1.3-.24.02-.17-.11-.32-.28-.32h-17.8c.04-.1.05-.21.05-.32v-1.2c0-.09,0-.18,0-.27v-.92c0-.77-.76-1.31-1.59-1.57-.42-.2-2.85-.49-5.99-.49-2.46,0-4.43.16-5.43.3-1.23.1-2.33.78-2.33,1.77v1.07s0,.08,0,.12v1.2c0,.11.02.22.06.32h-1.5s0,0,0,0l-4.45.28c-.15,0-.28.12-.28.28s.12.28.28.28l4.45-.28s0,0,0,0h2c.11.06.23.09.37.11,0-.04.09-.08.25-.11h.22s0,0,0,0v.32s0,0,0,0h-.14c-.43,0-.78.35-.78.78v18.11c0,.43.35.78.78.78h.14s0,0,0,0v.35s0,0,0,0h-2.84s0,0,0,0l-4.45-.28c-.15,0-.28.12-.28.28s.12.28.28.28l4.45.28s0,0,0,0h1.6c-.15.18-.24.4-.24.63v1.2s0,.08,0,.12v1.07c0,.99,1.1,1.67,2.33,1.77,1.01.14,2.98.3,5.43.3,3.14,0,5.57-.29,5.99-.49Zm15.22-8.89c0,.13-.02.23-.05.23s-.05-.1-.05-.23.02-.23.05-.23.05.1.05.23Zm0-12.67c0,.13-.02.23-.05.23s-.05-.1-.05-.23.02-.23.05-.23.05.1.05.23Z"/><text class="cls-4" transform="translate(43.31 58.41)"><tspan x="0" y="0">2</tspan></text></g></g></svg>