<?xml version="1.0" encoding="UTF-8"?><svg id="Calque_2" xmlns="http://www.w3.org/2000/svg" xmlns:xlink="http://www.w3.org/1999/xlink" viewBox="0 0 98 100"><defs><style>.cls-1{font-family:Montserrat-ExtraBold, Montserrat;font-size:18.92px;font-weight:700;}.cls-1,.cls-2{fill:#0e8185;}.cls-3{fill:none;}.cls-4{fill:#fff;}.cls-5{filter:url(#drop-shadow-1);}</style><filter id="drop-shadow-1" filterUnits="userSpaceOnUse"><feOffset dx="2" dy="2"/><feGaussianBlur result="blur" stdDeviation="5"/><feFlood flood-color="#000" flood-opacity=".75"/><feComposite in2="blur" operator="in"/><feComposite in="SourceGraphic"/></filter></defs><g id="Calque_2-2"><rect class="cls-3" width="98" height="100"/><g id="icon" class="cls-5"><circle id="background" class="cls-2" cx="49" cy="50" r="30.74"/><path id="border" class="cls-4" d="m49,19.26h.01c16.97,0,30.73,13.77,30.72,30.75,0,16.97-13.77,30.72-30.73,30.72h-.01c-16.97,0-30.73-13.77-30.72-30.75,0-16.97,13.77-30.72,30.73-30.72m.02-1.89h-.02c-17.98,0-32.62,14.63-32.63,32.61,0,17.99,14.62,32.63,32.61,32.64,18,0,32.63-14.63,32.64-32.61,0-8.71-3.39-16.91-9.55-23.08-6.16-6.17-14.35-9.56-23.07-9.57h0Z"/><path id="mbot" class="cls-4" d="m48.65,67.08c.83-.27,1.58-.8,1.58-1.57v-.91c0-.09,0-.18,0-.27v-1.2c0-.23-.08-.45-.23-.63h17.98c.17,0,.3-.15.27-.32-.02-.14-.15-.24-.3-.24h-5.97s0,0,0,0v-.35s0,0,0,0c.43,0,.77-.35.77-.77v-1.82l.99-.32c.06-.02.1-.08.1-.14v-.57h.8c.31,0,.57-1.08.57-2.4s-.25-2.4-.57-2.4h-.8v-1.23h0v-1.23h.8c.31,0,.57-1.08.57-2.4s-.25-2.4-.57-2.4h-.8v-.57c0-.07-.04-.12-.1-.14l-.99-.32v-2.08c0-.43-.35-.77-.77-.77,0,0,0,0,0,0v-.32s0,0,0,0h5.97c.14,0,.28-.1.3-.24.02-.17-.11-.32-.27-.32h-17.71c.04-.1.05-.21.05-.32v-1.2c0-.09,0-.18,0-.27v-.91c0-.77-.75-1.3-1.58-1.57-.42-.2-2.84-.49-5.96-.49-2.44,0-4.41.16-5.41.29-1.23.1-2.32.78-2.32,1.76v1.06s0,.08,0,.12v1.2c0,.11.02.22.06.32h-1.49s0,0,0,0l-4.43.28c-.15,0-.28.12-.28.28s.12.28.28.28l4.43-.28s0,0,0,0h1.99c.11.06.23.09.37.11,0-.04.09-.07.24-.11h.22s0,0,0,0v.32s0,0,0,0h-.14c-.43,0-.77.35-.77.77v18.02c0,.43.35.77.77.77h.14s0,0,0,0v.35s0,0,0,0h-2.82s0,0,0,0l-4.43-.28c-.15,0-.28.12-.28.28s.12.28.28.28l4.43.28s0,0,0,0h1.59c-.15.18-.24.4-.24.63v1.2s0,.08,0,.12v1.06c0,.99,1.09,1.66,2.32,1.76,1,.14,2.96.29,5.41.29,3.13,0,5.55-.29,5.96-.49Zm15.15-8.85c0,.12-.02.23-.05.23s-.05-.1-.05-.23.02-.23.05-.23.05.1.05.23Zm0-12.61c0,.12-.02.23-.05.23s-.05-.1-.05-.23.02-.23.05-.23.05.1.05.23Z"/><text class="cls-1" transform="translate(44.75 58.37)"><tspan x="0" y="0">1</tspan></text></g></g></svg>