<?xml version="1.0" encoding="UTF-8"?><svg id="Calque_2" xmlns="http://www.w3.org/2000/svg" xmlns:xlink="http://www.w3.org/1999/xlink" viewBox="0 0 98 100"><defs><style>.cls-1{fill:none;}.cls-2{fill:#fff;}.cls-3{fill:#1b784f;}.cls-4{filter:url(#drop-shadow-1);}</style><filter id="drop-shadow-1" filterUnits="userSpaceOnUse"><feOffset dx="2" dy="2"/><feGaussianBlur result="blur" stdDeviation="5"/><feFlood flood-color="#000" flood-opacity=".75"/><feComposite in2="blur" operator="in"/><feComposite in="SourceGraphic"/></filter></defs><g id="Calque_2-2"><g id="icon" class="cls-4"><path id="background" class="cls-2" d="m48.99,69.3s0,0,0,0c4.71,0,9.42,0,14.13,0,3.39,0,6.56-.79,9.54-2.41,7.07-3.83,11.1-12.25,9.58-20.06-1.84-9.47-9.59-15.85-19.23-15.85-9.33,0-18.65,0-27.98,0-6.54,0-11.82,2.6-15.78,7.79-5.77,7.56-4.79,18.75,2.18,25.22,3.6,3.34,7.83,5.2,12.75,5.28,4.94.08,9.88.02,14.82.02Z"/><path id="color" class="cls-3" d="m48.99,69.3c-4.94,0-9.88.07-14.82-.02-4.92-.08-9.15-1.94-12.75-5.28-6.96-6.46-7.95-17.65-2.18-25.22,3.96-5.19,9.24-7.79,15.78-7.79,9.33,0,18.65,0,27.98,0,9.65,0,17.39,6.38,19.23,15.85,1.52,7.81-2.51,16.23-9.58,20.06-2.98,1.62-6.15,2.42-9.54,2.41-4.71-.01-9.42,0-14.13,0,0,0,0,0,0,0Zm-.04-7.67s0,.01,0,.02c4.76,0,9.51,0,14.27,0,2.18,0,4.21-.56,6.08-1.69,4.31-2.59,6.45-7.9,5.12-12.76-1.35-4.98-5.87-8.51-10.94-8.51-9.56,0-19.11-.01-28.67,0-6.3,0-11.17,4.58-11.6,10.88-.43,6.18,4.65,11.9,10.85,12.03,4.96.11,9.93.02,14.89.02Z"/><path id="boder" class="cls-2" d="m45.07,30.98c5.98,0,11.96,0,17.93,0,9.65,0,17.39,6.38,19.23,15.85,1.52,7.81-2.51,16.23-9.58,20.06-2.97,1.61-6.12,2.41-9.49,2.41-.02,0-.04,0-.06,0-1.86,0-3.71,0-5.57,0-2.85,0-5.71,0-8.56,0,0,0,0,0,0,0-3.02,0-6.03.02-9.05.02-1.93,0-3.85,0-5.77-.04-4.92-.08-9.15-1.94-12.75-5.28-6.96-6.46-7.95-17.65-2.18-25.22,3.96-5.19,9.24-7.79,15.78-7.79,3.35,0,6.7,0,10.05,0m-5.28,30.68c3.06,0,6.11-.03,9.17-.03v.02c2.97,0,5.93,0,8.9,0,1.79,0,3.58,0,5.37,0h0c2.18,0,4.2-.56,6.08-1.69,4.31-2.59,6.45-7.9,5.12-12.76-1.35-4.98-5.87-8.51-10.94-8.51-4.48,0-8.96,0-13.43,0-5.08,0-10.16,0-15.24.01-6.3,0-11.17,4.58-11.6,10.88-.43,6.18,4.65,11.9,10.85,12.03,1.91.04,3.82.06,5.72.06m5.28-32.45h-10.05c-7.11,0-12.89,2.86-17.18,8.49-6.35,8.33-5.31,20.44,2.38,27.58,4.02,3.73,8.7,5.67,13.92,5.76,1.72.03,3.57.04,5.8.04,1.51,0,3.02,0,4.54-.01,1.15,0,2.31,0,3.46-.01h1.05s4.24,0,4.24,0h4.32c1.85,0,3.71,0,5.56,0h.06c3.64,0,7.12-.88,10.33-2.62,7.73-4.19,12.13-13.42,10.47-21.95-2.01-10.33-10.44-17.28-20.97-17.28h-8.91s-9.03,0-9.03,0h0Zm-5.28,30.68c-2.19,0-4-.02-5.69-.05-2.43-.05-4.83-1.18-6.58-3.1-1.79-1.96-2.72-4.53-2.55-7.04.37-5.34,4.51-9.23,9.84-9.24,5.08,0,10.16-.01,15.23-.01,4.48,0,8.96,0,13.43,0,4.28,0,8.08,2.97,9.24,7.21,1.11,4.07-.71,8.61-4.33,10.78-1.6.96-3.29,1.43-5.17,1.43h-5.37s-4.73,0-4.73,0h-2.41s-1.76-.02-1.76-.02c-1.53,0-3.06,0-4.59.02-1.53,0-3.05.02-4.58.02h0Z"/><g id="bubble"><path class="cls-3" d="m63.01,46.3c2.22,0,3.87,1.69,3.86,3.94-.01,2.09-1.72,3.78-3.82,3.78-2.19,0-3.92-1.71-3.91-3.85.02-2.2,1.7-3.88,3.87-3.88Z"/><path class="cls-3" d="m34.62,54.02c-2.12-.01-3.84-1.74-3.84-3.86,0-2.15,1.73-3.87,3.9-3.87,2.16,0,3.89,1.74,3.88,3.89-.01,2.15-1.76,3.84-3.94,3.83Z"/></g></g><rect class="cls-1" width="98" height="100"/></g></svg>