<svg id="premium" xmlns="http://www.w3.org/2000/svg" xmlns:xlink="http://www.w3.org/1999/xlink" width="78.949" height="78.944" viewBox="0 0 78.949 78.944">
  <defs>
    <filter id="Rectangle_3969" x="0" y="0" width="78.949" height="78.944" filterUnits="userSpaceOnUse">
      <feOffset input="SourceAlpha"/>
      <feGaussianBlur stdDeviation="0.5" result="blur"/>
      <feFlood flood-color="#8e8e8e" flood-opacity="0.749"/>
      <feComposite operator="in" in2="blur"/>
      <feComposite in="SourceGraphic"/>
    </filter>
  </defs>
  <g transform="matrix(1, 0, 0, 1, 0, 0)" filter="url(#Rectangle_3969)">
    <path id="Rectangle_3969-2" data-name="Rectangle 3969" d="M39.472,1.969h.005a37.5,37.5,0,1,1,0,75.007h-.005a37.5,37.5,0,1,1,0-75.007Z" fill="#fff" stroke="#e6e6e6" stroke-width="0.5"/>
  </g>
  <path id="icon-premium" d="M39.841,35.5H7.049c-.2,0-.378,0-.532,0s-.287-.009-.4-.022a1.268,1.268,0,0,1-.287-.06.472.472,0,0,1-.308-.308,1.264,1.264,0,0,1-.059-.286c-.012-.113-.019-.245-.022-.4s0-.33,0-.531q0-.133,0-.267t0-.267q0-.133,0-.267t0-.267v-.217q0-.391,0-.787t0-.8q0-.4,0-.8t-.012-.8H41.448q-.009.4-.012.8t0,.8q0,.4,0,.8t0,.787v.217q0,.133,0,.267t0,.267q0,.133,0,.267t0,.267c0,.2,0,.377,0,.531s-.009.286-.022.4a1.27,1.27,0,0,1-.059.286.469.469,0,0,1-.307.308,1.258,1.258,0,0,1-.285.06c-.113.013-.244.019-.4.022S40.041,35.5,39.841,35.5Zm2.092-7.906H4.947c-.261-.866-.611-2.022-1.012-3.34s-.852-2.8-1.314-4.309-.935-3.058-1.379-4.508L.035,11.5A.8.8,0,0,1,0,11.324a.761.761,0,0,1,.008-.178.749.749,0,0,1,.05-.17.762.762,0,0,1,.09-.157.794.794,0,0,1,.277-.235A.78.78,0,0,1,.6,10.521a.752.752,0,0,1,.345,0,.783.783,0,0,1,.081.023.824.824,0,0,1,.08.032L13.6,16.3a.781.781,0,0,0,.078.031.762.762,0,0,0,.162.035.777.777,0,0,0,.485-.107.766.766,0,0,0,.285-.3L22.753.417a.789.789,0,0,1,.123-.175.751.751,0,0,1,.351-.213.808.808,0,0,1,.425,0A.751.751,0,0,1,24,.241a.789.789,0,0,1,.123.175L32.269,15.95a.784.784,0,0,0,.124.174.777.777,0,0,0,.647.238.762.762,0,0,0,.162-.035.781.781,0,0,0,.078-.031l12.5-5.724a.822.822,0,0,1,.08-.032.782.782,0,0,1,.081-.023.759.759,0,0,1,.166-.018.75.75,0,0,1,.179.022.775.775,0,0,1,.168.063.793.793,0,0,1,.276.235.765.765,0,0,1,.09.156.755.755,0,0,1,.05.17.764.764,0,0,1,.009.178.793.793,0,0,1-.033.18L46.2,13.6c-.364,1.188-.85,2.774-1.372,4.481S43.747,21.62,43.236,23.3s-.974,3.2-1.3,4.3Z" transform="translate(16.035 21.722)" fill="#ffc152"/>
</svg>
