<?xml version="1.0" encoding="UTF-8"?><svg id="Calque_2" xmlns="http://www.w3.org/2000/svg" xmlns:xlink="http://www.w3.org/1999/xlink" viewBox="0 0 98 100"><defs><style>.cls-1{fill:none;}.cls-2{fill:#ffdf30;}.cls-3{fill:#fff;}.cls-4{fill:#2a81b6;}.cls-5{filter:url(#drop-shadow-1);}</style><filter id="drop-shadow-1" filterUnits="userSpaceOnUse"><feOffset dx="2" dy="2"/><feGaussianBlur result="blur" stdDeviation="5"/><feFlood flood-color="#000" flood-opacity=".75"/><feComposite in2="blur" operator="in"/><feComposite in="SourceGraphic"/></filter></defs><g id="Calque_2-2"><rect class="cls-1" width="98" height="100"/><g id="icon" class="cls-5"><g id="borders"><path class="cls-3" d="m51.1,17.9s.04.05.07.05c.67.13,1.34.1,2.02.18.73.09,1.47.16,2.19.28,1.88.32,3.71.85,5.39,1.79,1.37.76,2.52,1.76,3.28,3.16.56,1.03.71,2.13.7,3.3-.03,4.6,0,9.19,0,13.79,0,.67-.03,1.33-.13,1.99-.35,2.19-1.38,3.96-3.27,5.18-1.7,1.09-3.58,1.55-5.58,1.55-5.06.01-10.12.01-15.17.02-.75,0-1.51.04-2.25.18-2.06.37-3.8,1.28-5.07,2.98-1.32,1.79-1.87,3.83-1.89,6.02-.03,2.46,0,4.93,0,7.39,0,.26-.05.34-.32.34,0,0,0,0-.01,0-.9,0-1.8-.02-2.71-.02-.7,0-1.4,0-2.1.02-.06,0-.11,0-.16,0-1.98,0-3.65-.75-5.1-2.07-1.5-1.37-2.41-3.12-3.06-5.01-.64-1.88-.96-3.82-1.11-5.79-.03-.4,0-.81-.12-1.2,0-1.31,0-2.63,0-3.94.06-.02.06-.08.06-.13.04-.5.07-1.01.13-1.51.23-2.12.68-4.18,1.61-6.11,1.04-2.18,2.55-3.92,4.81-4.92,1.31-.58,2.68-.75,4.1-.75.03,0,.05,0,.08,0,1.81,0,3.62.01,5.43.01,3.87,0,7.74-.01,11.62-.02.92,0,1.83,0,2.75,0,.53,0,1.05,0,1.58,0,0,0,0,0,0,0,.23,0,.31-.05.3-.3-.02-.53-.03-1.06,0-1.58.02-.3-.09-.34-.36-.34,0,0,0,0,0,0-4.97.01-9.94.02-14.91.02-.11,0-.2,0-.26,0-.2,0-.17-.04-.17-.42-.01-2.27,0-4.54-.05-6.81-.03-1.38.44-2.52,1.35-3.51,1.2-1.3,2.73-2.03,4.38-2.56,1.99-.65,4.06-.94,6.14-1.11.39-.03.78,0,1.16-.13,1.55,0,3.1,0,4.65,0m-10.91,10.65s.07,0,.1,0c1.54-.06,2.77-1.28,2.74-2.93-.03-1.53-1.3-2.73-2.84-2.73-.03,0-.05,0-.08,0-1.52.04-2.76,1.35-2.72,2.88.04,1.6,1.3,2.79,2.8,2.79m11.62-12.65h-.71s-4.65,0-4.65,0h-.34s-.28.1-.28.1c-.06,0-.18.01-.27.01-.15,0-.29,0-.44.02-2.67.22-4.71.59-6.6,1.2-1.45.47-3.56,1.31-5.22,3.11-1.29,1.4-1.92,3.05-1.88,4.91.04,1.54.04,3.11.04,4.64,0,.71,0,1.43,0,2.14v.11c0,.12,0,.3.03.52-1.33,0-2.66,0-3.99,0h-.09c-1.94,0-3.5.3-4.92.93-2.52,1.13-4.47,3.11-5.79,5.89-.93,1.95-1.5,4.09-1.79,6.76-.02.15-.03.3-.04.45l-.16.07v1.35s0,3.94,0,3.94v.31s.09.29.09.29c0,.03,0,.19.01.3,0,.15,0,.3.02.46.19,2.39.59,4.44,1.22,6.28.87,2.53,2.01,4.39,3.6,5.84,1.88,1.72,4.05,2.59,6.45,2.59h.21c.69-.02,1.38-.02,2.06-.02.79,0,1.58,0,2.36.01h.33c.87,0,1.4-.35,1.7-.65.43-.44.65-1.01.65-1.7v-1.13c-.02-2.04-.03-4.16,0-6.23.02-1.93.51-3.52,1.5-4.85.88-1.18,2.12-1.91,3.81-2.2.55-.1,1.16-.14,1.9-.14h4.87c3.44,0,6.87,0,10.31-.02,2.49,0,4.73-.63,6.65-1.87,2.3-1.48,3.7-3.68,4.16-6.55.11-.69.16-1.4.16-2.31v-3.18c-.02-3.47-.02-7.07,0-10.59,0-1.07-.09-2.68-.95-4.26-.88-1.62-2.21-2.92-4.06-3.95-1.7-.95-3.67-1.61-6.02-2.01-.54-.09-1.07-.15-1.58-.21-.23-.03-.47-.05-.7-.08-.35-.05-.69-.06-.99-.08-.16,0-.31-.02-.46-.03l-.18-.15h0Zm-11.62,10.65c-.45,0-.79-.36-.8-.84,0-.28.14-.47.23-.57.09-.09.28-.25.55-.26h0c.49,0,.86.34.87.76,0,.6-.4.89-.81.9h-.03Z"/><path class="cls-3" d="m72.29,34.19c1.42,0,2.7.44,3.88,1.21,1.71,1.11,2.81,2.72,3.62,4.55.46,1.03.8,2.11,1.04,3.22.17.8.31,1.6.46,2.4,0,2.99,0,5.98,0,8.98-.06.07-.05.16-.06.24-.31,2.07-.84,4.06-1.87,5.9-1.12,2-2.67,3.52-4.84,4.36-1.2.47-2.44.57-3.71.57-.02,0-.04,0-.06,0-2.11,0-4.21,0-6.32,0-4.98,0-9.95.01-14.93.02-.04,0-.08,0-.12,0-.02,0-.05,0-.07,0-.02,0-.04,0-.05,0-.14,0-.19.08-.19.25,0,.53,0,1.05,0,1.58,0,.4,0,.41.38.41.01,0,.03,0,.04,0,4.94,0,9.88-.01,14.82-.02.02,0,.03,0,.04,0,.41,0,.41.01.41.44,0,2.27-.01,4.54.04,6.81.03,1.19-.33,2.22-1.05,3.14-.96,1.22-2.25,1.98-3.67,2.55-2.31.93-4.74,1.3-7.21,1.48-1.22.09-2.44.14-3.65.14-1.95,0-3.9-.13-5.84-.44-2.26-.36-4.45-.93-6.41-2.17-1.39-.88-2.49-2.01-3.11-3.56-.34-.86-.39-1.74-.38-2.66.02-4.59,0-9.17,0-13.76,0-.68.02-1.35.13-2.03.36-2.17,1.39-3.92,3.25-5.12,1.69-1.09,3.58-1.56,5.58-1.56,5.09-.02,10.18-.02,15.27-.02.79,0,1.57-.05,2.34-.2,2.52-.49,4.43-1.83,5.61-4.12.8-1.54,1.15-3.19,1.16-4.92.01-2.4,0-4.8,0-7.2q0-.44.46-.45c.12,0,.23,0,.35,0,.76,0,1.51,0,2.27,0s1.5,0,2.25-.01c.03,0,.07,0,.1,0m-14.23,43.22c1.53,0,2.78-1.25,2.8-2.8.01-1.58-1.23-2.85-2.8-2.85,0,0,0,0-.01,0-1.54,0-2.81,1.25-2.82,2.79,0,1.58,1.23,2.84,2.8,2.86.01,0,.02,0,.03,0m14.23-45.22h-.13c-.74.01-1.48.01-2.23.01h-1.13s-1.14,0-1.14,0h-.35c-1.56,0-2.46.89-2.46,2.45v2.19c0,1.67.01,3.34,0,5,0,1.5-.31,2.81-.93,4.01-.89,1.71-2.23,2.69-4.22,3.08-.57.11-1.22.17-1.96.17h-2.68c-4.2,0-8.4,0-12.6.02-2.5,0-4.73.64-6.66,1.88-2.28,1.47-3.68,3.66-4.14,6.48-.14.88-.16,1.72-.16,2.35v2.92c.01,3.61.02,7.22,0,10.83,0,1.07.06,2.23.52,3.41.72,1.82,2.03,3.33,3.9,4.51,2.47,1.56,5.12,2.13,7.16,2.45,1.95.31,3.97.46,6.16.46,1.22,0,2.46-.05,3.79-.14,1.98-.14,4.93-.46,7.81-1.62,1.99-.8,3.42-1.81,4.49-3.16,1.02-1.29,1.52-2.78,1.48-4.42-.04-1.59-.04-3.21-.04-4.78,0-.66,0-1.33,0-1.99,0-.24-.02-.46-.07-.66,1.34,0,2.69,0,4.03,0h.06c1.22,0,2.82-.08,4.44-.71,2.48-.97,4.45-2.73,5.86-5.25.99-1.76,1.64-3.75,2.04-6.21l.15-.17v-.74s0-4.49,0-4.49v-4.49s0-.19,0-.19l-.03-.18-.13-.73c-.1-.58-.21-1.15-.33-1.72-.27-1.28-.67-2.49-1.17-3.61-1.09-2.43-2.51-4.2-4.35-5.41-1.56-1.02-3.24-1.54-4.97-1.54h0Z"/></g><g id="colors"><path class="cls-4" d="m16.71,52.03v-3.94c.06-.02.06-.08.06-.13.04-.5.07-1.01.13-1.51.23-2.12.68-4.18,1.61-6.11,1.04-2.18,2.55-3.92,4.81-4.92,1.33-.6,2.73-.76,4.18-.75,5.68.02,11.36,0,17.04,0,1.44,0,2.88,0,4.33,0,.23,0,.32-.05.31-.3-.02-.53-.03-1.06,0-1.58.02-.3-.09-.35-.36-.34-4.97.01-9.94.02-14.91.02-.49,0-.43.08-.43-.42-.01-2.27,0-4.54-.05-6.81-.03-1.38.44-2.52,1.35-3.51,1.2-1.3,2.73-2.03,4.38-2.56,1.99-.65,4.06-.94,6.14-1.11.39-.03.78,0,1.16-.13,1.55,0,3.1,0,4.65,0,.02.02.04.05.07.05.67.13,1.34.1,2.02.18.73.09,1.47.16,2.19.28,1.88.32,3.71.85,5.39,1.79,1.37.76,2.52,1.76,3.28,3.16.56,1.03.71,2.13.7,3.3-.03,4.6,0,9.19,0,13.79,0,.67-.03,1.33-.13,1.99-.35,2.19-1.38,3.96-3.27,5.18-1.7,1.09-3.58,1.55-5.58,1.55-5.06.01-10.12.01-15.17.02-.75,0-1.51.04-2.25.18-2.06.37-3.8,1.28-5.07,2.98-1.32,1.79-1.87,3.83-1.89,6.02-.03,2.46,0,4.93,0,7.39,0,.26-.05.34-.33.34-1.6-.01-3.21-.03-4.81,0-2.05.04-3.78-.71-5.26-2.07-1.5-1.37-2.41-3.12-3.06-5.01-.64-1.88-.96-3.82-1.11-5.79-.03-.4,0-.81-.12-1.2Zm20.67-26.27c.04,1.63,1.36,2.84,2.91,2.79,1.54-.06,2.77-1.28,2.74-2.93-.03-1.56-1.35-2.77-2.93-2.73-1.52.04-2.76,1.35-2.72,2.88Z"/><path class="cls-2" d="m81.29,45.57c0,2.99,0,5.98,0,8.98-.06.07-.05.16-.06.24-.31,2.07-.84,4.06-1.87,5.9-1.12,2-2.67,3.52-4.84,4.36-1.21.47-2.47.57-3.77.57-7.08-.02-14.17,0-21.25,0-.06,0-.13,0-.19,0-.19-.02-.24.06-.24.24,0,.53,0,1.05,0,1.58q0,.41.42.41c4.94,0,9.88-.01,14.82-.02q.46,0,.46.44c0,2.27-.01,4.54.04,6.81.03,1.19-.33,2.22-1.05,3.14-.96,1.22-2.25,1.98-3.67,2.55-2.31.93-4.74,1.3-7.21,1.48-3.17.23-6.35.2-9.5-.3-2.26-.36-4.45-.93-6.41-2.17-1.39-.88-2.49-2.01-3.11-3.56-.34-.86-.39-1.74-.38-2.66.02-4.59,0-9.17,0-13.76,0-.68.02-1.35.13-2.03.36-2.17,1.39-3.92,3.25-5.12,1.69-1.09,3.58-1.56,5.58-1.56,5.09-.02,10.18-.02,15.27-.02.79,0,1.57-.05,2.34-.2,2.52-.49,4.43-1.83,5.61-4.12.8-1.54,1.15-3.19,1.16-4.92.01-2.4,0-4.8,0-7.2q0-.44.46-.45c1.63,0,3.25.01,4.88-.01,1.46-.02,2.77.42,3.98,1.21,1.71,1.11,2.81,2.72,3.62,4.55.46,1.03.8,2.11,1.04,3.22.17.8.31,1.6.46,2.4Zm-20.43,29.04c.01-1.58-1.24-2.85-2.8-2.85-1.55,0-2.82,1.25-2.83,2.79,0,1.58,1.23,2.84,2.8,2.86,1.54.02,2.82-1.24,2.83-2.79Z"/></g><g id="bubbles"><ellipse class="cls-3" cx="40.19" cy="25.71" rx="2.91" ry="2.83" transform="translate(-4.2 8.23) rotate(-11.11)"/><ellipse class="cls-3" cx="58.04" cy="74.59" rx="2.82" ry="2.83" transform="translate(-.08 .06) rotate(-.06)"/></g></g></g></svg>