<svg xmlns="http://www.w3.org/2000/svg" xmlns:xlink="http://www.w3.org/1999/xlink" viewBox="0 0 20.61 25.45"><defs><style>.cls-1,.cls-3,.cls-4{fill:none;}.cls-2{clip-path:url(#clip-path);}.cls-3,.cls-4{stroke:#000;stroke-width:1.5px;}.cls-3{stroke-linecap:round;stroke-linejoin:round;}.cls-4{stroke-miterlimit:10;}</style><clipPath id="clip-path" transform="translate(-0.68 -0.68)"><rect class="cls-1" width="21.96" height="27.81"/></clipPath></defs><g id="Calque_2" data-name="Calque 2"><g id="Calque_1-2" data-name="Calque 1"><g class="cls-2"><g id="Qualité"><path id="Tracé_468" data-name="Tracé 468" class="cls-3" d="M16.63,18.36c.23.76.46,1.49.68,2.22l.9,2.89c.06.18.1.35-.05.5a.44.44,0,0,1-.49,0l-2-.66a.28.28,0,0,0-.38.13h0c-.42.57-.85,1.12-1.28,1.68a.4.4,0,0,1-.28.21c-.25,0-.36-.06-.45-.34l-1-3.24c-.18-.6-.37-1.2-.58-1.84" transform="translate(-0.68 -0.68)"/><path id="Tracé_469" data-name="Tracé 469" class="cls-3" d="M10.26,20c-.26.82-.5,1.59-.74,2.37S9,24.14,8.67,25.05c0,.15-.1.29-.28.32a.43.43,0,0,1-.44-.2c-.44-.59-.89-1.16-1.33-1.75a.23.23,0,0,0-.29-.09l-2,.67a.44.44,0,0,1-.49,0,.44.44,0,0,1-.06-.49c.52-1.64,1-3.3,1.55-4.95a1.14,1.14,0,0,1,.06-.15" transform="translate(-0.68 -0.68)"/><path id="Tracé_470" data-name="Tracé 470" class="cls-4" d="M20.3,10.36A1.27,1.27,0,0,0,20,8.6l0,0L18.51,7.36A1.37,1.37,0,0,1,18,6.5l-.36-2A1.19,1.19,0,0,0,16.35,3.4c-.6,0-1.21,0-1.81,0a1.86,1.86,0,0,1-1.43-.57,15,15,0,0,0-1.44-1.2,1.23,1.23,0,0,0-1.46.06L8.57,3.07a1.31,1.31,0,0,1-.88.34c-.34,0-.68,0-1,0H5.59a1.17,1.17,0,0,0-1.24,1C4.23,5,4.13,5.6,4,6.2a1.76,1.76,0,0,1-.65,1.21c-.54.41-1.05.87-1.56,1.32a1.18,1.18,0,0,0-.22,1.52c.32.57.65,1.15,1,1.71a1.5,1.5,0,0,1,.22,1c-.1.62-.21,1.23-.33,1.84a1.31,1.31,0,0,0,.82,1.66l.16,0c.57.17,1.11.4,1.67.59a1.53,1.53,0,0,1,.87.73l.75,1.3L7,19.6a1.19,1.19,0,0,0,1.51.56c.68-.23,1.34-.48,2-.72a1.22,1.22,0,0,1,.82,0c.68.24,1.36.48,2,.74a1.18,1.18,0,0,0,1.54-.5c.34-.56.67-1.14,1-1.71a1.52,1.52,0,0,1,.93-.79c.18-.05.35-.13.52-.19l1.36-.49a1.21,1.21,0,0,0,.8-1.29c-.11-.69-.24-1.37-.37-2a1.39,1.39,0,0,1,.12-1C19.61,11.55,20,11,20.3,10.36Zm-5.53.11-.09.1c-.42.41-.84.83-1.27,1.23a.29.29,0,0,0-.1.3c.11.58.2,1.17.3,1.75a.58.58,0,0,1-.24.62.59.59,0,0,1-.65,0c-.52-.27-1-.53-1.55-.81a.35.35,0,0,0-.39,0c-.5.28-1,.53-1.51.8a.61.61,0,0,1-.84-.19.63.63,0,0,1-.08-.48c.11-.58.2-1.17.3-1.75a.27.27,0,0,0-.09-.28l-1.24-1.2a.61.61,0,0,1-.21-.7.63.63,0,0,1,.58-.41l1.73-.25a.25.25,0,0,0,.21-.18c.26-.51.51-1,.76-1.54a.63.63,0,0,1,.78-.4.6.6,0,0,1,.39.4c.25.51.51,1,.75,1.52a.3.3,0,0,0,.27.2l1.75.25a.88.88,0,0,1,.23.07l.11.07a.6.6,0,0,1,.1.84Z" transform="translate(-0.68 -0.68)"/></g></g></g></g></svg>