<?xml version="1.0" encoding="UTF-8"?><svg id="Calque_2" xmlns="http://www.w3.org/2000/svg" viewBox="0 0 163.1 177.87"><defs><style>.cls-1{fill:#ed873a;}.cls-2{fill:#fff;}.cls-3,.cls-4{fill:#ff9403;}.cls-5{fill:#333;}.cls-6{fill:#dee8e4;}.cls-4{stroke:#fff;stroke-miterlimit:10;}</style></defs><g id="Calque_1-2"><g><ellipse class="cls-4" cx="81.16" cy="19.86" rx="31.76" ry="19.36"/><path class="cls-6" d="M95.97,177.87h-28.81c-32.44,0-58.98-26.54-58.98-58.98L1.96,67.53C1.96,35.09,28.5,8.54,60.94,8.54h41.24c32.44,0,58.98,26.54,58.98,58.98l-6.22,51.36c0,32.44-26.54,58.98-58.98,58.98Z"/><path class="cls-1" d="M122.44,46.64c-5.16-.19-10.12,.55-14.73,2.06-5.98,1.96-12.26,2.82-18.55,2.82h-15.22c-6.29,0-12.57-.87-18.55-2.82-4.61-1.51-9.57-2.25-14.73-2.06C18.45,47.46,.5,65.69,.01,87.91c-.52,23.77,18.59,43.21,42.24,43.21,5.8,0,11.32-1.17,16.35-3.29,7-2.95,14.55-4.34,22.15-4.34h1.59c7.59,0,15.15,1.4,22.15,4.34,5.03,2.12,10.55,3.29,16.35,3.29,23.65,0,42.77-19.43,42.24-43.2-.49-22.22-18.44-40.46-40.65-41.28Z"/><circle class="cls-2" cx="42.67" cy="88.86" r="31.8"/><circle class="cls-3" cx="43.26" cy="90.6" r="15.19"/><circle cx="43.26" cy="90.6" r="8.93"/><circle class="cls-2" cx="35.6" cy="85.18" r="3.42"/><circle class="cls-2" cx="120.46" cy="88.86" r="31.8"/><circle class="cls-3" cx="121.04" cy="90.6" r="15.19"/><circle cx="121.04" cy="90.6" r="8.93"/><circle class="cls-2" cx="113.39" cy="85.18" r="3.42"/><path class="cls-5" d="M149.82,55.18c-.56,0-1.12-.22-1.54-.66-12.47-13.1-31.6-18.09-48.75-12.73-1.11,.35-2.31-.27-2.66-1.39-.35-1.12,.27-2.31,1.39-2.66,18.68-5.84,39.52-.41,53.1,13.85,.81,.85,.78,2.2-.07,3.01-.41,.39-.94,.59-1.47,.59Z"/><path class="cls-5" d="M13.65,55.18c-.54,0-1.07-.2-1.49-.61-.84-.82-.85-2.17-.03-3.01,13.88-14.19,34.93-19.3,53.63-13.02,1.11,.37,1.71,1.58,1.34,2.69s-1.58,1.71-2.69,1.34c-17.17-5.77-36.5-1.07-49.24,11.96-.42,.43-.97,.64-1.52,.64Z"/><circle class="cls-5" cx="81.55" cy="147.49" r="6.42"/></g></g></svg>