<svg xmlns="http://www.w3.org/2000/svg" viewBox="0 0 20.7 25.78"><defs><style>.cls-1{fill:none;stroke:#000;stroke-linecap:round;stroke-linejoin:round;stroke-width:1.5px;}</style></defs><g id="Calque_2" data-name="Calque 2"><g id="Calque_1-2" data-name="Calque 1"><g id="Cadenas"><path id="Tracé_56" data-name="Tracé 56" class="cls-1" d="M19.18,25c.6,0,.77-.17.77-.78V11.13c0-.61-.17-.78-.8-.78H1.54c-.62,0-.79.17-.79.78V24.25c0,.61.17.78.77.78M16,9.22c0-1,0-1.93,0-2.87a6.66,6.66,0,0,0-.13-1.18A5.6,5.6,0,0,0,9.67.8,5.51,5.51,0,0,0,4.76,5.73c-.11,1.14,0,2.29,0,3.44l0,.05"/><path id="Tracé_57" data-name="Tracé 57" class="cls-1" d="M9.22,18.68a2.61,2.61,0,0,1,0-.28A1.28,1.28,0,0,0,9,17.47a1.64,1.64,0,0,1,.32-2.23,1.72,1.72,0,0,1,2.28.12,1.68,1.68,0,0,1,.1,2.26.62.62,0,0,0-.18.47c0,.42,0,.84,0,1.27a1.13,1.13,0,1,1-2.26.06v-.06C9.22,19.13,9.22,18.9,9.22,18.68Z"/></g></g></g></svg>