<?xml version="1.0" encoding="UTF-8"?><svg id="Calque_2" xmlns="http://www.w3.org/2000/svg" xmlns:xlink="http://www.w3.org/1999/xlink" viewBox="0 0 98 100"><defs><style>.cls-1{fill:none;}.cls-2{fill:#fe0000;}.cls-3{fill:#fff;}.cls-4{filter:url(#drop-shadow-1);}</style><filter id="drop-shadow-1" filterUnits="userSpaceOnUse"><feOffset dx="0" dy="0"/><feGaussianBlur result="blur" stdDeviation="5"/><feFlood flood-color="#000" flood-opacity=".5"/><feComposite in2="blur" operator="in"/><feComposite in="SourceGraphic"/></filter></defs><g id="Calque_2-2"><rect class="cls-1" width="98" height="100"/><g id="icon" class="cls-4"><g id="border"><rect class="cls-3" x="44.23" y="37.29" width="24.34" height="26.33"/><path class="cls-3" d="m48.59,20.91c.78,0,1.02.25,1.01,1.04-.04,2.98.01,5.95-.03,8.93-.01.79.22,1.1.91,1.1.07,0,.14,0,.21,0,.32-.02.64-.03.97-.03.52,0,1.06.02,1.66.02-.48,2.47-.94,4.77-1.41,7.19h-4c-.46,2.26-.9,4.44-1.37,6.8h4.01c-.56,2.89-1.09,5.61-1.63,8.32-.29,1.5-.62,2.98-.9,4.48-.51,2.74.63,4.36,3.4,4.72,1.43.18,2.89.24,4.33.27.79.02,1.59.02,2.39.02,1.2,0,2.42-.01,3.68-.01.48-2.38.95-4.71,1.46-7.23-.51,0-.96,0-1.39,0-.26,0-.52,0-.77-.01-1.35-.05-1.81-.48-1.6-1.76.47-2.74,1.03-5.46,1.61-8.18.05-.24.48-.55.76-.57.33-.03.66-.03.99-.03.27,0,.54,0,.81,0,.32,0,.63,0,.95-.03.3-.02.78-.28.83-.51.45-2,.82-4.02,1.25-6.21h-4.15c.47-2.34.88-4.5,1.35-6.65.05-.24.44-.57.67-.58,2.25-.02,4.5-.03,6.8-.03,1.39,0,2.8,0,4.24,0,0,2.36.03,4.53,0,6.7-.04,2.73.69,5.11,2.88,6.91.24.2.39.65.4.99.03,3.32-.01,6.64.03,9.96.01.79-.33,1.02-1.02,1.21-4.35,1.19-8.41,3-11.77,6.1-2.11,1.94-3.83,4.17-4.39,7.07-.48,2.51-.03,4.92,1.04,7.33-1.24.58-2.47.86-3.7.86-1.14,0-2.28-.23-3.41-.67-3.07-1.18-5.41-3.34-7.01-6.15-1.55-2.71-2.79-5.59-4.22-8.36-.7-1.35-1.4-2.73-2.31-3.93-.88-1.16-1.94-1.72-3.04-1.72-1.03,0-2.09.5-3.03,1.49-.37.39-.71.8-1.09,1.18-.74.74-1.59,1.13-2.44,1.13-.73,0-1.47-.28-2.15-.87-.73-.63-1.33-1.47-1.84-2.3-.48-.77-.84-1.63-1.11-2.5-.84-2.73-2.51-4.83-4.72-6.59-1.87-1.49-3.24-3.34-3.59-5.79-.02-.15,0-.3,0-.6h16.56v-22.35c.34-.06.56-.12.77-.12.64,0,1.29,0,1.93,0,1.34,0,2.68,0,4.02,0,2.06,0,4.12,0,6.18-.02.01,0,.02,0,.03,0m0-2.72h-.05c-2.05.02-4.11.02-6.16.02h-2.01s-2.01,0-2.01,0h-1.93c-.41,0-.74.07-.98.12-.07.01-.14.03-.22.04l-2.28.37v21.94h-16.56v2.72c0,.08,0,.15,0,.21,0,.19-.01.46.03.77.41,2.9,1.95,5.44,4.58,7.53,1.99,1.59,3.2,3.26,3.81,5.26.35,1.15.82,2.21,1.39,3.13.79,1.27,1.54,2.2,2.38,2.93,1.16,1,2.52,1.53,3.93,1.53,1.58,0,3.13-.69,4.37-1.93.24-.24.47-.5.7-.75.14-.15.28-.31.42-.46.46-.48.86-.65,1.07-.65.24,0,.57.24.88.65.74.97,1.35,2.15,1.99,3.4l.07.14c.53,1.03,1.05,2.11,1.55,3.15.85,1.75,1.72,3.56,2.73,5.32,1.96,3.44,4.87,5.97,8.39,7.33,1.47.57,2.94.85,4.39.85,1.66,0,3.29-.38,4.86-1.12l2.41-1.13-1.08-2.43c-.93-2.09-1.2-3.9-.86-5.71.37-1.93,1.47-3.65,3.57-5.59,2.69-2.48,6.07-4.22,10.64-5.47,2.66-.73,3.03-2.73,3.01-3.86-.02-1.82-.02-3.68-.02-5.47,0-1.49,0-2.98,0-4.47,0-.93-.38-2.23-1.39-3.06-1.34-1.1-1.92-2.58-1.89-4.78.02-1.52.02-3.01.01-4.59,0-.7,0-1.42,0-2.15v-2.72h-4.86s-2.09,0-2.09,0c-2.15,0-4.46,0-6.83.03-1.5.02-2.98,1.23-3.3,2.71-.37,1.68-.7,3.35-1.05,5.12l-.31,1.58-.65,3.25h4.17c-.09.44-.18.88-.27,1.32h-.28c-.32,0-.76,0-1.21.04-1.31.11-2.86,1.15-3.19,2.71-.53,2.49-1.14,5.39-1.63,8.29-.24,1.4,0,2.57.74,3.47.7.87,1.65,1.21,2.4,1.36l-.39,1.92c-.49,0-.97,0-1.45,0-.78,0-1.55,0-2.33-.02-1.25-.03-2.69-.07-4.05-.25-.74-.1-1.02-.29-1.07-.35-.05-.07-.15-.41,0-1.18.16-.88.34-1.75.52-2.62.13-.61.25-1.22.37-1.83.38-1.91.75-3.81,1.13-5.78l.5-2.55.63-3.24h-3.99l.19-.92.09-.45h4.01l.43-2.19,1.41-7.19.64-3.24h-3.3c-.29,0-.57,0-.84,0-.06,0-.12,0-.17,0,0-1.01,0-2.01,0-2.99,0-1.42,0-2.83.01-4.25.02-1.15-.32-2.08-1-2.76-.67-.68-1.59-1.03-2.73-1.03h0Z"/><path class="cls-3" d="m56.88,31.93c.06,0,.12,0,.18,0,.58.04,1.16.05,1.75.05.87,0,1.77-.02,2.73-.02-1.64,8.26-3.25,16.35-4.86,24.49h-5.59c.5-2.58.99-5.11,1.49-7.64,1.03-5.23,2.09-10.46,3.09-15.7.15-.78.41-1.19,1.21-1.19m0-2.72c-.97,0-3.29.33-3.88,3.39-.7,3.63-1.43,7.32-2.14,10.89-.32,1.6-.63,3.19-.95,4.79-.34,1.74-.68,3.48-1.03,5.24l-.47,2.41-.63,3.24h11.12l.43-2.19,1.32-6.66,3.54-17.83.64-3.25h-3.31c-.5,0-.99,0-1.46.01-.43,0-.85.01-1.27.01-.62,0-1.12-.01-1.57-.04-.12,0-.24-.01-.35-.01h0Z"/><path class="cls-3" d="m60.53,24.12c.81,0,1.64,0,2.5,0-.36,1.86-.7,3.57-1.05,5.36h-5.6c.31-1.63.59-3.2.94-4.76.05-.24.43-.57.67-.57.84-.03,1.67-.03,2.53-.03m0-2.72c-.71,0-1.66,0-2.62.03-1.46.04-2.91,1.25-3.23,2.7-.27,1.22-.51,2.45-.73,3.65l-.23,1.19-.62,3.23h11.12l.43-2.2,1.05-5.36.63-3.24h-4.58s-1.22,0-1.22,0h0Z"/></g><g id="logo"><path class="cls-2" d="m75.61,31.97c0,2.36.03,4.53,0,6.7-.04,2.73.69,5.11,2.88,6.91.24.2.39.65.4.99.03,3.32-.01,6.64.03,9.96.01.79-.33,1.02-1.02,1.21-4.35,1.19-8.41,3-11.77,6.1-2.11,1.94-3.83,4.17-4.39,7.07-.48,2.51-.03,4.92,1.04,7.33-2.39,1.13-4.76,1.09-7.12.19-3.07-1.18-5.41-3.33-7.01-6.15-1.55-2.71-2.79-5.59-4.22-8.36-.7-1.35-1.4-2.73-2.31-3.93-1.7-2.24-4.12-2.27-6.07-.23-.37.39-.71.8-1.09,1.18-1.37,1.38-3.12,1.54-4.6.26-.73-.63-1.33-1.47-1.84-2.3-.48-.77-.84-1.63-1.11-2.5-.84-2.73-2.51-4.83-4.72-6.59-1.87-1.49-3.24-3.34-3.59-5.79-.02-.15,0-.3,0-.6h16.56v-22.35c.34-.06.56-.12.77-.12,4.05,0,8.09.01,12.14-.02.8,0,1.05.24,1.04,1.04-.04,2.98.01,5.95-.03,8.93-.01.86.27,1.16,1.11,1.09.82-.06,1.66-.01,2.63-.01-.48,2.47-.94,4.77-1.41,7.19h-4c-.46,2.26-.9,4.44-1.37,6.8h4.01c-.56,2.89-1.09,5.61-1.63,8.32-.29,1.5-.62,2.98-.9,4.48-.51,2.74.63,4.36,3.4,4.72,1.43.18,2.89.24,4.33.27,1.98.04,3.96.01,6.07.01.48-2.38.95-4.71,1.46-7.23-.81,0-1.49.02-2.16,0-1.35-.05-1.81-.48-1.6-1.76.47-2.74,1.03-5.46,1.61-8.18.05-.24.48-.55.76-.57.91-.07,1.83.01,2.74-.06.3-.02.78-.28.83-.51.45-2,.82-4.02,1.25-6.21h-4.15c.47-2.34.88-4.5,1.35-6.65.05-.24.44-.57.67-.58,3.62-.04,7.24-.03,11.03-.03Z"/><path class="cls-2" d="m56.67,56.45h-5.59c.5-2.58.99-5.11,1.49-7.64,1.03-5.23,2.09-10.46,3.09-15.7.16-.84.44-1.24,1.39-1.18,1.43.09,2.87.02,4.48.02-1.64,8.26-3.25,16.35-4.86,24.49Z"/><path class="cls-2" d="m56.39,29.48c.31-1.63.59-3.2.94-4.76.05-.24.43-.57.67-.57,1.63-.05,3.26-.03,5.03-.03-.36,1.86-.7,3.57-1.05,5.36h-5.6Z"/></g></g></g></svg>