<?xml version="1.0" encoding="UTF-8"?><svg id="Calque_2" xmlns="http://www.w3.org/2000/svg" xmlns:xlink="http://www.w3.org/1999/xlink" viewBox="0 0 98 100"><defs><style>.cls-1{fill:none;}.cls-2{fill:#fff;}.cls-3{fill:#264de3;}.cls-4{filter:url(#drop-shadow-1);}</style><filter id="drop-shadow-1" filterUnits="userSpaceOnUse"><feOffset dx="2" dy="2"/><feGaussianBlur result="blur" stdDeviation="5"/><feFlood flood-color="#000" flood-opacity=".75"/><feComposite in2="blur" operator="in"/><feComposite in="SourceGraphic"/></filter></defs><g id="Calque_2-2"><rect class="cls-1" width="98" height="100"/><g id="icon" class="cls-4"><circle id="background" class="cls-3" cx="49" cy="50" r="31.52"/><path id="border" class="cls-2" d="m49,82.49c-8.68,0-16.83-3.38-22.97-9.51-6.14-6.14-9.52-14.29-9.52-22.97,0-17.92,14.57-32.5,32.48-32.5h.01c17.91,0,32.49,14.57,32.49,32.48h0c0,17.92-14.57,32.5-32.48,32.5h-.01Zm0-63.05h-.01c-16.85,0-30.55,13.72-30.54,30.56,0,8.16,3.18,15.83,8.96,21.6,5.77,5.77,13.44,8.94,21.6,8.94h.01c16.85,0,30.55-13.72,30.54-30.56h0c0-16.84-13.71-30.54-30.55-30.54Z"/><g id="icon-2"><path id="window" class="cls-3" d="m32.28,35.16h33.46c1.29,0,2.35,1.05,2.35,2.35v25.92c0,.78-.63,1.41-1.41,1.41H31.34c-.78,0-1.41-.63-1.41-1.41v-25.92c0-1.29,1.05-2.35,2.35-2.35Z"/><path id="window-border" class="cls-2" d="m66.68,65.54H31.34c-1.16,0-2.11-.95-2.11-2.11v-25.92c0-1.68,1.37-3.04,3.04-3.04h33.46c1.68,0,3.04,1.37,3.04,3.04v25.92c0,1.16-.94,2.11-2.11,2.11Zm-34.4-29.68c-.91,0-1.65.74-1.65,1.65v25.92c0,.39.32.71.71.71h35.34c.39,0,.71-.32.71-.71v-25.92c0-.91-.74-1.65-1.65-1.65h-33.46Z"/><g id="buttons"><path class="cls-2" d="m32.28,35.16h33.46c1.29,0,2.35,1.05,2.35,2.35v1.8H29.94v-1.8c0-1.29,1.05-2.35,2.35-2.35Z"/><circle class="cls-3" cx="32.62" cy="37.36" r=".58"/><circle class="cls-3" cx="34.83" cy="37.36" r=".58"/><circle class="cls-3" cx="37.06" cy="37.36" r=".58"/><rect class="cls-3" x="58.42" y="36.33" width="8.11" height="2.04" rx="1.02" ry="1.02"/></g><path id="icon-code" class="cls-2" d="m46.15,59.26l-.49-.18c-.36-.13-.5-.68-.3-1.22l4.69-13.1c.2-.54.65-.87,1.01-.74l.49.18c.36.13.5.68.3,1.22l-4.69,13.1c-.1.4-.44.7-.85.77-.06,0-.11,0-.17-.03Zm6.13-3.94c0-.29.12-.57.33-.77l3.13-2.94-2.91-2.91c-.41-.41-.4-1.08.02-1.49.41-.4,1.06-.4,1.47,0l3.67,3.67c.41.41.41,1.08,0,1.49l-.02.02-3.92,3.68c-.19.18-.45.29-.72.29-.58,0-1.05-.47-1.05-1.05h0Zm-9.05.75l-3.67-3.67c-.41-.41-.41-1.07,0-1.49l.02-.02,3.92-3.68c.19-.18.45-.29.72-.29.58,0,1.05.47,1.05,1.05,0,.29-.12.57-.33.77l-3.13,2.94,2.91,2.91c.41.41.4,1.08-.01,1.49-.2.19-.46.3-.74.3-.27,0-.54-.11-.73-.3h0Z"/></g></g></g></svg>