<?xml version="1.0" encoding="UTF-8"?><svg id="Calque_2" xmlns="http://www.w3.org/2000/svg" xmlns:xlink="http://www.w3.org/1999/xlink" viewBox="0 0 1204.71 1032.18"><defs><style>.cls-1{clip-path:url(#clippath);}.cls-2,.cls-3{fill:none;}.cls-2,.cls-4,.cls-5,.cls-6,.cls-7,.cls-8,.cls-9{stroke-width:0px;}.cls-10{fill:#e6e6e6;stroke:#ffc152;}.cls-10,.cls-3{stroke-miterlimit:10;stroke-width:2.83px;}.cls-3{stroke:#fff;}.cls-4{fill:#24a069;}.cls-5{fill:#ccc;}.cls-6{fill:#a6a6a6;}.cls-7{fill:#fff;}.cls-8{fill:#e8e5d7;}.cls-9{fill:#e7e5d5;}</style><clipPath id="clippath"><rect class="cls-2" x="135.07" y="21.65" width="926.88" height="81.02"/></clipPath></defs><g id="Calque_1-2"><g id="shield_grovePI"><path class="cls-4" d="m1154.71,0H50C22.39,0,0,22.39,0,50v264.47c0,24.68,20.01,44.69,44.69,44.69h0c24.68,0,44.69,20.01,44.69,44.69v228.35c0,24.68-20.01,44.69-44.69,44.69h0c-24.68,0-44.69,20.01-44.69,44.69v260.6c0,27.61,22.39,50,50,50h1104.71c27.61,0,50-22.39,50-50V50c0-27.61-22.39-50-50-50ZM60,1002.18c-16.57,0-30-13.43-30-30s13.43-30,30-30,30,13.43,30,30-13.43,30-30,30Zm0-912.18c-16.57,0-30-13.43-30-30s13.43-30,30-30,30,13.43,30,30-13.43,30-30,30Zm796.41,891.55c0,11.35-9.28,20.63-20.63,20.63s-20.63-9.28-20.63-20.63v-299.3c0-11.35,9.28-20.63,20.63-20.63s20.63,9.29,20.63,20.63v299.3Zm288.3,20.63c-16.57,0-30-13.43-30-30s13.43-30,30-30,30,13.43,30,30-13.43,30-30,30Zm0-912.18c-16.57,0-30-13.43-30-30s13.43-30,30-30,30,13.43,30,30-13.43,30-30,30Z"/><polygon class="cls-5" points="140.27 352 126.02 352 126.02 402.18 229.69 402.18 229.69 287.88 229.69 173.58 126.02 173.58 126.02 223.76 140.27 223.76 140.27 287.88 140.27 352"/><path class="cls-9" d="m133.78,394.06v-33.94h14.25v-144.49h-14.25v-33.94h88.15v212.37h-88.15m-7.76,8.12h103.67v-228.61h-103.67v50.18h14.25v128.25h-14.25v50.18h0Z"/><rect class="cls-6" x="173.9" y="346.02" width="25.11" height="26.29" transform="translate(372.92 718.33) rotate(180)"/><rect class="cls-6" x="173.9" y="298.5" width="25.11" height="26.29" transform="translate(372.92 623.28) rotate(180)"/><rect class="cls-6" x="173.9" y="250.97" width="25.11" height="26.29" transform="translate(372.92 528.24) rotate(180)"/><rect class="cls-6" x="173.9" y="203.45" width="25.11" height="26.29" transform="translate(372.92 433.2) rotate(180)"/><polygon class="cls-5" points="324.7 352 310.44 352 310.44 402.18 414.11 402.18 414.11 287.88 414.11 173.58 310.44 173.58 310.44 223.76 324.7 223.76 324.7 287.88 324.7 352"/><path class="cls-9" d="m318.2,394.06v-33.94h14.25v-144.49h-14.25v-33.94h88.15v212.37h-88.15m-7.76,8.12h103.67v-228.61h-103.67v50.18h14.25v128.25h-14.25v50.18h0Z"/><rect class="cls-6" x="358.33" y="346.02" width="25.11" height="26.29" transform="translate(741.77 718.33) rotate(180)"/><rect class="cls-6" x="358.33" y="298.5" width="25.11" height="26.29" transform="translate(741.77 623.28) rotate(180)"/><rect class="cls-6" x="358.33" y="250.97" width="25.11" height="26.29" transform="translate(741.77 528.24) rotate(180)"/><rect class="cls-6" x="358.33" y="203.45" width="25.11" height="26.29" transform="translate(741.77 433.2) rotate(180)"/><polygon class="cls-5" points="509.12 352 494.87 352 494.87 402.18 598.53 402.18 598.53 287.88 598.53 173.58 494.87 173.58 494.87 223.76 509.12 223.76 509.12 287.88 509.12 352"/><path class="cls-9" d="m502.62,394.06v-33.94h14.25v-144.49h-14.25v-33.94h88.15v212.37h-88.15m-7.76,8.12h103.67v-228.61h-103.67v50.18h14.25v128.25h-14.25v50.18h0Z"/><rect class="cls-6" x="542.75" y="346.02" width="25.11" height="26.29" transform="translate(1110.62 718.33) rotate(180)"/><rect class="cls-6" x="542.75" y="298.5" width="25.11" height="26.29" transform="translate(1110.62 623.28) rotate(180)"/><rect class="cls-6" x="542.75" y="250.97" width="25.11" height="26.29" transform="translate(1110.62 528.24) rotate(180)"/><rect class="cls-6" x="542.75" y="203.45" width="25.11" height="26.29" transform="translate(1110.62 433.2) rotate(180)"/><polygon class="cls-5" points="693.54 352 679.29 352 679.29 402.18 782.96 402.18 782.96 287.88 782.96 173.58 679.29 173.58 679.29 223.76 693.54 223.76 693.54 287.88 693.54 352"/><path class="cls-9" d="m687.05,394.06v-33.94h14.25v-144.49h-14.25v-33.94h88.15v212.37h-88.15m-7.76,8.12h103.67v-228.61h-103.67v50.18h14.25v128.25h-14.25v50.18h0Z"/><rect class="cls-6" x="727.18" y="346.02" width="25.11" height="26.29" transform="translate(1479.46 718.33) rotate(180)"/><rect class="cls-6" x="727.18" y="298.5" width="25.11" height="26.29" transform="translate(1479.46 623.28) rotate(180)"/><rect class="cls-6" x="727.18" y="250.97" width="25.11" height="26.29" transform="translate(1479.46 528.24) rotate(180)"/><rect class="cls-6" x="727.18" y="203.45" width="25.11" height="26.29" transform="translate(1479.46 433.2) rotate(180)"/><polygon class="cls-5" points="925.85 352 911.6 352 911.6 402.18 1015.27 402.18 1015.27 287.88 1015.27 173.58 911.6 173.58 911.6 223.76 925.85 223.76 925.85 287.88 925.85 352"/><path class="cls-9" d="m919.36,394.06v-33.94h14.25v-144.49h-14.25v-33.94h88.15v212.37h-88.15m-7.76,8.12h103.67v-228.61h-103.67v50.18h14.25v128.25h-14.25v50.18h0Z"/><rect class="cls-6" x="959.48" y="346.02" width="25.11" height="26.29" transform="translate(1944.08 718.33) rotate(180)"/><rect class="cls-6" x="959.48" y="298.5" width="25.11" height="26.29" transform="translate(1944.08 623.28) rotate(180)"/><rect class="cls-6" x="959.48" y="250.97" width="25.11" height="26.29" transform="translate(1944.08 528.24) rotate(180)"/><rect class="cls-6" x="959.48" y="203.45" width="25.11" height="26.29" transform="translate(1944.08 433.2) rotate(180)"/><polygon class="cls-5" points="1110.28 352 1096.02 352 1096.02 402.18 1199.69 402.18 1199.69 287.88 1199.69 173.58 1096.02 173.58 1096.02 223.76 1110.28 223.76 1110.28 287.88 1110.28 352"/><path class="cls-9" d="m1103.78,394.06v-33.94h14.25v-144.49h-14.25v-33.94h88.15v212.37h-88.15m-7.76,8.12h103.67v-228.61h-103.67v50.18h14.25v128.25h-14.25v50.18h0Z"/><rect class="cls-6" x="1143.91" y="346.02" width="25.11" height="26.29" transform="translate(2312.93 718.33) rotate(180)"/><rect class="cls-6" x="1143.91" y="298.5" width="25.11" height="26.29" transform="translate(2312.93 623.28) rotate(180)"/><rect class="cls-6" x="1143.91" y="250.97" width="25.11" height="26.29" transform="translate(2312.93 528.24) rotate(180)"/><rect class="cls-6" x="1143.91" y="203.45" width="25.11" height="26.29" transform="translate(2312.93 433.2) rotate(180)"/><polygon class="cls-5" points="140.27 656.25 126.02 656.25 126.02 706.43 229.69 706.43 229.69 592.12 229.69 477.82 126.02 477.82 126.02 528 140.27 528 140.27 592.12 140.27 656.25"/><path class="cls-9" d="m133.78,698.31v-33.94h14.25v-144.49h-14.25v-33.94h88.15v212.37h-88.15m-7.76,8.12h103.67v-228.61h-103.67v50.18h14.25v128.25h-14.25v50.18h0Z"/><rect class="cls-6" x="173.9" y="650.26" width="25.11" height="26.29" transform="translate(372.92 1326.81) rotate(180)"/><rect class="cls-6" x="173.9" y="602.74" width="25.11" height="26.29" transform="translate(372.92 1231.77) rotate(180)"/><rect class="cls-6" x="173.9" y="555.22" width="25.11" height="26.29" transform="translate(372.92 1136.72) rotate(180)"/><rect class="cls-6" x="173.9" y="507.69" width="25.11" height="26.29" transform="translate(372.92 1041.68) rotate(180)"/><polygon class="cls-5" points="324.7 656.25 310.44 656.25 310.44 706.43 414.11 706.43 414.11 592.12 414.11 477.82 310.44 477.82 310.44 528 324.7 528 324.7 592.12 324.7 656.25"/><path class="cls-9" d="m318.2,698.31v-33.94h14.25v-144.49h-14.25v-33.94h88.15v212.37h-88.15m-7.76,8.12h103.67v-228.61h-103.67v50.18h14.25v128.25h-14.25v50.18h0Z"/><rect class="cls-6" x="358.33" y="650.26" width="25.11" height="26.29" transform="translate(741.77 1326.81) rotate(180)"/><rect class="cls-6" x="358.33" y="602.74" width="25.11" height="26.29" transform="translate(741.77 1231.77) rotate(180)"/><rect class="cls-6" x="358.33" y="555.22" width="25.11" height="26.29" transform="translate(741.77 1136.72) rotate(180)"/><rect class="cls-6" x="358.33" y="507.69" width="25.11" height="26.29" transform="translate(741.77 1041.68) rotate(180)"/><polygon class="cls-5" points="509.12 656.25 494.87 656.25 494.87 706.43 598.53 706.43 598.53 592.12 598.53 477.82 494.87 477.82 494.87 528 509.12 528 509.12 592.12 509.12 656.25"/><path class="cls-9" d="m502.62,698.31v-33.94h14.25v-144.49h-14.25v-33.94h88.15v212.37h-88.15m-7.76,8.12h103.67v-228.61h-103.67v50.18h14.25v128.25h-14.25v50.18h0Z"/><rect class="cls-6" x="542.75" y="650.26" width="25.11" height="26.29" transform="translate(1110.62 1326.81) rotate(180)"/><rect class="cls-6" x="542.75" y="602.74" width="25.11" height="26.29" transform="translate(1110.62 1231.77) rotate(180)"/><rect class="cls-6" x="542.75" y="555.22" width="25.11" height="26.29" transform="translate(1110.62 1136.72) rotate(180)"/><rect class="cls-6" x="542.75" y="507.69" width="25.11" height="26.29" transform="translate(1110.62 1041.68) rotate(180)"/><polygon class="cls-5" points="693.54 656.25 679.29 656.25 679.29 706.43 782.96 706.43 782.96 592.12 782.96 477.82 679.29 477.82 679.29 528 693.54 528 693.54 592.12 693.54 656.25"/><path class="cls-9" d="m687.05,698.31v-33.94h14.25v-144.49h-14.25v-33.94h88.15v212.37h-88.15m-7.76,8.12h103.67v-228.61h-103.67v50.18h14.25v128.25h-14.25v50.18h0Z"/><rect class="cls-6" x="727.18" y="650.26" width="25.11" height="26.29" transform="translate(1479.46 1326.81) rotate(180)"/><rect class="cls-6" x="727.18" y="602.74" width="25.11" height="26.29" transform="translate(1479.46 1231.77) rotate(180)"/><rect class="cls-6" x="727.18" y="555.22" width="25.11" height="26.29" transform="translate(1479.46 1136.72) rotate(180)"/><rect class="cls-6" x="727.18" y="507.69" width="25.11" height="26.29" transform="translate(1479.46 1041.68) rotate(180)"/><polygon class="cls-5" points="324.7 960.49 310.44 960.49 310.44 1010.67 414.11 1010.67 414.11 896.36 414.11 782.06 310.44 782.06 310.44 832.24 324.7 832.24 324.7 896.36 324.7 960.49"/><path class="cls-9" d="m318.2,1002.55v-33.94h14.25v-144.49h-14.25v-33.94h88.15v212.37h-88.15m-7.76,8.12h103.67v-228.61h-103.67v50.18h14.25v128.25h-14.25v50.18h0Z"/><rect class="cls-6" x="358.33" y="954.5" width="25.11" height="26.29" transform="translate(741.77 1935.29) rotate(180)"/><rect class="cls-6" x="358.33" y="906.98" width="25.11" height="26.29" transform="translate(741.77 1840.25) rotate(180)"/><rect class="cls-6" x="358.33" y="859.46" width="25.11" height="26.29" transform="translate(741.77 1745.21) rotate(180)"/><rect class="cls-6" x="358.33" y="811.94" width="25.11" height="26.29" transform="translate(741.77 1650.16) rotate(180)"/><polygon class="cls-5" points="509.12 960.49 494.87 960.49 494.87 1010.67 598.53 1010.67 598.53 896.36 598.53 782.06 494.87 782.06 494.87 832.24 509.12 832.24 509.12 896.36 509.12 960.49"/><path class="cls-9" d="m502.62,1002.55v-33.94h14.25v-144.49h-14.25v-33.94h88.15v212.37h-88.15m-7.76,8.12h103.67v-228.61h-103.67v50.18h14.25v128.25h-14.25v50.18h0Z"/><rect class="cls-6" x="542.75" y="954.5" width="25.11" height="26.29" transform="translate(1110.62 1935.29) rotate(180)"/><rect class="cls-6" x="542.75" y="906.98" width="25.11" height="26.29" transform="translate(1110.62 1840.25) rotate(180)"/><rect class="cls-6" x="542.75" y="859.46" width="25.11" height="26.29" transform="translate(1110.62 1745.21) rotate(180)"/><rect class="cls-6" x="542.75" y="811.94" width="25.11" height="26.29" transform="translate(1110.62 1650.16) rotate(180)"/><polygon class="cls-5" points="693.54 960.49 679.29 960.49 679.29 1010.67 782.96 1010.67 782.96 896.36 782.96 782.06 679.29 782.06 679.29 832.24 693.54 832.24 693.54 896.36 693.54 960.49"/><path class="cls-9" d="m687.05,1002.55v-33.94h14.25v-144.49h-14.25v-33.94h88.15v212.37h-88.15m-7.76,8.12h103.67v-228.61h-103.67v50.18h14.25v128.25h-14.25v50.18h0Z"/><rect class="cls-6" x="727.18" y="954.5" width="25.11" height="26.29" transform="translate(1479.46 1935.29) rotate(180)"/><rect class="cls-6" x="727.18" y="906.98" width="25.11" height="26.29" transform="translate(1479.46 1840.25) rotate(180)"/><rect class="cls-6" x="727.18" y="859.46" width="25.11" height="26.29" transform="translate(1479.46 1745.21) rotate(180)"/><rect class="cls-6" x="727.18" y="811.94" width="25.11" height="26.29" transform="translate(1479.46 1650.16) rotate(180)"/><polygon class="cls-5" points="925.85 656.25 911.6 656.25 911.6 706.43 1015.27 706.43 1015.27 592.12 1015.27 477.82 911.6 477.82 911.6 528 925.85 528 925.85 592.12 925.85 656.25"/><path class="cls-9" d="m919.36,698.31v-33.94h14.25v-144.49h-14.25v-33.94h88.15v212.37h-88.15m-7.76,8.12h103.67v-228.61h-103.67v50.18h14.25v128.25h-14.25v50.18h0Z"/><rect class="cls-6" x="959.48" y="650.26" width="25.11" height="26.29" transform="translate(1944.08 1326.81) rotate(180)"/><rect class="cls-6" x="959.48" y="602.74" width="25.11" height="26.29" transform="translate(1944.08 1231.77) rotate(180)"/><rect class="cls-6" x="959.48" y="555.22" width="25.11" height="26.29" transform="translate(1944.08 1136.72) rotate(180)"/><rect class="cls-6" x="959.48" y="507.69" width="25.11" height="26.29" transform="translate(1944.08 1041.68) rotate(180)"/><polygon class="cls-5" points="1110.28 656.25 1096.02 656.25 1096.02 706.43 1199.69 706.43 1199.69 592.12 1199.69 477.82 1096.02 477.82 1096.02 528 1110.28 528 1110.28 592.12 1110.28 656.25"/><path class="cls-9" d="m1103.78,698.31v-33.94h14.25v-144.49h-14.25v-33.94h88.15v212.37h-88.15m-7.76,8.12h103.67v-228.61h-103.67v50.18h14.25v128.25h-14.25v50.18h0Z"/><rect class="cls-6" x="1143.91" y="650.26" width="25.11" height="26.29" transform="translate(2312.93 1326.81) rotate(180)"/><rect class="cls-6" x="1143.91" y="602.74" width="25.11" height="26.29" transform="translate(2312.93 1231.77) rotate(180)"/><rect class="cls-6" x="1143.91" y="555.22" width="25.11" height="26.29" transform="translate(2312.93 1136.72) rotate(180)"/><rect class="cls-6" x="1143.91" y="507.69" width="25.11" height="26.29" transform="translate(2312.93 1041.68) rotate(180)"/><circle class="cls-10" cx="894.48" cy="845.67" r="15"/><circle class="cls-10" cx="941.98" cy="845.67" r="15"/><circle class="cls-10" cx="989.48" cy="845.67" r="15"/><circle class="cls-10" cx="1036.98" cy="845.67" r="15"/><circle class="cls-10" cx="1084.48" cy="845.67" r="15"/><circle class="cls-10" cx="894.48" cy="893.67" r="15"/><circle class="cls-10" cx="941.98" cy="893.67" r="15"/><circle class="cls-10" cx="989.48" cy="893.67" r="15"/><circle class="cls-10" cx="1036.98" cy="893.67" r="15"/><circle class="cls-10" cx="1084.48" cy="893.67" r="15"/><g class="cls-1"><circle class="cls-8" cx="151.07" cy="37.65" r="16"/><circle class="cls-8" cx="198.07" cy="37.65" r="16"/><circle class="cls-8" cx="245.07" cy="37.65" r="16"/><circle class="cls-8" cx="292.07" cy="37.65" r="16"/><circle class="cls-8" cx="339.07" cy="37.65" r="16"/><circle class="cls-8" cx="386.07" cy="37.65" r="16"/><circle class="cls-8" cx="433.07" cy="37.65" r="16"/><circle class="cls-8" cx="480.07" cy="37.65" r="16"/><circle class="cls-8" cx="527.07" cy="37.65" r="16"/><circle class="cls-8" cx="574.07" cy="37.65" r="16"/><circle class="cls-8" cx="621.07" cy="37.65" r="16"/><circle class="cls-8" cx="668.07" cy="37.65" r="16"/><circle class="cls-8" cx="715.07" cy="37.65" r="16"/><circle class="cls-8" cx="762.07" cy="37.65" r="16"/><circle class="cls-8" cx="809.07" cy="37.65" r="16"/><circle class="cls-8" cx="856.07" cy="37.65" r="16"/><circle class="cls-8" cx="903.07" cy="37.65" r="16"/><circle class="cls-8" cx="950.07" cy="37.65" r="16"/><circle class="cls-8" cx="997.07" cy="37.65" r="16"/><circle class="cls-8" cx="1044.07" cy="37.65" r="16"/><circle class="cls-8" cx="151.07" cy="84.65" r="16"/><circle class="cls-8" cx="198.07" cy="84.65" r="16"/><circle class="cls-8" cx="245.07" cy="84.65" r="16"/><circle class="cls-8" cx="292.07" cy="84.65" r="16"/><circle class="cls-8" cx="339.07" cy="84.65" r="16"/><circle class="cls-8" cx="386.07" cy="84.65" r="16"/><circle class="cls-8" cx="433.07" cy="84.65" r="16"/><circle class="cls-8" cx="480.07" cy="84.65" r="16"/><circle class="cls-8" cx="527.07" cy="84.65" r="16"/><circle class="cls-8" cx="574.07" cy="84.65" r="16"/><circle class="cls-8" cx="621.07" cy="84.65" r="16"/><circle class="cls-8" cx="668.07" cy="84.65" r="16"/><circle class="cls-8" cx="715.07" cy="84.65" r="16"/><circle class="cls-8" cx="762.07" cy="84.65" r="16"/><circle class="cls-8" cx="809.07" cy="84.65" r="16"/><circle class="cls-8" cx="856.07" cy="84.65" r="16"/><circle class="cls-8" cx="903.07" cy="84.65" r="16"/><circle class="cls-8" cx="950.07" cy="84.65" r="16"/><circle class="cls-8" cx="997.07" cy="84.65" r="16"/><circle class="cls-8" cx="1044.07" cy="84.65" r="16"/></g><g id="texts"><rect class="cls-3" x="871.05" y="774.22" width="237.88" height="188.43"/><rect class="cls-3" x="871.05" y="821.48" width="237.88" height="93.92"/><line class="cls-3" x1="871.05" y1="868.44" x2="1108.93" y2="868.44"/><path class="cls-7" d="m169.55,134.41c1.37,1.17,2.06,2.96,2.06,5.38s-.71,4.19-2.11,5.31-3.56,1.68-6.45,1.68h-2.6v5.46h-4.37v-19.57h6.92c3,0,5.19.58,6.57,1.75Zm-3.21,7.7c.52-.59.78-1.45.78-2.58s-.34-1.93-1.02-2.41c-.68-.48-1.74-.71-3.18-.71h-2.49v6.58h2.94c1.46,0,2.45-.29,2.97-.88Z"/><path class="cls-7" d="m181.13,143.91l3.47-11.26h4.56l3.44,11.26,3.89-11.26h4.73l-6.83,19.57h-3.25l-4.28-13.61-4.26,13.61h-3.25l-6.83-19.57h4.73l3.86,11.26Z"/><path class="cls-7" d="m221.09,139.91l-5.29,10.7h-2.6l-5.26-10.7v12.32h-4.37v-19.57h5.91l5.04,10.75,5.07-10.75h5.88v19.57h-4.37v-12.32Z"/><path class="cls-7" d="m75.6,226.34h6.79v16.78h-3.6v-13.58h-3.19v-3.19Z"/><path class="cls-7" d="m92.96,232.88c.42-.6.64-1.18.64-1.74s-.18-1.03-.55-1.4-.84-.56-1.42-.56c-1.06,0-2.06.75-3,2.26l-3-1.78c.78-1.22,1.64-2.14,2.58-2.76.94-.62,2.13-.94,3.58-.94s2.72.46,3.82,1.38c1.1.92,1.64,2.17,1.64,3.76,0,.86-.22,1.69-.66,2.48-.44.79-1.25,1.8-2.44,3.04l-3.02,3.14h6.62v3.36h-11.83v-2.78l4.92-5.04c.99-1.01,1.7-1.81,2.12-2.41Z"/><path class="cls-7" d="m75.77,262.4h6.79v16.78h-3.6v-13.58h-3.19v-3.19Z"/><path class="cls-7" d="m86.5,265.59v-3.19h10.27v2.59l-3.43,3.91c1.34.22,2.38.79,3.12,1.69.74.9,1.1,1.95,1.1,3.13,0,1.76-.6,3.14-1.79,4.14-1.19,1-2.72,1.5-4.57,1.5s-3.74-.66-5.64-1.97l1.54-2.98c1.58,1.12,3,1.68,4.25,1.68.75,0,1.37-.18,1.86-.55s.73-.9.73-1.6-.28-1.25-.84-1.66c-.56-.41-1.34-.61-2.33-.61-.53,0-1.27.15-2.23.46v-2.76l3.22-3.79h-5.26Z"/><path class="cls-7" d="m66.31,303.81v-3.19h10.27v2.59l-3.43,3.91c1.34.22,2.38.79,3.12,1.69.74.9,1.1,1.95,1.1,3.13,0,1.76-.6,3.14-1.79,4.14-1.19,1-2.72,1.5-4.57,1.5s-3.74-.66-5.64-1.97l1.54-2.98c1.58,1.12,3,1.68,4.25,1.68.75,0,1.37-.18,1.86-.55s.73-.9.73-1.6-.28-1.25-.84-1.66c-.56-.41-1.34-.61-2.33-.61-.53,0-1.27.15-2.23.46v-2.76l3.22-3.79h-5.26Z"/><path class="cls-7" d="m86.95,311.3l4.27-10.68h4.06l-6.74,16.78h-3.17l-6.74-16.78h4.06l4.27,10.68Z"/><path class="cls-7" d="m97.01,303.81v-3.19h10.27v2.59l-3.43,3.91c1.34.22,2.38.79,3.12,1.69.74.9,1.1,1.95,1.1,3.13,0,1.76-.6,3.14-1.79,4.14-1.19,1-2.72,1.5-4.57,1.5s-3.74-.66-5.64-1.97l1.54-2.98c1.58,1.12,3,1.68,4.25,1.68.75,0,1.37-.18,1.86-.55s.73-.9.73-1.6-.28-1.25-.84-1.66c-.56-.41-1.34-.61-2.33-.61-.53,0-1.27.15-2.23.46v-2.76l3.22-3.79h-5.26Z"/><path class="cls-7" d="m71.88,343.94h3.77v5.95c-1.66,1.86-3.97,2.78-6.91,2.78-2.46,0-4.53-.82-6.2-2.45-1.67-1.63-2.51-3.69-2.51-6.18s.85-4.56,2.56-6.23,3.76-2.5,6.17-2.5,4.5.79,6.28,2.38l-1.94,2.81c-.75-.66-1.44-1.11-2.08-1.36s-1.32-.37-2.05-.37c-1.42,0-2.62.48-3.6,1.45-.98.97-1.46,2.24-1.46,3.83s.47,2.85,1.4,3.8c.94.95,2.05,1.43,3.35,1.43s2.38-.25,3.24-.74v-4.61Z"/><path class="cls-7" d="m90.72,335.71h3.74v16.78h-3.74l-7.99-10.51v10.51h-3.74v-16.78h3.5l8.23,10.8v-10.8Z"/><path class="cls-7" d="m111.41,337.9c1.6,1.46,2.4,3.5,2.4,6.11s-.78,4.67-2.34,6.19c-1.56,1.52-3.94,2.28-7.14,2.28h-5.74v-16.78h5.93c2.99,0,5.29.73,6.89,2.2Zm-2.75,9.97c.92-.86,1.38-2.12,1.38-3.77s-.46-2.92-1.38-3.8c-.92-.89-2.33-1.33-4.24-1.33h-2.09v10.2h2.38c1.71,0,3.03-.43,3.95-1.3Z"/><path class="cls-7" d="m271.95,226.34v3.24h-6.62v2.81c.5-.14,1.06-.22,1.7-.22,1.62,0,3.01.49,4.18,1.46,1.17.98,1.75,2.29,1.75,3.95s-.6,3.02-1.81,4.1-2.7,1.62-4.48,1.62c-2.27,0-4.17-.84-5.69-2.52l1.97-2.74c.14.14.34.32.58.53.24.21.68.48,1.32.83.64.34,1.28.52,1.92.52s1.21-.19,1.7-.58c.5-.38.74-.95.74-1.7s-.27-1.33-.8-1.74-1.23-.61-2.08-.61-1.83.3-2.95.91l-1.56-1.68v-8.18h10.13Z"/><path class="cls-7" d="m267.9,265.23c-1.04,0-1.84.35-2.41,1.04-.57.7-.92,1.64-1.04,2.84,1.04-.67,2.14-1.01,3.31-1.01,1.57,0,2.88.51,3.92,1.54,1.05,1.02,1.57,2.39,1.57,4.09s-.56,3.07-1.69,4.09c-1.13,1.02-2.55,1.54-4.26,1.54-1.18,0-2.21-.23-3.08-.68s-1.55-1.09-2.03-1.91c-.96-1.58-1.44-3.57-1.44-5.95,0-1.54.19-2.88.56-4.04.38-1.16.89-2.08,1.55-2.75,1.28-1.34,2.86-2.02,4.75-2.02.78,0,1.53.12,2.24.35.71.23,1.26.47,1.64.71.38.24.81.54,1.27.91l-1.78,2.64c-.1-.1-.24-.22-.42-.38s-.55-.37-1.09-.62-1.07-.38-1.58-.38Zm-.49,6.05c-.74,0-1.37.22-1.87.66-.5.44-.76,1.01-.76,1.72s.24,1.31.72,1.81c.48.5,1.08.76,1.8.76s1.32-.22,1.8-.67c.48-.45.72-1.03.72-1.74s-.22-1.31-.65-1.8c-.43-.49-1.02-.73-1.76-.73Z"/><path class="cls-7" d="m246.32,303.81v-3.19h10.27v2.59l-3.43,3.91c1.34.22,2.38.79,3.12,1.69.74.9,1.1,1.95,1.1,3.13,0,1.76-.6,3.14-1.79,4.14-1.19,1-2.72,1.5-4.57,1.5s-3.74-.66-5.64-1.97l1.54-2.98c1.58,1.12,3,1.68,4.25,1.68.75,0,1.37-.18,1.86-.55s.73-.9.73-1.6-.28-1.25-.84-1.66c-.56-.41-1.34-.61-2.33-.61-.53,0-1.27.15-2.23.46v-2.76l3.22-3.79h-5.26Z"/><path class="cls-7" d="m266.96,311.3l4.27-10.68h4.06l-6.74,16.78h-3.17l-6.74-16.78h4.06l4.27,10.68Z"/><path class="cls-7" d="m277.01,303.81v-3.19h10.27v2.59l-3.43,3.91c1.34.22,2.38.79,3.12,1.69.74.9,1.1,1.95,1.1,3.13,0,1.76-.6,3.14-1.79,4.14-1.19,1-2.72,1.5-4.57,1.5s-3.74-.66-5.64-1.97l1.54-2.98c1.58,1.12,3,1.68,4.25,1.68.75,0,1.37-.18,1.86-.55s.73-.9.73-1.6-.28-1.25-.84-1.66c-.56-.41-1.34-.61-2.33-.61-.53,0-1.27.15-2.23.46v-2.76l3.22-3.79h-5.26Z"/><path class="cls-7" d="m251.89,343.94h3.77v5.95c-1.66,1.86-3.97,2.78-6.91,2.78-2.46,0-4.53-.82-6.2-2.45-1.67-1.63-2.51-3.69-2.51-6.18s.85-4.56,2.56-6.23,3.76-2.5,6.17-2.5,4.5.79,6.28,2.38l-1.94,2.81c-.75-.66-1.44-1.11-2.08-1.36s-1.32-.37-2.05-.37c-1.42,0-2.62.48-3.6,1.45-.98.97-1.46,2.24-1.46,3.83s.47,2.85,1.4,3.8c.94.95,2.05,1.43,3.35,1.43s2.38-.25,3.24-.74v-4.61Z"/><path class="cls-7" d="m270.73,335.71h3.74v16.78h-3.74l-7.99-10.51v10.51h-3.74v-16.78h3.5l8.23,10.8v-10.8Z"/><path class="cls-7" d="m291.41,337.9c1.6,1.46,2.4,3.5,2.4,6.11s-.78,4.67-2.34,6.19c-1.56,1.52-3.94,2.28-7.14,2.28h-5.74v-16.78h5.93c2.99,0,5.29.73,6.89,2.2Zm-2.75,9.97c.92-.86,1.38-2.12,1.38-3.77s-.46-2.92-1.38-3.8c-.92-.89-2.33-1.33-4.24-1.33h-2.09v10.2h2.38c1.71,0,3.03-.43,3.95-1.3Z"/><path class="cls-7" d="m435.41,226.34h6.79v16.78h-3.6v-13.58h-3.19v-3.19Z"/><path class="cls-7" d="m452.83,229.17c-1.04,0-1.84.35-2.41,1.04-.57.7-.92,1.64-1.04,2.84,1.04-.67,2.14-1.01,3.31-1.01,1.57,0,2.88.51,3.92,1.54,1.05,1.02,1.57,2.39,1.57,4.09s-.56,3.07-1.69,4.09c-1.13,1.02-2.55,1.54-4.26,1.54-1.18,0-2.21-.23-3.08-.68s-1.55-1.09-2.03-1.91c-.96-1.58-1.44-3.57-1.44-5.95,0-1.54.19-2.88.56-4.04.38-1.16.89-2.08,1.55-2.75,1.28-1.34,2.86-2.02,4.75-2.02.78,0,1.53.12,2.24.35.71.23,1.26.47,1.64.71.38.24.81.54,1.27.91l-1.78,2.64c-.1-.1-.24-.22-.42-.38s-.55-.37-1.09-.62-1.07-.38-1.58-.38Zm-.49,6.05c-.74,0-1.37.22-1.87.66-.5.44-.76,1.01-.76,1.72s.24,1.31.72,1.81c.48.5,1.08.76,1.8.76s1.32-.22,1.8-.67c.48-.45.72-1.03.72-1.74s-.22-1.31-.65-1.8c-.43-.49-1.02-.73-1.76-.73Z"/><path class="cls-7" d="m436.02,262.4h6.79v16.78h-3.6v-13.58h-3.19v-3.19Z"/><path class="cls-7" d="m446.07,267.78v-5.38h12.12v2.83l-6.79,13.94h-4.08l6.48-13.56h-4.22v2.16h-3.5Z"/><path class="cls-7" d="m426.42,303.81v-3.19h10.27v2.59l-3.43,3.91c1.34.22,2.38.79,3.12,1.69.74.9,1.1,1.95,1.1,3.13,0,1.76-.6,3.14-1.79,4.14-1.19,1-2.72,1.5-4.57,1.5s-3.74-.66-5.64-1.97l1.54-2.98c1.58,1.12,3,1.68,4.25,1.68.75,0,1.37-.18,1.86-.55s.73-.9.73-1.6-.28-1.25-.84-1.66c-.56-.41-1.34-.61-2.33-.61-.53,0-1.27.15-2.23.46v-2.76l3.22-3.79h-5.26Z"/><path class="cls-7" d="m447.06,311.3l4.27-10.68h4.06l-6.74,16.78h-3.17l-6.74-16.78h4.06l4.27,10.68Z"/><path class="cls-7" d="m457.11,303.81v-3.19h10.27v2.59l-3.43,3.91c1.34.22,2.38.79,3.12,1.69.74.9,1.1,1.95,1.1,3.13,0,1.76-.6,3.14-1.79,4.14-1.19,1-2.72,1.5-4.57,1.5s-3.74-.66-5.64-1.97l1.54-2.98c1.58,1.12,3,1.68,4.25,1.68.75,0,1.37-.18,1.86-.55s.73-.9.73-1.6-.28-1.25-.84-1.66c-.56-.41-1.34-.61-2.33-.61-.53,0-1.27.15-2.23.46v-2.76l3.22-3.79h-5.26Z"/><path class="cls-7" d="m431.99,343.94h3.77v5.95c-1.66,1.86-3.97,2.78-6.91,2.78-2.46,0-4.53-.82-6.2-2.45-1.67-1.63-2.51-3.69-2.51-6.18s.85-4.56,2.56-6.23,3.76-2.5,6.17-2.5,4.5.79,6.28,2.38l-1.94,2.81c-.75-.66-1.44-1.11-2.08-1.36s-1.32-.37-2.05-.37c-1.42,0-2.62.48-3.6,1.45-.98.97-1.46,2.24-1.46,3.83s.47,2.85,1.4,3.8c.94.95,2.05,1.43,3.35,1.43s2.38-.25,3.24-.74v-4.61Z"/><path class="cls-7" d="m450.83,335.71h3.74v16.78h-3.74l-7.99-10.51v10.51h-3.74v-16.78h3.5l8.23,10.8v-10.8Z"/><path class="cls-7" d="m471.51,337.9c1.6,1.46,2.4,3.5,2.4,6.11s-.78,4.67-2.34,6.19c-1.56,1.52-3.94,2.28-7.14,2.28h-5.74v-16.78h5.93c2.99,0,5.29.73,6.89,2.2Zm-2.75,9.97c.92-.86,1.38-2.12,1.38-3.77s-.46-2.92-1.38-3.8c-.92-.89-2.33-1.33-4.24-1.33h-2.09v10.2h2.38c1.71,0,3.03-.43,3.95-1.3Z"/><path class="cls-7" d="m618.43,226.34h6.79v16.78h-3.6v-13.58h-3.19v-3.19Z"/><path class="cls-7" d="m630.89,227.28c1.11-.88,2.5-1.32,4.16-1.32s3.05.44,4.15,1.32c1.1.88,1.66,1.96,1.66,3.25s-.5,2.4-1.49,3.32c1.39,1.07,2.09,2.48,2.09,4.22,0,1.47-.59,2.71-1.78,3.72-1.18,1.01-2.73,1.51-4.63,1.51s-3.45-.5-4.63-1.51c-1.18-1.01-1.78-2.25-1.78-3.72,0-1.74.7-3.15,2.09-4.22-1.01-.94-1.51-2.06-1.51-3.34s.56-2.36,1.67-3.24Zm2.34,12.35c.56.38,1.17.56,1.82.56s1.26-.19,1.82-.56c.56-.38.84-.92.84-1.64s-.27-1.27-.82-1.66-1.16-.58-1.85-.58-1.3.19-1.85.58c-.54.38-.82.94-.82,1.66s.28,1.27.84,1.64Zm.23-7.33c.46.38.99.58,1.6.58s1.14-.19,1.6-.58.68-.86.68-1.43-.22-1.04-.67-1.43c-.45-.38-.98-.58-1.61-.58s-1.16.19-1.61.58c-.45.38-.67.86-.67,1.43s.23,1.04.68,1.43Z"/><path class="cls-7" d="m618.58,262.4h6.79v16.78h-3.6v-13.58h-3.19v-3.19Z"/><path class="cls-7" d="m634.11,276.15c1.04,0,1.84-.35,2.41-1.04.57-.7.92-1.64,1.04-2.84-1.02.69-2.13,1.03-3.31,1.03-1.57,0-2.88-.52-3.92-1.55-1.05-1.03-1.57-2.4-1.57-4.09s.56-3.06,1.69-4.09c1.13-1.03,2.55-1.55,4.26-1.55,1.18,0,2.21.23,3.08.68s1.56,1.09,2.05,1.91c.94,1.58,1.42,3.57,1.42,5.95,0,1.54-.19,2.88-.56,4.04-.38,1.16-.88,2.08-1.52,2.75-1.31,1.34-2.9,2.02-4.78,2.02-.78,0-1.54-.12-2.26-.35-.72-.23-1.26-.46-1.63-.7-.37-.23-.79-.53-1.27-.9l1.87-2.64c.11.1.26.22.44.37.18.15.54.36,1.07.61.53.26,1.02.38,1.49.38Zm.52-6.05c.74,0,1.36-.22,1.86-.65.5-.43.74-1,.74-1.7s-.24-1.31-.72-1.82c-.48-.51-1.08-.77-1.8-.77s-1.31.23-1.76.68c-.46.46-.68,1.04-.68,1.74s.21,1.3.62,1.79,1,.73,1.74.73Z"/><path class="cls-7" d="m609.58,303.81v-3.19h10.27v2.59l-3.43,3.91c1.34.22,2.38.79,3.12,1.69.74.9,1.1,1.95,1.1,3.13,0,1.76-.6,3.14-1.79,4.14-1.19,1-2.72,1.5-4.57,1.5s-3.74-.66-5.64-1.97l1.54-2.98c1.58,1.12,3,1.68,4.25,1.68.75,0,1.37-.18,1.86-.55s.73-.9.73-1.6-.28-1.25-.84-1.66c-.56-.41-1.34-.61-2.33-.61-.53,0-1.27.15-2.23.46v-2.76l3.22-3.79h-5.26Z"/><path class="cls-7" d="m630.22,311.3l4.27-10.68h4.06l-6.74,16.78h-3.17l-6.74-16.78h4.06l4.27,10.68Z"/><path class="cls-7" d="m640.28,303.81v-3.19h10.27v2.59l-3.43,3.91c1.34.22,2.38.79,3.12,1.69.74.9,1.1,1.95,1.1,3.13,0,1.76-.6,3.14-1.79,4.14-1.19,1-2.72,1.5-4.57,1.5s-3.74-.66-5.64-1.97l1.54-2.98c1.58,1.12,3,1.68,4.25,1.68.75,0,1.37-.18,1.86-.55s.73-.9.73-1.6-.28-1.25-.84-1.66c-.56-.41-1.34-.61-2.33-.61-.53,0-1.27.15-2.23.46v-2.76l3.22-3.79h-5.26Z"/><path class="cls-7" d="m615.15,343.94h3.77v5.95c-1.66,1.86-3.97,2.78-6.91,2.78-2.46,0-4.53-.82-6.2-2.45-1.67-1.63-2.51-3.69-2.51-6.18s.85-4.56,2.56-6.23,3.76-2.5,6.17-2.5,4.5.79,6.28,2.38l-1.94,2.81c-.75-.66-1.44-1.11-2.08-1.36s-1.32-.37-2.05-.37c-1.42,0-2.62.48-3.6,1.45-.98.97-1.46,2.24-1.46,3.83s.47,2.85,1.4,3.8c.94.95,2.05,1.43,3.35,1.43s2.38-.25,3.24-.74v-4.61Z"/><path class="cls-7" d="m633.99,335.71h3.74v16.78h-3.74l-7.99-10.51v10.51h-3.74v-16.78h3.5l8.23,10.8v-10.8Z"/><path class="cls-7" d="m654.68,337.9c1.6,1.46,2.4,3.5,2.4,6.11s-.78,4.67-2.34,6.19c-1.56,1.52-3.94,2.28-7.14,2.28h-5.74v-16.78h5.93c2.99,0,5.29.73,6.89,2.2Zm-2.75,9.97c.92-.86,1.38-2.12,1.38-3.77s-.46-2.92-1.38-3.8c-.92-.89-2.33-1.33-4.24-1.33h-2.09v10.2h2.38c1.71,0,3.03-.43,3.95-1.3Z"/><path class="cls-7" d="m863.04,243.12l-1.56-3.62h-7.03l-1.56,3.62h-3.98l7.25-16.78h3.62l7.25,16.78h-3.98Zm-5.06-11.78l-2.11,4.87h4.2l-2.09-4.87Z"/><path class="cls-7" d="m875.18,243.31c-2.32,0-4.06-.79-5.21-2.36-1.15-1.58-1.73-3.68-1.73-6.31s.58-4.74,1.73-6.31c1.15-1.58,2.89-2.36,5.21-2.36s4.06.79,5.21,2.36c1.15,1.58,1.73,3.68,1.73,6.31s-.58,4.74-1.73,6.31c-1.15,1.58-2.89,2.36-5.21,2.36Zm-2.47-12.72c-.53,1.02-.79,2.38-.79,4.06s.26,3.03.79,4.06c.53,1.02,1.35,1.54,2.47,1.54s1.94-.51,2.47-1.54c.53-1.02.79-2.38.79-4.06s-.26-3.03-.79-4.06c-.53-1.02-1.35-1.54-2.47-1.54s-1.94.51-2.47,1.54Z"/><path class="cls-7" d="m866.71,279.18l-1.56-3.62h-7.03l-1.56,3.62h-3.98l7.25-16.78h3.62l7.25,16.78h-3.98Zm-5.06-11.78l-2.11,4.87h4.2l-2.09-4.87Z"/><path class="cls-7" d="m870.86,262.4h6.79v16.78h-3.6v-13.58h-3.19v-3.19Z"/><path class="cls-7" d="m845.6,303.81v-3.19h10.27v2.59l-3.43,3.91c1.34.22,2.38.79,3.12,1.69.74.9,1.1,1.95,1.1,3.13,0,1.76-.6,3.14-1.79,4.14-1.19,1-2.72,1.5-4.57,1.5s-3.74-.66-5.64-1.97l1.54-2.98c1.58,1.12,3,1.68,4.25,1.68.75,0,1.37-.18,1.86-.55s.73-.9.73-1.6-.28-1.25-.84-1.66c-.56-.41-1.34-.61-2.33-.61-.53,0-1.27.15-2.23.46v-2.76l3.22-3.79h-5.26Z"/><path class="cls-7" d="m866.24,311.3l4.27-10.68h4.06l-6.74,16.78h-3.17l-6.74-16.78h4.06l4.27,10.68Z"/><path class="cls-7" d="m876.3,303.81v-3.19h10.27v2.59l-3.43,3.91c1.34.22,2.38.79,3.12,1.69.74.9,1.1,1.95,1.1,3.13,0,1.76-.6,3.14-1.79,4.14-1.19,1-2.72,1.5-4.57,1.5s-3.74-.66-5.64-1.97l1.54-2.98c1.58,1.12,3,1.68,4.25,1.68.75,0,1.37-.18,1.86-.55s.73-.9.73-1.6-.28-1.25-.84-1.66c-.56-.41-1.34-.61-2.33-.61-.53,0-1.27.15-2.23.46v-2.76l3.22-3.79h-5.26Z"/><path class="cls-7" d="m851.17,343.94h3.77v5.95c-1.66,1.86-3.97,2.78-6.91,2.78-2.46,0-4.53-.82-6.2-2.45-1.67-1.63-2.51-3.69-2.51-6.18s.85-4.56,2.56-6.23,3.76-2.5,6.17-2.5,4.5.79,6.28,2.38l-1.94,2.81c-.75-.66-1.44-1.11-2.08-1.36s-1.32-.37-2.05-.37c-1.42,0-2.62.48-3.6,1.45-.98.97-1.46,2.24-1.46,3.83s.47,2.85,1.4,3.8c.94.95,2.05,1.43,3.35,1.43s2.38-.25,3.24-.74v-4.61Z"/><path class="cls-7" d="m870.01,335.71h3.74v16.78h-3.74l-7.99-10.51v10.51h-3.74v-16.78h3.5l8.23,10.8v-10.8Z"/><path class="cls-7" d="m890.7,337.9c1.6,1.46,2.4,3.5,2.4,6.11s-.78,4.67-2.34,6.19c-1.56,1.52-3.94,2.28-7.14,2.28h-5.74v-16.78h5.93c2.99,0,5.29.73,6.89,2.2Zm-2.75,9.97c.92-.86,1.38-2.12,1.38-3.77s-.46-2.92-1.38-3.8c-.92-.89-2.33-1.33-4.24-1.33h-2.09v10.2h2.38c1.71,0,3.03-.43,3.95-1.3Z"/><path class="cls-7" d="m1043.74,243.12l-1.56-3.62h-7.03l-1.56,3.62h-3.98l7.25-16.78h3.62l7.25,16.78h-3.98Zm-5.06-11.78l-2.11,4.87h4.2l-2.09-4.87Z"/><path class="cls-7" d="m1056.04,232.88c.42-.6.64-1.18.64-1.74s-.18-1.03-.55-1.4-.84-.56-1.42-.56c-1.06,0-2.06.75-3,2.26l-3-1.78c.78-1.22,1.64-2.14,2.58-2.76.94-.62,2.13-.94,3.58-.94s2.72.46,3.82,1.38c1.1.92,1.64,2.17,1.64,3.76,0,.86-.22,1.69-.66,2.48-.44.79-1.25,1.8-2.44,3.04l-3.02,3.14h6.62v3.36h-11.83v-2.78l4.92-5.04c.99-1.01,1.7-1.81,2.12-2.41Z"/><path class="cls-7" d="m1043.91,279.18l-1.56-3.62h-7.03l-1.56,3.62h-3.98l7.25-16.78h3.62l7.25,16.78h-3.98Zm-5.06-11.78l-2.11,4.87h4.2l-2.09-4.87Z"/><path class="cls-7" d="m1049.57,265.59v-3.19h10.27v2.59l-3.43,3.91c1.34.22,2.38.79,3.12,1.69.74.9,1.1,1.95,1.1,3.13,0,1.76-.6,3.14-1.79,4.14-1.19,1-2.72,1.5-4.57,1.5s-3.74-.66-5.64-1.97l1.54-2.98c1.58,1.12,3,1.68,4.25,1.68.75,0,1.37-.18,1.86-.55s.73-.9.73-1.6-.28-1.25-.84-1.66c-.56-.41-1.34-.61-2.33-.61-.53,0-1.27.15-2.23.46v-2.76l3.22-3.79h-5.26Z"/><path class="cls-7" d="m1025.29,303.81v-3.19h10.27v2.59l-3.43,3.91c1.34.22,2.38.79,3.12,1.69.74.9,1.1,1.95,1.1,3.13,0,1.76-.6,3.14-1.79,4.14-1.19,1-2.72,1.5-4.57,1.5s-3.74-.66-5.64-1.97l1.54-2.98c1.58,1.12,3,1.68,4.25,1.68.75,0,1.37-.18,1.86-.55s.73-.9.73-1.6-.28-1.25-.84-1.66c-.56-.41-1.34-.61-2.33-.61-.53,0-1.27.15-2.23.46v-2.76l3.22-3.79h-5.26Z"/><path class="cls-7" d="m1045.92,311.3l4.27-10.68h4.06l-6.74,16.78h-3.17l-6.74-16.78h4.06l4.27,10.68Z"/><path class="cls-7" d="m1055.98,303.81v-3.19h10.27v2.59l-3.43,3.91c1.34.22,2.38.79,3.12,1.69.74.9,1.1,1.95,1.1,3.13,0,1.76-.6,3.14-1.79,4.14-1.19,1-2.72,1.5-4.57,1.5s-3.74-.66-5.64-1.97l1.54-2.98c1.58,1.12,3,1.68,4.25,1.68.75,0,1.37-.18,1.86-.55s.73-.9.73-1.6-.28-1.25-.84-1.66c-.56-.41-1.34-.61-2.33-.61-.53,0-1.27.15-2.23.46v-2.76l3.22-3.79h-5.26Z"/><path class="cls-7" d="m1030.85,343.94h3.77v5.95c-1.66,1.86-3.97,2.78-6.91,2.78-2.46,0-4.53-.82-6.2-2.45-1.67-1.63-2.51-3.69-2.51-6.18s.85-4.56,2.56-6.23,3.76-2.5,6.17-2.5,4.5.79,6.28,2.38l-1.94,2.81c-.75-.66-1.44-1.11-2.08-1.36s-1.32-.37-2.05-.37c-1.42,0-2.62.48-3.6,1.45-.98.97-1.46,2.24-1.46,3.83s.47,2.85,1.4,3.8c.94.95,2.05,1.43,3.35,1.43s2.38-.25,3.24-.74v-4.61Z"/><path class="cls-7" d="m1049.69,335.71h3.74v16.78h-3.74l-7.99-10.51v10.51h-3.74v-16.78h3.5l8.23,10.8v-10.8Z"/><path class="cls-7" d="m1070.38,337.9c1.6,1.46,2.4,3.5,2.4,6.11s-.78,4.67-2.34,6.19c-1.56,1.52-3.94,2.28-7.14,2.28h-5.74v-16.78h5.93c2.99,0,5.29.73,6.89,2.2Zm-2.75,9.97c.92-.86,1.38-2.12,1.38-3.77s-.46-2.92-1.38-3.8c-.92-.89-2.33-1.33-4.24-1.33h-2.09v10.2h2.38c1.71,0,3.03-.43,3.95-1.3Z"/><path class="cls-7" d="m78.31,668.75v-3.19h10.27v2.59l-3.43,3.91c1.34.22,2.38.79,3.12,1.69.74.9,1.1,1.95,1.1,3.13,0,1.76-.6,3.14-1.79,4.14-1.19,1-2.72,1.5-4.57,1.5s-3.74-.66-5.64-1.97l1.54-2.98c1.58,1.12,3,1.68,4.25,1.68.75,0,1.37-.18,1.86-.55s.73-.9.73-1.6-.28-1.25-.84-1.66c-.56-.41-1.34-.61-2.33-.61-.53,0-1.27.15-2.23.46v-2.76l3.22-3.79h-5.26Z"/><path class="cls-7" d="m98.95,676.24l4.27-10.68h4.06l-6.74,16.78h-3.17l-6.74-16.78h4.06l4.27,10.68Z"/><path class="cls-7" d="m109.01,668.75v-3.19h10.27v2.59l-3.43,3.91c1.34.22,2.38.79,3.12,1.69.74.9,1.1,1.95,1.1,3.13,0,1.76-.6,3.14-1.79,4.14-1.19,1-2.72,1.5-4.57,1.5s-3.74-.66-5.64-1.97l1.54-2.98c1.58,1.12,3,1.68,4.25,1.68.75,0,1.37-.18,1.86-.55s.73-.9.73-1.6-.28-1.25-.84-1.66c-.56-.41-1.34-.61-2.33-.61-.53,0-1.27.15-2.23.46v-2.76l3.22-3.79h-5.26Z"/><path class="cls-7" d="m76.88,707.88h3.77v5.95c-1.66,1.86-3.97,2.78-6.91,2.78-2.46,0-4.53-.82-6.2-2.45-1.67-1.63-2.51-3.69-2.51-6.18s.85-4.56,2.56-6.23,3.76-2.5,6.17-2.5,4.5.79,6.28,2.38l-1.94,2.81c-.75-.66-1.44-1.11-2.08-1.36s-1.32-.37-2.05-.37c-1.42,0-2.62.48-3.6,1.45-.98.97-1.46,2.24-1.46,3.83s.47,2.85,1.4,3.8c.94.95,2.05,1.43,3.35,1.43s2.38-.25,3.24-.74v-4.61Z"/><path class="cls-7" d="m95.72,699.65h3.74v16.78h-3.74l-7.99-10.51v10.51h-3.74v-16.78h3.5l8.23,10.8v-10.8Z"/><path class="cls-7" d="m116.41,701.85c1.6,1.46,2.4,3.5,2.4,6.11s-.78,4.67-2.34,6.19c-1.56,1.52-3.94,2.28-7.14,2.28h-5.74v-16.78h5.93c2.99,0,5.29.73,6.89,2.2Zm-2.75,9.97c.92-.86,1.38-2.12,1.38-3.77s-.46-2.92-1.38-3.8c-.92-.89-2.33-1.33-4.24-1.33h-2.09v10.2h2.38c1.71,0,3.03-.43,3.95-1.3Z"/><path class="cls-7" d="m105.56,481.82c0,2.69-1.06,4.42-3.19,5.21l4.25,6h-4.61l-3.72-5.35h-2.59v5.35h-3.74v-16.78h6.36c2.61,0,4.47.44,5.58,1.32s1.67,2.3,1.67,4.25Zm-4.51,1.99c.46-.42.7-1.08.7-1.98s-.24-1.52-.72-1.86c-.48-.34-1.32-.5-2.52-.5h-2.81v4.97h2.74c1.28,0,2.15-.21,2.62-.62Z"/><path class="cls-7" d="m118.83,476.25h4.51l-5.23,8.09,5.66,8.69h-4.56l-3.58-5.52-3.55,5.52h-4.51l5.64-8.59-5.26-8.18h4.49l3.19,4.97,3.19-4.97Z"/><path class="cls-7" d="m100.49,514.58v13.54h-3.74v-13.54h-4.75v-3.24h13.25v3.24h-4.75Z"/><path class="cls-7" d="m117.41,511.34h4.51l-5.23,8.09,5.66,8.69h-4.56l-3.58-5.52-3.55,5.52h-4.51l5.64-8.59-5.26-8.18h4.49l3.19,4.97,3.19-4.97Z"/><path class="cls-7" d="m260.88,537.82c.42-.6.64-1.18.64-1.74s-.18-1.03-.55-1.4-.84-.56-1.42-.56c-1.06,0-2.06.75-3,2.26l-3-1.78c.78-1.22,1.64-2.14,2.58-2.76.94-.62,2.13-.94,3.58-.94s2.72.46,3.82,1.38c1.1.92,1.64,2.17,1.64,3.76,0,.86-.22,1.69-.66,2.48-.44.79-1.25,1.8-2.44,3.04l-3.02,3.14h6.62v3.36h-11.83v-2.78l4.92-5.04c.99-1.01,1.7-1.81,2.12-2.41Z"/><path class="cls-7" d="m275.39,537.82c.42-.6.64-1.18.64-1.74s-.18-1.03-.55-1.4-.84-.56-1.42-.56c-1.06,0-2.06.75-3,2.26l-3-1.78c.78-1.22,1.64-2.14,2.58-2.76.94-.62,2.13-.94,3.58-.94s2.72.46,3.82,1.38c1.1.92,1.64,2.17,1.64,3.76,0,.86-.22,1.69-.66,2.48-.44.79-1.25,1.8-2.44,3.04l-3.02,3.14h6.62v3.36h-11.83v-2.78l4.92-5.04c.99-1.01,1.7-1.81,2.12-2.41Z"/><path class="cls-7" d="m261.04,573.88c.42-.6.64-1.18.64-1.74s-.18-1.03-.55-1.4-.84-.56-1.42-.56c-1.06,0-2.06.75-3,2.26l-3-1.78c.78-1.22,1.64-2.14,2.58-2.76.94-.62,2.13-.94,3.58-.94s2.72.46,3.82,1.38c1.1.92,1.64,2.17,1.64,3.76,0,.86-.22,1.69-.66,2.48-.44.79-1.25,1.8-2.44,3.04l-3.02,3.14h6.62v3.36h-11.83v-2.78l4.92-5.04c.99-1.01,1.7-1.81,2.12-2.41Z"/><path class="cls-7" d="m268.93,570.53v-3.19h10.27v2.59l-3.43,3.91c1.34.22,2.38.79,3.12,1.69.74.9,1.1,1.95,1.1,3.13,0,1.76-.6,3.14-1.79,4.14-1.19,1-2.72,1.5-4.57,1.5s-3.74-.66-5.64-1.97l1.54-2.98c1.58,1.12,3,1.68,4.25,1.68.75,0,1.37-.18,1.86-.55s.73-.9.73-1.6-.28-1.25-.84-1.66c-.56-.41-1.34-.61-2.33-.61-.53,0-1.27.15-2.23.46v-2.76l3.22-3.79h-5.26Z"/><path class="cls-7" d="m246.32,608.75v-3.19h10.27v2.59l-3.43,3.91c1.34.22,2.38.79,3.12,1.69.74.9,1.1,1.95,1.1,3.13,0,1.76-.6,3.14-1.79,4.14-1.19,1-2.72,1.5-4.57,1.5s-3.74-.66-5.64-1.97l1.54-2.98c1.58,1.12,3,1.68,4.25,1.68.75,0,1.37-.18,1.86-.55s.73-.9.73-1.6-.28-1.25-.84-1.66c-.56-.41-1.34-.61-2.33-.61-.53,0-1.27.15-2.23.46v-2.76l3.22-3.79h-5.26Z"/><path class="cls-7" d="m266.96,616.24l4.27-10.68h4.06l-6.74,16.78h-3.17l-6.74-16.78h4.06l4.27,10.68Z"/><path class="cls-7" d="m277.01,608.75v-3.19h10.27v2.59l-3.43,3.91c1.34.22,2.38.79,3.12,1.69.74.9,1.1,1.95,1.1,3.13,0,1.76-.6,3.14-1.79,4.14-1.19,1-2.72,1.5-4.57,1.5s-3.74-.66-5.64-1.97l1.54-2.98c1.58,1.12,3,1.68,4.25,1.68.75,0,1.37-.18,1.86-.55s.73-.9.73-1.6-.28-1.25-.84-1.66c-.56-.41-1.34-.61-2.33-.61-.53,0-1.27.15-2.23.46v-2.76l3.22-3.79h-5.26Z"/><path class="cls-7" d="m251.89,648.88h3.77v5.95c-1.66,1.86-3.97,2.78-6.91,2.78-2.46,0-4.53-.82-6.2-2.45-1.67-1.63-2.51-3.69-2.51-6.18s.85-4.56,2.56-6.23,3.76-2.5,6.17-2.5,4.5.79,6.28,2.38l-1.94,2.81c-.75-.66-1.44-1.11-2.08-1.36s-1.32-.37-2.05-.37c-1.42,0-2.62.48-3.6,1.45-.98.97-1.46,2.24-1.46,3.83s.47,2.85,1.4,3.8c.94.95,2.05,1.43,3.35,1.43s2.38-.25,3.24-.74v-4.61Z"/><path class="cls-7" d="m270.73,640.64h3.74v16.78h-3.74l-7.99-10.51v10.51h-3.74v-16.78h3.5l8.23,10.8v-10.8Z"/><path class="cls-7" d="m291.41,642.84c1.6,1.46,2.4,3.5,2.4,6.11s-.78,4.67-2.34,6.19c-1.56,1.52-3.94,2.28-7.14,2.28h-5.74v-16.78h5.93c2.99,0,5.29.73,6.89,2.2Zm-2.75,9.97c.92-.86,1.38-2.12,1.38-3.77s-.46-2.92-1.38-3.8c-.92-.89-2.33-1.33-4.24-1.33h-2.09v10.2h2.38c1.71,0,3.03-.43,3.95-1.3Z"/><path class="cls-7" d="m441.18,537.82c.42-.6.64-1.18.64-1.74s-.18-1.03-.55-1.4-.84-.56-1.42-.56c-1.06,0-2.06.75-3,2.26l-3-1.78c.78-1.22,1.64-2.14,2.58-2.76.94-.62,2.13-.94,3.58-.94s2.72.46,3.82,1.38c1.1.92,1.64,2.17,1.64,3.76,0,.86-.22,1.69-.66,2.48-.44.79-1.25,1.8-2.44,3.04l-3.02,3.14h6.62v3.36h-11.83v-2.78l4.92-5.04c.99-1.01,1.7-1.81,2.12-2.41Z"/><path class="cls-7" d="m454.87,540.81v-2.93h3.6v2.93h1.9v3.24h-1.9v4.01h-3.6v-4.01h-6.74v-2.86l5.98-9.91h4.08l-5.69,9.53h2.38Z"/><path class="cls-7" d="m441.08,573.88c.42-.6.64-1.18.64-1.74s-.18-1.03-.55-1.4-.84-.56-1.42-.56c-1.06,0-2.06.75-3,2.26l-3-1.78c.78-1.22,1.64-2.14,2.58-2.76.94-.62,2.13-.94,3.58-.94s2.72.46,3.82,1.38c1.1.92,1.64,2.17,1.64,3.76,0,.86-.22,1.69-.66,2.48-.44.79-1.25,1.8-2.44,3.04l-3.02,3.14h6.62v3.36h-11.83v-2.78l4.92-5.04c.99-1.01,1.7-1.81,2.12-2.41Z"/><path class="cls-7" d="m459.31,567.34v3.24h-6.62v2.81c.5-.14,1.06-.22,1.7-.22,1.62,0,3.01.49,4.18,1.46,1.17.98,1.75,2.29,1.75,3.95s-.6,3.02-1.81,4.1-2.7,1.62-4.48,1.62c-2.27,0-4.17-.84-5.69-2.52l1.97-2.74c.14.14.34.32.58.53.24.21.68.48,1.32.83.64.34,1.28.52,1.92.52s1.21-.19,1.7-.58c.5-.38.74-.95.74-1.7s-.27-1.33-.8-1.74-1.23-.61-2.08-.61-1.83.3-2.95.91l-1.56-1.68v-8.18h10.13Z"/><path class="cls-7" d="m426.42,608.75v-3.19h10.27v2.59l-3.43,3.91c1.34.22,2.38.79,3.12,1.69.74.9,1.1,1.95,1.1,3.13,0,1.76-.6,3.14-1.79,4.14-1.19,1-2.72,1.5-4.57,1.5s-3.74-.66-5.64-1.97l1.54-2.98c1.58,1.12,3,1.68,4.25,1.68.75,0,1.37-.18,1.86-.55s.73-.9.73-1.6-.28-1.25-.84-1.66c-.56-.41-1.34-.61-2.33-.61-.53,0-1.27.15-2.23.46v-2.76l3.22-3.79h-5.26Z"/><path class="cls-7" d="m447.06,616.24l4.27-10.68h4.06l-6.74,16.78h-3.17l-6.74-16.78h4.06l4.27,10.68Z"/><path class="cls-7" d="m457.11,608.75v-3.19h10.27v2.59l-3.43,3.91c1.34.22,2.38.79,3.12,1.69.74.9,1.1,1.95,1.1,3.13,0,1.76-.6,3.14-1.79,4.14-1.19,1-2.72,1.5-4.57,1.5s-3.74-.66-5.64-1.97l1.54-2.98c1.58,1.12,3,1.68,4.25,1.68.75,0,1.37-.18,1.86-.55s.73-.9.73-1.6-.28-1.25-.84-1.66c-.56-.41-1.34-.61-2.33-.61-.53,0-1.27.15-2.23.46v-2.76l3.22-3.79h-5.26Z"/><path class="cls-7" d="m431.99,648.88h3.77v5.95c-1.66,1.86-3.97,2.78-6.91,2.78-2.46,0-4.53-.82-6.2-2.45-1.67-1.63-2.51-3.69-2.51-6.18s.85-4.56,2.56-6.23,3.76-2.5,6.17-2.5,4.5.79,6.28,2.38l-1.94,2.81c-.75-.66-1.44-1.11-2.08-1.36s-1.32-.37-2.05-.37c-1.42,0-2.62.48-3.6,1.45-.98.97-1.46,2.24-1.46,3.83s.47,2.85,1.4,3.8c.94.95,2.05,1.43,3.35,1.43s2.38-.25,3.24-.74v-4.61Z"/><path class="cls-7" d="m450.83,640.64h3.74v16.78h-3.74l-7.99-10.51v10.51h-3.74v-16.78h3.5l8.23,10.8v-10.8Z"/><path class="cls-7" d="m471.51,642.84c1.6,1.46,2.4,3.5,2.4,6.11s-.78,4.67-2.34,6.19c-1.56,1.52-3.94,2.28-7.14,2.28h-5.74v-16.78h5.93c2.99,0,5.29.73,6.89,2.2Zm-2.75,9.97c.92-.86,1.38-2.12,1.38-3.77s-.46-2.92-1.38-3.8c-.92-.89-2.33-1.33-4.24-1.33h-2.09v10.2h2.38c1.71,0,3.03-.43,3.95-1.3Z"/><path class="cls-7" d="m623.84,537.82c.42-.6.64-1.18.64-1.74s-.18-1.03-.55-1.4-.84-.56-1.42-.56c-1.06,0-2.06.75-3,2.26l-3-1.78c.78-1.22,1.64-2.14,2.58-2.76.94-.62,2.13-.94,3.58-.94s2.72.46,3.82,1.38c1.1.92,1.64,2.17,1.64,3.76,0,.86-.22,1.69-.66,2.48-.44.79-1.25,1.8-2.44,3.04l-3.02,3.14h6.62v3.36h-11.83v-2.78l4.92-5.04c.99-1.01,1.7-1.81,2.12-2.41Z"/><path class="cls-7" d="m638.42,534.11c-1.04,0-1.84.35-2.41,1.04-.57.7-.92,1.64-1.04,2.84,1.04-.67,2.14-1.01,3.31-1.01,1.57,0,2.88.51,3.92,1.54,1.05,1.02,1.57,2.39,1.57,4.09s-.56,3.07-1.69,4.09c-1.13,1.02-2.55,1.54-4.26,1.54-1.18,0-2.21-.23-3.08-.68s-1.55-1.09-2.03-1.91c-.96-1.58-1.44-3.57-1.44-5.95,0-1.54.19-2.88.56-4.04.38-1.16.89-2.08,1.55-2.75,1.28-1.34,2.86-2.02,4.75-2.02.78,0,1.53.12,2.24.35.71.23,1.26.47,1.64.71.38.24.81.54,1.27.91l-1.78,2.64c-.1-.1-.24-.22-.42-.38s-.55-.37-1.09-.62-1.07-.38-1.58-.38Zm-.49,6.05c-.74,0-1.37.22-1.87.66-.5.44-.76,1.01-.76,1.72s.24,1.31.72,1.81c.48.5,1.08.76,1.8.76s1.32-.22,1.8-.67c.48-.45.72-1.03.72-1.74s-.22-1.31-.65-1.8c-.43-.49-1.02-.73-1.76-.73Z"/><path class="cls-7" d="m624.45,573.88c.42-.6.64-1.18.64-1.74s-.18-1.03-.55-1.4-.84-.56-1.42-.56c-1.06,0-2.06.75-3,2.26l-3-1.78c.78-1.22,1.64-2.14,2.58-2.76.94-.62,2.13-.94,3.58-.94s2.72.46,3.82,1.38c1.1.92,1.64,2.17,1.64,3.76,0,.86-.22,1.69-.66,2.48-.44.79-1.25,1.8-2.44,3.04l-3.02,3.14h6.62v3.36h-11.83v-2.78l4.92-5.04c.99-1.01,1.7-1.81,2.12-2.41Z"/><path class="cls-7" d="m631.66,572.71v-5.38h12.12v2.83l-6.79,13.94h-4.08l6.48-13.56h-4.22v2.16h-3.5Z"/><path class="cls-7" d="m609.58,608.75v-3.19h10.27v2.59l-3.43,3.91c1.34.22,2.38.79,3.12,1.69.74.9,1.1,1.95,1.1,3.13,0,1.76-.6,3.14-1.79,4.14-1.19,1-2.72,1.5-4.57,1.5s-3.74-.66-5.64-1.97l1.54-2.98c1.58,1.12,3,1.68,4.25,1.68.75,0,1.37-.18,1.86-.55s.73-.9.73-1.6-.28-1.25-.84-1.66c-.56-.41-1.34-.61-2.33-.61-.53,0-1.27.15-2.23.46v-2.76l3.22-3.79h-5.26Z"/><path class="cls-7" d="m630.22,616.24l4.27-10.68h4.06l-6.74,16.78h-3.17l-6.74-16.78h4.06l4.27,10.68Z"/><path class="cls-7" d="m640.28,608.75v-3.19h10.27v2.59l-3.43,3.91c1.34.22,2.38.79,3.12,1.69.74.9,1.1,1.95,1.1,3.13,0,1.76-.6,3.14-1.79,4.14-1.19,1-2.72,1.5-4.57,1.5s-3.74-.66-5.64-1.97l1.54-2.98c1.58,1.12,3,1.68,4.25,1.68.75,0,1.37-.18,1.86-.55s.73-.9.73-1.6-.28-1.25-.84-1.66c-.56-.41-1.34-.61-2.33-.61-.53,0-1.27.15-2.23.46v-2.76l3.22-3.79h-5.26Z"/><path class="cls-7" d="m615.15,648.88h3.77v5.95c-1.66,1.86-3.97,2.78-6.91,2.78-2.46,0-4.53-.82-6.2-2.45-1.67-1.63-2.51-3.69-2.51-6.18s.85-4.56,2.56-6.23,3.76-2.5,6.17-2.5,4.5.79,6.28,2.38l-1.94,2.81c-.75-.66-1.44-1.11-2.08-1.36s-1.32-.37-2.05-.37c-1.42,0-2.62.48-3.6,1.45-.98.97-1.46,2.24-1.46,3.83s.47,2.85,1.4,3.8c.94.95,2.05,1.43,3.35,1.43s2.38-.25,3.24-.74v-4.61Z"/><path class="cls-7" d="m633.99,640.64h3.74v16.78h-3.74l-7.99-10.51v10.51h-3.74v-16.78h3.5l8.23,10.8v-10.8Z"/><path class="cls-7" d="m654.68,642.84c1.6,1.46,2.4,3.5,2.4,6.11s-.78,4.67-2.34,6.19c-1.56,1.52-3.94,2.28-7.14,2.28h-5.74v-16.78h5.93c2.99,0,5.29.73,6.89,2.2Zm-2.75,9.97c.92-.86,1.38-2.12,1.38-3.77s-.46-2.92-1.38-3.8c-.92-.89-2.33-1.33-4.24-1.33h-2.09v10.2h2.38c1.71,0,3.03-.43,3.95-1.3Z"/><path class="cls-7" d="m249.69,835.87c-.36.3-.54.69-.54,1.18s.22.88.66,1.16c.44.29,1.46.63,3.05,1.02,1.59.39,2.83.98,3.71,1.76.88.78,1.32,1.93,1.32,3.43s-.56,2.72-1.69,3.66c-1.13.94-2.61,1.4-4.45,1.4-2.66,0-5.05-.98-7.18-2.95l2.23-2.74c1.81,1.58,3.48,2.38,5.02,2.38.69,0,1.23-.15,1.62-.44.39-.3.59-.7.59-1.2s-.21-.9-.62-1.2c-.42-.3-1.24-.6-2.47-.9-1.95-.46-3.38-1.07-4.28-1.81-.9-.74-1.36-1.91-1.36-3.5s.57-2.82,1.72-3.68c1.14-.86,2.57-1.3,4.28-1.3,1.12,0,2.24.19,3.36.58,1.12.38,2.1.93,2.93,1.63l-1.9,2.74c-1.46-1.1-2.96-1.66-4.51-1.66-.62,0-1.12.15-1.48.44Z"/><path class="cls-7" d="m268.78,845.99c1.84,0,3.34-.73,4.51-2.18l2.4,2.47c-1.9,2.14-4.15,3.22-6.73,3.22s-4.71-.82-6.38-2.45c-1.67-1.63-2.51-3.69-2.51-6.18s.85-4.56,2.56-6.23,3.79-2.5,6.25-2.5c2.75,0,5.06,1.05,6.91,3.14l-2.33,2.64c-1.18-1.47-2.66-2.21-4.42-2.21-1.41,0-2.61.46-3.61,1.38s-1.5,2.16-1.5,3.72.47,2.81,1.42,3.76c.94.94,2.09,1.42,3.43,1.42Z"/><path class="cls-7" d="m278.65,849.3v-16.78h3.74v13.44h7.15v3.34h-10.9Z"/><path class="cls-7" d="m247.36,871.93c-.36.3-.54.69-.54,1.18s.22.88.66,1.16c.44.29,1.46.63,3.05,1.02,1.59.39,2.83.98,3.71,1.76.88.78,1.32,1.93,1.32,3.43s-.56,2.72-1.69,3.66c-1.13.94-2.61,1.4-4.45,1.4-2.66,0-5.05-.98-7.18-2.95l2.23-2.74c1.81,1.58,3.48,2.38,5.02,2.38.69,0,1.23-.15,1.62-.44.39-.3.59-.7.59-1.2s-.21-.9-.62-1.2c-.42-.3-1.24-.6-2.47-.9-1.95-.46-3.38-1.07-4.28-1.81-.9-.74-1.36-1.91-1.36-3.5s.57-2.82,1.72-3.68c1.14-.86,2.57-1.3,4.28-1.3,1.12,0,2.24.19,3.36.58,1.12.38,2.1.93,2.93,1.63l-1.9,2.74c-1.46-1.1-2.96-1.66-4.51-1.66-.62,0-1.12.15-1.48.44Z"/><path class="cls-7" d="m271.57,870.77c1.6,1.46,2.4,3.5,2.4,6.11s-.78,4.67-2.34,6.19c-1.56,1.52-3.94,2.28-7.14,2.28h-5.74v-16.78h5.93c2.99,0,5.29.73,6.89,2.2Zm-2.75,9.97c.92-.86,1.38-2.12,1.38-3.77s-.46-2.92-1.38-3.8c-.92-.89-2.33-1.33-4.24-1.33h-2.09v10.2h2.38c1.71,0,3.03-.43,3.95-1.3Z"/><path class="cls-7" d="m288.68,885.35l-1.56-3.62h-7.03l-1.56,3.62h-3.98l7.25-16.78h3.62l7.25,16.78h-3.98Zm-5.06-11.78l-2.11,4.87h4.2l-2.09-4.87Z"/><path class="cls-7" d="m246.32,909.99v-3.19h10.27v2.59l-3.43,3.91c1.34.22,2.38.79,3.12,1.69.74.9,1.1,1.95,1.1,3.13,0,1.76-.6,3.14-1.79,4.14-1.19,1-2.72,1.5-4.57,1.5s-3.74-.66-5.64-1.97l1.54-2.98c1.58,1.12,3,1.68,4.25,1.68.75,0,1.37-.18,1.86-.55s.73-.9.73-1.6-.28-1.25-.84-1.66c-.56-.41-1.34-.61-2.33-.61-.53,0-1.27.15-2.23.46v-2.76l3.22-3.79h-5.26Z"/><path class="cls-7" d="m266.96,917.48l4.27-10.68h4.06l-6.74,16.78h-3.17l-6.74-16.78h4.06l4.27,10.68Z"/><path class="cls-7" d="m277.01,909.99v-3.19h10.27v2.59l-3.43,3.91c1.34.22,2.38.79,3.12,1.69.74.9,1.1,1.95,1.1,3.13,0,1.76-.6,3.14-1.79,4.14-1.19,1-2.72,1.5-4.57,1.5s-3.74-.66-5.64-1.97l1.54-2.98c1.58,1.12,3,1.68,4.25,1.68.75,0,1.37-.18,1.86-.55s.73-.9.73-1.6-.28-1.25-.84-1.66c-.56-.41-1.34-.61-2.33-.61-.53,0-1.27.15-2.23.46v-2.76l3.22-3.79h-5.26Z"/><path class="cls-7" d="m251.89,950.12h3.77v5.95c-1.66,1.86-3.97,2.78-6.91,2.78-2.46,0-4.53-.82-6.2-2.45-1.67-1.63-2.51-3.69-2.51-6.18s.85-4.56,2.56-6.23,3.76-2.5,6.17-2.5,4.5.79,6.28,2.38l-1.94,2.81c-.75-.66-1.44-1.11-2.08-1.36s-1.32-.37-2.05-.37c-1.42,0-2.62.48-3.6,1.45-.98.97-1.46,2.24-1.46,3.83s.47,2.85,1.4,3.8c.94.95,2.05,1.43,3.35,1.43s2.38-.25,3.24-.74v-4.61Z"/><path class="cls-7" d="m270.73,941.89h3.74v16.78h-3.74l-7.99-10.51v10.51h-3.74v-16.78h3.5l8.23,10.8v-10.8Z"/><path class="cls-7" d="m291.41,944.08c1.6,1.46,2.4,3.5,2.4,6.11s-.78,4.67-2.34,6.19c-1.56,1.52-3.94,2.28-7.14,2.28h-5.74v-16.78h5.93c2.99,0,5.29.73,6.89,2.2Zm-2.75,9.97c.92-.86,1.38-2.12,1.38-3.77s-.46-2.92-1.38-3.8c-.92-.89-2.33-1.33-4.24-1.33h-2.09v10.2h2.38c1.71,0,3.03-.43,3.95-1.3Z"/><path class="cls-7" d="m429.79,835.87c-.36.3-.54.69-.54,1.18s.22.88.66,1.16c.44.29,1.46.63,3.05,1.02,1.59.39,2.83.98,3.71,1.76.88.78,1.32,1.93,1.32,3.43s-.56,2.72-1.69,3.66c-1.13.94-2.61,1.4-4.45,1.4-2.66,0-5.05-.98-7.18-2.95l2.23-2.74c1.81,1.58,3.48,2.38,5.02,2.38.69,0,1.23-.15,1.62-.44.39-.3.59-.7.59-1.2s-.21-.9-.62-1.2c-.42-.3-1.24-.6-2.47-.9-1.95-.46-3.38-1.07-4.28-1.81-.9-.74-1.36-1.91-1.36-3.5s.57-2.82,1.72-3.68c1.14-.86,2.57-1.3,4.28-1.3,1.12,0,2.24.19,3.36.58,1.12.38,2.1.93,2.93,1.63l-1.9,2.74c-1.46-1.1-2.96-1.66-4.51-1.66-.62,0-1.12.15-1.48.44Z"/><path class="cls-7" d="m448.88,845.99c1.84,0,3.34-.73,4.51-2.18l2.4,2.47c-1.9,2.14-4.15,3.22-6.73,3.22s-4.71-.82-6.38-2.45c-1.67-1.63-2.51-3.69-2.51-6.18s.85-4.56,2.56-6.23,3.79-2.5,6.25-2.5c2.75,0,5.06,1.05,6.91,3.14l-2.33,2.64c-1.18-1.47-2.66-2.21-4.42-2.21-1.41,0-2.61.46-3.61,1.38s-1.5,2.16-1.5,3.72.47,2.81,1.42,3.76c.94.94,2.09,1.42,3.43,1.42Z"/><path class="cls-7" d="m458.75,849.3v-16.78h3.74v13.44h7.15v3.34h-10.9Z"/><path class="cls-7" d="m427.46,871.93c-.36.3-.54.69-.54,1.18s.22.88.66,1.16c.44.29,1.46.63,3.05,1.02,1.59.39,2.83.98,3.71,1.76.88.78,1.32,1.93,1.32,3.43s-.56,2.72-1.69,3.66c-1.13.94-2.61,1.4-4.45,1.4-2.66,0-5.05-.98-7.18-2.95l2.23-2.74c1.81,1.58,3.48,2.38,5.02,2.38.69,0,1.23-.15,1.62-.44.39-.3.59-.7.59-1.2s-.21-.9-.62-1.2c-.42-.3-1.24-.6-2.47-.9-1.95-.46-3.38-1.07-4.28-1.81-.9-.74-1.36-1.91-1.36-3.5s.57-2.82,1.72-3.68c1.14-.86,2.57-1.3,4.28-1.3,1.12,0,2.24.19,3.36.58,1.12.38,2.1.93,2.93,1.63l-1.9,2.74c-1.46-1.1-2.96-1.66-4.51-1.66-.62,0-1.12.15-1.48.44Z"/><path class="cls-7" d="m451.67,870.77c1.6,1.46,2.4,3.5,2.4,6.11s-.78,4.67-2.34,6.19c-1.56,1.52-3.94,2.28-7.14,2.28h-5.74v-16.78h5.93c2.99,0,5.29.73,6.89,2.2Zm-2.75,9.97c.92-.86,1.38-2.12,1.38-3.77s-.46-2.92-1.38-3.8c-.92-.89-2.33-1.33-4.24-1.33h-2.09v10.2h2.38c1.71,0,3.03-.43,3.95-1.3Z"/><path class="cls-7" d="m468.78,885.35l-1.56-3.62h-7.03l-1.56,3.62h-3.98l7.25-16.78h3.62l7.25,16.78h-3.98Zm-5.06-11.78l-2.11,4.87h4.2l-2.09-4.87Z"/><path class="cls-7" d="m426.42,909.99v-3.19h10.27v2.59l-3.43,3.91c1.34.22,2.38.79,3.12,1.69.74.9,1.1,1.95,1.1,3.13,0,1.76-.6,3.14-1.79,4.14-1.19,1-2.72,1.5-4.57,1.5s-3.74-.66-5.64-1.97l1.54-2.98c1.58,1.12,3,1.68,4.25,1.68.75,0,1.37-.18,1.86-.55s.73-.9.73-1.6-.28-1.25-.84-1.66c-.56-.41-1.34-.61-2.33-.61-.53,0-1.27.15-2.23.46v-2.76l3.22-3.79h-5.26Z"/><path class="cls-7" d="m447.06,917.48l4.27-10.68h4.06l-6.74,16.78h-3.17l-6.74-16.78h4.06l4.27,10.68Z"/><path class="cls-7" d="m457.11,909.99v-3.19h10.27v2.59l-3.43,3.91c1.34.22,2.38.79,3.12,1.69.74.9,1.1,1.95,1.1,3.13,0,1.76-.6,3.14-1.79,4.14-1.19,1-2.72,1.5-4.57,1.5s-3.74-.66-5.64-1.97l1.54-2.98c1.58,1.12,3,1.68,4.25,1.68.75,0,1.37-.18,1.86-.55s.73-.9.73-1.6-.28-1.25-.84-1.66c-.56-.41-1.34-.61-2.33-.61-.53,0-1.27.15-2.23.46v-2.76l3.22-3.79h-5.26Z"/><path class="cls-7" d="m431.99,950.12h3.77v5.95c-1.66,1.86-3.97,2.78-6.91,2.78-2.46,0-4.53-.82-6.2-2.45-1.67-1.63-2.51-3.69-2.51-6.18s.85-4.56,2.56-6.23,3.76-2.5,6.17-2.5,4.5.79,6.28,2.38l-1.94,2.81c-.75-.66-1.44-1.11-2.08-1.36s-1.32-.37-2.05-.37c-1.42,0-2.62.48-3.6,1.45-.98.97-1.46,2.24-1.46,3.83s.47,2.85,1.4,3.8c.94.95,2.05,1.43,3.35,1.43s2.38-.25,3.24-.74v-4.61Z"/><path class="cls-7" d="m450.83,941.89h3.74v16.78h-3.74l-7.99-10.51v10.51h-3.74v-16.78h3.5l8.23,10.8v-10.8Z"/><path class="cls-7" d="m471.51,944.08c1.6,1.46,2.4,3.5,2.4,6.11s-.78,4.67-2.34,6.19c-1.56,1.52-3.94,2.28-7.14,2.28h-5.74v-16.78h5.93c2.99,0,5.29.73,6.89,2.2Zm-2.75,9.97c.92-.86,1.38-2.12,1.38-3.77s-.46-2.92-1.38-3.8c-.92-.89-2.33-1.33-4.24-1.33h-2.09v10.2h2.38c1.71,0,3.03-.43,3.95-1.3Z"/><path class="cls-7" d="m612.95,835.87c-.36.3-.54.69-.54,1.18s.22.88.66,1.16c.44.29,1.46.63,3.05,1.02,1.59.39,2.83.98,3.71,1.76.88.78,1.32,1.93,1.32,3.43s-.56,2.72-1.69,3.66c-1.13.94-2.61,1.4-4.45,1.4-2.66,0-5.05-.98-7.18-2.95l2.23-2.74c1.81,1.58,3.48,2.38,5.02,2.38.69,0,1.23-.15,1.62-.44.39-.3.59-.7.59-1.2s-.21-.9-.62-1.2c-.42-.3-1.24-.6-2.47-.9-1.95-.46-3.38-1.07-4.28-1.81-.9-.74-1.36-1.91-1.36-3.5s.57-2.82,1.72-3.68c1.14-.86,2.57-1.3,4.28-1.3,1.12,0,2.24.19,3.36.58,1.12.38,2.1.93,2.93,1.63l-1.9,2.74c-1.46-1.1-2.96-1.66-4.51-1.66-.62,0-1.12.15-1.48.44Z"/><path class="cls-7" d="m632.04,845.99c1.84,0,3.34-.73,4.51-2.18l2.4,2.47c-1.9,2.14-4.15,3.22-6.73,3.22s-4.71-.82-6.38-2.45c-1.67-1.63-2.51-3.69-2.51-6.18s.85-4.56,2.56-6.23,3.79-2.5,6.25-2.5c2.75,0,5.06,1.05,6.91,3.14l-2.33,2.64c-1.18-1.47-2.66-2.21-4.42-2.21-1.41,0-2.61.46-3.61,1.38s-1.5,2.16-1.5,3.72.47,2.81,1.42,3.76c.94.94,2.09,1.42,3.43,1.42Z"/><path class="cls-7" d="m641.91,849.3v-16.78h3.74v13.44h7.15v3.34h-10.9Z"/><path class="cls-7" d="m1136.1,841.09c0,2.69-1.06,4.42-3.19,5.21l4.25,6h-4.61l-3.72-5.35h-2.59v5.35h-3.74v-16.78h6.36c2.61,0,4.47.44,5.58,1.32s1.67,2.3,1.67,4.25Zm-4.51,1.99c.46-.42.7-1.08.7-1.98s-.24-1.52-.72-1.86c-.48-.34-1.32-.5-2.52-.5h-2.81v4.97h2.74c1.28,0,2.15-.21,2.62-.62Z"/><path class="cls-7" d="m1151.5,837.02c1.18,1,1.76,2.54,1.76,4.61s-.6,3.59-1.81,4.55c-1.21.96-3.05,1.44-5.53,1.44h-2.23v4.68h-3.74v-16.78h5.93c2.58,0,4.45.5,5.63,1.5Zm-2.75,6.6c.45-.5.67-1.24.67-2.21s-.29-1.66-.88-2.06-1.49-.61-2.72-.61h-2.14v5.64h2.52c1.25,0,2.1-.25,2.54-.76Z"/><path class="cls-7" d="m1156.19,835.52h3.74v16.78h-3.74v-16.78Z"/><path class="cls-7" d="m1135.06,889.47l-4.54,9.17h-2.23l-4.51-9.17v10.56h-3.74v-16.78h5.06l4.32,9.22,4.34-9.22h5.04v16.78h-3.74v-10.56Z"/><path class="cls-7" d="m1150.63,896.72c1.84,0,3.34-.73,4.51-2.18l2.4,2.47c-1.9,2.14-4.15,3.22-6.73,3.22s-4.71-.82-6.38-2.45c-1.67-1.63-2.51-3.69-2.51-6.18s.85-4.56,2.56-6.23,3.79-2.5,6.25-2.5c2.75,0,5.06,1.05,6.91,3.14l-2.33,2.64c-1.18-1.47-2.66-2.21-4.42-2.21-1.41,0-2.61.46-3.61,1.38s-1.5,2.16-1.5,3.72.47,2.81,1.42,3.76c.94.94,2.09,1.42,3.43,1.42Z"/><path class="cls-7" d="m1164.94,895.7c.62.78,1.46,1.16,2.52,1.16s1.89-.39,2.51-1.16c.62-.78.92-1.84.92-3.18v-9.26h3.74v9.38c0,2.43-.67,4.3-2.02,5.6-1.34,1.3-3.06,1.96-5.16,1.96s-3.82-.66-5.17-1.97c-1.35-1.31-2.03-3.18-2.03-5.59v-9.38h3.74v9.26c0,1.34.31,2.4.94,3.18Z"/><path class="cls-7" d="m610.63,871.93c-.36.3-.54.69-.54,1.18s.22.88.66,1.16c.44.29,1.46.63,3.05,1.02,1.59.39,2.83.98,3.71,1.76.88.78,1.32,1.93,1.32,3.43s-.56,2.72-1.69,3.66c-1.13.94-2.61,1.4-4.45,1.4-2.66,0-5.05-.98-7.18-2.95l2.23-2.74c1.81,1.58,3.48,2.38,5.02,2.38.69,0,1.23-.15,1.62-.44.39-.3.59-.7.59-1.2s-.21-.9-.62-1.2c-.42-.3-1.24-.6-2.47-.9-1.95-.46-3.38-1.07-4.28-1.81-.9-.74-1.36-1.91-1.36-3.5s.57-2.82,1.72-3.68c1.14-.86,2.57-1.3,4.28-1.3,1.12,0,2.24.19,3.36.58,1.12.38,2.1.93,2.93,1.63l-1.9,2.74c-1.46-1.1-2.96-1.66-4.51-1.66-.62,0-1.12.15-1.48.44Z"/><path class="cls-7" d="m634.83,870.77c1.6,1.46,2.4,3.5,2.4,6.11s-.78,4.67-2.34,6.19c-1.56,1.52-3.94,2.28-7.14,2.28h-5.74v-16.78h5.93c2.99,0,5.29.73,6.89,2.2Zm-2.75,9.97c.92-.86,1.38-2.12,1.38-3.77s-.46-2.92-1.38-3.8c-.92-.89-2.33-1.33-4.24-1.33h-2.09v10.2h2.38c1.71,0,3.03-.43,3.95-1.3Z"/><path class="cls-7" d="m651.94,885.35l-1.56-3.62h-7.03l-1.56,3.62h-3.98l7.25-16.78h3.62l7.25,16.78h-3.98Zm-5.06-11.78l-2.11,4.87h4.2l-2.09-4.87Z"/><path class="cls-7" d="m609.58,909.99v-3.19h10.27v2.59l-3.43,3.91c1.34.22,2.38.79,3.12,1.69.74.9,1.1,1.95,1.1,3.13,0,1.76-.6,3.14-1.79,4.14-1.19,1-2.72,1.5-4.57,1.5s-3.74-.66-5.64-1.97l1.54-2.98c1.58,1.12,3,1.68,4.25,1.68.75,0,1.37-.18,1.86-.55s.73-.9.73-1.6-.28-1.25-.84-1.66c-.56-.41-1.34-.61-2.33-.61-.53,0-1.27.15-2.23.46v-2.76l3.22-3.79h-5.26Z"/><path class="cls-7" d="m630.22,917.48l4.27-10.68h4.06l-6.74,16.78h-3.17l-6.74-16.78h4.06l4.27,10.68Z"/><path class="cls-7" d="m640.28,909.99v-3.19h10.27v2.59l-3.43,3.91c1.34.22,2.38.79,3.12,1.69.74.9,1.1,1.95,1.1,3.13,0,1.76-.6,3.14-1.79,4.14-1.19,1-2.72,1.5-4.57,1.5s-3.74-.66-5.64-1.97l1.54-2.98c1.58,1.12,3,1.68,4.25,1.68.75,0,1.37-.18,1.86-.55s.73-.9.73-1.6-.28-1.25-.84-1.66c-.56-.41-1.34-.61-2.33-.61-.53,0-1.27.15-2.23.46v-2.76l3.22-3.79h-5.26Z"/><path class="cls-7" d="m889.83,959.56h-2.79v-8.99h2.27l3.42,3c.2-1.18.69-2.09,1.48-2.73.79-.64,1.71-.97,2.74-.97,1.54,0,2.75.52,3.62,1.56s1.31,2.38,1.31,4-.57,3.27-1.72,4.94l-2.6-1.34c.98-1.39,1.47-2.62,1.47-3.72,0-.66-.16-1.2-.48-1.63s-.79-.64-1.4-.64-1.09.25-1.45.74c-.36.49-.54,1.17-.54,2.04,0,.46.13,1.11.4,1.95h-2.42l-3.32-2.81v4.6Z"/><path class="cls-7" d="m896.38,941.5l-9.34-3.74v-3.55l14.68,5.9v2.77l-14.68,5.9v-3.55l9.34-3.74Z"/><path class="cls-7" d="m889.83,932.7h-2.79v-8.99h2.27l3.42,3c.2-1.18.69-2.09,1.48-2.73.79-.64,1.71-.97,2.74-.97,1.54,0,2.75.52,3.62,1.56s1.31,2.38,1.31,4-.57,3.27-1.72,4.94l-2.6-1.34c.98-1.39,1.47-2.62,1.47-3.72,0-.66-.16-1.2-.48-1.63s-.79-.64-1.4-.64-1.09.25-1.45.74c-.36.49-.54,1.17-.54,2.04,0,.46.13,1.11.4,1.95h-2.42l-3.32-2.81v4.6Z"/><path class="cls-7" d="m1085.01,953.69v-3.3h5.21c1.62,1.46,2.44,3.47,2.44,6.05,0,2.16-.71,3.97-2.14,5.43-1.43,1.46-3.23,2.19-5.41,2.19s-3.99-.75-5.45-2.24c-1.46-1.49-2.18-3.29-2.18-5.4s.69-3.94,2.08-5.49l2.46,1.7c-.57.66-.97,1.26-1.19,1.82-.22.55-.33,1.15-.33,1.79,0,1.25.42,2.3,1.27,3.15.85.85,1.96,1.28,3.35,1.28s2.5-.41,3.33-1.23c.83-.82,1.25-1.8,1.25-2.93s-.22-2.08-.65-2.83h-4.03Z"/><path class="cls-7" d="m1077.81,937.2v-3.28h14.68v3.28l-9.2,6.99h9.2v3.28h-14.68v-3.07l9.45-7.2h-9.45Z"/><path class="cls-7" d="m1079.73,919.1c1.28-1.4,3.06-2.1,5.34-2.1s4.09.68,5.42,2.05,2,3.45,2,6.25v5.02h-14.68v-5.19c0-2.62.64-4.63,1.92-6.03Zm8.73,2.4c-.76-.8-1.85-1.21-3.3-1.21s-2.55.4-3.33,1.21c-.78.8-1.17,2.04-1.17,3.71v1.83h8.92v-2.08c0-1.5-.38-2.65-1.13-3.45Z"/><path class="cls-7" d="m1041.9,953.06c0-1.61-.64-2.93-1.91-3.95l2.16-2.1c1.88,1.67,2.81,3.63,2.81,5.89s-.71,4.12-2.14,5.59c-1.43,1.46-3.23,2.19-5.41,2.19s-3.99-.75-5.45-2.24c-1.46-1.49-2.18-3.31-2.18-5.47,0-2.41.92-4.42,2.75-6.05l2.31,2.04c-1.29,1.04-1.93,2.32-1.93,3.86,0,1.23.4,2.29,1.21,3.16.81.88,1.89,1.31,3.25,1.31s2.46-.41,3.29-1.24,1.24-1.83,1.24-3Z"/><path class="cls-7" d="m1044.8,944.43h-14.68v-3.28h11.76v-6.26h2.92v9.53Z"/><path class="cls-7" d="m1030.12,932.5v-3.28h6.03l-6.03-5.54v-4.05l6.49,5.84c.7-.5,2.01-1.44,3.92-2.79,1.91-1.36,3.34-2.37,4.27-3.04v3.82l-5.8,4.31,1.64,1.47h4.16v3.28h-14.68Z"/><path class="cls-7" d="m997.27,951.19c0,2.03-.69,3.55-2.07,4.56-1.38,1.01-3.22,1.51-5.52,1.51s-4.14-.5-5.52-1.51c-1.38-1.01-2.07-2.53-2.07-4.56s.69-3.55,2.07-4.56,3.22-1.51,5.52-1.51,4.14.5,5.52,1.51,2.07,2.53,2.07,4.56Zm-11.13,2.16c.9.46,2.08.69,3.55.69s2.65-.23,3.55-.69c.9-.46,1.34-1.18,1.34-2.16s-.45-1.7-1.34-2.16c-.9-.46-2.08-.69-3.55-.69s-2.65.23-3.55.69c-.9.46-1.34,1.18-1.34,2.16s.45,1.7,1.34,2.16Z"/><path class="cls-7" d="m982.42,942.14v-3.28h14.68v3.28h-14.68Z"/><path class="cls-7" d="m997.27,929.81c0,2.03-.69,3.55-2.07,4.56-1.38,1.01-3.22,1.51-5.52,1.51s-4.14-.5-5.52-1.51c-1.38-1.01-2.07-2.53-2.07-4.56s.69-3.55,2.07-4.56,3.22-1.51,5.52-1.51,4.14.5,5.52,1.51,2.07,2.53,2.07,4.56Zm-11.13,2.16c.9.46,2.08.69,3.55.69s2.65-.23,3.55-.69c.9-.46,1.34-1.18,1.34-2.16s-.45-1.7-1.34-2.16c-.9-.46-2.08-.69-3.55-.69s-2.65.23-3.55.69c-.9.46-1.34,1.18-1.34,2.16s.45,1.7,1.34,2.16Z"/><path class="cls-7" d="m939.6,947.44c2.35,0,3.87.93,4.56,2.79l5.25-3.72v4.03l-4.68,3.26v2.27h4.68v3.28h-14.68v-5.57c0-2.28.38-3.91,1.15-4.88.77-.97,2.01-1.46,3.72-1.46Zm1.74,3.95c-.36-.41-.94-.61-1.73-.61s-1.33.21-1.63.63-.44,1.16-.44,2.21v2.46h4.35v-2.39c0-1.12-.18-1.88-.55-2.29Z"/><path class="cls-7" d="m937.66,940.65c.26.31.6.47,1.03.47s.77-.19,1.02-.58c.25-.38.55-1.27.89-2.67.34-1.39.86-2.47,1.54-3.24.69-.77,1.69-1.16,3-1.16s2.38.49,3.2,1.48,1.23,2.29,1.23,3.9c0,2.32-.86,4.42-2.58,6.28l-2.39-1.95c1.39-1.58,2.08-3.04,2.08-4.39,0-.6-.13-1.07-.39-1.42-.26-.34-.61-.51-1.05-.51s-.79.18-1.05.55c-.26.36-.52,1.09-.79,2.16-.41,1.71-.93,2.96-1.59,3.75-.65.79-1.67,1.19-3.07,1.19s-2.47-.5-3.22-1.5-1.13-2.25-1.13-3.75c0-.98.17-1.96.5-2.94.34-.98.81-1.83,1.43-2.56l2.39,1.66c-.97,1.27-1.45,2.59-1.45,3.95,0,.55.13.98.39,1.29Z"/><path class="cls-7" d="m937.57,924.6h11.84v3.28h-11.84v4.16h-2.83v-11.59h2.83v4.16Z"/><path class="cls-7" d="m1030.12,805.68v-5.94h14.68v3.15h-11.89v2.79h-2.79Z"/><path class="cls-7" d="m1030.12,797.21v-5.94h14.68v3.15h-11.89v2.79h-2.79Z"/><path class="cls-7" d="m994.46,798.69c0-.91-.3-1.61-.91-2.11-.61-.5-1.44-.8-2.49-.91.6.9.9,1.86.9,2.9,0,1.37-.45,2.52-1.35,3.43-.9.92-2.1,1.38-3.58,1.38s-2.68-.49-3.58-1.48c-.9-.99-1.35-2.23-1.35-3.73,0-1.04.2-1.94.6-2.7.4-.76.96-1.36,1.67-1.8,1.39-.83,3.12-1.24,5.21-1.24,1.34,0,2.52.17,3.54.49,1.02.33,1.82.77,2.41,1.33,1.18,1.15,1.76,2.54,1.76,4.18,0,.69-.1,1.34-.3,1.97-.2.63-.41,1.11-.61,1.43s-.47.69-.79,1.11l-2.31-1.64c.08-.1.19-.23.33-.39s.31-.47.54-.93c.22-.46.34-.9.34-1.3Zm-5.29-.45c0-.65-.19-1.19-.57-1.63-.38-.43-.88-.65-1.49-.65s-1.15.21-1.6.63-.67.95-.67,1.58.2,1.14.6,1.54c.4.4.91.6,1.52.6s1.14-.18,1.56-.55c.43-.36.64-.87.64-1.52Z"/><path class="cls-7" d="m934.73,808.69v-5.94h14.68v3.15h-11.89v2.79h-2.79Z"/><path class="cls-7" d="m949.58,793.63c0,2.03-.69,3.55-2.07,4.56-1.38,1.01-3.22,1.51-5.52,1.51s-4.14-.5-5.52-1.51c-1.38-1.01-2.07-2.53-2.07-4.56s.69-3.55,2.07-4.56,3.22-1.51,5.52-1.51,4.14.5,5.52,1.51,2.07,2.53,2.07,4.56Zm-11.13,2.16c.9.46,2.08.69,3.55.69s2.65-.23,3.55-.69c.9-.46,1.34-1.18,1.34-2.16s-.45-1.7-1.34-2.16c-.9-.46-2.08-.69-3.55-.69s-2.65.23-3.55.69c-.9.46-1.34,1.18-1.34,2.16s.45,1.7,1.34,2.16Z"/><path class="cls-7" d="m1085.01,811.05v-3.3h5.21c1.62,1.46,2.44,3.47,2.44,6.05,0,2.16-.71,3.97-2.14,5.43-1.43,1.46-3.23,2.19-5.41,2.19s-3.99-.75-5.45-2.24c-1.46-1.49-2.18-3.29-2.18-5.4s.69-3.94,2.08-5.49l2.46,1.7c-.57.66-.97,1.26-1.19,1.82-.22.55-.33,1.15-.33,1.79,0,1.25.42,2.3,1.27,3.15.85.85,1.96,1.28,3.35,1.28s2.5-.41,3.33-1.23c.83-.82,1.25-1.8,1.25-2.93s-.22-2.08-.65-2.83h-4.03Z"/><path class="cls-7" d="m1077.81,794.57v-3.28h14.68v3.28l-9.2,6.99h9.2v3.28h-14.68v-3.07l9.45-7.2h-9.45Z"/><path class="cls-7" d="m1079.73,776.47c1.28-1.4,3.06-2.1,5.34-2.1s4.09.68,5.42,2.05,2,3.45,2,6.25v5.02h-14.68v-5.19c0-2.62.64-4.63,1.92-6.03Zm8.73,2.4c-.76-.8-1.85-1.21-3.3-1.21s-2.55.4-3.33,1.21c-.78.8-1.17,2.04-1.17,3.71v1.83h8.92v-2.08c0-1.5-.38-2.65-1.13-3.45Z"/><path class="cls-7" d="m889.83,815.92h-2.79v-8.99h2.27l3.42,3c.2-1.18.69-2.09,1.48-2.73.79-.64,1.71-.97,2.74-.97,1.54,0,2.75.52,3.62,1.56s1.31,2.38,1.31,4-.57,3.27-1.72,4.94l-2.6-1.34c.98-1.39,1.47-2.62,1.47-3.72,0-.66-.16-1.2-.48-1.63s-.79-.64-1.4-.64-1.09.25-1.45.74c-.36.49-.54,1.17-.54,2.04,0,.46.13,1.11.4,1.95h-2.42l-3.32-2.81v4.6Z"/><path class="cls-7" d="m896.38,797.86l-9.34-3.74v-3.55l14.68,5.9v2.77l-14.68,5.9v-3.55l9.34-3.74Z"/><path class="cls-7" d="m889.83,789.07h-2.79v-8.99h2.27l3.42,3c.2-1.18.69-2.09,1.48-2.73.79-.64,1.71-.97,2.74-.97,1.54,0,2.75.52,3.62,1.56s1.31,2.38,1.31,4-.57,3.27-1.72,4.94l-2.6-1.34c.98-1.39,1.47-2.62,1.47-3.72,0-.66-.16-1.2-.48-1.63s-.79-.64-1.4-.64-1.09.25-1.45.74c-.36.49-.54,1.17-.54,2.04,0,.46.13,1.11.4,1.95h-2.42l-3.32-2.81v4.6Z"/><path class="cls-7" d="m615.15,950.12h3.77v5.95c-1.66,1.86-3.97,2.78-6.91,2.78-2.46,0-4.53-.82-6.2-2.45-1.67-1.63-2.51-3.69-2.51-6.18s.85-4.56,2.56-6.23,3.76-2.5,6.17-2.5,4.5.79,6.28,2.38l-1.94,2.81c-.75-.66-1.44-1.11-2.08-1.36s-1.32-.37-2.05-.37c-1.42,0-2.62.48-3.6,1.45-.98.97-1.46,2.24-1.46,3.83s.47,2.85,1.4,3.8c.94.95,2.05,1.43,3.35,1.43s2.38-.25,3.24-.74v-4.61Z"/><path class="cls-7" d="m633.99,941.89h3.74v16.78h-3.74l-7.99-10.51v10.51h-3.74v-16.78h3.5l8.23,10.8v-10.8Z"/><path class="cls-7" d="m654.68,944.08c1.6,1.46,2.4,3.5,2.4,6.11s-.78,4.67-2.34,6.19c-1.56,1.52-3.94,2.28-7.14,2.28h-5.74v-16.78h5.93c2.99,0,5.29.73,6.89,2.2Zm-2.75,9.97c.92-.86,1.38-2.12,1.38-3.77s-.46-2.92-1.38-3.8c-.92-.89-2.33-1.33-4.24-1.33h-2.09v10.2h2.38c1.71,0,3.03-.43,3.95-1.3Z"/><path class="cls-7" d="m864.26,548.06l-1.56-3.62h-7.03l-1.56,3.62h-3.98l7.25-16.78h3.62l7.25,16.78h-3.98Zm-5.06-11.78l-2.11,4.87h4.2l-2.09-4.87Z"/><path class="cls-7" d="m875.74,540.81v-2.93h3.6v2.93h1.9v3.24h-1.9v4.01h-3.6v-4.01h-6.74v-2.86l5.98-9.91h4.08l-5.69,9.53h2.38Z"/><path class="cls-7" d="m864.17,584.11l-1.56-3.62h-7.03l-1.56,3.62h-3.98l7.25-16.78h3.62l7.25,16.78h-3.98Zm-5.06-11.78l-2.11,4.87h4.2l-2.09-4.87Z"/><path class="cls-7" d="m880.18,567.34v3.24h-6.62v2.81c.5-.14,1.06-.22,1.7-.22,1.62,0,3.01.49,4.18,1.46,1.17.98,1.75,2.29,1.75,3.95s-.6,3.02-1.81,4.1-2.7,1.62-4.48,1.62c-2.27,0-4.17-.84-5.69-2.52l1.97-2.74c.14.14.34.32.58.53.24.21.68.48,1.32.83.64.34,1.28.52,1.92.52s1.21-.19,1.7-.58c.5-.38.74-.95.74-1.7s-.27-1.33-.8-1.74-1.23-.61-2.08-.61-1.83.3-2.95.91l-1.56-1.68v-8.18h10.13Z"/><path class="cls-7" d="m845.6,608.75v-3.19h10.27v2.59l-3.43,3.91c1.34.22,2.38.79,3.12,1.69.74.9,1.1,1.95,1.1,3.13,0,1.76-.6,3.14-1.79,4.14-1.19,1-2.72,1.5-4.57,1.5s-3.74-.66-5.64-1.97l1.54-2.98c1.58,1.12,3,1.68,4.25,1.68.75,0,1.37-.18,1.86-.55s.73-.9.73-1.6-.28-1.25-.84-1.66c-.56-.41-1.34-.61-2.33-.61-.53,0-1.27.15-2.23.46v-2.76l3.22-3.79h-5.26Z"/><path class="cls-7" d="m866.24,616.24l4.27-10.68h4.06l-6.74,16.78h-3.17l-6.74-16.78h4.06l4.27,10.68Z"/><path class="cls-7" d="m876.3,608.75v-3.19h10.27v2.59l-3.43,3.91c1.34.22,2.38.79,3.12,1.69.74.9,1.1,1.95,1.1,3.13,0,1.76-.6,3.14-1.79,4.14-1.19,1-2.72,1.5-4.57,1.5s-3.74-.66-5.64-1.97l1.54-2.98c1.58,1.12,3,1.68,4.25,1.68.75,0,1.37-.18,1.86-.55s.73-.9.73-1.6-.28-1.25-.84-1.66c-.56-.41-1.34-.61-2.33-.61-.53,0-1.27.15-2.23.46v-2.76l3.22-3.79h-5.26Z"/><path class="cls-7" d="m851.17,648.88h3.77v5.95c-1.66,1.86-3.97,2.78-6.91,2.78-2.46,0-4.53-.82-6.2-2.45-1.67-1.63-2.51-3.69-2.51-6.18s.85-4.56,2.56-6.23,3.76-2.5,6.17-2.5,4.5.79,6.28,2.38l-1.94,2.81c-.75-.66-1.44-1.11-2.08-1.36s-1.32-.37-2.05-.37c-1.42,0-2.62.48-3.6,1.45-.98.97-1.46,2.24-1.46,3.83s.47,2.85,1.4,3.8c.94.95,2.05,1.43,3.35,1.43s2.38-.25,3.24-.74v-4.61Z"/><path class="cls-7" d="m870.01,640.64h3.74v16.78h-3.74l-7.99-10.51v10.51h-3.74v-16.78h3.5l8.23,10.8v-10.8Z"/><path class="cls-7" d="m890.7,642.84c1.6,1.46,2.4,3.5,2.4,6.11s-.78,4.67-2.34,6.19c-1.56,1.52-3.94,2.28-7.14,2.28h-5.74v-16.78h5.93c2.99,0,5.29.73,6.89,2.2Zm-2.75,9.97c.92-.86,1.38-2.12,1.38-3.77s-.46-2.92-1.38-3.8c-.92-.89-2.33-1.33-4.24-1.33h-2.09v10.2h2.38c1.71,0,3.03-.43,3.95-1.3Z"/><path class="cls-7" d="m1043.44,548.06l-1.56-3.62h-7.03l-1.56,3.62h-3.98l7.25-16.78h3.62l7.25,16.78h-3.98Zm-5.06-11.78l-2.11,4.87h4.2l-2.09-4.87Z"/><path class="cls-7" d="m1055.8,534.11c-1.04,0-1.84.35-2.41,1.04-.57.7-.92,1.64-1.04,2.84,1.04-.67,2.14-1.01,3.31-1.01,1.57,0,2.88.51,3.92,1.54,1.05,1.02,1.57,2.39,1.57,4.09s-.56,3.07-1.69,4.09c-1.13,1.02-2.55,1.54-4.26,1.54-1.18,0-2.21-.23-3.08-.68s-1.55-1.09-2.03-1.91c-.96-1.58-1.44-3.57-1.44-5.95,0-1.54.19-2.88.56-4.04.38-1.16.89-2.08,1.55-2.75,1.28-1.34,2.86-2.02,4.75-2.02.78,0,1.53.12,2.24.35.71.23,1.26.47,1.64.71.38.24.81.54,1.27.91l-1.78,2.64c-.1-.1-.24-.22-.42-.38s-.55-.37-1.09-.62-1.07-.38-1.58-.38Zm-.49,6.05c-.74,0-1.37.22-1.87.66-.5.44-.76,1.01-.76,1.72s.24,1.31.72,1.81c.48.5,1.08.76,1.8.76s1.32-.22,1.8-.67c.48-.45.72-1.03.72-1.74s-.22-1.31-.65-1.8c-.43-.49-1.02-.73-1.76-.73Z"/><path class="cls-7" d="m1044.05,584.11l-1.56-3.62h-7.03l-1.56,3.62h-3.98l7.25-16.78h3.62l7.25,16.78h-3.98Zm-5.06-11.78l-2.11,4.87h4.2l-2.09-4.87Z"/><path class="cls-7" d="m1049.04,572.71v-5.38h12.12v2.83l-6.79,13.94h-4.08l6.48-13.56h-4.22v2.16h-3.5Z"/><path class="cls-7" d="m1025.29,608.75v-3.19h10.27v2.59l-3.43,3.91c1.34.22,2.38.79,3.12,1.69.74.9,1.1,1.95,1.1,3.13,0,1.76-.6,3.14-1.79,4.14-1.19,1-2.72,1.5-4.57,1.5s-3.74-.66-5.64-1.97l1.54-2.98c1.58,1.12,3,1.68,4.25,1.68.75,0,1.37-.18,1.86-.55s.73-.9.73-1.6-.28-1.25-.84-1.66c-.56-.41-1.34-.61-2.33-.61-.53,0-1.27.15-2.23.46v-2.76l3.22-3.79h-5.26Z"/><path class="cls-7" d="m1045.92,616.24l4.27-10.68h4.06l-6.74,16.78h-3.17l-6.74-16.78h4.06l4.27,10.68Z"/><path class="cls-7" d="m1055.98,608.75v-3.19h10.27v2.59l-3.43,3.91c1.34.22,2.38.79,3.12,1.69.74.9,1.1,1.95,1.1,3.13,0,1.76-.6,3.14-1.79,4.14-1.19,1-2.72,1.5-4.57,1.5s-3.74-.66-5.64-1.97l1.54-2.98c1.58,1.12,3,1.68,4.25,1.68.75,0,1.37-.18,1.86-.55s.73-.9.73-1.6-.28-1.25-.84-1.66c-.56-.41-1.34-.61-2.33-.61-.53,0-1.27.15-2.23.46v-2.76l3.22-3.79h-5.26Z"/><path class="cls-7" d="m1030.85,648.88h3.77v5.95c-1.66,1.86-3.97,2.78-6.91,2.78-2.46,0-4.53-.82-6.2-2.45-1.67-1.63-2.51-3.69-2.51-6.18s.85-4.56,2.56-6.23,3.76-2.5,6.17-2.5,4.5.79,6.28,2.38l-1.94,2.81c-.75-.66-1.44-1.11-2.08-1.36s-1.32-.37-2.05-.37c-1.42,0-2.62.48-3.6,1.45-.98.97-1.46,2.24-1.46,3.83s.47,2.85,1.4,3.8c.94.95,2.05,1.43,3.35,1.43s2.38-.25,3.24-.74v-4.61Z"/><path class="cls-7" d="m1049.69,640.64h3.74v16.78h-3.74l-7.99-10.51v10.51h-3.74v-16.78h3.5l8.23,10.8v-10.8Z"/><path class="cls-7" d="m1070.38,642.84c1.6,1.46,2.4,3.5,2.4,6.11s-.78,4.67-2.34,6.19c-1.56,1.52-3.94,2.28-7.14,2.28h-5.74v-16.78h5.93c2.99,0,5.29.73,6.89,2.2Zm-2.75,9.97c.92-.86,1.38-2.12,1.38-3.77s-.46-2.92-1.38-3.8c-.92-.89-2.33-1.33-4.24-1.33h-2.09v10.2h2.38c1.71,0,3.03-.43,3.95-1.3Z"/><path class="cls-7" d="m360.53,135.22c1.87,1.71,2.8,4.08,2.8,7.13s-.91,5.45-2.73,7.22c-1.82,1.77-4.6,2.66-8.33,2.66h-6.69v-19.57h6.92c3.49,0,6.17.85,8.04,2.56Zm-3.21,11.63c1.07-1.01,1.61-2.47,1.61-4.4s-.54-3.4-1.61-4.44c-1.07-1.04-2.72-1.55-4.94-1.55h-2.44v11.9h2.77c2,0,3.53-.5,4.61-1.51Z"/><path class="cls-7" d="m378.87,132.66v3.78h-7.73v3.28c.58-.17,1.24-.25,1.99-.25,1.89,0,3.51.57,4.87,1.71s2.04,2.67,2.04,4.61-.7,3.53-2.11,4.79c-1.41,1.26-3.15,1.89-5.22,1.89-2.65,0-4.86-.98-6.64-2.94l2.3-3.19c.17.17.39.37.67.62.28.24.79.56,1.54.97.75.4,1.49.6,2.24.6s1.41-.22,1.99-.67c.58-.45.87-1.11.87-1.99s-.31-1.55-.94-2.03c-.63-.48-1.43-.71-2.42-.71s-2.14.35-3.44,1.06l-1.82-1.96v-9.55h11.82Z"/><path class="cls-7" d="m538.83,135.22c1.87,1.71,2.8,4.08,2.8,7.13s-.91,5.45-2.73,7.22c-1.82,1.77-4.6,2.66-8.33,2.66h-6.69v-19.57h6.92c3.49,0,6.17.85,8.04,2.56Zm-3.21,11.63c1.07-1.01,1.61-2.47,1.61-4.4s-.54-3.4-1.61-4.44c-1.07-1.04-2.72-1.55-4.94-1.55h-2.44v11.9h2.77c2,0,3.53-.5,4.61-1.51Z"/><path class="cls-7" d="m543.87,132.66h7.92v19.57h-4.2v-15.85h-3.72v-3.72Z"/><path class="cls-7" d="m564.2,135.96c-1.21,0-2.15.41-2.81,1.22-.66.81-1.07,1.92-1.22,3.32,1.21-.78,2.5-1.18,3.86-1.18,1.83,0,3.36.6,4.58,1.79,1.22,1.2,1.83,2.79,1.83,4.77s-.66,3.58-1.97,4.77c-1.32,1.2-2.97,1.79-4.97,1.79-1.38,0-2.58-.27-3.6-.8-1.02-.53-1.81-1.27-2.37-2.23-1.12-1.85-1.68-4.16-1.68-6.94,0-1.79.22-3.36.66-4.72s1.04-2.42,1.81-3.21c1.49-1.57,3.34-2.35,5.54-2.35.91,0,1.79.13,2.62.41.83.27,1.47.55,1.92.83.45.28.94.63,1.48,1.06l-2.07,3.08c-.11-.11-.28-.26-.49-.45-.21-.19-.64-.43-1.27-.73-.63-.3-1.25-.45-1.85-.45Zm-.57,7.06c-.87,0-1.6.26-2.18.77-.59.51-.88,1.18-.88,2s.28,1.53.84,2.11c.56.59,1.26.88,2.1.88s1.54-.26,2.1-.78c.56-.52.84-1.2.84-2.03s-.25-1.53-.76-2.1c-.5-.57-1.19-.85-2.06-.85Z"/><path class="cls-7" d="m723.09,135.22c1.87,1.71,2.8,4.08,2.8,7.13s-.91,5.45-2.73,7.22c-1.82,1.77-4.6,2.66-8.33,2.66h-6.69v-19.57h6.92c3.49,0,6.17.85,8.04,2.56Zm-3.21,11.63c1.07-1.01,1.61-2.47,1.61-4.4s-.54-3.4-1.61-4.44c-1.07-1.04-2.72-1.55-4.94-1.55h-2.44v11.9h2.77c2,0,3.53-.5,4.61-1.51Z"/><path class="cls-7" d="m728.13,132.66h7.92v19.57h-4.2v-15.85h-3.72v-3.72Z"/><path class="cls-7" d="m742.67,133.75c1.3-1.03,2.92-1.54,4.86-1.54s3.56.51,4.84,1.54c1.29,1.03,1.93,2.29,1.93,3.79s-.58,2.79-1.74,3.88c1.62,1.25,2.44,2.89,2.44,4.93,0,1.72-.69,3.16-2.07,4.34-1.38,1.18-3.18,1.76-5.4,1.76s-4.02-.59-5.4-1.76c-1.38-1.18-2.07-2.62-2.07-4.34,0-2.03.81-3.68,2.44-4.93-1.18-1.1-1.76-2.4-1.76-3.89s.65-2.75,1.95-3.78Zm2.73,14.41c.65.44,1.36.66,2.13.66s1.47-.22,2.13-.66c.65-.44.98-1.08.98-1.92s-.32-1.48-.95-1.93-1.35-.67-2.16-.67-1.52.22-2.16.67-.95,1.09-.95,1.93.33,1.48.98,1.92Zm.27-8.55c.53.45,1.15.67,1.86.67s1.33-.22,1.86-.67c.53-.45.8-1,.8-1.67s-.26-1.22-.78-1.67c-.52-.45-1.15-.67-1.88-.67s-1.35.22-1.88.67c-.52.45-.78,1-.78,1.67s.27,1.22.8,1.67Z"/><path class="cls-7" d="m959.69,152.23l-1.82-4.23h-8.2l-1.82,4.23h-4.65l8.46-19.57h4.23l8.46,19.57h-4.65Zm-5.91-13.75l-2.46,5.68h4.9l-2.44-5.68Z"/><path class="cls-7" d="m973.86,152.45c-2.71,0-4.73-.92-6.08-2.76-1.34-1.84-2.02-4.29-2.02-7.36s.67-5.52,2.02-7.36,3.37-2.76,6.08-2.76,4.73.92,6.08,2.76c1.34,1.84,2.02,4.29,2.02,7.36s-.67,5.53-2.02,7.36c-1.34,1.84-3.37,2.76-6.08,2.76Zm-2.88-14.84c-.62,1.2-.92,2.77-.92,4.73s.31,3.54.92,4.73c.62,1.2,1.58,1.79,2.88,1.79s2.27-.6,2.88-1.79c.62-1.19.92-2.77.92-4.73s-.31-3.54-.92-4.73c-.62-1.19-1.58-1.79-2.88-1.79s-2.27.6-2.88,1.79Z"/><path class="cls-7" d="m1145.31,152.23l-1.82-4.23h-8.2l-1.82,4.23h-4.65l8.46-19.57h4.23l8.46,19.57h-4.65Zm-5.91-13.75l-2.46,5.68h4.9l-2.44-5.68Z"/><path class="cls-7" d="m1159.66,140.29c.49-.7.74-1.38.74-2.03s-.21-1.2-.64-1.64c-.43-.44-.98-.66-1.65-.66-1.23,0-2.4.88-3.5,2.63l-3.5-2.07c.91-1.42,1.92-2.49,3.01-3.22,1.09-.73,2.48-1.09,4.17-1.09s3.17.54,4.45,1.61c1.28,1.07,1.92,2.53,1.92,4.38,0,1.01-.26,1.97-.77,2.9-.51.92-1.46,2.1-2.84,3.54l-3.53,3.67h7.73v3.92h-13.8v-3.25l5.74-5.88c1.16-1.18,1.98-2.11,2.48-2.81Z"/><path class="cls-7" d="m159.17,451.16c.73.91,1.71,1.36,2.94,1.36s2.21-.45,2.93-1.36,1.08-2.14,1.08-3.71v-10.81h4.37v10.95c0,2.84-.78,5.02-2.35,6.54-1.57,1.52-3.57,2.28-6.02,2.28s-4.46-.77-6.03-2.3c-1.58-1.53-2.37-3.71-2.37-6.52v-10.95h4.37v10.81c0,1.57.36,2.8,1.09,3.71Z"/><path class="cls-7" d="m188.45,456.22l-1.82-4.23h-8.2l-1.82,4.23h-4.65l8.46-19.57h4.23l8.46,19.57h-4.65Zm-5.91-13.75l-2.46,5.68h4.9l-2.44-5.68Z"/><path class="cls-7" d="m211.25,443.14c0,3.14-1.24,5.16-3.72,6.08l4.96,7h-5.38l-4.34-6.24h-3.02v6.24h-4.37v-19.57h7.42c3.04,0,5.21.51,6.51,1.54,1.3,1.03,1.95,2.68,1.95,4.96Zm-5.26,2.32c.54-.49.81-1.25.81-2.31s-.28-1.78-.84-2.17c-.56-.39-1.54-.59-2.94-.59h-3.28v5.8h3.19c1.49,0,2.51-.24,3.05-.73Z"/><path class="cls-7" d="m223.62,440.42v15.79h-4.37v-15.79h-5.54v-3.78h15.46v3.78h-5.54Z"/><path class="cls-7" d="m351.93,439.21c1.87,1.71,2.8,4.08,2.8,7.13s-.91,5.45-2.73,7.22c-1.82,1.77-4.6,2.66-8.33,2.66h-6.69v-19.57h6.92c3.49,0,6.17.85,8.04,2.56Zm-3.21,11.63c1.07-1.01,1.61-2.47,1.61-4.4s-.54-3.4-1.61-4.44c-1.07-1.04-2.72-1.55-4.94-1.55h-2.44v11.9h2.77c2,0,3.53-.5,4.61-1.51Z"/><path class="cls-7" d="m365.94,444.27c.49-.7.74-1.38.74-2.03s-.21-1.2-.64-1.64c-.43-.44-.98-.66-1.65-.66-1.23,0-2.4.88-3.5,2.63l-3.5-2.07c.91-1.42,1.92-2.49,3.01-3.22,1.09-.73,2.48-1.09,4.17-1.09s3.17.54,4.45,1.61c1.28,1.07,1.92,2.53,1.92,4.38,0,1.01-.26,1.97-.77,2.9-.51.92-1.46,2.1-2.84,3.54l-3.53,3.67h7.73v3.92h-13.8v-3.25l5.74-5.88c1.16-1.18,1.98-2.11,2.48-2.81Z"/><path class="cls-7" d="m382.88,444.27c.49-.7.74-1.38.74-2.03s-.21-1.2-.64-1.64c-.43-.44-.98-.66-1.65-.66-1.23,0-2.4.88-3.5,2.63l-3.5-2.07c.91-1.42,1.92-2.49,3.01-3.22,1.09-.73,2.48-1.09,4.17-1.09s3.17.54,4.45,1.61c1.28,1.07,1.92,2.53,1.92,4.38,0,1.01-.26,1.97-.77,2.9-.51.92-1.46,2.1-2.84,3.54l-3.53,3.67h7.73v3.92h-13.8v-3.25l5.74-5.88c1.16-1.18,1.98-2.11,2.48-2.81Z"/><path class="cls-7" d="m536.59,439.21c1.87,1.71,2.8,4.08,2.8,7.13s-.91,5.45-2.73,7.22c-1.82,1.77-4.6,2.66-8.33,2.66h-6.69v-19.57h6.92c3.49,0,6.17.85,8.04,2.56Zm-3.21,11.63c1.07-1.01,1.61-2.47,1.61-4.4s-.54-3.4-1.61-4.44c-1.07-1.04-2.72-1.55-4.94-1.55h-2.44v11.9h2.77c2,0,3.53-.5,4.61-1.51Z"/><path class="cls-7" d="m550.61,444.27c.49-.7.74-1.38.74-2.03s-.21-1.2-.64-1.64c-.43-.44-.98-.66-1.65-.66-1.23,0-2.4.88-3.5,2.63l-3.5-2.07c.91-1.42,1.92-2.49,3.01-3.22,1.09-.73,2.48-1.09,4.17-1.09s3.17.54,4.45,1.61c1.28,1.07,1.92,2.53,1.92,4.38,0,1.01-.26,1.97-.77,2.9-.51.92-1.46,2.1-2.84,3.54l-3.53,3.67h7.73v3.92h-13.8v-3.25l5.74-5.88c1.16-1.18,1.98-2.11,2.48-2.81Z"/><path class="cls-7" d="m566.58,447.76v-3.42h4.2v3.42h2.21v3.78h-2.21v4.68h-4.2v-4.68h-7.87v-3.33l6.97-11.56h4.76l-6.64,11.12h2.77Z"/><path class="cls-7" d="m720.43,439.21c1.87,1.71,2.8,4.08,2.8,7.13s-.91,5.45-2.73,7.22c-1.82,1.77-4.6,2.66-8.33,2.66h-6.69v-19.57h6.92c3.49,0,6.17.85,8.04,2.56Zm-3.21,11.63c1.07-1.01,1.61-2.47,1.61-4.4s-.54-3.4-1.61-4.44c-1.07-1.04-2.72-1.55-4.94-1.55h-2.44v11.9h2.77c2,0,3.53-.5,4.61-1.51Z"/><path class="cls-7" d="m734.44,444.27c.49-.7.74-1.38.74-2.03s-.21-1.2-.64-1.64c-.43-.44-.98-.66-1.65-.66-1.23,0-2.4.88-3.5,2.63l-3.5-2.07c.91-1.42,1.92-2.49,3.01-3.22,1.09-.73,2.48-1.09,4.17-1.09s3.17.54,4.45,1.61c1.28,1.07,1.92,2.53,1.92,4.38,0,1.01-.26,1.97-.77,2.9-.51.92-1.46,2.1-2.84,3.54l-3.53,3.67h7.73v3.92h-13.8v-3.25l5.74-5.88c1.16-1.18,1.98-2.11,2.48-2.81Z"/><path class="cls-7" d="m751.45,439.95c-1.21,0-2.15.41-2.81,1.22-.66.81-1.07,1.92-1.22,3.32,1.21-.78,2.5-1.18,3.86-1.18,1.83,0,3.36.6,4.58,1.79,1.22,1.2,1.83,2.79,1.83,4.77s-.66,3.58-1.97,4.77c-1.32,1.2-2.97,1.79-4.97,1.79-1.38,0-2.58-.27-3.6-.8-1.02-.53-1.81-1.27-2.37-2.23-1.12-1.85-1.68-4.16-1.68-6.94,0-1.79.22-3.36.66-4.72s1.04-2.42,1.81-3.21c1.49-1.57,3.34-2.35,5.54-2.35.91,0,1.79.13,2.62.41.83.27,1.47.55,1.92.83.45.28.94.63,1.48,1.06l-2.07,3.08c-.11-.11-.28-.26-.49-.45-.21-.19-.64-.43-1.27-.73-.63-.3-1.25-.45-1.85-.45Zm-.57,7.06c-.87,0-1.6.26-2.18.77-.59.51-.88,1.18-.88,2s.28,1.53.84,2.11c.56.59,1.26.88,2.1.88s1.54-.26,2.1-.78c.56-.52.84-1.2.84-2.03s-.25-1.53-.76-2.1c-.5-.57-1.19-.85-2.06-.85Z"/><path class="cls-7" d="m341.37,742.43h4.37v19.57h-4.37v-19.57Z"/><path class="cls-7" d="m357.99,750.06c.49-.7.74-1.38.74-2.03s-.21-1.2-.64-1.64c-.43-.44-.98-.66-1.65-.66-1.23,0-2.4.88-3.5,2.63l-3.5-2.07c.91-1.42,1.92-2.49,3.01-3.22,1.09-.73,2.48-1.09,4.17-1.09s3.17.54,4.45,1.61c1.28,1.07,1.92,2.53,1.92,4.38,0,1.01-.26,1.97-.77,2.9-.51.92-1.46,2.1-2.84,3.54l-3.53,3.67h7.73v3.92h-13.8v-3.25l5.74-5.88c1.16-1.18,1.98-2.11,2.48-2.81Z"/><path class="cls-7" d="m376.49,758.14c2.15,0,3.9-.85,5.26-2.55l2.8,2.88c-2.22,2.5-4.84,3.75-7.85,3.75s-5.5-.95-7.45-2.86c-1.95-1.9-2.93-4.31-2.93-7.21s.99-5.32,2.98-7.27c1.99-1.94,4.42-2.91,7.29-2.91,3.21,0,5.9,1.22,8.06,3.67l-2.72,3.08c-1.38-1.72-3.1-2.58-5.15-2.58-1.64,0-3.05.54-4.21,1.61-1.17,1.07-1.75,2.52-1.75,4.34s.55,3.28,1.65,4.38,2.44,1.65,4,1.65Z"/><path class="cls-7" d="m525.8,742.43h4.37v19.57h-4.37v-19.57Z"/><path class="cls-7" d="m542.42,750.06c.49-.7.74-1.38.74-2.03s-.21-1.2-.64-1.64c-.43-.44-.98-.66-1.65-.66-1.23,0-2.4.88-3.5,2.63l-3.5-2.07c.91-1.42,1.92-2.49,3.01-3.22,1.09-.73,2.48-1.09,4.17-1.09s3.17.54,4.45,1.61c1.28,1.07,1.92,2.53,1.92,4.38,0,1.01-.26,1.97-.77,2.9-.51.92-1.46,2.1-2.84,3.54l-3.53,3.67h7.73v3.92h-13.8v-3.25l5.74-5.88c1.16-1.18,1.98-2.11,2.48-2.81Z"/><path class="cls-7" d="m560.91,758.14c2.15,0,3.9-.85,5.26-2.55l2.8,2.88c-2.22,2.5-4.84,3.75-7.85,3.75s-5.5-.95-7.45-2.86c-1.95-1.9-2.93-4.31-2.93-7.21s.99-5.32,2.98-7.27c1.99-1.94,4.42-2.91,7.29-2.91,3.21,0,5.9,1.22,8.06,3.67l-2.72,3.08c-1.38-1.72-3.1-2.58-5.15-2.58-1.64,0-3.05.54-4.21,1.61-1.17,1.07-1.75,2.52-1.75,4.34s.55,3.28,1.65,4.38,2.44,1.65,4,1.65Z"/><path class="cls-7" d="m710.22,742.43h4.37v19.57h-4.37v-19.57Z"/><path class="cls-7" d="m726.84,750.06c.49-.7.74-1.38.74-2.03s-.21-1.2-.64-1.64c-.43-.44-.98-.66-1.65-.66-1.23,0-2.4.88-3.5,2.63l-3.5-2.07c.91-1.42,1.92-2.49,3.01-3.22,1.09-.73,2.48-1.09,4.17-1.09s3.17.54,4.45,1.61c1.28,1.07,1.92,2.53,1.92,4.38,0,1.01-.26,1.97-.77,2.9-.51.92-1.46,2.1-2.84,3.54l-3.53,3.67h7.73v3.92h-13.8v-3.25l5.74-5.88c1.16-1.18,1.98-2.11,2.48-2.81Z"/><path class="cls-7" d="m745.33,758.14c2.15,0,3.9-.85,5.26-2.55l2.8,2.88c-2.22,2.5-4.84,3.75-7.85,3.75s-5.5-.95-7.45-2.86c-1.95-1.9-2.93-4.31-2.93-7.21s.99-5.32,2.98-7.27c1.99-1.94,4.42-2.91,7.29-2.91,3.21,0,5.9,1.22,8.06,3.67l-2.72,3.08c-1.38-1.72-3.1-2.58-5.15-2.58-1.64,0-3.05.54-4.21,1.61-1.17,1.07-1.75,2.52-1.75,4.34s.55,3.28,1.65,4.38,2.44,1.65,4,1.65Z"/><path class="cls-7" d="m963.01,979.92c-.42.35-.63.8-.63,1.37s.26,1.02.77,1.36,1.7.73,3.56,1.19c1.86.46,3.3,1.14,4.33,2.06s1.54,2.25,1.54,4-.66,3.18-1.97,4.27c-1.32,1.09-3.05,1.64-5.19,1.64-3.1,0-5.89-1.15-8.37-3.44l2.6-3.19c2.11,1.85,4.06,2.77,5.85,2.77.8,0,1.43-.17,1.89-.52.46-.34.69-.81.69-1.4s-.24-1.05-.73-1.4-1.45-.7-2.88-1.05c-2.28-.54-3.94-1.25-5-2.11-1.05-.87-1.58-2.23-1.58-4.09s.67-3.29,2-4.3c1.33-1.01,3-1.51,5-1.51,1.31,0,2.61.22,3.92.67s2.45,1.08,3.42,1.9l-2.21,3.19c-1.7-1.29-3.45-1.93-5.26-1.93-.73,0-1.3.17-1.72.52Z"/><path class="cls-7" d="m982.4,987.27l3.47-11.26h4.56l3.44,11.26,3.89-11.26h4.73l-6.83,19.57h-3.25l-4.28-13.61-4.26,13.61h-3.25l-6.83-19.57h4.73l3.86,11.26Z"/><path class="cls-7" d="m1019.78,978.57c1.87,1.71,2.8,4.08,2.8,7.13s-.91,5.45-2.73,7.22c-1.82,1.77-4.6,2.66-8.33,2.66h-6.69v-19.57h6.92c3.49,0,6.17.86,8.04,2.56Zm-3.21,11.63c1.07-1.01,1.61-2.47,1.61-4.4s-.54-3.4-1.61-4.44c-1.07-1.04-2.72-1.55-4.94-1.55h-2.44v11.9h2.77c2,0,3.53-.5,4.61-1.51Z"/><path class="cls-7" d="m961.12,456.22l-1.82-4.23h-8.2l-1.82,4.23h-4.65l8.46-19.57h4.23l8.46,19.57h-4.65Zm-5.91-13.75l-2.46,5.68h4.9l-2.44-5.68Z"/><path class="cls-7" d="m974.51,447.76v-3.42h4.2v3.42h2.21v3.78h-2.21v4.68h-4.2v-4.68h-7.87v-3.33l6.97-11.56h4.76l-6.64,11.12h2.77Z"/><path class="cls-7" d="m1144.96,456.22l-1.82-4.23h-8.2l-1.82,4.23h-4.65l8.46-19.57h4.23l8.46,19.57h-4.65Zm-5.91-13.75l-2.46,5.68h4.9l-2.44-5.68Z"/><path class="cls-7" d="m1159.38,439.95c-1.21,0-2.15.41-2.81,1.22-.66.81-1.07,1.92-1.22,3.32,1.21-.78,2.5-1.18,3.86-1.18,1.83,0,3.36.6,4.58,1.79,1.22,1.2,1.83,2.79,1.83,4.77s-.66,3.58-1.97,4.77c-1.32,1.2-2.97,1.79-4.97,1.79-1.38,0-2.58-.27-3.6-.8-1.02-.53-1.81-1.27-2.37-2.23-1.12-1.85-1.68-4.16-1.68-6.94,0-1.79.22-3.36.66-4.72s1.04-2.42,1.81-3.21c1.49-1.57,3.34-2.35,5.54-2.35.91,0,1.79.13,2.62.41.83.27,1.47.55,1.92.83.45.28.94.63,1.48,1.06l-2.07,3.08c-.11-.11-.28-.26-.49-.45-.21-.19-.64-.43-1.27-.73-.63-.3-1.25-.45-1.85-.45Zm-.57,7.06c-.87,0-1.6.26-2.18.77-.59.51-.88,1.18-.88,2s.28,1.53.84,2.11c.56.59,1.26.88,2.1.88s1.54-.26,2.1-.78c.56-.52.84-1.2.84-2.03s-.25-1.53-.76-2.1c-.5-.57-1.19-.85-2.06-.85Z"/></g></g></g></svg>