<?xml version="1.0" encoding="UTF-8"?><svg id="Calque_2" xmlns="http://www.w3.org/2000/svg" xmlns:xlink="http://www.w3.org/1999/xlink" viewBox="0 0 662.59 432.02"><defs><style>.cls-1{clip-path:url(#clippath);}.cls-2,.cls-3,.cls-4{fill:none;}.cls-2,.cls-5,.cls-6,.cls-7,.cls-8,.cls-9,.cls-10{stroke-width:0px;}.cls-3{stroke:#fff;stroke-width:.85px;}.cls-3,.cls-11{stroke-miterlimit:10;}.cls-12{clip-path:url(#clippath-1);}.cls-13{clip-path:url(#clippath-2);}.cls-11{stroke:#ffc152;}.cls-11,.cls-5{fill:#f2f2f2;}.cls-4{stroke:#ccc;stroke-linecap:round;stroke-linejoin:round;stroke-width:2.83px;}.cls-6{fill:#24a069;}.cls-7{fill:#ccc;}.cls-8{fill:#333;}.cls-9{fill:#fff;}.cls-10{fill:#ffc152;}</style><clipPath id="clippath"><rect class="cls-2" x="69.47" y="268.36" width="54.44" height="15.11"/></clipPath><clipPath id="clippath-1"><rect class="cls-2" x="60.96" y="2.92" width="372.49" height="43.64"/></clipPath><clipPath id="clippath-2"><rect class="cls-2" x="441.36" y="49" width="37.29" height="43.64"/></clipPath></defs><g id="Calque_1-2"><g id="Astro-Pi"><g id="rasberrypi4"><rect class="cls-8" x="0" y="147.01" width="77.95" height="110.53" rx="6" ry="6"/><rect class="cls-6" x="13.29" width="618" height="407" rx="16" ry="16"/><g id="fixation"><circle class="cls-10" cx="37.52" cy="23.12" r="21.49"/><circle class="cls-9" cx="37.52" cy="23.12" r="8.78"/><circle class="cls-10" cx="37.52" cy="380.91" r="21.49"/><circle class="cls-9" cx="37.52" cy="380.91" r="8.78"/><circle class="cls-10" cx="459.01" cy="380.91" r="21.49"/><circle class="cls-9" cx="459.01" cy="380.91" r="8.78"/><circle class="cls-10" cx="459.01" cy="23.12" r="21.49"/><circle class="cls-9" cx="459.01" cy="23.12" r="8.78"/></g><g class="cls-1"><g id="J2"><g id="_Grille_de_répétition_"><circle class="cls-10" cx="77.97" cy="275.83" r="7.47"/></g><g id="_Grille_de_répétition_-2"><circle class="cls-10" cx="97.1" cy="275.83" r="7.47"/></g><g id="_Grille_de_répétition_-3"><circle class="cls-10" cx="116.22" cy="275.83" r="7.47"/></g></g></g><path id="logo" class="cls-9" d="m95.35,168.75c-.36-.12-.65-.2-.94-.31-.6-.23-1.02-.62-1.21-1.25-.03-.11-.16-.21-.27-.26-.35-.18-.72-.31-1.06-.5-.4-.23-.68-.59-.82-1.02-.12-.38-.35-.66-.63-.94-.31-.31-.61-.65-.86-1.01-.13-.19-.17-.45-.19-.69-.01-.2-.06-.33-.21-.46-.68-.55-1-1.24-.83-2.13.02-.1-.07-.24-.14-.34-.22-.32-.5-.6-.69-.94-.19-.33-.17-.69.02-1.03.04-.08.02-.22-.02-.31-.13-.29-.3-.56-.43-.85-.21-.49-.17-.98.13-1.43.13-.19.15-.36.06-.58-.5-1.27.18-2.37,1.54-2.45.5-.03.9-.11,1.31-.48.57-.52,1.35-.56,2.1-.54.27,0,.48-.03.69-.22.38-.32.85-.37,1.32-.32.27.03.47-.01.7-.18.69-.51,1.45-.43,2.21-.14.13.05.34.07.43,0,.72-.56,1.45-.4,2.18-.06.27.12.5.16.79.08.51-.15.99-.07,1.42.23.36.25.73.38,1.18.33.56-.06,1.06.16,1.48.53.2.18.37.39.57.55.13.1.31.2.46.19.39-.03.7.11,1.01.31,1.25.81,2.09,1.97,2.71,3.29.27.58.5,1.19.77,1.83.06-.13.11-.24.16-.34.59-1.38,1.26-2.71,2.3-3.82.32-.34.68-.64,1.03-.94.28-.24.6-.37.99-.33.14.01.31-.08.43-.18.22-.18.41-.4.63-.59.44-.38.95-.57,1.53-.5.38.04.69-.05.98-.26.52-.38,1.08-.45,1.69-.28.16.04.35,0,.51-.04.17-.04.33-.14.49-.22.62-.27,1.21-.21,1.79.16.11.07.31.11.42.06.93-.39,1.83-.28,2.7.17.24.12.45.17.72.13.59-.07,1.2-.12,1.61.48.04.06.19.06.29.06.61-.01,1.22-.02,1.78.26.31.15.56.4.85.59.1.07.23.11.34.15.06.02.13,0,.19,0,1.46,0,2.22,1.07,1.71,2.44-.09.25-.1.46,0,.7.34.77.26,1.5-.24,2.19-.06.09-.13.22-.1.31.18.8-.15,1.46-.58,2.08-.14.2-.2.39-.17.64.08.74-.27,1.3-.82,1.76-.11.09-.2.26-.22.41-.14.95-.67,1.6-1.46,2.09-.14.09-.31.22-.36.37-.27.89-.93,1.37-1.76,1.65-.28.1-.45.21-.55.52-.24.7-.83,1.01-1.49,1.21-.18.05-.36.1-.61.17.36.23.66.41.95.59,2.08,1.3,3.59,3.05,4.28,5.44.33,1.16.49,2.34.5,3.55,0,.58.3,1,.72,1.3,2.7,1.95,4.11,4.61,4.21,7.92.08,2.51-.9,4.67-2.54,6.54-.25.29-.43.59-.54.95-.36,1.12-.76,2.23-1.11,3.35-.23.75-.36,1.52-.59,2.27-.89,3.02-2.72,5.31-5.52,6.74-.9.46-1.67,1.06-2.48,1.62-1.4.96-2.89,1.73-4.46,2.35-.29.11-.56.29-.79.5-1.62,1.5-3.47,2.59-5.66,2.97-3.7.64-6.89-.41-9.61-2.96-.27-.25-.56-.43-.9-.56-2.07-.78-3.96-1.87-5.67-3.28-.19-.16-.42-.27-.65-.37-1.3-.51-2.38-1.34-3.34-2.33-1.68-1.72-2.68-3.78-3.07-6.16-.11-.64-.41-1.25-.58-1.88-.22-.79-.4-1.6-.62-2.4-.07-.25-.16-.5-.32-.7-1.16-1.45-1.95-3.07-2.21-4.93-.28-1.97.04-3.85.85-5.64.73-1.62,1.78-2.99,3.23-4.06.38-.28.65-.69.65-1.24.01-1.72.29-3.4,1.02-4.98.79-1.72,2.08-3,3.66-4,.31-.2.63-.38,1-.61Zm33.11-6.16s-.01-.09-.02-.13c.7-.61,1.4-1.23,2.16-1.9-.45.02-.82.27-1.15-.08.66-.72,1.49-1.26,1.92-2.2-.5.07-.97.29-1.47-.07.68-.69,1.51-1.2,1.72-2.23h-1.18c.15-.88.75-1.5,1.21-2.26h-2.88s-.05-.07-.07-.11c.24-.18.48-.37.77-.59-.67-.29-1.25-.29-1.83-.18-.44.09-.86.23-1.29.33-.1.02-.23-.05-.34-.07.03-.11.02-.25.09-.33.13-.15.31-.27.47-.4-.03-.03-.05-.07-.08-.1-.85.23-1.7.46-2.57.69-.02-.09-.07-.17-.04-.2.22-.32.46-.64.7-.96-.03,0-.07-.02-.09,0-.9.25-1.79.53-2.58,1.04-.24.15-.4.08-.43-.2,0-.12.06-.26.11-.38.07-.14.16-.27.25-.41-.2.02-.35.06-.49.14-.57.35-1.13.7-1.68,1.08-.2.14-.31.11-.48-.05-.3-.29-.25-.6-.13-.96-.37.21-.74.42-1.05.7-.31.28-.57.61-.9.97-.09-.21-.2-.38-.24-.56-.04-.18,0-.38,0-.64-.66.75-1.27,1.46-1.93,2.21-.12-.35-.21-.63-.3-.91-.04.02-.06.02-.08.03-1.4,1.35-2.43,2.92-2.82,4.84-.35,1.67.22,3,1.54,3.83.29.18.47.16.74-.05.84-.65,1.68-1.29,2.57-1.87,2.78-1.79,5.79-3.08,8.87-4.25.18-.07.36-.13.53-.19-.11.12-.24.19-.37.26-1.88,1.09-3.78,2.14-5.63,3.28-1.85,1.14-3.58,2.46-5.09,4.05-.17.18-.21.33-.13.56.44,1.31,1.34,2.18,2.56,2.76,1.23.58,2.54.8,3.88.87.53.03,1.07,0,1.65,0-.14-.12-.27-.2-.38-.31-.11-.11-.19-.24-.28-.36.13-.07.26-.19.41-.2.46-.06.93-.08,1.39-.13.54-.05,1.08-.12,1.54-.38-.29-.17-.56-.32-.83-.48.98-.4,1.94-.69,2.86-1.29-.38,0-.7.09-.85-.3.99-.53,2.06-.91,2.9-1.69-.41-.07-.78-.14-1.15-.2Zm-39.82-6.35c.14.23.21.42.34.55.39.36.8.68,1.21,1.02.15.12.29.25.47.39-.5.3-.96.23-1.43.08-.02.03-.05.06-.07.09.65.77,1.29,1.54,2,2.38h-1.19c.77.61,1.46,1.17,2.16,1.73,0,.04,0,.07-.01.11-.35.06-.71.12-1.11.2.89.7,1.87,1.17,2.84,1.68,0,.03,0,.06,0,.09-.35.08-.71.15-1.1.24.91.8,2.09.96,3.22,1.48-.33.19-.6.35-.87.51.11.03.21.09.33.1.64.08,1.28.15,1.92.22.19.02.38.07.57.1.02.04.03.08.05.12-.21.22-.43.43-.64.64,0,0,.02.02.03.03,1.88.17,3.71-.04,5.43-.87,1.25-.6,2.15-1.53,2.57-2.88.06-.18.04-.3-.1-.45-.93-1-1.96-1.87-3.06-2.68-2.43-1.79-5.04-3.29-7.7-4.7-.15-.08-.3-.17-.49-.28.08,0,.11-.01.12,0,2.26.72,4.43,1.63,6.53,2.73,1.98,1.04,3.86,2.25,5.58,3.7.14.12.25.14.42.05,1.53-.81,2.19-2.22,1.85-3.91-.29-1.4-.94-2.63-1.78-3.76-.3-.4-.63-.78-.97-1.19-.07.37-.13.66-.2,1.01-.71-.79-1.36-1.5-2.05-2.26-.1.47.17.92-.26,1.18-.57-.55-1.12-1.08-1.65-1.59-.08.33-.11.62-.21.89-.07.2-.22.25-.42.09-.24-.19-.49-.37-.75-.53-.45-.27-.92-.53-1.38-.79.08.43.58.74.08,1.21-.84-.65-1.76-1.1-2.85-1.15.03.07.1.1.15.15.18.15.38.28.51.47.07.1.05.29.02.43,0,.04-.22.06-.32.04-.31-.07-.61-.18-.92-.26-.44-.12-.88-.23-1.38-.35.17.18.31.28.39.43.06.1.1.28.04.37-.05.08-.23.11-.35.09-.34-.05-.68-.16-1.03-.21-.65-.1-1.3-.13-1.99.04.24.33.46.63.72.99h-2.93c.34.75.66,1.47,1,2.25h-1.32Zm30.88,35.05c1.81.03,3.2-.47,4.16-1.4,1.33-1.29,1.85-2.91,1.88-4.71.03-1.43-.31-2.8-.95-4.08-1.26-2.56-3.21-4.27-6.1-4.71-1.84-.28-3.51.18-4.86,1.5-1.73,1.7-2.22,3.82-1.9,6.16.2,1.47.84,2.77,1.74,3.94,1.59,2.06,3.67,3.18,6.02,3.31Zm-10.96-8.25c-.03-1.58-.34-2.91-1.17-4.07-1.2-1.68-2.86-2.5-4.93-2.33-2.73.23-4.8,1.68-6.27,3.88-1.4,2.1-1.81,4.48-1.14,6.97.6,2.24,2.61,3.98,4.86,4.18,2.33.2,4.3-.61,5.92-2.24,1.79-1.8,2.65-4.02,2.72-6.39Zm9.1,13.97c-.01-1.23-.33-2.37-1-3.4-1.12-1.73-2.74-2.75-4.73-3.15-2.77-.55-5.22.06-7.23,2.11-2.43,2.48-2.39,6.51.13,8.89,2.38,2.26,5.18,2.86,8.29,1.8,2.7-.92,4.5-3.44,4.54-6.25Zm11.95,1.1c0-1.97-.33-3.42-.84-4.52-.36-.77-.96-1.06-1.75-1.08-.78-.01-1.49.26-2.12.68-2.72,1.78-4.83,4.08-5.95,7.18-.42,1.15-.66,2.34-.56,3.58.1,1.25.67,2.04,1.84,2.33.56.14,1.16.2,1.73.16,1.72-.11,3.17-.87,4.44-1.98,2.06-1.8,3.28-3.99,3.21-6.36Zm-28,5.13c-.14-.68-.27-1.52-.5-2.33-.65-2.21-2.09-3.85-3.86-5.23-1.02-.79-2.14-1.41-3.46-1.56-1.3-.15-2.35.43-2.75,1.59-.16.48-.29.99-.29,1.49-.02,3.47,1.37,6.22,4.3,8.12,1.28.83,2.69,1.26,4.23,1.1,1.28-.14,1.82-.47,2.15-1.82.09-.39.11-.79.19-1.36Zm9.06-26.99c.43-.05,1.23-.1,2.01-.24,1.12-.19,2.19-.54,3.1-1.24.79-.62,1.29-1.38,1.09-2.44-.13-.69-.51-1.26-1.02-1.72-2.4-2.15-5.14-2.92-8.27-1.91-1.37.44-2.58,1.17-3.52,2.3-.87,1.06-.85,2.11.09,3.1.25.26.52.5.81.71,1.61,1.1,3.44,1.43,5.71,1.45Zm-.46,36.8c.4-.06.93-.1,1.44-.22,1.5-.34,2.85-1.04,4.03-2,.55-.44,1.04-.96,1.49-1.51.36-.43.32-.81-.06-1.23-.25-.27-.55-.51-.86-.69-1.16-.66-2.44-.95-3.76-1.09-1.93-.2-3.85-.01-5.74.42-1.04.24-2.06.57-2.98,1.14-1,.63-1.13,1.22-.35,2.09,1.77,1.97,3.97,3.04,6.79,3.07Zm22.65-25.64c-.06-2.89-1.28-5.12-3.83-6.57-.18-.1-.46-.08-.67-.03-.35.08-.59.36-.7.68-.18.51-.35,1.03-.42,1.55-.21,1.61-.07,3.21.2,4.81.24,1.4.56,2.79,1.21,4.07.23.45.57.86.93,1.22.32.32.72.26,1.05-.05.56-.52.99-1.13,1.32-1.81.61-1.21.91-2.5.91-3.87Zm-40.52-3c-.05-.41-.1-1.2-.24-1.98-.07-.37-.24-.75-.44-1.07-.26-.42-.74-.5-1.14-.26-1.09.67-2.01,1.52-2.68,2.62-1.26,2.08-1.42,4.29-.73,6.58.35,1.16.95,2.19,1.83,3.04.29.27.59.32.92.09.2-.14.41-.32.54-.53.24-.36.46-.74.62-1.14.89-2.23,1.23-4.57,1.32-7.34Zm27.14-14.59c-.36.03-.96.08-1.56.15-.5.06-.6.23-.34.66.27.45.59.88.93,1.28,1.19,1.37,2.52,2.6,3.91,3.76,1.19,1,2.42,1.97,3.78,2.73.35.19.73.34,1.11.44.41.11.61-.07.6-.5,0-.48-.01-.95-.06-1.43-.17-1.72-.76-3.28-1.94-4.57-1.66-1.81-3.8-2.49-6.44-2.53Zm-19.45-.27s0,.04,0,.06c-.23,0-.47-.01-.7,0-2.38.17-4.42,1.04-5.95,2.92-1.3,1.6-1.77,3.49-1.73,5.52,0,.51.22.69.71.52.5-.17.99-.38,1.43-.67,2.72-1.74,5.12-3.86,7.28-6.26.38-.42.69-.91.98-1.4.19-.32.08-.47-.28-.52-.58-.07-1.16-.12-1.73-.19Z"/><rect id="outline" class="cls-3" x="88.27" y="245.65" width="19.02" height="59.83" transform="translate(-177.79 373.35) rotate(-90)"/><g id="elements_black"><rect class="cls-8" x="490.68" y="144.64" width="29.85" height="58.86" rx="2.71" ry="2.71"/><path class="cls-8" d="m130.19,321.08h-12.02c-2.35-2.35-3.67-3.67-6.02-6.02v-12.02c2.35-2.35,3.67-3.67,6.02-6.02h12.02c2.35,2.35,3.67,3.67,6.02,6.02v12.02c-2.35,2.35-3.67,3.67-6.02,6.02Z"/><rect class="cls-8" x="480.92" y="307.31" width="18.89" height="21.87" rx="1.31" ry="1.31"/><rect class="cls-8" x="148.23" y="336.17" width="16.19" height="18.9" rx="1.13" ry="1.13"/><rect class="cls-8" x="376.72" y="289.91" width="13.77" height="18.9" rx="1.04" ry="1.04"/><rect class="cls-8" x="387.47" y="267.59" width="13.77" height="18.9" rx="1.04" ry="1.04" transform="translate(117.32 671.39) rotate(-90)"/><rect class="cls-8" x="411.28" y="289.12" width="13.77" height="20.47" rx="1.09" ry="1.09" transform="translate(118.81 717.53) rotate(-90)"/><rect class="cls-8" x="442.51" y="310.75" width="11.83" height="20.47" rx="1.01" ry="1.01"/><rect class="cls-8" x="499.13" y="335.76" width="11.83" height="20.47" rx="1.01" ry="1.01" transform="translate(159.06 851.04) rotate(-90)"/><rect class="cls-8" x="52.36" y="302.18" width="8.83" height="12.39" rx=".68" ry=".68"/><rect class="cls-8" x="51.15" y="336.17" width="10.04" height="12.39" rx=".72" ry=".72"/><rect class="cls-8" x="111.46" y="336.17" width="10.04" height="12.39" rx=".72" ry=".72"/><rect class="cls-8" x="225.49" y="374.87" width="11.83" height="20.47" rx="1.01" ry="1.01"/></g><g id="elements_grey"><rect class="cls-5" x="28.97" y="53.89" width="11.32" height="11.32" rx=".73" ry=".73" transform="translate(94.18 24.92) rotate(90)"/><rect id="element" class="cls-11" x="442.03" y="275.4" width="22.9" height="31.92" rx="1.75" ry="1.75" transform="translate(162.12 744.84) rotate(-90)"/></g><g id="PoE"><g class="cls-12"><g id="PoE-2"><g id="_Grille_de_répétition_-4"><path class="cls-8" d="m72.2,46.33h-3.85c-1.61,0-3.11-.84-4-2.23l-2.58-4.01c-.53-.82-.81-1.79-.81-2.77V11.94c0-.99.28-1.95.81-2.77l2.58-4.01c.89-1.39,2.4-2.23,4-2.23h3.85c1.61,0,3.11.84,4,2.23l2.58,4.01c.53.82.81,1.79.81,2.77v25.38c0,.99-.28,1.95-.81,2.77l-2.58,4.01c-.89,1.39-2.4,2.23-4,2.23Z"/><rect class="cls-5" x="67.39" y="9.7" width="5.75" height="5.98" rx="2.45" ry="2.45"/><rect class="cls-5" x="67.39" y="33.58" width="5.75" height="5.98" rx="2.45" ry="2.45"/></g><g id="_Grille_de_répétition_-5"><path class="cls-8" d="m90.82,46.33h-3.85c-1.61,0-3.11-.84-4-2.23l-2.58-4.01c-.53-.82-.81-1.79-.81-2.77V11.94c0-.99.28-1.95.81-2.77l2.58-4.01c.89-1.39,2.4-2.23,4-2.23h3.85c1.61,0,3.11.84,4,2.23l2.58,4.01c.53.82.81,1.79.81,2.77v25.38c0,.99-.28,1.95-.81,2.77l-2.58,4.01c-.89,1.39-2.4,2.23-4,2.23Z"/><rect class="cls-5" x="86.02" y="9.7" width="5.75" height="5.98" rx="2.45" ry="2.45"/><rect class="cls-5" x="86.02" y="33.58" width="5.75" height="5.98" rx="2.45" ry="2.45"/></g><g id="_Grille_de_répétition_-6"><path class="cls-8" d="m109.45,46.33h-3.85c-1.61,0-3.11-.84-4-2.23l-2.58-4.01c-.53-.82-.81-1.79-.81-2.77V11.94c0-.99.28-1.95.81-2.77l2.58-4.01c.89-1.39,2.4-2.23,4-2.23h3.85c1.61,0,3.11.84,4,2.23l2.58,4.01c.53.82.81,1.79.81,2.77v25.38c0,.99-.28,1.95-.81,2.77l-2.58,4.01c-.89,1.39-2.4,2.23-4,2.23Z"/><rect class="cls-5" x="104.65" y="9.7" width="5.75" height="5.98" rx="2.45" ry="2.45"/><rect class="cls-5" x="104.65" y="33.58" width="5.75" height="5.98" rx="2.45" ry="2.45"/></g><g id="_Grille_de_répétition_-7"><path class="cls-8" d="m128.07,46.33h-3.85c-1.61,0-3.11-.84-4-2.23l-2.58-4.01c-.53-.82-.81-1.79-.81-2.77V11.94c0-.99.28-1.95.81-2.77l2.58-4.01c.89-1.39,2.4-2.23,4-2.23h3.85c1.61,0,3.11.84,4,2.23l2.58,4.01c.53.82.81,1.79.81,2.77v25.38c0,.99-.28,1.95-.81,2.77l-2.58,4.01c-.89,1.39-2.4,2.23-4,2.23Z"/><rect class="cls-5" x="123.27" y="9.7" width="5.75" height="5.98" rx="2.45" ry="2.45"/><rect class="cls-5" x="123.27" y="33.58" width="5.75" height="5.98" rx="2.45" ry="2.45"/></g><g id="_Grille_de_répétition_-8"><path class="cls-8" d="m146.7,46.33h-3.85c-1.61,0-3.11-.84-4-2.23l-2.58-4.01c-.53-.82-.81-1.79-.81-2.77V11.94c0-.99.28-1.95.81-2.77l2.58-4.01c.89-1.39,2.4-2.23,4-2.23h3.85c1.61,0,3.11.84,4,2.23l2.58,4.01c.53.82.81,1.79.81,2.77v25.38c0,.99-.28,1.95-.81,2.77l-2.58,4.01c-.89,1.39-2.4,2.23-4,2.23Z"/><rect class="cls-5" x="141.9" y="9.7" width="5.75" height="5.98" rx="2.45" ry="2.45"/><rect class="cls-5" x="141.9" y="33.58" width="5.75" height="5.98" rx="2.45" ry="2.45"/></g><g id="_Grille_de_répétition_-9"><path class="cls-8" d="m165.33,46.33h-3.85c-1.61,0-3.11-.84-4-2.23l-2.58-4.01c-.53-.82-.81-1.79-.81-2.77V11.94c0-.99.28-1.95.81-2.77l2.58-4.01c.89-1.39,2.4-2.23,4-2.23h3.85c1.61,0,3.11.84,4,2.23l2.58,4.01c.53.82.81,1.79.81,2.77v25.38c0,.99-.28,1.95-.81,2.77l-2.58,4.01c-.89,1.39-2.4,2.23-4,2.23Z"/><rect class="cls-5" x="160.53" y="9.7" width="5.75" height="5.98" rx="2.45" ry="2.45"/><rect class="cls-5" x="160.53" y="33.58" width="5.75" height="5.98" rx="2.45" ry="2.45"/></g><g id="_Grille_de_répétition_-10"><path class="cls-8" d="m183.95,46.33h-3.85c-1.61,0-3.11-.84-4-2.23l-2.58-4.01c-.53-.82-.81-1.79-.81-2.77V11.94c0-.99.28-1.95.81-2.77l2.58-4.01c.89-1.39,2.4-2.23,4-2.23h3.85c1.61,0,3.11.84,4,2.23l2.58,4.01c.53.82.81,1.79.81,2.77v25.38c0,.99-.28,1.95-.81,2.77l-2.58,4.01c-.89,1.39-2.4,2.23-4,2.23Z"/><rect class="cls-5" x="179.15" y="9.7" width="5.75" height="5.98" rx="2.45" ry="2.45"/><rect class="cls-5" x="179.15" y="33.58" width="5.75" height="5.98" rx="2.45" ry="2.45"/></g><g id="_Grille_de_répétition_-11"><path class="cls-8" d="m202.58,46.33h-3.85c-1.61,0-3.11-.84-4-2.23l-2.58-4.01c-.53-.82-.81-1.79-.81-2.77V11.94c0-.99.28-1.95.81-2.77l2.58-4.01c.89-1.39,2.4-2.23,4-2.23h3.85c1.61,0,3.11.84,4,2.23l2.58,4.01c.53.82.81,1.79.81,2.77v25.38c0,.99-.28,1.95-.81,2.77l-2.58,4.01c-.89,1.39-2.4,2.23-4,2.23Z"/><rect class="cls-5" x="197.78" y="9.7" width="5.75" height="5.98" rx="2.45" ry="2.45"/><rect class="cls-5" x="197.78" y="33.58" width="5.75" height="5.98" rx="2.45" ry="2.45"/></g><g id="_Grille_de_répétition_-12"><path class="cls-8" d="m221.21,46.33h-3.85c-1.61,0-3.11-.84-4-2.23l-2.58-4.01c-.53-.82-.81-1.79-.81-2.77V11.94c0-.99.28-1.95.81-2.77l2.58-4.01c.89-1.39,2.4-2.23,4-2.23h3.85c1.61,0,3.11.84,4,2.23l2.58,4.01c.53.82.81,1.79.81,2.77v25.38c0,.99-.28,1.95-.81,2.77l-2.58,4.01c-.89,1.39-2.4,2.23-4,2.23Z"/><rect class="cls-5" x="216.41" y="9.7" width="5.75" height="5.98" rx="2.45" ry="2.45"/><rect class="cls-5" x="216.41" y="33.58" width="5.75" height="5.98" rx="2.45" ry="2.45"/></g><g id="_Grille_de_répétition_-13"><path class="cls-8" d="m239.83,46.33h-3.85c-1.61,0-3.11-.84-4-2.23l-2.58-4.01c-.53-.82-.81-1.79-.81-2.77V11.94c0-.99.28-1.95.81-2.77l2.58-4.01c.89-1.39,2.4-2.23,4-2.23h3.85c1.61,0,3.11.84,4,2.23l2.58,4.01c.53.82.81,1.79.81,2.77v25.38c0,.99-.28,1.95-.81,2.77l-2.58,4.01c-.89,1.39-2.4,2.23-4,2.23Z"/><rect class="cls-5" x="235.03" y="9.7" width="5.75" height="5.98" rx="2.45" ry="2.45"/><rect class="cls-5" x="235.03" y="33.58" width="5.75" height="5.98" rx="2.45" ry="2.45"/></g><g id="_Grille_de_répétition_-14"><path class="cls-8" d="m258.46,46.33h-3.85c-1.61,0-3.11-.84-4-2.23l-2.58-4.01c-.53-.82-.81-1.79-.81-2.77V11.94c0-.99.28-1.95.81-2.77l2.58-4.01c.89-1.39,2.4-2.23,4-2.23h3.85c1.61,0,3.11.84,4,2.23l2.58,4.01c.53.82.81,1.79.81,2.77v25.38c0,.99-.28,1.95-.81,2.77l-2.58,4.01c-.89,1.39-2.4,2.23-4,2.23Z"/><rect class="cls-5" x="253.66" y="9.7" width="5.75" height="5.98" rx="2.45" ry="2.45"/><rect class="cls-5" x="253.66" y="33.58" width="5.75" height="5.98" rx="2.45" ry="2.45"/></g><g id="_Grille_de_répétition_-15"><path class="cls-8" d="m277.09,46.33h-3.85c-1.61,0-3.11-.84-4-2.23l-2.58-4.01c-.53-.82-.81-1.79-.81-2.77V11.94c0-.99.28-1.95.81-2.77l2.58-4.01c.89-1.39,2.4-2.23,4-2.23h3.85c1.61,0,3.11.84,4,2.23l2.58,4.01c.53.82.81,1.79.81,2.77v25.38c0,.99-.28,1.95-.81,2.77l-2.58,4.01c-.89,1.39-2.4,2.23-4,2.23Z"/><rect class="cls-5" x="272.28" y="9.7" width="5.75" height="5.98" rx="2.45" ry="2.45"/><rect class="cls-5" x="272.28" y="33.58" width="5.75" height="5.98" rx="2.45" ry="2.45"/></g><g id="_Grille_de_répétition_-16"><path class="cls-8" d="m295.71,46.33h-3.85c-1.61,0-3.11-.84-4-2.23l-2.58-4.01c-.53-.82-.81-1.79-.81-2.77V11.94c0-.99.28-1.95.81-2.77l2.58-4.01c.89-1.39,2.4-2.23,4-2.23h3.85c1.61,0,3.11.84,4,2.23l2.58,4.01c.53.82.81,1.79.81,2.77v25.38c0,.99-.28,1.95-.81,2.77l-2.58,4.01c-.89,1.39-2.4,2.23-4,2.23Z"/><rect class="cls-5" x="290.91" y="9.7" width="5.75" height="5.98" rx="2.45" ry="2.45"/><rect class="cls-5" x="290.91" y="33.58" width="5.75" height="5.98" rx="2.45" ry="2.45"/></g><g id="_Grille_de_répétition_-17"><path class="cls-8" d="m314.34,46.33h-3.85c-1.61,0-3.11-.84-4-2.23l-2.58-4.01c-.53-.82-.81-1.79-.81-2.77V11.94c0-.99.28-1.95.81-2.77l2.58-4.01c.89-1.39,2.4-2.23,4-2.23h3.85c1.61,0,3.11.84,4,2.23l2.58,4.01c.53.82.81,1.79.81,2.77v25.38c0,.99-.28,1.95-.81,2.77l-2.58,4.01c-.89,1.39-2.4,2.23-4,2.23Z"/><rect class="cls-5" x="309.54" y="9.7" width="5.75" height="5.98" rx="2.45" ry="2.45"/><rect class="cls-5" x="309.54" y="33.58" width="5.75" height="5.98" rx="2.45" ry="2.45"/></g><g id="_Grille_de_répétition_-18"><path class="cls-8" d="m332.97,46.33h-3.85c-1.61,0-3.11-.84-4-2.23l-2.58-4.01c-.53-.82-.81-1.79-.81-2.77V11.94c0-.99.28-1.95.81-2.77l2.58-4.01c.89-1.39,2.4-2.23,4-2.23h3.85c1.61,0,3.11.84,4,2.23l2.58,4.01c.53.82.81,1.79.81,2.77v25.38c0,.99-.28,1.95-.81,2.77l-2.58,4.01c-.89,1.39-2.4,2.23-4,2.23Z"/><rect class="cls-5" x="328.16" y="9.7" width="5.75" height="5.98" rx="2.45" ry="2.45"/><rect class="cls-5" x="328.16" y="33.58" width="5.75" height="5.98" rx="2.45" ry="2.45"/></g><g id="_Grille_de_répétition_-19"><path class="cls-8" d="m351.59,46.33h-3.85c-1.61,0-3.11-.84-4-2.23l-2.58-4.01c-.53-.82-.81-1.79-.81-2.77V11.94c0-.99.28-1.95.81-2.77l2.58-4.01c.89-1.39,2.4-2.23,4-2.23h3.85c1.61,0,3.11.84,4,2.23l2.58,4.01c.53.82.81,1.79.81,2.77v25.38c0,.99-.28,1.95-.81,2.77l-2.58,4.01c-.89,1.39-2.4,2.23-4,2.23Z"/><rect class="cls-5" x="346.79" y="9.7" width="5.75" height="5.98" rx="2.45" ry="2.45"/><rect class="cls-5" x="346.79" y="33.58" width="5.75" height="5.98" rx="2.45" ry="2.45"/></g><g id="_Grille_de_répétition_-20"><path class="cls-8" d="m370.22,46.33h-3.85c-1.61,0-3.11-.84-4-2.23l-2.58-4.01c-.53-.82-.81-1.79-.81-2.77V11.94c0-.99.28-1.95.81-2.77l2.58-4.01c.89-1.39,2.4-2.23,4-2.23h3.85c1.61,0,3.11.84,4,2.23l2.58,4.01c.53.82.81,1.79.81,2.77v25.38c0,.99-.28,1.95-.81,2.77l-2.58,4.01c-.89,1.39-2.4,2.23-4,2.23Z"/><rect class="cls-5" x="365.42" y="9.7" width="5.75" height="5.98" rx="2.45" ry="2.45"/><rect class="cls-5" x="365.42" y="33.58" width="5.75" height="5.98" rx="2.45" ry="2.45"/></g><g id="_Grille_de_répétition_-21"><path class="cls-8" d="m388.84,46.33h-3.85c-1.61,0-3.11-.84-4-2.23l-2.58-4.01c-.53-.82-.81-1.79-.81-2.77V11.94c0-.99.28-1.95.81-2.77l2.58-4.01c.89-1.39,2.4-2.23,4-2.23h3.85c1.61,0,3.11.84,4,2.23l2.58,4.01c.53.82.81,1.79.81,2.77v25.38c0,.99-.28,1.95-.81,2.77l-2.58,4.01c-.89,1.39-2.4,2.23-4,2.23Z"/><rect class="cls-5" x="384.04" y="9.7" width="5.75" height="5.98" rx="2.45" ry="2.45"/><rect class="cls-5" x="384.04" y="33.58" width="5.75" height="5.98" rx="2.45" ry="2.45"/></g><g id="_Grille_de_répétition_-22"><path class="cls-8" d="m407.47,46.33h-3.85c-1.61,0-3.11-.84-4-2.23l-2.58-4.01c-.53-.82-.81-1.79-.81-2.77V11.94c0-.99.28-1.95.81-2.77l2.58-4.01c.89-1.39,2.4-2.23,4-2.23h3.85c1.61,0,3.11.84,4,2.23l2.58,4.01c.53.82.81,1.79.81,2.77v25.38c0,.99-.28,1.95-.81,2.77l-2.58,4.01c-.89,1.39-2.4,2.23-4,2.23Z"/><rect class="cls-5" x="402.67" y="9.7" width="5.75" height="5.98" rx="2.45" ry="2.45"/><rect class="cls-5" x="402.67" y="33.58" width="5.75" height="5.98" rx="2.45" ry="2.45"/></g><g id="_Grille_de_répétition_-23"><path class="cls-8" d="m426.1,46.33h-3.85c-1.61,0-3.11-.84-4-2.23l-2.58-4.01c-.53-.82-.81-1.79-.81-2.77V11.94c0-.99.28-1.95.81-2.77l2.58-4.01c.89-1.39,2.4-2.23,4-2.23h3.85c1.61,0,3.11.84,4,2.23l2.58,4.01c.53.82.81,1.79.81,2.77v25.38c0,.99-.28,1.95-.81,2.77l-2.58,4.01c-.89,1.39-2.4,2.23-4,2.23Z"/><rect class="cls-5" x="421.3" y="9.7" width="5.75" height="5.98" rx="2.45" ry="2.45"/><rect class="cls-5" x="421.3" y="33.58" width="5.75" height="5.98" rx="2.45" ry="2.45"/></g></g></g><g class="cls-13"><g id="PoE-3"><g id="_Grille_de_répétition_-24"><path class="cls-8" d="m452.6,92.4h-3.85c-1.61,0-3.11-.84-4-2.23l-2.58-4.01c-.53-.82-.81-1.79-.81-2.77v-25.38c0-.99.28-1.95.81-2.77l2.58-4.01c.89-1.39,2.4-2.23,4-2.23h3.85c1.61,0,3.11.84,4,2.23l2.58,4.01c.53.82.81,1.79.81,2.77v25.38c0,.99-.28,1.95-.81,2.77l-2.58,4.01c-.89,1.39-2.4,2.23-4,2.23Z"/><rect class="cls-5" x="447.8" y="55.77" width="5.75" height="5.98" rx="2.45" ry="2.45"/><rect class="cls-5" x="447.8" y="79.65" width="5.75" height="5.98" rx="2.45" ry="2.45"/></g><g id="_Grille_de_répétition_-25"><path class="cls-8" d="m471.23,92.4h-3.85c-1.61,0-3.11-.84-4-2.23l-2.58-4.01c-.53-.82-.81-1.79-.81-2.77v-25.38c0-.99.28-1.95.81-2.77l2.58-4.01c.89-1.39,2.4-2.23,4-2.23h3.85c1.61,0,3.11.84,4,2.23l2.58,4.01c.53.82.81,1.79.81,2.77v25.38c0,.99-.28,1.95-.81,2.77l-2.58,4.01c-.89,1.39-2.4,2.23-4,2.23Z"/><rect class="cls-5" x="466.42" y="55.77" width="5.75" height="5.98" rx="2.45" ry="2.45"/><rect class="cls-5" x="466.42" y="79.65" width="5.75" height="5.98" rx="2.45" ry="2.45"/></g><g id="_Grille_de_répétition_-26"><path class="cls-8" d="m489.85,92.4h-3.85c-1.61,0-3.11-.84-4-2.23l-2.58-4.01c-.53-.82-.81-1.79-.81-2.77v-25.38c0-.99.28-1.95.81-2.77l2.58-4.01c.89-1.39,2.4-2.23,4-2.23h3.85c1.61,0,3.11.84,4,2.23l2.58,4.01c.53.82.81,1.79.81,2.77v25.38c0,.99-.28,1.95-.81,2.77l-2.58,4.01c-.89,1.39-2.4,2.23-4,2.23Z"/><rect class="cls-5" x="485.05" y="55.77" width="5.75" height="5.98" rx="2.45" ry="2.45"/><rect class="cls-5" x="485.05" y="79.65" width="5.75" height="5.98" rx="2.45" ry="2.45"/></g></g></g></g><rect id="RAM" class="cls-8" x="295.71" y="109.43" width="77.95" height="110.53" rx="6" ry="6"/><rect id="network_controller" class="cls-8" x="411.07" y="109.43" width="50.49" height="49.27" rx="3.22" ry="3.22"/><rect id="usb_controller" class="cls-8" x="411.66" y="208.91" width="59.7" height="59.7" rx="3.86" ry="3.86"/><rect id="PMIC" class="cls-8" x="81.62" y="316.15" width="27.46" height="26.79" rx="1.75" ry="1.75"/><rect id="radio" class="cls-5" x="58.81" y="52.17" width="64.95" height="86.64" rx="4.85" ry="4.85"/><g id="GPIO"><rect class="cls-5" x="153.87" y="108.53" width="115.75" height="115.75" rx="7.48" ry="7.48"/><path class="cls-7" d="m255.37,115.82c3.09,0,5.6,2.51,5.6,5.6v90.12c0,3.09-2.51,5.6-5.6,5.6h-87.82c-3.09,0-5.6-2.51-5.6-5.6v-90.12c0-3.09,2.51-5.6,5.6-5.6h87.82m0-1h-87.82c-3.65,0-6.6,2.96-6.6,6.6v90.12c0,3.65,2.96,6.6,6.6,6.6h87.82c3.65,0,6.6-2.96,6.6-6.6v-90.12c0-3.65-2.96-6.6-6.6-6.6h0Z"/><path class="cls-7" d="m248.53,124.84c2.45,0,4.44,1.99,4.44,4.44v73.33c0,2.45-1.99,4.44-4.44,4.44h-73.33c-2.45,0-4.44-1.99-4.44-4.44v-73.33c0-2.45,1.99-4.44,4.44-4.44h73.33m0-1h-73.33c-3.01,0-5.44,2.44-5.44,5.44v73.33c0,3.01,2.44,5.44,5.44,5.44h73.33c3.01,0,5.44-2.44,5.44-5.44v-73.33c0-3.01-2.44-5.44-5.44-5.44h0Z"/><rect class="cls-7" x="175.61" y="198.53" width="5.13" height="5.13" rx="2.57" ry="2.57"/></g><rect id="Ethernet" class="cls-5" x="499.22" y="16.24" width="160.33" height="122.63" rx="9.06" ry="9.06"/><g id="usb"><g id="usb2"><rect class="cls-5" x="531.92" y="289.17" width="130.66" height="99.17" rx="7.36" ry="7.36"/><path class="cls-4" d="m606.92,173.96l38.63,8.67c2.57.59,4.39,2.92,4.39,5.6h0c0,2.84-2.03,5.25-4.79,5.67l-38.24,5.76"/><path class="cls-4" d="m606.92,224.93l38.63,8.67c2.57.59,4.39,2.92,4.39,5.6h0c0,2.84-2.03,5.25-4.79,5.67l-38.24,5.76"/><path class="cls-4" d="m629.6,219.78l-20.36-4.57c-1.35-.31-2.31-1.54-2.31-2.95h0c0-1.5,1.07-2.77,2.52-2.99l20.16-3.04"/></g><g id="usb1"><rect class="cls-5" x="531.92" y="162.96" width="130.66" height="99.17" rx="7.36" ry="7.36"/><path class="cls-4" d="m606.92,300.42l38.63,8.67c2.57.59,4.39,2.92,4.39,5.6h0c0,2.84-2.03,5.25-4.79,5.67l-38.24,5.76"/><path class="cls-4" d="m606.92,351.39l38.63,8.67c2.57.59,4.39,2.92,4.39,5.6h0c0,2.84-2.03,5.25-4.79,5.67l-38.24,5.76"/></g></g><g id="audio_video"><rect class="cls-5" x="356.2" y="338.88" width="92.87" height="49.54" rx="4.38" ry="4.38" transform="translate(766.28 -38.99) rotate(90)"/><path class="cls-8" d="m426.81,402.4h-48.51c-.88,0-1.59.71-1.59,1.59v8.53c0,.88.71,1.59,1.59,1.59h3.78v15.99c0,1.07.86,1.93,1.93,1.93h36.71c1.07,0,1.93-.86,1.93-1.93v-15.99h4.15c.88,0,1.59-.71,1.59-1.59v-8.53c0-.88-.71-1.59-1.59-1.59Z"/><path class="cls-8" d="m424.84,315.72h-44.87c-1.97,0-3.57,1.6-3.57,3.57v51.4c0,1.97,1.6,3.57,3.57,3.57h1.86l10.08-32.51h21.99l8.85,32.51h2.1c1.97,0,3.57-1.6,3.57-3.57v-51.4c0-1.97-1.6-3.57-3.57-3.57Z"/><path class="cls-5" d="m389.89,320.98h-5.7c-.33,0-.59.27-.59.59v10.19c-1.47.92-3.52,2.86-3.52,6.46,0,5.2,7.72,22.87,8.05,23.62.12.27.38.42.65.42.1,0,.19-.02.28-.06.36-.16.52-.58.37-.93-.08-.18-7.93-18.14-7.93-23.05,0-2.69,1.36-4.22,2.49-5.03.07.02.13.04.21.04h5.7c.33,0,.59-.27.59-.59v-11.06c0-.33-.27-.59-.59-.59Z"/><path class="cls-5" d="m421.66,331.94v-10.37c0-.33-.27-.59-.59-.59h-5.7c-.33,0-.59.27-.59.59v11.06c0,.33.27.59.59.59h5.68c1.12.83,2.44,2.35,2.44,4.99,0,4.91-7.85,22.87-7.93,23.05-.16.36,0,.78.37.93.09.04.19.06.28.06.27,0,.53-.16.65-.42.33-.75,8.05-18.42,8.05-23.62,0-3.38-1.81-5.29-3.25-6.28Z"/></g><g id="HDMI"><g id="HDM2"><rect class="cls-5" x="242.88" y="366.16" width="65.33" height="43.14" rx="3.43" ry="3.43" transform="translate(663.27 112.19) rotate(90)"/><path class="cls-4" d="m272.18,386.72l-3.5,20.97c-.24,1.39-1.18,2.38-2.26,2.38h0c-1.15,0-2.12-1.1-2.29-2.6l-2.33-20.76"/><path class="cls-4" d="m289.28,386.72l-3.5,20.97c-.24,1.39-1.18,2.38-2.26,2.38h0c-1.15,0-2.12-1.1-2.29-2.6l-2.33-20.76"/></g><g id="HDMI1"><rect class="cls-5" x="159.15" y="366.16" width="65.33" height="43.14" rx="3.43" ry="3.43" transform="translate(579.54 195.92) rotate(90)"/><path class="cls-4" d="m188.45,386.72l-3.5,20.97c-.24,1.39-1.18,2.38-2.26,2.38h0c-1.15,0-2.12-1.1-2.29-2.6l-2.33-20.76"/><path class="cls-4" d="m205.54,386.72l-3.5,20.97c-.24,1.39-1.18,2.38-2.26,2.38h0c-1.15,0-2.12-1.1-2.29-2.6l-2.33-20.76"/></g></g><rect id="usbc" class="cls-5" x="68.93" y="356.61" width="59.97" height="67.6" rx="4.12" ry="4.12" transform="translate(489.33 291.49) rotate(90)"/><g id="MIPI_CSI"><g id="MIPI_CSI2"><rect class="cls-5" x="28.74" y="120.75" width="17.57" height="164.33" rx="3.47" ry="3.47"/><path class="cls-8" d="m36.46,259.64c-1.59,0-2.89-1.29-2.89-2.89v-107.64c0-1.59,1.29-2.89,2.89-2.89h5.9v-24.59c0-1.95-1.58-3.53-3.53-3.53h-10.5c-1.95,0-3.53,1.58-3.53,3.53v162.85c0,1.95,1.58,3.53,3.53,3.53h10.5c1.95,0,3.53-1.58,3.53-3.53v-24.85h-5.9Z"/></g><g id="MIPI_CSI1"><rect class="cls-5" x="329.34" y="240.07" width="17.57" height="164.33" rx="3.47" ry="3.47" transform="translate(676.25 644.47) rotate(180)"/><path class="cls-8" d="m339.19,265.5c1.59,0,2.89,1.29,2.89,2.89v107.64c0,1.59-1.29,2.89-2.89,2.89h-5.9v24.59c0,1.95,1.58,3.53,3.53,3.53h10.5c1.95,0,3.53-1.58,3.53-3.53v-162.85c0-1.95-1.58-3.53-3.53-3.53h-10.5c-1.95,0-3.53,1.58-3.53,3.53v24.85h5.9Z"/></g></g></g></g></g></svg>