<svg xmlns="http://www.w3.org/2000/svg" width="94.569" height="94.529" viewBox="0 0 94.569 94.529">
  <path id="Facebook" d="M1775.51,888.352c-25.156.306-47.12-20.279-47.275-46.945a47.393,47.393,0,0,1,48.327-47.569c24.253.51,46.618,20.356,46.237,48.043A47.045,47.045,0,0,1,1775.51,888.352ZM1761.5,841.3h4.616c1.629,0,1.631,0,1.634,1.6,0,9.161.017,18.322-.022,27.483,0,1.134.3,1.532,1.489,1.5q4.771-.124,9.542,0c1.18.029,1.476-.338,1.471-1.493-.046-9.236-.007-18.475-.054-27.711,0-1.136.25-1.561,1.447-1.5,1.911.1,3.832-.012,5.747.044.918.027,1.4-.2,1.467-1.209.143-2.214.374-4.421.565-6.633.071-.818.124-1.636.2-2.6h-9.394c0-2.234-.015-4.334,0-6.434.017-1.935.692-2.6,2.659-2.617,1.916-.019,3.832-.015,5.747,0,.607,0,1.03-.09,1.025-.862-.024-3.067.01-6.133-.046-9.2a1.135,1.135,0,0,0-.777-.789c-4.052.09-8.136-.031-12.145.459-5.356.656-8.539,4.392-8.784,9.717-.131,2.867-.131,5.742-.126,8.615,0,.9-.277,1.2-1.192,1.158-1.667-.073-3.343-.019-5.069-.019Z" transform="translate(-1728.234 -793.827)" fill="#1a6da8"/>
</svg>
