<svg xmlns="http://www.w3.org/2000/svg" width="94.792" height="94.78" viewBox="0 0 94.792 94.78">
  <path id="Linkdin" d="M1664.078,894.31a47.4,47.4,0,1,1,47.3,47.391A47.391,47.391,0,0,1,1664.078,894.31Zm51.58-6.955c0-1.326-.034-2.655.013-3.981.024-.676-.218-.859-.864-.852q-4.375.041-8.748,0c-.646-.007-.856.169-.856.847q.032,17.895,0,35.789c0,.661.186.859.846.852,3.015-.032,6.032-.046,9.047.007.864.017,1.04-.262,1.035-1.072-.032-5.932-.02-11.864-.017-17.8a17.327,17.327,0,0,1,.575-4.77c.876-3.1,2.985-4.583,6.475-4.552,3.115.029,5,1.534,5.829,4.642a19.951,19.951,0,0,1,.523,5.083q.026,8.747-.009,17.492c0,.741.183.979.949.969,3.118-.044,6.233-.049,9.351,0,.837.015.986-.281.984-1.038-.027-6.6.012-13.2-.029-19.8a34.433,34.433,0,0,0-.722-7.586c-1.084-4.667-3.837-7.63-8.6-8.6a20.95,20.95,0,0,0-5.193-.44C1722.136,882.743,1718.338,883.668,1715.658,887.356Zm-31.017,13.853c0,5.929.012,11.856-.015,17.786,0,.727.176,1,.942.991q5.528-.044,11.051.012c.876.01,1.114-.254,1.114-1.14q-.033-17.179.01-34.363c0-.4-.052-.8-.022-1.2.042-.6-.252-.724-.786-.724-3.749.01-7.5.015-11.252-.022-.817-.007-1.067.242-1.062,1.082C1684.658,889.487,1684.641,895.348,1684.641,901.209Zm13.1-30.851a6.571,6.571,0,1,0-6.478,6.61A6.61,6.61,0,0,0,1697.746,870.358Z" transform="translate(-1664.078 -846.922)" fill="#1a6da8"/>
</svg>
