<svg xmlns="http://www.w3.org/2000/svg" width="95.809" height="95.78" viewBox="0 0 95.809 95.78">
  <g id="New_" data-name="New !" transform="translate(0.499 0.499)">
    <path id="Soustraction_10" data-name="Soustraction 10" d="M55.639,94.781a4.4,4.4,0,0,1-2.725-1.43c-.9-.812-1.81-1.693-2.607-2.472l-.068-.065c-.359-.351-.73-.71-1.1-1.061a3.667,3.667,0,0,0-2.5-1.184,3.88,3.88,0,0,0-2.559,1.179c-1.407,1.276-2.925,2.64-4.486,3.973a3.188,3.188,0,0,1-2,.894,2.713,2.713,0,0,1-2.272-1.7c-.6-1.087-1.12-2.244-1.619-3.364l-.015-.032c-.212-.478-.438-.985-.666-1.474-.928-2.214-1.587-3.2-3.043-3.2a8.46,8.46,0,0,0-2.454.513c-.737.233-1.474.514-2.187.783l-.023.01c-.879.334-1.779.676-2.686.938a5.71,5.71,0,0,1-1.542.258c-1.313,0-1.974-.822-2.2-2.748a44.81,44.81,0,0,1-.225-5.108c0-.293,0-.586-.007-.877-.024-2.364-1.214-3.554-3.741-3.741-.416-.029-.854-.042-1.424-.042-.257,0-.513,0-.771,0h-.268c-.156,0-.313,0-.47,0A12.473,12.473,0,0,1,8.689,74.5a2.954,2.954,0,0,1-1.953-1.306,2.758,2.758,0,0,1-.025-2.2c.316-.967.711-1.929,1.093-2.857l0-.012.014-.034c.326-.795.663-1.615.95-2.438.978-2.8.53-3.936-2.081-5.285C6,60,5.271,59.678,4.631,59.39c-.881-.4-1.787-.8-2.638-1.282A3.426,3.426,0,0,1,.034,55.945a3.374,3.374,0,0,1,1.031-2.687,24.167,24.167,0,0,1,1.863-1.941l.023-.023c.437-.421.931-.9,1.388-1.392,2.486-2.694,2.493-3.939.037-6.657l-.009-.011q-.374-.412-.749-.822l-.041-.046c-.83-.912-1.688-1.856-2.5-2.818a2.833,2.833,0,0,1-.827-2.326,2.986,2.986,0,0,1,1.735-1.93c1.018-.544,2.13-1.01,3.111-1.421l.143-.061c.564-.236,1.148-.483,1.714-.743,2.989-1.378,3.443-2.41,2.432-5.526-.226-.694-.5-1.4-.745-2.021a25.9,25.9,0,0,1-1-2.883,3.245,3.245,0,0,1,.1-2.67,3.247,3.247,0,0,1,2.443-1.079,37.949,37.949,0,0,1,4.58-.262c.423,0,.795,0,1.14.014h.166c2.345,0,3.577-1.147,3.765-3.509.083-1,.1-2.016.124-3V12.1c.009-.472.019-.932.034-1.4.1-2.888.86-4.119,2.558-4.119a7.986,7.986,0,0,1,2.712.638c.55.209,1.1.433,1.639.651l.082.033c.938.383,1.906.777,2.891,1.1a4.4,4.4,0,0,0,1.379.243,3.143,3.143,0,0,0,2.9-2.1c.2-.435.409-.88.6-1.3.59-1.282,1.2-2.609,1.9-3.859C37.405.652,38.233,0,39.191,0a3.725,3.725,0,0,1,2.316,1.067c.763.641,1.48,1.361,2.173,2.056l.023.022c.507.51,1.032,1.036,1.572,1.527C46.511,5.8,47.358,6.261,48.2,6.261c.826,0,1.67-.433,2.913-1.493.559-.477,1.11-1.008,1.6-1.477l.023-.022a27.4,27.4,0,0,1,2.24-2,4.043,4.043,0,0,1,2.3-1.051c.889,0,1.635.675,2.419,2.186.439.844.8,1.74,1.142,2.606l.025.064c.183.455.371.927.569,1.384,1.1,2.531,1.972,3.387,3.457,3.387a8.834,8.834,0,0,0,2.763-.612c.536-.186,1.086-.4,1.6-.595l.031-.012a25.456,25.456,0,0,1,3.034-1.021,5.308,5.308,0,0,1,1.236-.168c1.478,0,2.218.926,2.331,2.914.063,1.064.08,2.157.1,3.121v.056c.016.839.031,1.707.069,2.556.109,2.426,1.463,3.707,4.025,3.806.568.022,1.15.031,1.712.039h.032a31.2,31.2,0,0,1,3.723.2A3.1,3.1,0,0,1,87.9,21.238a3.215,3.215,0,0,1,.047,2.691c-.307,1.041-.718,2.069-1.114,3.064l-.011.025c-.261.653-.531,1.326-.771,2-1.052,2.97-.624,4.037,2.176,5.443.632.317,1.28.605,1.907.883.777.346,1.575.7,2.333,1.1,1.412.757,2.17,1.551,2.317,2.426s-.322,1.912-1.443,3.129c-.7.767-1.453,1.517-2.178,2.24-.488.489-.987.989-1.469,1.489a3.188,3.188,0,0,0-.076,4.847c.414.467.84.931,1.276,1.4.913.991,1.854,2.013,2.681,3.1a3.3,3.3,0,0,1,.966,2.566c-.153.707-.795,1.341-2.018,1.991a40.368,40.368,0,0,1-4.286,1.877,4.928,4.928,0,0,0-3,2.682.233.233,0,0,1-.026.294H85.09l-.057.119.174-.119-.17.119a15.1,15.1,0,0,0,1.257,4.814l.015.039a26.826,26.826,0,0,1,.893,2.6,3.363,3.363,0,0,1-.142,2.831,3.2,3.2,0,0,1-2.5,1.046c-.47.038-.979.055-1.605.055-.4,0-.813-.009-1.211-.015l-.167,0h-.051c-.392-.011-.879-.021-1.378-.021-.179,0-.358,0-.536,0-3.406.063-4.512,1.114-4.733,4.5-.042.667-.042,1.352-.042,2.014a21.209,21.209,0,0,1-.135,2.926c-.272,1.924-1.007,2.782-2.379,2.782a5.517,5.517,0,0,1-1.628-.293c-1.618-.5-3.207-1.169-4.743-1.812l-.294-.123-.293-.122a4.606,4.606,0,0,0-1.745-.395c-1.314,0-2.331.786-3.105,2.4-.255.534-.5,1.068-.76,1.659-.451,1.008-.918,2.051-1.461,3.032C57.435,94.065,56.592,94.781,55.639,94.781ZM15.959,42.048c-.076,0-.153,0-.229.01a3.477,3.477,0,0,0-.616.11c-.146.04-.29.088-.439.145a2.12,2.12,0,0,0-1.466,2.154,4.828,4.828,0,0,0,.081.86c1,5.687,2.052,11.337,3.129,17.108a2.944,2.944,0,0,0,.6,1.376,1.916,1.916,0,0,0,1.534.683,2.929,2.929,0,0,0,.407-.029c.089-.012.175-.028.263-.048A2.021,2.021,0,0,0,21,62.251a4.4,4.4,0,0,0-.091-.811c-.418-2.1-.827-4.313-1.157-6.094q-.258-1.389-.518-2.777l.51-.276c.312.37.619.741.929,1.111q.526.631,1.053,1.262l.231.279c1.772,2.126,3.6,4.324,5.429,6.464l.121.139c.05.056.113.125.2.214a2.889,2.889,0,0,0,1.942.979c.03,0,.061,0,.092,0a2.547,2.547,0,0,0,.38-.029,3.512,3.512,0,0,0,.916-.281,2.45,2.45,0,0,0,1.584-2.469,6.285,6.285,0,0,0-.1-1.017c-.627-3.568-1.325-7.272-1.943-10.542-.333-1.763-.719-3.81-1.087-5.8-.2-1.1-.634-2.573-2.02-2.657l-.127,0h-.052c-.071,0-.134.007-.2.013s-.126.017-.179.026a2.2,2.2,0,0,0-1.982,2.464,6.734,6.734,0,0,0,.109,1.152c.131.75.282,1.477.442,2.246A32.126,32.126,0,0,1,26.36,52.6c0,.054,0,.108,0,.162-.325-.35-.614-.654-.905-.96-.454-.477-.884-.928-1.273-1.39-2.215-2.621-4.184-4.976-6.019-7.2a4.213,4.213,0,0,0-.308-.337,2.669,2.669,0,0,0-1.588-.806A3,3,0,0,0,15.959,42.048Zm25.633.519h-.015c-.155,0-.321.009-.507.023-.068,0-.137.013-.205.021-3.851.46-6.164,3.628-6.189,8.474a11.347,11.347,0,0,0,2.6,7.007,6.784,6.784,0,0,0,5.2,2.182,6.8,6.8,0,0,0,5.74-2.78,3.274,3.274,0,0,0,.609-1.782,2.258,2.258,0,0,0-.871-1.721,2.146,2.146,0,0,0-1.378-.6,2.512,2.512,0,0,0-1.917,1.27c-.034.046-.067.095-.1.143l-.042.063a2.959,2.959,0,0,1-.683.783,2.128,2.128,0,0,1-1.232.416,1.954,1.954,0,0,1-.682-.124l-.013,0-.031-.011-.031-.014-.015,0-.026-.012-.025-.012-.009,0c-.022-.01-.046-.021-.068-.033a.146.146,0,0,1-.027-.013l-.011,0a.253.253,0,0,1-.032-.017.033.033,0,0,1-.011-.007.453.453,0,0,1-.043-.022l-.016-.009-.016-.01-.015-.008-.015-.009a.131.131,0,0,0-.022-.013l-.012-.009-.011-.006-.073-.046c-.535-.357-1.081-.807-1.074-1.425a1.109,1.109,0,0,1,.029-.236c.166-.709.746-.729,1.308-.748a2.893,2.893,0,0,0,.672-.077,17.95,17.95,0,0,1,2.135-.447l.017,0c.548-.092,1.114-.187,1.665-.32a3.018,3.018,0,0,0,2.565-2.952,4.249,4.249,0,0,0-.163-1.172,7.585,7.585,0,0,0-6.657-5.72c-.127,0-.214-.008-.291-.008ZM52.613,41.5a1.626,1.626,0,0,0-.221.021l-.019,0-.017,0-.033.007a2.79,2.79,0,0,0-.617.2,2.043,2.043,0,0,0-1.394,1.916,4.3,4.3,0,0,0,.516,1.827c.564,1.146,1.132,2.309,1.689,3.451l.494,1.01.2.411c.825,1.69,1.678,3.437,2.523,5.148.539,1.094,1.212,2.1,2.473,2.1a2.95,2.95,0,0,0,.724-.1,3.016,3.016,0,0,0,2.388-3.261c0-1.134.061-2.268.121-3.366.026-.471.055-.972.075-1.457h.666L63.3,51.9l.358.8.75,1.671c.032.074.063.139.093.2.039.077.082.154.136.243a2.347,2.347,0,0,0,2.05,1.219h.05a3.352,3.352,0,0,0,.5-.04l.088-.015a2.543,2.543,0,0,0,2.289-2.443c.114-1.1.249-2.207.379-3.282L70,50.187a80.157,80.157,0,0,0,.736-8.793c0-.059,0-.12,0-.179,0-1.24-.133-2.36-1.764-2.439-.066,0-.132,0-.2,0-.047,0-.093,0-.138,0-1.284.051-1.982.829-2.134,2.38-.131,1.376-.277,2.736-.446,4.312l0,.026-.044.416c-.065.613-.135,1.258-.206,1.941-.321-.743-.613-1.434-.895-2.1L64.9,45.71c-.614-1.45-1.145-2.7-1.736-3.953-.089-.187-.179-.356-.267-.5a2.156,2.156,0,0,0-1.81-1.218c-.034,0-.067,0-.1,0a2.949,2.949,0,0,0-.658.081,2.53,2.53,0,0,0-2.312,2.629c-.054,1.355-.186,2.71-.339,4.279l0,.029-.021.211c-.066.688-.136,1.4-.205,2.18-1.068-2.321-1.867-4.062-2.671-5.814-.1-.21-.185-.4-.28-.584-.364-.712-.849-1.451-1.681-1.53a1.241,1.241,0,0,0-.148-.007ZM79.49,49.17c-.033,0-.067,0-.1,0a2.042,2.042,0,0,0-2.19,2.179c0,.041,0,.08,0,.122a2.212,2.212,0,0,0,2.368,2.205c1.335-.2,2.025-.844,2.108-1.977.007-.091.01-.178.01-.262,0-.046,0-.091,0-.139a1.931,1.931,0,0,0-1.943-2.122C79.636,49.174,79.559,49.17,79.49,49.17ZM76.2,30.039a2.652,2.652,0,0,0-.443.048c-.035.007-.069.013-.1.021a2.33,2.33,0,0,0-1.823,2.973l.246,1.444.027.157c.582,3.407,1.186,6.93,1.856,10.38A2.288,2.288,0,0,0,78.2,47.2a2.851,2.851,0,0,0,.53-.05c1.25-.224,1.831-1.053,1.826-2.611,0-.192-.009-.39-.026-.6-.164-.905-.331-1.843-.5-2.8L80,40.946c-.488-2.754-1.042-5.875-1.674-8.979-.011-.053-.022-.105-.035-.156a2.151,2.151,0,0,0-1.854-1.762,1.972,1.972,0,0,0-.2-.01Z" fill="#22b573" stroke="rgba(0,0,0,0)" stroke-width="1"/>
    <path id="Tracé_4622" data-name="Tracé 4622" d="M294.847,267.075a19.872,19.872,0,0,1-2.418.6c-.643.083-1.469.439-1.932-.187-.373-.5-.046-1.167.345-1.66a1.926,1.926,0,0,1,2.212-.887A2.486,2.486,0,0,1,294.847,267.075Z" transform="translate(-250.963 -217.998)" fill="#22b573"/>
  </g>
</svg>
