<svg xmlns="http://www.w3.org/2000/svg" width="94.78" height="94.78" viewBox="0 0 94.78 94.78">
  <path id="Twitter" d="M1709.268,795.776h5.55a4.9,4.9,0,0,0,.716.152,43.893,43.893,0,0,1,18.675,5.388c15.572,8.721,24.044,22.047,25.143,39.871a43.417,43.417,0,0,1-5.5,24.207c-8.7,15.539-22.031,23.978-39.816,25.075a43.941,43.941,0,0,1-24.215-5.487q-20.048-11.026-24.414-33.573c-.346-1.806-.5-3.645-.745-5.472v-5.553a7,7,0,0,0,.157-.8,44.563,44.563,0,0,1,5.406-18.661c7.372-13.345,18.567-21.519,33.564-24.4C1705.6,796.177,1707.439,796.023,1709.268,795.776Zm35.1,20.6a29.672,29.672,0,0,1-7.947,3.178,1.58,1.58,0,0,1-1.635-.409c-4.2-3.761-9.059-4.829-14.337-2.918a13.328,13.328,0,0,0-9.133,11.521,38.067,38.067,0,0,0-.031,4.842,40.092,40.092,0,0,1-28.71-14.623,13.6,13.6,0,0,0-1.79,8.639,14.02,14.02,0,0,0,5.931,9.941l-.165.3-5.986-1.674a13.768,13.768,0,0,0,3.047,8.647,14.124,14.124,0,0,0,7.839,4.973l-.039.3h-5.955c2.372,6.033,6.647,9.2,13.067,9.807a29.29,29.29,0,0,1-20.346,5.96,47.213,47.213,0,0,0,5.007,2.685,40.193,40.193,0,0,0,24.419,2.637,37.127,37.127,0,0,0,23.931-15.442,40.8,40.8,0,0,0,7.765-24.884,1.636,1.636,0,0,1,.509-1.055c.963-.911,2.052-1.693,2.965-2.645,1.191-1.241,2.259-2.6,3.456-3.994l-7.584,2.06-.108-.273A14.339,14.339,0,0,0,1744.365,816.372Z" transform="translate(-1664.66 -795.776)" fill="#3fa9f5"/>
</svg>
