<svg xmlns="http://www.w3.org/2000/svg" width="95.766" height="95.78" viewBox="0 0 95.766 95.78">
  <g id="YouTube" transform="translate(-1598.695 -793.824)">
    <path id="Tracé_4659" data-name="Tracé 4659" d="M1644.482,793.824h4.216c.167.032.335.079.5.1,1.665.175,3.34.266,4.991.527a46.243,46.243,0,0,1,14.373,4.73,47.87,47.87,0,0,1-18.062,90.265,48.209,48.209,0,0,1-11.542-.438,46.359,46.359,0,0,1-14.284-4.7,47.6,47.6,0,0,1-21.373-22.1,46.4,46.4,0,0,1-4.42-16.483c-.049-.63-.125-1.26-.189-1.889v-4.214c.034-.184.081-.366.1-.553.111-1.205.17-2.418.327-3.618a46.664,46.664,0,0,1,4.9-15.652,47.573,47.573,0,0,1,22.141-21.38,46.374,46.374,0,0,1,16.434-4.4C1643.225,793.964,1643.852,793.888,1644.482,793.824Zm2.081,67.967q10.054,0,20.111,0a8.542,8.542,0,0,0,8.577-8.57q0-11.494,0-22.989a8.532,8.532,0,0,0-8.57-8.573h-40.176a8.532,8.532,0,0,0-8.577,8.568q0,11.445,0,22.891a8.542,8.542,0,0,0,8.668,8.676Z" transform="translate(0)" fill="#f53f3f"/>
    <path id="Tracé_4660" data-name="Tracé 4660" d="M1615.86,829.881V808.508l16.217,10.68Z" transform="translate(25.057 21.436)" fill="#f53f3f"/>
  </g>
</svg>
