<?xml version="1.0" encoding="UTF-8"?>
<svg id="Calque_2"
    xmlns="http://www.w3.org/2000/svg"
    xmlns:xlink="http://www.w3.org/1999/xlink" viewBox="0 0 240.52 206.22">
    <defs>
        <style>.cls-1,.cls-2,.cls-3,.cls-4,.cls-5{fill:none;}.cls-2{stroke:#000;stroke-linejoin:round;stroke-width:2.83px;}.cls-2,.cls-5{stroke-linecap:round;}.cls-6{fill:#375286;}.cls-7{fill:#58bd70;transform: translate(1px, 0px);}.cls-3{stroke-width:22.68px;}.cls-3,.cls-4{stroke:#9bd5db;}.cls-3,.cls-4,.cls-5{stroke-miterlimit:10;}.cls-3,.cls-8{opacity:.5;}.cls-9{fill:gray;}.cls-10{fill:#1a6da3;}.cls-11{fill:#fff;}.cls-4{opacity:.9;stroke-width:19.84px;}.cls-8{fill:#9bd5db;}.cls-12{fill:#e55e38;}.cls-13{fill:#249b69;}.cls-5{stroke:#ffd224;stroke-width:1px;}.cls-14{fill:#333;}.cls-15{clip-path:url(#clippath);}.cls-16{fill:#ff8f03;transform: translate(1px, 0px);}.cls-17{fill:#d0ebd6;}.cls-18{fill:#ffd224;}.button{cursor:pointer}</style>
        <clipPath id="clippath">
            <path class="cls-1" d="M189.68,98.28c0-26.87-7.83-68.41-16.46-82.62-4.29-7.06-8.22-10.39-15.27-10.9-6.14-.45-12.3,4.75-19.76,1.75C119.5-1,102.89.05,102.89.05,46.07.05,0,46.12,0,102.94s46.07,102.89,102.89,102.89c0,0,18.01,2.63,37.61-5.87,7.14-3.09,12,3.22,21.22,1.13,6.93-1.58,8.18-4.97,11.49-10.08,9.74-15.01,16.46-62.07,16.46-92.74Z"/>
        </clipPath>
    </defs>
    <g id="Calque_1-2">
        <g id="Bluebot">
            <g id="components">
                <rect class="cls-9" x="3.27" y="64.34" width="168.86" height="75.49" rx="21.98" ry="21.98" transform="translate(189.78 14.39) rotate(90)"/>
                <rect class="cls-6" x="28.84" y="37.27" width="117.7" height="129.62" rx="21.98" ry="21.98" transform="translate(189.78 14.39) rotate(90)"/>
                <rect class="cls-14" x="101.77" y="52.96" width="32.33" height="24.69" rx="3.06" ry="3.06" transform="translate(183.24 -52.64) rotate(90)"/>
                <g id="elements_x5F_yelows">
                    <circle class="cls-18" cx="109.96" cy="124.33" r="3.11"/>
                    <circle class="cls-18" cx="109.96" cy="131.11" r="3.11"/>
                    <circle class="cls-18" cx="109.96" cy="137.34" r="3.11"/>
                    <circle class="cls-18" cx="109.96" cy="143.56" r="3.11"/>
                    <circle class="cls-18" cx="109.96" cy="149.78" r="3.11"/>
                    <circle class="cls-18" cx="109.96" cy="156.01" r="3.11"/>
                    <line class="cls-5" x1="166.58" y1="63.79" x2="146.39" y2="63.79"/>
                    <line class="cls-5" x1="166.58" y1="66.35" x2="146.39" y2="66.35"/>
                    <line class="cls-5" x1="166.58" y1="69.27" x2="146.39" y2="69.27"/>
                    <line class="cls-5" x1="166.58" y1="71.94" x2="146.39" y2="71.94"/>
                    <line class="cls-5" x1="166.58" y1="134.22" x2="146.39" y2="134.22"/>
                    <line class="cls-5" x1="166.58" y1="136.78" x2="146.39" y2="136.78"/>
                    <line class="cls-5" x1="166.58" y1="139.7" x2="146.39" y2="139.7"/>
                    <line class="cls-5" x1="166.58" y1="142.37" x2="146.39" y2="142.37"/>
                </g>
            </g>
            <path id="body" class="cls-8" d="M140.62,199.91c14.67-2.21,99.9-18.45,99.9-96.89,0-85.82-102.05-97.01-102.05-97.01v.61C119.67-1.01,102.89.05,102.89.05,46.07.05,0,46.12,0,102.94s46.07,102.89,102.89,102.89c0,0,18.08,2.63,37.73-5.92Z"/>
            <g id="stripes">
                <g class="cls-15">
                    <path class="cls-4" d="M17.95,206.22c22.85,0,41.38-46.16,41.38-103.11S40.81,0,17.95,0"/>
                    <path class="cls-4" d="M50.18,218.86c27.96,0,50.63-51.82,50.63-115.75S78.14-12.64,50.18-12.64"/>
                    <path class="cls-4" d="M50.18,257.91c52.65,0,95.32-69.31,95.32-154.8S102.82-51.69,50.18-51.69"/>
                    <path class="cls-3" d="M106.11,257.6c37,0,66.99-69.31,66.99-154.8S143.11-52,106.11-52"/>
                </g>
            </g>
            <g id="face">
                <g id="eyes">
                    <path class="cls-11" d="M166.44,60.37c0-22.17,17.94-27.02,28.09-27.99,3.79-.36,7.41,3.28,8.24,5.82,8.12,24.73-1.91,42.65-7.24,50.86-1.72,2.64-6.36,3.79-10.12,2.44-7.74-2.8-18.97-10.42-18.97-31.12Z"/>
                    <path d="M205.82,56.35l-14.26-3.71c-3.73-.97-7.45,1.83-8.28,6.22h0c-.82,4.39,1.55,8.78,5.28,9.75l14.72,3.84c1.41-4.75,2.42-10.16,2.53-16.1Z"/>
                    <path class="cls-11" d="M166.44,145.85c0,22.17,17.94,27.02,28.09,27.99,3.79.36,7.41-3.28,8.24-5.82,8.12-24.73-1.91-42.65-7.24-50.86-1.72-2.64-6.36-3.79-10.12-2.44-7.74,2.8-18.97,10.42-18.97,31.12Z"/>
                    <path d="M205.82,149.87l-14.26,3.71c-3.73.97-7.45-1.83-8.28-6.22h0c-.82-4.39,1.55-8.78,5.28-9.75l14.72-3.84c1.41,4.75,2.42,10.16,2.53,16.1Z"/>
                </g>
                <path id="smile" class="cls-2" d="M214.44,71.53c10.13,0,18.35,14.14,18.35,31.58s-8.21,31.58-18.35,31.58"/>
            </g>
            <g id="buttons">
                <g id="go" class="button pulse-circle">
                    <circle class="cls-13" cx="100.59" cy="101.52" r="14.42"/>
                    <circle class="cls-7" cx="101.75" cy="101.52" r="14.42"/>
                    <path class="cls-17" d="M96.89,100.25c-.23-.63-.6-1.89-.6-3.37,0-1.66.42-3.03,1.45-4.1.91-.94,2.38-1.53,4.09-1.53,3.27.02,5.67,2.26,5.67,5.94,0,1.27-.28,2.26-.5,2.74l-1.16-.34c.26-.59.47-1.32.47-2.43,0-2.67-1.66-4.41-4.41-4.41s-4.43,1.68-4.43,4.23c0,.93.13,1.56.29,1.89h3.27v-2.23h1.14v3.61h-5.27Z"/>
                    <path class="cls-17" d="M102,111.78c-3.78,0-5.78-2.29-5.78-5.09s2.25-4.93,5.57-4.93c3.48,0,5.76,2.17,5.76,5.1s-2.3,4.93-5.55,4.93ZM101.82,103.27c-2.34,0-4.44,1.27-4.44,3.5s2.07,3.52,4.56,3.52c2.18,0,4.46-1.14,4.46-3.5s-2.16-3.52-4.57-3.52Z"/>
                </g>
                <g id="up" class="button">
                    <ellipse class="cls-12" cx="144.02" cy="101.18" rx="17.27" ry="12"/>
                    <ellipse class="cls-16" cx="145.26" cy="101.18" rx="17.27" ry="12"/>
                    <path class="cls-11" d="M146.7,108.8l11.34-6.54c.82-.48.82-1.67,0-2.14l-11.34-6.54c-.82-.48-1.86.12-1.86,1.07v3.06h-11.74c-.68,0-1.24.55-1.24,1.24v4.5c0,.68.55,1.24,1.24,1.24h11.74v3.06c0,.95,1.03,1.55,1.85,1.07Z"/>
                </g>
                <g id="down" class="button">
                    <ellipse class="cls-12" cx="57.08" cy="101.18" rx="17.27" ry="12"/>
                    <ellipse class="cls-16" cx="58.31" cy="101.18" rx="17.27" ry="12"/>
                    <path class="cls-11" d="M56.87,93.56l-11.34,6.54c-.82.48-.82,1.67,0,2.14l11.34,6.54c.82.48,1.86-.12,1.86-1.07v-3.06h11.74c.68,0,1.24-.55,1.24-1.24v-4.5c0-.68-.55-1.24-1.24-1.24h-11.74v-3.06c0-.95-1.03-1.55-1.85-1.07Z"/>
                </g>
                <g id="left" class="button">
                    <ellipse class="cls-12" cx="97.98" cy="58.05" rx="11.89" ry="17.11"/>
                    <ellipse class="cls-16" cx="99.2" cy="58.05" rx="11.89" ry="17.11"/>
                    <path class="cls-11" d="M106.75,56.62l-6.48-11.23c-.47-.82-1.65-.82-2.12,0l-6.48,11.23c-.47.82.12,1.84,1.06,1.84h3.03v11.63c0,.68.55,1.23,1.23,1.23h4.45c.68,0,1.23-.55,1.23-1.23v-11.63h3.03c.94,0,1.53-1.02,1.06-1.84Z"/>
                </g>
                <g id="right" class="button">
                    <ellipse class="cls-12" cx="97.98" cy="144.99" rx="11.89" ry="17.11"/>
                    <ellipse class="cls-16" cx="99.2" cy="144.99" rx="11.89" ry="17.11"/>
                    <path class="cls-11" d="M91.66,146.42l6.48,11.23c.47.82,1.65.82,2.12,0l6.48-11.23c.47-.82-.12-1.84-1.06-1.84h-3.03v-11.63c0-.68-.55-1.23-1.23-1.23h-4.45c-.68,0-1.23.55-1.23,1.23v11.63h-3.03c-.94,0-1.53,1.02-1.06,1.84Z"/>
                </g>
                <g id="erase" class="button">
                    <rect class="cls-6" x="26.05" y="48.14" width="41.6" height="18.82" rx="9.41" ry="9.41" transform="translate(104.4 10.7) rotate(90)"/>
                    <rect class="cls-10" x="27.23" y="48.14" width="41.6" height="18.82" rx="9.41" ry="9.41" transform="translate(105.58 9.52) rotate(90)"/>
                    <g id="icon">
                        <rect class="cls-11" x="39.81" y="55.88" width="16.45" height="3.34" transform="translate(-26.63 50.82) rotate(-45)"/>
                        <rect class="cls-11" x="46.36" y="49.33" width="3.34" height="16.45" transform="translate(-26.63 50.82) rotate(-45)"/>
                    </g>
                </g>
                <g id="pause" class="button">
                    <rect class="cls-6" x="27.05" y="139.26" width="41.6" height="18.82" rx="9.41" ry="9.41" transform="translate(196.52 100.82) rotate(90)"/>
                    <rect class="cls-10" x="28.23" y="139.26" width="41.6" height="18.82" rx="9.41" ry="9.41" transform="translate(197.7 99.64) rotate(90)"/>
                    <g id="icon-2">
                        <rect class="cls-11" x="41.92" y="143.47" width="14.53" height="3.34"/>
                        <rect class="cls-11" x="41.92" y="150.53" width="14.53" height="3.34"/>
                    </g>
                </g>
            </g>
        </g>
    </g>
</svg>