<svg id="icon_idea" xmlns="http://www.w3.org/2000/svg" width="24" height="24.001" viewBox="0 0 24 24.001">
  <defs>
    <style>
      .cls-1 {
        fill: none;
      }
    </style>
  </defs>
  <path id="astuces" d="M-626.666-2959l-1.764,0a.617.617,0,0,1-.615-.619.618.618,0,0,1,.617-.615h0l1.765,0a.618.618,0,0,1,.615.619.617.617,0,0,1-.617.615Zm1.064-2.079-3.889-.006a.617.617,0,0,1-.616-.618.618.618,0,0,1,.617-.617h0l3.888.006a.617.617,0,0,1,.616.618.617.617,0,0,1-.617.616Zm-1.791-2.576c-.508.032-2.167.089-2.549-.46-.843-1.211-.225-2.417-1.349-3.485s-4.216-2.81-4.216-7.925c0-4.223,3.857-7.335,7.962-7.462V-2983c.05,0,.1.005.152.006s.1-.006.152-.006v.013c4.106.127,7.961,3.239,7.961,7.462,0,5.116-3.091,6.858-4.215,7.925s-.505,2.274-1.348,3.485c-.28.4-1.245.479-1.941.479C-627.039-2963.635-627.257-2963.646-627.393-2963.654Zm-1.968-16.853a4.885,4.885,0,0,0-3.839,4.109.615.615,0,0,0,.562.663l.054,0a.619.619,0,0,0,.614-.562,3.623,3.623,0,0,1,2.907-3.015.618.618,0,0,0,.449-.749.618.618,0,0,0-.6-.468A.612.612,0,0,0-629.361-2980.507Z" transform="translate(639.393 2983)"/>
  <rect id="Boundary" class="cls-1" width="24" height="24"/>
</svg>
