<?xml version="1.0" encoding="UTF-8"?><svg id="Calque_2" xmlns="http://www.w3.org/2000/svg" viewBox="0 0 25 25"><defs><style>.cls-1{fill:#333;}</style></defs><g id="Calque_1-2"><path id="icon_tello" class="cls-1" d="M24.96,15.05l-.22-.26c-.07-.08-.18-.09-.26-.02-.29,.26-.95,.84-1.06,.93-.15,.12-2.27,1.53-2.59,1.85-.31,.31-.43,.57-.56,1.2-.03,0-.06,0-.09,0-.06,0-.11,0-.17,.01l-4.49-4.71,.03-3.17,4.41-4.63c.05,0,.11,.01,.16,.01,.03,0,.06,0,.09,0,.13,.63,.26,.89,.56,1.2,.32,.32,2.44,1.73,2.59,1.85,.11,.1,.77,.67,1.06,.93,.08,.07,.19,.06,.26-.02l.22-.26c.06-.07,.06-.18,0-.25-.27-.31-.98-1.12-1.17-1.32-.23-.24-1.4-1.82-2.04-2.4-.2-.18-.39-.34-.56-.48,.03-.11,.05-.22,.05-.34,0-.6-.47-1.09-1.05-1.09-.03,0-.06,0-.09,0-.02-.1-.04-.2-.05-.3-.07-.42-.38-.78-.71-1.08s-1.48-1.04-1.78-1.22c-.3-.18-.82-.63-.98-.76-.11-.1-.48-.46-.68-.66-.07-.07-.18-.07-.25,0l-.27,.25c-.08,.07-.08,.19-.02,.27l.04,.05s1.25,1.39,1.37,1.55,1.55,1.86,1.74,2.07c.13,.14,.44,.37,.68,.56-.01,.04-.03,.09-.04,.13l-3.58,1.93v-.24l-.42-.41-.33-.37v.04c-.18-.12-.71-.31-1.42-.39h0l-.1-.1c-.09-.09-.2-.14-.32-.14h-.88c-.12,0-.23,.06-.32,.14l-.1,.1-.08,.02c-.79,.08-1.31,.23-1.4,.39h0l-.26,.3-.41,.41v.23l-3.62-1.95s-.02-.09-.04-.13c.25-.18,.55-.42,.68-.56,.19-.2,1.62-1.9,1.74-2.07,.12-.16,1.37-1.55,1.37-1.55l.04-.05c.07-.08,.06-.2-.02-.27l-.27-.25c-.07-.07-.18-.06-.25,0-.2,.19-.57,.56-.68,.66-.16,.13-.68,.59-.98,.76s-1.45,.92-1.78,1.22c-.33,.3-.63,.65-.71,1.08-.02,.1-.04,.2-.05,.3-.03,0-.06,0-.09,0-.58,0-1.05,.49-1.05,1.09,0,.12,.02,.23,.05,.34-.17,.14-.36,.3-.56,.48-.64,.57-1.81,2.15-2.04,2.4-.19,.19-.9,1-1.17,1.32-.06,.07-.06,.18,0,.25l.22,.26c.07,.08,.18,.09,.26,.02,.29-.26,.95-.84,1.06-.93,.15-.12,2.27-1.53,2.59-1.85,.31-.31,.43-.57,.56-1.2,.03,0,.06,0,.09,0,.06,0,.11,0,.16-.01l4.44,4.67,.03,3.24-4.42,4.64c-.05,0-.11-.01-.16-.01-.03,0-.06,0-.09,0-.13-.63-.26-.89-.56-1.2-.32-.32-2.44-1.73-2.59-1.85-.11-.1-.77-.67-1.06-.93-.08-.07-.19-.06-.26,.02l-.22,.26c-.06,.07-.06,.18,0,.25,.27,.31,.98,1.12,1.17,1.32,.23,.24,1.4,1.82,2.04,2.4,.2,.18,.39,.34,.56,.48-.03,.11-.05,.22-.05,.34,0,.6,.47,1.09,1.05,1.09,.03,0,.06,0,.09,0,.02,.1,.04,.2,.05,.3,.07,.42,.38,.78,.71,1.08,.33,.3,1.48,1.04,1.78,1.22,.3,.18,.82,.63,.98,.76,.11,.1,.48,.46,.68,.66,.07,.07,.18,.07,.25,0l.27-.25c.08-.07,.08-.19,.02-.27l-.04-.05s-1.25-1.39-1.37-1.55c-.12-.16-1.55-1.86-1.74-2.07-.13-.14-.44-.37-.68-.56,.01-.04,.03-.09,.04-.13l4-2.16c.26,.01,.6,.05,.6,.05h3.98s.44-.05,.7-.05l3.97,2.14s.02,.09,.04,.13c-.25,.18-.55,.42-.68,.56-.19,.2-1.62,1.9-1.74,2.07-.12,.16-1.37,1.55-1.37,1.55l-.04,.05c-.07,.08-.06,.2,.02,.27l.27,.25c.07,.07,.18,.06,.25,0,.2-.19,.57-.56,.68-.66,.16-.13,.68-.59,.98-.76,.3-.18,1.45-.92,1.78-1.22s.63-.65,.71-1.08c.02-.1,.04-.2,.05-.3,.03,0,.06,0,.09,0,.58,0,1.05-.49,1.05-1.09,0-.12-.02-.23-.05-.34,.17-.14,.36-.3,.56-.48,.64-.57,1.81-2.15,2.04-2.4,.19-.19,.9-1,1.17-1.32,.06-.07,.06-.18,0-.25Zm-5.81,4.55l-3.79-2.04s0-.03,0-.04c0-.1,.12-.46,.13-.54s-.03-1.99,.14-2.02c.08,0,.15,0,.22,0l3.76,3.95c-.23,.16-.4,.4-.46,.69Zm-3.36-9.56l.06-.17-.07-2.38-.18-.22,3.49-1.88c.06,.29,.23,.54,.46,.69l-3.77,3.96ZM5.85,5.38l3.53,1.9-.18,.22-.07,2.38,.07,.2-3.81-4c.23-.16,.4-.4,.46-.69Zm3.38,9.58s.08,0,.12,0c.18,.02,.14,1.94,.14,2.02,0,.08,.12,.44,.13,.54,0,.02,0,.06-.01,.11l-3.7,2c-.06-.29-.23-.54-.46-.69l3.79-3.98Z"/></g></svg>