<?xml version="1.0" encoding="UTF-8"?>
<!DOCTYPE svg PUBLIC "-//W3C//DTD SVG 1.1//EN" "http://www.w3.org/Graphics/SVG/1.1/DTD/svg11.dtd">
<svg xmlns="http://www.w3.org/2000/svg" version="1.1" width="937px" height="466px" style="shape-rendering:geometricPrecision; text-rendering:geometricPrecision; image-rendering:optimizeQuality; fill-rule:evenodd; clip-rule:evenodd" xmlns:xlink="http://www.w3.org/1999/xlink">
<g><path style="opacity:0.84" fill="#1a1a1a" d="M 627.5,-0.5 C 658.167,-0.5 688.833,-0.5 719.5,-0.5C 739.669,0.345695 760.002,1.01236 780.5,1.5C 773.011,2.32902 765.344,2.82902 757.5,3C 701.5,3.66667 645.5,3.66667 589.5,3C 581.656,2.82902 573.989,2.32902 566.5,1.5C 586.997,0.995222 607.33,0.328556 627.5,-0.5 Z"/></g>
<g><path style="opacity:0.989" fill="#343434" d="M 566.5,1.5 C 573.989,2.32902 581.656,2.82902 589.5,3C 645.5,3.66667 701.5,3.66667 757.5,3C 765.344,2.82902 773.011,2.32902 780.5,1.5C 783.505,1.25011 785.338,2.58344 786,5.5C 786.667,16.8333 786.667,28.1667 786,39.5C 785.693,42.8762 783.86,44.2096 780.5,43.5C 741.177,42.037 701.677,41.3703 662,41.5C 637.5,41.6667 613,41.8333 588.5,42C 580.989,42.1712 573.655,42.6712 566.5,43.5C 564.533,43.7394 562.699,43.4061 561,42.5C 559.893,35.9099 559.393,29.2432 559.5,22.5C 559.53,16.2983 559.863,10.1316 560.5,4C 561.944,1.96553 563.944,1.1322 566.5,1.5 Z"/></g>
<g><path style="opacity:1" fill="#4a4a4a" d="M 614.5,6.5 C 615.79,7.05773 616.623,8.05773 617,9.5C 617.667,17.8333 617.667,26.1667 617,34.5C 616.581,35.6721 615.915,36.6721 615,37.5C 613.856,32.5032 613.356,27.3366 613.5,22C 613.524,16.7544 613.857,11.5877 614.5,6.5 Z"/></g>
<g><path style="opacity:1" fill="#4a4a4a" d="M 624.5,6.5 C 625.222,6.91753 625.722,7.5842 626,8.5C 626.167,13.1667 626.333,17.8333 626.5,22.5C 626.644,27.6709 626.144,32.6709 625,37.5C 624.085,36.6721 623.419,35.6721 623,34.5C 622.333,26.1667 622.333,17.8333 623,9.5C 623.513,8.47344 624.013,7.47344 624.5,6.5 Z"/></g>
<g><path style="opacity:1" fill="#4a4a4a" d="M 683.5,6.5 C 684.79,7.05773 685.623,8.05773 686,9.5C 686.667,17.8333 686.667,26.1667 686,34.5C 685.581,35.6721 684.915,36.6721 684,37.5C 682.856,32.6709 682.356,27.6709 682.5,22.5C 682.549,17.1188 682.882,11.7855 683.5,6.5 Z"/></g>
<g><path style="opacity:1" fill="#4a4a4a" d="M 693.5,6.5 C 694.117,6.61071 694.617,6.94404 695,7.5C 695.167,12.3333 695.333,17.1667 695.5,22C 695.644,27.3366 695.144,32.5032 694,37.5C 693.085,36.6721 692.419,35.6721 692,34.5C 691.333,26.1667 691.333,17.8333 692,9.5C 692.513,8.47344 693.013,7.47344 693.5,6.5 Z"/></g>
<g><path style="opacity:1" fill="#4a4a4a" d="M 703.5,6.5 C 704.222,6.91753 704.722,7.5842 705,8.5C 705.167,13.1667 705.333,17.8333 705.5,22.5C 705.644,27.6709 705.144,32.6709 704,37.5C 703.085,36.6721 702.419,35.6721 702,34.5C 701.333,26.1667 701.333,17.8333 702,9.5C 702.513,8.47344 703.013,7.47344 703.5,6.5 Z"/></g>
<g><path style="opacity:1" fill="#4a4a4a" d="M 762.5,6.5 C 763.79,7.05773 764.623,8.05773 765,9.5C 765.667,17.8333 765.667,26.1667 765,34.5C 764.581,35.6721 763.915,36.6721 763,37.5C 761.856,32.5032 761.356,27.3366 761.5,22C 761.524,16.7544 761.857,11.5877 762.5,6.5 Z"/></g>
<g><path style="opacity:1" fill="#4a4a4a" d="M 772.5,6.5 C 773.222,6.91753 773.722,7.5842 774,8.5C 774.167,13.1667 774.333,17.8333 774.5,22.5C 774.644,27.6709 774.144,32.6709 773,37.5C 772.085,36.6721 771.419,35.6721 771,34.5C 770.333,26.1667 770.333,17.8333 771,9.5C 771.513,8.47344 772.013,7.47344 772.5,6.5 Z"/></g>
<g><path style="opacity:1" fill="#4b4b4b" d="M 574.5,6.5 C 575.75,6.57735 576.583,7.24402 577,8.5C 577.667,17.5 577.667,26.5 577,35.5C 576,38.1667 575,38.1667 574,35.5C 573.218,25.7862 573.385,16.1196 574.5,6.5 Z"/></g>
<g><path style="opacity:1" fill="#4b4b4b" d="M 584.5,6.5 C 585.75,6.57735 586.583,7.24402 587,8.5C 587.667,17.5 587.667,26.5 587,35.5C 585.582,38.001 584.582,37.6677 584,34.5C 583.22,25.1193 583.387,15.786 584.5,6.5 Z"/></g>
<g><path style="opacity:1" fill="#4b4b4b" d="M 594.5,6.5 C 595.79,7.05773 596.623,8.05773 597,9.5C 597.667,18.1667 597.667,26.8333 597,35.5C 596,38.1667 595,38.1667 594,35.5C 593.218,25.7862 593.385,16.1196 594.5,6.5 Z"/></g>
<g><path style="opacity:1" fill="#4b4b4b" d="M 633.5,6.5 C 634.75,6.57735 635.583,7.24402 636,8.5C 636.947,18.2672 636.613,27.9339 635,37.5C 634.085,36.6721 633.419,35.6721 633,34.5C 632.248,25.1322 632.415,15.7989 633.5,6.5 Z"/></g>
<g><path style="opacity:1" fill="#4b4b4b" d="M 643.5,6.5 C 644.75,6.57735 645.583,7.24402 646,8.5C 646.667,17.5 646.667,26.5 646,35.5C 645,38.1667 644,38.1667 643,35.5C 642.245,25.7991 642.412,16.1324 643.5,6.5 Z"/></g>
<g><path style="opacity:1" fill="#4c4c4c" d="M 653.5,6.5 C 654.931,6.88066 655.764,7.88066 656,9.5C 656.667,18.1667 656.667,26.8333 656,35.5C 655,38.1667 654,38.1667 653,35.5C 652.245,25.7991 652.412,16.1324 653.5,6.5 Z"/></g>
<g><path style="opacity:1" fill="#4b4b4b" d="M 663.5,6.5 C 664.931,6.88066 665.764,7.88066 666,9.5C 666.667,18.1667 666.667,26.8333 666,35.5C 665,38.1667 664,38.1667 663,35.5C 662.218,25.7862 662.385,16.1196 663.5,6.5 Z"/></g>
<g><path style="opacity:1" fill="#4b4b4b" d="M 673.5,6.5 C 674.931,6.88066 675.764,7.88066 676,9.5C 676.667,17.8333 676.667,26.1667 676,34.5C 675.581,35.6721 674.915,36.6721 674,37.5C 672.169,27.2196 672.002,16.8862 673.5,6.5 Z"/></g>
<g><path style="opacity:1" fill="#4b4b4b" d="M 713.5,6.5 C 714.222,6.91753 714.722,7.5842 715,8.5C 715.667,17.5 715.667,26.5 715,35.5C 714,38.1667 713,38.1667 712,35.5C 711.333,26.8333 711.333,18.1667 712,9.5C 712.513,8.47344 713.013,7.47344 713.5,6.5 Z"/></g>
<g><path style="opacity:1" fill="#4b4b4b" d="M 722.5,6.5 C 723.75,6.57735 724.583,7.24402 725,8.5C 725.667,17.1667 725.667,25.8333 725,34.5C 724.418,37.6677 723.418,38.001 722,35.5C 721.218,25.7862 721.385,16.1196 722.5,6.5 Z"/></g>
<g><path style="opacity:1" fill="#4b4b4b" d="M 732.5,6.5 C 733.75,6.57735 734.583,7.24402 735,8.5C 735.667,17.5 735.667,26.5 735,35.5C 734,38.1667 733,38.1667 732,35.5C 731.218,25.7862 731.385,16.1196 732.5,6.5 Z"/></g>
<g><path style="opacity:1" fill="#4b4b4b" d="M 742.5,6.5 C 743.79,7.05773 744.623,8.05773 745,9.5C 745.667,18.1667 745.667,26.8333 745,35.5C 744,38.1667 743,38.1667 742,35.5C 741.218,25.7862 741.385,16.1196 742.5,6.5 Z"/></g>
<g><path style="opacity:1" fill="#4a4a4a" d="M 752.5,6.5 C 753.79,7.05773 754.623,8.05773 755,9.5C 755.667,18.1667 755.667,26.8333 755,35.5C 754.333,36.1667 753.667,36.8333 753,37.5C 751.191,27.1893 751.025,16.856 752.5,6.5 Z"/></g>
<g><path style="opacity:0.869" fill="#4a4a4a" d="M 780.5,43.5 C 752.851,44.6215 725.184,45.2882 697.5,45.5C 682.167,45.5 666.833,45.5 651.5,45.5C 623.146,45.3249 594.813,44.6582 566.5,43.5C 573.655,42.6712 580.989,42.1712 588.5,42C 613,41.8333 637.5,41.6667 662,41.5C 701.677,41.3703 741.177,42.037 780.5,43.5 Z"/></g>
<g><path style="opacity:0.989" fill="#191a19" d="M 651.5,45.5 C 666.833,45.5 682.167,45.5 697.5,45.5C 697.5,46.8333 697.5,48.1667 697.5,49.5C 682.167,49.5 666.833,49.5 651.5,49.5C 651.5,48.1667 651.5,46.8333 651.5,45.5 Z"/></g>
<g><path style="opacity:0.998" fill="#1b1b1b" d="M 101.5,49.5 C 102.482,63.4213 102.815,77.4213 102.5,91.5C 102.5,94.1667 102.5,96.8333 102.5,99.5C 102.5,106.167 102.5,112.833 102.5,119.5C 101.797,121.716 100.464,123.549 98.5,125C 87.8333,125.667 77.1667,125.667 66.5,125C 64.1853,123.891 62.6853,122.057 62,119.5C 61.5005,113.175 61.3338,106.842 61.5,100.5C 59.8333,100.5 58.1667,100.5 56.5,100.5C 57.9187,99.5489 59.5853,99.2155 61.5,99.5C 61.5,96.8333 61.5,94.1667 61.5,91.5C 61.3334,78.1625 61.5001,64.8292 62,51.5C 62.7172,50.9558 63.2172,50.2891 63.5,49.5C 63.9528,48.5416 64.6195,47.7083 65.5,47C 76.5,46.3333 87.5,46.3333 98.5,47C 99.9423,47.3768 100.942,48.2101 101.5,49.5 Z"/></g>
<g><path style="opacity:0.998" fill="#1c1c1c" d="M 579.5,49.5 C 579.987,50.4734 580.487,51.4734 581,52.5C 581.5,66.496 581.667,80.496 581.5,94.5C 580.963,100.135 581.63,105.468 583.5,110.5C 581.763,113.008 580.93,116.008 581,119.5C 580.226,121.939 578.726,123.773 576.5,125C 565.833,125.667 555.167,125.667 544.5,125C 542.274,123.773 540.774,121.939 540,119.5C 539.502,116.183 539.335,112.85 539.5,109.5C 514.5,109.5 489.5,109.5 464.5,109.5C 489.328,108.502 514.328,108.169 539.5,108.5C 539.5,103.833 539.5,99.1667 539.5,94.5C 539.333,80.496 539.5,66.496 540,52.5C 540.513,51.4734 541.013,50.4734 541.5,49.5C 541.953,48.5416 542.619,47.7083 543.5,47C 554.833,46.3333 566.167,46.3333 577.5,47C 578.381,47.7083 579.047,48.5416 579.5,49.5 Z"/></g>
<g><path style="opacity:0.983" fill="#70a7f4" d="M 63.5,49.5 C 63.2172,50.2891 62.7172,50.9558 62,51.5C 61.5001,64.8292 61.3334,78.1625 61.5,91.5C 59.5,91.5 57.5,91.5 55.5,91.5C 58.0281,80.5277 53.6947,75.6944 42.5,77C 37.7817,80.3433 36.2817,84.8433 38,90.5C 39.3792,92.7147 41.2125,94.3813 43.5,95.5C 36.7183,99.381 32.0516,105.048 29.5,112.5C 20.4465,112.222 11.4465,112.556 2.5,113.5C 1.19117,102.539 1.35784,91.5394 3,80.5C 7.33973,66.1605 16.5064,56.3271 30.5,51C 41.4363,49.5939 52.4363,49.0939 63.5,49.5 Z"/></g>
<g><path style="opacity:1" fill="#70a7f4" d="M 101.5,49.5 C 248.167,49.5 394.833,49.5 541.5,49.5C 541.013,50.4734 540.513,51.4734 540,52.5C 539.5,66.496 539.333,80.496 539.5,94.5C 524.5,94.5 509.5,94.5 494.5,94.5C 499.786,88.998 499.786,83.498 494.5,78C 483.23,74.6 478.397,78.7667 480,90.5C 480.662,91.9839 481.496,93.3172 482.5,94.5C 462.167,94.5 441.833,94.5 421.5,94.5C 428.441,85.085 426.274,79.085 415,76.5C 404.624,79.6719 402.79,85.6719 409.5,94.5C 387.833,94.5 366.167,94.5 344.5,94.5C 342.69,85.93 337.69,83.0966 329.5,86C 326.404,88.0287 324.738,90.862 324.5,94.5C 321.833,94.5 319.167,94.5 316.5,94.5C 316.5,93.5 316.5,92.5 316.5,91.5C 245.167,91.5 173.833,91.5 102.5,91.5C 102.815,77.4213 102.482,63.4213 101.5,49.5 Z"/></g>
<g><path style="opacity:0.996" fill="#70a7f5" d="M 579.5,49.5 C 603.5,49.5 627.5,49.5 651.5,49.5C 666.833,49.5 682.167,49.5 697.5,49.5C 762.834,49.3333 828.168,49.5 893.5,50C 895.442,51.9719 895.776,54.1385 894.5,56.5C 891.442,58.1407 888.108,58.9741 884.5,59C 883.809,60.0674 883.309,61.2341 883,62.5C 882.043,74.2636 882.377,85.9303 884,97.5C 884.5,98 885,98.5 885.5,99C 901.833,99.3333 918.167,99.6667 934.5,100C 935.044,100.717 935.711,101.217 936.5,101.5C 936.5,103.5 936.5,105.5 936.5,107.5C 935.711,107.783 935.044,108.283 934.5,109C 922.167,109.333 909.833,109.667 897.5,110C 897,110.5 896.5,111 896,111.5C 895.5,127.83 895.333,144.163 895.5,160.5C 894.167,177.833 894.167,195.167 895.5,212.5C 895.5,225.833 895.5,239.167 895.5,252.5C 894.167,269.833 894.167,287.167 895.5,304.5C 895.333,322.836 895.5,341.17 896,359.5C 908.425,360.323 920.925,360.823 933.5,361C 934.527,361.513 935.527,362.013 936.5,362.5C 936.5,364.5 936.5,366.5 936.5,368.5C 935.527,368.987 934.527,369.487 933.5,370C 916.926,370.174 900.426,370.674 884,371.5C 882.398,383.095 882.065,394.762 883,406.5C 883.309,407.766 883.809,408.933 884.5,410C 888.152,410.499 891.818,410.665 895.5,410.5C 895.5,412.167 895.5,413.833 895.5,415.5C 829.5,415.5 763.5,415.5 697.5,415.5C 682.167,415.5 666.833,415.5 651.5,415.5C 626.167,415.5 600.833,415.5 575.5,415.5C 577.807,414.023 579.64,412.023 581,409.5C 581.5,395.837 581.667,382.171 581.5,368.5C 587.167,368.5 592.833,368.5 598.5,368.5C 594.535,373.264 594.535,378.097 598.5,383C 605.706,387.42 611.206,385.92 615,378.5C 616.118,374.077 614.951,370.41 611.5,367.5C 625.221,365.953 634.388,358.62 639,345.5C 640.152,307.371 640.652,269.204 640.5,231C 640.333,194.5 640.167,158 640,121.5C 636.03,106.028 626.197,97.0281 610.5,94.5C 616.12,89.9477 616.787,84.781 612.5,79C 605.745,74.8165 600.245,75.9832 596,82.5C 595.133,87.0983 596.3,91.0983 599.5,94.5C 593.5,94.5 587.5,94.5 581.5,94.5C 581.667,80.496 581.5,66.496 581,52.5C 580.487,51.4734 579.987,50.4734 579.5,49.5 Z"/></g>
<g><path style="opacity:1" fill="#1c1d1f" d="M 306.5,57.5 C 315.173,57.3336 323.84,57.5002 332.5,58C 336.482,61.0485 336.482,64.0485 332.5,67C 323.5,67.6667 314.5,67.6667 305.5,67C 302.636,63.3762 302.969,60.2095 306.5,57.5 Z"/></g>
<g><path style="opacity:1" fill="#fbc056" d="M 715.5,68.5 C 728.313,68.1242 731.98,73.6242 726.5,85C 715.684,89.6804 710.184,86.1804 710,74.5C 711.36,71.9774 713.193,69.9774 715.5,68.5 Z"/></g>
<g><path style="opacity:1" fill="#1a1a1a" d="M 804.5,71.5 C 821.167,73.9329 837.834,76.4329 854.5,79C 860.247,81.0789 864.414,84.9122 867,90.5C 867.667,100.167 867.667,109.833 867,119.5C 866.722,120.416 866.222,121.082 865.5,121.5C 862.56,124.977 858.893,127.477 854.5,129C 836.084,132.155 817.584,134.655 799,136.5C 780.516,133.725 762.016,130.892 743.5,128C 733.907,122.947 730.241,114.947 732.5,104C 730.153,90.6592 735.486,82.6592 748.5,80C 767.019,76.3779 785.686,73.5446 804.5,71.5 Z"/></g>
<g><path style="opacity:1" fill="#1a1a1a" d="M 120.5,73.5 C 129.839,73.3335 139.173,73.5002 148.5,74C 151.167,76.6667 151.167,79.3333 148.5,82C 139.167,82.6667 129.833,82.6667 120.5,82C 117.899,79.1705 117.899,76.3371 120.5,73.5 Z"/></g>
<g><path style="opacity:1" fill="#343639" d="M 804.5,71.5 C 785.686,73.5446 767.019,76.3779 748.5,80C 735.486,82.6592 730.153,90.6592 732.5,104C 730.241,114.947 733.907,122.947 743.5,128C 762.016,130.892 780.516,133.725 799,136.5C 817.584,134.655 836.084,132.155 854.5,129C 858.893,127.477 862.56,124.977 865.5,121.5C 863.559,126.497 859.893,129.664 854.5,131C 835.462,134.029 816.462,137.196 797.5,140.5C 778.836,137.667 760.169,134.834 741.5,132C 734.464,129.631 730.297,124.798 729,117.5C 728.333,108.833 728.333,100.167 729,91.5C 731.5,85 736,80.5 742.5,78C 761.31,75.3128 780.143,72.8128 799,70.5C 801.033,70.5056 802.866,70.8389 804.5,71.5 Z"/></g>
<g><path style="opacity:1" fill="#e0e0e0" d="M 77.5,75.5 C 91.5037,74.5296 96.0037,80.5296 91,93.5C 83.498,99.5717 77.1646,98.5717 72,90.5C 70.0867,83.9698 71.92,78.9698 77.5,75.5 Z"/></g>
<g><path style="opacity:1" fill="#e0e0e0" d="M 555.5,75.5 C 567.489,73.6569 572.656,78.6569 571,90.5C 567.71,96.0607 562.877,98.2274 556.5,97C 550.092,93.6772 547.925,88.5105 550,81.5C 551.36,78.9774 553.193,76.9774 555.5,75.5 Z"/></g>
<g><path style="opacity:1" fill="#fbbf54" d="M 55.5,91.5 C 51.3054,92.2315 47.3054,93.5649 43.5,95.5C 41.2125,94.3813 39.3792,92.7147 38,90.5C 36.2817,84.8433 37.7817,80.3433 42.5,77C 53.6947,75.6944 58.0281,80.5277 55.5,91.5 Z"/></g>
<g><path style="opacity:1" fill="#fabf56" d="M 421.5,94.5 C 417.5,94.5 413.5,94.5 409.5,94.5C 402.79,85.6719 404.624,79.6719 415,76.5C 426.274,79.085 428.441,85.085 421.5,94.5 Z"/></g>
<g><path style="opacity:1" fill="#fabf55" d="M 494.5,94.5 C 490.5,94.5 486.5,94.5 482.5,94.5C 481.496,93.3172 480.662,91.9839 480,90.5C 478.397,78.7667 483.23,74.6 494.5,78C 499.786,83.498 499.786,88.998 494.5,94.5 Z"/></g>
<g><path style="opacity:1" fill="#fabf56" d="M 610.5,94.5 C 606.833,94.5 603.167,94.5 599.5,94.5C 596.3,91.0983 595.133,87.0983 596,82.5C 600.245,75.9832 605.745,74.8165 612.5,79C 616.787,84.781 616.12,89.9477 610.5,94.5 Z"/></g>
<g><path style="opacity:1" fill="#f6bc56" d="M 344.5,94.5 C 337.833,94.5 331.167,94.5 324.5,94.5C 324.738,90.862 326.404,88.0287 329.5,86C 337.69,83.0966 342.69,85.93 344.5,94.5 Z"/></g>
<g><path style="opacity:1" fill="#0f0f0f" d="M 55.5,91.5 C 57.5,91.5 59.5,91.5 61.5,91.5C 61.5,94.1667 61.5,96.8333 61.5,99.5C 59.5853,99.2155 57.9187,99.5489 56.5,100.5C 44.7606,103.07 36.9272,110.07 33,121.5C 32.3333,194.167 32.3333,266.833 33,339.5C 37.7216,353.058 47.2216,360.391 61.5,361.5C 61.5,364.167 61.5,366.833 61.5,369.5C 59.1667,369.5 56.8333,369.5 54.5,369.5C 50.5074,369.5 46.8407,368.5 43.5,366.5C 37.0554,361.72 32.0554,355.72 28.5,348.5C 27.336,339.776 27.336,331.109 28.5,322.5C 28.8324,260.998 28.4991,199.664 27.5,138.5C 26.9976,129.676 27.6643,121.009 29.5,112.5C 32.0516,105.048 36.7183,99.381 43.5,95.5C 47.3054,93.5649 51.3054,92.2315 55.5,91.5 Z"/></g>
<g><path style="opacity:1" fill="#010101" d="M 102.5,91.5 C 173.833,91.5 245.167,91.5 316.5,91.5C 316.5,92.5 316.5,93.5 316.5,94.5C 319.167,94.5 321.833,94.5 324.5,94.5C 331.167,94.5 337.833,94.5 344.5,94.5C 366.167,94.5 387.833,94.5 409.5,94.5C 413.5,94.5 417.5,94.5 421.5,94.5C 441.833,94.5 462.167,94.5 482.5,94.5C 486.5,94.5 490.5,94.5 494.5,94.5C 509.5,94.5 524.5,94.5 539.5,94.5C 539.5,99.1667 539.5,103.833 539.5,108.5C 514.328,108.169 489.328,108.502 464.5,109.5C 450.01,111.484 440.51,119.484 436,133.5C 435.333,198.5 435.333,263.5 436,328.5C 440.302,341.641 449.135,349.641 462.5,352.5C 487.995,353.498 513.661,353.831 539.5,353.5C 539.5,358.167 539.5,362.833 539.5,367.5C 524.5,367.5 509.5,367.5 494.5,367.5C 490.5,367.5 486.5,367.5 482.5,367.5C 462.167,367.5 441.833,367.5 421.5,367.5C 417.5,367.5 413.5,367.5 409.5,367.5C 387.833,367.5 366.167,367.5 344.5,367.5C 337.833,367.5 331.167,367.5 324.5,367.5C 321.615,367.194 318.948,367.527 316.5,368.5C 245.238,369.497 173.904,369.83 102.5,369.5C 102.5,366.833 102.5,364.167 102.5,361.5C 211.167,361.5 319.833,361.5 428.5,361.5C 429.499,274.335 429.833,187.002 429.5,99.5C 320.5,99.5 211.5,99.5 102.5,99.5C 102.5,96.8333 102.5,94.1667 102.5,91.5 Z"/></g>
<g><path style="opacity:1" fill="#030303" d="M 581.5,94.5 C 587.5,94.5 593.5,94.5 599.5,94.5C 603.167,94.5 606.833,94.5 610.5,94.5C 626.197,97.0281 636.03,106.028 640,121.5C 640.167,158 640.333,194.5 640.5,231C 640.652,269.204 640.152,307.371 639,345.5C 634.388,358.62 625.221,365.953 611.5,367.5C 607.5,367.5 603.5,367.5 599.5,367.5C 593.5,367.5 587.5,367.5 581.5,367.5C 581.5,362.5 581.5,357.5 581.5,352.5C 595.655,348.845 604.155,339.845 607,325.5C 607.667,262.167 607.667,198.833 607,135.5C 604.129,122.463 596.295,114.13 583.5,110.5C 581.63,105.468 580.963,100.135 581.5,94.5 Z"/></g>
<g><path style="opacity:1" fill="#919191" d="M 102.5,99.5 C 211.5,99.5 320.5,99.5 429.5,99.5C 429.833,187.002 429.499,274.335 428.5,361.5C 428.5,274.5 428.5,187.5 428.5,100.5C 320.167,100.5 211.833,100.5 103.5,100.5C 103.823,107.022 103.49,113.355 102.5,119.5C 102.5,112.833 102.5,106.167 102.5,99.5 Z"/></g>
<g><path style="opacity:1" fill="#d7d7d7" d="M 56.5,100.5 C 58.1667,100.5 59.8333,100.5 61.5,100.5C 61.3338,106.842 61.5005,113.175 62,119.5C 62.6853,122.057 64.1853,123.891 66.5,125C 77.1667,125.667 87.8333,125.667 98.5,125C 100.464,123.549 101.797,121.716 102.5,119.5C 103.49,113.355 103.823,107.022 103.5,100.5C 211.833,100.5 320.167,100.5 428.5,100.5C 428.5,187.5 428.5,274.5 428.5,361.5C 319.833,361.5 211.167,361.5 102.5,361.5C 102.932,353.721 102.432,346.054 101,338.5C 100.25,337.874 99.4162,337.374 98.5,337C 87.8333,336.333 77.1667,336.333 66.5,337C 65.0692,337.465 63.9025,338.299 63,339.5C 61.5714,346.719 61.0714,354.053 61.5,361.5C 47.2216,360.391 37.7216,353.058 33,339.5C 32.3333,266.833 32.3333,194.167 33,121.5C 36.9272,110.07 44.7606,103.07 56.5,100.5 Z"/></g>
<g><path style="opacity:1" fill="#fefefe" d="M 464.5,109.5 C 489.5,109.5 514.5,109.5 539.5,109.5C 539.335,112.85 539.502,116.183 540,119.5C 540.774,121.939 542.274,123.773 544.5,125C 555.167,125.667 565.833,125.667 576.5,125C 578.726,123.773 580.226,121.939 581,119.5C 580.93,116.008 581.763,113.008 583.5,110.5C 596.295,114.13 604.129,122.463 607,135.5C 607.667,198.833 607.667,262.167 607,325.5C 604.155,339.845 595.655,348.845 581.5,352.5C 582.577,337.478 575.577,332.145 560.5,336.5C 545.423,332.145 538.423,337.478 539.5,352.5C 513.833,352.5 488.167,352.5 462.5,352.5C 449.135,349.641 440.302,341.641 436,328.5C 435.333,263.5 435.333,198.5 436,133.5C 440.51,119.484 450.01,111.484 464.5,109.5 Z"/></g>
<g><path style="opacity:0.983" fill="#1a1a1a" d="M 29.5,112.5 C 27.6643,121.009 26.9976,129.676 27.5,138.5C 26.8333,138.5 26.5,138.833 26.5,139.5C 19.4921,139.666 12.4921,139.5 5.5,139C 4.47344,138.487 3.47344,137.987 2.5,137.5C 1.5,136.167 0.5,134.833 -0.5,133.5C -0.5,128.167 -0.5,122.833 -0.5,117.5C 0.488369,116.205 1.48837,114.872 2.5,113.5C 11.4465,112.556 20.4465,112.222 29.5,112.5 Z"/></g>
<g><path style="opacity:1" fill="#bababa" d="M 284.5,129.5 C 289.511,129.334 294.511,129.501 299.5,130C 300.333,130.833 301.167,131.667 302,132.5C 302.667,140.167 302.667,147.833 302,155.5C 301.692,156.308 301.192,156.975 300.5,157.5C 295.22,158.618 289.887,158.784 284.5,158C 283.692,157.692 283.025,157.192 282.5,156.5C 281.365,148.549 281.198,140.549 282,132.5C 283.045,131.627 283.878,130.627 284.5,129.5 Z"/></g>
<g><path style="opacity:1" fill="#ababab" d="M 353.5,129.5 C 358.844,129.334 364.177,129.501 369.5,130C 370,130.5 370.5,131 371,131.5C 371.816,140.079 371.649,148.579 370.5,157C 364.947,158.57 359.281,158.903 353.5,158C 353,157.5 352.5,157 352,156.5C 351.333,148.167 351.333,139.833 352,131.5C 352.717,130.956 353.217,130.289 353.5,129.5 Z"/></g>
<g><path style="opacity:1" fill="#fbfbfb" d="M 284.5,131.5 C 289.511,131.334 294.511,131.501 299.5,132C 300.833,140 300.833,148 299.5,156C 294.177,156.499 288.844,156.666 283.5,156.5C 283.198,148.082 283.531,139.748 284.5,131.5 Z"/></g>
<g><path style="opacity:1" fill="#fcfcfc" d="M 353.5,131.5 C 359.093,131.193 364.593,131.527 370,132.5C 370.814,140.413 370.647,148.246 369.5,156C 363.916,156.806 358.416,156.639 353,155.5C 352.2,147.421 352.367,139.421 353.5,131.5 Z"/></g>
<g><path style="opacity:1" fill="#f7f7f7" d="M 409.5,132.5 C 409.5,139.833 409.5,147.167 409.5,154.5C 409.389,155.117 409.056,155.617 408.5,156C 403.5,156.667 398.5,156.667 393.5,156C 392.167,147.667 392.167,139.333 393.5,131C 398.5,130.333 403.5,130.333 408.5,131C 409.056,131.383 409.389,131.883 409.5,132.5 Z"/></g>
<g><path style="opacity:1" fill="#a9a9a9" d="M 335.5,132.5 C 336.656,140.323 336.823,148.323 336,156.5C 335.5,157 335,157.5 334.5,158C 329.167,158.667 323.833,158.667 318.5,158C 318,157.5 317.5,157 317,156.5C 316.333,148.167 316.333,139.833 317,131.5C 317.5,131 318,130.5 318.5,130C 323.5,129.333 328.5,129.333 333.5,130C 334.756,130.417 335.423,131.25 335.5,132.5 Z"/></g>
<g><path style="opacity:1" fill="#f9f9f9" d="M 335.5,132.5 C 335.666,140.174 335.5,147.841 335,155.5C 329.584,156.639 324.084,156.806 318.5,156C 317.353,148.246 317.186,140.413 318,132.5C 323.833,131.187 329.666,131.187 335.5,132.5 Z"/></g>
<g><path style="opacity:1" fill="#b3b3b3" d="M 409.5,132.5 C 409.389,131.883 409.056,131.383 408.5,131C 403.5,130.333 398.5,130.333 393.5,131C 392.167,139.333 392.167,147.667 393.5,156C 398.5,156.667 403.5,156.667 408.5,156C 409.056,155.617 409.389,155.117 409.5,154.5C 410.774,155.189 410.774,156.023 409.5,157C 403.833,157.667 398.167,157.667 392.5,157C 392,156.5 391.5,156 391,155.5C 390.333,147.5 390.333,139.5 391,131.5C 391.5,131 392,130.5 392.5,130C 398.167,129.333 403.833,129.333 409.5,130C 410.774,130.977 410.774,131.811 409.5,132.5 Z"/></g>
<g><path style="opacity:1" fill="#a0a0a0" d="M 83.5,130.5 C 89.1764,130.334 94.8431,130.501 100.5,131C 101,131.5 101.5,132 102,132.5C 102.816,141.079 102.649,149.579 101.5,158C 95.1405,158.831 88.8072,158.664 82.5,157.5C 81.3638,149.215 81.1971,140.882 82,132.5C 82.7172,131.956 83.2172,131.289 83.5,130.5 Z"/></g>
<g><path style="opacity:1" fill="#fafafa" d="M 84.5,131.5 C 89.5111,131.334 94.5111,131.501 99.5,132C 100,132.5 100.5,133 101,133.5C 101.667,140.833 101.667,148.167 101,155.5C 100.5,156 100,156.5 99.5,157C 94.2487,157.804 89.082,157.637 84,156.5C 83.199,148.088 83.3656,139.755 84.5,131.5 Z"/></g>
<g><path style="opacity:1" fill="#a0a0a0" d="M 183.5,130.5 C 189.176,130.334 194.843,130.501 200.5,131C 201,131.5 201.5,132 202,132.5C 202.667,140.5 202.667,148.5 202,156.5C 201.5,157 201,157.5 200.5,158C 194.251,158.809 188.084,158.642 182,157.5C 181.333,149.167 181.333,140.833 182,132.5C 182.717,131.956 183.217,131.289 183.5,130.5 Z"/></g>
<g><path style="opacity:1" fill="#f5f5f5" d="M 184.5,131.5 C 189.762,131.195 194.928,131.529 200,132.5C 200.815,140.746 200.648,148.912 199.5,157C 194.5,157.667 189.5,157.667 184.5,157C 184,156.5 183.5,156 183,155.5C 182.333,148.167 182.333,140.833 183,133.5C 183.717,132.956 184.217,132.289 184.5,131.5 Z"/></g>
<g><path style="opacity:1" fill="#a6a6a6" d="M 116.5,130.5 C 122.758,130.19 128.924,130.524 135,131.5C 135.816,140.412 135.65,149.245 134.5,158C 128.5,158.667 122.5,158.667 116.5,158C 116,157.5 115.5,157 115,156.5C 114.333,148.5 114.333,140.5 115,132.5C 115.717,131.956 116.217,131.289 116.5,130.5 Z"/></g>
<g><path style="opacity:1" fill="#fafafa" d="M 118.5,131.5 C 123.179,131.334 127.845,131.501 132.5,132C 133,132.5 133.5,133 134,133.5C 134.667,140.833 134.667,148.167 134,155.5C 133.5,156 133,156.5 132.5,157C 127.833,157.667 123.167,157.667 118.5,157C 118,156.5 117.5,156 117,155.5C 116.333,148.167 116.333,140.833 117,133.5C 117.717,132.956 118.217,132.289 118.5,131.5 Z"/></g>
<g><path style="opacity:1" fill="#a3a3a3" d="M 249.5,130.5 C 255.758,130.19 261.924,130.524 268,131.5C 268.816,140.412 268.65,149.245 267.5,158C 261.5,158.667 255.5,158.667 249.5,158C 249,157.5 248.5,157 248,156.5C 247.333,148.5 247.333,140.5 248,132.5C 248.717,131.956 249.217,131.289 249.5,130.5 Z"/></g>
<g><path style="opacity:1" fill="#fcfcfc" d="M 250.5,131.5 C 255.511,131.334 260.511,131.501 265.5,132C 266,132.5 266.5,133 267,133.5C 267.667,140.833 267.667,148.167 267,155.5C 266.5,156 266,156.5 265.5,157C 260.833,157.667 256.167,157.667 251.5,157C 251,156.5 250.5,156 250,155.5C 249.2,147.421 249.367,139.421 250.5,131.5 Z"/></g>
<g><path style="opacity:1" fill="#a0a0a0" d="M 257.5,135.5 C 259.731,137.076 261.397,139.243 262.5,142C 259.773,142.818 257.106,142.652 254.5,141.5C 256.038,139.757 257.038,137.757 257.5,135.5 Z"/></g>
<g><path style="opacity:0.971" fill="#70a7f5" d="M 2.5,137.5 C 3.47344,137.987 4.47344,138.487 5.5,139C 12.4921,139.5 19.4921,139.666 26.5,139.5C 27.4991,200.331 27.8324,261.331 27.5,322.5C 20.1591,322.334 12.8258,322.5 5.5,323C 4.47344,323.513 3.47344,324.013 2.5,324.5C 1.16667,262.167 1.16667,199.833 2.5,137.5 Z"/></g>
<g><path style="opacity:1" fill="#1c293c" d="M 26.5,139.5 C 26.5,138.833 26.8333,138.5 27.5,138.5C 28.4991,199.664 28.8324,260.998 28.5,322.5C 28.1667,322.5 27.8333,322.5 27.5,322.5C 27.8324,261.331 27.4991,200.331 26.5,139.5 Z"/></g>
<g><path style="opacity:1" fill="#c5c5c5" d="M 122.5,135.5 C 123.473,136.791 124.473,136.791 125.5,135.5C 126.655,138.446 126.821,141.446 126,144.5C 125,145.833 124,145.833 123,144.5C 122.502,141.518 122.335,138.518 122.5,135.5 Z"/></g>
<g><path style="opacity:1" fill="#bebebe" d="M 323.5,134.5 C 324.931,134.881 325.764,135.881 326,137.5C 326.333,136.833 326.667,136.167 327,135.5C 328.667,138.708 328.5,141.875 326.5,145C 328.686,145.604 328.852,146.77 327,148.5C 326.29,147.027 325.124,146.36 323.5,146.5C 323.528,144.418 322.861,142.584 321.5,141C 323.25,139.246 323.917,137.079 323.5,134.5 Z"/></g>
<g><path style="opacity:1" fill="#c4c4c4" d="M 90.5,139.5 C 93.7343,139.237 95.0676,140.737 94.5,144C 94.992,147.69 93.6587,148.856 90.5,147.5C 94.3107,146.262 94.3107,145.596 90.5,145.5C 90.5,143.5 90.5,141.5 90.5,139.5 Z"/></g>
<g><path style="opacity:1" fill="#bababa" d="M 358.5,135.5 C 360.017,135.511 361.184,136.177 362,137.5C 363.087,135.068 363.587,135.402 363.5,138.5C 362.178,138.67 361.011,138.337 360,137.5C 359.812,139.061 360.645,139.728 362.5,139.5C 362.232,142.119 362.565,144.619 363.5,147C 362.833,147.333 362.167,147.667 361.5,148C 363.066,150.677 362.4,152.01 359.5,152C 358.978,151.439 358.645,150.772 358.5,150C 358.899,147.663 358.899,145.163 358.5,142.5C 362.5,141.833 362.5,141.167 358.5,140.5C 358.5,138.833 358.5,137.167 358.5,135.5 Z"/></g>
<g><path style="opacity:1" fill="#a2a2a2" d="M 254.5,145.5 C 257.247,145.187 259.914,145.52 262.5,146.5C 261.167,148.5 259.833,150.5 258.5,152.5C 256.384,150.6 255.051,148.267 254.5,145.5 Z"/></g>
<g><path style="opacity:1" fill="#b9b9b9" d="M 288.5,140.5 C 290.958,140.227 292.625,141.227 293.5,143.5C 292.167,144.5 292.167,145.5 293.5,146.5C 292.271,147.281 290.938,147.781 289.5,148C 291.167,148.333 292.833,148.667 294.5,149C 293.027,149.71 292.36,150.876 292.5,152.5C 287.959,152.669 287.626,152.002 291.5,150.5C 290.675,149.614 289.675,149.281 288.5,149.5C 289.095,146.654 289.095,143.654 288.5,140.5 Z"/></g>
<g><path style="opacity:1" fill="#1a1a1b" d="M 780.5,155.5 C 804.169,155.333 827.836,155.5 851.5,156C 861.443,158.942 867.609,165.442 870,175.5C 870.667,209.167 870.667,242.833 870,276.5C 867.394,287.439 860.561,293.939 849.5,296C 826.833,296.667 804.167,296.667 781.5,296C 771.667,292.833 765.167,286.333 762,276.5C 761.333,242.833 761.333,209.167 762,175.5C 765.291,166.047 771.458,159.38 780.5,155.5 Z"/></g>
<g><path style="opacity:1" fill="#adadad" d="M 149.5,130.5 C 155.758,130.19 161.924,130.524 168,131.5C 168.667,140.167 168.667,148.833 168,157.5C 167.5,158 167,158.5 166.5,159C 161.167,159.667 155.833,159.667 150.5,159C 149.667,158.167 148.833,157.333 148,156.5C 147.333,148.5 147.333,140.5 148,132.5C 148.717,131.956 149.217,131.289 149.5,130.5 Z"/></g>
<g><path style="opacity:1" fill="#fbfbfb" d="M 151.5,131.5 C 156.179,131.334 160.845,131.501 165.5,132C 166,132.5 166.5,133 167,133.5C 167.814,141.413 167.647,149.246 166.5,157C 160.916,157.806 155.416,157.639 150,156.5C 149.333,148.833 149.333,141.167 150,133.5C 150.717,132.956 151.217,132.289 151.5,131.5 Z"/></g>
<g><path style="opacity:1" fill="#b1b1b1" d="M 155.5,141.5 C 157.199,141.34 158.866,141.506 160.5,142C 159.62,143.356 159.286,144.856 159.5,146.5C 155.107,146.543 154.774,146.043 158.5,145C 156.937,144.241 155.937,143.074 155.5,141.5 Z"/></g>
<g><path style="opacity:1" fill="#a2a2a2" d="M 216.5,130.5 C 222.176,130.334 227.843,130.501 233.5,131C 234,131.5 234.5,132 235,132.5C 235.803,140.882 235.636,149.215 234.5,157.5C 227.944,158.81 221.444,158.81 215,157.5C 214.333,149.167 214.333,140.833 215,132.5C 215.717,131.956 216.217,131.289 216.5,130.5 Z"/></g>
<g><path style="opacity:1" fill="#f9f9f9" d="M 217.5,131.5 C 222.762,131.195 227.928,131.529 233,132.5C 233.815,140.746 233.648,148.912 232.5,157C 227.5,157.667 222.5,157.667 217.5,157C 217,156.5 216.5,156 216,155.5C 215.333,148.167 215.333,140.833 216,133.5C 216.717,132.956 217.217,132.289 217.5,131.5 Z"/></g>
<g><path style="opacity:0.981" fill="#cbcbcc" d="M 895.5,160.5 C 909.167,160.5 922.833,160.5 936.5,160.5C 936.5,177.833 936.5,195.167 936.5,212.5C 922.833,212.5 909.167,212.5 895.5,212.5C 894.167,195.167 894.167,177.833 895.5,160.5 Z"/></g>
<g><path style="opacity:1" fill="#050505" d="M 813.5,161.5 C 814.317,163.969 814.817,166.635 815,169.5C 815.5,178.827 815.666,188.161 815.5,197.5C 826.869,197.241 838.203,197.741 849.5,199C 836.964,201.061 824.298,201.894 811.5,201.5C 811.122,188.084 811.788,174.751 813.5,161.5 Z"/></g>
<g><path style="opacity:1" fill="#f0b64e" d="M 822.5,163.5 C 824.39,163.297 825.89,163.963 827,165.5C 828.545,170.047 828.879,174.713 828,179.5C 825.865,184.325 823.199,184.659 820,180.5C 817.381,174.205 818.214,168.539 822.5,163.5 Z"/></g>
<g><path style="opacity:1" fill="#9c9c9c" d="M 62.5,172.5 C 69.8409,172.334 77.1742,172.5 84.5,173C 85,173.5 85.5,174 86,174.5C 86.8157,183.079 86.649,191.579 85.5,200C 77.8333,200.667 70.1667,200.667 62.5,200C 62,199.5 61.5,199 61,198.5C 60.3333,190.5 60.3333,182.5 61,174.5C 61.7172,173.956 62.2172,173.289 62.5,172.5 Z"/></g>
<g><path style="opacity:1" fill="#9c9c9c" d="M 102.5,172.5 C 109.841,172.334 117.174,172.5 124.5,173C 125,173.5 125.5,174 126,174.5C 126.803,182.882 126.636,191.215 125.5,199.5C 117.855,200.665 110.188,200.831 102.5,200C 102,199.5 101.5,199 101,198.5C 100.333,190.5 100.333,182.5 101,174.5C 101.717,173.956 102.217,173.289 102.5,172.5 Z"/></g>
<g><path style="opacity:1" fill="#9b9b9b" d="M 140.5,172.5 C 148.223,172.2 155.89,172.533 163.5,173.5C 164.816,182.393 164.816,191.226 163.5,200C 155.587,200.814 147.754,200.647 140,199.5C 139.196,190.422 139.363,181.422 140.5,172.5 Z"/></g>
<g><path style="opacity:1" fill="#9c9c9c" d="M 178.5,172.5 C 185.841,172.334 193.174,172.5 200.5,173C 201,173.5 201.5,174 202,174.5C 202.803,182.882 202.636,191.215 201.5,199.5C 193.855,200.665 186.188,200.831 178.5,200C 178,199.5 177.5,199 177,198.5C 176.333,190.5 176.333,182.5 177,174.5C 177.717,173.956 178.217,173.289 178.5,172.5 Z"/></g>
<g><path style="opacity:1" fill="#fbfbfb" d="M 317.5,197.5 C 317.5,190.167 317.5,182.833 317.5,175.5C 317.611,174.883 317.944,174.383 318.5,174C 323.554,173.219 328.554,173.386 333.5,174.5C 334.815,182.725 334.815,190.892 333.5,199C 328.5,199.667 323.5,199.667 318.5,199C 317.944,198.617 317.611,198.117 317.5,197.5 Z"/></g>
<g><path style="opacity:1" fill="#fcfcfc" d="M 409.5,176.5 C 409.5,183.5 409.5,190.5 409.5,197.5C 409.389,198.117 409.056,198.617 408.5,199C 403.5,199.667 398.5,199.667 393.5,199C 392.167,190.667 392.167,182.333 393.5,174C 398.167,173.333 402.833,173.333 407.5,174C 408.756,174.417 409.423,175.25 409.5,176.5 Z"/></g>
<g><path style="opacity:1" fill="#4e4e4e" d="M 49.5,181.5 C 47.2181,180.61 44.8848,180.444 42.5,181C 41.6634,182.011 41.33,183.178 41.5,184.5C 40.0222,184.762 38.6888,184.429 37.5,183.5C 38.5283,181.639 40.0283,180.305 42,179.5C 42.1955,177.096 43.3622,175.429 45.5,174.5C 46.4287,175.689 46.762,177.022 46.5,178.5C 48.1667,178.5 49.8333,178.5 51.5,178.5C 51.7148,180.179 51.0481,181.179 49.5,181.5 Z"/></g>
<g><path style="opacity:1" fill="#b9b9b9" d="M 283.5,172.5 C 289.176,172.334 294.843,172.501 300.5,173C 301,173.5 301.5,174 302,174.5C 302.667,182.5 302.667,190.5 302,198.5C 301.167,199.333 300.333,200.167 299.5,201C 294.5,201.667 289.5,201.667 284.5,201C 283.667,200.167 282.833,199.333 282,198.5C 281.333,190.833 281.333,183.167 282,175.5C 282.513,174.473 283.013,173.473 283.5,172.5 Z"/></g>
<g><path style="opacity:1" fill="#fcfcfc" d="M 289.5,195.5 C 288.766,196.708 288.433,198.041 288.5,199.5C 286.856,199.714 285.356,199.38 284,198.5C 283.185,190.254 283.352,182.088 284.5,174C 289.751,173.196 294.918,173.363 300,174.5C 300.667,182.5 300.667,190.5 300,198.5C 297.599,199.602 295.099,199.769 292.5,199C 293.535,197.493 293.368,195.993 292,194.5C 291.329,195.252 290.496,195.586 289.5,195.5 Z"/></g>
<g><path style="opacity:1" fill="#b4b4b4" d="M 317.5,197.5 C 317.611,198.117 317.944,198.617 318.5,199C 323.5,199.667 328.5,199.667 333.5,199C 334.815,190.892 334.815,182.725 333.5,174.5C 328.554,173.386 323.554,173.219 318.5,174C 317.944,174.383 317.611,174.883 317.5,175.5C 316.226,174.811 316.226,173.977 317.5,173C 323.167,172.333 328.833,172.333 334.5,173C 335,173.5 335.5,174 336,174.5C 336.667,182.5 336.667,190.5 336,198.5C 335.167,199.333 334.333,200.167 333.5,201C 328.5,201.667 323.5,201.667 318.5,201C 316.689,199.959 316.355,198.793 317.5,197.5 Z"/></g>
<g><path style="opacity:1" fill="#a8a8a8" d="M 352.5,198.5 C 351.344,190.677 351.177,182.677 352,174.5C 352.5,174 353,173.5 353.5,173C 358.833,172.333 364.167,172.333 369.5,173C 370,173.5 370.5,174 371,174.5C 371.667,182.833 371.667,191.167 371,199.5C 367.902,201.047 364.569,201.714 361,201.5C 358.5,201.333 356,201.167 353.5,201C 352.748,200.329 352.414,199.496 352.5,198.5 Z"/></g>
<g><path style="opacity:1" fill="#fbfbfb" d="M 352.5,198.5 C 352.334,190.826 352.5,183.159 353,175.5C 353.5,175 354,174.5 354.5,174C 359.167,173.333 363.833,173.333 368.5,174C 369,174.5 369.5,175 370,175.5C 370.8,183.216 370.633,190.883 369.5,198.5C 363.812,199.742 358.145,199.742 352.5,198.5 Z"/></g>
<g><path style="opacity:1" fill="#b5b5b5" d="M 409.5,176.5 C 409.423,175.25 408.756,174.417 407.5,174C 402.833,173.333 398.167,173.333 393.5,174C 392.167,182.333 392.167,190.667 393.5,199C 398.5,199.667 403.5,199.667 408.5,199C 409.056,198.617 409.389,198.117 409.5,197.5C 410.645,198.793 410.311,199.959 408.5,201C 394.376,205.688 388.376,200.855 390.5,186.5C 390.667,182.5 390.833,178.5 391,174.5C 391.5,174 392,173.5 392.5,173C 398.167,172.333 403.833,172.333 409.5,173C 410.791,174.292 410.791,175.458 409.5,176.5 Z"/></g>
<g><path style="opacity:1" fill="#a6a6a6" d="M 249.5,172.5 C 255.758,172.19 261.924,172.524 268,173.5C 268.667,182.167 268.667,190.833 268,199.5C 267.5,200 267,200.5 266.5,201C 261.167,201.667 255.833,201.667 250.5,201C 249.667,200.167 248.833,199.333 248,198.5C 247.333,190.5 247.333,182.5 248,174.5C 248.717,173.956 249.217,173.289 249.5,172.5 Z"/></g>
<g><path style="opacity:1" fill="#fdfdfd" d="M 251.5,173.5 C 256.179,173.334 260.845,173.501 265.5,174C 266,174.5 266.5,175 267,175.5C 267.667,182.833 267.667,190.167 267,197.5C 266.5,198 266,198.5 265.5,199C 260.249,199.804 255.082,199.637 250,198.5C 249.333,190.833 249.333,183.167 250,175.5C 250.717,174.956 251.217,174.289 251.5,173.5 Z"/></g>
<g><path style="opacity:1" fill="#bbbbbb" d="M 321.5,178.5 C 323.357,178.505 325.357,178.338 327.5,178C 326.687,179.314 325.687,180.481 324.5,181.5C 325.325,182.386 326.325,182.719 327.5,182.5C 327.911,185.276 327.078,185.943 325,184.5C 323.779,183.728 322.779,182.728 322,181.5C 322.109,180.231 321.942,179.231 321.5,178.5 Z"/></g>
<g><path style="opacity:1" fill="#bcbcbc" d="M 358.5,177.5 C 359.568,176.566 360.901,176.232 362.5,176.5C 363.378,180.291 363.378,183.957 362.5,187.5C 363.167,188.833 363.833,190.167 364.5,191.5C 363.674,193.109 362.674,194.776 361.5,196.5C 360.749,195.624 360.249,194.624 360,193.5C 359.667,194.167 359.333,194.833 359,195.5C 357.86,191.611 358.693,188.278 361.5,185.5C 360.5,184.667 359.5,183.833 358.5,183C 362.5,182 362.5,181 358.5,180C 362.456,178.886 362.456,178.053 358.5,177.5 Z"/></g>
<g><path style="opacity:1" fill="#f0f0f0" d="M 147.5,182.5 C 150.579,182.804 153.413,183.804 156,185.5C 156.667,186.5 156.667,187.5 156,188.5C 154.333,187.5 152.667,186.5 151,185.5C 151.487,187.044 151.987,188.71 152.5,190.5C 151.07,190.421 149.736,190.754 148.5,191.5C 147.098,191.135 146.098,190.301 145.5,189C 147.003,187.079 147.669,184.912 147.5,182.5 Z"/></g>
<g><path style="opacity:1" fill="#efefef" d="M 190.5,182.5 C 191.833,182.5 193.167,182.5 194.5,182.5C 194.5,185.5 194.5,188.5 194.5,191.5C 190.085,190.458 186.085,188.624 182.5,186C 182.833,185.5 183.167,185 183.5,184.5C 185.915,185.305 188.249,186.305 190.5,187.5C 191.052,185.997 191.052,184.331 190.5,182.5 Z"/></g>
<g><path style="opacity:1" fill="#919191" d="M 49.5,181.5 C 49.9528,182.458 50.6195,183.292 51.5,184C 50.9056,184.464 50.2389,184.631 49.5,184.5C 46.9223,185.254 44.2556,185.254 41.5,184.5C 41.33,183.178 41.6634,182.011 42.5,181C 44.8848,180.444 47.2181,180.61 49.5,181.5 Z"/></g>
<g><path style="opacity:1" fill="#f2f2f2" d="M 117.5,183.5 C 119.176,184.183 119.843,185.517 119.5,187.5C 115.833,187.5 112.167,187.5 108.5,187.5C 108.5,186.5 108.5,185.5 108.5,184.5C 111.713,184.81 114.713,184.477 117.5,183.5 Z"/></g>
<g><path style="opacity:1" fill="#c2c2c2" d="M 255.5,181.5 C 256.833,181.5 258.167,181.5 259.5,181.5C 260.677,185.218 260.677,188.551 259.5,191.5C 257.5,191.5 255.5,191.5 253.5,191.5C 253.413,188.402 253.913,188.068 255,190.5C 255.199,188.598 256.033,187.098 257.5,186C 256.552,185.517 255.552,185.351 254.5,185.5C 254.433,184.041 254.766,182.708 255.5,181.5 Z"/></g>
<g><path style="opacity:1" fill="#c2c2c2" d="M 289.5,195.5 C 288.852,194.021 288.519,192.521 288.5,191C 292.449,190.193 292.449,189.693 288.5,189.5C 289.001,186.583 289.001,183.75 288.5,181C 292.5,180 292.5,179 288.5,178C 292.5,177 292.5,176 288.5,175C 291.517,174.178 293.183,175.345 293.5,178.5C 292.182,182.725 292.515,186.892 294.5,191C 293.333,191.5 292.5,192.333 292,193.5C 290.375,192.588 289.541,193.255 289.5,195.5 Z"/></g>
<g><path style="opacity:1" fill="#4e4e4e" d="M 41.5,184.5 C 44.2556,185.254 46.9223,185.254 49.5,184.5C 49.5,185.5 49.5,186.5 49.5,187.5C 45.5478,189.63 42.8812,188.63 41.5,184.5 Z"/></g>
<g><path style="opacity:1" fill="#cacaca" d="M 626.5,176.5 C 628.402,179.337 629.069,182.671 628.5,186.5C 625.753,186.813 623.086,186.48 620.5,185.5C 622.396,184.534 624.396,184.201 626.5,184.5C 626.5,183.5 626.5,182.5 626.5,181.5C 618.5,180.833 618.5,180.167 626.5,179.5C 626.5,178.5 626.5,177.5 626.5,176.5 Z"/></g>
<g><path style="opacity:1" fill="#bbbbbb" d="M 401.5,174.5 C 402.643,174.908 403.643,175.575 404.5,176.5C 404.154,177.696 403.654,177.696 403,176.5C 402.782,179.426 402.282,182.26 401.5,185C 402.448,185.483 403.448,185.649 404.5,185.5C 403,189.33 402.333,193.33 402.5,197.5C 401.167,197.5 399.833,197.5 398.5,197.5C 398.137,195.089 399.137,193.589 401.5,193C 400.552,192.517 399.552,192.351 398.5,192.5C 399.095,189.654 399.095,186.654 398.5,183.5C 402.5,182.833 402.5,182.167 398.5,181.5C 398.854,179.459 398.854,177.626 398.5,176C 399.737,175.768 400.737,175.268 401.5,174.5 Z"/></g>
<g><path style="opacity:1" fill="#1c1d1e" d="M 722.5,189.5 C 722.5,212.167 722.5,234.833 722.5,257.5C 719.319,260.946 715.819,261.279 712,258.5C 711.333,235.167 711.333,211.833 712,188.5C 715.819,185.721 719.319,186.054 722.5,189.5 Z"/></g>
<g><path style="opacity:1" fill="#8cb8f7" d="M 741.5,189.5 C 741.5,212.167 741.5,234.833 741.5,257.5C 741.5,258.833 741.5,260.167 741.5,261.5C 735.167,261.5 728.833,261.5 722.5,261.5C 722.5,260.167 722.5,258.833 722.5,257.5C 722.5,234.833 722.5,212.167 722.5,189.5C 722.5,188.167 722.5,186.833 722.5,185.5C 728.833,185.5 735.167,185.5 741.5,185.5C 741.5,186.833 741.5,188.167 741.5,189.5 Z"/></g>
<g><path style="opacity:1" fill="#1c1d1e" d="M 741.5,257.5 C 741.5,234.833 741.5,212.167 741.5,189.5C 744.681,186.054 748.181,185.721 752,188.5C 752.667,211.833 752.667,235.167 752,258.5C 748.181,261.279 744.681,260.946 741.5,257.5 Z"/></g>
<g><path style="opacity:1" fill="#f1f1f1" d="M 70.5,181.5 C 77.4933,179.996 80.3267,182.663 79,189.5C 73.7887,192.936 70.2887,191.77 68.5,186C 68.5186,184.167 69.1852,182.667 70.5,181.5 Z"/></g>
<g><path style="opacity:1" fill="#a3a3a3" d="M 70.5,184.5 C 72.8333,184.5 75.1667,184.5 77.5,184.5C 76.9245,188.473 74.7579,189.473 71,187.5C 70.5172,186.552 70.3505,185.552 70.5,184.5 Z"/></g>
<g><path style="opacity:1" fill="#b6b6b6" d="M 322.5,186.5 C 322.56,185.957 322.893,185.624 323.5,185.5C 330.875,186.863 331.209,188.863 324.5,191.5C 325.325,192.386 326.325,192.719 327.5,192.5C 327.143,196.395 325.143,197.395 321.5,195.5C 323.078,194.702 324.744,194.202 326.5,194C 324.709,193.585 323.376,192.585 322.5,191C 322.562,189.395 322.562,187.895 322.5,186.5 Z"/></g>
<g><path style="opacity:1" fill="#c6c6c6" d="M 610.5,191.5 C 611.919,190.549 613.585,190.216 615.5,190.5C 615.543,194.893 615.043,195.226 614,191.5C 613.667,192.5 613.333,193.5 613,194.5C 612.764,192.881 611.931,191.881 610.5,191.5 Z"/></g>
<g><path style="opacity:1" fill="#3b3b3b" d="M 48.5,193.5 C 49.6225,195.288 49.7891,197.288 49,199.5C 46.7988,198.004 44.2988,197.004 41.5,196.5C 44.2949,196.062 46.6283,195.062 48.5,193.5 Z"/></g>
<g><path style="opacity:1" fill="#dcdcdc" d="M 621.5,192.5 C 623.764,193.219 626.097,193.552 628.5,193.5C 628.714,195.144 628.38,196.644 627.5,198C 625.19,198.497 622.857,198.663 620.5,198.5C 620.325,196.379 620.659,194.379 621.5,192.5 Z"/></g>
<g><path style="opacity:1" fill="#c4c4c4" d="M 610.5,196.5 C 612.167,196.5 613.833,196.5 615.5,196.5C 616.169,200.676 614.669,202.009 611,200.5C 610.51,199.207 610.343,197.873 610.5,196.5 Z"/></g>
<g><path style="opacity:1" fill="#262626" d="M 41.5,199.5 C 43.5,199.5 45.5,199.5 47.5,199.5C 47.3781,203.838 47.0447,204.172 46.5,200.5C 45.1667,200.5 43.8333,200.5 42.5,200.5C 41.9553,204.172 41.6219,203.838 41.5,199.5 Z"/></g>
<g><path style="opacity:1" fill="#acacac" d="M 216.5,172.5 C 222.176,172.334 227.843,172.501 233.5,173C 234,173.5 234.5,174 235,174.5C 235.667,182.5 235.667,190.5 235,198.5C 234.692,199.308 234.192,199.975 233.5,200.5C 227.886,201.621 222.22,201.788 216.5,201C 216,200.5 215.5,200 215,199.5C 214.333,191.167 214.333,182.833 215,174.5C 215.717,173.956 216.217,173.289 216.5,172.5 Z"/></g>
<g><path style="opacity:1" fill="#fbfbfb" d="M 217.5,173.5 C 222.511,173.334 227.511,173.501 232.5,174C 233,174.5 233.5,175 234,175.5C 234.667,182.833 234.667,190.167 234,197.5C 233.5,198 233,198.5 232.5,199C 227.249,199.804 222.082,199.637 217,198.5C 216.199,190.088 216.366,181.755 217.5,173.5 Z"/></g>
<g><path style="opacity:1" fill="#6c6c6c" d="M 610.5,202.5 C 612.288,202.215 613.955,202.548 615.5,203.5C 614.667,203.833 613.833,204.167 613,204.5C 611.624,204.316 610.791,203.649 610.5,202.5 Z"/></g>
<g><path style="opacity:1" fill="#000000" d="M 845.5,203.5 C 853.869,203.348 859.369,207.348 862,215.5C 864.203,224.878 863.203,233.878 859,242.5C 853.011,249.967 846.678,250.3 840,243.5C 834.07,231.755 834.07,220.089 840,208.5C 841.812,206.7 843.645,205.033 845.5,203.5 Z"/></g>
<g><path style="opacity:1" fill="#dcdcdc" d="M 620.5,200.5 C 621.239,200.369 621.906,200.536 622.5,201C 621.289,201.893 621.289,202.726 622.5,203.5C 624.275,202.371 625.942,201.371 627.5,200.5C 628.833,202.167 628.833,203.833 627.5,205.5C 625.273,204.947 622.939,204.947 620.5,205.5C 620.5,203.833 620.5,202.167 620.5,200.5 Z"/></g>
<g><path style="opacity:1" fill="#b3b3b3" d="M 614.5,205.5 C 615.598,206.601 615.765,207.934 615,209.5C 613.601,208.773 612.101,208.273 610.5,208C 612.437,207.878 613.77,207.045 614.5,205.5 Z"/></g>
<g><path style="opacity:1" fill="#efefef" d="M 775.5,207.5 C 783.167,207.5 790.833,207.5 798.5,207.5C 798.5,219.833 798.5,232.167 798.5,244.5C 791.167,244.5 783.833,244.5 776.5,244.5C 771.88,243.308 769.047,240.308 768,235.5C 765.493,226.733 766.493,218.4 771,210.5C 772.129,208.859 773.629,207.859 775.5,207.5 Z"/></g>
<g><path style="opacity:1" fill="#6e6e6e" d="M 775.5,207.5 C 783.316,206.508 791.316,206.174 799.5,206.5C 799.5,219.5 799.5,232.5 799.5,245.5C 791.648,245.825 783.982,245.492 776.5,244.5C 783.833,244.5 791.167,244.5 798.5,244.5C 798.5,232.167 798.5,219.833 798.5,207.5C 790.833,207.5 783.167,207.5 775.5,207.5 Z"/></g>
<g><path style="opacity:1" fill="#555555" d="M 41.5,204.5 C 43.6626,205.362 45.6626,205.696 47.5,205.5C 46.9747,206.192 46.3081,206.692 45.5,207C 45.8333,207.333 46.1667,207.667 46.5,208C 45.062,208.219 43.7287,208.719 42.5,209.5C 44.1667,210.667 45.8333,211.833 47.5,213C 45.8333,213.833 44.1667,214.667 42.5,215.5C 42.6645,213.604 42.3311,211.604 41.5,209.5C 41.8178,208.353 42.4844,207.519 43.5,207C 42.244,206.583 41.5774,205.75 41.5,204.5 Z"/></g>
<g><path style="opacity:1" fill="#bbbbbb" d="M 393.5,214.5 C 398.511,214.334 403.511,214.501 408.5,215C 409.333,215.833 410.167,216.667 411,217.5C 411.667,225.167 411.667,232.833 411,240.5C 410.626,241.416 410.126,242.25 409.5,243C 403.584,243.807 397.75,243.641 392,242.5C 390.396,234.27 390.063,225.937 391,217.5C 392.045,216.627 392.878,215.627 393.5,214.5 Z"/></g>
<g><path style="opacity:1" fill="#adadad" d="M 620.5,209.5 C 623.167,209.5 625.833,209.5 628.5,209.5C 628.662,211.527 628.495,213.527 628,215.5C 626.333,216.833 624.667,216.833 623,215.5C 622.415,213.339 621.582,211.339 620.5,209.5 Z"/></g>
<g><path style="opacity:1" fill="#9c9c9c" d="M 62.5,215.5 C 70.4197,215.185 78.253,215.518 86,216.5C 86.6667,224.833 86.6667,233.167 86,241.5C 85.5,242 85,242.5 84.5,243C 77.1667,243.667 69.8333,243.667 62.5,243C 62,242.5 61.5,242 61,241.5C 60.3333,233.5 60.3333,225.5 61,217.5C 61.7172,216.956 62.2172,216.289 62.5,215.5 Z"/></g>
<g><path style="opacity:1" fill="#9c9c9c" d="M 101.5,215.5 C 109.42,215.185 117.253,215.518 125,216.5C 125.816,225.412 125.65,234.245 124.5,243C 117.167,243.667 109.833,243.667 102.5,243C 102,242.5 101.5,242 101,241.5C 100.198,232.755 100.364,224.088 101.5,215.5 Z"/></g>
<g><path style="opacity:1" fill="#9c9c9c" d="M 140.5,215.5 C 148.42,215.185 156.253,215.518 164,216.5C 164.667,224.833 164.667,233.167 164,241.5C 163.5,242 163,242.5 162.5,243C 154.92,243.813 147.42,243.647 140,242.5C 139.196,233.422 139.363,224.422 140.5,215.5 Z"/></g>
<g><path style="opacity:1" fill="#9c9c9c" d="M 177.5,215.5 C 185.752,215.184 193.919,215.518 202,216.5C 202.667,224.833 202.667,233.167 202,241.5C 201.5,242 201,242.5 200.5,243C 193.167,243.667 185.833,243.667 178.5,243C 178,242.5 177.5,242 177,241.5C 176.225,232.785 176.392,224.119 177.5,215.5 Z"/></g>
<g><path style="opacity:1" fill="#b8b8b8" d="M 284.5,214.5 C 289.511,214.334 294.511,214.501 299.5,215C 300.333,215.833 301.167,216.667 302,217.5C 302.667,225.167 302.667,232.833 302,240.5C 301.626,241.416 301.126,242.25 300.5,243C 294.584,243.807 288.75,243.641 283,242.5C 281.396,234.27 281.063,225.937 282,217.5C 283.045,216.627 283.878,215.627 284.5,214.5 Z"/></g>
<g><path style="opacity:1" fill="#b9b9b9" d="M 611.5,214.5 C 615.161,214.35 616.161,215.85 614.5,219C 613.207,219.49 611.873,219.657 610.5,219.5C 610.366,217.708 610.699,216.042 611.5,214.5 Z"/></g>
<g><path style="opacity:1" fill="#fbfbfb" d="M 284.5,216.5 C 289.762,216.195 294.928,216.529 300,217.5C 300.815,225.746 300.648,233.912 299.5,242C 294.446,242.781 289.446,242.614 284.5,241.5C 283.199,233.108 283.199,224.775 284.5,216.5 Z"/></g>
<g><path style="opacity:1" fill="#fefefe" d="M 332.5,241.5 C 327.5,241.5 322.5,241.5 317.5,241.5C 317.5,233.833 317.5,226.167 317.5,218.5C 317.611,217.883 317.944,217.383 318.5,217C 323.751,216.196 328.918,216.363 334,217.5C 334.167,221.5 334.333,225.5 334.5,229.5C 334.491,233.893 333.824,237.893 332.5,241.5 Z"/></g>
<g><path style="opacity:1" fill="#fcfcfc" d="M 369.5,218.5 C 369.5,225.833 369.5,233.167 369.5,240.5C 369.082,241.222 368.416,241.722 367.5,242C 362.778,242.777 358.111,242.61 353.5,241.5C 352.185,233.275 352.185,225.108 353.5,217C 358.5,216.333 363.5,216.333 368.5,217C 369.056,217.383 369.389,217.883 369.5,218.5 Z"/></g>
<g><path style="opacity:1" fill="#fdfdfd" d="M 393.5,216.5 C 398.762,216.195 403.928,216.529 409,217.5C 409.814,225.413 409.647,233.246 408.5,241C 403.249,241.804 398.082,241.637 393,240.5C 392.2,232.421 392.367,224.421 393.5,216.5 Z"/></g>
<g><path style="opacity:1" fill="#3f3f3f" d="M 45.5,215.5 C 47.2726,216.314 47.7726,217.648 47,219.5C 46.195,217.099 45.3617,217.266 44.5,220C 43.552,220.483 42.552,220.649 41.5,220.5C 41.4568,216.107 41.9568,215.774 43,219.5C 44.0946,218.307 44.928,216.973 45.5,215.5 Z"/></g>
<g><path style="opacity:1" fill="#9b9b9b" d="M 620.5,217.5 C 622.5,217.5 624.5,217.5 626.5,217.5C 626.657,218.873 626.49,220.207 626,221.5C 623.869,220.385 622.035,219.052 620.5,217.5 Z"/></g>
<g><path style="opacity:1" fill="#aaaaaa" d="M 216.5,214.5 C 221.844,214.334 227.177,214.501 232.5,215C 233.416,215.374 234.25,215.874 235,216.5C 235.667,224.833 235.667,233.167 235,241.5C 234.5,242 234,242.5 233.5,243C 227.833,243.667 222.167,243.667 216.5,243C 216,242.5 215.5,242 215,241.5C 214.333,233.167 214.333,224.833 215,216.5C 215.717,215.956 216.217,215.289 216.5,214.5 Z"/></g>
<g><path style="opacity:1" fill="#f9f9f9" d="M 217.5,216.5 C 222.762,216.195 227.928,216.529 233,217.5C 233.832,225.521 233.665,233.521 232.5,241.5C 227.554,242.614 222.554,242.781 217.5,242C 217,241.5 216.5,241 216,240.5C 215.333,233.167 215.333,225.833 216,218.5C 216.717,217.956 217.217,217.289 217.5,216.5 Z"/></g>
<g><path style="opacity:1" fill="#b2b2b2" d="M 369.5,218.5 C 369.389,217.883 369.056,217.383 368.5,217C 363.5,216.333 358.5,216.333 353.5,217C 352.185,225.108 352.185,233.275 353.5,241.5C 358.111,242.61 362.778,242.777 367.5,242C 368.416,241.722 369.082,241.222 369.5,240.5C 370.774,241.189 370.774,242.023 369.5,243C 363.833,243.667 358.167,243.667 352.5,243C 352,242.5 351.5,242 351,241.5C 350.333,233.5 350.333,225.5 351,217.5C 351.833,216.667 352.667,215.833 353.5,215C 358.5,214.333 363.5,214.333 368.5,215C 370.311,216.041 370.645,217.207 369.5,218.5 Z"/></g>
<g><path style="opacity:1" fill="#a7a7a7" d="M 250.5,214.5 C 255.844,214.334 261.177,214.501 266.5,215C 267,215.5 267.5,216 268,216.5C 268.816,225.412 268.65,234.245 267.5,243C 261.5,243.667 255.5,243.667 249.5,243C 249,242.5 248.5,242 248,241.5C 247.333,233.5 247.333,225.5 248,217.5C 249.045,216.627 249.878,215.627 250.5,214.5 Z"/></g>
<g><path style="opacity:1" fill="#fcfcfc" d="M 250.5,216.5 C 256.093,216.193 261.593,216.527 267,217.5C 267.667,225.167 267.667,232.833 267,240.5C 266.5,241 266,241.5 265.5,242C 260.833,242.667 256.167,242.667 251.5,242C 251,241.5 250.5,241 250,240.5C 249.2,232.421 249.367,224.421 250.5,216.5 Z"/></g>
<g><path style="opacity:1" fill="#b4b4b4" d="M 332.5,241.5 C 333.824,237.893 334.491,233.893 334.5,229.5C 334.333,225.5 334.167,221.5 334,217.5C 328.918,216.363 323.751,216.196 318.5,217C 317.944,217.383 317.611,217.883 317.5,218.5C 316.355,217.207 316.689,216.041 318.5,215C 323.5,214.333 328.5,214.333 333.5,215C 334.333,215.833 335.167,216.667 336,217.5C 336.937,225.937 336.604,234.27 335,242.5C 329.584,243.639 324.084,243.806 318.5,243C 323.351,242.826 328.018,242.326 332.5,241.5 Z"/></g>
<g><path style="opacity:1" fill="#c0c0c0" d="M 610.5,222.5 C 612.035,221.212 613.701,221.212 615.5,222.5C 613.997,223.052 612.331,223.052 610.5,222.5 Z"/></g>
<g><path style="opacity:1" fill="#c0c0c0" d="M 620.5,222.5 C 626.936,222.171 627.936,224.171 623.5,228.5C 622.702,226.922 622.202,225.256 622,223.5C 620.992,228.541 620.492,228.208 620.5,222.5 Z"/></g>
<g><path style="opacity:1" fill="#bbbbbb" d="M 358.5,219.5 C 359.473,220.791 360.473,220.791 361.5,219.5C 362.429,220.689 362.762,222.022 362.5,223.5C 358.5,224.167 358.5,224.833 362.5,225.5C 362.666,229.846 362.499,234.179 362,238.5C 360.989,237.663 359.822,237.33 358.5,237.5C 358.859,235.234 358.192,233.401 356.5,232C 359.058,230.62 359.058,229.12 356.5,227.5C 358.223,225.132 358.89,222.466 358.5,219.5 Z"/></g>
<g><path style="opacity:1" fill="#bbbbbb" d="M 398.5,219.5 C 399.482,220.141 400.482,220.807 401.5,221.5C 402.495,227.128 402.829,232.794 402.5,238.5C 397.959,238.669 397.626,238.002 401.5,236.5C 400.624,235.749 399.624,235.249 398.5,235C 402.5,234 402.5,233 398.5,232C 399.136,228.224 399.136,224.057 398.5,219.5 Z"/></g>
<g><path style="opacity:1" fill="#3a3a3a" d="M 41.5,224.5 C 44.2469,224.187 46.9135,224.52 49.5,225.5C 48.1667,225.833 46.8333,226.167 45.5,226.5C 43.6672,226.415 42.3339,225.748 41.5,224.5 Z"/></g>
<g><path style="opacity:1" fill="#f6f6f6" d="M 108.5,224.5 C 110.886,225.373 112.886,226.873 114.5,229C 115.448,229.483 116.448,229.649 117.5,229.5C 116.948,227.669 116.948,226.003 117.5,224.5C 118.086,224.709 118.586,225.043 119,225.5C 119.439,233.57 116.772,234.57 111,228.5C 110.798,230.256 110.298,231.922 109.5,233.5C 108.516,230.572 108.183,227.572 108.5,224.5 Z"/></g>
<g><path style="opacity:1" fill="#f8f8f8" d="M 146.5,224.5 C 148.772,224.911 149.105,226.078 147.5,228C 147.63,229.059 148.13,229.892 149,230.5C 150.269,229.095 150.769,227.429 150.5,225.5C 152.5,225.5 154.5,225.5 156.5,225.5C 156.808,227.924 156.474,230.257 155.5,232.5C 154.833,230.833 154.167,229.167 153.5,227.5C 153.124,230.411 151.624,232.411 149,233.5C 145.417,231.392 144.583,228.392 146.5,224.5 Z"/></g>
<g><path style="opacity:1" fill="#e2e2e2" d="M 184.5,224.5 C 186.39,224.297 187.89,224.963 189,226.5C 193.887,225.574 195.387,227.574 193.5,232.5C 190.362,232.133 187.362,232.633 184.5,234C 181.888,230.836 181.888,227.669 184.5,224.5 Z"/></g>
<g><path style="opacity:1" fill="#c4c4c4" d="M 254.5,221.5 C 256.167,221.5 257.833,221.5 259.5,221.5C 259.357,223.262 259.691,224.929 260.5,226.5C 259.975,227.192 259.308,227.692 258.5,228C 258.937,230.217 258.937,232.551 258.5,235C 261.121,235.906 260.954,236.406 258,236.5C 255.833,236.331 254.666,235.164 254.5,233C 254.559,229.157 254.559,225.323 254.5,221.5 Z"/></g>
<g><path style="opacity:1" fill="#bebebe" d="M 610.5,224.5 C 612.179,224.892 613.846,225.392 615.5,226C 614.667,226.167 613.833,226.333 613,226.5C 611.624,226.316 610.791,225.649 610.5,224.5 Z"/></g>
<g><path style="opacity:1" fill="#c2c2c2" d="M 323.5,221.5 C 324.473,222.791 325.473,222.791 326.5,221.5C 327.2,225.041 327.867,228.541 328.5,232C 327.773,233.399 327.273,234.899 327,236.5C 326.667,235.833 326.333,235.167 326,234.5C 324.291,237.079 323.124,236.746 322.5,233.5C 322.339,229.36 322.672,225.36 323.5,221.5 Z"/></g>
<g><path style="opacity:1" fill="#c0c0c0" d="M 287.5,219.5 C 289.288,219.215 290.955,219.548 292.5,220.5C 291.624,221.251 290.624,221.751 289.5,222C 290.253,223.487 291.086,223.654 292,222.5C 292.779,224.807 292.279,226.807 290.5,228.5C 292.086,230.923 293.086,233.59 293.5,236.5C 292.214,238.571 290.547,238.904 288.5,237.5C 289.376,236.749 290.376,236.249 291.5,236C 287.5,235 287.5,234 291.5,233C 288.108,232.05 286.941,229.883 288,226.5C 289.073,227.28 290.24,227.113 291.5,226C 290.5,225.667 289.5,225.333 288.5,225C 288.833,224.667 289.167,224.333 289.5,224C 288.418,222.67 287.751,221.17 287.5,219.5 Z"/></g>
<g><path style="opacity:1" fill="#cacaca" d="M 610.5,232.5 C 611.919,231.549 613.585,231.216 615.5,231.5C 615.5,232.833 615.5,234.167 615.5,235.5C 613.041,235.69 611.374,234.69 610.5,232.5 Z"/></g>
<g><path style="opacity:1" fill="#666666" d="M 45.5,228.5 C 47.8418,228.775 47.8418,229.608 45.5,231C 46.3081,231.308 46.9747,231.808 47.5,232.5C 46.3845,233.598 46.3845,234.765 47.5,236C 47.0556,237.762 46.5556,237.595 46,235.5C 43.6606,239.588 42.1606,239.254 41.5,234.5C 42.2647,232.119 43.5981,230.119 45.5,228.5 Z"/></g>
<g><path style="opacity:1" fill="#b5b5b5" d="M 620.5,230.5 C 622.265,229.539 624.265,229.205 626.5,229.5C 625.632,232.935 625.632,236.269 626.5,239.5C 624.473,239.662 622.473,239.495 620.5,239C 621.793,238.51 623.127,238.343 624.5,238.5C 624.5,237.5 624.5,236.5 624.5,235.5C 619.167,234.833 619.167,234.167 624.5,233.5C 624.5,232.5 624.5,231.5 624.5,230.5C 623.167,230.5 621.833,230.5 620.5,230.5 Z"/></g>
<g><path style="opacity:1" fill="#b5b5b5" d="M 610.5,239.5 C 611.849,238.203 613.182,238.37 614.5,240C 613.181,240.195 611.847,240.028 610.5,239.5 Z"/></g>
<g><path style="opacity:1" fill="#232323" d="M 46.5,238.5 C 47.6129,239.946 47.7796,241.613 47,243.5C 45.5604,241.954 43.7271,241.121 41.5,241C 43.744,240.95 45.4107,240.117 46.5,238.5 Z"/></g>
<g><path style="opacity:1" fill="#959595" d="M 620.5,241.5 C 622.604,241.201 624.604,241.534 626.5,242.5C 625.5,242.833 624.5,243.167 623.5,243.5C 621.97,243.36 620.97,242.693 620.5,241.5 Z"/></g>
<g><path style="opacity:1" fill="#7d7d7d" d="M 614.5,242.5 C 615.598,243.601 615.765,244.934 615,246.5C 613.491,245.91 611.991,245.244 610.5,244.5C 611.949,243.828 613.282,243.161 614.5,242.5 Z"/></g>
<g><path style="opacity:1" fill="#d0d0d0" d="M 621.5,244.5 C 628.049,244.907 628.049,245.907 621.5,247.5C 622.714,249.069 624.381,249.902 626.5,250C 624.527,250.495 622.527,250.662 620.5,250.5C 620.325,248.379 620.659,246.379 621.5,244.5 Z"/></g>
<g><path style="opacity:1" fill="#040404" d="M 811.5,250.5 C 823.168,250.889 834.835,251.389 846.5,252C 846.833,252.333 847.167,252.667 847.5,253C 836.87,254.238 826.203,254.738 815.5,254.5C 815.498,266.537 814.831,278.537 813.5,290.5C 811.788,277.228 811.121,263.894 811.5,250.5 Z"/></g>
<g><path style="opacity:1" fill="#464646" d="M 41.5,244.5 C 43.5,244.5 45.5,244.5 47.5,244.5C 47.6567,245.873 47.49,247.207 47,248.5C 45.3084,248.676 43.8084,249.176 42.5,250C 49.1344,250.823 49.1344,251.323 42.5,251.5C 42.5,252.5 42.5,253.5 42.5,254.5C 44.1992,254.34 45.8659,254.506 47.5,255C 45.5273,255.495 43.5273,255.662 41.5,255.5C 41.0196,252.315 41.6863,249.481 43.5,247C 42.244,246.583 41.5774,245.75 41.5,244.5 Z"/></g>
<g><path style="opacity:1" fill="#818181" d="M 610.5,249.5 C 611.946,248.387 613.613,248.22 615.5,249C 612.972,250.017 612.972,251.184 615.5,252.5C 613.833,253.833 612.167,253.833 610.5,252.5C 612.977,251.12 612.977,250.12 610.5,249.5 Z"/></g>
<g><path style="opacity:0.981" fill="#cbcbcc" d="M 895.5,252.5 C 909.167,252.5 922.833,252.5 936.5,252.5C 936.5,269.833 936.5,287.167 936.5,304.5C 922.833,304.5 909.167,304.5 895.5,304.5C 894.167,287.167 894.167,269.833 895.5,252.5 Z"/></g>
<g><path style="opacity:1" fill="#b4b4b4" d="M 611.5,254.5 C 615.35,254.701 616.35,256.534 614.5,260C 610.537,260.118 609.537,258.284 611.5,254.5 Z"/></g>
<g><path style="opacity:1" fill="#aeaeae" d="M 620.5,252.5 C 622.5,252.5 624.5,252.5 626.5,252.5C 625.902,255.927 625.735,259.26 626,262.5C 624.186,263.76 622.353,263.76 620.5,262.5C 621.689,261.571 623.022,261.238 624.5,261.5C 624.5,260.5 624.5,259.5 624.5,258.5C 623.022,258.762 621.689,258.429 620.5,257.5C 622.167,256.833 623.833,256.167 625.5,255.5C 623.345,254.999 621.678,253.999 620.5,252.5 Z"/></g>
<g><path style="opacity:1" fill="#9d9d9d" d="M 62.5,258.5 C 70.4197,258.185 78.253,258.518 86,259.5C 86.6667,267.833 86.6667,276.167 86,284.5C 85.5,285 85,285.5 84.5,286C 77.1667,286.667 69.8333,286.667 62.5,286C 62,285.5 61.5,285 61,284.5C 60.3333,276.5 60.3333,268.5 61,260.5C 61.7172,259.956 62.2172,259.289 62.5,258.5 Z"/></g>
<g><path style="opacity:1" fill="#9c9c9c" d="M 101.5,258.5 C 109.42,258.185 117.253,258.518 125,259.5C 125.816,268.412 125.65,277.245 124.5,286C 116.587,286.814 108.754,286.647 101,285.5C 100.196,276.422 100.363,267.422 101.5,258.5 Z"/></g>
<g><path style="opacity:1" fill="#9b9b9b" d="M 140.5,258.5 C 148.42,258.185 156.253,258.518 164,259.5C 164.816,268.412 164.65,277.245 163.5,286C 155.587,286.814 147.754,286.647 140,285.5C 139.196,276.422 139.363,267.422 140.5,258.5 Z"/></g>
<g><path style="opacity:1" fill="#9c9c9c" d="M 178.5,258.5 C 185.841,258.334 193.174,258.5 200.5,259C 201,259.5 201.5,260 202,260.5C 202.667,268.5 202.667,276.5 202,284.5C 201.5,285 201,285.5 200.5,286C 193.167,286.667 185.833,286.667 178.5,286C 178,285.5 177.5,285 177,284.5C 176.333,276.5 176.333,268.5 177,260.5C 177.717,259.956 178.217,259.289 178.5,258.5 Z"/></g>
<g><path style="opacity:1" fill="#b9b9b9" d="M 393.5,257.5 C 398.511,257.334 403.511,257.501 408.5,258C 409.333,258.833 410.167,259.667 411,260.5C 411.667,268.167 411.667,275.833 411,283.5C 410.626,284.416 410.126,285.25 409.5,286C 403.833,286.667 398.167,286.667 392.5,286C 392,285.5 391.5,285 391,284.5C 390.333,276.5 390.333,268.5 391,260.5C 392.045,259.627 392.878,258.627 393.5,257.5 Z"/></g>
<g><path style="opacity:1" fill="#414141" d="M 41.5,257.5 C 43.3635,256.207 45.3635,256.207 47.5,257.5C 46.91,258.799 45.91,259.632 44.5,260C 45.5,260.833 46.5,261.667 47.5,262.5C 45.5,263.833 43.5,263.833 41.5,262.5C 42.4266,261.094 43.4266,259.594 44.5,258C 43.552,257.517 42.552,257.351 41.5,257.5 Z"/></g>
<g><path style="opacity:1" fill="#fcfcfc" d="M 393.5,259.5 C 398.762,259.195 403.928,259.529 409,260.5C 409.832,268.521 409.665,276.521 408.5,284.5C 403.5,285.833 398.5,285.833 393.5,284.5C 392.199,276.108 392.199,267.775 393.5,259.5 Z"/></g>
<g><path style="opacity:1" fill="#b9b9b9" d="M 283.5,258.5 C 289.176,258.334 294.843,258.501 300.5,259C 301,259.5 301.5,260 302,260.5C 302.667,268.5 302.667,276.5 302,284.5C 301.5,285 301,285.5 300.5,286C 294.584,286.807 288.75,286.641 283,285.5C 281.893,281.112 281.393,276.612 281.5,272C 281.667,268.167 281.833,264.333 282,260.5C 282.717,259.956 283.217,259.289 283.5,258.5 Z"/></g>
<g><path style="opacity:1" fill="#fdfdfd" d="M 284.5,259.5 C 289.762,259.195 294.928,259.529 300,260.5C 300.815,268.746 300.648,276.912 299.5,285C 294.249,285.804 289.082,285.637 284,284.5C 283.199,276.088 283.366,267.755 284.5,259.5 Z"/></g>
<g><path style="opacity:1" fill="#a9a9a9" d="M 249.5,258.5 C 255.758,258.19 261.924,258.524 268,259.5C 268.816,268.412 268.65,277.245 267.5,286C 261.5,286.667 255.5,286.667 249.5,286C 249,285.5 248.5,285 248,284.5C 247.333,276.5 247.333,268.5 248,260.5C 248.717,259.956 249.217,259.289 249.5,258.5 Z"/></g>
<g><path style="opacity:1" fill="#fafafa" d="M 250.5,259.5 C 255.511,259.334 260.511,259.501 265.5,260C 266,260.5 266.5,261 267,261.5C 267.667,268.833 267.667,276.167 267,283.5C 266.5,284 266,284.5 265.5,285C 260.833,285.667 256.167,285.667 251.5,285C 251,284.5 250.5,284 250,283.5C 249.2,275.421 249.367,267.421 250.5,259.5 Z"/></g>
<g><path style="opacity:1" fill="#9d9d9d" d="M 338.5,263.5 C 344.345,263.151 350.012,263.984 355.5,266C 358.21,267.015 360.543,268.515 362.5,270.5C 350.5,286.5 338.5,286.5 326.5,270.5C 329.936,267.118 333.936,264.785 338.5,263.5 Z"/></g>
<g><path style="opacity:1" fill="#7e7e7e" d="M 610.5,263.5 C 611.946,262.387 613.613,262.22 615.5,263C 612.972,264.316 612.972,265.483 615.5,266.5C 613.833,267.833 612.167,267.833 610.5,266.5C 610.977,265.522 611.643,264.689 612.5,264C 611.906,263.536 611.239,263.369 610.5,263.5 Z"/></g>
<g><path style="opacity:1" fill="#eeeeee" d="M 68.5,266.5 C 71.8499,266.335 75.1832,266.502 78.5,267C 80.4054,267.826 80.7388,268.993 79.5,270.5C 77.9291,269.691 76.2624,269.357 74.5,269.5C 73.8333,276.167 73.1667,276.167 72.5,269.5C 70.5328,269.261 68.6995,269.594 67,270.5C 66.516,268.807 67.016,267.473 68.5,266.5 Z"/></g>
<g><path style="opacity:1" fill="#f7f7f7" d="M 108.5,268.5 C 109.552,268.351 110.552,268.517 111.5,269C 110.62,270.356 110.286,271.856 110.5,273.5C 111.5,273.5 112.5,273.5 113.5,273.5C 113.656,269.865 114.822,269.532 117,272.5C 117.219,271.062 117.719,269.729 118.5,268.5C 119.833,270.833 119.833,273.167 118.5,275.5C 116.12,274.233 113.954,274.566 112,276.5C 110.739,276.241 109.739,275.574 109,274.5C 108.505,272.527 108.338,270.527 108.5,268.5 Z"/></g>
<g><path style="opacity:1" fill="#e8e8e8" d="M 147.5,268.5 C 151.007,267.994 154.174,268.66 157,270.5C 157.946,272.956 157.446,274.956 155.5,276.5C 154.702,274.922 154.202,273.256 154,271.5C 153.889,275.953 151.723,277.787 147.5,277C 144.885,274.093 144.885,271.26 147.5,268.5 Z"/></g>
<g><path style="opacity:1" fill="#e5e5e5" d="M 188.5,267.5 C 194.643,268.026 195.976,270.86 192.5,276C 185.476,278.643 182.143,276.143 182.5,268.5C 183.5,268.5 184.5,268.5 185.5,268.5C 185.34,270.199 185.506,271.866 186,273.5C 186.236,271.189 187.069,269.189 188.5,267.5 Z"/></g>
<g><path style="opacity:1" fill="#c3c3c3" d="M 622.5,267.5 C 627.991,267.469 629.491,269.802 627,274.5C 628.166,271.816 627.333,269.816 624.5,268.5C 623.522,268.977 622.689,269.643 622,270.5C 621.915,272.085 621.749,273.418 621.5,274.5C 620.154,271.9 620.488,269.567 622.5,267.5 Z"/></g>
<g><path style="opacity:1" fill="#f2b84f" d="M 822.5,268.5 C 825.292,268.452 827.125,269.785 828,272.5C 828.791,276.926 828.457,281.259 827,285.5C 824.872,289.376 822.539,289.376 820,285.5C 817.381,279.205 818.214,273.539 822.5,268.5 Z"/></g>
<g><path style="opacity:1" fill="#434343" d="M 41.5,264.5 C 43.5,264.5 45.5,264.5 47.5,264.5C 48.1856,268.287 47.1856,271.454 44.5,274C 45.5,274.333 46.5,274.667 47.5,275C 41.8329,276.363 40.8329,275.363 44.5,272C 43.5,271.667 42.5,271.333 41.5,271C 43.1341,270.506 44.8008,270.34 46.5,270.5C 46.5,269.167 46.5,267.833 46.5,266.5C 45.1667,266.5 43.8333,266.5 42.5,266.5C 42.6495,267.552 42.4828,268.552 42,269.5C 41.5065,267.866 41.3398,266.199 41.5,264.5 Z"/></g>
<g><path style="opacity:1" fill="#c1c1c1" d="M 290.5,267.5 C 293.598,267.413 293.932,267.913 291.5,269C 291.543,271.5 291.877,274 292.5,276.5C 291.167,276.5 289.833,276.5 288.5,276.5C 288.838,273.989 288.838,271.655 288.5,269.5C 289.243,268.818 289.909,268.151 290.5,267.5 Z"/></g>
<g><path style="opacity:1" fill="#efefef" d="M 343.5,273.5 C 349.186,277.113 348.519,278.28 341.5,277C 342.305,275.887 342.972,274.721 343.5,273.5 Z"/></g>
<g><path style="opacity:1" fill="#eeeeee" d="M 79.5,274.5 C 80.9844,277.234 79.9844,278.734 76.5,279C 72.5695,280.138 69.2362,279.305 66.5,276.5C 69.6651,276.449 72.9984,276.282 76.5,276C 77.7375,275.768 78.7375,275.268 79.5,274.5 Z"/></g>
<g><path style="opacity:1" fill="#9f9f9f" d="M 320.5,275.5 C 325.616,278.781 329.949,282.948 333.5,288C 332.384,292.199 332.218,296.366 333,300.5C 328.985,304.682 324.818,308.682 320.5,312.5C 314.912,304.368 313.079,295.368 315,285.5C 316.592,281.979 318.425,278.646 320.5,275.5 Z"/></g>
<g><path style="opacity:1" fill="#9c9c9c" d="M 366.5,275.5 C 368.017,275.511 369.184,276.177 370,277.5C 374.709,285.708 375.709,294.374 373,303.5C 372.108,306.952 370.442,309.952 368,312.5C 363.453,308.289 359.286,303.789 355.5,299C 356.534,294.827 356.701,290.661 356,286.5C 359.704,282.964 363.204,279.298 366.5,275.5 Z"/></g>
<g><path style="opacity:1" fill="#c2c2c2" d="M 398.5,264.5 C 400.199,264.34 401.866,264.506 403.5,265C 402.529,270.072 402.195,275.238 402.5,280.5C 401.167,280.5 399.833,280.5 398.5,280.5C 398.592,275.176 398.592,269.843 398.5,264.5 Z"/></g>
<g><path style="opacity:1" fill="#d9d9d9" d="M 620.5,276.5 C 623.167,276.5 625.833,276.5 628.5,276.5C 628.662,278.527 628.495,280.527 628,282.5C 627.506,280.866 627.34,279.199 627.5,277.5C 626.5,277.5 625.5,277.5 624.5,277.5C 624.443,282.682 623.776,282.682 622.5,277.5C 621.03,283.959 620.363,283.626 620.5,276.5 Z"/></g>
<g><path style="opacity:1" fill="#4b4b4b" d="M 46.5,281.5 C 45.3218,280.001 43.6551,279.001 41.5,278.5C 43.3413,277.77 45.1746,277.103 47,276.5C 47.7796,278.387 47.6129,280.054 46.5,281.5 Z"/></g>
<g><path style="opacity:1" fill="#474747" d="M 46.5,281.5 C 47.4124,282.738 47.5791,284.072 47,285.5C 46.195,283.099 45.3617,283.266 44.5,286C 43.8333,286.667 43.1667,286.667 42.5,286C 43.2829,283.882 44.6162,282.382 46.5,281.5 Z"/></g>
<g><path style="opacity:1" fill="#aeaeae" d="M 215.5,258.5 C 221.893,258.207 228.227,258.54 234.5,259.5C 235.665,267.813 235.832,276.147 235,284.5C 234.5,285 234,285.5 233.5,286C 227.472,286.83 221.472,286.664 215.5,285.5C 214.169,276.47 214.169,267.47 215.5,258.5 Z"/></g>
<g><path style="opacity:1" fill="#fcfcfc" d="M 217.5,259.5 C 222.762,259.195 227.928,259.529 233,260.5C 233.815,268.746 233.648,276.912 232.5,285C 227.446,285.781 222.446,285.614 217.5,284.5C 216.199,276.108 216.199,267.775 217.5,259.5 Z"/></g>
<g><path style="opacity:1" fill="#e9e9e9" d="M 360.5,291.5 C 366.936,292.446 367.103,294.113 361,296.5C 360.506,294.866 360.34,293.199 360.5,291.5 Z"/></g>
<g><path style="opacity:1" fill="#bbbbbb" d="M 284.5,301.5 C 289.511,301.334 294.511,301.501 299.5,302C 300.333,302.833 301.167,303.667 302,304.5C 302.667,312.167 302.667,319.833 302,327.5C 301.626,328.416 301.126,329.25 300.5,330C 294.584,330.807 288.75,330.641 283,329.5C 281.396,321.27 281.063,312.937 282,304.5C 283.045,303.627 283.878,302.627 284.5,301.5 Z"/></g>
<g><path style="opacity:1" fill="#fbfbfb" d="M 284.5,303.5 C 289.762,303.195 294.928,303.529 300,304.5C 300.667,312.167 300.667,319.833 300,327.5C 299.5,328 299,328.5 298.5,329C 294.167,329.667 289.833,329.667 285.5,329C 285,328.5 284.5,328 284,327.5C 283.2,319.421 283.367,311.421 284.5,303.5 Z"/></g>
<g><path style="opacity:1" fill="#fbfbfb" d="M 409.5,305.5 C 409.5,312.833 409.5,320.167 409.5,327.5C 409.389,328.117 409.056,328.617 408.5,329C 403.5,329.667 398.5,329.667 393.5,329C 392.167,320.667 392.167,312.333 393.5,304C 398.5,303.333 403.5,303.333 408.5,304C 409.056,304.383 409.389,304.883 409.5,305.5 Z"/></g>
<g><path style="opacity:1" fill="#ababab" d="M 83.5,302.5 C 89.1764,302.334 94.8431,302.501 100.5,303C 101,303.5 101.5,304 102,304.5C 102.667,312.833 102.667,321.167 102,329.5C 101.5,330 101,330.5 100.5,331C 94.8333,331.667 89.1667,331.667 83.5,331C 83,330.5 82.5,330 82,329.5C 81.3333,321.167 81.3333,312.833 82,304.5C 82.7172,303.956 83.2172,303.289 83.5,302.5 Z"/></g>
<g><path style="opacity:1" fill="#fbfbfb" d="M 84.5,304.5 C 89.8746,304.172 95.2079,304.505 100.5,305.5C 101.833,313.167 101.833,320.833 100.5,328.5C 94.9462,329.806 89.4462,329.806 84,328.5C 83.2004,320.421 83.3671,312.421 84.5,304.5 Z"/></g>
<g><path style="opacity:1" fill="#a8a8a8" d="M 183.5,302.5 C 189.176,302.334 194.843,302.501 200.5,303C 201,303.5 201.5,304 202,304.5C 202.816,313.079 202.649,321.579 201.5,330C 195.612,331.576 189.612,331.909 183.5,331C 183,330.5 182.5,330 182,329.5C 181.333,321.167 181.333,312.833 182,304.5C 182.717,303.956 183.217,303.289 183.5,302.5 Z"/></g>
<g><path style="opacity:1" fill="#fafafa" d="M 185.5,303.5 C 189.846,303.334 194.179,303.501 198.5,304C 199,304.5 199.5,305 200,305.5C 200.814,313.413 200.647,321.246 199.5,329C 194.5,329.667 189.5,329.667 184.5,329C 184,328.5 183.5,328 183,327.5C 182.333,320.167 182.333,312.833 183,305.5C 183.995,304.934 184.828,304.267 185.5,303.5 Z"/></g>
<g><path style="opacity:1" fill="#acacac" d="M 250.5,301.5 C 255.844,301.334 261.177,301.501 266.5,302C 267,302.5 267.5,303 268,303.5C 268.816,312.412 268.65,321.245 267.5,330C 261.5,330.667 255.5,330.667 249.5,330C 249,329.5 248.5,329 248,328.5C 247.333,320.5 247.333,312.5 248,304.5C 249.045,303.627 249.878,302.627 250.5,301.5 Z"/></g>
<g><path style="opacity:1" fill="#fdfdfd" d="M 250.5,303.5 C 256.093,303.193 261.593,303.527 267,304.5C 267.814,312.413 267.647,320.246 266.5,328C 260.916,328.806 255.416,328.639 250,327.5C 249.2,319.421 249.367,311.421 250.5,303.5 Z"/></g>
<g><path style="opacity:1" fill="#9e9e9e" d="M 337.5,304.5 C 341.801,307.158 346.135,307.158 350.5,304.5C 355.167,308.5 359.5,312.833 363.5,317.5C 354.833,324.414 345.167,326.247 334.5,323C 331.13,321.654 328.13,319.821 325.5,317.5C 329.522,313.146 333.522,308.813 337.5,304.5 Z"/></g>
<g><path style="opacity:1" fill="#b2b2b2" d="M 409.5,305.5 C 409.389,304.883 409.056,304.383 408.5,304C 403.5,303.333 398.5,303.333 393.5,304C 392.167,312.333 392.167,320.667 393.5,329C 398.5,329.667 403.5,329.667 408.5,329C 409.056,328.617 409.389,328.117 409.5,327.5C 410.774,328.189 410.774,329.023 409.5,330C 403.833,330.667 398.167,330.667 392.5,330C 392,329.5 391.5,329 391,328.5C 390.333,320.5 390.333,312.5 391,304.5C 391.5,304 392,303.5 392.5,303C 398.167,302.333 403.833,302.333 409.5,303C 410.774,303.977 410.774,304.811 409.5,305.5 Z"/></g>
<g><path style="opacity:1" fill="#a9a9a9" d="M 216.5,302.5 C 222.176,302.334 227.843,302.501 233.5,303C 234,303.5 234.5,304 235,304.5C 235.816,313.079 235.649,321.579 234.5,330C 228.612,331.576 222.612,331.909 216.5,331C 216,330.5 215.5,330 215,329.5C 214.333,321.167 214.333,312.833 215,304.5C 215.717,303.956 216.217,303.289 216.5,302.5 Z"/></g>
<g><path style="opacity:1" fill="#fafafa" d="M 218.5,303.5 C 222.846,303.334 227.179,303.501 231.5,304C 232.308,304.308 232.975,304.808 233.5,305.5C 234.632,312.783 234.799,320.117 234,327.5C 233.5,328 233,328.5 232.5,329C 227.249,329.804 222.082,329.637 217,328.5C 216.333,320.833 216.333,313.167 217,305.5C 217.717,304.956 218.217,304.289 218.5,303.5 Z"/></g>
<g><path style="opacity:1" fill="#ababab" d="M 117.5,302.5 C 122.844,302.334 128.177,302.501 133.5,303C 134,303.5 134.5,304 135,304.5C 135.667,312.833 135.667,321.167 135,329.5C 134.5,330 134,330.5 133.5,331C 128.167,331.667 122.833,331.667 117.5,331C 116.692,330.692 116.025,330.192 115.5,329.5C 114.365,321.549 114.198,313.549 115,305.5C 115.698,304.309 116.531,303.309 117.5,302.5 Z"/></g>
<g><path style="opacity:1" fill="#fcfcfc" d="M 117.5,304.5 C 123.093,304.193 128.593,304.527 134,305.5C 134.814,313.413 134.647,321.246 133.5,329C 127.916,329.806 122.416,329.639 117,328.5C 116.2,320.421 116.367,312.421 117.5,304.5 Z"/></g>
<g><path style="opacity:1" fill="#c8c8c8" d="M 222.5,310.5 C 223.833,310.5 225.167,310.5 226.5,310.5C 226.5,311.833 226.5,313.167 226.5,314.5C 227.833,314.5 229.167,314.5 230.5,314.5C 230.824,317.694 229.658,318.694 227,317.5C 226.506,319.134 226.34,320.801 226.5,322.5C 223.234,322.567 221.734,320.901 222,317.5C 220.989,318.337 219.822,318.67 218.5,318.5C 218.5,317.167 218.5,315.833 218.5,314.5C 219.822,314.33 220.989,314.663 222,315.5C 222.494,313.866 222.66,312.199 222.5,310.5 Z"/></g>
<g><path style="opacity:1" fill="#a5a5a5" d="M 254.5,310.5 C 267.758,314.879 267.758,318.879 254.5,322.5C 254.5,321.5 254.5,320.5 254.5,319.5C 256.783,319.392 258.783,318.559 260.5,317C 258.751,315.708 256.918,314.542 255,313.5C 254.517,312.552 254.351,311.552 254.5,310.5 Z"/></g>
<g><path style="opacity:1" fill="#a4a4a4" d="M 124.5,311.5 C 126.176,312.183 126.843,313.517 126.5,315.5C 127.833,315.5 129.167,315.5 130.5,315.5C 130.5,316.5 130.5,317.5 130.5,318.5C 129.167,318.5 127.833,318.5 126.5,318.5C 126.5,319.833 126.5,321.167 126.5,322.5C 125.5,322.5 124.5,322.5 123.5,322.5C 123.5,321.167 123.5,319.833 123.5,318.5C 122.167,318.5 120.833,318.5 119.5,318.5C 119.5,317.5 119.5,316.5 119.5,315.5C 121.167,315.5 122.833,315.5 124.5,315.5C 124.5,314.167 124.5,312.833 124.5,311.5 Z"/></g>
<g><path style="opacity:1" fill="#a4a4a4" d="M 188.5,312.5 C 190.044,312.703 191.378,313.37 192.5,314.5C 193.5,313.833 194.5,313.167 195.5,312.5C 196.754,314.259 196.421,315.759 194.5,317C 195.5,318 196.5,319 197.5,320C 195.76,321.827 194.093,321.66 192.5,319.5C 190.907,321.66 189.24,321.827 187.5,320C 188.5,319 189.5,318 190.5,317C 188.35,315.808 187.683,314.308 188.5,312.5 Z"/></g>
<g><path style="opacity:1" fill="#bcbcbc" d="M 399.5,304.5 C 400.5,304.5 401.5,304.5 402.5,304.5C 401.919,309.975 402.586,315.142 404.5,320C 403.061,320.991 402.061,322.324 401.5,324C 402.731,325.183 402.731,326.349 401.5,327.5C 401.167,326.833 400.833,326.167 400.5,325.5C 399.808,326.025 399.308,326.692 399,327.5C 398.506,325.866 398.34,324.199 398.5,322.5C 402.5,322.167 402.5,321.833 398.5,321.5C 397.632,318.065 397.632,314.731 398.5,311.5C 399.552,311.649 400.552,311.483 401.5,311C 397.353,309.735 396.686,307.568 399.5,304.5 Z"/></g>
<g><path style="opacity:1" fill="#bcbcbc" d="M 289.5,306.5 C 291.485,306.859 292.151,307.692 291.5,309C 293.49,312.69 293.49,316.524 291.5,320.5C 290.692,320.808 290.025,321.308 289.5,322C 296.456,324.815 296.123,325.982 288.5,325.5C 288.784,323.123 288.784,320.956 288.5,319C 292.378,318.051 292.378,316.885 288.5,315.5C 292.335,314.004 292.335,313.004 288.5,312.5C 288.325,310.379 288.659,308.379 289.5,306.5 Z"/></g>
<g><path style="opacity:0.982" fill="#1a1a1a" d="M 27.5,322.5 C 27.8333,322.5 28.1667,322.5 28.5,322.5C 27.336,331.109 27.336,339.776 28.5,348.5C 19.9618,349.788 11.2952,349.788 2.5,348.5C 1.48837,347.128 0.488369,345.795 -0.5,344.5C -0.5,339.167 -0.5,333.833 -0.5,328.5C 0.142944,326.924 1.14294,325.59 2.5,324.5C 3.47344,324.013 4.47344,323.513 5.5,323C 12.8258,322.5 20.1591,322.334 27.5,322.5 Z"/></g>
<g><path style="opacity:1" fill="#c5c5c5" d="M 89.5,307.5 C 90.8333,307.5 92.1667,307.5 93.5,307.5C 94.2896,313.712 94.1229,320.046 93,326.5C 88.8013,325.307 87.9679,323.14 90.5,320C 88.8078,318.599 88.1412,316.766 88.5,314.5C 92.9562,314.104 93.2895,313.104 89.5,311.5C 88.1931,310.135 88.1931,308.802 89.5,307.5 Z"/></g>
<g><path style="opacity:1" fill="#a4a4a4" d="M 150.5,301.5 C 155.844,301.334 161.177,301.501 166.5,302C 167,302.5 167.5,303 168,303.5C 168.816,312.412 168.65,321.245 167.5,330C 161.5,330.667 155.5,330.667 149.5,330C 149,329.5 148.5,329 148,328.5C 147.333,320.5 147.333,312.5 148,304.5C 149.045,303.627 149.878,302.627 150.5,301.5 Z"/></g>
<g><path style="opacity:1" fill="#fbfbfb" d="M 150.5,303.5 C 156.093,303.193 161.593,303.527 167,304.5C 167.667,312.167 167.667,319.833 167,327.5C 166.5,328 166,328.5 165.5,329C 160.833,329.667 156.167,329.667 151.5,329C 151,328.5 150.5,328 150,327.5C 149.2,319.421 149.367,311.421 150.5,303.5 Z"/></g>
<g><path style="opacity:1" fill="#b3b3b3" d="M 157.5,309.5 C 158.5,309.5 159.5,309.5 160.5,309.5C 160.5,314.167 160.5,318.833 160.5,323.5C 159.5,323.5 158.5,323.5 157.5,323.5C 157.5,318.833 157.5,314.167 157.5,309.5 Z"/></g>
<g><path style="opacity:1" fill="#1b1c1d" d="M 767.5,328.5 C 782.837,328.333 798.17,328.5 813.5,329C 815.286,329.785 816.786,330.951 818,332.5C 819.643,353.077 819.976,373.744 819,394.5C 818.215,396.286 817.049,397.786 815.5,399C 799.592,400.636 783.592,400.969 767.5,400C 765,398.833 763.167,397 762,394.5C 761.333,374.5 761.333,354.5 762,334.5C 763.36,331.977 765.193,329.977 767.5,328.5 Z"/></g>
<g><path style="opacity:1" fill="#1b1b1c" d="M 102.5,361.5 C 102.5,364.167 102.5,366.833 102.5,369.5C 102.5,382.5 102.5,395.5 102.5,408.5C 101.956,411.7 100.29,414.033 97.5,415.5C 87.5,415.5 77.5,415.5 67.5,415.5C 65.193,414.023 63.3597,412.023 62,409.5C 61.5001,396.504 61.3334,383.504 61.5,370.5C 59.5,370.5 57.5,370.5 55.5,370.5C 54.8333,370.5 54.5,370.167 54.5,369.5C 56.8333,369.5 59.1667,369.5 61.5,369.5C 61.5,366.833 61.5,364.167 61.5,361.5C 61.0714,354.053 61.5714,346.719 63,339.5C 63.9025,338.299 65.0692,337.465 66.5,337C 77.1667,336.333 87.8333,336.333 98.5,337C 99.4162,337.374 100.25,337.874 101,338.5C 102.432,346.054 102.932,353.721 102.5,361.5 Z"/></g>
<g><path style="opacity:1" fill="#1e1e20" d="M 581.5,352.5 C 581.5,357.5 581.5,362.5 581.5,367.5C 587.5,367.5 593.5,367.5 599.5,367.5C 599.5,368.167 599.167,368.5 598.5,368.5C 592.833,368.5 587.167,368.5 581.5,368.5C 581.667,382.171 581.5,395.837 581,409.5C 579.64,412.023 577.807,414.023 575.5,415.5C 565.5,415.5 555.5,415.5 545.5,415.5C 543.193,414.023 541.36,412.023 540,409.5C 539.5,395.837 539.333,382.171 539.5,368.5C 524.833,368.5 510.167,368.5 495.5,368.5C 494.833,368.5 494.5,368.167 494.5,367.5C 509.5,367.5 524.5,367.5 539.5,367.5C 539.5,362.833 539.5,358.167 539.5,353.5C 513.661,353.831 487.995,353.498 462.5,352.5C 488.167,352.5 513.833,352.5 539.5,352.5C 538.423,337.478 545.423,332.145 560.5,336.5C 575.577,332.145 582.577,337.478 581.5,352.5 Z"/></g>
<g><path style="opacity:1" fill="#040404" d="M 805.5,382.5 C 795.675,383.658 785.675,383.825 775.5,383C 774.667,382.167 773.833,381.333 773,380.5C 771.93,368.512 771.597,356.512 772,344.5C 772.583,342.998 773.416,341.665 774.5,340.5C 784.786,339.358 795.12,339.191 805.5,340C 806.931,340.465 808.097,341.299 809,342.5C 809.853,355.538 809.52,368.538 808,381.5C 807.329,382.252 806.496,382.586 805.5,382.5 Z"/></g>
<g><path style="opacity:1" fill="#1a1a1a" d="M 805.5,382.5 C 796.161,382.666 786.827,382.5 777.5,382C 777,381.5 776.5,381 776,380.5C 775.761,368.256 776.261,356.09 777.5,344C 786.833,343.333 796.167,343.333 805.5,344C 806,344.5 806.5,345 807,345.5C 807.667,357.167 807.667,368.833 807,380.5C 806.283,381.044 805.783,381.711 805.5,382.5 Z"/></g>
<g><path style="opacity:1" fill="#868686" d="M 793.5,347.5 C 792.167,347.5 790.833,347.5 789.5,347.5C 789.5,349.833 789.5,352.167 789.5,354.5C 790.833,354.5 792.167,354.5 793.5,354.5C 792.081,355.451 790.415,355.784 788.5,355.5C 788.5,352.5 788.5,349.5 788.5,346.5C 790.415,346.216 792.081,346.549 793.5,347.5 Z"/></g>
<g><path style="opacity:1" fill="#f3f3f3" d="M 793.5,347.5 C 793.5,349.833 793.5,352.167 793.5,354.5C 792.167,354.5 790.833,354.5 789.5,354.5C 789.5,352.167 789.5,349.833 789.5,347.5C 790.833,347.5 792.167,347.5 793.5,347.5 Z"/></g>
<g><path style="opacity:0.98" fill="#71a7f4" d="M 2.5,348.5 C 11.2952,349.788 19.9618,349.788 28.5,348.5C 32.0554,355.72 37.0554,361.72 43.5,366.5C 37.423,369.986 35.923,374.986 39,381.5C 44.3333,386.833 49.6667,386.833 55,381.5C 56.8223,377.91 56.9889,374.243 55.5,370.5C 57.5,370.5 59.5,370.5 61.5,370.5C 61.3334,383.504 61.5001,396.504 62,409.5C 63.3597,412.023 65.193,414.023 67.5,415.5C 55.4379,415.915 43.4379,415.415 31.5,414C 16.9311,409.097 7.43112,399.264 3,384.5C 1.33664,372.46 1.16997,360.46 2.5,348.5 Z"/></g>
<g><path style="opacity:1" fill="#ececec" d="M 787.5,362.5 C 797.059,361.546 800.559,365.546 798,374.5C 792.932,379.901 788.265,379.567 784,373.5C 782.662,368.96 783.829,365.293 787.5,362.5 Z"/></g>
<g><path style="opacity:1" fill="#e2e2e2" d="M 78.5,364.5 C 90.7016,364.192 95.2016,369.859 92,381.5C 88.2115,386.153 83.3782,387.653 77.5,386C 71.8232,382.364 69.9899,377.197 72,370.5C 74.0627,368.266 76.2294,366.266 78.5,364.5 Z"/></g>
<g><path style="opacity:1" fill="#e2e2e2" d="M 556.5,364.5 C 570.146,364.641 574.313,370.974 569,383.5C 563.266,387.44 557.599,387.44 552,383.5C 547.598,375.644 549.098,369.31 556.5,364.5 Z"/></g>
<g><path style="opacity:1" fill="#fcbf53" d="M 43.5,366.5 C 46.8407,368.5 50.5074,369.5 54.5,369.5C 54.5,370.167 54.8333,370.5 55.5,370.5C 56.9889,374.243 56.8223,377.91 55,381.5C 49.6667,386.833 44.3333,386.833 39,381.5C 35.923,374.986 37.423,369.986 43.5,366.5 Z"/></g>
<g><path style="opacity:1" fill="#242424" d="M 789.5,366.5 C 793.976,366.8 795.31,368.967 793.5,373C 787.738,373.418 786.404,371.251 789.5,366.5 Z"/></g>
<g><path style="opacity:0.994" fill="#70a7f4" d="M 324.5,367.5 C 324.263,368.791 324.596,369.791 325.5,370.5C 328.271,377.049 332.937,378.883 339.5,376C 341.464,374.549 342.797,372.716 343.5,370.5C 344.404,369.791 344.737,368.791 344.5,367.5C 366.167,367.5 387.833,367.5 409.5,367.5C 404.617,372.32 404.284,377.487 408.5,383C 415.706,387.42 421.206,385.92 425,378.5C 426.118,374.077 424.951,370.41 421.5,367.5C 441.833,367.5 462.167,367.5 482.5,367.5C 477.946,374.015 478.612,379.848 484.5,385C 492.792,387.029 497.458,383.862 498.5,375.5C 498.305,372.782 497.305,370.449 495.5,368.5C 510.167,368.5 524.833,368.5 539.5,368.5C 539.333,382.171 539.5,395.837 540,409.5C 541.36,412.023 543.193,414.023 545.5,415.5C 396.167,415.5 246.833,415.5 97.5,415.5C 100.29,414.033 101.956,411.7 102.5,408.5C 103.495,396.011 103.829,383.344 103.5,370.5C 174.841,371.163 245.841,370.497 316.5,368.5C 318.948,367.527 321.615,367.194 324.5,367.5 Z"/></g>
<g><path style="opacity:1" fill="#886d3c" d="M 324.5,367.5 C 331.167,367.5 337.833,367.5 344.5,367.5C 344.737,368.791 344.404,369.791 343.5,370.5C 340.913,369.184 337.913,368.517 334.5,368.5C 331.087,368.517 328.087,369.184 325.5,370.5C 324.596,369.791 324.263,368.791 324.5,367.5 Z"/></g>
<g><path style="opacity:1" fill="#fcc055" d="M 343.5,370.5 C 342.797,372.716 341.464,374.549 339.5,376C 332.937,378.883 328.271,377.049 325.5,370.5C 328.087,369.184 331.087,368.517 334.5,368.5C 337.913,368.517 340.913,369.184 343.5,370.5 Z"/></g>
<g><path style="opacity:1" fill="#f6bc55" d="M 409.5,367.5 C 413.5,367.5 417.5,367.5 421.5,367.5C 424.951,370.41 426.118,374.077 425,378.5C 421.206,385.92 415.706,387.42 408.5,383C 404.284,377.487 404.617,372.32 409.5,367.5 Z"/></g>
<g><path style="opacity:1" fill="#f7bc53" d="M 482.5,367.5 C 486.5,367.5 490.5,367.5 494.5,367.5C 494.5,368.167 494.833,368.5 495.5,368.5C 497.305,370.449 498.305,372.782 498.5,375.5C 497.458,383.862 492.792,387.029 484.5,385C 478.612,379.848 477.946,374.015 482.5,367.5 Z"/></g>
<g><path style="opacity:1" fill="#f6bc55" d="M 599.5,367.5 C 603.5,367.5 607.5,367.5 611.5,367.5C 614.951,370.41 616.118,374.077 615,378.5C 611.206,385.92 605.706,387.42 598.5,383C 594.535,378.097 594.535,373.264 598.5,368.5C 599.167,368.5 599.5,368.167 599.5,367.5 Z"/></g>
<g><path style="opacity:1" fill="#273750" d="M 316.5,368.5 C 245.841,370.497 174.841,371.163 103.5,370.5C 103.829,383.344 103.495,396.011 102.5,408.5C 102.5,395.5 102.5,382.5 102.5,369.5C 173.904,369.83 245.238,369.497 316.5,368.5 Z"/></g>
<g><path style="opacity:1" fill="#1a1a1a" d="M 120.5,375.5 C 129.839,375.334 139.173,375.5 148.5,376C 151.167,378.667 151.167,381.333 148.5,384C 139.167,384.667 129.833,384.667 120.5,384C 117.899,381.17 117.899,378.337 120.5,375.5 Z"/></g>
<g><path style="opacity:1" fill="#fac058" d="M 716.5,382.5 C 727.392,383.039 731.058,388.372 727.5,398.5C 720.513,404.474 714.679,403.474 710,395.5C 708.973,389.554 711.14,385.221 716.5,382.5 Z"/></g>
<g><path style="opacity:1" fill="#1b1b1c" d="M 305.5,390.5 C 314.506,390.334 323.506,390.5 332.5,391C 336.5,394 336.5,397 332.5,400C 323.5,400.667 314.5,400.667 305.5,400C 302.888,396.836 302.888,393.669 305.5,390.5 Z"/></g>
<g><path style="opacity:0.905" fill="#1a1a1a" d="M 651.5,415.5 C 666.833,415.5 682.167,415.5 697.5,415.5C 697.5,416.833 697.5,418.167 697.5,419.5C 725.187,419.679 752.854,420.346 780.5,421.5C 745.013,423.025 709.346,423.692 673.5,423.5C 637.654,423.692 601.987,423.025 566.5,421.5C 594.812,420.314 623.146,419.647 651.5,419.5C 651.5,418.167 651.5,416.833 651.5,415.5 Z"/></g>
<g><path style="opacity:0.989" fill="#343434" d="M 566.5,421.5 C 601.987,423.025 637.654,423.692 673.5,423.5C 709.346,423.692 745.013,423.025 780.5,421.5C 783.86,420.79 785.693,422.124 786,425.5C 786.667,436.833 786.667,448.167 786,459.5C 785.338,462.417 783.505,463.75 780.5,463.5C 741.679,461.969 702.679,461.302 663.5,461.5C 635.833,461.667 608.167,461.833 580.5,462C 575.649,462.174 570.982,462.674 566.5,463.5C 563.944,463.868 561.944,463.034 560.5,461C 559.167,448.667 559.167,436.333 560.5,424C 560.645,423.228 560.978,422.561 561.5,422C 563.134,421.506 564.801,421.34 566.5,421.5 Z"/></g>
<g><path style="opacity:1" fill="#4a4a4a" d="M 604.5,426.5 C 605.931,426.881 606.764,427.881 607,429.5C 607.667,437.833 607.667,446.167 607,454.5C 606.581,455.672 605.915,456.672 605,457.5C 603.169,447.22 603.002,436.886 604.5,426.5 Z"/></g>
<g><path style="opacity:1" fill="#4a4a4a" d="M 614.5,426.5 C 615.79,427.058 616.623,428.058 617,429.5C 617.667,437.833 617.667,446.167 617,454.5C 616.581,455.672 615.915,456.672 615,457.5C 613.856,452.503 613.356,447.337 613.5,442C 613.524,436.754 613.857,431.588 614.5,426.5 Z"/></g>
<g><path style="opacity:1" fill="#4a4a4a" d="M 624.5,426.5 C 625.117,426.611 625.617,426.944 626,427.5C 626.167,432.333 626.333,437.167 626.5,442C 626.644,447.337 626.144,452.503 625,457.5C 624.581,456.328 623.915,455.328 623,454.5C 622.333,446.167 622.333,437.833 623,429.5C 623.513,428.473 624.013,427.473 624.5,426.5 Z"/></g>
<g><path style="opacity:1" fill="#4b4b4b" d="M 634.5,426.5 C 635.222,426.918 635.722,427.584 636,428.5C 636.167,433 636.333,437.5 636.5,442C 636.616,447.275 636.116,452.442 635,457.5C 634.085,456.672 633.419,455.672 633,454.5C 632.333,446.167 632.333,437.833 633,429.5C 633.513,428.473 634.013,427.473 634.5,426.5 Z"/></g>
<g><path style="opacity:1" fill="#4b4b4b" d="M 673.5,426.5 C 674.79,427.058 675.623,428.058 676,429.5C 676.667,437.833 676.667,446.167 676,454.5C 675.581,455.672 674.915,456.672 674,457.5C 672.169,447.22 672.002,436.886 673.5,426.5 Z"/></g>
<g><path style="opacity:1" fill="#4a4a4a" d="M 683.5,426.5 C 684.79,427.058 685.623,428.058 686,429.5C 686.667,437.833 686.667,446.167 686,454.5C 685.085,455.328 684.419,456.328 684,457.5C 682.191,447.189 682.025,436.856 683.5,426.5 Z"/></g>
<g><path style="opacity:1" fill="#4a4a4a" d="M 693.5,426.5 C 694.117,426.611 694.617,426.944 695,427.5C 695.167,432.333 695.333,437.167 695.5,442C 695.644,447.337 695.144,452.503 694,457.5C 693.085,456.672 692.419,455.672 692,454.5C 691.333,446.167 691.333,437.833 692,429.5C 692.513,428.473 693.013,427.473 693.5,426.5 Z"/></g>
<g><path style="opacity:1" fill="#4a4a4a" d="M 702.5,426.5 C 703.75,426.577 704.583,427.244 705,428.5C 705.947,438.267 705.613,447.934 704,457.5C 703.085,456.672 702.419,455.672 702,454.5C 701.248,445.132 701.415,435.799 702.5,426.5 Z"/></g>
<g><path style="opacity:1" fill="#4a4a4a" d="M 762.5,426.5 C 763.79,427.058 764.623,428.058 765,429.5C 765.667,437.833 765.667,446.167 765,454.5C 764.581,455.672 763.915,456.672 763,457.5C 761.856,452.503 761.356,447.337 761.5,442C 761.524,436.754 761.857,431.588 762.5,426.5 Z"/></g>
<g><path style="opacity:1" fill="#4a4a4a" d="M 772.5,426.5 C 773.117,426.611 773.617,426.944 774,427.5C 774.167,432.333 774.333,437.167 774.5,442C 774.644,447.337 774.144,452.503 773,457.5C 772.085,456.672 771.419,455.672 771,454.5C 770.333,446.167 770.333,437.833 771,429.5C 771.513,428.473 772.013,427.473 772.5,426.5 Z"/></g>
<g><path style="opacity:1" fill="#4b4b4b" d="M 574.5,426.5 C 575.75,426.577 576.583,427.244 577,428.5C 577.667,437.5 577.667,446.5 577,455.5C 576,458.167 575,458.167 574,455.5C 573.218,445.786 573.385,436.12 574.5,426.5 Z"/></g>
<g><path style="opacity:1" fill="#4b4b4b" d="M 584.5,426.5 C 585.75,426.577 586.583,427.244 587,428.5C 587.667,437.5 587.667,446.5 587,455.5C 586,458.167 585,458.167 584,455.5C 583.218,445.786 583.385,436.12 584.5,426.5 Z"/></g>
<g><path style="opacity:1" fill="#4b4b4b" d="M 594.5,426.5 C 595.75,426.577 596.583,427.244 597,428.5C 597.667,437.167 597.667,445.833 597,454.5C 596.581,455.672 595.915,456.672 595,457.5C 593.191,447.189 593.025,436.856 594.5,426.5 Z"/></g>
<g><path style="opacity:1" fill="#4b4b4b" d="M 643.5,426.5 C 644.75,426.577 645.583,427.244 646,428.5C 646.667,437.5 646.667,446.5 646,455.5C 645,458.167 644,458.167 643,455.5C 642.218,445.786 642.385,436.12 643.5,426.5 Z"/></g>
<g><path style="opacity:1" fill="#4c4c4c" d="M 653.5,426.5 C 654.75,426.577 655.583,427.244 656,428.5C 656.667,437.5 656.667,446.5 656,455.5C 655,458.167 654,458.167 653,455.5C 652.218,445.786 652.385,436.12 653.5,426.5 Z"/></g>
<g><path style="opacity:1" fill="#4b4b4b" d="M 663.5,426.5 C 664.75,426.577 665.583,427.244 666,428.5C 666.667,437.5 666.667,446.5 666,455.5C 665,458.167 664,458.167 663,455.5C 662.218,445.786 662.385,436.12 663.5,426.5 Z"/></g>
<g><path style="opacity:1" fill="#4b4b4b" d="M 712.5,426.5 C 713.496,426.414 714.329,426.748 715,427.5C 715.949,437.6 715.615,447.6 714,457.5C 713.085,456.672 712.419,455.672 712,454.5C 711.248,445.132 711.415,435.799 712.5,426.5 Z"/></g>
<g><path style="opacity:1" fill="#4b4b4b" d="M 722.5,426.5 C 723.75,426.577 724.583,427.244 725,428.5C 725.667,437.5 725.667,446.5 725,455.5C 724,458.167 723,458.167 722,455.5C 721.218,445.786 721.385,436.12 722.5,426.5 Z"/></g>
<g><path style="opacity:1" fill="#4b4b4b" d="M 732.5,426.5 C 733.75,426.577 734.583,427.244 735,428.5C 735.667,437.5 735.667,446.5 735,455.5C 734,458.167 733,458.167 732,455.5C 731.218,445.786 731.385,436.12 732.5,426.5 Z"/></g>
<g><path style="opacity:1" fill="#4b4b4b" d="M 742.5,426.5 C 743.75,426.577 744.583,427.244 745,428.5C 745.667,437.167 745.667,445.833 745,454.5C 744.581,455.672 743.915,456.672 743,457.5C 741.193,447.194 741.027,436.861 742.5,426.5 Z"/></g>
<g><path style="opacity:0.84" fill="#4c4c4c" d="M 780.5,463.5 C 759.669,463.991 739.003,464.658 718.5,465.5C 688.5,465.5 658.5,465.5 628.5,465.5C 607.997,464.658 587.331,463.991 566.5,463.5C 570.982,462.674 575.649,462.174 580.5,462C 608.167,461.833 635.833,461.667 663.5,461.5C 702.679,461.302 741.679,461.969 780.5,463.5 Z"/></g>
</svg>
