<svg xmlns="http://www.w3.org/2000/svg" xmlns:xlink="http://www.w3.org/1999/xlink" viewBox="0 0 224.66 111.5"><defs><style>.cls-1,.cls-10{fill:none;}.cls-2{fill:#ccc;}.cls-3{fill:#1a1a1a;}.cls-4{fill:#333;}.cls-5{fill:#4d4d4d;}.cls-6{clip-path:url(#clip-path);}.cls-7{clip-path:url(#clip-path-2);}.cls-8{fill:#71a8f6;}.cls-9{fill:#ffc152;}.cls-10{stroke:#fff;stroke-miterlimit:10;}.cls-11{fill:#f2f2f2;}.cls-12{fill:#8db9f8;}.cls-13{fill:#e6e6e6;}</style><clipPath id="clip-path"><rect class="cls-1" x="135.29" y="102.19" width="52.37" height="7.87"/></clipPath><clipPath id="clip-path-2"><rect class="cls-1" x="135.29" y="1.44" width="52.37" height="7.87"/></clipPath></defs><g id="Calque_2" data-name="Calque 2"><g id="Calque_1-2" data-name="Calque 1"><g id="rover"><g id="yeux"><rect class="cls-2" x="214.66" y="60.73" width="10" height="12.16"/><rect class="cls-2" x="214.66" y="38.57" width="10" height="12.16"/></g><g id="roues"><rect class="cls-3" x="156.38" y="5.38" width="10.86" height="102.03"/><rect class="cls-4" x="134.47" y="101.18" width="54" height="9.9" rx="1"/><path class="cls-5" d="M135.8,111.08c4.29-.18,8.58-.26,12.87-.33s8.58-.06,12.87-.1,8.58,0,12.86.1,8.58.15,12.87.33c-4.29.17-8.58.25-12.87.32s-8.57.07-12.86.1-8.58,0-12.87-.1S140.09,111.25,135.8,111.08Z"/><path class="cls-3" d="M135.8,101.18c4.29-.18,8.58-.26,12.87-.33s8.58-.06,12.87-.1,8.58,0,12.86.1,8.58.15,12.87.33c-4.29.17-8.58.25-12.87.32s-8.57.07-12.86.1-8.58,0-12.87-.1S140.09,101.35,135.8,101.18Z"/><g class="cls-6"><path class="cls-5" d="M135.72,109.82a8,8,0,0,1-.43-.95v-5.73c.15-.31.26-.63.43-1,.17.32.28.64.42,1v5.73A8,8,0,0,1,135.72,109.82Z"/><path class="cls-5" d="M138.09,109.82a6.64,6.64,0,0,1-.43-.95v-5.73c.15-.31.25-.63.43-1,.17.32.28.64.42,1v5.73A10,10,0,0,1,138.09,109.82Z"/><path class="cls-5" d="M140.46,109.82a6.64,6.64,0,0,1-.43-.95v-5.73c.14-.31.25-.63.43-1,.17.32.28.64.42,1v5.73A7.87,7.87,0,0,1,140.46,109.82Z"/><path class="cls-5" d="M142.82,109.82a7.87,7.87,0,0,1-.42-.95v-5.73c.14-.31.25-.63.42-1,.18.32.29.64.43,1v5.73A6.64,6.64,0,0,1,142.82,109.82Z"/><path class="cls-5" d="M145.19,109.82a10,10,0,0,1-.43-.95v-5.73c.14-.31.25-.63.42-1,.17.32.28.64.43,1v5.73A6.64,6.64,0,0,1,145.19,109.82Z"/><path class="cls-5" d="M147.56,109.82a8,8,0,0,1-.43-.95v-5.73c.14-.31.25-.63.42-1,.17.32.28.64.43,1v5.73A8,8,0,0,1,147.56,109.82Z"/><path class="cls-5" d="M149.93,109.82a8,8,0,0,1-.43-.95v-5.73c.15-.31.26-.63.43-1,.17.32.28.64.42,1v5.73A8,8,0,0,1,149.93,109.82Z"/><path class="cls-5" d="M152.3,109.82a6.64,6.64,0,0,1-.43-.95v-5.73c.15-.31.26-.63.43-1,.17.32.28.64.42,1v5.73A10,10,0,0,1,152.3,109.82Z"/><path class="cls-5" d="M154.67,109.82a6.64,6.64,0,0,1-.43-.95v-5.73c.14-.31.25-.63.43-1,.17.32.28.64.42,1v5.73A7.87,7.87,0,0,1,154.67,109.82Z"/><path class="cls-5" d="M157,109.82a7.87,7.87,0,0,1-.42-.95v-5.73c.14-.31.25-.63.42-1,.18.32.29.64.43,1v5.73A6.64,6.64,0,0,1,157,109.82Z"/><path class="cls-5" d="M159.4,109.82a10,10,0,0,1-.43-.95v-5.73c.14-.31.25-.63.42-1,.18.32.29.64.43,1v5.73A6.64,6.64,0,0,1,159.4,109.82Z"/><path class="cls-5" d="M161.77,109.82a8,8,0,0,1-.43-.95v-5.73c.14-.31.25-.63.42-1,.17.32.28.64.43,1v5.73A6.64,6.64,0,0,1,161.77,109.82Z"/><path class="cls-5" d="M164.14,109.82a8,8,0,0,1-.43-.95v-5.73c.15-.31.26-.63.43-1,.17.32.28.64.43,1v5.73A8,8,0,0,1,164.14,109.82Z"/><path class="cls-5" d="M166.51,109.82a6.64,6.64,0,0,1-.43-.95v-5.73c.15-.31.26-.63.43-1,.17.32.28.64.42,1v5.73A8,8,0,0,1,166.51,109.82Z"/><path class="cls-5" d="M168.88,109.82a6.64,6.64,0,0,1-.43-.95v-5.73c.15-.31.25-.63.43-1,.17.32.28.64.42,1v5.73A10,10,0,0,1,168.88,109.82Z"/><path class="cls-5" d="M171.25,109.82a6.64,6.64,0,0,1-.43-.95v-5.73c.14-.31.25-.63.43-1,.17.32.28.64.42,1v5.73A7.87,7.87,0,0,1,171.25,109.82Z"/><path class="cls-5" d="M173.61,109.82a7.87,7.87,0,0,1-.42-.95v-5.73c.14-.31.25-.63.42-1,.18.32.29.64.43,1v5.73A6.64,6.64,0,0,1,173.61,109.82Z"/><path class="cls-5" d="M176,109.82a10,10,0,0,1-.43-.95v-5.73c.14-.31.25-.63.42-1,.17.32.28.64.43,1v5.73A6.64,6.64,0,0,1,176,109.82Z"/><path class="cls-5" d="M178.35,109.82a8,8,0,0,1-.43-.95v-5.73c.14-.31.25-.63.42-1,.17.32.28.64.43,1v5.73A8,8,0,0,1,178.35,109.82Z"/><path class="cls-5" d="M180.72,109.82a8,8,0,0,1-.43-.95v-5.73c.15-.31.26-.63.43-1,.17.32.28.64.42,1v5.73A8,8,0,0,1,180.72,109.82Z"/><path class="cls-5" d="M183.09,109.82a6.64,6.64,0,0,1-.43-.95v-5.73c.15-.31.26-.63.43-1,.17.32.28.64.42,1v5.73A10,10,0,0,1,183.09,109.82Z"/><path class="cls-5" d="M185.46,109.82a6.64,6.64,0,0,1-.43-.95v-5.73c.14-.31.25-.63.43-1,.17.32.28.64.42,1v5.73A7.87,7.87,0,0,1,185.46,109.82Z"/><path class="cls-5" d="M187.82,109.82a7.87,7.87,0,0,1-.42-.95v-5.73c.14-.31.25-.63.42-1,.18.32.29.64.43,1v5.73A6.64,6.64,0,0,1,187.82,109.82Z"/></g><rect class="cls-4" x="134.47" y="0.42" width="54" height="9.9" rx="1"/><path class="cls-5" d="M135.8,10.33c4.29-.18,8.58-.26,12.87-.33s8.58-.06,12.87-.1,8.58,0,12.86.1,8.58.15,12.87.33c-4.29.17-8.58.25-12.87.32s-8.57.07-12.86.1-8.58,0-12.87-.1S140.09,10.5,135.8,10.33Z"/><path class="cls-3" d="M135.8.42c4.29-.17,8.58-.25,12.87-.32S157.25,0,161.54,0s8.58,0,12.86.1,8.58.15,12.87.32C183,.6,178.69.68,174.4.75s-8.57.07-12.86.1-8.58,0-12.87-.1S140.09.6,135.8.42Z"/><g class="cls-7"><path class="cls-5" d="M135.72,9.07a8,8,0,0,1-.43-1V2.39c.15-.31.26-.63.43-1,.17.32.28.64.42,1V8.12A8,8,0,0,1,135.72,9.07Z"/><path class="cls-5" d="M138.09,9.07a6.64,6.64,0,0,1-.43-1V2.39c.15-.31.25-.63.43-1,.17.32.28.64.42,1V8.12A10,10,0,0,1,138.09,9.07Z"/><path class="cls-5" d="M140.46,9.07a6.64,6.64,0,0,1-.43-1V2.39c.14-.31.25-.63.43-1,.17.32.28.64.42,1V8.12A7.87,7.87,0,0,1,140.46,9.07Z"/><path class="cls-5" d="M142.82,9.07a7.87,7.87,0,0,1-.42-1V2.39c.14-.31.25-.63.42-1,.18.32.29.64.43,1V8.12A6.64,6.64,0,0,1,142.82,9.07Z"/><path class="cls-5" d="M145.19,9.07a10,10,0,0,1-.43-1V2.39c.14-.31.25-.63.42-1,.17.32.28.64.43,1V8.12A6.64,6.64,0,0,1,145.19,9.07Z"/><path class="cls-5" d="M147.56,9.07a8,8,0,0,1-.43-1V2.39c.14-.31.25-.63.42-1,.17.32.28.64.43,1V8.12A8,8,0,0,1,147.56,9.07Z"/><path class="cls-5" d="M149.93,9.07a8,8,0,0,1-.43-1V2.39c.15-.31.26-.63.43-1,.17.32.28.64.42,1V8.12A8,8,0,0,1,149.93,9.07Z"/><path class="cls-5" d="M152.3,9.07a6.64,6.64,0,0,1-.43-1V2.39c.15-.31.26-.63.43-1,.17.32.28.64.42,1V8.12A10,10,0,0,1,152.3,9.07Z"/><path class="cls-5" d="M154.67,9.07a6.64,6.64,0,0,1-.43-1V2.39c.14-.31.25-.63.43-1,.17.32.28.64.42,1V8.12A7.87,7.87,0,0,1,154.67,9.07Z"/><path class="cls-5" d="M157,9.07a7.87,7.87,0,0,1-.42-1V2.39c.14-.31.25-.63.42-1,.18.32.29.64.43,1V8.12A6.64,6.64,0,0,1,157,9.07Z"/><path class="cls-5" d="M159.4,9.07a10,10,0,0,1-.43-1V2.39c.14-.31.25-.63.42-1,.18.32.29.64.43,1V8.12A6.64,6.64,0,0,1,159.4,9.07Z"/><path class="cls-5" d="M161.77,9.07a8,8,0,0,1-.43-1V2.39c.14-.31.25-.63.42-1,.17.32.28.64.43,1V8.12A6.64,6.64,0,0,1,161.77,9.07Z"/><path class="cls-5" d="M164.14,9.07a8,8,0,0,1-.43-1V2.39c.15-.31.26-.63.43-1,.17.32.28.64.43,1V8.12A8,8,0,0,1,164.14,9.07Z"/><path class="cls-5" d="M166.51,9.07a6.64,6.64,0,0,1-.43-1V2.39c.15-.31.26-.63.43-1,.17.32.28.64.42,1V8.12A8,8,0,0,1,166.51,9.07Z"/><path class="cls-5" d="M168.88,9.07a6.64,6.64,0,0,1-.43-1V2.39c.15-.31.25-.63.43-1,.17.32.28.64.42,1V8.12A10,10,0,0,1,168.88,9.07Z"/><path class="cls-5" d="M171.25,9.07a6.64,6.64,0,0,1-.43-1V2.39c.14-.31.25-.63.43-1,.17.32.28.64.42,1V8.12A7.87,7.87,0,0,1,171.25,9.07Z"/><path class="cls-5" d="M173.61,9.07a7.87,7.87,0,0,1-.42-1V2.39c.14-.31.25-.63.42-1,.18.32.29.64.43,1V8.12A6.64,6.64,0,0,1,173.61,9.07Z"/><path class="cls-5" d="M176,9.07a10,10,0,0,1-.43-1V2.39c.14-.31.25-.63.42-1,.17.32.28.64.43,1V8.12A6.64,6.64,0,0,1,176,9.07Z"/><path class="cls-5" d="M178.35,9.07a8,8,0,0,1-.43-1V2.39c.14-.31.25-.63.42-1,.17.32.28.64.43,1V8.12A8,8,0,0,1,178.35,9.07Z"/><path class="cls-5" d="M180.72,9.07a8,8,0,0,1-.43-1V2.39c.15-.31.26-.63.43-1,.17.32.28.64.42,1V8.12A8,8,0,0,1,180.72,9.07Z"/><path class="cls-5" d="M183.09,9.07a6.64,6.64,0,0,1-.43-1V2.39c.15-.31.26-.63.43-1,.17.32.28.64.42,1V8.12A10,10,0,0,1,183.09,9.07Z"/><path class="cls-5" d="M185.46,9.07a6.64,6.64,0,0,1-.43-1V2.39c.14-.31.25-.63.43-1,.17.32.28.64.42,1V8.12A7.87,7.87,0,0,1,185.46,9.07Z"/><path class="cls-5" d="M187.82,9.07a7.87,7.87,0,0,1-.42-1V2.39c.14-.31.25-.63.42-1,.18.32.29.64.43,1V8.12A6.64,6.64,0,0,1,187.82,9.07Z"/></g></g><path id="corps" class="cls-8" d="M214.66,99.61H10.38A9.84,9.84,0,0,1,.54,89.77V83.89l2-3.27-2-3.27v-44l2-3.28-2-3.27v-5.1a9.83,9.83,0,0,1,9.84-9.83H213.66a1,1,0,0,1,1,1h0a1,1,0,0,1-1,1h-.92a1,1,0,0,0-1,1v8.1a1,1,0,0,0,1,1l10.92,0a1,1,0,0,1,1,1v.18a1,1,0,0,1-1,1l-8,0a1,1,0,0,0-1,1v58.5a1,1,0,0,0,1,1l8,0a1,1,0,0,1,1,1v0a1,1,0,0,1-1,1H212.74a1,1,0,0,0-1,1v8a1,1,0,0,0,1,1h1.92Z"/><g id="renfoncements"><rect class="cls-3" y="26.84" width="7.95" height="6.54" rx="2"/><rect class="cls-3" y="77.35" width="7.95" height="6.54" rx="2"/><rect class="cls-3" x="28.38" y="17.57" width="7.73" height="2.3" rx="1.15"/><rect class="cls-3" x="72.73" y="13.85" width="7.73" height="2.3" rx="1.15"/><rect class="cls-3" x="28.38" y="22.62" width="7.73" height="2.3" rx="1.15"/><rect class="cls-3" x="28.38" y="90" width="7.73" height="2.3" rx="1.15"/><rect class="cls-3" x="72.73" y="93.72" width="7.73" height="2.3" rx="1.15"/><rect class="cls-3" x="28.38" y="84.95" width="7.73" height="2.3" rx="1.15"/><rect class="cls-3" x="170.62" y="44.65" width="2.7" height="17.89" rx="1.35"/><rect class="cls-3" x="177.91" y="44.65" width="2.7" height="17.89" rx="1.35"/></g><g id="vises"><circle class="cls-9" cx="11.21" cy="20.62" r="2.31"/><circle class="cls-9" cx="11.21" cy="90.17" r="2.31"/><circle class="cls-9" cx="145.28" cy="20.62" r="2.31"/><circle class="cls-9" cx="145.28" cy="90.17" r="2.31"/><circle class="cls-9" cx="117.24" cy="20.62" r="2.31"/><circle class="cls-9" cx="117.24" cy="90.17" r="2.31"/><circle class="cls-9" cx="99.67" cy="20.62" r="2.31"/><circle class="cls-9" cx="99.67" cy="90.17" r="2.31"/><circle class="cls-9" cx="80.26" cy="22.62" r="2.31"/><circle class="cls-9" cx="80.26" cy="88.17" r="2.31"/><circle class="cls-9" cx="172.66" cy="18.62" r="2.31"/><circle class="cls-9" cx="172.66" cy="94.17" r="2.31"/></g><g id="on_off" data-name="on/off"><rect class="cls-3" x="182.83" y="78.86" width="13.75" height="17.13" rx="2"/><rect class="cls-3" x="185.73" y="81.95" width="8.24" height="9.87" rx="1"/><path d="M193,91.82c-1.43,0-2.87,0-4.31.07-.73,0-1.4.09-2.19.06a1.18,1.18,0,0,1-.89-.82,2.67,2.67,0,0,1-.07-.58l0-.54-.18-4.31-.05-2.16V83a1.5,1.5,0,0,1,1.49-1.54c1.44,0,2.87,0,4.31.06l1.08,0,.54,0a2.44,2.44,0,0,1,.61.06,1.29,1.29,0,0,1,1,1.31v.27l0,.54L194,88.08,194,90.24a2.25,2.25,0,0,1-.13,1.06A1,1,0,0,1,193,91.82Zm0,0a1,1,0,0,0,.88-.53,2.47,2.47,0,0,0,.11-1.05l-.06-2.16-.18-4.31,0-.54V83a1.06,1.06,0,0,0,0-.19.68.68,0,0,0-.53-.45,3.29,3.29,0,0,0-.45,0l-.54,0-1.08,0c-1.44,0-2.87.06-4.31.06a.51.51,0,0,0-.45.27.55.55,0,0,0-.07.28v.54l-.05,2.16L186,90l0,.54a2.44,2.44,0,0,0,0,.48.82.82,0,0,0,.58.61c.64.08,1.41.09,2.11.11C190.09,91.8,191.53,91.82,193,91.82Z"/><line class="cls-10" x1="189.85" y1="83.26" x2="189.85" y2="85.15"/><rect class="cls-10" x="188.47" y="87.42" width="2.75" height="2.75" rx="1.37"/></g><rect class="cls-3" x="182.83" y="37.3" width="26.05" height="33.75" rx="6"/><ellipse cx="203.75" cy="54.17" rx="3.35" ry="5.3"/><ellipse class="cls-11" cx="186.47" cy="54.17" rx="2.44" ry="4.48"/><rect class="cls-11" x="186.47" y="49.7" width="5.24" height="8.95"/><ellipse class="cls-9" cx="197.63" cy="41.58" rx="1.16" ry="2.31"/><ellipse class="cls-9" cx="197.63" cy="66.81" rx="1.16" ry="2.31"/><path d="M203.75,47.79c-1.42.16-2.84.25-4.26.31s-2.85.1-4.27.11h-.42v-.42a83.55,83.55,0,0,1,.42-9.22,81.18,81.18,0,0,1,.43,9.22l-.43-.43c1.42,0,2.85,0,4.27.11S202.33,47.62,203.75,47.79Z"/><path d="M203.75,60.56c-1.42.17-2.84.25-4.26.32s-2.85.09-4.27.11l.43-.43a81.18,81.18,0,0,1-.43,9.22,83.55,83.55,0,0,1-.42-9.22v-.42h.42c1.42,0,2.85,0,4.27.11S202.33,60.4,203.75,60.56Z"/><rect class="cls-12" x="173.32" y="44.65" width="4.6" height="17.89"/><path class="cls-3" d="M204.1,18.92l-12.39-2-12.39,2a4,4,0,0,0-4,4v4.37a4,4,0,0,0,4,4l12.39,2,12.39-2a4,4,0,0,0,4-4V22.92A4,4,0,0,0,204.1,18.92Z"/><path class="cls-4" d="M204.1,18.92,191.69,17h0l-12.36,2.22h-.05A3.66,3.66,0,0,0,175.74,23l0,2.12v2.11a3.64,3.64,0,0,0,.47,1.8,3.55,3.55,0,0,0,3.08,1.77h.08l12.37,2.1h-.12l12.43-1.78h0a3.88,3.88,0,0,0,3.39-1.91c.76-1.2.48-2.7.55-4.09s.25-2.88-.49-4.13A4,4,0,0,0,204.1,18.92Zm0,0A4.05,4.05,0,0,1,208.15,23v2.12l0,2.11a4.32,4.32,0,0,1-.5,2.08,4.18,4.18,0,0,1-3.57,2.17h0l-12.36,2.22h-.12l-12.41-1.91h.08a4.52,4.52,0,0,1-3.9-2.31,4.59,4.59,0,0,1-.56-2.26V25.11l0-2.12a4.33,4.33,0,0,1,.6-2.22,4.4,4.4,0,0,1,3.83-2.17h-.06l12.43-1.78h0Z"/><rect class="cls-3" x="14.8" y="11.13" width="9.85" height="18.99" rx="2"/><circle class="cls-13" cx="19.72" cy="20.62" r="2.65"/><rect class="cls-3" x="14.8" y="80.62" width="9.85" height="18.99" rx="2"/><circle class="cls-13" cx="19.72" cy="90.11" r="2.65"/><rect class="cls-3" x="129.55" y="11.13" width="9.85" height="18.99" rx="2"/><circle class="cls-13" cx="134.47" cy="20.62" r="2.65"/><rect class="cls-3" x="129.55" y="80.62" width="9.85" height="18.99" rx="2"/><circle class="cls-13" cx="134.47" cy="90.11" r="2.65"/></g></g></g></svg>