<?xml version="1.0" encoding="UTF-8"?><svg id="Calque_2" xmlns="http://www.w3.org/2000/svg" viewBox="0 0 301.07 310.97"><defs><style>.cls-1{fill:#fff;}.cls-2{fill:#333;}.cls-3{fill:#ccc;}.cls-4{letter-spacing:-.03em;}.cls-5{font-family:BalooBhaijaan-Regular, 'Baloo Bhaijaan';font-size:9px;stroke:#fff;stroke-miterlimit:10;stroke-width:.71px;}</style></defs><g id="Calque_1-2"><g id="Tello_vole"><path class="cls-1" d="M226.88,61.8c6.27,0,11.37,5.1,11.37,11.37,0,5.42-3.81,9.96-8.9,11.09,.02,.03,.03,.05,.02,.06l-20.28,39.01,2.44,.1,4.28,4.44,3.02,2.79s.11,.04,.15,.06c1.67,1,3.19,6.61,4.05,15.12l.26,.88,1.08,1.12c.9,.93,1.42,2.15,1.47,3.44v9.53c-.05,1.29-.58,2.51-1.47,3.44l-1.08,1.12h0c-.86,7.6-2.86,13.4-4.08,15.29h.45s-3.83,3.55-3.83,3.55l-4.28,4.44-2.45,.1,20.08,38.64s-.04,.1-.22,.26c5.11,1.11,8.95,5.66,8.95,11.1,0,6.27-5.1,11.37-11.37,11.37s-11.37-5.1-11.37-11.37c0-.76,.08-1.49,.22-2.21l-48.06-47.46-32.96-.28-49.08,48.48s0,.02-.03,.02c-.07,0-.25-.09-.52-.24,.17,.79,.27,1.6,.27,2.44,0,6.27-5.1,11.37-11.37,11.37s-11.37-5.1-11.37-11.37c0-5.68,4.19-10.38,9.63-11.22-.21-.18-.31-.28-.26-.29l22.28-42.87c-.02-2.86-.56-7.61-.56-7.61v-42.92s.41-3.65,.53-6.48l-22.44-43.18c-5.26-.99-9.25-5.62-9.25-11.16,0-6.27,5.1-11.37,11.37-11.37s11.37,5.1,11.37,11.37c0,.67-.07,1.31-.18,1.95,.15-.08,.26-.12,.31-.12,.02,0,.03,0,.03,.02l48.28,47.69,33.78-.29,48.54-47.95c-.1-.62-.17-1.25-.17-1.89,0-6.27,5.1-11.37,11.37-11.37m-51.19,58.72l2.09-.79,24.73,.75,2.24,1.96,19.81-38.11c-1.8-.38-3.44-1.2-4.81-2.32-.04-.03-.08-.06-.12-.09-.12-.1-.24-.22-.36-.33-.18-.16-.35-.32-.52-.49,0,0,0,0,0,0-.52-.53-.98-1.11-1.39-1.73l-41.67,41.16m-77.64,4.52s.07,0,.1,0c1.09-.08,4.77-1.31,5.62-1.36,.05,0,.17,0,.36,0,.64,0,2.02,.01,3.79,.01,6.08,0,16.68-.16,16.85-1.56,.05-.43,.06-.87,.05-1.29l-41.4-40.89c-1.61,2.5-4.18,4.34-7.19,4.98l20.78,39.98c.41,.08,.78,.14,1.04,.14m-14.43,107.88l41.12-40.61c.08-.71,.13-1.55,.03-2.37-.17-1.41-10.77-1.56-16.86-1.56-1.76,0-3.15,.01-3.79,.01-.19,0-.31,0-.36,0-.85-.05-4.53-1.27-5.62-1.36-.03,0-.06,0-.09,0-.11,0-.23,.01-.37,.03l-21.26,40.9c3.01,.64,5.58,2.47,7.19,4.97m94.15-40.59l-1.8-.68,41.17,40.67c.2-.29,.41-.57,.63-.84,1.62-2.06,3.92-3.55,6.58-4.12l-19.61-37.73-2.24,1.95-24.73,.75M226.88,56.13c-9.29,0-16.87,7.47-17.03,16.72l-45.05,44.5-29.12,.25-45.09-44.53c-.36-9.08-7.86-16.35-17.02-16.35s-17.04,7.64-17.04,17.03c0,7.17,4.49,13.46,11.01,15.93l20.61,39.65c-.15,2.26-.41,4.58-.42,4.61-.02,.21-.04,.42-.04,.63v42.92c0,.21,.01,.42,.04,.63,.11,1,.37,3.6,.48,5.67l-20.69,39.8c-6.42,2.5-10.92,8.79-10.92,15.88,0,9.39,7.64,17.03,17.04,17.03s16.8-7.41,17.03-16.61l46.01-45.44,28.3,.24,44.52,43.97v.06c0,9.39,7.64,17.03,17.04,17.03s17.04-7.64,17.04-17.03c0-6.81-4.14-12.92-10.21-15.6l-16.54-31.81,2.97-3.07,3.71-3.43c1.06-.98,1.69-2.31,1.8-3.69,1.42-3.33,2.65-8.14,3.37-13.19,1.73-1.9,2.73-4.34,2.83-6.91,0-.08,0-.15,0-.23v-9.53c0-.08,0-.15,0-.23-.11-2.64-1.16-5.14-2.97-7.06-1.42-12.79-3.96-16.37-6.34-17.94l-2.42-2.23-2.96-3.07,16.55-31.83c6.25-2.6,10.55-8.82,10.55-15.74,0-9.39-7.64-17.03-17.04-17.03h0Zm-36.95,58.3l25.9-25.58-13.49,25.95-12.4-.38h0Zm-89.74,4.27l-15.21-29.26,28.87,28.52c-1.64,.04-3.6,.07-5.92,.07-1.09,0-2.03,0-2.74,0-.44,0-.8,0-1.05,0-.34,0-.57,0-.67,.01-.88,.05-1.78,.27-3.27,.68h0Zm-15.01,104.72l15.55-29.91c1.18,.32,1.96,.49,2.73,.53,.1,0,.33,.01,.68,.01,.25,0,.61,0,1.05,0,.71,0,1.65,0,2.74,0,2.81,0,5.08,.04,6.91,.09l-29.65,29.29h0Zm104.93-25.79l12.23-.37,13.3,25.58-25.52-25.21h0Z"/><g><g><rect x="192.83" y="101.96" width="47.31" height="4.25" transform="translate(24.36 248.27) rotate(-62.57)"/><rect x="155.13" y="99.63" width="72.62" height="4.25" transform="translate(-16.22 164.03) rotate(-44.69)"/><path d="M215.36,73.17c0-6.27,5.1-11.37,11.37-11.37s11.37,5.1,11.37,11.37-5.1,11.37-11.37,11.37-11.37-5.1-11.37-11.37Zm19.9,0c0-4.7-3.83-8.53-8.53-8.53s-8.53,3.83-8.53,8.53,3.83,8.53,8.53,8.53,8.53-3.83,8.53-8.53Z"/><path d="M222.23,73.17c0-2.48,2.02-4.5,4.5-4.5s4.5,2.02,4.5,4.5-2.02,4.5-4.5,4.5-4.5-2.02-4.5-4.5Zm7.99,0c0-1.93-1.57-3.5-3.5-3.5s-3.5,1.57-3.5,3.5,1.57,3.5,3.5,3.5,3.5-1.57,3.5-3.5Z"/><path d="M225.57,73.17c0-.64,.52-1.15,1.15-1.15s1.15,.52,1.15,1.15-.52,1.15-1.15,1.15-1.15-.52-1.15-1.15Zm1.31,0c0-.08-.07-.15-.15-.15-.17,0-.17,.31,0,.31,.08,0,.15-.07,.15-.15Z"/></g><g><rect x="214.16" y="184.16" width="4.25" height="47.31" transform="translate(-71.43 123.03) rotate(-27.44)"/><rect x="189.11" y="173.84" width="4.25" height="72.62" transform="translate(-92.65 198.35) rotate(-45.32)"/><path d="M215.16,238.73c0-6.27,5.1-11.37,11.37-11.37s11.37,5.1,11.37,11.37-5.1,11.37-11.37,11.37-11.37-5.1-11.37-11.37Zm19.9,0c0-4.7-3.83-8.53-8.53-8.53s-8.53,3.83-8.53,8.53,3.83,8.53,8.53,8.53,8.53-3.83,8.53-8.53Z"/><path d="M222.03,238.73c0-2.48,2.02-4.5,4.5-4.5s4.5,2.02,4.5,4.5-2.02,4.5-4.5,4.5-4.5-2.02-4.5-4.5Zm7.99,0c0-1.93-1.57-3.5-3.5-3.5s-3.5,1.57-3.5,3.5,1.57,3.5,3.5,3.5,3.5-1.57,3.5-3.5Z"/><path d="M225.37,238.73c0-.64,.52-1.15,1.15-1.15s1.15,.52,1.15,1.15-.52,1.15-1.15,1.15-1.15-.52-1.15-1.15Zm1.31,0c0-.08-.07-.15-.15-.15-.17,0-.17,.31,0,.31,.08,0,.15-.07,.15-.15Z"/></g><g><rect x="82.19" y="80.9" width="4.25" height="49.54" transform="translate(-39.2 50.74) rotate(-27.44)"/><rect x="106.72" y="66.03" width="4.25" height="72.62" transform="translate(-40.46 107.76) rotate(-45.32)"/><path d="M62.2,73.76c0-6.27,5.1-11.37,11.37-11.37s11.37,5.1,11.37,11.37-5.1,11.37-11.37,11.37-11.37-5.1-11.37-11.37Zm19.9,0c0-4.7-3.83-8.53-8.53-8.53s-8.53,3.83-8.53,8.53,3.83,8.53,8.53,8.53,8.53-3.83,8.53-8.53Z"/><path d="M69.06,73.76c0-2.48,2.02-4.5,4.5-4.5s4.5,2.02,4.5,4.5-2.02,4.5-4.5,4.5-4.5-2.02-4.5-4.5Zm7.99,0c0-1.93-1.57-3.5-3.5-3.5s-3.5,1.57-3.5,3.5,1.57,3.5,3.5,3.5,3.5-1.57,3.5-3.5Z"/><path d="M72.41,73.76c0-.64,.52-1.15,1.15-1.15s1.15,.52,1.15,1.15-.52,1.15-1.15,1.15-1.15-.52-1.15-1.15Zm1.31,0c0-.08-.07-.15-.15-.15-.17,0-.17,.31,0,.31,.08,0,.15-.07,.15-.15Z"/></g><g><rect x="59.61" y="205.06" width="50.06" height="4.25" transform="translate(-138.24 186.85) rotate(-62.57)"/><rect x="72.73" y="208.61" width="72.62" height="4.25" transform="translate(-116.68 137.59) rotate(-44.69)"/><path d="M62.39,239.32c0-6.27,5.1-11.37,11.37-11.37s11.37,5.1,11.37,11.37-5.1,11.37-11.37,11.37-11.37-5.1-11.37-11.37Zm19.9,0c0-4.7-3.83-8.53-8.53-8.53s-8.53,3.83-8.53,8.53,3.83,8.53,8.53,8.53,8.53-3.83,8.53-8.53Z"/><path d="M69.26,239.32c0-2.48,2.02-4.5,4.5-4.5s4.5,2.02,4.5,4.5-2.02,4.5-4.5,4.5-4.5-2.02-4.5-4.5Zm7.99,0c0-1.93-1.57-3.5-3.5-3.5s-3.5,1.57-3.5,3.5,1.57,3.5,3.5,3.5,3.5-1.57,3.5-3.5Z"/><path d="M72.61,239.32c0-.64,.52-1.15,1.15-1.15s1.15,.52,1.15,1.15-.52,1.15-1.15,1.15-1.15-.52-1.15-1.15Zm1.31,0c0-.08-.07-.15-.15-.15-.17,0-.17,.31,0,.31,.08,0,.15-.07,.15-.15Z"/></g></g><g><path d="M131.91,188.93l37.04,.32,8.59,3.26,24.75-.75,3.09-2.69,5.94-.25,7.11-7.38,4.65-15.95,1.08-1.12c.9-.93,1.42-2.16,1.47-3.45v-9.55c-.05-1.29-.58-2.52-1.47-3.45l-1.08-1.12-4.65-15.95-7.11-7.38-5.94-.25-3.09-2.69-24.75-.75-8.59,3.26-37.04,.32-7.75-5.24s.57,2.13,.33,4.06c-.24,1.94-20.17,1.51-21.02,1.56-.85,.05-4.53,1.28-5.62,1.36-1.09,.08-4.91-1.36-4.39,0,.52,1.36-.4,9.55-.4,9.55v43.01s.92,8.19,.4,9.55c-.52,1.36,3.31-.08,4.39,0,1.09,.08,4.77,1.31,5.62,1.36s20.78-.38,21.02,1.56c.24,1.94-.33,4.06-.33,4.06l7.75-5.24Z"/><path class="cls-3" d="M121.65,125.73s-15.63,.2-19.05,.72c-3.42,.52-7.42,1.73-7.42,1.73l11.86,6.2,112.4-2.92-6.9-6.38h-41.81l-2.54,2.21s-44.35,3.53-46.54-1.56Z"/><path class="cls-3" d="M121.65,186.55s-15.63-.2-19.05-.72c-3.42-.52-7.42-1.73-7.42-1.73l11.86-6.2,112.4,2.92-6.9,6.38h-41.81l-2.54-2.21s-44.35-3.53-46.54,1.56Z"/><path class="cls-1" d="M95.18,128.18l-.44,8.83,10.71,5.15v28.49l-10.71,4.29,.42,9.17s9.44-2.9,16.09-3.58,48.83,1.26,64.88,1.26,40.92,.34,42.3-.34c1.38-.69,5.4-11.61,5.04-24.89-.38-14.36-2.41-24.4-4.7-25.77-2.29-1.38-32.9-.23-44.02-.23s-57.89,1.38-64.2,1.03c-6.3-.34-15.38-3.39-15.38-3.39Z"/><path class="cls-2" d="M94.81,167.69v-1h1.67c.28,0,.5-.22,.5-.5v-20.05c0-.28-.22-.5-.5-.5h-1.67v-1h1.67c.83,0,1.5,.67,1.5,1.5v20.05c0,.83-.67,1.5-1.5,1.5h-1.67Z"/></g><path class="cls-2" d="M226.73,144.64c-27.28,.2-54.74-15.09-66.73-40.07C131.59,44.87,194.33-18.42,254.9,4.99c43.15,16.8,60.22,71.06,33.13,108.99-13.83,19.53-37.6,30.84-61.31,30.66h0Zm0-.57c37.95,.35,68.89-33.99,68.32-71.06,.47-48.32-50.23-83.11-95.26-65.03-41.24,16.42-53.65,67.1-30.52,103.42,12.09,19.56,34.16,32.95,57.45,32.68h0Z"/><path class="cls-2" d="M226.73,310.97c-27.28,.2-54.74-15.09-66.73-40.07-28.4-59.7,34.34-122.99,94.91-99.59,43.15,16.8,60.22,71.06,33.13,108.99-13.83,19.53-37.6,30.84-61.31,30.66h0Zm0-.57c37.95,.35,68.89-33.99,68.32-71.06,.47-48.32-50.23-83.11-95.26-65.03-41.24,16.42-53.65,67.1-30.52,103.42,12.09,19.56,34.16,32.95,57.45,32.68h0Z"/><path class="cls-2" d="M73.77,144.64c-27.28,.2-54.74-15.09-66.73-40.07C-21.36,44.87,41.38-18.42,101.95,4.99c43.15,16.8,60.22,71.06,33.13,108.99-13.83,19.53-37.6,30.84-61.31,30.66h0Zm0-.57c37.95,.35,68.89-33.99,68.32-71.06,.47-48.32-50.23-83.11-95.26-65.03C5.6,24.4-6.81,75.08,16.32,111.4c12.09,19.56,34.16,32.95,57.45,32.68h0Z"/><path class="cls-2" d="M73.77,310.97c-27.28,.2-54.74-15.09-66.73-40.07-28.4-59.7,34.34-122.99,94.91-99.59,43.15,16.8,60.22,71.06,33.13,108.99-13.83,19.53-37.6,30.84-61.31,30.66h0Zm0-.57c37.95,.35,68.89-33.99,68.32-71.06,.47-48.32-50.23-83.11-95.26-65.03C5.6,190.73-6.81,241.4,16.32,277.73c12.09,19.56,34.16,32.95,57.45,32.68h0Z"/><text class="cls-5" transform="translate(115.79 143.74) rotate(90)"><tspan x="0" y="0">TEL</tspan><tspan class="cls-4" x="14.55" y="0">L</tspan><tspan x="18.9" y="0">O</tspan></text></g></g></svg>