<svg width="281.23" height="271.65" xmlns="http://www.w3.org/2000/svg">

 <g>
  <title>Layer 1</title>
  <g transform="rotate(90.4034 140.592 135.825)" id="Calque_1-2">
   <g id="Tello">
    <g id="svg_1">
     <path fill="#333" d="m275.09,162.38l-2.32,-2.75c-0.71,-0.84 -1.97,-0.95 -2.81,-0.23c-3.16,2.69 -10.22,8.7 -11.46,9.7c-1.6,1.28 -24.52,15.89 -27.96,19.26c-3.31,3.24 -4.7,5.89 -6.08,12.49c-0.31,-0.03 -0.63,-0.05 -0.95,-0.05c-0.61,0 -1.2,0.06 -1.78,0.15l-48.48,-49.08l0.28,-32.96l47.61,-48.2c0.58,0.09 1.17,0.15 1.78,0.15c0.32,0 0.63,-0.02 0.95,-0.05c1.38,6.6 2.77,9.25 6.08,12.49c3.45,3.37 26.36,17.97 27.96,19.26c1.24,0.99 8.3,7.01 11.46,9.7c0.84,0.72 2.1,0.61 2.81,-0.23l2.32,-2.75c0.65,-0.77 0.63,-1.89 -0.05,-2.63c-2.96,-3.26 -10.63,-11.69 -12.66,-13.71c-2.53,-2.53 -15.16,-18.98 -22.02,-24.94c-2.19,-1.9 -4.26,-3.58 -6.07,-4.99c0.36,-1.1 0.55,-2.27 0.55,-3.49c0,-6.26 -5.09,-11.36 -11.34,-11.36c-0.33,0 -0.65,0.02 -0.98,0.05c-0.19,-1.02 -0.39,-2.08 -0.57,-3.09c-0.8,-4.41 -4.09,-8.1 -7.61,-11.23c-3.53,-3.13 -15.94,-10.83 -19.23,-12.68c-3.28,-1.85 -8.89,-6.58 -10.58,-7.94c-1.22,-0.99 -5.22,-4.81 -7.33,-6.83c-0.75,-0.72 -1.93,-0.74 -2.7,-0.05l-2.91,2.59c-0.82,0.73 -0.9,1.99 -0.17,2.81l0.45,0.51s13.54,14.44 14.82,16.13c1.28,1.68 16.75,19.42 18.75,21.5c1.39,1.45 4.73,3.87 7.38,5.78c-0.16,0.44 -0.29,0.89 -0.4,1.36l-38.64,20.08l-0.1,-2.45l-4.44,-4.28l-3.54,-3.83l0,0.45c-1.9,-1.22 -7.7,-3.22 -15.29,-4.08l-0.01,0s-1.12,-1.08 -1.12,-1.08c-0.93,-0.9 -2.15,-1.42 -3.44,-1.47l-9.53,0c-1.29,0.05 -2.51,0.58 -3.44,1.47l-1.12,1.08l-0.88,0.26c-8.51,0.85 -14.11,2.38 -15.12,4.05c-0.02,0.04 -0.04,0.1 -0.06,0.15l-2.79,3.02l-4.44,4.28l-0.1,2.44l-39.01,-20.28c-0.1,-0.47 -0.24,-0.92 -0.4,-1.36c2.66,-1.91 5.99,-4.33 7.38,-5.78c2,-2.09 17.47,-19.82 18.75,-21.5c1.28,-1.68 14.82,-16.13 14.82,-16.13l0.45,-0.51c0.73,-0.83 0.65,-2.08 -0.17,-2.81l-2.91,-2.59c-0.78,-0.69 -1.95,-0.67 -2.7,0.05c-2.11,2.02 -6.11,5.84 -7.33,6.83c-1.68,1.36 -7.29,6.1 -10.58,7.94c-3.28,1.85 -15.7,9.55 -19.23,12.68c-3.53,3.13 -6.81,6.82 -7.61,11.23c-0.18,1.01 -0.38,2.07 -0.57,3.09c-0.32,-0.03 -0.65,-0.05 -0.98,-0.05c-6.25,0 -11.34,5.09 -11.34,11.36c0,1.22 0.2,2.39 0.55,3.49c-1.81,1.41 -3.89,3.09 -6.07,4.99c-6.86,5.96 -19.49,22.41 -22.02,24.94c-2.03,2.03 -9.7,10.45 -12.66,13.71c-0.67,0.74 -0.69,1.87 -0.05,2.63l2.32,2.75c0.71,0.84 1.97,0.95 2.81,0.23c3.16,-2.69 10.22,-8.7 11.46,-9.7c1.6,-1.28 24.52,-15.89 27.96,-19.26c3.31,-3.24 4.7,-5.89 6.08,-12.49c0.31,0.03 0.63,0.05 0.95,0.05c0.61,0 1.2,-0.06 1.78,-0.15l47.98,48.58l0.29,33.78l-47.69,48.28c-0.58,-0.09 -1.17,-0.15 -1.78,-0.15c-0.32,0 -0.63,0.02 -0.95,0.05c-1.38,-6.6 -2.77,-9.25 -6.08,-12.49c-3.45,-3.37 -26.36,-17.97 -27.96,-19.26c-1.24,-0.99 -8.3,-7.01 -11.46,-9.7c-0.84,-0.72 -2.1,-0.61 -2.81,0.23l-2.32,2.75c-0.65,0.77 -0.63,1.89 0.05,2.63c2.96,3.26 10.63,11.69 12.66,13.71c2.53,2.53 15.16,18.98 22.02,24.94c2.19,1.9 4.26,3.58 6.07,4.99c-0.36,1.1 -0.55,2.27 -0.55,3.49c0,6.26 5.09,11.36 11.34,11.36c0.33,0 0.65,-0.02 0.98,-0.05c0.19,1.02 0.39,2.08 0.57,3.09c0.8,4.41 4.09,8.1 7.61,11.23c3.53,3.13 15.94,10.83 19.23,12.68c3.29,1.85 8.89,6.58 10.58,7.94c1.22,0.99 5.22,4.81 7.33,6.83c0.75,0.72 1.92,0.74 2.7,0.05l2.91,-2.59c0.82,-0.73 0.9,-1.99 0.17,-2.81l-0.45,-0.51s-13.54,-14.44 -14.82,-16.13c-1.28,-1.68 -16.75,-19.42 -18.75,-21.5c-1.39,-1.45 -4.73,-3.87 -7.38,-5.78c0.16,-0.44 0.29,-0.89 0.4,-1.36l43.19,-22.45c2.83,0.12 6.48,0.53 6.48,0.53l42.92,0s4.75,-0.53 7.61,-0.56l42.87,22.28c0.1,0.47 0.24,0.92 0.4,1.36c-2.66,1.91 -5.99,4.33 -7.38,5.78c-2,2.09 -17.47,19.82 -18.75,21.5c-1.28,1.68 -14.82,16.13 -14.82,16.13l-0.45,0.51c-0.73,0.83 -0.65,2.08 0.17,2.81l2.91,2.59c0.78,0.69 1.95,0.67 2.7,-0.05c2.11,-2.02 6.11,-5.84 7.33,-6.83c1.68,-1.36 7.29,-6.1 10.58,-7.94c3.28,-1.85 15.7,-9.55 19.23,-12.68c3.53,-3.13 6.81,-6.82 7.61,-11.23c0.18,-1.01 0.38,-2.07 0.57,-3.09c0.32,0.03 0.65,0.05 0.98,0.05c6.25,0 11.34,-5.09 11.34,-11.36c0,-1.22 -0.2,-2.39 -0.55,-3.49c1.81,-1.41 3.89,-3.09 6.07,-4.99c6.86,-5.96 19.49,-22.41 22.02,-24.94c2.03,-2.03 9.7,-10.45 12.66,-13.71c0.67,-0.74 0.69,-1.87 0.05,-2.63l0.01,-0.01zm-62.67,47.41l-40.9,-21.26c-0.02,-0.18 -0.03,-0.34 -0.03,-0.46c0.08,-1.09 1.31,-4.77 1.36,-5.62s-0.38,-20.77 1.56,-21c0.82,-0.1 1.66,-0.05 2.37,0.03l40.61,41.12c-2.5,1.61 -4.34,4.18 -4.97,7.19zm-36.3,-99.55l0.68,-1.8l-0.75,-24.73l-1.95,-2.24l37.73,-19.61c0.64,3.01 2.47,5.58 4.98,7.19l-40.68,41.19l-0.01,0zm-107.31,-48.58l38.11,19.81l-1.96,2.24l-0.75,24.73l0.79,2.09l-41.17,-41.68c2.5,-1.61 4.34,-4.18 4.98,-7.19zm36.5,99.74c0.42,-0.01 0.86,0 1.29,0.05c1.93,0.24 1.51,20.16 1.56,21c0.05,0.85 1.27,4.53 1.36,5.62c0.02,0.26 -0.05,0.67 -0.14,1.14l-39.98,20.78c-0.64,-3.01 -2.47,-5.58 -4.98,-7.19l40.89,-41.4z" class="cls-3" id="icon_tello"/>
     <path fill="#fff" d="m105.39,5.67c0.47,0 0.95,0.17 1.33,0.51l2.91,2.59c0.82,0.73 0.9,1.99 0.17,2.81l-0.45,0.51s-13.54,14.44 -14.82,16.13c-1.28,1.68 -16.75,19.42 -18.75,21.5c-1.39,1.45 -4.73,3.87 -7.38,5.78c0.16,0.44 0.29,0.89 0.4,1.36l39.01,20.28l0.1,-2.44l4.44,-4.28l2.79,-3.02s0.04,-0.11 0.06,-0.15c1,-1.67 6.61,-3.19 15.12,-4.05l0.88,-0.26l1.12,-1.08c0.93,-0.9 2.15,-1.42 3.44,-1.47l9.53,0c1.29,0.05 2.51,0.58 3.44,1.47l1.12,1.08l0.01,0c7.59,0.86 13.39,2.86 15.28,4.08l0,-0.45s3.55,3.83 3.55,3.83l4.44,4.28l0.1,2.45l38.64,-20.08c0.1,-0.47 0.24,-0.92 0.4,-1.36c-2.66,-1.91 -5.99,-4.33 -7.38,-5.78c-2,-2.09 -17.47,-19.82 -18.75,-21.5c-1.28,-1.69 -14.82,-16.13 -14.82,-16.13l-0.45,-0.51c-0.73,-0.83 -0.65,-2.08 0.17,-2.81l2.91,-2.59c0.38,-0.34 0.85,-0.51 1.33,-0.51c0.5,0 0.99,0.18 1.37,0.55c2.11,2.02 6.11,5.84 7.33,6.83c1.68,1.36 7.29,6.1 10.58,7.94c3.29,1.85 15.7,9.55 19.23,12.68c3.53,3.13 6.81,6.82 7.61,11.23c0.18,1.01 0.38,2.07 0.57,3.09c0.32,-0.03 0.65,-0.05 0.98,-0.05c6.25,0 11.34,5.09 11.34,11.36c0,1.22 -0.2,2.39 -0.55,3.49c1.81,1.41 3.89,3.09 6.07,4.99c6.86,5.96 19.49,22.41 22.02,24.94c2.03,2.03 9.7,10.45 12.66,13.71c0.67,0.74 0.69,1.87 0.05,2.63l-2.32,2.75c-0.4,0.47 -0.96,0.71 -1.52,0.71c-0.46,0 -0.91,-0.16 -1.29,-0.48c-3.16,-2.69 -10.22,-8.7 -11.46,-9.7c-1.6,-1.28 -24.52,-15.89 -27.96,-19.26c-3.31,-3.24 -4.7,-5.89 -6.08,-12.49c-0.31,0.03 -0.63,0.05 -0.95,0.05c-0.61,0 -1.2,-0.06 -1.78,-0.15l-47.61,48.2l-0.28,32.96l48.48,49.08c0.58,-0.09 1.17,-0.15 1.78,-0.15c0.32,0 0.63,0.02 0.95,0.05c1.38,-6.6 2.77,-9.25 6.08,-12.49c3.44,-3.37 26.36,-17.97 27.96,-19.26c1.24,-0.99 8.3,-7.01 11.46,-9.7c0.38,-0.32 0.83,-0.48 1.29,-0.48c0.57,0 1.13,0.24 1.52,0.71l2.32,2.75c0.65,0.77 0.63,1.89 -0.04,2.63c-2.96,3.26 -10.63,11.69 -12.66,13.71c-2.53,2.53 -15.16,18.98 -22.02,24.94c-2.19,1.9 -4.26,3.58 -6.07,4.99c0.36,1.1 0.55,2.27 0.55,3.49c0,6.26 -5.09,11.36 -11.34,11.36c-0.33,0 -0.65,-0.02 -0.98,-0.05c-0.19,1.02 -0.39,2.08 -0.57,3.09c-0.8,4.41 -4.09,8.1 -7.61,11.23c-3.53,3.13 -15.94,10.83 -19.23,12.68c-3.29,1.85 -8.89,6.58 -10.58,7.94c-1.22,0.99 -5.22,4.81 -7.33,6.83c-0.38,0.37 -0.88,0.55 -1.38,0.55s-0.95,-0.17 -1.33,-0.51l-2.91,-2.59c-0.82,-0.73 -0.9,-1.99 -0.17,-2.81l0.45,-0.51s13.54,-14.44 14.82,-16.13c1.28,-1.68 16.75,-19.42 18.75,-21.5c1.39,-1.45 4.73,-3.87 7.38,-5.78c-0.16,-0.44 -0.29,-0.89 -0.4,-1.36l-42.87,-22.28c-2.86,0.02 -7.61,0.56 -7.61,0.56l-42.92,0s-3.65,-0.41 -6.48,-0.53l-43.19,22.45c-0.1,0.47 -0.24,0.92 -0.4,1.36c2.66,1.91 5.99,4.33 7.38,5.78c2,2.09 17.47,19.82 18.75,21.5c1.28,1.68 14.82,16.13 14.82,16.13l0.45,0.51c0.73,0.83 0.65,2.08 -0.17,2.81l-2.91,2.59c-0.38,0.34 -0.85,0.51 -1.33,0.51s-0.99,-0.18 -1.37,-0.55c-2.11,-2.02 -6.11,-5.84 -7.33,-6.83c-1.68,-1.36 -7.29,-6.1 -10.58,-7.94c-3.28,-1.85 -15.7,-9.55 -19.23,-12.68c-3.53,-3.13 -6.81,-6.82 -7.61,-11.23c-0.18,-1.01 -0.38,-2.07 -0.57,-3.09c-0.32,0.03 -0.65,0.05 -0.98,0.05c-6.25,0 -11.34,-5.1 -11.34,-11.36c0,-1.22 0.2,-2.39 0.55,-3.49c-1.81,-1.41 -3.89,-3.09 -6.07,-4.99c-6.86,-5.96 -19.49,-22.41 -22.02,-24.94c-2.03,-2.03 -9.7,-10.45 -12.66,-13.71c-0.67,-0.74 -0.69,-1.87 -0.05,-2.63l2.32,-2.75c0.4,-0.47 0.96,-0.71 1.52,-0.71c0.46,0 0.91,0.16 1.29,0.48c3.16,2.69 10.22,8.7 11.46,9.7c1.6,1.28 24.52,15.89 27.96,19.26c3.31,3.24 4.7,5.89 6.08,12.49c0.31,-0.03 0.63,-0.05 0.95,-0.05c0.61,0 1.2,0.06 1.78,0.15l47.69,-48.28l-0.29,-33.78l-47.98,-48.58c-0.58,0.09 -1.17,0.15 -1.78,0.15c-0.32,0 -0.63,-0.02 -0.95,-0.05c-1.38,6.6 -2.77,9.25 -6.08,12.49c-3.45,3.37 -26.36,17.97 -27.96,19.26c-1.24,0.99 -8.3,7.01 -11.46,9.7c-0.38,0.32 -0.83,0.48 -1.29,0.48c-0.57,0 -1.13,-0.24 -1.52,-0.71l-2.32,-2.75c-0.65,-0.77 -0.63,-1.89 0.05,-2.63c2.96,-3.26 10.63,-11.69 12.66,-13.71c2.53,-2.53 15.16,-18.98 22.02,-24.94c2.19,-1.9 4.26,-3.58 6.07,-4.99c-0.36,-1.1 -0.55,-2.27 -0.55,-3.49c0,-6.26 5.09,-11.36 11.34,-11.36c0.33,0 0.65,0.02 0.98,0.05c0.19,-1.02 0.39,-2.08 0.57,-3.09c0.8,-4.41 4.09,-8.1 7.61,-11.23c3.53,-3.13 15.94,-10.83 19.23,-12.68c3.28,-1.85 8.89,-6.58 10.58,-7.94c1.22,-0.99 5.22,-4.81 7.33,-6.83c0.38,-0.37 0.88,-0.55 1.37,-0.55m-0.39,104.87l-0.79,-2.09l0.75,-24.73l1.96,-2.24l-38.11,-19.81c-0.64,3.01 -2.47,5.58 -4.98,7.19l41.17,41.68m71.12,-0.29l40.68,-41.19c-2.5,-1.61 -4.34,-4.18 -4.98,-7.19l-37.73,19.61l1.95,2.24l0.75,24.73l-0.68,1.8m36.3,99.55c0.64,-3.01 2.47,-5.58 4.98,-7.19l-40.61,-41.12c-0.42,-0.05 -0.9,-0.09 -1.38,-0.09c-0.33,0 -0.66,0.02 -0.99,0.06c-1.93,0.24 -1.51,20.16 -1.56,21c-0.05,0.85 -1.27,4.53 -1.36,5.62c0,0.12 0,0.28 0.03,0.46l40.9,21.26m-143.02,0.2l39.98,-20.78c0.09,-0.47 0.16,-0.88 0.14,-1.14c-0.08,-1.09 -1.31,-4.77 -1.36,-5.62c-0.05,-0.85 0.38,-20.77 -1.56,-21c-0.32,-0.04 -0.65,-0.05 -0.97,-0.05c-0.11,0 -0.22,0 -0.33,0l-40.89,41.4c2.5,1.61 4.34,4.18 4.98,7.19m35.99,-209.99l0,0c-1.99,0 -3.87,0.76 -5.3,2.13c-4.25,4.08 -6.39,6.04 -6.97,6.51c-0.22,0.18 -0.51,0.42 -0.86,0.7c-1.94,1.6 -6.5,5.34 -8.93,6.7c-2.77,1.56 -16,9.64 -20.22,13.38c-3.26,2.9 -7.66,7.35 -9.17,13.26c-7.57,1.72 -13.24,8.51 -13.24,16.61c0,0.39 0.01,0.78 0.04,1.16c-1.23,1 -2.44,2.02 -3.61,3.04c-5,4.35 -12.28,13.18 -17.6,19.63c-2.01,2.44 -4.08,4.95 -4.71,5.58c-2.11,2.11 -9.69,10.43 -12.84,13.91c-2.57,2.83 -2.65,7.18 -0.18,10.1l2.32,2.75c1.46,1.73 3.59,2.72 5.85,2.72c1.82,0 3.58,-0.65 4.97,-1.83c6.19,-5.28 10.4,-8.83 11.29,-9.56c0.57,-0.43 3.39,-2.28 6.12,-4.08c10.69,-7.05 19.75,-13.08 22.3,-15.58c2.54,-2.48 4.22,-4.82 5.5,-7.91l41.67,42.19l0.25,29.13l-41.34,41.85c-1.28,-3.09 -2.97,-5.43 -5.5,-7.91c-2.55,-2.49 -11.61,-8.53 -22.3,-15.58c-2.73,-1.8 -5.54,-3.65 -6.12,-4.08c-0.9,-0.73 -5.1,-4.29 -11.29,-9.56c-1.38,-1.18 -3.15,-1.83 -4.97,-1.83c-2.26,0 -4.39,0.99 -5.85,2.72l-2.32,2.75c-2.47,2.93 -2.4,7.27 0.18,10.11c3.16,3.48 10.74,11.8 12.84,13.91c0.62,0.63 2.7,3.14 4.71,5.58c5.32,6.45 12.6,15.29 17.6,19.64c1.17,1.02 2.38,2.03 3.61,3.04c-0.03,0.39 -0.04,0.77 -0.04,1.16c0,8.09 5.67,14.89 13.24,16.61c1.51,5.91 5.9,10.37 9.17,13.26c4.21,3.74 17.44,11.82 20.22,13.38c2.43,1.36 6.98,5.1 8.92,6.7c0.35,0.28 0.64,0.52 0.86,0.71c0.58,0.47 2.71,2.43 6.97,6.52c1.43,1.38 3.31,2.13 5.3,2.13c1.88,0 3.69,-0.69 5.1,-1.94l2.91,-2.59c3.14,-2.8 3.44,-7.64 0.66,-10.79l-0.45,-0.51s-0.08,-0.09 -0.12,-0.14c-6.43,-6.85 -13.59,-14.6 -14.46,-15.7c-1.56,-2.05 -17.27,-20.01 -19.16,-21.98c-0.48,-0.5 -1.08,-1.05 -1.8,-1.65l35.15,-18.27c2.26,0.15 4.58,0.41 4.61,0.42c0.21,0.02 0.42,0.04 0.63,0.04l42.92,0c0.21,0 0.42,-0.01 0.63,-0.04c1,-0.11 3.6,-0.37 5.67,-0.48l34.89,18.14c-0.72,0.6 -1.32,1.15 -1.8,1.65c-1.88,1.96 -17.59,19.92 -19.17,22c-0.86,1.08 -8.02,8.83 -14.45,15.68c-0.04,0.04 -0.08,0.09 -0.12,0.14l-0.45,0.51c-2.77,3.16 -2.48,8 0.66,10.79l2.9,2.59c1.41,1.25 3.22,1.94 5.1,1.94c1.98,0 3.87,-0.76 5.3,-2.13c4.25,-4.08 6.39,-6.04 6.97,-6.52c0.22,-0.18 0.51,-0.42 0.85,-0.7c1.95,-1.6 6.5,-5.34 8.93,-6.71c2.77,-1.56 16.01,-9.64 20.22,-13.38c3.26,-2.9 7.66,-7.35 9.16,-13.26c7.57,-1.72 13.24,-8.51 13.24,-16.61c0,-0.39 -0.01,-0.78 -0.04,-1.16c1.23,-1 2.44,-2.02 3.61,-3.04c5,-4.35 12.28,-13.18 17.6,-19.63c2.01,-2.44 4.08,-4.95 4.71,-5.58c2.02,-2.02 8.92,-9.58 12.84,-13.91c2.58,-2.84 2.65,-7.18 0.18,-10.11l-2.32,-2.75c-1.46,-1.73 -3.59,-2.72 -5.85,-2.72c-1.82,0 -3.58,0.65 -4.97,1.83c-6.09,5.19 -10.4,8.84 -11.29,9.56c-0.57,0.43 -3.39,2.28 -6.12,4.08c-10.69,7.05 -19.75,13.08 -22.3,15.58c-2.54,2.48 -4.22,4.82 -5.5,7.91l-42.13,-42.65l0.24,-28.3l41.3,-41.81c1.28,3.09 2.97,5.43 5.5,7.91c2.55,2.49 11.61,8.53 22.3,15.58c2.73,1.8 5.54,3.65 6.12,4.08c0.89,0.72 5.1,4.28 11.29,9.56c1.38,1.18 3.15,1.83 4.97,1.83c2.26,0 4.4,-0.99 5.86,-2.72l2.32,-2.75c2.47,-2.93 2.4,-7.27 -0.18,-10.11c-3.16,-3.48 -10.73,-11.8 -12.84,-13.91c-0.62,-0.63 -2.7,-3.14 -4.71,-5.58c-5.32,-6.45 -12.6,-15.29 -17.6,-19.63c-1.17,-1.02 -2.38,-2.03 -3.61,-3.04c0.03,-0.39 0.04,-0.78 0.04,-1.16c0,-8.09 -5.67,-14.89 -13.24,-16.61c-1.51,-5.91 -5.9,-10.37 -9.17,-13.26c-4.21,-3.74 -17.45,-11.82 -20.22,-13.38c-2.43,-1.36 -6.98,-5.11 -8.93,-6.71c-0.34,-0.28 -0.63,-0.52 -0.85,-0.7c-0.58,-0.47 -2.72,-2.43 -6.97,-6.52c-1.43,-1.38 -3.31,-2.13 -5.3,-2.13c-1.88,0 -3.69,0.69 -5.1,1.94l-2.91,2.59c-3.14,2.79 -3.44,7.63 -0.66,10.79l0.45,0.51s0.08,0.09 0.12,0.13c6.42,6.85 13.59,14.6 14.46,15.7c1.56,2.05 17.27,20.02 19.16,21.98c0.48,0.5 1.08,1.05 1.8,1.65l-26.77,13.92l-3.07,-2.97l-3.43,-3.71c-0.98,-1.06 -2.31,-1.69 -3.69,-1.8c-3.33,-1.42 -8.14,-2.65 -13.19,-3.37c-1.9,-1.73 -4.34,-2.73 -6.91,-2.83c-0.08,0 -0.15,0 -0.23,0l-9.53,0c-0.08,0 -0.15,0 -0.23,0c-2.64,0.11 -5.14,1.16 -7.06,2.97c-12.79,1.42 -16.37,3.96 -17.94,6.34l-2.23,2.42l-3.07,2.96l-27.15,-14.11c0.72,-0.6 1.31,-1.15 1.8,-1.65c1.89,-1.97 17.6,-19.93 19.17,-22c0.86,-1.08 8.02,-8.83 14.45,-15.68c0.04,-0.04 0.08,-0.09 0.12,-0.14l0.45,-0.51c2.77,-3.16 2.48,-8 -0.66,-10.79l-2.91,-2.59c-1.38,-1.26 -3.19,-1.95 -5.07,-1.95l0,0zm-6.48,96.3l-25.58,-25.9l25.95,13.49l-0.38,12.4l0,0l0.01,0.01zm82.82,-12.4l25.58,-13.3l-25.21,25.52l-0.37,-12.23l0,0l0,0.01zm-3.75,101.6c0.32,-1.18 0.49,-1.96 0.54,-2.73c0.02,-0.28 0.01,-0.54 0,-1.73c-0.02,-4.12 0.02,-7.25 0.08,-9.64l29.29,29.65l-29.92,-15.55l0,0l0.01,0zm-104.06,15.75l28.51,-28.87c0.05,2.25 0.08,5.09 0.06,8.66c0,1.18 0,1.44 0,1.72c0.05,0.88 0.27,1.78 0.68,3.27l-29.26,15.21l0,0l0.01,0.01z" class="cls-2" id="icon_tello-2"/>
    </g>
    <g id="svg_2">
     <g id="svg_3">
      <rect id="svg_4" transform="rotate(-62.57 -13.72 116.19)" height="47.31" width="4.25" y="161.93" x="72.9"/>
      <rect id="svg_5" transform="rotate(-44.69 -41.43 88.06)" height="72.62" width="4.25" y="146.18" x="42.86"/>
      <path id="svg_6" d="m57.83,70.51c-6.27,0 -11.37,-5.1 -11.37,-11.37s5.1,-11.37 11.37,-11.37s11.37,5.1 11.37,11.37s-5.1,11.37 -11.37,11.37zm0,-19.9c-4.7,0 -8.53,3.83 -8.53,8.53s3.83,8.53 8.53,8.53s8.53,-3.83 8.53,-8.53s-3.83,-8.53 -8.53,-8.53z"/>
      <path id="svg_7" fill="#333" d="m53.59,57.86s-5.79,3.8 -12.66,9.77c-6.87,5.97 -19.53,22.43 -22.07,24.96c-2.03,2.03 -9.72,10.46 -12.69,13.72c-0.68,0.74 -0.69,1.87 -0.05,2.64l2.33,2.75c0.71,0.84 1.98,0.95 2.82,0.23c3.16,-2.69 10.24,-8.71 11.48,-9.7c1.61,-1.28 24.57,-15.9 28.02,-19.27c3.45,-3.37 4.82,-6.1 6.26,-13.33c1.45,-7.23 2.33,-6.58 2.33,-6.58c0,0 4.01,-3.93 6.26,-5.62c2.25,-1.69 8.27,-5.78 10.28,-7.87s17.51,-19.83 18.79,-21.52s14.86,-16.14 14.86,-16.14l0.45,-0.51c0.73,-0.83 0.65,-2.08 -0.17,-2.82l-2.91,-2.59c-0.78,-0.69 -1.96,-0.67 -2.71,0.05c-2.11,2.02 -6.12,5.84 -7.35,6.83c-1.69,1.37 -7.31,6.1 -10.6,7.95c-3.29,1.85 -15.74,9.56 -19.27,12.69c-3.53,3.13 -6.83,6.83 -7.63,11.24c-0.5,2.74 -1.09,5.78 -1.46,7.7c-0.25,1.26 -0.9,2.39 -1.86,3.24l-2.47,2.18l0.02,0z" class="cls-3"/>
      <path id="svg_8" d="m57.83,63.64c-2.48,0 -4.5,-2.02 -4.5,-4.5s2.02,-4.5 4.5,-4.5s4.5,2.02 4.5,4.5s-2.02,4.5 -4.5,4.5zm0,-7.99c-1.93,0 -3.5,1.57 -3.5,3.5s1.57,3.5 3.5,3.5s3.5,-1.57 3.5,-3.5s-1.57,-3.5 -3.5,-3.5z"/>
      <path id="svg_9" d="m57.83,60.3c-0.64,0 -1.15,-0.52 -1.15,-1.15s0.52,-1.15 1.15,-1.15s1.15,0.52 1.15,1.15s-0.52,1.15 -1.15,1.15zm0,-1.31c-0.08,0 -0.15,0.07 -0.15,0.15c0,0.17 0.31,0.17 0.31,0c0,-0.08 -0.07,-0.15 -0.15,-0.15l-0.01,0z"/>
     </g>
     <g id="svg_10">
      <rect id="svg_11" transform="rotate(-27.44 -10.41 96.51)" height="4.25" width="47.31" y="163.97" x="158.42"/>
      <rect id="svg_12" transform="rotate(-45.32 -9.46 166.6)" height="4.25" width="72.62" y="259.10001" x="149.04"/>
      <path id="svg_13" d="m223.4,70.71c-6.27,0 -11.37,-5.1 -11.37,-11.37s5.1,-11.37 11.37,-11.37s11.37,5.1 11.37,11.37s-5.1,11.37 -11.37,11.37zm0,-19.9c-4.7,0 -8.53,3.83 -8.53,8.53s3.83,8.53 8.53,8.53s8.53,-3.83 8.53,-8.53s-3.83,-8.53 -8.53,-8.53z"/>
      <path id="svg_14" fill="#333" d="m227.63,58.06s5.79,3.8 12.66,9.77s19.53,22.43 22.07,24.96c2.03,2.03 9.72,10.46 12.69,13.72c0.68,0.74 0.69,1.87 0.05,2.64l-2.33,2.75c-0.71,0.84 -1.98,0.95 -2.82,0.23c-3.16,-2.69 -10.24,-8.71 -11.48,-9.7c-1.61,-1.28 -24.57,-15.9 -28.02,-19.27s-4.82,-6.1 -6.26,-13.33c-1.45,-7.23 -2.33,-6.58 -2.33,-6.58c0,0 -4.01,-3.93 -6.26,-5.62s-8.27,-5.78 -10.28,-7.87c-2.01,-2.09 -17.51,-19.83 -18.79,-21.52s-14.86,-16.14 -14.86,-16.14l-0.45,-0.51c-0.73,-0.83 -0.65,-2.08 0.17,-2.82l2.91,-2.59c0.78,-0.69 1.96,-0.67 2.71,0.05c2.11,2.02 6.12,5.84 7.35,6.83c1.69,1.37 7.31,6.1 10.6,7.95s15.74,9.56 19.27,12.69c3.53,3.13 6.83,6.83 7.63,11.24c0.5,2.74 1.09,5.78 1.46,7.7c0.25,1.26 0.9,2.39 1.86,3.24l2.47,2.18l-0.02,0z" class="cls-3"/>
      <path id="svg_15" d="m223.4,63.84c-2.48,0 -4.5,-2.02 -4.5,-4.5s2.02,-4.5 4.5,-4.5s4.5,2.02 4.5,4.5s-2.02,4.5 -4.5,4.5zm0,-7.99c-1.93,0 -3.5,1.57 -3.5,3.5s1.57,3.5 3.5,3.5s3.5,-1.57 3.5,-3.5s-1.57,-3.5 -3.5,-3.5z"/>
      <path id="svg_16" d="m223.4,60.5c-0.64,0 -1.15,-0.52 -1.15,-1.15s0.52,-1.15 1.15,-1.15s1.15,0.52 1.15,1.15s-0.52,1.15 -1.15,1.15zm0,-1.31c-0.08,0 -0.15,0.07 -0.15,0.15c0,0.17 0.31,0.17 0.31,0c0,-0.08 -0.07,-0.15 -0.15,-0.15l-0.01,0z"/>
     </g>
     <g id="svg_17">
      <rect id="svg_18" transform="rotate(-27.44 -82.71 64.29)" height="4.25" width="49.54" y="263.71" x="-17.15"/>
      <rect id="svg_19" transform="rotate(-45.32 -100.04 114.4)" height="4.25" width="72.62" y="289.3" x="-49.35"/>
      <path id="svg_20" d="m58.42,223.67c-6.27,0 -11.37,-5.1 -11.37,-11.37s5.1,-11.37 11.37,-11.37s11.37,5.1 11.37,11.37s-5.1,11.37 -11.37,11.37zm0,-19.9c-4.7,0 -8.53,3.83 -8.53,8.53s3.83,8.53 8.53,8.53s8.53,-3.83 8.53,-8.53s-3.83,-8.53 -8.53,-8.53z"/>
      <path id="svg_21" fill="#333" d="m54.18,213.59s-5.79,-3.8 -12.66,-9.77c-6.87,-5.97 -19.53,-22.43 -22.07,-24.96c-2.03,-2.03 -9.72,-10.46 -12.69,-13.72c-0.68,-0.74 -0.69,-1.87 -0.05,-2.64l2.33,-2.75c0.71,-0.84 1.98,-0.95 2.82,-0.23c3.16,2.69 10.24,8.71 11.48,9.7c1.61,1.28 24.57,15.9 28.02,19.27c3.45,3.37 4.82,6.1 6.26,13.33c1.45,7.23 2.33,6.58 2.33,6.58c0,0 4.01,3.93 6.26,5.62c2.25,1.69 8.27,5.78 10.28,7.87s17.51,19.83 18.79,21.52s14.86,16.14 14.86,16.14l0.45,0.51c0.73,0.83 0.65,2.08 -0.17,2.82l-2.91,2.59c-0.78,0.69 -1.96,0.67 -2.71,-0.05c-2.11,-2.02 -6.12,-5.84 -7.35,-6.83c-1.69,-1.37 -7.31,-6.1 -10.6,-7.95s-15.74,-9.56 -19.27,-12.69c-3.53,-3.13 -6.83,-6.83 -7.63,-11.24c-0.5,-2.74 -1.09,-5.78 -1.46,-7.7c-0.25,-1.26 -0.9,-2.39 -1.86,-3.24l-2.47,-2.18l0.02,0z" class="cls-3"/>
      <path id="svg_22" d="m58.42,216.81c-2.48,0 -4.5,-2.02 -4.5,-4.5s2.02,-4.5 4.5,-4.5s4.5,2.02 4.5,4.5s-2.02,4.5 -4.5,4.5zm0,-7.99c-1.93,0 -3.5,1.57 -3.5,3.5s1.57,3.5 3.5,3.5s3.5,-1.57 3.5,-3.5s-1.57,-3.5 -3.5,-3.5z"/>
      <path id="svg_23" d="m58.42,213.46c-0.64,0 -1.15,-0.52 -1.15,-1.15s0.52,-1.15 1.15,-1.15s1.15,0.52 1.15,1.15s-0.52,1.15 -1.15,1.15zm0,-1.31c-0.08,0 -0.15,0.07 -0.15,0.15c0,0.17 0.31,0.17 0.31,0c0,-0.08 -0.07,-0.15 -0.15,-0.15l-0.01,0z"/>
     </g>
     <g id="svg_24">
      <rect id="svg_25" transform="rotate(-62.57 -75.14 278.79)" height="50.06" width="4.25" y="454.99001" x="114.58"/>
      <rect id="svg_26" transform="rotate(-44.69 -67.87 188.51)" height="72.62" width="4.25" y="329.01999" x="125.4"/>
      <path id="svg_27" d="m223.99,223.47c-6.27,0 -11.37,-5.1 -11.37,-11.37s5.1,-11.37 11.37,-11.37s11.37,5.1 11.37,11.37s-5.1,11.37 -11.37,11.37zm0,-19.9c-4.7,0 -8.53,3.83 -8.53,8.53s3.83,8.53 8.53,8.53s8.53,-3.83 8.53,-8.53s-3.83,-8.53 -8.53,-8.53z"/>
      <path id="svg_28" fill="#333" d="m228.22,213.39s5.79,-3.8 12.66,-9.77c6.87,-5.97 19.53,-22.43 22.07,-24.96c2.03,-2.03 9.72,-10.46 12.69,-13.72c0.68,-0.74 0.69,-1.87 0.05,-2.64l-2.33,-2.75c-0.71,-0.84 -1.98,-0.95 -2.82,-0.23c-3.16,2.69 -10.24,8.71 -11.48,9.7c-1.61,1.28 -24.57,15.9 -28.02,19.27c-3.45,3.37 -4.82,6.1 -6.26,13.33s-2.33,6.58 -2.33,6.58c0,0 -4.01,3.93 -6.26,5.62s-8.27,5.78 -10.28,7.87c-2.01,2.09 -17.51,19.83 -18.79,21.52s-14.86,16.14 -14.86,16.14l-0.45,0.51c-0.73,0.83 -0.65,2.08 0.17,2.82l2.91,2.59c0.78,0.69 1.96,0.67 2.71,-0.05c2.11,-2.02 6.12,-5.84 7.35,-6.83c1.69,-1.37 7.31,-6.1 10.6,-7.95s15.74,-9.56 19.27,-12.69c3.53,-3.13 6.83,-6.83 7.63,-11.24c0.5,-2.74 1.09,-5.78 1.46,-7.7c0.25,-1.26 0.9,-2.39 1.86,-3.24l2.47,-2.18l-0.02,0z" class="cls-3"/>
      <path id="svg_29" d="m223.99,216.61c-2.48,0 -4.5,-2.02 -4.5,-4.5s2.02,-4.5 4.5,-4.5s4.5,2.02 4.5,4.5s-2.02,4.5 -4.5,4.5zm0,-7.99c-1.93,0 -3.5,1.57 -3.5,3.5s1.57,3.5 3.5,3.5s3.5,-1.57 3.5,-3.5s-1.57,-3.5 -3.5,-3.5z"/>
      <path id="svg_30" d="m223.99,213.26c-0.64,0 -1.15,-0.52 -1.15,-1.15s0.52,-1.15 1.15,-1.15s1.15,0.52 1.15,1.15s-0.52,1.15 -1.15,1.15zm0,-1.31c-0.08,0 -0.15,0.07 -0.15,0.15c0,0.17 0.31,0.17 0.31,0c0,-0.08 -0.07,-0.15 -0.15,-0.15l-0.01,0z"/>
     </g>
    </g>
    <g id="svg_31">
     <path id="svg_32" d="m173.6,153.96l0.32,-37.04l3.26,-8.59l-0.75,-24.75l-2.69,-3.09l-0.25,-5.94l-7.38,-7.11l-15.95,-4.65l-1.12,-1.08c-0.93,-0.9 -2.16,-1.42 -3.45,-1.47l-9.55,0c-1.29,0.05 -2.52,0.58 -3.45,1.47l-1.12,1.08l-15.95,4.65l-7.38,7.11l-0.25,5.94l-2.69,3.09l-0.75,24.75l3.26,8.59l0.32,37.04l-5.24,7.75s2.13,-0.57 4.06,-0.33c1.94,0.24 1.51,20.17 1.56,21.02c0.05,0.85 1.28,4.53 1.36,5.62c0.08,1.09 -1.36,4.91 0,4.39c1.36,-0.52 9.55,0.4 9.55,0.4l43.01,0s8.19,-0.92 9.55,-0.4c1.36,0.52 -0.08,-3.31 0,-4.39c0.08,-1.09 1.31,-4.77 1.36,-5.62s-0.38,-20.78 1.56,-21.02c1.94,-0.24 4.06,0.33 4.06,0.33l-5.24,-7.75l-0.02,0z"/>
     <path id="svg_33" fill="#ccc" d="m110.39,164.22s0.2,15.63 0.72,19.05c0.52,3.42 1.73,7.42 1.73,7.42l6.2,-11.86l-2.92,-112.4l-6.38,6.9l0,41.81l2.21,2.54s3.53,44.35 -1.56,46.54z" class="cls-4"/>
     <path id="svg_34" fill="#ccc" d="m171.21,164.22s-0.2,15.63 -0.72,19.05c-0.52,3.42 -1.73,7.42 -1.73,7.42l-6.2,-11.86l2.92,-112.4l6.38,6.9l0,41.81l-2.21,2.54s-3.53,44.35 1.56,46.54z" class="cls-4"/>
     <path id="svg_35" fill="#fff" d="m112.84,190.69l8.83,0.44l5.15,-10.71l28.49,0l4.29,10.71l9.17,-0.42s-2.9,-9.44 -3.58,-16.09c-0.69,-6.65 1.26,-48.83 1.26,-64.88s0.34,-40.92 -0.34,-42.3c-0.69,-1.38 -11.61,-5.4 -24.89,-5.04c-14.36,0.38 -24.4,2.41 -25.77,4.7s-0.23,32.9 -0.23,44.02s1.38,57.89 1.03,64.2c-0.34,6.3 -3.39,15.38 -3.39,15.38l-0.02,-0.01z" class="cls-2"/>
     <path id="svg_36" fill="#333" d="m152.36,191.07l-1,0l0,-1.67c0,-0.28 -0.22,-0.5 -0.5,-0.5l-20.05,0c-0.28,0 -0.5,0.22 -0.5,0.5l0,1.67l-1,0l0,-1.67c0,-0.83 0.67,-1.5 1.5,-1.5l20.05,0c0.83,0 1.5,0.67 1.5,1.5l0,1.67z" class="cls-3"/>
    </g>
    <g id="svg_37">
     <path id="svg_38" stroke-width="0.71px" stroke-miterlimit="10" stroke="#fff" d="m128.73,165.89c-0.04,-0.07 -0.08,-0.16 -0.12,-0.27c-0.04,-0.11 -0.05,-0.23 -0.05,-0.36c0,-0.23 0.05,-0.4 0.16,-0.5c0.11,-0.1 0.24,-0.15 0.41,-0.15l3.92,0c0.04,0.07 0.08,0.16 0.12,0.27c0.04,0.11 0.05,0.23 0.05,0.36c0,0.23 -0.05,0.4 -0.16,0.5c-0.1,0.1 -0.24,0.15 -0.41,0.15l-1,0l0,4.16c-0.07,0.02 -0.17,0.04 -0.31,0.05c-0.14,0.02 -0.28,0.03 -0.42,0.03s-0.26,-0.01 -0.37,-0.03c-0.1,-0.02 -0.19,-0.06 -0.26,-0.11c-0.07,-0.05 -0.13,-0.13 -0.16,-0.23c-0.04,-0.1 -0.05,-0.22 -0.05,-0.38l0,-3.49l-1.35,0z" class="cls-1"/>
     <path id="svg_39" stroke-width="0.71px" stroke-miterlimit="10" stroke="#fff" d="m133.99,165.47c0,-0.26 0.08,-0.46 0.22,-0.61c0.15,-0.15 0.35,-0.23 0.61,-0.23l2.97,0c0.04,0.07 0.08,0.15 0.11,0.26c0.03,0.11 0.05,0.22 0.05,0.34c0,0.23 -0.05,0.39 -0.15,0.49c-0.1,0.1 -0.23,0.14 -0.39,0.14l-1.9,0l0,0.84l2.02,0c0.04,0.07 0.08,0.15 0.11,0.26c0.03,0.1 0.05,0.22 0.05,0.34c0,0.23 -0.05,0.39 -0.14,0.49c-0.1,0.1 -0.23,0.14 -0.39,0.14l-1.66,0l0,0.95l2.31,0c0.04,0.07 0.08,0.15 0.11,0.26c0.03,0.11 0.05,0.22 0.05,0.34c0,0.23 -0.05,0.39 -0.15,0.49s-0.23,0.15 -0.39,0.15l-2.63,0c-0.26,0 -0.46,-0.07 -0.61,-0.23c-0.15,-0.15 -0.22,-0.35 -0.22,-0.61l0,-3.81l0.02,0z" class="cls-1"/>
     <path id="svg_40" stroke-width="0.71px" stroke-miterlimit="10" stroke="#fff" d="m139.76,170.11c-0.26,0 -0.46,-0.07 -0.61,-0.23c-0.15,-0.15 -0.22,-0.35 -0.22,-0.61l0,-4.65c0.07,-0.01 0.17,-0.03 0.32,-0.05c0.14,-0.02 0.28,-0.03 0.41,-0.03s0.26,0.01 0.36,0.03c0.1,0.02 0.19,0.06 0.27,0.11c0.07,0.05 0.13,0.13 0.16,0.23c0.04,0.1 0.05,0.22 0.05,0.38l0,3.55l2.06,0c0.04,0.07 0.08,0.15 0.12,0.27c0.04,0.11 0.05,0.23 0.05,0.35c0,0.24 -0.05,0.41 -0.15,0.51c-0.1,0.1 -0.24,0.15 -0.41,0.15l-2.41,0l0,-0.01z" class="cls-1"/>
     <path id="svg_41" stroke-width="0.71px" stroke-miterlimit="10" stroke="#fff" d="m144.37,170.11c-0.26,0 -0.46,-0.07 -0.61,-0.23c-0.15,-0.15 -0.22,-0.35 -0.22,-0.61l0,-4.65c0.07,-0.01 0.17,-0.03 0.32,-0.05c0.14,-0.02 0.28,-0.03 0.41,-0.03s0.26,0.01 0.36,0.03c0.1,0.02 0.19,0.06 0.27,0.11c0.07,0.05 0.13,0.13 0.16,0.23c0.04,0.1 0.05,0.22 0.05,0.38l0,3.55l2.06,0c0.04,0.07 0.08,0.15 0.12,0.27c0.04,0.11 0.05,0.23 0.05,0.35c0,0.24 -0.05,0.41 -0.15,0.51c-0.1,0.1 -0.24,0.15 -0.41,0.15l-2.41,0l0,-0.01z" class="cls-1"/>
     <path id="svg_42" stroke-width="0.71px" stroke-miterlimit="10" stroke="#fff" d="m147.62,167.35c0,-0.47 0.07,-0.88 0.22,-1.24c0.15,-0.36 0.35,-0.66 0.6,-0.9c0.25,-0.24 0.55,-0.43 0.9,-0.55c0.35,-0.13 0.72,-0.19 1.12,-0.19s0.78,0.06 1.12,0.19s0.65,0.31 0.9,0.55c0.26,0.24 0.46,0.54 0.61,0.9c0.15,0.36 0.22,0.77 0.22,1.24s-0.07,0.88 -0.22,1.25c-0.14,0.36 -0.34,0.67 -0.6,0.91s-0.56,0.43 -0.9,0.55s-0.73,0.19 -1.13,0.19s-0.79,-0.06 -1.13,-0.19c-0.35,-0.13 -0.65,-0.32 -0.9,-0.56c-0.25,-0.25 -0.45,-0.55 -0.59,-0.91c-0.14,-0.36 -0.22,-0.77 -0.22,-1.23l0,-0.01zm1.62,0c0,0.55 0.11,0.95 0.33,1.22c0.22,0.27 0.52,0.41 0.89,0.41s0.68,-0.14 0.9,-0.41c0.22,-0.27 0.33,-0.68 0.33,-1.22s-0.11,-0.95 -0.33,-1.22s-0.52,-0.4 -0.9,-0.4s-0.67,0.13 -0.9,0.4c-0.22,0.27 -0.34,0.67 -0.34,1.22l0.02,0z" class="cls-1"/>
    </g>
   </g>
  </g>
 </g>
</svg>