<?xml version="1.0" encoding="UTF-8"?><svg id="Calque_2" xmlns="http://www.w3.org/2000/svg" viewBox="0 0 300 300"><defs><style>.cls-1{fill:#fff;}.cls-1,.cls-2{stroke-width:0px;}.cls-2{fill:#ff9403;}</style></defs><g id="Calque_1-2"><rect class="cls-2" width="300" height="300"/><path class="cls-1" d="M66.35,122.48c0-11.13-.03-22.27.01-33.4.02-5.07,1.01-9.91,4-14.15,3.83-5.42,9.36-8,15.72-8.31,7.03-.34,14.16-.56,21.14.2,11.92,1.29,18.53,9.19,18.75,21.19.01.75,0,1.5,0,2.24,0,19.53-.08,39.05.03,58.58.06,10.78,4.82,18.86,14.84,23.3,14.61,6.48,31.9-4.08,33.03-20.05.11-1.49.14-2.99.14-4.48,0-19.36-.1-38.72.1-58.08.04-3.73.75-7.66,2.11-11.12,2.92-7.45,9.13-11.22,16.82-11.74,7.35-.5,14.81-.51,22.13.2,11.05,1.08,17.68,8.6,18.41,19.69.06.91.07,1.83.07,2.74,0,19.69,0,39.39,0,59.08.01,23.14-7.61,43.37-23.66,60.05-12.43,12.92-27.69,20.99-45.46,23.96-27.67,4.63-51.9-2.9-72.29-21.85-14.41-13.4-22.54-30.39-25.04-49.95-.57-4.44-.76-8.94-.83-13.41-.13-8.22-.04-16.45-.04-24.68ZM191.8,126.26c0,1,0,1.89,0,2.78,0,6.73-.02,13.46,0,20.19.02,6.4-1.06,12.59-3.79,18.38-7.11,15.1-23.31,26.18-43.17,23.94-17.35-1.96-33.54-16.63-35.67-33.9-1.03-8.36-.68-16.9-.93-25.36-.06-1.97,0-3.94,0-6.05h-23.93c-.08.51-.19.91-.18,1.3.12,9.22-.2,18.47.46,27.65,1.57,21.69,11.88,38.83,30.1,50.18,24.19,15.05,49.07,14.65,72.8-1.36,16.13-10.89,25.73-26.5,27.71-46.08.91-8.98.53-18.08.72-27.13.03-1.47,0-2.95,0-4.56h-24.13Z"/></g></svg>