<?xml version="1.0" encoding="UTF-8"?><svg id="Calque_2" xmlns="http://www.w3.org/2000/svg" viewBox="0 0 300 300"><defs><style>.cls-1{fill:#22b573;}.cls-1,.cls-2{stroke-width:0px;}.cls-2{fill:#fff;}</style></defs><g id="Calque_1-2"><rect class="cls-1" width="300" height="300"/><path class="cls-2" d="M153.45,53.7c16.05.84,30.96,5.1,44.33,14.14,18.59,12.57,29.61,30.1,33.81,52.04,2.63,13.72,3.12,27.35-1.41,40.87-3.78,11.27-10.04,21.1-17.05,30.53-14.58,19.62-32.69,35.57-52.15,50.09-7.15,5.33-14.73,5.36-21.9.04-22.64-16.79-43.18-35.68-58.79-59.44-8.14-12.38-13.92-25.76-13.88-40.71.09-33.64,12.41-60.91,43.01-77.73,10.47-5.75,21.91-8.55,33.83-9.3,3.4-.21,6.8-.36,10.2-.53ZM150.44,227.79c9.27-8.04,18.66-15.74,27.53-23.99,12.02-11.2,22.74-23.56,30.54-38.18,4.06-7.6,7.22-15.55,7.34-24.32.13-9.8-1.19-19.45-4.72-28.6-7.48-19.38-20.8-32.69-41.14-38.37-14.24-3.98-28.49-3.7-42.49.76-18.88,6.03-31.41,18.99-38.53,37.28-3.57,9.16-4.91,18.82-4.88,28.58.03,8.82,3.21,16.9,7.34,24.58,7.32,13.6,17.16,25.24,28.1,36.03,9.48,9.35,19.69,17.84,30.91,26.23Z"/><path class="cls-2" d="M169.13,173.42c-2.08,0-4.16.06-6.23-.01-3.83-.13-5.97-2.34-6.03-6.15-.24-14.83,11.13-27.75,25.95-29.17,5.03-.48,10.12-.45,15.18-.41,4.1.04,6.76,3.18,6.51,7.23-.88,13.91-10.15,24.93-23.72,27.76-3.78.79-7.75.7-11.63,1.02,0-.09-.01-.17-.02-.26Z"/><path class="cls-2" d="M109.45,136.88c4.03.44,8.15.5,12.07,1.4,12.73,2.94,21.9,13.78,23.06,26.79.33,3.67-1.64,6.78-5.12,6.99-7.69.47-15.47,1.08-22.91-1.65-11.86-4.35-18.23-13.06-19.47-25.54-.5-4.99,1.82-7.46,6.85-7.63,1.82-.06,3.65-.01,5.48-.01.01-.12.03-.24.04-.35Z"/></g></svg>