<?xml version="1.0" encoding="UTF-8"?><svg id="Calque_2" xmlns="http://www.w3.org/2000/svg" viewBox="0 0 300 300"><defs><style>.cls-1{fill:#22b573;}.cls-1,.cls-2{stroke-width:0px;}.cls-2{fill:#fff;}</style></defs><g id="Calque_1-2"><rect class="cls-1" width="300" height="300"/><path class="cls-2" d="M174.81,119.39v-17.66c25.25,1,46.23,10.61,59.44,32.21,20.55,33.61,14.94,64.96-11.68,93.55,4.81,0,9.51-.03,14.21.01,4.31.04,7.64,2.18,8.91,5.6,2.13,5.76-1.42,11.44-7.63,12.15-.74.08-1.49.06-2.24.06-56.7,0-113.39,0-170.09,0-.75,0-1.5.02-2.24-.05-4.97-.48-8.4-4.1-8.41-8.84-.01-4.74,3.4-8.38,8.38-8.87.91-.09,1.83-.06,2.74-.06,35.75,0,71.5.17,107.24-.07,19.84-.14,36.13-7.94,46.79-25.12,20.08-32.37,2.05-75.42-36.79-81.74-2.78-.45-5.59-.76-8.62-1.16Z"/><path class="cls-2" d="M150.77,65.79c5.77.49,9.91,3.02,11.35,8.85.33,1.35.38,2.79.38,4.19.02,27.19.03,54.38,0,81.57,0,8.62-4.45,13.02-13.07,13.07-1.49,0-2.98,0-4.89,0,0,1.94.03,3.74,0,5.53-.09,4.13-2.17,6.31-6.31,6.42-3.66.1-7.32.09-10.98,0-4.12-.1-6.21-2.2-6.43-6.36-.09-1.74-.02-3.48-.02-5.59-1.88,0-3.59.02-5.31,0-7.67-.11-12.02-4.18-12.62-11.82-.06-.74-.05-1.5-.05-2.24,0-26.52-.02-53.05.04-79.57,0-2.29.21-4.72.98-6.85,1.47-4.08,4.69-6.34,8.99-6.91,1.29-.17,2.02-.47,2.24-2.01.89-6.18,4.76-9.78,11.04-10.11,4.39-.23,8.82-.24,13.21,0,6.7.38,10.06,3.94,11.43,11.84ZM144.56,155.53v-71.69h-23.76v71.69h23.76Z"/><path class="cls-2" d="M132.82,197.55c10.72,0,21.44-.06,32.16.02,6.99.05,11.26,6.03,8.83,12.21-1.49,3.79-4.55,5.54-8.39,5.55-21.77.08-43.54.09-65.32.01-5.35-.02-9.12-3.91-9.1-8.91.03-5.11,3.86-8.83,9.41-8.86,10.8-.07,21.61-.02,32.41-.02Z"/></g></svg>