<?xml version="1.0" encoding="UTF-8"?><svg id="Calque_2" xmlns="http://www.w3.org/2000/svg" viewBox="0 0 300 300"><defs><style>.cls-1{fill:#fff;}.cls-1,.cls-2{stroke-width:0px;}.cls-2{fill:#ff9403;}</style></defs><g id="Calque_1-2"><rect class="cls-2" width="300" height="300"/><path class="cls-1" d="M134.19,150.47c-6.59-5.57-13.27-10.57-19.19-16.35-19.24-18.78-31.26-41.46-35.39-68.16-.24-1.56-.36-3.15-.35-4.72.01-4.15,2.5-6.65,6.65-6.77,7.61-.21,10.14.27,10.84,8.83.08.98.42,1.94.67,3.01h107.37c.3-2.23.51-4.45.9-6.64.57-3.25,2.24-4.85,5.48-5.14,1.9-.17,3.83-.2,5.73,0,3.63.37,5.66,2.63,5.27,6.5-.52,5.1-1.25,10.22-2.39,15.21-7.49,32.57-26.46,56.94-54.08,74.99-8.68,5.67-17.68,10.88-26.24,16.73-4.9,3.34-9.22,7.54-13.8,11.35.12.21.23.43.35.64h48.64c-2.08-2.62-4.53-5.68-6.96-8.75,4.43-2.92,9.37-6.18,14.42-9.5,10.5,9.52,19.68,20.13,26.44,32.74,7.05,13.16,11.7,27.08,13.75,41.87.18,1.31.32,2.65.23,3.97-.24,3.74-2.19,5.54-5.91,5.61-1.5.03-2.99.04-4.49,0-4.13-.1-6.26-1.95-6.96-6-.33-1.88-.66-3.76-1.02-5.79h-107.05c-.24,1.96-.46,3.92-.71,5.87-.53,4.04-2.53,5.83-6.62,5.93-.91.02-1.83,0-2.74,0-5.83,0-8.19-2.5-7.62-8.38,1.1-11.23,3.91-22.05,8.52-32.36,9.41-21.02,23.45-38.28,42.19-51.7,1.4-1,2.79-2.03,4.11-3ZM200.11,84.44h-98.28c3.09,5.92,5.91,11.44,8.88,16.88.32.58,1.47,1,2.23,1,25.34.05,50.68.05,76.02,0,.72,0,1.82-.3,2.11-.82,3.01-5.5,5.89-11.07,9.04-17.07ZM101.39,215.94h98.64c-3.24-5.97-6.19-11.51-9.28-16.97-.32-.57-1.51-.92-2.29-.92-25.18-.05-50.35-.05-75.53,0-.72,0-1.82.29-2.11.81-3.14,5.52-6.15,11.11-9.42,17.09ZM125.9,120.3c7.33,7.84,15.43,13.85,24.05,19.19.55.34,1.77.14,2.37-.27,4.41-2.95,8.86-5.86,13.05-9.1,3.75-2.89,7.18-6.2,10.75-9.32-.12-.17-.23-.34-.35-.5h-49.87Z"/></g></svg>