<?xml version="1.0" encoding="UTF-8"?><svg id="Calque_2" xmlns="http://www.w3.org/2000/svg" viewBox="0 0 300 300"><defs><style>.cls-1{fill:#3fa9f5;}.cls-1,.cls-2{stroke-width:0px;}.cls-2{fill:#fff;}</style></defs><g id="Calque_1-2"><rect class="cls-1" width="300" height="300"/><path class="cls-2" d="M57.75,160.46c-.9-2.13-1.69-4.04-2.49-5.93-2.24-5.27-1.27-7.91,3.92-10.43,19.86-9.67,39.72-19.33,59.59-28.99,20.69-10.06,41.37-20.11,62.06-30.17.73-.36,1.43-.77,2.12-1.13-2.16-7.75-1.69-8.72,5.8-11.87,12.86-5.4,25.72-10.79,38.59-16.16,5.29-2.21,8.03-1.08,10.24,4.2,10.25,24.5,20.48,49,30.72,73.5,2.12,5.08.86,8.13-4.3,10.26-13.51,5.56-27.03,11.1-40.56,16.63-5.68,2.32-7.87,1.42-10.34-4.15-.13-.29-.32-.55-.6-1.03-4.98,1.69-9.91,3.37-14.85,5.05-6.37,2.17-12.7,4.42-19.11,6.44-1.86.59-2.44,1.52-2.5,3.35-.14,4.69-1.65,8.98-4.52,12.69-1,1.3-1.06,2.37-.53,3.85,5.48,15.22,10.91,30.46,16.33,45.7,1.73,4.85.69,9.03-2.84,11.66-5.03,3.74-11.86,1.06-14.19-5.65-4.76-13.72-9.45-27.46-14.18-41.19-.32-.93-.68-1.85-.95-2.57h-11.16c-.39,1.03-.94,2.39-1.43,3.77-4.69,13.3-9.37,26.61-14.06,39.91-1.12,3.19-3,5.65-6.29,6.95-5.29,2.09-12-3.85-11.21-9.44.2-1.39.47-2.79.94-4.1,5.29-14.85,10.63-29.68,15.96-44.52.28-.77.52-1.55.95-2.83-1.18.35-2,.57-2.8.84-14.39,4.87-28.77,9.75-43.16,14.62-.86.29-1.74.54-2.63.74-3.59.81-5.91-.33-7.46-3.71-1.01-2.18-1.95-4.4-2.93-6.59-.06-.13-.24-.21-.56-.48-2.41.98-4.94,2.01-7.46,3.03-5.23,2.12-10.59,3.98-15.65,6.46-2.87,1.41-6.78.38-8.2-2.84-2.69-6.07-5.2-12.22-7.54-18.43-1.24-3.29.55-6.46,4.14-7.96,6.82-2.84,13.68-5.59,20.52-8.39.76-.31,1.52-.64,2.6-1.09ZM190.25,100.11c-38.47,18.66-76.73,37.22-115.08,55.82,3.47,8.33,6.81,16.34,10.19,24.46,12.28-4.3,24.27-8.47,36.21-12.77.72-.26,1.4-1.53,1.53-2.41,1.62-10.97,7.19-18.89,17.86-22.49,10.55-3.56,19.99-1.27,27.91,6.64,1.1,1.09,1.99,1.33,3.48.8,9.46-3.37,18.96-6.62,28.45-9.92,1.7-.59,3.39-1.2,5.22-1.84-5.26-12.77-10.41-25.27-15.76-38.28ZM202.81,84.82c7.69,18.64,15.24,36.94,22.9,55.52,7.36-3.04,14.53-6,21.87-9.04-7.66-18.58-15.23-36.94-22.9-55.52-7.38,3.05-14.49,5.99-21.87,9.04ZM149.28,176.53c5.09.01,9.04-3.67,9.15-8.55.12-5.15-4.06-9.49-9.14-9.5-4.77,0-8.78,4.03-8.87,8.94-.09,5.03,3.87,9.1,8.86,9.11Z"/></g></svg>