<?xml version="1.0" encoding="UTF-8"?><svg id="Calque_2" xmlns="http://www.w3.org/2000/svg" viewBox="0 0 300 300"><defs><style>.cls-1{fill:#22b573;}.cls-1,.cls-2{stroke-width:0px;}.cls-2{fill:#fff;}</style></defs><g id="Calque_1-2"><rect class="cls-1" width="300" height="300"/><path class="cls-2" d="M163.87,210.67c3.73,6.66,7.45,13.21,11.06,19.83.82,1.5,1.61,3.17,1.8,4.83.67,5.72-3.2,9.91-9.11,9.98-7.39.08-14.78.02-22.17.02-6.06,0-12.13.03-18.19,0-8.3-.04-12.35-6.92-8.34-14.25,3.7-6.77,7.52-13.47,11.42-20.42-1.29-1.07-2.57-2.08-3.8-3.14-19.88-17.01-36.24-36.71-46.56-61.02-6.04-14.24-5.61-28.69-.88-43.07,7.38-22.47,22.49-37.67,44.72-45.46,13.71-4.81,27.84-5.4,41.88-1.36,27.87,8.01,44.87,26.42,51.48,54.59,3.82,16.27.04,31.19-7.69,45.54-11.03,20.49-25.9,37.71-43.83,52.39-.57.47-1.11.97-1.78,1.55ZM200.96,125.47c-.59-15.08-5.47-27.92-15.92-38.14-25.56-25.01-67.6-19.02-84.96,12.22-7.08,12.74-9.21,26.37-3.87,40.53,2.87,7.61,7.1,14.42,11.81,20.98,9.63,13.44,20.39,25.85,33.71,35.75,5.99,4.45,4.72,4.57,10.77-.05,17.25-13.18,30.89-29.62,41.68-48.39,4.13-7.18,6.61-15.02,6.78-22.9Z"/><path class="cls-2" d="M105.61,118.91c1.25-18.47,17-33.93,37.14-34.99,5.63-.3,9.79,3.12,10.12,8.32.33,5.09-3.23,8.96-8.81,9.43-6.81.57-12.76,2.76-16.94,8.52-2.89,3.98-3.63,8.61-4.21,13.34-.83,6.78-7.51,10.1-13.36,6.65-3.69-2.18-4.42-5.75-3.95-11.27Z"/></g></svg>