<?xml version="1.0" encoding="UTF-8"?><svg id="Calque_2" xmlns="http://www.w3.org/2000/svg" viewBox="0 0 300 300"><defs><style>.cls-1{fill:#22b573;}.cls-1,.cls-2{stroke-width:0px;}.cls-2{fill:#fff;}</style></defs><g id="Calque_1-2"><rect class="cls-1" width="300" height="300"/><path class="cls-2" d="M98.07,65.94c12.16.43,23.51,3.95,34.36,9.2,5.15,2.49,10.14,5.32,15.1,8.17,1.57.9,2.67.97,4.24,0,11.35-7.02,23.26-12.79,36.38-15.73,8.11-1.81,16.23-2.49,24.38-.1,11.25,3.29,18.68,12.13,20.24,23.76,1.43,10.7-.56,20.95-4.54,30.69-3.56,8.72-8.12,17.04-12.4,25.46-.82,1.6-.95,2.69.04,4.23,6.95,10.91,12.65,22.4,15.51,35.11,1.97,8.74,2.94,17.53.17,26.32-3.45,10.92-13.12,18.66-24.53,19.72-11.99,1.11-23.31-1.82-34.15-6.37-7.47-3.13-14.47-7.36-21.74-10.97-.81-.4-2.25-.3-3.05.17-11.47,6.77-23.22,12.9-36.35,15.84-6.98,1.56-14.01,3.1-21.18,1.5-15.85-3.53-24.65-15.2-24.38-32.04.16-10.13,2.73-19.74,6.79-28.89,3.09-6.96,6.84-13.63,10.52-20.31.95-1.73.88-2.84-.1-4.45-7.08-11.61-12.97-23.74-15.8-37.15-1.9-8.99-2.42-17.95,1.2-26.69,4.35-10.52,12.76-15.49,23.57-17.1,1.48-.22,2.98-.25,4.47-.35.41-.03.83,0,1.25,0ZM149.82,106.09c-.16.18-.32.35-.48.53-.15.05-.34.05-.46.14-15.91,11.81-29.77,25.69-41.76,41.46-1,1.31-.34,2.04.39,3,11.59,15.23,25,28.62,40.21,40.23,1.22.93,1.96.9,3.17,0,15.47-11.44,28.96-24.85,40.37-40.36.92-1.25.97-2.03-.05-3.19-6.01-6.88-11.59-14.17-18.01-20.62-7.42-7.45-15.56-14.17-23.38-21.21ZM96.42,165.32c-.46.4-.62.49-.69.62-.5.86-1,1.73-1.46,2.61-5.31,10.04-9.64,20.39-10.43,31.93-.64,9.41,3.3,14.29,12.7,14.6,13.75.45,25.52-5.53,37.62-12.08-14.35-11.1-26.79-23.58-37.73-37.68ZM165.54,203.05c3.27,1.72,6,3.31,8.86,4.61,3.77,1.71,7.6,3.33,11.49,4.73,6,2.16,12.21,3.14,18.6,2.62,6.83-.56,10.65-4.42,10.87-11.22.1-2.89-.08-5.82-.51-8.67-1.63-10.75-6.29-20.35-11.69-30.03-11.05,14.17-23.35,26.69-37.61,37.97ZM203.18,133.62c1.68-3.16,3.27-5.8,4.52-8.58,1.81-4,3.85-7.98,4.92-12.19,1.39-5.41,2.48-11.02,2.69-16.59.28-7.7-3.59-11.59-11.2-12.56-1.39-.18-2.82-.16-4.22-.13-8.43.15-15.96,3.51-23.49,6.75-3.6,1.55-7,3.59-10.88,5.61,14.13,11.26,26.54,23.53,37.67,37.68ZM133.74,96.07c-7.41-4.46-14.66-7.96-22.51-9.9-4.79-1.19-9.74-2.35-14.63-2.35-8.53,0-12.48,4.37-12.81,12.87-.03.66.03,1.33.08,1.99.51,8.41,2.98,16.28,6.57,23.83,1.73,3.63,3.64,7.18,5.69,11.22,11.25-14.23,23.58-26.56,37.61-37.66Z"/><path class="cls-2" d="M137.52,148.81c.12-6.74,5.18-11.71,11.74-11.54,6.64.17,11.91,5.48,11.85,11.95-.07,7.13-5.06,11.9-12.26,11.72-6.82-.17-11.45-5.14-11.33-12.13Z"/></g></svg>