<?xml version="1.0" encoding="UTF-8"?><svg id="Calque_2" xmlns="http://www.w3.org/2000/svg" viewBox="0 0 300 300"><defs><style>.cls-1{fill:#22b573;}.cls-1,.cls-2{stroke-width:0px;}.cls-2{fill:#fff;}</style></defs><g id="Calque_1-2"><rect class="cls-1" width="300" height="300"/><path class="cls-2" d="M141.08,90.3c0-1.15,0-2.04,0-2.93,0-7.57-.03-15.14.01-22.7.02-3.54.83-6.81,4.15-8.81,6.17-3.72,13.4.19,13.56,7.47.17,7.9.05,15.8.05,23.7,0,.98,0,1.96,0,3.27h3.16c13.56,0,27.12-.01,40.67,0,5.57,0,10.91,1.06,15.83,3.77,9.47,5.21,14.07,13.51,15.11,24.03.11,1.07.09,2.16.09,3.24,0,31.19.07,62.38-.03,93.56-.04,12.8-5.3,22.61-17.26,28.21-4.37,2.05-9.04,2.75-13.82,2.75-35.02.02-70.03.02-105.05,0-18.59-.01-31.19-12.22-31.29-30.82-.18-31.35-.16-62.71,0-94.06.08-15.49,8.86-26.55,23.26-29.85,2.65-.61,5.44-.8,8.16-.81,13.47-.08,26.95-.04,40.42-.04.9,0,1.79,0,2.98,0ZM149.89,228.05c17.47,0,34.94,0,52.4,0,9.28,0,13.65-4.31,13.65-13.55.02-30.94.01-61.88-.01-92.82,0-1.57-.04-3.19-.41-4.7-1.45-5.88-5.77-8.84-12.74-8.84-35.02,0-70.04,0-105.06,0-9.32,0-13.73,4.43-13.73,13.8,0,30.77,0,61.55,0,92.32,0,9.35,4.43,13.78,13.74,13.79,17.39,0,34.77,0,52.16,0Z"/><path class="cls-2" d="M246.08,197.97v-71.64c2.41,0,4.67-.19,6.88.04,6.56.66,10.58,4.98,10.67,11.56.11,8.72.04,17.45.05,26.18,0,7.15.05,14.29-.02,21.44-.07,7.8-4.61,12.29-12.45,12.42-1.65.03-3.31,0-5.13,0Z"/><path class="cls-2" d="M53.9,197.72c-2.69,0-5.29.31-7.78-.06-5.8-.87-9.03-4.52-9.67-10.37-.09-.83-.18-1.66-.18-2.48-.01-15.14-.03-30.27,0-45.41.02-6.7,2.86-11.26,8.15-12.48,3.01-.69,6.2-.62,9.47-.9v71.71Z"/><path class="cls-2" d="M145.36,151.55c.03,13.99-11.46,25.51-25.35,25.44-13.87-.07-25.11-11.32-25.29-25.31-.17-13.8,11.51-25.5,25.4-25.44,13.9.07,25.21,11.4,25.24,25.3ZM127.54,151.53c-.01-4.15-3.25-7.4-7.43-7.45-4.25-.05-7.55,3.07-7.62,7.21-.07,4.17,3.63,7.94,7.7,7.85,3.98-.09,7.36-3.59,7.35-7.62Z"/><path class="cls-2" d="M205.25,151.47c.06,14.06-10.91,24.99-25.18,25.08-13.69.08-25.27-11.2-25.44-24.79-.18-13.94,11.05-24.98,25.49-25.07,14.02-.09,25.07,10.81,25.13,24.79ZM180,144.09c-4.09-.04-7.5,3.26-7.6,7.35-.1,3.96,3.61,7.73,7.59,7.71,3.96-.02,7.42-3.52,7.44-7.53.02-4.03-3.39-7.5-7.43-7.54Z"/><path class="cls-2" d="M110.79,209.94c-2.83,0-5.66.06-8.48-.02-3.77-.1-6.03-2.35-6.04-5.87,0-3.51,2.27-5.87,5.98-5.93,5.9-.08,11.81-.09,17.71,0,3.69.06,5.93,2.46,5.9,6-.03,3.42-2.23,5.6-5.85,5.8-.17,0-.33,0-.5,0-2.91,0-5.82,0-8.73,0Z"/><path class="cls-2" d="M188.75,209.94c-2.83,0-5.66.05-8.48-.01-3.8-.09-6.07-2.28-6.12-5.78-.05-3.6,2.29-5.98,6.15-6.02,5.74-.07,11.48-.06,17.21,0,3.91.04,6.23,2.32,6.24,5.93,0,3.62-2.28,5.81-6.26,5.89-2.91.05-5.82.01-8.73,0Z"/><path class="cls-2" d="M149.79,209.93c-1.99,0-3.99.09-5.97-.02-3.44-.19-5.56-2.43-5.62-5.75-.06-3.41,2.13-5.88,5.61-6.01,3.98-.14,7.96-.15,11.94-.01,3.85.14,6.15,2.61,6.04,6.16-.1,3.34-2.47,5.51-6.28,5.63-1.91.06-3.81.01-5.72.01,0,0,0-.01,0-.02Z"/></g></svg>