<?xml version="1.0" encoding="UTF-8"?><svg id="Calque_2" xmlns="http://www.w3.org/2000/svg" viewBox="0 0 300 300"><defs><style>.cls-1{fill:#fff;}.cls-1,.cls-2{stroke-width:0px;}.cls-2{fill:#ff9403;}</style></defs><g id="Calque_1-2"><rect class="cls-2" width="300" height="300"/><path class="cls-1" d="M172.49,74.39c3.91-1.48,7.67-3.02,11.51-4.32,15-5.11,30.02-10.18,45.06-15.2,4.87-1.62,9.2-.45,12.84,3.13,3.66,3.6,4.76,7.94,3.1,12.8-6.15,17.98-12.37,35.94-18.57,53.9-.27.77-.57,1.53-.85,2.3,1.7,1.22,3.42,2.24,4.88,3.56,4.67,4.2,5.91,11.03,2.6,17.13-13.21,24.34-26.73,48.49-45.16,69.44-11.91,13.53-26.18,23.31-44.13,26.77-20.47,3.94-39.5.17-56.7-11.75-14.4-9.98-24.84-23.21-29.6-40.13-8.17-29.03-.92-54.36,20.14-75.7,13.6-13.78,29.88-24.05,46.35-33.97,8.18-4.92,16.66-9.34,24.97-14.05,8.71-4.94,17.6-4.81,23.56,6.1ZM156.78,84.38c-.94.48-1.47.72-1.96,1.02-13.71,8.3-27.6,16.31-41.06,25-10.13,6.54-19.65,14.03-27.6,23.2-12.26,14.16-16.65,30.59-12.82,48.96,3.05,14.64,11.2,26.03,23.17,34.87,18.66,13.78,46.44,13.78,65.18.12,7.7-5.62,13.74-12.77,19.57-20.14,12.89-16.28,23.27-34.16,33.28-52.28.31-.56.49-1.18.79-1.9-4.68-1.37-9.18-2.68-14.01-4.09,9.48-20.95,16.69-42.34,23.47-63.88-.2-.28-.41-.55-.61-.83-21.12,7.79-42.25,15.58-63.52,23.43-1.15-4-2.48-8.6-3.88-13.47Z"/><path class="cls-1" d="M104.4,200.34c-.14,4.75,3.4,7.13,7.18,5.2,6.21-3.17,12.38-6.43,18.5-9.77,1.43-.78,2.48-.72,3.87.03,5.98,3.24,12.04,6.34,18.04,9.57,1.93,1.04,3.79,1.31,5.6-.04,1.85-1.39,2.29-3.28,1.9-5.54-1.15-6.71-2.16-13.44-3.33-20.14-.26-1.49.08-2.45,1.16-3.48,4.75-4.53,9.42-9.15,14.13-13.73,1.63-1.58,2.93-3.36,2.06-5.72-.89-2.43-2.72-3.83-5.39-4.21-6.33-.89-12.63-1.99-18.97-2.76-2.03-.24-3.03-1.09-3.85-2.83-2.8-5.93-5.7-11.81-8.63-17.67-1.58-3.16-4.46-4.39-6.87-2.8-1.17.77-2.09,2.13-2.75,3.42-2.97,5.84-5.84,11.74-8.67,17.65-.64,1.34-1.44,1.93-2.97,2.13-6.5.85-12.97,1.96-19.47,2.8-2.68.35-4.54,1.49-5.41,4.05-.84,2.47.3,4.29,2.04,5.96,4.6,4.44,9.1,9.01,13.76,13.39,1.47,1.38,1.74,2.72,1.4,4.62-1.22,6.78-2.27,13.58-3.31,19.88Z"/><path class="cls-1" d="M104.4,200.34c1.04-6.3,2.09-13.11,3.31-19.88.34-1.9.08-3.23-1.4-4.62-4.66-4.38-9.16-8.94-13.76-13.39-1.73-1.67-2.87-3.49-2.04-5.96.87-2.55,2.73-3.7,5.41-4.05,6.5-.84,12.97-1.95,19.47-2.8,1.53-.2,2.33-.79,2.97-2.13,2.83-5.91,5.7-11.81,8.67-17.65.65-1.29,1.58-2.65,2.75-3.42,2.41-1.59,5.29-.35,6.87,2.8,2.94,5.86,5.83,11.74,8.63,17.67.82,1.74,1.82,2.59,3.85,2.83,6.34.76,12.64,1.87,18.97,2.76,2.66.37,4.5,1.78,5.39,4.21.87,2.36-.43,4.14-2.06,5.72-4.71,4.57-9.37,9.2-14.13,13.73-1.08,1.03-1.42,2-1.16,3.48,1.17,6.7,2.18,13.43,3.33,20.14.39,2.26-.05,4.16-1.9,5.54-1.81,1.36-3.66,1.08-5.6.04-5.99-3.23-12.05-6.33-18.04-9.57-1.38-.75-2.44-.81-3.87-.03-6.12,3.34-12.29,6.59-18.5,9.77-3.77,1.93-7.32-.44-7.18-5.2Z"/></g></svg>