<?xml version="1.0" encoding="UTF-8"?><svg id="Calque_2" xmlns="http://www.w3.org/2000/svg" viewBox="0 0 300 300"><defs><style>.cls-1{fill:#3fa9f5;}.cls-1,.cls-2{stroke-width:0px;}.cls-2{fill:#fff;}</style></defs><g id="Calque_1-2"><rect class="cls-1" width="300" height="300"/><path class="cls-2" d="M148.69,226.96c-9.12-.14-18-1.65-26.47-5.07-1.7-.69-2.87-.42-4.3.57-11.31,7.78-22.96,14.97-35.97,19.61-5.18,1.85-10.46,3.25-16.06,2.89-6.75-.44-10.61-3.88-11.46-10.55-.78-6.11.88-11.88,2.92-17.52,4.65-12.83,11.75-24.34,19.45-35.5,1.07-1.56,1.17-2.77.53-4.52-8.15-22.13-6.83-43.9,4.31-64.5,11.07-20.49,28.45-33.35,51.39-38.39,14.57-3.2,28.89-2.37,42.86,2.8,2.66.99,4.48.7,6.75-.88,10.81-7.48,22.04-14.26,34.47-18.74,5.78-2.08,11.67-3.91,18-2.76,6.37,1.15,9.64,4.88,10.01,11.41.39,7.09-1.79,13.59-4.41,20-4.59,11.2-10.84,21.48-17.72,31.38-1.26,1.82-1.53,3.32-.75,5.44,11.54,31.46,2.55,65.4-23.11,86.79-12.34,10.29-26.65,15.99-42.72,17.16-1.33.1-2.65.28-3.97.34-1.24.06-2.49.01-3.74.01ZM118.85,201.07c10.57-9.51,21.12-18.64,31.27-28.21,17.43-16.43,33.91-33.76,49.01-52.38,1.07-1.32,1.34-2.21.15-3.59-2.05-2.39-3.81-5.03-5.9-7.39-17.95-20.27-45.87-24.76-69.17-13.95-22.83,10.59-36.51,33.78-34.29,60.03,1.68,19.89,12.39,34.15,28.92,45.49ZM138.09,208.44c22.47,3.51,41.72-2.42,56.81-19.82,12.61-14.53,16.33-31.54,13.48-51.02-21.59,26.08-44.89,49.4-70.29,70.84ZM212.4,101.95c3.48-5.23,7.83-11.22,9.67-18.5,1.29-5.09-1.3-7.63-6.36-6.29-7.25,1.91-13.26,6.17-18.3,9.62,5,5.06,9.99,10.11,15,15.18ZM86.54,197.32c-2.1,3.59-4.79,7.85-7.11,12.31-1.21,2.31-2.04,4.92-2.54,7.48-.81,4.14,1.46,6.22,5.58,5.33,7.66-1.66,13.81-6.21,19.23-9.77-5.02-5.08-10-10.14-15.15-15.35Z"/></g></svg>