<?xml version="1.0" encoding="UTF-8"?><svg id="Calque_2" xmlns="http://www.w3.org/2000/svg" viewBox="0 0 300 300"><defs><style>.cls-1{fill:#3fa9f5;}.cls-1,.cls-2{stroke-width:0px;}.cls-2{fill:#fff;}</style></defs><g id="Calque_1-2"><rect class="cls-1" width="300" height="300"/><path class="cls-2" d="M138.91,212.96c0-7.31.2-14.63-.04-21.94-.48-14.16-11.81-26.73-25.82-28.85-2.29-.35-4.62-.52-6.94-.53-13.47-.05-26.94-.07-40.4,0-3.93.02-7.31-.87-9.28-4.55-1.91-3.57-1.19-7.02.83-10.38,6.15-10.25,12.29-20.51,18.36-30.82,5.7-9.68,14.24-14.31,25.34-14.39,8.98-.06,17.96-.05,26.94.02,1.6.01,2.55-.49,3.44-1.82,7.52-11.18,16.16-21.37,27.4-29,12.71-8.63,26.75-13.86,42.04-15.71,10.12-1.22,20.22-1.34,30.33-.03,4.97.65,10.01,1.58,12.36,6.61,1.4,3,2.06,6.5,2.38,9.83,1.76,18.17.38,35.91-6.69,53.06-7.49,18.15-19.77,32.16-35.87,42.94-3.44,2.3-4.87,4.59-4.67,8.75.36,7.88.02,15.79.12,23.69.15,11.45-4.73,19.87-14.64,25.6-10.28,5.95-20.41,12.14-30.63,18.19-5.04,2.99-10.55,2.03-13.03-2.54-.97-1.79-1.28-4.11-1.33-6.21-.15-7.31-.06-14.63-.06-21.94-.04,0-.09,0-.13,0ZM228.12,72.62c-.97-.1-1.78-.26-2.58-.26-6.55-.02-13.13-.32-19.66.05-12.5.71-24.21,4.41-34.67,11.28-13.07,8.59-22.49,20.58-29.87,34.2-5.31,9.8-9.04,20.26-12.07,30.87.24.26.32.43.46.5,9.27,4.7,16.04,11.95,21.15,20.86.73,1.28,1.5,1.26,2.64.82,9.19-3.58,18.74-6.44,27.51-10.86,18.21-9.18,33.2-21.97,41.46-41.34,6.3-14.79,7.22-30.19,5.64-46.11Z"/><path class="cls-2" d="M55.32,245.29c-.34-9.71.14-19.12,1.61-28.5,1.38-8.83,3.31-17.42,7.96-25.2,6.89-11.5,16.71-18.34,30.39-17.72,13.71.62,23.93,7.41,29.1,20.26,5.21,12.95,2.93,25.17-6.73,35.28-6.95,7.27-16.21,10.81-25.95,12.88-11.5,2.45-23.13,3.51-34.89,3.13-.41-.01-.82-.07-1.48-.12ZM79.29,216.38c0,1.08-.21,2.22.07,3.22.2.73,1.04,1.81,1.62,1.82,6.31.2,12.46-.47,17.84-4.2,4-2.77,4.78-6.86,4-11.26-.81-4.56-3.78-7.21-8.3-8.16-4.27-.89-8.83.75-11.06,3.97-3.05,4.4-4.11,9.35-4.16,14.6Z"/><path class="cls-2" d="M192.76,122.26c-8.5-.04-14.79-6.36-14.74-14.83.04-7.92,6.91-14.8,14.81-14.85,7.97-.05,14.83,6.92,14.83,15.05,0,8.46-6.33,14.67-14.9,14.63Z"/></g></svg>