<?xml version="1.0" encoding="UTF-8"?>
<svg id="Calque_2"
    xmlns="http://www.w3.org/2000/svg"
    xmlns:xlink="http://www.w3.org/1999/xlink" viewBox="0 0 259.89 273.87">
    <defs>
        <style>.cls-1,.cls-2,.cls-3,.cls-4,.cls-5{fill:none;}.cls-2{stroke:#fff;stroke-width:.28px;}.cls-2,.cls-3,.cls-4,.cls-5{stroke-miterlimit:10;}.cls-6{clip-path:url(#clippath);}.cls-7{fill:#e3c455;}.cls-8{fill:#fff;}.cls-9{fill:#999;}.cls-10{fill:#64c3dd;}.cls-11{fill:#333;}.cls-12{fill:#ccc;}.cls-13{fill:#1a1a1a;}.cls-14{fill:gray;}.cls-15{fill:#484848;}.cls-16{fill:#4d4d4d;}.cls-17{clip-path:url(#clippath-1);}.cls-18{clip-path:url(#clippath-4);}.cls-19{clip-path:url(#clippath-3);}.cls-20{clip-path:url(#clippath-2);}.cls-21{clip-path:url(#clippath-7);}.cls-22{clip-path:url(#clippath-8);}.cls-23{clip-path:url(#clippath-6);}.cls-24{clip-path:url(#clippath-5);}.cls-25{clip-path:url(#clippath-9);}.cls-3{stroke:#000;}.cls-4{stroke:gray;}.cls-5{stroke:#999;stroke-width:2.83px;}</style>
        <clipPath id="clippath">
            <rect class="cls-1" x="45.17" y="38.78" width="86.82" height="9.25"/>
        </clipPath>
        <clipPath id="clippath-1">
            <rect class="cls-1" x="49.47" y="45.17" width="77.37" height="9.25"/>
        </clipPath>
        <clipPath id="clippath-2">
            <rect class="cls-1" x="44.62" y="225.83" width="86.82" height="9.25"/>
        </clipPath>
        <clipPath id="clippath-3">
            <rect class="cls-1" x="48.92" y="219.44" width="77.37" height="9.25"/>
        </clipPath>
        <clipPath id="clippath-4">
            <ellipse id="masque" class="cls-1" cx="236.1" cy="113.71" rx="3.5" ry="14.78"/>
        </clipPath>
        <clipPath id="clippath-5">
            <rect class="cls-1" x="232.44" y="98.91" width="7.14" height="29.6"/>
        </clipPath>
        <clipPath id="clippath-6">
            <rect class="cls-1" x="232.58" y="98.91" width="7" height="30.21"/>
        </clipPath>
        <clipPath id="clippath-7">
            <ellipse id="masque-2" class="cls-1" cx="236.1" cy="161.61" rx="3.5" ry="14.78"/>
        </clipPath>
        <clipPath id="clippath-8">
            <rect class="cls-1" x="232.44" y="146.81" width="7.14" height="29.6"/>
        </clipPath>
        <clipPath id="clippath-9">
            <rect class="cls-1" x="232.58" y="146.81" width="7" height="30.21"/>
        </clipPath>
    </defs>
    <g id="Calque_1-2">
        <g id="mbot2">
            <g id="wheels">
                <g id="wheel_left">
                    <g id="wheel">
                        <path id="wheel-2" class="cls-15" d="M91.02,66.96c22.49,0,44.1,1.14,44.46,2.75,3.67-.42,5.97-3.37,5.97-6.48v-15.73c0-5.09-4.98-8.59-10.46-10.35-2.75-1.34-18.73-3.25-39.37-3.25-16.14,0-29.09,1.03-35.72,1.95-8.1,.66-15.31,5.14-15.31,11.65v15.73c0,3.11,2.41,6.06,6.08,6.48,.11-1.59,21.86-2.75,44.35-2.75Z"/>
                        <ellipse id="wheel_inside" class="cls-11" cx="91.64" cy="65.83" rx="42.49" ry="8.17"/>
                    </g>
                    <g id="outlines">
                        <path class="cls-11" d="M40.59,55.31c-.06-.94,.05-1.91,.54-2.8,.5-.89,1.34-1.62,2.29-2.21,1.92-1.16,4.17-1.82,6.4-2.39,4.51-1.05,9.13-1.57,13.75-1.98,9.24-.77,18.51-.93,27.76-.96,9.25,.04,18.51,.18,27.75,.88,4.62,.36,9.24,.84,13.77,1.83,2.23,.54,4.52,1.16,6.41,2.39,.94,.61,1.68,1.45,2,2.39,.3,.95,.25,1.9,.2,2.84-.05-.94-.13-1.89-.52-2.75-.39-.86-1.12-1.58-2.04-2.09-1.84-1.03-4.09-1.51-6.31-1.9-2.23-.39-4.5-.64-6.78-.82-2.28-.19-4.57-.34-6.86-.44-4.59-.2-9.19-.33-13.8-.38-4.6-.07-9.21-.1-13.82-.09-4.61-.01-9.22,.02-13.82,.1-4.6,.06-9.2,.22-13.79,.44-4.57,.28-9.16,.6-13.62,1.41-2.21,.42-4.43,.94-6.34,1.91-.94,.49-1.78,1.13-2.33,1.93-.56,.8-.79,1.74-.85,2.68Z"/>
                        <g class="cls-6">
                            <g>
                                <path class="cls-11" d="M122.33,38.77c1.75,1.14,3.45,2.34,5.14,3.55,1.79,1.15,3.41,2.43,4.51,4.32,0,0-.09,.11-.09,.11-2.07-.7-3.66-2.03-5.14-3.55-1.52-1.42-3.04-2.84-4.51-4.32l.09-.11h0Z"/>
                                <path class="cls-11" d="M112.53,38.77c1.75,1.14,3.45,2.34,5.14,3.55,1.79,1.15,3.41,2.43,4.51,4.32,0,0-.09,.11-.09,.11-2.07-.7-3.66-2.03-5.14-3.55-1.52-1.42-3.04-2.84-4.51-4.32l.09-.11h0Z"/>
                                <path class="cls-11" d="M102.72,38.77c1.75,1.14,3.45,2.34,5.14,3.55,1.79,1.15,3.41,2.43,4.51,4.32,0,0-.09,.11-.09,.11-2.07-.7-3.66-2.03-5.14-3.55-1.52-1.42-3.04-2.84-4.51-4.32l.09-.11h0Z"/>
                                <path class="cls-11" d="M92.91,38.77c1.75,1.14,3.45,2.34,5.14,3.55,1.79,1.15,3.41,2.43,4.51,4.32,0,0-.09,.11-.09,.11-2.07-.7-3.66-2.03-5.14-3.55-1.52-1.42-3.04-2.84-4.51-4.32l.09-.11h0Z"/>
                                <path class="cls-11" d="M83.11,38.77c1.75,1.14,3.45,2.34,5.14,3.55,1.79,1.15,3.41,2.43,4.51,4.32,0,0-.09,.11-.09,.11-2.07-.7-3.66-2.03-5.14-3.55-1.52-1.42-3.04-2.84-4.51-4.32l.09-.11h0Z"/>
                                <path class="cls-11" d="M73.3,38.77c1.75,1.14,3.45,2.34,5.14,3.55,1.79,1.15,3.41,2.43,4.51,4.32,0,0-.09,.11-.09,.11-2.07-.7-3.66-2.03-5.14-3.55-1.52-1.42-3.04-2.84-4.51-4.32l.09-.11h0Z"/>
                                <path class="cls-11" d="M63.49,38.77c1.75,1.14,3.45,2.34,5.14,3.55,1.79,1.15,3.41,2.43,4.51,4.32,0,0-.09,.11-.09,.11-2.07-.7-3.66-2.03-5.14-3.55-1.52-1.42-3.04-2.84-4.51-4.32l.09-.11h0Z"/>
                                <path class="cls-11" d="M53.68,38.77c1.75,1.14,3.45,2.34,5.14,3.55,1.79,1.15,3.41,2.43,4.51,4.32,0,0-.09,.11-.09,.11-2.07-.7-3.66-2.03-5.14-3.55-1.52-1.42-3.04-2.84-4.51-4.32l.09-.11h0Z"/>
                                <path class="cls-11" d="M43.88,38.77c1.75,1.14,3.45,2.34,5.14,3.55,1.79,1.15,3.41,2.43,4.51,4.32,0,0-.09,.11-.09,.11-2.07-.7-3.66-2.03-5.14-3.55-1.52-1.42-3.04-2.84-4.51-4.32l.09-.11h0Z"/>
                            </g>
                        </g>
                        <g class="cls-17">
                            <g>
                                <path class="cls-11" d="M48.28,54.32c1.47-1.48,2.99-2.9,4.51-4.32,1.48-1.52,3.07-2.85,5.14-3.55,0,0,.09,.11,.09,.11-1.1,1.89-2.72,3.17-4.51,4.32-1.69,1.21-3.39,2.41-5.14,3.55l-.09-.11h0Z"/>
                                <path class="cls-11" d="M58.08,54.32c1.47-1.48,2.99-2.9,4.51-4.32,1.48-1.52,3.07-2.85,5.14-3.55,0,0,.09,.11,.09,.11-1.1,1.89-2.72,3.17-4.51,4.32-1.69,1.21-3.39,2.41-5.14,3.55l-.09-.11h0Z"/>
                                <path class="cls-11" d="M67.89,54.32c1.47-1.48,2.99-2.9,4.51-4.32,1.48-1.52,3.07-2.85,5.14-3.55,0,0,.09,.11,.09,.11-1.1,1.89-2.72,3.17-4.51,4.32-1.69,1.21-3.39,2.41-5.14,3.55l-.09-.11h0Z"/>
                                <path class="cls-11" d="M77.7,54.32c1.47-1.48,2.99-2.9,4.51-4.32,1.48-1.52,3.07-2.85,5.14-3.55,0,0,.09,.11,.09,.11-1.1,1.89-2.72,3.17-4.51,4.32-1.69,1.21-3.39,2.41-5.14,3.55l-.09-.11h0Z"/>
                                <path class="cls-11" d="M87.5,54.32c1.47-1.48,2.99-2.9,4.51-4.32,1.48-1.52,3.07-2.85,5.14-3.55,0,0,.09,.11,.09,.11-1.1,1.89-2.72,3.17-4.51,4.32-1.69,1.21-3.39,2.41-5.14,3.55l-.09-.11h0Z"/>
                                <path class="cls-11" d="M97.31,54.32c1.47-1.48,2.99-2.9,4.51-4.32,1.48-1.52,3.07-2.85,5.14-3.55,0,0,.09,.11,.09,.11-1.1,1.89-2.72,3.17-4.51,4.32-1.69,1.21-3.39,2.41-5.14,3.55l-.09-.11h0Z"/>
                                <path class="cls-11" d="M107.12,54.32c1.47-1.48,2.99-2.9,4.51-4.32,1.48-1.52,3.07-2.85,5.14-3.55,0,0,.09,.11,.09,.11-1.1,1.89-2.72,3.17-4.51,4.32-1.69,1.21-3.39,2.41-5.14,3.55l-.09-.11h0Z"/>
                                <path class="cls-11" d="M116.92,54.32c1.47-1.48,2.99-2.9,4.51-4.32,1.48-1.52,3.07-2.85,5.14-3.55,0,0,.09,.11,.09,.11-1.1,1.89-2.72,3.17-4.51,4.32-1.69,1.21-3.39,2.41-5.14,3.55l-.09-.11h0Z"/>
                                <path class="cls-11" d="M126.73,54.32c1.47-1.48,2.99-2.9,4.51-4.32,1.48-1.52,3.07-2.85,5.14-3.55,0,0,.09,.11,.09,.11-1.1,1.89-2.72,3.17-4.51,4.32-1.69,1.21-3.39,2.41-5.14,3.55l-.09-.11h0Z"/>
                            </g>
                        </g>
                    </g>
                    <rect class="cls-14" x="86.74" y="54.27" width="8.65" height="15.45" transform="translate(153.06 -29.08) rotate(90)"/>
                </g>
                <g id="wheel_right">
                    <g id="wheel-3">
                        <path id="wheel-4" class="cls-15" d="M90.47,206.91c22.49,0,44.1-1.14,44.46-2.75,3.67,.42,5.97,3.37,5.97,6.48v15.73c0,5.09-4.98,8.59-10.46,10.35-2.75,1.34-18.73,3.25-39.37,3.25-16.14,0-29.09-1.03-35.72-1.95-8.1-.66-15.31-5.14-15.31-11.65v-15.73c0-3.11,2.41-6.06,6.08-6.48,.11,1.59,21.86,2.75,44.35,2.75Z"/>
                        <ellipse id="wheel_inside-2" class="cls-11" cx="91.09" cy="208.03" rx="42.49" ry="8.17"/>
                    </g>
                    <g id="outlines-2">
                        <path class="cls-11" d="M40.04,218.55c-.06,.94,.05,1.91,.54,2.8,.5,.89,1.34,1.62,2.29,2.21,1.92,1.16,4.17,1.82,6.4,2.39,4.51,1.05,9.13,1.57,13.75,1.98,9.24,.77,18.51,.93,27.76,.96,9.25-.04,18.51-.18,27.75-.88,4.62-.36,9.24-.84,13.77-1.83,2.23-.54,4.52-1.16,6.41-2.39,.94-.61,1.68-1.45,2-2.39,.3-.95,.25-1.9,.2-2.84-.05,.94-.13,1.89-.52,2.75-.39,.86-1.12,1.58-2.04,2.09-1.84,1.03-4.09,1.51-6.31,1.9-2.23,.39-4.5,.64-6.78,.82-2.28,.19-4.57,.34-6.86,.44-4.59,.2-9.19,.33-13.8,.38-4.6,.07-9.21,.1-13.82,.09-4.61,.01-9.22-.02-13.82-.1-4.6-.06-9.2-.22-13.79-.44-4.57-.28-9.16-.6-13.62-1.41-2.21-.42-4.43-.94-6.34-1.91-.94-.49-1.78-1.13-2.33-1.93-.56-.8-.79-1.74-.85-2.68Z"/>
                        <g class="cls-20">
                            <g>
                                <path class="cls-11" d="M43.24,234.99c1.47-1.48,2.99-2.9,4.51-4.32,1.48-1.52,3.07-2.85,5.14-3.55,0,0,.09,.11,.09,.11-1.1,1.89-2.72,3.17-4.51,4.32-1.69,1.21-3.39,2.41-5.14,3.55l-.09-.11h0Z"/>
                                <path class="cls-11" d="M53.05,234.99c1.47-1.48,2.99-2.9,4.51-4.32,1.48-1.52,3.07-2.85,5.14-3.55,0,0,.09,.11,.09,.11-1.1,1.89-2.72,3.17-4.51,4.32-1.69,1.21-3.39,2.41-5.14,3.55l-.09-.11h0Z"/>
                                <path class="cls-11" d="M62.85,234.99c1.47-1.48,2.99-2.9,4.51-4.32,1.48-1.52,3.07-2.85,5.14-3.55,0,0,.09,.11,.09,.11-1.1,1.89-2.72,3.17-4.51,4.32-1.69,1.21-3.39,2.41-5.14,3.55l-.09-.11h0Z"/>
                                <path class="cls-11" d="M72.66,234.99c1.47-1.48,2.99-2.9,4.51-4.32,1.48-1.52,3.07-2.85,5.14-3.55,0,0,.09,.11,.09,.11-1.1,1.89-2.72,3.17-4.51,4.32-1.69,1.21-3.39,2.41-5.14,3.55l-.09-.11h0Z"/>
                                <path class="cls-11" d="M82.46,234.99c1.47-1.48,2.99-2.9,4.51-4.32,1.48-1.52,3.07-2.85,5.14-3.55,0,0,.09,.11,.09,.11-1.1,1.89-2.72,3.17-4.51,4.32-1.69,1.21-3.39,2.41-5.14,3.55l-.09-.11h0Z"/>
                                <path class="cls-11" d="M92.27,234.99c1.47-1.48,2.99-2.9,4.51-4.32,1.48-1.52,3.07-2.85,5.14-3.55,0,0,.09,.11,.09,.11-1.1,1.89-2.72,3.17-4.51,4.32-1.69,1.21-3.39,2.41-5.14,3.55l-.09-.11h0Z"/>
                                <path class="cls-11" d="M102.08,234.99c1.47-1.48,2.99-2.9,4.51-4.32,1.48-1.52,3.07-2.85,5.14-3.55,0,0,.09,.11,.09,.11-1.1,1.89-2.72,3.17-4.51,4.32-1.69,1.21-3.39,2.41-5.14,3.55l-.09-.11h0Z"/>
                                <path class="cls-11" d="M111.88,234.99c1.47-1.48,2.99-2.9,4.51-4.32,1.48-1.52,3.07-2.85,5.14-3.55,0,0,.09,.11,.09,.11-1.1,1.89-2.72,3.17-4.51,4.32-1.69,1.21-3.39,2.41-5.14,3.55l-.09-.11h0Z"/>
                                <path class="cls-11" d="M121.69,234.99c1.47-1.48,2.99-2.9,4.51-4.32,1.48-1.52,3.07-2.85,5.14-3.55,0,0,.09,.11,.09,.11-1.1,1.89-2.72,3.17-4.51,4.32-1.69,1.21-3.39,2.41-5.14,3.55l-.09-.11h0Z"/>
                            </g>
                        </g>
                        <g class="cls-19">
                            <g>
                                <path class="cls-11" d="M126.26,219.43c1.75,1.14,3.45,2.34,5.14,3.55,1.79,1.15,3.41,2.43,4.51,4.32,0,0-.09,.11-.09,.11-2.07-.7-3.66-2.03-5.14-3.55-1.52-1.42-3.04-2.84-4.51-4.32l.09-.11h0Z"/>
                                <path class="cls-11" d="M116.46,219.43c1.75,1.14,3.45,2.34,5.14,3.55,1.79,1.15,3.41,2.43,4.51,4.32,0,0-.09,.11-.09,.11-2.07-.7-3.66-2.03-5.14-3.55-1.52-1.42-3.04-2.84-4.51-4.32l.09-.11h0Z"/>
                                <path class="cls-11" d="M106.65,219.43c1.75,1.14,3.45,2.34,5.14,3.55,1.79,1.15,3.41,2.43,4.51,4.32,0,0-.09,.11-.09,.11-2.07-.7-3.66-2.03-5.14-3.55-1.52-1.42-3.04-2.84-4.51-4.32l.09-.11h0Z"/>
                                <path class="cls-11" d="M96.84,219.43c1.75,1.14,3.45,2.34,5.14,3.55,1.79,1.15,3.41,2.43,4.51,4.32,0,0-.09,.11-.09,.11-2.07-.7-3.66-2.03-5.14-3.55-1.52-1.42-3.04-2.84-4.51-4.32l.09-.11h0Z"/>
                                <path class="cls-11" d="M87.04,219.43c1.75,1.14,3.45,2.34,5.14,3.55,1.79,1.15,3.41,2.43,4.51,4.32,0,0-.09,.11-.09,.11-2.07-.7-3.66-2.03-5.14-3.55-1.52-1.42-3.04-2.84-4.51-4.32l.09-.11h0Z"/>
                                <path class="cls-11" d="M77.23,219.43c1.75,1.14,3.45,2.34,5.14,3.55,1.79,1.15,3.41,2.43,4.51,4.32,0,0-.09,.11-.09,.11-2.07-.7-3.66-2.03-5.14-3.55-1.52-1.42-3.04-2.84-4.51-4.32l.09-.11h0Z"/>
                                <path class="cls-11" d="M67.42,219.43c1.75,1.14,3.45,2.34,5.14,3.55,1.79,1.15,3.41,2.43,4.51,4.32,0,0-.09,.11-.09,.11-2.07-.7-3.66-2.03-5.14-3.55-1.52-1.42-3.04-2.84-4.51-4.32l.09-.11h0Z"/>
                                <path class="cls-11" d="M57.62,219.43c1.75,1.14,3.45,2.34,5.14,3.55,1.79,1.15,3.41,2.43,4.51,4.32,0,0-.09,.11-.09,.11-2.07-.7-3.66-2.03-5.14-3.55-1.52-1.42-3.04-2.84-4.51-4.32l.09-.11h0Z"/>
                                <path class="cls-11" d="M47.81,219.43c1.75,1.14,3.45,2.34,5.14,3.55,1.79,1.15,3.41,2.43,4.51,4.32,0,0-.09,.11-.09,.11-2.07-.7-3.66-2.03-5.14-3.55-1.52-1.42-3.04-2.84-4.51-4.32l.09-.11h0Z"/>
                            </g>
                        </g>
                    </g>
                    <rect class="cls-14" x="85.95" y="203.37" width="10.23" height="15.45" transform="translate(302.16 120.02) rotate(90)"/>
                </g>
            </g>
            <path id="body" class="cls-10" d="M259.87,205.38c-.13-.93-1.02-1.57-1.96-1.57h-39.45s-.05-.02-.05-.05v-2.3s.02-.05,.05-.05h0c2.82,0,5.1-2.28,5.1-5.1V77.3c0-2.82-2.28-5.1-5.1-5.1h0s-.05-.02-.05-.05v-2.11s.02-.05,.05-.05h39.45c.94,0,1.83-.64,1.96-1.57,.16-1.13-.71-2.1-1.82-2.1H31.09s-29.26,1.83-29.26,1.83c-1.01,0-1.83,.82-1.83,1.83s.82,1.83,1.83,1.83l29.26-1.83h0s18.65,0,18.65,0c.03,0,.05,.02,.05,.05v2.11s-.02,.05-.05,.05h-.92c-2.82,0-5.1,2.28-5.1,5.1v119.01c0,2.82,2.28,5.1,5.1,5.1h.92s.05,.02,.05,.05v2.3s-.02,.05-.05,.05H31.09s-29.26-1.83-29.26-1.83c-1.01,0-1.83,.82-1.83,1.83s.82,1.83,1.83,1.83l29.26,1.83h0s226.96,0,226.96,0c1.1,0,1.97-.97,1.82-2.1Z"/>
            <g id="capteur_ultrason">
                <g>
                    <path class="cls-7" d="M204.98,126.46h15.09c1.56,0,2.82,1.26,2.82,2.82v15.09c0,1.56-1.26,2.82-2.82,2.82h-15.09c-1.56,0-2.82-1.26-2.82-2.82v-15.09c0-1.56,1.26-2.82,2.82-2.82Z"/>
                    <path class="cls-11" d="M220.07,127.88c.77,0,1.4,.63,1.4,1.4v15.09c0,.77-.63,1.4-1.4,1.4h-15.09c-.77,0-1.4-.63-1.4-1.4v-15.09c0-.77,.63-1.4,1.4-1.4h15.09m0-2.83h-15.09c-2.34,0-4.24,1.9-4.24,4.24v15.09c0,2.34,1.9,4.24,4.24,4.24h15.09c2.34,0,4.24-1.9,4.24-4.24v-15.09c0-2.34-1.9-4.24-4.24-4.24h0Z"/>
                </g>
                <g id="under">
                    <path class="cls-16" d="M229.45,93.79c0-.43-.28-.82-.69-.95l-5.94-2.03c-.65-.21-5.65-.52-5.65,1.63v90.79c0,2.09,5.01,1.48,5.65,1.27l5.94-2.68c.41-.13,.69-.52,.69-.95V93.79Zm-1.02,1.92c0-.83,.16-1.49,.35-1.49s.35,.67,.35,1.49-.16,1.49-.35,1.49-.35-.67-.35-1.49Zm0,83.25c0-.83,.16-1.49,.35-1.49s.35,.67,.35,1.49-.16,1.49-.35,1.49-.35-.67-.35-1.49Z"/>
                </g>
                <g id="top">
                    <path class="cls-13" d="M230.79,137.67v-43.55c0-.43-.28-.82-.69-.95l-7.29-2.35c-.65-.21-1.31,.27-1.31,.95v91.79c0,.68,.66,1.16,1.31,.95l7.29-2.35c.41-.13,.69-.52,.69-.95v-43.53Zm-1.02-41.63c0-.83,.16-1.49,.35-1.49s.35,.67,.35,1.49-.16,1.49-.35,1.49-.35-.67-.35-1.49Zm0,83.25c0-.83,.16-1.49,.35-1.49s.35,.67,.35,1.49-.16,1.49-.35,1.49-.35-.67-.35-1.49Z"/>
                </g>
                <g id="connectors">
                    <rect class="cls-12" x="228.51" y="127.31" width="1.87" height="20.06" rx=".94" ry=".94"/>
                </g>
                <g id="yeux">
                    <path id="thickness" class="cls-13" d="M236.1,129.56h-10c-2.07,0-3.75-7.11-3.75-15.85s1.68-15.85,3.75-15.85h10"/>
                    <ellipse id="background" class="cls-12" cx="236.08" cy="113.71" rx="3.5" ry="14.78"/>
                    <g id="grid">
                        <g class="cls-18">
                            <g class="cls-24">
                                <g>
                                    <line class="cls-3" x1="239.58" y1="99.09" x2="232.59" y2="99.09"/>
                                    <line class="cls-3" x1="239.58" y1="100.66" x2="232.59" y2="100.66"/>
                                    <line class="cls-3" x1="239.58" y1="102.23" x2="232.59" y2="102.23"/>
                                    <line class="cls-3" x1="239.58" y1="103.8" x2="232.59" y2="103.8"/>
                                    <line class="cls-3" x1="239.58" y1="105.37" x2="232.59" y2="105.37"/>
                                    <line class="cls-3" x1="239.58" y1="106.94" x2="232.59" y2="106.94"/>
                                    <line class="cls-3" x1="239.58" y1="108.51" x2="232.59" y2="108.51"/>
                                    <line class="cls-3" x1="239.58" y1="110.08" x2="232.59" y2="110.08"/>
                                    <line class="cls-3" x1="239.58" y1="111.65" x2="232.59" y2="111.65"/>
                                    <line class="cls-3" x1="239.58" y1="113.21" x2="232.59" y2="113.21"/>
                                    <line class="cls-3" x1="239.58" y1="114.78" x2="232.59" y2="114.78"/>
                                    <line class="cls-3" x1="239.58" y1="116.35" x2="232.59" y2="116.35"/>
                                    <line class="cls-3" x1="239.58" y1="117.92" x2="232.59" y2="117.92"/>
                                    <line class="cls-3" x1="239.58" y1="119.49" x2="232.59" y2="119.49"/>
                                    <line class="cls-3" x1="239.58" y1="121.06" x2="232.59" y2="121.06"/>
                                    <line class="cls-3" x1="239.58" y1="122.63" x2="232.59" y2="122.63"/>
                                    <line class="cls-3" x1="239.58" y1="124.2" x2="232.59" y2="124.2"/>
                                    <line class="cls-3" x1="239.58" y1="125.76" x2="232.59" y2="125.76"/>
                                    <line class="cls-3" x1="239.58" y1="127.33" x2="232.59" y2="127.33"/>
                                    <line class="cls-3" x1="239.58" y1="128.9" x2="232.59" y2="128.9"/>
                                </g>
                            </g>
                            <g class="cls-23">
                                <g>
                                    <line class="cls-3" x1="232.63" y1="98.91" x2="232.63" y2="128.47"/>
                                    <line class="cls-3" x1="233.76" y1="98.91" x2="233.76" y2="128.47"/>
                                    <line class="cls-3" x1="234.9" y1="98.91" x2="234.9" y2="128.47"/>
                                    <line class="cls-3" x1="236.03" y1="98.91" x2="236.03" y2="128.47"/>
                                    <line class="cls-3" x1="237.16" y1="98.91" x2="237.16" y2="128.47"/>
                                    <line class="cls-3" x1="238.3" y1="98.91" x2="238.3" y2="128.47"/>
                                    <line class="cls-3" x1="239.43" y1="98.91" x2="239.43" y2="128.47"/>
                                </g>
                            </g>
                        </g>
                    </g>
                    <path id="outline" class="cls-16" d="M231.93,113.71c0-8.74,2.1-15.85,4.17-15.85s3.75,7.11,3.75,15.85-1.68,15.85-3.75,15.85-4.17-7.11-4.17-15.85Zm7.65,0c0-7.56-1.69-13.71-3.48-13.71s-3.24,6.15-3.24,13.71,1.45,13.71,3.24,13.71,3.48-6.15,3.48-13.71Z"/>
                </g>
                <g id="yeux-2">
                    <path id="thickness-2" class="cls-13" d="M236.1,177.46h-10c-2.07,0-3.75-7.11-3.75-15.85s1.68-15.85,3.75-15.85h10"/>
                    <ellipse id="background-2" class="cls-12" cx="236.08" cy="161.61" rx="3.5" ry="14.78"/>
                    <g id="grid-2">
                        <g class="cls-21">
                            <g class="cls-22">
                                <g>
                                    <line class="cls-3" x1="239.58" y1="147" x2="232.59" y2="147"/>
                                    <line class="cls-3" x1="239.58" y1="148.57" x2="232.59" y2="148.57"/>
                                    <line class="cls-3" x1="239.58" y1="150.14" x2="232.59" y2="150.14"/>
                                    <line class="cls-3" x1="239.58" y1="151.71" x2="232.59" y2="151.71"/>
                                    <line class="cls-3" x1="239.58" y1="153.27" x2="232.59" y2="153.27"/>
                                    <line class="cls-3" x1="239.58" y1="154.84" x2="232.59" y2="154.84"/>
                                    <line class="cls-3" x1="239.58" y1="156.41" x2="232.59" y2="156.41"/>
                                    <line class="cls-3" x1="239.58" y1="157.98" x2="232.59" y2="157.98"/>
                                    <line class="cls-3" x1="239.58" y1="159.55" x2="232.59" y2="159.55"/>
                                    <line class="cls-3" x1="239.58" y1="161.12" x2="232.59" y2="161.12"/>
                                    <line class="cls-3" x1="239.58" y1="162.69" x2="232.59" y2="162.69"/>
                                    <line class="cls-3" x1="239.58" y1="164.26" x2="232.59" y2="164.26"/>
                                    <line class="cls-3" x1="239.58" y1="165.83" x2="232.59" y2="165.83"/>
                                    <line class="cls-3" x1="239.58" y1="167.39" x2="232.59" y2="167.39"/>
                                    <line class="cls-3" x1="239.58" y1="168.96" x2="232.59" y2="168.96"/>
                                    <line class="cls-3" x1="239.58" y1="170.53" x2="232.59" y2="170.53"/>
                                    <line class="cls-3" x1="239.58" y1="172.1" x2="232.59" y2="172.1"/>
                                    <line class="cls-3" x1="239.58" y1="173.67" x2="232.59" y2="173.67"/>
                                    <line class="cls-3" x1="239.58" y1="175.24" x2="232.59" y2="175.24"/>
                                    <line class="cls-3" x1="239.58" y1="176.81" x2="232.59" y2="176.81"/>
                                </g>
                            </g>
                            <g class="cls-25">
                                <g>
                                    <line class="cls-3" x1="232.63" y1="146.81" x2="232.63" y2="176.37"/>
                                    <line class="cls-3" x1="233.76" y1="146.81" x2="233.76" y2="176.37"/>
                                    <line class="cls-3" x1="234.9" y1="146.81" x2="234.9" y2="176.37"/>
                                    <line class="cls-3" x1="236.03" y1="146.81" x2="236.03" y2="176.37"/>
                                    <line class="cls-3" x1="237.16" y1="146.81" x2="237.16" y2="176.37"/>
                                    <line class="cls-3" x1="238.3" y1="146.81" x2="238.3" y2="176.37"/>
                                    <line class="cls-3" x1="239.43" y1="146.81" x2="239.43" y2="176.37"/>
                                </g>
                            </g>
                        </g>
                    </g>
                    <path id="outline-2" class="cls-16" d="M231.93,161.61c0-8.74,2.1-15.85,4.17-15.85s3.75,7.11,3.75,15.85-1.68,15.85-3.75,15.85-4.17-7.11-4.17-15.85Zm7.65,0c0-7.56-1.69-13.71-3.48-13.71s-3.24,6.15-3.24,13.71,1.45,13.71,3.24,13.71,3.48-6.15,3.48-13.71Z"/>
                </g>
            </g>
            <g id="box">
                <g id="background-3">
                    <path class="cls-11" d="M107.9,200.86V76h70.17l33.01,2c2.23,0,4.03,1.8,4.03,4.03v12.54c0,.95-.33,1.87-.94,2.59l-.11,.13c-.61,.73-.94,1.64-.94,2.59v75.6c0,.98,.36,1.92,1,2.66h0c.64,.73,1,1.68,1,2.66v14.03c0,2.23-1.8,4.03-4.03,4.03l-33.01,2H107.9Z"/>
                </g>
                <g id="screws">
                    <circle class="cls-14" cx="204.71" cy="89.89" r="6.15"/>
                    <circle class="cls-14" cx="204.71" cy="185.43" r="6.15"/>
                </g>
                <rect id="on_off" x="176.29" y="73" width="6" height="6" rx="1.23" ry="1.23" transform="translate(255.29 -103.29) rotate(90)"/>
                <g id="battery">
                    <rect class="cls-14" x="110.91" y="89.99" width="27.4" height="96.55" rx="3" ry="3"/>
                </g>
                <g id="components">
                    <rect class="cls-14" x="152.66" y="79.31" width="17.1" height="10.48" transform="translate(245.76 -76.67) rotate(90)"/>
                    <rect class="cls-14" x="139.27" y="79.31" width="17.1" height="10.48" transform="translate(232.36 -63.27) rotate(90)"/>
                    <rect class="cls-14" x="152.66" y="187.07" width="17.1" height="10.48" transform="translate(353.52 31.1) rotate(90)"/>
                    <polygon class="cls-14" points="188.51 200.23 188.51 189.28 178.03 189.28 178.03 200.86 188.51 200.23"/>
                    <rect class="cls-14" x="139.27" y="187.07" width="17.1" height="10.48" transform="translate(340.13 44.49) rotate(90)"/>
                </g>
                <g id="outlines-3">
                    <path class="cls-9" d="M177.98,78.83l32.92,1.99h.09s.09,0,.09,0c.66,0,1.19,.54,1.19,1.19v12.54c0,.28-.1,.55-.28,.77l-.11,.13c-1.04,1.23-1.61,2.8-1.61,4.41v75.6c0,1.67,.6,3.27,1.7,4.53,.19,.22,.3,.5,.3,.79v14.03c0,.66-.54,1.19-1.19,1.19h-.17s-32.92,2-32.92,2H110.73V78.83h67.25m.09-2.83H107.9v124.86h70.17l33.01-2c2.23,0,4.03-1.8,4.03-4.03v-14.03c0-.98-.36-1.92-1-2.66s-1-1.68-1-2.66V99.89c0-.95,.33-1.87,.94-2.59l.11-.13c.61-.73,.94-1.64,.94-2.59v-12.54c0-2.23-1.8-4.03-4.03-4.03l-33.01-2h0Z"/>
                    <path class="cls-9" d="M175.23,78.83v21.25l2.87-.03,14.57-.17,17.6,1.2v73.28l-17.64,1.15-14.58,.09-2.82,.02v22.42H110.73V78.83h64.5m2.83-2.83H107.9v124.86h70.17v-22.44l14.66-.09,20.37-1.33V98.42l-20.35-1.38-14.68,.17v-21.21h0Z"/>
                    <g>
                        <circle class="cls-4" cx="176.29" cy="125.78" r="4.92"/>
                        <circle class="cls-4" cx="176.29" cy="149.51" r="4.92"/>
                        <circle class="cls-4" cx="153.06" cy="125.78" r="4.92"/>
                        <circle class="cls-4" cx="153.06" cy="149.51" r="4.92"/>
                        <rect class="cls-4" x="143" y="115.98" width="43.34" height="43.34" rx="10" ry="10" transform="translate(302.32 -27.02) rotate(90)"/>
                    </g>
                    <line class="cls-5" x1="192.74" y1="97.21" x2="192.74" y2="178.42"/>
                </g>
                <g id="texte">
                    <g>
                        <path class="cls-8" d="M129.85,111.09c.6,0,1.09-.01,1.57-.05v.92l-.94,.05v.04c.55,.32,1.07,.86,1.07,1.82,0,.79-.48,1.39-1.16,1.64v.02c.32,.18,.58,.41,.76,.65,.26,.35,.41,.73,.41,1.28,0,.77-.5,1.91-2.52,1.91h-3.42v-1.03h3.29c1.12,0,1.79-.41,1.79-1.26,0-.6-.44-1.07-.96-1.25-.14-.05-.34-.08-.53-.08h-3.59v-1.03h3.48c.92,0,1.6-.41,1.6-1.21,0-.66-.53-1.14-1.06-1.31-.16-.06-.34-.08-.52-.08h-3.5v-1.03h4.23Z"/>
                        <path class="cls-8" d="M125.61,124.31l.73-.08v-.04c-.46-.32-.86-.95-.86-1.78,0-1.17,.83-1.77,1.67-1.77,1.4,0,2.17,1.25,2.16,3.49h.12c.48,0,1.34-.13,1.34-1.32,0-.54-.17-1.1-.43-1.51l.7-.24c.31,.48,.52,1.17,.52,1.91,0,1.78-1.21,2.21-2.37,2.21h-2.17c-.5,0-1,.02-1.39,.1v-.96Zm2.96-.16c.02-1.15-.18-2.46-1.31-2.46-.68,0-1.01,.46-1.01,1,0,.76,.48,1.24,.97,1.4,.11,.04,.23,.06,.34,.06h1.01Z"/>
                        <path class="cls-8" d="M128.75,127.92v.02c.2,.14,.46,.35,.66,.52l2,1.7v1.27l-2.39-2.24-3.42,2.55v-1.28l2.78-2-.6-.54h-2.18v-1.04h8.52v1.04h-5.37Z"/>
                        <path class="cls-8" d="M128.32,133.09c-1.43,.02-2.01,.94-2.01,1.99,0,.76,.13,1.21,.3,1.61l-.76,.18c-.17-.37-.36-1.01-.36-1.93,0-1.79,1.18-2.85,2.93-2.85s3.13,1.03,3.13,2.72c0,1.89-1.67,2.4-2.73,2.4-.22,0-.38-.02-.49-.04v-4.08Zm.76,3.09c.67,.01,1.71-.28,1.71-1.46,0-1.07-.98-1.54-1.71-1.62v3.08Z"/>
                        <path class="cls-8" d="M125.61,138.47c.4,.02,.98,.05,1.5,.05h7.02v1.04h-3.65v.02c.65,.37,1.07,1.04,1.07,1.98,0,1.44-1.2,2.46-2.96,2.45-2.08,0-3.11-1.31-3.11-2.6,0-.84,.32-1.51,1.09-1.94v-.04l-.96-.05v-.91Zm2.33,1.09c-.13,0-.26,.02-.38,.05-.73,.2-1.24,.82-1.24,1.58,0,1.1,.9,1.76,2.23,1.76,1.16,0,2.16-.6,2.16-1.73,0-.72-.49-1.39-1.3-1.61-.12-.02-.26-.06-.43-.06h-1.04Z"/>
                        <path class="cls-8" d="M134.13,145.35v1.05h-8.52v-1.05h8.52Z"/>
                        <path class="cls-8" d="M128.56,153.43c-2.15,0-3.08-1.49-3.08-2.89,0-1.57,1.15-2.78,2.99-2.78,1.94,0,3.08,1.27,3.08,2.88s-1.21,2.79-2.99,2.79Zm-.06-4.61c-1.27,0-2.23,.73-2.23,1.76s.95,1.76,2.25,1.76c.98,0,2.23-.49,2.23-1.74s-1.15-1.79-2.25-1.79Z"/>
                        <path class="cls-8" d="M125.83,158.9c-.14-.28-.34-.89-.34-1.67,0-1.75,1.19-2.89,2.96-2.89s3.08,1.22,3.08,3.12c0,.62-.16,1.17-.3,1.46l-.82-.24c.14-.25,.28-.65,.28-1.22,0-1.33-.98-2.05-2.19-2.05-1.34,0-2.17,.86-2.17,2.01,0,.6,.16,1,.29,1.29l-.79,.18Z"/>
                        <path class="cls-8" d="M128.75,161.19v.02c.2,.14,.46,.35,.66,.52l2,1.7v1.27l-2.39-2.24-3.42,2.55v-1.28l2.78-2-.6-.54h-2.18v-1.04h8.52v1.04h-5.37Z"/>
                    </g>
                    <g>
                        <path class="cls-8" d="M120.08,113.42h-1.6v-.62h2.95v.62h-.54c.18,.09,.32,.22,.43,.4,.1,.18,.16,.37,.16,.58,0,.47-.19,.78-.58,.95,.38,.29,.58,.66,.58,1.09,0,.33-.1,.6-.31,.81-.2,.21-.5,.31-.88,.31h-1.81v-.62h1.62c.54,0,.82-.23,.82-.68,0-.21-.07-.39-.2-.55s-.33-.24-.59-.25h-1.64v-.62h1.62c.28,0,.49-.05,.62-.15,.13-.1,.2-.26,.2-.47s-.07-.4-.21-.56c-.14-.16-.35-.24-.62-.24Z"/>
                        <path class="cls-8" d="M118.48,120.21v-1.7h3.88v1.51c0,.26-.03,.49-.09,.68-.06,.19-.15,.33-.26,.42-.2,.18-.43,.27-.68,.27-.3,0-.53-.1-.68-.29-.05-.07-.08-.12-.1-.14-.01-.03-.03-.07-.06-.14-.05,.24-.16,.43-.32,.57s-.37,.21-.61,.21c-.27,0-.51-.09-.72-.28-.24-.22-.36-.59-.36-1.12Zm2.27-1.04v.83c0,.47,.16,.71,.48,.71,.18,0,.32-.06,.4-.17,.08-.12,.12-.29,.12-.53v-.84h-1Zm-1.66,0v1.03c0,.24,.04,.43,.11,.55,.08,.13,.22,.19,.43,.19,.34,0,.52-.28,.52-.83v-.94h-1.06Z"/>
                        <path class="cls-8" d="M118.88,124.81c-.29-.3-.44-.67-.44-1.11s.15-.81,.44-1.11,.65-.44,1.08-.44,.79,.15,1.08,.44,.44,.67,.44,1.11-.15,.81-.44,1.11c-.29,.3-.65,.44-1.08,.44s-.79-.15-1.08-.44Zm.38-1.78c-.18,.18-.27,.4-.27,.67s.09,.49,.27,.67c.18,.18,.41,.26,.7,.26s.52-.09,.7-.26c.18-.18,.27-.4,.27-.67s-.09-.49-.27-.67c-.18-.18-.41-.26-.7-.26s-.52,.09-.7,.26Z"/>
                        <path class="cls-8" d="M120.94,126.68h-1.5c-.14,0-.25,.04-.34,.11-.08,.07-.12,.18-.12,.31s.06,.26,.19,.38l-.44,.26c-.2-.22-.29-.46-.29-.72s.09-.49,.27-.68,.43-.28,.74-.28h1.48v-.37h.5v.37h.93v.62h-.93v.78h-.5v-.78Z"/>
                        <path class="cls-8" d="M120.85,129.85c.15,.11,.31,.17,.46,.17s.29-.06,.4-.18,.16-.27,.16-.45c0-.32-.16-.58-.49-.79l.31-.53c.26,.17,.45,.36,.58,.56,.13,.21,.19,.47,.19,.79s-.1,.61-.31,.85c-.21,.24-.49,.37-.84,.37-.2,0-.39-.05-.57-.15-.18-.1-.41-.29-.7-.57l-.93-.91v1.76h-.63v-2.65h.56l1.18,1.18c.27,.26,.48,.45,.63,.56Z"/>
                        <path class="cls-8" d="M118.62,133.32c.1-.18,.23-.31,.4-.41,.17-.1,.36-.15,.57-.15s.4,.05,.57,.15,.31,.24,.4,.41c.1,.18,.15,.37,.15,.59s-.05,.41-.15,.59c-.1,.18-.23,.31-.4,.41-.17,.1-.36,.15-.58,.15s-.41-.05-.58-.15c-.17-.1-.31-.24-.4-.41s-.15-.37-.15-.59,.05-.41,.15-.59Zm.13,1.09c.08,.15,.2,.27,.35,.36s.32,.13,.5,.13,.35-.04,.5-.13,.27-.21,.35-.36c.08-.15,.13-.32,.13-.5s-.04-.35-.13-.51c-.08-.15-.2-.27-.35-.36s-.32-.13-.5-.13-.35,.04-.5,.13-.27,.21-.35,.36c-.08,.15-.13,.32-.13,.51s.04,.35,.13,.5Z"/>
                        <path class="cls-8" d="M119.97,136.87c-.12,.12-.29,.18-.52,.18h-.97v-.16h.95c.19,0,.33-.05,.43-.14,.1-.09,.15-.23,.15-.39,0-.19-.06-.35-.17-.46-.12-.11-.27-.17-.47-.17h-.88v-.16h1.66v.15h-.36c.12,.06,.21,.14,.27,.26,.07,.11,.1,.25,.1,.4,0,.21-.06,.37-.18,.49Z"/>
                        <path class="cls-8" d="M119.27,139.11v-1.42c-.13,0-.24,.04-.34,.1-.1,.06-.18,.14-.23,.25s-.08,.22-.08,.35c0,.11,.02,.21,.06,.3,.04,.09,.1,.17,.17,.23l-.1,.09c-.09-.07-.15-.16-.2-.27-.05-.11-.07-.23-.07-.35,0-.16,.04-.31,.11-.44,.07-.13,.17-.23,.3-.3,.13-.07,.27-.11,.43-.11s.31,.03,.43,.1c.13,.07,.23,.16,.3,.28,.07,.12,.11,.26,.11,.41s-.04,.28-.11,.4c-.07,.12-.17,.21-.3,.28-.13,.07-.27,.1-.43,.1h-.04Zm.66-1.1c-.05-.09-.12-.17-.22-.22-.09-.06-.2-.09-.32-.1v1.27c.12,0,.22-.04,.32-.1,.09-.06,.17-.13,.22-.23,.05-.09,.08-.2,.08-.31s-.03-.22-.08-.31Z"/>
                        <path class="cls-8" d="M118.48,142.01l.74-.53c-.01-.08-.02-.15-.02-.22v-.63h-.73v-.16h2.22v.8c0,.28-.07,.5-.2,.66-.13,.16-.32,.24-.55,.24-.18,0-.32-.04-.44-.13-.12-.09-.2-.22-.25-.39l-.78,.56v-.18Zm.87-.74c0,.24,.05,.42,.16,.54s.25,.19,.45,.19,.34-.06,.45-.19,.16-.31,.16-.54v-.63h-1.21v.63Z"/>
                        <path class="cls-8" d="M118.58,142.93c.07-.13,.17-.22,.3-.3,.13-.07,.27-.11,.43-.11s.31,.04,.43,.11c.13,.07,.23,.17,.3,.3,.07,.13,.11,.27,.11,.42s-.04,.3-.11,.42c-.07,.13-.17,.22-.3,.3-.13,.07-.27,.11-.43,.11s-.31-.04-.43-.11c-.13-.07-.23-.17-.3-.3-.07-.13-.11-.27-.11-.42s.04-.3,.11-.42Zm.12,.76c.06,.1,.14,.18,.25,.24s.23,.09,.36,.09,.26-.03,.36-.09,.19-.14,.25-.24,.09-.21,.09-.34-.03-.24-.09-.34c-.06-.1-.14-.18-.25-.24s-.23-.09-.36-.09-.26,.03-.36,.09-.19,.14-.25,.24c-.06,.1-.09,.21-.09,.34s.03,.24,.09,.34Z"/>
                        <path class="cls-8" d="M120.05,145.92c-.07,.12-.17,.22-.3,.29-.13,.07-.27,.11-.44,.11s-.31-.04-.43-.11c-.13-.07-.23-.17-.3-.29-.07-.12-.11-.26-.11-.42s.04-.28,.11-.4,.17-.21,.3-.28h-.39v-.15h2.35v.16h-1.08c.12,.07,.22,.16,.29,.28,.07,.12,.1,.25,.1,.4,0,.15-.04,.29-.11,.42Zm-1.34-.09c.06,.1,.14,.18,.25,.24s.23,.09,.36,.09,.26-.03,.36-.09,.19-.14,.25-.24,.09-.22,.09-.34-.03-.24-.09-.34c-.06-.1-.14-.18-.25-.24-.11-.06-.23-.09-.36-.09s-.26,.03-.36,.09c-.11,.06-.19,.14-.25,.24-.06,.1-.09,.21-.09,.34s.03,.24,.09,.34Z"/>
                        <path class="cls-8" d="M118.58,147.03c.07-.13,.17-.22,.3-.3,.13-.07,.27-.11,.43-.11s.31,.04,.43,.11c.13,.07,.23,.17,.3,.3,.07,.13,.11,.27,.11,.42s-.04,.3-.11,.42c-.07,.13-.17,.22-.3,.3-.13,.07-.27,.11-.43,.11s-.31-.04-.43-.11c-.13-.07-.23-.17-.3-.3-.07-.13-.11-.27-.11-.42s.04-.3,.11-.42Zm.12,.76c.06,.1,.14,.18,.25,.24s.23,.09,.36,.09,.26-.03,.36-.09,.19-.14,.25-.24,.09-.21,.09-.34-.03-.24-.09-.34c-.06-.1-.14-.18-.25-.24s-.23-.09-.36-.09-.26,.03-.36,.09-.19,.14-.25,.24c-.06,.1-.09,.21-.09,.34s.03,.24,.09,.34Z"/>
                        <path class="cls-8" d="M118.59,149.6s-.07-.09-.09-.15c-.02-.06-.03-.12-.03-.19,0-.14,.04-.25,.12-.33,.08-.08,.19-.12,.33-.12h1.08v-.3h.14v.3h.36v.16h-.36v.53h-.14v-.53h-1.07c-.11,0-.19,.03-.25,.08-.06,.05-.08,.13-.08,.23s.03,.19,.09,.26l-.11,.07Z"/>
                        <path class="cls-8" d="M120.51,152.36c-.13,.16-.32,.24-.55,.24s-.42-.08-.55-.24c-.13-.16-.2-.38-.2-.66v-.63h-.73v-.16h2.22v.8c0,.28-.07,.5-.2,.66Zm-.99-.11c.1,.12,.25,.19,.44,.19s.34-.06,.45-.19,.16-.31,.16-.54v-.63h-1.2v.63c0,.24,.05,.42,.16,.54Z"/>
                        <path class="cls-8" d="M119.27,154.48v-1.42c-.13,0-.24,.04-.34,.1-.1,.06-.18,.14-.23,.25s-.08,.22-.08,.35c0,.11,.02,.21,.06,.3,.04,.09,.1,.17,.17,.23l-.1,.09c-.09-.07-.15-.16-.2-.27-.05-.11-.07-.23-.07-.35,0-.16,.04-.31,.11-.44,.07-.13,.17-.23,.3-.3,.13-.07,.27-.11,.43-.11s.31,.03,.43,.1c.13,.07,.23,.16,.3,.28,.07,.12,.11,.26,.11,.41s-.04,.28-.11,.4c-.07,.12-.17,.21-.3,.28-.13,.07-.27,.1-.43,.1h-.04Zm.66-1.1c-.05-.09-.12-.17-.22-.22-.09-.06-.2-.09-.32-.1v1.27c.12,0,.22-.04,.32-.1,.09-.06,.17-.13,.22-.23,.05-.09,.08-.2,.08-.31s-.03-.22-.08-.31Z"/>
                        <path class="cls-8" d="M120.06,155.36c.06,.11,.1,.24,.1,.39h-.16v-.04c0-.18-.05-.33-.17-.43-.11-.1-.28-.16-.48-.16h-.86v-.16h1.66v.15h-.36c.12,.05,.21,.13,.28,.24Z"/>
                        <path class="cls-8" d="M118.58,157.26c.07-.13,.17-.23,.3-.3,.13-.07,.27-.11,.43-.11s.31,.04,.44,.11c.13,.07,.23,.17,.3,.3,.07,.13,.11,.27,.11,.43,0,.13-.03,.25-.08,.36s-.13,.2-.23,.26l-.09-.12c.08-.06,.14-.13,.19-.22,.04-.09,.06-.18,.06-.29,0-.13-.03-.24-.09-.35-.06-.1-.14-.18-.25-.24s-.23-.09-.36-.09-.26,.03-.36,.09-.19,.14-.25,.24c-.06,.1-.09,.22-.09,.35,0,.11,.02,.2,.06,.29,.04,.09,.1,.16,.19,.22l-.09,.12c-.1-.07-.18-.16-.23-.26s-.08-.23-.08-.36c0-.16,.04-.3,.11-.43Z"/>
                        <path class="cls-8" d="M119.97,160.07c-.12,.12-.29,.18-.52,.18h-.97v-.16h.95c.19,0,.33-.05,.43-.14,.1-.09,.15-.23,.15-.39,0-.19-.06-.35-.17-.46-.12-.11-.27-.17-.47-.17h-.88v-.16h2.35v.16h-1.04c.11,.06,.2,.14,.26,.25,.06,.11,.09,.24,.09,.4,0,.21-.06,.37-.18,.49Z"/>
                        <path class="cls-8" d="M120.58,160.89s.05-.04,.09-.04,.07,.01,.09,.04c.03,.03,.04,.06,.04,.09s-.01,.07-.04,.09c-.02,.03-.05,.04-.09,.04s-.07-.01-.09-.04c-.03-.02-.04-.06-.04-.09s.01-.07,.04-.09Zm-.44,.01v.16h-1.66v-.16h1.66Z"/>
                        <path class="cls-8" d="M120.84,161.73v.16h-2.35v-.16h2.35Z"/>
                        <path class="cls-8" d="M120.84,164.03h-2.35v-.16h.39c-.13-.07-.23-.16-.3-.28-.07-.12-.1-.25-.1-.4s.04-.29,.11-.42c.07-.12,.17-.22,.3-.29,.13-.07,.27-.11,.43-.11s.31,.03,.44,.11c.13,.07,.23,.17,.3,.29,.07,.12,.11,.26,.11,.42s-.03,.28-.1,.4c-.07,.12-.17,.21-.29,.28h1.08v.16Zm-2.13-.48c.06,.1,.14,.18,.25,.24s.23,.09,.36,.09,.26-.03,.36-.09,.19-.14,.25-.24,.09-.21,.09-.34-.03-.24-.09-.34c-.06-.1-.14-.18-.25-.24s-.23-.09-.36-.09-.26,.03-.36,.09-.19,.14-.25,.24c-.06,.1-.09,.21-.09,.34s.03,.24,.09,.34Z"/>
                    </g>
                    <rect class="cls-2" x="92.9" y="134.55" width="54.38" height="7.36" rx="1" ry="1" transform="translate(258.32 18.13) rotate(90)"/>
                </g>
                <g id="joystick">
                    <g id="background-4">
                        <rect class="cls-11" x="53.22" y="77.41" width="53.26" height="122.03"/>
                        <path class="cls-9" d="M105.07,78.83v119.19H54.64V78.83h50.43m2.83-2.83H51.8v124.86h56.1V76h0Z"/>
                    </g>
                    <g id="components-2">
                        <rect class="cls-16" x="61.44" y="184.76" width="13.82" height="13.25"/>
                    </g>
                    <g id="butons">
                        <path id="buton_right" class="cls-14" d="M90.31,195h.27c1,0,1.82,.82,1.82,1.82v10.18c0,1-.82,1.82-1.82,1.82h-.27v-13.82h0Z" transform="translate(293.26 110.55) rotate(90)"/>
                        <g id="buton_play">
                            <path class="cls-14" d="M68.35,185.26c-.61,0-1.16-.34-1.43-.88l-5.81-11.62c-.25-.5-.22-1.08,.07-1.55,.29-.47,.8-.76,1.36-.76h11.62c.56,0,1.07,.28,1.36,.76,.29,.47,.32,1.06,.07,1.55l-5.81,11.62c-.27,.54-.82,.88-1.43,.88Z"/>
                            <path class="cls-9" d="M74.16,170.94c.82,0,1.35,.86,.98,1.59l-5.81,11.62c-.2,.4-.59,.61-.98,.61s-.78-.2-.98-.61l-5.81-11.62c-.37-.73,.17-1.59,.98-1.59h11.62m0-1h-11.62c-.73,0-1.4,.37-1.78,1-.39,.62-.42,1.39-.09,2.04l5.81,11.62c.36,.72,1.08,1.16,1.88,1.16s1.52-.44,1.88-1.16l5.81-11.62c.33-.65,.29-1.42-.09-2.04-.39-.62-1.05-1-1.79-1h0Z"/>
                        </g>
                        <g id="buton_square">
                            <rect class="cls-14" x="83.94" y="170.44" width="14.82" height="14.82" rx="2.5" ry="2.5"/>
                            <path class="cls-9" d="M96.26,170.94c1.1,0,2,.9,2,2v9.82c0,1.1-.9,2-2,2h-9.82c-1.1,0-2-.9-2-2v-9.82c0-1.1,.9-2,2-2h9.82m0-1h-9.82c-1.65,0-3,1.35-3,3v9.82c0,1.65,1.35,3,3,3h9.82c1.65,0,3-1.35,3-3v-9.82c0-1.65-1.35-3-3-3h0Z"/>
                        </g>
                        <g id="buton_circle">
                            <circle class="cls-14" cx="79.85" cy="97.88" r="11.56"/>
                            <path class="cls-9" d="M79.85,87.74c5.6,0,10.14,4.54,10.14,10.14s-4.54,10.14-10.14,10.14-10.14-4.54-10.14-10.14,4.54-10.14,10.14-10.14m0-2.83c-7.16,0-12.98,5.82-12.98,12.98s5.82,12.98,12.98,12.98,12.98-5.82,12.98-12.98-5.82-12.98-12.98-12.98h0Z"/>
                        </g>
                    </g>
                    <g id="screen">
                        <rect id="rectangle_black" x="55.65" y="117.99" width="47.79" height="44.1" transform="translate(219.59 60.5) rotate(90)"/>
                        <rect id="rectangle_white" class="cls-8" x="59.32" y="118.03" width="40.8" height="40.8" transform="translate(218.15 58.71) rotate(90)"/>
                    </g>
                </g>
            </g>
        </g>
    </g>
</svg>