<?xml version="1.0" encoding="UTF-8"?><svg id="Calque_2" xmlns="http://www.w3.org/2000/svg" viewBox="0 0 305 305"><defs><style>.cls-1{fill:none;}.cls-2{fill:#fff;}</style></defs><g id="Calque_1-2"><g><circle class="cls-1" cx="152.5" cy="152.5" r="152.5"/><path class="cls-2" d="M161.35,200.32c0,1.35,0,2.33,0,3.31,0,11.56,.02,23.12-.01,34.68-.01,4.84-1.9,7.78-5.76,9.23-5.28,1.97-10.69-1.1-11.67-6.67-.23-1.3-.31-2.64-.31-3.97-.02-11.06-.01-22.12-.01-33.18,0-.99,0-1.99,0-3.4-1.09,0-2.05,0-3,0-14.63,0-29.27,.12-43.9-.07-16.25-.21-31.16-10.66-37.17-25.69-6.47-16.17-1.03-35.66,12.95-46.04,1.39-1.03,1.94-1.96,1.5-3.68-3.36-13.23,3.16-27.11,13.77-34.73,7.25-5.2,15.23-8.08,24.29-6.95,1.55,.19,1.95-.65,2.49-1.77,7.98-16.44,21.21-24.97,39.38-24.51,16.8,.43,28.95,9.11,36.65,23.93,.97,1.87,1.84,2.43,3.91,2.24,8.52-.77,16.13,2.01,22.79,7.05,10.88,8.24,16.28,19.21,14.29,32.96-.52,3.59,.09,5.37,2.88,7.67,18.21,15,18.34,43.01,.62,58.78-8.15,7.25-17.6,10.77-28.42,10.79-14.05,.02-28.1,0-42.15,0-.9,0-1.81,0-3.11,0Zm-62.55-64.81c-4.04,1.59-7.88,2.89-11.55,4.57-9.68,4.42-14.67,15.27-11.94,25.55,2.59,9.74,11.67,16.74,22.19,16.82,14.63,.11,29.27,.04,43.9,.04,.64,0,1.28-.1,1.89-.15,0-6.53,.05-12.91-.06-19.3-.01-.76-.77-1.61-1.38-2.23-3.96-4.03-7.98-8.01-11.97-12.02-2.64-2.65-5.37-5.22-7.9-7.97-3.46-3.75-3.47-8.95-.19-12.42,3.22-3.42,7.87-3.75,11.96-.67,1.85,1.39,3.49,3.07,5.24,4.61,1.38,1.23,2.77,2.45,4.61,4.06,0-5.22-.04-9.78,.01-14.34,.04-3.49-.1-7.01,.37-10.45,.79-5.68,6.52-8.68,11.86-6.56,4.19,1.66,5.5,5.02,5.51,9.15,.02,12.48,0,24.95,0,37.43,0,.85,0,1.71,0,2.56l.7,.27c2.01-2.07,3.98-4.19,6.05-6.2,1.24-1.21,2.54-2.43,4-3.33,4.29-2.64,9.55-1.16,11.98,3.23,2.14,3.88,1.5,7.73-2.04,11.31-6.38,6.44-12.84,12.8-19.18,19.27-.83,.85-1.19,2.15-1.83,3.34,.85,.27,1,.36,1.16,.36,15.63,0,31.28,.4,46.89-.13,16.74-.56,26.93-19.49,18.09-33.48-2.23-3.52-6.4-5.9-9.91-8.48-2.98-2.19-6.31-3.92-9.56-5.89,1.65-3.22,3.26-6.21,4.74-9.26,2.52-5.18,2.26-10.33-.64-15.26-4.97-8.45-14.94-11.39-24.33-7.28-3.17,1.39-6.31,2.84-9.77,4.4-.48-3.68-.99-7.03-1.33-10.39-1.14-11.11-7.41-18.52-18.2-21.38-13-3.45-26.49,4.96-28.96,18.2-.82,4.4-1.27,8.87-1.92,13.51-3.47-1.54-6.77-3.08-10.13-4.48-8.26-3.45-16.71-1.54-22.17,4.92-5.28,6.26-5.4,13.37-.36,21.37,1.36,2.16,2.7,4.33,4.17,6.7Z"/></g></g></svg>