<?xml version="1.0" encoding="UTF-8"?><svg id="Calque_2" xmlns="http://www.w3.org/2000/svg" viewBox="0 0 305 305"><defs><style>.cls-1{fill:none;}.cls-2{fill:#fff;}</style></defs><g id="Calque_1-2"><g><circle class="cls-1" cx="152.5" cy="152.5" r="152.5"/><g><path class="cls-2" d="M152.3,248.19c-52.8-.51-95.47-42.41-95.41-95.89,.06-52.93,42.42-95.26,95.49-95.5,52.88-.24,95.92,42.98,95.8,95.71-.12,52.58-42.3,95.48-95.89,95.68Zm74.02-70.96c-4.36-1.24-8.59-1.79-12.15-3.64-3.29-1.71-6-4.66-8.72-7.31-6.65-6.48-6.65-8.28-.52-15.19,1.23-1.39,2.16-3.01,1-4.72-2.19-3.23-4.81-5.99-9.18-5.94-1.16,.01-2.33,.03-3.49,0-1.84-.06-3.52-.53-4.25-2.44-.71-1.87-.27-3.52,1.11-5.03,2.67-2.94,5.85-4.55,9.89-4.37,2.07,.09,4.16,.06,6.24,0,3.84-.09,6.16-2.4,6.15-6.04-.01-3.64-2.35-5.97-6.16-6.04-3.16-.06-6.32-.03-9.48-.01-4.84,.02-7.6,2.05-8.29,6.82-.59,4.07-2.86,6.15-6.54,7.19-1.28,.36-2.52,.83-3.78,1.25-5.57,1.86-6.31,3.21-4.79,8.77,.71,2.6,.12,4.34-1.87,5.3-2.21,1.07-4.01,.46-5.47-1.44-1.92-2.51-3.84-5.02-5.8-7.49-2.88-3.62-7.01-3.27-9.34,.76-.79,1.36-1.46,2.81-2.36,4.09-3.77,5.41-11.33,6.16-16.13,1.65-4.81-4.53-5.14-12.58-.6-17.82,1.96-2.26,4.32-4.17,6.22-6.46,1.16-1.39,2.13-3.14,2.58-4.88,.64-2.52,1.93-4.15,4.35-4.96,1.26-.42,2.49-.94,3.78-1.25,8.69-2.09,14.85-7.84,20.6-14.18,1.46-1.61,1.59-3.48,.49-5.29-1.13-1.87-2.97-2.38-4.99-1.8-1.01,.29-1.97,.87-2.87,1.45-4.72,3.1-9.39,6.29-14.13,9.37-2.44,1.58-5.5,.82-6.64-1.5-1.55-3.14-.4-8.99,2.33-11.24,2.95-2.43,5.99-4.75,8.99-7.13,1.11-.88,2.19-1.8,3.58-2.95-30.12-1.06-58.18,13.89-72.71,41.97-15.85,30.64-9.47,67.41,13.99,90.68,17,16.86,37.63,23.93,61.54,22.71-.17-1.34-.25-2.08-.35-2.82-.86-6.23-4.05-9.03-10.34-9.05-2.16,0-4.32,0-6.49,0-4.63,0-8.62-1.59-11.92-4.84-2.37-2.33-4.78-4.63-7.02-7.08-8-8.73-8.46-23.19-.43-31.9,3.65-3.96,8.54-6.77,12.81-10.17,8.78-6.99,18.86-6.55,29.01-4.87,2.74,.45,5.5,1.94,7.81,3.57,4.33,3.07,8.38,6.55,12.48,9.93,2.66,2.19,5.65,3.51,9.1,3.55,4.94,.06,9.04,1.83,12.34,5.52,1.27,1.42,2.6,2.84,4.1,4,1.28,.99,2.77,1.88,4.3,2.33,2.09,.61,4.31,.76,6.95,1.19,1.68-4.08,3.47-8.4,5.06-12.27Z"/><path class="cls-2" d="M111.09,116.54c-2.8-.3-4.6-1.47-5.7-3.63-1-1.96-.92-3.99,.59-5.56,4.36-4.54,8.76-9.07,13.35-13.37,2.14-2.01,5.06-1.57,7.17,.48,2.24,2.18,2.76,5.12,.7,7.35-4.28,4.62-8.8,9.02-13.32,13.41-.77,.75-2.05,.99-2.79,1.33Z"/></g></g></g></svg>