<?xml version="1.0" encoding="UTF-8"?><svg id="Calque_2" xmlns="http://www.w3.org/2000/svg" viewBox="0 0 305 305"><defs><style>.cls-1{fill:none;}.cls-2{fill:#fff;}</style></defs><g id="Calque_1-2"><g><circle class="cls-1" cx="152.5" cy="152.5" r="152.5"/><g><path class="cls-2" d="M131.94,56.87c6.36,6.58,12.97,13.02,19.1,19.89,6.13,6.86,11.78,14.14,17.52,21.09,6.96-7.29,13.99-14.66,21.31-22.33,4.65,5.23,9.09,9.84,13.11,14.8,12.27,15.15,21.76,31.89,28.68,50.15,6.22,16.41,5.53,32.73,.1,49.02-6.37,19.14-17.66,34.73-34.78,45.67-17.82,11.39-37.29,15.15-58.18,11.77-19.22-3.11-35.22-12.11-47.99-26.65-11.98-13.64-18.89-29.64-21.32-47.7-2.27-16.82,2.42-32.07,9.62-46.83,12.78-26.18,30.97-48.29,51.88-68.31,.17-.17,.42-.26,.95-.57Zm-.3,25.38c-.3,.23-.53,.35-.7,.52-15.22,16.54-28.33,34.53-37.82,55.02-5.37,11.58-7.9,23.44-5.46,36.28,3,15.77,10.38,28.84,22.09,39.75,17.37,16.19,45.51,21.26,67.21,11.61,20.24-9,33.3-24.32,39.1-45.65,3-11.02,3.44-22.08-.81-33.04-4.4-11.35-9.7-22.21-16.51-32.3-2.86-4.24-5.95-8.33-9.17-12.82-7.38,8.85-14.43,17.32-21.74,26.09-10.95-16.18-22.31-31.72-36.19-45.46Z"/><path class="cls-2" d="M134.54,128.73c10.86,13.84,21.45,27.34,32.24,41.08,6.49-7.36,12.8-14.49,19.49-22.08,1.79,3.85,3.59,7.33,5.07,10.95,6.81,16.66,2.14,34.45-12.13,45.29-8.62,6.55-18.68,8.86-29.35,8.23-11.09-.65-20.8-4.7-28.58-12.85-6.21-6.51-9.26-14.41-10.26-23.24-.88-7.78,.81-14.96,4.67-21.75,5.24-9.21,11.86-17.38,18.86-25.62Z"/></g></g></g></svg>