<?xml version="1.0" encoding="UTF-8"?><svg id="Calque_2" xmlns="http://www.w3.org/2000/svg" viewBox="0 0 305 305"><defs><style>.cls-1{fill:none;}.cls-2{fill:#fff;}</style></defs><g id="Calque_1-2"><g><circle class="cls-1" cx="152.5" cy="152.5" r="152.5"/><g><path class="cls-2" d="M157.54,224.21c-28.79-.37-52.72-2.62-75.89-10.08-14.33-4.61-27.93-10.55-38.92-21.4-12.75-12.58-13.05-31.27-.49-44.06,9.63-9.81,21.66-15.5,34.32-20.08,4.67-1.69,9.49-3.03,14.29-4.31,1.67-.45,2.47-1.26,3.05-2.8,6.15-16.26,17.27-27.92,32.98-35.27,21.6-10.1,49.48-5.75,67.13,10.29,7.52,6.84,13.23,14.87,16.8,24.36,.79,2.09,1.94,3.09,4.11,3.64,12.87,3.24,25.2,7.85,36.46,15,6.44,4.08,12.32,8.85,16.24,15.53,7.43,12.67,5.24,27.28-5.27,37.58-8.41,8.24-18.4,13.78-29.25,18.07-15.81,6.24-32.27,9.67-49.08,11.46-10.32,1.1-20.7,1.63-26.48,2.07Zm-67.92-81.24c-8.3,2.32-16,5.06-23.16,9.18-5.47,3.14-10.21,7.14-13.89,12.29-2.78,3.88-2.86,8.03-.11,11.83,2.07,2.86,4.35,5.91,7.25,7.74,6.15,3.87,12.53,7.59,19.25,10.3,15.74,6.37,32.35,9.38,49.2,10.88,23.29,2.06,46.51,1.51,69.53-2.94,13.65-2.64,27.03-6.19,39.37-12.89,5.96-3.24,11.59-6.86,15.35-12.75,2.72-4.27,2.77-8.38-.16-12.53-3.3-4.68-7.46-8.46-12.41-11.35-7.22-4.22-15.05-6.96-23.03-9.31-.5-.15-1.06-.09-1.66-.13,0,.95-.05,1.7,0,2.43,.41,5.37-1.49,9.64-6.25,12.29-5.13,2.86-10.22,5.9-15.62,8.17-11.58,4.89-23.97,5.87-36.35,6.5-10.68,.55-21.27-.62-31.74-2.55-11.08-2.05-21.28-6.36-30.4-13.07-3.04-2.23-4.99-5-4.84-8.98,.06-1.56-.18-3.13-.32-5.14Zm64.83,12.59c5.35-.59,12.73-1.22,20.04-2.28,7.38-1.07,14.32-3.65,20.71-7.51,.87-.53,1.83-1.86,1.81-2.8-.53-22.54-14.91-39.83-36.92-43.73-15.89-2.82-29.58,2.08-40.72,13.71-8.03,8.39-11.31,18.78-11.79,30.16-.03,.75,.7,1.92,1.38,2.25,4.41,2.11,8.76,4.47,13.39,5.93,9.74,3.07,19.91,3.64,32.09,4.27Z"/><path class="cls-2" d="M89.41,173.24c.06,4.88-3.92,8.96-8.77,8.98-4.76,.02-8.69-3.84-8.83-8.68-.14-4.89,3.73-8.97,8.65-9.1,4.83-.13,8.89,3.86,8.95,8.8Z"/><path class="cls-2" d="M233.18,173.47c-.06,4.78-4,8.71-8.75,8.75-4.83,.04-8.86-4.03-8.84-8.91,.02-4.92,4.03-8.94,8.88-8.88,4.88,.06,8.78,4.1,8.72,9.04Z"/><path class="cls-2" d="M161.29,188.37c-.01,4.85-4.02,8.78-8.94,8.79-4.67,0-8.64-4.04-8.65-8.82-.01-4.88,3.98-8.92,8.82-8.94,4.79-.02,8.78,4.06,8.77,8.96Z"/></g></g></g></svg>