<?xml version="1.0" encoding="UTF-8"?><svg id="Calque_2" xmlns="http://www.w3.org/2000/svg" viewBox="0 0 305 305"><defs><style>.cls-1{fill:none;}.cls-2{fill:#fff;}</style></defs><g id="Calque_1-2"><g><circle class="cls-1" cx="152.5" cy="152.5" r="152.5"/><path class="cls-2" d="M248.27,69.07c1.08,33.16-8.54,61.71-36.27,82.13-12.05,8.87-25.85,12.98-40.83,13.06-2.99,.02-5.98,.05-8.97,.09-.14,0-.28,.14-.71,.37,0,.83,0,1.8,0,2.77,0,19.53-.04,39.06,.04,58.59,.01,3.25-1.02,5.79-3.5,7.85-5.17,4.29-12.64,1.72-13.94-4.87-.27-1.37-.35-2.8-.35-4.21-.03-11.22-.02-22.44-.02-33.66,0-.89,0-1.79,0-2.99-3.29,0-6.35,.03-9.4,0-12.08-.14-23.56-2.72-34.14-8.68-18.18-10.24-30.2-25.65-37.41-44.99-4.86-13.04-6.07-26.64-5.87-40.43,.02-1.35,.39-1.94,1.85-1.9,10.55,.28,21.12,.16,31.64,.83,16,1.03,29.87,7.6,41.6,18.31,5.11,4.67,9.33,10.32,13.95,15.53,.43,.49,.8,1.04,1.45,1.9,.48-1.37,.86-2.41,1.22-3.46,6.8-20.18,18.85-36.27,37.21-47.33,8.58-5.17,17.95-8.46,27.99-8.81,11.35-.39,22.73-.09,34.44-.09Zm-18.38,17.59c-17.32-1.44-32.95,2.45-45.93,14.6-13.03,12.19-19.64,27.5-21.97,44.97,43.26,4.25,65.21-30.89,67.9-59.57Zm-86.79,83.46c-.12-6.82-3.62-18.86-8.55-27.8-8.28-15.01-20.17-25.74-37.09-30.25-7.31-1.95-14.72-1.81-22.19-1.57,4.13,35.05,29.98,63.93,67.83,59.62Z"/></g></g></svg>