<?xml version="1.0" encoding="UTF-8"?><svg id="Calque_2" xmlns="http://www.w3.org/2000/svg" viewBox="0 0 305 305"><defs><style>.cls-1{fill:none;}.cls-2{fill:#fff;}</style></defs><g id="Calque_1-2"><g><circle class="cls-1" cx="152.5" cy="152.5" r="152.5"/><path class="cls-2" d="M205.49,222.58c-3.23-1.88-6.78-3.37-9.61-5.72-6.16-5.11-12.58-5.99-19.66-2.49-4.49,2.22-7.35,5.78-8.31,10.76-.52,2.71-.84,5.49-1.6,8.13-1.76,6.11-7.25,10.03-13.71,10.06-6.49,.04-11.99-3.8-13.82-9.89-.75-2.5-1.09-5.14-1.57-7.72-2.2-11.7-15.62-17.34-25.52-10.7-1.72,1.16-3.27,2.57-5.01,3.71-6.99,4.61-14.22,3.52-19.62-2.88-5.23-6.2-4.88-13.08,.92-19.31,5.12-5.5,6.3-11.73,3.6-18.82-2.74-7.21-8.04-10.56-15.5-11.13-7.27-.55-11.73-3.81-13.55-9.69-2.06-6.64-.58-12.98,4.83-16.7,2.69-1.85,6.29-2.7,9.6-3.25,5.43-.9,10.17-2.52,13.13-7.57,4.23-7.2,3.98-12.9-1-19.66-.66-.89-1.34-1.77-1.99-2.66-4.6-6.33-4.35-12.66,.7-18.09,5.5-5.92,11.79-6.69,18.63-2.25,1.86,1.21,3.57,2.65,5.47,3.77,10.71,6.33,23.69,.06,25.45-12.22,.71-4.97,1.35-10.04,5.77-13.33,4.52-3.37,9.5-4.28,14.9-2.2,5.67,2.19,8.49,6.57,9.08,12.34,.73,7.21,3.1,13.01,10.36,16.14,7.27,3.14,13.48,1.75,19.17-3.3,6.56-5.84,13.64-5.94,19.99-.22,5.79,5.22,6.49,12.74,1.78,19.48-.87,1.25-1.86,2.42-2.77,3.64-7.64,10.25-1.91,23.91,10.76,25.91,3.5,.55,7.29,1.01,10.27,2.7,5.8,3.29,7.85,9.93,6.08,16.64-1.62,6.15-6.09,9.92-12.94,10.43-6.83,.51-12.34,2.96-15.49,9.39-3.86,7.89-2.97,13.74,3.51,20.84,2.84,3.11,3.94,6.56,3.64,10.62-.62,8.53-6.8,14.23-15.38,14.18-.2,.34-.4,.68-.6,1.02Zm-52.95-89.9c.05-11.69-8.08-20.06-19.66-20.21-11.71-.16-20.44,8.33-20.5,19.93-.06,11.68,8.51,20.24,20.22,20.21,11.62-.03,19.88-8.3,19.94-19.93Zm34.91,39.77c-.04-8.41-6.8-15.13-15.11-15.04-8.06,.1-14.79,6.8-14.95,14.9-.17,8.11,6.81,15.19,15.02,15.24,8.29,.05,15.08-6.77,15.04-15.1Z"/></g></g></svg>