<?xml version="1.0" encoding="UTF-8"?><svg id="Calque_2" xmlns="http://www.w3.org/2000/svg" viewBox="0 0 305 305"><defs><style>.cls-1{fill:none;}.cls-2{fill:#fff;}</style></defs><g id="Calque_1-2"><g><circle class="cls-1" cx="152.5" cy="152.5" r="152.5"/><path class="cls-2" d="M116.64,74.6c-1.46,0-2.54,.1-3.6-.02-4.86-.53-8.17-4.07-8.24-8.74-.07-4.62,3.2-8.27,8.04-8.92,.66-.09,1.33-.09,1.99-.09,24.93,0,49.86,0,74.78,0,5.32,0,8.58,2.28,9.57,6.58,1.38,6.07-2.13,10.8-8.36,11.22-.82,.06-1.65,0-2.73,0-.06,1.02-.16,1.9-.16,2.77,0,19.12-.04,38.23,.05,57.35,0,1.55,.54,3.29,1.36,4.62,13.91,22.44,27.92,44.83,41.89,67.23,7.14,11.45,6.5,22.9-2,32.9-5.19,6.1-12.17,8.67-19.92,8.69-37.89,.12-75.78,.15-113.67,0-14.86-.06-25.75-10.51-26.74-25.17-.41-6.02,1.74-11.42,4.85-16.45,13.79-22.32,27.64-44.61,41.37-66.97,.89-1.45,1.45-3.37,1.46-5.08,.1-18.87,.06-37.74,.06-56.6v-3.35Zm17.76,.18c0,1.17,0,2.15,0,3.12,0,20.77,.02,41.55-.05,62.32,0,1.4-.44,2.97-1.17,4.16-6.09,9.9-12.29,19.72-18.46,29.58-.46,.74-.87,1.51-1.4,2.44h78.36c-.58-1.02-1-1.81-1.47-2.56-6.12-9.78-12.29-19.53-18.33-29.36-.81-1.32-1.32-3.07-1.32-4.62-.09-20.61-.06-41.21-.06-61.82,0-1.05,0-2.1,0-3.26h-36.1Z"/></g></g></svg>