<?xml version="1.0" encoding="UTF-8"?><svg id="Calque_2" xmlns="http://www.w3.org/2000/svg" viewBox="0 0 305 305"><defs><style>.cls-1{fill:none;}.cls-2{fill:#fff;}</style></defs><g id="Calque_1-2"><g><circle class="cls-1" cx="152.5" cy="152.5" r="152.5"/><g><path class="cls-2" d="M92.63,173.43c-1.22,0-2.2,0-3.18,0-7.81,0-15.63,.08-23.44-.04-3.83-.06-6.97-1.63-8.44-5.45-1.37-3.57-.85-6.9,1.85-9.67,1.96-2.01,4.53-2.66,7.29-2.66,7.65,0,15.3,0,22.95,0,.9,0,1.81,0,2.86,0,.3-2.47,.26-4.85,.91-7.02,1.21-4.02,2.67-7.98,4.34-11.83,.66-1.53,.47-2.29-.62-3.37-8.39-8.31-16.73-16.66-25.06-25.03-3.45-3.47-4.19-7.06-2.33-10.58,3.13-5.91,9.78-6.74,14.81-1.71,8.17,8.17,16.26,16.42,24.36,24.67,.63,.64,1.05,1.5,1.6,2.32,8.73-5.98,18.03-6.5,27.52-6.38,10.47,.13,20.95,.17,31.42-.02,8.67-.16,16.87,1.22,25.04,6.44,.42-.71,.76-1.63,1.39-2.27,8.03-8.2,16.08-16.37,24.16-24.52,3.59-3.62,7.24-4.45,10.75-2.57,5.8,3.12,6.79,9.12,2.14,14.09-4.6,4.92-9.37,9.67-14.06,14.5-4.05,4.17-8.11,8.33-12.28,12.63,3.76,6.31,5.54,13.12,5.63,20.65,1.1,0,1.99,0,2.88,0,7.9,0,15.8-.1,23.69,.03,7.53,.12,11.68,7.53,7.81,13.73-1.92,3.08-4.94,4.04-8.34,4.05-7.65,.03-15.3,.01-22.95,.01-.91,0-1.82,0-2.91,0-.25,3.67-.36,7.21-.74,10.73-.69,6.41-2.5,12.53-5.56,18.22-.92,1.72-.61,2.69,.71,4.01,8.42,8.39,16.74,16.88,25.09,25.35,.7,.71,1.39,1.44,1.98,2.23,2.96,3.94,2.72,7.74-.66,11.22-3.27,3.37-7.3,3.7-11.2,.86-1-.73-1.9-1.61-2.79-2.48-8.23-8.1-16.45-16.22-24.52-24.18-28.17,22.37-56.08,22.59-84.49,.03-.34,.31-1,.88-1.63,1.5-7.76,7.64-15.5,15.31-23.27,22.93-1,.98-2.08,1.93-3.25,2.69-3.57,2.3-7.58,1.79-10.68-1.24-2.91-2.85-3.46-6.96-1.28-10.48,.74-1.19,1.69-2.27,2.68-3.26,8.38-8.43,16.77-16.86,25.24-25.2,1.35-1.33,1.58-2.34,.68-4.04-4.32-8.18-5.98-17.01-6.09-26.18-.01-.81,0-1.62,0-2.7Zm68.64,43.67c.82-.09,1.4-.09,1.94-.22,15.78-3.79,28.63-17.37,30.38-33.54,1.05-9.69,.93-19.58,.52-29.34-.48-11.36-8.96-19.24-20.36-19.41-14.12-.21-28.25-.22-42.38,0-11.51,.18-19.62,7.44-20.51,18.95-.68,8.74-.72,17.62-.05,26.36,1.16,15.04,8.54,26.5,22.05,33.58,3.22,1.69,6.79,2.69,10.64,4.18v-3.76c0-16.62,0-33.23,.01-49.85,0-1.24,.08-2.49,.27-3.72,.99-6.3,7.05-9.44,12.74-6.58,3.77,1.89,4.75,5.25,4.75,9.15-.02,17.03,0,34.07,0,51.1,0,.98,0,1.96,0,3.1Z"/><path class="cls-2" d="M151.99,104.59c-8.06,0-16.11,.02-24.17,0-7.02-.02-11.16-4.13-11.24-11.11-.18-16.18,10.12-30.49,25.2-35.03,15.54-4.67,31.96,1.23,40.77,14.8,4.39,6.77,6.09,14.31,5.55,22.31-.37,5.48-4.81,8.98-11.2,9.02-8.3,.05-16.61,.01-24.91,.01Z"/></g></g></g></svg>