<?xml version="1.0" encoding="UTF-8"?><svg id="Calque_2" xmlns="http://www.w3.org/2000/svg" viewBox="0 0 305 305"><defs><style>.cls-1{fill:none;}.cls-2{fill:#fff;}</style></defs><g id="Calque_1-2"><g><circle class="cls-1" cx="152.5" cy="152.5" r="152.5"/><g><path class="cls-2" d="M218.21,98.2c.02,5.46-3.23,9.86-8.44,11.71-1.16,.41-2.37,1.2-3.11,2.17-5.73,7.44-11.38,14.93-16.95,22.49-.77,1.04-1.32,2.52-1.34,3.81-.11,9.31-.11,18.62,0,27.92,.02,1.29,.54,2.77,1.31,3.81,5.51,7.5,11.1,14.93,16.79,22.3,.83,1.08,2.19,1.98,3.49,2.44,5.62,2.01,8.72,6.81,8.19,13.04-.46,5.37-4.5,9.33-10.31,10.12-5.36,.72-10.56-2.69-12.68-8.05-.57-1.44-1.61-2.89-2.82-3.83-7.29-5.65-14.66-11.19-22.08-16.66-.98-.72-2.39-1.19-3.6-1.2-9.39-.1-18.78-.1-28.17,0-1.28,.01-2.76,.55-3.8,1.31-7.43,5.46-14.8,11.01-22.09,16.65-1.15,.89-2.08,2.3-2.63,3.66-1.93,4.78-5.34,7.57-10.43,8.08-4.14,.41-7.7-1.01-10.34-4.32-5.03-6.3-1.76-16.1,6.2-18.86,1.09-.38,2.24-1.11,2.93-2.01,5.82-7.57,11.57-15.2,17.26-22.88,.63-.86,1.04-2.1,1.05-3.17,.08-9.56,.09-19.12,0-28.67-.01-1.14-.48-2.46-1.16-3.38-5.53-7.48-11.12-14.92-16.8-22.29-.84-1.09-2.16-2.02-3.46-2.49-5.61-2.05-8.86-7.03-8.24-13.03,.58-5.59,4.38-9.36,10.24-10.16,5.32-.72,10.58,2.72,12.71,8.05,.57,1.43,1.61,2.89,2.82,3.83,7.29,5.65,14.66,11.19,22.08,16.66,.98,.72,2.38,1.19,3.59,1.2,9.39,.1,18.78,.1,28.17,0,1.29-.01,2.77-.55,3.81-1.31,7.29-5.36,14.54-10.79,21.68-16.36,1.33-1.03,2.46-2.63,3.08-4.21,2.15-5.44,7.6-8.75,13.28-7.76,5.98,1.05,9.75,5.44,9.77,11.39Zm-65.54,36.14c-3.82,0-7.64-.02-11.46,0-4.17,.03-6.59,1.99-6.68,6.06-.19,7.97-.17,15.94,0,23.91,.08,3.98,2.45,6.03,6.42,6.05,7.72,.04,15.44,.04,23.17,0,4.04-.02,6.31-2.06,6.38-6.04,.12-7.97,.12-15.94,0-23.91-.06-3.98-2.36-6.03-6.36-6.08-3.82-.04-7.64,0-11.46-.01Z"/><path class="cls-2" d="M139.53,103.77c-6.08-4.63-12.16-9.09-18.01-13.84-1.46-1.18-2.07-3.36-3.22-4.98-6.47-9.1-16.26-12.52-26.7-9.37-9.63,2.9-16.8,12.26-16.94,22.64-.14,9.96,4.91,16.92,13.3,21.79,1.32,.77,2.58,1.81,3.52,3,4.2,5.35,8.26,10.8,12.4,16.25-10.29,4.71-30.39-3.98-39.68-17.12-10.63-15.03-9.7-38.04,4.12-52.34,13.82-14.3,35.57-17.38,52.43-6.78,16.48,10.35,21.76,28.96,18.78,40.75Z"/><path class="cls-2" d="M201.04,139.47c4.71-6.2,9.21-12.16,13.78-18.06,.52-.67,1.5-.99,2.29-1.44,8.53-4.98,13.75-12.01,13.18-22.28-.57-10.27-5.83-17.47-15.25-21.48-11.08-4.72-23.66,.07-29.85,11.04-.94,1.67-2.33,3.22-3.84,4.39-5.24,4.08-10.62,7.98-15.99,11.98-2.56-12.39,2.51-29.48,18.03-40.09,15.1-10.33,37.02-8.51,50.46,3.43,16.16,14.35,17.8,36.55,9.02,51.96-9.93,17.45-28.92,23.39-41.83,20.54Z"/><path class="cls-2" d="M201.13,165c15.99-2.41,31.77,4.8,40.76,19.23,9.72,15.59,7.75,35.98-3.59,49.02-13.2,15.18-33.66,18.22-49.4,11.02-16.4-7.51-26.23-25.23-23.86-43.25,.76,.5,1.44,.91,2.07,1.37,5,3.72,10.03,7.4,14.96,11.21,1.13,.88,2.15,2.08,2.83,3.34,4.96,9.17,14.55,14.51,23.78,13.12,11.49-1.73,19.25-8.99,21.35-19.96,1.92-10.09-3.09-19.87-12.83-25.34-1.39-.78-2.7-1.93-3.67-3.19-4.15-5.38-8.15-10.87-12.4-16.58Z"/><path class="cls-2" d="M139.53,200.97c2.88,11.46-1.95,29.52-17.93,40.22-16.08,10.77-37.48,8.69-51.84-4.89-14.15-13.38-17.1-34.57-6.72-51.79,9.04-15,25.9-22.1,40.81-19.41-3.72,5.01-7.41,9.91-11.01,14.86-1.63,2.23-3.45,4.05-5.92,5.5-8.14,4.79-12.73,11.97-12.2,21.56,.56,10.19,5.8,17.48,15.26,21.49,11.17,4.73,23.97-.16,30.01-11.2,.84-1.54,2.09-2.99,3.46-4.07,5.26-4.16,10.66-8.15,16.08-12.26Z"/></g></g></g></svg>