<?xml version="1.0" encoding="UTF-8"?><svg id="Calque_2" xmlns="http://www.w3.org/2000/svg" viewBox="0 0 305 305"><defs><style>.cls-1{fill:none;}.cls-2{fill:#fff;}</style></defs><g id="Calque_1-2"><g><circle class="cls-1" cx="152.5" cy="152.5" r="152.5"/><path class="cls-2" d="M152.61,67.21c4.67-4.93,10.25-8.17,16.86-9.62,14.37-3.14,28.66,3.37,35.78,16.21,.96,1.73,2.47,3.31,4.07,4.49,7.17,5.32,11.92,12.2,13.9,20.91,.45,1.96,1.33,3.36,2.89,4.68,10.71,9.04,14.5,20.65,12.49,34.37-.16,1.08,.04,2.54,.68,3.35,12.9,16.45,11.33,39.82-2.12,53.78-.55,.57-.91,1.56-.94,2.37-.56,16.98-11.2,30.31-27.74,34.79-1.03,.28-2.16,.98-2.78,1.82-12.45,16.8-38.12,18.77-52.23,3.3-.27-.29-.6-.53-.91-.79-2.03,1.73-3.87,3.55-5.95,5.05-14.54,10.43-35.2,7.55-46.35-6.5-1.36-1.72-2.86-2.68-5-3.25-14.55-3.9-25.36-17.17-26.24-32.27-.16-2.67-1.44-4.38-2.98-6.28-11.98-14.77-12.28-36.2-.72-51.33,1.12-1.47,1.41-2.76,1.14-4.54-2.05-13.43,1.83-24.78,12.21-33.7,1.58-1.36,2.6-2.72,3.09-4.83,2.1-9.04,7.08-16.17,14.75-21.46,1.11-.76,2.13-1.87,2.77-3.05,10.84-19.79,35.08-23.87,51.87-8.68,.43,.39,.89,.73,1.45,1.18Zm41.76,147.33c1.06,.26,1.85,.51,2.67,.65,6.6,1.12,12.14-.98,16.67-5.74,4.65-4.88,5.85-10.78,3.86-17.08-.75-2.38-.42-3.33,1.62-4.65,14.23-9.2,14.93-29.06,1.48-39.34-1.63-1.24-3.43-2.27-5.24-3.45,5.29-5.38,7.28-11.7,5.16-18.93-2.17-7.41-7.97-10.86-15.15-12.44,1.68-5.55,1.22-10.47-1.63-15.19-2.86-4.72-7.26-7.07-12.33-8.34-.06-.96-.09-1.71-.16-2.45-.65-7.9-8.9-14.36-16.73-13.1-8.11,1.31-13.23,7.48-13.23,16.14-.02,41.07-.04,82.14,0,123.21,.01,11.93,11.94,19.85,22.92,15.19,6.2-2.63,9.49-7.54,10.08-14.47Zm-84.29,.06c.94,2.67,1.53,5.3,2.73,7.61,3.18,6.12,11.39,9.52,18.15,7.77,7.26-1.88,12.62-8.78,12.62-16.34,0-40.9,0-81.81,0-122.71,0-1.24-.06-2.5-.19-3.73-.8-7.6-9.1-13.95-16.6-12.74-7.22,1.16-11.96,5.98-13.11,13.32-.19,1.22-.19,2.4-1.89,2.74-9.31,1.87-15.7,12.85-12.52,22.77-17.14,4.03-19.9,21.38-9.72,31.78-8.97,4.57-14.64,11.79-15.1,21.83-.47,10.23,4.89,17.63,13.82,22.38-7.46,17.02,9.79,29.93,21.81,25.32Z"/></g></g></svg>