<?xml version="1.0" encoding="UTF-8"?><svg id="Calque_2" xmlns="http://www.w3.org/2000/svg" viewBox="0 0 305 305"><defs><style>.cls-1{fill:none;}.cls-2{fill:#fff;}</style></defs><g id="Calque_1-2"><g><circle class="cls-1" cx="152.5" cy="152.5" r="152.5"/><g><path class="cls-2" d="M125.74,99.26c19.28,0,38.56,0,57.84,0,5.99,0,9.86,2.72,11.1,7.84,.27,1.13,.27,2.34,.27,3.51,.01,27.81,.01,55.63,0,83.44,0,7.36-3.97,11.35-11.37,11.35-29.4,.02-58.81,0-88.21,0-8.79,0-17.58,0-26.37,0-13.46,0-22.74-8.89-22.83-22.3-.15-20.51-.14-41.02,0-61.53,.09-13.41,9.37-22.31,22.82-22.32,18.91,0,37.82,0,56.74,0Zm53.31,15.82c-.88,0-1.6,0-2.32,0-35.99,0-71.97,0-107.96,0-4.93,0-6.81,1.87-6.81,6.84-.01,20.29-.01,40.59,0,60.88,0,4.94,1.9,6.78,6.87,6.78,35.91,0,71.83,0,107.74,0,.79,0,1.58,0,2.48,0V115.08Z"/><path class="cls-2" d="M205.88,194.66V110c.81-.04,1.53-.11,2.24-.11,13,0,25.99,.12,38.99-.05,7.4-.1,11.86,4.68,11.78,11.74-.22,20.57-.21,41.15,0,61.72,.07,6.6-4.16,11.61-11.53,11.53-13.14-.14-26.29-.04-39.43-.04-.64,0-1.29-.07-2.04-.11Zm34.43-58.1s.02,0,.03,0c0-.74,0-1.47,0-2.21-.06-4.07-1.91-5.94-5.94-5.99-1.62-.02-3.24-.06-4.86,.03-2.8,.14-4.68,1.58-5.02,4.33-.3,2.45-.28,4.99,.03,7.44,.33,2.65,2.18,4.08,4.87,4.22,1.98,.1,3.98,.12,5.96,0,2.95-.18,4.71-2.01,4.92-4.94,.07-.95,.01-1.91,.01-2.87Zm.02,31.73h0c0-.66,0-1.32,0-1.98-.06-4.18-1.9-6.02-6.09-6.06-1.62-.01-3.24-.06-4.86,.04-2.68,.17-4.52,1.6-4.85,4.25-.3,2.45-.31,4.99,0,7.44,.34,2.74,2.23,4.17,5.04,4.3,1.84,.08,3.68,.08,5.52,0,3.26-.14,5.09-2.04,5.24-5.34,.04-.88,0-1.76,0-2.65Z"/></g></g></g></svg>