<?xml version="1.0" encoding="UTF-8"?><svg id="Calque_2" xmlns="http://www.w3.org/2000/svg" viewBox="0 0 305 305"><defs><style>.cls-1{fill:none;}.cls-2{fill:#fff;}</style></defs><g id="Calque_1-2"><g><circle class="cls-1" cx="152.5" cy="152.5" r="152.5"/><g><path class="cls-2" d="M164.34,127.56c0,10.39-.05,20.78,.06,31.17,.02,1.45,.51,3.15,1.37,4.3,15.05,20.06,13.33,46.91-1.51,65.47-8.39,10.49-19.52,16.46-32.7,18.85-23.92,4.35-51.25-8.93-59.78-35.7-5.43-17.02-3.45-33.12,7.13-47.8,1.28-1.78,1.88-3.5,1.87-5.7-.07-19.2-.07-38.4-.03-57.6,.02-8.8,1.65-17.23,6.8-24.57,10.12-14.43,24-21.13,41.5-18.41,16.73,2.59,27.88,12.61,33.24,28.6,1.47,4.39,1.8,9.29,1.95,13.97,.29,9.13,.09,18.28,.09,27.43Zm-17.76,3.69c0-5.73,.02-11.47,0-17.2-.02-5.73,.17-11.48-.19-17.19-1.02-16.47-18.99-26.94-33.83-19.76-9.5,4.59-13.96,12.5-14.02,22.84-.12,20.03-.22,40.06,.09,60.08,.08,5.34-1.36,9.48-4.65,13.55-7.96,9.86-9.29,21.09-5.32,32.89,5.46,16.25,22.06,26.03,39.33,23.63,15.95-2.22,29.38-16.45,30.46-32.49,.74-10.92-3.12-19.98-9.91-28.09-1.36-1.63-2.03-3.2-2.01-5.36,.1-10.97,.05-21.94,.05-32.91Z"/><path class="cls-2" d="M236.14,86.83c-.04,16.69-13.03,29.72-29.7,29.79-16.62,.07-29.94-13.28-29.84-29.93,.1-16.7,13.08-29.71,29.73-29.78,16.69-.07,29.85,13.14,29.81,29.92Zm-17.78,0c.03-7.01-4.85-12.01-11.79-12.1-7.01-.09-12.25,5.01-12.27,11.96-.03,7,5.11,12.13,12.13,12.1,6.96-.03,11.91-4.99,11.93-11.96Z"/><path class="cls-2" d="M128.43,137.29c0,12.64,.03,25.28-.04,37.91-.01,1.82,.51,2.78,2.22,3.59,6.74,3.22,10.75,11.01,9.56,18.14-1.36,8.14-7.05,13.78-14.8,15.09-8.22,1.39-17.11-3.75-19.54-11.81-2.7-8.96,.71-17.49,9.05-21.56,1.62-.79,1.8-1.84,1.8-3.34-.03-24.69-.02-49.39,0-74.08,0-1.16,.05-2.33,.23-3.47,.51-3.13,2.83-5.03,5.88-4.92,3.16,.11,5.51,2.26,5.57,5.55,.13,6.81,.07,13.63,.08,20.45,0,6.15,0,12.31,0,18.46Z"/></g></g></g></svg>