<?xml version="1.0" encoding="UTF-8"?><svg id="Calque_2" xmlns="http://www.w3.org/2000/svg" viewBox="0 0 305 305"><defs><style>.cls-1{fill:none;}.cls-2{fill:#fff;}</style></defs><g id="Calque_1-2"><g><circle class="cls-1" cx="152.5" cy="152.5" r="152.5"/><g><path class="cls-2" d="M179.62,203.75c-8.11,4.72-15.63,9.09-23.16,13.48-1.87,1.09-3.66,2.33-5.59,3.27-1.7,.83-2.23,1.9-1.84,3.75,.37,1.77,.39,3.62,.61,5.89,1.89,0,3.84-.03,5.79,0,6.85,.12,11.73,5.17,11.61,11.99-.06,3.54-2.18,5.81-5.76,5.81-23.46,.02-46.92,.36-70.37-.17-13.48-.31-22.1-8.52-27.23-20.5-3.2-7.46-3.81-15.46-3.83-23.46-.07-25.28-.06-50.55,0-75.83,.01-5.57-1.23-10.5-5.66-14.29-2.72-2.33-5.79-3.33-9.34-3.52-6.83-.37-10.68-6.41-8.14-12.48,1.59-3.8,4.88-5.59,9.52-5.17,18.61,1.7,30.88,15.19,31.02,34.18,.07,9.98,.01,19.96,.01,29.93,0,.9,0,1.79,0,2.69,.18,.08,.35,.17,.53,.25,1.14-1.32,2.27-2.64,3.41-3.95,10.9-12.53,23.86-22.12,39.67-27.52,4.62-1.58,9.42-2.67,14.19-3.74,1.82-.41,2.39-1.12,2.44-2.94,.33-12.1,3.17-23.55,9.87-33.75,11-16.75,26.12-27.39,46.25-30.23,18.91-2.67,35.96,1.89,50.93,13.73,27.44,21.72,32.7,61.05,12.17,89.39-7.15,9.87-16.15,17.36-27.37,22.12-1.53,.65-2.06,1.49-2.05,3.17,.07,14.38,.08,28.77,.03,43.15-.03,9.27-4.8,16.07-13.37,18.08-6.91,1.63-14.09,1.66-21-.04-8.76-2.16-13.24-8.66-13.33-18.34-.06-7.23-.01-14.47-.01-21.7,0-.9,0-1.8,0-3.27Zm-39.23-62.43c-13.97,2.67-26.39,7.9-36.98,17-16.74,14.39-25.12,32.71-26.08,54.76-.39,9,6.45,17.48,16.13,17.15,11.79-.4,23.61-.09,35.42-.09,.87,0,1.75,0,2.79,0-.75-13.14-5.7-23.84-15.31-32.28-5.97-5.24-6.22-6.16-2.38-13.25,.08-.15,.14-.3,.22-.45,2.62-4.73,6.42-5.57,10.7-2.26,6.98,5.41,12.74,11.89,16.86,19.75,.45,.85,.92,1.69,1.48,2.71,11.91-7.03,23.59-13.91,35.77-21.1-19.67-8.13-32.35-22.01-38.63-41.95Zm26.97-50.22c-10.9,10.93-16.29,31.54-8.02,50.32,8.25,18.74,27.58,30.39,47.92,28.71,20.87-1.72,37.67-16.1,42.55-36.25,4.08-16.84-2.33-34.74-10.82-42.09,0,1.09,0,1.98,0,2.88-.06,10.06,.16,20.13-.24,30.18-.61,15.43-11.57,28.36-26.73,32.18-15.1,3.8-31.21-2.63-39.24-15.61-3.88-6.27-5.47-13.11-5.43-20.42,.05-9.8,.01-19.61,.01-29.88Zm8.48-7.9c4.9,4.88,9.75,9.75,14.68,14.54,.5,.48,1.5,.63,2.27,.63,6.9,.05,13.8,.05,20.71,0,.77,0,1.77-.15,2.27-.64,4.93-4.8,9.77-9.68,14.66-14.56-14.68-11.57-38.93-11.97-54.59,.02Zm20.62,104.71c.2,3.91,.54,7.76,.57,11.62,.08,9.15,.03,18.29,.03,27.44,0,.98,0,1.95,0,3.02h12.01v-42.08h-12.61Zm-8.2-71.24c-3.61,.03-6.07,2.41-6.07,5.86,0,3.39,2.63,5.87,6.14,5.8,3.44-.07,5.96-2.67,5.92-6.09-.04-2.82-3.02-5.59-5.99-5.57Zm29.9,11.66c3.45-.02,5.99-2.54,6.03-5.98,.04-2.83-2.88-5.65-5.87-5.68-3.71-.03-6.25,2.44-6.17,5.99,.08,3.31,2.59,5.69,6.01,5.67Z"/><path class="cls-2" d="M138.25,80.29c-1.33,1.05-2.06,1.93-3,2.33-3.97,1.68-8.04,3.14-11.98,4.88-1,.44-1.99,1.47-2.44,2.47-1.6,3.55-2.86,7.25-4.47,10.8-.59,1.29-1.82,2.3-2.75,3.44-.87-1.1-2.02-2.08-2.57-3.32-1.62-3.63-2.93-7.4-4.55-11.04-.41-.93-1.36-1.88-2.3-2.28-3.96-1.69-8.05-3.09-12-4.81-1.04-.46-1.75-1.69-2.61-2.57,.89-.75,1.66-1.77,2.69-2.21,3.81-1.63,7.75-2.95,11.54-4.63,1.13-.5,2.27-1.62,2.78-2.75,1.78-3.92,3.24-7.99,4.94-11.95,.35-.81,1.41-2.07,1.79-1.96,.96,.29,2.1,1.07,2.5,1.96,1.79,4.01,3.25,8.16,5.03,12.18,.44,1,1.45,2.01,2.45,2.45,3.95,1.74,8.01,3.2,11.98,4.87,.9,.38,1.62,1.15,2.97,2.15Z"/></g></g></g></svg>