<?xml version="1.0" encoding="UTF-8"?><svg id="Calque_2" xmlns="http://www.w3.org/2000/svg" viewBox="0 0 305 305"><defs><style>.cls-1{fill:none;}.cls-2{fill:#fff;}</style></defs><g id="Calque_1-2"><g><circle class="cls-1" cx="152.5" cy="152.5" r="152.5"/><g><path class="cls-2" d="M152.44,248.2c-19.61,0-39.22,.01-58.84,0-6.39,0-10.99-3.17-12.24-8.49-.41-1.76-.53-3.62-.55-5.44-.07-5.82,.03-11.64-.08-17.46-.02-.92-.48-2.21-1.18-2.69-7.44-5.11-10.67-12.41-10.69-21.11-.1-36.99-.12-73.99,0-110.98,.05-15.11,10.51-25.23,25.58-25.24,38.81,0,77.62,0,116.42,0,15.09,0,25.32,10.26,25.32,25.37,0,36.83-.02,73.65,.02,110.48,0,9.02-3.16,16.32-10.72,21.56-.7,.49-1.2,1.75-1.21,2.66-.11,6.15-.05,12.3-.06,18.45,0,8.44-4.44,12.87-12.95,12.88-19.61,.02-39.22,0-58.84,0Zm.24-47.75c19.35,0,38.71,0,58.06,0,5.8,0,7.67-1.83,7.67-7.54,0-36.89,0-73.79,0-110.68,0-5.74-1.87-7.6-7.61-7.6-38.79,0-77.58,0-116.38,0-5.73,0-7.82,2.05-7.82,7.79-.01,36.73,0,73.46,0,110.19,0,5.77,2.07,7.85,7.76,7.85,19.44,0,38.87,0,58.31,0Zm-53.97,29.72h107.52v-11.69H98.71v11.69Z"/><path class="cls-2" d="M152.64,86.72c13.54,0,27.08,.14,40.62-.05,7.99-.11,13.35,5.09,13.08,13.12-.39,11.54-.26,23.09-.46,34.63-.13,7.64-4.65,12.02-12.24,12.02-27.25,.01-54.5,.01-81.75,0-7.99,0-12.67-3.72-12.92-11.6-.4-12.36-.33-24.76,.08-37.12,.24-7.09,5-10.94,12.22-10.98,10.13-.05,20.27-.01,30.41-.01,3.66,0,7.31,0,10.97,0Z"/><path class="cls-2" d="M176.35,182.36c-7.64,0-15.28,.02-22.92-.01-3.75-.02-5.93-1.6-6.48-4.54-.8-4.28,1.63-7.2,6.22-7.26,5.73-.08,11.46-.02,17.19-.02,9.8,0,19.6-.04,29.4,.02,5.13,.03,7.94,4.16,5.95,8.55-1.22,2.68-3.57,3.26-6.19,3.26-7.72,.01-15.45,0-23.17,0Z"/><path class="cls-2" d="M122.49,179.37c0,4.89-4,8.96-8.8,8.94-4.84-.02-8.79-4.05-8.77-8.96,.02-4.9,4.09-8.92,8.91-8.8,4.8,.11,8.66,4.04,8.66,8.82Z"/></g></g></g></svg>