<?xml version="1.0" encoding="UTF-8"?><svg id="Calque_2" xmlns="http://www.w3.org/2000/svg" viewBox="0 0 305 305"><defs><style>.cls-1{fill:none;}.cls-2{fill:#fff;}</style></defs><g id="Calque_1-2"><g><circle class="cls-1" cx="152.5" cy="152.5" r="152.5"/><path class="cls-2" d="M109.76,218.55c0-6.57-.06-13.14,.04-19.71,.03-1.7-.56-2.45-2.11-3.09-18.09-7.51-36.16-15.09-54.22-22.68-6.07-2.55-8.29-7.86-5.16-12.99,1.06-1.74,2.92-3.2,4.73-4.24,48.26-27.55,96.57-55.03,144.87-82.51,8.88-5.05,17.84-9.98,26.63-15.17,5.49-3.24,12.44-.36,13.42,5.32,.37,2.13-.1,4.46-.42,6.66-3.08,21.04-6.2,42.07-9.33,63.1-3.09,20.78-6.2,41.57-9.29,62.35-1.57,10.6-3.29,21.18-4.61,31.81-.88,7.11-7.51,10.52-13.44,7.89-11.22-4.99-22.68-9.46-34-14.24-1.55-.65-2.68-.59-4.11,.33-12.91,8.34-25.86,16.62-38.83,24.87-4.97,3.16-9.78,2.47-12.58-2.11-1.09-1.79-1.47-4.22-1.53-6.38-.19-6.4-.07-12.81-.07-19.21Zm88.71-3.76c6-40.52,11.94-80.62,17.89-120.73-.15-.08-.31-.16-.46-.24-27.86,30.97-55.73,61.93-83.85,93.19,22.24,9.3,44.1,18.44,66.43,27.77Zm-14.54-112.31c-.12-.16-.25-.33-.37-.49-35.75,20.39-71.5,40.77-107.57,61.33,1.03,.5,1.67,.86,2.34,1.14,11.5,4.75,23.02,9.46,34.48,14.29,1.69,.71,2.59,.42,3.75-.89,19.02-21.34,38.08-42.63,57.14-63.94,3.41-3.82,6.82-7.63,10.23-11.45Zm-56.63,120.53c6.07-3.88,11.7-7.47,17.77-11.35-6.26-2.52-11.89-4.78-17.77-7.14v18.5Z"/></g></g></svg>