<?xml version="1.0" encoding="UTF-8"?>
<svg id="Calque_2"
    xmlns="http://www.w3.org/2000/svg" viewBox="0 0 191.51 167.2">
    <defs>
        <style>.cls-1{fill:#d4e2ea;}.cls-2{fill:#46bed6;}.cls-3{fill:#dad9dc;}.cls-4{fill:#dad8db;}.cls-5{fill:#fff;}.cls-6{fill:#b6c1ca;}.cls-7{fill:#333;}</style>
    </defs>
    <g id="Calque_1-2">
        <g id="photon_x5F_top">
            <g id="wheels">
                <path class="cls-7" d="M44.58,11.34c10.82,0,23.17.68,26.77,4.26l1.36.32c4.8,1.13,8.95-3.4,7.27-7.93h0s-.32-.32-.32-.32c-5.54-5.52-15.37-7.67-35.07-7.67h0c-4.03,0-7.83.09-10.88.16-1.98.05-3.69.09-4.83.09H10.65c-.52,0-1.04.02-1.56.05-2.34.15-4.76,1.03-6.72,2.44-6.06,4.39.68,13.38,6.93,9.25h0c.39-.12.96-.29,1.34-.4h18.23c3.13,0,9.13-.25,15.7-.25"/>
                <path class="cls-7" d="M44.58,155.86c-6.57,0-12.58-.25-15.7-.25H10.65l-1.34-.4h0c-6.25-4.13-13,4.86-6.93,9.25,1.96,1.42,4.38,2.29,6.72,2.44.51.03,1.04.05,1.56.05h18.23c1.13,0,2.84.04,4.83.09,3.05.07,6.85.16,10.88.16h0c19.7,0,29.53-2.15,35.07-7.67l.32-.32h0c1.68-4.52-2.47-9.06-7.27-7.93l-1.36.32c-3.6,3.59-15.95,4.26-26.77,4.26"/>
            </g>
            <g id="body">
                <path class="cls-5" d="M74.17,150.26c-5.67,5.99-33.55,6.38-41.79,6.38H11.89c-.25,0-.5,0-.75-.03-7.23-.49-11.49-8.42-8.31-14.94l8.96-18.38c12.06-24.73,12.06-53.63,0-78.36L2.82,26.55c-3.18-6.52,1.08-14.45,8.31-14.94.25-.02.5-.03.75-.03h17.79c8.07,0,35.79-1.75,41.44,4.01l28.18,33.78v71.32l-25.13,29.55Z"/>
                <path class="cls-3" d="M11.89,156.51c1.18-7.52,3.48-14.82,6.81-21.65l3.28-6.72c6.67-13.67,10.19-28.94,10.19-44.15s-3.52-30.48-10.19-44.15l-3.28-6.72c-3.34-6.84-5.63-14.14-6.81-21.65h0c-.25,0-.5,0-.75.03C3.9,11.98-.36,19.91,2.82,26.43l8.96,18.38c12.06,24.73,12.06,53.63,0,78.36l-8.96,18.38c-3.18,6.52,1.08,14.45,8.31,14.94.25.02.5.03.75.03h0Z"/>
            </g>
            <g id="button">
                <path class="cls-1" d="M67.75,91.76h-15.79c-3.86,0-6.99-3.14-6.99-6.99v-1.19c0-3.86,3.14-6.99,6.99-6.99h15.79c3.86,0,6.99,3.14,6.99,6.99v1.19c0,3.86-3.14,6.99-6.99,6.99ZM51.96,77.58c-3.3,0-5.99,2.69-5.99,5.99v1.19c0,3.3,2.69,5.99,5.99,5.99h15.79c3.3,0,5.99-2.69,5.99-5.99v-1.19c0-3.3-2.69-5.99-5.99-5.99h-15.79Z"/>
            </g>
            <g id="head">
                <path class="cls-5" d="M135.03,140.75h-.69c-31.19,0-74.48-41.96-74.48-56.48h0c0-15.71,43.29-56.48,74.48-56.48h.69c31.19,0,56.48,25.29,56.48,56.48h0c0,31.2-25.29,56.48-56.48,56.48Z"/>
                <path class="cls-4" d="M135.02,30.62c29.58,0,53.65,24.07,53.65,53.65s-24.07,53.65-53.65,53.65h-.69c-12.92,0-30.54-8.27-47.12-22.14-7-5.85-13.34-12.34-17.85-18.28-6.02-7.92-6.67-11.89-6.67-13.24,0-5.82,8.42-18.66,24.51-31.95,16.46-13.59,34.08-21.7,47.14-21.7h.69M135.02,27.78h-.69c-31.19,0-74.48,40.77-74.48,56.48h0c0,14.52,43.29,56.48,74.48,56.48h.69c31.2,0,56.48-25.29,56.48-56.48h0c0-31.2-25.29-56.48-56.48-56.48h0Z"/>
                <path class="cls-3" d="M134.34,140.66c-11.48,0-65.98-34.77-65.98-56.48s54.2-56.48,65.98-56.48h0c-31.19,0-74.48,40.77-74.48,56.48h0c0,14.52,43.29,56.48,74.48,56.48h0"/>
            </g>
            <g id="ears">
                <ellipse class="cls-5" cx="102.49" cy="50.04" rx="17.31" ry="14.53" transform="translate(-5.36 87.13) rotate(-45)"/>
                <path class="cls-4" d="M105.27,36.89h0c2.97,0,5.55,1.01,7.46,2.91,2.14,2.14,3.16,5.2,2.86,8.6-.31,3.59-2.03,7.11-4.82,9.9-3.1,3.1-7.12,4.87-11.04,4.87-2.98,0-5.55-1.01-7.46-2.91-4.56-4.56-3.68-12.86,1.96-18.5,3.1-3.1,7.12-4.87,11.05-4.87M105.27,34.06c-4.49,0-9.28,1.94-13.05,5.71-6.76,6.76-7.64,16.84-1.96,22.51,2.51,2.51,5.89,3.74,9.46,3.74,4.49,0,9.28-1.94,13.05-5.71,6.76-6.76,7.64-16.84,1.96-22.51-2.51-2.51-5.89-3.74-9.46-3.74h0Z"/>
                <path class="cls-6" d="M102.49,65.78c-11.46,3.97-20.58-7.43-16.26-18.24,1.17-3.19,3.33-5.91,5.98-7.77-1.8,2.69-3.2,5.48-3.87,8.42-2.42,9.82,3.96,17.75,14.14,17.59h0Z"/>
                <path class="cls-2" d="M100.89,55.71c-1.48,0-2.96-.58-4.08-1.73l-27.79-28.75c-2.18-2.25-2.12-5.84.14-8.02,2.25-2.18,5.84-2.11,8.02.14l27.79,28.75c2.18,2.25,2.12,5.84-.14,8.02-1.1,1.06-2.52,1.59-3.94,1.59Z"/>
                <ellipse class="cls-5" cx="103.36" cy="118.3" rx="14.53" ry="17.31" transform="translate(-53.38 107.74) rotate(-45)"/>
                <path class="cls-4" d="M100.59,105.16c3.92,0,7.95,1.78,11.04,4.87,2.8,2.8,4.51,6.32,4.82,9.9.3,3.4-.72,6.46-2.86,8.6-1.9,1.9-4.48,2.91-7.46,2.91-3.92,0-7.95-1.78-11.04-4.87-2.8-2.8-4.51-6.32-4.82-9.9-.3-3.4.72-6.46,2.86-8.6,1.9-1.9,4.48-2.91,7.46-2.91M100.59,102.32c-3.57,0-6.95,1.23-9.46,3.74-5.67,5.67-4.8,15.75,1.96,22.51,3.76,3.76,8.56,5.71,13.05,5.71,3.57,0,6.95-1.23,9.46-3.74,5.67-5.67,4.8-15.75-1.96-22.51-3.76-3.76-8.56-5.71-13.05-5.71h0Z"/>
                <path class="cls-6" d="M103.36,102.57c-11.46-3.97-20.58,7.43-16.26,18.24,1.17,3.19,3.33,5.91,5.98,7.77-1.8-2.69-3.2-5.48-3.87-8.42-2.42-9.82,3.96-17.75,14.14-17.59h0Z"/>
                <path class="cls-2" d="M101.75,112.63c-1.48,0-2.96.58-4.08,1.73l-27.79,28.75c-2.18,2.25-2.12,5.84.14,8.02,2.25,2.18,5.84,2.11,8.02-.14l27.79-28.75c2.18-2.25,2.12-5.84-.14-8.02-1.1-1.06-2.52-1.59-3.94-1.59Z"/>
            </g>
            <g id="button-2">
                <circle class="cls-1" cx="99.72" cy="84.27" r="5.86"/>
                <circle class="cls-1" cx="86.68" cy="84.27" r="2.21"/>
                <path class="cls-1" d="M100.38,95.12c-3.13,0-6.11-1.35-8.19-3.69-1.21-1.37-3.12-2.02-5.25-1.79-1.82.2-3.69-.55-4.87-2-1.05-1.29-1.45-2.98-1.11-4.64.45-2.14,2.2-3.85,4.37-4.23.6-.11,1.21-.12,1.8-.03,1.85.27,3.79-.5,5.33-2.12,2.37-2.49,5.7-3.7,9.14-3.32h0c5.03.55,9.08,4.6,9.64,9.63.35,3.16-.62,6.2-2.72,8.54-2.08,2.32-5.05,3.65-8.16,3.65ZM87.78,88.59c2.07,0,3.92.77,5.16,2.17,1.89,2.13,4.6,3.35,7.44,3.35s5.53-1.21,7.41-3.31c1.91-2.13,2.79-4.89,2.47-7.77-.51-4.57-4.19-8.24-8.75-8.75-3.12-.35-6.16.75-8.31,3.01-1.77,1.86-4.03,2.74-6.2,2.42-.48-.07-.98-.06-1.48.03-1.77.32-3.21,1.7-3.57,3.45-.28,1.36.05,2.75.91,3.81.96,1.18,2.5,1.8,3.98,1.63.32-.04.64-.05.95-.05Z"/>
            </g>
            <g id="eyes">
                <path class="cls-2" d="M189.81,70.82c-1.2-4.77-3-9.29-5.32-13.5h-.87c-6.42,0-16.75,3.02-16.75,6.75h0c0,3.73,5.91,6.75,10.75,6.75h12.19Z"/>
                <path class="cls-2" d="M190.66,97.09c-1.2,4.77-3,9.29-5.32,13.5h-.87c-6.42,0-16.75-3.02-16.75-6.75h0c0-3.73,5.91-6.75,10.75-6.75h12.19Z"/>
            </g>
        </g>
    </g>
</svg>