<?xml version="1.0" encoding="UTF-8"?>
<svg id="Calque_2"
	xmlns="http://www.w3.org/2000/svg" viewBox="0 0 1028.64 479.5">
	<defs>
		<style>.cls-1{fill:#fff;}.cls-2{fill:#999;}.cls-3{fill:#333;}.cls-4{fill:gray;}.cls-5{fill:none;stroke:#999;stroke-miterlimit:10;stroke-width:2.83px;}</style>
	</defs>
	<g id="Calque_1-2">
		<g id="joystick">
			<g>
				<rect id="background" class="cls-3" x="0" y="0" width="1011.67" height="454.5" rx="20" ry="20"/>
				<path id="background-2" class="cls-2" d="M32.97,22.97H978.7c5.52,0,10,4.48,10,10V421.54c0,5.52-4.48,10-10,10H32.97c-5.52,0-10-4.48-10-10V32.97c0-5.52,4.48-10,10-10ZM0,434.5c0,11.05,8.95,20,20,20H991.67c11.05,0,20-8.95,20-20V20c0-11.05-8.95-20-20-20H20C8.95,0,0,8.95,0,20V434.5Z"/>
			</g>
			<g id="butons">
				<path id="buton_right" class="cls-4" d="M1011.67,78.08h2.22c8.14,0,14.75,6.61,14.75,14.75v82.47c0,8.14-6.61,14.75-14.75,14.75h-2.22V78.08h0Z"/>
				<g id="buton_play">
					<path id="buton_play-2" class="cls-4" d="M876.32,328.39l-94.18,47.09c-5.92,2.96-12.88-1.34-12.88-7.96v-94.18c0-6.61,6.96-10.92,12.88-7.96l94.18,47.09c6.56,3.28,6.56,12.64,0,15.92Z"/>
					<path id="buton_play-3" class="cls-2" d="M778.17,264.43c1.32,0,2.67,.3,3.97,.95l94.18,47.09c6.56,3.28,6.56,12.64,0,15.92l-94.18,47.09c-1.3,.65-2.66,.95-3.98,.95-4.67,0-8.9-3.75-8.9-8.91v-94.18c0-5.16,4.23-8.91,8.9-8.91m0-8.1h0c-9.38,0-17.01,7.63-17.01,17.01v94.18c0,9.38,7.63,17.01,17,17.01,2.65,0,5.2-.61,7.6-1.81l94.18-47.09c5.8-2.9,9.4-8.72,9.4-15.2,0-6.48-3.6-12.31-9.4-15.21l-94.18-47.09c-2.4-1.2-4.95-1.81-7.6-1.81h0Z"/>
				</g>
				<g id="buton_square">
					<rect id="buton_square-2" class="cls-4" x="769.26" y="78.08" width="111.97" height="111.97" rx="16.2" ry="16.2"/>
					<path id="buton_square-3" class="cls-2" d="M865.03,78.08c8.95,0,16.2,7.25,16.2,16.2v79.56c0,8.95-7.26,16.2-16.2,16.2h-79.56c-8.95,0-16.2-7.25-16.2-16.2V94.28c0-8.95,7.25-16.2,16.2-16.2h79.56m0-8.1h-79.56c-13.4,0-24.31,10.9-24.31,24.31v79.56c0,13.4,10.9,24.31,24.31,24.31h79.56c13.4,0,24.31-10.9,24.31-24.31V94.28c0-13.4-10.9-24.31-24.31-24.31h0Z"/>
				</g>
				<g id="buton_circle">
					<circle id="buton_circle-2" class="cls-4" cx="177.33" cy="227.25" r="82.19"/>
					<path id="buton_circle-3" class="cls-2" d="M177.33,145.07c45.39,0,82.19,36.8,82.18,82.19,0,45.39-36.8,82.18-82.19,82.18s-82.19-36.79-82.19-82.18,36.8-82.19,82.19-82.19m0-22.97c-57.98,0-105.15,47.17-105.15,105.15s47.17,105.15,105.15,105.15,105.15-47.17,105.15-105.15c0-28.09-10.94-54.49-30.8-74.35-19.86-19.86-46.27-30.8-74.35-30.8h0Z"/>
					<g id="arrow">
						<polygon class="cls-1" points="177.87 99.13 192.82 117.69 162.92 117.69 177.87 99.13"/>
						<polygon class="cls-1" points="305.04 226.38 286.48 241.34 286.48 211.43 305.04 226.38"/>
						<polygon class="cls-1" points="177.87 353.63 162.92 335.07 192.82 335.07 177.87 353.63"/>
						<polygon class="cls-1" points="50.7 226.38 69.26 211.43 69.26 241.34 50.7 226.38"/>
					</g>
				</g>
			</g>
			<g id="sensors">
				<g id="light_sensor">
					<circle class="cls-5" cx="184.37" cy="61.24" r="29.62"/>
					<circle class="cls-1" cx="184.37" cy="61.24" r="12.26"/>
				</g>
				<g id="micro">
					<circle class="cls-1" cx="256.86" cy="61.24" r="29.62"/>
					<circle class="cls-5" cx="256.86" cy="61.24" r="12.26"/>
				</g>
			</g>
			<g id="screen">
				<rect id="rectangle_black" x="325.32" y="51.09" width="387.22" height="357.32"/>
				<rect id="rectangle_white" class="cls-1" x="340.54" y="63" width="330.6" height="330.6"/>
			</g>
			<g id="text">
				<g id="A">
					<path class="cls-1" d="M947.37,147.69l-3.12-7.25h-14.06l-3.12,7.25h-7.97l14.5-33.55h7.25l14.5,33.55h-7.97Zm-10.13-23.57l-4.22,9.74h8.4l-4.18-9.74Z"/>
				</g>
				<g id="B">
					<path class="cls-1" d="M938.16,334.06h-14.69v-33.55h13.06c2.27,0,4.23,.27,5.88,.82,1.65,.54,2.89,1.28,3.72,2.21,1.5,1.73,2.26,3.68,2.26,5.86,0,2.62-.85,4.58-2.54,5.86-.58,.45-.98,.73-1.2,.84-.22,.11-.62,.3-1.2,.55,2.08,.45,3.74,1.38,4.97,2.81,1.23,1.42,1.85,3.19,1.85,5.3,0,2.34-.8,4.4-2.4,6.19-1.86,2.08-5.09,3.12-9.7,3.12Zm-7.2-19.97h3.55c2.08,0,3.62-.22,4.63-.67,1.01-.45,1.51-1.42,1.51-2.9s-.46-2.47-1.39-2.95c-.93-.48-2.5-.72-4.7-.72h-3.6v7.25Zm0,13.63h5.14c2.14,0,3.75-.26,4.82-.79,1.07-.53,1.61-1.57,1.61-3.12s-.57-2.58-1.7-3.07c-1.14-.5-2.95-.74-5.45-.74h-4.42v7.73Z"/>
				</g>
			</g>
            <g id="led">
				<rect id="cyberpi-led0" class="cls-1" x="70" y="454.5" width="150" height="25" rx="16.2" ry="16.2"/>
                <rect id="cyberpi-led1" class="cls-1" x="250" y="454.5" width="150" height="25" rx="16.2" ry="16.2"/>
				<rect id="cyberpi-led2" class="cls-1" x="430" y="454.5" width="150" height="25" rx="16.2" ry="16.2"/>
				<rect id="cyberpi-led3" class="cls-1" x="610" y="454.5" width="150" height="25" rx="16.2" ry="16.2"/>
				<rect id="cyberpi-led4" class="cls-1" x="790" y="454.5" width="150" height="25" rx="16.2" ry="16.2"/>
            </g>
		</g>
	</g>
</svg>