<?xml version="1.0" encoding="UTF-8"?>
<svg id="Calque_2"
    xmlns="http://www.w3.org/2000/svg"
    xmlns:xlink="http://www.w3.org/1999/xlink" viewBox="0 0 240.52 206.22">
    <defs>
        <style>.cls-1,.cls-2,.cls-3,.cls-4,.cls-5,.cls-6{fill:none;}.cls-7{clip-path:url(#clippath);}.cls-8{fill:#ea5e38;}.cls-9{fill:#fff;}.cls-10{fill:#ffd724;}.cls-11{fill:#ff9403;}.cls-12{fill:#333;}.cls-13{fill:#d5f0db;}.cls-14{fill:#1a6da8;}.cls-15{fill:#37528b;}.cls-16{fill:gray;}.cls-17{fill:#58c270;}.cls-18{fill:#24a069;}.cls-2{opacity:.9;stroke-width:19.84px;}.cls-2,.cls-3,.cls-4,.cls-6{stroke-miterlimit:10;}.cls-2,.cls-4{stroke:#a0dae0;}.cls-3{stroke:#ffd724;stroke-width:1px;}.cls-3,.cls-5{stroke-linecap:round;}.cls-4{stroke-width:22.68px;}.cls-4,.cls-19{opacity:.5;}.cls-5{stroke:#000;stroke-linejoin:round;}.cls-5,.cls-6{stroke-width:2.83px;}.cls-6{stroke:#fff;}.cls-19{fill:#a0dae0;}</style>
        <clipPath id="clippath">
            <path class="cls-1" d="M189.68,98.28c0-26.87-7.83-68.41-16.46-82.62-4.29-7.06-8.22-10.39-15.27-10.9-6.14-.45-12.3,4.75-19.76,1.75C119.5-1,102.89,.05,102.89,.05,46.07,.05,0,46.12,0,102.94s46.07,102.89,102.89,102.89c0,0,18.01,2.63,37.61-5.87,7.14-3.09,12,3.22,21.22,1.13,6.93-1.58,8.18-4.97,11.49-10.08,9.74-15.01,16.46-62.07,16.46-92.74Z"/>
        </clipPath>
    </defs>
    <g id="Calque_1-2">
        <g id="Bluebot">
            <g id="components">
                <rect class="cls-16" x="3.27" y="64.34" width="168.86" height="75.49" rx="21.98" ry="21.98" transform="translate(189.78 14.39) rotate(90)"/>
                <rect class="cls-15" x="28.84" y="37.27" width="117.7" height="129.62" rx="21.98" ry="21.98" transform="translate(189.78 14.39) rotate(90)"/>
                <rect class="cls-12" x="101.77" y="52.96" width="32.33" height="24.69" rx="3.06" ry="3.06" transform="translate(183.24 -52.64) rotate(90)"/>
                <g id="elements_yelows">
                    <g>
                        <circle class="cls-10" cx="109.96" cy="124.33" r="3.11"/>
                        <circle class="cls-10" cx="109.96" cy="131.11" r="3.11"/>
                        <circle class="cls-10" cx="109.96" cy="137.34" r="3.11"/>
                        <circle class="cls-10" cx="109.96" cy="143.56" r="3.11"/>
                        <circle class="cls-10" cx="109.96" cy="149.78" r="3.11"/>
                        <circle class="cls-10" cx="109.96" cy="156.01" r="3.11"/>
                    </g>
                    <g>
                        <line class="cls-3" x1="166.58" y1="63.79" x2="146.39" y2="63.79"/>
                        <line class="cls-3" x1="166.58" y1="66.35" x2="146.39" y2="66.35"/>
                        <line class="cls-3" x1="166.58" y1="69.27" x2="146.39" y2="69.27"/>
                        <line class="cls-3" x1="166.58" y1="71.94" x2="146.39" y2="71.94"/>
                    </g>
                    <g>
                        <line class="cls-3" x1="166.58" y1="134.22" x2="146.39" y2="134.22"/>
                        <line class="cls-3" x1="166.58" y1="136.78" x2="146.39" y2="136.78"/>
                        <line class="cls-3" x1="166.58" y1="139.7" x2="146.39" y2="139.7"/>
                        <line class="cls-3" x1="166.58" y1="142.37" x2="146.39" y2="142.37"/>
                    </g>
                </g>
            </g>
            <path id="body" class="cls-19" d="M140.62,199.91c14.67-2.21,99.9-18.45,99.9-96.89C240.52,17.2,138.47,6.01,138.47,6.01v.61C119.67-1.01,102.89,.05,102.89,.05,46.07,.05,0,46.12,0,102.94s46.07,102.89,102.89,102.89c0,0,18.08,2.63,37.73-5.92Z"/>
            <g id="stripes">
                <g class="cls-7">
                    <path class="cls-2" d="M17.95,206.22c22.85,0,41.38-46.16,41.38-103.11S40.81,0,17.95,0"/>
                    <path class="cls-2" d="M50.18,218.86c27.96,0,50.63-51.82,50.63-115.75S78.14-12.64,50.18-12.64"/>
                    <path class="cls-2" d="M50.18,257.91c52.65,0,95.32-69.31,95.32-154.8S102.82-51.69,50.18-51.69"/>
                    <path class="cls-4" d="M106.11,257.6c37,0,66.99-69.31,66.99-154.8S143.11-52,106.11-52"/>
                </g>
            </g>
            <g id="face">
                <g id="eyes">
                    <path class="cls-9" d="M166.44,60.37c0-22.17,17.94-27.02,28.09-27.99,3.79-.36,7.41,3.28,8.24,5.82,8.12,24.73-1.91,42.65-7.24,50.86-1.72,2.64-6.36,3.79-10.12,2.44-7.74-2.8-18.97-10.42-18.97-31.12Z"/>
                    <path d="M205.82,56.35l-14.26-3.71c-3.73-.97-7.45,1.83-8.28,6.22h0c-.82,4.39,1.55,8.78,5.28,9.75l14.72,3.84c1.41-4.75,2.42-10.16,2.53-16.1Z"/>
                    <path class="cls-9" d="M166.44,145.85c0,22.17,17.94,27.02,28.09,27.99,3.79,.36,7.41-3.28,8.24-5.82,8.12-24.73-1.91-42.65-7.24-50.86-1.72-2.64-6.36-3.79-10.12-2.44-7.74,2.8-18.97,10.42-18.97,31.12Z"/>
                    <path d="M205.82,149.87l-14.26,3.71c-3.73,.97-7.45-1.83-8.28-6.22h0c-.82-4.39,1.55-8.78,5.28-9.75l14.72-3.84c1.41,4.75,2.42,10.16,2.53,16.1Z"/>
                </g>
                <path id="smile" class="cls-5" d="M214.44,71.53c10.13,0,18.35,14.14,18.35,31.58s-8.21,31.58-18.35,31.58"/>
            </g>
            <g id="butons">
                <g id="go">
                    <circle class="cls-18" cx="100.67" cy="101.52" r="12.41"/>
                    <circle class="cls-17" cx="101.67" cy="101.52" r="12.41"/>
                    <g>
                        <path class="cls-13" d="M97.48,100.42c-.2-.55-.52-1.62-.52-2.9,0-1.43,.36-2.61,1.25-3.53,.78-.81,2.05-1.32,3.52-1.32,2.82,.01,4.87,1.95,4.87,5.11,0,1.09-.24,1.95-.43,2.35l-.99-.29c.22-.5,.41-1.13,.41-2.09,0-2.3-1.43-3.8-3.8-3.8s-3.81,1.44-3.81,3.64c0,.8,.11,1.34,.25,1.62h2.82v-1.92h.98v3.11h-4.54Z"/>
                        <path class="cls-13" d="M101.88,110.35c-3.25,0-4.97-1.97-4.97-4.38s1.93-4.25,4.79-4.25c3,0,4.96,1.86,4.96,4.38s-1.98,4.24-4.78,4.24Zm-.15-7.33c-2.02,0-3.82,1.09-3.82,3.01s1.78,3.03,3.92,3.03c1.88,0,3.84-.98,3.84-3.01s-1.86-3.03-3.94-3.03Z"/>
                    </g>
                </g>
                <g id="up">
                    <ellipse class="cls-8" cx="144.14" cy="101.18" rx="13.97" ry="9.7"/>
                    <ellipse class="cls-11" cx="145.14" cy="101.18" rx="13.97" ry="9.7"/>
                    <path class="cls-9" d="M146.3,107.34l9.17-5.29c.67-.38,.67-1.35,0-1.73l-9.16-5.29c-.67-.38-1.5,.1-1.5,.87v2.47h-9.5c-.55,0-1,.45-1,1v3.63c0,.55,.45,1,1,1h9.5v2.47c0,.77,.83,1.25,1.5,.87Z"/>
                </g>
                <g id="down">
                    <ellipse class="cls-8" cx="57.2" cy="101.18" rx="13.97" ry="9.7"/>
                    <ellipse class="cls-11" cx="58.2" cy="101.18" rx="13.97" ry="9.7"/>
                    <path class="cls-9" d="M57.03,95.02l-9.17,5.29c-.67,.38-.67,1.35,0,1.73l9.16,5.29c.67,.38,1.5-.1,1.5-.87v-2.47h9.5c.55,0,1-.45,1-1v-3.63c0-.55-.45-1-1-1h-9.5v-2.47c0-.77-.83-1.25-1.5-.87Z"/>
                </g>
                <g id="left">
                    <ellipse class="cls-8" cx="98.09" cy="58.05" rx="9.7" ry="13.97"/>
                    <ellipse class="cls-11" cx="99.09" cy="58.05" rx="9.7" ry="13.97"/>
                    <path class="cls-9" d="M105.25,56.88l-5.29-9.17c-.38-.67-1.35-.67-1.73,0l-5.29,9.16c-.38,.67,.1,1.5,.87,1.5h2.47v9.5c0,.55,.45,1,1,1h3.63c.55,0,1-.45,1-1v-9.5h2.47c.77,0,1.25-.83,.87-1.5Z"/>
                </g>
                <g id="right">
                    <ellipse class="cls-8" cx="98.09" cy="144.99" rx="9.7" ry="13.97"/>
                    <ellipse class="cls-11" cx="99.09" cy="144.99" rx="9.7" ry="13.97"/>
                    <path class="cls-9" d="M92.93,146.16l5.29,9.17c.38,.67,1.35,.67,1.73,0l5.29-9.16c.38-.67-.1-1.5-.87-1.5h-2.47v-9.5c0-.55-.45-1-1-1h-3.63c-.55,0-1,.45-1,1v9.5h-2.47c-.77,0-1.25,.83-.87,1.5Z"/>
                </g>
                <g id="erase">
                    <rect class="cls-15" x="29.29" y="49.57" width="35.29" height="15.97" rx="7.98" ry="7.98" transform="translate(104.49 10.61) rotate(90)"/>
                    <rect class="cls-14" x="30.29" y="49.57" width="35.29" height="15.97" rx="7.98" ry="7.98" transform="translate(105.49 9.61) rotate(90)"/>
                    <g id="icon">
                        <line class="cls-6" x1="52.87" y1="52.62" x2="43.01" y2="62.48"/>
                        <line class="cls-6" x1="52.87" y1="62.48" x2="43.01" y2="52.62"/>
                    </g>
                </g>
                <g id="pause">
                    <rect class="cls-15" x="30.29" y="140.69" width="35.29" height="15.97" rx="7.98" ry="7.98" transform="translate(196.61 100.73) rotate(90)"/>
                    <rect class="cls-14" x="31.29" y="140.69" width="35.29" height="15.97" rx="7.98" ry="7.98" transform="translate(197.61 99.73) rotate(90)"/>
                    <g id="icon-2">
                        <line class="cls-6" x1="55.23" y1="145.68" x2="42.91" y2="145.68"/>
                        <line class="cls-6" x1="55.23" y1="151.66" x2="42.91" y2="151.66"/>
                    </g>
                </g>
            </g>
        </g>
    </g>
</svg>