<svg xmlns="http://www.w3.org/2000/svg" width="32.323" height="24.453" viewBox="0 0 32.323 24.453">
  <g id="icon-variable" transform="translate(144.601 -261.073)">
    <path id="_" data-name="(" d="M-139.423,264.437a3.068,3.068,0,0,0-.355-2.664,1.588,1.588,0,0,0-1.321-.7h-.009a1.8,1.8,0,0,0-1.534,1.28,30.269,30.269,0,0,0-1.218,4.3,31.383,31.383,0,0,0-.741,6.659,31.157,31.157,0,0,0,.74,6.634,29.669,29.669,0,0,0,1.207,4.254,1.8,1.8,0,0,0,1.6,1.323,1.568,1.568,0,0,0,1.269-.7,3.063,3.063,0,0,0,.356-2.665c-.274-.857-.528-1.8-.757-2.813a27.464,27.464,0,0,1-.733-6.044,27.394,27.394,0,0,1,.733-6.042C-139.955,266.247-139.7,265.3-139.423,264.437Z" fill="#fff"/>
    <path id="_2" data-name=")" d="M-113.023,266.661a29.4,29.4,0,0,0-1.206-4.264,1.824,1.824,0,0,0-1.6-1.324,1.573,1.573,0,0,0-1.27.7,3.067,3.067,0,0,0-.356,2.663c.278.867.534,1.817.764,2.828a27.391,27.391,0,0,1,.733,6.029,27.554,27.554,0,0,1-.734,6.058c-.228,1.005-.482,1.951-.757,2.81a3.074,3.074,0,0,0,.36,2.668,1.579,1.579,0,0,0,1.31.693h.009a1.769,1.769,0,0,0,1.533-1.279,30.033,30.033,0,0,0,1.218-4.287,31.142,31.142,0,0,0,.741-6.646A31.263,31.263,0,0,0-113.023,266.661Z" fill="#fff"/>
    <path id="Tracé_6663" data-name="Tracé 6663" d="M170.824,423.191a1.622,1.622,0,0,0-1.166.647,3.549,3.549,0,0,1-3.027,1.1c-1.027,0-1.746-1.25-1.845-2.407l.009-.29c.007-.122.013-.247.013-.38l0-.261c.209-2.076,1.622-2.732,2-2.732a.979.979,0,0,1,.9.679,1.266,1.266,0,0,0,1.263,1.18,1.3,1.3,0,0,0,1.265-1.267,3.472,3.472,0,0,0-3.425-3.144,4.377,4.377,0,0,0-3.144,1.634,3.658,3.658,0,0,0-3.016-1.634c-2.638,0-3.044.643-4.405,2.494a1.271,1.271,0,0,0,1.088,1.917,1.3,1.3,0,0,0,1.09-.614c1.316-1.468,1.493-1.251,2.227-1.245.809,0,1.519,1.18,1.611,2.647l-.011.263c-.005.119-.013.24-.013.364,0,.081.007.169.025.364-.1,1.434-.6,2.432-1.2,2.432a1.337,1.337,0,0,1-1.011-.834,1.3,1.3,0,0,0-1.195-.829,1.28,1.28,0,0,0-1.265,1.288,3.72,3.72,0,0,0,3.47,2.906,3.269,3.269,0,0,0,2.6-1.366,3.961,3.961,0,0,0,2.971,1.366,6.115,6.115,0,0,0,5.121-2.132,1.279,1.279,0,0,0,.359-.885A1.292,1.292,0,0,0,170.824,423.191Z" transform="translate(-292.137 -148.597)" fill="#fff"/>
  </g>
</svg>
