
<svg xmlns="http://www.w3.org/2000/svg" width="27.359" height="23.939" viewBox="0 0 27.359 23.939">
  <g id="icon-copy" transform="translate(0.456 -0.061)">
	<path id="block-solid" d="M22.6,19.4h-9.7c-1.8,0-3.2-1.5-3.2-3.2V3.2c0-1.8,1.5-3.2,3.2-3.2H20c0.6,0,1.3,0.3,1.7,0.7l3.4,3.4
		c0.5,0.5,0.7,1.1,0.7,1.7v10.3C25.9,18,24.4,19.4,22.6,19.4z M3.2,6.5h4.9v2.4H3.2c-0.4,0-0.8,0.4-0.8,0.8v12.9
		c0,0.4,0.4,0.8,0.8,0.8h9.7c0.4,0,0.8-0.4,0.8-0.8V21h2.4v1.6c0,1.8-1.5,3.2-3.2,3.2H3.2c-1.8,0-3.2-1.5-3.2-3.2V9.7
		C0,7.9,1.5,6.5,3.2,6.5z" fill="#fff"/>
  </g>
</svg>
