<svg xmlns="http://www.w3.org/2000/svg" width="26.272" height="26.752" viewBox="0 0 26.272 26.752">
  <path id="icon-bug" d="M197.913,240.326a.82.82,0,0,1-.592-1v-.005l.326-1.246-.026-.078-1.341-1.733a8.41,8.41,0,0,1-2.746.478,6.967,6.967,0,0,1-4.419-1.551l8.854-9.085c1.588,1.62,3.973,1.994,4.751,1.475a6.863,6.863,0,0,1-.259,2.256l1.811.923a.812.812,0,0,1,.436.575l.321,1.7a.82.82,0,0,1-.656.956h0a.783.783,0,0,1-.155.014.819.819,0,0,1-.811-.667l-.241-1.266-.06-.064-1.276-.649a10.307,10.307,0,0,1-1.128,1.719l1.845,1.907a.819.819,0,0,1,.221.686l-.283,1.925a.82.82,0,0,1-.82.7,1.175,1.175,0,0,1-.12-.007.821.821,0,0,1-.7-.925v-.005l.189-1.273-.251-.551-1.2-1.239a9.954,9.954,0,0,1-1.76,1.273l1.386,1.793a.82.82,0,0,1,.146.706l-.439,1.667a.82.82,0,0,1-.8.615A.931.931,0,0,1,197.913,240.326Zm-11.173-12.7-1.8-1.225-.242-.063-1,.41a.82.82,0,0,1-1.076-.432l0-.007a.82.82,0,0,1,.444-1.071h0l1.508-.622a.821.821,0,0,1,.783.078l1.888,1.289a10.056,10.056,0,0,1,.95-1.81l-1.314-1.359-.69-.338-1.059.205a.82.82,0,0,1-.967-.641v-.007a.82.82,0,0,1,.649-.96h0l1.805-.349a.82.82,0,0,1,.753.235l1.863,1.925c.037-.037.06-.081.1-.12a10.392,10.392,0,0,1,1.522-1.29l-.468-1.178-.17-.191-1.059-.205a.82.82,0,0,1-.651-.959v0a.828.828,0,0,1,.971-.646l1.6.315a.819.819,0,0,1,.608.5l.615,1.538a6.657,6.657,0,0,1,3.064-.8,5.735,5.735,0,0,0,1.446,5.086l-8.864,9.1a7.873,7.873,0,0,1-1.216-6.4Zm14.875-1a3.4,3.4,0,0,1-.658-.093c-.1-.025-.2-.059-.3-.09a4.607,4.607,0,0,1-.573-.23c-.107-.049-.208-.1-.313-.159a5.822,5.822,0,0,1-.581-.372c-.092-.066-.181-.124-.272-.191a8.422,8.422,0,0,1-.79-.716l-.012-.009a8.286,8.286,0,0,1-.613-.712c-.088-.116-.158-.234-.239-.351s-.175-.251-.25-.379c-.1-.169-.179-.341-.263-.509-.033-.077-.075-.148-.106-.224a5,5,0,0,1-.2-.617c-.007-.039-.024-.077-.033-.113a4.169,4.169,0,0,1-.094-.685v-.034a3.032,3.032,0,0,1,.868-2.343,3.86,3.86,0,0,1,4.083-.839,1.087,1.087,0,0,1,.078-.181c.047-.075.514-.942-.5-2.575a1.054,1.054,0,0,1,.348-1.449,1.067,1.067,0,0,1,1.461.345c1.456,2.352.95,4.185.42,4.9l-.013.011c.115.1.235.186.344.3s.2.25.305.375a.863.863,0,0,1,.176-.12,4.611,4.611,0,0,1,4.6.527,1.059,1.059,0,0,1-1.427,1.565c-.848-.757-2.329-.161-2.34-.157H204.7a4.2,4.2,0,0,1-.8,4.228,2.984,2.984,0,0,1-.36.292v.011c-.02.017-.043.022-.067.039a2.917,2.917,0,0,1-.7.384c-.034.011-.067.032-.1.046a2.9,2.9,0,0,1-.852.142h-.034a1.04,1.04,0,0,1-.166-.015Z" transform="translate(-182.56 -213.595)" fill="#fff"/>
</svg>
