<svg xmlns="http://www.w3.org/2000/svg" width="22.91" height="22.501" viewBox="0 0 22.91 22.501">
  <path id="icon-bloc" d="M239.585,50.94c0-1.712,0-3.425,0-5.137a2.176,2.176,0,0,1,1.1-1.754c1.011-.436,8.7-3.286,9.487-3.583a2.108,2.108,0,0,1,1.541-.062q4.644,1.746,9.293,3.479a2.171,2.171,0,0,1,1.465,1.888c.04,3.384,0,6.771.012,10.156a2.179,2.179,0,0,1-.359,1.253,2.233,2.233,0,0,1-.853.745c-1.018.512-6.85,3.439-8.754,4.381-1.536.953-2.367.314-3.787-.407-2.749-1.4-5.543-2.724-8.268-4.167a2.188,2.188,0,0,1-.884-1.749q0-2.522,0-5.043Zm2.192-5c3.063,1.254,6.136,2.487,9.2,3.745,3.118-1.13,6.207-2.513,9.31-3.74-3.045-1.186-6.132-2.3-9.19-3.461C247.982,43.547,244.877,44.793,241.777,45.941Zm8.175,9.89s0-2.666,0-4c0-.264.036-.2-.2-.3-1.978-.8-7.251-2.943-7.913-3.209-.051-.021-.073-.014-.07.044-.018.669-.131,7.484.09,7.67,2.659,1.316,5.306,2.656,7.964,3.974.132.063.131.064.131-.086Zm2.168,4.163c0,.079.009.085.079.049.9-.468,6.268-3.158,8.05-4.029.142-.07.031-.242.058-.362,0-.984-.013-5.829.013-7.267,0-.09-.012-.1-.084-.071q-4,1.622-7.99,3.247c-.125.051-.125.051-.125.187C252.121,53.114,252.121,58.612,252.12,59.994Z" transform="translate(-239.583 -40.285)" fill="#fff"/>
</svg>
