<svg xmlns="http://www.w3.org/2000/svg" width="23.908" height="23.687" viewBox="0 0 23.908 23.687">
  <path id="icon-fullscreen" d="M-670.776-34.053H-677.3a1.7,1.7,0,0,1-1.7-1.7,1.7,1.7,0,0,1,1.7-1.7h4.83v-4.83a1.7,1.7,0,0,1,1.7-1.7,1.7,1.7,0,0,1,1.7,1.7v6.528A1.7,1.7,0,0,1-670.776-34.053Zm-13.985,0h-6.525a1.7,1.7,0,0,1-1.7-1.7v-6.528a1.7,1.7,0,0,1,1.7-1.7,1.7,1.7,0,0,1,1.7,1.7v4.83h4.828a1.7,1.7,0,0,1,1.7,1.7A1.7,1.7,0,0,1-684.761-34.053Zm13.982-13.768a1.7,1.7,0,0,1-1.7-1.7v-4.828h-4.831a1.7,1.7,0,0,1-1.7-1.7,1.7,1.7,0,0,1,1.7-1.7h6.527a1.7,1.7,0,0,1,1.7,1.7v6.524A1.7,1.7,0,0,1-670.779-47.822Zm-20.512,0a1.7,1.7,0,0,1-1.7-1.7v-6.524a1.7,1.7,0,0,1,1.7-1.7h6.527a1.7,1.7,0,0,1,1.7,1.7,1.7,1.7,0,0,1-1.7,1.7h-4.83v4.828A1.7,1.7,0,0,1-691.292-47.822Z" transform="translate(692.988 57.74)" fill="#fff"/>
</svg>
