<svg xmlns="http://www.w3.org/2000/svg" width="27.359" height="23.939" viewBox="0 0 27.359 23.939">
  <g id="icon-photo" transform="translate(0.456 -0.061)">
    <path id="camera-solid" d="M27.359,37.985v15.39a2.566,2.566,0,0,1-2.565,2.565H2.565A2.566,2.566,0,0,1,0,53.375V37.985A2.566,2.566,0,0,1,2.565,35.42h4.7l.657-1.758A2.561,2.561,0,0,1,10.324,32H17.03a2.561,2.561,0,0,1,2.4,1.662l.663,1.758h4.7A2.566,2.566,0,0,1,27.359,37.985ZM20.092,45.68a6.412,6.412,0,1,0-6.412,6.412A6.417,6.417,0,0,0,20.092,45.68Zm-1.71,0a4.7,4.7,0,1,1-4.7-4.7A4.709,4.709,0,0,1,18.382,45.68Z" transform="translate(-0.456 -31.939)" fill="#fff"/>
  </g>
</svg>
