<svg xmlns="http://www.w3.org/2000/svg" xmlns:xlink="http://www.w3.org/1999/xlink" viewBox="0 0 224.28 143.83"><defs><style>.cls-1{fill:none;}.cls-2{fill:#453e36;}.cls-3{fill:#1a1a1a;}.cls-4{fill:#fff;}.cls-5{fill:#ffc152;}.cls-6{clip-path:url(#clip-path);}.cls-7{clip-path:url(#clip-path-2);}.cls-8{clip-path:url(#clip-path-3);}.cls-9{clip-path:url(#clip-path-4);}.cls-10{clip-path:url(#clip-path-5);}.cls-11{clip-path:url(#clip-path-6);}.cls-12{clip-path:url(#clip-path-7);}.cls-13{clip-path:url(#clip-path-8);}.cls-14{clip-path:url(#clip-path-9);}.cls-15{clip-path:url(#clip-path-10);}.cls-16,.cls-19{opacity:0.5;}.cls-17,.cls-19{fill:#e6e6e6;}.cls-18{fill:#342f29;}</style><clipPath id="clip-path"><rect class="cls-1" x="53.36" y="114.07" width="52.88" height="9.75"/></clipPath><clipPath id="clip-path-2"><rect class="cls-1" x="52.67" y="20.08" width="52.88" height="9.75"/></clipPath><clipPath id="clip-path-3"><rect class="cls-1" x="147.16" y="10.33" width="52.88" height="9.75"/></clipPath><clipPath id="clip-path-4"><rect class="cls-1" x="9.84" y="21" width="9.75" height="101.96"/></clipPath><clipPath id="clip-path-5"><rect class="cls-1" x="134.41" y="118.09" width="14.14" height="6.3"/></clipPath><clipPath id="clip-path-6"><rect class="cls-1" x="118.47" y="106.46" width="6.3" height="14.14"/></clipPath><clipPath id="clip-path-7"><rect class="cls-1" x="47.24" y="98.38" width="63.73" height="8.07"/></clipPath><clipPath id="clip-path-8"><rect class="cls-1" x="46.95" y="37.44" width="63.73" height="8.07"/></clipPath><clipPath id="clip-path-9"><rect class="cls-1" x="31.8" y="22.01" width="12.99" height="1.55"/></clipPath><clipPath id="clip-path-10"><rect class="cls-1" x="31.8" y="120.37" width="12.99" height="1.55"/></clipPath></defs><g id="Calque_2" data-name="Calque 2"><g id="Calque_1-2" data-name="Calque 1"><g id="Hub_dessus" data-name="Hub dessus"><polygon class="cls-2" points="216.55 142.42 7.83 142.42 1.42 135.77 1.42 8.34 7.97 1.42 216.55 1.42 222.86 8.2 222.86 136.47 216.55 142.42"/><rect class="cls-3" x="63.55" y="54.38" width="30.53" height="30.53" rx="3"/><rect class="cls-3" x="151.42" y="36.51" width="30.53" height="30.53" rx="3"/><rect class="cls-3" x="192.06" y="42.82" width="6.04" height="8.12" rx="1"/><path class="cls-4" d="M197.1,51.36h-4a1.43,1.43,0,0,1-1.43-1.42V43.82a1.43,1.43,0,0,1,1.43-1.42h4a1.43,1.43,0,0,1,1.42,1.42v6.12A1.43,1.43,0,0,1,197.1,51.36Zm-4-8.11a.57.57,0,0,0-.58.57v6.12a.58.58,0,0,0,.58.57h4a.58.58,0,0,0,.57-.57V43.82a.57.57,0,0,0-.57-.57Z"/><rect class="cls-3" x="193.91" y="71.98" width="7.23" height="8.74" rx="1"/><path class="cls-4" d="M200.14,81.15h-5.23a1.43,1.43,0,0,1-1.42-1.43V73a1.43,1.43,0,0,1,1.42-1.42h5.23A1.43,1.43,0,0,1,201.57,73v6.74A1.43,1.43,0,0,1,200.14,81.15Zm-5.23-8.74a.58.58,0,0,0-.57.57v6.74a.58.58,0,0,0,.57.58h5.23a.58.58,0,0,0,.58-.58V73a.58.58,0,0,0-.58-.57Z"/><rect class="cls-3" x="179.46" y="101.67" width="4.81" height="5.93"/><path class="cls-4" d="M184.7,108H179v-6.78h5.66Zm-4.81-.85h4V102.1h-4Z"/><rect class="cls-3" x="193.04" y="110.3" width="3.23" height="3.23"/><path class="cls-4" d="M196.7,114h-4.08v-4.07h4.08Zm-3.23-.85h2.38v-2.37h-2.38Z"/><rect class="cls-3" x="76.71" y="89.7" width="4.81" height="5.93" transform="translate(171.78 13.56) rotate(90)"/><path class="cls-4" d="M82.51,95.5H75.72V89.84h6.79Zm-5.94-.85h5.08v-4H76.57Z"/><rect class="cls-3" x="49.2" y="59.81" width="4.81" height="5.93" transform="translate(114.37 11.17) rotate(90)"/><path class="cls-4" d="M55,65.6H48.21V59.94H55Zm-5.93-.85h5.08v-4H49.06Z"/><rect class="cls-2" x="192.45" y="94.46" width="5.52" height="10.17"/><path class="cls-4" d="M198.39,105.06H192V94h6.36Zm-5.51-.85h4.66V94.89h-4.66Z"/><rect class="cls-5" x="101.22" y="61.52" width="5.38" height="8.98"/><path class="cls-4" d="M107,70.92H100.8V61.09H107Zm-5.38-.85h4.53V61.94h-4.53Z"/><rect class="cls-4" x="114.26" y="11.45" width="15.66" height="5.24" rx="1"/><rect class="cls-4" x="114.26" y="127.86" width="15.66" height="5.24" rx="1"/><rect class="cls-4" x="179.46" y="127.86" width="15.66" height="5.24" rx="1"/><rect class="cls-4" x="204.05" y="105.74" width="12.54" height="9.12" rx="1.18" transform="translate(100.02 320.62) rotate(-90)"/><path class="cls-4" d="M132.31,133.78H112V124h20.33Zm-19.48-.85h18.63v-8.11H112.83Z"/><path class="cls-4" d="M132.26,20.83H111.92V11h20.34ZM112.77,20h18.64V11.87H112.77Z"/><path class="cls-4" d="M197.14,134H176.8v-9.81h20.34Zm-19.49-.85h18.64V125H177.65Z"/><g class="cls-6"><circle class="cls-5" cx="55.25" cy="115.96" r="1.89"/><circle class="cls-5" cx="60.7" cy="115.96" r="1.89"/><circle class="cls-5" cx="66.14" cy="115.96" r="1.89"/><circle class="cls-5" cx="71.59" cy="115.96" r="1.89"/><circle class="cls-5" cx="77.03" cy="115.96" r="1.89"/><circle class="cls-5" cx="82.47" cy="115.96" r="1.89"/><circle class="cls-5" cx="87.92" cy="115.96" r="1.89"/><circle class="cls-5" cx="93.36" cy="115.96" r="1.89"/><circle class="cls-5" cx="98.81" cy="115.96" r="1.89"/><circle class="cls-5" cx="104.25" cy="115.96" r="1.89"/><circle class="cls-5" cx="55.25" cy="121.76" r="1.89"/><circle class="cls-5" cx="60.7" cy="121.76" r="1.89"/><circle class="cls-5" cx="66.14" cy="121.76" r="1.89"/><circle class="cls-5" cx="71.59" cy="121.76" r="1.89"/><circle class="cls-5" cx="77.03" cy="121.76" r="1.89"/><circle class="cls-5" cx="82.47" cy="121.76" r="1.89"/><circle class="cls-5" cx="87.92" cy="121.76" r="1.89"/><circle class="cls-5" cx="93.36" cy="121.76" r="1.89"/><circle class="cls-5" cx="98.81" cy="121.76" r="1.89"/><circle class="cls-5" cx="104.25" cy="121.76" r="1.89"/></g><g class="cls-7"><circle class="cls-5" cx="54.56" cy="21.97" r="1.89"/><circle class="cls-5" cx="60.01" cy="21.97" r="1.89"/><circle class="cls-5" cx="65.45" cy="21.97" r="1.89"/><circle class="cls-5" cx="70.9" cy="21.97" r="1.89"/><circle class="cls-5" cx="76.34" cy="21.97" r="1.89"/><circle class="cls-5" cx="81.79" cy="21.97" r="1.89"/><circle class="cls-5" cx="87.23" cy="21.97" r="1.89"/><circle class="cls-5" cx="92.68" cy="21.97" r="1.89"/><circle class="cls-5" cx="98.12" cy="21.97" r="1.89"/><circle class="cls-5" cx="103.57" cy="21.97" r="1.89"/><circle class="cls-5" cx="54.56" cy="27.77" r="1.89"/><circle class="cls-5" cx="60.01" cy="27.77" r="1.89"/><circle class="cls-5" cx="65.45" cy="27.77" r="1.89"/><circle class="cls-5" cx="70.9" cy="27.77" r="1.89"/><circle class="cls-5" cx="76.34" cy="27.77" r="1.89"/><circle class="cls-5" cx="81.79" cy="27.77" r="1.89"/><circle class="cls-5" cx="87.23" cy="27.77" r="1.89"/><circle class="cls-5" cx="92.68" cy="27.77" r="1.89"/><circle class="cls-5" cx="98.12" cy="27.77" r="1.89"/><circle class="cls-5" cx="103.57" cy="27.77" r="1.89"/></g><g class="cls-8"><circle class="cls-5" cx="149.05" cy="12.22" r="1.89"/><circle class="cls-5" cx="154.49" cy="12.22" r="1.89"/><circle class="cls-5" cx="159.94" cy="12.22" r="1.89"/><circle class="cls-5" cx="165.38" cy="12.22" r="1.89"/><circle class="cls-5" cx="170.83" cy="12.22" r="1.89"/><circle class="cls-5" cx="176.27" cy="12.22" r="1.89"/><circle class="cls-5" cx="181.72" cy="12.22" r="1.89"/><circle class="cls-5" cx="187.16" cy="12.22" r="1.89"/><circle class="cls-5" cx="192.61" cy="12.22" r="1.89"/><circle class="cls-5" cx="198.05" cy="12.22" r="1.89"/><circle class="cls-5" cx="149.05" cy="18.02" r="1.89"/><circle class="cls-5" cx="154.49" cy="18.02" r="1.89"/><circle class="cls-5" cx="159.94" cy="18.02" r="1.89"/><circle class="cls-5" cx="165.38" cy="18.02" r="1.89"/><circle class="cls-5" cx="170.83" cy="18.02" r="1.89"/><circle class="cls-5" cx="176.27" cy="18.02" r="1.89"/><circle class="cls-5" cx="181.72" cy="18.02" r="1.89"/><circle class="cls-5" cx="187.16" cy="18.02" r="1.89"/><circle class="cls-5" cx="192.61" cy="18.02" r="1.89"/><circle class="cls-5" cx="198.05" cy="18.02" r="1.89"/></g><g class="cls-9"><circle class="cls-5" cx="17.7" cy="22.89" r="1.89"/><circle class="cls-5" cx="17.7" cy="28.34" r="1.89"/><circle class="cls-5" cx="17.7" cy="33.78" r="1.89"/><circle class="cls-5" cx="17.7" cy="39.23" r="1.89"/><circle class="cls-5" cx="17.7" cy="44.67" r="1.89"/><circle class="cls-5" cx="17.7" cy="50.12" r="1.89"/><circle class="cls-5" cx="17.7" cy="55.56" r="1.89"/><circle class="cls-5" cx="17.7" cy="61.01" r="1.89"/><circle class="cls-5" cx="17.7" cy="66.45" r="1.89"/><circle class="cls-5" cx="17.7" cy="71.9" r="1.89"/><circle class="cls-5" cx="17.7" cy="77.34" r="1.89"/><circle class="cls-5" cx="17.7" cy="82.79" r="1.89"/><circle class="cls-5" cx="17.7" cy="88.23" r="1.89"/><circle class="cls-5" cx="17.7" cy="93.68" r="1.89"/><circle class="cls-5" cx="17.7" cy="99.12" r="1.89"/><circle class="cls-5" cx="17.7" cy="104.57" r="1.89"/><circle class="cls-5" cx="17.7" cy="110.01" r="1.89"/><circle class="cls-5" cx="17.7" cy="115.46" r="1.89"/><circle class="cls-5" cx="17.7" cy="120.9" r="1.89"/><circle class="cls-5" cx="11.9" cy="22.89" r="1.89"/><circle class="cls-5" cx="11.9" cy="28.34" r="1.89"/><circle class="cls-5" cx="11.9" cy="33.78" r="1.89"/><circle class="cls-5" cx="11.9" cy="39.23" r="1.89"/><circle class="cls-5" cx="11.9" cy="44.67" r="1.89"/><circle class="cls-5" cx="11.9" cy="50.12" r="1.89"/><circle class="cls-5" cx="11.9" cy="55.56" r="1.89"/><circle class="cls-5" cx="11.9" cy="61.01" r="1.89"/><circle class="cls-5" cx="11.9" cy="66.45" r="1.89"/><circle class="cls-5" cx="11.9" cy="71.9" r="1.89"/><circle class="cls-5" cx="11.9" cy="77.34" r="1.89"/><circle class="cls-5" cx="11.9" cy="82.79" r="1.89"/><circle class="cls-5" cx="11.9" cy="88.23" r="1.89"/><circle class="cls-5" cx="11.9" cy="93.68" r="1.89"/><circle class="cls-5" cx="11.9" cy="99.12" r="1.89"/><circle class="cls-5" cx="11.9" cy="104.57" r="1.89"/><circle class="cls-5" cx="11.9" cy="110.01" r="1.89"/><circle class="cls-5" cx="11.9" cy="115.46" r="1.89"/><circle class="cls-5" cx="11.9" cy="120.9" r="1.89"/></g><g class="cls-10"><g id="_Grille_de_répétition_" data-name="&lt;Grille de répétition&gt;"><circle class="cls-5" cx="136.08" cy="119.98" r="1.04"/></g><g id="_Grille_de_répétition_2" data-name="&lt;Grille de répétition&gt;"><circle class="cls-5" cx="138.86" cy="119.98" r="1.04"/></g><g id="_Grille_de_répétition_3" data-name="&lt;Grille de répétition&gt;"><circle class="cls-5" cx="141.65" cy="119.98" r="1.04"/></g><g id="_Grille_de_répétition_4" data-name="&lt;Grille de répétition&gt;"><circle class="cls-5" cx="144.43" cy="119.98" r="1.04"/></g><g id="_Grille_de_répétition_5" data-name="&lt;Grille de répétition&gt;"><circle class="cls-5" cx="147.22" cy="119.98" r="1.04"/></g><g id="_Grille_de_répétition_6" data-name="&lt;Grille de répétition&gt;"><circle class="cls-5" cx="136.08" cy="122.95" r="1.04"/></g><g id="_Grille_de_répétition_7" data-name="&lt;Grille de répétition&gt;"><circle class="cls-5" cx="138.86" cy="122.95" r="1.04"/></g><g id="_Grille_de_répétition_8" data-name="&lt;Grille de répétition&gt;"><circle class="cls-5" cx="141.65" cy="122.95" r="1.04"/></g><g id="_Grille_de_répétition_9" data-name="&lt;Grille de répétition&gt;"><circle class="cls-5" cx="144.43" cy="122.95" r="1.04"/></g><g id="_Grille_de_répétition_10" data-name="&lt;Grille de répétition&gt;"><circle class="cls-5" cx="147.22" cy="122.95" r="1.04"/></g></g><g class="cls-11"><g id="_Grille_de_répétition_11" data-name="&lt;Grille de répétition&gt;"><circle class="cls-5" cx="122.88" cy="108.13" r="1.04"/></g><g id="_Grille_de_répétition_12" data-name="&lt;Grille de répétition&gt;"><circle class="cls-5" cx="122.88" cy="110.91" r="1.04"/></g><g id="_Grille_de_répétition_13" data-name="&lt;Grille de répétition&gt;"><circle class="cls-5" cx="122.88" cy="113.7" r="1.04"/></g><g id="_Grille_de_répétition_14" data-name="&lt;Grille de répétition&gt;"><circle class="cls-5" cx="122.88" cy="116.48" r="1.04"/></g><g id="_Grille_de_répétition_15" data-name="&lt;Grille de répétition&gt;"><circle class="cls-5" cx="122.88" cy="119.27" r="1.04"/></g><g id="_Grille_de_répétition_16" data-name="&lt;Grille de répétition&gt;"><circle class="cls-5" cx="119.9" cy="108.13" r="1.04"/></g><g id="_Grille_de_répétition_17" data-name="&lt;Grille de répétition&gt;"><circle class="cls-5" cx="119.9" cy="110.91" r="1.04"/></g><g id="_Grille_de_répétition_18" data-name="&lt;Grille de répétition&gt;"><circle class="cls-5" cx="119.9" cy="113.7" r="1.04"/></g><g id="_Grille_de_répétition_19" data-name="&lt;Grille de répétition&gt;"><circle class="cls-5" cx="119.9" cy="116.48" r="1.04"/></g><g id="_Grille_de_répétition_20" data-name="&lt;Grille de répétition&gt;"><circle class="cls-5" cx="119.9" cy="119.27" r="1.04"/></g></g><path class="cls-4" d="M127.85,122.81H115.39V105.05h12.46ZM116.24,122H127V105.9H116.24Z"/><path class="cls-4" d="M150.64,127.28H132.88V115.44h17.76Zm-16.91-.85h16.06V116.29H133.73Z"/><rect class="cls-4" x="46.49" y="97.45" width="65.25" height="9.93"/><g class="cls-12"><rect class="cls-3" x="47.33" y="100.38" width="2.44" height="3.73"/><path class="cls-3" d="M49.57,98.66v7.16h-2V98.66h2m.28-.28H47.24v7.72h2.61V98.38Z"/><rect class="cls-3" x="51.14" y="100.38" width="2.44" height="3.73"/><path class="cls-3" d="M53.39,98.66v7.16h-2V98.66h2m.28-.28H51.06v7.72h2.61V98.38Z"/><rect class="cls-3" x="54.96" y="100.38" width="2.44" height="3.73"/><path class="cls-3" d="M57.2,98.66v7.16h-2V98.66h2m.28-.28h-2.6v7.72h2.6V98.38Z"/><rect class="cls-3" x="58.77" y="100.38" width="2.44" height="3.73"/><path class="cls-3" d="M61,98.66v7.16H59V98.66H61m.28-.28H58.69v7.72H61.3V98.38Z"/><rect class="cls-3" x="62.59" y="100.38" width="2.44" height="3.73"/><path class="cls-3" d="M64.83,98.66v7.16h-2V98.66h2m.29-.28H62.51v7.72h2.61V98.38Z"/><rect class="cls-3" x="66.4" y="100.38" width="2.44" height="3.73"/><path class="cls-3" d="M68.65,98.66v7.16H66.6V98.66h2.05m.28-.28H66.32v7.72h2.61V98.38Z"/><rect class="cls-3" x="70.22" y="100.38" width="2.44" height="3.73"/><path class="cls-3" d="M72.46,98.66v7.16h-2V98.66h2m.29-.28H70.14v7.72h2.61V98.38Z"/><rect class="cls-3" x="74.03" y="100.38" width="2.44" height="3.73"/><path class="cls-3" d="M76.28,98.66v7.16h-2V98.66h2m.28-.28H74v7.72h2.61V98.38Z"/><rect class="cls-3" x="77.85" y="100.38" width="2.44" height="3.73"/><path class="cls-3" d="M80.09,98.66v7.16h-2V98.66h2m.29-.28H77.77v7.72h2.61V98.38Z"/><rect class="cls-3" x="81.66" y="100.38" width="2.44" height="3.73"/><path class="cls-3" d="M83.91,98.66v7.16h-2V98.66h2m.28-.28H81.58v7.72h2.61V98.38Z"/><rect class="cls-3" x="85.48" y="100.38" width="2.44" height="3.73"/><path class="cls-3" d="M87.72,98.66v7.16h-2V98.66h2m.29-.28H85.4v7.72H88V98.38Z"/><rect class="cls-3" x="89.3" y="100.38" width="2.44" height="3.73"/><path class="cls-3" d="M91.54,98.66v7.16h-2V98.66h2m.28-.28H89.21v7.72h2.61V98.38Z"/><rect class="cls-3" x="93.11" y="100.38" width="2.44" height="3.73"/><path class="cls-3" d="M95.35,98.66v7.16h-2V98.66h2m.29-.28H93v7.72h2.61V98.38Z"/><rect class="cls-3" x="96.93" y="100.38" width="2.44" height="3.73"/><path class="cls-3" d="M99.17,98.66v7.16h-2V98.66h2m.28-.28H96.84v7.72h2.61V98.38Z"/><rect class="cls-3" x="100.74" y="100.38" width="2.44" height="3.73"/><path class="cls-3" d="M103,98.66v7.16h-2V98.66h2m.29-.28h-2.61v7.72h2.61V98.38Z"/><rect class="cls-3" x="104.56" y="100.38" width="2.44" height="3.73"/><path class="cls-3" d="M106.8,98.66v7.16h-2V98.66h2m.28-.28h-2.61v7.72h2.61V98.38Z"/><rect class="cls-3" x="108.37" y="100.38" width="2.44" height="3.73"/><path class="cls-3" d="M110.61,98.66v7.16h-2V98.66h2m.29-.28h-2.61v7.72h2.61V98.38Z"/></g><rect class="cls-4" x="46.19" y="36.51" width="65.25" height="9.93"/><g class="cls-13"><rect class="cls-3" x="47.03" y="39.44" width="2.44" height="3.73"/><path class="cls-3" d="M49.27,37.72v7.15h-2V37.72h2m.28-.28H47v7.72h2.6V37.44Z"/><rect class="cls-3" x="50.84" y="39.44" width="2.44" height="3.73"/><path class="cls-3" d="M53.09,37.72v7.15H51V37.72h2.05m.28-.28H50.76v7.72h2.61V37.44Z"/><rect class="cls-3" x="54.66" y="39.44" width="2.44" height="3.73"/><path class="cls-3" d="M56.9,37.72v7.15h-2V37.72h2m.29-.28H54.58v7.72h2.61V37.44Z"/><rect class="cls-3" x="58.47" y="39.44" width="2.44" height="3.73"/><path class="cls-3" d="M60.72,37.72v7.15h-2V37.72h2m.28-.28H58.39v7.72H61V37.44Z"/><rect class="cls-3" x="62.29" y="39.44" width="2.44" height="3.73"/><path class="cls-3" d="M64.53,37.72v7.15h-2V37.72h2m.29-.28H62.21v7.72h2.61V37.44Z"/><rect class="cls-3" x="66.1" y="39.44" width="2.44" height="3.73"/><path class="cls-3" d="M68.35,37.72v7.15h-2V37.72h2m.28-.28H66v7.72h2.61V37.44Z"/><rect class="cls-3" x="69.92" y="39.44" width="2.44" height="3.73"/><path class="cls-3" d="M72.16,37.72v7.15h-2V37.72h2m.29-.28H69.84v7.72h2.61V37.44Z"/><rect class="cls-3" x="73.74" y="39.44" width="2.44" height="3.73"/><path class="cls-3" d="M76,37.72v7.15h-2V37.72h2m.28-.28H73.65v7.72h2.61V37.44Z"/><rect class="cls-3" x="77.55" y="39.44" width="2.44" height="3.73"/><path class="cls-3" d="M79.79,37.72v7.15h-2V37.72h2m.29-.28H77.47v7.72h2.61V37.44Z"/><rect class="cls-3" x="81.37" y="39.44" width="2.44" height="3.73"/><path class="cls-3" d="M83.61,37.72v7.15h-2V37.72h2m.28-.28H81.28v7.72h2.61V37.44Z"/><rect class="cls-3" x="85.18" y="39.44" width="2.44" height="3.73"/><path class="cls-3" d="M87.42,37.72v7.15h-2V37.72h2m.29-.28H85.1v7.72h2.61V37.44Z"/><rect class="cls-3" x="89" y="39.44" width="2.44" height="3.73"/><path class="cls-3" d="M91.24,37.72v7.15h-2V37.72h2m.28-.28H88.91v7.72h2.61V37.44Z"/><rect class="cls-3" x="92.81" y="39.44" width="2.44" height="3.73"/><path class="cls-3" d="M95.05,37.72v7.15H93V37.72h2m.29-.28H92.73v7.72h2.61V37.44Z"/><rect class="cls-3" x="96.63" y="39.44" width="2.44" height="3.73"/><path class="cls-3" d="M98.87,37.72v7.15h-2V37.72h2m.28-.28H96.54v7.72h2.61V37.44Z"/><rect class="cls-3" x="100.44" y="39.44" width="2.44" height="3.73"/><path class="cls-3" d="M102.68,37.72v7.15h-2V37.72h2m.29-.28h-2.61v7.72H103V37.44Z"/><rect class="cls-3" x="104.26" y="39.44" width="2.44" height="3.73"/><path class="cls-3" d="M106.5,37.72v7.15h-2V37.72h2m.28-.28h-2.61v7.72h2.61V37.44Z"/><rect class="cls-3" x="108.07" y="39.44" width="2.44" height="3.73"/><path class="cls-3" d="M110.31,37.72v7.15h-2V37.72h2m.29-.28H108v7.72h2.61V37.44Z"/></g><rect class="cls-3" x="30.02" y="20.21" width="16.93" height="5.57"/><g class="cls-14"><rect class="cls-5" x="31.8" y="22.01" width="1.39" height="1.39"/><rect class="cls-5" x="37.38" y="22.01" width="1.39" height="1.39"/><rect class="cls-5" x="42.97" y="22.01" width="1.39" height="1.39"/></g><rect class="cls-3" x="30.02" y="118.58" width="16.93" height="5.57"/><g class="cls-15"><rect class="cls-5" x="31.8" y="120.37" width="1.39" height="1.39"/><rect class="cls-5" x="37.38" y="120.37" width="1.39" height="1.39"/><rect class="cls-5" x="42.97" y="120.37" width="1.39" height="1.39"/></g><rect class="cls-3" x="123.37" y="69.95" width="11.16" height="11.16"/><rect class="cls-5" x="125.66" y="71.98" width="6.58" height="1.62"/><rect class="cls-5" x="125.66" y="77.62" width="6.58" height="1.62"/><rect class="cls-2" x="127.18" y="69.83" width="3.54" height="11.28"/><rect class="cls-3" x="123.37" y="91.93" width="11.16" height="11.16"/><rect class="cls-5" x="125.66" y="93.97" width="6.58" height="1.62"/><rect class="cls-5" x="125.66" y="99.61" width="6.58" height="1.62"/><rect class="cls-2" x="127.18" y="91.81" width="3.54" height="11.28"/><rect class="cls-3" x="28.22" y="69.78" width="13.21" height="16.59"/><rect class="cls-5" x="30.93" y="77.43" width="7.8" height="1.62"/><rect class="cls-5" x="30.93" y="71.98" width="7.8" height="1.62"/><rect class="cls-5" x="30.93" y="82.88" width="7.8" height="1.62"/><rect class="cls-2" x="32.74" y="69.78" width="4.19" height="16.59"/><rect class="cls-3" x="28.22" y="58.99" width="13.21" height="5.58"/><rect class="cls-5" x="30.93" y="61.08" width="7.8" height="1.62"/><rect class="cls-2" x="32.74" y="58.99" width="4.19" height="5.58"/><g class="cls-16"><polygon class="cls-17" points="216.55 142.42 7.83 142.42 1.42 135.77 1.42 8.34 7.97 1.42 216.55 1.42 222.86 8.2 222.86 136.47 216.55 142.42"/><path d="M217.11,143.83H7.22L0,136.34V7.77L7.36,0H217.17l7.11,7.64V137.08ZM8.43,141H216l5.46-5.14V8.75l-5.51-5.92H8.58L2.83,8.9V135.19Z"/></g><path class="cls-3" d="M205.57,139.4a.41.41,0,0,1-.21-.05l-3.61-2-181.31.86L16,139.39h-.12L10,139.13a6.49,6.49,0,0,1-6.19-6.78l.29-6.18a.37.37,0,0,1,.06-.21l2.12-3.46L6.61,21.65l-2-3.55a.42.42,0,0,1,0-.24L5,11.2a6.5,6.5,0,0,1,6.49-6.4l6.37-.24a.59.59,0,0,1,.22.05l3.61,2L203,5.74l4.47-1.16h.13l5.88.27a6.49,6.49,0,0,1,6.19,6.78l-.29,6.18a.36.36,0,0,1-.06.2l-2.11,3.46-.38,100.86,2,3.55a.39.39,0,0,1,0,.24l-.47,6.65a6.51,6.51,0,0,1-6.49,6.41l-6.37.23Zm-3.71-2.89a.42.42,0,0,1,.21.06l3.6,2,6.27-.23a5.67,5.67,0,0,0,5.66-5.59l.47-6.56-2-3.53a.54.54,0,0,1-.05-.22l.38-101.08a.46.46,0,0,1,.06-.22l2.12-3.47.28-6.07a5.64,5.64,0,0,0-5.38-5.89l-5.82-.27-4.46,1.16h-.1L21.61,7.45c-.06,0-.14,0-.2,0l-3.61-2-6.27.23a5.64,5.64,0,0,0-5.65,5.59l-.47,6.55,2,3.54a.38.38,0,0,1,0,.21L7.09,122.62a.41.41,0,0,1-.07.22L4.9,126.31l-.28,6.08A5.64,5.64,0,0,0,10,138.28l5.82.27,4.46-1.16h.1l181.48-.87Zm-186.29,0h0l-5.46-.25a3.67,3.67,0,0,1-2.53-1.19,3.6,3.6,0,0,1-.95-2.63L6.86,127a.36.36,0,0,1,.06-.2l2.15-3.52L9.45,20.91l-2-3.46a.42.42,0,0,1,0-.24l.42-5.94a3.68,3.68,0,0,1,3.71-3.64l5.64-.21a.54.54,0,0,1,.22,0l3.57,2,182.23-.87,4.57-1.14h.12l5.46.25a3.66,3.66,0,0,1,3.49,3.82l-.25,5.45a.48.48,0,0,1-.07.2l-2.15,3.52L214,123.06l2,3.46a.5.5,0,0,1,.06.24l-.43,5.93a3.69,3.69,0,0,1-3.71,3.65l-5.63.2a.36.36,0,0,1-.23,0l-3.56-2-182.23.86-4.58,1.15ZM7.7,127.17l-.24,5.35a2.77,2.77,0,0,0,.73,2,2.8,2.8,0,0,0,1.94.91l5.4.25,4.56-1.14.1,0,182.39-.86h0a.36.36,0,0,1,.21,0l3.56,2,5.54-.2a2.84,2.84,0,0,0,2.87-2.81v-.11l.41-5.74-2-3.45a.42.42,0,0,1-.06-.21v-.38l.38-102.25a.44.44,0,0,1,.07-.22l2.15-3.53.25-5.34a2.81,2.81,0,0,0-2.68-2.93L208,8.27l-4.57,1.14h-.1l-182.39.87h0a.46.46,0,0,1-.2,0l-3.57-2-5.54.2a2.84,2.84,0,0,0-2.87,2.81v.11l-.42,5.74,2,3.45a.46.46,0,0,1,.05.21v.37L9.92,123.43a.46.46,0,0,1-.06.22Z"/><g id="vises"><g id="vise"><circle class="cls-2" cx="13" cy="12.79" r="6.59"/><path class="cls-18" d="M13,6.15a7.22,7.22,0,0,1,4.85,1.79,6.69,6.69,0,0,1,2.24,4.85,6.89,6.89,0,0,1-2.08,5,7.08,7.08,0,0,1-5,2,7,7,0,0,1-4.89-2.1,6.91,6.91,0,0,1-1.95-4.89A6.67,6.67,0,0,1,8.27,8.06,7,7,0,0,1,13,6.15Zm0,.1a6.3,6.3,0,0,0-4.59,2,6.54,6.54,0,0,0-1.75,4.58,6.34,6.34,0,0,0,1.91,4.43,6.16,6.16,0,0,0,8.74-.12,6.37,6.37,0,0,0,1.78-4.31,6.67,6.67,0,0,0-1.62-4.47A6.08,6.08,0,0,0,13,6.25Z"/><polygon class="cls-18" points="16.49 12.31 15.01 9.89 13.45 10.85 12.52 9.38 10.12 10.89 11.03 12.33 9.5 13.27 10.98 15.69 12.54 14.73 13.47 16.2 15.87 14.69 14.96 13.25 16.49 12.31"/></g><g id="vise-2" data-name="vise"><circle class="cls-2" cx="211.27" cy="13.34" r="6.59"/><path class="cls-18" d="M211.27,6.7a7.18,7.18,0,0,1,4.85,1.79,6.62,6.62,0,0,1,2.24,4.85,6.89,6.89,0,0,1-2.08,5,7.06,7.06,0,0,1-5,2,7,7,0,0,1-4.88-2.1,6.87,6.87,0,0,1-1.95-4.89,6.64,6.64,0,0,1,2.1-4.73A6.94,6.94,0,0,1,211.27,6.7Zm0,.1a6.27,6.27,0,0,0-4.58,2,6.54,6.54,0,0,0-1.75,4.59,6.3,6.3,0,0,0,1.91,4.43,6.14,6.14,0,0,0,8.73-.12,6.32,6.32,0,0,0,1.78-4.31,6.57,6.57,0,0,0-1.62-4.47A6.06,6.06,0,0,0,211.27,6.8Z"/><polygon class="cls-18" points="214.77 12.86 213.29 10.44 211.73 11.4 210.8 9.93 208.4 11.44 209.31 12.88 207.78 13.82 209.26 16.23 210.82 15.28 211.75 16.75 214.15 15.24 213.24 13.8 214.77 12.86"/></g><g id="vise-3" data-name="vise"><circle class="cls-2" cx="12.38" cy="130.48" r="6.59"/><path class="cls-18" d="M12.38,123.84a7.22,7.22,0,0,1,4.85,1.79,6.69,6.69,0,0,1,2.24,4.85,6.93,6.93,0,0,1-2.08,5,7.08,7.08,0,0,1-5,2,7,7,0,0,1-4.89-2.1,6.91,6.91,0,0,1-1.95-4.89,6.7,6.7,0,0,1,2.1-4.73A7,7,0,0,1,12.38,123.84Zm0,.1a6.26,6.26,0,0,0-4.59,2A6.54,6.54,0,0,0,6,130.48,6.34,6.34,0,0,0,8,134.91a6.16,6.16,0,0,0,8.74-.12,6.37,6.37,0,0,0,1.78-4.31A6.67,6.67,0,0,0,16.85,126,6.08,6.08,0,0,0,12.38,123.94Z"/><polygon class="cls-18" points="15.87 130 14.39 127.58 12.83 128.54 11.9 127.07 9.5 128.58 10.41 130.02 8.88 130.96 10.36 133.38 11.93 132.42 12.85 133.89 15.25 132.38 14.34 130.94 15.87 130"/></g><g id="vise-4" data-name="vise"><circle class="cls-2" cx="210.27" cy="130.46" r="6.59"/><path class="cls-18" d="M210.27,123.82a7.14,7.14,0,0,1,4.85,1.79,6.6,6.6,0,0,1,2.24,4.85,6.91,6.91,0,0,1-2.08,5,7,7,0,0,1-5,2,6.91,6.91,0,0,1-6.83-7,6.68,6.68,0,0,1,2.1-4.74A7,7,0,0,1,210.27,123.82Zm0,.1a6.23,6.23,0,0,0-4.58,2,6.51,6.51,0,0,0-1.75,4.59,6.25,6.25,0,0,0,6.33,6.18,6.13,6.13,0,0,0,4.31-1.87,6.34,6.34,0,0,0,1.78-4.31,6.57,6.57,0,0,0-1.62-4.47A6.06,6.06,0,0,0,210.27,123.92Z"/><polygon class="cls-18" points="213.77 129.98 212.29 127.56 210.73 128.52 209.8 127.04 207.4 128.56 208.31 130 206.78 130.94 208.26 133.35 209.82 132.4 210.75 133.87 213.15 132.36 212.24 130.91 213.77 129.98"/></g></g><path class="cls-19" d="M1.42,128.87V66s53.15-.83,211.87-55.57C213.29,10.44,134.41,55,1.42,128.87Z"/></g></g></g></svg>