<?xml version="1.0" encoding="UTF-8"?>
<svg id="Calque_2"
    xmlns="http://www.w3.org/2000/svg" viewBox="0 0 222.27 174.98">
    <defs>
        <style>.cls-1{fill:#363636;}.cls-2{fill:#1bc9d3;}.cls-3{fill:#646a6d;}.cls-4{fill:#e5e5e5;}.cls-5{fill:#a9fcfe;}.cls-6{fill:#20848a;}.cls-7{fill:#fff;}</style>
    </defs>
    <g id="Calque_1-2">
        <g id="loti-bot-front">
            <g id="top">
                <g id="leds">
                    <path id="led-left" class="cls-5" d="M83.55,135.04H19.74c-10.18,0-12.82-4.59-19.24-12.49h0S.02,110.68.02,110.68c-.39-9.62,8.29-17.63,26.94-17.63h2.64l.08,11.56c.96,19.68,27.06,25.22,46.76,25.5l2.05.07c2.83.09,5.07,2.41,5.07,5.24v2.94s0-3.31,0-3.31Z"/>
                    <path id="led-right" class="cls-5" d="M138.72,135.04h63.82c10.18,0,12.82-4.59,19.24-12.49h0s.48-11.87.48-11.87c.39-9.62-8.29-17.63-26.94-17.63h-2.64s-.08,11.56-.08,11.56c-.96,19.68-27.06,25.22-46.76,25.5l-2.05.07c-2.83.09-5.07,2.41-5.07,5.24v2.94s0-3.31,0-3.31Z"/>
                </g>
                <path id="body" class="cls-4" d="M122.3,51.35h-22.34c-27.09,0-70.5,18.58-70.5,41.5v45.5h163.35v-45.5c0-22.92-43.41-41.5-70.5-41.5Z"/>
                <g id="body2">
                    <path id="body2-left" class="cls-6" d="M32.78,85.69c1.6,1.35,4.05.8,5.17-.97,3.4-5.36,10.06-10.18,19.51-16.2,9.15-6.12,21.72-11.62,32.62-13.61,3.26-.6,6.44-1.62,9.38-3.16l.77-.4h0c-23.16,0-58.25,13.58-67.95,31.85-.58,1.08-.21,1.9.5,2.5Z"/>
                    <path id="body2-right" class="cls-6" d="M190,83.19c-9.69-18.26-44.79-31.85-67.95-31.85h0l.77.4c2.94,1.54,6.11,2.56,9.38,3.16,10.9,1.99,23.47,7.49,32.62,13.61,9.45,6.03,16.11,10.84,19.51,16.2,1.12,1.77,3.57,2.32,5.17.97.71-.6,1.08-1.41.5-2.5Z"/>
                </g>
                <g id="head">
                    <path id="head-2" class="cls-1" d="M119.94,57.97h-17.61c-25.96,0-61.23,24.71-61.23,42.86h0c0,14.87,42.45,26.02,61.02,26.02h18.02c18.57,0,61.02-11.15,61.02-26.02,0-18.15-35.27-42.86-61.23-42.86Z"/>
                    <g id="face">
                        <rect class="cls-2" x="75.22" y="99.52" width="23.52" height="15.1" rx="7.55" ry="7.55" transform="translate(206.19 37.64) rotate(98.87)"/>
                        <path class="cls-2" d="M77.87,93.63c-1.3,1.09-3.05-.66-1.96-1.96,5.3-6.33,11.64-12.79,15.42-12.79,7.4,0,6.54,10.64,1.32,10.64-3.34,0-3.02-1.59-4.79-1.59-1.58,0-6.02,2.39-9.99,5.7Z"/>
                        <rect class="cls-2" x="123.53" y="99.52" width="23.52" height="15.1" rx="7.55" ry="7.55" transform="translate(220.21 -43.11) rotate(81.13)"/>
                        <path class="cls-2" d="M144.4,93.63c1.3,1.09,3.05-.66,1.96-1.96-5.3-6.33-11.64-12.79-15.42-12.79-7.4,0-6.54,10.64-1.32,10.64,3.34,0,3.02-1.59,4.79-1.59,1.58,0,6.02,2.39,9.99,5.7Z"/>
                    </g>
                </g>
                <polygon id="pen" class="cls-3" points="122.09 51.35 103.79 51.35 103.79 2.93 104.79 2.65 104.79 0 121.09 0 121.09 2.65 122.09 2.79 122.09 51.35"/>
            </g>
            <g id="base">
                <g id="wheels">
                    <rect id="wheel-left" class="cls-1" x="10.65" y="164.31" width="10.68" height="10.68" rx="3.93" ry="3.93"/>
                    <rect id="wheel-right" class="cls-1" x="200.95" y="164.31" width="10.68" height="10.68" rx="3.93" ry="3.93" transform="translate(412.58 339.29) rotate(-180)"/>
                </g>
                <path id="base-2" class="cls-3" d="M111.64,138.35H.5v27.94c0,1.1.9,2,2,2h217.27c1.1,0,2-.9,2-2v-27.94h-110.14Z"/>
                <g id="base-front">
                    <path id="base-front-left" class="cls-3" d="M83.55,135.04H19.74c-10.18,0-12.82-4.59-19.24-12.49v15.95c0,16.46,13.34,29.8,29.8,29.8h39.07c3.29,0,6.25-2.01,7.47-5.07l6.1-19.25c1.06-3.35,4.17-5.62,7.67-5.62h-7.06v-3.31Z"/>
                    <path class="cls-1" d="M69.37,168.79H30.3c-16.71,0-30.3-13.59-30.3-30.3v-15.95c0-.21.13-.4.33-.47.2-.07.42,0,.55.16.59.73,1.15,1.43,1.68,2.1,5.26,6.58,8.16,10.21,17.16,10.21h63.82c.28,0,.5.22.5.5v2.81h6.56c.28,0,.5.22.5.5s-.22.5-.5.5c-3.31,0-6.2,2.12-7.2,5.27l-6.1,19.25c-1.31,3.3-4.42,5.42-7.94,5.42ZM1,123.96v14.53c0,16.16,13.14,29.3,29.3,29.3h39.07c3.11,0,5.85-1.87,7-4.75l6.09-19.22c.69-2.19,2.2-3.94,4.12-4.97h-3.03c-.28,0-.5-.22-.5-.5v-2.81H19.74c-9.49,0-12.67-3.98-17.95-10.59-.26-.32-.52-.65-.79-.99Z"/>
                    <path id="base-front-right" class="cls-3" d="M202.54,135.04h-63.82v3.31h-7.06c3.51,0,6.61,2.27,7.67,5.62l6.1,19.25c1.22,3.06,4.17,5.07,7.47,5.07h39.07c16.46,0,29.8-13.34,29.8-29.8v-15.95c-6.42,7.9-9.06,12.49-19.24,12.49Z"/>
                    <path class="cls-1" d="M191.97,168.79h-39.07c-3.52,0-6.63-2.11-7.93-5.38l-6.11-19.29c-1-3.15-3.89-5.27-7.2-5.27-.28,0-.5-.22-.5-.5s.22-.5.5-.5h6.56v-2.81c0-.28.22-.5.5-.5h63.82c9,0,11.9-3.63,17.16-10.21.54-.67,1.09-1.37,1.69-2.1.13-.16.35-.23.55-.16.2.07.33.26.33.47v15.95c0,16.71-13.59,30.3-30.3,30.3ZM135.69,138.85c1.93,1.02,3.43,2.78,4.12,4.97l6.1,19.25c1.13,2.85,3.88,4.72,6.99,4.72h39.07c16.16,0,29.3-13.14,29.3-29.3v-14.53c-.27.34-.53.67-.79.99-5.28,6.6-8.46,10.58-17.94,10.58h-63.32v2.81c0,.28-.22.5-.5.5h-3.03Z"/>
                </g>
                <g id="elements">
                    <circle class="cls-1" cx="92.15" cy="149.52" r="8.6"/>
                    <circle class="cls-1" cx="71.82" cy="142.97" r="3.75"/>
                    <circle class="cls-1" cx="130.12" cy="149.52" r="8.6"/>
                    <circle class="cls-1" cx="150.45" cy="142.97" r="3.75"/>
                </g>
                <g id="headlights">
                    <g id="headlight-left">
                        <circle class="cls-7" cx="55.85" cy="152.52" r="8.6"/>
                        <circle class="cls-7" cx="41.1" cy="158.32" r="2.8"/>
                        <circle class="cls-7" cx="41.1" cy="146.72" r="2.8"/>
                    </g>
                    <g id="headlight-right">
                        <circle class="cls-7" cx="166.42" cy="152.52" r="8.6"/>
                        <circle class="cls-7" cx="181.17" cy="158.32" r="2.8"/>
                        <circle class="cls-7" cx="181.17" cy="146.72" r="2.8"/>
                    </g>
                </g>
            </g>
        </g>
    </g>
</svg>