<?xml version="1.0" encoding="UTF-8"?>
<svg id="Calque_2"
    xmlns="http://www.w3.org/2000/svg"
    xmlns:xlink="http://www.w3.org/1999/xlink" viewBox="0 0 207.76 193.84">
    <defs>
        <style>.cls-1,.cls-2,.cls-3,.cls-4,.cls-5,.cls-6,.cls-7,.cls-8,.cls-9,.cls-10,.cls-11,.cls-12{stroke-width:0px;}.cls-1,.cls-13{fill:#333;}.cls-14{stroke:#249b69;stroke-width:.5px;}.cls-14,.cls-2,.cls-15{fill:none;}.cls-14,.cls-13,.cls-15{stroke-miterlimit:10;}.cls-16{clip-path:url(#clippath);}.cls-13{stroke:#333;}.cls-3{fill:#249b69;}.cls-4{opacity:.15;}.cls-4,.cls-11{fill:#fff;}.cls-5{fill:#1a1a1a;}.cls-6{fill:#c7c7c7;}.cls-17{clip-path:url(#clippath-1);}.cls-18{clip-path:url(#clippath-4);}.cls-19{clip-path:url(#clippath-3);}.cls-20{clip-path:url(#clippath-2);}.cls-21{clip-path:url(#clippath-5);}.cls-7{fill:#000;}.cls-8{fill:#ff8f03;}.cls-9{fill:#484848;}.cls-15{stroke:#000;}.cls-10{fill:#e1e1e1;}.cls-12{fill:#494849;}</style>
        <clipPath id="clippath">
            <ellipse class="cls-2" cx="188.07" cy="64.19" rx="4.68" ry="19.79"/>
        </clipPath>
        <clipPath id="clippath-1">
            <rect class="cls-2" x="183.17" y="44.38" width="9.56" height="39.63"/>
        </clipPath>
        <clipPath id="clippath-2">
            <rect class="cls-2" x="183.36" y="44.38" width="9.37" height="40.44"/>
        </clipPath>
        <clipPath id="clippath-3">
            <ellipse class="cls-2" cx="188.07" cy="128.32" rx="4.68" ry="19.79"/>
        </clipPath>
        <clipPath id="clippath-4">
            <rect class="cls-2" x="183.17" y="108.51" width="9.56" height="39.63"/>
        </clipPath>
        <clipPath id="clippath-5">
            <rect class="cls-2" x="183.36" y="108.51" width="9.37" height="40.44"/>
        </clipPath>
    </defs>
    <g id="Calque_1-2">
        <g id="bitcar">
            <g id="base">
                <path class="cls-5" d="M180.42,166.53H1.02c-.56,0-1.02-.46-1.02-1.02V29.14c0-.56.46-1.02,1.02-1.02h179.4s19.8,20.46,19.8,21.02v96.38c0,.56-19.8,21.02-19.8,21.02Z"/>
            </g>
            <g id="wheels">
                <g id="wheel">
                    <rect class="cls-9" x="35.05" y="17.44" width="47.03" height="3.92"/>
                    <rect class="cls-5" x="20.85" width="75.74" height="17.44" rx="3" ry="3"/>
                    <rect class="cls-9" x="17.31" y="5.69" width="83.33" height="6.52" rx="3.26" ry="3.26"/>
                </g>
                <g id="wheel-2">
                    <rect class="cls-9" x="35.62" y="172.48" width="47.03" height="3.92" transform="translate(118.28 348.88) rotate(180)"/>
                    <rect class="cls-5" x="21.11" y="176.4" width="75.74" height="17.44" rx="3" ry="3" transform="translate(117.95 370.24) rotate(180)"/>
                    <rect class="cls-9" x="17.06" y="181.63" width="83.33" height="6.52" rx="3.26" ry="3.26" transform="translate(117.44 369.78) rotate(-180)"/>
                </g>
            </g>
            <g id="batterie">
                <path id="resistance" class="cls-6" d="M52.55,31.61h0c.66.66,1.03,1.03,1.68,1.68h8.65c.66-.66,1.03-1.03,1.68-1.68h0c-.66-.66-1.03-1.03-1.68-1.68h-8.65c-.66.66-1.03,1.03-1.68,1.68Z"/>
                <rect id="black" class="cls-7" x="-8" y="83.78" width="133.11" height="28.77" rx="5.87" ry="5.87" transform="translate(-39.61 156.73) rotate(-90)"/>
                <path id="orange" class="cls-8" d="M40.2,35.58h33.63c1.7,0,3.08,1.38,3.08,3.08v22.61c0,1.7-1.38,3.08-3.08,3.08h-33.63v-28.77h0Z" transform="translate(8.59 108.53) rotate(-90)"/>
                <rect id="light" class="cls-4" x="-8" y="90.36" width="133.11" height="15.62" transform="translate(-39.61 156.73) rotate(-90)"/>
                <g id="icons">
                    <rect class="cls-11" x="52.55" y="145.9" width="12.02" height="3.25"/>
                    <rect class="cls-11" x="52.55" y="47.18" width="12.02" height="3.25"/>
                    <rect class="cls-11" x="56.86" y="43.07" width="3.41" height="11.46"/>
                </g>
            </g>
            <g id="ultrasonic">
                <path id="ultrasonic_back" class="cls-9" d="M176.84,95.84v-58.3c0-.58-.43-1.1-1.07-1.27l-9.22-2.72c-1-.28-4.11-.7-4.11,2.18v121.54c0,2.79,3.11,1.99,4.11,1.71l9.22-3.58c.64-.18,1.07-.69,1.07-1.27v-58.28ZM175.26,40.11c0-1.1.25-2,.55-2s.55.9.55,2-.25,2-.55,2-.55-.9-.55-2ZM175.26,151.55c0-1.1.25-2,.55-2s.55.9.55,2-.25,2-.55,2-.55-.9-.55-2Z"/>
                <g id="ultrasonic_top">
                    <path class="cls-5" d="M167.56,158.54c-.57,0-1.05-.38-1.05-.84V34.82c0-.46.48-.84,1.05-.84.12,0,.23.02.34.05l11.31,3.15c.42.12.71.44.71.79v.34c-.14-.16-.32-.27-.54-.27-.95,0-1.05,1.75-1.05,2.5s.1,2.5,1.05,2.5c.22,0,.4-.1.54-.27v106.97c-.14-.16-.32-.27-.54-.27-.95,0-1.05,1.75-1.05,2.5s.1,2.5,1.05,2.5c.22,0,.4-.1.54-.27v.34c0,.36-.29.67-.71.79l-11.3,3.15c-.11.03-.23.05-.34.05Z"/>
                    <path class="cls-12" d="M167.56,34.48c.07,0,.14,0,.21.03l11.17,3.11c-.72.28-1.1,1.29-1.1,2.92,0,1.93.55,3,1.55,3,.01,0,.03,0,.04,0v105.44s-.03,0-.04,0c-1,0-1.55,1.07-1.55,3,0,1.63.39,2.64,1.1,2.92l-11.17,3.11c-.07.02-.14.03-.21.03-.31,0-.55-.18-.55-.34V34.82c0-.16.24-.34.55-.34M167.56,33.48c-.83,0-1.55.58-1.55,1.34v122.88c0,.76.72,1.34,1.55,1.34.16,0,.32-.02.48-.07l11.31-3.15c.64-.18,1.07-.69,1.07-1.27V37.97c0-.58-.43-1.1-1.07-1.27l-11.31-3.15c-.16-.04-.32-.07-.48-.07h0ZM179.38,42.54c-.3,0-.55-.9-.55-2s.25-2,.55-2,.55.9.55,2-.25,2-.55,2h0ZM179.38,153.98c-.3,0-.55-.9-.55-2s.25-2,.55-2,.55.9.55,2-.25,2-.55,2h0Z"/>
                </g>
                <g id="ultrasonic_link">
                    <rect class="cls-6" x="177.91" y="82.4" width="2.51" height="26.85" rx="1.25" ry="1.25"/>
                </g>
                <g id="ultrasonic_eye_left">
                    <path id="_Tracé_transparent_" class="cls-10" d="M188.07,85.41h-13.39c-2.77,0-5.02-9.52-5.02-21.22s2.25-21.22,5.02-21.22h13.39"/>
                    <ellipse class="cls-6" cx="188.05" cy="64.19" rx="4.68" ry="19.79"/>
                    <g class="cls-16">
                        <g class="cls-17">
                            <line class="cls-15" x1="192.73" y1="44.63" x2="183.37" y2="44.63"/>
                            <line class="cls-15" x1="192.73" y1="46.39" x2="183.37" y2="46.39"/>
                            <line class="cls-15" x1="192.73" y1="48.15" x2="183.37" y2="48.15"/>
                            <line class="cls-15" x1="192.73" y1="49.91" x2="183.37" y2="49.91"/>
                            <line class="cls-15" x1="192.73" y1="51.68" x2="183.37" y2="51.68"/>
                            <line class="cls-15" x1="192.73" y1="53.44" x2="183.37" y2="53.44"/>
                            <line class="cls-15" x1="192.73" y1="55.2" x2="183.37" y2="55.2"/>
                            <line class="cls-15" x1="192.73" y1="56.96" x2="183.37" y2="56.96"/>
                            <line class="cls-15" x1="192.73" y1="58.72" x2="183.37" y2="58.72"/>
                            <line class="cls-15" x1="192.73" y1="60.48" x2="183.37" y2="60.48"/>
                            <line class="cls-15" x1="192.73" y1="62.25" x2="183.37" y2="62.25"/>
                            <line class="cls-15" x1="192.73" y1="64.01" x2="183.37" y2="64.01"/>
                            <line class="cls-15" x1="192.73" y1="65.77" x2="183.37" y2="65.77"/>
                            <line class="cls-15" x1="192.73" y1="67.53" x2="183.37" y2="67.53"/>
                            <line class="cls-15" x1="192.73" y1="69.29" x2="183.37" y2="69.29"/>
                            <line class="cls-15" x1="192.73" y1="71.05" x2="183.37" y2="71.05"/>
                            <line class="cls-15" x1="192.73" y1="72.81" x2="183.37" y2="72.81"/>
                            <line class="cls-15" x1="192.73" y1="74.58" x2="183.37" y2="74.58"/>
                            <line class="cls-15" x1="192.73" y1="76.34" x2="183.37" y2="76.34"/>
                            <line class="cls-15" x1="192.73" y1="78.1" x2="183.37" y2="78.1"/>
                            <line class="cls-15" x1="192.73" y1="79.86" x2="183.37" y2="79.86"/>
                            <line class="cls-15" x1="192.73" y1="81.62" x2="183.37" y2="81.62"/>
                            <line class="cls-15" x1="192.73" y1="83.38" x2="183.37" y2="83.38"/>
                        </g>
                        <g class="cls-20">
                            <line class="cls-15" x1="183.42" y1="44.38" x2="183.42" y2="83.95"/>
                            <line class="cls-15" x1="184.6" y1="44.38" x2="184.6" y2="83.95"/>
                            <line class="cls-15" x1="185.78" y1="44.38" x2="185.78" y2="83.95"/>
                            <line class="cls-15" x1="186.96" y1="44.38" x2="186.96" y2="83.95"/>
                            <line class="cls-15" x1="188.14" y1="44.38" x2="188.14" y2="83.95"/>
                            <line class="cls-15" x1="189.32" y1="44.38" x2="189.32" y2="83.95"/>
                            <line class="cls-15" x1="190.5" y1="44.38" x2="190.5" y2="83.95"/>
                            <line class="cls-15" x1="191.68" y1="44.38" x2="191.68" y2="83.95"/>
                            <line class="cls-15" x1="192.86" y1="44.38" x2="192.86" y2="83.95"/>
                        </g>
                    </g>
                    <path class="cls-6" d="M182.49,64.19c0-11.7,2.81-21.22,5.58-21.22s5.02,9.52,5.02,21.22-2.25,21.22-5.02,21.22-5.58-9.52-5.58-21.22ZM192.73,64.19c0-10.12-2.27-18.36-4.66-18.36s-4.34,8.23-4.34,18.36,1.95,18.36,4.34,18.36,4.66-8.23,4.66-18.36Z"/>
                </g>
                <g id="ultrasonic_eye_right">
                    <path class="cls-10" d="M188.07,149.54h-13.39c-2.77,0-5.02-9.52-5.02-21.22s2.25-21.22,5.02-21.22h13.39"/>
                    <ellipse class="cls-6" cx="188.05" cy="128.32" rx="4.68" ry="19.79"/>
                    <g class="cls-19">
                        <g class="cls-18">
                            <line class="cls-15" x1="192.73" y1="108.76" x2="183.37" y2="108.76"/>
                            <line class="cls-15" x1="192.73" y1="110.52" x2="183.37" y2="110.52"/>
                            <line class="cls-15" x1="192.73" y1="112.28" x2="183.37" y2="112.28"/>
                            <line class="cls-15" x1="192.73" y1="114.04" x2="183.37" y2="114.04"/>
                            <line class="cls-15" x1="192.73" y1="115.81" x2="183.37" y2="115.81"/>
                            <line class="cls-15" x1="192.73" y1="117.57" x2="183.37" y2="117.57"/>
                            <line class="cls-15" x1="192.73" y1="119.33" x2="183.37" y2="119.33"/>
                            <line class="cls-15" x1="192.73" y1="121.09" x2="183.37" y2="121.09"/>
                            <line class="cls-15" x1="192.73" y1="122.85" x2="183.37" y2="122.85"/>
                            <line class="cls-15" x1="192.73" y1="124.61" x2="183.37" y2="124.61"/>
                            <line class="cls-15" x1="192.73" y1="126.37" x2="183.37" y2="126.37"/>
                            <line class="cls-15" x1="192.73" y1="128.14" x2="183.37" y2="128.14"/>
                            <line class="cls-15" x1="192.73" y1="129.9" x2="183.37" y2="129.9"/>
                            <line class="cls-15" x1="192.73" y1="131.66" x2="183.37" y2="131.66"/>
                            <line class="cls-15" x1="192.73" y1="133.42" x2="183.37" y2="133.42"/>
                            <line class="cls-15" x1="192.73" y1="135.18" x2="183.37" y2="135.18"/>
                            <line class="cls-15" x1="192.73" y1="136.94" x2="183.37" y2="136.94"/>
                            <line class="cls-15" x1="192.73" y1="138.71" x2="183.37" y2="138.71"/>
                            <line class="cls-15" x1="192.73" y1="140.47" x2="183.37" y2="140.47"/>
                            <line class="cls-15" x1="192.73" y1="142.23" x2="183.37" y2="142.23"/>
                            <line class="cls-15" x1="192.73" y1="143.99" x2="183.37" y2="143.99"/>
                            <line class="cls-15" x1="192.73" y1="145.75" x2="183.37" y2="145.75"/>
                            <line class="cls-15" x1="192.73" y1="147.51" x2="183.37" y2="147.51"/>
                        </g>
                        <g class="cls-21">
                            <line class="cls-15" x1="183.42" y1="108.51" x2="183.42" y2="148.08"/>
                            <line class="cls-15" x1="184.6" y1="108.51" x2="184.6" y2="148.08"/>
                            <line class="cls-15" x1="185.78" y1="108.51" x2="185.78" y2="148.08"/>
                            <line class="cls-15" x1="186.96" y1="108.51" x2="186.96" y2="148.08"/>
                            <line class="cls-15" x1="188.14" y1="108.51" x2="188.14" y2="148.08"/>
                            <line class="cls-15" x1="189.32" y1="108.51" x2="189.32" y2="148.08"/>
                            <line class="cls-15" x1="190.5" y1="108.51" x2="190.5" y2="148.08"/>
                            <line class="cls-15" x1="191.68" y1="108.51" x2="191.68" y2="148.08"/>
                            <line class="cls-15" x1="192.86" y1="108.51" x2="192.86" y2="148.08"/>
                        </g>
                    </g>
                    <path class="cls-6" d="M182.49,128.32c0-11.7,2.81-21.22,5.58-21.22s5.02,9.52,5.02,21.22-2.25,21.22-5.02,21.22-5.58-9.52-5.58-21.22ZM192.73,128.32c0-10.12-2.27-18.36-4.66-18.36s-4.34,8.23-4.34,18.36,1.95,18.36,4.34,18.36,4.66-8.23,4.66-18.36Z"/>
                </g>
            </g>
            <g id="microbit">
                <g id="carte_micro:bit">
                    <path class="cls-7" d="M82.65,37.95v119.49c0,3.58,2.77,5.44,5.88,4.78,19.56-4.17,39.34-7.24,59.04-10.65,0-1.94,0-2.93,0-4.95-1.12.43-1.27.59-1.9.69-2.55.44-4.79-1.38-4.8-4.21,0-2.83,2.18-5.55,4.73-5.94.62-.1.82.01,1.95.09,0-4.42-.01-6.7-.02-11.33-1.12.4-1.33.57-1.95.64-2.56.31-4.75-1.91-4.76-5.05,0-3.13,2.23-5.89,4.79-6.09.62-.05.78.09,1.9.27,0-5.07-.01-7.65-.02-12.8-1.13.3-1.33.46-1.95.47-2.57.06-4.77-2.5-4.77-5.74,0-3.24,2.23-5.8,4.8-5.73.62.02.78.17,1.91.48,0-5.19-.01-7.79-.02-12.9-1.13.17-1.34.31-1.96.26-2.57-.21-4.78-2.97-4.78-6.1,0-3.13,2.24-5.34,4.81-5.02.63.08.78.24,1.92.64,0-4.65-.01-6.94-.02-11.38-1.13.07-1.34.18-1.97.08-2.58-.4-4.79-3.12-4.79-5.95,0-2.83,2.24-4.64,4.82-4.19.63.11.78.27,1.92.7,0-2.01,0-3,0-4.94-19.65-3.41-39.36-6.61-58.89-10.67-3.1-.64-5.86,1.47-5.86,5.07Z"/>
                    <path class="cls-3" d="M156.08,133.17c-3.38.52-5.09.78-8.54,1.3,0,.86,0,1.28,0,2.13,3.44-.53,5.15-.8,8.53-1.34v-2.08Z"/>
                    <path class="cls-3" d="M147.57,146.88c3.44-.59,5.14-.89,8.51-1.5v-9.71c-3.38.55-5.09.82-8.53,1.35,0,.09,0,.14,0,.24-1.12-.07-1.33-.18-1.95-.09-2.56.39-4.74,3.11-4.73,5.94,0,2.83,2.25,4.65,4.8,4.21.62-.11.77-.26,1.9-.69,0,.1,0,.15,0,.25ZM141.81,142.96c0-2.2,1.61-4.28,3.6-4.59,1.99-.31,3.59,1.23,3.59,3.4,0,2.17-1.59,4.16-3.58,4.5-1.98.34-3.61-1.11-3.61-3.31Z"/>
                    <path class="cls-3" d="M147.57,147.28c0,1.75,0,2.61,0,4.3,1.74-.3,2.61-.46,4.33-.76,2.46-.44,4.01-2.46,4.16-5.04-3.37.61-5.07.91-8.5,1.5Z"/>
                    <path class="cls-3" d="M156.08,130.66c-3.38.5-5.09.74-8.54,1.23,0,.86,0,1.3,0,2.15,3.44-.51,5.15-.77,8.54-1.29v-2.1Z"/>
                    <path class="cls-3" d="M156.08,128.13c-3.39.47-5.1.7-8.54,1.16,0,.87,0,1.31,0,2.17,3.44-.48,5.16-.73,8.54-1.22v-2.11Z"/>
                    <path class="cls-3" d="M156.08,125.57c-3.39.44-5.1.65-8.55,1.08,0,.88,0,1.32,0,2.2,3.45-.45,5.16-.68,8.54-1.14v-2.13Z"/>
                    <path class="cls-3" d="M156.08,61.97c-3.44-.53-5.17-.8-8.65-1.32,0-.85,0-1.28,0-2.13,3.48.54,5.21.82,8.66,1.37v2.08Z"/>
                    <path class="cls-3" d="M147.41,48.5c-1.14-.43-1.29-.59-1.92-.7-2.58-.45-4.83,1.37-4.82,4.19,0,2.83,2.21,5.55,4.79,5.95.63.1.83-.01,1.97-.08,0,.09,0,.14,0,.24,3.48.55,5.21.82,8.66,1.38v-9.71c-3.45-.62-5.19-.92-8.67-1.52,0,.1,0,.15,0,.25ZM145.24,48.86c2.01.34,3.63,2.34,3.63,4.51,0,2.17-1.61,3.71-3.62,3.39-2.01-.32-3.64-2.41-3.65-4.6,0-2.19,1.62-3.64,3.63-3.3Z"/>
                    <path class="cls-3" d="M147.41,47.85c0-1.75,0-2.61,0-4.29,1.77.31,2.65.46,4.41.78,2.51.44,4.11,2.47,4.26,5.04-3.45-.62-5.18-.92-8.66-1.52Z"/>
                    <path class="cls-3" d="M156.08,64.49c-3.44-.51-5.17-.76-8.65-1.25,0-.86,0-1.29,0-2.15,3.48.52,5.21.78,8.65,1.31v2.1Z"/>
                    <path class="cls-3" d="M156.08,67.02c-3.44-.48-5.17-.71-8.64-1.18,0-.87,0-1.31,0-2.17,3.48.49,5.21.74,8.65,1.24v2.11Z"/>
                    <path class="cls-3" d="M156.08,69.58c-3.44-.44-5.17-.67-8.64-1.1,0-.88,0-1.32,0-2.2,3.48.46,5.21.7,8.64,1.17v2.13Z"/>
                    <path class="cls-3" d="M147.52,115.7c-1.13-.18-1.28-.32-1.9-.27-2.56.2-4.8,2.96-4.79,6.09,0,3.13,2.2,5.36,4.76,5.05.62-.08.83-.25,1.95-.65,0,.11,0,.17,0,.28,3.45-.42,5.16-.63,8.55-1.06v-10.38c-3.4.28-5.11.42-8.57.69,0,.1,0,.15,0,.25ZM145.37,116.71c1.99-.17,3.6,1.63,3.6,3.99,0,2.36-1.6,4.44-3.59,4.67-1.99.23-3.62-1.51-3.62-3.94,0-2.43,1.61-4.55,3.61-4.72Z"/>
                    <path class="cls-3" d="M147.44,69.25c-1.13-.4-1.29-.57-1.92-.64-2.58-.32-4.82,1.89-4.81,5.02,0,3.13,2.21,5.89,4.78,6.1.63.05.83-.08,1.96-.26,0,.08,0,.11,0,.19,3.47.29,5.2.43,8.62.72v-10.38c-3.44-.44-5.16-.66-8.64-1.09,0,.14,0,.2,0,.34ZM145.28,69.8c2,.24,3.62,2.32,3.62,4.68,0,2.36-1.61,4.15-3.61,3.98-2-.17-3.63-2.3-3.64-4.73,0-2.43,1.62-4.17,3.62-3.93Z"/>
                    <path class="cls-3" d="M156.08,109.94c-3.4.2-5.12.3-8.57.5,0,.73,0,1.1,0,1.83,3.45-.23,5.17-.34,8.57-.57v-1.76Z"/>
                    <path class="cls-3" d="M156.08,107.74c-3.4.17-5.12.25-8.58.41,0,.73,0,1.1,0,1.83,3.46-.19,5.17-.29,8.57-.49v-1.76Z"/>
                    <path class="cls-3" d="M156.08,105.53c-3.41.13-5.12.19-8.58.32,0,.74,0,1.1,0,1.84,3.46-.16,5.17-.24,8.58-.4v-1.76Z"/>
                    <path class="cls-3" d="M156.08,103.32c-3.41.09-5.13.14-8.58.23,0,.74,0,1.11,0,1.84,3.46-.12,5.18-.18,8.58-.3v-1.77Z"/>
                    <path class="cls-3" d="M156.08,112.13c-3.4.24-5.12.36-8.57.59,0,.91,0,1.37,0,2.28,3.45-.27,5.17-.4,8.57-.68v-2.19Z"/>
                    <path class="cls-3" d="M147.48,92.38c-1.13-.3-1.29-.46-1.91-.48-2.57-.07-4.81,2.49-4.8,5.73,0,3.24,2.21,5.81,4.77,5.74.62-.02.83-.17,1.95-.47,0,.08,0,.12,0,.19,3.46-.08,5.18-.13,8.59-.21v-10.62c-3.42-.1-5.14-.14-8.6-.24,0,.14,0,.21,0,.35ZM145.33,93.17c2,.04,3.61,2.04,3.61,4.47,0,2.42-1.6,4.42-3.6,4.46-1.99.04-3.62-1.96-3.63-4.47,0-2.51,1.62-4.5,3.61-4.46Z"/>
                    <path class="cls-3" d="M156.08,87.85c-3.42-.17-5.14-.25-8.61-.42,0,.73,0,1.1,0,1.84,3.46.14,5.19.21,8.61.35v-1.76Z"/>
                    <path class="cls-3" d="M156.08,85.65c-3.42-.21-5.15-.31-8.61-.51,0,.73,0,1.1,0,1.83,3.47.18,5.19.26,8.61.44v-1.76Z"/>
                    <path class="cls-3" d="M156.08,83.45c-3.42-.24-5.15-.36-8.62-.6,0,.73,0,1.1,0,1.83,3.47.21,5.19.32,8.61.53v-1.76Z"/>
                    <path class="cls-3" d="M156.08,80.82c-3.43-.28-5.15-.42-8.62-.7,0,.91,0,1.36,0,2.27,3.47.25,5.19.37,8.62.62v-2.19Z"/>
                    <path class="cls-3" d="M156.08,90.05c-3.42-.13-5.14-.2-8.61-.33,0,.74,0,1.1,0,1.84,3.46.1,5.19.15,8.6.26v-1.77Z"/>
                    <path class="cls-13" d="M147.57,147.08c3.44-.59,5.14-.89,8.51-1.5"/>
                    <path class="cls-1" d="M153.52,140.78c0,.37-.11.67-.34.89-.23.22-.53.37-.91.43-.38.07-.69.03-.92-.12-.23-.14-.34-.4-.34-.77,0-.37.11-.67.34-.89.23-.22.53-.37.92-.43.38-.06.69-.02.91.12s.34.4.34.77ZM151.68,141.49c.15.06.34.07.59.03.24-.04.44-.12.59-.23.15-.11.22-.25.22-.43,0-.18-.07-.3-.22-.36-.15-.06-.34-.07-.59-.03-.24.04-.44.12-.59.23-.15.11-.22.25-.22.43,0,.18.07.3.22.36Z"/>
                    <path class="cls-1" d="M151.04,121.31c0-.47,0-.7,0-1.17.98-.1,1.47-.15,2.44-.25,0,.25,0,.37,0,.62-.79.08-1.18.12-1.98.21,0,.22,0,.33,0,.55-.19.02-.28.03-.47.05Z"/>
                    <path class="cls-1" d="M151.98,97.94c-.09-.07-.17-.11-.25-.11-.08,0-.15.03-.21.1-.05.07-.08.15-.08.25,0,.19.11.36.33.53-.1.21-.16.32-.26.53-.18-.14-.31-.29-.4-.46-.09-.17-.14-.38-.14-.63,0-.26.07-.48.2-.68.13-.19.32-.29.55-.29.13,0,.25.04.36.12.12.08.26.22.44.43.18.21.28.32.46.53,0-.47,0-.7,0-1.17.2,0,.29,0,.49,0,0,.83,0,1.25,0,2.08-.16,0-.24,0-.41,0-.29-.34-.44-.52-.74-.86-.15-.17-.26-.3-.35-.37Z"/>
                    <path class="cls-1" d="M151.47,77.2c-.19-.02-.28-.03-.47-.04,0-.71,0-1.07,0-1.78.15.02.23.02.38.04.23.26.35.39.57.65.03-.23.12-.4.25-.51.13-.11.29-.16.46-.14.26.03.46.15.61.37.15.22.22.49.22.81,0,.32-.1.63-.29.94-.17-.12-.26-.18-.44-.31.16-.26.25-.49.25-.71,0-.13-.03-.24-.08-.33-.05-.09-.13-.14-.23-.15-.1-.01-.18.03-.24.12-.06.09-.09.22-.09.39,0,.09.02.22.07.39-.16-.02-.24-.02-.4-.04-.22-.24-.33-.37-.56-.61,0,.36,0,.55,0,.91Z"/>
                    <path class="cls-1" d="M152.56,73.75c-.63-.36-.94-.54-1.57-.91,0-.28,0-.42,0-.7.99.58,1.48.86,2.46,1.44,0,.22,0,.32,0,.54-.98.35-1.48.53-2.46.9,0-.28,0-.42,0-.7.63-.23.94-.34,1.57-.57Z"/>
                    <path class="cls-1" d="M152.19,56.24c0-.24,0-.36,0-.61.35.06.53.09.88.15.27.31.41.71.41,1.18,0,.4-.12.71-.36.94s-.54.32-.91.26c-.37-.06-.67-.25-.92-.56-.25-.32-.37-.67-.37-1.06,0-.39.12-.71.35-.96.17.15.25.23.41.38-.1.11-.16.21-.2.3-.04.1-.05.2-.05.32,0,.23.07.44.21.62.14.18.33.29.56.33.23.04.42,0,.56-.14.14-.13.21-.3.21-.51,0-.21-.04-.39-.11-.54-.27-.04-.41-.07-.68-.11Z"/>
                    <path class="cls-1" d="M150.97,53.01c0-.24,0-.36,0-.6.99.17,1.49.25,2.47.42,0,.24,0,.36,0,.59-.62.4-.93.6-1.55,1.01.62.1.93.16,1.55.26,0,.24,0,.36,0,.6-.99-.17-1.48-.25-2.47-.41,0-.23,0-.34,0-.56.64-.42.96-.63,1.59-1.04-.64-.11-.96-.16-1.59-.27Z"/>
                    <path class="cls-1" d="M151.29,49.81c.22-.21.52-.28.9-.22.38.07.69.24.91.52.22.28.34.67.34,1.18,0,.36,0,.54,0,.9-.99-.17-1.48-.26-2.47-.43,0-.37,0-.56,0-.93,0-.47.11-.81.32-1.02ZM152.76,50.49c-.13-.17-.31-.27-.56-.31-.24-.04-.43,0-.56.12-.13.12-.2.33-.2.63,0,.13,0,.2,0,.33.6.1.9.16,1.5.26,0-.15,0-.22,0-.37,0-.27-.06-.49-.19-.65Z"/>
                    <path class="cls-3" d="M82.66,116.93c1.75,2.38,2.64,3.54,4.4,5.8-1.77.19-2.65.28-4.41.47"/>
                    <path class="cls-3" d="M82.66,124.39c3.96,5.23,5.96,7.67,9.97,12.17-4.01.73-6.01,1.11-9.96,1.9"/>
                    <path class="cls-3" d="M82.68,139.43c6.06,7.16,13.49,14.15,21.12,19.64-6.36,1.27-9.53,1.93-15.78,3.34-2.95.67-5.33-1.18-5.33-4.54v-18.44Z"/>
                    <path class="cls-1" d="M113.09,152.46c0-4.37-.01-6.73-.02-11.65,0-.76.52-1.48,1.15-1.57,3.86-.58,5.79-.86,9.64-1.42.63-.09,1.15.45,1.16,1.19.01,4.78.02,7.08.03,11.41,0,.67-.52,1.3-1.15,1.41-3.85.65-5.78.99-9.65,1.66-.64.11-1.16-.34-1.16-1.02Z"/>
                    <path class="cls-3" d="M119.06,142.01c1.84-.29,3.33,1.21,3.33,3.27,0,2.06-1.48,3.91-3.31,4.22-1.84.31-3.33-1.05-3.33-3.13,0-2.08,1.48-4.07,3.32-4.36Z"/>
                    <path class="cls-3" d="M114.89,150.21c.61-.11,1.11.35,1.11,1.01,0,.66-.5,1.27-1.11,1.38s-1.11-.33-1.11-.99c0-.66.5-1.29,1.11-1.4Z"/>
                    <path class="cls-3" d="M114.87,140.05c.61-.09,1.11.43,1.11,1.16,0,.73-.49,1.39-1.11,1.49-.61.1-1.11-.41-1.11-1.14s.5-1.41,1.11-1.5Z"/>
                    <path class="cls-3" d="M123.11,138.81c.61-.09,1.11.42,1.11,1.13,0,.71-.49,1.36-1.11,1.46-.61.09-1.11-.4-1.11-1.12,0-.72.49-1.38,1.11-1.47Z"/>
                    <path class="cls-3" d="M123.14,148.82c.61-.1,1.11.35,1.11,1.01,0,.65-.49,1.26-1.11,1.36-.61.1-1.11-.33-1.11-.99,0-.66.49-1.28,1.11-1.38Z"/>
                    <path class="cls-1" d="M112.93,54.63c0-4.94-.01-7.3-.02-11.69,0-.68.51-1.14,1.15-1.02,3.84.68,5.76,1.01,9.59,1.67.63.11,1.15.74,1.15,1.41.01,4.34.02,6.65.03,11.44,0,.74-.51,1.28-1.15,1.19-3.84-.57-5.76-.85-9.6-1.43-.63-.1-1.15-.81-1.15-1.57Z"/>
                    <path class="cls-3" d="M118.86,45.92c1.83.31,3.31,2.17,3.32,4.24,0,2.06-1.47,3.57-3.3,3.28-1.83-.29-3.31-2.28-3.32-4.37s1.47-3.45,3.3-3.14Z"/>
                    <path class="cls-3" d="M114.72,52.78c.61.1,1.11.76,1.11,1.49s-.49,1.25-1.1,1.16c-.61-.09-1.11-.77-1.11-1.5,0-.73.49-1.24,1.1-1.15Z"/>
                    <path class="cls-3" d="M114.7,42.83c.61.11,1.11.72,1.11,1.38,0,.66-.49,1.12-1.1,1.02-.61-.11-1.11-.74-1.11-1.4s.49-1.1,1.1-1Z"/>
                    <path class="cls-3" d="M122.9,44.26c.61.11,1.11.71,1.11,1.37s-.49,1.11-1.1,1.01c-.61-.1-1.11-.73-1.11-1.39,0-.66.49-1.1,1.1-.99Z"/>
                    <path class="cls-3" d="M122.92,54.07c.61.1,1.11.75,1.11,1.46,0,.72-.49,1.23-1.1,1.14-.61-.09-1.11-.76-1.11-1.47s.49-1.22,1.1-1.12Z"/>
                    <path class="cls-14" d="M133.54,141.65c0,2.72.01,4.04.02,6.62,0,.13-.07.26-.18.32-.11.07-.24.06-.33-.01-2.42-2.16-3.64-3.29-6.07-5.65-.09-.08-.11-.23-.07-.36.05-.13.16-.24.28-.25,2.43-.38,3.64-.57,6.06-.95.17-.03.3.1.3.29Z"/>
                    <path class="cls-3" d="M132.85,142.75c-.22.14-.32.21-.54.35,0,.47,0,.7,0,1.17.22.07.33.1.54.17,0,.26,0,.39,0,.66-1-.31-1.51-.47-2.51-.79,0-.24,0-.36,0-.6,1-.65,1.51-.97,2.51-1.61,0,.27,0,.4,0,.67ZM131.09,143.87c.29.09.44.14.73.23,0-.28,0-.42,0-.7-.29.19-.44.28-.73.46Z"/>
                    <path class="cls-14" d="M111.53,50.79s0,.09-.02.13c-.05.12-.16.19-.28.17-2.42-.4-3.63-.6-6.05-1-.16-.03-.3-.21-.3-.41,0-2.9,0-4.3,0-6.98,0-.13.07-.24.18-.27.11-.03.24.02.33.13,2.42,3.11,3.63,4.71,6.06,7.96.06.08.09.17.09.26Z"/>
                    <path class="cls-3" d="M108.31,48.1c0,.51,0,.77,0,1.29-1-.17-1.51-.25-2.51-.42,0-.46,0-.69,0-1.15,0-.2.02-.37.06-.5.04-.14.1-.23.16-.3.13-.11.27-.15.44-.12.2.03.34.13.44.3.03.06.05.09.06.11,0,.02.02.06.04.11.03-.17.1-.31.21-.39.11-.09.24-.12.4-.09.17.03.33.13.46.29.16.19.23.48.24.88ZM106.82,48.48c0-.13,0-.19,0-.31,0-.18-.02-.32-.05-.41-.03-.09-.11-.15-.22-.17-.11-.02-.19,0-.22.08-.04.07-.05.21-.05.4,0,.13,0,.19,0,.32.22.04.33.06.54.09ZM107.84,48.65c0-.18,0-.27,0-.45,0-.19-.02-.33-.06-.43-.04-.1-.12-.16-.23-.18-.12-.02-.19.02-.23.11-.04.09-.06.25-.06.47,0,.15,0,.23,0,.39.23.04.35.06.58.1Z"/>
                    <path class="cls-13" d="M147.55,136.81c3.44-.53,5.15-.8,8.53-1.35"/>
                    <path class="cls-13" d="M147.55,134.26c3.44-.51,5.15-.77,8.54-1.29"/>
                    <path class="cls-13" d="M147.54,131.67c3.44-.49,5.16-.73,8.54-1.22"/>
                    <path class="cls-13" d="M147.54,129.06c3.45-.46,5.16-.69,8.54-1.15"/>
                    <path class="cls-13" d="M147.53,126.43c3.45-.42,5.16-.64,8.55-1.07"/>
                    <path class="cls-13" d="M147.52,115.23c3.45-.27,5.17-.41,8.57-.69"/>
                    <path class="cls-13" d="M147.51,112.5c3.45-.23,5.17-.35,8.57-.58"/>
                    <path class="cls-13" d="M147.51,110.21c3.46-.2,5.17-.29,8.57-.49"/>
                    <path class="cls-13" d="M147.51,107.92c3.46-.16,5.17-.24,8.58-.4"/>
                    <path class="cls-13" d="M147.5,105.62c3.46-.12,5.18-.19,8.58-.31"/>
                    <path class="cls-13" d="M147.5,103.32c3.46-.09,5.18-.13,8.58-.22"/>
                    <path class="cls-13" d="M147.48,91.79c3.46.1,5.19.15,8.6.25"/>
                    <path class="cls-13" d="M147.48,89.49c3.46.14,5.19.2,8.61.34"/>
                    <path class="cls-13" d="M147.47,87.2c3.47.17,5.19.26,8.61.43"/>
                    <path class="cls-13" d="M147.47,84.91c3.47.21,5.19.31,8.61.52"/>
                    <path class="cls-13" d="M147.47,82.62c3.47.24,5.19.36,8.62.61"/>
                    <path class="cls-13" d="M147.46,79.89c3.47.28,5.2.43,8.62.71"/>
                    <path class="cls-13" d="M147.44,68.69c3.47.44,5.2.65,8.64,1.1"/>
                    <path class="cls-13" d="M147.44,66.06c3.48.47,5.21.7,8.64,1.18"/>
                    <path class="cls-13" d="M147.44,63.45c3.48.5,5.21.75,8.65,1.25"/>
                    <path class="cls-13" d="M147.43,60.87c3.48.52,5.21.78,8.65,1.31"/>
                    <path class="cls-13" d="M147.43,58.32c3.48.55,5.21.82,8.66,1.37"/>
                    <path class="cls-13" d="M147.41,48.05c3.48.61,5.22.91,8.67,1.53"/>
                    <path class="cls-3" d="M93.79,102.86c0,.79-.42,1.45-.95,1.46-.52.02-.95-.62-.95-1.42,0-.8.42-1.46.94-1.46.52,0,.95.63.95,1.42ZM92.1,102.9c0,.63.33,1.13.75,1.12.41-.01.75-.53.75-1.16,0-.63-.34-1.13-.75-1.12-.41,0-.75.53-.75,1.16Z"/>
                    <path class="cls-3" d="M93.68,92.82c0,.79-.42,1.43-.94,1.43-.52,0-.94-.66-.94-1.46,0-.8.42-1.44.94-1.43.52.01.95.67.95,1.46ZM91.99,92.79c0,.63.33,1.15.75,1.15.41,0,.75-.5.75-1.13,0-.63-.34-1.14-.75-1.15-.41,0-.75.5-.75,1.13Z"/>
                    <path class="cls-1" d="M105,120.31c0,1.11,0,1.67,0,2.77-1.93.19-2.89.29-4.81.49,0-1.12,0-1.69,0-2.82,1.92-.18,2.88-.27,4.81-.44Z"/>
                    <path class="cls-3" d="M97.12,93.7c0,3.44,0,5.17,0,8.61,0,3.91-1.97,7.16-4.37,7.28-2.41.12-4.36-3.04-4.36-7.09,0-3.57,0-5.36,0-8.93,0-4.05,1.95-7.24,4.35-7.14,2.41.1,4.38,3.35,4.38,7.26ZM89.94,102.48c0,2.59,1.26,4.63,2.8,4.56,1.55-.06,2.81-2.16,2.81-4.69,0-3.46,0-5.2,0-8.67,0-2.53-1.26-4.62-2.81-4.67-1.55-.05-2.8,2.01-2.8,4.59,0,3.55,0,5.33,0,8.87Z"/>
                    <path class="cls-1" d="M104.97,96.33c0,1.16,0,1.73,0,2.89-1.92.01-2.89.02-4.8.04,0-1.18,0-1.77,0-2.94,1.92,0,2.88.01,4.8.02Z"/>
                    <path class="cls-1" d="M104.95,72.45c0,1.11,0,1.66,0,2.78-1.92-.17-2.88-.25-4.8-.42,0-1.14,0-1.7,0-2.83,1.92.19,2.88.29,4.8.47Z"/>
                    <path class="cls-1" d="M113.48,119.56c0,1.08,0,1.62,0,2.69-1.93.19-2.9.28-4.83.47,0-1.09,0-1.64,0-2.74,1.93-.17,2.9-.25,4.83-.42Z"/>
                    <path class="cls-1" d="M113.44,96.37c0,1.12,0,1.67,0,2.79-1.93.01-2.89.02-4.82.03,0-1.14,0-1.71,0-2.85,1.93,0,2.89.01,4.82.02Z"/>
                    <path class="cls-1" d="M113.4,73.26c0,1.07,0,1.61,0,2.69-1.93-.17-2.89-.25-4.81-.42,0-1.1,0-1.65,0-2.74,1.92.19,2.89.28,4.81.46Z"/>
                    <path class="cls-1" d="M121.97,118.84c0,1.05,0,1.57,0,2.61-1.93.18-2.9.27-4.83.46,0-1.06,0-1.59,0-2.65,1.93-.16,2.9-.25,4.83-.41Z"/>
                    <path class="cls-1" d="M121.92,96.41c0,1.08,0,1.62,0,2.7-1.93.01-2.89.02-4.82.03,0-1.1,0-1.65,0-2.75,1.93.01,2.89.02,4.82.03Z"/>
                    <path class="cls-1" d="M121.87,74.07c0,1.04,0,1.56,0,2.61-1.93-.16-2.89-.25-4.82-.41,0-1.07,0-1.6,0-2.66,1.93.18,2.89.27,4.82.46Z"/>
                    <path class="cls-1" d="M130.4,107.37c0,1.03,0,1.55,0,2.58-1.92.1-2.88.15-4.81.24,0-1.05,0-1.58,0-2.63,1.93-.08,2.89-.12,4.81-.19Z"/>
                    <path class="cls-1" d="M130.38,96.47c0,1.04,0,1.56,0,2.6-1.92,0-2.88.01-4.81.02,0-1.06,0-1.59,0-2.66,1.93.01,2.89.02,4.81.03Z"/>
                    <path class="cls-1" d="M138.84,117.43c0,.98,0,1.47,0,2.44-1.91.18-2.86.27-4.78.44,0-.99,0-1.49,0-2.49,1.92-.16,2.87-.24,4.78-.4Z"/>
                    <path class="cls-1" d="M138.75,75.66c0,.98,0,1.47,0,2.45-1.91-.16-2.87-.24-4.78-.4,0-1,0-1.5,0-2.49,1.92.18,2.87.27,4.78.45Z"/>
                    <path class="cls-1" d="M130.35,85.25c0,1.03,0,1.55,0,2.58-1.92-.08-2.88-.12-4.81-.2,0-1.06,0-1.58,0-2.63,1.93.1,2.89.15,4.81.26Z"/>
                    <path class="cls-1" d="M130.43,118.13c0,1.01,0,1.52,0,2.53-1.92.18-2.88.27-4.81.45,0-1.02,0-1.54,0-2.57,1.93-.16,2.89-.24,4.81-.4Z"/>
                    <path class="cls-1" d="M138.82,107.03c0,1,0,1.5,0,2.49-1.91.1-2.86.14-4.78.24,0-1.02,0-1.52,0-2.54,1.92-.08,2.87-.11,4.78-.19Z"/>
                    <path class="cls-1" d="M121.94,107.71c0,1.07,0,1.61,0,2.67-1.93.1-2.89.15-4.83.25,0-1.09,0-1.63,0-2.73,1.93-.08,2.9-.12,4.82-.2Z"/>
                    <path class="cls-1" d="M113.46,108.06c0,1.11,0,1.66,0,2.77-1.93.1-2.9.15-4.82.26,0-1.12,0-1.69,0-2.82,1.93-.08,2.89-.12,4.82-.21Z"/>
                    <path class="cls-1" d="M104.98,108.42c0,1.15,0,1.72,0,2.86-1.93.11-2.89.16-4.81.27,0-1.16,0-1.75,0-2.91,1.92-.09,2.88-.13,4.81-.22Z"/>
                    <path class="cls-1" d="M138.77,85.69c0,1,0,1.49,0,2.49-1.91-.08-2.87-.12-4.78-.2,0-1.02,0-1.53,0-2.54,1.92.1,2.87.15,4.78.25Z"/>
                    <path class="cls-1" d="M121.89,84.8c0,1.07,0,1.6,0,2.67-1.93-.08-2.89-.12-4.82-.2,0-1.09,0-1.64,0-2.73,1.93.1,2.89.15,4.82.26Z"/>
                    <path class="cls-1" d="M113.42,84.35c0,1.1,0,1.66,0,2.77-1.93-.08-2.89-.12-4.82-.21,0-1.13,0-1.69,0-2.82,1.93.1,2.89.16,4.82.26Z"/>
                    <path class="cls-1" d="M104.96,83.89c0,1.14,0,1.71,0,2.86-1.92-.08-2.88-.12-4.8-.21,0-1.17,0-1.75,0-2.91,1.92.1,2.88.16,4.8.26Z"/>
                    <path class="cls-1" d="M130.33,74.86c0,1.01,0,1.51,0,2.53-1.92-.16-2.88-.24-4.81-.41,0-1.03,0-1.55,0-2.57,1.92.18,2.89.27,4.81.45Z"/>
                    <path class="cls-1" d="M138.8,96.52c0,1,0,1.51,0,2.51-1.91,0-2.86.01-4.78.02,0-1.02,0-1.54,0-2.56,1.92.01,2.87.02,4.78.03Z"/>
                </g>
            </g>
            <path id="top" class="cls-1" d="M53.82,128.11c-1.13,0-2.06-.93-2.06-2.06v-57.46c0-1.13.93-2.06,2.06-2.06h16.44c1.14,0,2.06-.92,2.06-2.06V30.48c0-1.13-.93-2.06-2.06-2.06H2.06c-1.13,0-2.06.93-2.06,2.06v133.68c0,1.13.93,2.06,2.06,2.06h68.21c1.13,0,2.06-.93,2.06-2.06v-34c0-1.14-.92-2.06-2.06-2.06h-16.44Z"/>
            <g id="sides">
                <rect id="side_right" class="cls-1" y="21.36" width="180.42" height="6.76" rx="2" ry="2"/>
                <rect id="side_left" class="cls-1" y="166.53" width="180.42" height="6.76" rx="2" ry="2"/>
            </g>
        </g>
    </g>
</svg>