<svg xmlns="http://www.w3.org/2000/svg"
    xmlns:xlink="http://www.w3.org/1999/xlink" transform="rotate(90 0 0)" viewBox="0 0 193.26 193.92" width="193.26" height="193.92">
    <defs>
        <style>.cls-1,.cls-31{fill:none;}.cls-2{fill:#1a1a1a;}.cls-3{fill:#333;}.cls-4{fill:#484848;}.cls-12,.cls-5{fill:#fff;}.cls-6{clip-path:url(#clip-path);}.cls-7{clip-path:url(#clip-path-2);}.cls-8{clip-path:url(#clip-path-3);}.cls-9{clip-path:url(#clip-path-4);}.cls-10{fill:#ccc;}.cls-11{fill:#ff9403;}.cls-12{opacity:0.15;}.cls-13{fill:#e6e6e6;}.cls-14{fill:#ffc152;}.cls-15{clip-path:url(#clip-path-5);}.cls-16{fill:#ce574e;}.cls-17{clip-path:url(#clip-path-6);}.cls-18{clip-path:url(#clip-path-7);}.cls-19{clip-path:url(#clip-path-8);}.cls-20{clip-path:url(#clip-path-9);}.cls-21{clip-path:url(#clip-path-10);}.cls-22{clip-path:url(#clip-path-11);}.cls-23{clip-path:url(#clip-path-12);}.cls-24{clip-path:url(#clip-path-13);}.cls-25{clip-path:url(#clip-path-14);}.cls-26{fill:#ed1c24;}.cls-27{fill:#0e1f38;}.cls-28{fill:#132a4e;}.cls-29{clip-path:url(#clip-path-15);}.cls-30{clip-path:url(#clip-path-16);}.cls-31{stroke:#000;stroke-miterlimit:10;}.cls-32{clip-path:url(#clip-path-17);}.cls-33{clip-path:url(#clip-path-18);}.cls-34{clip-path:url(#clip-path-19);}.cls-35{clip-path:url(#clip-path-20);}.cls-36{fill:#24a069;}</style>
        <clipPath id="clip-path">
            <rect class="cls-1" x="5.56" y="86.02" width="10.54" height="80.64"/>
        </clipPath>
        <clipPath id="clip-path-2">
            <rect class="cls-1" x="12.84" y="90.81" width="10.54" height="71.86"/>
        </clipPath>
        <clipPath id="clip-path-3">
            <rect class="cls-1" x="190.16" y="86.02" width="10.54" height="80.64"/>
        </clipPath>
        <clipPath id="clip-path-4">
            <rect class="cls-1" x="182.89" y="90.81" width="10.54" height="71.86"/>
        </clipPath>
        <clipPath id="clip-path-5">
            <rect class="cls-1" x="29.64" y="56.62" width="7.32" height="1.55"/>
        </clipPath>
        <clipPath id="clip-path-6">
            <rect class="cls-1" x="29.64" y="62.19" width="7.32" height="1.55"/>
        </clipPath>
        <clipPath id="clip-path-7">
            <rect class="cls-1" x="29.64" y="67.76" width="7.32" height="1.55"/>
        </clipPath>
        <clipPath id="clip-path-8">
            <rect class="cls-1" x="94.05" y="53.92" width="7.32" height="1.55"/>
        </clipPath>
        <clipPath id="clip-path-9">
            <rect class="cls-1" x="94.05" y="48.35" width="7.32" height="1.55"/>
        </clipPath>
        <clipPath id="clip-path-10">
            <rect class="cls-1" x="168.63" y="56.62" width="7.32" height="1.55"/>
        </clipPath>
        <clipPath id="clip-path-11">
            <rect class="cls-1" x="168.63" y="62.19" width="7.32" height="1.55"/>
        </clipPath>
        <clipPath id="clip-path-12">
            <rect class="cls-1" x="168.63" y="67.76" width="7.32" height="1.55"/>
        </clipPath>
        <clipPath id="clip-path-13">
            <rect class="cls-1" x="104.22" y="53.92" width="7.32" height="1.55"/>
        </clipPath>
        <clipPath id="clip-path-14">
            <rect class="cls-1" x="104.22" y="48.35" width="7.32" height="1.55"/>
        </clipPath>
        <clipPath id="clip-path-15">
            <ellipse class="cls-1" cx="78.8" cy="32.04" rx="14.78" ry="3.5"/>
        </clipPath>
        <clipPath id="clip-path-16">
            <rect class="cls-1" x="64" y="28.56" width="29.6" height="7.14"/>
        </clipPath>
        <clipPath id="clip-path-17">
            <rect class="cls-1" x="64" y="28.55" width="30.21" height="7"/>
        </clipPath>
        <clipPath id="clip-path-18">
            <ellipse class="cls-1" cx="126.7" cy="32.04" rx="14.78" ry="3.5"/>
        </clipPath>
        <clipPath id="clip-path-19">
            <rect class="cls-1" x="111.9" y="28.56" width="29.6" height="7.14"/>
        </clipPath>
        <clipPath id="clip-path-20">
            <rect class="cls-1" x="111.9" y="28.55" width="30.21" height="7"/>
        </clipPath>
    </defs>
    <g id="Calque_2" data-name="Calque 2">
        <g id="Calque_1-2" data-name="Calque 1">
            <g id="Robot_maqueen" data-name="Robot maqueen">
                <path id="chassis" class="cls-2" d="M177.91,48.08,140.31,8.84a4.93,4.93,0,0,0-3.56-1.53H68.85a5,5,0,0,0-3.57,1.53L27.68,48.08a5.25,5.25,0,0,0-1.44,3.61V72.26c0,2.84,1.43,5,4.19,5l143.92.17a5.07,5.07,0,0,0,5-5.14V51.69A5.25,5.25,0,0,0,177.91,48.08Z"/>
                <path class="cls-3" d="M179.35,51.69a7.16,7.16,0,0,0-1.46-3.63L139.29,9.82a3.54,3.54,0,0,0-2.54-1.09H68.85a3.52,3.52,0,0,0-2.54,1.09L27.46,48.43a5.68,5.68,0,0,0-1.22,3.26h0c0-1.72.39-4.55,1.57-5.79l36.45-38a6.4,6.4,0,0,1,4.59-2h67.9a6.39,6.39,0,0,1,4.58,2L178,46.1c1.18,1.24,1.37,3.87,1.37,5.59Z"/>
                <g id="roues">
                    <g id="roue">
                        <g id="roues-2" data-name="roues">
                            <g id="roue-2" data-name="roue">
                                <path class="cls-4" d="M37.65,124.07c0-20.89,1.29-40.95,3.13-41.29-.48-3.41-3.84-5.55-7.38-5.55H15.48C9.69,77.23,5.7,81.86,3.7,87,2.17,89.51,0,104.35,0,123.52a217.8,217.8,0,0,0,2.22,33.17c.75,7.52,5.85,14.22,13.26,14.22H33.4c3.54,0,6.9-2.24,7.38-5.65C39,165.16,37.65,145,37.65,124.07Z"/>
                                <ellipse class="cls-5" cx="36.37" cy="123.5" rx="9.31" ry="39.46"/>
                            </g>
                        </g>
                        <path class="cls-3" d="M24.39,170.91a7,7,0,0,1-3.19-.5,6.79,6.79,0,0,1-2.52-2.12A20,20,0,0,1,16,162.34a76.14,76.14,0,0,1-2.25-12.76c-.88-8.59-1.06-17.19-1.09-25.79s.2-17.19,1-25.77a78.7,78.7,0,0,1,2.09-12.8,17,17,0,0,1,2.72-6,5.39,5.39,0,0,1,2.72-1.85,10.74,10.74,0,0,1,3.24-.19,10.91,10.91,0,0,0-3.14.49,4.92,4.92,0,0,0-2.37,1.9,16.12,16.12,0,0,0-2.16,5.85,57.63,57.63,0,0,0-.94,6.3q-.33,3.18-.51,6.37c-.22,4.27-.38,8.54-.43,12.82s-.11,8.55-.1,12.83,0,8.56.11,12.84.25,8.55.51,12.8A86.13,86.13,0,0,0,17,162.08,18.91,18.91,0,0,0,19.14,168a6.4,6.4,0,0,0,2.2,2.16A6.78,6.78,0,0,0,24.39,170.91Z"/>
                        <g class="cls-6">
                            <path class="cls-3" d="M5.56,95C6.9,93.34,8.3,91.74,9.7,90.15a19.8,19.8,0,0,1,2.14-2.34A11.78,11.78,0,0,1,14.53,86l.1.1a12,12,0,0,1-1.79,2.69A20.62,20.62,0,0,1,10.5,91c-1.59,1.4-3.19,2.79-4.84,4.13Z"/>
                            <path class="cls-3" d="M5.56,104.11c1.34-1.65,2.74-3.25,4.14-4.83a19.8,19.8,0,0,1,2.14-2.34,11.78,11.78,0,0,1,2.69-1.79l.1.1a12.24,12.24,0,0,1-1.79,2.69,21.6,21.6,0,0,1-2.34,2.14c-1.59,1.4-3.19,2.79-4.84,4.13Z"/>
                            <path class="cls-3" d="M5.56,113.23C6.9,111.59,8.3,110,9.7,108.4a19.8,19.8,0,0,1,2.14-2.34,11.78,11.78,0,0,1,2.69-1.79l.1.1a12,12,0,0,1-1.79,2.69,20.62,20.62,0,0,1-2.34,2.14c-1.59,1.4-3.19,2.79-4.84,4.13Z"/>
                            <path class="cls-3" d="M5.56,122.36c1.34-1.65,2.74-3.24,4.14-4.83a19.8,19.8,0,0,1,2.14-2.34,11.78,11.78,0,0,1,2.69-1.79l.1.1a12.24,12.24,0,0,1-1.79,2.69,20.62,20.62,0,0,1-2.34,2.14c-1.59,1.4-3.19,2.79-4.84,4.13Z"/>
                            <path class="cls-3" d="M5.56,131.48c1.34-1.64,2.74-3.24,4.14-4.83a19.8,19.8,0,0,1,2.14-2.34,11.78,11.78,0,0,1,2.69-1.79l.1.1a11.78,11.78,0,0,1-1.79,2.69,20.62,20.62,0,0,1-2.34,2.14c-1.59,1.4-3.19,2.8-4.84,4.14Z"/>
                            <path class="cls-3" d="M5.56,140.61C6.9,139,8.3,137.37,9.7,135.78a19.8,19.8,0,0,1,2.14-2.34,11.78,11.78,0,0,1,2.69-1.79l.1.1a12.24,12.24,0,0,1-1.79,2.69,20.62,20.62,0,0,1-2.34,2.14c-1.59,1.4-3.19,2.79-4.84,4.13Z"/>
                            <path class="cls-3" d="M5.56,149.74c1.34-1.65,2.74-3.25,4.14-4.84a20.62,20.62,0,0,1,2.14-2.34,11.78,11.78,0,0,1,2.69-1.79l.1.1a11.78,11.78,0,0,1-1.79,2.69,20.62,20.62,0,0,1-2.34,2.14c-1.59,1.4-3.19,2.8-4.84,4.14Z"/>
                            <path class="cls-3" d="M5.56,158.86C6.9,157.21,8.3,155.62,9.7,154a19.8,19.8,0,0,1,2.14-2.34,11.78,11.78,0,0,1,2.69-1.79l.1.1a12,12,0,0,1-1.79,2.69,20.62,20.62,0,0,1-2.34,2.14c-1.59,1.4-3.19,2.79-4.84,4.13Z"/>
                            <path class="cls-3" d="M5.56,168c1.34-1.65,2.74-3.25,4.14-4.84a20.62,20.62,0,0,1,2.14-2.34A11.78,11.78,0,0,1,14.53,159l.1.1a11.78,11.78,0,0,1-1.79,2.69A20.71,20.71,0,0,1,10.5,164c-1.59,1.39-3.19,2.79-4.84,4.13Z"/>
                        </g>
                        <g class="cls-7">
                            <path class="cls-3" d="M23.27,163.92c-1.64-1.34-3.24-2.73-4.83-4.13a19.8,19.8,0,0,1-2.34-2.14A12.24,12.24,0,0,1,14.31,155l.1-.1a12,12,0,0,1,2.69,1.79A19.8,19.8,0,0,1,19.24,159c1.4,1.59,2.79,3.18,4.13,4.83Z"/>
                            <path class="cls-3" d="M23.27,154.8c-1.64-1.34-3.24-2.74-4.83-4.14a19.8,19.8,0,0,1-2.34-2.14,11.78,11.78,0,0,1-1.79-2.69l.1-.1a12,12,0,0,1,2.69,1.79,20.62,20.62,0,0,1,2.14,2.34c1.4,1.59,2.79,3.19,4.13,4.84Z"/>
                            <path class="cls-3" d="M23.27,145.67c-1.64-1.34-3.24-2.73-4.83-4.13a19.8,19.8,0,0,1-2.34-2.14,12.24,12.24,0,0,1-1.79-2.69l.1-.1a12,12,0,0,1,2.69,1.79,19.8,19.8,0,0,1,2.14,2.34c1.4,1.59,2.79,3.18,4.13,4.83Z"/>
                            <path class="cls-3" d="M23.27,136.54c-1.64-1.34-3.24-2.73-4.83-4.13a19.8,19.8,0,0,1-2.34-2.14,12,12,0,0,1-1.79-2.69l.1-.1a12,12,0,0,1,2.69,1.79,19.8,19.8,0,0,1,2.14,2.34c1.4,1.59,2.79,3.19,4.13,4.83Z"/>
                            <path class="cls-3" d="M23.27,127.42c-1.64-1.34-3.24-2.73-4.83-4.13a19.8,19.8,0,0,1-2.34-2.14,12.24,12.24,0,0,1-1.79-2.69l.1-.1a12,12,0,0,1,2.69,1.79,19.8,19.8,0,0,1,2.14,2.34c1.4,1.59,2.79,3.18,4.13,4.83Z"/>
                            <path class="cls-3" d="M23.27,118.29c-1.64-1.34-3.24-2.73-4.83-4.13A19.8,19.8,0,0,1,16.1,112a12,12,0,0,1-1.79-2.69l.1-.1A12,12,0,0,1,17.1,111a19.8,19.8,0,0,1,2.14,2.34c1.4,1.59,2.79,3.19,4.13,4.83Z"/>
                            <path class="cls-3" d="M23.27,109.17c-1.64-1.34-3.24-2.73-4.83-4.13a20.7,20.7,0,0,1-2.34-2.14,12.24,12.24,0,0,1-1.79-2.69l.1-.1a12,12,0,0,1,2.69,1.79,19.8,19.8,0,0,1,2.14,2.34c1.4,1.58,2.79,3.18,4.13,4.83Z"/>
                            <path class="cls-3" d="M23.27,100c-1.64-1.34-3.24-2.73-4.83-4.13a19.8,19.8,0,0,1-2.34-2.14,12,12,0,0,1-1.79-2.69l.1-.1a12,12,0,0,1,2.69,1.79,19.8,19.8,0,0,1,2.14,2.34c1.4,1.59,2.79,3.19,4.13,4.83Z"/>
                            <path class="cls-3" d="M23.27,90.92c-1.64-1.34-3.24-2.73-4.83-4.13a20.7,20.7,0,0,1-2.34-2.14A12.07,12.07,0,0,1,14.31,82l.1-.1a12.73,12.73,0,0,1,2.69,1.79A20.72,20.72,0,0,1,19.24,86c1.4,1.58,2.79,3.18,4.13,4.83Z"/>
                        </g>
                    </g>
                    <g id="roue-3" data-name="roue">
                        <g id="roues-3" data-name="roues">
                            <g id="roue-4" data-name="roue">
                                <path class="cls-4" d="M168.61,124.07c0-20.89-1.29-40.95-3.13-41.29.48-3.41,3.84-5.55,7.38-5.55h17.92c5.79,0,9.77,4.63,11.78,9.72,1.53,2.56,3.7,17.4,3.7,36.57A217.8,217.8,0,0,1,204,156.69c-.75,7.52-5.85,14.22-13.26,14.22H172.86c-3.54,0-6.9-2.24-7.38-5.65C167.29,165.16,168.61,145,168.61,124.07Z"/>
                                <ellipse class="cls-5" cx="169.89" cy="123.5" rx="9.31" ry="39.46"/>
                            </g>
                        </g>
                        <path class="cls-3" d="M181.87,170.91a6.78,6.78,0,0,0,3-.79,6.29,6.29,0,0,0,2.19-2.16,18.68,18.68,0,0,0,2.18-5.88,87.51,87.51,0,0,0,1.61-12.65c.26-4.25.44-8.52.5-12.8s.13-8.55.12-12.84,0-8.56-.1-12.83-.21-8.55-.43-12.82q-.18-3.19-.51-6.37a57.63,57.63,0,0,0-.94-6.3,16.12,16.12,0,0,0-2.16-5.85,4.92,4.92,0,0,0-2.37-1.9,10.91,10.91,0,0,0-3.14-.49,10.74,10.74,0,0,1,3.24.19,5.39,5.39,0,0,1,2.72,1.85,17,17,0,0,1,2.72,6A77.61,77.61,0,0,1,192.63,98c.81,8.58,1,17.18,1,25.77s-.21,17.2-1.09,25.79a76.14,76.14,0,0,1-2.25,12.76,20,20,0,0,1-2.72,5.95,6.79,6.79,0,0,1-2.52,2.12A7,7,0,0,1,181.87,170.91Z"/>
                        <g class="cls-8">
                            <path class="cls-3" d="M200.59,168.09c-1.64-1.34-3.24-2.74-4.83-4.13a19.88,19.88,0,0,1-2.34-2.15,11.78,11.78,0,0,1-1.79-2.69l.1-.1a12,12,0,0,1,2.69,1.79,20.62,20.62,0,0,1,2.14,2.34c1.4,1.59,2.79,3.19,4.13,4.84Z"/>
                            <path class="cls-3" d="M200.59,159c-1.64-1.34-3.24-2.73-4.83-4.13a19.8,19.8,0,0,1-2.34-2.14,12,12,0,0,1-1.79-2.69l.1-.1a12,12,0,0,1,2.69,1.79,19.8,19.8,0,0,1,2.14,2.34c1.4,1.59,2.79,3.18,4.13,4.83Z"/>
                            <path class="cls-3" d="M200.59,149.84c-1.64-1.34-3.24-2.74-4.83-4.14a19.8,19.8,0,0,1-2.34-2.14,11.78,11.78,0,0,1-1.79-2.69l.1-.1a12,12,0,0,1,2.69,1.79,20.62,20.62,0,0,1,2.14,2.34c1.4,1.59,2.79,3.19,4.13,4.84Z"/>
                            <path class="cls-3" d="M200.59,140.71c-1.64-1.34-3.24-2.73-4.83-4.13a19.8,19.8,0,0,1-2.34-2.14,12.24,12.24,0,0,1-1.79-2.69l.1-.1a12,12,0,0,1,2.69,1.79,19.8,19.8,0,0,1,2.14,2.34c1.4,1.59,2.79,3.18,4.13,4.83Z"/>
                            <path class="cls-3" d="M200.59,131.59c-1.64-1.34-3.24-2.74-4.83-4.14a19.8,19.8,0,0,1-2.34-2.14,11.78,11.78,0,0,1-1.79-2.69l.1-.1a12,12,0,0,1,2.69,1.79,19.8,19.8,0,0,1,2.14,2.34c1.4,1.59,2.79,3.19,4.13,4.83Z"/>
                            <path class="cls-3" d="M200.59,122.46c-1.64-1.34-3.24-2.73-4.83-4.13a19.8,19.8,0,0,1-2.34-2.14,12.24,12.24,0,0,1-1.79-2.69l.1-.1a12,12,0,0,1,2.69,1.79,19.8,19.8,0,0,1,2.14,2.34c1.4,1.59,2.79,3.18,4.13,4.83Z"/>
                            <path class="cls-3" d="M200.59,113.33c-1.64-1.34-3.24-2.73-4.83-4.13a19.8,19.8,0,0,1-2.34-2.14,12,12,0,0,1-1.79-2.69l.1-.1a12,12,0,0,1,2.69,1.79,19.8,19.8,0,0,1,2.14,2.34c1.4,1.59,2.79,3.19,4.13,4.83Z"/>
                            <path class="cls-3" d="M200.59,104.21c-1.64-1.34-3.24-2.73-4.83-4.13a20.7,20.7,0,0,1-2.34-2.14,12.24,12.24,0,0,1-1.79-2.69l.1-.1a12,12,0,0,1,2.69,1.79,19.8,19.8,0,0,1,2.14,2.34c1.4,1.58,2.79,3.18,4.13,4.83Z"/>
                            <path class="cls-3" d="M200.59,95.08c-1.64-1.34-3.24-2.73-4.83-4.13a19.8,19.8,0,0,1-2.34-2.14,12,12,0,0,1-1.79-2.69l.1-.1a12,12,0,0,1,2.69,1.79,19.8,19.8,0,0,1,2.14,2.34c1.4,1.59,2.79,3.19,4.13,4.83Z"/>
                        </g>
                        <g class="cls-9">
                            <path class="cls-3" d="M182.89,90.82c1.34-1.65,2.73-3.25,4.13-4.83a20.72,20.72,0,0,1,2.14-2.35,12.47,12.47,0,0,1,2.69-1.79l.1.1a12.07,12.07,0,0,1-1.79,2.7,20.7,20.7,0,0,1-2.34,2.14c-1.59,1.4-3.19,2.79-4.83,4.13Z"/>
                            <path class="cls-3" d="M182.89,99.94c1.34-1.64,2.73-3.24,4.13-4.83a19.8,19.8,0,0,1,2.14-2.34A11.78,11.78,0,0,1,191.85,91l.1.1a12,12,0,0,1-1.79,2.69,19.8,19.8,0,0,1-2.34,2.14c-1.59,1.4-3.19,2.79-4.83,4.13Z"/>
                            <path class="cls-3" d="M182.89,109.07c1.34-1.65,2.73-3.25,4.13-4.83a19.8,19.8,0,0,1,2.14-2.34,11.78,11.78,0,0,1,2.69-1.79l.1.1a12.24,12.24,0,0,1-1.79,2.69,20.7,20.7,0,0,1-2.34,2.14c-1.59,1.4-3.19,2.79-4.83,4.13Z"/>
                            <path class="cls-3" d="M182.89,118.19c1.34-1.64,2.73-3.24,4.13-4.83a19.8,19.8,0,0,1,2.14-2.34,11.78,11.78,0,0,1,2.69-1.79l.1.1a12,12,0,0,1-1.79,2.69,19.8,19.8,0,0,1-2.34,2.14c-1.59,1.4-3.19,2.79-4.83,4.13Z"/>
                            <path class="cls-3" d="M182.89,127.32c1.34-1.65,2.73-3.24,4.13-4.83a19.8,19.8,0,0,1,2.14-2.34,11.78,11.78,0,0,1,2.69-1.79l.1.1a12.24,12.24,0,0,1-1.79,2.69,19.8,19.8,0,0,1-2.34,2.14c-1.59,1.4-3.19,2.79-4.83,4.13Z"/>
                            <path class="cls-3" d="M182.89,136.44c1.34-1.64,2.73-3.24,4.13-4.83a19.8,19.8,0,0,1,2.14-2.34,11.78,11.78,0,0,1,2.69-1.79l.1.1a12,12,0,0,1-1.79,2.69,19.8,19.8,0,0,1-2.34,2.14c-1.59,1.4-3.19,2.79-4.83,4.13Z"/>
                            <path class="cls-3" d="M182.89,145.57c1.34-1.65,2.73-3.24,4.13-4.83a19.8,19.8,0,0,1,2.14-2.34,11.78,11.78,0,0,1,2.69-1.79l.1.1a12.24,12.24,0,0,1-1.79,2.69,19.8,19.8,0,0,1-2.34,2.14c-1.59,1.4-3.19,2.79-4.83,4.13Z"/>
                            <path class="cls-3" d="M182.89,154.7c1.34-1.65,2.73-3.25,4.13-4.84a20.62,20.62,0,0,1,2.14-2.34,11.78,11.78,0,0,1,2.69-1.79l.1.1a11.78,11.78,0,0,1-1.79,2.69,19.8,19.8,0,0,1-2.34,2.14c-1.59,1.4-3.19,2.8-4.83,4.14Z"/>
                            <path class="cls-3" d="M182.89,163.82c1.34-1.65,2.73-3.24,4.13-4.83a19.8,19.8,0,0,1,2.14-2.34,11.78,11.78,0,0,1,2.69-1.79l.1.1a12.24,12.24,0,0,1-1.79,2.69,19.8,19.8,0,0,1-2.34,2.14c-1.59,1.4-3.19,2.79-4.83,4.13Z"/>
                        </g>
                    </g>
                </g>
                <g id="batteries">
                    <rect id="support_batteries" data-name="support batteries" class="cls-2" x="35.3" y="82.72" width="135" height="84.89" rx="3.88"/>
                    <path class="cls-3" d="M166.3,169.61H39.3a6,6,0,0,1-6.13-5.78V84.46c0-3.19,2.75-3.75,6.13-3.75h127c3.37,0,6.12.56,6.12,3.75v79.37A6,6,0,0,1,166.3,169.61ZM39.3,84.72a1.83,1.83,0,0,0-1.88,1.77v77.34a1.82,1.82,0,0,0,1.88,1.77h127a1.82,1.82,0,0,0,1.87-1.77V86.49a1.83,1.83,0,0,0-1.87-1.77Z"/>
                    <g id="résistance">
                        <path class="cls-10" d="M45.67,106.13c-2.38,0-4.23-3.94-4.23-9s1.85-9,4.23-9a.47.47,0,1,1,0,.94c-1.53,0-3.24,3.29-3.24,8s1.71,8,3.24,8a.47.47,0,1,1,0,.94Z"/>
                        <path class="cls-10" d="M46.6,106.13c-2,0-3.09-4.51-3.09-9s1.06-9,3.09-9a.47.47,0,1,1,0,.94c-.86,0-2.1,3.12-2.1,8s1.24,8,2.1,8a.47.47,0,1,1,0,.94Z"/>
                        <path class="cls-10" d="M160.19,134.12a.47.47,0,1,1,0-.94c1.53,0,3.24-3.29,3.24-8s-1.71-8-3.24-8a.47.47,0,1,1,0-.93c2.38,0,4.23,3.93,4.23,9S162.57,134.12,160.19,134.12Z"/>
                        <path class="cls-10" d="M159.26,134.12a.47.47,0,1,1,0-.94c.86,0,2.1-3.12,2.1-8s-1.24-8-2.1-8a.47.47,0,1,1,0-.93c2,0,3.09,4.5,3.09,9S161.29,134.12,159.26,134.12Z"/>
                        <path class="cls-10" d="M45.4,162.1c-2.37,0-4.23-3.94-4.23-9s1.86-9,4.23-9a.47.47,0,1,1,0,.94c-1.53,0-3.24,3.29-3.24,8s1.71,8,3.24,8a.47.47,0,1,1,0,.94Z"/>
                        <path class="cls-10" d="M46.34,162.1c-2,0-3.1-4.51-3.1-9s1.06-9,3.1-9a.47.47,0,1,1,0,.94c-.86,0-2.11,3.13-2.11,8s1.25,8,2.11,8a.47.47,0,1,1,0,.94Z"/>
                    </g>
                    <g id="piles">
                        <g id="pile">
                            <path class="cls-10" d="M161.67,92.47h-.09l-1.43,1.42v6.58l1.43,1.43h.09l1.42-1.43V93.89Z"/>
                            <rect x="45.5" y="85.89" width="116.12" height="22.59" rx="4.86"/>
                            <path class="cls-11" d="M129.6,85.89h29.48a2.55,2.55,0,0,1,2.55,2.55v17.49a2.55,2.55,0,0,1-2.55,2.55H129.6a0,0,0,0,1,0,0V85.89A0,0,0,0,1,129.6,85.89Z"/>
                            <rect class="cls-12" x="45.5" y="91.05" width="116.12" height="12.26"/>
                            <rect class="cls-5" x="59.08" y="92.47" width="2.83" height="9.43"/>
                            <rect class="cls-5" x="145.21" y="92.47" width="2.83" height="9.43"/>
                            <rect class="cls-5" x="141.62" y="95.85" width="10" height="2.67"/>
                        </g>
                        <g id="pile-2" data-name="pile">
                            <path class="cls-10" d="M43.93,129.88H44l1.43-1.43v-6.58L44,120.45h-.08l-1.43,1.42v6.58Z"/>
                            <rect x="43.97" y="113.87" width="116.12" height="22.59" rx="4.86" transform="translate(204.06 250.33) rotate(180)"/>
                            <path class="cls-11" d="M44,113.87H73.45A2.55,2.55,0,0,1,76,116.42v17.49a2.55,2.55,0,0,1-2.55,2.55H44a0,0,0,0,1,0,0V113.87A0,0,0,0,1,44,113.87Z" transform="translate(119.97 250.33) rotate(180)"/>
                            <rect class="cls-12" x="43.97" y="119.03" width="116.12" height="12.26" transform="translate(204.06 250.33) rotate(180)"/>
                            <rect class="cls-5" x="143.68" y="120.45" width="2.83" height="9.43"/>
                            <rect class="cls-5" x="57.55" y="120.45" width="2.83" height="9.43"/>
                            <rect class="cls-5" x="53.97" y="123.83" width="10" height="2.67"/>
                        </g>
                        <g id="pile-3" data-name="pile">
                            <path class="cls-10" d="M161.67,148.43h-.09l-1.43,1.42v6.58l1.43,1.43h.09l1.42-1.43v-6.58Z"/>
                            <rect x="45.5" y="141.85" width="116.12" height="22.59" rx="4.86"/>
                            <path class="cls-11" d="M129.6,141.85h29.48a2.55,2.55,0,0,1,2.55,2.55v17.49a2.55,2.55,0,0,1-2.55,2.55H129.6a0,0,0,0,1,0,0V141.85A0,0,0,0,1,129.6,141.85Z"/>
                            <rect class="cls-12" x="45.5" y="147.01" width="116.12" height="12.26"/>
                            <rect class="cls-5" x="59.08" y="148.43" width="2.83" height="9.43"/>
                            <rect class="cls-5" x="145.21" y="148.43" width="2.83" height="9.43"/>
                            <rect class="cls-5" x="141.62" y="151.8" width="10" height="2.67"/>
                        </g>
                    </g>
                    <polygon class="cls-3" points="171.42 75.88 34.17 75.88 33.19 84.03 172.42 84.46 171.42 75.88"/>
                </g>
                <g id="support_carte" data-name="support carte">
                    <rect class="cls-3" x="42.88" y="59.07" width="119.84" height="12.25" rx="3"/>
                    <path d="M156.58,63.71H49a2.41,2.41,0,0,0,0,4.82H156.58a2.41,2.41,0,0,0,0-4.82Z"/>
                </g>
                <g id="composants">
                    <circle class="cls-13" cx="84.17" cy="51.63" r="5"/>
                    <circle class="cls-14" cx="52.01" cy="37.53" r="5"/>
                    <circle class="cls-13" cx="121.42" cy="51.63" r="5"/>
                    <circle class="cls-14" cx="153.58" cy="37.53" r="5"/>
                    <rect x="27.99" y="54.62" width="10.89" height="5.57"/>
                    <g class="cls-15">
                        <g id="_Grille_de_répétition_" data-name="&lt;Grille de répétition&gt;">
                            <rect class="cls-14" x="30.04" y="56.62" width="1.39" height="1.39"/>
                        </g>
                        <g id="_Grille_de_répétition_2" data-name="&lt;Grille de répétition&gt;">
                            <rect class="cls-14" x="35.43" y="56.62" width="1.39" height="1.39"/>
                        </g>
                    </g>
                    <rect class="cls-16" x="27.99" y="60.18" width="10.89" height="5.57"/>
                    <g class="cls-17">
                        <g id="_Grille_de_répétition_3" data-name="&lt;Grille de répétition&gt;">
                            <rect class="cls-14" x="30.04" y="62.19" width="1.39" height="1.39"/>
                        </g>
                        <g id="_Grille_de_répétition_4" data-name="&lt;Grille de répétition&gt;">
                            <rect class="cls-14" x="35.43" y="62.19" width="1.39" height="1.39"/>
                        </g>
                    </g>
                    <rect class="cls-10" x="27.99" y="65.75" width="10.89" height="5.57"/>
                    <g class="cls-18">
                        <g id="_Grille_de_répétition_5" data-name="&lt;Grille de répétition&gt;">
                            <rect class="cls-14" x="30.04" y="67.76" width="1.39" height="1.39"/>
                        </g>
                        <g id="_Grille_de_répétition_6" data-name="&lt;Grille de répétition&gt;">
                            <rect class="cls-14" x="35.43" y="67.76" width="1.39" height="1.39"/>
                        </g>
                    </g>
                    <rect x="92.4" y="51.91" width="10.89" height="5.57"/>
                    <g class="cls-19">
                        <g id="_Grille_de_répétition_7" data-name="&lt;Grille de répétition&gt;">
                            <rect class="cls-14" x="94.46" y="53.92" width="1.39" height="1.39"/>
                        </g>
                        <g id="_Grille_de_répétition_8" data-name="&lt;Grille de répétition&gt;">
                            <rect class="cls-14" x="99.84" y="53.92" width="1.39" height="1.39"/>
                        </g>
                    </g>
                    <rect class="cls-3" x="92.4" y="46.34" width="10.89" height="5.57"/>
                    <g class="cls-20">
                        <g id="_Grille_de_répétition_9" data-name="&lt;Grille de répétition&gt;">
                            <rect x="94.46" y="48.35" width="1.39" height="1.39"/>
                        </g>
                        <g id="_Grille_de_répétition_10" data-name="&lt;Grille de répétition&gt;">
                            <rect x="99.84" y="48.35" width="1.39" height="1.39"/>
                        </g>
                    </g>
                    <rect x="166.71" y="54.62" width="10.89" height="5.57" transform="translate(344.32 114.8) rotate(-180)"/>
                    <g class="cls-21">
                        <g id="_Grille_de_répétition_11" data-name="&lt;Grille de répétition&gt;">
                            <rect class="cls-14" x="174.16" y="56.62" width="1.39" height="1.39" transform="translate(349.72 114.64) rotate(-180)"/>
                        </g>
                        <g id="_Grille_de_répétition_12" data-name="&lt;Grille de répétition&gt;">
                            <rect class="cls-14" x="168.78" y="56.62" width="1.39" height="1.39" transform="translate(338.94 114.64) rotate(-180)"/>
                        </g>
                    </g>
                    <rect class="cls-16" x="166.71" y="60.18" width="10.89" height="5.57" transform="translate(344.32 125.94) rotate(-180)"/>
                    <g class="cls-22">
                        <g id="_Grille_de_répétition_13" data-name="&lt;Grille de répétition&gt;">
                            <rect class="cls-14" x="174.16" y="62.19" width="1.39" height="1.39" transform="translate(349.72 125.77) rotate(-180)"/>
                        </g>
                        <g id="_Grille_de_répétition_14" data-name="&lt;Grille de répétition&gt;">
                            <rect class="cls-14" x="168.78" y="62.19" width="1.39" height="1.39" transform="translate(338.94 125.77) rotate(-180)"/>
                        </g>
                    </g>
                    <rect class="cls-10" x="166.71" y="65.75" width="10.89" height="5.57" transform="translate(344.32 137.07) rotate(-180)"/>
                    <g class="cls-23">
                        <g id="_Grille_de_répétition_15" data-name="&lt;Grille de répétition&gt;">
                            <rect class="cls-14" x="174.16" y="67.76" width="1.39" height="1.39" transform="translate(349.72 136.9) rotate(-180)"/>
                        </g>
                        <g id="_Grille_de_répétition_16" data-name="&lt;Grille de répétition&gt;">
                            <rect class="cls-14" x="168.78" y="67.76" width="1.39" height="1.39" transform="translate(338.94 136.9) rotate(-180)"/>
                        </g>
                    </g>
                    <rect x="102.3" y="51.91" width="10.89" height="5.57" transform="translate(215.49 109.38) rotate(-180)"/>
                    <g class="cls-24">
                        <g id="_Grille_de_répétition_17" data-name="&lt;Grille de répétition&gt;">
                            <rect class="cls-14" x="109.75" y="53.92" width="1.39" height="1.39" transform="translate(220.89 109.22) rotate(-180)"/>
                        </g>
                        <g id="_Grille_de_répétition_18" data-name="&lt;Grille de répétition&gt;">
                            <rect class="cls-14" x="104.36" y="53.92" width="1.39" height="1.39" transform="translate(210.11 109.22) rotate(-180)"/>
                        </g>
                    </g>
                    <rect class="cls-3" x="102.3" y="46.34" width="10.89" height="5.57" transform="translate(215.49 98.25) rotate(-180)"/>
                    <g class="cls-25">
                        <g id="_Grille_de_répétition_19" data-name="&lt;Grille de répétition&gt;">
                            <rect x="109.75" y="48.35" width="1.39" height="1.39" transform="translate(220.89 98.08) rotate(-180)"/>
                        </g>
                        <g id="_Grille_de_répétition_20" data-name="&lt;Grille de répétition&gt;">
                            <rect x="104.36" y="48.35" width="1.39" height="1.39" transform="translate(210.11 98.08) rotate(-180)"/>
                        </g>
                    </g>
                    <rect class="cls-3" x="97.06" y="7.31" width="12.32" height="12.32" rx="1.21"/>
                    <rect class="cls-3" x="99.02" y="26.28" width="8.4" height="12.32" transform="translate(135.65 -70.78) rotate(90)"/>
                    <g id="Led">
                        <rect class="cls-13" x="61.36" y="26.18" width="1.66" height="4.12" rx="0.83"/>
                        <rect class="cls-13" x="66.31" y="26.18" width="1.66" height="4.12" rx="0.83"/>
                        <g id="Led-2" data-name="Led">
                            <rect class="cls-13" x="142.57" y="26.18" width="1.66" height="4.12" rx="0.83" transform="translate(286.8 56.48) rotate(180)"/>
                            <rect class="cls-13" x="137.62" y="26.18" width="1.66" height="4.12" rx="0.83" transform="translate(276.9 56.48) rotate(-180)"/>
                            <rect class="cls-26" x="136.4" y="8.35" width="9.05" height="18.84" rx="4.36" transform="translate(281.85 35.53) rotate(-180)"/>
                            <rect class="cls-26" x="134.93" y="22.16" width="12" height="5.03" rx="1" transform="translate(281.85 49.34) rotate(-180)"/>
                        </g>
                        <rect class="cls-26" x="60.14" y="8.35" width="9.05" height="18.84" rx="4.36"/>
                        <rect class="cls-26" x="58.67" y="22.16" width="12" height="5.03" rx="1"/>
                    </g>
                    <rect class="cls-10" x="161.92" y="42.41" width="10.89" height="5.57" transform="translate(80.98 -105.11) rotate(45)"/>
                </g>
                <g id="capteur_ultrason" data-name="capteur ultrason">
                    <path class="cls-27" d="M102.44,38.69H58.89a1,1,0,0,0-1,.69l-2,5.95C55.7,46,55.38,48,57.53,48h90.8c2.08,0,1.48-2,1.27-2.65l-2.68-5.95a1,1,0,0,0-.95-.69Zm-41.63,1c-.83,0-1.5-.16-1.5-.35S60,39,60.81,39s1.49.15,1.49.35S61.63,39.71,60.81,39.71Zm83.24,0c-.82,0-1.49-.16-1.49-.35s.67-.35,1.49-.35,1.5.15,1.5.35S144.88,39.71,144.05,39.71Z"/>
                    <path class="cls-28" d="M102.76,37.35H59.21a1,1,0,0,0-1,.69L55.9,45.33a1,1,0,0,0,1,1.3h91.79a1,1,0,0,0,.95-1.3L147.25,38a1,1,0,0,0-1-.69Zm-41.63,1c-.83,0-1.49-.16-1.49-.35s.66-.36,1.49-.36,1.49.16,1.49.36S62,38.37,61.13,38.37Zm83.24,0c-.82,0-1.49-.16-1.49-.35s.67-.36,1.49-.36,1.5.16,1.5.36S145.2,38.37,144.37,38.37Z"/>
                    <rect class="cls-10" x="92.4" y="37.75" width="20.06" height="1.87" rx="0.94"/>
                    <path class="cls-13" d="M94.65,32V42c0,2.07-7.11,3.75-15.85,3.75S63,44.11,63,42V32"/>
                    <g id="yeux">
                        <ellipse class="cls-10" cx="78.8" cy="32.05" rx="14.78" ry="3.5"/>
                        <g class="cls-29">
                            <g class="cls-30">
                                <line class="cls-31" x1="64.19" y1="28.56" x2="64.19" y2="35.55"/>
                                <line class="cls-31" x1="65.75" y1="28.56" x2="65.75" y2="35.55"/>
                                <line class="cls-31" x1="67.32" y1="28.56" x2="67.32" y2="35.55"/>
                                <line class="cls-31" x1="68.89" y1="28.56" x2="68.89" y2="35.55"/>
                                <line class="cls-31" x1="70.46" y1="28.56" x2="70.46" y2="35.55"/>
                                <line class="cls-31" x1="72.03" y1="28.56" x2="72.03" y2="35.55"/>
                                <line class="cls-31" x1="73.6" y1="28.56" x2="73.6" y2="35.55"/>
                                <line class="cls-31" x1="75.17" y1="28.56" x2="75.17" y2="35.55"/>
                                <line class="cls-31" x1="76.74" y1="28.56" x2="76.74" y2="35.55"/>
                                <line class="cls-31" x1="78.31" y1="28.56" x2="78.31" y2="35.55"/>
                                <line class="cls-31" x1="79.87" y1="28.56" x2="79.87" y2="35.55"/>
                                <line class="cls-31" x1="81.44" y1="28.56" x2="81.44" y2="35.55"/>
                                <line class="cls-31" x1="83.01" y1="28.56" x2="83.01" y2="35.55"/>
                                <line class="cls-31" x1="84.58" y1="28.56" x2="84.58" y2="35.55"/>
                                <line class="cls-31" x1="86.15" y1="28.56" x2="86.15" y2="35.55"/>
                                <line class="cls-31" x1="87.72" y1="28.56" x2="87.72" y2="35.55"/>
                                <line class="cls-31" x1="89.29" y1="28.56" x2="89.29" y2="35.55"/>
                                <line class="cls-31" x1="90.86" y1="28.56" x2="90.86" y2="35.55"/>
                                <line class="cls-31" x1="92.43" y1="28.56" x2="92.43" y2="35.55"/>
                                <line class="cls-31" x1="93.99" y1="28.56" x2="93.99" y2="35.55"/>
                            </g>
                            <g class="cls-32">
                                <line class="cls-31" x1="64" y1="35.51" x2="93.56" y2="35.51"/>
                                <line class="cls-31" x1="64" y1="34.38" x2="93.56" y2="34.38"/>
                                <line class="cls-31" x1="64" y1="33.24" x2="93.56" y2="33.24"/>
                                <line class="cls-31" x1="64" y1="32.11" x2="93.56" y2="32.11"/>
                                <line class="cls-31" x1="64" y1="30.97" x2="93.56" y2="30.97"/>
                                <line class="cls-31" x1="64" y1="29.84" x2="93.56" y2="29.84"/>
                                <line class="cls-31" x1="64" y1="28.7" x2="93.56" y2="28.7"/>
                            </g>
                        </g>
                        <path class="cls-10" d="M78.8,36.21C70.06,36.21,63,34.11,63,32s7.11-3.75,15.85-3.75S94.65,30,94.65,32,87.54,36.21,78.8,36.21Zm0-7.65c-7.56,0-13.71,1.69-13.71,3.48s6.15,3.24,13.71,3.24S92.51,33.83,92.51,32,86.36,28.56,78.8,28.56Z"/>
                    </g>
                    <path class="cls-13" d="M142.56,32V42c0,2.07-7.12,3.75-15.86,3.75S110.85,44.11,110.85,42V32"/>
                    <g id="yeux-2" data-name="yeux">
                        <ellipse class="cls-10" cx="126.7" cy="32.05" rx="14.78" ry="3.5"/>
                        <g class="cls-33">
                            <g class="cls-34">
                                <line class="cls-31" x1="112.09" y1="28.56" x2="112.09" y2="35.55"/>
                                <line class="cls-31" x1="113.66" y1="28.56" x2="113.66" y2="35.55"/>
                                <line class="cls-31" x1="115.23" y1="28.56" x2="115.23" y2="35.55"/>
                                <line class="cls-31" x1="116.8" y1="28.56" x2="116.8" y2="35.55"/>
                                <line class="cls-31" x1="118.37" y1="28.56" x2="118.37" y2="35.55"/>
                                <line class="cls-31" x1="119.94" y1="28.56" x2="119.94" y2="35.55"/>
                                <line class="cls-31" x1="121.5" y1="28.56" x2="121.5" y2="35.55"/>
                                <line class="cls-31" x1="123.07" y1="28.56" x2="123.07" y2="35.55"/>
                                <line class="cls-31" x1="124.64" y1="28.56" x2="124.64" y2="35.55"/>
                                <line class="cls-31" x1="126.21" y1="28.56" x2="126.21" y2="35.55"/>
                                <line class="cls-31" x1="127.78" y1="28.56" x2="127.78" y2="35.55"/>
                                <line class="cls-31" x1="129.35" y1="28.56" x2="129.35" y2="35.55"/>
                                <line class="cls-31" x1="130.92" y1="28.56" x2="130.92" y2="35.55"/>
                                <line class="cls-31" x1="132.49" y1="28.56" x2="132.49" y2="35.55"/>
                                <line class="cls-31" x1="134.05" y1="28.56" x2="134.05" y2="35.55"/>
                                <line class="cls-31" x1="135.62" y1="28.56" x2="135.62" y2="35.55"/>
                                <line class="cls-31" x1="137.19" y1="28.56" x2="137.19" y2="35.55"/>
                                <line class="cls-31" x1="138.76" y1="28.56" x2="138.76" y2="35.55"/>
                                <line class="cls-31" x1="140.33" y1="28.56" x2="140.33" y2="35.55"/>
                                <line class="cls-31" x1="141.9" y1="28.56" x2="141.9" y2="35.55"/>
                            </g>
                            <g class="cls-35">
                                <line class="cls-31" x1="111.9" y1="35.51" x2="141.47" y2="35.51"/>
                                <line class="cls-31" x1="111.9" y1="34.38" x2="141.47" y2="34.38"/>
                                <line class="cls-31" x1="111.9" y1="33.24" x2="141.47" y2="33.24"/>
                                <line class="cls-31" x1="111.9" y1="32.11" x2="141.47" y2="32.11"/>
                                <line class="cls-31" x1="111.9" y1="30.97" x2="141.47" y2="30.97"/>
                                <line class="cls-31" x1="111.9" y1="29.84" x2="141.47" y2="29.84"/>
                                <line class="cls-31" x1="111.9" y1="28.7" x2="141.47" y2="28.7"/>
                            </g>
                        </g>
                        <path class="cls-10" d="M126.7,36.21c-8.74,0-15.85-2.1-15.85-4.17s7.11-3.75,15.85-3.75S142.56,30,142.56,32,135.44,36.21,126.7,36.21Zm0-7.65C119.14,28.56,113,30.25,113,32s6.15,3.24,13.71,3.24,13.72-1.45,13.72-3.24S134.26,28.56,126.7,28.56Z"/>
                    </g>
                </g>
                <g id="carte_micro:bit" data-name="carte micro:bit">
                    <path class="cls-2" d="M52.6,84h101c6.82,0,5.41-2.74,5.41-3.76l-1.7-15.38H48.62l-2,15.38C46.61,81.29,45.61,84,52.6,84Z"/>
                    <path class="cls-3" d="M111.65,82.13v1.16c0,.37-.4.67-.9.67H95.82c-.5,0-.91-.3-.91-.67V82.13Z"/>
                    <path d="M53.7,82.13h98.63c6.79,0,6.69-.88,6.69-1.86l-2-16.56H48.75l-2,16.56C46.75,81.25,46.75,82.13,53.7,82.13Z"/>
                    <polyline class="cls-36" points="117.5 82.13 122.35 80.74 122.35 82.14"/>
                    <polyline class="cls-36" points="123.28 82.13 134.44 78.99 134.72 82.13"/>
                    <path class="cls-36" d="M135.55,82.13l22.9-6.62.67,4.93c0,.93,0,1.69-6.33,1.69Z"/>
                    <path class="cls-3" d="M153.28,72.63h-12c-.75,0-1.36-.16-1.36-.35l-.26-3c0-.19.61-.35,1.36-.35H152.9c.75,0,1.36.16,1.36.35l.38,3C154.64,72.47,154,72.63,153.28,72.63Z"/>
                    <ellipse class="cls-36" cx="147.27" cy="70.79" rx="3.91" ry="1.03"/>
                    <ellipse class="cls-36" cx="152.48" cy="72.08" rx="1.31" ry="0.34"/>
                    <ellipse class="cls-36" cx="142.08" cy="72.08" rx="1.31" ry="0.34"/>
                    <ellipse class="cls-36" cx="141.81" cy="69.53" rx="1.31" ry="0.34"/>
                    <ellipse class="cls-36" cx="152.2" cy="69.53" rx="1.31" ry="0.34"/>
                    <path class="cls-3" d="M64.92,72.63h-12c-.75,0-1.36-.16-1.36-.35l.36-3c0-.19.61-.35,1.36-.35H65.12c.74,0,1.36.16,1.36.35l-.2,3C66.28,72.47,65.67,72.63,64.92,72.63Z"/>
                    <ellipse class="cls-36" cx="58.9" cy="70.79" rx="3.91" ry="1.03"/>
                    <ellipse class="cls-36" cx="64.12" cy="72.08" rx="1.31" ry="0.34"/>
                    <ellipse class="cls-36" cx="53.72" cy="72.08" rx="1.31" ry="0.34"/>
                    <ellipse class="cls-36" cx="54.08" cy="69.53" rx="1.31" ry="0.34"/>
                    <ellipse class="cls-36" cx="64.47" cy="69.53" rx="1.31" ry="0.34"/>
                    <path class="cls-36" d="M61.34,75.2H54.18a1.21,1.21,0,0,1-.55-.09c-.09-.06,0-.13.13-.17l7.16-1.89a2,2,0,0,1,.65,0c.23,0,.37.08.37.14v1.89C61.94,75.13,61.67,75.2,61.34,75.2Z"/>
                    <path class="cls-36" d="M107.07,78.62c.62,0,1.12.13,1.12.29s-.5.3-1.12.3-1.13-.13-1.13-.3S106.45,78.62,107.07,78.62Zm0,.53c.49,0,.89-.11.89-.24s-.4-.23-.89-.23-.89.1-.89.23S106.58,79.15,107.07,79.15Z"/>
                    <path class="cls-36" d="M99.2,78.65c.62,0,1.13.13,1.13.3s-.51.3-1.13.3-1.12-.14-1.12-.3S98.58,78.65,99.2,78.65Zm0,.53c.49,0,.89-.1.89-.23s-.4-.24-.89-.24-.89.11-.89.24S98.71,79.18,99.2,79.18Z"/>
                    <rect class="cls-3" x="121.79" y="75.13" width="2.37" height="1.5" transform="translate(245.95 151.75) rotate(180)"/>
                    <path class="cls-36" d="M99.86,77.58h6.84c3.11,0,5.63.61,5.63,1.37s-2.52,1.37-5.63,1.37H99.86c-3.11,0-5.64-.62-5.64-1.37S96.75,77.58,99.86,77.58Zm6.84,2.25c2,0,3.62-.4,3.62-.88s-1.62-.88-3.62-.88H99.86c-2,0-3.62.39-3.62.88s1.62.88,3.62.88Z"/>
                    <rect class="cls-3" x="101.92" y="75.13" width="2.37" height="1.5" transform="translate(206.2 151.75) rotate(180)"/>
                    <rect class="cls-3" x="82.04" y="75.13" width="2.37" height="1.5" transform="translate(166.46 151.75) rotate(180)"/>
                    <rect class="cls-3" x="101.92" y="72.5" width="2.37" height="1.5" transform="translate(206.2 146.49) rotate(180)"/>
                    <polygon class="cls-3" points="82.07 72.5 84.44 72.5 84.41 73.99 82.05 73.99 82.07 72.5"/>
                    <rect class="cls-3" x="101.92" y="69.87" width="2.37" height="1.5" transform="translate(206.2 141.23) rotate(180)"/>
                    <polygon class="cls-3" points="82.14 69.87 84.5 69.87 84.46 71.36 82.09 71.36 82.14 69.87"/>
                    <rect class="cls-3" x="111.85" y="67.24" width="2.37" height="1.5" transform="translate(226.07 135.97) rotate(180)"/>
                    <rect class="cls-3" x="101.92" y="67.24" width="2.37" height="1.5" transform="translate(206.2 135.97) rotate(180)"/>
                    <polygon class="cls-3" points="82.28 64.61 84.64 64.61 84.62 66.11 82.25 66.11 82.28 64.61"/>
                    <rect class="cls-3" x="91.68" y="67.24" width="2.37" height="1.5" transform="translate(185.72 135.97) rotate(180)"/>
                    <rect class="cls-3" x="111.85" y="64.61" width="2.37" height="1.5" transform="translate(226.07 130.71) rotate(180)"/>
                    <rect class="cls-3" x="111.85" y="69.87" width="2.37" height="1.5" transform="translate(226.07 141.23) rotate(180)"/>
                    <rect class="cls-3" x="111.85" y="72.5" width="2.37" height="1.5" transform="translate(226.07 146.49) rotate(180)"/>
                    <rect class="cls-3" x="111.85" y="75.13" width="2.37" height="1.5" transform="translate(226.07 151.75) rotate(180)"/>
                    <rect class="cls-3" x="91.68" y="64.61" width="2.37" height="1.5" transform="translate(185.72 130.71) rotate(180)"/>
                    <rect class="cls-3" x="91.68" y="69.87" width="2.37" height="1.5" transform="translate(185.72 141.23) rotate(180)"/>
                    <rect class="cls-3" x="91.68" y="72.5" width="2.37" height="1.5" transform="translate(185.72 146.49) rotate(180)"/>
                    <rect class="cls-3" x="91.68" y="75.13" width="2.37" height="1.5" transform="translate(185.72 151.75) rotate(180)"/>
                    <polygon class="cls-3" points="82.2 67.24 84.57 67.24 84.53 68.73 82.16 68.73 82.2 67.24"/>
                    <rect class="cls-3" x="101.92" y="64.61" width="2.37" height="1.5" transform="translate(206.2 130.71) rotate(180)"/>
                    <polygon class="cls-3" points="124.13 72.49 121.77 72.49 121.79 73.98 124.16 73.98 124.13 72.49"/>
                    <polygon class="cls-3" points="124.06 69.86 121.7 69.86 121.74 71.35 124.11 71.35 124.06 69.86"/>
                    <polygon class="cls-3" points="123.92 64.6 121.56 64.6 121.58 66.09 123.95 66.09 123.92 64.6"/>
                    <polygon class="cls-3" points="124 67.23 121.63 67.23 121.67 68.72 124.04 68.72 124 67.23"/>
                </g>
                <g id="suiveur_de_ligne" data-name="suiveur de ligne">
                    <path class="cls-13" d="M99.58.43,78.8,5.89H127L106.19.43A13,13,0,0,0,99.58.43Z"/>
                    <path class="cls-13" d="M76.8,2.92h4a1,1,0,0,1,1,1v2a0,0,0,0,1,0,0h-6a0,0,0,0,1,0,0v-2A1,1,0,0,1,76.8,2.92Z"/>
                    <path class="cls-13" d="M124.7,2.92h4a1,1,0,0,1,1,1v2a0,0,0,0,1,0,0h-6a0,0,0,0,1,0,0v-2A1,1,0,0,1,124.7,2.92Z"/>
                </g>
            </g>
        </g>
    </g>
</svg>