<?xml version="1.0" encoding="UTF-8"?>
<svg id="Calque_2"
    xmlns="http://www.w3.org/2000/svg" viewBox="0 0 139.76 265.73">
    <defs>
        <style>.cls-1{fill:blue;}.cls-2{fill:red;}.cls-3{fill:#96836e;}.cls-4{fill:#8f7a64;}.cls-5{fill:#333;}.cls-6{fill:#bea285;}.cls-7{fill:#22b573;}.cls-8{fill:#208956;}.cls-9{fill:#716253;}.cls-10{fill:#322c25;}.cls-11{fill:#24a069;}.cls-12{fill:none;stroke:#24a069;stroke-miterlimit:10;stroke-width:.5px;}</style>
    </defs>
    <g id="Calque_1-2">
        <g id="Oobybot">
            <g id="body">
                <path id="body-2" class="cls-6" d="M2.46,59.78l103.81-18.91c1.84-.34,3.54,1.08,3.54,2.95V214.75c0,1.87-1.7,3.29-3.54,2.95L2.46,198.79c-1.43-.26-2.46-1.5-2.46-2.95V62.73c0-1.45,1.04-2.69,2.46-2.95Z"/>
                <g id="hold">
                    <rect class="cls-10" x="74.15" y="77.63" width="13" height="103.31" rx="6.5" ry="6.5"/>
                </g>
                <g id="fixations">
                    <g id="fixation_right">
                        <g id="fixation_left_up">
                            <g id="hold-2">
                                <rect class="cls-10" x="70.98" y="192.6" width="3.98" height="21.42" rx="1" ry="1" transform="translate(-140.06 239.04) rotate(-79.78)"/>
                            </g>
                            <rect id="fixation" class="cls-3" x="70.96" y="202.13" width="22.74" height="5.74" rx="2.87" ry="2.87" transform="translate(37.68 -11.36) rotate(10.22)"/>
                        </g>
                        <g id="fixation_left_down">
                            <g id="hold-3">
                                <rect class="cls-10" x="19.07" y="185.27" width="3.98" height="17.35" rx=".9" ry=".9" transform="translate(-173.55 180.26) rotate(-79.78)"/>
                            </g>
                            <rect id="fixation-2" class="cls-3" x="19.43" y="192.45" width="18.42" height="5.74" rx="2.58" ry="2.58" transform="translate(35.11 -1.98) rotate(10.22)"/>
                        </g>
                    </g>
                    <g id="fixation_left">
                        <g id="fixation_left_up-2">
                            <g id="hold-4">
                                <rect class="cls-10" x="64.22" y="53.09" width="21.42" height="3.98" rx="1" ry="1" transform="translate(-8.58 14.17) rotate(-10.22)"/>
                            </g>
                            <rect id="fixation-3" class="cls-3" x="72.92" y="50.53" width="22.74" height="5.74" rx="2.87" ry="2.87" transform="translate(-8.14 15.81) rotate(-10.22)"/>
                        </g>
                        <g id="fixation_left_down-2">
                            <g id="hold-5">
                                <rect class="cls-10" x="14.35" y="62.45" width="17.35" height="3.98" rx=".9" ry=".9" transform="translate(-11.07 5.11) rotate(-10.22)"/>
                            </g>
                            <rect id="fixation-4" class="cls-3" x="21.4" y="60.21" width="18.42" height="5.74" rx="2.58" ry="2.58" transform="translate(-10.71 6.43) rotate(-10.22)"/>
                        </g>
                    </g>
                </g>
            </g>
            <g id="microbit">
                <g id="microbit-2">
                    <g id="Carte_microbit_v2">
                        <g id="micro_usb">
                            <path id="micro_usb-2" class="cls-5" d="M24.82,134.91c-.45,0-.67-.01-1.12-.02-.36,0-.65-.27-.65-.59,0-3.83,0-5.74,0-9.57,0-.32,.29-.59,.64-.59,.45,0,.67-.01,1.12-.02v10.8Z"/>
                        </g>
                        <g id="body-3">
                            <path d="M24.82,97.52c0,21.21,0,42.43,0,63.64,0,2.41,2.38,4.62,5.03,4.95,16.61,2.07,33.21,4.14,49.82,6.21,0-1.75,0-2.63,0-4.39-.97,.1-1.1,.2-1.63,.13-2.2-.25-4.1-2.35-4.1-4.67s1.86-4.05,4.06-3.85c.53,.05,.71,.18,1.68,.47v-9.1c-.97,.14-1.14,.25-1.68,.21-2.2-.14-4.06-2.14-4.06-4.47s1.91-4.14,4.1-4.05c.53,.02,.67,.14,1.63,.38,0-3.92,0-5.88,0-9.79-.97,.19-1.14,.31-1.68,.3-2.2-.03-4.06-1.94-4.06-4.26s1.91-4.16,4.1-4.19c.53,0,.67,.1,1.63,.3,0-3.95,0-5.92,0-9.87-.97,.24-1.14,.36-1.68,.39-2.2,.09-4.06-1.73-4.06-4.05s1.91-4.26,4.1-4.4c.53-.03,.67,.07,1.63,.22v-9.18c-.97,.29-1.14,.42-1.68,.47-2.2,.19-4.06-1.53-4.06-3.85s1.91-4.4,4.1-4.65c.53-.06,.67,.04,1.63,.13,0-1.75,0-2.63,0-4.39-16.61,2.07-33.21,4.15-49.82,6.23-2.65,.33-5.03,2.71-5.03,5.12Z"/>
                        </g>
                        <g id="drawing">
                            <path class="cls-11" d="M24.82,138.68c1.51,1.3,2.27,1.96,3.78,3.3-1.51-.07-2.27-.1-3.78-.16"/>
                            <path class="cls-11" d="M24.82,142.42c3.41,3.04,5.11,4.6,8.52,7.8-3.4-.16-5.11-.25-8.51-.42"/>
                            <path class="cls-11" d="M24.84,150.34c7.16,6.54,10.74,10,17.9,17.29-5.33-.6-8-.9-13.33-1.51-2.51-.29-4.57-2.38-4.57-4.66,0-4.45,0-6.67,0-11.12Z"/>
                            <path class="cls-12" d="M67.72,160.68v5.3c0,.11-.06,.2-.16,.23-.09,.03-.2,0-.27-.09-2.04-2.34-3.06-3.5-5.1-5.78-.07-.08-.09-.19-.05-.29,.04-.09,.13-.15,.23-.14,2.04,.19,3.06,.29,5.1,.48,.14,.01,.25,.14,.25,.29Z"/>
                            <path class="cls-12" d="M49.36,100.18s0,.06-.02,.1c-.04,.1-.13,.17-.23,.17-2.04,.19-3.06,.28-5.1,.47-.14,.01-.25-.09-.25-.22,0-1.97,0-2.95,0-4.92,0-.1,.06-.19,.16-.24,.09-.05,.2-.04,.27,.02,2.04,1.75,3.06,2.64,5.1,4.45,.05,.04,.07,.1,.07,.17Z"/>
                            <path class="cls-11" d="M37.05,117.65c0,.32-.27,.59-.61,.6-.34,.01-.61-.23-.61-.55s.27-.58,.61-.6c.34-.01,.61,.23,.61,.55Zm-1.11,.04c0,.26,.22,.46,.5,.45,.27-.01,.5-.23,.5-.49s-.22-.46-.5-.45-.5,.23-.5,.49Z"/>
                        </g>
                        <g id="micro">
                            <path class="cls-2" d="M33.54,115.03s.01-.06,.02-.08c.07-.2,.2-.34,.42-.4,.03,0,.07-.01,.11-.01,.33-.02,.66-.03,.99-.05,.31-.02,.52,.21,.54,.45,.02,.18-.03,.35-.18,.49-.1,.09-.21,.15-.35,.15-.34,.02-.68,.03-1.03,.05-.25,.01-.46-.15-.52-.39,0-.02,0-.04-.01-.06v-.15Z"/>
                            <path class="cls-2" d="M36.24,114.82c.12,0,.23-.01,.35-.02,.08,0,.16,0,.24-.01,.05,0,.07-.02,.07-.07,0-.1,0-.2,0-.31,0-.04,.01-.08,.04-.12,.05-.05,.12-.06,.17,0,.02,.03,.04,.07,.04,.1,0,.36,0,.72,0,1.08,0,.04-.02,.08-.05,.12-.04,.04-.11,.04-.15,0-.04-.03-.05-.07-.05-.12v-.3c0-.06-.02-.08-.08-.07-.18,0-.36,.02-.54,.02-.03,0-.04,.01-.05,.04-.07,.42-.39,.8-.85,.92-.07,.02-.15,.03-.22,.03-.08,0-.15-.05-.15-.13,0-.08,.05-.14,.13-.16,.06-.01,.13-.01,.19-.03,.25-.07,.42-.22,.52-.44,.15-.33,.11-.63-.12-.9-.14-.15-.32-.23-.54-.23-.1,0-.16-.04-.17-.12,0-.09,.06-.17,.16-.17,.16,0,.32,.02,.46,.08,.35,.16,.55,.42,.61,.79,0,0,0,0,0,.02Z"/>
                        </g>
                        <path id="connectors_background" class="cls-5" d="M87.08,89.15c-2.96,.34-4.45,.51-7.41,.84v1.85c.75,.52,1.24,1.44,1.24,2.54s-.49,2.11-1.24,2.79v11.68c.75,.56,1.24,1.5,1.24,2.6,0,1.09-.49,2.09-1.24,2.73,0,4.95,0,7.43,0,12.38,.76,.6,1.25,1.57,1.25,2.67s-.49,2.07-1.25,2.67c0,4.95,0,7.43,0,12.38,.76,.64,1.25,1.63,1.25,2.73,0,1.1-.49,2.04-1.25,2.6v11.7c.76,.68,1.25,1.7,1.25,2.79s-.49,2.02-1.25,2.54v1.86c2.96,.34,4.45,.51,7.41,.84v-1.91c-.38-.46-.57-.68-.95-1.14v-3.48c.38-.38,.57-.57,.95-.95,0-4.73,0-7.09,0-11.82-.38-.44-.57-.66-.95-1.09v-3.48c.38-.4,.57-.6,.95-1,0-5.01,0-7.51,0-12.52-.38-.42-.57-.63-.95-1.04v-3.48c.38-.42,.57-.63,.95-1.04m0-12.51c-.38-.4-.57-.6-.95-1v-3.48c.38-.44,.57-.66,.95-1.1m0-11.79c-.38-.38-.57-.57-.95-.95v-3.48c.38-.46,.57-.69,.95-1.15"/>
                        <g id="connectors_under">
                            <path id="p22" class="cls-8" d="M79.67,89.99c0-1.53,0-2.29,0-3.82,1.5-.19,2.26-.28,3.76-.47,2.15-.27,3.52,1.17,3.65,3.45-2.96,.34-4.44,.51-7.41,.84Z"/>
                            <path id="gnd" class="cls-8" d="M77.99,90.42c-2.2,.25-4.06,2.35-4.06,4.67s1.91,4.04,4.1,3.85c.53-.05,.67-.17,1.63-.46v.22c2.97-.26,4.45-.39,7.42-.66v-1.54c-.38-.39-.58-.58-.96-.96v-3.48c.38-.46,.58-.69,.96-1.16v-1.37c-2.97,.33-4.45,.5-7.42,.84v.19c-.97-.1-1.14-.19-1.68-.13Zm2.92,3.97c0,1.84-1.38,3.47-3.09,3.62s-3.09-1.19-3.09-3,1.38-3.43,3.09-3.62c1.71-.19,3.09,1.15,3.09,3Z"/>
                            <path id="p21" class="cls-8" d="M87.09,100.15c-2.97,.25-4.45,.37-7.42,.61v-1.74c2.97-.26,4.45-.39,7.42-.65v1.77Z"/>
                            <path id="p20" class="cls-8" d="M87.09,102.28c-2.97,.23-4.45,.34-7.42,.57v-1.74c2.97-.24,4.45-.36,7.42-.61v1.77Z"/>
                            <path id="p19" class="cls-8" d="M87.09,104.41c-2.97,.21-4.45,.31-7.42,.52v-1.74c2.97-.22,4.45-.34,7.42-.56v1.77Z"/>
                            <path id="p18" class="cls-8" d="M87.09,106.54c-2.97,.19-4.45,.29-7.42,.48v-1.74c2.97-.21,4.45-.31,7.42-.52v1.77Z"/>
                            <path id="_3v3" class="cls-8" d="M77.99,107.34c-2.2,.14-4.06,2.14-4.06,4.47s1.91,4.14,4.1,4.05c.53-.02,.67-.14,1.63-.38v.22c2.97-.12,4.45-.18,7.42-.29v-1.54c-.38-.41-.58-.61-.96-1.01v-3.48c.38-.44,.58-.66,.96-1.11,0-.55,0-.82,0-1.37-2.97,.19-4.45,.28-7.42,.47v.19c-.97-.14-1.14-.25-1.68-.21Zm2.92,4.11c0,1.84-1.38,3.4-3.09,3.47-1.71,.07-3.09-1.34-3.09-3.15s1.38-3.36,3.09-3.47,3.09,1.31,3.09,3.15Z"/>
                            <path id="p17" class="cls-8" d="M87.09,115.76c-2.97,.11-4.45,.17-7.42,.28v1.74c2.97-.1,4.45-.15,7.42-.25v-1.77Z"/>
                            <path id="p16" class="cls-8" d="M87.09,117.89c-2.97,.1-4.45,.14-7.42,.24,0,.56,0,.83,0,1.39,2.97-.08,4.45-.13,7.42-.21v-1.42Z"/>
                            <path id="p15" class="cls-8" d="M87.09,119.67c-2.97,.08-4.45,.12-7.42,.2v1.39c2.97-.07,4.45-.1,7.42-.17,0-.57,0-.85,0-1.42Z"/>
                            <path id="p14" class="cls-8" d="M87.09,121.44c-2.97,.07-4.45,.1-7.42,.17v1.39c2.97-.05,4.45-.08,7.42-.14v-1.42Z"/>
                            <path id="p13" class="cls-8" d="M87.09,123.21c-2.97,.05-4.45,.08-7.42,.13v1.39c2.97-.04,4.45-.06,7.42-.1v-1.42Z"/>
                            <path id="p2" class="cls-8" d="M78,124.97c-2.2,.03-4.06,1.94-4.06,4.26s1.91,4.23,4.1,4.26c.53,0,.67-.1,1.63-.3v.22c2.97,.04,4.45,.05,7.42,.09v-1.54c-.38-.42-.58-.64-.96-1.06v-3.48c.38-.42,.58-.63,.96-1.06v-1.37c-2.97,.04-4.45,.05-7.42,.09v.19c-.97-.19-1.14-.31-1.68-.3Zm2.92,4.26c0,1.84-1.38,3.33-3.09,3.31-1.71-.02-3.09-1.5-3.09-3.31s1.38-3.29,3.09-3.31c1.71-.02,3.09,1.46,3.09,3.31Z"/>
                            <path id="p12" class="cls-8" d="M87.09,133.86c-2.97-.04-4.45-.06-7.42-.1v1.39c2.97,.05,4.45,.08,7.42,.13v-1.42Z"/>
                            <path id="p11" class="cls-8" d="M87.09,135.63c-2.97-.05-4.45-.08-7.42-.13v1.39c2.97,.07,4.45,.1,7.42,.16v-1.42Z"/>
                            <path id="p10" class="cls-8" d="M87.09,137.41c-2.97-.07-4.45-.1-7.42-.17v1.39c2.97,.08,4.45,.12,7.42,.2,0-.57,0-.85,0-1.42Z"/>
                            <path id="p9" class="cls-8" d="M87.09,139.18c-2.97-.08-4.45-.13-7.42-.21,0,.56,0,.83,0,1.39,2.97,.1,4.45,.14,7.42,.24v-1.42Z"/>
                            <path id="p8" class="cls-8" d="M87.09,140.96c-2.97-.1-4.45-.15-7.42-.25v1.74c2.97,.11,4.45,.17,7.42,.28v-1.77Z"/>
                            <path id="p1" class="cls-8" d="M78,142.6c-2.2-.09-4.06,1.73-4.06,4.05s1.91,4.33,4.1,4.47c.53,.03,.67-.07,1.63-.22v.22c2.97,.19,4.45,.28,7.42,.47,0-.62,0-.92,0-1.54-.38-.44-.58-.67-.96-1.11v-3.48c.38-.4,.58-.61,.96-1.01v-1.37c-2.97-.12-4.45-.17-7.42-.29v.19c-.97-.24-1.14-.36-1.68-.38Zm2.92,4.41c0,1.84-1.38,3.26-3.09,3.15-1.71-.1-3.09-1.66-3.09-3.47s1.38-3.22,3.09-3.15c1.71,.07,3.09,1.62,3.09,3.47Z"/>
                            <path id="p7" class="cls-8" d="M87.09,151.96c-2.97-.19-4.45-.29-7.42-.48v1.74c2.97,.21,4.45,.31,7.42,.51v-1.77Z"/>
                            <path id="p6" class="cls-8" d="M87.09,154.09c-2.97-.21-4.45-.31-7.42-.52v1.74c2.97,.22,4.45,.34,7.42,.56v-1.77Z"/>
                            <path id="p5" class="cls-8" d="M87.09,156.22c-2.97-.23-4.45-.34-7.42-.57v1.74c2.97,.24,4.45,.36,7.42,.6v-1.77Z"/>
                            <path id="p4" class="cls-8" d="M87.09,158.35c-2.97-.24-4.45-.37-7.42-.61v1.74c2.97,.26,4.45,.39,7.42,.65v-1.77Z"/>
                            <path id="p0" class="cls-8" d="M78,159.55c-2.2-.19-4.06,1.53-4.06,3.85s1.91,4.43,4.1,4.67c.53,.06,.67-.04,1.63-.13v.22c2.97,.33,4.45,.5,7.42,.84v-1.54c-.38-.46-.58-.69-.96-1.16v-3.48c.38-.38,.58-.58,.96-.96v-1.37c-2.97-.26-4.45-.39-7.42-.66v.19c-.97-.29-1.14-.42-1.68-.47Zm2.92,4.56c0,1.84-1.38,3.19-3.09,3-1.71-.19-3.09-1.81-3.09-3.62s1.38-3.15,3.09-3c1.71,.16,3.09,1.78,3.09,3.62Z"/>
                            <path id="p3" class="cls-8" d="M79.67,168.5c0,1.53,0,2.29,0,3.82,1.5,.19,2.26,.28,3.76,.47,2.15,.27,3.52-1.17,3.65-3.45-2.96-.34-4.44-.51-7.41-.84Z"/>
                        </g>
                        <g id="connectors_top">
                            <path id="p22-2" class="cls-7" d="M79.73,89.99c0-1.53,0-2.29,0-3.82,1.5-.19,2.26-.28,3.76-.47,2.15-.27,3.52,1.17,3.65,3.45-2.96,.34-4.44,.51-7.41,.84Z"/>
                            <path id="gnd-2" class="cls-7" d="M78.05,90.41c-2.2,.25-4.06,2.35-4.06,4.67s1.91,4.04,4.1,3.85c.53-.05,.67-.17,1.63-.46v.22c2.97-.26,4.45-.39,7.42-.66v-1.54c-.38-.39-.58-.58-.96-.96v-3.49c.38-.46,.58-.69,.96-1.16v-1.37c-2.97,.33-4.45,.5-7.42,.84v.19c-.97-.1-1.14-.19-1.68-.13Zm2.92,3.97c0,1.84-1.38,3.47-3.09,3.62s-3.09-1.19-3.09-3,1.38-3.43,3.09-3.62c1.71-.19,3.09,1.15,3.09,3Z"/>
                            <path id="p21-2" class="cls-7" d="M87.15,100.14c-2.97,.25-4.45,.37-7.42,.61v-1.74c2.97-.26,4.45-.39,7.42-.65v1.77Z"/>
                            <path id="p20-2" class="cls-7" d="M87.15,102.27c-2.97,.23-4.45,.34-7.42,.57v-1.74c2.97-.24,4.45-.36,7.42-.61v1.77Z"/>
                            <path id="p19-2" class="cls-7" d="M87.15,104.4c-2.97,.21-4.45,.31-7.42,.52v-1.74c2.97-.22,4.45-.34,7.42-.56v1.77Z"/>
                            <path id="p18-2" class="cls-7" d="M87.15,106.53c-2.97,.19-4.45,.29-7.42,.48v-1.74c2.97-.21,4.45-.31,7.42-.52v1.77Z"/>
                            <path id="_3v3-2" class="cls-7" d="M78.05,107.34c-2.2,.14-4.06,2.15-4.06,4.47s1.91,4.14,4.1,4.05c.53-.02,.67-.14,1.63-.38v.22c2.97-.12,4.45-.18,7.42-.29v-1.54c-.38-.41-.58-.61-.96-1.01v-3.49c.38-.44,.58-.66,.96-1.11,0-.55,0-.82,0-1.37-2.97,.19-4.45,.28-7.42,.47v.19c-.97-.14-1.14-.25-1.68-.21Zm2.92,4.11c0,1.84-1.38,3.4-3.09,3.47-1.71,.07-3.09-1.34-3.09-3.15s1.38-3.37,3.09-3.47c1.71-.1,3.09,1.31,3.09,3.15Z"/>
                            <path id="p17-2" class="cls-7" d="M87.15,115.76c-2.97,.11-4.45,.17-7.42,.28v1.74c2.97-.1,4.45-.15,7.42-.25v-1.77Z"/>
                            <path id="p16-2" class="cls-7" d="M87.15,117.89c-2.97,.1-4.45,.14-7.42,.24,0,.56,0,.83,0,1.39,2.97-.08,4.45-.13,7.42-.21v-1.42Z"/>
                            <path id="p15-2" class="cls-7" d="M87.15,119.66c-2.97,.08-4.45,.12-7.42,.2v1.39c2.97-.07,4.45-.1,7.42-.17,0-.57,0-.85,0-1.42Z"/>
                            <path id="p14-2" class="cls-7" d="M87.15,121.44c-2.97,.07-4.45,.1-7.42,.17v1.39c2.97-.05,4.45-.08,7.42-.14v-1.42Z"/>
                            <path id="p13-2" class="cls-7" d="M87.15,123.21c-2.97,.05-4.45,.08-7.42,.13v1.39c2.97-.04,4.45-.06,7.42-.1v-1.42Z"/>
                            <path id="p2-2" class="cls-7" d="M78.05,124.97c-2.2,.03-4.06,1.94-4.06,4.26s1.91,4.23,4.1,4.26c.53,0,.67-.1,1.63-.3v.22c2.97,.04,4.45,.05,7.42,.09v-1.54c-.38-.43-.58-.64-.96-1.06v-3.49c.38-.42,.58-.64,.96-1.06v-1.37c-2.97,.04-4.45,.05-7.42,.09v.19c-.97-.19-1.14-.31-1.68-.3Zm2.92,4.26c0,1.84-1.38,3.33-3.09,3.31-1.71-.02-3.09-1.5-3.09-3.31s1.38-3.29,3.09-3.31c1.71-.02,3.09,1.47,3.09,3.31Z"/>
                            <path id="p12-2" class="cls-7" d="M87.15,133.86c-2.97-.04-4.45-.06-7.42-.1v1.39c2.97,.05,4.45,.08,7.42,.13v-1.42Z"/>
                            <path id="p11-2" class="cls-7" d="M87.15,135.64c-2.97-.05-4.45-.08-7.42-.13v1.39c2.97,.07,4.45,.1,7.42,.16v-1.42Z"/>
                            <path id="p10-2" class="cls-7" d="M87.15,137.41c-2.97-.07-4.45-.1-7.42-.17v1.39c2.97,.08,4.45,.12,7.42,.2,0-.57,0-.85,0-1.42Z"/>
                            <path id="p9-2" class="cls-7" d="M87.15,139.19c-2.97-.08-4.45-.13-7.42-.21,0,.56,0,.83,0,1.39,2.97,.1,4.45,.14,7.42,.24v-1.42Z"/>
                            <path id="p8-2" class="cls-7" d="M87.15,140.96c-2.97-.1-4.45-.15-7.42-.25v1.74c2.97,.11,4.45,.17,7.42,.28v-1.77Z"/>
                            <path id="p1-2" class="cls-7" d="M78.05,142.6c-2.2-.09-4.06,1.73-4.06,4.05s1.91,4.33,4.1,4.47c.53,.03,.67-.07,1.63-.22v.22c2.97,.19,4.45,.28,7.42,.47,0-.62,0-.92,0-1.54-.38-.44-.58-.67-.96-1.11v-3.49c.38-.4,.58-.61,.96-1.01v-1.37c-2.97-.12-4.45-.17-7.42-.29v.19c-.97-.24-1.14-.36-1.68-.38Zm2.92,4.41c0,1.84-1.38,3.26-3.09,3.15-1.71-.1-3.09-1.66-3.09-3.47s1.38-3.22,3.09-3.15c1.71,.07,3.09,1.62,3.09,3.47Z"/>
                            <path id="p7-2" class="cls-7" d="M87.15,151.96c-2.97-.19-4.45-.29-7.42-.48v1.74c2.97,.21,4.45,.31,7.42,.51v-1.77Z"/>
                            <path id="p6-2" class="cls-7" d="M87.15,154.09c-2.97-.21-4.45-.31-7.42-.52v1.74c2.97,.22,4.45,.34,7.42,.56v-1.77Z"/>
                            <path id="p5-2" class="cls-7" d="M87.15,156.22c-2.97-.23-4.45-.34-7.42-.57v1.74c2.97,.24,4.45,.36,7.42,.6v-1.77Z"/>
                            <path id="p4-2" class="cls-7" d="M87.15,158.35c-2.97-.24-4.45-.37-7.42-.61v1.74c2.97,.26,4.45,.39,7.42,.65v-1.77Z"/>
                            <path id="p0-2" class="cls-7" d="M78.05,159.55c-2.2-.19-4.06,1.53-4.06,3.85s1.91,4.43,4.1,4.68c.53,.06,.67-.04,1.63-.13v.22c2.97,.33,4.45,.5,7.42,.84v-1.54c-.38-.46-.58-.69-.96-1.16v-3.49c.38-.38,.58-.58,.96-.96v-1.37c-2.97-.26-4.45-.39-7.42-.66v.19c-.97-.29-1.14-.42-1.68-.47Zm2.92,4.56c0,1.84-1.38,3.19-3.09,3-1.71-.19-3.09-1.81-3.09-3.62s1.38-3.15,3.09-3c1.71,.16,3.09,1.78,3.09,3.62Z"/>
                            <path id="p3-2" class="cls-7" d="M79.73,168.51c0,1.53,0,2.29,0,3.82,1.5,.19,2.26,.28,3.76,.47,2.15,.27,3.52-1.17,3.65-3.45-2.96-.34-4.44-.51-7.41-.84Z"/>
                        </g>
                        <g id="texts">
                            <g id="texts_black">
                                <g id="_0">
                                    <path class="cls-5" d="M84.85,164.5c0,.32-.1,.55-.3,.69-.2,.14-.46,.19-.8,.16-.33-.03-.6-.14-.8-.32-.2-.18-.3-.43-.3-.74s.1-.55,.3-.68c.2-.14,.46-.19,.8-.16,.33,.03,.6,.14,.8,.32,.2,.18,.3,.43,.3,.75Zm-1.61,.18c.13,.09,.3,.14,.51,.16,.21,.02,.38,0,.51-.06,.13-.06,.19-.17,.19-.32s-.06-.27-.19-.36c-.13-.09-.3-.14-.51-.16-.21-.02-.38,0-.51,.06-.13,.06-.19,.17-.19,.32s.06,.27,.19,.36Z"/>
                                </g>
                                <g id="_1">
                                    <path class="cls-5" d="M82.71,147.76v-.93c.85,.04,1.27,.06,2.12,.11v.5c-.69-.04-1.03-.05-1.72-.09v.44c-.16,0-.24-.01-.4-.02Z"/>
                                </g>
                                <g id="_2">
                                    <path class="cls-5" d="M83.53,129.54c-.08-.06-.15-.09-.22-.09-.07,0-.13,.03-.18,.08-.05,.05-.07,.12-.07,.19,0,.14,.1,.28,.29,.41-.09,.16-.13,.25-.22,.41-.15-.11-.27-.23-.35-.36-.08-.13-.12-.29-.12-.49s.06-.37,.17-.52c.12-.15,.27-.23,.47-.23,.11,0,.21,.03,.31,.09,.1,.06,.23,.17,.38,.34,.16,.17,.24,.25,.4,.42v-.91c.17,0,.25,0,.42,0v1.63c-.14,0-.21,0-.35,0-.25-.27-.38-.41-.64-.68-.13-.14-.23-.23-.3-.29Z"/>
                                </g>
                                <g id="_3v">
                                    <path class="cls-5" d="M83.11,113.36c-.16,0-.24,.01-.4,.02v-1.41c.13,0,.2,0,.33-.02,.2,.18,.3,.27,.49,.45,.03-.19,.1-.33,.21-.44,.11-.11,.25-.16,.4-.17,.22-.01,.4,.06,.52,.22,.13,.16,.19,.37,.19,.62s-.08,.52-.25,.79c-.15-.08-.23-.12-.38-.19,.14-.22,.21-.42,.21-.6,0-.1-.02-.19-.07-.25-.05-.07-.11-.1-.2-.09-.09,0-.16,.05-.21,.13-.05,.08-.08,.19-.08,.32,0,.07,.02,.17,.06,.3-.14,0-.21,0-.35,.02-.19-.17-.29-.25-.48-.42v.72Z"/>
                                    <path class="cls-5" d="M84.06,110.47c-.54-.21-.81-.31-1.35-.51,0-.22,0-.33,0-.56,.85,.32,1.27,.48,2.12,.81v.44c-.85,.42-1.27,.62-2.12,1.04v-.56c.54-.26,.81-.39,1.35-.66Z"/>
                                </g>
                                <g id="gnd-3">
                                    <path class="cls-5" d="M83.75,96.1v-.52c.3-.03,.45-.04,.75-.07,.23,.21,.35,.51,.35,.92,0,.34-.1,.64-.31,.88s-.47,.39-.78,.42c-.31,.03-.58-.06-.79-.28-.21-.21-.32-.49-.32-.82s.1-.63,.3-.89c.14,.09,.21,.14,.35,.23-.08,.11-.14,.21-.17,.3-.03,.09-.05,.19-.05,.29,0,.2,.06,.35,.18,.48,.12,.12,.28,.18,.48,.16,.2-.02,.36-.1,.48-.24,.12-.14,.18-.3,.18-.48s-.03-.32-.09-.44c-.23,.02-.35,.03-.58,.06Z"/>
                                    <path class="cls-5" d="M82.71,93.61v-.51c.85-.09,1.27-.13,2.12-.22v.52c-.53,.5-.8,.74-1.33,1.23,.53-.05,.8-.08,1.33-.13v.52c-.85,.08-1.27,.12-2.12,.21v-.48c.55-.51,.82-.76,1.36-1.27-.55,.06-.82,.08-1.36,.14Z"/>
                                    <path class="cls-5" d="M82.98,90.74c.18-.24,.44-.38,.77-.42,.33-.04,.59,.04,.78,.24,.19,.19,.29,.51,.29,.95,0,.32,0,.47,0,.79-.85,.09-1.27,.13-2.12,.22v-.81c0-.41,.09-.74,.28-.98Zm1.26,.24c-.11-.11-.27-.16-.48-.14s-.37,.1-.48,.24c-.11,.14-.17,.34-.17,.6v.29c.52-.06,.77-.08,1.29-.14,0-.13,0-.2,0-.33,0-.24-.05-.41-.16-.53Z"/>
                                </g>
                            </g>
                            <g id="texts_green">
                                <path class="cls-11" d="M67.12,161.4c-.18,.06-.27,.1-.46,.16v.92c.18,.1,.27,.15,.46,.25v.52c-.85-.47-1.27-.7-2.12-1.16v-.47c.85-.29,1.27-.44,2.12-.74v.52Zm-1.49,.52c.25,.13,.37,.2,.62,.34v-.55c-.25,.09-.37,.13-.62,.21Z"/>
                                <path class="cls-11" d="M46.65,98.92v.9c-.85,.08-1.27,.12-2.12,.2v-.8c0-.14,.02-.26,.05-.36,.03-.1,.08-.18,.14-.24,.11-.1,.23-.16,.37-.17,.17-.02,.29,.02,.37,.12,.03,.03,.05,.06,.05,.07,0,.01,.02,.04,.04,.07,.03-.13,.09-.24,.18-.32,.09-.08,.2-.13,.33-.15,.15-.01,.28,.02,.39,.11,.13,.1,.2,.29,.2,.58Zm-1.26,.56v-.22c0-.13-.01-.22-.04-.28-.03-.06-.09-.08-.18-.07-.09,0-.16,.04-.19,.1-.03,.06-.05,.16-.05,.29v.22c.18-.02,.27-.03,.46-.04Zm.86-.08v-.32c0-.13-.02-.23-.05-.29-.03-.06-.1-.09-.2-.08-.1,0-.16,.05-.19,.12-.03,.07-.05,.19-.05,.34v.27c.2-.02,.29-.03,.49-.05Z"/>
                            </g>
                        </g>
                        <g id="a_button">
                            <path id="rectangle" class="cls-5" d="M50.53,164.66c0-3.38,0-5.07,0-8.45,0-.52,.44-.92,.97-.87,3.23,.27,4.85,.4,8.08,.66,.53,.04,.97,.52,.97,1.06,0,3.49,0,5.23,0,8.72,0,.54-.44,.93-.97,.87-3.23-.37-4.85-.56-8.08-.93-.53-.06-.97-.54-.97-1.07Z"/>
                            <path id="ellipse_under" class="cls-8" d="M55.54,158.13c1.54,.14,2.79,1.51,2.79,3.06s-1.25,2.68-2.79,2.51-2.79-1.54-2.79-3.06,1.25-2.65,2.79-2.51Z"/>
                            <path id="ellipse_top" class="cls-7" d="M54.92,158.08c1.54,.14,2.79,1.51,2.79,3.06s-1.25,2.67-2.79,2.51c-1.54-.17-2.79-1.53-2.79-3.06s1.25-2.65,2.79-2.51Z"/>
                            <g id="ellipse_arround">
                                <path class="cls-11" d="M52.04,163.34c.51,.06,.93,.51,.93,1.02s-.42,.88-.93,.82c-.51-.06-.93-.52-.93-1.02s.42-.87,.93-.82Z"/>
                                <path class="cls-11" d="M52.04,156c.51,.04,.93,.49,.93,1s-.42,.89-.93,.84c-.51-.05-.93-.5-.93-1,0-.51,.42-.88,.93-.84Z"/>
                                <path class="cls-11" d="M58.94,156.58c.51,.04,.93,.5,.93,1.02s-.42,.91-.93,.86c-.51-.05-.93-.5-.93-1.02s.42-.9,.93-.86Z"/>
                                <path class="cls-11" d="M58.94,164.08c.51,.06,.93,.52,.93,1.04s-.42,.9-.93,.84c-.51-.06-.93-.53-.93-1.04s.42-.89,.93-.84Z"/>
                            </g>
                        </g>
                        <g id="b-button">
                            <path id="rectangle-2" class="cls-5" d="M50.53,102.58c0-3.38,0-5.07,0-8.45,0-.52,.44-1,.97-1.06,3.23-.37,4.85-.55,8.08-.92,.53-.06,.97,.33,.97,.87,0,3.49,0,5.23,0,8.72,0,.54-.44,1.02-.97,1.06-3.23,.26-4.85,.4-8.08,.66-.53,.04-.97-.35-.97-.88Z"/>
                            <path id="ellipse_under-2" class="cls-8" d="M55.54,95.07c1.54-.16,2.79,.96,2.79,2.52s-1.25,2.92-2.79,3.06c-1.54,.14-2.79-.99-2.79-2.52s1.25-2.9,2.79-3.06Z"/>
                            <path id="ellipse_top-2" class="cls-7" d="M54.92,95.14c1.54-.16,2.79,.96,2.79,2.51s-1.25,2.92-2.79,3.06c-1.54,.14-2.79-.99-2.79-2.51s1.25-2.89,2.79-3.06Z"/>
                            <g id="ellipse_arround-2">
                                <path class="cls-11" d="M52.04,100.96c.51-.05,.93,.33,.93,.84s-.42,.96-.93,1c-.51,.04-.93-.33-.93-.84s.42-.96,.93-1Z"/>
                                <path class="cls-11" d="M52.04,93.63c.51-.06,.93,.31,.93,.82s-.42,.97-.93,1.02c-.51,.05-.93-.31-.93-.82s.42-.97,.93-1.02Z"/>
                                <path class="cls-11" d="M58.94,92.85c.51-.06,.93,.32,.93,.84s-.42,.99-.93,1.04c-.51,.05-.93-.32-.93-.84,0-.52,.42-.99,.93-1.04Z"/>
                                <path class="cls-11" d="M58.94,100.35c.51-.05,.93,.34,.93,.86s-.42,.98-.93,1.02c-.51,.04-.93-.34-.93-.86s.42-.98,.93-1.02Z"/>
                            </g>
                        </g>
                        <g id="leds_off">
                            <path id="_5_5" class="cls-5" d="M72.26,113.6c0,.71,0,1.07,0,1.78-1.62,.07-2.43,.1-4.05,.17v-1.76c1.62-.08,2.43-.11,4.05-.19Z"/>
                            <path id="_5_4" class="cls-5" d="M65.14,113.93v1.74c-1.62,.07-2.43,.1-4.05,.17,0-.69,0-1.03,0-1.72,1.62-.08,2.43-.11,4.05-.19Z"/>
                            <path id="_5_3" class="cls-5" d="M58.02,114.26v1.7c-1.62,.07-2.43,.1-4.05,.17v-1.68c1.62-.08,2.43-.11,4.05-.19Z"/>
                            <path id="_5_2" class="cls-5" d="M50.9,114.59v1.66c-1.62,.07-2.43,.1-4.05,.17,0-.66,0-.99,0-1.64,1.62-.08,2.43-.11,4.05-.19Z"/>
                            <path id="_5_1" class="cls-5" d="M43.79,114.92c0,.65,0,.98,0,1.63-1.62,.07-2.43,.1-4.05,.17,0-.64,0-.96,0-1.61,1.62-.08,2.43-.11,4.05-.19Z"/>
                            <path id="_4_5" class="cls-5" d="M72.26,121.06v1.78c-1.62,.03-2.43,.05-4.05,.08v-1.76c1.62-.04,2.43-.06,4.05-.1Z"/>
                            <path id="_4_4" class="cls-5" d="M65.14,121.24v1.74c-1.62,.03-2.43,.05-4.05,.08v-1.72c1.62-.04,2.43-.06,4.05-.1Z"/>
                            <path id="_4_3" class="cls-5" d="M58.02,121.41v1.7c-1.62,.03-2.43,.05-4.05,.08v-1.68c1.62-.04,2.43-.06,4.05-.1Z"/>
                            <path id="_4_2" class="cls-5" d="M50.9,121.58v1.66c-1.62,.03-2.43,.05-4.05,.08v-1.64c1.62-.04,2.43-.06,4.05-.1Z"/>
                            <path id="_4_1" class="cls-5" d="M43.79,121.76c0,.65,0,.98,0,1.63-1.62,.03-2.43,.05-4.05,.08v-1.61c1.62-.04,2.43-.06,4.05-.1Z"/>
                            <path id="_3_5" class="cls-5" d="M72.26,128.52v1.78c-1.62,0-2.43,0-4.05-.01v-1.76c1.62,0,2.43,0,4.05,0Z"/>
                            <path id="_3_4" class="cls-5" d="M65.14,128.54v1.74c-1.62,0-2.43,0-4.05-.01v-1.72c1.62,0,2.43,0,4.05,0Z"/>
                            <path id="_3_3" class="cls-5" d="M58.02,128.55v1.7c-1.62,0-2.43,0-4.05-.01v-1.68c1.62,0,2.43,0,4.05,0Z"/>
                            <path id="_3_2" class="cls-5" d="M50.9,128.57v1.66c-1.62,0-2.43,0-4.05-.01v-1.64c1.62,0,2.43,0,4.05,0Z"/>
                            <path id="_3_1" class="cls-5" d="M43.78,128.59v1.63c-1.62,0-2.43,0-4.05-.01v-1.61c1.62,0,2.43,0,4.05,0Z"/>
                            <path id="_2_5" class="cls-5" d="M72.26,135.98v1.78c-1.62-.04-2.43-.06-4.05-.1v-1.76c1.62,.03,2.43,.05,4.05,.08Z"/>
                            <path id="_2_4" class="cls-5" d="M65.14,135.84v1.74c-1.62-.04-2.43-.06-4.05-.1v-1.72c1.62,.03,2.43,.05,4.05,.08Z"/>
                            <path id="_2_3" class="cls-5" d="M58.02,135.7c0,.68,0,1.02,0,1.7-1.62-.04-2.43-.06-4.05-.1v-1.68c1.62,.03,2.43,.05,4.05,.08Z"/>
                            <path id="_2_2" class="cls-5" d="M50.9,135.56v1.66c-1.62-.04-2.43-.06-4.05-.1v-1.64c1.62,.03,2.43,.05,4.05,.08Z"/>
                            <path id="_2_1" class="cls-5" d="M43.79,135.42v1.63c-1.62-.04-2.43-.06-4.05-.1v-1.61c1.62,.03,2.43,.05,4.05,.08Z"/>
                            <path id="_1_5" class="cls-5" d="M72.26,143.44v1.78c-1.62-.08-2.43-.11-4.05-.19v-1.76c1.62,.07,2.43,.1,4.05,.17Z"/>
                            <path id="_1_4" class="cls-5" d="M65.14,143.14v1.74c-1.62-.08-2.43-.11-4.05-.19,0-.69,0-1.03,0-1.72,1.62,.07,2.43,.1,4.05,.17Z"/>
                            <path id="_1_3" class="cls-5" d="M58.02,142.85v1.7c-1.62-.08-2.43-.11-4.05-.19v-1.68c1.62,.07,2.43,.1,4.05,.17Z"/>
                            <path id="_1_2" class="cls-5" d="M50.9,142.55v1.67c-1.62-.08-2.43-.11-4.05-.19,0-.66,0-.99,0-1.64,1.62,.07,2.43,.1,4.05,.17Z"/>
                            <path id="_1_1" class="cls-5" d="M43.79,142.25c0,.65,0,.98,0,1.63-1.62-.08-2.43-.11-4.05-.19,0-.64,0-.96,0-1.61,1.62,.07,2.43,.1,4.05,.17Z"/>
                        </g>
                        <g id="microbit_logo">
                            <path class="cls-11" d="M34.34,132.04c0,.41-.36,.75-.8,.74-.44,0-.8-.34-.8-.76s.36-.74,.8-.74c.44,0,.8,.34,.8,.76Zm-1.44-.01c0,.33,.28,.59,.63,.6,.35,0,.63-.26,.63-.59s-.28-.6-.63-.6c-.35,0-.63,.26-.63,.59Z"/>
                            <path class="cls-11" d="M34.25,126.8c0,.41-.36,.75-.8,.76-.44,0-.8-.33-.8-.74s.36-.75,.8-.76c.44,0,.8,.33,.8,.74Zm-1.44,.01c0,.33,.28,.59,.63,.59,.35,0,.63-.27,.63-.6s-.28-.59-.63-.59c-.35,0-.63,.27-.63,.6Z"/>
                            <path class="cls-11" d="M37.16,127.22v4.6c0,2.09-1.66,3.76-3.71,3.71s-3.71-1.74-3.71-3.78v-4.49c0-2.04,1.66-3.73,3.71-3.77s3.71,1.63,3.71,3.72Zm-6.1,4.55c0,1.32,1.07,2.41,2.39,2.43,1.32,.02,2.38-1.05,2.38-2.39v-4.58c0-1.34-1.07-2.41-2.38-2.39s-2.39,1.11-2.39,2.42v4.51Z"/>
                        </g>
                    </g>
                </g>
            </g>
            <g id="head">
                <g id="face">
                    <g id="face_tickness">
                        <path class="cls-4" d="M123.37,0s-1.7,.29-4.73,0c-5.07-.47-11.82,19.95-11.82,132.24s6.42,132.19,11.63,133.22c3.57,.7,6.07-.19,6.07-.19,0,0,4.59-9.04,4.59-131.96S123.37,0,123.37,0Z"/>
                    </g>
                    <path id="face-2" class="cls-6" d="M128.87,8.1s-17.29-55.51-17.29,124.16,18.2,124.16,18.2,124.16c0,0,4.08-.17,4.08-123.09s-4.99-125.22-4.99-125.22Z"/>
                </g>
                <g id="nose">
                    <g id="nose-2">
                        <path class="cls-10" d="M137.89,140.45h-4.03v-18.7h4.03c.5,0,.92,.37,.99,.86,.27,1.95,.88,6.66,.88,8.49s-.62,6.54-.88,8.49c-.07,.5-.49,.86-.99,.86Z"/>
                    </g>
                </g>
                <g id="ears">
                    <g id="ear_right">
                        <g id="hold-6">
                            <path class="cls-10" d="M118.54,206.75l8.15-4.6c.31-.18,.51-.51,.51-.87v-1.68c0-.77-.82-1.25-1.49-.87l-8.15,4.6c-.31,.18-.51,.51-.51,.87v1.68c0,.77,.82,1.25,1.49,.87Z"/>
                        </g>
                        <path id="fixation_tickness" class="cls-9" d="M116.7,206.88s7.99,1.97,14.86,.02c2.75-.78,2.51-.98,2.48-1.65v-3.09s-17.34,1.61-17.34,1.61v3.11Z"/>
                        <path id="fixation-5" class="cls-3" d="M116.7,203.78s7.45,2.02,14.32,.06c9.89-2.82-7.69-3.77-7.69-3.77l-6.63,3.71Z"/>
                    </g>
                    <g id="ear_left">
                        <g id="hold-7">
                            <path class="cls-10" d="M119.18,52.17l8.15,4.6c.31,.18,.51,.51,.51,.87v1.68c0,.77-.82,1.25-1.49,.87l-8.15-4.6c-.31-.18-.51-.51-.51-.87v-1.68c0-.77,.82-1.25,1.49-.87Z"/>
                        </g>
                        <path id="fixation_tickness-2" class="cls-9" d="M117.34,52.04s7.99-1.97,14.86-.02c2.75,.78,2.51,.98,2.48,1.65v3.09s-17.34-1.61-17.34-1.61v-3.11Z"/>
                        <path id="fixation-6" class="cls-3" d="M117.34,55.15s7.45-2.02,14.32-.06c9.89,2.82-7.69,3.77-7.69,3.77l-6.63-3.71Z"/>
                    </g>
                </g>
                <g id="eyes">
                    <ellipse id="eye_right" class="cls-1" cx="131.18" cy="168.68" rx="3.99" ry="11.82"/>
                    <ellipse id="eye_left" class="cls-1" cx="131.18" cy="90.04" rx="3.99" ry="11.82"/>
                </g>
            </g>
        </g>
    </g>
</svg>