<?xml version="1.0" encoding="UTF-8"?><svg id="Calque_2" xmlns="http://www.w3.org/2000/svg" xmlns:xlink="http://www.w3.org/1999/xlink" viewBox="0 0 16.91 17.47"><defs><style>.cls-1{fill:url(#Dégradé_sans_nom_28);}</style><radialGradient id="Dégradé_sans_nom_28" cx="8.46" cy="8.74" fx="8.46" fy="8.74" r="8.6" gradientTransform="translate(17.19 .28) rotate(90)" gradientUnits="userSpaceOnUse"><stop offset="0" stop-color="#1d1d1b"/><stop offset=".46" stop-color="#30302e" stop-opacity=".91"/><stop offset=".73" stop-color="#717170" stop-opacity=".62"/><stop offset=".95" stop-color="#e0e0e0" stop-opacity=".13"/><stop offset="1" stop-color="#fff" stop-opacity="0"/></radialGradient></defs><g id="Calque_1-2"><path class="cls-1" d="m2.18,16.38c0-.49-.34-.9-.79-1.03l2.02-3.75s.03,0,.04,0c.1,0,.46.12.54.13s1.99-.03,2.02.14c0,.08,0,.15,0,.22l-3.95,3.76.16.4,4.71-4.49,3.17.03,4.63,4.41.02-.04c-.02.07-.04.14-.04.22,0,.6.49,1.09,1.09,1.09s1.09-.49,1.09-1.09c0-.51-.36-.92-.84-1.04l-1.93-3.58h.24s.41-.42.41-.42l.37-.33h-.04c.12-.18.31-.71.39-1.42h0s.1-.1.1-.1c.09-.09.14-.2.14-.32v-.88c0-.12-.06-.23-.14-.32l-.1-.1-.02-.08c-.08-.79-.23-1.31-.39-1.4,0,0,0,0-.01,0l-.29-.26-.41-.41h-.23s1.92-3.58,1.92-3.58c.5-.1.88-.52.88-1.05,0-.6-.49-1.09-1.09-1.09s-1.09.49-1.09,1.09c0,.08.03.16.05.23l-.04-.09-4.67,4.44-3.24.03L2.2,1.29l-.04.11c.03-.1.06-.19.06-.3,0-.6-.49-1.09-1.09-1.09S.04.49.04,1.09c0,.54.41.98.93,1.06h-.08s2.16,4,2.16,4c-.01.26-.05.6-.05.6v3.98s.05.44.05.7l-2.1,3.89c-.53.07-.95.51-.95,1.06,0,.6.49,1.09,1.09,1.09s1.09-.49,1.09-1.09Zm14.41,0c0,.44-.36.81-.81.81s-.81-.36-.81-.81.36-.81.81-.81.81.36.81.81Zm-1.02-1.05c-.29.06-.54.23-.69.48h0s-3.96-3.78-3.96-3.78l.17.06,2.38-.07.22-.18,1.88,3.49Zm.25-15.05c.44,0,.81.36.81.81s-.36.81-.81.81-.81-.36-.81-.81.36-.81.81-.81Zm-4.92,5.16l4-3.81c.15.25.38.42.67.49l-1.88,3.49-.22-.18-2.38-.07-.2.07ZM.32,1.09c0-.44.36-.81.81-.81s.81.36.81.81-.36.81-.81.81-.81-.36-.81-.81Zm3.02,4.76l-2-3.7h-.07c.34-.05.63-.25.79-.55l-.04.09,3.98,3.79s0,.08,0,.12c-.02.18-1.94.14-2.02.14-.08,0-.44.12-.54.13-.02,0-.06,0-.11-.01ZM.28,16.38c0-.44.36-.81.81-.81s.81.36.81.81-.36.81-.81.81-.81-.36-.81-.81Z"/></g></svg>