<?xml version="1.0" encoding="UTF-8"?><svg id="Calque_2" xmlns="http://www.w3.org/2000/svg" xmlns:xlink="http://www.w3.org/1999/xlink" viewBox="0 0 902.74 820.4"><defs><style>.cls-1,.cls-2{fill:none;}.cls-3{fill:#dbddda;}.cls-4{fill:#fcee21;}.cls-5{fill:#e7e5d5;}.cls-6{fill:#ccc;}.cls-7{fill:#a6a6a6;}.cls-8{clip-path:url(#clippath-1);}.cls-9{fill:#ffc152;}.cls-10,.cls-11{fill:#fff;}.cls-12{letter-spacing:0em;}.cls-2{stroke:#f8f8f8;stroke-linecap:round;stroke-linejoin:round;stroke-width:2.83px;}.cls-11{font-family:Montserrat-Regular, Montserrat;font-size:23.09px;}.cls-13{letter-spacing:-.02em;}.cls-14{letter-spacing:-.01em;}.cls-15{letter-spacing:-.04em;}.cls-16{letter-spacing:-.03em;}.cls-17{letter-spacing:-.01em;}.cls-18{letter-spacing:-.01em;}.cls-19{letter-spacing:-.01em;}.cls-20{letter-spacing:0em;}.cls-21{letter-spacing:0em;}.cls-22{clip-path:url(#clippath);}.cls-23{fill:#1b1b1b;}.cls-24{fill:#999;}</style><clipPath id="clippath"><rect class="cls-1" x="79.36" y="157.54" width="750.77" height="34"/></clipPath><clipPath id="clippath-1"><rect class="cls-1" x="77.86" y="624.03" width="750.77" height="34"/></clipPath></defs><g id="Calque_1-2"><g id="shield-grove-nano"><path d="M0,0v820.4h902.74V0H0ZM26.44,658.81c-9.82,0-17.77-7.96-17.77-17.77s7.96-17.77,17.77-17.77,17.77,7.96,17.77,17.77-7.96,17.77-17.77,17.77ZM26.44,196.18c-9.82,0-17.77-7.96-17.77-17.77s7.96-17.77,17.77-17.77,17.77,7.96,17.77,17.77-7.96,17.77-17.77,17.77ZM879.99,658.81c-9.82,0-17.77-7.96-17.77-17.77s7.96-17.77,17.77-17.77,17.77,7.96,17.77,17.77-7.96,17.77-17.77,17.77ZM879.99,196.18c-9.82,0-17.77-7.96-17.77-17.77s7.96-17.77,17.77-17.77,17.77,7.96,17.77,17.77-7.96,17.77-17.77,17.77Z"/><g id="outlines"><text class="cls-11" transform="translate(277.48 442.06) scale(1.02 1)"><tspan x="0" y="0">G</tspan><tspan class="cls-19" x="17.48" y="0">r</tspan><tspan class="cls-20" x="26.42" y="0">o</tspan><tspan x="41.27" y="0">ve Shield </tspan><tspan class="cls-14" x="153.31" y="0">f</tspan><tspan x="161.93" y="0">or Arduino Nano</tspan><tspan x="0" y="55.42">by Seeed </tspan><tspan class="cls-18" x="114.31" y="55.42">S</tspan><tspan x="128.58" y="55.42">tudio</tspan><tspan x="0" y="83.13">ww</tspan><tspan class="cls-16" x="42.12" y="83.13">w</tspan><tspan class="cls-12" x="62.51" y="83.13">.seedstudio.</tspan><tspan class="cls-17" x="204.35" y="83.13">c</tspan><tspan x="217.4" y="83.13">om</tspan></text><text class="cls-11" transform="translate(99.09 810.3) scale(1.02 1)"><tspan class="cls-21" x="0" y="0">A</tspan><tspan x="16.9" y="0">0</tspan></text><text class="cls-11" transform="translate(73.78 612.91) scale(1.02 1)"><tspan x="0" y="0">D13</tspan></text><text class="cls-11" transform="translate(123.62 612.91) scale(1.02 1)"><tspan x="0" y="0">3V3</tspan></text><text class="cls-11" transform="translate(173.29 612.91) scale(1.02 1)"><tspan x="0" y="0">REF</tspan></text><text class="cls-11" transform="translate(231.2 612.91) scale(1.02 1)"><tspan class="cls-21" x="0" y="0">A</tspan><tspan x="16.9" y="0">0</tspan></text><text class="cls-11" transform="translate(286.16 612.91) scale(1.02 1)"><tspan class="cls-13" x="0" y="0">A</tspan><tspan x="16.65" y="0">1</tspan></text><text class="cls-11" transform="translate(334.66 612.91) scale(1.02 1)"><tspan x="0" y="0">A2</tspan></text><text class="cls-11" transform="translate(386 612.91) scale(1.02 1)"><tspan x="0" y="0">A3</tspan></text><text class="cls-11" transform="translate(437.28 612.91) scale(1.02 1)"><tspan x="0" y="0">A4</tspan></text><text class="cls-11" transform="translate(488.4 612.91) scale(1.02 1)"><tspan x="0" y="0">A5</tspan></text><text class="cls-11" transform="translate(539.24 612.91) scale(1.02 1)"><tspan class="cls-21" x="0" y="0">A</tspan><tspan x="16.9" y="0">6</tspan></text><text class="cls-11" transform="translate(590.97 612.91) scale(1.02 1)"><tspan x="0" y="0">A7</tspan></text><text class="cls-11" transform="translate(642.51 612.91) scale(1.02 1)"><tspan x="0" y="0">5V</tspan></text><text class="cls-11" transform="translate(685.05 612.91) scale(1.02 1)"><tspan x="0" y="0">RES</tspan></text><text class="cls-11" transform="translate(731.96 612.91) scale(1.02 1)"><tspan x="0" y="0">GND</tspan></text><text class="cls-11" transform="translate(789.4 612.91) scale(1.02 1)"><tspan x="0" y="0">VIN</tspan></text><text class="cls-11" transform="translate(73.65 220.85) scale(1.02 1)"><tspan x="0" y="0">D12</tspan></text><text class="cls-11" transform="translate(127.32 220.85) scale(1.02 1)"><tspan x="0" y="0">D11</tspan></text><text class="cls-11" transform="translate(174.89 220.85) scale(1.02 1)"><tspan x="0" y="0">D10</tspan></text><text class="cls-11" transform="translate(231.42 220.85) scale(1.02 1)"><tspan x="0" y="0">D9</tspan></text><text class="cls-11" transform="translate(282.43 220.85) scale(1.02 1)"><tspan x="0" y="0">D8</tspan></text><text class="cls-11" transform="translate(334.46 220.85) scale(1.02 1)"><tspan x="0" y="0">D7</tspan></text><text class="cls-11" transform="translate(385.03 220.85) scale(1.02 1)"><tspan x="0" y="0">D6</tspan></text><text class="cls-11" transform="translate(436.72 220.85) scale(1.02 1)"><tspan x="0" y="0">D5</tspan></text><text class="cls-11" transform="translate(488.01 220.85) scale(1.02 1)"><tspan x="0" y="0">D4</tspan></text><text class="cls-11" transform="translate(539.14 220.85) scale(1.02 1)"><tspan x="0" y="0">D3</tspan></text><text class="cls-11" transform="translate(588.22 220.85) scale(1.02 1)"><tspan x="0" y="0">D2</tspan></text><text class="cls-11" transform="translate(627.54 220.85) scale(1.02 1)"><tspan x="0" y="0">GND</tspan></text><text class="cls-11" transform="translate(688.64 220.85) scale(1.02 1)"><tspan x="0" y="0">RST</tspan></text><text class="cls-11" transform="translate(743.48 220.85) scale(1.02 1)"><tspan x="0" y="0">RX</tspan></text><text class="cls-11" transform="translate(796.16 220.85) scale(1.02 1)"><tspan x="0" y="0">TX</tspan></text><text class="cls-11" transform="translate(323.31 810.48) scale(1.02 1)"><tspan x="0" y="0">A2</tspan></text><text class="cls-11" transform="translate(544.23 810.48) scale(1.02 1)"><tspan class="cls-21" x="0" y="0">A</tspan><tspan x="16.9" y="0">6</tspan></text><text class="cls-11" transform="translate(763.73 810.48) scale(1.02 1)"><tspan x="0" y="0">I2C</tspan></text><text class="cls-11" transform="translate(99.67 26.4) scale(1.02 1)"><tspan x="0" y="0">D2</tspan></text><text class="cls-11" transform="translate(323.04 26.59) scale(1.02 1)"><tspan x="0" y="0">D4</tspan></text><text class="cls-11" transform="translate(543.64 26.59) scale(1.02 1)"><tspan x="0" y="0">D6</tspan></text><text class="cls-11" transform="translate(754.2 26.59) scale(1.02 1)"><tspan class="cls-15" x="0" y="0">V</tspan><tspan x="15.24" y="0">ARI</tspan></text><g id="usb"><path class="cls-10" d="M76.51,383.02c-1.42.89-2.13,2.1-2.13,3.63s.71,2.74,2.13,3.63c1.42.89,3.35,1.34,5.79,1.34h14.74v3.29h-14.93c-3.83,0-6.79-.77-8.86-2.32-2.07-1.55-3.1-3.53-3.1-5.95s1.03-4.4,3.1-5.95c2.07-1.55,5.02-2.32,8.86-2.32h14.93v3.29h-14.74c-2.44,0-4.37.45-5.79,1.34Z"/><path class="cls-10" d="M93.53,409.46c0-1-.27-1.82-.8-2.46-.53-.64-1.34-.96-2.42-.96s-1.9.32-2.48.96c-.57.64-1.19,2-1.85,4.08-.66,2.08-1.59,3.65-2.78,4.71-1.19,1.06-2.95,1.58-5.28,1.58s-4.21-.67-5.66-2-2.17-3.09-2.17-5.26c0-3.18,1.43-6,4.3-8.46l3.39,2.15c-2.34,2.05-3.5,4.19-3.5,6.39,0,1.1.31,1.98.93,2.63s1.45.97,2.48.97,1.83-.31,2.4-.92c.57-.61,1.09-1.66,1.56-3.15.47-1.49.9-2.63,1.29-3.4.39-.77.91-1.46,1.54-2.06,1.19-1.2,3.02-1.8,5.48-1.8s4.36.68,5.69,2.05,2,3.06,2,5.07c0,1.3-.28,2.59-.84,3.86s-1.35,2.38-2.36,3.31l-3.39-1.83c.71-.6,1.29-1.41,1.75-2.44.46-1.03.69-2.04.69-3.04Z"/><path class="cls-10" d="M70.41,434.2v-9.34h26.62v8.3c0,1.44-.22,2.69-.65,3.74-.43,1.05-1.02,1.83-1.75,2.33-1.37.98-2.92,1.46-4.65,1.46-2.08,0-3.63-.53-4.65-1.59-.36-.39-.58-.65-.67-.79s-.24-.4-.44-.76c-.36,1.32-1.1,2.37-2.23,3.16-1.13.78-2.53,1.17-4.21,1.17-1.85,0-3.49-.51-4.91-1.53-1.65-1.2-2.48-3.25-2.48-6.16ZM74.56,428.47v5.64c0,1.32.26,2.33.78,3.03s1.5,1.05,2.95,1.05c2.36,0,3.54-1.52,3.54-4.55v-5.19h-7.28ZM85.99,428.47v4.58c0,2.6,1.1,3.91,3.31,3.91,1.27,0,2.18-.32,2.74-.95s.84-1.61.84-2.93v-4.61h-6.89Z"/></g><polyline class="cls-2" points="19.76 319.33 19.76 228.92 871.23 228.92 871.23 587.91 19.76 587.91 19.76 498.47"/><rect class="cls-2" x="11.46" y="319.33" width="134.91" height="179.14"/><g id="logos"><path class="cls-3" d="M389.33,357.85c.35.07.64.41.64.77v14.88c0,.36-.29.71-.64.77l-14.1,2.62c-.35.06-.73.4-.84.74l-4.4,11c-.16.32-.12.83.08,1.12l8.01,11.67c.2.3.16.75-.09,1l-10.52,10.52c-.25.25-.7.29-1,.09l-11.47-7.87c-.29-.2-.79-.22-1.1-.04l-5.06,2.7c-.32.16-.69.03-.83-.31l-10.43-25.2c-.14-.33,0-.75.31-.94l1.27-.78c.23-.14.55-.39.8-.61,4.57-2.92,7.59-8.04,7.59-13.86,0-9.09-7.37-16.46-16.45-16.46s-16.45,7.37-16.45,16.46c0,5.83,3.03,10.94,7.59,13.86.25.23.57.47.8.61l1.27.78c.31.19.44.61.31.94l-10.43,25.2c-.14.33-.51.47-.83.31l-5.06-2.7c-.31-.18-.8-.17-1.1.04l-11.47,7.87c-.3.2-.75.16-1-.09l-10.52-10.52c-.25-.25-.29-.7-.09-1l8.01-11.68c.2-.29.24-.8.08-1.12l-4.4-11c-.11-.34-.48-.68-.84-.74l-14.1-2.62c-.35-.06-.64-.41-.64-.77v-14.88c0-.36.29-.71.64-.77l14.46-2.69c.35-.07.74-.4.85-.74l4.43-10.34c.17-.32.13-.82-.07-1.12l-8.42-12.28c-.2-.29-.16-.74.09-1l10.52-10.52c.25-.25.7-.29,1-.09l12.49,8.57c.29.2.8.24,1.12.08l10.02-4.1c.34-.11.67-.49.74-.85l2.78-14.96c.06-.35.41-.64.77-.64h14.88c.36,0,.71.29.77.64l2.78,14.96c.07.35.4.73.74.85l10.02,4.1c.32.16.83.12,1.12-.08l12.49-8.57c.29-.2.74-.16,1,.09l10.52,10.52c.25.25.29.7.09,1l-8.42,12.28c-.2.3-.24.8-.07,1.12l4.43,10.34c.12.34.5.67.86.74l14.46,2.69"/><path class="cls-3" d="M615.53,305.53c-8.53,20.41-11.6,43.04-6.05,64.6,1.67,7.31,3.9,14.71,6.05,22.83-1.8-1.13-3.44-2.47-4.97-3.89-10.96-10.26-18.01-24.84-18.11-40.05.12-16.82,7.51-35.48,23.08-43.5h0Z"/><path class="cls-3" d="M567.46,329.21c3.41,21.86,12.64,42.75,28.66,58.22,5.25,5.35,11.03,10.49,17.11,16.29-2.13-.02-4.22-.3-6.27-.71-14.71-3.01-28.35-11.74-36.39-24.65-8.7-14.39-12.17-34.17-3.1-49.14h0Z"/><path class="cls-3" d="M631.81,305.14c15.57,8.02,22.96,26.68,23.08,43.5-.05,13.12-5.38,25.7-13.75,35.54-2.77,3.16-5.75,6.13-9.33,8.41,3.95-15.16,8.69-28.64,8.91-43.9-.03-14.86-3.04-29.74-8.91-43.54h0Z"/><path class="cls-3" d="M679.88,328.81c9.07,14.98,5.6,34.75-3.1,49.14-9.08,14.47-25.67,24.4-42.66,25.36,6.08-5.8,11.85-10.94,17.11-16.29,16.02-15.47,25.25-36.36,28.66-58.22h0Z"/></g></g><polygon class="cls-6" points="59.29 39.91 59.29 26.4 13.86 26.4 13.86 124.66 117.35 124.66 220.83 124.66 220.83 26.4 175.4 26.4 175.4 39.91 117.35 39.91 59.29 39.91"/><path class="cls-5" d="M21.22,33.75h30.73v13.51h130.81v-13.51h30.73v83.55H21.22V33.75M13.86,26.4v98.25h206.97V26.4h-45.43v13.51H59.29v-13.51H13.86Z"/><rect class="cls-7" x="40.91" y="71.79" width="23.8" height="23.8" transform="translate(-30.88 136.5) rotate(-90)"/><rect class="cls-7" x="83.94" y="71.79" width="23.8" height="23.8" transform="translate(12.15 179.53) rotate(-90)"/><rect class="cls-7" x="126.96" y="71.79" width="23.8" height="23.8" transform="translate(55.17 222.55) rotate(-90)"/><rect class="cls-7" x="169.98" y="71.79" width="23.8" height="23.8" transform="translate(98.2 265.57) rotate(-90)"/><polygon class="cls-6" points="281.46 39.91 281.46 26.4 236.03 26.4 236.03 124.66 339.52 124.66 443 124.66 443 26.4 397.57 26.4 397.57 39.91 339.52 39.91 281.46 39.91"/><path class="cls-5" d="M243.38,33.75h30.73v13.51h130.81v-13.51h30.73v83.55h-192.27V33.75M236.03,26.4v98.25h206.97V26.4h-45.43v13.51h-116.11v-13.51h-45.43Z"/><rect class="cls-7" x="263.08" y="71.79" width="23.8" height="23.8" transform="translate(191.29 358.67) rotate(-90)"/><rect class="cls-7" x="306.1" y="71.79" width="23.8" height="23.8" transform="translate(234.32 401.69) rotate(-90)"/><rect class="cls-7" x="349.13" y="71.79" width="23.8" height="23.8" transform="translate(277.34 444.72) rotate(-90)"/><rect class="cls-7" x="392.15" y="71.79" width="23.8" height="23.8" transform="translate(320.36 487.74) rotate(-90)"/><polygon class="cls-6" points="503.63 39.91 503.63 26.4 458.2 26.4 458.2 124.66 561.69 124.66 665.17 124.66 665.17 26.4 619.74 26.4 619.74 39.91 561.69 39.91 503.63 39.91"/><path class="cls-5" d="M465.55,33.75h30.73v13.51h130.81v-13.51h30.73v83.55h-192.27V33.75M458.2,26.4v98.25h206.97V26.4h-45.43v13.51h-116.11v-13.51h-45.43Z"/><rect class="cls-7" x="485.25" y="71.79" width="23.8" height="23.8" transform="translate(413.46 580.84) rotate(-90)"/><rect class="cls-7" x="528.27" y="71.79" width="23.8" height="23.8" transform="translate(456.49 623.86) rotate(-90)"/><rect class="cls-7" x="571.3" y="71.79" width="23.8" height="23.8" transform="translate(499.51 666.89) rotate(-90)"/><rect class="cls-7" x="614.32" y="71.79" width="23.8" height="23.8" transform="translate(542.53 709.91) rotate(-90)"/><polygon class="cls-6" points="725.8 39.91 725.8 26.4 680.37 26.4 680.37 124.66 783.85 124.66 887.34 124.66 887.34 26.4 841.91 26.4 841.91 39.91 783.85 39.91 725.8 39.91"/><path class="cls-5" d="M687.72,33.75h30.73v13.51h130.81v-13.51h30.73v83.55h-192.27V33.75M680.37,26.4v98.25h206.97V26.4h-45.43v13.51h-116.11v-13.51h-45.43Z"/><rect class="cls-7" x="707.42" y="71.79" width="23.8" height="23.8" transform="translate(635.63 803.01) rotate(-90)"/><rect class="cls-7" x="750.44" y="71.79" width="23.8" height="23.8" transform="translate(678.65 846.03) rotate(-90)"/><rect class="cls-7" x="793.47" y="71.79" width="23.8" height="23.8" transform="translate(721.68 889.06) rotate(-90)"/><rect class="cls-7" x="836.49" y="71.79" width="23.8" height="23.8" transform="translate(764.7 932.08) rotate(-90)"/><polygon class="cls-6" points="840.45 781.52 840.45 795.03 885.88 795.03 885.88 696.78 782.4 696.78 678.91 696.78 678.91 795.03 724.34 795.03 724.34 781.52 782.4 781.52 840.45 781.52"/><path class="cls-5" d="M878.53,787.68h-30.73s0-6.16,0-6.16v-7.35h-7.35s-58.05,0-58.05,0h-58.06s-7.35,0-7.35,0v7.35s0,6.16,0,6.16h-30.73s0-83.55,0-83.55h96.13s96.13,0,96.13,0v83.55M885.88,795.03v-98.25s-103.48,0-103.48,0h-103.48s0,98.25,0,98.25h45.43s0-13.51,0-13.51h58.06s58.05,0,58.05,0v13.51s45.43,0,45.43,0h0Z"/><rect class="cls-7" x="835.03" y="725.84" width="23.8" height="23.8" transform="translate(1584.68 -109.19) rotate(90)"/><rect class="cls-7" x="792.01" y="725.84" width="23.8" height="23.8" transform="translate(1541.66 -66.17) rotate(90)"/><rect class="cls-7" x="748.99" y="725.84" width="23.8" height="23.8" transform="translate(1498.63 -23.14) rotate(90)"/><rect class="cls-7" x="705.96" y="725.84" width="23.8" height="23.8" transform="translate(1455.61 19.88) rotate(90)"/><polygon class="cls-6" points="618.28 781.52 618.28 795.03 663.71 795.03 663.71 696.78 560.23 696.78 456.75 696.78 456.75 795.03 502.17 795.03 502.17 781.52 560.23 781.52 618.28 781.52"/><path class="cls-5" d="M656.36,787.68h-30.73s0-6.16,0-6.16v-7.35h-7.35s-58.05,0-58.05,0h-58.06s-7.35,0-7.35,0v7.35s0,6.16,0,6.16h-30.73s0-83.55,0-83.55h96.13s96.13,0,96.13,0v83.55M663.71,795.03v-98.25s-103.48,0-103.48,0h-103.48s0,98.25,0,98.25h45.43s0-13.51,0-13.51h58.06s58.05,0,58.05,0v13.51s45.43,0,45.43,0h0Z"/><rect class="cls-7" x="612.86" y="725.84" width="23.8" height="23.8" transform="translate(1362.51 112.98) rotate(90)"/><rect class="cls-7" x="569.84" y="725.84" width="23.8" height="23.8" transform="translate(1319.49 156) rotate(90)"/><rect class="cls-7" x="526.82" y="725.84" width="23.8" height="23.8" transform="translate(1276.46 199.03) rotate(90)"/><rect class="cls-7" x="483.79" y="725.84" width="23.8" height="23.8" transform="translate(1233.44 242.05) rotate(90)"/><polygon class="cls-6" points="396.12 781.52 396.12 795.03 441.55 795.03 441.55 696.78 338.06 696.78 234.58 696.78 234.58 795.03 280.01 795.03 280.01 781.52 338.06 781.52 396.12 781.52"/><path class="cls-5" d="M434.19,787.68h-30.73s0-6.16,0-6.16v-7.35h-7.35s-58.05,0-58.05,0h-58.06s-7.35,0-7.35,0v7.35s0,6.16,0,6.16h-30.73s0-83.55,0-83.55h96.13s96.13,0,96.13,0v83.55M441.55,795.03v-98.25s-103.48,0-103.48,0h-103.48s0,98.25,0,98.25h45.43s0-13.51,0-13.51h58.06s58.05,0,58.05,0v13.51s45.43,0,45.43,0h0Z"/><rect class="cls-7" x="390.7" y="725.84" width="23.8" height="23.8" transform="translate(1140.34 335.15) rotate(90)"/><rect class="cls-7" x="347.67" y="725.84" width="23.8" height="23.8" transform="translate(1097.32 378.17) rotate(90)"/><rect class="cls-7" x="304.65" y="725.84" width="23.8" height="23.8" transform="translate(1054.29 421.2) rotate(90)"/><rect class="cls-7" x="261.62" y="725.84" width="23.8" height="23.8" transform="translate(1011.27 464.22) rotate(90)"/><polygon class="cls-6" points="173.95 781.52 173.95 795.03 219.38 795.03 219.38 696.78 115.89 696.78 12.41 696.78 12.41 795.03 57.84 795.03 57.84 781.52 115.89 781.52 173.95 781.52"/><path class="cls-5" d="M212.03,787.68h-30.73s0-6.16,0-6.16v-7.35h-7.35s-58.05,0-58.05,0h-58.06s-7.35,0-7.35,0v7.35s0,6.16,0,6.16h-30.73s0-83.55,0-83.55h96.13s96.13,0,96.13,0v83.55M219.38,795.03v-98.25s-103.48,0-103.48,0H12.41s0,98.25,0,98.25h45.43s0-13.51,0-13.51h58.06s58.05,0,58.05,0v13.51s45.43,0,45.43,0h0Z"/><rect class="cls-7" x="168.53" y="725.84" width="23.8" height="23.8" transform="translate(918.17 557.32) rotate(90)"/><rect class="cls-7" x="125.5" y="725.84" width="23.8" height="23.8" transform="translate(875.15 600.34) rotate(90)"/><rect class="cls-7" x="82.48" y="725.84" width="23.8" height="23.8" transform="translate(832.13 643.36) rotate(90)"/><rect class="cls-7" x="39.46" y="725.84" width="23.8" height="23.8" transform="translate(789.1 686.39) rotate(90)"/><g id="pins"><path class="cls-4" d="M68.21,226.7h782.73c4.24,0,7.68,2.1,7.68,4.69v48.19c0,2.59-3.44,4.69-7.68,4.69H68.21c-4.24,0-7.68-2.1-7.68-4.69v-48.19c0-2.59,3.44-4.69,7.68-4.69Z"/><rect class="cls-9" x="74.05" y="242.12" width="28.4" height="26.74"/><rect class="cls-23" x="79.15" y="246.91" width="18.2" height="17.13"/><rect class="cls-9" x="126.33" y="242.12" width="29.29" height="26.74"/><rect class="cls-23" x="131.6" y="246.91" width="18.77" height="17.13"/><rect class="cls-9" x="179.06" y="242.12" width="29.29" height="26.74"/><rect class="cls-23" x="184.32" y="246.91" width="18.77" height="17.13"/><rect class="cls-9" x="231.79" y="242.12" width="29.29" height="26.74"/><rect class="cls-23" x="237.05" y="246.91" width="18.77" height="17.13"/><rect class="cls-9" x="284.52" y="242.12" width="29.29" height="26.74"/><rect class="cls-23" x="289.78" y="246.91" width="18.77" height="17.13"/><rect class="cls-9" x="337.25" y="242.12" width="29.29" height="26.74"/><rect class="cls-23" x="342.51" y="246.91" width="18.77" height="17.13"/><rect class="cls-9" x="389.97" y="242.12" width="29.29" height="26.74"/><rect class="cls-23" x="395.23" y="246.91" width="18.77" height="17.13"/><rect class="cls-9" x="442.7" y="242.12" width="29.29" height="26.74"/><rect class="cls-23" x="447.96" y="246.91" width="18.77" height="17.13"/><rect class="cls-9" x="495.43" y="242.12" width="29.29" height="26.74"/><rect class="cls-23" x="500.69" y="246.91" width="18.77" height="17.13"/><rect class="cls-9" x="548.16" y="242.12" width="29.29" height="26.74"/><rect class="cls-23" x="553.42" y="246.91" width="18.77" height="17.13"/><rect class="cls-9" x="600.89" y="242.12" width="29.29" height="26.74"/><rect class="cls-23" x="606.15" y="246.91" width="18.77" height="17.13"/><rect class="cls-9" x="653.61" y="242.12" width="29.29" height="26.74"/><rect class="cls-23" x="658.87" y="246.91" width="18.77" height="17.13"/><rect class="cls-9" x="706.34" y="242.12" width="29.29" height="26.74"/><rect class="cls-23" x="711.6" y="246.91" width="18.77" height="17.13"/><rect class="cls-9" x="759.07" y="242.12" width="29.29" height="26.74"/><rect class="cls-23" x="764.33" y="246.91" width="18.77" height="17.13"/><rect class="cls-9" x="812.24" y="242.12" width="28.4" height="26.74"/><rect class="cls-23" x="817.34" y="246.91" width="18.2" height="17.13"/><path class="cls-4" d="M68.21,533.37h782.73c4.24,0,7.68,2.1,7.68,4.69v48.19c0,2.59-3.44,4.69-7.68,4.69H68.21c-4.24,0-7.68-2.1-7.68-4.69v-48.19c0-2.59,3.44-4.69,7.68-4.69Z"/><rect class="cls-9" x="74.05" y="548.79" width="28.4" height="26.74"/><rect class="cls-23" x="79.15" y="553.57" width="18.2" height="17.13"/><rect class="cls-9" x="126.33" y="548.79" width="29.29" height="26.74"/><rect class="cls-23" x="131.6" y="553.57" width="18.77" height="17.13"/><rect class="cls-9" x="179.06" y="548.79" width="29.29" height="26.74"/><rect class="cls-23" x="184.32" y="553.57" width="18.77" height="17.13"/><rect class="cls-9" x="231.79" y="548.79" width="29.29" height="26.74"/><rect class="cls-23" x="237.05" y="553.57" width="18.77" height="17.13"/><rect class="cls-9" x="284.52" y="548.79" width="29.29" height="26.74"/><rect class="cls-23" x="289.78" y="553.57" width="18.77" height="17.13"/><rect class="cls-9" x="337.25" y="548.79" width="29.29" height="26.74"/><rect class="cls-23" x="342.51" y="553.57" width="18.77" height="17.13"/><rect class="cls-9" x="389.97" y="548.79" width="29.29" height="26.74"/><rect class="cls-23" x="395.23" y="553.57" width="18.77" height="17.13"/><rect class="cls-9" x="442.7" y="548.79" width="29.29" height="26.74"/><rect class="cls-23" x="447.96" y="553.57" width="18.77" height="17.13"/><rect class="cls-9" x="495.43" y="548.79" width="29.29" height="26.74"/><rect class="cls-23" x="500.69" y="553.57" width="18.77" height="17.13"/><rect class="cls-9" x="548.16" y="548.79" width="29.29" height="26.74"/><rect class="cls-23" x="553.42" y="553.57" width="18.77" height="17.13"/><rect class="cls-9" x="600.89" y="548.79" width="29.29" height="26.74"/><rect class="cls-23" x="606.15" y="553.57" width="18.77" height="17.13"/><rect class="cls-9" x="653.61" y="548.79" width="29.29" height="26.74"/><rect class="cls-23" x="658.87" y="553.57" width="18.77" height="17.13"/><rect class="cls-9" x="706.34" y="548.79" width="29.29" height="26.74"/><rect class="cls-23" x="711.6" y="553.57" width="18.77" height="17.13"/><rect class="cls-9" x="759.07" y="548.79" width="29.29" height="26.74"/><rect class="cls-23" x="764.33" y="553.57" width="18.77" height="17.13"/><rect class="cls-9" x="812.24" y="548.79" width="28.4" height="26.74"/><rect class="cls-23" x="817.34" y="553.57" width="18.2" height="17.13"/><rect class="cls-3" x="795.18" y="156.95" width="37.03" height="35.21"/><g class="cls-22"><circle class="cls-24" cx="96.15" cy="174.34" r="16.79"/><path class="cls-3" d="M96.15,161.91c6.85,0,12.42,5.57,12.42,12.42s-5.57,12.42-12.42,12.42-12.42-5.57-12.42-12.42,5.57-12.42,12.42-12.42M96.15,157.54c-9.27,0-16.79,7.52-16.79,16.79s7.52,16.79,16.79,16.79,16.79-7.52,16.79-16.79-7.52-16.79-16.79-16.79h0Z"/><circle class="cls-24" cx="147.34" cy="174.34" r="16.79"/><path class="cls-3" d="M147.34,161.91c6.85,0,12.42,5.57,12.42,12.42s-5.57,12.42-12.42,12.42-12.42-5.57-12.42-12.42,5.57-12.42,12.42-12.42M147.34,157.54c-9.27,0-16.79,7.52-16.79,16.79s7.52,16.79,16.79,16.79,16.79-7.52,16.79-16.79-7.52-16.79-16.79-16.79h0Z"/><circle class="cls-24" cx="198.53" cy="174.34" r="16.79"/><path class="cls-3" d="M198.53,161.91c6.85,0,12.42,5.57,12.42,12.42s-5.57,12.42-12.42,12.42-12.42-5.57-12.42-12.42,5.57-12.42,12.42-12.42M198.53,157.54c-9.27,0-16.79,7.52-16.79,16.79s7.52,16.79,16.79,16.79,16.79-7.52,16.79-16.79-7.52-16.79-16.79-16.79h0Z"/><circle class="cls-24" cx="249.71" cy="174.34" r="16.79"/><path class="cls-3" d="M249.71,161.91c6.85,0,12.42,5.57,12.42,12.42s-5.57,12.42-12.42,12.42-12.42-5.57-12.42-12.42,5.57-12.42,12.42-12.42M249.71,157.54c-9.27,0-16.79,7.52-16.79,16.79s7.52,16.79,16.79,16.79,16.79-7.52,16.79-16.79-7.52-16.79-16.79-16.79h0Z"/><circle class="cls-24" cx="300.9" cy="174.34" r="16.79"/><path class="cls-3" d="M300.9,161.91c6.85,0,12.42,5.57,12.42,12.42s-5.57,12.42-12.42,12.42-12.42-5.57-12.42-12.42,5.57-12.42,12.42-12.42M300.9,157.54c-9.27,0-16.79,7.52-16.79,16.79s7.52,16.79,16.79,16.79,16.79-7.52,16.79-16.79-7.52-16.79-16.79-16.79h0Z"/><circle class="cls-24" cx="352.09" cy="174.34" r="16.79"/><path class="cls-3" d="M352.09,161.91c6.85,0,12.42,5.57,12.42,12.42s-5.57,12.42-12.42,12.42-12.42-5.57-12.42-12.42,5.57-12.42,12.42-12.42M352.09,157.54c-9.27,0-16.79,7.52-16.79,16.79s7.52,16.79,16.79,16.79,16.79-7.52,16.79-16.79-7.52-16.79-16.79-16.79h0Z"/><circle class="cls-24" cx="403.28" cy="174.34" r="16.79"/><path class="cls-3" d="M403.28,161.91c6.85,0,12.42,5.57,12.42,12.42s-5.57,12.42-12.42,12.42-12.42-5.57-12.42-12.42,5.57-12.42,12.42-12.42M403.28,157.54c-9.27,0-16.79,7.52-16.79,16.79s7.52,16.79,16.79,16.79,16.79-7.52,16.79-16.79-7.52-16.79-16.79-16.79h0Z"/><circle class="cls-24" cx="454.47" cy="174.34" r="16.79"/><path class="cls-3" d="M454.47,161.91c6.85,0,12.42,5.57,12.42,12.42s-5.57,12.42-12.42,12.42-12.42-5.57-12.42-12.42,5.57-12.42,12.42-12.42M454.47,157.54c-9.27,0-16.79,7.52-16.79,16.79s7.52,16.79,16.79,16.79,16.79-7.52,16.79-16.79-7.52-16.79-16.79-16.79h0Z"/><circle class="cls-24" cx="505.65" cy="174.34" r="16.79"/><path class="cls-3" d="M505.65,161.91c6.85,0,12.42,5.57,12.42,12.42s-5.57,12.42-12.42,12.42-12.42-5.57-12.42-12.42,5.57-12.42,12.42-12.42M505.65,157.54c-9.27,0-16.79,7.52-16.79,16.79s7.52,16.79,16.79,16.79,16.79-7.52,16.79-16.79-7.52-16.79-16.79-16.79h0Z"/><circle class="cls-24" cx="556.84" cy="174.34" r="16.79"/><path class="cls-3" d="M556.84,161.91c6.85,0,12.42,5.57,12.42,12.42s-5.57,12.42-12.42,12.42-12.42-5.57-12.42-12.42,5.57-12.42,12.42-12.42M556.84,157.54c-9.27,0-16.79,7.52-16.79,16.79s7.52,16.79,16.79,16.79,16.79-7.52,16.79-16.79-7.52-16.79-16.79-16.79h0Z"/><circle class="cls-24" cx="608.03" cy="174.34" r="16.79"/><path class="cls-3" d="M608.03,161.91c6.85,0,12.42,5.57,12.42,12.42s-5.57,12.42-12.42,12.42-12.42-5.57-12.42-12.42,5.57-12.42,12.42-12.42M608.03,157.54c-9.27,0-16.79,7.52-16.79,16.79s7.52,16.79,16.79,16.79,16.79-7.52,16.79-16.79-7.52-16.79-16.79-16.79h0Z"/><circle class="cls-24" cx="659.22" cy="174.34" r="16.79"/><path class="cls-3" d="M659.22,161.91c6.85,0,12.42,5.57,12.42,12.42s-5.57,12.42-12.42,12.42-12.42-5.57-12.42-12.42,5.57-12.42,12.42-12.42M659.22,157.54c-9.27,0-16.79,7.52-16.79,16.79s7.52,16.79,16.79,16.79,16.79-7.52,16.79-16.79-7.52-16.79-16.79-16.79h0Z"/><circle class="cls-24" cx="710.41" cy="174.34" r="16.79"/><path class="cls-3" d="M710.41,161.91c6.85,0,12.42,5.57,12.42,12.42s-5.57,12.42-12.42,12.42-12.42-5.57-12.42-12.42,5.57-12.42,12.42-12.42M710.41,157.54c-9.27,0-16.79,7.52-16.79,16.79s7.52,16.79,16.79,16.79,16.79-7.52,16.79-16.79-7.52-16.79-16.79-16.79h0Z"/><circle class="cls-24" cx="761.59" cy="174.34" r="16.79"/><path class="cls-3" d="M761.59,161.91c6.85,0,12.42,5.57,12.42,12.42s-5.57,12.42-12.42,12.42-12.42-5.57-12.42-12.42,5.57-12.42,12.42-12.42M761.59,157.54c-9.27,0-16.79,7.52-16.79,16.79s7.52,16.79,16.79,16.79,16.79-7.52,16.79-16.79-7.52-16.79-16.79-16.79h0Z"/><circle class="cls-24" cx="812.78" cy="174.34" r="16.79"/><path class="cls-3" d="M812.78,161.91c6.85,0,12.42,5.57,12.42,12.42s-5.57,12.42-12.42,12.42-12.42-5.57-12.42-12.42,5.57-12.42,12.42-12.42M812.78,157.54c-9.27,0-16.79,7.52-16.79,16.79s7.52,16.79,16.79,16.79,16.79-7.52,16.79-16.79-7.52-16.79-16.79-16.79h0Z"/></g><rect class="cls-2" x="71.84" y="150.96" width="768.8" height="49.24"/><rect class="cls-3" x="793.69" y="623.45" width="37.03" height="35.21"/><g class="cls-8"><circle class="cls-24" cx="94.66" cy="640.83" r="16.79"/><path class="cls-3" d="M94.66,628.4c6.85,0,12.42,5.57,12.42,12.42s-5.57,12.42-12.42,12.42-12.42-5.57-12.42-12.42,5.57-12.42,12.42-12.42M94.66,624.03c-9.27,0-16.79,7.52-16.79,16.79s7.52,16.79,16.79,16.79,16.79-7.52,16.79-16.79-7.52-16.79-16.79-16.79h0Z"/><circle class="cls-24" cx="145.84" cy="640.83" r="16.79"/><path class="cls-3" d="M145.84,628.4c6.85,0,12.42,5.57,12.42,12.42s-5.57,12.42-12.42,12.42-12.42-5.57-12.42-12.42,5.57-12.42,12.42-12.42M145.84,624.03c-9.27,0-16.79,7.52-16.79,16.79s7.52,16.79,16.79,16.79,16.79-7.52,16.79-16.79-7.52-16.79-16.79-16.79h0Z"/><circle class="cls-24" cx="197.03" cy="640.83" r="16.79"/><path class="cls-3" d="M197.03,628.4c6.85,0,12.42,5.57,12.42,12.42s-5.57,12.42-12.42,12.42-12.42-5.57-12.42-12.42,5.57-12.42,12.42-12.42M197.03,624.03c-9.27,0-16.79,7.52-16.79,16.79s7.52,16.79,16.79,16.79,16.79-7.52,16.79-16.79-7.52-16.79-16.79-16.79h0Z"/><circle class="cls-24" cx="248.22" cy="640.83" r="16.79"/><path class="cls-3" d="M248.22,628.4c6.85,0,12.42,5.57,12.42,12.42s-5.57,12.42-12.42,12.42-12.42-5.57-12.42-12.42,5.57-12.42,12.42-12.42M248.22,624.03c-9.27,0-16.79,7.52-16.79,16.79s7.52,16.79,16.79,16.79,16.79-7.52,16.79-16.79-7.52-16.79-16.79-16.79h0Z"/><circle class="cls-24" cx="299.41" cy="640.83" r="16.79"/><path class="cls-3" d="M299.41,628.4c6.85,0,12.42,5.57,12.42,12.42s-5.57,12.42-12.42,12.42-12.42-5.57-12.42-12.42,5.57-12.42,12.42-12.42M299.41,624.03c-9.27,0-16.79,7.52-16.79,16.79s7.52,16.79,16.79,16.79,16.79-7.52,16.79-16.79-7.52-16.79-16.79-16.79h0Z"/><circle class="cls-24" cx="350.6" cy="640.83" r="16.79"/><path class="cls-3" d="M350.6,628.4c6.85,0,12.42,5.57,12.42,12.42s-5.57,12.42-12.42,12.42-12.42-5.57-12.42-12.42,5.57-12.42,12.42-12.42M350.6,624.03c-9.27,0-16.79,7.52-16.79,16.79s7.52,16.79,16.79,16.79,16.79-7.52,16.79-16.79-7.52-16.79-16.79-16.79h0Z"/><circle class="cls-24" cx="401.78" cy="640.83" r="16.79"/><path class="cls-3" d="M401.78,628.4c6.85,0,12.42,5.57,12.42,12.42s-5.57,12.42-12.42,12.42-12.42-5.57-12.42-12.42,5.57-12.42,12.42-12.42M401.78,624.03c-9.27,0-16.79,7.52-16.79,16.79s7.52,16.79,16.79,16.79,16.79-7.52,16.79-16.79-7.52-16.79-16.79-16.79h0Z"/><circle class="cls-24" cx="452.97" cy="640.83" r="16.79"/><path class="cls-3" d="M452.97,628.4c6.85,0,12.42,5.57,12.42,12.42s-5.57,12.42-12.42,12.42-12.42-5.57-12.42-12.42,5.57-12.42,12.42-12.42M452.97,624.03c-9.27,0-16.79,7.52-16.79,16.79s7.52,16.79,16.79,16.79,16.79-7.52,16.79-16.79-7.52-16.79-16.79-16.79h0Z"/><circle class="cls-24" cx="504.16" cy="640.83" r="16.79"/><path class="cls-3" d="M504.16,628.4c6.85,0,12.42,5.57,12.42,12.42s-5.57,12.42-12.42,12.42-12.42-5.57-12.42-12.42,5.57-12.42,12.42-12.42M504.16,624.03c-9.27,0-16.79,7.52-16.79,16.79s7.52,16.79,16.79,16.79,16.79-7.52,16.79-16.79-7.52-16.79-16.79-16.79h0Z"/><circle class="cls-24" cx="555.35" cy="640.83" r="16.79"/><path class="cls-3" d="M555.35,628.4c6.85,0,12.42,5.57,12.42,12.42s-5.57,12.42-12.42,12.42-12.42-5.57-12.42-12.42,5.57-12.42,12.42-12.42M555.35,624.03c-9.27,0-16.79,7.52-16.79,16.79s7.52,16.79,16.79,16.79,16.79-7.52,16.79-16.79-7.52-16.79-16.79-16.79h0Z"/><circle class="cls-24" cx="606.54" cy="640.83" r="16.79"/><path class="cls-3" d="M606.54,628.4c6.85,0,12.42,5.57,12.42,12.42s-5.57,12.42-12.42,12.42-12.42-5.57-12.42-12.42,5.57-12.42,12.42-12.42M606.54,624.03c-9.27,0-16.79,7.52-16.79,16.79s7.52,16.79,16.79,16.79,16.79-7.52,16.79-16.79-7.52-16.79-16.79-16.79h0Z"/><circle class="cls-24" cx="657.72" cy="640.83" r="16.79"/><path class="cls-3" d="M657.72,628.4c6.85,0,12.42,5.57,12.42,12.42s-5.57,12.42-12.42,12.42-12.42-5.57-12.42-12.42,5.57-12.42,12.42-12.42M657.72,624.03c-9.27,0-16.79,7.52-16.79,16.79s7.52,16.79,16.79,16.79,16.79-7.52,16.79-16.79-7.52-16.79-16.79-16.79h0Z"/><circle class="cls-24" cx="708.91" cy="640.83" r="16.79"/><path class="cls-3" d="M708.91,628.4c6.85,0,12.42,5.57,12.42,12.42s-5.57,12.42-12.42,12.42-12.42-5.57-12.42-12.42,5.57-12.42,12.42-12.42M708.91,624.03c-9.27,0-16.79,7.52-16.79,16.79s7.52,16.79,16.79,16.79,16.79-7.52,16.79-16.79-7.52-16.79-16.79-16.79h0Z"/><circle class="cls-24" cx="760.1" cy="640.83" r="16.79"/><path class="cls-3" d="M760.1,628.4c6.85,0,12.42,5.57,12.42,12.42s-5.57,12.42-12.42,12.42-12.42-5.57-12.42-12.42,5.57-12.42,12.42-12.42M760.1,624.03c-9.27,0-16.79,7.52-16.79,16.79s7.52,16.79,16.79,16.79,16.79-7.52,16.79-16.79-7.52-16.79-16.79-16.79h0Z"/><circle class="cls-24" cx="811.29" cy="640.83" r="16.79"/><path class="cls-3" d="M811.29,628.4c6.85,0,12.42,5.57,12.42,12.42s-5.57,12.42-12.42,12.42-12.42-5.57-12.42-12.42,5.57-12.42,12.42-12.42M811.29,624.03c-9.27,0-16.79,7.52-16.79,16.79s7.52,16.79,16.79,16.79,16.79-7.52,16.79-16.79-7.52-16.79-16.79-16.79h0Z"/></g><rect class="cls-2" x="70.34" y="617.45" width="768.8" height="49.24"/></g></g></g></svg>