<svg xmlns="http://www.w3.org/2000/svg" transform="rotate(90)" width="60" height="54" xmlns:xlink="http://www.w3.org/1999/xlink" viewBox="0 0 189.67 189.67"><defs><style>.cls-1,.cls-31{fill:none;}.cls-2{fill:#164a9b;}.cls-3{fill:#f9d142;}.cls-4{clip-path:url(#clip-path);}.cls-5{fill:#7d6921;}.cls-6{fill:#bba760;}.cls-7{fill:#bb9d32;}.cls-8{clip-path:url(#clip-path-2);}.cls-9{fill:#ce574e;}.cls-10{clip-path:url(#clip-path-3);}.cls-11{fill:#672c27;}.cls-12{fill:#d87971;}.cls-13{fill:#9b413b;}.cls-14{fill:#f2f2f2;}.cls-15{clip-path:url(#clip-path-4);}.cls-16{fill:#797979;}.cls-17{fill:#f5f5f5;}.cls-18{fill:#b5b5b5;}.cls-19{fill:#333;}.cls-20{clip-path:url(#clip-path-5);}.cls-21{fill:#444;}.cls-22{fill:#5c5c5c;}.cls-23{fill:#262626;}.cls-24{clip-path:url(#clip-path-6);}.cls-25{fill:#352841;}.cls-26{fill:#fff;}.cls-27{fill:#e6e6e6;}.cls-28{fill:#ccc;}.cls-29{fill:#999;}.cls-30{clip-path:url(#clip-path-7);}.cls-31{stroke:#999;stroke-miterlimit:10;}.cls-32{clip-path:url(#clip-path-8);}</style><clipPath id="clip-path"><rect class="cls-1" x="49.83" y="66.69" width="4.93" height="81.34"/></clipPath><clipPath id="clip-path-2"><rect class="cls-1" x="27.9" y="67.72" width="4.93" height="66.77"/></clipPath><clipPath id="clip-path-3"><rect class="cls-1" x="134.33" y="99.03" width="4.93" height="34.13"/></clipPath><clipPath id="clip-path-4"><rect class="cls-1" x="134.33" y="63.41" width="4.93" height="28.12"/></clipPath><clipPath id="clip-path-5"><rect class="cls-1" x="143.46" y="113.66" width="31.11" height="3.34"/></clipPath><clipPath id="clip-path-6"><rect class="cls-1" x="143.46" y="74.2" width="31.11" height="3.34"/></clipPath><clipPath id="clip-path-7"><rect class="cls-1" x="73.98" y="47.64" width="43.71" height="22.49"/></clipPath><clipPath id="clip-path-8"><rect class="cls-1" x="72.27" y="48.38" width="44.64" height="19.32"/></clipPath></defs><g id="Calque_2" data-name="Calque 2"><g id="Calque_1-2" data-name="Calque 1"><g id="Alphabot2_dessus" data-name="Alphabot2 dessus"><circle class="cls-2" cx="94.83" cy="94.83" r="94.83"/><rect class="cls-3" x="9.14" y="102.87" width="86.32" height="8.97" rx="1.87" transform="translate(159.65 55.06) rotate(90)"/><g class="cls-4"><g id="_Grille_de_répétition_" data-name="&lt;Grille de répétition&gt;"><polygon class="cls-5" points="50.02 71.36 50.02 66.69 54.76 71.36 50.02 71.36"/><polygon class="cls-6" points="50.02 66.69 54.76 66.69 54.76 71.36 50.02 66.69"/><rect class="cls-7" x="50.52" y="67.15" width="3.74" height="3.74" transform="translate(121.42 16.63) rotate(90)"/></g><g id="_Grille_de_répétition_2" data-name="&lt;Grille de répétition&gt;"><polygon class="cls-5" points="50.02 79.85 50.02 75.17 54.76 79.85 50.02 79.85"/><polygon class="cls-6" points="50.02 75.17 54.76 75.17 54.76 79.85 50.02 75.17"/><rect class="cls-7" x="50.52" y="75.64" width="3.74" height="3.74" transform="translate(129.9 25.12) rotate(90)"/></g><g id="_Grille_de_répétition_3" data-name="&lt;Grille de répétition&gt;"><polygon class="cls-5" points="50.02 88.34 50.02 83.66 54.76 88.34 50.02 88.34"/><polygon class="cls-6" points="50.02 83.66 54.76 83.66 54.76 88.34 50.02 83.66"/><rect class="cls-7" x="50.52" y="84.13" width="3.74" height="3.74" transform="translate(138.39 33.61) rotate(90)"/></g><g id="_Grille_de_répétition_4" data-name="&lt;Grille de répétition&gt;"><polygon class="cls-5" points="50.02 96.82 50.02 92.15 54.76 96.82 50.02 96.82"/><polygon class="cls-6" points="50.02 92.15 54.76 92.15 54.76 96.82 50.02 92.15"/><rect class="cls-7" x="50.52" y="92.62" width="3.74" height="3.74" transform="translate(146.88 42.1) rotate(90)"/></g><g id="_Grille_de_répétition_5" data-name="&lt;Grille de répétition&gt;"><polygon class="cls-5" points="50.02 105.31 50.02 100.64 54.76 105.31 50.02 105.31"/><polygon class="cls-6" points="50.02 100.64 54.76 100.64 54.76 105.31 50.02 100.64"/><rect class="cls-7" x="50.52" y="101.11" width="3.74" height="3.74" transform="translate(155.37 50.58) rotate(90)"/></g><g id="_Grille_de_répétition_6" data-name="&lt;Grille de répétition&gt;"><polygon class="cls-5" points="50.02 113.8 50.02 109.13 54.76 113.8 50.02 113.8"/><polygon class="cls-6" points="50.02 109.13 54.76 109.13 54.76 113.8 50.02 109.13"/><rect class="cls-7" x="50.52" y="109.59" width="3.74" height="3.74" transform="translate(163.85 59.07) rotate(90)"/></g><g id="_Grille_de_répétition_7" data-name="&lt;Grille de répétition&gt;"><polygon class="cls-5" points="50.02 122.29 50.02 117.61 54.76 122.29 50.02 122.29"/><polygon class="cls-6" points="50.02 117.61 54.76 117.61 54.76 122.29 50.02 117.61"/><rect class="cls-7" x="50.52" y="118.08" width="3.74" height="3.74" transform="translate(172.34 67.56) rotate(90)"/></g><g id="_Grille_de_répétition_8" data-name="&lt;Grille de répétition&gt;"><polygon class="cls-5" points="50.02 130.78 50.02 126.1 54.76 130.78 50.02 130.78"/><polygon class="cls-6" points="50.02 126.1 54.76 126.1 54.76 130.78 50.02 126.1"/><rect class="cls-7" x="50.52" y="126.57" width="3.74" height="3.74" transform="translate(180.83 76.05) rotate(90)"/></g><g id="_Grille_de_répétition_9" data-name="&lt;Grille de répétition&gt;"><polygon class="cls-5" points="50.02 139.26 50.02 134.59 54.76 139.26 50.02 139.26"/><polygon class="cls-6" points="50.02 134.59 54.76 134.59 54.76 139.26 50.02 134.59"/><rect class="cls-7" x="50.52" y="135.06" width="3.74" height="3.74" transform="translate(189.32 84.54) rotate(90)"/></g><g id="_Grille_de_répétition_10" data-name="&lt;Grille de répétition&gt;"><polygon class="cls-5" points="50.02 147.75 50.02 143.08 54.76 147.75 50.02 147.75"/><polygon class="cls-6" points="50.02 143.08 54.76 143.08 54.76 147.75 50.02 143.08"/><rect class="cls-7" x="50.52" y="143.55" width="3.74" height="3.74" transform="translate(197.81 93.02) rotate(90)"/></g></g><rect class="cls-3" x="-5.06" y="96.62" width="70.86" height="8.97" rx="1.69" transform="translate(131.47 70.74) rotate(90)"/><g class="cls-8"><g id="_Grille_de_répétition_11" data-name="&lt;Grille de répétition&gt;"><polygon class="cls-5" points="28.09 70.87 28.09 67.72 32.83 70.87 28.09 70.87"/><polygon class="cls-6" points="28.09 67.72 32.83 67.72 32.83 70.87 28.09 67.72"/><rect class="cls-7" x="29.2" y="67.42" width="2.52" height="3.74" transform="translate(99.76 38.83) rotate(90)"/></g><g id="_Grille_de_répétition_12" data-name="&lt;Grille de répétition&gt;"><polygon class="cls-5" points="28.09 75.12 28.09 71.96 32.83 75.12 28.09 75.12"/><polygon class="cls-6" points="28.09 71.96 32.83 71.96 32.83 75.12 28.09 71.96"/><rect class="cls-7" x="29.2" y="71.67" width="2.52" height="3.74" transform="translate(104 43.08) rotate(90)"/></g><g id="_Grille_de_répétition_13" data-name="&lt;Grille de répétition&gt;"><polygon class="cls-5" points="28.09 79.36 28.09 76.21 32.83 79.36 28.09 79.36"/><polygon class="cls-6" points="28.09 76.21 32.83 76.21 32.83 79.36 28.09 76.21"/><rect class="cls-7" x="29.2" y="75.92" width="2.52" height="3.74" transform="translate(108.25 47.32) rotate(90)"/></g><g id="_Grille_de_répétition_14" data-name="&lt;Grille de répétition&gt;"><polygon class="cls-5" points="28.09 83.61 28.09 80.46 32.83 83.61 28.09 83.61"/><polygon class="cls-6" points="28.09 80.46 32.83 80.46 32.83 83.61 28.09 80.46"/><rect class="cls-7" x="29.2" y="80.16" width="2.52" height="3.74" transform="translate(112.5 51.57) rotate(90)"/></g><g id="_Grille_de_répétition_15" data-name="&lt;Grille de répétition&gt;"><polygon class="cls-5" points="28.09 87.86 28.09 84.7 32.83 87.86 28.09 87.86"/><polygon class="cls-6" points="28.09 84.7 32.83 84.7 32.83 87.86 28.09 84.7"/><rect class="cls-7" x="29.2" y="84.41" width="2.52" height="3.74" transform="translate(116.74 55.82) rotate(90)"/></g><g id="_Grille_de_répétition_16" data-name="&lt;Grille de répétition&gt;"><polygon class="cls-5" points="28.09 92.1 28.09 88.95 32.83 92.1 28.09 92.1"/><polygon class="cls-6" points="28.09 88.95 32.83 88.95 32.83 92.1 28.09 88.95"/><rect class="cls-7" x="29.2" y="88.66" width="2.52" height="3.74" transform="translate(120.99 60.07) rotate(90)"/></g><g id="_Grille_de_répétition_17" data-name="&lt;Grille de répétition&gt;"><polygon class="cls-5" points="28.09 96.35 28.09 93.2 32.83 96.35 28.09 96.35"/><polygon class="cls-6" points="28.09 93.2 32.83 93.2 32.83 96.35 28.09 93.2"/><rect class="cls-7" x="29.2" y="92.9" width="2.52" height="3.74" transform="translate(125.24 64.31) rotate(90)"/></g><g id="_Grille_de_répétition_18" data-name="&lt;Grille de répétition&gt;"><polygon class="cls-5" points="28.09 100.6 28.09 97.44 32.83 100.6 28.09 100.6"/><polygon class="cls-6" points="28.09 97.44 32.83 97.44 32.83 100.6 28.09 97.44"/><rect class="cls-7" x="29.2" y="97.15" width="2.52" height="3.74" transform="translate(129.48 68.56) rotate(90)"/></g><g id="_Grille_de_répétition_19" data-name="&lt;Grille de répétition&gt;"><polygon class="cls-5" points="28.09 104.84 28.09 101.69 32.83 104.84 28.09 104.84"/><polygon class="cls-6" points="28.09 101.69 32.83 101.69 32.83 104.84 28.09 101.69"/><rect class="cls-7" x="29.2" y="101.4" width="2.52" height="3.74" transform="translate(133.73 72.81) rotate(90)"/></g><g id="_Grille_de_répétition_20" data-name="&lt;Grille de répétition&gt;"><polygon class="cls-5" points="28.09 109.09 28.09 105.94 32.83 109.09 28.09 109.09"/><polygon class="cls-6" points="28.09 105.94 32.83 105.94 32.83 109.09 28.09 105.94"/><rect class="cls-7" x="29.2" y="105.65" width="2.52" height="3.74" transform="translate(137.98 77.05) rotate(90)"/></g><g id="_Grille_de_répétition_21" data-name="&lt;Grille de répétition&gt;"><polygon class="cls-5" points="28.09 113.34 28.09 110.19 32.83 113.34 28.09 113.34"/><polygon class="cls-6" points="28.09 110.19 32.83 110.19 32.83 113.34 28.09 110.19"/><rect class="cls-7" x="29.2" y="109.89" width="2.52" height="3.74" transform="translate(142.22 81.3) rotate(90)"/></g><g id="_Grille_de_répétition_22" data-name="&lt;Grille de répétition&gt;"><polygon class="cls-5" points="28.09 117.58 28.09 114.43 32.83 117.58 28.09 117.58"/><polygon class="cls-6" points="28.09 114.43 32.83 114.43 32.83 117.58 28.09 114.43"/><rect class="cls-7" x="29.2" y="114.14" width="2.52" height="3.74" transform="translate(146.47 85.55) rotate(90)"/></g><g id="_Grille_de_répétition_23" data-name="&lt;Grille de répétition&gt;"><polygon class="cls-5" points="28.09 121.83 28.09 118.68 32.83 121.83 28.09 121.83"/><polygon class="cls-6" points="28.09 118.68 32.83 118.68 32.83 121.83 28.09 118.68"/><rect class="cls-7" x="29.2" y="118.39" width="2.52" height="3.74" transform="translate(150.72 89.79) rotate(90)"/></g><g id="_Grille_de_répétition_24" data-name="&lt;Grille de répétition&gt;"><polygon class="cls-5" points="28.09 126.08 28.09 122.93 32.83 126.08 28.09 126.08"/><polygon class="cls-6" points="28.09 122.93 32.83 122.93 32.83 126.08 28.09 122.93"/><rect class="cls-7" x="29.2" y="122.63" width="2.52" height="3.74" transform="translate(154.96 94.04) rotate(90)"/></g><g id="_Grille_de_répétition_25" data-name="&lt;Grille de répétition&gt;"><polygon class="cls-5" points="28.09 130.32 28.09 127.17 32.83 130.32 28.09 130.32"/><polygon class="cls-6" points="28.09 127.17 32.83 127.17 32.83 130.32 28.09 127.17"/><rect class="cls-7" x="29.2" y="126.88" width="2.52" height="3.74" transform="translate(159.21 98.29) rotate(90)"/></g><g id="_Grille_de_répétition_26" data-name="&lt;Grille de répétition&gt;"><polygon class="cls-5" points="28.09 134.57 28.09 131.42 32.83 134.57 28.09 134.57"/><polygon class="cls-6" points="28.09 131.42 32.83 131.42 32.83 134.57 28.09 131.42"/><rect class="cls-7" x="29.2" y="131.13" width="2.52" height="3.74" transform="translate(163.46 102.53) rotate(90)"/></g></g><rect class="cls-9" x="117.45" y="111.4" width="38.69" height="8.97" rx="1.25" transform="translate(252.68 -20.91) rotate(90)"/><g class="cls-10"><g id="_Grille_de_répétition_27" data-name="&lt;Grille de répétition&gt;"><polygon class="cls-11" points="134.52 103.71 134.52 99.03 139.26 103.71 134.52 103.71"/><polygon class="cls-12" points="134.52 99.03 139.26 99.03 139.26 103.71 134.52 99.03"/><rect class="cls-13" x="135.02" y="99.5" width="3.74" height="3.74" transform="translate(238.26 -35.52) rotate(90)"/></g><g id="_Grille_de_répétition_28" data-name="&lt;Grille de répétition&gt;"><polygon class="cls-11" points="134.52 109.54 134.52 104.86 139.26 109.54 134.52 109.54"/><polygon class="cls-12" points="134.52 104.86 139.26 104.86 139.26 109.54 134.52 104.86"/><rect class="cls-13" x="135.02" y="105.33" width="3.74" height="3.74" transform="translate(244.09 -29.69) rotate(90)"/></g><g id="_Grille_de_répétition_29" data-name="&lt;Grille de répétition&gt;"><polygon class="cls-11" points="134.52 115.36 134.52 110.69 139.26 115.36 134.52 115.36"/><polygon class="cls-12" points="134.52 110.69 139.26 110.69 139.26 115.36 134.52 110.69"/><rect class="cls-13" x="135.02" y="111.16" width="3.74" height="3.74" transform="translate(249.92 -23.86) rotate(90)"/></g><g id="_Grille_de_répétition_30" data-name="&lt;Grille de répétition&gt;"><polygon class="cls-11" points="134.52 121.19 134.52 116.52 139.26 121.19 134.52 121.19"/><polygon class="cls-12" points="134.52 116.52 139.26 116.52 139.26 121.19 134.52 116.52"/><rect class="cls-13" x="135.02" y="116.99" width="3.74" height="3.74" transform="translate(255.75 -18.03) rotate(90)"/></g><g id="_Grille_de_répétition_31" data-name="&lt;Grille de répétition&gt;"><polygon class="cls-11" points="134.52 127.02 134.52 122.35 139.26 127.02 134.52 127.02"/><polygon class="cls-12" points="134.52 122.35 139.26 122.35 139.26 127.02 134.52 122.35"/><rect class="cls-13" x="135.02" y="122.82" width="3.74" height="3.74" transform="translate(261.58 -12.2) rotate(90)"/></g><g id="_Grille_de_répétition_32" data-name="&lt;Grille de répétition&gt;"><polygon class="cls-11" points="134.52 132.85 134.52 128.18 139.26 132.85 134.52 132.85"/><polygon class="cls-12" points="134.52 128.18 139.26 128.18 139.26 132.85 134.52 128.18"/><rect class="cls-13" x="135.02" y="128.65" width="3.74" height="3.74" transform="translate(267.41 -6.37) rotate(90)"/></g></g><rect class="cls-14" x="120.78" y="72.85" width="32.02" height="8.97" rx="1.14" transform="translate(214.13 -59.46) rotate(90)"/><g class="cls-15"><g id="_Grille_de_répétition_33" data-name="&lt;Grille de répétition&gt;"><polygon class="cls-16" points="134.52 68.08 134.52 63.41 139.26 68.08 134.52 68.08"/><polygon class="cls-17" points="134.52 63.41 139.26 63.41 139.26 68.08 134.52 63.41"/><rect class="cls-18" x="135.02" y="63.87" width="3.74" height="3.74" transform="translate(202.63 -71.15) rotate(90)"/></g><g id="_Grille_de_répétition_34" data-name="&lt;Grille de répétition&gt;"><polygon class="cls-16" points="134.52 73.91 134.52 69.24 139.26 73.91 134.52 73.91"/><polygon class="cls-17" points="134.52 69.24 139.26 69.24 139.26 73.91 134.52 69.24"/><rect class="cls-18" x="135.02" y="69.7" width="3.74" height="3.74" transform="translate(208.46 -65.32) rotate(90)"/></g><g id="_Grille_de_répétition_35" data-name="&lt;Grille de répétition&gt;"><polygon class="cls-16" points="134.52 79.74 134.52 75.06 139.26 79.74 134.52 79.74"/><polygon class="cls-17" points="134.52 75.06 139.26 75.06 139.26 79.74 134.52 75.06"/><rect class="cls-18" x="135.02" y="75.53" width="3.74" height="3.74" transform="translate(214.29 -59.49) rotate(90)"/></g><g id="_Grille_de_répétition_36" data-name="&lt;Grille de répétition&gt;"><polygon class="cls-16" points="134.52 85.57 134.52 80.89 139.26 85.57 134.52 85.57"/><polygon class="cls-17" points="134.52 80.89 139.26 80.89 139.26 85.57 134.52 80.89"/><rect class="cls-18" x="135.02" y="81.36" width="3.74" height="3.74" transform="translate(220.12 -53.66) rotate(90)"/></g><g id="_Grille_de_répétition_37" data-name="&lt;Grille de répétition&gt;"><polygon class="cls-16" points="134.52 91.4 134.52 86.72 139.26 91.4 134.52 91.4"/><polygon class="cls-17" points="134.52 86.72 139.26 86.72 139.26 91.4 134.52 86.72"/><rect class="cls-18" x="135.02" y="87.19" width="3.74" height="3.74" transform="translate(225.95 -47.83) rotate(90)"/></g></g><rect class="cls-19" x="141.28" y="112.29" width="35.07" height="6.09" rx="1.25"/><g class="cls-20"><g id="_Grille_de_répétition_38" data-name="&lt;Grille de répétition&gt;"><polygon class="cls-21" points="146.61 116.88 143.44 116.88 146.61 113.66 146.61 116.88"/><polygon class="cls-22" points="143.44 116.88 143.44 113.66 146.61 113.66 143.44 116.88"/><rect class="cls-23" x="143.76" y="114" width="2.54" height="2.54"/></g><g id="_Grille_de_répétition_39" data-name="&lt;Grille de répétition&gt;"><polygon class="cls-21" points="151.22 116.88 148.05 116.88 151.22 113.66 151.22 116.88"/><polygon class="cls-22" points="148.05 116.88 148.05 113.66 151.22 113.66 148.05 116.88"/><rect class="cls-23" x="148.37" y="114" width="2.54" height="2.54"/></g><g id="_Grille_de_répétition_40" data-name="&lt;Grille de répétition&gt;"><polygon class="cls-21" points="155.84 116.88 152.66 116.88 155.84 113.66 155.84 116.88"/><polygon class="cls-22" points="152.66 116.88 152.66 113.66 155.84 113.66 152.66 116.88"/><rect class="cls-23" x="152.98" y="114" width="2.54" height="2.54"/></g><g id="_Grille_de_répétition_41" data-name="&lt;Grille de répétition&gt;"><polygon class="cls-21" points="160.45 116.88 157.27 116.88 160.45 113.66 160.45 116.88"/><polygon class="cls-22" points="157.27 116.88 157.27 113.66 160.45 113.66 157.27 116.88"/><rect class="cls-23" x="157.59" y="114" width="2.54" height="2.54"/></g><g id="_Grille_de_répétition_42" data-name="&lt;Grille de répétition&gt;"><polygon class="cls-21" points="165.06 116.88 161.88 116.88 165.06 113.66 165.06 116.88"/><polygon class="cls-22" points="161.88 116.88 161.88 113.66 165.06 113.66 161.88 116.88"/><rect class="cls-23" x="162.2" y="114" width="2.54" height="2.54"/></g><g id="_Grille_de_répétition_43" data-name="&lt;Grille de répétition&gt;"><polygon class="cls-21" points="169.67 116.88 166.5 116.88 169.67 113.66 169.67 116.88"/><polygon class="cls-22" points="166.5 116.88 166.5 113.66 169.67 113.66 166.5 116.88"/><rect class="cls-23" x="166.81" y="114" width="2.54" height="2.54"/></g><g id="_Grille_de_répétition_44" data-name="&lt;Grille de répétition&gt;"><polygon class="cls-21" points="174.28 116.88 171.11 116.88 174.28 113.66 174.28 116.88"/><polygon class="cls-22" points="171.11 116.88 171.11 113.66 174.28 113.66 171.11 116.88"/><rect class="cls-23" x="171.42" y="114" width="2.54" height="2.54"/></g></g><rect class="cls-19" x="141.28" y="72.83" width="35.07" height="6.09" rx="1.25"/><g class="cls-24"><g id="_Grille_de_répétition_45" data-name="&lt;Grille de répétition&gt;"><polygon class="cls-21" points="146.61 77.42 143.44 77.42 146.61 74.2 146.61 77.42"/><polygon class="cls-22" points="143.44 77.42 143.44 74.2 146.61 74.2 143.44 77.42"/><rect class="cls-23" x="143.76" y="74.54" width="2.54" height="2.54"/></g><g id="_Grille_de_répétition_46" data-name="&lt;Grille de répétition&gt;"><polygon class="cls-21" points="151.22 77.42 148.05 77.42 151.22 74.2 151.22 77.42"/><polygon class="cls-22" points="148.05 77.42 148.05 74.2 151.22 74.2 148.05 77.42"/><rect class="cls-23" x="148.37" y="74.54" width="2.54" height="2.54"/></g><g id="_Grille_de_répétition_47" data-name="&lt;Grille de répétition&gt;"><polygon class="cls-21" points="155.84 77.42 152.66 77.42 155.84 74.2 155.84 77.42"/><polygon class="cls-22" points="152.66 77.42 152.66 74.2 155.84 74.2 152.66 77.42"/><rect class="cls-23" x="152.98" y="74.54" width="2.54" height="2.54"/></g><g id="_Grille_de_répétition_48" data-name="&lt;Grille de répétition&gt;"><polygon class="cls-21" points="160.45 77.42 157.27 77.42 160.45 74.2 160.45 77.42"/><polygon class="cls-22" points="157.27 77.42 157.27 74.2 160.45 74.2 157.27 77.42"/><rect class="cls-23" x="157.59" y="74.54" width="2.54" height="2.54"/></g><g id="_Grille_de_répétition_49" data-name="&lt;Grille de répétition&gt;"><polygon class="cls-21" points="165.06 77.42 161.88 77.42 165.06 74.2 165.06 77.42"/><polygon class="cls-22" points="161.88 77.42 161.88 74.2 165.06 74.2 161.88 77.42"/><rect class="cls-23" x="162.2" y="74.54" width="2.54" height="2.54"/></g><g id="_Grille_de_répétition_50" data-name="&lt;Grille de répétition&gt;"><polygon class="cls-21" points="169.67 77.42 166.5 77.42 169.67 74.2 169.67 77.42"/><polygon class="cls-22" points="166.5 77.42 166.5 74.2 169.67 74.2 166.5 77.42"/><rect class="cls-23" x="166.81" y="74.54" width="2.54" height="2.54"/></g><g id="_Grille_de_répétition_51" data-name="&lt;Grille de répétition&gt;"><polygon class="cls-21" points="174.28 77.42 171.11 77.42 174.28 74.2 174.28 77.42"/><polygon class="cls-22" points="171.11 77.42 171.11 74.2 174.28 74.2 171.11 77.42"/><rect class="cls-23" x="171.42" y="74.54" width="2.54" height="2.54"/></g></g><rect class="cls-19" x="78.13" y="86.29" width="27.2" height="13.86" rx="2.13"/><rect class="cls-19" x="81.23" y="122.11" width="20.44" height="13.86" rx="1.85"/><rect class="cls-25" x="71.64" y="5.55" width="46.07" height="26.74"/><path class="cls-26" d="M117.7,33H71.64a.71.71,0,0,1-.71-.71V5.55a.71.71,0,0,1,.71-.71H117.7a.71.71,0,0,1,.71.71V32.29A.71.71,0,0,1,117.7,33ZM72.35,31.58H117V6.26H72.35Z"/><rect class="cls-19" x="71.64" y="32.29" width="46.07" height="6.74"/><path class="cls-26" d="M117.7,39.74H71.64a.71.71,0,0,1-.71-.71V32.29a.71.71,0,0,1,.71-.71H117.7a.71.71,0,0,1,.71.71V39A.71.71,0,0,1,117.7,39.74ZM72.35,38.32H117V33H72.35Z"/><path class="cls-26" d="M109.41,37.37H79.93a.71.71,0,0,1-.71-.71V32.29a.71.71,0,0,1,.71-.71h29.48a.71.71,0,0,1,.71.71v4.37A.71.71,0,0,1,109.41,37.37ZM80.64,36H108.7V33H80.64Z"/><rect class="cls-19" x="84.62" y="32.9" width="20.44" height="13.86" rx="1.85"/><circle class="cls-27" cx="44.25" cy="43.26" r="7.67"/><circle class="cls-27" cx="21.83" cy="44.24" r="4.53"/><circle class="cls-28" cx="21.83" cy="44.24" r="2.84"/><circle class="cls-27" cx="167.07" cy="44.24" r="4.53"/><circle class="cls-28" cx="167.07" cy="44.24" r="2.84"/><circle class="cls-27" cx="22.05" cy="144.98" r="4.53"/><circle class="cls-28" cx="22.05" cy="144.98" r="2.84"/><circle class="cls-27" cx="167.29" cy="144.98" r="4.53"/><circle class="cls-28" cx="167.29" cy="144.98" r="2.84"/><path class="cls-29" d="M116.59,70h-44a1.5,1.5,0,0,1-1.5-1.5V48.64a1.5,1.5,0,0,1,1.5-1.5h44a1.5,1.5,0,0,1,1.5,1.5V68.48A1.5,1.5,0,0,1,116.59,70Zm-44-21.84a.5.5,0,0,0-.5.5V68.48a.51.51,0,0,0,.5.5h44a.5.5,0,0,0,.5-.5V48.64a.5.5,0,0,0-.5-.5Z"/><g class="cls-30"><line class="cls-31" x1="74.48" y1="47.64" x2="74.48" y2="69.48"/><line class="cls-31" x1="78.99" y1="47.64" x2="78.99" y2="69.48"/><line class="cls-31" x1="83.5" y1="47.64" x2="83.5" y2="69.48"/><line class="cls-31" x1="88.01" y1="47.64" x2="88.01" y2="69.48"/><line class="cls-31" x1="92.52" y1="47.64" x2="92.52" y2="69.48"/><line class="cls-31" x1="97.03" y1="47.64" x2="97.03" y2="69.48"/><line class="cls-31" x1="101.54" y1="47.64" x2="101.54" y2="69.48"/><line class="cls-31" x1="106.05" y1="47.64" x2="106.05" y2="69.48"/><line class="cls-31" x1="110.56" y1="47.64" x2="110.56" y2="69.48"/><line class="cls-31" x1="115.08" y1="47.64" x2="115.08" y2="69.48"/></g><g class="cls-32"><line class="cls-31" x1="50.44" y1="67.2" x2="72.28" y2="67.2"/><line class="cls-31" x1="50.44" y1="63.82" x2="72.28" y2="63.82"/><line class="cls-31" x1="50.44" y1="60.45" x2="72.28" y2="60.45"/><line class="cls-31" x1="50.44" y1="57.08" x2="72.28" y2="57.08"/><line class="cls-31" x1="50.44" y1="53.71" x2="72.28" y2="53.71"/><line class="cls-31" x1="50.44" y1="50.33" x2="72.28" y2="50.33"/><line class="cls-31" x1="72.27" y1="67.2" x2="94.11" y2="67.2"/><line class="cls-31" x1="72.27" y1="63.82" x2="94.11" y2="63.82"/><line class="cls-31" x1="72.27" y1="60.45" x2="94.11" y2="60.45"/><line class="cls-31" x1="72.27" y1="57.08" x2="94.11" y2="57.08"/><line class="cls-31" x1="72.27" y1="53.71" x2="94.11" y2="53.71"/><line class="cls-31" x1="72.27" y1="50.33" x2="94.11" y2="50.33"/><line class="cls-31" x1="94.1" y1="67.2" x2="115.94" y2="67.2"/><line class="cls-31" x1="94.1" y1="63.82" x2="115.94" y2="63.82"/><line class="cls-31" x1="94.1" y1="60.45" x2="115.94" y2="60.45"/><line class="cls-31" x1="94.1" y1="57.08" x2="115.94" y2="57.08"/><line class="cls-31" x1="94.1" y1="53.71" x2="115.94" y2="53.71"/><line class="cls-31" x1="94.1" y1="50.33" x2="115.94" y2="50.33"/><line class="cls-31" x1="115.93" y1="67.2" x2="137.77" y2="67.2"/><line class="cls-31" x1="115.93" y1="63.82" x2="137.77" y2="63.82"/><line class="cls-31" x1="115.93" y1="60.45" x2="137.77" y2="60.45"/><line class="cls-31" x1="115.93" y1="57.08" x2="137.77" y2="57.08"/><line class="cls-31" x1="115.93" y1="53.71" x2="137.77" y2="53.71"/><line class="cls-31" x1="115.93" y1="50.33" x2="137.77" y2="50.33"/></g><rect class="cls-27" x="139.43" y="41.75" width="5.69" height="5.69" rx="2.85"/><path class="cls-27" d="M131.76,41.75l-2.5,2.5a.5.5,0,0,0,0,.7l2.35,2.35a.5.5,0,0,0,.85-.34l.16-4.84A.5.5,0,0,0,131.76,41.75Z"/><path class="cls-27" d="M145.13,34.09l-2.5-2.5a.51.51,0,0,0-.71,0l-2.35,2.35a.5.5,0,0,0,.34.85l4.85.15A.5.5,0,0,0,145.13,34.09Z"/><path class="cls-27" d="M139.42,55.11l2.5,2.5a.51.51,0,0,0,.71,0L145,55.26a.5.5,0,0,0-.33-.85l-4.85-.15A.5.5,0,0,0,139.42,55.11Z"/><path class="cls-27" d="M155.28,44.25l-2.34-2.35a.51.51,0,0,0-.86.34l-.15,4.84a.5.5,0,0,0,.85.37l2.5-2.5A.48.48,0,0,0,155.28,44.25Z"/><path class="cls-27" d="M145.06,35.86h-5.58a2,2,0,0,0-1.41.59l-3.95,3.95a2,2,0,0,0-.58,1.41v5.58a2,2,0,0,0,.58,1.42l3.95,3.94a2,2,0,0,0,1.41.59h5.58a2,2,0,0,0,1.42-.59l3.94-3.94a2,2,0,0,0,.59-1.42V41.81a2,2,0,0,0-.59-1.41l-3.94-3.95A2,2,0,0,0,145.06,35.86ZM143.32,48.3a3.85,3.85,0,0,1-4.74-4.74,3.8,3.8,0,0,1,2.65-2.66,3.84,3.84,0,0,1,2.09,7.4Z"/><rect class="cls-19" x="170.78" y="124.24" width="7.1" height="10.33" rx="0.95" transform="translate(76.02 -64.17) rotate(26.49)"/></g></g></g></svg>