<?xml version="1.0" encoding="utf-8"?>
<!-- Generator: Adobe Illustrator 18.1.1, SVG Export Plug-In . SVG Version: 6.00 Build 0)  -->
<svg version="1.1" id="Calque_1" xmlns="http://www.w3.org/2000/svg" xmlns:xlink="http://www.w3.org/1999/xlink" x="0px" y="0px"
	 viewBox="0 0 1280 800" enable-background="new 0 0 1280 800" xml:space="preserve">
<g>
	<path fill="#F8A10F" d="M879.8,535.8c0,0,0,0.1,0,0.3c0,0.2,0,0.5,0,0.9c0,0.4-0.1,0.8-0.2,1.3c-0.1,0.5-0.2,1-0.4,1.5
		c-0.4,1-0.9,2.2-1.8,3.2c-0.4,0.5-1,0.9-1.6,1.3c-0.6,0.4-1.1,0.9-1.7,1.3c-1.1,0.9-2.1,1.9-3.2,2.7c-1,0.9-2,1.6-2.9,2.3
		c-1.7,1.3-2.9,2.1-2.9,2.1c-0.1,0.1-0.3,0.1-0.4-0.1c-0.1-0.1-0.1-0.2,0-0.3c0,0,0.6-1.3,1.7-3.2c0.5-0.9,1.1-2,1.8-3.2
		c0.7-1.2,1.5-2.3,2.2-3.5c0.4-0.6,0.7-1.2,1.1-1.9c0.3-0.6,0.7-1.2,1.1-1.7c0.8-1,1.9-1.7,2.9-2.3c0.5-0.3,1-0.5,1.4-0.7
		c0.5-0.2,0.9-0.3,1.2-0.4c0.4-0.1,0.7-0.2,0.9-0.2c0.2,0,0.3,0,0.3,0C879.5,535.4,879.7,535.6,879.8,535.8
		C879.8,535.8,879.8,535.8,879.8,535.8z"/>
</g>
</svg>
