<?xml version="1.0" encoding="UTF-8"?><svg id="Calque_2" xmlns="http://www.w3.org/2000/svg" xmlns:xlink="http://www.w3.org/1999/xlink" viewBox="0 0 51.67 54.71"><defs><style>.cls-1{fill:none;}.cls-2{clip-path:url(#clippath);}.cls-3{fill:#ffa100;}.cls-4{fill:#fff;}</style><clipPath id="clippath"><path id="Buddy_mask" class="cls-1" d="M43.73,39.18c-.71-1.32-1.43-1.74-1.62-1.84-.03-.01-.05-.04-.05-.08-.05-1.13-1.6-7.94-3.29-10.67-1.6-2.59-4.86-3.59-5.31-3.72-.03,0-.05-.03-.06-.06-.02-.04-.08-.05-.12-.02l-.67,.67h-.03c-.05-.21-.16-.42-.31-.62-.01-.02-.02-.04-.02-.06v-2.02c0-.05,.04-.09,.09-.09,1.7-.06,3.41-.19,5.1-.4,.08-.01,.17-.02,.25-.03,3.31-.42,5.21-3.17,5.21-8.09,0-4.3-1.26-7.29-4.93-8.36-3.54-1.03-7.22-.96-7.5-.96-.28,0-3.96-.08-7.5,.96-3.67,1.07-4.93,4.06-4.93,8.36,0,4.92,1.9,7.67,5.21,8.09,.08,.01,.16,.02,.25,.03,1.61,.2,3.23,.33,4.85,.39h-.04v2.13s0,.04-.02,.06c-.1,.13-.19,.28-.25,.42-.03,.06-.11,.08-.15,.03l-.49-.49s-.13-.01-.13,.06c0,0,0,0,0,0h0s-.02,0-.04,0h-.01s-.13,.04-.13,.04c0,0,0,0,0,0-.77,.24-3.68,1.28-5.17,3.68-1.69,2.73-3.23,9.54-3.29,10.67,0,.03-.02,.06-.05,.08-.19,.09-.91,.51-1.62,1.84,0,0-2.42,3.59-.77,12.6,.02,.1,.16,.13,.21,.04,.34-.52,1.16-1.65,2.06-1.65,.99,0,1.47,.39,1.95,1.04,.02,.02,.05,.04,.08,.04h19.73s.06-.01,.08-.04c.48-.66,.96-1.04,1.95-1.04,.9,0,1.73,1.13,2.06,1.65,.06,.09,.19,.06,.21-.04,1.64-9.01-.77-12.6-.77-12.6Z"/></clipPath></defs><g id="Calque_1-2"><g id="on"><g id="battery_buddy"><g id="battery_buddy0_charger"><g id="charger"><path id="charger-2" d="M11.46,29.05c.82,0,1.51-.06,2.19,.03,.24,.03,.62,.42,.63,.65,.11,3.02-2.09,6.42-4.92,7.52-.66,.26-.8,.59-.79,1.23,.03,2.02,.02,4.04,0,6.06,0,1.13-.57,1.78-1.47,1.76-.84-.02-1.41-.68-1.42-1.73-.02-2.02-.04-4.04,0-6.06,.01-.69-.18-1.03-.85-1.31C1.82,35.99-.24,32.51,.02,29.09H2.82c0-1.51,0-2.89,0-4.27,0-.87,.49-1.39,1.32-1.46,.74-.07,1.28,.33,1.47,1.06,.09,.33,.06,.69,.07,1.04,0,1.14,0,2.29,0,3.51h2.86c0-1.29,0-2.54,0-3.78,.01-1.19,.58-1.88,1.5-1.85,.86,.03,1.39,.71,1.4,1.85,.01,1.24,0,2.49,0,3.86Z"/></g><g id="Buddy_outline"><g id="Buddy_outline-2"><path class="cls-4" d="M44.39,53.29c-.52,0-1-.26-1.29-.7-.43-.68-.82-.97-.94-1.01-.35,0-.45,.06-.74,.46-.27,.37-.77,.63-1.22,.63H20.47c-.46,0-.96-.26-1.23-.63-.29-.4-.39-.46-.8-.46-.06,.03-.44,.33-.87,1-.28,.44-.76,.7-1.29,.7-.75,0-1.38-.53-1.51-1.27-1.63-8.92,.52-12.89,.95-13.57,.54-.99,1.11-1.6,1.57-1.97,.37-2.27,1.8-8.04,3.41-10.64,1.33-2.15,3.57-3.35,4.97-3.93-.79-.06-1.57-.15-2.34-.24l-.26-.03c-4.09-.52-6.44-3.98-6.44-9.5s1.95-8.55,5.95-9.72c3.14-.92,6.33-1.02,7.56-1.02h.38s.31,0,.31,0c1.23,0,4.42,.1,7.56,1.02,4,1.17,5.95,4.35,5.95,9.72s-2.35,8.97-6.44,9.5l-.25,.03c-.85,.11-1.71,.19-2.57,.26,1.41,.59,3.6,1.78,4.92,3.91,1.62,2.61,3.05,8.41,3.41,10.65,.46,.37,1.02,.98,1.56,1.96,.42,.67,2.58,4.65,.95,13.57-.13,.73-.77,1.26-1.51,1.26h0Z"/><path d="M30.81,2.83c1.04,0,4.15,.08,7.16,.96,3.67,1.07,4.93,4.06,4.93,8.36,0,4.92-1.9,7.67-5.21,8.09-.08,.01-.16,.02-.25,.03-1.7,.21-3.4,.34-5.1,.4-.05,0-.09,.04-.09,.09v2.02s0,.04,.02,.06c.15,.2,.26,.41,.31,.62h.03l.67-.67s.04-.02,.05-.02c.03,0,.05,.01,.07,.04,.01,.03,.03,.05,.06,.06,.45,.13,3.71,1.14,5.31,3.72,1.69,2.73,3.23,9.54,3.29,10.67,0,.03,.02,.06,.05,.08,.19,.09,.91,.51,1.62,1.84,0,0,2.42,3.59,.77,12.6-.01,.06-.06,.1-.12,.1-.04,0-.07-.02-.1-.05-.34-.52-1.16-1.65-2.06-1.65-.99,0-1.47,.39-1.95,1.04-.02,.02-.05,.04-.08,.04H20.47s-.06-.01-.08-.04c-.48-.66-.96-1.04-1.95-1.04-.9,0-1.73,1.13-2.06,1.65-.02,.04-.06,.05-.1,.05-.05,0-.1-.03-.12-.1-1.64-9.01,.77-12.6,.77-12.6,.71-1.32,1.43-1.74,1.62-1.84,.03-.01,.05-.04,.05-.08,.05-1.13,1.6-7.94,3.29-10.67,1.49-2.4,4.39-3.44,5.17-3.68,0,0,0,0,0,0l.13-.05h.01s.04,0,.04,0h0s0,0,0,0c0-.05,.04-.08,.08-.08,.02,0,.04,0,.05,.02l.49,.49s.04,.03,.07,.03c.04,0,.07-.02,.09-.06,.06-.14,.14-.28,.25-.42,.01-.02,.02-.04,.02-.06v-2.13h.04c-1.62-.06-3.24-.19-4.85-.39-.08-.01-.17-.02-.25-.03-3.31-.42-5.21-3.17-5.21-8.09,0-4.3,1.26-7.29,4.93-8.36,3.01-.88,6.12-.96,7.16-.96,.18,0,.3,0,.34,0,.04,0,.16,0,.34,0m0-2.83h0c-.15,0-.27,0-.34,0-.07,0-.19,0-.34,0-1.29,0-4.64,.1-7.95,1.07-4.62,1.35-6.97,5.08-6.97,11.08,0,7.46,3.73,9.85,6.31,10.61-.75,.64-1.45,1.41-2.03,2.34-1.63,2.62-3.03,7.96-3.52,10.67-.48,.46-1,1.11-1.48,1.99-.58,.97-2.77,5.39-1.11,14.52,.26,1.4,1.48,2.42,2.91,2.42,.96,0,1.84-.46,2.4-1.23,.51,.39,1.14,.61,1.79,.61h19.73c.65,0,1.28-.22,1.79-.61,.55,.77,1.44,1.23,2.4,1.23,1.43,0,2.65-1.02,2.91-2.42,1.67-9.14-.53-13.56-1.11-14.52-.49-.89-1.01-1.53-1.49-1.99-.5-2.72-1.89-8.05-3.52-10.67-.56-.9-1.25-1.65-1.97-2.28,2.58-.69,6.52-3,6.52-10.67,0-6-2.34-9.73-6.97-11.08-3.32-.97-6.67-1.07-7.95-1.07h0Z"/></g></g><g id="level_battery"><g class="cls-2"><g id="level_battery-2"><rect class="cls-3" x="10.07" y="40.69" width="41.6" height="13.33"/></g></g></g><g id="Buddy_inline"><g id="Buddy_inline-2"><path class="cls-4" d="M30.13,4.25c.16,0,.27,0,.31,0,.01,0,.02,0,.04,0s.02,0,.04,0c.04,0,.14,0,.31,0,.86,0,3.89,.07,6.76,.9,2.74,.8,3.91,2.89,3.91,7s-1.34,6.35-3.97,6.68l-.24,.03c-1.64,.2-3.32,.33-4.97,.39-.82,.03-1.46,.69-1.46,1.51v2.02c0,.34,.11,.67,.31,.92,.04,.05,.06,.09,.06,.09h0c.15,.64,.75,1.09,1.41,1.09,.38,0,.74-.15,1-.41l.04-.04c.97,.37,2.9,1.28,3.92,2.91,1.52,2.45,3.03,8.96,3.08,9.99,.02,.55,.35,1.05,.84,1.29,0,0,.47,.26,1,1.24,.02,.03,.04,.07,.06,.1,.02,.03,1.65,2.71,.93,9.11-.38-.19-.8-.31-1.25-.31-1.29,0-2.1,.51-2.65,1.08H21.09c-.55-.58-1.35-1.08-2.65-1.08-.45,0-.87,.12-1.25,.31-.71-6.4,.91-9.08,.92-9.09,.03-.04,.05-.08,.07-.12,.53-.98,.99-1.23,.99-1.23h0c.5-.24,.82-.74,.85-1.28,.05-1.04,1.56-7.55,3.08-9.99,1.03-1.66,2.99-2.56,3.93-2.92,.26,.2,.58,.31,.92,.31,.61,0,1.16-.37,1.4-.93,0,0,.01-.04,.07-.1,.2-.26,.31-.59,.31-.91v-1.78c.03-.1,.04-.21,.04-.32,.01-.77-.59-1.41-1.36-1.44-1.59-.06-3.18-.19-4.73-.38l-.24-.03c-2.63-.34-3.97-2.59-3.97-6.68s1.17-6.2,3.91-7c2.87-.84,5.9-.9,6.76-.9m4.15,19.55h0M30.81,2.83c-.18,0-.3,0-.34,0-.04,0-.16,0-.34,0-1.04,0-4.15,.08-7.16,.96-3.67,1.07-4.93,4.06-4.93,8.36,0,4.92,1.9,7.67,5.21,8.09,.08,.01,.16,.02,.25,.03,1.61,.2,3.23,.33,4.85,.39h-.04v2.13s0,.04-.02,.06c-.1,.13-.19,.28-.25,.42-.02,.04-.05,.06-.09,.06-.02,0-.05,0-.07-.03l-.49-.49s-.04-.02-.05-.02c-.04,0-.08,.03-.08,.08,0,0,0,0,0,0h0s-.02,0-.04,0h-.01s-.13,.04-.13,.04c0,0,0,0,0,0-.77,.24-3.68,1.28-5.17,3.68-1.69,2.73-3.23,9.54-3.29,10.67,0,.03-.02,.06-.05,.08-.19,.09-.91,.51-1.62,1.84,0,0-2.42,3.59-.77,12.6,.01,.06,.06,.1,.12,.1,.04,0,.07-.02,.1-.05,.34-.52,1.16-1.65,2.06-1.65,.99,0,1.47,.39,1.95,1.04,.02,.02,.05,.04,.08,.04h19.73s.06-.01,.08-.04c.48-.66,.96-1.04,1.95-1.04,.9,0,1.73,1.13,2.06,1.65,.02,.04,.06,.05,.1,.05,.05,0,.11-.03,.12-.1,1.64-9.01-.77-12.6-.77-12.6-.71-1.32-1.43-1.74-1.62-1.84-.03-.01-.05-.04-.05-.08-.05-1.13-1.6-7.94-3.29-10.67-1.6-2.59-4.86-3.59-5.31-3.72-.03,0-.05-.03-.06-.06-.01-.02-.04-.04-.07-.04-.02,0-.04,0-.05,.02l-.67,.67h-.03c-.05-.21-.16-.42-.31-.62-.01-.02-.02-.04-.02-.06v-2.02c0-.05,.04-.09,.09-.09,1.7-.06,3.41-.19,5.1-.4,.08-.01,.17-.02,.25-.03,3.31-.42,5.21-3.17,5.21-8.09,0-4.3-1.26-7.29-4.93-8.36-3.01-.88-6.12-.96-7.16-.96h0Z"/></g></g></g></g></g></g></svg>