<svg xmlns="http://www.w3.org/2000/svg" version="1.1" width="1080" height="1080" viewBox="0 0 1080 1080" xml:space="preserve">
<g transform="matrix(1 0 0 1 540 540)">
<rect style="stroke: none; stroke-width: 1; stroke-dasharray: none; stroke-linecap: butt; stroke-dashoffset: 0; stroke-linejoin: miter; stroke-miterlimit: 4; fill: rgb(255,255,255); fill-rule: nonzero; opacity: 1; visibility: hidden;" vector-effect="non-scaling-stroke"  x="-540" y="-540" rx="0" ry="0" width="1080" height="1080" />
</g>
<g transform="matrix(1 0 0 1 540 540)"></g>
<g class="bt-icon" transform="matrix(1.42 0 0 1.42 396.83 610.33)">
<path style="stroke: rgb(0,0,0); stroke-width: 0; stroke-dasharray: none; stroke-linecap: butt; stroke-dashoffset: 0; stroke-linejoin: miter; stroke-miterlimit: 4; fill: rgb(0,130,252); fill-rule: nonzero; opacity: 1;" vector-effect="non-scaling-stroke"  transform=" translate(-224, -256)" d="M 292.6 171.1 L 249.7 214 L 249.39999999999998 128 L 292.59999999999997 171.1 M 249.39999999999998 390.9 L 292.5 347.79999999999995 L 249.6 304.9 L 249.4 390.9 z M 416 259.4 C 416 465 344.1 512 230.9 512 C 117.69999999999999 512 32 465 32 259.4 C 32 53.799999999999955 115.4 0 228.6 0 C 341.79999999999995 0 416 53.9 416 259.4 z M 257.5 259.4 L 336.9 170.79999999999998 L 211.8 36.5 L 211.8 213.4 L 138 139.6 L 111 166.5 L 203.7 259.5 L 110.99999999999999 352.5 L 137.89999999999998 379.4 L 211.7 305.59999999999997 L 214 475.59999999999997 L 341.4 348.09999999999997 L 257.5 259.4 z" stroke-linecap="round" />
</g>
<g class="read-arrow" transform="matrix(2.02 0 0 2.02 759.2 156.75)">
<path style="stroke: rgb(0,0,0); stroke-width: 0; stroke-dasharray: none; stroke-linecap: butt; stroke-dashoffset: 0; stroke-linejoin: miter; stroke-miterlimit: 4; fill-rule: nonzero; opacity: 1;" vector-effect="non-scaling-stroke"  transform=" translate(-50.5, -50)" d="M 22.66 19.967 C 17.585 19.967 13.448 24.104 13.448 29.180999999999997 L 13.448 78.31 C 13.448 83.387 17.585 87.584 22.723 87.584 L 71.791 87.584 C 76.868 87.584 81.065 83.387 81.065 78.31 C 80.814 71.479 63.769999999999996 68.974 51.613 63.646 L 85.765 29.494999999999997 C 88.146 27.051 88.146 23.165 85.765 20.784 L 79.187 14.203999999999999 C 76.803 11.822999999999999 72.919 11.822999999999999 70.538 14.203999999999999 L 36.76 47.981 C 31.998 36.137 29.616 20.846 22.66 19.967 z" stroke-linecap="round" />
</g>
<g class="write-arrow" transform="matrix(1.92 0 0 1.92 928.43 315.45)">
<path style="stroke: rgb(0,0,0); stroke-width: 0; stroke-dasharray: none; stroke-linecap: butt; stroke-dashoffset: 0; stroke-linejoin: miter; stroke-miterlimit: 4; fill-rule: nonzero; opacity: 1;" vector-effect="non-scaling-stroke"  transform=" translate(-49, -49.5)" d="M 76.208 78.885 C 81.17099999999999 78.885 85.214 74.78 85.214 69.821 L 85.214 21.8 C 85.214 16.838 81.17099999999999 12.796000000000001 76.208 12.796000000000001 L 28.19 12.796000000000001 C 23.227 12.796000000000001 19.125 16.838 19.125 21.8 C 19.37 28.537 36.025999999999996 30.987000000000002 47.912 36.193 L 14.53 69.575 C 12.203999999999999 71.9 12.203999999999999 75.699 14.53 78.02600000000001 L 20.961 84.45800000000001 C 23.290999999999997 86.78500000000001 27.084999999999997 86.78500000000001 29.413999999999998 84.45800000000001 L 62.43 51.505 C 67.084 63.021 69.409 78.026 76.208 78.885 z" stroke-linecap="round" />
</g>
</svg>