<?xml version="1.0" encoding="utf-8"?>
<!-- Generator: Adobe Illustrator 18.1.1, SVG Export Plug-In . SVG Version: 6.00 Build 0)  -->
<svg version="1.1" id="Calque_1" xmlns="http://www.w3.org/2000/svg" xmlns:xlink="http://www.w3.org/1999/xlink" x="0px" y="0px"
	 viewBox="0 0 1280 800" enable-background="new 0 0 1280 800" xml:space="preserve">
<g>
	<path fill="#F8A10F" d="M879.2,535c0,0-0.1-0.1-0.2-0.2c-0.1-0.2-0.3-0.4-0.6-0.7c-0.2-0.3-0.5-0.7-0.7-1.1
		c-0.2-0.4-0.5-0.9-0.7-1.4c-0.4-1-0.8-2.2-0.8-3.5c0-0.6,0.1-1.3,0.3-2c0.2-0.7,0.3-1.4,0.4-2.1c0.2-1.4,0.4-2.8,0.6-4
		c0.2-1.3,0.4-2.5,0.6-3.5c0.4-2.1,0.8-3.4,0.8-3.4c0-0.2,0.2-0.3,0.4-0.2c0.1,0,0.2,0.1,0.2,0.2c0,0,0.4,1.4,0.8,3.4
		c0.2,1,0.5,2.2,0.7,3.5c0.3,1.3,0.5,2.7,0.7,4c0.1,0.7,0.3,1.4,0.4,2c0.2,0.7,0.3,1.3,0.3,2c0,1.3-0.3,2.5-0.7,3.5
		c-0.2,0.5-0.4,1-0.6,1.4c-0.2,0.4-0.5,0.8-0.7,1.1c-0.2,0.3-0.4,0.5-0.5,0.7c-0.1,0.2-0.2,0.2-0.2,0.2
		C879.7,535.2,879.4,535.2,879.2,535C879.3,535.1,879.3,535,879.2,535z"/>
</g>
</svg>
