<?xml version="1.0" encoding="UTF-8"?><svg id="Face" xmlns="http://www.w3.org/2000/svg" viewBox="0 0 283.46 283.46"><g id="Face-2"><path d="M12.79,432.78c-2.01,.82-3.46,2.43-5.14,3.71-2.75,2.11-5.95,2.19-8.71,.27-1.31-.91-.91-2.16-.89-3.3,.08-5.94,.08-11.88,.39-17.81,.56-10.8,.28-21.63,.76-32.43,.93-20.85,2.95-41.58,8-61.91,1.44-5.78,3.59-11.3,6.51-16.51,2.21-3.94,5.1-7.32,9.12-9.35,2.21-1.12,3.01-2.73,3.51-4.86,3.04-12.88,6.45-25.66,10.26-38.33,5.17-17.19,10.25-34.45,18.21-50.62,8.36-16.98,20.16-31.14,36.03-41.66,5.44-3.61,11.98-5.03,17.56-8.41,1.04-.63,2.04-.32,2.98,.34,1.37,.96,2.76,1.9,4.67,3.21,2.39-4.78,6.81-8.39,4.86-14.79-1.14-3.73-1.27-7.79-1.65-11.73-.25-2.61-1.4-3.57-4.02-3.79-11.55-.99-22.88-3.27-34.03-6.43-6.59-1.87-13-4.21-19.25-7.07-15.22-6.95-24.77-18.79-30.02-34.38-3.17-9.43-4.68-19.19-5.56-29.07-1.39-15.6-.7-31.03,3.9-46.11,.93-3.05,2.05-6.06,3.33-8.98,5.44-12.44,14.36-21.3,27.14-26.22,10.43-4.02,21.26-6.37,32.24-8.12,25.55-4.08,51.25-4.6,76.98-2.6,15.94,1.24,31.78,3.39,46.96,8.84,3.73,1.34,7.36,2.89,10.84,4.78,6,3.26,10.88,7.7,14.7,13.4,7.82,11.66,12.05,24.63,13.21,38.45,1.57,18.66-.12,37.08-6.09,54.99-6.26,18.81-18.38,31.85-37.05,38.88-13.63,5.13-27.71,8.14-42.14,9.59-7.42,.75-7.45,.61-8.38,7.81-.39,3.02-.56,6.07-1.09,9.06-.65,3.64,.34,6.53,3.21,8.8,5.25-3.04,5.27-3.07,10.79,.05,3.45,1.95,7.1,3.47,10.66,5.18,9.52,4.56,17.14,11.52,23.88,19.5,11.94,14.15,20.11,30.4,26.36,47.7,7.7,21.34,13.48,43.26,19.08,65.21,.64,2.5,1.73,4.23,3.88,5.78,5.6,4.01,9.04,9.78,11.85,15.94,3.96,8.67,5.73,17.93,7.25,27.25,4.05,24.86,5.48,49.91,5.42,75.07-.02,7.77,.06,15.54,.23,23.3,.05,2.12-.52,2.85-2.77,2.96-3.53,.16-6.55-.45-9.16-3-1.49-1.45-3.32-2.56-5.48-4.19-.52,5.15-.43,9.76-.09,14.38,.31,.56,.18,1-.38,1.3-1.63,.14-3.26,.05-4.9,.07-8.53-.07-17.07,.15-25.6-.12-.49-.32-.85-.75-1.1-1.28-.78-2.21-.49-4.51-.57-6.78-.16-4.94-.54-5.32-5.61-5.45-1.52-.04-3.04-.01-4.56-.01-21.59,0-43.19-.01-64.78,0-7.08,0-7.08,.03-7.21,7.06-.03,1.67,.06,3.35-.48,4.97-.2,.55-.54,1.01-.99,1.38-6.29,.4-12.59,.2-18.88,.12-2.43-2.11-1.22-4.97-1.54-7.51-.24-1.96,.71-4.26-1.65-5.59-1.5-.44-3.02-.41-4.54-.41-24.01,0-48.03,0-72.04,0-1.52,0-3.04,0-4.5,.46-2.18,1.26-1.4,3.41-1.6,5.28-.28,2.6,.84,5.47-1.41,7.72-9.09,.33-18.18-.03-27.26,.19-2.67,.06-3.28-.95-3.27-3.44,.02-3.59,.58-7.22-.36-10.78Z" style="fill:#555;"/><path d="M184.66,159.58c4.82,2.22,9.11,5.18,12.72,9.09,5.57,7.63,8.83,16.49,13.16,24.78,1.47,2.8,2.96,5.61,4.19,8.54,5.89,12.14,11.67,24.34,19.53,35.4,1.15,1.62,1.95,3.42,2.45,5.35,3.33,4.66,4.89,10.05,6.33,15.48,2.92,11.01,5.88,22.01,8.74,33.03,.56,2.15,1.29,3.71,3.51,4.83,3.45,1.73,5.77,4.87,7.9,8.06,4.73,7.07,7.45,14.98,9.03,23.22,4.27,22.28,6.81,44.76,6.79,67.49-.01,11.71,.14,23.42,.16,35.13,0,1.14,.48,2.39-.41,3.48-1.52,.06-2.11-1.77-3.58-1.69-.21-.02-.43-.04-.64-.06-.41-.16-.77-.38-1.09-.67-2.23-2.1-4.57-4.03-7.47-5.18-3.91-1.25-7.73-2.72-11.91-2.89-3.17-.12-3.93-2.34-3.94-5.06-.04-7-.02-14-.02-20.98,.25-2.5-.83-4.46-2.53-6.17-.66-.7-1.28-1.44-2.07-2-.5-.28-1.04-.47-1.61-.6-.83-.14-1.65-.26-2.46-.45-2.8-.56-5.56-.37-8.29,.45-8.05,.88-15.99-1.28-24.02-.83-1.4,.08-2.65-.6-3.53-1.77-1.32-2.17-1.77-4.78-3.34-6.84-2.73-3.6-6.07-6.2-10.76-6.6-14.63-.41-29.26-.04-43.88-.19-2.25-.02-4.6,.4-6.69-.89-1.53-1.39-1.42-3.28-1.43-5.08-.04-18.38,.01-36.75-.05-55.13-.01-3.42,.92-5.7,4.48-6.91,3.46-1.17,6.43-3.4,8.9-6.15,9.55-11.23,14.29-24.73,18.15-38.64,1.11-3.41,1.81-6.93,2.69-10.4,.22-.84,.52-1.66,.68-2.51,.11-.64,.27-1.27,.45-1.89,.35-1.05,.44-2.14,.6-3.23,.76-3.58,1.2-7.22,1.95-10.8,.43-1.29,.62-2.63,.69-3.98,.05-.68,.18-1.35,.34-2.02,.55-1.55,.47-3.16,.52-4.77,.03-.99,.14-1.97,.38-2.93,.88-5.4,1.29-10.85,1.74-16.3,.6-6.28,1.31-12.53,1.48-18.85,.19-7.32,.41-14.67,2.16-21.84Z" style="fill:#fff;"/><path d="M78.67,176.04c3.75-5.99,9.44-9.71,15.39-13.13,2.72,.66,2.06,2.94,2.21,4.75,.3,3.58-.41,7.21,.57,10.76,.43,1.87,.34,3.78,.38,5.68,.15,3.38-.45,6.81,.57,10.14,.73,3.32-.18,6.79,.88,10.09,1.91,14.82,3.55,29.69,7.19,44.23,3.41,14.54,7.55,28.82,15.33,41.77,3.84,6.2,8.36,11.67,15.57,14.1,2.24,.76,3.07,2.17,3.07,4.44,0,19.65,0,39.3-.02,58.94,0,1.22,.02,2.47-1.08,3.34-1.97,1.11-4.13,.77-6.22,.78-14.05,.03-28.11,.01-42.15,.02-6.75,.38-12.26,2.7-14.8,9.61-2.28,5.82-2.3,5.79-8.47,5.89-4.64,.08-9.31-.42-13.92,.52-.47,.03-.94,0-1.4-.09-.88-.25-1.76-.16-2.63,.13-1.94,.4-3.91,.42-5.81-.05-4.61-1.13-8.59,0-12.04,3.19-1.66,1.85-1.74,4.11-1.74,6.42,0,6.68-.04,13.35,.01,20.03,.02,3.48-1.24,5.55-4.98,5.5-2.31-.03-4.45,.83-6.67,1.27-1.69,.52-3.45,.85-4.99,1.78-.36,.18-.72,.36-1.06,.57-.16,.11-.33,.21-.49,.32-.95,.59-1.94,1.13-2.81,1.84-.68,.6-1.35,1.2-2,1.82-.25,.27-.51,.52-.77,.77-.27,.25-.56,.47-.87,.68-.16,.09-.33,.17-.5,.25-.35,.12-.72,.18-1.09,.18-.53-.13-1.09-.22-1.41-.76,.35-14.44,.68-28.89,1.07-43.33,.48-17.81,2.2-35.5,5.18-53.06,1.22-7.2,2.64-14.35,5.45-21.14,1.69-4.1,3.74-7.98,6.53-11.44,1.25-1.55,2.52-3.51,4.35-3.91,4.21-.91,4.77-4.1,5.6-7.38,3.63-14.44,7.45-28.82,11.71-43.09,1.18-3.96,2.48-7.79,4.78-11.24,1.97-5.97,5.97-10.81,8.94-16.23,.45-.66,.91-1.32,1.28-2.03,.17-.37,.36-.72,.56-1.08,.89-1.63,1.6-3.34,2.4-5.02,3.08-6,6.09-12.03,8.9-18.16,2.89-4.63,4.39-9.94,7.18-14.62,.85-1.42,1.36-3.04,2.82-4.03Z" style="fill:#fff;"/><path d="M39.39,80.89c-5.3-8.86-6.77-18.82-8.15-28.77-.67-4.81-1.5-9.7-1.31-14.52,.59-14.59,1.31-29.2,7.27-42.92,5.04-11.6,13.11-19.9,25.08-24.45,10.59-4.02,21.56-6.38,32.69-8.15,1.5-.24,3-.51,4.5-.77,1.5,.42,2.05,1.64,2.49,2.95,2.06,6.1,6.46,9.52,12.59,10.95,7.53,.46,15.06,.09,22.59,.19,5.26,.03,10.52,0,15.78,.01,1.83,.01,3.65,.03,5.48,.04,.73,0,1.46,0,2.18,.02,8.74,.04,13.47-3.05,16.95-11.09,.48-1.1,.63-2.38,1.73-3.13,8.09,.36,15.87,2.48,23.75,4.08,6.28,1.28,12.35,3.21,18.16,5.92,6.84,2.58,11.85,7.45,16.34,12.98,.69,1.11,1.49,2.13,2.2,3.23,3.15,5.42,5.85,11.01,6.85,17.27,.18,.65,.3,1.31,.37,1.99,.09,.68,.14,1.36,.21,2.03,.13,.95,.53,1.82,.75,2.75,2.22,10.45,2.57,20.99,1.7,31.6-.94,2.66-.56,5.42-.64,8.15,0,.96,0,1.92-.05,2.88-.08,2.08-.79,4.04-1.2,6.06-.22,.83-.53,1.65-.7,2.5-.12,.62-.28,1.24-.46,1.85-.34,1.02-.41,2.08-.49,3.15-3.41,15.36-12.58,26.02-26.7,32.62-4.31,1.78-8.68,3.37-13.38,3.8-12.44,1.59-24.81,3.91-37.43,3.68-1.08-.02-2.1,.27-3.12,.57-2.44,.45-4.91,.27-7.36,.33-3.81-.02-7.62,0-11.42,0-1.87-.01-3.74-.03-5.61-.02-.8,.01-1.6,.01-2.41,0-2.16-.02-4.32,0-6.48,.02-5.56-.14-11.13,.28-16.69-.25-6.1-1.57-12.4-.29-18.6-1.4-5.49-.98-11.14-1.29-16.71-1.99-2.26,.08-4.41-.65-6.61-.94-.92-.06-1.84-.12-2.74-.34-.63-.16-1.22-.44-1.76-.8-.84-.66-1.84-.84-2.88-.9-10.27-2.35-18.16-8.24-24.47-16.47-.47-.66-.98-1.3-1.47-1.95-.12-.16-.24-.32-.36-.48-.21-.34-.36-.71-.46-1.09-.04-.39-.04-.79,0-1.18Z" style="fill:#fff;"/><path d="M97.11,161.49c3.91-1.79,7.82-3.58,11.96-5.48,.88,1.42,.41,2.95,.72,4.31,1.92,2.95,1.59,6.47,2.44,9.69,1.44,8.58,3.89,16.8,7.97,24.56,3.05,5.8,7.06,10.57,12.66,13.98,1.11,.65,2.32,1.07,3.57,1.39,2.26,.68,4.52,.67,6.78,.03,2.3-.48,4.27-1.63,6.13-3.01,6.31-4.83,10.06-11.41,12.9-18.65,.71-1.82,1.41-3.64,2.31-5.38,.44-.81,.57-1.69,.63-2.6,1.22-7.32,3.59-14.44,3.59-21.96,.06-1.84-.17-3.75,1.34-5.21l-.02,.04c.55-.63,1.15-.6,1.79-.14,3.38,1.84,6.77,3.68,10.15,5.52,2.3,11.41,.75,22.8-.1,34.19,.04,6.9-1.45,13.67-1.85,20.53,0,.49-.03,.99-.07,1.48-.49,1.56-1.04,3.11-.84,4.8-.01,.68-.03,1.35-.14,2.02-.3,1.28-.83,2.51-.76,3.86-.03,1.11,.06,2.23-.22,3.33-.42,.81-.76,1.64-.7,2.58-.53,3.59-1.47,7.11-1.91,10.72-.09,1.1-.88,2.02-.83,3.16-.03,.64-.06,1.29-.25,1.91-.42,.75-.71,1.53-.67,2.42-.22,2.57-1.5,4.87-1.85,7.41-.03,.44-.12,.86-.26,1.28-.52,.76-.63,1.63-.72,2.52-2.52,8.92-5.68,17.6-10.02,25.81-.75,1.42-1.06,3.26-2.98,3.8-1.51-.46-2.22-1.9-3.37-2.8q.1-2.68,1.5-5.04c-1.27,.27-1.97,1.42-3.14,1.52-.43,.05-.83-.04-1.2-.24-.9-.92-1.71-2.43-3-.39-.28,.3-.62,.5-1,.62-.6,.02-1.16-.15-1.69-.42-.66-.37-1.16-.92-1.66-1.48-.27-.24-.54-.48-.82-.7-.78-.5-1.7-.8-2.3-1.57-1.6-2.62-2.26-.05-3.26,.6-.79,.42-1.58,.51-2.35-.02-.21-.21-.42-.43-.62-.65-.2-.22-.4-.45-.6-.67-.2,.36,.27,.27,.34,.47,.3,.25,.56,.51,.82,.79,.14,.39,.15,.77,.03,1.16-.31,.78-.78,1.43-1.47,1.91-.53,.34-1.11,.55-1.74,.59-.42-.06-.79-.24-1.1-.52-.78-1.04-1.58-1.77-2.53-.15-.26,.33-.58,.58-.96,.75-.42,.04-.84,0-1.24-.13-.99-.2-1.52-1.27-2.7-1.38,.75,1.31,1.76,2.46,1.27,4.06-.14,.44-.38,.82-.7,1.16-.61,.4-1.28,.58-2,.63-.73,.02-1.44-.1-2.11-.4-5.55-7.01-7.69-15.53-10.42-23.76-1.41-4.26-2.48-8.63-3.72-12.96-.02-1.21-.18-2.39-.8-3.47-.1-.49-.16-.99-.17-1.49-3.15-13.75-5.19-27.66-6.49-41.7-.1-1.05-.45-2.06-.71-3.09-.16-1.32-.11-2.65-.12-3.97,.06-5.12-.92-10.18-.92-15.29-.52-6.22-.16-12.46-.59-18.68-.01-.83,0-1.65,.83-2.15Z" style="fill:#fff;"/><path d="M156.26,146.72c2.84,2.9,4.15,6.78,6.47,10.01,2.01,2.95,1.31,6,.32,9.05-1.41,3.32-1.67,6.86-2,10.39-.04,.46-.14,.91-.26,1.36-.35,1.07-.58,2.17-.58,3.31-1.09,6.99-4.3,13.01-8.43,18.63-2.32,3.28-5.47,5.24-9.42,5.93-1.68,.13-3.36,.11-5.05,.07-1.47-.05-2.86-.42-4.12-1.2-7.88-5.2-10.88-13.48-13.76-21.84-.69-2.9-2.01-5.67-1.81-8.76-.02-1.74,.2-3.5-.31-5.22-.13-.42-.23-.85-.31-1.28-.23-2.01-.39-4.01,.85-5.8,.29-.33,.58-.67,.86-1.01,1.78-3.92,3.07-8.09,6.04-11.38,1.07-1.19,.35-2.95,1.3-4.19,1.76-2.75,4.8-3.29,7.54-4.35,.69-.2,1.39-.32,2.1-.37,6.7-.41,13.24-.12,18.78,4.39,.88,.53,1.41,1.33,1.77,2.26Z" style="fill:#fff;"/><path d="M64.86,105.58c-4.63-1.86-9.22-3.76-13.4-6.57-4.5-3.03-8.1-6.76-10.38-11.71-.34-.97,.25-1.13,1-1.17,7.7,8.62,17.02,14.57,28.38,17.16,.7,0,1.39,0,2.06,.23,2.17,.36,4.35,.59,6.51,.94,11.08,1.08,22.07,3.11,33.25,2.94,1.9,.01,3.75,.56,5.65,.6,6.86,.69,13.74,.12,20.62,.31,.83,0,1.65,0,2.48,0,6.87-.17,13.75,.35,20.62-.28,1.87-.23,3.78-.16,5.63-.6,13.29-.03,26.38-2.27,39.52-3.83,4.18-.69,8.27-1.74,12.09-3.65,9.99-4.26,17.44-11.3,22.71-20.74,.35-.54,.67-1.11,1.02-1.65,.24-.41,.6-.58,1.06-.56,1.01,.56,.89,1.36,.49,2.23,.04,.28-.03,.52-.23,.73-.28,.38-.62,.73-.61,1.25-1.41,4.48-4.38,7.91-7.52,11.24-1.24,1.31-2.82,2.3-3.7,3.95-.1,.19-.2,.38-.29,.58-.27,.34-.58,.65-.9,.93-6.2,5.02-13.37,7.94-21.08,9.67-.85,.1-1.67,.31-2.5,.54-.84,.22-1.7,.33-2.56,.4-1.12,.05-2.18,.35-3.26,.64-1.16,.28-2.34,.34-3.52,.37-4.44,.03-8.79,.85-13.16,1.43-.97,.26-1.97,.35-2.97,.38-2.48,.1-4.99-.24-7.4,.61-1.52,.33-3.07,.32-4.61,.35-3.12,.11-6.29-.38-9.35,.66-5.47,.53-10.96,.14-16.44,.28-.55,.01-1.1,0-1.65,0-2.74-.04-5.48-.02-8.22,0-4.95-.13-9.91,.25-14.85-.25-2.55-.91-5.2-.66-7.83-.68-2.36-.06-4.73,.12-7.08-.31-2.25-.83-4.61-.55-6.93-.66-7.73-1.32-15.59-1.53-23.34-2.71-3.28-.5-6.64-.72-9.3-3.07Z" style="fill:#fcfdfd;"/><path d="M157.1,122.97c2.01,1.22,2.12,3.07,1.72,5.11-.95,4.86-1.48,9.78-1.78,14.73-2.04,.8-2.73-1.24-4.07-1.91-1.92-1.41-3.88-2.75-6.14-3.59-.96-.39-1.95-.64-2.95-.91-2.78-.59-5.55-.62-8.31,.08-2.79,.63-5.25,2.03-7.72,3.36-1.84,.99-3.07,.84-3.41-1.49-.26-5.14-1.76-10.15-1.79-15.32,2.37-1.91,5.21-2.24,8.07-2.26,6.63-.05,13.27-.15,19.9,.05,1.8,.21,3.51,.81,5.26,1.23,.45,.24,.85,.54,1.22,.9Z" style="fill:#feffff;"/><path d="M164.62,155.94c.86-.72,1.72-1.45,2.59-2.17,2.51,.4,1.81,2.43,1.84,3.92,.16,7.59-1.85,14.84-3.58,22.13-3.19,10.49-7.04,20.61-16.22,27.59-2.2,1.87-4.91,2.54-7.62,3.23-1.17,.05-2.34,.04-3.51,.02-1.65-.15-3.18-.72-4.69-1.34-9.57-4.81-13.51-13.91-17.3-23.03-1.68-4.03-2.72-8.33-3.67-12.61-.02-.94-.19-1.85-.48-2.75-.19-.95-.51-1.87-.47-2.86-.79-3.74-1.3-7.48,.02-11.22,1.27,.86,2.55,1.71,3.82,2.57,2.22,3.55,1.22,7.74,2.33,11.51,.17,.7,.2,1.41,.21,2.13-.02,3.47,1.19,6.69,2.1,9.97,2.66,7.86,5.69,15.49,12.81,20.58,1.43,1.01,2.95,1.73,4.76,1.61,1.5,0,3.01,0,4.51,0,4.07-.54,7.03-2.82,9.42-6,4.66-6.03,7.6-12.8,8.85-20.31,.93-6.09,2.6-12.06,2.89-18.26,.07-1.61,.22-3.34,1.39-4.68Z" style="fill:#fdfdfd;"/><path d="M170.96,120.19c-4.46,1.5-9.08,1.74-13.73,1.78-1.24,.05-2.49,.09-3.73-.03-.61-.13-1.21-.35-1.84-.37-.84-.03-1.68,.05-2.51-.11-.35-.22-.6-.54-.72-.94-.3-1.17,.28-2.66-1.21-3.4-.73-.03-1.42,.16-2.13,.28-.76,.12-1.51,.12-2.27,0-.74-.12-1.45-.37-2.17-.53-.54-.07-1.08-.08-1.62,0-.73,.16-1.44,.39-2.17,.53-.76,.13-1.52,.12-2.28,.01-.72-.11-1.42-.32-2.15-.29-1.5,.75-.89,2.23-1.18,3.39-.13,.41-.37,.72-.73,.95-1.05,.18-2.11,.07-3.16,.11-.89-.04-1.6-.45-2.2-1.09-.31-.65-.09-1.16,.42-1.6,.45-.28,.95-.46,1.4-.67-.04,0,.21-.27,.21-.27,0,0-.11-.34-.14-.33-.41-.2-.84-.26-1.26-.37-.71-.18-1.4-.36-2.11-.5-.62-.09-1.23-.18-1.84-.3-.46-.08-.9-.19-1.34-.34-3.82-.99-3.88-1.07-2.53-3.06,12.37-.36,24.73-.05,37.1-.16,1.8-.02,3.62,.18,5.4-.26,1.8-.85,3.73-.6,5.62-.64,2.82-.16,5.68,.37,8.48-.39,1.43-.68,2.97-.47,4.48-.52,2.46-.14,4.99,.44,7.35-.75,1-.18,2.01-.15,3.02-.16,2.52,.08,5.05-.82,7.57,0,.71,.28,1.32,.66,1.45,1.5-4.14,3.6-9.5,4.23-14.42,5.96-.62,.14-1.24,.28-1.85,.45-.57,.17-1.16,.28-1.75,.37-.74,.14-1.48,.31-2.2,.55-.53,.17-1.08,.24-1.64,.26-.89,.04-1.79-.03-2.65,.28-.33,.12-.67,.18-1.02,.2-.67,.06-1.4-.15-1.93,.47Z" style="fill:#f8fafa;"/><path d="M205.74,176.81c8.5,9.3,14.65,20.1,19.98,31.4,4.55,9.63,8.03,19.67,11.11,29.85,.29,.96-.27,1.17-1.05,1.2-6.7-8.29-11.45-17.75-16.08-27.25-1.86-3.81-3.47-7.74-5.52-11.46-.66-1.87-1.44-3.69-2.36-5.44-.18-.33-.33-.67-.47-1.01-.23-.49-.45-.99-.7-1.48-.18-.32-.34-.65-.51-.98-.28-.5-.55-1-.82-1.51-.79-1.61-1.64-3.2-2.38-4.83-.24-.5-.47-1.01-.71-1.51-.17-.31-.31-.63-.45-.96-.23-.47-.45-.94-.66-1.42-.14-.32-.25-.65-.34-.99-.17-.51-.33-1.01-.49-1.53-.04-.18-.07-.36-.11-.54-.02-.38,.04-.74,.17-1.1,.35-.48,.74-.85,1.37-.43Z" style="fill:#fdfdfd;"/><path d="M117.02,113.66c.95,1.95,3.52,.2,4.54,1.99,.19,.36,.14,.69-.14,.99-.18,.08-.36,.15-.53,.23-.51,.05-1.03,.02-1.5,.17-.18,.19-.28,.41-.25,.69,.13,.24,.3,.41,.56,.5,.43,.11,.86,.14,1.3,.19,.5,.05,.98,.15,1.45,.31,.65,.24,1.3,.47,1.94,.74,.3,.18,.56,.42,.78,.7,.75,.03,1.45,.18,1.87,.89-3.65,1.83-7.36,.11-11.04,.17-5.52-.44-10.83-2.02-16.24-3-5.27-.84-10.27-2.64-15.35-4.2-1.31-.4-2.62-.87-3.29-2.25,.19-1.23,1.16-1.53,2.16-1.81,2.54-.43,5.04,.38,7.58,.23,1.9,.35,3.79,.8,5.74,.84,.48,0,.96,0,1.45,0,1.68,.06,3.38-.13,5.05,.21,1.78,1.06,3.76,.6,5.66,.7,.75,0,1.49,0,2.24,0,2.02,.54,4.71-1.33,6.03,1.68Z" style="fill:#fafbfb;"/><path d="M48.26,228.85c4.64-14.24,10.73-27.78,19.4-40.07,.86-.22,1.22,.31,1.48,.99,.09,3.67-2.37,6.35-3.76,9.44-1.04,2.32-2.03,4.65-3.01,6.99-.83,1.64-1.66,3.29-2.23,5.05-.21,.55-.48,1.08-.76,1.59-.61,1.18-1.23,2.36-1.76,3.59-.15,.36-.32,.71-.5,1.05-.26,.54-.54,1.07-.79,1.62-2.41,3.67-3.6,8.14-7.18,11.06-.74-.13-1.23-.44-.89-1.31Z" style="fill:#f9fafa;"/><path d="M214.84,199.7c3.31,5.11,5.21,10.92,7.95,16.31,3.99,7.85,8.58,15.33,13.22,22.8,.55,.49,1.03,1.1,1.88,1.07,1.66,1.8,.04,2.24-1.18,2.85-4.85-5.89-8.48-12.57-12.31-19.12-3.99-6.83-7.36-13.97-10.48-21.24-.46-1.16-1.24-2.42,.92-2.68Z" style="fill:#6b6a6a;"/><path d="M249.49,9.62c.17,.22,.21,.45,.13,.72,.77,1.17-.08,2.66,.74,3.82,3.09,15.9,2.53,31.74-.87,47.52-1.46,.12-1.55-.96-1.72-1.96-.15-1.54,.41-2.99,.56-4.5,.66-2.79,.02-5.65,.47-8.46,1.47-9.3,1-18.58-.17-27.85,0-1.02-.02-2.03-.36-3.01-.09-1.47-.69-2.89-.5-4.39,.17-.99,.3-2.03,1.71-1.89Z" style="fill:#ebecec;"/><path d="M180.99,193.32c.59-10.07,1.17-20.15,1.06-30.24-.02-1.51-.04-3.01-.06-4.52,1.62,.85,.69,2.46,1.13,3.68,.93-.78,0-2.06,.78-2.86,.09-.09,.29-.12,.41-.09,.13,.04,.23,.18,.35,.28-.33,8.58-.52,17.17-1.05,25.73-.32,5.23-.28,10.51-1.54,15.65-1.66-2.36,.29-5.23-1.08-7.64Z" style="fill:#8b8b8b;"/><path d="M198.38,111.79c-.39-.29-.77-.57-1.16-.86,.92-2.94,3.88-.88,5.45-2.23,.87-.41,1.8-.34,2.72-.38,1.14,.06,2.24-.12,3.24-.72,5.7-.63,10.64-3.58,16-5.25,.74,.13,1.3,.43,1.14,1.33-4.87,3.96-10.6,6.24-16.44,8.27-3.19,1.13-6.45,1.48-9.79,.84-.5-.2-.88-.54-1.15-1Z" style="fill:#f0f2f2;"/><path d="M214.84,199.7c-1.12,.61-.87,1.7-.92,2.68-5.88-11.05-11.46-22.26-16.54-33.71,2.19,1.09,3.55,3.2,5.55,4.52,.17,.93,.38,1.83,1.07,2.54,.56,.57,.19,1.47,.75,2.04-.01,.32-.02,.63-.04,.95v.02c.72,.41,.98,1.03,.88,1.82-.41,.45-.34-.29-.27,.32,.03,.28,.36,.44,.66,.51,.52,.12,.64,.49,.6,.97-.65,.68,.1,.63,.42,.8,.42,.22,.56,.57,.5,1.03-.08,2.7,1.89,4.61,2.71,6.97,.42,.63,.53,1.42,1.03,2.01,.32,.28,.14,1.13,.96,.86,1.24,1.73,2.15,3.62,2.65,5.7Z" style="fill:#787777;"/><path d="M97.79,111.89l-.99-.08c-1.86-.76-3.91,.12-5.77-.64-2.59-.06-5.17-.13-7.76-.19-6.33,.51-12.36-.68-18.15-3.23-.49-.34-.58-.76-.25-1.26,0-.3,0-.61-.01-.91,10.83,2.57,21.98,2.85,32.91,4.65,.29,.2,.46,.47,.51,.82-.05,.35-.22,.63-.5,.83Z" style="fill:#858080;"/><path d="M97.68,182.34c.71,5.16,1.1,10.34,1.01,15.55-1.33,1.91,.39,4.07-.49,6.02-.17,.16-.35,.31-.52,.47-1.21-3.2-.67-6.58-.96-9.87-.89-3.4,.41-6.95-.74-10.33-.06-1.73-.12-3.46-.18-5.19-.37-5.57-.68-11.14,.16-16.7,.24-.48,.59-.8,1.15-.8-.04,.48-.08,.97-.13,1.45,.98,6.44-.36,12.97,.7,19.4Z" style="fill:#848383;"/><path d="M78.67,176.04c-2.6,6.62-5.66,13.01-9.2,19.17-1.71-.68-1.65-1.87-.92-3.25,.57-1.08,1-2.17,.49-3.4,.43-1.64,1.37-3.02,2.21-4.46l-.07,.06c.25-.14,.36-.31,.33-.52-.04-.22-.09-.32-.16-.32,2.25-1.43,3.54-3.62,4.74-5.91,.51-.97,1.4-1.51,2.58-1.38Z" style="fill:#a1a4a4;"/><path d="M49.1,229.69c2.22-3.9,4.44-7.8,6.66-11.69,.35-.35,.7-.7,.72-1.25-.05-.22,.02-.41,.2-.56,2.16,.31,1.27,1.6,.88,2.72h0c-.57,.46-.35,1.33-.94,1.77-2.99,5.72-6.03,11.41-10.02,16.53-.65-2.24-.89-4.44,.61-6.47,.89,.12,1.32-.58,1.89-1.05Z" style="fill:#6f6e6e;"/><path d="M164.54,180.53c1.66-7.35,3.47-14.68,3.68-22.26,.04-1.52,.93-3.37-1.02-4.49,.29-.31,.57-.62,.86-.92,.37-.08,.73-.04,1.08,.13l.08,.04c.85,1.76-.25,3.77,.71,5.52,.05,6.38-1.55,12.52-2.84,18.7-.28,1.32-.54,2.65-.82,3.97-.08,.4-.32,.58-.73,.54-.57-.21-.68-.79-.99-1.22Z" style="fill:#8c8b8b;"/><path d="M205.46,113.68c-4.94,1.69-9.9,3.28-15.11,3.94-.67,.25-1.41,.21-2.05,.56-.86,.11-1.72,.21-2.58,.32-.88,.43-1.18-.07-1.3-.83,.34-.68,1.06-.73,1.65-1,.64-.21,1.26-.46,1.92-.63,3.65-1.35,7.25-2.84,11.09-3.6,2.11,.53,4.66-1.26,6.39,1.23Z" style="fill:#e8e9e9;"/><path d="M64.98,107.25c6.1,1.24,12.19,2.49,18.29,3.73-.71,.15-1.47,.19-1.93,.89-1.8,1.64-3.67,.99-5.55,.16-4.34,0-7.91-2.33-11.73-3.9-.2-.82,.01-1.2,.91-.88Z" style="fill:#e5e9e9;"/><path d="M115.99,121.23c3.68-.06,7.36-.11,11.04-.17,1.21-.04,2.41-.08,3.62-.11,6.12-1.75,12.24-1.84,18.36,.03,.92,.12,1.83,.24,2.75,.36,.3,.17,.39,.33,.28,.47-.11,.13-.22,.19-.33,.19-4.1,.09-8.2,.22-12.3,.27-5.6,.06-11.21-.31-16.76,.78-.72-1-1.81-.87-2.83-.95-1.31-.1-2.72,.18-3.82-.86Z" style="fill:#9d7d7d;"/><path d="M186.38,117.37c-.52,.1-1.05,.2-1.57,.3-.51,.5-1.03,.98-1.77,1.11-.39,.13-1.07-.24-1.06,.6-2.97,1.63-6.16,.72-9.27,.8-.29-.22-.36-.41-.23-.57,.12-.14,.23-.21,.35-.21,.29-.03,.58-.09,.85-.2,.8-.68,1.96-.04,2.75-.75l1.81-.3c.57-.3,1.31-.13,1.8-.66,.59-.08,1.18-.15,1.77-.23,.37-.18,.74-.36,1.1-.55,5.16-1.64,10.31-3.29,15.47-4.93,0,0-.06,.38-.06,.38,.33,.14,.44,.29,.34,.44-.1,.15-.21,.23-.32,.23-3.51,1.67-7.24,2.73-10.92,3.94-.38,.14-.73,.33-1.05,.58Z" style="fill:#9e9696;"/><path d="M75.8,112.02c1.85-.05,3.7-.11,5.55-.16,6.13,2.12,12.27,4.25,18.4,6.37-3.57,.36-6.97-.33-10.28-1.59-.93-.9-2.22-1.01-3.34-1.5-2.57-.08-4.75-2.26-7.5-1.37-1.39,.14-2.22-.62-2.83-1.75Z" style="fill:#998e8e;"/><path d="M164.62,155.94c-1.21,7.09-.88,14.38-2.75,21.39-.23,.86-.57,1.69-.85,2.54-.63-.1-1.03-.48-1.3-1.03-.15-.39-.09-.74,.18-1.05,.13-.26,.16-.54,.08-.82,.86-3.65,1.07-7.42,1.83-11.09,1.45-2.94,.37-6.13,.91-9.15l1.9-.79Z" style="fill:#9c9c9c;"/><path d="M248.51,59.66c.11,.78,.2,1.57,.99,2.02-.93,6.11-2.46,12.04-5.33,17.56-.16-.68-.14-1.44-.76-1.94-.18-3.89,2.55-7.13,2.5-10.99,.04-.7,.18-1.36,.47-2,.86-1.48-.12-3.8,2.13-4.65Z" style="fill:#e3e4e4;"/><path d="M245.79,5.18c-1.83-6.04-3.66-12.09-7.01-17.53,.28-.3,.62-.45,1.03-.45,.84,.15,1.15,1.03,1.87,1.34,.41,.19,.58,.51,.54,.95-.23,.22-.29,.43-.19,.63,.09,.19,.18,.28,.27,.28l-.05-.06c.48,.55,.33,1.42,.96,1.89l-.04-.06c.48,.55,.33,1.41,.95,1.89l-.04-.06c.64,1.84,1.48,3.61,2.11,5.46,.31,1.5,1.18,2.87,1.07,4.47-.27,.67-.75,1.1-1.47,1.25Z" style="fill:#989999;"/><path d="M124.43,138.36c.71,.75,.91,2.3,2.62,.85,2.27-1.91,4.95-3.22,7.99-3.61,1.12-.31,2.27-.78,3.13,.49-2.8,3.03-7.43,2.67-10.32,5.55-.79,.44-1.58,.88-2.54,.54-.57-1.21-1.45-2.35-.89-3.83Z" style="fill:#9f9999;"/><path d="M111.52,156.85c-.49,3.99,.49,7.89,.76,11.84-.58,.62-.01,1.77-1.02,2.19-1-3.45-1.6-6.95-1.47-10.55,.93-.84,.43-1.98,.63-2.97,.12-.62,.35-1.21,1.11-.5Z" style="fill:#8d8f8f;"/><path d="M246.53,4.22c-.27-1.56-.54-3.11-.8-4.67,.35-.31,.7-.31,1.05,0,1.37,3.23,2.53,6.52,2.72,10.07-.74,.43-.87,1.18-.96,1.94-2.3-.82-1.34-3.07-2.02-4.61-.2-.91-.22-1.82,.02-2.72Z" style="fill:#dcdddd;"/><path d="M116.89,171.57c-1.36-3.94-1.01-8.11-1.55-12.15,1.05,.59,2.13,1.07,3.38,.94,.1,.29,.12,.59,.06,.89-2.27,1.9-1.36,4.26-.93,6.55l-.03-.05c.58,.48,.52,1.1,.41,1.74-.3,.79-.43,1.68-1.33,2.09Z" style="fill:#919797;"/><path d="M95.95,162.29c-.05,5.57-.11,11.13-.16,16.7-1.01-3.93-.41-7.97-.77-11.94-.13-1.42,.47-3.02-.96-4.14,.44-.79,1.18-.66,1.89-.62Z" style="fill:#979898;"/><path d="M198.34,112.84c.02-.23,.01-.45-.02-.67,3.66-.71,7.34-.24,11.01-.21-1.02,1.17-2.28,1.81-3.87,1.73-2.22-1.63-4.76-.45-7.12-.84Z" style="fill:#8a7f7f;"/><path d="M78.62,113.77c.83-1.31,2.02-.92,3.13-.6,1.68,.48,3.34,1.07,5,1.61,.27,.24,.37,.48,.28,.73-.09,.25-.18,.37-.27,.37-2.85-.18-5.44-1.36-8.15-2.11Z" style="fill:#ced7d7;"/><path d="M153.55,140.3c1.16,.84,2.32,1.67,3.49,2.51,.23,1.4,.1,2.73-.78,3.91-.59-.35-1.18-.71-1.77-1.06-.31-.25-.43-.57-.38-.97,.05-1.12-.82-1.76-1.36-2.57-.23-.35-.37-.74-.43-1.15,.18-.63,.41-1.18,1.22-.67Z" style="fill:#958e8e;"/><path d="M133.66,141.38c-2.53,1.13-5.07,2.27-7.6,3.4-.08-.25-.06-.49,.05-.73-.72-1.59,.97-1.6,1.53-2.36,1.55-.69,2.92-1.92,4.8-1.72,.65,.26,1.09,.7,1.23,1.4Z" style="fill:#9f9a9a;"/><path d="M64.98,107.25c-.3,.29-.61,.58-.91,.88-1.94-.63-3.78-1.43-5.5-3.21,2.55-.15,4.23,1.52,6.3,1.58,.01,.26,.05,.51,.11,.75Z" style="fill:#afb7b7;"/><path d="M71.26,184.1c-.09,1.75-1.27,3.08-1.75,4.68,.29,.84-.11,1.08-.86,1.01-.33-.34-.66-.68-.98-1.02,.87-1.81,1.77-3.6,3.6-4.67Z" style="fill:#dbe1e1;"/><path d="M232.25,98.32c-.83,1.63-2.18,2.7-3.76,3.53-.58-.25-1.12-.54-1.17-1.28,1.37-1.1,2.32-2.91,4.48-2.68,.15,.14,.3,.28,.45,.43Z" style="fill:#bac0c0;"/><path d="M39.39,80.89c.56,.11,.76,.47,.71,1.01-.24,.33-.19,.62,.14,.86l-.02-.11c.41,.58,.58,1.23,.57,1.94-.09,.47-.35,.84-.75,1.09-.63-1.54-3.02-2.85-.64-4.8Z" style="fill:#b3b2b2;"/><path d="M227.6,100.99c.3,.29,.59,.58,.89,.87-.86,.68-1.61,1.53-2.72,1.83-.31-.29-.62-.58-.94-.87-.03-2.05,1.31-2.03,2.77-1.83Z" style="fill:#d3dbdb;"/><path d="M169.92,158.54c-1.45-1.68-.56-3.67-.71-5.52,.29,.03,.58,.08,.86,.13,.22,1.8,.14,3.6-.16,5.39Z" style="fill:#6f7676;"/><path d="M86.77,115.88c0-.37,0-.73-.01-1.1,.85,.29,1.7,.58,2.56,.88,.68,.23,.5,.59,.15,.98-.95-.07-1.97,.11-2.69-.76Z" style="fill:#b8bebe;"/><path d="M127.98,142.16c-.39,.87-1.68,.84-1.88,1.89-.84-.38-.98-1.05-.79-1.86,.58-.32,1.15-.63,1.73-.95,.52,.1,.83,.41,.94,.92Z" style="fill:#dad9d9;"/><path d="M153.62,121.43c1.26-.23,2.54-.57,3.61,.54-.04,.34-.09,.67-.13,1.01,0,0-.36,.07-.36,.07l-.35-.12c-.64-1.03-2.6,.41-2.77-1.49Z" style="fill:#9d7d7d;"/><path d="M40.03,85.69l.2-1.37c1-.17,1.48,.56,2.03,1.16,.14,.44,0,.78-.39,1.02-.27,.27-.53,.54-.8,.81-.64-.35-.94-.92-1.04-1.61Z" style="fill:#c2c6c6;"/><path d="M49.1,229.69c-.43,.7-.09,2.78-1.89,1.05,.25-.69,.32-1.47,1.05-1.89,.28,.28,.56,.56,.84,.84Z" style="fill:#bebdbd;"/><path d="M237.88,239.88c-1.75,1.61-1.45-.37-1.88-1.07,.27-.25,.55-.51,.82-.76,.7,.41,.85,1.14,1.05,1.83Z" style="fill:#aeacac;"/><path d="M203.7,176.05c-.62-.86-1.69-1.59-.77-2.86,.49,.33,.95,.68,.94,1.36,.41,.55,.35,1.05-.16,1.5Z" style="fill:#a4a8a8;"/><path d="M203.7,176.05c.05-.5,.11-1,.16-1.5,.8,.61,1.58,1.24,1.87,2.26-.33,.32-.66,.64-.99,.96-.63-.4-.87-1.04-1.04-1.72Z" style="fill:#ced4d4;"/><path d="M182.78,118.46c.68-.26,1.35-.53,2.03-.79,.3,.28,.6,.56,.9,.84-.85,.79-1.87,.81-2.93,.7-.28-.17-.38-.33-.28-.5,.09-.16,.19-.25,.29-.25Z" style="fill:#cccdcd;"/><path d="M250.37,14.16c-1.25-1.08-.77-2.49-.74-3.82,.85,1.16,.85,2.48,.74,3.82Z" style="fill:#dcdddd;"/><path d="M232.1,96.41q1.52,.11,.97,.93c-.17,.13-.34,.25-.5,.38-.19-.08-.38-.17-.58-.25-.2-.41-.16-.77,.17-1.1l-.06,.05Z" style="fill:#aaaeae;"/><path d="M188.3,118.18c.55-.68,1.27-.75,2.05-.56-.58,.56-1.27,.75-2.05,.56Z" style="fill:#cccdcd;"/><path d="M182.78,118.46c.02,.25,.02,.49,0,.74-.25,.12-.52,.18-.8,.18-.15-.23-.31-.47-.46-.7,.42-.07,.84-.15,1.26-.22Z" style="fill:#d1e0e0;"/><path d="M172.83,119.4c-.08,.25-.12,.51-.12,.78-.58,0-1.16,0-1.75,0,.4-.8,1.09-.91,1.87-.79Z" style="fill:#d1e0e0;"/><path d="M171.84,153.05c-.6,.05-1.19,.1-1.79,.14,.49-1.31,1.12-.99,1.79-.14Z" style="fill:#6f7676;"/><path d="M243.32,81.23c-.07-.55,.15-.96,.61-1.25,.07,.55-.13,.97-.61,1.25Z" style="fill:#e3e4e4;"/><path d="M232.48,97.35c.2,.03,.4,.02,.59-.01-.02,.55-.32,.85-.83,.98,0,0-.05-.04-.05-.04-.3-.43-.23-.75,.28-.93Z" style="fill:#bac0c0;"/><path d="M71.36,183.33c.34,.16,.42,.39,.21,.63-.09,.1-.25,.14-.37,.2-.09-.31-.03-.59,.17-.84Z" style="fill:#c5c8c8;"/><path d="M169.14,152.98c-.36-.04-.72-.08-1.08-.13,.41-.41,.78-.45,1.08,.13Z" style="fill:#6f7676;"/><path d="M154.46,297.52c-.32-.33-.63-.65-.95-.98-.18-.22-.27-.47-.27-.72,0-.26,.03-.4,.07-.4,.52-1.08,1.43-1.9,2.01-2.93,.4-.68,.79-1.37,1.37-1.93,.17-.1,.35-.19,.52-.29,3.15-3.4,4.61-7.73,6.44-11.84,2.65-5.96,4.46-12.24,6.5-18.42,.41-.63,.35-1.41,.66-2.07-.08-.24-.03-.45,.14-.63,1.82,0,1.25,1.12,.99,2.09-2.73,12.11-7.5,23.38-14.02,33.91-.95,1.53-2.3,2.81-3.46,4.2Z" style="fill:#7a7979;"/><path d="M177.18,228.5c-.24-1.11-.11-2.19,.31-3.24,.61-1.27,.04-2.72,.63-4,.05-.48,.1-.96,.15-1.44,.21-.09,.42-.19,.63-.28,.45,.23,.67,.6,.67,1.1-.03,1.37,.19,2.76-.31,4.1-.06,.5-.13,1-.19,1.5-.82,1.2-.03,2.7-.73,3.92-.24,3.94-.87,7.81-1.96,11.6-.78,.91-.27,2.14-.76,3.12-.09,.48-.18,.95-.28,1.43-.41,.25-.78,.21-1.09-.16-.09-.43-.12-.86-.12-1.29-.03-.87,.01-1.73,.31-2.56,.15-3.94,1.44-7.68,2.03-11.54,.48-.68,.51-1.51,.7-2.28Z" style="fill:#848484;"/><path d="M180.99,193.32c1.91,2.33,.35,5.14,1.08,7.64,.07,5.54-.63,10.98-1.84,16.37-1.31-.66-.33-2.07-.97-2.94-.12-7.08,1.4-14.02,1.73-21.07Z" style="fill:#828282;"/><path d="M174.57,245.39l.03,.95c.6,.7,.33,1.46,.15,2.21-.39,3.76-1.47,7.33-2.8,10.85-.12-.8-.17-1.62-.98-2.09,.2-2.87,1.31-5.52,1.99-8.28,.33-.67,.36-1.43,.57-2.13,.09-.49,.17-.98,.26-1.47,.25-.42,.51-.43,.8-.04Z" style="fill:#807e7e;"/><path d="M179.26,214.39c.97,.77,.63,1.97,.97,2.94-.09,.82-.19,1.64-.28,2.46-.26,.44-.52,.45-.79,0h.01c-.78-1.53-.62-3.09-.11-4.66-.04-.27,.03-.52,.19-.74Z" style="fill:#6b6b6b;"/><path d="M179.16,219.8c.26,0,.52-.01,.79,0,.11,1.7,.18,3.39-.68,4.95-.03-1.65-.07-3.3-.1-4.95Z" style="fill:#898989;"/><path d="M178.34,230.17c0-1.35-.53-2.81,.73-3.92,.14,1.38,.09,2.72-.73,3.92Z" style="fill:#898989;"/><path d="M175.62,244.89c-.08-1.12-.38-2.3,.76-3.12,0,1.1-.12,2.18-.76,3.12Z" style="fill:#8a8b8b;"/><path d="M174.74,248.56c-.05-.74-.1-1.47-.15-2.21,.25-.01,.5-.02,.75-.03,.13,.84-.03,1.59-.6,2.24Z" style="fill:#8a8b8b;"/><path d="M98.87,201.24c1.36,5.73,1.44,11.64,2.34,17.45,1.36,8.8,2.65,17.61,4.66,26.29,.17,.73,.12,1.5,.17,2.25-.71,.56-.15,1.78-1.13,2.21-2.69-9.31-4.06-18.88-5.4-28.44-.77-5.52-1.76-11.03-1.83-16.63,0,0,.28-.33,.28-.33,.66-.82-.22-2.13,.9-2.81Z" style="fill:#7d7d7d;"/><path d="M104.9,249.45c.18-.84,.26-1.72,1.13-2.21,.18,.15,.21,.32,.09,.53,.49,.98,.01,2.2,.75,3.13,2.91,9.28,4.96,18.84,9.03,27.75,1.39,3.04,2.64,6.14,4.58,8.89,.71,.4,.65,.94,.28,1.53-.33,.38-.66,.75-1,1.13-7.55-12.64-11.72-26.5-14.86-40.75Z" style="fill:#797979;"/><path d="M68.64,189.79c.29-.34,.58-.67,.86-1.01,1.3,.94,.37,1.9-.1,2.7-.78,1.32-.74,2.5,.07,3.73-2.73,6.26-5.67,12.41-9.12,18.32-.33-.27-.54-.61-.64-1.02-.01-2.25,1.62-4.1,1.54-6.37,1.92-5.69,5.32-10.72,7.38-16.35Z" style="fill:#999;"/><path d="M60.23,212.52c.04,.34,.09,.67,.13,1.01-.62,1.96-1.38,3.84-2.8,5.38-.11-.97,.19-2.06-.88-2.72,.59-1.23,1.18-2.46,1.77-3.69,.28-.22,.59-.36,.93-.43,.37-.02,.65,.12,.85,.44Z" style="fill:#7f8080;"/><path d="M95.97,184.18c1.76,3.33,.64,6.88,.74,10.33-1.08-3.38-.65-6.88-.74-10.33Z" style="fill:#979898;"/><path d="M56.62,220.69c-.01-.76,.2-1.4,.94-1.77,.04,.78-.33,1.34-.94,1.77Z" style="fill:#7f8080;"/><path d="M220.19,35.16c.05,12.52,.09,25.04,.15,37.55,.01,2.34-.62,4.46-2.05,6.32-.39,.29-.73,.23-1.04-.12-.71-1.46,.74-2.51,.87-3.77-.54,1.6-1.19,1.96-2.29,.37-.21-.47-.34-.94-.42-1.44-.44-23.5-.18-46.99-.13-70.48,.01-5.11-.92-9.29-5.73-11.84-.52-.65-.59-1.33-.1-2.03,4.34-2.27,5.43,2.26,7.62,3.52-1.69-2.53-4.53-4.18-7.69-5.41-.25-.39-.32-.8-.19-1.24,.42-.21,.83-.22,1.25,0,6.28,1.39,9.79,5.13,9.84,11.22,.1,12.16-.05,24.31-.09,36.47-.55,.22-.99,.08-1.31-.42-1.05-9.5-.02-19.04-.44-26.63,.02,7.46-.04,16.86,.02,26.25,.02,.78,.27,1.52,.24,2.3-.62,10.64-.06,21.28-.27,30.72,.42-9.46-.68-20.13,.52-30.78,.21-.6,.62-.8,1.22-.59Z" style="fill:#969696;"/><path d="M61.05,78.52c-2.04-2.08-1.8-4.73-1.8-7.3-.02-20.09-.01-40.18,0-60.27,0-4.26,.03-8.52,0-12.79-.02-2.51,.46-4.83,2.12-6.81,.84-.12,1.1,.4,1.22,1.08-.1,.61-.4,1.12-.77,1.61,2.02-2.43,3.52-5.71,7.64-4.8,.28,.34,.43,.73,.45,1.17-1.94,2.74-5.33,4.28-6.44,7.72-.51,.78-1.21,1.43-1.61,2.3-.62,10.48-.17,20.96-.22,31.43,.79,1.95,.68,3.9,0,5.85-.2,10.65,.14,21.3-.16,31.93-.09,.65-.31,1.24-.76,1.7,.4,0,.77,.07,1.15,.18,.8,.54,.82,1.29,.57,2.1-.71,1.26-.23,2.7-.58,4.02-.16,.38-.42,.68-.79,.87Z" style="fill:#919191;"/><path d="M212.17,83.7c-1.28,1.14-2.87,.86-4.36,.86-22.67-.02-45.35-.06-68.02-.1,0-1.1,.81-1.47,1.66-1.79,9.27-.69,18.55-.23,27.82-.29,12.02-.08,24.04-.04,36.05-.02,1.12-.03,2.28,.08,3.31-.53,.36-.17,.76-.27,1.15-.32,.39,.06,.73,.23,1.02,.48,.53,.51,1.09,1,1.36,1.72Z" style="fill:#a8bdbd;"/><path d="M139.02,84.39c-10.2,.05-20.4,.12-30.61,.15-11.73,.03-23.46,.06-35.18,.02-1.92,0-3.99,.53-5.73-.83,.3-.43,.7-.73,1.2-.92,.75-.27,1.53-.34,2.32-.38,.82-.05,1.64-.06,2.47-.07,19.49-.03,38.98-.02,58.46,0,2.11,0,4.27-.28,6.32,.59,.59,.31,.84,.79,.77,1.45Z" style="fill:#aac1c1;"/><path d="M207.79,103.94c-4.82,1.45-9.84,1.67-14.78,2.2-8.58,.92-17.14,2.32-25.81,2.05-.55-.55-1.58-.07-2-.92,.94-.62,2.02-.59,3.07-.61,12.12-.26,24.09-1.94,36.07-3.61,.74-.1,1.51-.03,2.27-.04,.43,.26,1.03,.31,1.17,.93Z" style="fill:#a29a9a;"/><path d="M246.86,6.85c1.52,1.23,.29,3.43,1.67,4.7,.11,1.49,.22,2.98,.33,4.47,.25,.63,.19,1.35,.6,1.92,.89,8.29,1.15,16.61,.9,24.95-.04,1.49,.28,3.06-.68,4.41-1.13-.57-.94-1.76-1.27-2.7-.16-.4-.14-.79,.08-1.17,.86-11.04-.04-21.98-1.92-32.87-.25-.63-.15-1.38-.63-1.93,.01-.6,.02-1.2,.03-1.8,.3-.41,.6-.41,.88,.02Z" style="fill:#a6a6a6;"/><path d="M246.71,66.26c-.6,3.83-2.06,7.4-3.31,11.04-.15,.27-.23,.55-.26,.86-.31,.23-.51,.54-.59,.93-5.06,9.05-12.09,16.05-21.44,20.63-.53,.26-1.13,.38-1.7,.56-.24-.25-.33-.5-.26-.75,.07-.26,.15-.39,.23-.39,6.81-3.56,12.88-8.01,17.57-14.22,4-5.3,6.82-11.12,8.09-17.65,.27-.43,.41-.94,.8-1.3,.36-.11,.65-.02,.87,.29Z" style="fill:#989595;"/><path d="M112.46,108.23c-8.79,.32-17.44-1.22-26.12-2.14-2.63-.28-5.5,.3-7.94-1.3,.1-.58,.66-.63,1.03-.9,5.85,.56,11.72,.88,17.52,1.74,4.81,.71,9.64,.66,14.46,.98,1.35,.09,2.74-.12,3.98,.62-.71,1.14-2.13,.16-2.94,.99Z" style="fill:#a6a2a2;"/><path d="M41.88,86.5c.04-.31,.07-.62,.11-.93-.26-.23-.34-.45-.25-.67,.09-.22,.18-.33,.27-.33,5.85,6.99,12.66,12.69,21.4,15.75,.99,.35,2.04,.52,3.07,.78,.87,.65,2.12,.03,2.94,.87,.31,.26,.61,.53,.92,.79,.3,.2,.4,.41,.31,.62-.09,.21-.19,.32-.29,.32-9.73-1.64-17.86-6.32-24.84-13.15-1.29-1.27-2.44-2.69-3.65-4.04Z" style="fill:#9b9494;"/><path d="M138.98,109.16c-7.12-.07-14.27,.53-21.35-.71,4.87-1.37,9.89-.03,14.79-.77,2.16-.33,4.31-.3,6.47,.04,.54,.45,.56,.93,.09,1.44Z" style="fill:#98acac;"/><path d="M162.01,108.45c-2.32,1.12-4.79,.54-7.19,.6-4.71,.12-9.42,.06-14.13,.07-.46-.49-.43-.94,.09-1.36,1.85-.39,3.71-.39,5.57-.08,3.94,.43,7.89,.07,11.84,.19,1.28,.18,2.68-.46,3.83,.58Z" style="fill:#98acac;"/><path d="M219.38,99.15c.01,.38,.02,.76,.03,1.14-3.58,2.16-7.47,3.33-11.62,3.65-.39-.31-.78-.62-1.17-.93,4.35-.96,8.61-2.23,12.76-3.86Z" style="fill:#a29898;"/><path d="M132.42,107.68c-2.59,1.27-5.34,.39-8.01,.58-2.25,.16-4.52,.13-6.78,.19-1.72-.07-3.44-.15-5.16-.22,.73-1.06,1.94-.71,2.94-.99,5.67,.15,11.35,.29,17.02,.44Z" style="fill:#a29393;"/><path d="M248.51,59.66c-1.37,1.32-.06,3.55-1.63,4.8-.18,.28-.43,.4-.77,.35-.11-.11-.22-.21-.34-.32,.08-.57,.16-1.14,.24-1.71,.34-.63,.29-1.37,.61-2,.39-2.12,.79-4.24,1.18-6.36,.8-.14,1.31-.02,.86,.96-.05,1.43-.11,2.86-.16,4.3Z" style="fill:#989898;"/><path d="M248.67,55.37c-.29-.32-.57-.64-.86-.96-.02-.9-.03-1.79-.05-2.69,1.24-2.33-.48-5.07,1.03-7.36,.95,.78,.65,1.94,.89,2.94-.43,2.68,.42,5.52-1.02,8.07Z" style="fill:#9a9a9a;"/><path d="M68.42,83.56c-.31,.06-.62,.11-.92,.17-2.9-.81-5.27-2.27-6.44-5.21,.05-.42,.1-.84,.15-1.26,.32-.25,.66-.29,1.02-.09,.89,.7,1.47,1.69,2.32,2.43,.68,.64,1.44,1.18,2.27,1.62,.69,.37,1.39,.73,1.9,1.36,.18,.41,.07,.74-.3,.98Z" style="fill:#969595;"/><path d="M158.14,108.19c-3.93-.14-7.91,.79-11.8-.51,3.92-.31,7.85-.37,11.78-.19,.29,.15,.39,.3,.3,.46-.09,.16-.19,.24-.28,.24Z" style="fill:#a29393;"/><path d="M133.35,98.29c-2.2-3.59-1.96-4.47,1.97-7.24,.28,.32,.43,.69,.45,1.11-.67,1.91-1.21,3.86-1.93,5.76-.16,.13-.33,.25-.49,.37Z" style="fill:#cdcccc;"/><path d="M144.33,99.95c-.27,.12-.55,.21-.84,.28-2.74,.45-5.48,.52-8.22-.04-.3-.34-.6-.68-.9-1.03,.19-.18,.37-.36,.56-.54,3.03-1,6.06-1.02,9.09,.03,.51,.33,.61,.77,.31,1.3Z" style="fill:#caa;"/><path d="M79.44,103.89c-.34,.3-.69,.6-1.03,.9-2.18-.03-4.41,.25-6.43-.92,.12-.57,.65-.62,1.06-.8,2.13,.27,4.27,.55,6.4,.82Z" style="fill:#979292;"/><path d="M158.14,108.19c-.01-.23-.02-.46-.02-.7,2.36-.07,4.72-.15,7.08-.23,.73,.16,1.52,.21,2,.92-1.73,.09-3.46,.17-5.19,.26-1.29-.09-2.58-.17-3.87-.26Z" style="fill:#9c9090;"/><path d="M135.26,91.86c0-.27,.02-.55,.05-.82,3.03,.25,6.2-1.05,9.08,.82-.2,.19-.4,.37-.59,.56-2.92,.87-5.81,1.36-8.54-.56Z" style="fill:#aea9a9;"/><path d="M248.79,44.36c-.61,2.42,.51,5.08-1.03,7.36,.15-2.77-.71-5.63,.73-8.29,.1,.31,.2,.62,.3,.93Z" style="fill:#ebecec;"/><path d="M135.26,100.2c2.74,.01,5.48,.02,8.22,.04-2.75,1.19-5.49,1.24-8.22-.04Z" style="fill:#d6ffff;"/><path d="M217.37,79.03c.31,0,.62,0,.92,.01-.7,1.41-1.65,2.56-3.2,3.08-.43-.2-.61-.54-.58-1.01,.49-1.34,1.22-2.34,2.86-2.08Z" style="fill:#9b9f9f;"/><path d="M212.17,83.7c-.73-.11-1.47-.2-1.94-.88,.44-.65,1.1-1,1.82-1.26,.35-.15,.71-.25,1.08-.33,.58-.07,1.13-.02,1.58,.41,.11,.17,.24,.33,.38,.47-.78,.88-1.76,1.41-2.92,1.59Z" style="fill:#999;"/><path d="M139.02,84.39c-.05-.26-.11-.52-.19-.78-.27-.31-.4-.68-.43-1.09,.07-.41,.27-.75,.57-1.04,.59-.28,1.17-.27,1.76,.02,.29,.3,.47,.65,.53,1.06-.03,.42-.22,.77-.53,1.05-.32,.28-.63,.55-.95,.83,0,0-.39,.03-.39,.03l-.38-.09Z" style="fill:#898e8e;"/><path d="M42.01,84.56c0,.33-.01,.67-.02,1-.58-.41-1.17-.83-1.75-1.24,0-.55,0-1.11-.01-1.66,1.08,.18,1.38,1.08,1.78,1.9Z" style="fill:#928b8b;"/><path d="M146.32,93.61c1.28,1.27,1.27,2.55,.03,3.84-.17-.13-.33-.26-.5-.39-.56-1.01-.56-2.02-.02-3.04,.16-.14,.33-.27,.49-.4Z" style="fill:#c0c1c1;"/><path d="M144.33,99.95c.02-.26,.04-.53,.06-.79-.28-1.47,.39-2.02,1.8-1.86,0,0,.16,.14,.16,.14-.09,1.3-.76,2.15-2.02,2.51Z" style="fill:#c0c1c1;"/><path d="M140.78,107.76c-.03,.45-.06,.91-.09,1.36-.57,.01-1.14,.03-1.71,.04-.03-.48-.06-.96-.09-1.44,.63,.01,1.26,.03,1.89,.04Z" style="fill:#a29393;"/><path d="M144.4,91.86c1.24-.07,1.8,.6,1.92,1.75,0,0-.13,.11-.13,.11-1.42,.14-2.14-.36-1.78-1.89v.03Z" style="fill:#c0bebe;"/><path d="M69.42,101.96c-1.05-.06-2.13,0-2.94-.87,1.08-.05,2.23-.32,2.94,.87Z" style="fill:#fcfdfd;"/><path d="M73.04,103.07c-.35,.27-.71,.53-1.06,.8-.54-.06-1.08-.12-1.61-.19,0-.31-.01-.62-.02-.93,.93-.14,1.83-.04,2.7,.32Z" style="fill:#988c8c;"/><path d="M220.19,35.16c-.32,.05-.63,.1-.95,.14-.27,.34-.51,.32-.73-.06-.32-.35-.64-.71-.96-1.06,.54-.45,1.09-.48,1.66-.07,.33,.06,.66,.12,.99,.17,.13,.29,.13,.58-.02,.87Z" style="fill:#7e7777;"/><path d="M245.89,66.27c-.28,.34-.57,.67-.85,1.01-.11-1.02-.25-2.05,.74-2.79,0,0,.4-.09,.4-.09,.15,.66,.29,1.32-.28,1.87Z" style="fill:#e3e4e4;"/><path d="M246.86,6.85c-.29,0-.59,0-.88-.02-.06-.55-.12-1.1-.19-1.65,.25-.32,.5-.64,.75-.96,.11,.88,.22,1.75,.33,2.63Z" style="fill:#8e8d8d;"/><path d="M245.94,8.63c.61,.52,.77,1.18,.63,1.93-.58-.52-.74-1.19-.63-1.93Z" style="fill:#dcdddd;"/><path d="M246.63,60.77c.13,.77-.03,1.45-.61,2-.17-.78-.04-1.47,.61-2Z" style="fill:#e3e4e4;"/><path d="M40.24,82.76c-.14-.19-.3-.38-.4-.59-.02-.04,.17-.18,.26-.28,.12,.28,.17,.56,.14,.86Z" style="fill:#555;"/><path d="M134.37,99.17c-.55-.05-.87-.37-1.02-.88,0,0,.1-.1,.1-.1,.79-.1,1.18,.16,.88,1.01l.04-.03Z" style="fill:#b3a8a8;"/><path d="M136.11,264.76c-6.21-1.7-10.58-5.32-11.78-11.89-1.23-6.77,2.45-13.22,9.03-16.26,5.93-2.74,13.67-1.2,17.94,3.72,1.48,1.7,3.01,3.45,3.21,5.89,.44,1.37,.93,2.75-.4,3.95-1.73-.28-1.77-1.88-2.31-3.04-3.46-7.48-8.48-9.91-16.52-7.95-1.67,.42-3.09,1.26-4.25,2.54-5.47,6.52-4.91,13.22,1.54,18.11,4.07,2.45,8.64,2.29,13.12,2.62,2.85,.21,5.71-.48,8.55,.2,1.17,1.83,.17,2.28-1.48,2.44-2.22,.22-4.43,.02-6.64,0-3.36,.29-6.7,.12-10.03-.3Z" style="fill:#716e6e;"/><path d="M111.26,170.87c.22-.79,.25-1.66,1.02-2.19,.09,.76,.18,1.51,.27,2.27,.18,.75,.25,1.53,.63,2.23,1.72,7.38,3.91,14.58,7.47,21.34,3.11,5.88,7.12,10.85,12.92,14.26-.08,.58-.59,.64-1,.82-4.58-2.07-7.83-5.65-10.53-9.7-5.86-8.81-9.26-18.58-10.78-29.03Z" style="fill:#888787;"/><path d="M164.54,180.53c.35,.41,.7,.82,1.06,1.23,.32,.5,.29,.99-.05,1.47-2.24,5.48-4.2,11.09-7.61,16.02-2.26,3.27-4.7,6.36-8.09,8.56-.43-.13-.74-.41-.93-.82,7.5-6.38,11.77-14.73,14.66-23.93,.27-.86,.64-1.69,.96-2.53Z" style="fill:#8b8b8b;"/><path d="M153.63,249.98c1.26-1.04,.65-2.51,.89-3.78,.93,1.15,.89,2.55,.89,3.9,0,5.14-.08,10.27-.13,15.41l.1-.05c-1.52,.03-3.04,.06-4.56,.09-.62,.52-1.24,.56-1.89,.05-.86-.07-1.72-.14-2.58-.2l-.42-.17,.06-.45c2.33-.07,4.66-.06,6.99-.23,1.13-.08,1.5-.76,.66-1.75-2.33-4.27-2.08-8.54,0-12.81Z" style="fill:#777;"/><path d="M120.76,289.07c-.09-.51-.19-1.02-.28-1.53,.75,.02,1.5,.04,2.26,.07,.29,.21,.61,.33,.95,.36,.09,.11,.2,.23,.3,.35,.13-.08,.27-.14,.4-.22-.15-.06-.3-.11-.45-.16,.1-.12,.21-.24,.32-.36,.02-.36,.05-.73,.07-1.09,.72-.51,1.72-.29,2.39-.91,.53-.52,.77-1.23,1.23-1.8l-.03,.04c.8-.71,1.68-.86,2.65-.42,.74,.66,.96,1.49,.79,2.44-.52,1.55-2.16,2.31-2.73,3.83-.4,.63-.96,1.1-1.54,1.54-.26,.23-.54,.44-.81,.66-.26,.23-.53,.44-.81,.65-.59,.37-1.16,.78-1.9,.36-.94-1.27-1.87-2.54-2.81-3.81Z" style="fill:#f3f8f8;"/><path d="M145.99,264.76c.16,.18,.28,.39,.36,.62-1.4,.17-1.17,1.23-1.45,2.22-.42,1.55-2.42,1.9-2.57,.75-.49-3.59-3-2.69-5.15-2.8-.36,.29-.71,.26-1.04-.04,0-.25-.01-.51-.04-.76,3.29,0,6.59,0,9.88,0Z" style="fill:#c9c9c9;"/><path d="M152.56,283.72c.83-.81,1.75-1.49,2.41-2.53,.67-1.05,1.76-1.11,2.61-.06,.79,.98,.79,2.18-.48,2.53-2.09,.58-1.57,2.71-2.65,3.83-.15,.11-.31,.22-.46,.34-.6,.12-1.1-.03-1.5-.5-.14-.34-.19-.69-.14-1.05,.13-.67,.25-1.35,.2-2.04,0-.17,0-.34,0-.51Z" style="fill:#c3bfbf;"/><path d="M127.11,286.61c-1,1.53-1.86,.14-2.78-.13-.17-.98,.12-2.15-1.28-2.58-1.47-.45-1.99-1.52-.96-2.72,1.31-1.55,2.27-.57,3.16,.7,.49,.7,1.24,1.23,1.87,1.84-.02,.16-.03,.32-.05,.48-.06,.64-.06,1.29,0,1.93,.02,.16,.03,.32,.05,.48Z" style="fill:#c4bfbf;"/><path d="M97.68,182.34c-.59-.56-.78-1.28-.78-2.06,.03-5.78,.05-11.56,.08-17.34,1.34,6.43,.72,12.93,.7,19.4Z" style="fill:#979898;"/><path d="M148.92,206.99c.31,.27,.62,.55,.93,.82-1.76,1.56-3.73,2.7-6.09,3.04-.91,.16-2.05,.79-2.06-.97,2.57-.55,4.91-1.67,7.22-2.89Z" style="fill:#8f8686;"/><path d="M141.6,280.12c1.02,.05,2.16-.2,2.77,.99h0c.63,.6,1.26,1.21,1.89,1.83,.18,.35,.17,.68-.07,.99-.29,.22-.61,.37-.97,.43-.35,.01-.7-.03-1.04-.11-.65-.17-1.31-.22-1.99-.05-.34,.1-.68,.15-1.03,.18-.57-.02-1.06-.21-1.44-.65-.16-.34-.21-.69-.15-1.05,.15-.49,.4-.94,.75-1.32,.23-.19,.46-.4,.67-.61-.01,0,.27-.36,.26-.36,0,0,.35-.27,.35-.27Z" style="fill:#e0e1e1;"/><path d="M133.41,282.94c.63-.61,1.27-1.23,1.9-1.84h0c-.02-.33-.04-.67-.06-1.01l-.04,.04c.95,0,1.91-.01,2.86-.02,0,0,.24,.35,.24,.35,.06,.36-.09,.55-.45,.55,.36,.34,.72-.41,1.09,0,.54,.52,.66,1.13,.45,1.82-.05,.37-.18,.69-.43,.97-.32,.2-.66,.3-1.03,.31-.92-.04-1.83,0-2.73,.2-.59,.08-1.14,0-1.64-.33-.2-.21-.29-.43-.27-.67,.02-.25,.06-.37,.11-.37Z" style="fill:#e0dede;"/><path d="M125.13,279.24c-1.43-1.93,.19-2.6,1.45-2.6,1.25,0,2.89,.67,1.44,2.6-.96,.62-1.93,.61-2.89,0Z" style="fill:#d6d5d5;"/><path d="M164.3,269.01c-1.01-.26-1.65-.91-1.42-1.95,.16-.74,.77-1.37,1.65-1.24,1.04,.15,1.64,.88,1.42,1.9-.16,.74-.75,1.3-1.65,1.28Z" style="fill:#cbc9c9;"/><path d="M141.7,209.88c.47,.78,1.31,.77,2.06,.97-2.6,1.2-5.21,1.21-7.82,.03,.36-.96,1.43-.43,1.99-.96,1.26-.02,2.51-.03,3.77-.05Z" style="fill:#9fa0a0;"/><path d="M121.47,278.59c-.09,1.23-.84,1.62-1.86,1.57-1.06-.05-1.73-.61-1.59-1.72,.13-1,.78-1.71,1.82-1.62,1.01,.09,1.57,.8,1.63,1.77Z" style="fill:#c3bfbf;"/><path d="M135.25,280.1c-.74,.02-1.49,.13-2.22,.04-.81-.1-1.32-.62-1.33-1.5,0-.85,.49-1.39,1.19-1.73,.82-.4,1.45,.07,1.93,.65,.64,.76,.41,1.7,.39,2.58,0,0,.04-.04,.04-.04Z" style="fill:#c3bfbf;"/><path d="M138.07,280.12c0-.6-.1-1.23,.04-1.81,.24-.96,.9-1.64,1.95-1.51,.78,.1,1.36,.69,1.51,1.5,.11,.59,.03,1.2,.04,1.81,0,0,.05-.02,.05-.02-1.21,.98-2.42,.98-3.62,0l.05,.02Z" style="fill:#c3bfbf;"/><path d="M161.71,278.32c-.11,1.51-.86,1.89-1.88,1.84-1.06-.05-1.73-.61-1.59-1.72,.13-1,.78-1.69,1.82-1.62,1.05,.07,1.43,.93,1.65,1.5Z" style="fill:#c3bfbf;"/><path d="M130.66,283.9c-.91-.03-1.83-.05-2.74-.08,0-.44-.03-.88,.02-1.31,.12-1.12,.63-2.04,1.85-2.03,1.21,0,1.72,.94,1.82,2.06,.04,.43,0,.87-.01,1.31-.15,.11-.3,.23-.45,.34-.16-.09-.32-.19-.49-.28Z" style="fill:#c3bfbf;"/><path d="M148.07,283.84c0-.44-.06-.88-.02-1.31,.1-1.12,.61-2.05,1.82-2.06,1.22-.01,1.73,.91,1.85,2.03,.04,.43,0,.87,0,1.31-.13,.14-.27,.28-.4,.42-.94,.48-1.88,.47-2.83,.02-.14-.14-.28-.28-.41-.42Z" style="fill:#c3bfbf;"/><path d="M113.65,267.47c.02-.89,.55-1.5,1.31-1.62,1.03-.17,1.73,.44,1.84,1.49,.09,.88-.54,1.5-1.28,1.63-1.04,.19-1.66-.48-1.87-1.5Z" style="fill:#cbcaca;"/><path d="M124.85,267.44c-.19,1.01-.81,1.67-1.85,1.5-.75-.12-1.38-.73-1.29-1.61,.1-1.05,.79-1.67,1.82-1.51,.76,.12,1.29,.72,1.32,1.62Z" style="fill:#cbc9c9;"/><path d="M129.83,269c-.99-.16-1.63-.77-1.5-1.82,.09-.78,.67-1.41,1.54-1.36,1.05,.06,1.68,.75,1.56,1.79-.09,.78-.67,1.32-1.59,1.39Z" style="fill:#cbcaca;"/><path d="M136.14,265.52c.35,.01,.69,.03,1.04,.04,.06,.14,.09,.3,.18,.42,.67,1,.85,1.97-.28,2.75-.72,.5-1.47,.33-1.98-.36-1.07-1.44-.03-2.16,1.05-2.85Z" style="fill:#cbc9c9;"/><path d="M155.28,265.51c.43,.08,.92,.05,1.28,.25,.97,.55,1.67,1.28,.9,2.48-.33,.52-.89,.9-1.48,.73-1.13-.34-1.71-1.11-1.23-2.34,.16-.41,.41-.78,.62-1.16,0,0-.1,.05-.1,.05Z" style="fill:#cbc9c9;"/><path d="M126.72,261.91c.72,0,1.4,.31,1.53,1.18,.12,.87-.45,1.4-1.29,1.48-.82,.09-1.52-.2-1.62-1.13-.1-.88,.4-1.38,1.39-1.53Z" style="fill:#c5bebe;"/><path d="M134.92,275.01c.25-.81,.77-1.28,1.64-1.21,.87,.07,1.39,.59,1.32,1.46-.07,.9-.73,1.26-1.58,1.19-.86-.07-1.32-.59-1.39-1.45Z" style="fill:#c5bebe;"/><path d="M119.51,264.56c-.84,0-1.46-.38-1.48-1.24-.03-.83,.49-1.34,1.37-1.38,.88-.04,1.47,.47,1.51,1.26,.04,.79-.49,1.34-1.39,1.36Z" style="fill:#bcb0b0;"/><path d="M160.65,264.55c-1.26,.04-1.86-.45-1.89-1.24-.03-.78,.51-1.34,1.39-1.36,.86-.02,1.45,.43,1.48,1.27,.03,.83-.46,1.36-.99,1.34Z" style="fill:#bcb0b0;"/><path d="M126.24,272.8c-.88-.16-1.41-.64-1.29-1.49,.12-.85,.79-1.23,1.61-1.13,.83,.1,1.33,.62,1.23,1.49-.11,.92-.81,1.12-1.55,1.13Z" style="fill:#bcb0b0;"/><path d="M118.83,270.16c1.59,.03,2.12,.6,2.08,1.38-.03,.79-.63,1.28-1.51,1.25-.88-.03-1.41-.52-1.36-1.36,.05-.84,.63-1.27,.79-1.27Z" style="fill:#bcb0b0;"/><path d="M133.04,272.8c-.9-.15-1.4-.62-1.27-1.49,.13-.88,.79-1.21,1.6-1.12,.83,.09,1.35,.64,1.23,1.48-.12,.85-.79,1.16-1.56,1.13Z" style="fill:#bcb0b0;"/><path d="M141.02,271.67c-.23,.83-.82,1.2-1.64,1.11-.84-.09-1.34-.59-1.22-1.48,.13-.89,.79-1.21,1.6-1.12,.83,.09,1.27,.62,1.26,1.48Z" style="fill:#bcb0b0;"/><path d="M146.36,270.16c.75,0,1.42,.26,1.54,1.14,.12,.88-.38,1.38-1.22,1.47-.82,.09-1.5-.26-1.61-1.12-.12-.84,.4-1.34,1.29-1.5Z" style="fill:#bcb0b0;"/><path d="M154.31,271.78c-.18,.79-.81,1.09-1.61,1-.83-.09-1.36-.63-1.23-1.47,.13-.84,.79-1.22,1.62-1.12,.83,.11,1.28,.62,1.22,1.59Z" style="fill:#bcb0b0;"/><path d="M143.28,276.44c-.84,0-1.46-.38-1.48-1.24-.03-.83,.49-1.34,1.37-1.38,.88-.04,1.47,.47,1.51,1.26,.04,.79-.49,1.34-1.39,1.36Z" style="fill:#bcb0b0;"/><path d="M156.41,276.45c-.88-.16-1.41-.64-1.29-1.49,.12-.85,.79-1.23,1.61-1.13,.83,.1,1.33,.62,1.23,1.49-.11,.92-.81,1.12-1.55,1.13Z" style="fill:#bcb0b0;"/><path d="M129.73,273.81c1.24,.06,1.75,.56,1.73,1.39-.03,.86-.64,1.26-1.49,1.24-.88-.02-1.42-.57-1.38-1.36,.04-.79,.63-1.28,1.14-1.27Z" style="fill:#bcb0b0;"/><path d="M124.62,275.14c-.21,.77-.62,1.31-1.51,1.3-.87,0-1.44-.47-1.43-1.3,.01-.82,.56-1.31,1.44-1.32,.89,0,1.29,.55,1.5,1.32Z" style="fill:#bcb0b0;"/><path d="M161.65,271.66c-.17,.81-.73,1.18-1.57,1.12-.86-.06-1.39-.61-1.3-1.42,.09-.8,.7-1.27,1.57-1.19,.85,.08,1.29,.58,1.31,1.49Z" style="fill:#bcb0b0;"/><path d="M165.76,248.87c-.18,.65-.58,1.07-1.29,1.03-.68-.04-1.21-.46-1.19-1.11,.03-.86,.62-1.4,1.5-1.24,.61,.11,.99,.63,.98,1.32Z" style="fill:#c3bbbb;"/><path d="M150.74,276.45c-.88,0-1.76-.01-2.64-.02l.04,.04c.27-2.93,.51-3.09,2.82-1.82,.3,.65,.46,1.28-.22,1.8Z" style="fill:#bcb0b0;"/><path d="M137.93,209.93c-.48,.71-1.29,.72-1.99,.96-1.27-.04-2.34-.59-3.37-1.28,.33-.27,.67-.55,1-.82,1.45,.38,2.91,.77,4.36,1.15Z" style="fill:#888282;"/><path d="M116.39,249.65c-.27,.79-.8,1.21-1.63,.97-.6-.18-.96-.7-.83-1.32,.17-.83,.78-1.18,1.61-.97,.63,.17,.85,.7,.85,1.32Z" style="fill:#bbb;"/><path d="M118.44,254.14c.17-.64,.57-1.09,1.24-1.12,.69-.04,1.23,.39,1.27,1.04,.05,.86-.47,1.44-1.4,1.33-.67-.08-1-.59-1.1-1.24Z" style="fill:#c3bbbb;"/><path d="M161.19,254.01c.02,.68-.28,1.22-.92,1.35-.89,.18-1.52-.33-1.57-1.18-.04-.62,.5-1.1,1.17-1.17,.7-.07,1.11,.37,1.33,1Z" style="fill:#c3bbbb;"/><path d="M116.39,258.92c-.18,.65-.58,1.07-1.29,1.03-.68-.04-1.21-.46-1.19-1.11,.02-.86,.62-1.4,1.5-1.24,.61,.11,.99,.63,.98,1.32Z" style="fill:#c3bbbb;"/><path d="M124.54,259.2c-.32,.6-.85,.94-1.48,.72-.81-.28-1.2-.92-.71-1.76,.34-.59,.94-.79,1.55-.44,.54,.3,.96,.76,.64,1.48Z" style="fill:#c3bbbb;"/><path d="M112.14,254.82c-.39,.56-.92,.78-1.55,.53-.64-.25-.98-.77-.58-1.41,.3-.49,.73-1.04,1.46-.6,.54,.33,.93,.77,.68,1.49Z" style="fill:#bfbaba;"/><path d="M98.87,201.24c-.33,.93,.1,2.1-.9,2.81,.07-2.08-.9-4.27,.73-6.16,.3,1.1,.38,2.22,.17,3.35Z" style="fill:#727272;"/><path d="M169.84,254.38c-.08,.73-.56,1.06-1.21,1.06-.66,0-1.21-.37-1.17-1.08,.04-.66,.58-1.18,1.19-1.17,.6,0,1.06,.52,1.19,1.19Z" style="fill:#bfbaba;"/><path d="M165.26,258.95c-.08,.72-.56,1.06-1.21,1.06-.66,0-1.21-.37-1.17-1.08,.04-.66,.58-1.17,1.19-1.17,.6,0,1.06,.52,1.19,1.19Z" style="fill:#bfbaba;"/><path d="M148.93,265.59c.63-.02,1.26-.03,1.89-.05,.13,.69,.5,1.44,.35,2.07-.3,1.21-.94,2.16-2.2,.68,0-.16,.01-.31,.02-.47,0-.31,0-.62,0-.93,0-.16,0-.31-.01-.47-.05-.28-.07-.55-.04-.83Z" style="fill:#c0c1c1;"/><path d="M161.23,244.07c-.01,.51-.31,1.01-.94,1.09-.66,.09-1.12-.34-1.07-.99,.04-.61,.52-1.02,1.14-1.04,.48-.01,.75,.36,.87,.94Z" style="fill:#c8c8c8;"/><path d="M168.59,243.14c.64,.02,1.12,.33,1.21,.96,.09,.65-.31,1.15-.97,1.1-.61-.04-1.02-.54-1.03-1.17-.01-.47,.34-.77,.79-.9Z" style="fill:#c8c8c8;"/><path d="M116.43,237.54c0,.64-.29,1.14-.93,1.23-.66,.1-1.13-.32-1.09-.98,.04-.61,.52-1.03,1.14-1.07,.48-.03,.74,.37,.88,.81Z" style="fill:#c8c8c8;"/><path d="M124.11,237.97c-.03,.42-.32,.73-.78,.78-.67,.08-1.13-.32-1.22-.92-.09-.64,.35-1.15,.98-1.11,.57,.04,.99,.52,1.02,1.25Z" style="fill:#c8c8c8;"/><path d="M157.57,237.83c-.06,.42-.41,.92-1.02,.96-.67,.04-1.05-.44-.96-1.1,.09-.63,.57-1,1.21-.93,.44,.05,.77,.37,.78,1.07Z" style="fill:#c8c8c8;"/><path d="M165.25,237.97c-.03,.42-.32,.73-.78,.78-.67,.08-1.13-.32-1.22-.92-.09-.64,.35-1.15,.98-1.11,.57,.04,.99,.52,1.02,1.25Z" style="fill:#c8c8c8;"/><path d="M111.86,244.23c-.07,.43-.41,.92-1.02,.96-.67,.04-1.05-.45-.96-1.1,.09-.63,.57-1,1.21-.92,.44,.05,.77,.37,.77,1.06Z" style="fill:#c8c8c8;"/><path d="M120.46,244.09c0,.67-.32,1.15-.98,1.09-.34-.03-.77-.42-.94-.75-.32-.64,.05-1.15,.69-1.26,.63-.11,1.05,.31,1.23,.92Z" style="fill:#c8c8c8;"/><path d="M154.63,279.27c-1.03,1.31-2.05,1.31-3.08,0-.32-.65-.34-1.28,.16-1.87h0c.84-.57,1.34,.44,2.06,.43,.36,.04,.66,.2,.92,.46,.15,.34,.12,.66-.06,.98Z" style="fill:#bfb8b8;"/><path d="M148.23,279.27c-1.03,1.31-2.05,1.3-3.08,0-.18-.33-.2-.66-.04-1,.27-.25,.59-.41,.94-.49,.68-.1,1.23-.88,2.02-.38h0c.49,.6,.47,1.22,.15,1.88Z" style="fill:#bfb9b9;"/><path d="M179.07,215.13c.04,1.56,.07,3.12,.11,4.68-.3,0-.6,.01-.9,.02,.09-1.59-.34-3.28,.8-4.69Z" style="fill:#898989;"/><path d="M153.75,278.29c-1.45,1.47-1.09-1.22-2.04-.89,0-.31,0-.61,.01-.92l-.02,.02c1.04-.04,2.1-.17,2.84,.83,0,0-.11,.43-.11,.43-.3,.08-.53,.26-.68,.53Z" style="fill:#e4e6e6;"/><path d="M148.07,277.39c-.95-.33-.59,2.35-2.03,.89-.16-.27-.39-.44-.69-.52,0,0-.12-.43-.12-.43,.75-1.02,1.85-.86,2.9-.87,0,0-.04-.04-.04-.04,0,.32-.02,.65-.02,.97Z" style="fill:#e4e6e6;"/><path d="M178.12,221.26c0,1.37,.55,2.82-.63,4-.04-1.37-.04-2.74,.63-4Z" style="fill:#898989;"/><path d="M174.57,245.39c-.26,.02-.53,.03-.8,.04-.07-1.1,0-2.17,.67-3.12,.04,1.03,.08,2.05,.13,3.08Z" style="fill:#8a8b8b;"/><path d="M106.88,250.89c-1.13-.83-.82-2.01-.75-3.13,.69,.94,.75,2.02,.75,3.13Z" style="fill:#7d7d7d;"/><path d="M125.13,279.24c.96,0,1.92,0,2.89,0-.96,1.27-1.92,1.25-2.89,0Z" style="fill:#b8a9a9;"/><path d="M150.74,276.45c.07-.6,.14-1.2,.22-1.8,.67,.45,.74,1.15,.75,1.86,0,0,.02-.02,.02-.02-.33-.01-.66-.03-.99-.04Z" style="fill:#e4e6e6;"/><path d="M170.81,257.94c.1,.79,.08,1.54-.66,2.07-.09-.79,.14-1.47,.66-2.07Z" style="fill:#807e7e;"/><path d="M145.44,278.29c-.1,.33-.19,.65-.29,.98-.84-.68-.67-1.32,.09-1.94,0,0,.18,.18,.18,.18,.18,.17,.24,.34,.19,.51-.05,.18-.11,.26-.16,.26Z" style="fill:#e4e6e6;"/><path d="M165.55,183.23c.02-.49,.03-.98,.05-1.47,.19-.23,.41-.41,.66-.55,.08,.78,0,1.52-.71,2.02Z" style="fill:#fdfdfd;"/><path d="M148.23,279.27c-.05-.62-.1-1.25-.15-1.87,.9,.55,.97,1.18,.15,1.87Z" style="fill:#e4e6e6;"/><path d="M148.96,268.29c-1.1-.63-1.05-1.25,0-1.87,0,0-.02,0-.02,0,.55,.62,.55,1.24,0,1.86h.02Z" style="fill:#b5aeae;"/><path d="M151.71,277.41c-.05,.62-.11,1.24-.16,1.87-.82-.7-.74-1.32,.16-1.87Z" style="fill:#e4e6e6;"/><path d="M154.63,279.27c-.1-.33-.2-.65-.29-.98-.16-.18-.21-.36-.14-.53,.06-.17,.12-.25,.18-.25,0,0,.18-.18,.18-.18,.76,.61,.93,1.25,.08,1.94Z" style="fill:#e4e6e6;"/><path d="M177.18,228.5c.09,.86,.13,1.7-.7,2.28-.11-.87,.17-1.61,.7-2.28Z" style="fill:#898989;"/><path d="M173.51,246.9c.14,.8,.16,1.57-.57,2.13-.08-.78,.16-1.48,.57-2.13Z" style="fill:#8a8b8b;"/><path d="M133.41,282.94c.03,.29,.03,.59,.01,.88,0,0-.27,.25-.27,.25,0,0-.37,0-.37,0,0,0-.26-.26-.26-.26,.07-.52,.39-.79,.89-.87Z" style="fill:#c5c0c0;"/><path d="M146.25,283.82c-.03-.3-.02-.59,0-.88,.5,.08,.82,.35,.89,.88,0,0,.04-.01,.04-.01-.15,.13-.31,.25-.46,.38-.16-.12-.32-.24-.48-.35Z" style="fill:#c5c1c1;"/><path d="M132.59,204.12c-4.86-2.96-7.77-7.5-10.1-12.49-1.21-2.59-2.54-5.15-2.93-8.04-.34-.87-.05-1.27,.89-1.19,1.27,3.42,2.57,6.81,4.2,10.08,2.14,4.29,5.09,7.89,8.87,10.83-.19,.41-.49,.69-.93,.81Z" style="fill:#9a9999;"/><path d="M154.51,144.48c0,.39-.01,.79-.02,1.18-5.82-4.05-12.32-5.2-19.25-4.48-.64-.39-1.31-.77-.94-1.71,5.94-2.7,11.5-1.27,16.93,1.57,1.14,1.09,3.01,1.51,3.28,3.44Z" style="fill:#a6a0a0;"/><path d="M160.1,178.7c.31,.39,.61,.78,.92,1.17-1.6,7.32-4.19,14.18-9.29,19.86-.41-.18-.67-.48-.81-.9,3.85-5.54,7.05-11.38,8.18-18.14,.52-.57,.14-1.59,1.01-1.99Z" style="fill:#999797;"/><path d="M120.45,182.4c-.3,.4-.59,.79-.89,1.19-1.59-3.28-2.21-6.8-2.48-10.39,.23-.29,.54-.45,.91-.48,.37,.08,.62,.3,.76,.66-.22,3.16,1.36,5.97,1.7,9.02Z" style="fill:#9e9d9d;"/><path d="M150.92,198.83c.27,.3,.54,.6,.81,.9-2.35,3.14-5.22,5.51-9.19,6.27-.28-.23-.43-.52-.47-.87,.07-.35,.26-.62,.57-.81,3.59-.58,5.93-3.05,8.29-5.49Z" style="fill:#939191;"/><path d="M161.81,165.88c.06,3.81-.4,7.52-1.83,11.09-.18-3.83,.36-7.53,1.83-11.09Z" style="fill:#fdfdfd;"/><path d="M117.85,167.79c-1.17-1.7-.61-3.62-.64-5.44-.01-.91,.88-.97,1.58-1.1-1.2,2.05-.8,4.34-.93,6.55Z" style="fill:#fdfdfd;"/><path d="M132.59,204.12c.31-.27,.62-.54,.93-.81,1.12,.38,2.13,1.15,3.41,1.04,.35,.13,.57,.37,.66,.73-.02,.37-.18,.66-.46,.89-1.77,0-3.15-.92-4.53-1.86Z" style="fill:#8d8585;"/><path d="M118.74,173.38c-.24-.09-.49-.15-.74-.2-.98-1.11-.51-2.35-.32-3.56,.05-.62,.09-1.25,.14-1.87,1.8,1.63,.71,3.74,.93,5.64Z" style="fill:#fdfdfd;"/><path d="M137.12,205.09c-.02-.26-.09-.5-.2-.73,1.9-.01,3.81-.03,5.71-.04-.08,.22-.12,.45-.1,.69-1.79,1.06-3.59,.92-5.41,.08Z" style="fill:#fdfdfd;"/><path d="M134.21,140.21c.34,.32,.69,.65,1.03,.97-.53,.07-1.06,.13-1.58,.2-.37-.27-.75-.54-1.12-.82,.43-.73,1.01-.75,1.67-.35Z" style="fill:#968d8d;"/><path d="M160.1,178.7c-.34,.66-.67,1.32-1.01,1.99-.04-1.05-.26-2.15,.81-2.89,.07,.3,.13,.6,.2,.91Z" style="fill:#fdfdfd;"/><path d="M97.79,111.89c0-.28,0-.56-.01-.83,2.23-.75,4.49-.56,6.74-.12,2.33,.08,4.67,.15,7,.23,2.47,.95,5.13-.17,7.62,.69,5.07-.15,10.14-.26,15.21,.19,2.74,.67,5.49,.62,8.24,.02,.32,0,.63,.02,.95,.03,4.38,.8,8.79,.11,13.18,.38,1.47,.09,3.05-.54,4.39,.58-1.73,.82-3.59,.55-5.38,.55-12.9,.06-25.8,.05-38.7,.06-2.04-1.1-4.33-.37-6.46-.86-.83-.62-1.79-.31-2.7-.39-1.64-.09-3.32,.25-4.93-.32-1.73,.16-3.44,.15-5.15-.21Z" style="fill:#837979;"/><path d="M232.48,97.35c-.09,.31-.19,.62-.28,.93-2.05,.02-3.16,1.65-4.6,2.71-.97,.54-2.05,.9-2.77,1.83-5.26,2.35-10.4,5.04-16.28,5.59-.87,.61-2.01,.06-2.87,.69-.82,.09-1.65,.19-2.47,.28-1.67-.04-3.67,1.55-4.83-.99,1.08-.35,2.19-.44,3.31-.23,.96-.48,2.13,0,3.04-.69,.84-.07,1.68-.13,2.52-.2,.65-.3,1.4-.25,2.04-.6,8.12-1.67,15.27-5.49,22.08-10.04,.31,.1,.49,.31,.54,.63,.2,.02,.39,.05,.58,.1Z" style="fill:#837d7d;"/><path d="M198.38,108.39c1.38,1.46,3.24,.53,4.83,.99-1.77,1.38-4.23,.11-5.99,1.55-2.67,.05-5.33,.1-8,.15-1.37-1.36-3.52,.59-4.81-1.12,4.6-.99,9.25-1.63,13.97-1.56Z" style="fill:#918c8c;"/><path d="M161.1,113.04c-4.41-.06-8.81-.09-13.22-.21-1.47-.04-3.07,.49-4.35-.75,5.7-.09,11.41-.17,17.11-.26,1.91,.11,4.13-1.59,5.62,.97-1.72,.08-3.44,.16-5.16,.24Z" style="fill:#796262;"/><path d="M166.26,112.79c-1.67-1.51-3.81-.3-5.62-.97,3.08-1.09,6.25-.91,9.42-.68,1.42,1.02,3.36-.4,4.71,.99-2.77,1.02-5.64,.86-8.51,.65Z" style="fill:#8a8282;"/><path d="M186.67,111.2c-2.48,.81-5.02,.92-7.59,.67-1.42-1-3.33,.38-4.68-.97,2.45-.94,5-.75,7.54-.66,1.44,.99,3.36-.37,4.73,.96Z" style="fill:#828282;"/><path d="M174.4,110.9c1.5,.59,3.33-.38,4.68,.97-1.43,.09-2.87,.18-4.3,.27-1.51-.63-3.37,.41-4.71-.99,1.44-.08,2.89-.16,4.33-.25Z" style="fill:#6a6060;"/><path d="M142.58,112.06c-2.75,1.33-5.49,1.34-8.24-.02,2.75,0,5.49,.02,8.24,.02Z" style="fill:#9f7979;"/><path d="M119.14,111.85c-2.55-.1-5.2,.92-7.62-.69,2.58-.17,5.14-.25,7.62,.69Z" style="fill:#8a8383;"/><path d="M186.67,111.2c-1.52-.59-3.37,.44-4.73-.96,.83-.1,1.65-.19,2.48-.29,1.54,.63,3.49-.47,4.81,1.12-.85,.04-1.71,.08-2.56,.13Z" style="fill:#6c6666;"/><path d="M104.52,110.93c-2.25,.04-4.5,.08-6.74,.12,0-.27,0-.55,0-.82,2.28-.09,4.59-.36,6.75,.7Z" style="fill:#8a8383;"/><path d="M204.73,107.47c-.82,1.07-1.93,.85-3.04,.69,.92-.65,1.94-.84,3.04-.69Z" style="fill:#918c8c;"/><path d="M209.29,106.67c-.54,.68-1.26,.74-2.03,.61,.58-.52,1.25-.77,2.03-.61Z" style="fill:#918c8c;"/><path d="M242.55,79.08c.2-.31,.39-.62,.59-.93-.2,.31-.39,.62-.59,.93Z" style="fill:#e3e4e4;"/><path d="M231.9,97.25c-.22-.17-.4-.38-.54-.63,.21-.26,.48-.35,.8-.26-.09,.3-.17,.59-.26,.89Z" style="fill:#555;"/><path d="M138.03,136.29c-.89-.67-1.98-.49-2.99-.69,3.19-1.12,6.39-1.26,9.59-.02-.74,1.21-2,1.52-3.24,1.87-1.29,.11-2.63,.34-3.37-1.16Z" style="fill:#c3a2a2;"/><path d="M153.55,140.3c-.29,.26-.58,.52-.88,.77-2.93,.06-4.77-1.85-6.66-3.67,.12-.76,.36-1.34,1.3-.84,2.49,.56,4.5,1.92,6.24,3.73Z" style="fill:#9f9898;"/><path d="M147.31,136.57c-.36,.27-.72,.55-1.08,.82-1.81,.87-3.37,.65-4.59-1.06,.87-.75,1.99-.52,2.99-.75,.99,.06,1.94,.23,2.68,.98Z" style="fill:#a49898;"/><path d="M153.62,121.43c.76,.8,2.18,.36,2.77,1.49-1.64,.08-3.29,.25-4.68-.92,0-.22,.01-.44,.05-.66,.62,.03,1.24,.06,1.86,.09Z" style="fill:#8aa3a3;"/><path d="M137.12,205.09c1.8-.03,3.61-.05,5.41-.08,0,.33,0,.66,0,.99-1.81,.33-3.61,.4-5.42-.01,0-.3,0-.6,0-.9Z" style="fill:#877878;"/><path d="M117.68,169.61c.11,1.19,.21,2.38,.32,3.56-.31,0-.61,.01-.92,.02-.06-.54-.12-1.09-.18-1.63,.08-.72,.14-1.46,.78-1.96Z" style="fill:#949393;"/><path d="M113.18,173.18c-.78-.58-.74-1.39-.63-2.23,.47,.67,.7,1.4,.63,2.23Z" style="fill:#8d8f8f;"/><path d="M149.01,120.98c-6.12,.26-12.24,.29-18.36-.03,0-.23,0-.46,.01-.68,1.32-1.25,.82-3.2,1.79-4.58,.68,.31,1.35,.63,2.03,.94,.8,1.24,1.62,1.28,2.45,.03,.69-.33,1.38-.66,2.06-.99,.23,.22,.39,.47,.5,.75,.07,.27,.11,.54,.15,.79,0-.03,.2,.22,.2,.22,0,0,.21-.23,.2-.25,.02-.27,.07-.52,.13-.77,.08-.28,.23-.5,.43-.69,.7,.3,1.39,.6,2.09,.9,.77,1.46,1.6,.77,2.42,.06,.69-.34,1.38-.67,2.08-1.01,1,1.32,.54,3.21,1.75,4.45,.03,.29,.06,.58,.08,.86Z" style="fill:#e2e6e6;"/><path d="M164.99,115.22c.16,.42,.42,.82,.47,1.25,.15,1.18,.39,2.43-.79,3.28-.46,.33-.88,.04-1.19-.28-1.2-1.21-.79-2.45-.02-3.69,.25-.41,.54-.7,1.53-.57Z" style="fill:#bab9b9;"/><path d="M132.45,115.68q1.04,3.61-1.79,4.58c-1.13-2.92-.89-3.53,1.79-4.58Z" style="fill:#ada9a9;"/><path d="M148.93,120.11c-2.82-.68-2.85-.75-1.75-4.45,2.55,1.14,2.81,1.79,1.75,4.45Z" style="fill:#a5a2a2;"/><path d="M156.26,115.71c1.99,2.75,1.97,2.87-.81,4.45-.55-.84-1.56-1.5-1.06-2.74l.04-.03c.29-.3,.55-.63,.79-.98,.34-.25,.69-.48,1.05-.69Z" style="fill:#9a9999;"/><path d="M136.92,116.65c0,.61,.06,1.22-.03,1.81-.12,.83-.61,1.37-1.53,1.29-.78-.07-.92-.71-.95-1.31-.04-.6,.04-1.21,.06-1.82,.82,0,1.63,.02,2.45,.03Z" style="fill:#988989;"/><path d="M145.11,116.67c-.07,.43-.21,.86-.18,1.27,.07,.95,0,1.83-1.18,1.85-1.3,.02-1.08-1.06-1.1-1.89-.01-.43,.03-.86,.04-1.29,.81,.02,1.61,.04,2.42,.06Z" style="fill:#958989;"/><path d="M161.32,117.87c.04,.86-.22,1.43-1.21,1.37-.99-.06-1.09-.72-1.13-1.51-.06-1.12,.5-1.72,1.55-1.56,.9,.14,.99,.92,.8,1.7Z" style="fill:#848787;"/><path d="M153.44,119.2c-.95,.22-2.07,.83-2.55-.57-.21-.6-.32-1.55,.48-1.92,.86-.4,1.7-.2,2.2,.74,.07,.59,.36,1.2-.14,1.75Z" style="fill:#968b8b;"/><path d="M125.16,120.17c-.34-.03-.69-.06-1.03-.09-.73-1.06-.52-2.25-.46-3.42,.11-.38,.3-.72,.57-1.01,.67,.33,1.35,.65,2.02,.98,.22,.25,.38,.52,.49,.84,.05,.33,.05,.65-.01,.98-.13,.3-.31,.57-.55,.8-.34,.31-.69,.62-1.03,.93Z" style="fill:#dfe2e2;"/><path d="M122.33,119.33c-.62-.05-1.23-.09-1.85-.14-.22-.26-.38-.56-.48-.88-.05-.34-.03-.68,.05-1.01,.12-.33,.33-.58,.63-.77,.29-.29,.59-.58,.88-.87,.32,0,.64,0,.96,0,.27,.28,.44,.61,.49,.99-.13,.92,.02,1.91-.68,2.68Z" style="fill:#e1e2e2;"/><path d="M168.32,118.31c-.97-.23-.94-.83-.91-1.44,.04-.76,.56-1.19,1.16-.94,.57,.23,.59,1.01,.46,1.61-.09,.43-.3,.86-.71,.77Z" style="fill:#a69d9d;"/><path d="M153.44,119.2c.08-.58-1.03-1.25,.13-1.75,.27-.03,.54-.04,.81-.04,.35,.91,.71,1.83,1.06,2.74-.67-.32-1.34-.63-2.01-.95Z" style="fill:#d8dcdc;"/><path d="M126.3,117.35c-.07-.24-.09-.48-.04-.72,.92,.01,2.05-.63,2.53,.79-.85,.75-1.69,.8-2.5-.07Z" style="fill:#9b7e7e;"/><path d="M173.3,117.09c-.42,.14-.77,.34-1.13,.35-.18,0-.57-.4-.53-.49,.16-.41,.55-.61,.98-.46,.23,.08,.4,.34,.68,.6Z" style="fill:#918989;"/><path d="M126.3,117.35c.83,.02,1.66,.05,2.5,.07-.01,.34-.02,.67-.03,1.01-.81,.53-1.63,.49-2.47,.06,0-.38,0-.76,0-1.13Z" style="fill:#a3b4b4;"/><path d="M126.3,118.48c.82-.02,1.65-.04,2.47-.06-.43,1.6-1.56,1.03-2.57,.82,0-.26,.03-.51,.1-.76Z" style="fill:#8a7b7b;"/><path d="M176.43,118.45c-.74,.91-1.74,.82-2.75,.75,.72-.98,1.74-.85,2.75-.75Z" style="fill:#d1e0e0;"/><path d="M122.77,116.52c-.08-.29-.17-.58-.25-.87,.58,0,1.15,0,1.73,0-.09,.29-.17,.58-.26,.87-.4,.28-.81,.27-1.22,0Z" style="fill:#948888;"/><path d="M138.99,116.48c-.08-.27-.08-.54,0-.81,.54,.02,1.08,.04,1.62,.05,.06,.23,.07,.47,.01,.71-.52,.65-1.07,.64-1.63,.05Z" style="fill:#9f8181;"/><path d="M155.55,116.43c-.21,.52-.59,.83-1.14,.95,.06-.73,.21-1.41,.98-1.74,.19,.14,.27,.31,.26,.49-.02,.19-.05,.29-.1,.29Z" style="fill:#d8dcdc;"/><path d="M180.04,117.49c-.45,.62-1.05,.85-1.8,.66,.47-.58,1.09-.73,1.8-.66Z" style="fill:#d1e0e0;"/><path d="M155.55,116.43c-.11-.25-.16-.51-.15-.78,.3-.13,.58-.1,.86,.06-.23,.24-.47,.48-.7,.72Z" style="fill:#867676;"/><path d="M182.91,116.72c-.26,.41-.61,.62-1.1,.55,.37-.18,.74-.37,1.1-.55Z" style="fill:#cccdcd;"/><path d="M210.23,191.49c-1.68-1.6-2.26-3.84-3.31-5.8-.31-.59,0-1.14,.57-1.51,1.2,1.92,2.35,3.86,2.87,6.1,.07,.32,.16,.63,.28,.94-.14,.09-.27,.18-.41,.28Z" style="fill:#747171;"/><path d="M212.19,194.01c-.22,.17-.43,.34-.65,.52-.13-.4-.26-.8-.39-1.2,.13-.12,.27-.24,.4-.36,.13,.12,.27,.24,.4,.36,.2,.19,.28,.41,.24,.68Z" style="fill:#747171;"/><path d="M211.15,193.32c-.74-.39-.9-1.07-.91-1.83,.28-.29,.55-.29,.83,0,.2,.17,.27,.38,.21,.63,.23,.42,.18,.82-.12,1.19Z" style="fill:#747171;"/><path d="M211.15,193.32c.04-.4,.08-.79,.12-1.19,.44,.28,.71,.65,.69,1.19-.27,0-.54,0-.8,0Z" style="fill:#787777;"/><path d="M211.06,191.49c-.28,0-.55,0-.83,0,.04-.4,.08-.81,.13-1.22,.44,.29,.71,.67,.7,1.22Z" style="fill:#787777;"/><path d="M205.97,181.38c-.21-.16-.43-.31-.62-.48-.01-.01,.15-.22,.23-.34,.13,.28,.26,.55,.39,.83Z" style="fill:#555;"/><path d="M206.99,183.15c-.53-.07-1.2-.06-.42-.8,.14,.27,.28,.53,.42,.8Z" style="fill:#747171;"/><path d="M116.92,117.35c-.46,1.17-.47,2.6-1.84,2.42-1.17-.15-1.53-1.45-1.41-2.46,.12-.92,.26-2.37,1.66-2.21,1.25,.15,1,1.63,1.59,2.25Z" style="fill:#b6b6b6;"/><path d="M122.77,116.52c.41,0,.81,0,1.22,0,1.59,1.12,.29,2.37,.15,3.56-.74,.08-1.4-.04-1.8-.75-.41-1.02-.4-1.98,.44-2.81Z" style="fill:#968e8e;"/><path d="M102.94,112.09c1.94-.04,3.87-.08,5.81-.12,.3,.18,.4,.35,.3,.53-.1,.18-.2,.27-.3,.27-1.98,.13-3.96,.29-5.81-.68Z" style="fill:#8a8383;"/><path d="M120.53,118.46c.02,.24,0,.49-.05,.72-.53,0-1.07,.01-1.6,.02-.64-.45-.46-1.26-.81-1.84-.05-.22-.05-.43,.02-.64,.78-.96,1.62-.78,2.47-.1,0,0,.12-.09,.12-.09-.02,.3-.05,.59-.09,.89-.21,.22-.29,.45-.23,.69,.05,.24,.11,.36,.18,.36Z" style="fill:#777373;"/><path d="M110.54,117.42c-.21-.53-.54-1.14,.01-1.57,.26-.2,.98-.19,1.18,.02,.83,.86,.93,1.77-.23,2.51-.28-.37-.63-.65-.97-.96Z" style="fill:#b2abab;"/><path d="M91.03,111.17c1.94,.09,3.98-.77,5.77,.64-1.95,0-3.91,.11-5.77-.64Z" style="fill:#8a8383;"/><path d="M120.56,116.61c-.82,.03-1.65,.07-2.47,.1,.76-1.54,1.6-1.24,2.47-.1Z" style="fill:#b6b6b6;"/><path d="M108.75,112.77c0-.27,0-.53,0-.8,.73,0,1.4,.14,1.82,.83-.61,0-1.21-.02-1.82-.03Z" style="fill:#858080;"/><path d="M107.63,116.85c-.14,.18-.27,.51-.42,.52-.24,0-.49-.19-.74-.3,.15-.18,.26-.41,.45-.52,.31-.18,.57-.04,.71,.3Z" style="fill:#877f7f;"/><path d="M118.06,117.36c.73,.41,.69,1.16,.81,1.84-1.21-.2-1.01-1.02-.81-1.84Z" style="fill:#b6b6b6;"/><path d="M110.54,117.42c.32,.32,.64,.64,.97,.96-.67,.03-.99-.29-.97-.96Z" style="fill:#877575;"/><path d="M60.23,212.52l-.97-.11c-.18-.36-.2-.72-.06-1.1,.11-1.95,1.18-3.53,2.06-5.18,.71,.5,.7,1.1,.42,1.87-.54,1.48-.97,3-1.45,4.51Z" style="fill:#878282;"/><path d="M56.48,216.75c.02,.56-.24,.97-.72,1.25,0-.55,.23-.97,.72-1.25Z" style="fill:#7f8080;"/><path d="M59.2,211.31c.02,.37,.04,.73,.06,1.1-.27,.04-.54,.07-.81,.09,.25-.4,.5-.79,.75-1.19Z" style="fill:#999;"/><path d="M249.46,17.94c-.57-.53-.76-1.17-.6-1.92,.6,.52,.69,1.19,.6,1.92Z" style="fill:#dcdddd;"/><path d="M205.68,109.1c.78-.95,1.83-.79,2.87-.69-.84,.7-1.8,.93-2.87,.69Z" style="fill:#918c8c;"/><path d="M204.72,178.74c-.07,.1-.15,.21-.22,.31l.21-.33v.02Z" style="fill:#555;"/><path d="M186.38,117.37c.25-.37,.56-.64,1.05-.58-.35,.2-.7,.39-1.05,.58Z" style="fill:#cccdcd;"/><path d="M245.89,66.27c.09-.62,.19-1.25,.28-1.87,.23,.04,.47,.07,.71,.07-.05,.6-.11,1.2-.17,1.8-.27,0-.55,0-.82,0Z" style="fill:#908f8f;"/><path d="M141.64,136.33c1.53,.35,3.06,.71,4.59,1.06,2.43,.73,4.33,2.39,6.44,3.68,0,0-.08,.2-.08,.2,.22,.83,.04,1.25-.91,.92-4.6-2.06-9.35-3.38-14.47-2.79-1.05,.12-2.12,.09-3,.8-.56,.12-1.12,.23-1.67,.35-1.52,.53-3.04,1.07-4.56,1.6-.31-.31-.62-.61-.94-.92,3.01-3.1,6.94-4.15,10.98-4.95,1.2,.01,2.41,.03,3.61,.04Z" style="fill:#f5f8f8;"/><path d="M151.68,142.19c.3-.31,.61-.61,.91-.92,1.26,.51,2.28,1.47,2.89,2.54,.77,1.34-.43,.73-.98,.66-.94-.77-1.88-1.53-2.83-2.29Z" style="fill:#d8dddd;"/><path d="M153.73,295.82c-.12,.23-.19,.47-.22,.72-.32,.28-.64,.56-.96,.84-.77,.56-1.21-.12-1.74-.45-.24-.16-.5-.27-.78-.28-.64,1.1,1.46,1.51,.63,2.62-4.98,4.54-10.49,6.48-17.02,3.54-.34-.48-.28-.99-.13-1.48-.02,.02,.05-.36,.05-.36,0,0-.3-.24-.32-.21-.52,.41-.99,.87-1.71,.63-.88-.68-1.77-1.36-2.65-2.05-.82-1.23,1.44-1.63,.75-2.79-.32,.04-.58,.15-.81,.36-.53,.41-.97,1.08-1.78,.59-.64-.91-1.28-1.81-1.91-2.72,.22-.34,.51-.63,.85-.85,1.44-.52,1.89-2,2.86-2.97,.52-.33,1.08-.42,1.67-.24,.83,.44,1.08,1.38,1.73,1.97,.14,.08,.27,.17,.41,.25,.16,.02,.32,.06,.47,.08,1.23-.19,1.31-1.57,2.19-2.11,.52-.3,1.06-.36,1.62-.18,.8,.45,1.06,1.36,1.68,1.95,.14,.08,.27,.17,.4,.24,.16,.01,.31,.05,.45,.05,1.45-1.55-.7-1.84-.95-2.77-.29-.56-.38-1.15-.33-1.77,.07-.4,.21-.78,.41-1.13,1.17-1.04,2.01-2.39,3.12-3.5h-.05c.92-.63,1.83-.63,2.75,0h-.05c.74,.63,.81,1.42,.55,2.29-.33,.74-.95,1.24-1.5,1.79-.48,.56-.62,1.14-.13,1.78,.49,.53,1.06,.98,1.52,1.54,.59,.66,.78,1.72,1.89,1.8,.31-.09,.62-.21,.89-.4,.61-.63,.86-1.59,1.78-1.93,.63-.11,1.18,.05,1.68,.44,.76,1.65,2.82,2.55,2.7,4.7Z" style="fill:#f9fbfb;"/><path d="M62.93-2.31c.72-3.72,3.35-5.68,6.55-7.11,2.67-1.14,5.47-1.48,8.36-1.48,41.64,.01,83.28,0,124.91,.04,2.21,0,4.62-.58,6.45,1.38,1.81,1.04,4,1.37,5.46,3.13,1.68,2.03,1.92,4.34,1.92,6.83-.03,24.92-.02,49.83-.02,74.75-.56,1.09-.17,2.47-1.01,3.49-.12,.18-.25,.36-.37,.54-.16,.16-.32,.31-.48,.48-.37,.29-.76,.55-1.17,.78-1.69,1.4-3.94,.64-5.77,1.51-16.56,.35-33.11,.14-49.67,.14-26.36,0-52.71,.05-79.07,.02-2.58,0-5.16,.03-7.74-.03-1.55-.08-3.07-.32-4.46-1.07-.44-.17-.87-.38-1.29-.62-.74-.58-1.39-1.26-2-1.98-.27-.41-.48-.84-.65-1.3-1.24-1.66-.27-3.49-.43-5.25-.84-1.88-.72-3.86-.72-5.83-.01-20.6,.05-41.2,0-61.8,0-2.29-.05-4.57,1.19-6.62Z" style="fill:#fff;"/><path d="M218.52,35.25c.24-.01,.49,0,.73,.06,.25,11.98,.12,23.96,.08,36.14-1.99-.5-1.75-1.54-1.75-2.35-.03-9.99-.01-19.99-.03-29.98,0-1.39,.11-2.72,.98-3.87Z" style="fill:#c9c9c9;"/><path d="M219.22,34.12c-.55,.02-1.11,.05-1.66,.07-.02-11.67,0-23.33,.42-34.99,1.63,2.91,2.02,20.6,1.24,34.92Z" style="fill:#c9c9c9;"/><path d="M214.71,81.64c-.58,.06-1.17,.12-1.75,.18-.51-.82,.09-1.33,.54-1.87,.39-.37,.93-.54,1.3-.94l-.06,.06c.41-.38,.58-.92,.94-1.34,.35-.42,.52-.97,.99-1.3,1.09-.44,.5-1.96,1.85-2.56,.67,2.03-.91,3.48-1.15,5.16-1.1,.66-1.99,1.52-2.66,2.61Z" style="fill:#c8cece;"/><path d="M216.67,76.43c-.02,.76-.14,1.46-1.02,1.72-.21,.29-.44,.33-.7,.05,.53-.99,1.07-1.98,1.6-2.97,.04,.4,.08,.8,.12,1.2Z" style="fill:#a09797;"/><path d="M62.93-2.31c.18,25.31,.28,50.63-.05,75.94-.13,.09-.26,.18-.39,.26-.13-.08-.26-.17-.4-.25,.08-.79-.13-1.45-.85-1.88-1.06-5.99-.21-12.02-.48-18.03-.26-5.86,.54-11.75-.45-17.59,1.3-.94,1.3-1.88-.02-2.8,1.06-7.1,.17-14.25,.46-21.37,.18-4.4-.4-8.81,.32-13.2,.61-.36,1.23-.72,1.84-1.09Z" style="fill:#b0b0b0;"/><path d="M60.32,36.15c1.49,1.16,.87,2.8,.88,4.23,.06,10.46,.04,20.93,.04,31.39,0,0-.02,.01-.02,.01-.33,.23-.61,.18-.84-.14-.02-11.83-.04-23.66-.06-35.49Z" style="fill:#e1e1e1;"/><path d="M61.08-1.22c.05,10.72,.1,21.45,.14,32.17,0,.91,0,1.83-.92,2.39,0-10.11-.04-20.22,.02-30.32,0-1.42-.64-3.04,.76-4.24Z" style="fill:#e1e1e1;"/><path d="M62.01,77.34h-.41s-.4-.07-.4-.07c-.15-.57-.23-1.17-.47-1.7-.67-1.48,.08-1.87,1.37-1.91,0,0-.02-.05-.02-.05,.86,.99,.45,2.16,.43,3.27-.17,.16-.33,.32-.5,.47Z" style="fill:#cdd1d1;"/><path d="M60.38,71.64c.28,.05,.56,.1,.84,.14-.39,.62-.67,.54-.84-.14Z" style="fill:#b0b0b0;"/><path d="M140.73,83.63c0-.3,.03-.59,.08-.89,1.13-1.01,2.52-.92,3.88-.92,20,0,40-.04,60,.01,.76,0,1.51,.08,2.24,.34,.64,.32,.82,.8,.54,1.45-22.24,0-44.49,0-66.73,0Z" style="fill:#cab7b7;"/><path d="M213.89,79.97c-.31,.62-.62,1.24-.93,1.86,0,0,.05-.03,.05-.03-.89,.64-1.8,.59-2.72,.09-.35,0-.7,0-1.05-.01-.07-.14-.15-.29-.22-.43,.12-.11,.23-.22,.35-.33,1.71-.18,3.1-1.16,4.58-1.89,.18,.18,.24,.36,.16,.52-.08,.16-.15,.23-.22,.23Z" style="fill:#a99c9c;"/><path d="M207.46,83.62c-.02-.29-.08-.58-.16-.86-.19-.43-.13-.83,.19-1.18,.64-.21,1.28-.35,1.78,.28,0,0-.03,0-.03,.01,.06,1.25-.59,1.77-1.78,1.75Z" style="fill:#817d7d;"/><path d="M210.29,81.88c.91-.03,1.81-.06,2.72-.09-.65,1.1-1.78,.87-2.78,1.03,.02-.31,.04-.63,.06-.94Z" style="fill:#cbd1d1;"/><path d="M138.74,82.75c.07,.28,.1,.57,.09,.87-22.24,0-44.48-.01-66.72-.02-.2-.67,.02-1.15,.65-1.45,5.46-.74,10.94-.29,16.41-.31,14.77-.08,29.55-.04,44.32,0,1.78,0,3.69-.45,5.25,.92Z" style="fill:#cab6b6;"/><path d="M72.22,82.73c-.06,.28-.1,.57-.11,.86-.57,0-1.14,.01-1.71,.02-.58-.55-.6-1.19-.28-1.87,.62-.43,1.29-.4,1.98-.2,.4,.36,.43,.76,.12,1.2Z" style="fill:#888484;"/><path d="M70.43,81.84c0,.59-.02,1.18-.03,1.77-.66-.02-1.32-.03-1.98-.05,.05-.25,.05-.5,0-.75,.12-.59,.49-.96,1.03-1.18,.37-.14,.7-.07,.98,.2Z" style="fill:#aab9b9;"/><path d="M63.96,79.97c-1.19-.48-1.79-1.4-1.95-2.64,0,0,.2-.16,.2-.16,.99-.42,1.27,.51,1.8,.96l-.02-.03c.35,.44,.5,.93,.36,1.49-.13,.13-.25,.25-.38,.38Z" style="fill:#cdd1d1;"/><path d="M66.68,81.93c-1.26-.16-2.22-.74-2.72-1.96,0,0,0,0,0,0,.62-.55,1.24-.52,1.87-.03l-.03-.02c.46,.42,.99,.78,1.14,1.43-.09,.19-.18,.38-.27,.57Z" style="fill:#c8d3d3;"/><path d="M69.42,81.84c-.34,.33-.67,.65-1.01,.98-.69-.08-1.37-.17-1.74-.89,0,0,.13-.15,.13-.15,.63-.73,1.44-.37,2.19-.35,.14,.14,.28,.27,.42,.41Z" style="fill:#aac1c1;"/><path d="M134.33,99.2c-.05-.55-.38-.86-.88-1.01-.21-2.34,.02-4.56,1.81-6.33,3.05,0,6.1-.02,9.15-.02,.27,.93,.89,1.54,1.78,1.89,0,1.2,0,2.39,0,3.58-.87,.36-1.43,1.01-1.8,1.86-3.35,.01-6.7,.02-10.06,.03Z" style="fill:#faf9f9;"/><path d="M70.43,81.84c-.33,0-.67,0-1,0,0,0,0-.07,0-.07-.29-.16-.39-.32-.3-.5,.09-.18,.17-.27,.27-.27,45.44-.02,90.89-.04,136.33-.05,1.21,0,2.43,.1,3.64,.15-.02,.25-.05,.5-.09,.75-.55,0-1.1,0-1.66,0-1.3,.67-2.69,.37-4.04,.37-19.62,.02-39.24,.02-58.86,0-1.34,0-2.74,.32-4.03-.4-.6,0-1.19,0-1.79-.01-.82,.56-1.75,.42-2.65,.42-20.52,0-41.05,0-61.57,0-.9,0-1.83,.13-2.67-.37-.53,0-1.06-.02-1.58-.03Z" style="fill:#c1a7a7;"/><path d="M72.01,81.87c22.3-.02,44.6-.04,66.89-.05-.05,.31-.11,.62-.16,.93-22.18,0-44.35-.01-66.52-.02-.03-.3-.1-.58-.21-.86Z" style="fill:#aab9b9;"/><path d="M140.69,81.83c22.31,.01,44.62,.02,66.93,.03-.1,.3-.21,.59-.31,.89-22.17,0-44.33-.01-66.49-.02-.04-.3-.08-.6-.12-.9Z" style="fill:#aab8b8;"/><path d="M153.63,249.98c-.25,4.27-.25,8.54,0,12.81-.37,.23-.73,.65-1.1,.65-5.23,0-10.47,.18-15.66-.61-2.01-.3-4.17-.63-5.31-2.76,.17-.18,.35-.36,.52-.54,.43-.26,.89-.44,1.37-.54,4.7-.62,9.48,.44,14.15-.7,2.04-.85,3.16-2.36,2.65-4.57-.65-2.84-2.91-3.98-5.51-4.62-1.24-.41-2.05-1.29-2.21-2.55-.55-4.18-3.15-6.14-7.08-6.75-.63-.32-1.16-.7-1.01-1.53,9.73-3.13,16.98,1.28,19.19,11.71Z" style="fill:#fafbfb;"/><path d="M131.57,260.08c-5.65-3.51-7.17-10.35-3.61-16.33,.69-1.16,1.48-2.25,2.69-2.94,.84-.34,1.19,.19,1.48,.84,.09,.43,.11,.86,.07,1.29-.41,2.63-.67,5.26,.08,7.88,1.36,1.89,1.94,.61,2.52-.64,.56-2.06-.67-5.58,2.16-5.75,3.16-.2,1.82,3.42,2.48,5.36,.15,.43,.37,.83,.66,1.18,.91,.88,2.01,1.24,3.24,1.46,1.42,.26,3.45,.27,3.13,2.38-.28,1.86-2.22,1.75-3.69,1.85-3.01,.2-6.04-.1-9.03,.22-.37,.15-.71,.35-.99,.64-.69,.7-.57,1.79-1.15,2.55l-.03,.02Z" style="fill:#fafafa;"/><path d="M131.71,241.89c-.36-.36-.71-.71-1.07-1.07,.9-1.38,2.18-2.22,3.79-2.54,.3,.27,.6,.54,.9,.81-.26,2.15-1.69,2.8-3.62,2.8Z" style="fill:#dce2e2;"/><path d="M156.38,282.65c-.12-.04-.32-.05-.36-.13-.14-.27,.03-.43,.4-.37,.11,.02,.2,.18,.3,.27-.11,.08-.23,.16-.34,.23Z" style="fill:#f9f9f9;"/><path d="M123.74,282.43c-.11,.07-.23,.2-.33,.2-.39-.02-.5-.21-.26-.44,.08-.08,.28-.09,.39-.05,.09,.03,.14,.19,.2,.29Z" style="fill:#f9f9f9;"/><path d="M138.02,280.1c1.21,0,2.42,0,3.62,0,.02,.34,.04,.67,.05,1.01h0c-.63,.6-1.26,1.21-1.89,1.81-.31,.35-.61,.34-.89-.04-.02-.76-.19-1.43-.96-1.78h0c.02-.33,.04-.67,.06-1.01Z" style="fill:#fff;"/><path d="M144.41,283.81c-.92,0-1.83,0-2.75,0,.92-1.18,1.83-1.17,2.75,0Z" style="fill:#b8a9a9;"/><path d="M138.92,282.88c.3,0,.6,.02,.89,.04,.03,.3,.03,.6,.01,.89,0,0,0,0,0,0-.15,.1-.3,.19-.45,.29-.15-.09-.31-.19-.46-.28,0-.32,0-.63,0-.95Z" style="fill:#c5c0c0;"/><path d="M141.7,281.11c.13,.13,.25,.26,.38,.39-.08-.02-.19-.02-.23-.08-.07-.09-.1-.21-.14-.32,0,0,0,0,0,0Z" style="fill:#afb1b1;"/><path d="M144.36,281.1c-.12,.13-.25,.26-.37,.39,.02-.08,.01-.19,.07-.23,.08-.07,.21-.1,.31-.15,0,0,0,0,0,0Z" style="fill:#afb2b2;"/><path d="M135.3,283.78c.91-1.15,1.81-1.13,2.69,.03-.15,.14-.31,.28-.46,.43-.86,.34-1.64,.27-2.27-.48l.05,.02Z" style="fill:#b8a9a9;"/><path d="M135.3,281.11c.12,.13,.25,.25,.37,.38-.08-.02-.18-.02-.22-.08-.07-.09-.1-.21-.14-.31,0,0,0,0,0,0Z" style="fill:#afb1b1;"/><path d="M137.96,281.11c-.12,.13-.24,.26-.36,.38,.02-.08,.02-.19,.07-.23,.08-.07,.2-.1,.31-.15,0,0,0,0,0,0Z" style="fill:#afb2b2;"/><path d="M119.81,279c-.13-.04-.32-.05-.36-.13-.14-.27,.02-.43,.4-.38,.11,.02,.2,.18,.3,.27-.11,.08-.23,.16-.34,.24Z" style="fill:#f9f9f9;"/><path d="M133.74,278.59c0,.1,.02,.26-.04,.3-.1,.07-.28,.13-.38,.08-.42-.18-.4-.39,.05-.5,.11-.03,.25,.08,.37,.12Z" style="fill:#f9f9f9;"/><path d="M139.92,279c-.13-.04-.32-.05-.36-.13-.14-.27,.02-.43,.4-.38,.11,.02,.2,.18,.3,.27-.11,.08-.23,.16-.34,.24Z" style="fill:#f9f9f9;"/><path d="M160.28,278.85c-.12,.05-.26,.15-.37,.13-.41-.1-.45-.31-.11-.5,.09-.05,.28,0,.39,.07,.07,.04,.06,.2,.09,.31Z" style="fill:#f9f9f9;"/><path d="M129.75,282.13c.12,.05,.32,.08,.35,.16,.08,.28-.12,.43-.49,.35-.08-.02-.13-.2-.2-.3,.11-.07,.23-.14,.34-.21Z" style="fill:#f9f9f9;"/><path d="M149.57,282.27c.12-.05,.26-.15,.37-.13,.41,.1,.45,.31,.11,.5-.09,.05-.28,0-.39-.07-.07-.04-.06-.2-.09-.31Z" style="fill:#f9f9f9;"/><polygon points="149.63 275.15 149.38 275.23 149.41 275.02 149.63 275.15" style="fill:#e4e6e6;"/><path d="M148.94,268.29c0-.62,0-1.24,0-1.86,.94,.62,1.02,1.24,0,1.86Z" style="fill:#dbe7e7;"/><path d="M154.37,277.52c.05,.26,.04,.52-.03,.78,0,0-.29,0-.29,0,0,0-.29,0-.29,0-.06-.47,.17-.71,.62-.77Z" style="fill:#afb2b2;"/><path d="M145.44,278.29c-.07-.26-.08-.52-.03-.78,.45,.06,.68,.3,.63,.77,0,0-.3,0-.3,0h-.3Z" style="fill:#afb1b1;"/><path d="M140.75,117.4c.87,1.63-.37,1.76-1.36,1.66-1.11-.12-1.54-.78-.49-1.7,.63-.44,1.25-.45,1.85,.04Z" style="fill:#956f6f;"/><path d="M140.75,117.4c-.62-.01-1.24-.02-1.85-.04,.02-.3,.05-.59,.09-.89,.54-.02,1.09-.03,1.63-.05,.04,.33,.09,.65,.13,.98Z" style="fill:#adcfcf;"/><path d="M120.53,118.46c-.6-.39-.56-.74,.06-1.05-.02,.35-.04,.7-.06,1.05Z" style="fill:#b6b6b6;"/><path d="M64,78.13c-.6-.32-1.2-.64-1.8-.96-.04-1.19-.09-2.39-.13-3.58,.27,0,.54,.02,.8,.04,.37,1.5,.75,3,1.12,4.5Z" style="fill:#949191;"/><path d="M69.39,81.01c.02,.25,.03,.51,.04,.77-.87,0-1.75,0-2.62,0-.34-.62-.67-1.23-1.01-1.85,1.36-.19,2.31,1.01,3.59,1.08Z" style="fill:#9f9292;"/><path d="M65.82,79.95c-.62,0-1.25,.02-1.87,.03,0-.62,.02-1.25,.02-1.87,1.02,.22,1.65,.81,1.85,1.85Z" style="fill:#969090;"/><path d="M214.96,78.2c.24,.02,.47,0,.7-.05-.05,.55-.35,.86-.91,.92,.07-.29,.14-.58,.21-.86Z" style="fill:#7e7272;"/><path d="M213.89,79.97c.06-.25,.08-.5,.06-.75,.28-.07,.57-.14,.85-.21-.05,.56-.37,.87-.91,.96Z" style="fill:#847575;"/><path d="M141.7,97.5c-1.59,1.14-3.15,1.15-4.67-.12,.16-.76,.62-1.26,1.31-1.58,1.21-.4,2.37-.38,3.44,.42,.34,.45,.31,.87-.08,1.28Z" style="fill:#87b1b1;"/><path d="M138.01,93.52c1.24-.77,2.45-.86,3.62,.14,.14,.19,.28,.37,.42,.56-.16,.47-.46,.8-.91,1-1.17,.32-2.3,.38-3.29-.47-.27-.45-.21-.86,.17-1.22Z" style="fill:#7ea6a6;"/><path d="M138.01,93.52c-.03,.31-.06,.62-.08,.93,.16,.77,.19,1.55,.15,2.34-.35,.2-.7,.4-1.05,.6-1.5-2.41-1.43-2.68,.98-3.86Z" style="fill:#8a8282;"/><path d="M142.69,94.58c.99,.61,1.03,1.25,.05,1.91-.19-.08-.39-.17-.58-.25-.46-.45-.89-.91-.5-1.63l.26-.16c.3-.2,.56-.16,.77,.13Z" style="fill:#918d8d;"/><path d="M142.69,94.58c-.26-.05-.51-.09-.77-.13-.16-.24-.25-.5-.29-.79,.59,.03,.96,.33,1.06,.92Z" style="fill:#836b6b;"/><path d="M141.7,97.5c-.01-.29-.04-.58-.1-.87,.22-.57,.55-.63,.97-.19,0,0,.16,.05,.16,.05-.11,.57-.48,.89-1.03,1.01Z" style="fill:#7b6b6b;"/><path d="M131.71,241.89c1.21-.93,2.41-1.87,3.62-2.8,5.53,.02,7.3,1.51,8.14,7.12,.18,1.23,.58,1.92,1.79,2.1-.14,1.79-1.44,1.51-2.61,1.46-1.56-.49-1.79-1.83-2.08-3.18-1.18-5.37-3.05-5.92-7.47-2.23-.23,.19-.51,.3-.81,.4-1.27-.36-1.31-1.13-.72-2.11,.02-.25,.07-.5,.14-.74Z" style="fill:#928d8d;"/><path d="M142.47,249.1c.99-.07,2.06,.15,2.79-.8,.96-.17,1.82,.19,2.62,.61,4.6,2.39,5,6.31,1.05,10.1-.31-.32-.52-.7-.64-1.13,.72-3.83,.44-6.99-4.6-7.19-.75-.03-1.34-.66-1.21-1.6Z" style="fill:#969292;"/><path d="M148.87,257.77c.02,.42,.04,.83,.06,1.25-.86,.64-1.78,1.19-2.89,1.14-4.5-.22-9.03,.42-13.51-.33-.16-.59,.03-1.03,.57-1.32,5.21-1.24,10.51-.6,15.77-.73Z" style="fill:#7f7272;"/><path d="M132.64,258.83c-.04,.33-.08,.66-.12,.99-.31,.08-.62,.16-.94,.24,.34-.95-1.46-1.81-.11-2.8,.23-.33,.54-.43,.92-.31,.3,.22,.5,.51,.6,.88,.01,.38-.1,.71-.35,1Z" style="fill:#837373;"/><path d="M131.79,256.46c1.35-1.82,3.31-.94,5.01-1.05,3.03-.21,6.12,.29,9.32-.43-.68-1.83-1.84-1.5-2.79-1.56-1.64-.1-3.35,.07-4.48-1.51-.29-1.17,.53-1.33,1.36-1.49,1.66,0,3.26,.43,4.89,.63,1.95,.25,3.42,1.45,3.35,3.56-.07,2.01-1.74,2.76-3.45,2.87-4.17,.25-8.35,.68-12.51-.19l-.29-.1c-.12-.26-.25-.5-.41-.74Z" style="fill:#918585;"/><path d="M139.77,250.92c-.3,.33-.61,.66-.91,.99-1.96-2.04,.13-4.97-1.64-7.35-2.32,2.19,.18,5.43-1.86,7.43-.78-.18-1.31-.67-1.67-1.36-.74-2.99-1.06-5.9,1.69-8.17,1.24-.38,2.47-.44,3.69,.06,2.56,2.61,2.15,5.46,.69,8.4Z" style="fill:#9c9d9d;"/><path d="M131.58,242.63c.06,.7,.14,1.39,.78,1.84,1.8,1.78,.92,3.95,.86,5.99-.31,.8-.87,1.33-1.72,1.53-1.29-3.13-1.34-6.25,.08-9.36Z" style="fill:#a1a1a1;"/><path d="M131.5,251.99c.31-.36,.62-.71,.94-1.07,.65-.1,1.3-.13,1.96-.01,.33,.36,.65,.72,.98,1.08-1.29,1.77-2.58,1.7-3.87,0Z" style="fill:#8f9292;"/><path d="M131.79,256.46c.14,.25,.28,.49,.41,.74-.24,.04-.48,.07-.73,.07,.1-.27,.21-.54,.31-.8Z" style="fill:#766f6f;"/><path d="M142.57,96.44c-.32,.06-.64,.12-.97,.19-1.18,.05-2.35,.11-3.53,.16-1.06-.71-1.29-1.48-.15-2.33,1.24,.05,2.49,.11,3.73,.16,.31,.61,.61,1.22,.92,1.83Z" style="fill:#e9e2e2;"/><path d="M134.39,250.91c-.65,.88-1.3,.88-1.95,.01-.03-2.15-.05-4.3-.08-6.45,.29-1.03,.78-1.93,1.61-2.64,1.53-1.32,3.31-1.39,5.07-.77,1.7,.6,2.48,1.99,2.67,3.8,.15,1.43-.54,3.03,.77,4.25,.53,.61,1.26,.7,2.01,.8,5.38,.7,6.43,2.6,4.39,7.87-2.35,1.46-4.97,1.26-7.55,1.23-2.89-.03-5.78-.12-8.68-.18-.05-.51-.1-1.02-.15-1.53,1.97-1.12,4.13-.65,6.21-.73,1.81-.07,3.62,0,5.43,.02,1.73,0,3.74-.13,3.63-2.33-.1-1.89-1.91-2.42-3.74-2.51-1.44-.07-3.06,.55-4.26-.82,.02-1.63,.03-3.26,.06-4.89,.03-1.46-.41-2.62-1.91-3.14-.54,.25-1.09,.25-1.64,.03-1.58,.7-1.95,2.06-1.95,3.6,0,1.46,.04,2.93,.06,4.39Z" style="fill:#f3f5f5;"/><path d="M136.28,242.92c.55,0,1.1-.02,1.64-.03-.54,.72-1.08,.74-1.64,.03Z" style="fill:#997676;"/></g><g id="ToucheSensor-3"><circle id="Sensor" cx="102.3" cy="170.95" r="22.68" style="fill:none; stroke:#00d4d1; stroke-miterlimit:10;"/><circle id="bodyTouchSensors-rightShoulder" cx="102.3" cy="170.95" r="22.68" style="fill:#00d4d1; opacity:.5;cursor: pointer;"/></g></svg>