<?xml version="1.0" encoding="UTF-8"?><svg id="Capteur" xmlns="http://www.w3.org/2000/svg" viewBox="0 0 255.12 255.12"><g id="Body"><g id="Volume"><path d="M221.18,243.83c13.46,0,26.2-26.66,24.61-86.97-1.59-60.34-31.88-148.99-121.38-148.99C40.73,7.87,6.97,99.58,6.97,157.74c0,50.52,7.01,88.54,25.95,88.54,21.04,0,16.57-30.68,32.58-30.68,12.9,0,27.26,14.95,60.1,14.95s53.26-15.62,66.4-15.62,12.9,28.9,29.19,28.9Z" style="fill:#fff;"/><path d="M124.42,7.08c21.24,0,40.39,5.02,56.9,14.91,14.6,8.75,27.19,21.3,37.42,37.33,16.76,26.26,26.91,61.8,27.85,97.53,1.09,41.45-4.66,71.76-15.77,83.17-2.99,3.06-6.23,4.62-9.64,4.62-9.07,0-13.32-8.53-17.06-16.05-3.29-6.61-6.4-12.85-12.12-12.85-4.94,0-10.95,2.28-18.56,5.16-12.28,4.66-27.57,10.45-47.83,10.45s-33.95-5.82-43.88-10.07c-6.38-2.73-11.42-4.88-16.23-4.88-6.95,0-9.73,6.17-12.96,13.3-3.68,8.14-7.86,17.37-19.61,17.37-22.11,0-26.75-48.58-26.75-89.33,0-15.29,2.29-31.94,6.61-48.16,4.77-17.88,11.98-34.83,20.85-49.01C48.91,36.17,77.06,7.08,124.42,7.08Zm96.77,235.96c2.97,0,5.83-1.39,8.51-4.14,10.81-11.1,16.4-41,15.32-82.02-1.45-55.05-28.48-148.22-120.59-148.22C43.95,8.66,7.76,95.84,7.76,157.74c0,26.92,1.97,48.12,5.85,63.02,4.27,16.41,10.77,24.73,19.32,24.73,10.73,0,14.51-8.36,18.17-16.44,3.31-7.32,6.44-14.23,14.41-14.23,5.13,0,10.3,2.21,16.85,5.01,10.35,4.43,23.23,9.94,43.26,9.94s35.11-5.74,47.27-10.35c7.76-2.94,13.89-5.27,19.12-5.27,6.7,0,10.02,6.67,13.54,13.72,3.71,7.46,7.56,15.17,15.65,15.17Z" style="fill:#2b2b2b;"/></g><g id="Collerette"><ellipse cx="125.68" cy="118.14" rx="47.17" ry="106.38" style="fill:#e5e5e5;"/><path d="M125.68,11.56c12.68,0,24.59,11.11,33.54,31.28,8.92,20.12,13.83,46.86,13.83,75.3s-4.91,55.19-13.83,75.3c-8.94,20.17-20.85,31.28-33.54,31.28s-24.59-11.11-33.54-31.28c-8.92-20.12-13.83-46.86-13.83-75.3s4.91-55.19,13.83-75.3c8.94-20.17,20.85-31.28,33.54-31.28Zm0,212.76c25.9,0,46.97-47.63,46.97-106.18S151.58,11.96,125.68,11.96s-46.97,47.63-46.97,106.18,21.07,106.18,46.97,106.18Z" style="fill:#ccc;"/><path d="M124.57,21.88c11.37,0,22.05,9.06,30.06,25.52,7.99,16.41,12.4,38.23,12.4,61.43s-4.4,45.02-12.4,61.43c-8.02,16.46-18.69,25.52-30.06,25.52s-22.05-9.06-30.06-25.52c-7.99-16.41-12.4-38.23-12.4-61.43s4.4-45.02,12.4-61.43c8.02-16.46,18.69-25.52,30.06-25.52Zm0,173.52c23.19,0,42.06-38.84,42.06-86.57S147.77,22.25,124.57,22.25s-42.06,38.84-42.06,86.57,18.87,86.57,42.06,86.57Z" style="fill:#ccc;"/><ellipse cx="125.01" cy="107.13" rx="31.38" ry="69.2" style="fill:#999;"/></g><g id="EpauleGauche"><ellipse cx="219.31" cy="115.33" rx="15.94" ry="32.21" transform="translate(-7.68 15.98) rotate(-4.1)" style="fill:#00d4d1;"/><ellipse cx="220.03" cy="115" rx="13.86" ry="29.45" transform="translate(-7.66 16.03) rotate(-4.1)" style="fill:#fff;"/></g><g id="EpauleDroite"><ellipse cx="33.43" cy="115.33" rx="32.21" ry="15.94" transform="translate(-83.99 140.43) rotate(-85.9)" style="fill:#00d4d1;"/><ellipse cx="32.71" cy="115" rx="29.45" ry="13.86" transform="translate(-84.33 139.4) rotate(-85.9)" style="fill:#fff;"/></g><g id="CapteurAvant"><path d="M181.87,216.99c-2.05-2.98-4.04-6.8-4.04-6.8,0,0-23.71,17.19-51.37,17.19s-54.96-19.11-54.96-19.11c0,0-1.66,3.53-3.23,7.07,6.86,.84,26.57,15.21,57.35,15.21s48.14-11.13,56.26-13.56Z" style="fill:#2b2b2b;"/></g></g><g id="Head"><path d="M229.07,160.01c7.17-7.76-3.25-69.23-16.33-88.75S173.35,23.55,127.63,22.89c-45.72-.66-75.29,27.47-84.97,46.16s-23.11,46.25-21.75,87.14c2,8.92,11.38,10.49,21.56,11.25s153.89,2.42,165.84,1.63c9.75-.65,13.59-1.3,20.76-9.06Z" style="fill:#fff;"/><path d="M19.81,150.3c0-36.17,11.27-61.08,21.96-81.71,8.53-16.46,37.45-47.4,85.87-46.7,44.41,.64,71.68,26.61,85.92,48.81,12.41,19.35,24.11,81.46,16.24,89.99h0c-7.53,8.15-11.75,8.73-21.43,9.38-12.91,.86-156.31-.91-165.98-1.63-10.17-.76-20.29-2.31-22.46-12.03l-.02-.19c-.07-2.01-.1-3.98-.1-5.92Zm210.66-2.59c0-20.39-8.7-60.42-18.57-75.9-13.92-21.84-40.74-47.29-84.29-47.92-47.45-.69-75.74,29.54-84.07,45.62-11.14,21.5-22.91,47.69-21.64,86.55,1.92,8.3,10.86,9.65,20.64,10.38,9.65,.72,152.81,2.48,165.7,1.63,9.51-.63,13.16-1.23,20.09-8.74h0c1.47-1.59,2.14-5.81,2.14-11.62Z" style="fill:#2b2b2b;"/><path d="M21.45,144.15c3.33-8.31,86.71-9.6,145.03-6.88,23.4,1.09,62.9,3.79,64.61,9.57l-.96,.28c-.85-2.88-18.03-6.72-63.7-8.86-62.94-2.94-141.23-.81-144.06,6.25l-.93-.37Z" style="fill:#ccc;"/><path d="M21.45,150.15c3.33-8.31,86.71-9.6,145.03-6.88,23.4,1.09,62.9,3.79,64.61,9.57l-.96,.28c-.85-2.88-18.03-6.72-63.7-8.86-62.94-2.94-141.23-.81-144.06,6.25l-.93-.37Z" style="fill:#ccc;"/><path d="M45.39,155.47v-.06c0-2.65,2.16-4.81,4.81-4.81H196.07c2.65,0,4.81,2.16,4.81,4.81v.12s-1,4.14-1,4.14c-.05,2.64-3.2,4.75-5.81,4.75H52.2c-2.61,0-5.76-2.11-5.81-4.75l-1-4.2Zm154.5-.12c-.03-2.08-1.73-3.75-3.81-3.75H50.2c-2.08,0-3.78,1.68-3.81,3.75l1,4.25c0,2.05,2.65,3.81,4.81,3.81H194.07c2.17,0,4.81-1.76,4.81-3.81v-.12s1-4.14,1-4.14Z" style="fill:#ccc;"/><path d="M48.82,154.57v-.07c0-2.15,2.06-3.9,4.59-3.9H191.97c2.53,0,4.6,1.75,4.6,3.9l-.02,.13-.88,3.25c-.07,2.13-3.09,3.83-5.59,3.83H55.32c-2.51,0-5.53-1.7-5.59-3.83l-.9-3.32Zm146.75-.13c-.04-1.57-1.64-2.84-3.59-2.84H53.42c-1.96,0-3.55,1.27-3.59,2.84l.9,3.38c0,1.54,2.57,2.9,4.59,2.9H190.08c2.03,0,4.59-1.37,4.59-2.9l.02-.13,.88-3.24Z" style="fill:#ccc;"/><path d="M87.17,141.96l.63-7.5c.02,.53,2.54-48.17,38.65-48.17s39.15,49.33,39.18,49.83l.07,7.52h-.51s-78.02-1.68-78.02-1.68Zm77.52,.67l-.06-6.48c-.03-.47-3.02-48.86-38.18-48.86s-37.63,47.75-37.65,48.23l-.54,6.45,76.43,.66Z" style="fill:#ccc;"/><path d="M165.52,143.64c2.12,.93-7.25,5.4-7.28,5.4s-61.23,0-61.23,0c0,0-10.74-5.24-9.84-6.21s76.23-.12,78.35,.81Z" style="fill:#555;"/></g><g id="BeemForming"><path d="M131.4,109.71c0-1.61,1.31-2.91,2.91-2.91s2.91,1.31,2.91,2.91-1.31,2.91-2.91,2.91-2.91-1.31-2.91-2.91Zm4.83,0c0-1.06-.86-1.91-1.91-1.91s-1.91,.86-1.91,1.91,.86,1.91,1.91,1.91,1.91-.86,1.91-1.91Z" style="fill:#ccc;"/><path d="M118.25,109.71c0-1.61,1.31-2.91,2.91-2.91s2.91,1.31,2.91,2.91-1.31,2.91-2.91,2.91-2.91-1.31-2.91-2.91Zm4.83,0c0-1.06-.86-1.91-1.91-1.91s-1.91,.86-1.91,1.91,.86,1.91,1.91,1.91,1.91-.86,1.91-1.91Z" style="fill:#ccc;"/><path d="M124.81,116.05c0-1.61,1.31-2.91,2.91-2.91s2.91,1.31,2.91,2.91-1.31,2.91-2.91,2.91-2.91-1.31-2.91-2.91Zm4.83,0c0-1.06-.86-1.91-1.91-1.91s-1.91,.86-1.91,1.91,.86,1.91,1.91,1.91,1.91-.86,1.91-1.91Z" style="fill:#ccc;"/><path d="M124.81,103.29c0-1.61,1.31-2.91,2.91-2.91s2.91,1.31,2.91,2.91-1.31,2.91-2.91,2.91-2.91-1.31-2.91-2.91Zm4.83,0c0-1.06-.86-1.91-1.91-1.91s-1.91,.86-1.91,1.91,.86,1.91,1.91,1.91,1.91-.86,1.91-1.91Z" style="fill:#ccc;"/><path d="M124.83,109.71c0-1.61,1.31-2.91,2.91-2.91s2.91,1.31,2.91,2.91-1.31,2.91-2.91,2.91-2.91-1.31-2.91-2.91Zm4.83,0c0-1.06-.86-1.91-1.91-1.91s-1.91,.86-1.91,1.91,.86,1.91,1.91,1.91,1.91-.86,1.91-1.91Z" style="fill:#ccc;"/><path d="M115.86,109.76c0-6.43,5.23-11.65,11.65-11.65s11.65,5.23,11.65,11.65-5.23,11.65-11.65,11.65-11.65-5.23-11.65-11.65Zm22.31,0c0-5.87-4.78-10.65-10.65-10.65s-10.65,4.78-10.65,10.65,4.78,10.65,10.65,10.65,10.65-4.78,10.65-10.65Z" style="fill:#ccc;"/></g><g id="TouchSensor"><circle id="Sensor" cx="67.26" cy="94.33" r="22.68" style="fill:none; stroke:#00d4d1; stroke-miterlimit:10;"/><circle id="headTouchSensors-right" cx="66.74" cy="94.33" r="22.68" style="fill:#00d4d1; opacity:.5;cursor: pointer;"/></g></svg>