<?xml version="1.0" encoding="UTF-8"?><svg id="Face-5" xmlns="http://www.w3.org/2000/svg" viewBox="0 0 283.58 283.58"><g id="Face-6"><path d="M13.49,427.08c-1.98,.81-3.4,2.39-5.05,3.65-2.7,2.08-5.85,2.16-8.56,.27-1.28-.89-.89-2.12-.88-3.25,.08-5.84,.08-11.68,.38-17.51,.55-10.62,.27-21.27,.75-31.88,.92-20.5,2.9-40.88,7.87-60.87,1.41-5.68,3.53-11.11,6.4-16.23,2.17-3.87,5.01-7.19,8.97-9.2,2.17-1.1,2.96-2.69,3.45-4.78,2.99-12.66,6.34-25.23,10.09-37.69,5.08-16.9,10.08-33.87,17.9-49.77,8.22-16.69,19.82-30.62,35.42-40.96,5.35-3.55,11.77-4.95,17.26-8.27,1.02-.62,2-.32,2.93,.34,1.34,.95,2.71,1.87,4.59,3.15,2.35-4.7,6.69-8.25,4.78-14.54-1.12-3.67-1.25-7.66-1.62-11.53-.24-2.56-1.38-3.51-3.96-3.73-11.36-.97-22.5-3.21-33.46-6.32-6.48-1.84-12.78-4.14-18.92-6.95-14.97-6.83-24.36-18.47-29.52-33.8-3.12-9.27-4.6-18.87-5.47-28.58-1.37-15.34-.69-30.51,3.83-45.34,.91-3,2.01-5.95,3.27-8.83,5.35-12.23,14.12-20.94,26.68-25.78,10.25-3.95,20.91-6.26,31.7-7.98,25.12-4.01,50.38-4.53,75.69-2.55,15.68,1.22,31.24,3.33,46.17,8.69,3.67,1.32,7.24,2.84,10.66,4.7,5.9,3.2,10.7,7.57,14.45,13.17,7.69,11.47,11.85,24.22,12.99,37.8,1.54,18.35-.12,36.45-5.99,54.06-6.16,18.49-18.07,31.31-36.43,38.22-13.41,5.05-27.24,8-41.44,9.43-7.3,.73-7.33,.6-8.24,7.68-.38,2.97-.55,5.97-1.08,8.91-.64,3.58,.34,6.42,3.15,8.65,5.17-2.99,5.19-3.02,10.6,.05,3.39,1.92,6.98,3.41,10.48,5.09,9.36,4.48,16.86,11.32,23.48,19.17,11.74,13.91,19.77,29.89,25.91,46.9,7.57,20.98,13.25,42.53,18.76,64.12,.63,2.46,1.7,4.16,3.81,5.68,5.51,3.95,8.88,9.62,11.65,15.68,3.89,8.53,5.63,17.63,7.13,26.79,3.99,24.44,5.39,49.07,5.33,73.81-.02,7.64,.06,15.27,.23,22.91,.04,2.09-.51,2.81-2.73,2.91-3.47,.16-6.44-.45-9.01-2.95-1.47-1.43-3.26-2.52-5.38-4.12-.51,5.07-.42,9.6-.09,14.14,.3,.55,.18,.98-.38,1.28-1.6,.13-3.21,.04-4.82,.07-8.39-.07-16.78,.15-25.17-.11-.48-.31-.84-.74-1.08-1.26-.77-2.17-.49-4.43-.56-6.66-.16-4.86-.53-5.23-5.52-5.35-1.49-.04-2.99-.01-4.49-.01-21.23,0-42.46-.01-63.69,0-6.96,0-6.96,.03-7.09,6.95-.03,1.64,.06,3.29-.47,4.89-.2,.54-.53,.99-.98,1.36-6.19,.4-12.38,.2-18.56,.11-2.39-2.07-1.2-4.88-1.52-7.38-.24-1.93,.7-4.19-1.62-5.49-1.47-.43-2.97-.41-4.46-.41-23.61,0-47.22,0-70.83,0-1.5,0-2.99,0-4.43,.45-2.15,1.24-1.38,3.36-1.58,5.19-.28,2.56,.83,5.38-1.39,7.59-8.93,.32-17.87-.03-26.8,.19-2.63,.06-3.23-.94-3.22-3.38,.02-3.53,.57-7.09-.36-10.6Z" style="fill:#555;"/><path d="M182.47,158.47c4.74,2.18,8.96,5.1,12.51,8.94,5.48,7.5,8.68,16.21,12.94,24.36,1.44,2.75,2.91,5.51,4.12,8.39,5.79,11.94,11.47,23.94,19.2,34.81,1.13,1.59,1.91,3.36,2.41,5.26,3.27,4.58,4.81,9.88,6.22,15.22,2.87,10.82,5.78,21.64,8.59,32.48,.55,2.11,1.27,3.65,3.45,4.75,3.39,1.71,5.67,4.79,7.77,7.93,4.65,6.95,7.33,14.72,8.88,22.83,4.2,21.91,6.7,44.01,6.67,66.36-.01,11.51,.14,23.03,.16,34.54,0,1.12,.47,2.35-.4,3.42-1.49,.06-2.07-1.74-3.52-1.67-.21-.02-.42-.04-.63-.06-.4-.15-.76-.38-1.07-.66-2.19-2.06-4.49-3.97-7.34-5.1-3.84-1.23-7.6-2.68-11.71-2.84-3.12-.12-3.86-2.3-3.88-4.98-.04-6.88-.02-13.76-.02-20.63,.24-2.46-.81-4.39-2.49-6.06-.64-.69-1.26-1.41-2.04-1.97-.49-.28-1.02-.47-1.58-.59-.81-.14-1.62-.26-2.42-.45-2.76-.55-5.46-.36-8.15,.44-7.91,.86-15.72-1.26-23.62-.82-1.38,.08-2.6-.59-3.47-1.74-1.3-2.14-1.74-4.7-3.28-6.73-2.68-3.54-5.96-6.09-10.58-6.49-14.39-.4-28.77-.04-43.15-.19-2.22-.02-4.52,.39-6.58-.88-1.51-1.37-1.4-3.22-1.4-5-.04-18.07,.01-36.13-.05-54.2-.01-3.36,.9-5.6,4.4-6.79,3.4-1.15,6.32-3.34,8.75-6.05,9.39-11.04,14.05-24.31,17.85-37.99,1.09-3.35,1.78-6.81,2.65-10.22,.22-.82,.52-1.63,.67-2.47,.11-.63,.27-1.25,.44-1.86,.34-1.03,.44-2.1,.59-3.17,.75-3.52,1.18-7.1,1.92-10.61,.42-1.27,.61-2.58,.68-3.92,.05-.67,.18-1.33,.34-1.98,.54-1.52,.47-3.11,.51-4.69,.03-.97,.14-1.94,.38-2.88,.86-5.31,1.27-10.67,1.71-16.03,.59-6.17,1.29-12.32,1.46-18.54,.19-7.19,.4-14.42,2.12-21.48Z" style="fill:#fff;"/><path d="M78.26,174.66c3.69-5.89,9.28-9.55,15.13-12.91,2.67,.65,2.03,2.89,2.17,4.67,.29,3.52-.41,7.09,.56,10.58,.43,1.84,.33,3.72,.38,5.58,.14,3.33-.44,6.69,.56,9.97,.72,3.27-.18,6.67,.86,9.92,1.87,14.57,3.49,29.19,7.07,43.48,3.35,14.3,7.43,28.33,15.08,41.06,3.78,6.09,8.22,11.47,15.31,13.86,2.2,.74,3.02,2.13,3.02,4.36,0,19.32,0,38.63-.02,57.95,0,1.2,.02,2.42-1.06,3.29-1.93,1.09-4.06,.76-6.11,.76-13.82,.03-27.63,.01-41.44,.02-6.64,.38-12.06,2.65-14.55,9.45-2.24,5.72-2.26,5.69-8.33,5.79-4.56,.08-9.15-.41-13.68,.51-.46,.03-.93,0-1.38-.09-.87-.25-1.73-.16-2.58,.12-1.91,.39-3.84,.41-5.72-.05-4.54-1.11-8.44,0-11.84,3.13-1.63,1.82-1.72,4.04-1.71,6.31,0,6.56-.03,13.13,.01,19.69,.02,3.42-1.22,5.46-4.89,5.4-2.28-.03-4.38,.82-6.56,1.25-1.66,.51-3.39,.83-4.91,1.75-.35,.17-.71,.35-1.04,.56-.16,.11-.32,.21-.48,.31-.93,.58-1.91,1.11-2.76,1.81-.66,.59-1.33,1.18-1.97,1.79-.24,.26-.5,.51-.76,.76-.27,.25-.55,.46-.86,.67-.16,.09-.33,.16-.49,.25-.35,.12-.71,.17-1.07,.18-.52-.13-1.07-.22-1.38-.74,.35-14.2,.67-28.4,1.05-42.6,.48-17.51,2.16-34.9,5.09-52.17,1.2-7.08,2.59-14.1,5.35-20.78,1.66-4.03,3.67-7.85,6.42-11.25,1.23-1.52,2.47-3.45,4.28-3.84,4.14-.9,4.69-4.03,5.5-7.25,3.57-14.19,7.33-28.33,11.52-42.36,1.16-3.89,2.44-7.66,4.7-11.05,1.93-5.87,5.87-10.63,8.79-15.96,.44-.65,.89-1.3,1.26-2,.17-.36,.36-.71,.55-1.06,.88-1.6,1.57-3.29,2.36-4.93,3.03-5.9,5.99-11.83,8.75-17.86,2.84-4.55,4.31-9.78,7.06-14.38,.83-1.39,1.34-2.99,2.77-3.96Z" style="fill:#fff;"/><path d="M39.64,81.11c-5.21-8.71-6.65-18.5-8.01-28.29-.66-4.73-1.48-9.54-1.28-14.28,.58-14.34,1.28-28.71,7.14-42.2,4.95-11.41,12.89-19.57,24.66-24.04,10.42-3.96,21.2-6.27,32.14-8.01,1.48-.23,2.95-.5,4.42-.75,1.47,.41,2.02,1.61,2.45,2.9,2.03,6,6.35,9.36,12.38,10.77,7.41,.45,14.81,.09,22.21,.18,5.17,.03,10.35,0,15.52,.01,1.8,.01,3.59,.03,5.39,.03,.71,0,1.43,0,2.14,.02,8.6,.04,13.25-3,16.66-10.9,.47-1.08,.62-2.34,1.7-3.08,7.95,.35,15.61,2.44,23.35,4.01,6.17,1.25,12.14,3.16,17.85,5.82,6.72,2.54,11.65,7.33,16.07,12.77,.68,1.09,1.46,2.1,2.16,3.17,3.09,5.33,5.76,10.82,6.74,16.98,.18,.64,.29,1.29,.36,1.95,.09,.66,.14,1.33,.21,2,.13,.93,.53,1.79,.74,2.7,2.18,10.27,2.52,20.64,1.67,31.07-.93,2.61-.55,5.33-.63,8.01,0,.94,0,1.89-.05,2.83-.08,2.05-.77,3.98-1.18,5.96-.22,.82-.52,1.62-.69,2.46-.12,.61-.28,1.22-.45,1.82-.33,1-.4,2.05-.48,3.1-3.35,15.11-12.37,25.58-26.25,32.07-4.24,1.75-8.53,3.32-13.15,3.74-12.23,1.57-24.39,3.85-36.8,3.62-1.06-.02-2.06,.26-3.07,.56-2.4,.44-4.82,.26-7.24,.33-3.74-.02-7.49,0-11.23,0-1.84-.01-3.68-.03-5.52-.02-.79,.01-1.58,.01-2.37,0-2.12-.02-4.25,0-6.37,.02-5.47-.13-10.95,.27-16.41-.25-6-1.54-12.19-.28-18.29-1.37-5.4-.97-10.96-1.27-16.43-1.96-2.22,.08-4.33-.64-6.5-.92-.9-.06-1.81-.12-2.69-.34-.62-.16-1.19-.43-1.73-.79-.83-.64-1.81-.82-2.83-.88-10.1-2.31-17.85-8.1-24.06-16.19-.47-.65-.96-1.28-1.45-1.92-.12-.16-.23-.32-.35-.47-.21-.33-.35-.69-.45-1.07-.04-.39-.04-.77,0-1.16Z" style="fill:#fff;"/><path d="M96.39,160.35c3.84-1.76,7.68-3.52,11.76-5.39,.87,1.4,.4,2.9,.7,4.24,1.88,2.9,1.56,6.36,2.4,9.52,1.42,8.43,3.82,16.52,7.84,24.15,3,5.71,6.94,10.4,12.44,13.75,1.09,.64,2.28,1.05,3.51,1.37,2.22,.67,4.44,.66,6.66,.03,2.26-.47,4.2-1.6,6.03-2.96,6.21-4.75,9.89-11.22,12.68-18.33,.7-1.78,1.39-3.58,2.27-5.29,.44-.8,.56-1.67,.62-2.56,1.2-7.2,3.53-14.2,3.53-21.59,.06-1.81-.16-3.69,1.31-5.13l-.02,.04c.54-.62,1.13-.59,1.76-.14,3.33,1.81,6.65,3.62,9.98,5.42,2.26,11.21,.74,22.42-.1,33.62,.04,6.79-1.42,13.44-1.82,20.18,0,.48-.03,.97-.07,1.46-.48,1.53-1.02,3.06-.83,4.72,0,.66-.03,1.33-.14,1.99-.29,1.26-.82,2.47-.74,3.8-.03,1.09,.06,2.19-.21,3.27-.41,.8-.75,1.61-.69,2.54-.52,3.53-1.45,6.99-1.88,10.54-.09,1.08-.86,1.99-.82,3.11-.03,.63-.06,1.26-.25,1.87-.42,.74-.7,1.51-.66,2.37-.22,2.52-1.48,4.79-1.82,7.28-.03,.43-.12,.85-.25,1.26-.51,.75-.62,1.61-.71,2.47-2.47,8.77-5.58,17.3-9.85,25.38-.74,1.4-1.04,3.21-2.93,3.74-1.49-.45-2.18-1.87-3.31-2.76q.1-2.64,1.48-4.96c-1.25,.27-1.94,1.4-3.09,1.49-.42,.05-.81-.04-1.18-.23-.88-.91-1.68-2.39-2.95-.38-.28,.29-.61,.49-.99,.61-.59,.02-1.14-.15-1.66-.41-.65-.36-1.14-.91-1.63-1.46-.26-.23-.53-.47-.81-.68-.77-.49-1.67-.78-2.26-1.54-1.58-2.58-2.22-.05-3.21,.59-.78,.42-1.55,.5-2.32-.02-.21-.21-.41-.42-.61-.64-.2-.22-.39-.44-.59-.66-.19,.36,.26,.26,.33,.46,.29,.25,.55,.5,.8,.78,.14,.38,.15,.76,.03,1.14-.3,.77-.76,1.41-1.45,1.88-.52,.33-1.09,.54-1.71,.58-.41-.06-.77-.23-1.08-.51-.77-1.02-1.55-1.74-2.49-.15-.25,.33-.57,.57-.95,.73-.42,.04-.82,0-1.22-.13-.97-.2-1.5-1.25-2.65-1.35,.74,1.29,1.73,2.42,1.25,3.99-.14,.44-.38,.81-.69,1.14-.6,.39-1.26,.57-1.97,.62-.72,.02-1.41-.1-2.07-.39-5.45-6.89-7.56-15.27-10.25-23.36-1.39-4.18-2.44-8.49-3.66-12.74-.02-1.19-.18-2.35-.79-3.42-.1-.48-.15-.97-.17-1.47-3.1-13.52-5.1-27.2-6.38-40.99-.1-1.03-.44-2.03-.69-3.04-.16-1.3-.1-2.6-.12-3.91,.05-5.03-.91-10.01-.9-15.04-.51-6.11-.16-12.25-.58-18.36-.01-.81,0-1.62,.82-2.12Z" style="fill:#fff;"/><path d="M154.54,145.83c2.79,2.85,4.08,6.67,6.36,9.84,1.97,2.9,1.29,5.9,.31,8.9-1.38,3.26-1.64,6.75-1.96,10.22-.04,.45-.14,.9-.25,1.33-.34,1.06-.57,2.13-.57,3.25-1.07,6.87-4.23,12.79-8.28,18.32-2.28,3.22-5.38,5.15-9.26,5.83-1.65,.13-3.31,.1-4.96,.07-1.45-.05-2.81-.42-4.05-1.18-7.75-5.11-10.7-13.26-13.53-21.48-.68-2.85-1.97-5.58-1.78-8.61-.02-1.71,.2-3.44-.3-5.13-.13-.41-.23-.84-.31-1.26-.23-1.97-.38-3.94,.83-5.7,.29-.33,.57-.66,.85-1,1.75-3.85,3.02-7.95,5.94-11.19,1.05-1.17,.34-2.9,1.28-4.12,1.73-2.71,4.72-3.23,7.41-4.28,.68-.2,1.37-.32,2.07-.37,6.59-.4,13.01-.12,18.47,4.32,.86,.52,1.38,1.31,1.74,2.23Z" style="fill:#fff;"/><path d="M64.68,105.38c-4.55-1.82-9.06-3.69-13.18-6.46-4.42-2.98-7.97-6.64-10.21-11.51-.34-.95,.25-1.11,.98-1.15,7.57,8.48,16.73,14.33,27.9,16.87,.68,0,1.37,0,2.03,.23,2.13,.35,4.27,.58,6.4,.93,10.89,1.06,21.7,3.06,32.7,2.89,1.87,.01,3.69,.55,5.55,.59,6.75,.68,13.51,.12,20.27,.3,.81,0,1.63,0,2.44,0,6.76-.16,13.52,.34,20.27-.28,1.84-.22,3.72-.16,5.54-.59,13.07-.03,25.93-2.24,38.85-3.76,4.11-.68,8.13-1.71,11.89-3.59,9.82-4.19,17.15-11.11,22.33-20.39,.35-.53,.65-1.09,1-1.63,.23-.4,.59-.57,1.04-.55,.99,.55,.88,1.34,.48,2.19,.04,.27-.03,.51-.22,.72-.27,.37-.61,.72-.6,1.23-1.39,4.4-4.31,7.78-7.39,11.05-1.22,1.29-2.78,2.26-3.64,3.88-.1,.19-.19,.38-.29,.57-.27,.33-.57,.64-.89,.92-6.1,4.93-13.14,7.8-20.72,9.51-.83,.1-1.65,.31-2.45,.53-.83,.22-1.67,.32-2.52,.39-1.1,.05-2.15,.34-3.2,.63-1.14,.28-2.3,.33-3.46,.36-4.36,.03-8.64,.83-12.94,1.4-.96,.25-1.94,.34-2.92,.37-2.43,.1-4.9-.24-7.28,.6-1.5,.32-3.02,.31-4.53,.34-3.07,.11-6.18-.37-9.19,.65-5.38,.52-10.78,.14-16.16,.27-.54,.01-1.08,0-1.62,0-2.69-.04-5.39-.02-8.08,0-4.87-.13-9.74,.25-14.6-.25-2.51-.9-5.11-.65-7.7-.67-2.32-.06-4.65,.11-6.96-.31-2.21-.82-4.53-.54-6.81-.65-7.6-1.3-15.33-1.5-22.95-2.67-3.22-.49-6.53-.71-9.15-3.01Z" style="fill:#fcfdfd;"/><path d="M155.37,122.48c1.98,1.2,2.08,3.02,1.69,5.03-.93,4.78-1.45,9.62-1.75,14.48-2,.79-2.68-1.22-4-1.88-1.89-1.38-3.82-2.7-6.04-3.53-.94-.38-1.92-.63-2.9-.89-2.73-.58-5.45-.61-8.17,.08-2.74,.61-5.16,2-7.59,3.31-1.81,.97-3.02,.82-3.36-1.46-.26-5.06-1.73-9.97-1.76-15.06,2.33-1.88,5.12-2.2,7.94-2.22,6.52-.05,13.05-.15,19.57,.05,1.77,.2,3.45,.8,5.17,1.21,.44,.24,.84,.53,1.19,.88Z" style="fill:#feffff;"/><path d="M162.76,154.9c.85-.71,1.7-1.42,2.54-2.13,2.47,.4,1.78,2.39,1.81,3.85,.16,7.46-1.82,14.59-3.52,21.76-3.14,10.32-6.92,20.26-15.95,27.12-2.16,1.84-4.83,2.5-7.49,3.18-1.15,.05-2.3,.04-3.45,.02-1.62-.15-3.12-.71-4.61-1.32-9.41-4.73-13.29-13.68-17.01-22.64-1.65-3.97-2.67-8.19-3.61-12.4-.02-.92-.19-1.82-.47-2.7-.19-.93-.5-1.84-.47-2.81-.77-3.68-1.28-7.36,.02-11.03,1.25,.84,2.5,1.68,3.75,2.53,2.18,3.49,1.2,7.61,2.29,11.32,.17,.69,.19,1.39,.21,2.09-.02,3.41,1.17,6.58,2.06,9.8,2.61,7.73,5.59,15.23,12.6,20.23,1.4,.99,2.9,1.7,4.68,1.58,1.48,0,2.96,0,4.44,0,4-.53,6.91-2.77,9.27-5.9,4.58-5.93,7.47-12.58,8.7-19.97,.91-5.99,2.56-11.86,2.84-17.95,.07-1.58,.22-3.28,1.37-4.6Z" style="fill:#fdfdfd;"/><path d="M169,119.74c-4.39,1.47-8.93,1.72-13.5,1.75-1.22,.05-2.44,.09-3.67-.03-.6-.12-1.18-.34-1.81-.37-.83-.03-1.65,.05-2.47-.11-.35-.22-.59-.53-.71-.92-.3-1.15,.28-2.62-1.19-3.35-.72-.03-1.4,.16-2.09,.28-.74,.12-1.49,.11-2.23,0-.73-.12-1.42-.36-2.14-.52-.53-.07-1.06-.08-1.59,0-.72,.16-1.41,.39-2.14,.52-.75,.13-1.5,.12-2.24,.01-.71-.11-1.4-.32-2.12-.28-1.47,.74-.87,2.19-1.16,3.33-.13,.4-.37,.71-.72,.93-1.03,.18-2.07,.07-3.11,.11-.88-.04-1.57-.45-2.16-1.07-.31-.64-.09-1.14,.41-1.57,.44-.28,.93-.45,1.37-.66-.03,0,.21-.26,.21-.26,0,0-.11-.34-.14-.33-.4-.2-.82-.25-1.24-.36-.7-.17-1.38-.36-2.08-.49-.61-.08-1.21-.18-1.81-.3-.45-.07-.88-.19-1.31-.33-3.75-.98-3.82-1.05-2.49-3,12.16-.35,24.32-.05,36.47-.16,1.77-.02,3.56,.17,5.31-.26,1.77-.83,3.66-.59,5.52-.63,2.78-.16,5.59,.37,8.33-.39,1.41-.67,2.92-.47,4.41-.51,2.42-.14,4.91,.44,7.22-.74,.98-.18,1.98-.15,2.97-.16,2.48,.08,4.96-.81,7.44,0,.7,.27,1.3,.65,1.42,1.48-4.07,3.54-9.34,4.16-14.18,5.86-.61,.14-1.22,.28-1.82,.44-.57,.16-1.14,.27-1.73,.36-.73,.13-1.46,.31-2.17,.54-.52,.17-1.06,.23-1.61,.25-.87,.04-1.76-.03-2.61,.27-.32,.12-.66,.18-1.01,.19-.65,.06-1.37-.15-1.89,.46Z" style="fill:#f8fafa;"/><path d="M203.19,175.42c8.35,9.14,14.4,19.76,19.64,30.87,4.47,9.47,7.89,19.34,10.93,29.34,.29,.94-.27,1.15-1.03,1.18-6.59-8.15-11.25-17.45-15.81-26.8-1.83-3.75-3.41-7.61-5.42-11.26-.65-1.83-1.41-3.63-2.32-5.35-.18-.32-.32-.66-.46-1-.23-.49-.45-.98-.69-1.46-.18-.31-.34-.64-.5-.96-.27-.49-.54-.98-.8-1.48-.78-1.59-1.61-3.15-2.34-4.75-.24-.49-.46-.99-.69-1.48-.16-.3-.31-.62-.44-.94-.22-.46-.44-.92-.64-1.39-.14-.32-.24-.64-.34-.97-.16-.5-.32-1-.48-1.5-.04-.18-.07-.35-.11-.53-.02-.37,.04-.73,.17-1.08,.35-.47,.73-.83,1.35-.43Z" style="fill:#fdfdfd;"/><path d="M115.96,113.32c.93,1.92,3.46,.2,4.46,1.96,.19,.36,.13,.68-.14,.97-.18,.08-.35,.15-.52,.22-.5,.05-1.01,.02-1.47,.17-.18,.18-.28,.41-.24,.67,.13,.23,.3,.4,.55,.5,.42,.11,.85,.14,1.28,.18,.49,.05,.96,.15,1.42,.31,.64,.23,1.28,.46,1.91,.73,.3,.18,.55,.41,.77,.68,.74,.03,1.42,.18,1.84,.88-3.59,1.8-7.24,.11-10.86,.17-5.43-.43-10.64-1.98-15.97-2.95-5.18-.82-10.1-2.6-15.09-4.13-1.29-.39-2.58-.85-3.24-2.21,.19-1.21,1.14-1.51,2.12-1.78,2.5-.43,4.96,.37,7.45,.23,1.87,.34,3.73,.79,5.65,.82,.47,0,.95,0,1.42,0,1.66,.05,3.32-.13,4.97,.21,1.75,1.04,3.69,.59,5.56,.69,.73,0,1.47,0,2.2,0,1.99,.53,4.63-1.31,5.93,1.66Z" style="fill:#fafbfb;"/><path d="M48.36,226.58c4.56-14,10.55-27.31,19.07-39.4,.85-.22,1.2,.31,1.46,.97,.09,3.61-2.33,6.24-3.69,9.28-1.03,2.28-1.99,4.58-2.96,6.88-.82,1.61-1.63,3.23-2.2,4.96-.21,.54-.47,1.06-.75,1.57-.6,1.16-1.21,2.32-1.73,3.53-.14,.36-.32,.7-.5,1.04-.26,.53-.54,1.05-.78,1.6-2.37,3.61-3.54,8.01-7.05,10.87-.73-.13-1.21-.44-.88-1.29Z" style="fill:#f9fafa;"/><path d="M212.14,197.92c3.26,5.03,5.12,10.73,7.81,16.04,3.92,7.72,8.44,15.08,13,22.42,.54,.48,1.01,1.08,1.84,1.05,1.63,1.77,.04,2.21-1.16,2.8-4.77-5.79-8.34-12.36-12.1-18.8-3.93-6.72-7.23-13.74-10.3-20.88-.45-1.14-1.22-2.38,.9-2.63Z" style="fill:#6b6a6a;"/><path d="M246.21,11.03c.17,.21,.21,.45,.13,.71,.76,1.15-.08,2.61,.73,3.76,3.04,15.64,2.48,31.21-.86,46.73-1.43,.12-1.52-.94-1.69-1.93-.15-1.52,.4-2.94,.55-4.42,.65-2.74,.02-5.56,.46-8.32,1.45-9.14,.99-18.27-.16-27.39,0-1-.02-2-.36-2.96-.09-1.45-.68-2.84-.49-4.32,.17-.98,.29-1.99,1.69-1.86Z" style="fill:#ebecec;"/><path d="M178.86,191.65c.58-9.9,1.15-19.81,1.04-29.74-.02-1.48-.04-2.96-.05-4.44,1.59,.83,.67,2.42,1.11,3.62,.91-.76,0-2.03,.77-2.81,.08-.09,.28-.12,.41-.09,.13,.04,.23,.18,.34,.27-.33,8.43-.51,16.88-1.03,25.3-.32,5.14-.28,10.33-1.51,15.39-1.63-2.32,.28-5.15-1.06-7.51Z" style="fill:#8b8b8b;"/><path d="M195.96,111.49c-.38-.28-.76-.57-1.14-.85,.9-2.89,3.81-.87,5.36-2.19,.85-.41,1.77-.34,2.67-.37,1.13,.05,2.2-.11,3.19-.7,5.6-.62,10.46-3.52,15.73-5.16,.73,.13,1.28,.42,1.12,1.31-4.79,3.9-10.42,6.13-16.17,8.13-3.14,1.11-6.34,1.45-9.63,.82-.49-.2-.87-.53-1.13-.98Z" style="fill:#f0f2f2;"/><path d="M212.14,197.92c-1.1,.6-.85,1.67-.9,2.63-5.79-10.87-11.27-21.89-16.26-33.14,2.15,1.07,3.49,3.14,5.46,4.44,.16,.91,.37,1.8,1.05,2.49,.55,.56,.19,1.45,.73,2.01-.01,.31-.02,.62-.04,.94v.02c.7,.4,.97,1.01,.86,1.79-.41,.44-.33-.28-.27,.31,.03,.27,.36,.43,.65,.5,.51,.12,.63,.49,.59,.95-.64,.67,.09,.62,.41,.79,.41,.22,.55,.56,.49,1.01-.08,2.66,1.86,4.54,2.66,6.85,.41,.62,.53,1.39,1.01,1.97,.32,.28,.14,1.11,.95,.84,1.21,1.71,2.12,3.56,2.6,5.6Z" style="fill:#787777;"/><path d="M97.06,111.58l-.97-.07c-1.83-.75-3.84,.12-5.68-.63-2.54-.06-5.09-.13-7.63-.19-6.23,.51-12.15-.67-17.85-3.17-.48-.33-.57-.74-.25-1.24,0-.3,0-.6,0-.9,10.65,2.53,21.61,2.8,32.36,4.58,.28,.2,.46,.46,.51,.81-.05,.34-.21,.61-.49,.82Z" style="fill:#858080;"/><path d="M96.95,180.85c.7,5.07,1.08,10.17,.99,15.29-1.31,1.88,.38,4-.48,5.92-.17,.15-.34,.31-.51,.46-1.19-3.15-.66-6.47-.95-9.7-.88-3.34,.4-6.84-.73-10.16-.06-1.7-.12-3.4-.18-5.1-.37-5.48-.66-10.95,.16-16.42,.23-.47,.58-.78,1.13-.79-.04,.47-.08,.95-.12,1.42,.97,6.33-.36,12.75,.68,19.08Z" style="fill:#848383;"/><path d="M78.26,174.66c-2.55,6.5-5.56,12.79-9.04,18.85-1.68-.67-1.62-1.84-.91-3.19,.56-1.06,.98-2.13,.49-3.35,.43-1.61,1.35-2.97,2.17-4.39l-.07,.06c.25-.14,.36-.31,.32-.51-.04-.21-.09-.32-.16-.32,2.21-1.41,3.48-3.56,4.66-5.81,.5-.96,1.38-1.49,2.54-1.35Z" style="fill:#a1a4a4;"/><path d="M49.19,227.4c2.18-3.83,4.37-7.66,6.55-11.5,.35-.34,.69-.69,.71-1.22-.04-.22,.02-.4,.19-.55,2.12,.3,1.24,1.57,.86,2.68h0c-.56,.45-.34,1.31-.92,1.74-2.94,5.62-5.93,11.22-9.85,16.25-.64-2.2-.87-4.36,.6-6.36,.88,.11,1.3-.57,1.85-1.04Z" style="fill:#6f6e6e;"/><path d="M162.69,179.07c1.63-7.23,3.41-14.43,3.62-21.88,.04-1.49,.91-3.31-1-4.42,.28-.3,.56-.61,.84-.91,.37-.08,.72-.04,1.06,.13l.07,.04c.83,1.73-.24,3.71,.69,5.42,.05,6.28-1.52,12.31-2.79,18.39-.27,1.3-.54,2.6-.8,3.9-.08,.39-.32,.57-.71,.53-.56-.21-.67-.78-.97-1.19Z" style="fill:#8c8b8b;"/><path d="M202.92,113.35c-4.86,1.66-9.74,3.23-14.86,3.87-.65,.25-1.39,.21-2.02,.55-.85,.11-1.69,.21-2.54,.32-.87,.42-1.16-.07-1.28-.81,.34-.67,1.04-.72,1.63-.98,.63-.2,1.24-.46,1.89-.62,3.59-1.33,7.13-2.79,10.91-3.54,2.07,.52,4.58-1.24,6.28,1.21Z" style="fill:#e8e9e9;"/><path d="M64.8,107.02c5.99,1.22,11.99,2.44,17.99,3.67-.7,.15-1.45,.18-1.89,.87-1.77,1.62-3.61,.97-5.45,.16-4.27,0-7.78-2.29-11.53-3.83-.2-.81,.01-1.18,.9-.86Z" style="fill:#e5e9e9;"/><path d="M114.95,120.77c3.62-.06,7.24-.11,10.86-.17,1.18-.04,2.37-.08,3.55-.11,6.02-1.72,12.04-1.81,18.05,.03,.9,.12,1.8,.23,2.7,.35,.3,.17,.39,.32,.27,.46-.11,.13-.21,.19-.33,.19-4.03,.09-8.06,.22-12.09,.26-5.5,.06-11.03-.3-16.48,.77-.7-.99-1.78-.85-2.79-.93-1.29-.1-2.67,.18-3.75-.85Z" style="fill:#9d7d7d;"/><path d="M184.16,116.97c-.51,.1-1.03,.2-1.54,.3-.5,.49-1.01,.97-1.74,1.09-.38,.13-1.05-.24-1.04,.59-2.92,1.61-6.06,.71-9.11,.78-.28-.22-.36-.41-.23-.56,.11-.14,.23-.21,.35-.21,.29-.02,.57-.09,.84-.19,.79-.67,1.92-.04,2.7-.73l1.78-.29c.56-.29,1.29-.13,1.77-.65,.58-.07,1.16-.15,1.74-.22,.36-.18,.73-.36,1.08-.54,5.07-1.62,10.14-3.23,15.21-4.85,0,0-.06,.37-.06,.37,.32,.14,.43,.28,.33,.43-.1,.15-.21,.23-.31,.23-3.45,1.64-7.12,2.69-10.73,3.88-.37,.14-.72,.33-1.03,.57Z" style="fill:#9e9696;"/><path d="M75.43,111.72c1.82-.05,3.64-.1,5.45-.16,6.03,2.09,12.06,4.18,18.09,6.27-3.51,.35-6.85-.32-10.11-1.57-.92-.88-2.18-.99-3.29-1.47-2.53-.08-4.67-2.22-7.37-1.35-1.37,.14-2.18-.61-2.78-1.72Z" style="fill:#998e8e;"/><path d="M162.76,154.9c-1.19,6.97-.86,14.14-2.7,21.03-.23,.85-.56,1.66-.84,2.49-.62-.1-1.01-.47-1.28-1.01-.15-.38-.09-.72,.18-1.03,.13-.26,.15-.53,.08-.81,.84-3.59,1.05-7.29,1.79-10.9,1.42-2.89,.36-6.02,.9-9l1.86-.77Z" style="fill:#9c9c9c;"/><path d="M245.24,60.24c.11,.77,.2,1.54,.97,1.98-.91,6.01-2.42,11.84-5.24,17.27-.16-.67-.14-1.41-.75-1.91-.18-3.83,2.51-7.01,2.46-10.81,.03-.68,.18-1.34,.46-1.97,.85-1.45-.12-3.74,2.1-4.57Z" style="fill:#e3e4e4;"/><path d="M242.57,6.67c-1.8-5.94-3.6-11.89-6.89-17.23,.27-.29,.61-.44,1.02-.44,.82,.15,1.13,1.02,1.84,1.32,.4,.19,.57,.5,.53,.94-.22,.22-.29,.42-.19,.62,.09,.19,.18,.28,.26,.28l-.05-.06c.47,.54,.32,1.39,.94,1.86l-.04-.06c.47,.54,.32,1.39,.94,1.86l-.04-.06c.63,1.81,1.45,3.55,2.07,5.37,.31,1.47,1.16,2.82,1.05,4.4-.27,.66-.74,1.08-1.44,1.23Z" style="fill:#989999;"/><path d="M123.25,137.61c.7,.74,.89,2.26,2.58,.84,2.23-1.87,4.87-3.17,7.85-3.55,1.1-.3,2.23-.77,3.08,.49-2.76,2.98-7.31,2.63-10.14,5.46-.78,.43-1.56,.87-2.5,.53-.56-1.19-1.42-2.31-.87-3.76Z" style="fill:#9f9999;"/><path d="M110.56,155.79c-.49,3.93,.48,7.76,.75,11.64-.57,.61-.01,1.74-1,2.15-.98-3.39-1.57-6.83-1.45-10.37,.91-.83,.42-1.95,.62-2.92,.12-.61,.34-1.19,1.09-.49Z" style="fill:#8d8f8f;"/><path d="M243.3,5.72c-.26-1.53-.53-3.06-.79-4.59,.34-.3,.69-.3,1.03,0,1.35,3.17,2.49,6.41,2.67,9.9-.73,.43-.86,1.16-.95,1.9-2.26-.81-1.32-3.02-1.99-4.53-.19-.89-.22-1.79,.02-2.68Z" style="fill:#dcdddd;"/><path d="M115.84,170.26c-1.34-3.88-1-7.97-1.53-11.95,1.03,.58,2.09,1.05,3.32,.92,.1,.29,.12,.58,.06,.87-2.23,1.87-1.34,4.19-.92,6.44l-.03-.05c.57,.47,.51,1.08,.4,1.71-.3,.77-.43,1.65-1.3,2.05Z" style="fill:#919797;"/><path d="M95.25,161.14c-.05,5.47-.11,10.94-.16,16.42-.99-3.86-.4-7.83-.76-11.74-.13-1.4,.46-2.97-.95-4.07,.43-.78,1.16-.65,1.86-.61Z" style="fill:#979898;"/><path d="M195.92,112.52c.02-.22,.01-.44-.02-.66,3.59-.69,7.21-.23,10.82-.21-1,1.15-2.25,1.78-3.8,1.7-2.18-1.6-4.68-.44-7-.82Z" style="fill:#8a7f7f;"/><path d="M78.21,113.44c.81-1.29,1.99-.9,3.08-.59,1.66,.47,3.28,1.05,4.92,1.59,.27,.24,.36,.48,.27,.72-.09,.24-.17,.36-.26,.36-2.8-.18-5.35-1.34-8.01-2.07Z" style="fill:#ced7d7;"/><path d="M151.88,139.52c1.14,.82,2.28,1.64,3.43,2.47,.23,1.38,.1,2.68-.76,3.84-.58-.35-1.16-.7-1.74-1.04-.31-.25-.43-.56-.37-.95,.05-1.11-.8-1.73-1.34-2.53-.23-.34-.36-.72-.42-1.13,.18-.62,.4-1.16,1.2-.66Z" style="fill:#958e8e;"/><path d="M132.33,140.58c-2.49,1.12-4.98,2.23-7.48,3.35-.07-.25-.06-.49,.05-.72-.71-1.56,.95-1.58,1.5-2.32,1.53-.68,2.87-1.89,4.72-1.69,.63,.26,1.07,.69,1.21,1.38Z" style="fill:#9f9a9a;"/><path d="M64.8,107.02c-.3,.29-.6,.57-.9,.86-1.91-.62-3.72-1.4-5.41-3.16,2.51-.15,4.16,1.49,6.2,1.56,.01,.25,.05,.5,.11,.74Z" style="fill:#afb7b7;"/><path d="M70.97,182.58c-.09,1.72-1.24,3.03-1.72,4.6,.29,.82-.1,1.06-.85,.99-.32-.33-.65-.67-.97-1,.86-1.78,1.74-3.54,3.54-4.6Z" style="fill:#dbe1e1;"/><path d="M243.54,1.13c-.34,0-.68,0-1.03,0-1-1.68-1.75-3.43-1.62-5.45,1.6,1.47,2.14,3.45,2.65,5.45Z" style="fill:#c8cdcd;"/><path d="M229.26,98.25c-.82,1.6-2.14,2.66-3.69,3.48-.57-.25-1.1-.54-1.15-1.26,1.35-1.08,2.28-2.86,4.41-2.64,.15,.14,.29,.28,.44,.42Z" style="fill:#bac0c0;"/><path d="M39.64,81.11c.55,.11,.75,.46,.7,.99-.24,.33-.19,.61,.14,.85l-.02-.1c.4,.57,.57,1.21,.56,1.9-.09,.46-.34,.82-.74,1.07-.62-1.52-2.97-2.8-.63-4.72Z" style="fill:#b3b2b2;"/><path d="M224.69,100.87c.29,.28,.58,.57,.87,.85-.84,.67-1.58,1.5-2.67,1.8-.31-.29-.61-.57-.92-.86-.03-2.01,1.28-2,2.72-1.79Z" style="fill:#d3dbdb;"/><path d="M167.97,157.45c-1.42-1.66-.55-3.6-.69-5.42,.29,.03,.57,.08,.85,.13,.22,1.77,.13,3.54-.16,5.29Z" style="fill:#6f7676;"/><path d="M86.22,115.51c0-.36,0-.72-.01-1.08,.84,.29,1.67,.58,2.51,.86,.67,.23,.49,.58,.15,.96-.93-.07-1.94,.11-2.65-.75Z" style="fill:#b8bebe;"/><path d="M126.75,141.35c-.38,.85-1.65,.82-1.85,1.86-.82-.37-.97-1.03-.77-1.83,.57-.31,1.13-.62,1.7-.93,.51,.09,.82,.4,.92,.91Z" style="fill:#dad9d9;"/><path d="M151.95,120.96c1.24-.22,2.5-.56,3.55,.53-.04,.33-.09,.66-.13,.99,0,0-.36,.06-.36,.06l-.34-.12c-.63-1.01-2.55,.4-2.72-1.46Z" style="fill:#9d7d7d;"/><path d="M40.27,85.82l.2-1.35c.98-.17,1.45,.55,1.99,1.14,.14,.43,0,.76-.38,1-.26,.26-.52,.53-.79,.79-.63-.34-.92-.9-1.03-1.59Z" style="fill:#c2c6c6;"/><path d="M49.19,227.4c-.43,.69-.09,2.74-1.85,1.04,.25-.67,.31-1.45,1.03-1.86,.27,.27,.55,.55,.82,.82Z" style="fill:#bebdbd;"/><path d="M234.8,237.43c-1.72,1.58-1.42-.37-1.84-1.05,.27-.25,.54-.5,.81-.75,.69,.4,.83,1.12,1.04,1.8Z" style="fill:#aeacac;"/><path d="M201.19,174.67c-.61-.84-1.66-1.56-.76-2.81,.48,.33,.94,.67,.92,1.34,.4,.54,.35,1.03-.16,1.47Z" style="fill:#a4a8a8;"/><path d="M201.19,174.67c.05-.49,.11-.98,.16-1.47,.78,.6,1.55,1.21,1.84,2.22-.32,.31-.65,.63-.97,.94-.62-.39-.86-1.02-1.03-1.69Z" style="fill:#ced4d4;"/><path d="M180.62,118.05c.66-.26,1.33-.52,1.99-.78,.3,.27,.59,.55,.89,.82-.83,.78-1.84,.8-2.88,.68-.28-.16-.37-.32-.28-.49,.09-.16,.19-.24,.28-.24Z" style="fill:#cccdcd;"/><path d="M247.07,15.5c-1.22-1.06-.76-2.45-.73-3.76,.84,1.14,.84,2.44,.73,3.76Z" style="fill:#dcdddd;"/><path d="M229.11,96.37q1.49,.11,.96,.91c-.17,.12-.33,.25-.49,.37-.19-.08-.38-.16-.57-.25-.2-.4-.16-.76,.17-1.08l-.06,.05Z" style="fill:#aaaeae;"/><path d="M186.04,117.77c.54-.67,1.25-.73,2.02-.55-.57,.55-1.25,.74-2.02,.55Z" style="fill:#cccdcd;"/><path d="M180.62,118.05c.02,.24,.02,.49,0,.73-.25,.12-.51,.18-.79,.18-.15-.23-.3-.46-.45-.69,.41-.07,.83-.15,1.24-.22Z" style="fill:#d1e0e0;"/><path d="M170.84,118.97c-.08,.25-.12,.51-.12,.77-.57,0-1.14,0-1.72,0,.39-.79,1.07-.89,1.84-.78Z" style="fill:#d1e0e0;"/><path d="M169.87,152.05c-.59,.05-1.17,.09-1.76,.14,.49-1.29,1.1-.97,1.76-.14Z" style="fill:#6f7676;"/><path d="M240.14,81.44c-.07-.54,.15-.95,.6-1.23,.07,.54-.13,.96-.6,1.23Z" style="fill:#e3e4e4;"/><path d="M229.49,97.29c.19,.03,.39,.02,.58-.01-.02,.54-.31,.84-.81,.97,0,0-.05-.04-.05-.04-.3-.42-.23-.74,.28-.92Z" style="fill:#bac0c0;"/><path d="M71.07,181.82c.33,.16,.41,.38,.2,.62-.09,.1-.24,.14-.37,.2-.08-.3-.03-.58,.17-.82Z" style="fill:#c5c8c8;"/><path d="M167.21,151.98c-.35-.04-.71-.08-1.06-.12,.41-.4,.77-.44,1.06,.12Z" style="fill:#6f7676;"/><path d="M152.78,294.1c-.31-.32-.62-.64-.93-.96-.18-.22-.27-.46-.26-.71,0-.26,.03-.39,.07-.39,.51-1.06,1.4-1.86,1.98-2.88,.39-.67,.78-1.35,1.34-1.9,.17-.1,.34-.19,.51-.28,3.09-3.34,4.53-7.6,6.33-11.64,2.61-5.86,4.38-12.03,6.39-18.11,.41-.62,.34-1.38,.65-2.03-.08-.24-.03-.44,.14-.62,1.79,0,1.23,1.1,.97,2.06-2.69,11.9-7.37,22.99-13.78,33.34-.93,1.5-2.26,2.76-3.4,4.13Z" style="fill:#7a7979;"/><path d="M175.11,226.23c-.24-1.09-.11-2.15,.3-3.18,.6-1.25,.04-2.68,.62-3.93,.05-.47,.1-.94,.15-1.41,.21-.09,.41-.18,.62-.28,.44,.23,.66,.59,.66,1.08-.03,1.35,.19,2.72-.31,4.03-.06,.49-.13,.98-.19,1.47-.81,1.18-.03,2.65-.72,3.86-.23,3.87-.86,7.67-1.93,11.4-.76,.9-.26,2.1-.75,3.07-.09,.47-.18,.94-.27,1.41-.4,.25-.76,.21-1.08-.16-.08-.42-.12-.84-.12-1.27-.03-.85,.01-1.7,.3-2.52,.14-3.87,1.42-7.55,2-11.34,.47-.67,.5-1.48,.69-2.24Z" style="fill:#848484;"/><path d="M178.86,191.65c1.88,2.29,.35,5.06,1.06,7.51,.07,5.44-.62,10.8-1.81,16.1-1.29-.65-.33-2.03-.95-2.89-.12-6.96,1.38-13.79,1.7-20.71Z" style="fill:#828282;"/><path d="M172.55,242.84l.03,.94c.59,.69,.33,1.43,.14,2.17-.39,3.69-1.44,7.21-2.76,10.66-.11-.78-.17-1.6-.97-2.06,.2-2.82,1.29-5.43,1.95-8.14,.33-.66,.35-1.41,.56-2.1,.09-.48,.17-.97,.26-1.45,.24-.41,.5-.43,.78-.04Z" style="fill:#807e7e;"/><path d="M177.16,212.36c.95,.75,.62,1.93,.95,2.89-.09,.81-.18,1.61-.28,2.42-.25,.44-.51,.44-.77,0h.01c-.77-1.5-.61-3.04-.1-4.59-.04-.27,.03-.51,.19-.73Z" style="fill:#6b6b6b;"/><path d="M177.06,217.68c.26,0,.51-.01,.77,0,.11,1.67,.18,3.33-.67,4.87-.03-1.62-.07-3.24-.1-4.86Z" style="fill:#898989;"/><path d="M176.25,227.88c0-1.33-.52-2.76,.72-3.86,.14,1.36,.09,2.68-.72,3.86Z" style="fill:#898989;"/><path d="M173.58,242.35c-.08-1.1-.37-2.26,.75-3.07,0,1.08-.11,2.14-.75,3.07Z" style="fill:#8a8b8b;"/><path d="M172.72,245.96c-.05-.72-.1-1.45-.14-2.17,.25-.01,.49-.02,.74-.03,.13,.82-.03,1.57-.59,2.2Z" style="fill:#8a8b8b;"/><path d="M98.12,199.44c1.34,5.64,1.42,11.45,2.3,17.16,1.33,8.66,2.6,17.31,4.59,25.85,.17,.71,.11,1.48,.16,2.22-.7,.55-.15,1.75-1.11,2.17-2.65-9.15-3.99-18.56-5.3-27.96-.76-5.42-1.73-10.84-1.8-16.35,0,0,.28-.33,.28-.33,.65-.81-.22-2.1,.89-2.76Z" style="fill:#7d7d7d;"/><path d="M104.05,246.83c.18-.82,.26-1.7,1.11-2.17,.18,.15,.21,.32,.09,.52,.48,.97,.01,2.16,.74,3.08,2.86,9.13,4.87,18.52,8.88,27.28,1.37,2.99,2.6,6.04,4.5,8.74,.7,.39,.64,.92,.27,1.51-.33,.37-.65,.74-.98,1.11-7.42-12.42-11.52-26.06-14.61-40.06Z" style="fill:#797979;"/><path d="M68.4,188.18c.28-.33,.57-.66,.85-.99,1.28,.92,.36,1.87-.1,2.65-.77,1.3-.73,2.46,.07,3.67-2.68,6.15-5.57,12.21-8.96,18.01-.32-.26-.53-.6-.63-1-.01-2.21,1.6-4.03,1.52-6.26,1.89-5.6,5.23-10.54,7.26-16.07Z" style="fill:#999;"/><path d="M60.13,210.53c.04,.33,.09,.66,.13,.99-.61,1.93-1.36,3.78-2.75,5.29-.11-.95,.18-2.03-.86-2.68,.58-1.21,1.16-2.42,1.74-3.62,.27-.22,.58-.36,.92-.42,.37-.02,.64,.12,.83,.44Z" style="fill:#7f8080;"/><path d="M95.27,182.66c1.73,3.28,.63,6.76,.73,10.16-1.06-3.33-.64-6.76-.73-10.16Z" style="fill:#979898;"/><path d="M56.58,218.55c-.01-.75,.2-1.38,.92-1.74,.04,.76-.32,1.32-.92,1.74Z" style="fill:#7f8080;"/><path d="M217.4,36.15c.05,12.31,.09,24.62,.15,36.92,.01,2.31-.61,4.38-2.02,6.22-.38,.28-.72,.23-1.03-.12-.7-1.43,.73-2.47,.86-3.71-.53,1.57-1.17,1.92-2.25,.37-.2-.46-.33-.93-.41-1.42-.43-23.1-.18-46.2-.12-69.3,.01-5.02-.91-9.13-5.63-11.64-.51-.64-.58-1.31-.1-1.99,4.27-2.23,5.34,2.22,7.49,3.46-1.66-2.48-4.46-4.11-7.56-5.32-.25-.38-.31-.78-.18-1.22,.41-.21,.82-.22,1.23,0,6.18,1.36,9.63,5.05,9.68,11.03,.1,11.95-.05,23.9-.09,35.86-.55,.22-.98,.08-1.29-.41-1.03-9.34-.02-18.72-.43-26.18,.02,7.34-.03,16.57,.02,25.81,.02,.76,.27,1.5,.23,2.26-.61,10.46-.06,20.92-.27,30.2,.42-9.3-.66-19.79,.52-30.26,.21-.59,.61-.78,1.2-.58Z" style="fill:#969696;"/><path d="M60.94,78.78c-2.01-2.04-1.77-4.65-1.77-7.18-.02-19.75-.01-39.5,0-59.25,0-4.19,.03-8.38,0-12.57-.02-2.47,.45-4.75,2.08-6.7,.82-.12,1.08,.39,1.2,1.06-.1,.6-.39,1.1-.76,1.58,1.99-2.39,3.46-5.61,7.51-4.72,.28,.33,.42,.72,.45,1.15-1.91,2.7-5.24,4.21-6.33,7.59-.5,.77-1.19,1.41-1.58,2.26-.61,10.3-.17,20.61-.22,30.9,.77,1.91,.67,3.83,0,5.75-.2,10.47,.14,20.94-.16,31.39-.08,.64-.31,1.22-.75,1.68,.39,0,.76,.07,1.13,.18,.79,.53,.81,1.26,.56,2.07-.7,1.24-.22,2.65-.57,3.95-.16,.38-.41,.67-.77,.86Z" style="fill:#919191;"/><path d="M209.51,83.87c-1.26,1.13-2.82,.84-4.29,.84-22.29-.02-44.59-.06-66.88-.1,0-1.09,.79-1.45,1.63-1.76,9.11-.68,18.23-.23,27.35-.29,11.82-.08,23.64-.04,35.45-.02,1.1-.03,2.24,.08,3.26-.52,.36-.17,.74-.27,1.14-.31,.38,.06,.71,.22,1,.47,.52,.5,1.07,.99,1.34,1.69Z" style="fill:#a8bdbd;"/><path d="M137.59,84.55c-10.03,.05-20.06,.12-30.09,.15-11.53,.03-23.06,.06-34.59,.02-1.89,0-3.92,.52-5.64-.82,.3-.42,.69-.72,1.18-.9,.74-.26,1.5-.34,2.28-.38,.81-.05,1.61-.06,2.42-.07,19.16-.03,38.32-.02,57.48,0,2.08,0,4.2-.28,6.21,.58,.58,.3,.83,.78,.75,1.42Z" style="fill:#aac1c1;"/><path d="M205.21,103.77c-4.74,1.42-9.67,1.64-14.53,2.16-8.44,.9-16.85,2.28-25.38,2.02-.54-.54-1.56-.06-1.96-.91,.93-.61,1.98-.58,3.02-.6,11.92-.26,23.69-1.91,35.47-3.55,.73-.1,1.49-.03,2.23-.04,.43,.25,1.01,.31,1.15,.92Z" style="fill:#a29a9a;"/><path d="M243.62,8.31c1.5,1.21,.28,3.37,1.64,4.62,.11,1.46,.22,2.93,.33,4.39,.24,.62,.19,1.32,.59,1.89,.88,8.16,1.13,16.33,.88,24.53-.04,1.46,.28,3-.67,4.34-1.11-.56-.92-1.73-1.25-2.65-.16-.4-.14-.78,.08-1.15,.85-10.86-.04-21.61-1.89-32.31-.25-.62-.14-1.35-.62-1.9,.01-.59,.02-1.18,.03-1.77,.3-.41,.59-.4,.87,.02Z" style="fill:#a6a6a6;"/><path d="M243.48,66.72c-.59,3.77-2.03,7.28-3.26,10.86-.14,.26-.23,.54-.25,.84-.31,.23-.5,.53-.58,.91-4.97,8.9-11.89,15.78-21.08,20.29-.52,.26-1.11,.37-1.67,.56-.24-.24-.32-.49-.25-.74,.07-.25,.14-.38,.22-.38,6.7-3.5,12.66-7.88,17.27-13.98,3.93-5.21,6.7-10.93,7.96-17.35,.27-.43,.41-.93,.79-1.28,.35-.11,.64-.02,.85,.28Z" style="fill:#989595;"/><path d="M111.48,107.99c-8.64,.32-17.14-1.2-25.68-2.11-2.58-.27-5.4,.3-7.8-1.28,.1-.57,.65-.62,1.01-.88,5.75,.55,11.53,.87,17.23,1.71,4.73,.7,9.48,.65,14.21,.97,1.32,.09,2.69-.12,3.92,.61-.69,1.12-2.09,.15-2.89,.98Z" style="fill:#a6a2a2;"/><path d="M42.08,86.62c.04-.31,.07-.61,.11-.92-.25-.22-.33-.45-.24-.66,.09-.21,.18-.32,.27-.32,5.76,6.87,12.45,12.48,21.04,15.48,.98,.34,2.01,.52,3.02,.77,.86,.64,2.09,.03,2.89,.86,.3,.26,.6,.52,.91,.78,.3,.2,.4,.4,.3,.6-.09,.21-.19,.31-.28,.31-9.57-1.61-17.56-6.22-24.42-12.93-1.27-1.24-2.39-2.64-3.59-3.97Z" style="fill:#9b9494;"/><path d="M137.55,108.9c-7-.07-14.03,.52-20.99-.7,4.79-1.35,9.72-.03,14.54-.76,2.12-.32,4.24-.3,6.36,.04,.53,.44,.55,.91,.09,1.42Z" style="fill:#98acac;"/><path d="M160.2,108.2c-2.28,1.1-4.71,.53-7.07,.59-4.63,.12-9.26,.06-13.9,.07-.46-.48-.42-.92,.09-1.34,1.82-.39,3.65-.38,5.47-.08,3.87,.42,7.76,.07,11.64,.19,1.26,.18,2.64-.45,3.77,.57Z" style="fill:#98acac;"/><path d="M216.6,99.06c.01,.37,.02,.75,.03,1.12-3.52,2.13-7.34,3.27-11.43,3.59-.38-.3-.77-.61-1.15-.92,4.28-.95,8.47-2.2,12.55-3.79Z" style="fill:#a29898;"/><path d="M131.1,107.45c-2.54,1.25-5.25,.38-7.87,.57-2.22,.16-4.44,.13-6.67,.19-1.69-.07-3.39-.14-5.08-.22,.72-1.04,1.91-.7,2.89-.98,5.58,.14,11.16,.29,16.73,.43Z" style="fill:#a29393;"/><path d="M245.24,60.24c-1.35,1.3-.06,3.49-1.6,4.72-.18,.28-.43,.4-.75,.34-.11-.11-.22-.21-.33-.32,.08-.56,.16-1.12,.24-1.68,.33-.62,.28-1.35,.6-1.97,.39-2.09,.77-4.17,1.16-6.26,.78-.13,1.29-.02,.84,.94-.05,1.41-.1,2.82-.16,4.23Z" style="fill:#989898;"/><path d="M245.4,56.01c-.28-.31-.56-.63-.84-.94-.02-.88-.03-1.76-.05-2.64,1.22-2.29-.48-4.99,1.02-7.24,.93,.77,.64,1.91,.88,2.89-.42,2.63,.41,5.43-1,7.93Z" style="fill:#9a9a9a;"/><path d="M68.18,83.74c-.3,.05-.61,.11-.91,.16-2.85-.8-5.18-2.23-6.33-5.12,.05-.41,.1-.82,.15-1.24,.32-.25,.65-.29,1.01-.09,.87,.69,1.45,1.66,2.28,2.39,.67,.63,1.42,1.16,2.23,1.59,.68,.37,1.37,.72,1.87,1.33,.17,.4,.07,.72-.3,.96Z" style="fill:#969595;"/><path d="M156.4,107.94c-3.87-.14-7.78,.77-11.6-.5,3.86-.31,7.72-.37,11.58-.19,.29,.15,.39,.29,.3,.45-.09,.16-.18,.23-.28,.23Z" style="fill:#a29393;"/><path d="M132.02,98.21c-2.17-3.53-1.93-4.39,1.94-7.12,.27,.31,.43,.68,.44,1.09-.66,1.88-1.19,3.8-1.9,5.66-.16,.12-.32,.25-.48,.37Z" style="fill:#cdcccc;"/><path d="M142.82,99.85c-.27,.12-.55,.21-.83,.28-2.7,.44-5.39,.51-8.08-.04-.29-.34-.59-.67-.88-1.01,.18-.18,.37-.35,.55-.53,2.98-.98,5.96-1,8.94,.02,.5,.33,.6,.76,.3,1.28Z" style="fill:#caa;"/><path d="M79.01,103.72c-.34,.29-.67,.59-1.01,.88-2.15-.03-4.34,.25-6.33-.9,.12-.56,.64-.61,1.05-.79,2.1,.27,4.19,.54,6.29,.81Z" style="fill:#979292;"/><path d="M156.4,107.94c-.01-.23-.02-.46-.02-.68,2.32-.07,4.64-.15,6.96-.22,.72,.16,1.49,.21,1.96,.91-1.7,.09-3.4,.17-5.1,.26-1.27-.09-2.53-.17-3.8-.26Z" style="fill:#9c9090;"/><path d="M133.9,91.89c0-.27,.02-.54,.05-.8,2.98,.24,6.09-1.03,8.93,.81-.19,.18-.39,.36-.58,.55-2.87,.85-5.71,1.34-8.4-.55Z" style="fill:#aea9a9;"/><path d="M245.52,45.19c-.6,2.38,.51,4.99-1.02,7.24,.14-2.72-.7-5.54,.72-8.15,.1,.3,.2,.61,.29,.91Z" style="fill:#ebecec;"/><path d="M133.9,100.09c2.69,.01,5.39,.02,8.08,.04-2.7,1.17-5.39,1.22-8.08-.04Z" style="fill:#d6ffff;"/><path d="M214.63,79.28c.3,0,.61,0,.91,.01-.69,1.38-1.62,2.51-3.15,3.02-.42-.2-.6-.54-.58-.99,.48-1.31,1.2-2.3,2.82-2.04Z" style="fill:#9b9f9f;"/><path d="M209.51,83.87c-.71-.11-1.44-.2-1.9-.86,.44-.64,1.08-.99,1.78-1.24,.34-.14,.7-.25,1.07-.32,.57-.07,1.11-.02,1.55,.4,.11,.16,.24,.32,.37,.47-.77,.87-1.73,1.39-2.87,1.56Z" style="fill:#999;"/><path d="M137.59,84.55c-.05-.26-.11-.51-.18-.76-.26-.31-.4-.67-.42-1.07,.07-.4,.27-.74,.56-1.02,.58-.28,1.15-.27,1.73,.02,.29,.29,.46,.64,.52,1.05-.03,.41-.21,.75-.52,1.03-.31,.27-.62,.54-.93,.81,0,0-.38,.03-.38,.03l-.37-.08Z" style="fill:#898e8e;"/><path d="M42.21,84.72c0,.33-.01,.65-.02,.98-.57-.41-1.15-.81-1.72-1.22,0-.54,0-1.09-.01-1.63,1.07,.17,1.36,1.07,1.75,1.87Z" style="fill:#928b8b;"/><path d="M144.77,93.61c1.26,1.25,1.25,2.51,.03,3.77-.16-.13-.33-.26-.49-.38-.55-.99-.55-1.99-.02-2.99,.16-.13,.32-.26,.49-.4Z" style="fill:#c0c1c1;"/><path d="M142.82,99.85c.02-.26,.04-.52,.06-.78-.28-1.45,.38-1.99,1.77-1.83,0,0,.16,.14,.16,.14-.09,1.28-.74,2.11-1.98,2.46Z" style="fill:#c0c1c1;"/><path d="M139.32,107.52c-.03,.45-.06,.89-.09,1.34-.56,.01-1.12,.03-1.68,.04-.03-.47-.06-.95-.09-1.42,.62,.01,1.24,.03,1.86,.04Z" style="fill:#a29393;"/><path d="M142.88,91.9c1.22-.07,1.77,.59,1.89,1.72,0,0-.13,.11-.13,.11-1.39,.14-2.1-.36-1.75-1.86v.03Z" style="fill:#c0bebe;"/><path d="M69.16,101.82c-1.03-.06-2.09,0-2.89-.86,1.06-.05,2.19-.31,2.89,.86Z" style="fill:#fcfdfd;"/><path d="M72.72,102.92c-.35,.26-.7,.52-1.05,.79-.53-.06-1.06-.12-1.59-.18,0-.31-.01-.61-.02-.92,.91-.14,1.8-.04,2.65,.31Z" style="fill:#988c8c;"/><path d="M217.4,36.15c-.31,.05-.62,.09-.93,.14-.27,.34-.5,.32-.71-.06-.32-.35-.63-.7-.95-1.04,.53-.44,1.07-.47,1.63-.07,.33,.06,.65,.11,.98,.17,.13,.29,.12,.57-.02,.85Z" style="fill:#7e7777;"/><path d="M242.67,66.73c-.28,.33-.56,.66-.84,.99-.11-1.01-.24-2.02,.72-2.74,0,0,.39-.09,.39-.09,.15,.65,.28,1.3-.28,1.84Z" style="fill:#e3e4e4;"/><path d="M243.62,8.31c-.29,0-.58,0-.87-.02-.06-.54-.12-1.08-.18-1.62,.24-.31,.49-.63,.73-.94,.11,.86,.21,1.72,.32,2.59Z" style="fill:#8e8d8d;"/><path d="M242.72,10.06c.6,.51,.75,1.16,.62,1.9-.58-.51-.73-1.17-.62-1.9Z" style="fill:#dcdddd;"/><path d="M243.39,61.32c.13,.76-.03,1.43-.6,1.97-.17-.77-.04-1.45,.6-1.97Z" style="fill:#e3e4e4;"/><path d="M40.47,82.95c-.14-.19-.29-.37-.39-.58-.02-.04,.17-.18,.26-.27,.12,.27,.16,.55,.14,.85Z" style="fill:#555;"/><path d="M133.02,99.08c-.54-.05-.85-.37-1-.87,0,0,.1-.1,.1-.1,.78-.09,1.16,.15,.87,1l.04-.03Z" style="fill:#b3a8a8;"/><path d="M134.73,261.88c-6.11-1.68-10.4-5.23-11.58-11.7-1.21-6.65,2.41-12.99,8.88-15.99,5.83-2.7,13.44-1.18,17.64,3.65,1.45,1.67,2.96,3.39,3.16,5.79,.43,1.35,.91,2.71-.39,3.88-1.7-.28-1.74-1.85-2.27-2.99-3.4-7.35-8.34-9.75-16.24-7.81-1.64,.42-3.04,1.24-4.18,2.5-5.38,6.41-4.82,12.99,1.52,17.8,4,2.41,8.5,2.25,12.9,2.58,2.8,.21,5.62-.48,8.41,.19,1.15,1.8,.16,2.24-1.46,2.4-2.18,.21-4.35,.01-6.53,0-3.3,.28-6.58,.12-9.86-.3Z" style="fill:#716e6e;"/><path d="M110.3,169.57c.21-.77,.25-1.63,1-2.15,.09,.74,.18,1.49,.27,2.23,.18,.74,.24,1.51,.62,2.19,1.69,7.26,3.84,14.34,7.35,20.98,3.05,5.78,7,10.67,12.7,14.02-.08,.57-.58,.63-.98,.81-4.5-2.04-7.7-5.56-10.35-9.53-5.76-8.66-9.11-18.27-10.6-28.54Z" style="fill:#888787;"/><path d="M162.69,179.07c.35,.4,.69,.81,1.04,1.21,.31,.49,.28,.98-.05,1.45-2.2,5.39-4.13,10.91-7.48,15.75-2.23,3.21-4.62,6.25-7.96,8.41-.43-.13-.72-.41-.91-.81,7.37-6.27,11.57-14.49,14.41-23.53,.27-.85,.63-1.66,.95-2.49Z" style="fill:#8b8b8b;"/><path d="M151.96,247.36c1.24-1.02,.64-2.47,.87-3.72,.91,1.13,.88,2.51,.87,3.83,0,5.05-.08,10.1-.13,15.15l.09-.05c-1.49,.03-2.99,.06-4.48,.09-.61,.51-1.22,.55-1.86,.05-.84-.07-1.69-.13-2.53-.2l-.42-.17,.06-.44c2.29-.06,4.59-.06,6.87-.22,1.12-.08,1.47-.75,.65-1.72-2.29-4.2-2.05-8.4,0-12.6Z" style="fill:#777;"/><path d="M119.64,285.78c-.09-.5-.18-1.01-.27-1.51,.74,.02,1.48,.04,2.22,.06,.28,.2,.6,.32,.93,.36,.09,.11,.2,.23,.29,.34,.13-.07,.27-.14,.4-.22-.15-.06-.29-.1-.44-.16,.1-.12,.21-.23,.31-.35,.02-.36,.05-.71,.07-1.07,.71-.5,1.69-.28,2.35-.89,.53-.51,.76-1.21,1.21-1.77l-.03,.04c.78-.69,1.65-.85,2.61-.41,.73,.65,.94,1.47,.78,2.4-.51,1.52-2.12,2.27-2.68,3.76-.39,.62-.94,1.08-1.52,1.51-.26,.22-.53,.43-.8,.65-.25,.23-.52,.44-.8,.64-.58,.36-1.15,.77-1.87,.35-.92-1.25-1.84-2.5-2.76-3.74Z" style="fill:#f3f8f8;"/><path d="M144.45,261.89c.16,.18,.28,.39,.35,.61-1.38,.17-1.15,1.21-1.42,2.19-.42,1.53-2.38,1.87-2.53,.73-.48-3.53-2.95-2.65-5.06-2.75-.35,.28-.69,.25-1.02-.04,0-.25-.01-.5-.04-.75,3.24,0,6.48,0,9.72,0Z" style="fill:#c9c9c9;"/><path d="M150.9,280.53c.82-.8,1.72-1.47,2.37-2.49,.65-1.03,1.73-1.1,2.56-.06,.78,.96,.78,2.14-.47,2.49-2.06,.57-1.54,2.66-2.61,3.76-.15,.11-.3,.22-.45,.33-.59,.12-1.08-.03-1.47-.49-.14-.33-.18-.68-.13-1.04,.13-.66,.25-1.33,.2-2.01,0-.17,0-.33,0-.5Z" style="fill:#c3bfbf;"/><path d="M125.88,283.37c-.98,1.5-1.83,.13-2.73-.13-.17-.96,.11-2.11-1.26-2.53-1.44-.44-1.95-1.49-.95-2.68,1.29-1.52,2.23-.56,3.11,.68,.49,.69,1.22,1.21,1.84,1.81-.02,.16-.03,.32-.05,.47-.06,.63-.06,1.27,0,1.9,.02,.16,.03,.32,.05,.47Z" style="fill:#c4bfbf;"/><path d="M96.95,180.85c-.58-.55-.77-1.25-.77-2.03,.03-5.68,.05-11.37,.08-17.05,1.32,6.32,.7,12.71,.68,19.08Z" style="fill:#979898;"/><path d="M147.33,205.09c.3,.27,.61,.54,.91,.81-1.73,1.53-3.66,2.65-5.99,2.99-.9,.16-2.01,.78-2.02-.95,2.53-.54,4.83-1.64,7.1-2.84Z" style="fill:#8f8686;"/><path d="M140.13,276.98c1.01,.05,2.12-.2,2.72,.98h0c.62,.59,1.24,1.19,1.86,1.79,.18,.34,.17,.67-.07,.97-.28,.22-.6,.37-.96,.43-.34,.01-.69-.03-1.02-.11-.64-.16-1.29-.22-1.95-.05-.33,.1-.67,.15-1.02,.18-.56-.02-1.04-.21-1.41-.64-.16-.33-.2-.68-.15-1.04,.15-.49,.4-.92,.74-1.29,.22-.19,.45-.39,.66-.6-.01,0,.26-.35,.26-.36,0,0,.35-.27,.35-.27Z" style="fill:#e0e1e1;"/><path d="M132.08,279.76c.62-.6,1.25-1.2,1.87-1.81h0c-.02-.32-.04-.66-.05-.99l-.04,.04c.94,0,1.87-.01,2.81-.02,0,0,.23,.35,.23,.34,.06,.35-.09,.54-.44,.55,.36,.34,.71-.4,1.07,0,.53,.51,.65,1.11,.44,1.79-.05,.36-.18,.68-.42,.95-.31,.19-.65,.3-1.02,.31-.9-.04-1.79,0-2.68,.2-.58,.08-1.12,0-1.61-.33-.2-.2-.28-.42-.26-.66,.02-.24,.06-.36,.11-.36Z" style="fill:#e0dede;"/><path d="M123.94,276.13c-1.41-1.89,.19-2.56,1.43-2.56,1.23,0,2.84,.66,1.41,2.55-.95,.61-1.89,.6-2.84,0Z" style="fill:#d6d5d5;"/><path d="M162.45,266.07c-1-.26-1.62-.9-1.4-1.91,.16-.72,.75-1.35,1.62-1.22,1.02,.15,1.61,.87,1.39,1.87-.16,.72-.74,1.28-1.62,1.26Z" style="fill:#cbc9c9;"/><path d="M140.23,207.93c.46,.77,1.29,.76,2.02,.95-2.56,1.18-5.12,1.19-7.69,.03,.35-.94,1.41-.42,1.96-.94,1.24-.02,2.47-.03,3.71-.05Z" style="fill:#9fa0a0;"/><path d="M120.34,275.49c-.09,1.21-.82,1.59-1.83,1.54-1.04-.05-1.71-.6-1.57-1.7,.13-.98,.77-1.68,1.79-1.59,.99,.08,1.54,.79,1.61,1.74Z" style="fill:#c3bfbf;"/><path d="M133.89,276.97c-.73,.02-1.47,.12-2.19,.04-.8-.1-1.3-.61-1.31-1.48,0-.83,.48-1.37,1.17-1.7,.81-.39,1.42,.07,1.9,.64,.62,.74,.4,1.67,.38,2.54,0,0,.04-.04,.04-.04Z" style="fill:#c3bfbf;"/><path d="M136.66,276.99c0-.59-.1-1.21,.04-1.78,.23-.95,.89-1.61,1.91-1.48,.77,.1,1.34,.68,1.48,1.47,.1,.58,.03,1.18,.04,1.78,0,0,.05-.02,.05-.02-1.19,.96-2.37,.96-3.56,0l.05,.02Z" style="fill:#c3bfbf;"/><path d="M159.91,275.22c-.11,1.48-.84,1.86-1.85,1.81-1.04-.05-1.71-.6-1.57-1.7,.13-.98,.76-1.66,1.79-1.6,1.04,.07,1.41,.91,1.62,1.48Z" style="fill:#c3bfbf;"/><path d="M129.38,280.7c-.9-.03-1.8-.05-2.69-.08,0-.43-.03-.86,.02-1.29,.12-1.1,.62-2.01,1.82-2,1.19,0,1.69,.92,1.79,2.02,.04,.43,0,.86-.01,1.29-.15,.11-.29,.22-.44,.33-.16-.09-.32-.19-.48-.28Z" style="fill:#c3bfbf;"/><path d="M146.49,280.65c0-.43-.05-.86-.01-1.29,.1-1.1,.6-2.01,1.79-2.02,1.2-.01,1.7,.9,1.81,2,.04,.43,0,.86,0,1.29-.13,.14-.27,.28-.4,.42-.92,.47-1.85,.47-2.78,.02-.14-.14-.27-.27-.41-.41Z" style="fill:#c3bfbf;"/><path d="M112.66,264.55c.02-.88,.54-1.47,1.29-1.6,1.01-.17,1.7,.43,1.81,1.47,.09,.87-.53,1.47-1.26,1.6-1.02,.18-1.63-.48-1.84-1.47Z" style="fill:#cbcaca;"/><path d="M123.67,264.52c-.18,1-.8,1.64-1.82,1.47-.73-.12-1.35-.71-1.27-1.58,.1-1.03,.78-1.64,1.79-1.49,.75,.12,1.27,.71,1.3,1.6Z" style="fill:#cbc9c9;"/><path d="M128.56,266.06c-.97-.16-1.6-.76-1.47-1.79,.09-.76,.65-1.39,1.51-1.34,1.03,.06,1.65,.74,1.53,1.76-.09,.76-.65,1.3-1.57,1.37Z" style="fill:#cbcaca;"/><path d="M134.77,262.63c.34,.01,.68,.03,1.02,.04,.06,.14,.09,.29,.17,.41,.66,.98,.83,1.94-.28,2.7-.71,.49-1.44,.33-1.95-.35-1.05-1.42-.03-2.13,1.03-2.8Z" style="fill:#cbc9c9;"/><path d="M153.58,262.62c.42,.08,.9,.05,1.26,.25,.95,.54,1.64,1.26,.89,2.43-.33,.51-.87,.89-1.45,.71-1.11-.33-1.68-1.09-1.21-2.3,.16-.4,.4-.76,.61-1.14,0,0-.09,.05-.09,.05Z" style="fill:#cbc9c9;"/><path d="M125.5,259.08c.7,0,1.38,.31,1.5,1.16,.12,.86-.45,1.37-1.27,1.46-.8,.08-1.5-.19-1.6-1.11-.1-.87,.39-1.36,1.36-1.51Z" style="fill:#c5bebe;"/><path d="M133.56,271.97c.25-.79,.76-1.26,1.62-1.19,.86,.07,1.37,.58,1.3,1.44-.07,.89-.71,1.24-1.55,1.17-.85-.07-1.3-.58-1.36-1.42Z" style="fill:#c5bebe;"/><path d="M118.42,261.69c-.83,0-1.43-.37-1.46-1.22-.03-.82,.49-1.32,1.34-1.35,.86-.04,1.44,.46,1.48,1.24,.04,.78-.48,1.32-1.37,1.34Z" style="fill:#bcb0b0;"/><path d="M158.86,261.68c-1.24,.04-1.83-.45-1.86-1.22-.03-.77,.5-1.32,1.37-1.34,.85-.02,1.42,.43,1.46,1.24,.03,.81-.46,1.34-.97,1.32Z" style="fill:#bcb0b0;"/><path d="M125.03,269.79c-.86-.16-1.39-.63-1.27-1.46,.12-.83,.77-1.21,1.58-1.11,.81,.1,1.31,.61,1.21,1.46-.11,.9-.79,1.1-1.52,1.11Z" style="fill:#bcb0b0;"/><path d="M117.74,267.2c1.56,.03,2.08,.59,2.05,1.36-.03,.78-.62,1.26-1.49,1.23-.86-.03-1.39-.51-1.34-1.34,.04-.82,.62-1.25,.78-1.25Z" style="fill:#bcb0b0;"/><path d="M131.71,269.79c-.88-.15-1.37-.61-1.25-1.47,.13-.87,.78-1.19,1.57-1.1,.82,.09,1.33,.63,1.21,1.45-.12,.84-.78,1.14-1.53,1.11Z" style="fill:#bcb0b0;"/><path d="M139.56,268.68c-.23,.82-.81,1.18-1.61,1.09-.82-.09-1.32-.58-1.2-1.45,.13-.87,.78-1.19,1.57-1.1,.81,.09,1.25,.61,1.24,1.46Z" style="fill:#bcb0b0;"/><path d="M144.81,267.2c.74,0,1.39,.25,1.52,1.12,.12,.86-.37,1.36-1.2,1.45-.81,.09-1.47-.26-1.59-1.1-.11-.82,.4-1.31,1.27-1.48Z" style="fill:#bcb0b0;"/><path d="M152.63,268.78c-.17,.78-.8,1.07-1.58,.98-.82-.09-1.33-.62-1.21-1.45,.13-.83,.78-1.2,1.59-1.1,.81,.1,1.26,.61,1.2,1.57Z" style="fill:#bcb0b0;"/><path d="M141.79,273.37c-.83,0-1.43-.37-1.46-1.22-.03-.82,.49-1.32,1.34-1.35,.86-.04,1.44,.46,1.48,1.24,.04,.78-.48,1.32-1.37,1.34Z" style="fill:#bcb0b0;"/><path d="M154.7,273.38c-.86-.16-1.39-.63-1.27-1.46,.12-.83,.77-1.21,1.58-1.11,.81,.1,1.31,.61,1.21,1.46-.11,.9-.79,1.1-1.52,1.11Z" style="fill:#bcb0b0;"/><path d="M128.47,270.79c1.22,.05,1.73,.55,1.7,1.37-.03,.84-.63,1.24-1.46,1.22-.87-.02-1.4-.56-1.36-1.34,.04-.78,.62-1.26,1.12-1.25Z" style="fill:#bcb0b0;"/><path d="M123.44,272.09c-.21,.76-.61,1.29-1.48,1.28-.86,0-1.42-.46-1.41-1.28,.01-.8,.55-1.29,1.42-1.29,.87,0,1.27,.54,1.48,1.3Z" style="fill:#bcb0b0;"/><path d="M159.84,268.68c-.17,.8-.72,1.16-1.54,1.1-.85-.06-1.37-.6-1.28-1.4,.08-.79,.69-1.25,1.54-1.17,.84,.08,1.27,.57,1.29,1.46Z" style="fill:#bcb0b0;"/><path d="M163.89,246.26c-.18,.64-.57,1.05-1.27,1.01-.67-.04-1.19-.45-1.17-1.1,.02-.84,.61-1.38,1.48-1.22,.6,.11,.97,.62,.96,1.3Z" style="fill:#c3bbbb;"/><path d="M149.12,273.38c-.87,0-1.73-.01-2.6-.02l.04,.04c.27-2.88,.5-3.04,2.77-1.79,.3,.64,.45,1.25-.22,1.77Z" style="fill:#bcb0b0;"/><path d="M136.52,207.97c-.47,.7-1.27,.7-1.96,.94-1.25-.04-2.31-.58-3.31-1.26,.33-.27,.65-.54,.98-.81,1.43,.38,2.86,.75,4.29,1.13Z" style="fill:#888282;"/><path d="M115.35,247.03c-.27,.77-.79,1.19-1.6,.95-.59-.17-.94-.69-.82-1.3,.17-.82,.77-1.16,1.58-.95,.62,.17,.83,.68,.84,1.3Z" style="fill:#bbb;"/><path d="M117.36,251.45c.17-.63,.56-1.07,1.22-1.1,.68-.04,1.21,.39,1.25,1.02,.05,.85-.46,1.41-1.38,1.3-.65-.08-.98-.58-1.09-1.22Z" style="fill:#c3bbbb;"/><path d="M159.39,251.32c.02,.66-.27,1.19-.91,1.33-.87,.18-1.49-.32-1.54-1.16-.04-.61,.49-1.08,1.15-1.15,.69-.07,1.09,.36,1.31,.98Z" style="fill:#c3bbbb;"/><path d="M115.35,256.15c-.18,.64-.57,1.05-1.27,1.01-.67-.04-1.19-.45-1.17-1.1,.02-.84,.61-1.38,1.48-1.22,.6,.11,.97,.62,.96,1.3Z" style="fill:#c3bbbb;"/><path d="M123.35,256.42c-.32,.59-.84,.93-1.45,.71-.8-.28-1.18-.91-.7-1.73,.34-.58,.93-.77,1.53-.43,.53,.3,.95,.74,.63,1.45Z" style="fill:#c3bbbb;"/><path d="M111.17,252.12c-.38,.55-.91,.77-1.52,.52-.63-.25-.96-.75-.57-1.39,.3-.48,.72-1.02,1.43-.59,.53,.32,.92,.76,.67,1.46Z" style="fill:#bfbaba;"/><path d="M98.12,199.44c-.33,.91,.1,2.07-.89,2.76,.07-2.04-.88-4.2,.72-6.06,.3,1.09,.38,2.18,.17,3.3Z" style="fill:#727272;"/><path d="M167.89,251.68c-.07,.71-.55,1.05-1.19,1.04-.64,0-1.19-.36-1.15-1.06,.04-.65,.57-1.16,1.17-1.15,.59,0,1.04,.52,1.17,1.17Z" style="fill:#bfbaba;"/><path d="M163.4,256.17c-.08,.71-.55,1.05-1.19,1.04-.64,0-1.19-.36-1.15-1.06,.04-.65,.57-1.16,1.17-1.15,.59,0,1.04,.51,1.17,1.17Z" style="fill:#bfbaba;"/><path d="M147.33,262.7c.62-.02,1.24-.03,1.86-.05,.13,.68,.49,1.42,.34,2.03-.29,1.19-.93,2.12-2.16,.67,0-.15,.01-.31,.02-.46,0-.31,0-.61,0-.92,0-.15,0-.31-.01-.46-.05-.27-.06-.54-.04-.82Z" style="fill:#c0c1c1;"/><path d="M159.43,241.54c-.01,.51-.3,.99-.92,1.08-.65,.09-1.1-.34-1.05-.97,.04-.6,.51-1,1.12-1.02,.47-.01,.74,.35,.85,.92Z" style="fill:#c8c8c8;"/><path d="M166.67,240.63c.63,.02,1.1,.32,1.19,.95,.09,.64-.3,1.13-.95,1.08-.6-.04-1-.53-1.02-1.15-.01-.46,.33-.75,.78-.88Z" style="fill:#c8c8c8;"/><path d="M115.38,235.12c0,.63-.29,1.12-.91,1.21-.65,.1-1.11-.31-1.07-.96,.04-.6,.51-1.02,1.12-1.05,.48-.03,.73,.36,.86,.8Z" style="fill:#c8c8c8;"/><path d="M122.94,235.55c-.03,.41-.31,.72-.77,.77-.65,.07-1.11-.31-1.2-.91-.09-.62,.35-1.13,.96-1.09,.56,.04,.97,.51,1.01,1.23Z" style="fill:#c8c8c8;"/><path d="M155.83,235.41c-.06,.42-.4,.9-1.01,.94-.65,.04-1.03-.44-.95-1.08,.09-.62,.56-.98,1.19-.92,.44,.05,.76,.36,.77,1.05Z" style="fill:#c8c8c8;"/><path d="M163.39,235.55c-.03,.41-.31,.72-.77,.77-.65,.07-1.11-.31-1.2-.91-.09-.62,.35-1.13,.96-1.09,.56,.04,.97,.51,1.01,1.23Z" style="fill:#c8c8c8;"/><path d="M110.89,241.7c-.07,.42-.4,.9-1.01,.94-.65,.04-1.03-.44-.94-1.08,.09-.61,.56-.98,1.19-.91,.43,.05,.76,.36,.76,1.05Z" style="fill:#c8c8c8;"/><path d="M119.34,241.56c0,.66-.32,1.13-.97,1.07-.34-.03-.76-.41-.92-.74-.31-.63,.05-1.13,.68-1.24,.62-.1,1.03,.3,1.21,.91Z" style="fill:#c8c8c8;"/><path d="M152.94,276.15c-1.01,1.28-2.02,1.29-3.03,0-.31-.64-.34-1.26,.16-1.83h0c.83-.56,1.32,.43,2.03,.42,.35,.04,.65,.2,.9,.45,.14,.33,.11,.65-.06,.97Z" style="fill:#bfb8b8;"/><path d="M146.65,276.15c-1.01,1.29-2.02,1.28-3.03,0-.18-.32-.2-.65-.04-.99,.26-.25,.58-.4,.93-.48,.67-.1,1.21-.86,1.99-.38h0c.49,.59,.47,1.2,.15,1.85Z" style="fill:#bfb9b9;"/><path d="M176.97,213.09c.03,1.53,.07,3.07,.1,4.6-.3,0-.59,.01-.89,.02,.09-1.57-.33-3.22,.78-4.62Z" style="fill:#898989;"/><path d="M152.08,275.19c-1.42,1.44-1.07-1.2-2-.87,0-.3,0-.6,.01-.9l-.02,.02c1.02-.04,2.07-.17,2.79,.81,0,0-.11,.42-.11,.42-.29,.08-.52,.26-.67,.52Z" style="fill:#e4e6e6;"/><path d="M146.49,274.31c-.93-.32-.58,2.31-2,.88-.16-.26-.38-.43-.68-.52,0,0-.11-.42-.11-.42,.74-1,1.82-.84,2.85-.85,0,0-.04-.04-.04-.04,0,.32-.02,.64-.02,.95Z" style="fill:#e4e6e6;"/><path d="M176.03,219.12c0,1.34,.54,2.77-.62,3.93-.04-1.35-.03-2.69,.62-3.93Z" style="fill:#898989;"/><path d="M150.07,280.62c.27-.09,.55-.12,.83-.09,0,0,.1,.12,.1,.12,.63,.87,.62,1.74,.01,2.61l-.06,.08c-.79,.28-1.37-.05-1.73-.71-.54-1.01,.21-1.51,.88-2.03l-.03,.03Z" style="fill:#c4c0c0;"/><path d="M126.71,280.59c.56,1.18,.71,2.23-.83,2.79,0,0-.11-.12-.11-.12-.6-.87-.61-1.74,.01-2.61,0,0,.1-.12,.1-.12,.28-.03,.56-.01,.83,.06Z" style="fill:#c3bfbf;"/><path d="M172.55,242.84c-.26,.02-.52,.03-.78,.04-.07-1.08,0-2.13,.66-3.06,.04,1.01,.08,2.02,.12,3.03Z" style="fill:#8a8b8b;"/><path d="M105.99,248.25c-1.11-.82-.8-1.97-.74-3.07,.68,.92,.74,1.99,.74,3.07Z" style="fill:#7d7d7d;"/><path d="M123.94,276.13c.95,0,1.89,0,2.84,0-.95,1.24-1.89,1.23-2.84,0Z" style="fill:#b8a9a9;"/><path d="M149.12,273.38c.07-.59,.14-1.18,.21-1.77,.66,.44,.72,1.13,.74,1.83,0,0,.02-.02,.02-.02-.33-.01-.65-.02-.98-.04Z" style="fill:#e4e6e6;"/><path d="M168.85,255.18c.09,.78,.08,1.52-.65,2.03-.09-.77,.14-1.45,.65-2.03Z" style="fill:#807e7e;"/><path d="M143.9,275.19c-.09,.32-.19,.64-.28,.96-.82-.67-.66-1.3,.09-1.9,0,0,.17,.18,.17,.18,.17,.16,.23,.33,.18,.5-.05,.17-.1,.26-.16,.26Z" style="fill:#e4e6e6;"/><path d="M163.68,181.73c.02-.48,.03-.97,.05-1.45,.18-.22,.4-.4,.65-.54,.08,.77,0,1.49-.7,1.99Z" style="fill:#fdfdfd;"/><path d="M146.65,276.15c-.05-.61-.1-1.23-.15-1.84,.88,.55,.95,1.16,.15,1.84Z" style="fill:#e4e6e6;"/><path d="M147.37,265.36c-1.08-.62-1.03-1.23,0-1.84,0,0-.02,0-.02,0,.55,.61,.55,1.22,0,1.83h.02Z" style="fill:#b5aeae;"/><path d="M150.07,274.32c-.05,.61-.1,1.22-.16,1.83-.8-.68-.73-1.29,.16-1.83Z" style="fill:#e4e6e6;"/><path d="M152.94,276.15c-.1-.32-.19-.64-.29-.96-.16-.18-.2-.35-.14-.52,.06-.16,.12-.25,.18-.25,0,0,.17-.18,.17-.18,.75,.6,.91,1.23,.08,1.9Z" style="fill:#e4e6e6;"/><path d="M175.11,226.23c.09,.84,.12,1.67-.69,2.24-.11-.85,.17-1.58,.69-2.24Z" style="fill:#898989;"/><path d="M171.51,244.33c.13,.79,.16,1.54-.57,2.1-.08-.77,.16-1.46,.57-2.1Z" style="fill:#8a8b8b;"/><path d="M145.59,280.62c.3,0,.6,.02,.91,.03,0,0-.05-.04-.05-.04,.24,.17,.35,.38,.33,.6-.03,.24-.07,.36-.14,.36-.35,.2-.72,.23-1.09,.08-.08-.18-.16-.35-.24-.53,.09-.17,.19-.34,.28-.51Z" style="fill:#b0aaaa;"/><path d="M132.08,279.76c.03,.29,.03,.58,.01,.87,0,0-.26,.25-.26,.25,0,0-.36,0-.36,0,0,0-.26-.26-.26-.26,.07-.51,.38-.77,.87-.85Z" style="fill:#c5c0c0;"/><path d="M144.7,280.62c-.03-.29-.02-.58,0-.87,.5,.08,.81,.35,.88,.86,0,0,.04-.01,.04-.01-.15,.12-.3,.25-.45,.37-.16-.12-.31-.23-.47-.35Z" style="fill:#c5c1c1;"/><path d="M130.3,280.65c.3,0,.6-.02,.91-.03,0,0-.03-.02-.03-.02,.23,.23,.31,.47,.23,.7-.08,.23-.16,.35-.23,.35-.7,0-1.27-.12-.83-1.04l-.05,.03Z" style="fill:#b1abab;"/><path d="M131.27,202.27c-4.78-2.91-7.64-7.37-9.93-12.28-1.19-2.55-2.49-5.06-2.88-7.91-.34-.86-.05-1.25,.87-1.17,1.25,3.36,2.53,6.7,4.13,9.91,2.1,4.22,5,7.76,8.72,10.65-.19,.4-.48,.67-.91,.8Z" style="fill:#9a9999;"/><path d="M152.83,143.63c0,.39-.01,.78-.02,1.16-5.72-3.98-12.11-5.12-18.92-4.4-.63-.39-1.29-.75-.92-1.68,5.84-2.65,11.31-1.25,16.64,1.55,1.13,1.07,2.96,1.48,3.22,3.38Z" style="fill:#a6a0a0;"/><path d="M158.32,177.27c.3,.38,.6,.77,.9,1.15-1.57,7.2-4.12,13.94-9.14,19.53-.4-.17-.66-.48-.79-.89,3.78-5.45,6.93-11.18,8.04-17.84,.51-.56,.14-1.57,.99-1.95Z" style="fill:#999797;"/><path d="M119.33,180.91c-.29,.39-.58,.78-.87,1.17-1.56-3.23-2.17-6.68-2.44-10.22,.23-.29,.53-.45,.89-.47,.37,.08,.61,.3,.74,.65-.21,3.1,1.34,5.87,1.68,8.87Z" style="fill:#9e9d9d;"/><path d="M149.29,197.06c.26,.3,.53,.59,.79,.89-2.31,3.09-5.13,5.42-9.04,6.16-.27-.22-.42-.51-.46-.86,.07-.35,.26-.61,.56-.79,3.53-.57,5.83-3,8.15-5.39Z" style="fill:#939191;"/><path d="M160,164.67c.06,3.74-.4,7.4-1.8,10.9-.18-3.76,.36-7.4,1.8-10.9Z" style="fill:#fdfdfd;"/><path d="M116.78,166.55c-1.15-1.67-.6-3.56-.63-5.35-.01-.9,.86-.96,1.55-1.08-1.18,2.02-.79,4.27-.92,6.44Z" style="fill:#fdfdfd;"/><path d="M131.27,202.27c.3-.27,.61-.53,.91-.8,1.11,.38,2.1,1.13,3.35,1.03,.34,.13,.56,.37,.65,.72-.02,.36-.18,.65-.46,.88-1.74,0-3.1-.91-4.45-1.83Z" style="fill:#8d8585;"/><path d="M117.66,172.04c-.24-.09-.48-.15-.73-.2-.96-1.09-.5-2.31-.32-3.5,.05-.61,.09-1.23,.13-1.84,1.77,1.61,.69,3.68,.91,5.54Z" style="fill:#fdfdfd;"/><path d="M135.73,203.22c-.02-.25-.09-.49-.2-.72,1.87-.01,3.74-.03,5.61-.04-.08,.22-.11,.45-.1,.68-1.76,1.04-3.53,.91-5.32,.08Z" style="fill:#fdfdfd;"/><path d="M132.87,139.43c.34,.32,.68,.64,1.01,.95-.52,.07-1.04,.13-1.56,.2-.37-.27-.73-.54-1.1-.8,.42-.72,.99-.73,1.64-.35Z" style="fill:#968d8d;"/><path d="M158.32,177.27c-.33,.65-.66,1.3-.99,1.95-.04-1.03-.26-2.12,.8-2.84,.06,.3,.13,.59,.19,.89Z" style="fill:#fdfdfd;"/><path d="M97.06,111.58c0-.27,0-.55-.01-.82,2.2-.74,4.41-.55,6.63-.12,2.29,.07,4.59,.15,6.88,.22,2.43,.94,5.05-.17,7.49,.68,4.99-.14,9.97-.25,14.95,.18,2.7,.66,5.4,.61,8.1,.02,.31,0,.62,.02,.93,.03,4.3,.79,8.64,.1,12.96,.37,1.44,.09,3-.53,4.31,.57-1.7,.8-3.53,.54-5.29,.54-12.68,.06-25.36,.05-38.05,.06-2.01-1.08-4.26-.36-6.35-.84-.81-.61-1.76-.3-2.65-.38-1.62-.09-3.26,.24-4.85-.31-1.7,.16-3.39,.15-5.06-.2Z" style="fill:#837979;"/><path d="M229.49,97.29c-.09,.31-.18,.61-.28,.92-2.02,.02-3.1,1.62-4.52,2.66-.95,.53-2.02,.88-2.72,1.79-5.17,2.31-10.23,4.96-16.01,5.49-.85,.6-1.98,.06-2.82,.68-.81,.09-1.62,.18-2.43,.28-1.64-.04-3.61,1.53-4.75-.97,1.07-.34,2.15-.43,3.26-.23,.94-.47,2.09,0,2.99-.68,.83-.07,1.65-.13,2.48-.2,.64-.29,1.38-.24,2-.59,7.99-1.64,15.01-5.39,21.71-9.87,.31,.1,.48,.3,.53,.62,.19,.02,.38,.05,.57,.1Z" style="fill:#837d7d;"/><path d="M195.96,108.15c1.35,1.44,3.19,.52,4.75,.97-1.74,1.36-4.16,.1-5.89,1.53-2.62,.05-5.24,.1-7.86,.14-1.35-1.33-3.46,.58-4.73-1.11,4.53-.97,9.09-1.6,13.73-1.53Z" style="fill:#918c8c;"/><path d="M159.3,112.71c-4.33-.06-8.67-.09-13-.2-1.44-.04-3.02,.48-4.27-.73,5.61-.09,11.22-.17,16.82-.26,1.88,.11,4.06-1.57,5.52,.95-1.69,.08-3.38,.16-5.08,.24Z" style="fill:#796262;"/><path d="M164.38,112.48c-1.64-1.49-3.74-.3-5.52-.95,3.03-1.07,6.14-.9,9.26-.66,1.4,1,3.31-.39,4.63,.98-2.73,1-5.55,.84-8.37,.64Z" style="fill:#8a8282;"/><path d="M184.44,110.91c-2.44,.8-4.94,.9-7.47,.66-1.39-.98-3.27,.37-4.6-.95,2.41-.93,4.92-.73,7.42-.65,1.42,.97,3.3-.37,4.65,.94Z" style="fill:#828282;"/><path d="M172.38,110.62c1.48,.58,3.28-.38,4.6,.95-1.41,.09-2.82,.18-4.23,.26-1.48-.62-3.31,.4-4.63-.98,1.42-.08,2.84-.16,4.26-.24Z" style="fill:#6a6060;"/><path d="M141.1,111.75c-2.7,1.3-5.4,1.32-8.1-.02,2.7,0,5.4,.01,8.1,.02Z" style="fill:#9f7979;"/><path d="M118.05,111.54c-2.51-.1-5.12,.9-7.49-.68,2.53-.16,5.06-.25,7.49,.68Z" style="fill:#8a8383;"/><path d="M184.44,110.91c-1.5-.58-3.31,.43-4.65-.94,.81-.1,1.63-.19,2.44-.29,1.52,.62,3.43-.46,4.73,1.11-.84,.04-1.68,.08-2.52,.12Z" style="fill:#6c6666;"/><path d="M103.68,110.64c-2.21,.04-4.42,.08-6.63,.12,0-.27,0-.54,0-.81,2.25-.09,4.51-.36,6.64,.68Z" style="fill:#8a8383;"/><path d="M202.2,107.24c-.81,1.05-1.9,.83-2.98,.68,.9-.64,1.91-.82,2.98-.68Z" style="fill:#918c8c;"/><path d="M206.68,106.45c-.53,.67-1.24,.73-2,.6,.57-.51,1.23-.76,2-.6Z" style="fill:#918c8c;"/><path d="M239.39,79.33c.19-.3,.39-.61,.58-.91-.19,.3-.39,.61-.58,.91Z" style="fill:#e3e4e4;"/><path d="M228.92,97.2c-.22-.17-.39-.38-.53-.62,.21-.26,.47-.34,.79-.25-.09,.29-.17,.58-.26,.87Z" style="fill:#555;"/><path d="M136.62,135.58c-.88-.66-1.95-.48-2.94-.68,3.14-1.1,6.29-1.24,9.43-.02-.73,1.19-1.97,1.49-3.19,1.84-1.27,.11-2.58,.33-3.31-1.14Z" style="fill:#c3a2a2;"/><path d="M151.88,139.52c-.29,.25-.57,.51-.86,.76-2.88,.06-4.69-1.82-6.55-3.6,.12-.75,.36-1.32,1.28-.83,2.45,.55,4.42,1.88,6.13,3.67Z" style="fill:#9f9898;"/><path d="M145.75,135.85c-.35,.27-.71,.54-1.06,.81-1.78,.85-3.31,.64-4.51-1.04,.86-.74,1.96-.51,2.94-.74,.98,.06,1.91,.22,2.63,.97Z" style="fill:#a49898;"/><path d="M151.95,120.96c.75,.78,2.15,.35,2.72,1.46-1.61,.08-3.24,.24-4.6-.91,0-.22,.01-.43,.05-.65,.61,.03,1.22,.06,1.83,.09Z" style="fill:#8aa3a3;"/><path d="M135.73,203.22c1.77-.03,3.55-.05,5.32-.08,0,.32,0,.65,0,.97-1.78,.32-3.55,.39-5.33-.01,0-.29,0-.59,0-.88Z" style="fill:#877878;"/><path d="M116.61,168.34c.11,1.17,.21,2.34,.32,3.5-.3,0-.6,.01-.91,.02-.06-.53-.12-1.07-.18-1.6,.08-.71,.14-1.43,.77-1.92Z" style="fill:#949393;"/><path d="M112.19,171.84c-.77-.57-.72-1.37-.62-2.19,.46,.66,.69,1.38,.62,2.19Z" style="fill:#8d8f8f;"/><path d="M147.41,120.52c-6.02,.26-12.03,.29-18.05-.03,0-.22,0-.45,0-.67,1.29-1.23,.81-3.15,1.76-4.51,.66,.31,1.33,.62,1.99,.93,.79,1.22,1.59,1.26,2.4,.03,.68-.32,1.35-.65,2.03-.97,.22,.21,.39,.46,.5,.74,.07,.26,.11,.53,.15,.78,0-.03,.19,.22,.19,.22,0,0,.21-.22,.2-.25,.02-.27,.07-.51,.12-.76,.08-.27,.22-.5,.43-.68,.68,.29,1.37,.59,2.05,.88,.76,1.44,1.57,.75,2.38,.06,.68-.33,1.36-.66,2.04-.99,.98,1.3,.53,3.16,1.72,4.38,.03,.28,.06,.57,.07,.85Z" style="fill:#e2e6e6;"/><path d="M163.13,114.86c.16,.41,.41,.81,.46,1.23,.15,1.16,.39,2.39-.78,3.23-.45,.32-.87,.04-1.17-.27-1.18-1.19-.78-2.41-.02-3.63,.25-.4,.53-.69,1.51-.56Z" style="fill:#bab9b9;"/><path d="M131.14,115.31q1.02,3.55-1.76,4.51c-1.11-2.87-.88-3.48,1.76-4.51Z" style="fill:#ada9a9;"/><path d="M147.34,119.67c-2.78-.67-2.8-.74-1.72-4.38,2.51,1.12,2.76,1.76,1.72,4.38Z" style="fill:#a5a2a2;"/><path d="M154.54,115.34c1.96,2.71,1.94,2.82-.8,4.37-.54-.82-1.54-1.47-1.05-2.69l.03-.03c.29-.3,.54-.62,.77-.97,.33-.25,.68-.48,1.04-.68Z" style="fill:#9a9999;"/><path d="M135.53,116.27c0,.6,.06,1.2-.03,1.78-.12,.82-.6,1.35-1.5,1.26-.76-.07-.9-.69-.94-1.29-.04-.59,.04-1.19,.06-1.78,.8,0,1.6,.02,2.4,.03Z" style="fill:#988989;"/><path d="M143.58,116.29c-.06,.42-.21,.84-.18,1.25,.07,.93,0,1.8-1.16,1.82-1.28,.02-1.06-1.04-1.09-1.86-.01-.42,.02-.85,.04-1.27,.79,.02,1.59,.04,2.38,.06Z" style="fill:#958989;"/><path d="M159.52,117.47c.04,.84-.21,1.4-1.19,1.34-.97-.06-1.08-.71-1.12-1.49-.06-1.11,.49-1.69,1.52-1.53,.88,.13,.98,.91,.79,1.68Z" style="fill:#848787;"/><path d="M151.77,118.78c-.93,.21-2.03,.82-2.51-.56-.2-.59-.31-1.52,.48-1.89,.85-.39,1.67-.19,2.16,.73,.07,.58,.36,1.18-.13,1.72Z" style="fill:#968b8b;"/><path d="M123.97,119.73c-.34-.03-.68-.06-1.02-.09-.72-1.04-.51-2.21-.45-3.36,.11-.38,.3-.71,.56-.99,.66,.32,1.32,.64,1.98,.96,.22,.24,.37,.52,.48,.82,.05,.32,.05,.64-.01,.96-.13,.3-.3,.56-.54,.79-.34,.3-.68,.61-1.01,.91Z" style="fill:#dfe2e2;"/><path d="M121.18,118.9c-.61-.05-1.21-.09-1.82-.14-.21-.26-.37-.55-.47-.87-.04-.33-.03-.67,.05-1,.12-.32,.33-.57,.62-.76,.29-.29,.58-.57,.87-.86,.31,0,.63,0,.94,0,.27,.27,.43,.6,.48,.98-.13,.9,.02,1.87-.67,2.64Z" style="fill:#e1e2e2;"/><path d="M166.4,117.9c-.95-.22-.93-.81-.9-1.41,.04-.75,.55-1.17,1.14-.93,.56,.23,.58,.99,.46,1.58-.09,.42-.29,.85-.7,.76Z" style="fill:#a69d9d;"/><path d="M151.77,118.78c.07-.57-1.01-1.23,.13-1.72,.27-.03,.53-.04,.8-.04,.35,.9,.7,1.8,1.05,2.69-.66-.31-1.32-.62-1.98-.93Z" style="fill:#d8dcdc;"/><path d="M125.09,116.95c-.07-.23-.08-.47-.04-.71,.91,.01,2.02-.62,2.49,.78-.84,.73-1.66,.79-2.45-.07Z" style="fill:#9b7e7e;"/><path d="M171.29,116.7c-.41,.14-.76,.34-1.11,.35-.18,0-.56-.39-.52-.49,.16-.41,.54-.6,.96-.45,.22,.08,.39,.33,.67,.59Z" style="fill:#918989;"/><path d="M125.09,116.95c.82,.02,1.64,.04,2.46,.07-.01,.33-.02,.66-.03,.99-.8,.52-1.61,.48-2.43,.06,0-.37,0-.74,0-1.11Z" style="fill:#a3b4b4;"/><path d="M125.09,118.07c.81-.02,1.62-.04,2.43-.06-.43,1.58-1.53,1.01-2.53,.81,0-.25,.03-.5,.1-.75Z" style="fill:#8a7b7b;"/><path d="M174.38,118.04c-.73,.89-1.72,.81-2.7,.73,.71-.96,1.71-.84,2.7-.73Z" style="fill:#d1e0e0;"/><path d="M121.62,116.14c-.08-.28-.17-.57-.25-.85,.57,0,1.13,0,1.7,0-.09,.28-.17,.57-.26,.85-.4,.28-.8,.26-1.19,0Z" style="fill:#948888;"/><path d="M137.56,116.09c-.07-.27-.07-.53,0-.8,.53,.02,1.06,.04,1.59,.05,.06,.23,.06,.46,.01,.7-.51,.64-1.05,.63-1.6,.05Z" style="fill:#9f8181;"/><path d="M153.85,116.05c-.21,.51-.58,.82-1.12,.94,.06-.72,.21-1.39,.97-1.71,.18,.14,.27,.3,.25,.48-.02,.19-.05,.29-.1,.29Z" style="fill:#d8dcdc;"/><path d="M177.93,117.1c-.45,.61-1.03,.84-1.77,.65,.46-.57,1.08-.72,1.77-.65Z" style="fill:#d1e0e0;"/><path d="M153.85,116.05c-.11-.25-.16-.5-.15-.77,.29-.12,.57-.1,.84,.06-.23,.24-.46,.47-.69,.71Z" style="fill:#867676;"/><path d="M180.75,116.33c-.25,.4-.6,.61-1.08,.54,.36-.18,.72-.36,1.08-.54Z" style="fill:#cccdcd;"/><path d="M207.61,189.85c-1.65-1.58-2.22-3.77-3.25-5.7-.31-.58,0-1.12,.56-1.49,1.18,1.89,2.31,3.79,2.82,5.99,.07,.32,.16,.62,.28,.92-.13,.09-.27,.18-.4,.27Z" style="fill:#747171;"/><path d="M209.54,192.32c-.21,.17-.43,.34-.64,.51-.13-.39-.26-.79-.39-1.18,.13-.12,.26-.23,.4-.35,.13,.12,.26,.24,.39,.36,.2,.18,.28,.41,.24,.67Z" style="fill:#747171;"/><path d="M208.51,191.64c-.73-.39-.88-1.06-.9-1.8,.27-.28,.54-.28,.81,0,.2,.16,.27,.37,.2,.62,.23,.42,.18,.81-.12,1.17Z" style="fill:#747171;"/><path d="M208.51,191.64c.04-.39,.08-.78,.12-1.17,.43,.27,.7,.64,.67,1.17-.26,0-.53,0-.79,0Z" style="fill:#787777;"/><path d="M208.42,189.85c-.27,0-.54,0-.81,0,.04-.4,.08-.8,.12-1.19,.43,.28,.7,.66,.69,1.2Z" style="fill:#787777;"/><path d="M203.42,179.91c-.21-.15-.42-.3-.61-.47-.01-.01,.15-.22,.23-.34,.13,.27,.25,.54,.38,.81Z" style="fill:#555;"/><path d="M204.42,181.65c-.52-.07-1.18-.06-.41-.79,.14,.26,.27,.53,.41,.79Z" style="fill:#747171;"/><path d="M115.86,116.96c-.45,1.15-.46,2.55-1.81,2.38-1.15-.15-1.51-1.43-1.38-2.42,.12-.9,.26-2.33,1.63-2.17,1.23,.14,.99,1.6,1.56,2.21Z" style="fill:#b6b6b6;"/><path d="M121.62,116.14c.4,0,.8,0,1.2,0,1.57,1.1,.28,2.33,.14,3.5-.73,.08-1.37-.04-1.77-.74-.4-1-.4-1.95,.43-2.76Z" style="fill:#968e8e;"/><path d="M102.12,111.79c1.9-.04,3.81-.08,5.71-.12,.3,.17,.39,.35,.3,.52-.1,.18-.19,.26-.29,.26-1.95,.13-3.89,.29-5.71-.67Z" style="fill:#8a8383;"/><path d="M119.42,118.05c.02,.24,0,.48-.05,.71-.53,0-1.05,.01-1.58,.02-.63-.44-.45-1.24-.8-1.81-.05-.21-.05-.43,.02-.63,.77-.94,1.59-.77,2.43-.1,0,0,.12-.09,.12-.09-.02,.29-.05,.58-.09,.87-.2,.22-.28,.45-.23,.68,.05,.24,.11,.36,.17,.36Z" style="fill:#777373;"/><path d="M109.6,117.02c-.2-.52-.53-1.12,.01-1.54,.25-.19,.96-.19,1.16,.02,.82,.85,.92,1.74-.22,2.47-.27-.36-.62-.64-.95-.95Z" style="fill:#b2abab;"/><path d="M90.41,110.87c1.91,.09,3.92-.75,5.68,.63-1.92,0-3.84,.11-5.68-.63Z" style="fill:#8a8383;"/><path d="M119.44,116.23c-.81,.03-1.62,.07-2.43,.1,.75-1.51,1.57-1.21,2.43-.1Z" style="fill:#b6b6b6;"/><path d="M107.83,112.45c0-.26,0-.52,0-.79,.72,0,1.38,.14,1.79,.81-.6,0-1.19-.02-1.79-.03Z" style="fill:#858080;"/><path d="M106.74,116.47c-.14,.18-.27,.51-.41,.51-.24,0-.49-.19-.73-.29,.14-.17,.26-.4,.44-.51,.31-.18,.56-.04,.7,.29Z" style="fill:#877f7f;"/><path d="M116.99,116.96c.72,.4,.68,1.14,.8,1.81-1.19-.2-.99-1.01-.8-1.81Z" style="fill:#b6b6b6;"/><path d="M109.6,117.02c.32,.32,.63,.63,.95,.95-.66,.03-.97-.29-.95-.95Z" style="fill:#877575;"/><path d="M60.13,210.53l-.95-.11c-.18-.35-.19-.71-.06-1.08,.11-1.92,1.16-3.47,2.03-5.09,.7,.49,.69,1.09,.41,1.84-.53,1.46-.96,2.95-1.43,4.43Z" style="fill:#878282;"/><path d="M56.45,214.68c.02,.56-.24,.95-.71,1.22,0-.54,.23-.96,.71-1.22Z" style="fill:#7f8080;"/><path d="M59.12,209.34c.02,.36,.04,.72,.06,1.08-.27,.04-.53,.07-.8,.09,.25-.39,.49-.78,.74-1.17Z" style="fill:#999;"/><path d="M246.18,19.21c-.56-.52-.75-1.15-.59-1.89,.59,.51,.68,1.17,.59,1.89Z" style="fill:#dcdddd;"/><path d="M203.14,108.84c.77-.94,1.8-.78,2.82-.68-.83,.69-1.77,.91-2.82,.68Z" style="fill:#918c8c;"/><path d="M202.19,177.31c-.07,.1-.14,.2-.21,.31l.21-.32v.02Z" style="fill:#555;"/><path d="M184.16,116.97c.25-.37,.55-.63,1.03-.57-.34,.19-.69,.38-1.03,.57Z" style="fill:#cccdcd;"/><path d="M242.67,66.73c.09-.61,.18-1.23,.27-1.84,.23,.04,.46,.07,.7,.07-.05,.59-.11,1.18-.16,1.77-.27,0-.54,0-.81,0Z" style="fill:#908f8f;"/><path d="M140.17,135.62c1.5,.35,3.01,.69,4.51,1.04,2.39,.72,4.26,2.35,6.33,3.62,0,0-.08,.2-.08,.2,.22,.81,.04,1.23-.89,.9-4.53-2.03-9.19-3.32-14.22-2.74-1.03,.12-2.09,.09-2.95,.79-.55,.11-1.1,.23-1.65,.35-1.49,.53-2.99,1.05-4.48,1.58-.31-.3-.61-.6-.92-.91,2.96-3.05,6.82-4.08,10.8-4.86,1.18,.01,2.37,.02,3.55,.04Z" style="fill:#f5f8f8;"/><path d="M150.05,141.38c.3-.3,.6-.6,.89-.9,1.24,.5,2.24,1.44,2.85,2.5,.76,1.32-.42,.72-.96,.65-.93-.75-1.85-1.5-2.78-2.25Z" style="fill:#d8dddd;"/><path d="M152.06,292.42c-.12,.22-.19,.46-.22,.71-.32,.28-.63,.55-.95,.83-.76,.55-1.19-.12-1.71-.45-.23-.16-.49-.27-.76-.28-.63,1.08,1.44,1.48,.62,2.57-4.89,4.46-10.32,6.37-16.74,3.48-.34-.47-.28-.97-.13-1.46-.02,.02,.05-.35,.05-.35,0,0-.3-.24-.31-.2-.51,.41-.97,.86-1.68,.62l-2.61-2.01c-.8-1.21,1.42-1.6,.73-2.74-.31,.04-.57,.14-.8,.36-.53,.4-.96,1.06-1.75,.58-.63-.89-1.26-1.78-1.88-2.67,.22-.34,.5-.61,.84-.83,1.42-.51,1.85-1.97,2.81-2.92,.51-.32,1.06-.41,1.64-.24,.81,.43,1.07,1.35,1.7,1.94,.14,.08,.27,.17,.41,.24,.16,.02,.31,.06,.46,.08,1.21-.19,1.29-1.55,2.16-2.07,.51-.29,1.04-.35,1.59-.17,.79,.44,1.04,1.34,1.66,1.92,.14,.08,.26,.17,.39,.24,.16,.01,.3,.05,.45,.05,1.43-1.52-.68-1.8-.93-2.73-.28-.55-.38-1.13-.33-1.74,.07-.39,.2-.77,.4-1.12,1.15-1.03,1.98-2.35,3.07-3.44h-.05c.9-.62,1.8-.62,2.7,0h-.05c.72,.62,.8,1.39,.54,2.25-.32,.73-.93,1.22-1.47,1.76-.48,.55-.61,1.12-.12,1.75,.48,.52,1.05,.96,1.49,1.52,.58,.65,.77,1.69,1.86,1.77,.31-.09,.6-.21,.87-.4,.6-.62,.85-1.56,1.75-1.9,.62-.11,1.16,.05,1.65,.43,.75,1.62,2.77,2.51,2.65,4.62Z" style="fill:#f9fbfb;"/><path d="M147.38,287.86c-.01,.98,.17,2.02-.9,2.64-.4-.3-.67-.69-.86-1.15-.21-.43-.45-.84-.78-1.2-.49-.46-1.04-.86-1.42-1.43-.34-.66-.37-1.34-.13-2.03,.3-.64,.83-1.06,1.35-1.49,.22-.23,.46-.44,.69-.67,.35-.32,.72-.61,.97-1.02,.05-.3,.09-.6,.14-.9,1.22,0,2.44,0,3.67-.01-.57,1.18-.75,2.24,.85,2.74,.36,.84,1.13,.82,1.86,.86-.38,2.18,.73,2.89,2.71,2.73,.2,1.1-.63,1.73-1.14,2.52-1.04,.59-1.66-.22-2.4-.69-.3-.22-.57-.45-.86-.69-.58-.45-1.17-.9-1.61-1.5-.41-.48-.62-1.14-1.28-1.35-.28,.06-.47,.22-.55,.52-.05,.45,.02,.87,.06,1.31,0,.33-.14,.6-.38,.81Z" style="fill:#eff3f3;"/><path d="M62.78-.69c.7-3.66,3.29-5.59,6.44-6.99,2.63-1.12,5.38-1.46,8.22-1.46,40.94,.01,81.88,0,122.81,.04,2.17,0,4.55-.57,6.34,1.36,1.78,1.03,3.94,1.35,5.36,3.08,1.65,2,1.89,4.27,1.88,6.72-.03,24.5-.02,48.99-.02,73.49-.55,1.08-.17,2.42-.99,3.43-.12,.18-.24,.35-.37,.53-.15,.16-.31,.31-.47,.47-.37,.29-.75,.54-1.15,.77-1.66,1.38-3.87,.63-5.67,1.49-16.28,.35-32.56,.13-48.83,.14-25.91,0-51.83,.05-77.74,.02-2.54,0-5.08,.02-7.61-.03-1.52-.07-3.01-.31-4.38-1.05-.44-.16-.86-.37-1.26-.61-.72-.57-1.37-1.24-1.97-1.94-.27-.4-.48-.82-.64-1.28-1.22-1.63-.27-3.44-.42-5.16-.82-1.84-.71-3.8-.71-5.73-.01-20.25,.05-40.51,0-60.76,0-2.25-.05-4.49,1.17-6.51Z" style="fill:#fff;"/><path d="M215.76,36.23c.24,0,.48,0,.71,.06,.24,11.78,.12,23.56,.07,35.53-1.95-.49-1.72-1.51-1.72-2.31-.03-9.83-.01-19.65-.03-29.48,0-1.37,.1-2.67,.97-3.81Z" style="fill:#c9c9c9;"/><path d="M216.44,35.12c-.54,.02-1.09,.04-1.63,.07-.02-11.47,0-22.94,.42-34.4,1.61,2.87,1.99,20.26,1.22,34.33Z" style="fill:#c9c9c9;"/><path d="M212.01,81.85c-.57,.06-1.15,.12-1.72,.18-.5-.81,.09-1.3,.53-1.84,.38-.37,.92-.53,1.28-.93l-.05,.06c.4-.37,.57-.9,.92-1.32,.35-.41,.51-.96,.97-1.27,1.07-.43,.49-1.92,1.82-2.52,.66,2-.89,3.42-1.13,5.07-1.08,.64-1.96,1.5-2.62,2.57Z" style="fill:#c8cece;"/><path d="M213.94,76.73c-.02,.75-.14,1.44-1,1.69-.21,.29-.43,.32-.68,.05,.52-.97,1.05-1.95,1.57-2.92,.04,.39,.08,.79,.11,1.18Z" style="fill:#a09797;"/><path d="M62.78-.69c.17,24.89,.27,49.78-.05,74.67-.13,.09-.25,.17-.38,.26-.13-.08-.26-.16-.39-.25,.08-.77-.13-1.42-.83-1.84-1.04-5.89-.2-11.82-.47-17.73-.26-5.76,.53-11.55-.44-17.3,1.28-.93,1.28-1.84-.02-2.76,1.04-6.98,.16-14.01,.45-21.01,.18-4.32-.39-8.67,.31-12.98,.6-.36,1.21-.71,1.81-1.07Z" style="fill:#b0b0b0;"/><path d="M60.22,37.12c1.46,1.14,.86,2.75,.87,4.16,.06,10.29,.04,20.58,.04,30.87,0,0-.02,.01-.02,.01-.32,.23-.6,.18-.82-.14-.02-11.63-.04-23.27-.06-34.9Z" style="fill:#e1e1e1;"/><path d="M60.97,.38c.05,10.54,.09,21.09,.14,31.63,0,.89,0,1.8-.9,2.35,0-9.94-.03-19.88,.02-29.81,0-1.4-.63-2.99,.74-4.17Z" style="fill:#e1e1e1;"/><path d="M61.88,77.61h-.4s-.39-.07-.39-.07c-.15-.56-.23-1.15-.46-1.68-.66-1.45,.08-1.84,1.34-1.88,0,0-.02-.05-.02-.05,.85,.98,.44,2.12,.43,3.21-.16,.16-.33,.31-.49,.47Z" style="fill:#cdd1d1;"/><path d="M60.28,72.01c.27,.05,.55,.1,.82,.14-.39,.61-.65,.53-.82-.14Z" style="fill:#b0b0b0;"/><path d="M139.28,83.8c0-.29,.03-.58,.08-.87,1.11-.99,2.48-.9,3.81-.9,19.66,0,39.33-.04,58.99,.01,.75,0,1.49,.08,2.2,.33,.63,.31,.8,.79,.53,1.43-21.87,0-43.74,0-65.61,0Z" style="fill:#cab7b7;"/><path d="M211.2,80.2c-.3,.61-.61,1.22-.91,1.83,0,0,.05-.03,.05-.03-.87,.63-1.76,.58-2.67,.09-.34,0-.69,0-1.03-.01-.07-.14-.15-.28-.22-.42,.11-.11,.23-.22,.34-.33,1.68-.18,3.05-1.14,4.51-1.86,.18,.18,.23,.35,.15,.51-.08,.15-.15,.23-.22,.23Z" style="fill:#a99c9c;"/><path d="M204.89,83.79c-.02-.29-.08-.57-.16-.85-.19-.43-.13-.81,.18-1.16,.63-.21,1.25-.35,1.75,.28,0,0-.03,0-.03,0,.06,1.23-.58,1.74-1.75,1.72Z" style="fill:#817d7d;"/><path d="M207.67,82.08c.89-.03,1.78-.06,2.67-.09-.63,1.08-1.75,.86-2.73,1.01,.02-.31,.04-.61,.06-.92Z" style="fill:#cbd1d1;"/><path d="M137.32,82.94c.07,.28,.1,.56,.09,.85-21.87,0-43.73-.01-65.6-.02-.19-.66,.02-1.13,.64-1.42,5.37-.72,10.76-.28,16.14-.31,14.52-.07,29.05-.04,43.57,0,1.75,0,3.63-.44,5.16,.91Z" style="fill:#cab6b6;"/><path d="M71.92,82.92c-.06,.28-.1,.56-.11,.85-.56,0-1.12,.01-1.68,.02-.57-.54-.59-1.17-.27-1.84,.61-.42,1.27-.39,1.94-.2,.39,.36,.43,.75,.12,1.18Z" style="fill:#888484;"/><path d="M70.16,82.04c0,.58-.02,1.16-.03,1.74-.65-.02-1.3-.03-1.95-.05,.05-.25,.05-.49,0-.74,.11-.58,.48-.95,1.02-1.16,.36-.14,.68-.07,.96,.2Z" style="fill:#aab9b9;"/><path d="M63.79,80.21c-1.17-.47-1.76-1.37-1.92-2.59,0,0,.19-.16,.19-.16,.98-.41,1.25,.5,1.77,.94l-.02-.03c.34,.43,.49,.92,.36,1.47-.12,.12-.25,.25-.38,.37Z" style="fill:#cdd1d1;"/><path d="M66.47,82.13c-1.24-.16-2.19-.72-2.67-1.93,0,0,0,0,0,0,.61-.54,1.22-.51,1.84-.03l-.03-.02c.45,.41,.97,.76,1.12,1.41-.09,.19-.17,.37-.26,.56Z" style="fill:#c8d3d3;"/><path d="M69.17,82.04c-.33,.32-.66,.64-.99,.96-.68-.07-1.35-.17-1.71-.87,0,0,.13-.15,.13-.15,.62-.72,1.41-.37,2.15-.34,.14,.13,.28,.27,.42,.4Z" style="fill:#aac1c1;"/><path d="M132.99,99.11c-.05-.54-.37-.84-.87-.99-.2-2.3,.02-4.48,1.78-6.22,3,0,5.99-.02,8.99-.02,.27,.92,.88,1.51,1.75,1.86,0,1.18,0,2.35,0,3.52-.85,.35-1.41,.99-1.77,1.83-3.3,.01-6.59,.02-9.89,.03Z" style="fill:#faf9f9;"/><path d="M70.16,82.04c-.33,0-.66,0-.99,0,0,0,0-.07,0-.07-.28-.15-.38-.32-.3-.49,.08-.18,.17-.26,.26-.26,44.68-.02,89.36-.04,134.04-.05,1.19,0,2.39,.1,3.58,.15-.02,.25-.05,.5-.09,.74-.54,0-1.09,0-1.63,0-1.27,.65-2.65,.36-3.97,.36-19.29,.02-38.58,.02-57.87,0-1.32,0-2.7,.32-3.96-.39-.59,0-1.17,0-1.76-.01-.8,.55-1.72,.42-2.61,.42-20.18,0-40.36,0-60.54,0-.89,0-1.8,.13-2.62-.37-.52,0-1.04-.02-1.56-.03Z" style="fill:#c1a7a7;"/><path d="M71.71,82.07c21.92-.02,43.85-.04,65.77-.05-.05,.31-.1,.61-.16,.92-21.8,0-43.6-.01-65.41-.02-.03-.29-.1-.57-.2-.85Z" style="fill:#aab9b9;"/><path d="M139.24,82.04c21.93,.01,43.87,.02,65.8,.03-.1,.29-.21,.58-.31,.87-21.79,0-43.58-.01-65.38-.02-.04-.3-.08-.59-.12-.89Z" style="fill:#aab8b8;"/><path d="M151.96,247.36c-.24,4.2-.25,8.4,0,12.6-.36,.22-.72,.64-1.08,.64-5.14,0-10.3,.18-15.4-.6-1.97-.3-4.1-.62-5.22-2.71,.17-.18,.34-.35,.51-.53,.42-.25,.87-.43,1.35-.53,4.62-.61,9.33,.43,13.92-.69,2.01-.84,3.1-2.32,2.61-4.49-.64-2.79-2.87-3.91-5.42-4.54-1.22-.4-2.01-1.27-2.18-2.5-.54-4.11-3.1-6.04-6.96-6.64-.62-.31-1.14-.69-.99-1.51,9.57-3.08,16.69,1.26,18.87,11.51Z" style="fill:#fafbfb;"/><path d="M130.27,257.29c-5.56-3.45-7.05-10.17-3.55-16.05,.68-1.14,1.45-2.21,2.65-2.89,.83-.33,1.17,.19,1.45,.82,.09,.42,.11,.85,.07,1.27-.41,2.59-.66,5.17,.07,7.74,1.34,1.85,1.91,.6,2.48-.63,.55-2.02-.66-5.49,2.12-5.66,3.11-.19,1.79,3.36,2.44,5.27,.15,.43,.36,.81,.65,1.16,.89,.86,1.98,1.22,3.19,1.44,1.39,.25,3.39,.27,3.08,2.34-.27,1.83-2.18,1.72-3.63,1.82-2.96,.2-5.94-.1-8.88,.22-.36,.14-.7,.34-.97,.63-.68,.69-.56,1.76-1.13,2.51l-.03,.02Z" style="fill:#fafafa;"/><path d="M130.41,239.4c-.35-.35-.7-.7-1.05-1.05,.89-1.36,2.14-2.18,3.73-2.5,.29,.27,.59,.53,.88,.8-.26,2.12-1.66,2.76-3.56,2.75Z" style="fill:#dce2e2;"/><path d="M130.35,290.48c-1.12-.6-.91-1.67-.94-2.66-.26-.15-.44-.37-.55-.66-.3-.14-.59-.29-.87-.45-.73-.82-.62-1.6,.08-2.35,.24-.41,.85,.16,1.06-.37,0,0-.1-.41-.1-.41l.36-.21c0-.89,0-1.78-.01-2.68,.32-.03,.65-.06,.97-.09,.11,.47,.36,.81,.87,.91,.23,.24,.31,.53,.28,.85,.11,.32-.81,.63,0,.96,.09,.13,.18,.26,.27,.39,.13,.3,.21,.61,.26,.93,.07,.65,.07,1.29-.03,1.93-.06,.3-.18,.58-.35,.83-.05,.73,.61,0,.74,.37,1.1,2.12,1.06,2.22-1.19,2.72l.05,.02c-.27-.33-.57-.37-.88-.05Z" style="fill:#e5ebeb;"/><path d="M129.4,286.87c0,.32,0,.63,0,.95-.61-.01-1.21-.02-1.82-.04,0,0,.05,.05,.05,.05-.29-.34-.61-.66-.95-.95,0,0,.04,.04,.04,.04-.16-1.96,.33-3.45,2.66-3.54,.01,.29,.02,.58,.01,.87l.05-.04c-1.9,.9-2.11,1.8,0,2.71l-.04-.04Z" style="fill:#c5c1c1;"/><path d="M151.02,283.26c0-.87,0-1.74-.01-2.61,1.74,.86,2.02,1.73,.01,2.61Z" style="fill:#eff8f8;"/><path d="M154.66,279.48c-.12-.04-.31-.05-.36-.13-.14-.26,.02-.42,.4-.37,.11,.02,.2,.17,.29,.26-.11,.08-.22,.15-.33,.23Z" style="fill:#f9f9f9;"/><path d="M125.79,280.65c0,.87,0,1.74-.01,2.61-2.02-.88-1.73-1.75,.01-2.61Z" style="fill:#eff8f8;"/><path d="M122.57,279.26c-.11,.07-.22,.2-.33,.2-.39-.02-.49-.2-.25-.44,.08-.08,.27-.09,.38-.05,.09,.03,.13,.19,.2,.29Z" style="fill:#f9f9f9;"/><path d="M136.61,276.97c1.19,0,2.38,0,3.56,0,.02,.33,.04,.66,.05,.99h0c-.62,.59-1.24,1.19-1.86,1.78-.31,.35-.6,.33-.88-.04-.02-.74-.19-1.41-.95-1.75h0c.02-.33,.04-.66,.06-.99Z" style="fill:#fff;"/><path d="M140.24,280.62c.1,1.98-.42,3.49-2.75,3.64-.1-.16-.2-.33-.3-.49,0-.19,0-.38,0-.58,.17-.75,.53-1.43,.84-2.13,.12-.15,.24-.29,.37-.44,.62,0,1.23,0,1.85,0Z" style="fill:#c5c0c0;"/><path d="M145.58,283.32c-.32,.87-1.1,.8-1.81,.88,0,0-.42-.14-.42-.14,0,0-.31-.31-.31-.31s-.14-.42-.14-.42c-.02-.9-.04-1.81-.07-2.71,.62,0,1.24,0,1.85,0,0,0,0,0,0,0,.25,.91,.67,1.77,.89,2.69Z" style="fill:#c5c1c1;"/><path d="M142.89,280.62c-.9,0-1.8,0-2.7,0,.9-1.16,1.8-1.15,2.7,0Z" style="fill:#b8a9a9;"/><path d="M137.5,279.7c.29,0,.59,.01,.88,.04,.03,.29,.03,.59,.01,.88,0,0,0,0,0,0-.15,.1-.3,.19-.44,.29-.15-.09-.3-.18-.45-.28,0-.31,0-.62,0-.93Z" style="fill:#c5c0c0;"/><path d="M140.23,277.96c.12,.13,.25,.25,.37,.38-.08-.02-.18-.02-.22-.08-.07-.09-.1-.21-.14-.31,0,0,0,0,0,0Z" style="fill:#afb1b1;"/><path d="M142.85,277.95c-.12,.13-.24,.26-.36,.38,.02-.08,.01-.19,.06-.23,.08-.07,.2-.1,.31-.15,0,0,0,0,0,0Z" style="fill:#afb2b2;"/><path d="M131.21,284.21c0-.3,0-.6,0-.91,.63-.77,.61-1.76,.87-2.66,0,0,0-.01,0-.01,.62-.01,1.24-.03,1.85-.04,.12,.12,.25,.24,.38,.37,.25,.48,.32,1,.26,1.54-.06,.35-.18,.68-.34,1-.2,.3-.43,.56-.7,.8-.28,.22-.6,.36-.95,.46-.56,.06-1.03-.09-1.39-.54Z" style="fill:#c5c0c0;"/><path d="M133.94,280.59c.9-1.13,1.78-1.11,2.65,.03-.15,.14-.3,.28-.46,.42-.85,.33-1.61,.27-2.23-.47l.05,.02Z" style="fill:#b8a9a9;"/><path d="M133.94,277.96c.12,.12,.24,.25,.36,.37-.08-.02-.18-.02-.22-.07-.07-.09-.1-.2-.14-.31,0,0,0,0,0,0Z" style="fill:#afb1b1;"/><path d="M136.55,277.96c-.12,.13-.24,.25-.36,.38,.02-.08,.01-.18,.06-.23,.08-.07,.2-.1,.3-.14,0,0,0,0,0,0Z" style="fill:#afb2b2;"/><path d="M136.59,280.62c.3,0,.6,0,.91,.01,0,0-.02-.03-.02-.03,.16,.46,0,.93-.44,.92-.43,0-.58-.49-.41-.94l-.03,.04Z" style="fill:#b1abab;"/><path d="M118.71,275.88c-.12-.04-.32-.05-.36-.13-.14-.27,.02-.42,.4-.37,.11,.02,.2,.17,.29,.27-.11,.08-.22,.15-.33,.23Z" style="fill:#f9f9f9;"/><path d="M132.4,275.49c0,.1,.02,.26-.04,.29-.1,.07-.28,.12-.38,.08-.41-.18-.39-.38,.05-.49,.11-.03,.24,.08,.37,.12Z" style="fill:#f9f9f9;"/><path d="M138.48,275.88c-.12-.04-.32-.05-.36-.13-.14-.26,.02-.42,.4-.37,.11,.02,.2,.17,.29,.27-.11,.08-.22,.15-.33,.23Z" style="fill:#f9f9f9;"/><path d="M158.49,275.74c-.12,.05-.26,.15-.36,.13-.4-.1-.44-.3-.11-.5,.09-.05,.28,0,.38,.07,.07,.04,.06,.2,.09,.3Z" style="fill:#f9f9f9;"/><path d="M128.48,278.96c.12,.05,.32,.08,.34,.16,.07,.28-.12,.42-.48,.34-.08-.02-.13-.19-.19-.29,.11-.07,.22-.14,.33-.2Z" style="fill:#f9f9f9;"/><path d="M147.97,279.1c.12-.05,.26-.15,.36-.13,.4,.1,.44,.3,.11,.49-.09,.05-.28,0-.38-.07-.07-.04-.06-.2-.08-.3Z" style="fill:#f9f9f9;"/><polygon points="148.02 272.11 147.78 272.18 147.81 271.97 148.02 272.11" style="fill:#e4e6e6;"/><path d="M147.35,265.35c0-.61,0-1.22,0-1.83,.93,.61,1.01,1.22,0,1.83Z" style="fill:#dbe7e7;"/><path d="M152.69,274.43c.05,.26,.04,.51-.03,.76,0,0-.29,0-.29,0,0,0-.29,0-.29,0-.06-.46,.17-.7,.61-.76Z" style="fill:#afb2b2;"/><path d="M143.9,275.19c-.07-.25-.07-.51-.03-.76,.44,.06,.67,.3,.62,.76,0,0-.3,0-.3,0h-.3Z" style="fill:#afb1b1;"/><path d="M145.58,283.32c-1.51-.5-1.67-1.44-.89-2.69,.31,0,.62-.01,.93-.02,.08,.3,.15,.6,.23,.9,.21,.66,.22,1.29-.29,1.84l.02-.02Z" style="fill:#eff3f3;"/><path d="M145.56,283.34c.1-.61,.19-1.23,.29-1.84,.15,0,.3,0,.45,0,.13,.77,.15,1.48-.74,1.84Z" style="fill:#b8aaaa;"/><path d="M132.08,280.64c.78,1.24,.63,2.17-.87,2.66,0,0,.03,.03,.03,.03-.22-.19-.3-.38-.24-.59,.06-.21,.12-.31,.19-.31,0-.3,.01-.61,.02-.91-.01-.31-.03-.62-.04-.92,.3,.01,.61,.03,.91,.04Z" style="fill:#f3f8f8;"/><path d="M139.29,117.01c.86,1.6-.36,1.73-1.34,1.63-1.09-.12-1.52-.76-.48-1.67,.62-.43,1.22-.45,1.82,.04Z" style="fill:#956f6f;"/><path d="M139.29,117.01c-.61-.01-1.21-.02-1.82-.04,.02-.29,.05-.58,.09-.88,.54-.02,1.07-.03,1.6-.05,.04,.32,.09,.64,.13,.96Z" style="fill:#adcfcf;"/><path d="M119.42,118.05c-.59-.38-.55-.72,.06-1.04-.02,.34-.04,.69-.06,1.04Z" style="fill:#b6b6b6;"/><path d="M136.62,280.59c.27,.79,.55,.9,.85,.02,.31,0,.61,.01,.92,.02,.78,1.27,.62,2.21-.91,2.69l.03-.03c0,.32,0,.65-.01,.97,0,.28,0,.57,0,.85-.22,.3-.51,.41-.87,.36-.32-.11-.62-.27-.9-.47-.13-.1-.27-.21-.4-.3-.52-.41-1.1-.76-1.43-1.37,0-.92,0-1.83,0-2.75,.91,0,1.82,.01,2.72,.02Z" style="fill:#ebf3f3;"/><path d="M135.69,286.87c0,.32,0,.63,0,.95-.61-.01-1.21-.03-1.82-.04-.16-.04-.33-.08-.49-.12-.29-.18-.54-.41-.75-.69-.16-.3-.27-.63-.33-.97-.07-.72,.11-1.35,.7-1.81l-.04,.04c.32-.32,.67-.6,.95-.95l-.03,.03c.7,.11,1.46,.1,1.83,.89-1.9,.91-2.07,1.81,0,2.7l-.04-.04Z" style="fill:#c5c1c1;"/><path d="M143.78,284.2c0,.91,0,1.81,0,2.72,0,0,.04-.04,.04-.04-.34,.3-.66,.61-.95,.95,0,0,.05-.05,.05-.05-.73-.03-1.5,.02-1.92-.78,.02-.16,.04-.32,.06-.47,.07-.63,.08-1.27,.03-1.9-.01-.16-.03-.32-.04-.47,.4-.79,1.16-.75,1.87-.83,0,0-.05-.04-.05-.04,.3,.34,.61,.66,.95,.95l-.04-.04Z" style="fill:#c5c0c0;"/><path d="M63.84,78.4c-.59-.31-1.18-.63-1.77-.94-.04-1.17-.09-2.35-.13-3.52,.26,0,.53,.02,.79,.04,.37,1.47,.74,2.95,1.11,4.42Z" style="fill:#949191;"/><path d="M69.14,81.22c.02,.25,.03,.5,.04,.75-.86,0-1.72,0-2.58,0-.33-.61-.66-1.21-.99-1.82,1.34-.19,2.27,1,3.53,1.06Z" style="fill:#9f9292;"/><path d="M65.63,80.19c-.61,0-1.23,.02-1.84,.03,0-.61,.02-1.23,.02-1.84,1,.21,1.62,.8,1.82,1.82Z" style="fill:#969090;"/><path d="M212.25,78.47c.23,.02,.46,0,.69-.05-.05,.54-.34,.85-.89,.9,.07-.28,.14-.57,.2-.85Z" style="fill:#7e7272;"/><path d="M211.2,80.2c.06-.24,.08-.49,.06-.74,.28-.07,.56-.14,.84-.2-.05,.55-.36,.85-.9,.94Z" style="fill:#847575;"/><path d="M140.23,97.44c-1.56,1.12-3.09,1.13-4.59-.11,.16-.74,.61-1.24,1.29-1.55,1.19-.4,2.33-.37,3.38,.41,.33,.44,.31,.86-.08,1.26Z" style="fill:#87b1b1;"/><path d="M136.6,93.53c1.22-.76,2.41-.85,3.56,.14,.14,.18,.27,.37,.41,.55-.15,.46-.45,.78-.9,.98-1.15,.31-2.26,.37-3.24-.46-.26-.45-.21-.85,.17-1.2Z" style="fill:#7ea6a6;"/><path d="M136.6,93.53c-.03,.3-.05,.61-.08,.91,.15,.76,.19,1.52,.15,2.3-.34,.2-.69,.39-1.03,.59-1.48-2.36-1.41-2.63,.96-3.8Z" style="fill:#8a8282;"/><path d="M141.2,94.57c.97,.6,1.01,1.23,.05,1.88-.19-.08-.38-.17-.57-.25-.46-.44-.88-.9-.49-1.6l.26-.16c.29-.2,.55-.16,.76,.13Z" style="fill:#918d8d;"/><path d="M141.2,94.57c-.25-.05-.5-.09-.76-.13-.16-.24-.25-.5-.28-.78,.58,.03,.94,.32,1.04,.91Z" style="fill:#836b6b;"/><path d="M140.23,97.44c-.01-.29-.04-.57-.09-.86,.22-.56,.54-.62,.95-.19,0,0,.16,.05,.16,.05-.11,.57-.47,.87-1.01,.99Z" style="fill:#7b6b6b;"/><path d="M130.41,239.4c1.19-.92,2.37-1.84,3.56-2.75,5.43,.02,7.18,1.48,8,7,.18,1.21,.57,1.89,1.76,2.06-.14,1.76-1.42,1.48-2.57,1.44-1.53-.49-1.76-1.8-2.05-3.13-1.16-5.28-3-5.82-7.34-2.2-.22,.19-.5,.3-.79,.39-1.25-.35-1.29-1.11-.71-2.08,.02-.25,.07-.49,.14-.73Z" style="fill:#928d8d;"/><path d="M140.99,246.49c.97-.07,2.02,.15,2.74-.79,.94-.16,1.79,.19,2.58,.6,4.53,2.35,4.92,6.2,1.03,9.93-.31-.32-.51-.69-.63-1.11,.71-3.77,.43-6.87-4.52-7.07-.73-.03-1.31-.65-1.19-1.57Z" style="fill:#969292;"/><path d="M147.28,255.01c.02,.41,.04,.82,.06,1.23-.85,.63-1.75,1.17-2.84,1.12-4.43-.22-8.87,.42-13.29-.33-.16-.58,.03-1.01,.56-1.3,5.12-1.21,10.33-.59,15.51-.72Z" style="fill:#7f7272;"/><path d="M131.33,256.05c-.04,.33-.08,.65-.11,.98-.31,.08-.61,.16-.92,.24,.34-.93-1.44-1.78-.11-2.75,.23-.32,.53-.42,.9-.3,.3,.22,.5,.5,.59,.86,.01,.37-.1,.7-.34,.98Z" style="fill:#837373;"/><path d="M130.49,253.72c1.33-1.79,3.26-.92,4.93-1.04,2.98-.21,6.02,.28,9.17-.42-.67-1.8-1.81-1.48-2.74-1.53-1.61-.1-3.29,.07-4.41-1.48-.29-1.15,.52-1.31,1.33-1.46,1.63,0,3.21,.42,4.81,.62,1.92,.25,3.37,1.42,3.29,3.5-.07,1.98-1.71,2.72-3.4,2.82-4.1,.25-8.21,.66-12.3-.19l-.28-.1c-.11-.25-.25-.5-.41-.73Z" style="fill:#918585;"/><path d="M138.33,248.27c-.3,.33-.6,.65-.89,.98-1.93-2,.13-4.88-1.61-7.22-2.28,2.16,.18,5.34-1.83,7.31-.77-.18-1.29-.65-1.64-1.34-.73-2.94-1.04-5.8,1.66-8.03,1.22-.38,2.43-.43,3.63,.06,2.52,2.56,2.11,5.37,.68,8.25Z" style="fill:#9c9d9d;"/><path d="M130.28,240.13c.05,.69,.13,1.37,.77,1.81,1.77,1.75,.9,3.88,.85,5.89-.31,.79-.85,1.31-1.69,1.5-1.27-3.08-1.31-6.15,.08-9.2Z" style="fill:#a1a1a1;"/><path d="M130.2,249.33c.31-.35,.61-.7,.92-1.05,.64-.1,1.28-.12,1.92-.01,.32,.35,.64,.71,.96,1.06-1.27,1.74-2.54,1.67-3.8,0Z" style="fill:#8f9292;"/><path d="M130.49,253.72c.14,.24,.27,.48,.41,.73-.24,.04-.47,.07-.71,.06,.1-.26,.2-.53,.31-.79Z" style="fill:#766f6f;"/><path d="M131.19,282.44c.02,.3,.04,.6,.05,.9-.58-.27-.93-.55-.05-.9Z" style="fill:#b9abab;"/><path d="M143.82,284.24c-.32-.32-.63-.63-.95-.95,.32,.32,.63,.63,.95,.95Z" style="fill:#edf9f9;"/><path d="M133.93,283.28c-.32,.32-.63,.63-.95,.95,.32-.32,.63-.63,.95-.95Z" style="fill:#edf9f9;"/><path d="M137.5,283.28c-.15-.14-.3-.28-.44-.42,.09,.02,.22,.02,.27,.08,.08,.1,.1,.25,.15,.37,0,0,.03-.03,.03-.03Z" style="fill:#b9abab;"/><path d="M141.09,96.39c-.32,.06-.63,.12-.95,.19-1.16,.05-2.32,.1-3.47,.16-1.05-.7-1.26-1.45-.15-2.29,1.22,.05,2.44,.1,3.67,.16,.3,.6,.6,1.2,.9,1.8Z" style="fill:#e9e2e2;"/><path d="M133.04,248.27c-.64,.86-1.28,.87-1.92,.01-.03-2.11-.05-4.23-.08-6.34,.29-1.01,.77-1.9,1.58-2.6,1.51-1.3,3.26-1.37,4.98-.76,1.67,.59,2.43,1.95,2.62,3.74,.15,1.4-.53,2.98,.76,4.18,.52,.6,1.23,.68,1.98,.78,5.29,.69,6.32,2.56,4.32,7.74-2.31,1.43-4.89,1.24-7.43,1.21-2.84-.03-5.69-.11-8.53-.17-.05-.5-.1-1.01-.15-1.51,1.93-1.1,4.06-.64,6.11-.72,1.78-.07,3.56,0,5.34,.01,1.71,0,3.68-.13,3.57-2.29-.1-1.86-1.88-2.38-3.68-2.47-1.41-.07-3,.55-4.18-.81,.02-1.6,.03-3.2,.06-4.8,.03-1.43-.4-2.58-1.88-3.09-.53,.25-1.07,.24-1.62,.03-1.55,.69-1.92,2.02-1.92,3.54,0,1.44,.04,2.88,.06,4.32Z" style="fill:#f3f5f5;"/><path d="M134.9,240.41c.54,0,1.08-.02,1.62-.03-.53,.71-1.06,.72-1.62,.03Z" style="fill:#997676;"/></g><g id="ToucheSensor-5"><circle id="Sensor" cx="174.78" cy="168.34" r="22.68" style="fill:none; stroke:#00d4d1; stroke-miterlimit:10;"/><circle id="bodyTouchSensors-leftShoulder" cx="174.78" cy="168.34" r="22.68" style="fill:#00d4d1; opacity:.5;cursor: pointer;"/></g></svg>