<?xml version="1.0" encoding="UTF-8"?><svg id="Face-3" xmlns="http://www.w3.org/2000/svg" viewBox="0 0 283.58 283.58"><g id="Face-4"><path d="M12.75,433.91c-2,.82-3.45,2.42-5.12,3.7-2.74,2.11-5.93,2.19-8.68,.27-1.3-.91-.9-2.15-.89-3.29,.08-5.92,.08-11.85,.39-17.77,.56-10.78,.28-21.57,.76-32.34,.93-20.79,2.95-41.47,7.98-61.74,1.43-5.77,3.58-11.27,6.49-16.47,2.2-3.93,5.08-7.3,9.1-9.33,2.21-1.12,3-2.73,3.5-4.85,3.03-12.85,6.44-25.6,10.24-38.23,5.16-17.15,10.22-34.36,18.16-50.48,8.33-16.93,20.11-31.06,35.93-41.55,5.42-3.6,11.94-5.02,17.51-8.38,1.03-.63,2.03-.32,2.97,.34,1.36,.96,2.75,1.89,4.65,3.2,2.38-4.77,6.79-8.37,4.85-14.75-1.13-3.72-1.27-7.77-1.64-11.7-.25-2.6-1.4-3.56-4.01-3.78-11.52-.98-22.82-3.26-33.94-6.41-6.58-1.86-12.97-4.2-19.2-7.05-15.18-6.93-24.71-18.74-29.94-34.29-3.17-9.4-4.67-19.14-5.55-28.99-1.39-15.56-.7-30.95,3.89-45.99,.93-3.04,2.04-6.04,3.32-8.95,5.43-12.41,14.32-21.24,27.07-26.16,10.4-4.01,21.21-6.35,32.16-8.1,25.48-4.07,51.11-4.59,76.78-2.59,15.9,1.24,31.69,3.38,46.84,8.81,3.72,1.33,7.34,2.88,10.81,4.77,5.98,3.25,10.85,7.68,14.66,13.36,7.8,11.63,12.02,24.57,13.17,38.35,1.56,18.61-.12,36.98-6.07,54.84-6.25,18.76-18.33,31.77-36.96,38.77-13.6,5.12-27.64,8.12-42.03,9.57-7.4,.74-7.43,.6-8.36,7.79-.39,3.01-.56,6.06-1.09,9.04-.65,3.63,.34,6.51,3.2,8.78,5.24-3.03,5.26-3.07,10.76,.05,3.44,1.95,7.08,3.46,10.64,5.16,9.5,4.55,17.1,11.49,23.82,19.45,11.91,14.11,20.06,30.32,26.29,47.57,7.68,21.29,13.44,43.14,19.03,65.04,.64,2.49,1.72,4.22,3.87,5.76,5.59,4,9.01,9.76,11.82,15.9,3.95,8.65,5.72,17.89,7.23,27.18,4.04,24.79,5.47,49.78,5.4,74.87-.02,7.75,.06,15.49,.23,23.24,.05,2.12-.52,2.85-2.77,2.95-3.52,.16-6.53-.45-9.14-2.99-1.49-1.45-3.31-2.55-5.46-4.18-.51,5.14-.43,9.74-.09,14.34,.31,.56,.18,.99-.38,1.3-1.63,.14-3.26,.04-4.89,.07-8.51-.07-17.02,.15-25.53-.11-.49-.32-.85-.75-1.09-1.28-.78-2.2-.49-4.5-.57-6.76-.16-4.93-.54-5.31-5.6-5.43-1.52-.04-3.03-.01-4.55-.01-21.54,0-43.07-.01-64.61,0-7.06,0-7.06,.03-7.19,7.05-.03,1.66,.06,3.34-.48,4.96-.2,.55-.54,1.01-.99,1.38-6.28,.4-12.55,.2-18.83,.12-2.42-2.1-1.22-4.95-1.54-7.49-.24-1.95,.71-4.25-1.64-5.57-1.49-.44-3.01-.41-4.53-.41-23.95,0-47.9,0-71.85,0-1.52,0-3.03,0-4.49,.45-2.18,1.26-1.4,3.4-1.6,5.27-.28,2.6,.84,5.46-1.41,7.7-9.06,.33-18.13-.03-27.19,.19-2.67,.06-3.28-.95-3.26-3.43,.02-3.58,.58-7.2-.36-10.75Z" style="fill:#555;"/><path d="M184.17,161.42c4.81,2.21,9.08,5.17,12.69,9.07,5.56,7.61,8.81,16.45,13.13,24.71,1.46,2.79,2.96,5.59,4.17,8.51,5.87,12.11,11.64,24.28,19.47,35.31,1.15,1.62,1.94,3.41,2.44,5.33,3.32,4.65,4.87,10.02,6.31,15.44,2.91,10.98,5.86,21.95,8.71,32.95,.55,2.14,1.29,3.7,3.5,4.82,3.44,1.73,5.76,4.86,7.88,8.04,4.71,7.05,7.43,14.94,9.01,23.16,4.26,22.23,6.8,44.64,6.77,67.31-.01,11.68,.14,23.36,.16,35.04,0,1.13,.48,2.38-.41,3.47-1.51,.06-2.1-1.76-3.57-1.69-.21-.02-.43-.04-.64-.06-.41-.16-.77-.38-1.09-.67-2.22-2.09-4.56-4.02-7.45-5.17-3.9-1.25-7.71-2.72-11.88-2.88-3.16-.12-3.92-2.33-3.93-5.05-.04-6.98-.02-13.96-.02-20.93,.25-2.49-.83-4.45-2.53-6.15-.65-.7-1.28-1.43-2.07-1.99-.5-.28-1.04-.47-1.6-.6-.82-.14-1.65-.26-2.46-.45-2.8-.56-5.54-.37-8.27,.45-8.03,.88-15.95-1.28-23.96-.83-1.4,.08-2.64-.6-3.52-1.76-1.32-2.17-1.77-4.76-3.33-6.82-2.72-3.59-6.05-6.18-10.73-6.59-14.6-.41-29.18-.04-43.77-.19-2.25-.02-4.58,.39-6.68-.89-1.53-1.39-1.42-3.27-1.42-5.07-.04-18.33,.01-36.66-.05-54.98-.01-3.41,.91-5.69,4.47-6.89,3.45-1.17,6.41-3.39,8.88-6.13,9.52-11.2,14.26-24.66,18.11-38.54,1.1-3.4,1.81-6.91,2.69-10.37,.22-.84,.52-1.65,.68-2.51,.11-.64,.27-1.27,.44-1.89,.35-1.04,.44-2.14,.6-3.22,.76-3.57,1.2-7.2,1.94-10.77,.43-1.29,.62-2.62,.69-3.97,.05-.68,.18-1.35,.34-2.01,.55-1.54,.47-3.16,.51-4.76,.03-.99,.14-1.96,.38-2.92,.88-5.39,1.29-10.83,1.73-16.26,.6-6.26,1.31-12.5,1.48-18.8,.19-7.3,.41-14.63,2.15-21.79Z" style="fill:#fff;"/><path d="M78.46,177.85c3.74-5.97,9.42-9.69,15.35-13.1,2.71,.65,2.06,2.93,2.2,4.74,.29,3.57-.41,7.19,.57,10.73,.43,1.87,.34,3.77,.38,5.66,.15,3.37-.45,6.79,.57,10.12,.73,3.32-.18,6.77,.87,10.06,1.9,14.78,3.54,29.61,7.17,44.11,3.4,14.5,7.53,28.74,15.29,41.66,3.83,6.18,8.34,11.64,15.53,14.06,2.23,.75,3.06,2.16,3.06,4.43,0,19.6,0,39.19-.02,58.79,0,1.21,.02,2.46-1.08,3.34-1.96,1.11-4.11,.77-6.2,.78-14.02,.03-28.03,.01-42.04,.02-6.74,.38-12.23,2.69-14.76,9.58-2.27,5.81-2.29,5.77-8.45,5.88-4.63,.08-9.29-.42-13.88,.52-.47,.03-.94,0-1.4-.09-.88-.25-1.75-.16-2.62,.13-1.94,.4-3.9,.42-5.8-.05-4.6-1.13-8.56,0-12.01,3.18-1.65,1.85-1.74,4.1-1.74,6.4,0,6.66-.04,13.32,.01,19.97,.02,3.47-1.23,5.54-4.96,5.48-2.31-.03-4.44,.83-6.65,1.26-1.68,.52-3.44,.84-4.98,1.78-.36,.17-.72,.36-1.06,.57-.16,.11-.33,.21-.49,.32-.95,.59-1.93,1.13-2.8,1.84-.67,.6-1.35,1.19-2,1.82-.25,.27-.51,.52-.77,.77-.27,.25-.56,.47-.87,.68-.16,.09-.33,.17-.49,.25-.35,.12-.72,.18-1.09,.18-.53-.13-1.09-.22-1.4-.75,.35-14.41,.68-28.81,1.07-43.22,.48-17.76,2.19-35.4,5.16-52.92,1.22-7.18,2.63-14.31,5.43-21.08,1.69-4.08,3.73-7.96,6.51-11.41,1.25-1.54,2.51-3.5,4.34-3.9,4.2-.91,4.76-4.09,5.58-7.36,3.62-14.4,7.43-28.74,11.68-42.97,1.18-3.95,2.48-7.77,4.76-11.21,1.96-5.95,5.96-10.78,8.91-16.19,.45-.66,.9-1.32,1.28-2.03,.17-.37,.36-.72,.56-1.07,.89-1.62,1.59-3.34,2.39-5,3.07-5.99,6.07-12,8.88-18.12,2.88-4.62,4.37-9.92,7.16-14.58,.84-1.41,1.36-3.04,2.81-4.02Z" style="fill:#fff;"/><path d="M39.28,82.94c-5.28-8.84-6.75-18.77-8.13-28.7-.67-4.8-1.5-9.68-1.3-14.48,.59-14.55,1.3-29.13,7.25-42.81,5.02-11.57,13.08-19.85,25.02-24.39,10.57-4.01,21.5-6.36,32.61-8.13,1.5-.24,2.99-.51,4.49-.76,1.49,.42,2.05,1.64,2.49,2.94,2.06,6.09,6.44,9.5,12.56,10.92,7.51,.46,15.02,.09,22.53,.19,5.25,.03,10.5,0,15.74,.01,1.82,.01,3.64,.03,5.47,.04,.72,0,1.45,0,2.17,.02,8.72,.04,13.44-3.04,16.9-11.06,.47-1.1,.63-2.37,1.73-3.12,8.07,.36,15.83,2.47,23.69,4.07,6.26,1.27,12.31,3.2,18.11,5.9,6.82,2.57,11.82,7.44,16.3,12.95,.69,1.1,1.48,2.13,2.19,3.22,3.14,5.4,5.84,10.98,6.84,17.23,.18,.65,.29,1.31,.36,1.98,.09,.67,.14,1.35,.21,2.03,.13,.95,.53,1.82,.75,2.74,2.21,10.42,2.56,20.94,1.7,31.52-.94,2.65-.55,5.41-.64,8.12,0,.96,0,1.92-.05,2.87-.08,2.08-.78,4.03-1.2,6.04-.22,.83-.52,1.64-.7,2.49-.12,.62-.28,1.23-.46,1.84-.34,1.02-.41,2.08-.49,3.14-3.4,15.32-12.54,25.95-26.63,32.54-4.3,1.78-8.66,3.37-13.34,3.79-12.41,1.59-24.75,3.9-37.33,3.67-1.08-.02-2.09,.26-3.11,.57-2.43,.45-4.89,.27-7.34,.33-3.8-.02-7.6,0-11.39,0-1.86-.01-3.73-.03-5.6-.02-.8,.01-1.6,.01-2.4,0-2.15-.02-4.31,0-6.46,.02-5.55-.14-11.1,.27-16.64-.25-6.09-1.56-12.36-.29-18.55-1.39-5.48-.98-11.12-1.29-16.67-1.99-2.25,.08-4.4-.65-6.6-.94-.92-.06-1.83-.12-2.73-.34-.63-.16-1.21-.44-1.75-.8-.84-.65-1.83-.84-2.87-.9-10.24-2.34-18.11-8.22-24.4-16.42-.47-.66-.98-1.3-1.47-1.95-.12-.16-.23-.32-.36-.48-.21-.34-.36-.7-.46-1.09-.04-.39-.04-.78,0-1.18Z" style="fill:#fff;"/><path d="M96.85,163.33c3.9-1.79,7.8-3.57,11.93-5.46,.88,1.42,.41,2.94,.71,4.3,1.91,2.95,1.58,6.45,2.43,9.66,1.44,8.56,3.88,16.76,7.95,24.5,3.04,5.79,7.04,10.55,12.62,13.95,1.11,.65,2.32,1.06,3.56,1.39,2.25,.68,4.5,.67,6.76,.03,2.3-.48,4.26-1.63,6.11-3,6.3-4.81,10.04-11.38,12.87-18.6,.71-1.81,1.41-3.63,2.3-5.37,.44-.81,.57-1.69,.62-2.59,1.21-7.3,3.58-14.4,3.58-21.9,.06-1.83-.17-3.74,1.33-5.2l-.02,.04c.55-.63,1.15-.6,1.78-.14,3.37,1.83,6.75,3.67,10.12,5.5,2.29,11.38,.75,22.74-.1,34.1,.04,6.88-1.44,13.63-1.84,20.47,0,.49-.03,.99-.07,1.48-.49,1.56-1.03,3.11-.84,4.79-.01,.67-.03,1.35-.14,2.01-.29,1.27-.83,2.5-.76,3.85-.03,1.11,.06,2.22-.22,3.32-.42,.81-.76,1.64-.7,2.57-.52,3.58-1.47,7.09-1.91,10.69-.09,1.1-.88,2.02-.83,3.15-.03,.64-.06,1.28-.25,1.9-.42,.75-.71,1.53-.67,2.41-.22,2.56-1.5,4.86-1.84,7.39-.03,.44-.12,.86-.26,1.27-.52,.76-.63,1.63-.72,2.51-2.51,8.9-5.66,17.55-9.99,25.74-.75,1.42-1.06,3.25-2.97,3.79-1.51-.46-2.21-1.89-3.36-2.8q.1-2.68,1.5-5.03c-1.27,.27-1.97,1.42-3.13,1.51-.43,.05-.82-.04-1.2-.24-.89-.92-1.71-2.43-2.99-.39-.28,.29-.62,.5-1,.62-.6,.02-1.16-.15-1.68-.42-.66-.37-1.16-.92-1.65-1.48-.27-.24-.54-.48-.82-.69-.78-.5-1.7-.8-2.29-1.57-1.6-2.61-2.25-.05-3.26,.6-.79,.42-1.57,.51-2.35-.02-.21-.21-.42-.42-.62-.65-.2-.22-.4-.45-.6-.67-.19,.36,.27,.27,.34,.47,.3,.25,.56,.51,.81,.79,.14,.39,.15,.77,.03,1.16-.31,.78-.78,1.43-1.47,1.91-.53,.34-1.1,.55-1.73,.59-.42-.06-.79-.24-1.1-.52-.78-1.04-1.58-1.77-2.52-.15-.26,.33-.58,.58-.96,.74-.42,.04-.83,0-1.24-.13-.98-.2-1.52-1.27-2.69-1.37,.75,1.31,1.75,2.46,1.27,4.05-.14,.44-.38,.82-.7,1.16-.61,.4-1.28,.58-2,.63-.73,.02-1.43-.1-2.1-.4-5.53-6.99-7.67-15.49-10.39-23.7-1.41-4.25-2.48-8.61-3.71-12.92-.02-1.21-.18-2.39-.8-3.47-.1-.49-.16-.99-.17-1.49-3.15-13.71-5.17-27.59-6.47-41.59-.1-1.05-.44-2.06-.7-3.08-.16-1.32-.11-2.64-.12-3.96,.05-5.11-.92-10.15-.91-15.25-.52-6.2-.16-12.43-.59-18.63-.01-.83,0-1.65,.83-2.15Z" style="fill:#fff;"/><path d="M155.84,148.6c2.83,2.89,4.14,6.76,6.45,9.98,2,2.95,1.31,5.98,.32,9.03-1.4,3.31-1.67,6.84-1.99,10.36-.04,.46-.14,.91-.26,1.35-.35,1.07-.58,2.17-.58,3.3-1.09,6.97-4.29,12.98-8.4,18.58-2.31,3.27-5.45,5.23-9.4,5.91-1.68,.13-3.35,.11-5.03,.07-1.47-.05-2.85-.42-4.11-1.2-7.86-5.19-10.85-13.45-13.72-21.79-.69-2.89-2-5.66-1.8-8.73-.02-1.74,.2-3.49-.31-5.21-.13-.42-.23-.85-.31-1.28-.23-2-.39-4,.84-5.78,.29-.33,.58-.67,.86-1.01,1.77-3.91,3.07-8.07,6.02-11.35,1.06-1.18,.35-2.95,1.3-4.18,1.76-2.75,4.78-3.28,7.52-4.34,.69-.2,1.39-.32,2.1-.37,6.68-.41,13.2-.12,18.73,4.38,.87,.53,1.4,1.33,1.77,2.26Z" style="fill:#fff;"/><path d="M64.68,107.56c-4.62-1.85-9.19-3.75-13.37-6.55-4.49-3.02-8.08-6.74-10.35-11.68-.34-.96,.25-1.13,1-1.17,7.68,8.6,16.98,14.54,28.3,17.12,.69,0,1.39,0,2.06,.23,2.16,.36,4.33,.59,6.5,.94,11.05,1.07,22.01,3.1,33.17,2.93,1.9,.01,3.74,.56,5.63,.6,6.85,.69,13.71,.12,20.56,.31,.82,0,1.65,0,2.47,0,6.85-.17,13.72,.35,20.56-.28,1.87-.23,3.77-.16,5.62-.6,13.26-.03,26.31-2.27,39.41-3.82,4.17-.69,8.25-1.74,12.06-3.64,9.96-4.25,17.4-11.27,22.65-20.68,.35-.54,.66-1.11,1.02-1.65,.24-.41,.6-.58,1.06-.55,1,.56,.89,1.36,.49,2.22,.04,.28-.03,.52-.22,.73-.28,.38-.62,.73-.61,1.25-1.41,4.47-4.37,7.89-7.5,11.21-1.23,1.31-2.82,2.29-3.69,3.94-.1,.19-.2,.38-.29,.58-.27,.34-.57,.65-.9,.93-6.19,5-13.33,7.92-21.02,9.65-.85,.1-1.67,.31-2.49,.54-.84,.22-1.69,.33-2.56,.4-1.11,.05-2.18,.34-3.25,.64-1.16,.28-2.33,.34-3.51,.37-4.42,.03-8.76,.84-13.13,1.42-.97,.26-1.97,.35-2.97,.38-2.47,.1-4.97-.24-7.38,.61-1.52,.33-3.06,.32-4.6,.35-3.12,.11-6.27-.38-9.33,.66-5.46,.53-10.93,.14-16.4,.28-.55,.01-1.09,0-1.64,0-2.73-.04-5.47-.02-8.2,0-4.94-.13-9.88,.25-14.81-.25-2.54-.91-5.19-.66-7.81-.68-2.35-.06-4.72,.12-7.06-.31-2.24-.83-4.59-.55-6.91-.65-7.71-1.32-15.55-1.53-23.28-2.7-3.27-.5-6.62-.72-9.28-3.06Z" style="fill:#fcfdfd;"/><path d="M156.68,124.91c2.01,1.22,2.11,3.06,1.71,5.1-.95,4.85-1.47,9.76-1.77,14.69-2.03,.8-2.72-1.23-4.06-1.9-1.92-1.4-3.87-2.74-6.12-3.58-.95-.39-1.95-.64-2.94-.9-2.77-.59-5.53-.62-8.29,.08-2.78,.62-5.23,2.03-7.7,3.35-1.84,.98-3.06,.84-3.4-1.48-.26-5.13-1.75-10.12-1.78-15.28,2.36-1.91,5.19-2.23,8.05-2.25,6.62-.05,13.24-.15,19.85,.05,1.79,.21,3.5,.81,5.25,1.23,.44,.24,.85,.54,1.21,.89Z" style="fill:#feffff;"/><path d="M164.18,157.8c.86-.72,1.72-1.44,2.58-2.16,2.5,.4,1.81,2.43,1.84,3.91,.16,7.57-1.84,14.8-3.57,22.07-3.18,10.46-7.02,20.55-16.18,27.51-2.2,1.87-4.9,2.54-7.6,3.23-1.17,.05-2.33,.04-3.5,.02-1.64-.15-3.17-.72-4.68-1.34-9.55-4.8-13.48-13.88-17.26-22.97-1.67-4.02-2.71-8.31-3.66-12.58-.02-.94-.19-1.85-.48-2.74-.19-.95-.51-1.87-.47-2.85-.79-3.73-1.3-7.47,.02-11.19,1.27,.85,2.54,1.71,3.81,2.56,2.21,3.54,1.22,7.72,2.32,11.48,.17,.7,.2,1.41,.21,2.12-.02,3.46,1.18,6.67,2.09,9.94,2.65,7.84,5.67,15.45,12.78,20.52,1.42,1.01,2.95,1.72,4.75,1.6,1.5,0,3,0,4.5,0,4.06-.54,7.01-2.81,9.4-5.98,4.64-6.01,7.58-12.76,8.83-20.26,.93-6.08,2.6-12.03,2.88-18.21,.07-1.6,.22-3.33,1.39-4.67Z" style="fill:#fdfdfd;"/><path d="M170.51,122.13c-4.45,1.5-9.06,1.74-13.7,1.77-1.24,.05-2.48,.09-3.72-.03-.61-.13-1.2-.35-1.83-.37-.84-.03-1.68,.05-2.51-.11-.35-.22-.59-.54-.72-.93-.3-1.17,.28-2.65-1.21-3.39-.73-.03-1.42,.16-2.12,.28-.76,.12-1.51,.12-2.26,0-.74-.12-1.44-.37-2.17-.53-.54-.07-1.07-.08-1.61,0-.73,.16-1.43,.39-2.17,.53-.76,.13-1.52,.12-2.27,.01-.72-.11-1.42-.32-2.15-.29-1.49,.75-.88,2.22-1.17,3.38-.13,.41-.37,.72-.73,.95-1.05,.18-2.1,.07-3.15,.11-.89-.04-1.6-.45-2.19-1.08-.31-.65-.09-1.16,.42-1.59,.45-.28,.95-.46,1.39-.67-.04,0,.21-.27,.21-.27,0,0-.11-.34-.14-.33-.4-.2-.83-.26-1.26-.36-.71-.18-1.4-.36-2.11-.5-.62-.09-1.22-.18-1.84-.3-.46-.08-.9-.19-1.33-.34-3.81-.99-3.87-1.07-2.52-3.05,12.34-.36,24.67-.05,37-.16,1.8-.02,3.61,.18,5.39-.26,1.79-.84,3.72-.59,5.6-.64,2.82-.16,5.67,.37,8.46-.39,1.43-.68,2.97-.47,4.47-.52,2.45-.14,4.98,.44,7.33-.75,1-.18,2-.15,3.01-.16,2.52,.08,5.04-.82,7.55,0,.71,.28,1.31,.66,1.44,1.5-4.13,3.59-9.48,4.22-14.38,5.94-.61,.14-1.23,.28-1.84,.45-.57,.17-1.16,.28-1.75,.37-.74,.14-1.48,.31-2.2,.55-.53,.17-1.08,.23-1.63,.26-.89,.04-1.78-.03-2.64,.28-.33,.12-.67,.18-1.02,.2-.66,.06-1.39-.15-1.92,.47Z" style="fill:#f8fafa;"/><path d="M205.19,178.61c8.47,9.27,14.61,20.05,19.93,31.32,4.53,9.6,8.01,19.62,11.09,29.77,.29,.95-.27,1.17-1.04,1.2-6.68-8.27-11.42-17.7-16.04-27.18-1.85-3.8-3.46-7.72-5.5-11.43-.66-1.86-1.43-3.68-2.35-5.43-.18-.33-.33-.67-.47-1.01-.23-.49-.45-.99-.7-1.48-.18-.32-.34-.65-.51-.98-.28-.5-.55-1-.81-1.51-.79-1.61-1.63-3.19-2.37-4.82-.24-.5-.47-1.01-.7-1.51-.17-.31-.31-.63-.45-.95-.23-.46-.44-.94-.65-1.41-.14-.32-.25-.65-.34-.98-.17-.51-.33-1.01-.48-1.52-.04-.18-.07-.36-.11-.54-.02-.38,.04-.74,.17-1.1,.35-.48,.74-.84,1.37-.43Z" style="fill:#fdfdfd;"/><path d="M116.71,115.62c.94,1.95,3.51,.2,4.53,1.98,.19,.36,.14,.69-.14,.99-.18,.08-.36,.15-.53,.23-.51,.05-1.03,.02-1.5,.17-.18,.18-.28,.41-.25,.68,.13,.23,.3,.41,.56,.5,.43,.11,.86,.14,1.3,.19,.5,.05,.98,.15,1.45,.31,.65,.24,1.3,.47,1.93,.74,.3,.18,.56,.42,.78,.69,.75,.03,1.44,.18,1.87,.89-3.64,1.82-7.34,.11-11.01,.17-5.5-.44-10.8-2.01-16.2-2.99-5.26-.83-10.25-2.64-15.31-4.19-1.31-.4-2.62-.87-3.28-2.24,.19-1.23,1.16-1.53,2.15-1.81,2.53-.43,5.03,.38,7.56,.23,1.9,.34,3.78,.8,5.73,.84,.48,0,.96,0,1.44,0,1.68,.05,3.37-.13,5.04,.21,1.78,1.06,3.75,.6,5.65,.7,.74,0,1.49,0,2.23,0,2.02,.53,4.7-1.33,6.02,1.68Z" style="fill:#fafbfb;"/><path d="M48.13,230.51c4.62-14.21,10.7-27.71,19.35-39.97,.86-.22,1.22,.31,1.48,.99,.09,3.66-2.36,6.33-3.75,9.41-1.04,2.31-2.02,4.64-3,6.98-.83,1.64-1.65,3.28-2.23,5.03-.21,.55-.48,1.07-.76,1.59-.61,1.18-1.22,2.36-1.75,3.58-.15,.36-.32,.71-.5,1.05-.26,.54-.54,1.07-.79,1.62-2.41,3.66-3.59,8.12-7.16,11.03-.74-.13-1.23-.44-.89-1.31Z" style="fill:#f9fafa;"/><path d="M214.27,201.44c3.3,5.1,5.19,10.89,7.93,16.27,3.98,7.83,8.56,15.29,13.19,22.74,.55,.49,1.03,1.1,1.87,1.07,1.66,1.8,.04,2.24-1.18,2.84-4.84-5.88-8.46-12.54-12.28-19.07-3.98-6.81-7.34-13.94-10.45-21.18-.46-1.15-1.24-2.42,.92-2.67Z" style="fill:#6b6a6a;"/><path d="M248.83,11.85c.17,.22,.21,.45,.13,.72,.77,1.17-.08,2.65,.74,3.81,3.08,15.86,2.52,31.66-.87,47.4-1.45,.12-1.54-.95-1.72-1.96-.15-1.54,.41-2.99,.56-4.49,.66-2.78,.02-5.64,.47-8.44,1.47-9.27,1-18.53-.16-27.78,0-1.01-.02-2.03-.36-3-.09-1.47-.69-2.88-.5-4.38,.17-.99,.29-2.02,1.71-1.88Z" style="fill:#ebecec;"/><path d="M180.51,195.08c.59-10.05,1.17-20.09,1.05-30.17-.02-1.5-.04-3-.06-4.51,1.61,.84,.68,2.45,1.12,3.67,.93-.77,0-2.06,.78-2.85,.09-.09,.29-.12,.41-.09,.13,.04,.23,.18,.35,.28-.33,8.56-.52,17.12-1.05,25.67-.32,5.21-.28,10.48-1.54,15.61-1.65-2.36,.29-5.22-1.08-7.62Z" style="fill:#8b8b8b;"/><path d="M197.86,113.76c-.38-.29-.77-.57-1.15-.86,.91-2.94,3.87-.88,5.43-2.22,.86-.41,1.79-.34,2.71-.38,1.14,.06,2.24-.12,3.24-.71,5.69-.63,10.61-3.57,15.96-5.24,.74,.13,1.3,.43,1.14,1.33-4.86,3.95-10.57,6.22-16.4,8.24-3.18,1.12-6.43,1.47-9.77,.83-.5-.2-.88-.54-1.15-1Z" style="fill:#f0f2f2;"/><path d="M214.27,201.44c-1.12,.61-.86,1.69-.92,2.67-5.87-11.03-11.43-22.2-16.5-33.62,2.18,1.08,3.54,3.19,5.53,4.5,.17,.92,.38,1.83,1.07,2.53,.56,.57,.19,1.47,.74,2.04-.01,.32-.02,.63-.04,.95v.02c.72,.41,.98,1.02,.87,1.82-.41,.45-.34-.29-.27,.32,.03,.28,.36,.44,.66,.51,.52,.12,.64,.49,.6,.96-.65,.68,.1,.63,.42,.8,.42,.22,.56,.57,.5,1.02-.08,2.7,1.88,4.6,2.7,6.95,.42,.63,.53,1.41,1.03,2,.32,.28,.14,1.13,.96,.86,1.23,1.73,2.15,3.61,2.64,5.68Z" style="fill:#787777;"/><path d="M97.53,113.86l-.99-.08c-1.86-.76-3.9,.12-5.76-.64-2.58-.06-5.16-.13-7.74-.19-6.32,.51-12.33-.68-18.1-3.22-.49-.34-.58-.75-.25-1.25,0-.3,0-.61-.01-.91,10.8,2.57,21.92,2.84,32.83,4.64,.29,.2,.46,.47,.51,.82-.05,.35-.22,.62-.5,.83Z" style="fill:#858080;"/><path d="M97.42,184.13c.71,5.15,1.1,10.31,1.01,15.51-1.33,1.91,.39,4.06-.49,6.01-.17,.16-.34,.31-.52,.47-1.21-3.19-.67-6.56-.96-9.84-.89-3.39,.41-6.93-.74-10.3-.06-1.72-.12-3.45-.18-5.17-.37-5.56-.67-11.11,.16-16.66,.23-.48,.59-.8,1.15-.8-.04,.48-.08,.96-.13,1.44,.98,6.42-.36,12.93,.69,19.35Z" style="fill:#848383;"/><path d="M78.46,177.85c-2.59,6.6-5.64,12.98-9.17,19.12-1.71-.68-1.64-1.87-.92-3.24,.57-1.07,.99-2.17,.49-3.39,.43-1.63,1.37-3.02,2.2-4.45l-.07,.06c.25-.14,.36-.31,.33-.51-.04-.21-.09-.32-.16-.32,2.25-1.43,3.53-3.61,4.72-5.89,.51-.97,1.4-1.51,2.57-1.37Z" style="fill:#a1a4a4;"/><path d="M48.97,231.35c2.22-3.89,4.43-7.78,6.65-11.66,.35-.35,.7-.7,.72-1.24-.05-.22,.02-.41,.2-.56,2.15,.31,1.26,1.59,.88,2.72h0c-.57,.45-.35,1.33-.94,1.77-2.99,5.7-6.01,11.38-9.99,16.48-.65-2.23-.88-4.43,.61-6.46,.89,.12,1.32-.58,1.88-1.05Z" style="fill:#6f6e6e;"/><path d="M164.11,182.32c1.66-7.33,3.46-14.64,3.67-22.2,.04-1.51,.92-3.36-1.02-4.48,.28-.31,.57-.61,.85-.92,.37-.08,.73-.04,1.07,.13l.08,.04c.84,1.76-.24,3.76,.7,5.5,.05,6.37-1.54,12.49-2.83,18.65-.28,1.32-.54,2.64-.81,3.96-.08,.4-.32,.58-.73,.53-.56-.21-.68-.79-.99-1.21Z" style="fill:#8c8b8b;"/><path d="M204.92,115.65c-4.93,1.69-9.88,3.28-15.07,3.93-.66,.25-1.41,.21-2.05,.56-.86,.11-1.72,.21-2.58,.32-.88,.42-1.17-.07-1.3-.83,.34-.68,1.06-.73,1.65-1,.64-.21,1.26-.46,1.91-.63,3.64-1.35,7.23-2.83,11.07-3.59,2.1,.53,4.65-1.25,6.37,1.23Z" style="fill:#e8e9e9;"/><path d="M64.8,109.23c6.08,1.24,12.16,2.48,18.24,3.72-.71,.15-1.47,.19-1.92,.88-1.8,1.64-3.66,.99-5.53,.16-4.33,0-7.89-2.33-11.7-3.89-.2-.82,.01-1.2,.91-.87Z" style="fill:#e5e9e9;"/><path d="M115.68,123.18c3.67-.06,7.34-.11,11.01-.17,1.2-.04,2.4-.08,3.61-.11,6.11-1.74,12.21-1.83,18.31,.03,.91,.12,1.83,.24,2.74,.36,.3,.17,.39,.33,.28,.46-.11,.13-.22,.19-.33,.19-4.09,.09-8.18,.22-12.26,.27-5.58,.06-11.18-.31-16.72,.78-.71-1-1.8-.87-2.83-.94-1.31-.1-2.71,.18-3.81-.86Z" style="fill:#9d7d7d;"/><path d="M185.88,119.33c-.52,.1-1.04,.2-1.56,.3-.51,.5-1.03,.98-1.77,1.11-.39,.13-1.07-.24-1.05,.6-2.96,1.63-6.15,.72-9.25,.79-.29-.22-.36-.41-.23-.57,.12-.14,.23-.21,.35-.21,.29-.03,.58-.09,.85-.2,.8-.68,1.95-.04,2.74-.74l1.8-.3c.57-.3,1.31-.13,1.79-.66,.59-.08,1.18-.15,1.76-.23,.37-.18,.74-.36,1.1-.55,5.14-1.64,10.29-3.28,15.43-4.92,0,0-.06,.38-.06,.38,.33,.14,.44,.29,.34,.44-.1,.15-.21,.23-.32,.23-3.5,1.66-7.22,2.72-10.89,3.93-.38,.14-.73,.33-1.04,.58Z" style="fill:#9e9696;"/><path d="M75.59,113.99c1.84-.05,3.69-.11,5.53-.16,6.12,2.12,12.24,4.24,18.36,6.36-3.56,.36-6.95-.33-10.26-1.59-.93-.89-2.21-1.01-3.33-1.49-2.56-.08-4.74-2.25-7.48-1.37-1.39,.14-2.21-.62-2.82-1.75Z" style="fill:#998e8e;"/><path d="M164.18,157.8c-1.2,7.07-.88,14.35-2.74,21.33-.23,.86-.56,1.69-.85,2.53-.62-.1-1.03-.47-1.29-1.03-.15-.39-.09-.73,.18-1.04,.13-.26,.16-.54,.08-.82,.86-3.65,1.07-7.4,1.82-11.06,1.44-2.93,.37-6.11,.91-9.13l1.89-.78Z" style="fill:#9c9c9c;"/><path d="M247.85,61.77c.11,.78,.2,1.57,.99,2.01-.93,6.1-2.45,12.01-5.32,17.52-.16-.68-.14-1.43-.76-1.94-.18-3.88,2.54-7.11,2.49-10.96,.04-.69,.18-1.36,.47-1.99,.86-1.47-.12-3.79,2.13-4.63Z" style="fill:#e3e4e4;"/><path d="M245.14,7.43c-1.83-6.03-3.65-12.06-6.99-17.48,.28-.3,.62-.45,1.03-.45,.83,.15,1.14,1.03,1.87,1.34,.4,.19,.58,.51,.54,.95-.23,.22-.29,.43-.19,.62,.09,.19,.18,.28,.27,.28l-.05-.06c.48,.55,.33,1.41,.95,1.89l-.04-.06c.48,.55,.33,1.41,.95,1.88l-.04-.06c.64,1.84,1.47,3.6,2.1,5.44,.31,1.5,1.17,2.86,1.07,4.46-.27,.67-.75,1.09-1.46,1.24Z" style="fill:#989999;"/><path d="M124.1,140.26c.71,.75,.9,2.29,2.62,.85,2.26-1.9,4.94-3.21,7.96-3.6,1.12-.31,2.26-.78,3.13,.49-2.8,3.02-7.41,2.66-10.29,5.54-.79,.44-1.58,.88-2.53,.53-.57-1.21-1.44-2.35-.89-3.82Z" style="fill:#9f9999;"/><path d="M111.22,158.7c-.49,3.98,.49,7.87,.76,11.8-.58,.61-.01,1.76-1.02,2.18-1-3.44-1.59-6.93-1.47-10.52,.93-.84,.43-1.97,.62-2.97,.12-.62,.35-1.21,1.11-.5Z" style="fill:#8d8f8f;"/><path d="M245.89,6.47c-.27-1.55-.53-3.11-.8-4.66,.35-.31,.7-.31,1.04,0,1.37,3.22,2.52,6.5,2.71,10.04-.74,.43-.87,1.17-.96,1.93-2.29-.82-1.34-3.07-2.01-4.6-.2-.91-.22-1.81,.02-2.72Z" style="fill:#dcdddd;"/><path d="M116.58,173.38c-1.36-3.93-1.01-8.08-1.55-12.12,1.05,.59,2.12,1.07,3.37,.94,.1,.29,.12,.58,.06,.89-2.27,1.9-1.36,4.25-.93,6.53l-.03-.05c.58,.48,.52,1.1,.41,1.74-.3,.78-.43,1.67-1.32,2.08Z" style="fill:#919797;"/><path d="M95.7,164.13c-.05,5.55-.11,11.1-.16,16.65-1.01-3.92-.4-7.95-.77-11.91-.13-1.42,.47-3.01-.96-4.13,.44-.79,1.18-.66,1.89-.62Z" style="fill:#979898;"/><path d="M197.82,114.81c.02-.22,.01-.45-.02-.67,3.65-.7,7.32-.24,10.98-.21-1.02,1.17-2.28,1.8-3.85,1.72-2.21-1.62-4.75-.44-7.1-.84Z" style="fill:#8a7f7f;"/><path d="M78.41,115.74c.83-1.31,2.02-.92,3.12-.6,1.68,.48,3.33,1.07,4.99,1.61,.27,.24,.36,.48,.28,.73-.09,.24-.18,.37-.27,.37-2.84-.18-5.43-1.36-8.12-2.1Z" style="fill:#ced7d7;"/><path d="M153.14,142.2c1.16,.83,2.32,1.67,3.48,2.5,.23,1.4,.1,2.72-.78,3.9-.59-.35-1.17-.71-1.76-1.06-.31-.25-.43-.57-.38-.97,.05-1.12-.82-1.76-1.36-2.56-.23-.35-.36-.73-.43-1.15,.18-.63,.41-1.18,1.22-.67Z" style="fill:#958e8e;"/><path d="M133.31,143.27c-2.53,1.13-5.06,2.26-7.58,3.4-.08-.25-.06-.49,.05-.73-.72-1.58,.97-1.6,1.53-2.35,1.55-.69,2.91-1.91,4.78-1.71,.64,.26,1.08,.7,1.23,1.4Z" style="fill:#9f9a9a;"/><path d="M64.8,109.23c-.3,.29-.61,.58-.91,.87-1.94-.63-3.77-1.42-5.49-3.21,2.55-.15,4.22,1.51,6.28,1.58,.01,.25,.05,.51,.11,.75Z" style="fill:#afb7b7;"/><path d="M71.07,185.88c-.09,1.74-1.26,3.07-1.75,4.67,.29,.83-.11,1.07-.86,1.01-.33-.34-.65-.68-.98-1.01,.87-1.8,1.77-3.59,3.59-4.66Z" style="fill:#dbe1e1;"/><path d="M246.13,1.81c-.35,0-.69,0-1.04,0-1.02-1.7-1.78-3.48-1.65-5.53,1.62,1.49,2.17,3.5,2.69,5.53Z" style="fill:#c8cdcd;"/><path d="M231.64,100.33c-.83,1.62-2.17,2.69-3.75,3.53-.58-.25-1.11-.54-1.17-1.27,1.37-1.1,2.31-2.9,4.47-2.68,.15,.14,.3,.28,.45,.43Z" style="fill:#bac0c0;"/><path d="M39.28,82.94c.55,.11,.76,.47,.71,1.01-.24,.33-.19,.62,.14,.86l-.02-.1c.41,.58,.58,1.23,.56,1.93-.09,.47-.35,.83-.75,1.09-.62-1.54-3.01-2.84-.64-4.78Z" style="fill:#b3b2b2;"/><path d="M227,102.99c.3,.29,.59,.58,.89,.86-.85,.68-1.6,1.52-2.71,1.83-.31-.29-.62-.58-.93-.87-.03-2.04,1.3-2.03,2.76-1.82Z" style="fill:#d3dbdb;"/><path d="M169.47,160.39c-1.44-1.68-.56-3.66-.7-5.5,.29,.03,.58,.08,.86,.13,.22,1.8,.14,3.59-.16,5.37Z" style="fill:#6f7676;"/><path d="M86.54,117.84c0-.36,0-.73-.01-1.09,.85,.29,1.7,.58,2.55,.87,.68,.23,.5,.59,.15,.98-.95-.07-1.97,.11-2.69-.76Z" style="fill:#b8bebe;"/><path d="M127.65,144.06c-.39,.86-1.67,.83-1.87,1.88-.84-.38-.98-1.05-.78-1.86,.57-.31,1.15-.63,1.72-.94,.52,.1,.83,.4,.93,.92Z" style="fill:#dad9d9;"/><path d="M153.21,123.37c1.26-.23,2.54-.56,3.6,.54-.04,.34-.09,.67-.13,1.01,0,0-.36,.07-.36,.07l-.35-.12c-.63-1.03-2.59,.4-2.76-1.49Z" style="fill:#9d7d7d;"/><path d="M39.92,87.73l.2-1.37c.99-.17,1.47,.56,2.02,1.16,.14,.44,0,.77-.38,1.02-.27,.27-.53,.54-.8,.8-.64-.35-.94-.92-1.04-1.61Z" style="fill:#c2c6c6;"/><path d="M48.97,231.35c-.43,.7-.09,2.78-1.88,1.05,.25-.68,.31-1.47,1.05-1.89,.28,.28,.56,.56,.84,.84Z" style="fill:#bebdbd;"/><path d="M237.26,241.52c-1.74,1.6-1.44-.37-1.87-1.07,.27-.25,.55-.5,.82-.76,.7,.41,.84,1.13,1.05,1.83Z" style="fill:#aeacac;"/><path d="M203.16,177.85c-.62-.85-1.69-1.59-.77-2.86,.49,.33,.95,.68,.94,1.36,.41,.55,.35,1.05-.16,1.5Z" style="fill:#a4a8a8;"/><path d="M203.16,177.85c.05-.5,.11-1,.16-1.49,.79,.61,1.57,1.23,1.87,2.25-.33,.32-.66,.64-.99,.95-.63-.4-.87-1.04-1.04-1.71Z" style="fill:#ced4d4;"/><path d="M182.3,120.41c.67-.26,1.35-.53,2.02-.79,.3,.28,.6,.56,.9,.83-.84,.79-1.87,.81-2.93,.69-.28-.17-.38-.33-.28-.49,.09-.16,.19-.25,.28-.25Z" style="fill:#cccdcd;"/><path d="M249.71,16.38c-1.24-1.08-.77-2.49-.74-3.81,.85,1.15,.85,2.47,.74,3.81Z" style="fill:#dcdddd;"/><path d="M231.49,98.43q1.52,.11,.97,.92c-.17,.13-.34,.25-.5,.38-.19-.08-.38-.17-.57-.25-.2-.4-.16-.77,.17-1.1l-.06,.05Z" style="fill:#aaaeae;"/><path d="M187.8,120.14c.55-.68,1.26-.74,2.05-.56-.58,.56-1.26,.75-2.05,.56Z" style="fill:#cccdcd;"/><path d="M182.3,120.41c.02,.25,.02,.49,0,.74-.25,.12-.52,.18-.8,.18-.15-.23-.31-.46-.46-.7,.42-.07,.84-.15,1.26-.22Z" style="fill:#d1e0e0;"/><path d="M172.37,121.35c-.08,.25-.12,.51-.12,.78-.58,0-1.16,0-1.74,0,.39-.8,1.08-.9,1.86-.79Z" style="fill:#d1e0e0;"/><path d="M171.39,154.91c-.59,.05-1.19,.1-1.78,.14,.49-1.31,1.12-.99,1.78-.14Z" style="fill:#6f7676;"/><path d="M242.68,83.28c-.07-.55,.15-.96,.61-1.25,.07,.55-.13,.97-.61,1.25Z" style="fill:#e3e4e4;"/><path d="M231.87,99.36c.2,.03,.4,.02,.59-.01-.02,.55-.32,.85-.83,.98,0,0-.05-.04-.05-.04-.3-.43-.23-.75,.28-.93Z" style="fill:#bac0c0;"/><path d="M71.17,185.11c.34,.16,.42,.39,.21,.63-.09,.1-.25,.14-.37,.2-.09-.31-.03-.59,.17-.84Z" style="fill:#c5c8c8;"/><path d="M168.69,154.84c-.36-.04-.72-.08-1.07-.13,.41-.41,.78-.45,1.07,.13Z" style="fill:#6f7676;"/><path d="M154.05,299.01c-.32-.33-.63-.65-.95-.98-.18-.22-.27-.46-.27-.72,0-.26,.03-.4,.07-.4,.52-1.08,1.42-1.89,2.01-2.92,.4-.68,.79-1.37,1.36-1.92,.17-.1,.35-.19,.52-.29,3.14-3.39,4.6-7.71,6.42-11.81,2.64-5.95,4.45-12.2,6.48-18.37,.41-.63,.35-1.4,.66-2.06-.08-.24-.03-.45,.14-.63,1.81,0,1.25,1.11,.98,2.09-2.72,12.07-7.48,23.32-13.98,33.82-.94,1.52-2.29,2.8-3.45,4.19Z" style="fill:#7a7979;"/><path d="M176.71,230.16c-.24-1.11-.11-2.18,.3-3.23,.61-1.27,.04-2.72,.63-3.99,.05-.48,.1-.95,.15-1.43,.21-.09,.42-.19,.63-.28,.44,.23,.67,.6,.67,1.1-.03,1.37,.19,2.76-.31,4.09-.06,.5-.13,1-.19,1.49-.82,1.2-.03,2.69-.73,3.91-.24,3.93-.87,7.79-1.95,11.57-.78,.91-.27,2.13-.76,3.11-.09,.48-.18,.95-.27,1.43-.41,.25-.77,.21-1.09-.16-.09-.42-.12-.85-.12-1.29-.03-.87,.01-1.73,.31-2.55,.14-3.93,1.44-7.66,2.03-11.51,.48-.68,.51-1.5,.7-2.27Z" style="fill:#848484;"/><path d="M180.51,195.08c1.91,2.32,.35,5.13,1.08,7.62,.07,5.52-.63,10.95-1.84,16.33-1.31-.65-.33-2.06-.97-2.94-.12-7.06,1.4-13.99,1.73-21.01Z" style="fill:#828282;"/><path d="M174.11,247.01l.03,.95c.59,.7,.33,1.45,.15,2.21-.39,3.75-1.46,7.31-2.8,10.82-.12-.79-.17-1.62-.98-2.09,.2-2.86,1.3-5.51,1.98-8.26,.33-.67,.35-1.43,.57-2.13,.09-.49,.17-.98,.26-1.47,.25-.42,.51-.43,.79-.04Z" style="fill:#807e7e;"/><path d="M178.78,216.09c.97,.77,.63,1.96,.97,2.93-.09,.82-.19,1.63-.28,2.45-.26,.44-.52,.44-.78,0h.01c-.78-1.53-.62-3.09-.11-4.65-.04-.27,.03-.52,.19-.74Z" style="fill:#6b6b6b;"/><path d="M178.69,221.49c.26,0,.52-.01,.78,0,.11,1.69,.18,3.38-.68,4.94-.03-1.64-.07-3.29-.1-4.93Z" style="fill:#898989;"/><path d="M177.87,231.83c0-1.35-.53-2.8,.73-3.91,.14,1.38,.09,2.72-.73,3.91Z" style="fill:#898989;"/><path d="M175.16,246.51c-.08-1.12-.38-2.29,.76-3.11,0,1.1-.11,2.17-.76,3.11Z" style="fill:#8a8b8b;"/><path d="M174.28,250.17c-.05-.74-.1-1.47-.15-2.21,.25-.01,.5-.02,.75-.03,.13,.83-.03,1.59-.6,2.23Z" style="fill:#8a8b8b;"/><path d="M98.6,202.98c1.36,5.72,1.44,11.61,2.33,17.41,1.35,8.78,2.64,17.56,4.65,26.22,.17,.72,.12,1.5,.16,2.25-.71,.56-.15,1.78-1.13,2.2-2.68-9.29-4.05-18.83-5.38-28.37-.77-5.5-1.75-11-1.82-16.58,0,0,.28-.33,.28-.33,.65-.82-.22-2.13,.9-2.8Z" style="fill:#7d7d7d;"/><path d="M104.62,251.06c.18-.83,.26-1.72,1.13-2.2,.18,.15,.21,.32,.09,.52,.49,.98,.01,2.2,.75,3.12,2.9,9.26,4.94,18.79,9,27.68,1.38,3.03,2.63,6.13,4.57,8.87,.71,.4,.65,.94,.28,1.53-.33,.37-.66,.75-.99,1.12-7.53-12.6-11.69-26.43-14.82-40.64Z" style="fill:#797979;"/><path d="M68.46,191.56c.29-.34,.57-.67,.86-1.01,1.3,.94,.37,1.9-.1,2.69-.78,1.31-.74,2.5,.07,3.72-2.72,6.24-5.65,12.38-9.09,18.27-.33-.27-.54-.61-.64-1.02-.01-2.24,1.62-4.09,1.54-6.36,1.92-5.68,5.31-10.69,7.36-16.3Z" style="fill:#999;"/><path d="M60.06,214.23c.04,.34,.09,.67,.13,1.01-.61,1.95-1.38,3.83-2.79,5.37-.11-.96,.19-2.06-.88-2.72,.59-1.23,1.17-2.45,1.76-3.68,.27-.22,.58-.36,.93-.43,.37-.02,.65,.12,.84,.44Z" style="fill:#7f8080;"/><path d="M95.72,185.96c1.75,3.33,.64,6.86,.74,10.3-1.07-3.37-.64-6.86-.74-10.3Z" style="fill:#979898;"/><path d="M56.47,222.37c-.01-.76,.2-1.4,.94-1.77,.04,.77-.33,1.33-.94,1.77Z" style="fill:#7f8080;"/><path d="M219.61,37.33c.05,12.49,.09,24.97,.15,37.46,.01,2.34-.62,4.45-2.04,6.31-.39,.29-.73,.23-1.04-.12-.71-1.45,.74-2.51,.87-3.76-.54,1.59-1.19,1.95-2.28,.37-.21-.47-.34-.94-.41-1.44-.44-23.44-.18-46.87-.13-70.3,.01-5.09-.92-9.27-5.71-11.81-.52-.65-.58-1.33-.1-2.02,4.33-2.27,5.42,2.25,7.6,3.51-1.68-2.52-4.52-4.17-7.67-5.39-.25-.38-.31-.8-.19-1.24,.42-.21,.83-.22,1.24,0,6.27,1.38,9.77,5.12,9.82,11.19,.1,12.12-.05,24.25-.09,36.37-.55,.22-.99,.08-1.31-.42-1.05-9.48-.02-18.99-.44-26.56,.02,7.44-.03,16.81,.02,26.19,.02,.77,.27,1.52,.24,2.3-.61,10.61-.06,21.22-.27,30.64,.42-9.43-.67-20.08,.52-30.69,.21-.6,.62-.79,1.22-.59Z" style="fill:#969696;"/><path d="M60.88,80.58c-2.04-2.07-1.79-4.72-1.79-7.28-.02-20.04-.01-40.07,0-60.11,0-4.25,.03-8.5,0-12.75-.02-2.5,.46-4.82,2.11-6.79,.83-.12,1.1,.39,1.21,1.08-.1,.61-.4,1.12-.77,1.6,2.02-2.43,3.51-5.69,7.62-4.79,.28,.34,.43,.73,.45,1.17-1.94,2.74-5.32,4.27-6.42,7.7-.51,.78-1.21,1.43-1.61,2.29-.62,10.45-.17,20.9-.22,31.35,.78,1.94,.68,3.89,0,5.83-.2,10.62,.14,21.24-.16,31.85-.09,.65-.31,1.24-.76,1.7,.4,0,.77,.07,1.14,.18,.8,.54,.82,1.28,.57,2.1-.71,1.26-.23,2.69-.57,4.01-.16,.38-.42,.68-.78,.87Z" style="fill:#919191;"/><path d="M211.61,85.75c-1.28,1.14-2.86,.85-4.35,.85-22.62-.02-45.23-.06-67.85-.1,0-1.1,.8-1.47,1.65-1.79,9.24-.69,18.5-.23,27.75-.29,11.99-.08,23.98-.04,35.96-.02,1.12-.03,2.27,.08,3.31-.53,.36-.17,.75-.27,1.15-.32,.39,.06,.72,.23,1.02,.48,.53,.51,1.09,1,1.36,1.72Z" style="fill:#a8bdbd;"/><path d="M138.65,86.44c-10.18,.05-20.35,.12-30.53,.15-11.7,.03-23.39,.06-35.09,.02-1.92,0-3.98,.53-5.72-.83,.3-.43,.7-.73,1.19-.91,.75-.27,1.52-.34,2.31-.38,.82-.05,1.64-.06,2.46-.07,19.44-.03,38.88-.02,58.31,0,2.11,0,4.26-.28,6.3,.59,.58,.31,.84,.79,.77,1.44Z" style="fill:#aac1c1;"/><path d="M207.24,105.93c-4.8,1.45-9.81,1.66-14.74,2.19-8.56,.91-17.09,2.31-25.75,2.05-.55-.55-1.58-.07-1.99-.92,.94-.62,2.01-.59,3.07-.61,12.09-.26,24.03-1.94,35.98-3.6,.74-.1,1.51-.03,2.26-.04,.43,.26,1.03,.31,1.17,.93Z" style="fill:#a29a9a;"/><path d="M246.21,9.09c1.52,1.22,.29,3.42,1.66,4.69,.11,1.49,.22,2.97,.33,4.45,.25,.62,.19,1.34,.6,1.92,.89,8.27,1.14,16.57,.9,24.88-.04,1.49,.28,3.05-.68,4.4-1.13-.56-.94-1.75-1.27-2.69-.16-.4-.14-.79,.08-1.17,.86-11.01-.04-21.93-1.92-32.78-.25-.63-.15-1.37-.63-1.93,.01-.6,.02-1.2,.03-1.8,.3-.41,.6-.41,.88,.02Z" style="fill:#a6a6a6;"/><path d="M246.06,68.35c-.6,3.82-2.06,7.38-3.3,11.01-.15,.27-.23,.55-.26,.85-.31,.23-.51,.54-.59,.92-5.05,9.03-12.06,16.01-21.39,20.58-.53,.26-1.13,.38-1.69,.56-.24-.25-.33-.49-.26-.75,.07-.26,.15-.39,.22-.39,6.79-3.55,12.85-7.99,17.52-14.19,3.99-5.29,6.8-11.09,8.07-17.6,.27-.43,.41-.94,.8-1.3,.36-.11,.65-.02,.87,.29Z" style="fill:#989595;"/><path d="M112.16,110.21c-8.76,.32-17.39-1.22-26.05-2.14-2.62-.28-5.48,.3-7.92-1.29,.1-.58,.66-.63,1.03-.9,5.83,.56,11.69,.88,17.48,1.74,4.8,.71,9.61,.66,14.42,.98,1.34,.09,2.73-.12,3.97,.62-.7,1.13-2.12,.16-2.93,.99Z" style="fill:#a6a2a2;"/><path d="M41.76,88.53c.04-.31,.07-.62,.11-.93-.26-.23-.34-.45-.25-.67,.09-.22,.18-.33,.27-.33,5.84,6.97,12.63,12.66,21.35,15.71,.99,.35,2.04,.52,3.06,.78,.87,.65,2.12,.03,2.93,.87,.31,.26,.61,.53,.92,.79,.3,.2,.4,.4,.31,.61-.09,.21-.19,.32-.29,.32-9.71-1.63-17.81-6.31-24.77-13.11-1.29-1.26-2.43-2.68-3.64-4.03Z" style="fill:#9b9494;"/><path d="M138.61,111.14c-7.1-.07-14.23,.53-21.3-.71,4.86-1.37,9.86-.03,14.75-.77,2.15-.33,4.3-.3,6.45,.04,.54,.45,.55,.93,.09,1.44Z" style="fill:#98acac;"/><path d="M161.58,110.43c-2.31,1.12-4.78,.54-7.17,.6-4.7,.12-9.4,.06-14.1,.07-.46-.49-.42-.94,.09-1.36,1.85-.39,3.7-.39,5.55-.08,3.93,.43,7.87,.07,11.81,.19,1.28,.18,2.68-.46,3.82,.58Z" style="fill:#98acac;"/><path d="M218.8,101.15c.01,.38,.02,.76,.03,1.13-3.57,2.16-7.45,3.32-11.59,3.64-.39-.31-.78-.62-1.17-.93,4.34-.96,8.59-2.23,12.73-3.85Z" style="fill:#a29898;"/><path d="M132.07,109.66c-2.58,1.26-5.32,.39-7.99,.58-2.25,.16-4.51,.13-6.77,.19-1.72-.07-3.43-.15-5.15-.22,.73-1.05,1.94-.71,2.93-.99,5.66,.15,11.32,.29,16.98,.44Z" style="fill:#a29393;"/><path d="M247.85,61.77c-1.36,1.32-.06,3.54-1.62,4.79-.18,.28-.43,.4-.76,.35-.11-.11-.22-.21-.34-.32,.08-.57,.16-1.14,.24-1.71,.34-.63,.29-1.37,.61-2,.39-2.12,.79-4.23,1.18-6.35,.79-.14,1.31-.02,.85,.96-.05,1.43-.11,2.86-.16,4.29Z" style="fill:#989898;"/><path d="M248.01,57.48c-.28-.32-.57-.64-.85-.96-.02-.89-.03-1.79-.05-2.68,1.24-2.32-.48-5.06,1.03-7.34,.95,.78,.65,1.94,.89,2.93-.43,2.67,.42,5.5-1.02,8.05Z" style="fill:#9a9a9a;"/><path d="M68.23,85.61c-.31,.06-.61,.11-.92,.17-2.89-.81-5.26-2.26-6.43-5.2,.05-.42,.1-.84,.15-1.25,.32-.25,.66-.29,1.02-.09,.89,.7,1.47,1.69,2.32,2.42,.68,.64,1.44,1.18,2.27,1.62,.69,.37,1.39,.73,1.9,1.35,.18,.41,.07,.74-.3,.98Z" style="fill:#969595;"/><path d="M157.72,110.17c-3.92-.14-7.89,.79-11.77-.51,3.91-.31,7.83-.37,11.75-.19,.29,.15,.39,.3,.3,.46-.09,.16-.19,.24-.28,.24Z" style="fill:#a29393;"/><path d="M132.99,100.29c-2.2-3.58-1.96-4.46,1.96-7.22,.28,.32,.43,.69,.45,1.11-.67,1.9-1.21,3.85-1.93,5.74-.16,.13-.33,.25-.49,.37Z" style="fill:#cdcccc;"/><path d="M143.95,101.95c-.27,.12-.55,.21-.84,.28-2.73,.44-5.47,.51-8.2-.04-.3-.34-.6-.68-.89-1.02,.19-.18,.37-.36,.56-.54,3.03-1,6.05-1.02,9.07,.03,.51,.33,.61,.77,.31,1.29Z" style="fill:#caa;"/><path d="M79.22,105.88c-.34,.3-.68,.6-1.03,.9-2.18-.03-4.4,.25-6.42-.92,.12-.57,.65-.61,1.06-.8,2.13,.27,4.25,.55,6.38,.82Z" style="fill:#979292;"/><path d="M157.72,110.17c-.01-.23-.02-.46-.02-.69,2.35-.07,4.71-.15,7.06-.22,.73,.16,1.51,.21,1.99,.92-1.73,.09-3.45,.17-5.18,.26-1.28-.09-2.57-.17-3.86-.26Z" style="fill:#9c9090;"/><path d="M134.9,93.88c0-.27,.02-.54,.05-.81,3.02,.25,6.18-1.05,9.06,.82-.2,.18-.39,.37-.59,.56-2.91,.86-5.79,1.36-8.52-.56Z" style="fill:#aea9a9;"/><path d="M248.14,46.5c-.61,2.41,.51,5.06-1.03,7.34,.15-2.76-.71-5.62,.73-8.26,.1,.31,.2,.62,.3,.92Z" style="fill:#ebecec;"/><path d="M134.91,102.2c2.73,.01,5.47,.02,8.2,.04-2.74,1.19-5.47,1.24-8.2-.04Z" style="fill:#d6ffff;"/><path d="M216.8,81.08c.31,0,.61,0,.92,.01-.7,1.4-1.65,2.55-3.19,3.07-.43-.2-.61-.54-.58-1.01,.49-1.33,1.22-2.33,2.86-2.07Z" style="fill:#9b9f9f;"/><path d="M211.61,85.75c-.72-.11-1.46-.2-1.93-.88,.44-.65,1.09-1,1.81-1.26,.35-.15,.71-.25,1.08-.33,.58-.07,1.13-.02,1.58,.41,.11,.17,.24,.32,.38,.47-.78,.88-1.75,1.41-2.92,1.58Z" style="fill:#999;"/><path d="M138.65,86.44c-.05-.26-.11-.52-.19-.77-.27-.31-.4-.68-.43-1.09,.07-.41,.27-.75,.57-1.03,.59-.28,1.17-.27,1.75,.02,.29,.3,.47,.65,.53,1.06-.03,.42-.22,.76-.53,1.04-.32,.28-.63,.55-.95,.83,0,0-.39,.03-.39,.03l-.38-.09Z" style="fill:#898e8e;"/><path d="M41.89,86.6c0,.33-.01,.66-.02,1-.58-.41-1.16-.83-1.74-1.24,0-.55,0-1.1-.01-1.65,1.08,.17,1.38,1.08,1.78,1.9Z" style="fill:#928b8b;"/><path d="M145.93,95.63c1.27,1.27,1.27,2.54,.03,3.83-.17-.13-.33-.26-.5-.39-.56-1.01-.56-2.02-.02-3.03,.16-.13,.33-.27,.49-.4Z" style="fill:#c0c1c1;"/><path d="M143.95,101.95c.02-.26,.04-.52,.06-.79-.28-1.47,.39-2.02,1.79-1.85,0,0,.16,.14,.16,.14-.09,1.3-.75,2.14-2.01,2.5Z" style="fill:#c0c1c1;"/><path d="M140.4,109.74c-.03,.45-.06,.91-.09,1.36-.57,.01-1.14,.03-1.71,.04-.03-.48-.06-.96-.09-1.44,.63,.01,1.26,.03,1.88,.04Z" style="fill:#a29393;"/><path d="M144.01,93.89c1.24-.07,1.8,.6,1.92,1.75,0,0-.13,.11-.13,.11-1.41,.14-2.13-.36-1.78-1.88v.03Z" style="fill:#c0bebe;"/><path d="M69.23,103.96c-1.05-.06-2.12,0-2.93-.87,1.08-.05,2.22-.32,2.93,.87Z" style="fill:#fcfdfd;"/><path d="M72.84,105.06c-.35,.27-.71,.53-1.06,.8-.54-.06-1.07-.12-1.61-.19,0-.31-.01-.62-.02-.93,.93-.14,1.82-.04,2.69,.32Z" style="fill:#988c8c;"/><path d="M219.61,37.33c-.32,.05-.63,.1-.95,.14-.27,.34-.51,.32-.72-.06-.32-.35-.64-.71-.96-1.06,.54-.45,1.09-.48,1.66-.07,.33,.06,.66,.12,.99,.17,.13,.29,.13,.58-.02,.86Z" style="fill:#7e7777;"/><path d="M245.25,68.36c-.28,.33-.57,.67-.85,1.01-.11-1.02-.24-2.05,.73-2.78,0,0,.4-.09,.4-.09,.15,.66,.29,1.32-.28,1.87Z" style="fill:#e3e4e4;"/><path d="M246.21,9.09c-.29,0-.59,0-.88-.02-.06-.55-.12-1.1-.19-1.65,.25-.32,.5-.64,.74-.96,.11,.87,.22,1.75,.33,2.62Z" style="fill:#8e8d8d;"/><path d="M245.3,10.87c.61,.51,.76,1.17,.63,1.93-.58-.52-.74-1.18-.63-1.93Z" style="fill:#dcdddd;"/><path d="M245.98,62.87c.13,.77-.03,1.45-.61,2-.17-.78-.04-1.47,.61-2Z" style="fill:#e3e4e4;"/><path d="M40.13,84.81c-.14-.19-.3-.38-.4-.59-.02-.04,.17-.18,.26-.28,.12,.28,.17,.56,.14,.86Z" style="fill:#555;"/><path d="M134.01,101.17c-.55-.05-.86-.37-1.02-.88,0,0,.1-.1,.1-.1,.79-.1,1.18,.15,.88,1.01l.04-.03Z" style="fill:#b3a8a8;"/><path d="M135.75,266.33c-6.19-1.7-10.55-5.3-11.75-11.86-1.23-6.75,2.44-13.18,9.01-16.22,5.91-2.74,13.63-1.19,17.9,3.71,1.47,1.69,3,3.44,3.2,5.87,.44,1.37,.92,2.75-.4,3.94-1.72-.28-1.76-1.87-2.3-3.04-3.45-7.46-8.46-9.89-16.48-7.93-1.66,.42-3.08,1.26-4.24,2.53-5.45,6.5-4.89,13.18,1.54,18.06,4.06,2.44,8.62,2.28,13.09,2.61,2.84,.21,5.7-.48,8.53,.19,1.17,1.82,.17,2.28-1.48,2.44-2.21,.21-4.42,.02-6.63,0-3.35,.29-6.68,.12-10-.3Z" style="fill:#716e6e;"/><path d="M110.96,172.69c.22-.78,.25-1.65,1.02-2.18,.09,.75,.18,1.51,.27,2.26,.18,.75,.25,1.53,.63,2.22,1.72,7.36,3.9,14.55,7.45,21.28,3.1,5.86,7.11,10.83,12.88,14.23-.08,.58-.59,.64-1,.82-4.56-2.07-7.81-5.64-10.5-9.67-5.85-8.79-9.24-18.54-10.75-28.96Z" style="fill:#888787;"/><path d="M164.11,182.32c.35,.41,.7,.82,1.05,1.23,.32,.5,.29,.99-.05,1.47-2.24,5.47-4.19,11.07-7.59,15.98-2.26,3.26-4.69,6.34-8.07,8.54-.43-.13-.73-.41-.92-.82,7.48-6.36,11.74-14.7,14.62-23.87,.27-.86,.64-1.68,.96-2.52Z" style="fill:#8b8b8b;"/><path d="M153.22,251.59c1.25-1.03,.65-2.5,.89-3.77,.93,1.15,.89,2.55,.89,3.89,0,5.12-.08,10.25-.13,15.37l.1-.05c-1.52,.03-3.03,.06-4.55,.09-.61,.52-1.24,.56-1.88,.05-.86-.07-1.71-.13-2.57-.2l-.42-.17,.06-.45c2.32-.07,4.65-.06,6.97-.23,1.13-.08,1.49-.76,.66-1.74-2.33-4.26-2.07-8.52,0-12.78Z" style="fill:#777;"/><path d="M145.6,266.33c.16,.18,.28,.39,.36,.62-1.4,.17-1.17,1.23-1.44,2.22-.42,1.55-2.41,1.89-2.57,.74-.48-3.58-3-2.68-5.13-2.79-.36,.29-.7,.26-1.04-.04,0-.25-.01-.51-.04-.76,3.29,0,6.57,0,9.86,0Z" style="fill:#c9c9c9;"/><path d="M152.15,285.24c.83-.81,1.75-1.49,2.4-2.52,.66-1.05,1.75-1.11,2.6-.06,.79,.98,.79,2.18-.47,2.53-2.09,.58-1.57,2.7-2.64,3.82-.15,.11-.31,.22-.46,.34-.6,.12-1.1-.03-1.49-.5-.14-.34-.19-.69-.14-1.05,.13-.67,.25-1.35,.2-2.04,0-.17,0-.34,0-.51Z" style="fill:#c3bfbf;"/><path d="M126.77,288.13c-1,1.52-1.86,.13-2.77-.13-.17-.98,.12-2.14-1.28-2.57-1.47-.45-1.98-1.51-.96-2.72,1.31-1.55,2.27-.57,3.15,.69,.49,.7,1.23,1.23,1.86,1.84-.02,.16-.03,.32-.05,.48-.06,.64-.06,1.28,0,1.93,.02,.16,.03,.32,.05,.48Z" style="fill:#c4bfbf;"/><path d="M97.42,184.13c-.59-.56-.78-1.27-.78-2.06,.03-5.76,.05-11.53,.08-17.3,1.34,6.41,.71,12.89,.69,19.35Z" style="fill:#979898;"/><path d="M148.53,208.71c.31,.27,.62,.55,.92,.82-1.75,1.55-3.72,2.69-6.07,3.03-.91,.16-2.04,.79-2.05-.97,2.56-.55,4.9-1.67,7.2-2.88Z" style="fill:#8f8686;"/><path d="M141.22,281.65c1.02,.05,2.15-.2,2.76,.99h0c.63,.6,1.26,1.21,1.89,1.82,.18,.35,.17,.68-.07,.99-.29,.22-.61,.37-.97,.43-.35,.01-.7-.03-1.04-.11-.65-.17-1.31-.22-1.98-.05-.34,.1-.68,.15-1.03,.18-.57-.02-1.06-.21-1.43-.65-.16-.33-.21-.69-.15-1.05,.15-.49,.4-.93,.75-1.31,.23-.19,.46-.39,.67-.61-.01,0,.26-.36,.26-.36,0,0,.35-.27,.35-.27Z" style="fill:#e0e1e1;"/><path d="M133.05,284.47c.63-.61,1.27-1.22,1.9-1.83h0c-.02-.33-.04-.67-.05-1l-.04,.04c.95,0,1.9-.01,2.85-.02,0,0,.24,.35,.24,.35,.06,.36-.09,.55-.45,.55,.36,.34,.72-.4,1.09,0,.54,.51,.66,1.12,.44,1.82-.05,.37-.18,.69-.43,.96-.32,.2-.66,.3-1.03,.31-.91-.04-1.82,0-2.72,.2-.58,.08-1.14,0-1.64-.33-.2-.2-.29-.43-.27-.66,.02-.25,.06-.37,.11-.37Z" style="fill:#e0dede;"/><path d="M124.8,280.78c-1.43-1.92,.19-2.59,1.45-2.59,1.25,0,2.88,.67,1.43,2.59-.96,.61-1.92,.61-2.88,0Z" style="fill:#d6d5d5;"/><path d="M163.86,270.57c-1.01-.26-1.64-.91-1.42-1.94,.16-.73,.76-1.37,1.65-1.24,1.03,.15,1.63,.88,1.41,1.9-.16,.73-.75,1.3-1.64,1.28Z" style="fill:#cbc9c9;"/><path d="M141.33,211.59c.47,.78,1.31,.77,2.05,.97-2.6,1.2-5.2,1.21-7.8,.03,.36-.95,1.43-.43,1.99-.95,1.25-.02,2.51-.03,3.76-.05Z" style="fill:#9fa0a0;"/><path d="M121.14,280.13c-.09,1.23-.83,1.62-1.86,1.56-1.05-.05-1.73-.6-1.59-1.72,.13-1,.78-1.7,1.82-1.61,1,.08,1.57,.8,1.63,1.77Z" style="fill:#c3bfbf;"/><path d="M134.89,281.63c-.74,.02-1.49,.12-2.22,.04-.81-.1-1.32-.62-1.33-1.5,0-.84,.49-1.39,1.19-1.72,.82-.4,1.44,.07,1.93,.65,.63,.75,.41,1.69,.39,2.57,0,0,.04-.04,.04-.04Z" style="fill:#c3bfbf;"/><path d="M137.7,281.65c0-.6-.1-1.23,.04-1.8,.23-.96,.9-1.63,1.94-1.5,.78,.1,1.36,.69,1.5,1.5,.1,.58,.03,1.2,.04,1.8,0,0,.05-.02,.05-.02-1.2,.98-2.41,.97-3.61,0l.05,.02Z" style="fill:#c3bfbf;"/><path d="M161.29,279.85c-.11,1.5-.85,1.89-1.88,1.84-1.05-.05-1.73-.6-1.59-1.72,.13-1,.77-1.69,1.82-1.62,1.05,.07,1.43,.92,1.65,1.5Z" style="fill:#c3bfbf;"/><path d="M130.31,285.42c-.91-.03-1.82-.05-2.73-.08,0-.44-.03-.88,.02-1.31,.12-1.11,.63-2.04,1.84-2.03,1.21,0,1.71,.93,1.82,2.05,.04,.43,0,.87-.01,1.31-.15,.11-.3,.23-.45,.34-.16-.09-.32-.19-.49-.28Z" style="fill:#c3bfbf;"/><path d="M147.68,285.36c0-.44-.05-.88-.02-1.31,.1-1.12,.61-2.04,1.82-2.05,1.21-.01,1.72,.91,1.84,2.03,.04,.43,0,.87,0,1.31-.13,.14-.27,.28-.4,.42-.94,.48-1.88,.47-2.82,.02-.14-.14-.27-.28-.41-.42Z" style="fill:#c3bfbf;"/><path d="M113.35,269.03c.02-.89,.55-1.49,1.31-1.62,1.03-.17,1.73,.44,1.84,1.49,.09,.88-.54,1.49-1.27,1.63-1.04,.19-1.66-.48-1.87-1.49Z" style="fill:#cbcaca;"/><path d="M124.52,269.01c-.19,1.01-.81,1.66-1.85,1.49-.74-.12-1.37-.72-1.29-1.6,.1-1.05,.79-1.67,1.82-1.51,.76,.12,1.29,.72,1.32,1.62Z" style="fill:#cbc9c9;"/><path d="M129.48,270.56c-.98-.16-1.62-.77-1.49-1.82,.09-.77,.66-1.41,1.53-1.36,1.05,.06,1.67,.75,1.55,1.78-.09,.78-.66,1.31-1.59,1.39Z" style="fill:#cbcaca;"/><path d="M135.78,267.09c.35,.01,.69,.03,1.04,.04,.06,.14,.09,.29,.17,.42,.67,1,.84,1.97-.28,2.74-.72,.5-1.46,.33-1.98-.36-1.07-1.44-.03-2.16,1.04-2.84Z" style="fill:#cbc9c9;"/><path d="M154.87,267.07c.43,.08,.92,.05,1.27,.25,.97,.54,1.66,1.28,.9,2.47-.33,.52-.89,.9-1.48,.72-1.13-.34-1.71-1.11-1.22-2.34,.16-.4,.41-.77,.62-1.16,0,0-.1,.05-.1,.05Z" style="fill:#cbc9c9;"/><path d="M126.38,263.48c.71,0,1.4,.31,1.52,1.18,.12,.87-.45,1.39-1.28,1.48-.81,.09-1.52-.2-1.62-1.13-.1-.88,.4-1.38,1.38-1.53Z" style="fill:#c5bebe;"/><path d="M134.56,276.56c.25-.8,.77-1.28,1.64-1.21,.87,.07,1.39,.59,1.32,1.46-.07,.9-.72,1.26-1.58,1.19-.86-.07-1.31-.58-1.38-1.44Z" style="fill:#c5bebe;"/><path d="M119.2,266.13c-.84,0-1.45-.38-1.48-1.24-.03-.83,.49-1.34,1.36-1.37,.88-.04,1.46,.47,1.5,1.25,.04,.79-.49,1.34-1.39,1.36Z" style="fill:#bcb0b0;"/><path d="M160.22,266.12c-1.26,.04-1.86-.45-1.89-1.24-.03-.78,.51-1.34,1.39-1.36,.86-.02,1.44,.43,1.48,1.26,.03,.83-.46,1.35-.98,1.34Z" style="fill:#bcb0b0;"/><path d="M125.91,274.35c-.87-.16-1.41-.64-1.29-1.49,.12-.84,.78-1.22,1.61-1.13,.83,.1,1.33,.62,1.23,1.49-.11,.91-.8,1.11-1.54,1.13Z" style="fill:#bcb0b0;"/><path d="M118.51,271.72c1.59,.03,2.11,.6,2.08,1.38-.03,.79-.63,1.28-1.51,1.24-.88-.03-1.41-.52-1.36-1.36,.04-.83,.63-1.26,.79-1.26Z" style="fill:#bcb0b0;"/><path d="M132.68,274.35c-.9-.15-1.39-.62-1.27-1.49,.13-.88,.79-1.21,1.6-1.11,.83,.09,1.35,.64,1.23,1.48-.12,.85-.79,1.16-1.56,1.13Z" style="fill:#bcb0b0;"/><path d="M140.65,273.22c-.23,.83-.82,1.2-1.64,1.11-.83-.09-1.34-.59-1.21-1.47,.13-.89,.79-1.2,1.6-1.11,.82,.09,1.27,.62,1.25,1.48Z" style="fill:#bcb0b0;"/><path d="M145.97,271.72c.75,0,1.41,.26,1.54,1.14,.12,.87-.38,1.38-1.21,1.47-.82,.09-1.49-.26-1.61-1.11-.12-.84,.4-1.33,1.29-1.5Z" style="fill:#bcb0b0;"/><path d="M153.9,273.33c-.18,.79-.81,1.08-1.61,1-.83-.09-1.35-.63-1.22-1.47,.13-.84,.79-1.22,1.61-1.11,.83,.11,1.28,.62,1.22,1.59Z" style="fill:#bcb0b0;"/><path d="M142.9,277.98c-.84,0-1.45-.38-1.48-1.24-.03-.83,.49-1.34,1.36-1.37,.88-.04,1.46,.47,1.5,1.25,.04,.79-.49,1.34-1.39,1.36Z" style="fill:#bcb0b0;"/><path d="M156,277.99c-.87-.16-1.41-.64-1.29-1.49,.12-.84,.78-1.22,1.61-1.13,.83,.1,1.33,.62,1.23,1.49-.11,.91-.8,1.12-1.54,1.13Z" style="fill:#bcb0b0;"/><path d="M129.39,275.36c1.24,.06,1.75,.56,1.72,1.39-.03,.86-.64,1.26-1.48,1.24-.88-.02-1.42-.57-1.38-1.36,.04-.79,.63-1.28,1.14-1.27Z" style="fill:#bcb0b0;"/><path d="M124.29,276.69c-.21,.77-.62,1.31-1.51,1.3-.87,0-1.44-.47-1.43-1.3,.01-.81,.56-1.31,1.44-1.31,.89,0,1.28,.55,1.5,1.31Z" style="fill:#bcb0b0;"/><path d="M161.22,273.22c-.17,.81-.73,1.18-1.57,1.12-.86-.06-1.39-.61-1.3-1.42,.09-.8,.7-1.26,1.56-1.18,.85,.08,1.29,.58,1.3,1.48Z" style="fill:#bcb0b0;"/><path d="M165.33,250.48c-.18,.65-.58,1.07-1.28,1.03-.68-.04-1.21-.46-1.19-1.11,.03-.86,.62-1.4,1.5-1.24,.61,.11,.99,.63,.97,1.32Z" style="fill:#c3bbbb;"/><path d="M150.34,277.99c-.88,0-1.76-.01-2.64-.02l.04,.04c.27-2.93,.51-3.08,2.81-1.82,.3,.64,.46,1.27-.22,1.8Z" style="fill:#bcb0b0;"/><path d="M137.56,211.64c-.48,.71-1.29,.71-1.99,.95-1.27-.04-2.34-.59-3.36-1.28,.33-.27,.66-.55,1-.82,1.45,.38,2.9,.77,4.35,1.15Z" style="fill:#888282;"/><path d="M116.08,251.26c-.27,.78-.8,1.2-1.63,.96-.6-.18-.95-.7-.83-1.31,.17-.83,.78-1.18,1.6-.96,.63,.17,.85,.69,.85,1.31Z" style="fill:#bbb;"/><path d="M118.12,255.74c.17-.64,.57-1.09,1.24-1.12,.69-.04,1.23,.39,1.26,1.04,.05,.86-.47,1.43-1.4,1.32-.66-.08-1-.59-1.1-1.24Z" style="fill:#c3bbbb;"/><path d="M160.76,255.61c.02,.67-.28,1.21-.92,1.35-.89,.18-1.52-.33-1.57-1.17-.04-.62,.5-1.1,1.16-1.17,.7-.07,1.1,.37,1.33,.99Z" style="fill:#c3bbbb;"/><path d="M116.08,260.51c-.18,.65-.58,1.07-1.28,1.03-.68-.04-1.21-.46-1.19-1.11,.02-.86,.62-1.4,1.5-1.24,.61,.11,.99,.63,.98,1.32Z" style="fill:#c3bbbb;"/><path d="M124.2,260.79c-.32,.59-.85,.94-1.48,.72-.81-.28-1.2-.92-.71-1.76,.34-.59,.94-.78,1.55-.44,.54,.3,.96,.76,.64,1.47Z" style="fill:#c3bbbb;"/><path d="M111.84,256.42c-.39,.56-.92,.78-1.55,.53-.63-.25-.98-.76-.58-1.41,.3-.49,.73-1.04,1.45-.6,.54,.33,.93,.77,.67,1.48Z" style="fill:#bfbaba;"/><path d="M98.6,202.98c-.33,.92,.1,2.1-.9,2.8,.07-2.07-.89-4.26,.73-6.14,.3,1.1,.38,2.21,.17,3.34Z" style="fill:#727272;"/><path d="M169.39,255.98c-.08,.72-.56,1.06-1.21,1.06-.65,0-1.2-.37-1.16-1.08,.04-.66,.58-1.17,1.18-1.16,.6,0,1.05,.52,1.19,1.18Z" style="fill:#bfbaba;"/><path d="M164.83,260.53c-.08,.72-.56,1.06-1.21,1.06-.65,0-1.2-.37-1.16-1.08,.04-.66,.58-1.17,1.18-1.16,.6,0,1.05,.52,1.19,1.18Z" style="fill:#bfbaba;"/><path d="M148.53,267.16c.63-.02,1.26-.03,1.88-.05,.13,.69,.5,1.44,.35,2.06-.3,1.2-.94,2.15-2.19,.68,0-.16,.01-.31,.02-.47,0-.31,0-.62,0-.93,0-.16,0-.31-.01-.47-.05-.28-.07-.55-.04-.83Z" style="fill:#c0c1c1;"/><path d="M160.8,245.69c-.01,.51-.31,1.01-.94,1.09-.66,.09-1.11-.34-1.07-.99,.04-.61,.52-1.02,1.14-1.04,.47-.01,.75,.35,.86,.93Z" style="fill:#c8c8c8;"/><path d="M168.15,244.77c.64,.02,1.12,.33,1.21,.96,.09,.65-.31,1.14-.97,1.1-.61-.04-1.01-.54-1.03-1.16-.01-.47,.33-.76,.79-.89Z" style="fill:#c8c8c8;"/><path d="M116.12,239.18c0,.64-.29,1.14-.93,1.23-.66,.1-1.13-.32-1.09-.97,.04-.61,.51-1.03,1.14-1.06,.48-.03,.74,.37,.88,.81Z" style="fill:#c8c8c8;"/><path d="M123.78,239.61c-.03,.42-.32,.73-.78,.78-.66,.08-1.13-.32-1.21-.92-.09-.63,.35-1.15,.97-1.1,.57,.04,.98,.52,1.02,1.25Z" style="fill:#c8c8c8;"/><path d="M157.15,239.47c-.06,.42-.41,.91-1.02,.95-.66,.04-1.05-.44-.96-1.09,.09-.63,.57-1,1.21-.93,.44,.05,.77,.37,.78,1.07Z" style="fill:#c8c8c8;"/><path d="M164.81,239.61c-.03,.42-.32,.73-.78,.78-.66,.08-1.13-.32-1.21-.92-.09-.63,.35-1.15,.97-1.1,.57,.04,.98,.52,1.02,1.25Z" style="fill:#c8c8c8;"/><path d="M111.56,245.85c-.07,.43-.41,.92-1.02,.95-.66,.04-1.04-.45-.95-1.09,.09-.62,.57-.99,1.2-.92,.44,.05,.77,.37,.77,1.06Z" style="fill:#c8c8c8;"/><path d="M120.14,245.71c0,.67-.32,1.15-.98,1.09-.34-.03-.77-.42-.94-.75-.32-.64,.05-1.15,.69-1.26,.63-.11,1.05,.3,1.23,.92Z" style="fill:#c8c8c8;"/><path d="M154.22,280.8c-1.02,1.3-2.05,1.3-3.07,0-.32-.65-.34-1.28,.16-1.86h0c.84-.56,1.34,.44,2.06,.42,.36,.04,.66,.2,.91,.45,.15,.34,.12,.66-.06,.98Z" style="fill:#bfb8b8;"/><path d="M147.83,280.81c-1.02,1.31-2.05,1.29-3.07,0-.18-.33-.2-.66-.04-1,.27-.25,.58-.41,.94-.49,.68-.1,1.23-.88,2.02-.38h0c.49,.59,.47,1.22,.15,1.87Z" style="fill:#bfb9b9;"/><path d="M178.59,216.83c.04,1.56,.07,3.11,.11,4.67-.3,0-.6,.01-.9,.02,.09-1.59-.34-3.27,.8-4.68Z" style="fill:#898989;"/><path d="M153.35,279.83c-1.45,1.46-1.08-1.21-2.03-.89,0-.3,0-.61,.01-.91l-.02,.02c1.04-.04,2.1-.17,2.83,.83,0,0-.11,.43-.11,.43-.3,.08-.52,.26-.68,.53Z" style="fill:#e4e6e6;"/><path d="M147.68,278.93c-.95-.32-.59,2.34-2.03,.89-.16-.27-.39-.44-.69-.52,0,0-.11-.43-.11-.43,.75-1.02,1.85-.85,2.89-.87,0,0-.04-.04-.04-.04,0,.32-.02,.65-.02,.97Z" style="fill:#e4e6e6;"/><path d="M177.65,222.95c0,1.36,.55,2.81-.63,3.99-.04-1.37-.04-2.73,.63-3.99Z" style="fill:#898989;"/><path d="M174.11,247.01c-.26,.02-.53,.03-.79,.04-.07-1.1,0-2.17,.67-3.11,.04,1.02,.08,2.05,.13,3.07Z" style="fill:#8a8b8b;"/><path d="M106.59,252.5c-1.12-.83-.81-2-.75-3.12,.69,.93,.75,2.02,.75,3.12Z" style="fill:#7d7d7d;"/><path d="M124.8,280.78c.96,0,1.92,0,2.88,0-.96,1.26-1.92,1.25-2.88,0Z" style="fill:#b8a9a9;"/><path d="M150.34,277.99c.07-.6,.14-1.2,.22-1.8,.67,.45,.73,1.14,.75,1.86,0,0,.02-.02,.02-.02-.33-.01-.66-.03-.99-.04Z" style="fill:#e4e6e6;"/><path d="M170.36,259.53c.1,.79,.08,1.54-.66,2.06-.09-.79,.14-1.47,.66-2.06Z" style="fill:#807e7e;"/><path d="M145.05,279.83c-.1,.33-.19,.65-.29,.98-.84-.68-.67-1.32,.09-1.93,0,0,.18,.18,.18,.18,.17,.17,.24,.34,.19,.51-.05,.18-.1,.26-.16,.26Z" style="fill:#e4e6e6;"/><path d="M165.11,185.02c.02-.49,.03-.98,.05-1.47,.19-.22,.41-.41,.66-.55,.08,.78,0,1.51-.71,2.02Z" style="fill:#fdfdfd;"/><path d="M147.83,280.81c-.05-.62-.1-1.24-.15-1.86,.89,.55,.97,1.17,.15,1.86Z" style="fill:#e4e6e6;"/><path d="M148.57,269.85c-1.09-.62-1.04-1.25,0-1.86,0,0-.02,0-.02,0,.55,.62,.55,1.24,0,1.86h.02Z" style="fill:#b5aeae;"/><path d="M151.31,278.94c-.05,.62-.1,1.24-.16,1.86-.81-.69-.74-1.31,.16-1.86Z" style="fill:#e4e6e6;"/><path d="M154.22,280.8c-.1-.32-.2-.65-.29-.97-.16-.18-.21-.35-.14-.52,.06-.17,.12-.25,.18-.25,0,0,.18-.18,.18-.18,.76,.61,.92,1.25,.08,1.93Z" style="fill:#e4e6e6;"/><path d="M176.71,230.16c.09,.86,.13,1.7-.7,2.27-.11-.86,.17-1.61,.7-2.27Z" style="fill:#898989;"/><path d="M173.06,248.52c.14,.8,.16,1.56-.57,2.13-.08-.78,.16-1.48,.57-2.13Z" style="fill:#8a8b8b;"/><path d="M132.24,205.85c-4.85-2.95-7.75-7.48-10.07-12.46-1.21-2.58-2.53-5.14-2.92-8.02-.34-.87-.05-1.27,.89-1.19,1.26,3.41,2.57,6.79,4.19,10.06,2.13,4.28,5.08,7.87,8.84,10.8-.19,.41-.49,.68-.92,.81Z" style="fill:#9a9999;"/><path d="M154.1,146.36c0,.39-.01,.79-.02,1.18-5.81-4.04-12.28-5.19-19.2-4.47-.64-.39-1.31-.76-.93-1.71,5.93-2.69,11.47-1.27,16.88,1.57,1.14,1.09,3,1.5,3.27,3.43Z" style="fill:#a6a0a0;"/><path d="M159.68,180.5c.3,.39,.61,.78,.92,1.16-1.6,7.3-4.18,14.14-9.27,19.81-.4-.18-.67-.48-.81-.9,3.84-5.53,7.03-11.35,8.16-18.1,.52-.57,.14-1.59,1-1.98Z" style="fill:#999797;"/><path d="M120.13,184.19c-.3,.39-.59,.79-.89,1.19-1.59-3.27-2.2-6.78-2.48-10.37,.23-.29,.53-.45,.91-.48,.37,.08,.62,.3,.75,.66-.22,3.15,1.36,5.96,1.7,9Z" style="fill:#9e9d9d;"/><path d="M150.52,200.57c.27,.3,.54,.6,.81,.9-2.34,3.13-5.2,5.5-9.17,6.25-.27-.23-.43-.52-.47-.87,.07-.35,.26-.62,.56-.8,3.58-.58,5.91-3.04,8.27-5.47Z" style="fill:#939191;"/><path d="M161.38,167.71c.06,3.8-.4,7.51-1.82,11.06-.18-3.82,.36-7.51,1.82-11.06Z" style="fill:#fdfdfd;"/><path d="M117.53,169.61c-1.17-1.69-.61-3.61-.64-5.43-.01-.91,.87-.97,1.57-1.1-1.2,2.05-.8,4.33-.93,6.53Z" style="fill:#fdfdfd;"/><path d="M132.24,205.85c.31-.27,.62-.54,.93-.81,1.12,.38,2.13,1.14,3.4,1.04,.35,.13,.57,.37,.66,.73-.02,.37-.18,.66-.46,.89-1.76,0-3.14-.92-4.52-1.86Z" style="fill:#8d8585;"/><path d="M118.43,175.19c-.24-.09-.49-.15-.74-.2-.98-1.11-.51-2.34-.32-3.55,.05-.62,.09-1.25,.14-1.87,1.79,1.63,.7,3.73,.93,5.62Z" style="fill:#fdfdfd;"/><path d="M136.76,206.81c-.02-.26-.09-.5-.2-.73,1.9-.01,3.8-.03,5.69-.04-.08,.22-.11,.45-.1,.69-1.78,1.06-3.58,.92-5.4,.08Z" style="fill:#fdfdfd;"/><path d="M133.86,142.11c.34,.32,.69,.65,1.03,.97-.53,.07-1.05,.13-1.58,.2-.37-.27-.74-.54-1.12-.82,.43-.73,1-.74,1.67-.35Z" style="fill:#968d8d;"/><path d="M159.68,180.5c-.33,.66-.67,1.32-1,1.98-.04-1.05-.26-2.15,.81-2.89,.06,.3,.13,.6,.19,.9Z" style="fill:#fdfdfd;"/><path d="M97.53,113.86c0-.28,0-.55-.01-.83,2.23-.75,4.48-.56,6.73-.12,2.33,.07,4.65,.15,6.98,.22,2.47,.95,5.12-.17,7.6,.69,5.06-.15,10.12-.26,15.17,.19,2.74,.67,5.47,.62,8.21,.02,.32,0,.63,.02,.95,.03,4.36,.8,8.77,.11,13.15,.38,1.46,.09,3.04-.54,4.37,.58-1.72,.82-3.58,.54-5.37,.55-12.87,.06-25.73,.05-38.6,.06-2.04-1.1-4.32-.37-6.44-.85-.82-.62-1.79-.31-2.69-.39-1.64-.09-3.31,.25-4.92-.32-1.72,.16-3.44,.15-5.14-.21Z" style="fill:#837979;"/><path d="M231.87,99.36c-.09,.31-.19,.62-.28,.93-2.04,.02-3.15,1.65-4.59,2.7-.97,.54-2.05,.9-2.76,1.82-5.24,2.35-10.37,5.03-16.24,5.57-.86,.61-2.01,.06-2.86,.69-.82,.09-1.64,.19-2.46,.28-1.66-.04-3.66,1.55-4.82-.98,1.08-.35,2.18-.43,3.3-.23,.95-.48,2.12,0,3.03-.69,.84-.07,1.68-.13,2.51-.2,.65-.3,1.4-.25,2.03-.6,8.1-1.66,15.23-5.47,22.02-10.02,.31,.1,.49,.31,.54,.63,.2,.02,.39,.05,.58,.1Z" style="fill:#837d7d;"/><path d="M197.86,110.37c1.37,1.46,3.24,.52,4.81,.98-1.77,1.38-4.22,.1-5.97,1.55-2.66,.05-5.32,.1-7.97,.15-1.37-1.35-3.51,.59-4.8-1.12,4.59-.99,9.22-1.63,13.93-1.56Z" style="fill:#918c8c;"/><path d="M160.67,115.01c-4.39-.06-8.79-.09-13.18-.21-1.47-.04-3.06,.49-4.34-.75,5.69-.09,11.38-.17,17.07-.26,1.91,.11,4.12-1.59,5.6,.97-1.72,.08-3.43,.16-5.15,.24Z" style="fill:#796262;"/><path d="M165.82,114.76c-1.66-1.51-3.8-.3-5.6-.97,3.07-1.08,6.23-.91,9.39-.67,1.42,1.02,3.36-.4,4.7,.99-2.77,1.02-5.63,.85-8.49,.65Z" style="fill:#8a8282;"/><path d="M186.17,113.17c-2.47,.81-5.01,.91-7.57,.67-1.41-1-3.32,.38-4.66-.97,2.44-.94,4.99-.74,7.52-.66,1.44,.98,3.35-.37,4.72,.96Z" style="fill:#828282;"/><path d="M173.93,112.88c1.5,.59,3.32-.38,4.66,.97-1.43,.09-2.86,.18-4.29,.27-1.5-.63-3.36,.41-4.7-.99,1.44-.08,2.88-.16,4.32-.24Z" style="fill:#6a6060;"/><path d="M142.2,114.03c-2.74,1.32-5.48,1.34-8.21-.02,2.74,0,5.48,.02,8.21,.02Z" style="fill:#9f7979;"/><path d="M118.82,113.82c-2.54-.1-5.19,.91-7.6-.69,2.57-.17,5.13-.25,7.6,.69Z" style="fill:#8a8383;"/><path d="M186.17,113.17c-1.52-.59-3.36,.44-4.72-.96,.82-.1,1.65-.19,2.47-.29,1.54,.63,3.48-.47,4.8,1.12-.85,.04-1.7,.08-2.56,.13Z" style="fill:#6c6666;"/><path d="M104.24,112.9c-2.24,.04-4.48,.08-6.73,.12,0-.27,0-.55,0-.82,2.28-.09,4.57-.36,6.73,.69Z" style="fill:#8a8383;"/><path d="M204.19,109.46c-.82,1.07-1.93,.84-3.03,.69,.91-.65,1.93-.83,3.03-.69Z" style="fill:#918c8c;"/><path d="M208.73,108.65c-.54,.67-1.25,.74-2.03,.6,.58-.52,1.24-.77,2.03-.6Z" style="fill:#918c8c;"/><path d="M241.92,81.14c.2-.31,.39-.62,.59-.92-.2,.31-.39,.62-.59,.92Z" style="fill:#e3e4e4;"/><path d="M231.29,99.26c-.22-.17-.4-.38-.54-.63,.21-.26,.48-.35,.8-.25-.09,.29-.17,.59-.26,.88Z" style="fill:#555;"/><path d="M137.66,138.2c-.89-.67-1.98-.49-2.98-.69,3.19-1.11,6.38-1.26,9.57-.02-.74,1.21-2,1.51-3.23,1.87-1.29,.11-2.62,.34-3.36-1.16Z" style="fill:#c3a2a2;"/><path d="M153.14,142.2c-.29,.26-.58,.51-.87,.77-2.92,.06-4.75-1.85-6.65-3.66,.12-.76,.36-1.34,1.3-.84,2.48,.56,4.49,1.91,6.22,3.72Z" style="fill:#9f9898;"/><path d="M146.92,138.47c-.36,.27-.72,.55-1.08,.82-1.81,.86-3.36,.65-4.58-1.05,.87-.75,1.99-.52,2.99-.75,.99,.06,1.94,.23,2.67,.98Z" style="fill:#a49898;"/><path d="M153.21,123.37c.76,.8,2.18,.36,2.76,1.49-1.63,.08-3.28,.25-4.67-.92,0-.22,.01-.44,.05-.66,.62,.03,1.24,.06,1.86,.09Z" style="fill:#8aa3a3;"/><path d="M136.76,206.81c1.8-.03,3.6-.05,5.4-.08,0,.33,0,.66,0,.99-1.8,.33-3.6,.39-5.4-.01,0-.3,0-.6,0-.9Z" style="fill:#877878;"/><path d="M117.36,171.43c.11,1.18,.21,2.37,.32,3.55-.31,0-.61,.01-.92,.02-.06-.54-.12-1.08-.18-1.62,.08-.72,.14-1.45,.78-1.95Z" style="fill:#949393;"/><path d="M112.88,174.99c-.78-.58-.73-1.39-.62-2.22,.47,.67,.7,1.4,.62,2.22Z" style="fill:#8d8f8f;"/><path d="M148.61,122.92c-6.1,.26-12.21,.29-18.31-.03,0-.23,0-.45,.01-.68,1.31-1.24,.82-3.19,1.79-4.57,.67,.31,1.35,.63,2.02,.94,.8,1.24,1.61,1.28,2.44,.03,.69-.33,1.37-.66,2.06-.99,.22,.22,.39,.47,.5,.75,.07,.26,.11,.54,.15,.79,0-.03,.2,.22,.2,.22,0,0,.21-.23,.2-.25,.02-.27,.07-.52,.13-.77,.08-.28,.23-.5,.43-.69,.69,.3,1.39,.6,2.08,.89,.77,1.46,1.59,.76,2.41,.06,.69-.34,1.38-.67,2.07-1.01,.99,1.32,.54,3.2,1.74,4.44,.03,.29,.06,.57,.08,.86Z" style="fill:#e2e6e6;"/><path d="M164.56,117.18c.16,.41,.42,.82,.47,1.25,.15,1.18,.39,2.42-.79,3.28-.45,.33-.88,.04-1.19-.28-1.19-1.21-.79-2.44-.02-3.68,.25-.41,.54-.7,1.53-.56Z" style="fill:#bab9b9;"/><path d="M132.1,117.64q1.03,3.6-1.79,4.57c-1.13-2.91-.89-3.53,1.79-4.57Z" style="fill:#ada9a9;"/><path d="M148.54,122.06c-2.82-.68-2.84-.75-1.74-4.44,2.54,1.14,2.8,1.79,1.74,4.44Z" style="fill:#a5a2a2;"/><path d="M155.85,117.67c1.99,2.75,1.97,2.86-.81,4.43-.55-.84-1.56-1.49-1.06-2.73l.04-.03c.29-.3,.55-.63,.78-.98,.34-.25,.69-.48,1.05-.69Z" style="fill:#9a9999;"/><path d="M136.56,118.61c0,.6,.06,1.22-.03,1.81-.12,.83-.61,1.37-1.52,1.28-.77-.07-.91-.7-.95-1.31-.04-.6,.04-1.21,.06-1.81,.81,0,1.63,.02,2.44,.03Z" style="fill:#988989;"/><path d="M144.72,118.63c-.07,.42-.21,.85-.18,1.27,.07,.94,0,1.83-1.17,1.84-1.3,.02-1.07-1.06-1.1-1.88-.01-.43,.03-.86,.04-1.29,.8,.02,1.61,.04,2.41,.06Z" style="fill:#958989;"/><path d="M160.9,119.83c.04,.85-.22,1.42-1.21,1.36-.98-.06-1.09-.72-1.13-1.51-.06-1.12,.5-1.71,1.54-1.55,.89,.14,.99,.92,.8,1.7Z" style="fill:#848787;"/><path d="M153.03,121.15c-.95,.22-2.06,.83-2.54-.57-.21-.6-.32-1.55,.48-1.91,.86-.4,1.69-.2,2.19,.74,.07,.59,.36,1.2-.13,1.74Z" style="fill:#968b8b;"/><path d="M124.83,122.12c-.34-.03-.69-.06-1.03-.09-.73-1.06-.52-2.24-.46-3.41,.11-.38,.3-.72,.57-1.01,.67,.33,1.34,.65,2.01,.97,.22,.24,.38,.52,.49,.83,.05,.32,.05,.65-.01,.97-.13,.3-.31,.57-.54,.8-.34,.31-.68,.62-1.03,.92Z" style="fill:#dfe2e2;"/><path d="M122,121.28c-.61-.05-1.23-.09-1.84-.14-.22-.26-.37-.56-.48-.88-.05-.34-.03-.68,.05-1.01,.12-.33,.33-.58,.63-.77,.29-.29,.59-.58,.88-.87,.32,0,.64,0,.95,0,.27,.28,.44,.61,.49,.99-.13,.91,.02,1.9-.67,2.67Z" style="fill:#e1e2e2;"/><path d="M167.87,120.27c-.97-.23-.94-.82-.91-1.43,.04-.76,.56-1.19,1.15-.94,.57,.23,.59,1,.46,1.6-.09,.43-.3,.86-.71,.77Z" style="fill:#a69d9d;"/><path d="M153.03,121.15c.07-.58-1.03-1.25,.13-1.74,.27-.03,.54-.04,.81-.04,.35,.91,.71,1.82,1.06,2.73-.67-.32-1.34-.63-2.01-.95Z" style="fill:#d8dcdc;"/><path d="M125.96,119.31c-.07-.24-.09-.48-.04-.72,.92,.01,2.04-.63,2.53,.79-.85,.74-1.68,.8-2.49-.07Z" style="fill:#9b7e7e;"/><path d="M172.84,119.05c-.41,.14-.77,.34-1.13,.35-.18,0-.57-.4-.53-.49,.16-.41,.55-.6,.98-.46,.23,.08,.39,.34,.68,.6Z" style="fill:#918989;"/><path d="M125.96,119.31c.83,.02,1.66,.05,2.49,.07-.01,.33-.02,.67-.03,1-.81,.53-1.63,.49-2.46,.06,0-.38,0-.75,0-1.13Z" style="fill:#a3b4b4;"/><path d="M125.96,120.44c.82-.02,1.64-.04,2.46-.06-.43,1.6-1.56,1.03-2.57,.82,0-.26,.03-.51,.1-.76Z" style="fill:#8a7b7b;"/><path d="M175.97,120.41c-.74,.91-1.74,.82-2.74,.74,.72-.98,1.73-.85,2.74-.74Z" style="fill:#d1e0e0;"/><path d="M122.44,118.48c-.08-.29-.17-.58-.25-.87,.58,0,1.15,0,1.73,0-.09,.29-.17,.58-.26,.87-.4,.28-.81,.27-1.21,0Z" style="fill:#948888;"/><path d="M138.62,118.43c-.08-.27-.08-.54,0-.81,.54,.02,1.08,.04,1.61,.05,.06,.23,.07,.47,.01,.71-.52,.65-1.06,.64-1.63,.05Z" style="fill:#9f8181;"/><path d="M155.14,118.39c-.21,.52-.59,.83-1.13,.95,.06-.73,.21-1.41,.98-1.73,.19,.14,.27,.31,.25,.49-.02,.19-.05,.29-.1,.29Z" style="fill:#d8dcdc;"/><path d="M179.56,119.45c-.45,.62-1.05,.85-1.79,.66,.47-.57,1.09-.73,1.79-.66Z" style="fill:#d1e0e0;"/><path d="M155.14,118.39c-.11-.25-.16-.51-.15-.78,.29-.12,.58-.1,.85,.06-.23,.24-.47,.48-.7,.72Z" style="fill:#867676;"/><path d="M182.43,118.68c-.26,.4-.61,.61-1.1,.55,.37-.18,.73-.37,1.1-.55Z" style="fill:#cccdcd;"/><path d="M209.68,193.25c-1.67-1.6-2.26-3.83-3.3-5.79-.31-.58,0-1.14,.56-1.51,1.19,1.91,2.34,3.85,2.86,6.08,.07,.32,.16,.63,.28,.94-.13,.09-.27,.18-.41,.28Z" style="fill:#747171;"/><path d="M211.63,195.76c-.22,.17-.43,.34-.65,.51-.13-.4-.26-.8-.39-1.2,.13-.12,.27-.24,.4-.36,.13,.12,.27,.24,.4,.36,.2,.18,.28,.41,.24,.68Z" style="fill:#747171;"/><path d="M210.59,195.08c-.74-.39-.9-1.07-.91-1.82,.28-.29,.55-.28,.82,0,.2,.17,.27,.38,.21,.63,.23,.42,.18,.82-.12,1.19Z" style="fill:#747171;"/><path d="M210.59,195.08c.04-.4,.08-.79,.12-1.19,.44,.28,.71,.65,.68,1.19-.27,0-.54,0-.8,0Z" style="fill:#787777;"/><path d="M210.5,193.26c-.27,0-.55,0-.82,0,.04-.4,.08-.81,.13-1.21,.44,.29,.71,.67,.7,1.22Z" style="fill:#787777;"/><path d="M205.43,183.17c-.21-.16-.43-.3-.62-.48-.01-.01,.15-.22,.23-.34,.13,.27,.26,.55,.39,.82Z" style="fill:#555;"/><path d="M206.44,184.94c-.52-.07-1.19-.06-.42-.8,.14,.27,.28,.53,.42,.8Z" style="fill:#747171;"/><path d="M116.61,119.31c-.46,1.17-.47,2.59-1.84,2.41-1.16-.15-1.53-1.45-1.4-2.45,.12-.91,.26-2.36,1.66-2.2,1.24,.15,1,1.63,1.58,2.24Z" style="fill:#b6b6b6;"/><path d="M122.44,118.48c.4,0,.81,0,1.21,0,1.59,1.12,.29,2.36,.15,3.55-.74,.08-1.39-.04-1.8-.75-.41-1.02-.4-1.97,.44-2.8Z" style="fill:#968e8e;"/><path d="M102.66,114.06c1.93-.04,3.86-.08,5.79-.12,.3,.18,.4,.35,.3,.53-.1,.18-.2,.27-.3,.27-1.97,.13-3.95,.29-5.79-.68Z" style="fill:#8a8383;"/><path d="M120.21,120.41c.02,.24,0,.48-.05,.72-.53,0-1.07,.01-1.6,.02-.64-.45-.46-1.26-.81-1.84-.05-.22-.05-.43,.02-.64,.78-.95,1.61-.78,2.46-.1,0,0,.12-.09,.12-.09-.02,.3-.05,.59-.09,.88-.21,.22-.29,.45-.23,.69,.05,.24,.11,.36,.18,.36Z" style="fill:#777373;"/><path d="M110.25,119.37c-.21-.53-.54-1.14,.01-1.56,.26-.2,.98-.19,1.18,.02,.83,.86,.93,1.77-.23,2.5-.28-.37-.63-.65-.96-.96Z" style="fill:#b2abab;"/><path d="M90.78,113.14c1.93,.09,3.97-.77,5.76,.64-1.94,0-3.9,.11-5.76-.64Z" style="fill:#8a8383;"/><path d="M120.24,118.57c-.82,.03-1.64,.07-2.46,.1,.76-1.54,1.59-1.23,2.46-.1Z" style="fill:#b6b6b6;"/><path d="M108.46,114.74c0-.27,0-.53,0-.8,.73,0,1.4,.14,1.81,.83-.6,0-1.21-.02-1.81-.03Z" style="fill:#858080;"/><path d="M107.35,118.81c-.14,.18-.27,.51-.42,.52-.24,0-.49-.19-.74-.3,.15-.18,.26-.41,.45-.52,.31-.18,.57-.04,.71,.3Z" style="fill:#877f7f;"/><path d="M117.75,119.32c.73,.41,.69,1.16,.81,1.84-1.2-.2-1-1.02-.81-1.84Z" style="fill:#b6b6b6;"/><path d="M110.25,119.37c.32,.32,.64,.64,.96,.96-.67,.03-.99-.29-.96-.96Z" style="fill:#877575;"/><path d="M60.06,214.23l-.97-.11c-.18-.36-.2-.72-.06-1.1,.11-1.95,1.18-3.52,2.06-5.16,.71,.5,.7,1.1,.42,1.87-.54,1.48-.97,3-1.45,4.5Z" style="fill:#878282;"/><path d="M56.33,218.44c.02,.56-.24,.97-.72,1.24,0-.55,.23-.97,.72-1.24Z" style="fill:#7f8080;"/><path d="M59.04,213.02c.02,.37,.04,.73,.06,1.1-.27,.04-.54,.07-.81,.09,.25-.4,.5-.79,.75-1.19Z" style="fill:#999;"/><path d="M248.81,20.15c-.56-.52-.76-1.17-.6-1.92,.6,.52,.69,1.19,.6,1.92Z" style="fill:#dcdddd;"/><path d="M205.14,111.07c.78-.95,1.83-.79,2.86-.69-.84,.7-1.8,.93-2.86,.69Z" style="fill:#918c8c;"/><path d="M204.18,180.53c-.07,.1-.15,.21-.22,.31l.21-.33v.02Z" style="fill:#555;"/><path d="M185.88,119.33c.25-.37,.56-.64,1.04-.58-.35,.19-.7,.39-1.04,.58Z" style="fill:#cccdcd;"/><path d="M245.25,68.36c.09-.62,.18-1.25,.28-1.87,.23,.04,.47,.07,.71,.07-.05,.6-.11,1.2-.17,1.79-.27,0-.55,0-.82,0Z" style="fill:#908f8f;"/><path d="M141.27,138.24c1.53,.35,3.05,.7,4.58,1.05,2.42,.73,4.32,2.38,6.43,3.67,0,0-.08,.2-.08,.2,.22,.82,.04,1.24-.91,.91-4.59-2.06-9.32-3.37-14.43-2.78-1.04,.12-2.12,.09-3,.8-.56,.12-1.11,.23-1.67,.35-1.51,.53-3.03,1.07-4.54,1.6-.31-.31-.62-.61-.93-.92,3-3.09,6.92-4.14,10.95-4.94,1.2,.01,2.4,.03,3.6,.04Z" style="fill:#f5f8f8;"/><path d="M151.28,144.08c.3-.3,.6-.61,.91-.91,1.26,.51,2.27,1.46,2.89,2.54,.77,1.33-.43,.73-.97,.66-.94-.76-1.88-1.52-2.82-2.28Z" style="fill:#d8dddd;"/><path d="M62.76-.04c.71-3.71,3.34-5.67,6.54-7.09,2.67-1.13,5.46-1.48,8.34-1.48,41.53,.01,83.06,0,124.59,.04,2.2,0,4.61-.58,6.43,1.38,1.81,1.04,3.99,1.37,5.44,3.12,1.67,2.02,1.91,4.33,1.91,6.82-.03,24.85-.02,49.7-.02,74.55-.56,1.09-.17,2.46-1,3.48-.12,.18-.25,.36-.37,.54-.16,.16-.32,.31-.47,.47-.37,.29-.76,.54-1.16,.78-1.69,1.4-3.93,.64-5.75,1.51-16.52,.35-33.03,.14-49.54,.14-26.29,0-52.58,.05-78.86,.02-2.58,0-5.15,.03-7.72-.03-1.54-.08-3.06-.32-4.44-1.06-.44-.17-.87-.38-1.28-.62-.73-.58-1.39-1.25-2-1.97-.27-.4-.48-.84-.64-1.3-1.24-1.66-.27-3.48-.43-5.23-.83-1.87-.72-3.85-.72-5.82-.01-20.55,.05-41.09,0-61.64,0-2.28-.05-4.55,1.18-6.61Z" style="fill:#fff;"/><path d="M217.94,37.42c.24-.01,.49,0,.72,.06,.25,11.95,.12,23.9,.08,36.05-1.98-.5-1.75-1.53-1.75-2.34-.03-9.97-.01-19.93-.03-29.9,0-1.39,.1-2.71,.98-3.86Z" style="fill:#c9c9c9;"/><path d="M218.64,36.29c-.55,.02-1.1,.05-1.66,.07-.02-11.64,0-23.27,.42-34.89,1.63,2.91,2.02,20.55,1.23,34.83Z" style="fill:#c9c9c9;"/><path d="M214.14,83.69c-.58,.06-1.16,.12-1.75,.18-.51-.82,.09-1.32,.54-1.87,.39-.37,.93-.54,1.3-.94l-.06,.06c.41-.38,.58-.92,.93-1.33,.35-.41,.51-.97,.99-1.29,1.09-.43,.49-1.95,1.84-2.55,.67,2.03-.91,3.47-1.14,5.14-1.1,.65-1.99,1.52-2.66,2.61Z" style="fill:#c8cece;"/><path d="M216.1,78.5c-.02,.76-.14,1.46-1.02,1.71-.21,.29-.44,.33-.69,.05,.53-.99,1.07-1.98,1.6-2.97,.04,.4,.08,.8,.12,1.2Z" style="fill:#a09797;"/><path d="M62.76-.04c.18,25.25,.28,50.5-.05,75.75-.13,.09-.26,.17-.39,.26-.13-.08-.26-.17-.39-.25,.08-.79-.13-1.44-.85-1.87-1.06-5.97-.21-11.99-.48-17.98-.26-5.85,.54-11.72-.45-17.55,1.3-.94,1.3-1.87-.02-2.8,1.06-7.08,.17-14.21,.46-21.31,.18-4.39-.4-8.79,.32-13.16,.61-.36,1.23-.72,1.84-1.08Z" style="fill:#b0b0b0;"/><path d="M60.16,38.32c1.48,1.15,.87,2.79,.88,4.22,.06,10.44,.04,20.87,.04,31.31,0,0-.02,.01-.02,.01-.33,.23-.6,.18-.83-.14-.02-11.8-.04-23.6-.06-35.4Z" style="fill:#e1e1e1;"/><path d="M60.92,1.04c.05,10.7,.1,21.39,.14,32.09,0,.91,0,1.83-.91,2.39,0-10.08-.04-20.16,.02-30.24,0-1.42-.64-3.03,.76-4.23Z" style="fill:#e1e1e1;"/><path d="M61.84,79.4h-.41s-.4-.07-.4-.07c-.15-.57-.23-1.17-.47-1.7-.67-1.47,.08-1.86,1.36-1.91,0,0-.02-.05-.02-.05,.86,.99,.45,2.15,.43,3.26-.17,.16-.33,.32-.5,.47Z" style="fill:#cdd1d1;"/><path d="M60.22,73.72c.28,.05,.56,.1,.83,.14-.39,.62-.66,.53-.83-.14Z" style="fill:#b0b0b0;"/><path d="M140.36,85.67c0-.3,.03-.59,.08-.89,1.12-1.01,2.51-.91,3.87-.91,19.95,0,39.9-.04,59.84,.01,.76,0,1.51,.08,2.23,.33,.64,.31,.81,.8,.54,1.45-22.18,0-44.37,0-66.55,0Z" style="fill:#cab7b7;"/><path d="M213.32,82.02c-.31,.62-.62,1.24-.92,1.85,0,0,.05-.03,.05-.03-.88,.64-1.79,.58-2.71,.09-.35,0-.7,0-1.05-.01-.07-.14-.15-.29-.22-.43,.12-.11,.23-.22,.35-.33,1.71-.18,3.09-1.16,4.57-1.89,.18,.18,.24,.35,.16,.52-.08,.16-.15,.23-.22,.23Z" style="fill:#a99c9c;"/><path d="M206.92,85.66c-.02-.29-.08-.58-.16-.86-.19-.43-.13-.82,.19-1.18,.64-.21,1.27-.35,1.78,.28,0,0-.03,0-.03,.01,.06,1.24-.59,1.76-1.77,1.75Z" style="fill:#817d7d;"/><path d="M209.74,83.93c.9-.03,1.81-.06,2.71-.09-.64,1.1-1.78,.87-2.77,1.03,.02-.31,.04-.62,.06-.94Z" style="fill:#cbd1d1;"/><path d="M138.37,84.8c.07,.28,.1,.57,.09,.86-22.18,0-44.37-.01-66.55-.02-.2-.67,.02-1.15,.65-1.44,5.44-.74,10.91-.29,16.37-.31,14.73-.08,29.47-.04,44.2,0,1.78,0,3.68-.45,5.24,.92Z" style="fill:#cab6b6;"/><path d="M72.02,84.78c-.06,.28-.1,.57-.11,.86-.57,0-1.14,.01-1.71,.02-.58-.55-.6-1.18-.28-1.87,.62-.43,1.29-.4,1.97-.2,.39,.36,.43,.76,.12,1.19Z" style="fill:#888484;"/><path d="M70.24,83.89c0,.59-.02,1.18-.03,1.77-.66-.02-1.32-.03-1.98-.05,.05-.25,.05-.5,0-.75,.12-.59,.48-.96,1.03-1.17,.37-.14,.69-.07,.98,.2Z" style="fill:#aab9b9;"/><path d="M63.79,82.03c-1.19-.48-1.78-1.39-1.94-2.63,0,0,.19-.16,.19-.16,.99-.42,1.26,.51,1.79,.96l-.02-.03c.35,.44,.5,.93,.36,1.49-.13,.13-.25,.25-.38,.38Z" style="fill:#cdd1d1;"/><path d="M66.5,83.98c-1.26-.16-2.22-.73-2.71-1.95,0,0,0,0,0,0,.62-.55,1.24-.52,1.87-.03l-.03-.02c.46,.42,.99,.77,1.14,1.43-.09,.19-.18,.38-.26,.57Z" style="fill:#c8d3d3;"/><path d="M69.24,83.89c-.34,.32-.67,.65-1.01,.97-.69-.08-1.37-.17-1.73-.88,0,0,.13-.15,.13-.15,.63-.73,1.43-.37,2.19-.35,.14,.14,.28,.27,.42,.41Z" style="fill:#aac1c1;"/><path d="M133.98,101.2c-.05-.55-.38-.86-.88-1.01-.21-2.34,.02-4.55,1.81-6.31,3.04,0,6.08-.02,9.12-.02,.27,.93,.89,1.54,1.78,1.88,0,1.19,0,2.38,0,3.57-.86,.36-1.43,1.01-1.79,1.85-3.34,.01-6.69,.02-10.03,.03Z" style="fill:#faf9f9;"/><path d="M70.24,83.89c-.33,0-.67,0-1,0,0,0,0-.07,0-.07-.29-.16-.39-.32-.3-.49,.09-.18,.17-.27,.26-.27,45.32-.02,90.65-.04,135.97-.05,1.21,0,2.42,.1,3.63,.15-.02,.25-.05,.5-.09,.75-.55,0-1.1,0-1.65,0-1.29,.66-2.68,.36-4.03,.37-19.57,.02-39.14,.02-58.71,0-1.34,0-2.74,.32-4.02-.4-.59,0-1.19,0-1.78-.01-.81,.56-1.75,.42-2.64,.42-20.47,0-40.94,0-61.41,0-.9,0-1.83,.13-2.66-.37-.53,0-1.05-.02-1.58-.03Z" style="fill:#c1a7a7;"/><path d="M71.82,83.92c22.24-.02,44.48-.04,66.72-.05-.05,.31-.11,.62-.16,.93-22.12,0-44.23-.01-66.35-.02-.03-.3-.1-.58-.21-.86Z" style="fill:#aab9b9;"/><path d="M140.32,83.88c22.25,.01,44.5,.02,66.75,.03-.1,.3-.21,.59-.31,.89-22.11,0-44.21-.01-66.32-.02-.04-.3-.08-.6-.12-.9Z" style="fill:#aab8b8;"/><path d="M153.22,251.59c-.25,4.26-.25,8.52,0,12.78-.36,.23-.73,.65-1.09,.65-5.21,0-10.45,.18-15.62-.6-2-.3-4.16-.63-5.3-2.75,.17-.18,.35-.36,.51-.54,.42-.26,.88-.44,1.37-.54,4.69-.62,9.46,.43,14.12-.7,2.04-.85,3.15-2.36,2.64-4.56-.65-2.83-2.91-3.97-5.5-4.61-1.24-.41-2.04-1.29-2.21-2.54-.55-4.17-3.15-6.13-7.06-6.74-.63-.32-1.16-.7-1.01-1.53,9.71-3.13,16.93,1.28,19.14,11.68Z" style="fill:#fafbfb;"/><path d="M131.22,261.67c-5.64-3.5-7.15-10.32-3.6-16.29,.69-1.16,1.47-2.24,2.68-2.93,.84-.34,1.19,.19,1.48,.84,.09,.43,.11,.86,.07,1.29-.41,2.62-.67,5.25,.08,7.86,1.36,1.88,1.93,.61,2.52-.64,.55-2.05-.66-5.56,2.15-5.74,3.15-.2,1.82,3.41,2.48,5.34,.15,.43,.37,.82,.65,1.18,.91,.87,2.01,1.24,3.23,1.46,1.41,.26,3.44,.27,3.12,2.37-.28,1.86-2.21,1.74-3.68,1.84-3,.2-6.02-.1-9.01,.22-.37,.15-.71,.35-.99,.64-.69,.7-.57,1.79-1.15,2.54l-.03,.02Z" style="fill:#fafafa;"/><path d="M131.36,243.52c-.36-.36-.71-.71-1.07-1.07,.9-1.38,2.17-2.21,3.78-2.53,.3,.27,.6,.54,.89,.81-.26,2.15-1.68,2.8-3.61,2.79Z" style="fill:#dce2e2;"/><path d="M137.66,281.63c1.2,0,2.41,0,3.61,0,.02,.34,.04,.67,.05,1.01h0c-.63,.6-1.26,1.2-1.88,1.81-.31,.35-.61,.34-.89-.04-.02-.75-.19-1.43-.96-1.77h0c.02-.33,.04-.67,.06-1.01Z" style="fill:#fff;"/><path d="M141.32,282.64c.13,.13,.25,.26,.38,.39-.08-.02-.18-.02-.23-.08-.07-.09-.1-.21-.14-.32,0,0,0,0,0,0Z" style="fill:#afb1b1;"/><path d="M143.98,282.63c-.12,.13-.25,.26-.37,.39,.02-.08,.01-.19,.07-.23,.08-.07,.2-.1,.31-.15,0,0,0,0,0,0Z" style="fill:#afb2b2;"/><path d="M134.95,282.64c.12,.13,.25,.25,.37,.38-.08-.02-.18-.02-.22-.08-.07-.09-.1-.21-.14-.31,0,0,0,0,0,0Z" style="fill:#afb1b1;"/><path d="M137.59,282.63c-.12,.13-.24,.26-.36,.38,.02-.08,.02-.19,.07-.23,.08-.07,.2-.1,.3-.15,0,0,0,0,0,0Z" style="fill:#afb2b2;"/><path d="M119.49,280.53c-.13-.04-.32-.05-.36-.13-.14-.27,.02-.43,.4-.38,.11,.02,.2,.18,.3,.27-.11,.08-.23,.16-.34,.24Z" style="fill:#f9f9f9;"/><path d="M133.38,280.13c0,.1,.02,.26-.04,.3-.1,.07-.28,.12-.38,.08-.41-.18-.4-.39,.05-.5,.11-.03,.25,.08,.37,.12Z" style="fill:#f9f9f9;"/><path d="M139.55,280.53c-.13-.04-.32-.05-.36-.13-.14-.27,.02-.43,.4-.38,.11,.02,.2,.18,.3,.27-.11,.08-.23,.16-.34,.24Z" style="fill:#f9f9f9;"/><path d="M159.85,280.38c-.12,.05-.26,.15-.37,.13-.4-.1-.45-.31-.11-.5,.09-.05,.28,0,.39,.07,.07,.04,.06,.2,.09,.31Z" style="fill:#f9f9f9;"/><polygon points="149.23 276.7 148.99 276.77 149.01 276.56 149.23 276.7" style="fill:#e4e6e6;"/><path d="M148.55,269.85c0-.62,0-1.24,0-1.86,.94,.62,1.02,1.24,0,1.86Z" style="fill:#dbe7e7;"/><path d="M153.96,279.05c.05,.26,.04,.52-.03,.78,0,0-.29,0-.29,0,0,0-.29,0-.29,0-.06-.47,.17-.71,.62-.77Z" style="fill:#afb2b2;"/><path d="M145.05,279.83c-.07-.26-.08-.51-.03-.77,.45,.06,.68,.3,.63,.77,0,0-.3,0-.3,0h-.3Z" style="fill:#afb1b1;"/><path d="M140.38,119.36c.87,1.63-.37,1.76-1.36,1.65-1.11-.12-1.54-.78-.49-1.69,.63-.44,1.24-.45,1.85,.04Z" style="fill:#956f6f;"/><path d="M140.38,119.36c-.62-.01-1.23-.02-1.85-.04,.02-.3,.05-.59,.09-.89,.54-.02,1.09-.03,1.63-.05,.04,.33,.09,.65,.13,.98Z" style="fill:#adcfcf;"/><path d="M120.21,120.41c-.59-.38-.56-.73,.06-1.05-.02,.35-.04,.7-.06,1.05Z" style="fill:#b6b6b6;"/><path d="M63.83,80.19c-.6-.32-1.2-.64-1.79-.96-.04-1.19-.09-2.38-.13-3.57,.27,0,.53,.02,.8,.04,.37,1.5,.75,2.99,1.12,4.49Z" style="fill:#949191;"/><path d="M69.21,83.06c.02,.25,.03,.51,.04,.76-.87,0-1.74,0-2.62,0-.34-.61-.67-1.23-1.01-1.84,1.36-.19,2.3,1.01,3.59,1.07Z" style="fill:#9f9292;"/><path d="M65.65,82.01c-.62,0-1.25,.02-1.87,.03,0-.62,.02-1.25,.02-1.87,1.01,.22,1.65,.81,1.84,1.84Z" style="fill:#969090;"/><path d="M214.39,80.26c.24,.02,.47,0,.7-.05-.05,.55-.35,.86-.9,.92,.07-.29,.14-.57,.21-.86Z" style="fill:#7e7272;"/><path d="M213.32,82.02c.06-.25,.08-.5,.06-.75,.28-.07,.57-.14,.85-.21-.05,.56-.37,.87-.91,.95Z" style="fill:#847575;"/><path d="M141.32,99.51c-1.58,1.14-3.14,1.15-4.66-.12,.16-.75,.62-1.25,1.31-1.58,1.21-.4,2.37-.38,3.43,.42,.34,.45,.31,.87-.08,1.27Z" style="fill:#87b1b1;"/><path d="M137.64,95.54c1.23-.77,2.44-.86,3.61,.14,.14,.19,.28,.37,.41,.56-.16,.46-.46,.79-.91,.99-1.16,.32-2.29,.38-3.29-.47-.27-.45-.21-.86,.17-1.22Z" style="fill:#7ea6a6;"/><path d="M137.64,95.54c-.03,.31-.06,.62-.08,.93,.16,.77,.19,1.55,.15,2.33-.35,.2-.7,.4-1.05,.6-1.5-2.4-1.43-2.67,.98-3.85Z" style="fill:#8a8282;"/><path d="M142.31,96.6c.99,.61,1.02,1.24,.05,1.9-.19-.08-.39-.17-.58-.25-.46-.45-.89-.91-.49-1.62l.26-.16c.3-.2,.55-.16,.77,.13Z" style="fill:#918d8d;"/><path d="M142.31,96.6c-.26-.05-.51-.09-.77-.13-.16-.24-.25-.5-.29-.79,.59,.03,.96,.32,1.06,.92Z" style="fill:#836b6b;"/><path d="M141.32,99.51c-.01-.29-.04-.58-.1-.87,.22-.57,.54-.63,.97-.19,0,0,.16,.05,.16,.05-.11,.57-.48,.88-1.03,1.01Z" style="fill:#7b6b6b;"/><path d="M131.36,243.52c1.2-.93,2.41-1.86,3.61-2.79,5.51,.02,7.29,1.51,8.12,7.1,.18,1.23,.58,1.91,1.78,2.09-.14,1.79-1.44,1.5-2.6,1.46-1.55-.49-1.78-1.82-2.08-3.17-1.17-5.35-3.05-5.9-7.45-2.23-.23,.19-.51,.3-.8,.39-1.27-.36-1.31-1.12-.72-2.11,.02-.25,.07-.5,.14-.74Z" style="fill:#928d8d;"/><path d="M142.09,250.72c.98-.07,2.05,.15,2.78-.8,.96-.17,1.81,.19,2.61,.61,4.59,2.39,4.99,6.29,1.05,10.08-.31-.32-.52-.7-.64-1.12,.72-3.82,.43-6.97-4.59-7.17-.74-.03-1.33-.66-1.21-1.59Z" style="fill:#969292;"/><path d="M148.48,259.36c.02,.41,.04,.83,.06,1.24-.86,.64-1.78,1.19-2.88,1.13-4.49-.22-9,.42-13.48-.33-.16-.59,.03-1.03,.57-1.31,5.2-1.23,10.48-.6,15.73-.73Z" style="fill:#7f7272;"/><path d="M132.29,260.41c-.04,.33-.08,.66-.12,.99-.31,.08-.62,.16-.93,.24,.34-.95-1.46-1.81-.11-2.79,.23-.33,.53-.43,.91-.31,.3,.22,.5,.51,.6,.87,.01,.37-.1,.71-.35,.99Z" style="fill:#837373;"/><path d="M131.44,258.05c1.35-1.82,3.3-.93,5-1.05,3.02-.21,6.11,.29,9.3-.42-.68-1.83-1.83-1.5-2.78-1.56-1.64-.1-3.34,.07-4.47-1.5-.29-1.17,.53-1.33,1.35-1.48,1.65,0,3.25,.42,4.88,.63,1.94,.25,3.41,1.44,3.34,3.55-.07,2.01-1.73,2.76-3.45,2.86-4.16,.25-8.33,.67-12.48-.19l-.29-.1c-.12-.26-.25-.5-.41-.74Z" style="fill:#918585;"/><path d="M139.4,252.52c-.3,.33-.6,.66-.91,.99-1.95-2.03,.13-4.95-1.63-7.33-2.31,2.19,.18,5.41-1.85,7.41-.78-.18-1.31-.66-1.66-1.36-.74-2.98-1.05-5.88,1.69-8.15,1.23-.38,2.46-.44,3.68,.06,2.56,2.6,2.14,5.44,.69,8.37Z" style="fill:#9c9d9d;"/><path d="M131.23,244.26c.06,.7,.14,1.39,.78,1.83,1.79,1.78,.91,3.94,.86,5.98-.31,.8-.86,1.33-1.72,1.52-1.29-3.12-1.33-6.23,.08-9.33Z" style="fill:#a1a1a1;"/><path d="M131.15,253.59c.31-.35,.62-.71,.93-1.06,.65-.1,1.3-.13,1.95-.01,.32,.36,.65,.72,.97,1.08-1.29,1.77-2.57,1.69-3.86,0Z" style="fill:#8f9292;"/><path d="M131.44,258.05c.14,.25,.28,.49,.41,.74-.24,.04-.48,.07-.72,.07,.1-.27,.21-.53,.31-.8Z" style="fill:#766f6f;"/><path d="M142.19,98.45c-.32,.06-.64,.12-.96,.19-1.17,.05-2.35,.11-3.52,.16-1.06-.71-1.28-1.47-.15-2.33,1.24,.05,2.48,.11,3.72,.16,.3,.61,.61,1.21,.91,1.82Z" style="fill:#e9e2e2;"/><path d="M134.03,252.52c-.64,.88-1.29,.88-1.95,.01-.03-2.15-.05-4.29-.08-6.44,.29-1.02,.78-1.93,1.6-2.64,1.53-1.31,3.3-1.38,5.06-.77,1.7,.6,2.47,1.98,2.66,3.79,.15,1.42-.54,3.02,.77,4.24,.53,.61,1.25,.69,2.01,.79,5.36,.7,6.41,2.59,4.38,7.85-2.34,1.45-4.96,1.26-7.53,1.23-2.89-.03-5.77-.12-8.65-.18-.05-.51-.1-1.02-.15-1.53,1.96-1.11,4.12-.65,6.2-.73,1.8-.07,3.61,0,5.42,.02,1.73,0,3.73-.13,3.62-2.32-.1-1.89-1.91-2.42-3.73-2.51-1.43-.07-3.05,.55-4.24-.82,.02-1.62,.03-3.25,.06-4.87,.03-1.45-.41-2.61-1.91-3.13-.54,.25-1.09,.25-1.64,.03-1.58,.7-1.95,2.05-1.94,3.59,0,1.46,.04,2.92,.06,4.38Z" style="fill:#f3f5f5;"/><path d="M135.92,244.55c.55,0,1.09-.02,1.64-.03-.53,.72-1.08,.73-1.64,.03Z" style="fill:#997676;"/></g><g id="ToucheSensor-4"><circle id="Sensor" cx="140.12" cy="225.12" r="22.68" style="fill:none; stroke:#00d4d1; stroke-miterlimit:10;"/><circle id="bodyTouchSensors-torso" cx="140.12" cy="225.12" r="22.68" style="fill:#00d4d1; opacity:.5;cursor: pointer;"/></g></svg>