<?xml version="1.0" encoding="utf-8"?>
<!-- Generator: Adobe Illustrator 18.1.1, SVG Export Plug-In . SVG Version: 6.00 Build 0)  -->
<svg version="1.1" id="Calque_1" xmlns="http://www.w3.org/2000/svg" xmlns:xlink="http://www.w3.org/1999/xlink" x="0px" y="0px"
	 viewBox="0 0 1280 800" enable-background="new 0 0 1280 800" xml:space="preserve">
<g opacity="0.5">
	<circle fill="none" stroke="#CCCCCC" stroke-miterlimit="10" cx="1065.2" cy="618.5" r="21.1"/>
	<circle fill="none" stroke="#CCCCCC" stroke-miterlimit="10" cx="1065.2" cy="618.5" r="4.5"/>
</g>
<path fill="none" stroke="#24A069" stroke-width="2" stroke-linecap="round" stroke-linejoin="round" stroke-miterlimit="10" d="
	M1093.7,621c-1.6,9.6-8.1,17.5-16.9,21.2"/>
<path fill="none" stroke="#24A069" stroke-width="2" stroke-linecap="round" stroke-linejoin="round" stroke-miterlimit="10" d="
	M1039.7,608.4c2.7-9,9.8-16,18.9-18.6"/>
<path fill="none" stroke="#24A069" stroke-width="2" stroke-linecap="round" stroke-linejoin="round" stroke-miterlimit="10" d="
	M1096.4,630.8c-2.5,5.2-6.4,9.7-11.1,13"/>
<path fill="none" stroke="#24A069" stroke-width="2" stroke-linecap="round" stroke-linejoin="round" stroke-miterlimit="10" d="
	M1036.7,600.2c3-5.4,7.3-9.9,12.7-12.9"/>
<g opacity="0.5">
	<circle fill="none" stroke="#CCCCCC" stroke-miterlimit="10" cx="1067.2" cy="614.5" r="21.1"/>
	<circle fill="none" stroke="#CCCCCC" stroke-miterlimit="10" cx="1067.2" cy="614.5" r="4.5"/>
</g>
<path opacity="0.5" fill="none" stroke="#24A069" stroke-linecap="round" stroke-linejoin="round" stroke-miterlimit="10" d="
	M1091.7,619c-1.6,9.6-8.1,17.5-16.9,21.2"/>
<path opacity="0.5" fill="none" stroke="#24A069" stroke-linecap="round" stroke-linejoin="round" stroke-miterlimit="10" d="
	M1037.7,606.4c2.7-9,9.8-16,18.9-18.6"/>
<path opacity="0.5" fill="none" stroke="#24A069" stroke-linecap="round" stroke-linejoin="round" stroke-miterlimit="10" d="
	M1094.4,628.8c-2.5,5.2-6.4,9.7-11.1,13"/>
<path opacity="0.5" fill="none" stroke="#24A069" stroke-linecap="round" stroke-linejoin="round" stroke-miterlimit="10" d="
	M1034.7,598.2c3-5.4,7.3-9.9,12.7-12.9"/>
</svg>
