<?xml version="1.0" encoding="utf-8"?>
<!-- Generator: Adobe Illustrator 18.1.1, SVG Export Plug-In . SVG Version: 6.00 Build 0)  -->
<svg version="1.1" id="Calque_1" xmlns="http://www.w3.org/2000/svg" xmlns:xlink="http://www.w3.org/1999/xlink" x="0px" y="0px"
	 viewBox="0 0 1280 800" enable-background="new 0 0 1280 800" xml:space="preserve">
<path fill="#E6E6E6" stroke="#CCCCCC" stroke-linecap="round" stroke-linejoin="round" stroke-miterlimit="10" d="M1076.9,639.7
	h-28.2c-1,0-1.8-0.9-1.8-2v-46c0-1.1,0.8-2,1.8-2h34.1c1,0,1.8,0.9,1.8,2V632c0,0.5-0.2,1-0.5,1.4l-5.9,5.8
	C1077.8,639.5,1077.4,639.7,1076.9,639.7z"/>
<g>
	<g>
		<path fill="#CCCCCC" d="M1056.7,607c-0.3,0.2-0.4,0.5-0.4,0.9c0,0.4,0.2,0.7,0.5,0.9c0.3,0.2,1.1,0.5,2.3,0.8
			c1.2,0.3,2.1,0.7,2.8,1.3c0.7,0.6,1,1.5,1,2.6c0,1.1-0.4,2.1-1.3,2.8c-0.8,0.7-2,1.1-3.4,1.1c-2,0-3.8-0.7-5.4-2.2l1.7-2.1
			c1.4,1.2,2.6,1.8,3.8,1.8c0.5,0,0.9-0.1,1.2-0.3c0.3-0.2,0.4-0.5,0.4-0.9c0-0.4-0.2-0.7-0.5-0.9c-0.3-0.2-0.9-0.4-1.9-0.7
			c-1.5-0.3-2.5-0.8-3.2-1.4c-0.7-0.6-1-1.4-1-2.6c0-1.2,0.4-2.1,1.3-2.8c0.9-0.7,1.9-1,3.2-1c0.8,0,1.7,0.1,2.5,0.4
			c0.8,0.3,1.6,0.7,2.2,1.2l-1.4,2.1c-1.1-0.8-2.2-1.2-3.4-1.2C1057.3,606.6,1057,606.7,1056.7,607z"/>
		<path fill="#CCCCCC" d="M1074.9,606.1c1.2,1.1,1.8,2.6,1.8,4.6c0,2-0.6,3.5-1.8,4.7c-1.2,1.1-3,1.7-5.4,1.7h-4.3v-12.6h4.5
			C1072,604.4,1073.7,605,1074.9,606.1z M1072.9,613.6c0.7-0.7,1-1.6,1-2.8c0-1.2-0.3-2.2-1-2.9c-0.7-0.7-1.8-1-3.2-1h-1.6v7.7h1.8
			C1071.2,614.6,1072.2,614.3,1072.9,613.6z"/>
	</g>
</g>
<path fill="#CCCCCC" d="M1079.5,626.2h0.9c0.8,0,1.5,0.7,1.5,1.5v4c0,0.8-0.7,1.5-1.5,1.5h-0.9c-0.8,0-1.5-0.7-1.5-1.5v-4
	C1078,626.8,1078.6,626.2,1079.5,626.2z"/>
<path fill="#CCCCCC" d="M1074.6,630h0.9c0.8,0,1.5,0.7,1.5,1.5v4c0,0.8-0.7,1.5-1.5,1.5h-0.9c-0.8,0-1.5-0.7-1.5-1.5v-4
	C1073.2,630.6,1073.8,630,1074.6,630z"/>
<path fill="#CCCCCC" d="M1069.8,630h0.9c0.8,0,1.5,0.7,1.5,1.5v4c0,0.8-0.7,1.5-1.5,1.5h-0.9c-0.8,0-1.5-0.7-1.5-1.5v-4
	C1068.4,630.6,1069,630,1069.8,630z"/>
<path fill="#CCCCCC" d="M1065,630h0.9c0.8,0,1.5,0.7,1.5,1.5v4c0,0.8-0.7,1.5-1.5,1.5h-0.9c-0.8,0-1.5-0.7-1.5-1.5v-4
	C1063.6,630.6,1064.2,630,1065,630z"/>
<path fill="#CCCCCC" d="M1060.2,630h0.9c0.8,0,1.5,0.7,1.5,1.5v4c0,0.8-0.7,1.5-1.5,1.5h-0.9c-0.8,0-1.5-0.7-1.5-1.5v-4
	C1058.8,630.6,1059.4,630,1060.2,630z"/>
<path fill="#CCCCCC" d="M1055.4,630h0.9c0.8,0,1.5,0.7,1.5,1.5v4c0,0.8-0.7,1.5-1.5,1.5h-0.9c-0.8,0-1.5-0.7-1.5-1.5v-4
	C1053.9,630.6,1054.6,630,1055.4,630z"/>
<path fill="#CCCCCC" d="M1050.6,630h0.9c0.8,0,1.5,0.7,1.5,1.5v4c0,0.8-0.7,1.5-1.5,1.5h-0.9c-0.8,0-1.5-0.7-1.5-1.5v-4
	C1049.1,630.6,1049.8,630,1050.6,630z"/>
</svg>
