<?xml version="1.0" encoding="utf-8"?>
<!-- Generator: Adobe Illustrator 18.1.1, SVG Export Plug-In . SVG Version: 6.00 Build 0)  -->
<svg version="1.1" id="Calque_1" xmlns="http://www.w3.org/2000/svg" xmlns:xlink="http://www.w3.org/1999/xlink" x="0px" y="0px"
	 viewBox="0 0 1280 800" enable-background="new 0 0 1280 800" xml:space="preserve">
<path fill="#FFFFFF" stroke="#24A069" stroke-width="2" stroke-linecap="round" stroke-linejoin="round" stroke-miterlimit="10" d="
	M1077,640.4h-28.2c-1,0-1.8-0.9-1.8-2v-46c0-1.1,0.8-2,1.8-2h34.1c1,0,1.8,0.9,1.8,2v40.2c0,0.5-0.2,1-0.5,1.4l-5.9,5.8
	C1077.9,640.2,1077.5,640.4,1077,640.4z"/>
<g>
	<g>
		<path d="M1056.8,607.4c-0.3,0.2-0.4,0.5-0.4,0.9c0,0.4,0.2,0.7,0.5,0.9c0.3,0.2,1.1,0.5,2.3,0.8c1.2,0.3,2.1,0.7,2.8,1.3
			c0.7,0.6,1,1.5,1,2.6c0,1.1-0.4,2.1-1.3,2.8c-0.8,0.7-2,1.1-3.4,1.1c-2,0-3.8-0.7-5.4-2.2l1.7-2.1c1.4,1.2,2.6,1.8,3.8,1.8
			c0.5,0,0.9-0.1,1.2-0.3c0.3-0.2,0.4-0.5,0.4-0.9c0-0.4-0.2-0.7-0.5-0.9c-0.3-0.2-0.9-0.4-1.9-0.7c-1.5-0.3-2.5-0.8-3.2-1.4
			c-0.7-0.6-1-1.4-1-2.6c0-1.2,0.4-2.1,1.3-2.8c0.9-0.7,1.9-1,3.2-1c0.8,0,1.7,0.1,2.5,0.4c0.8,0.3,1.6,0.7,2.2,1.2l-1.4,2.1
			c-1.1-0.8-2.2-1.2-3.4-1.2C1057.4,607.1,1057.1,607.2,1056.8,607.4z"/>
		<path d="M1075,606.5c1.2,1.1,1.8,2.6,1.8,4.6c0,2-0.6,3.5-1.8,4.7c-1.2,1.1-3,1.7-5.4,1.7h-4.3v-12.6h4.5
			C1072.1,604.9,1073.8,605.4,1075,606.5z M1073,614c0.7-0.7,1-1.6,1-2.8c0-1.2-0.3-2.2-1-2.9c-0.7-0.7-1.8-1-3.2-1h-1.6v7.7h1.8
			C1071.3,615,1072.3,614.7,1073,614z"/>
	</g>
</g>
<path fill="#FFA100" d="M1079.5,626.6h0.9c0.8,0,1.5,0.7,1.5,1.5v4c0,0.8-0.7,1.5-1.5,1.5h-0.9c-0.8,0-1.5-0.7-1.5-1.5v-4
	C1078.1,627.2,1078.7,626.6,1079.5,626.6z"/>
<path fill="#FFA100" d="M1074.7,630.4h0.9c0.8,0,1.5,0.7,1.5,1.5v4c0,0.8-0.7,1.5-1.5,1.5h-0.9c-0.8,0-1.5-0.7-1.5-1.5v-4
	C1073.3,631,1073.9,630.4,1074.7,630.4z"/>
<path fill="#FFA100" d="M1069.9,630.4h0.9c0.8,0,1.5,0.7,1.5,1.5v4c0,0.8-0.7,1.5-1.5,1.5h-0.9c-0.8,0-1.5-0.7-1.5-1.5v-4
	C1068.5,631,1069.1,630.4,1069.9,630.4z"/>
<path fill="#FFA100" d="M1065.1,630.4h0.9c0.8,0,1.5,0.7,1.5,1.5v4c0,0.8-0.7,1.5-1.5,1.5h-0.9c-0.8,0-1.5-0.7-1.5-1.5v-4
	C1063.7,631,1064.3,630.4,1065.1,630.4z"/>
<path fill="#FFA100" d="M1060.3,630.4h0.9c0.8,0,1.5,0.7,1.5,1.5v4c0,0.8-0.7,1.5-1.5,1.5h-0.9c-0.8,0-1.5-0.7-1.5-1.5v-4
	C1058.8,631,1059.5,630.4,1060.3,630.4z"/>
<path fill="#FFA100" d="M1055.5,630.4h0.9c0.8,0,1.5,0.7,1.5,1.5v4c0,0.8-0.7,1.5-1.5,1.5h-0.9c-0.8,0-1.5-0.7-1.5-1.5v-4
	C1054,631,1054.7,630.4,1055.5,630.4z"/>
<path fill="#FFA100" d="M1050.7,630.4h0.9c0.8,0,1.5,0.7,1.5,1.5v4c0,0.8-0.7,1.5-1.5,1.5h-0.9c-0.8,0-1.5-0.7-1.5-1.5v-4
	C1049.2,631,1049.9,630.4,1050.7,630.4z"/>
</svg>
