<?xml version="1.0" encoding="utf-8"?>
<!-- Generator: Adobe Illustrator 18.1.1, SVG Export Plug-In . SVG Version: 6.00 Build 0)  -->
<svg version="1.1" id="Calque_1" xmlns="http://www.w3.org/2000/svg" xmlns:xlink="http://www.w3.org/1999/xlink" x="0px" y="0px"
	 viewBox="0 0 1280 800" enable-background="new 0 0 1280 800" xml:space="preserve">
<g>
	<path fill="#66CCFF" stroke="#66CCFF" stroke-linecap="round" stroke-linejoin="round" stroke-miterlimit="10" d="M1042.6,603.4
		c-0.5-4.4,3.3-8,7.8-8.3c0.8,0,1.6,0.1,2.4,0.1c1.2-4.5,5.2-6.9,8.4-6.9c3.9,0,6.9,2,8.8,6.3c0,0,0.1,0,0.1,0
		c2.1-0.1,3.9,0.6,5.3,2.3c0.1,0.2,0.4,0.2,0.6,0.3c2.1,0.3,3.6,1.9,3.6,3.9c0.1,2-1.3,3.8-3.3,4.3c-7.9,1.9-15.9,3.8-23.8,5.7
		C1049.1,612,1043.3,610,1042.6,603.4z"/>
</g>
<g>
	<path fill="#3FA9F5" stroke="#3FA9F5" stroke-linecap="round" stroke-linejoin="round" stroke-miterlimit="10" d="M1043.6,630.8
		c-2.9,0-5.4-2-6-4.9c-0.6-2.8,1-5.6,3.8-6.7c0.3-0.1,0.7-0.3,0.8-0.6c1.4-2.8,3.6-4.4,6.6-5c0.1,0,0.1-0.1,0.2-0.1
		c1.2-6.6,4.7-10.5,10.2-11.7c4.5-1,11,0.9,14.1,6.9c1.1-0.3,2.2-0.8,3.3-1c6.3-1.2,12.8,2.5,13.7,8.9c1.2,9.4-6.2,14.2-11.5,14.2
		C1078.7,630.8,1049.2,630.8,1043.6,630.8z"/>
</g>
</svg>
