<?xml version="1.0" encoding="utf-8"?>
<!-- Generator: Adobe Illustrator 18.1.1, SVG Export Plug-In . SVG Version: 6.00 Build 0)  -->
<svg version="1.1" id="Calque_1" xmlns="http://www.w3.org/2000/svg" xmlns:xlink="http://www.w3.org/1999/xlink" x="0px" y="0px"
	 viewBox="0 0 1280 800" enable-background="new 0 0 1280 800" xml:space="preserve">
<line fill="none" stroke="#E6E6E6" stroke-width="2" stroke-linecap="round" stroke-linejoin="round" stroke-miterlimit="10" x1="1035" y1="588" x2="1062" y2="588"/>
<line fill="none" stroke="#E6E6E6" stroke-width="2" stroke-linecap="round" stroke-linejoin="round" stroke-miterlimit="10" x1="1046" y1="594" x2="1092" y2="594"/>
<line fill="none" stroke="#E6E6E6" stroke-width="2" stroke-linecap="round" stroke-linejoin="round" stroke-miterlimit="10" x1="1032" y1="594" x2="1038" y2="594"/>
<line fill="none" stroke="#E6E6E6" stroke-width="2" stroke-linecap="round" stroke-linejoin="round" stroke-miterlimit="10" x1="1066" y1="601" x2="1095" y2="601"/>
<line fill="none" stroke="#E6E6E6" stroke-width="2" stroke-linecap="round" stroke-linejoin="round" stroke-miterlimit="10" x1="1032" y1="620" x2="1066" y2="620"/>
<line fill="none" stroke="#E6E6E6" stroke-width="2" stroke-linecap="round" stroke-linejoin="round" stroke-miterlimit="10" x1="1080" y1="620" x2="1092" y2="620"/>
<line fill="none" stroke="#E6E6E6" stroke-width="2" stroke-linecap="round" stroke-linejoin="round" stroke-miterlimit="10" x1="1032" y1="632" x2="1070" y2="632"/>
<line fill="none" stroke="#E6E6E6" stroke-width="2" stroke-linecap="round" stroke-linejoin="round" stroke-miterlimit="10" x1="1082" y1="632" x2="1092" y2="632"/>
<line fill="none" stroke="#E6E6E6" stroke-width="2" stroke-linecap="round" stroke-linejoin="round" stroke-miterlimit="10" x1="1066" y1="626" x2="1095" y2="626"/>
<line fill="none" stroke="#E6E6E6" stroke-width="2" stroke-linecap="round" stroke-linejoin="round" stroke-miterlimit="10" x1="1035" y1="626" x2="1056" y2="626"/>
<line fill="none" stroke="#E6E6E6" stroke-width="2" stroke-linecap="round" stroke-linejoin="round" stroke-miterlimit="10" x1="1066" y1="614" x2="1097" y2="614"/>
<line fill="none" stroke="#E6E6E6" stroke-width="2" stroke-linecap="round" stroke-linejoin="round" stroke-miterlimit="10" x1="1035" y1="614" x2="1052" y2="614"/>
<line fill="none" stroke="#E6E6E6" stroke-width="2" stroke-linecap="round" stroke-linejoin="round" stroke-miterlimit="10" x1="1032" y1="607" x2="1070" y2="607"/>
<line fill="none" stroke="#E6E6E6" stroke-width="2" stroke-linecap="round" stroke-linejoin="round" stroke-miterlimit="10" x1="1082" y1="607" x2="1092" y2="607"/>
<line fill="none" stroke="#E6E6E6" stroke-width="2" stroke-linecap="round" stroke-linejoin="round" stroke-miterlimit="10" x1="1035" y1="601" x2="1056" y2="601"/>
<g>
	<path fill="#F2F2F2" stroke="#E6E6E6" stroke-miterlimit="10" d="M1042.8,601.7c-0.5-4.4,3.3-8,7.8-8.3c0.8,0,1.6,0.1,2.4,0.1
		c1.2-4.5,5.2-6.9,8.4-6.9c3.9,0,6.9,2,8.8,6.3c0,0,0.1,0,0.1,0c2.1-0.1,3.9,0.6,5.3,2.3c0.1,0.2,0.4,0.2,0.6,0.3
		c2.1,0.3,3.6,1.9,3.6,3.9c0.1,2-1.3,3.8-3.3,4.3c-7.9,1.9-15.9,3.8-23.8,5.7C1049.3,610.3,1043.5,608.2,1042.8,601.7z"/>
</g>
<g>
	<path fill="#F2F2F2" stroke="#E6E6E6" stroke-miterlimit="10" d="M1043.8,629c-2.9,0-5.4-2-6-4.9c-0.6-2.8,1-5.6,3.8-6.7
		c0.3-0.1,0.7-0.3,0.8-0.6c1.4-2.8,3.6-4.4,6.6-5c0.1,0,0.1-0.1,0.2-0.1c1.2-6.6,4.7-10.5,10.2-11.7c4.5-1,11,0.9,14.1,6.9
		c1.1-0.3,2.2-0.8,3.3-1c6.3-1.2,12.8,2.5,13.7,8.9c1.2,9.4-6.2,14.2-11.5,14.2C1079,629,1049.4,629,1043.8,629z"/>
</g>
<line fill="none" stroke="#E6E6E6" stroke-width="2" stroke-linecap="round" stroke-linejoin="round" stroke-miterlimit="10" x1="1072" y1="588" x2="1086" y2="588"/>
</svg>
