<?xml version="1.0" encoding="utf-8"?>
<!-- Generator: Adobe Illustrator 24.0.1, SVG Export Plug-In . SVG Version: 6.00 Build 0)  -->
<svg version="1.1" id="Calque_1" xmlns="http://www.w3.org/2000/svg" xmlns:xlink="http://www.w3.org/1999/xlink" x="0px" y="0px"
	 viewBox="0 0 1280 800" style="enable-background:new 0 0 1280 800;" xml:space="preserve">
<style type="text/css">
	.st0{display:none;fill:#F2F2F2;}
	.st1{fill:#E6E6E6;}
	.st2{fill:#CCCCCC;}
	.st3{fill:#E6E6E6;stroke:#E6E6E6;stroke-miterlimit:10;}
</style>
<rect x="857.4" y="540" class="st0" width="43.3" height="20.6"/>
<polyline class="st1" points="884,529 884,550.9 885.2,556 887.6,556 890,550.9 890,529 "/>
<polyline class="st2" points="884,540 884,550.9 885.2,556 887.7,556 890,550.9 890,540 "/>
<path class="st1" d="M874.9,529v21.7c0,0.1,0,0.3,0,0.4l-0.9,3.7c-0.2,0.7-0.8,1.2-1.6,1.2l0,0c-0.6,0-1.2-0.4-1.5-1l-1.8-3.8
	c-0.1-0.2-0.2-0.5-0.2-0.7V529"/>
<polyline class="st2" points="875,540 875,550.9 873.7,556 871.2,556 869,550.9 869,540 "/>
<path class="st3" d="M889.8,507.5h-20.6c-0.5,0-0.7,0-0.7,0.6v20.4c0,0.6,0.2,1,0.7,1h20.6c0.5,0,0.7-0.4,0.7-1v-20.4
	C890.5,507.5,890.3,507.5,889.8,507.5z M878.9,527c-2.8,0-5.1-2.3-5.1-5.1c0-1,0.3-1.8,0.7-2.6c0.5-1,4.4-7.8,4.4-7.8
	s3.9,6.8,4.4,7.8c0.4,0.8,0.7,1.7,0.7,2.6C884,524.7,881.7,527,878.9,527z"/>
</svg>
