<?xml version="1.0" encoding="utf-8"?>
<!-- Generator: Adobe Illustrator 18.1.1, SVG Export Plug-In . SVG Version: 6.00 Build 0)  -->
<svg version="1.1" id="Calque_1" xmlns="http://www.w3.org/2000/svg" xmlns:xlink="http://www.w3.org/1999/xlink" x="0px" y="0px"
	 viewBox="0 0 1280 800" enable-background="new 0 0 1280 800" xml:space="preserve">
<path fill="#22B573" stroke="#339966" stroke-miterlimit="10" d="M1064.1,637.5h0.4v-21c0-6.1-5.4-11.2-11.5-11.2l0,0
	c-6.1,0-11.5,5-11.5,11.2v21h0.1c-0.6,0-1.1-0.2-1.1,0.5v2c0,0.6,0.5,1.5,1.1,1.5h1.8h18.9h1.8c0.6,0,1.4-0.9,1.4-1.5v-2
	C1065.5,637.3,1064.7,637.5,1064.1,637.5z"/>
<path fill="none" stroke="#FFFFFF" stroke-width="2" stroke-linecap="round" stroke-linejoin="round" stroke-miterlimit="10" d="
	M1056.5,609.7c0,0,2.5,0.7,3.5,4"/>
<line fill="none" stroke="#FFFFFF" stroke-width="2" stroke-linecap="round" stroke-linejoin="round" stroke-miterlimit="10" x1="1061" y1="617" x2="1061" y2="619"/>
<g>
	<g>
		<path fill="#24A069" d="M1052.7,603.2c0,0-0.5-0.5-0.7-1.3c-0.1-0.4-0.2-0.9-0.3-1.4c0-0.5,0.2-1,0.2-1.6c0.2-2.1,0.7-4.3,0.7-4.3
			c0-0.1,0.1-0.1,0.1-0.1c0,0,0.1,0,0.1,0.1c0,0,0.5,2.1,0.7,4.3c0.1,0.5,0.2,1.1,0.3,1.6c0,0.5-0.1,1-0.2,1.4
			c-0.2,0.8-0.7,1.3-0.7,1.3C1052.9,603.3,1052.8,603.3,1052.7,603.2C1052.7,603.3,1052.7,603.2,1052.7,603.2z"/>
	</g>
	<g>
		<path fill="none" d="M1062.9,606.5"/>
	</g>
	<g>
		<path fill="#24A069" d="M1067.7,618.6c0,0,0.2-0.4,0.5-0.7c0.1-0.1,0.3-0.2,0.5-0.2c0.2,0,0.4,0.2,0.6,0.2
			c0.8,0.2,1.5,0.7,1.5,0.7c0.1,0,0.1,0.1,0,0.2c0,0,0,0,0,0c0,0-0.8,0.5-1.5,0.7c-0.2,0.1-0.4,0.2-0.6,0.2c-0.2,0-0.3-0.1-0.5-0.2
			c-0.3-0.3-0.5-0.7-0.5-0.7C1067.7,618.7,1067.7,618.7,1067.7,618.6z"/>
	</g>
	<g>
		<path fill="none" d="M1043.4,606.5"/>
	</g>
	<g>
		<path fill="#24A069" d="M1038.7,618.8c0,0-0.2,0.4-0.5,0.7c-0.1,0.1-0.3,0.2-0.5,0.2c-0.2,0-0.4-0.2-0.6-0.2
			c-0.8-0.2-1.5-0.7-1.5-0.7c-0.1,0-0.1-0.1,0-0.2c0,0,0,0,0,0c0,0,0.8-0.5,1.5-0.7c0.2-0.1,0.4-0.2,0.6-0.2c0.2,0,0.3,0.1,0.5,0.2
			c0.3,0.3,0.5,0.7,0.5,0.7C1038.7,618.7,1038.7,618.7,1038.7,618.8z"/>
	</g>
</g>
<g>
	<path fill="#24A069" d="M1062.9,606.4c0,0,0-0.6,0.2-1.2c0.1-0.3,0.3-0.6,0.5-0.9c0.3-0.2,0.7-0.4,1-0.6c1.3-0.9,2.7-1.7,2.7-1.7
		c0.1,0,0.1,0,0.1,0c0,0,0,0.1,0,0.1c0,0-0.8,1.4-1.7,2.7c-0.2,0.3-0.4,0.7-0.6,1c-0.3,0.3-0.6,0.4-0.9,0.5
		c-0.6,0.2-1.2,0.2-1.2,0.2C1062.9,606.5,1062.9,606.5,1062.9,606.4z"/>
</g>
<g>
	<path fill="#24A069" d="M1043.3,606.5c0,0-0.6,0-1.2-0.2c-0.3-0.1-0.6-0.3-0.9-0.6c-0.3-0.3-0.4-0.7-0.7-1c-1-1.4-1.9-2.9-1.9-2.9
		c0,0,0-0.1,0-0.1c0,0,0.1,0,0.1,0c0,0,1.5,0.9,2.9,1.9c0.3,0.3,0.8,0.4,1,0.7c0.3,0.3,0.5,0.6,0.6,0.9c0.3,0.6,0.2,1.2,0.2,1.2
		C1043.5,606.5,1043.4,606.5,1043.3,606.5z"/>
</g>
<rect x="1047.1" y="628.4" fill="#208956" width="11.1" height="10.6"/>
</svg>
