<?xml version="1.0" encoding="utf-8"?>
<!-- Generator: Adobe Illustrator 18.1.1, SVG Export Plug-In . SVG Version: 6.00 Build 0)  -->
<svg version="1.1" id="Calque_1" xmlns="http://www.w3.org/2000/svg" xmlns:xlink="http://www.w3.org/1999/xlink" x="0px" y="0px"
	 viewBox="0 0 1280 800" enable-background="new 0 0 1280 800" xml:space="preserve">
<g>
	<g>
		
			<line fill="none" stroke="#000000" stroke-width="2" stroke-linecap="round" stroke-miterlimit="10" x1="1060" y1="624" x2="1060" y2="633"/>
		
			<line fill="none" stroke="#000000" stroke-width="2" stroke-linecap="round" stroke-miterlimit="10" x1="1068" y1="624" x2="1068" y2="633"/>
	</g>
	<path fill="#E6E6E6" stroke="#CCCCCC" stroke-miterlimit="10" d="M1075.9,620.5h-0.4v-21.6c0-6.4-5.1-11.7-11.5-11.7l0,0
		c-6.4,0-11.5,5.3-11.5,11.7v21.6h-0.1c-0.7,0-0.9,0.2-0.9,0.8v2.1c0,0.7,0.2,1.1,0.9,1.1h1.9h19.8h1.9c0.7,0,0.6-0.4,0.6-1.1v-2.1
		C1076.5,620.7,1076.5,620.5,1075.9,620.5z"/>
	<rect x="1058.1" y="611.4" fill="#CCCCCC" width="11.6" height="11"/>
	<g>
		<line fill="none" stroke="#CCCCCC" stroke-width="2" stroke-miterlimit="10" x1="1060" y1="622" x2="1060" y2="624"/>
		<line fill="none" stroke="#CCCCCC" stroke-width="2" stroke-miterlimit="10" x1="1068" y1="622" x2="1068" y2="624"/>
	</g>
	<path fill="none" stroke="#FFFFFF" stroke-width="2" stroke-linecap="round" stroke-linejoin="round" stroke-miterlimit="10" d="
		M1067.9,591.8c0,0,2.6,0.7,3.7,4.2"/>
	
		<line fill="none" stroke="#FFFFFF" stroke-width="2" stroke-linecap="round" stroke-linejoin="round" stroke-miterlimit="10" x1="1072" y1="599" x2="1072" y2="601"/>
</g>
</svg>
