<?xml version="1.0" encoding="UTF-8"?>
<svg id="Calque_2"
    xmlns="http://www.w3.org/2000/svg" viewBox="0 0 149.21 86">
    <defs>
        <style>.cls-1{fill:#fff;}.cls-2{fill:#346b78;}.cls-3{fill:#68d6f0;}</style>
    </defs>
    <g id="Calque_1-2">
        <g id="motor">
            <g id="body">
                <path class="cls-2" d="M30.74,83.27h115.73V2.73H32.11l-2.73-.4c0-1.29,0-2.33,0-2.33h117.5c1.29,0,2.33,1.05,2.33,2.33v81.34c0,1.29-1.05,2.33-2.33,2.33H29.37s0-1.05,0-2.33l1.37-.4Z"/>
                <path class="cls-1" d="M29.68,1.38h117.2c.53,0,.96.43.96.96v81.34c0,.53-.43.96-.96.96H29.61c-.13,0-.24-.11-.24-.24v-13.83c0-.26.1-.5.28-.68l9.08-9.08c.18-.18.28-.43.28-.68V25.9c0-.26-.1-.5-.28-.68l-9.08-9.08c-.18-.18-.28-.43-.28-.68V1.69c0-.17.14-.3.3-.3Z"/>
                <path class="cls-3" d="M29.37,84.42v-13.83c0-.26.1-.5.28-.68l9.06-9.06V25.2l-9.06-9.06c-.18-.18-.28-.43-.28-.68V1.69c0-.17,0-1.69,0-1.69H10C4.48,0,0,4.48,0,10v16.67c0,.55.45,1,1,1h3.47v30.67H1c-.55,0-1,.45-1,1v16.67c0,5.52,4.48,10,10,10h19.37s0-1.45,0-1.58Z"/>
            </g>
            <g id="elements">
                <circle class="cls-2" cx="14.46" cy="14.29" r="10.46"/>
                <circle class="cls-2" cx="14.46" cy="71.71" r="10.46"/>
                <path class="cls-2" d="M35.54,57.04c0,.51-.41.92-.92.92H4.51v-1.83h29.2v-26.18H4.51v-1.83h30.12c.51,0,.92.41.92.92v28.01Z"/>
            </g>
            <g id="spike-motor" style="transform: rotate(0deg)">
                <circle class="cls-3" cx="106.21" cy="43" r="41.64"/>
                <path class="cls-2" d="M75.44,28.1l.71-1.31c3.35-6.2,8.46-11.16,14.77-14.32l1.33-.67-.36,1.45c-.31,1.22-.46,2.44-.46,3.61v10.59h-11.4c-1.04,0-2.09.11-3.13.34l-1.45.31ZM90.27,14.37c-5.06,2.82-9.24,6.87-12.21,11.84.66-.08,1.32-.12,1.97-.12h10.03v-9.22c0-.82.07-1.65.21-2.49Z"/>
                <path class="cls-2" d="M136.96,28.1l-1.45-.31c-1.04-.23-2.1-.34-3.13-.34h-11.4v-10.59c0-1.17-.16-2.39-.46-3.61l-.36-1.45,1.33.67c6.31,3.17,11.42,8.12,14.77,14.32l.71,1.31ZM122.35,26.08h10.03c.65,0,1.31.04,1.97.12-2.96-4.97-7.14-9.02-12.21-11.84.14.84.21,1.68.21,2.49v9.22Z"/>
                <path class="cls-2" d="M120.19,74.18l.35-1.44c.29-1.2.44-2.39.44-3.53v-12.21h11.4c1.32,0,2.66-.19,3.98-.56l1.43-.4-.63,1.35c-3.24,6.95-8.8,12.68-15.65,16.12l-1.32.67ZM122.35,58.37v10.84c0,.79-.06,1.6-.19,2.42,5.59-3.12,10.18-7.86,13.14-13.53-.97.18-1.95.28-2.91.28h-10.03Z"/>
                <path class="cls-2" d="M92.23,74.18l-1.33-.67c-6.86-3.45-12.42-9.17-15.65-16.12l-.63-1.35,1.43.4c1.33.37,2.67.56,3.98.56h11.4v12.21c0,1.15.15,2.34.44,3.53l.35,1.44ZM77.12,58.1c2.95,5.67,7.55,10.41,13.14,13.53-.13-.81-.19-1.62-.19-2.41v-10.84h-10.03c-.97,0-1.94-.09-2.91-.28Z"/>
                <path class="cls-2" d="M106.21,85.32c-8.9,0-16.15-7.24-16.15-16.15v-10.84h-10.03c-8.9,0-16.14-7.24-16.14-16.14s7.24-16.15,16.14-16.15h10.03v-9.22c0-8.9,7.24-16.14,16.15-16.14s16.14,7.24,16.14,16.14v9.22h10.03c8.9,0,16.15,7.24,16.15,16.15s-7.24,16.14-16.15,16.14h-10.03v10.84c0,8.9-7.24,16.15-16.14,16.15ZM80.03,27.41c-8.15,0-14.78,6.63-14.78,14.78s6.63,14.78,14.78,14.78h11.4v12.21c0,8.15,6.63,14.78,14.78,14.78s14.78-6.63,14.78-14.78v-12.21h11.4c8.15,0,14.78-6.63,14.78-14.78s-6.63-14.78-14.78-14.78h-11.4v-10.59c0-8.15-6.63-14.78-14.78-14.78s-14.78,6.63-14.78,14.78v10.59h-11.4Z"/>
                <g id="cercles">
                    <circle class="cls-2" cx="106.21" cy="14.63" r="10.37"/>
                    <circle class="cls-2" cx="106.21" cy="71.37" r="10.37"/>
                    <circle class="cls-2" cx="134.58" cy="42.19" r="10.37"/>
                    <circle class="cls-2" cx="77.83" cy="42.19" r="10.37"/>
                </g>
                <g id="center">
                    <path class="cls-2" d="M106.21,56.81c-7.61,0-13.81-6.2-13.81-13.81s6.2-13.81,13.81-13.81,13.81,6.2,13.81,13.81-6.2,13.81-13.81,13.81ZM106.21,30.56c-6.86,0-12.44,5.58-12.44,12.44s5.58,12.44,12.44,12.44,12.44-5.58,12.44-12.44-5.58-12.44-12.44-12.44Z"/>
                    <path class="cls-2" d="M112.72,38.95h-2.67v-2.47c0-2.13-1.72-3.85-3.85-3.85s-3.85,1.72-3.85,3.85v2.47h-2.67c-2.13,0-3.85,1.72-3.85,3.85h0c0,2.13,1.72,3.85,3.85,3.85h2.67v2.87c0,2.13,1.72,3.85,3.85,3.85s3.85-1.72,3.85-3.85v-2.87h2.67c2.13,0,3.85-1.72,3.85-3.85h0c0-2.13-1.72-3.85-3.85-3.85Z"/>
                </g>
            </g>
        </g>
    </g>
</svg>