<?xml version="1.0" encoding="utf-8"?>
<!-- Generator: Adobe Illustrator 18.1.1, SVG Export Plug-In . SVG Version: 6.00 Build 0)  -->
<svg version="1.1" id="Calque_1" xmlns="http://www.w3.org/2000/svg" xmlns:xlink="http://www.w3.org/1999/xlink" x="0px" y="0px"
	 viewBox="0 0 1280 800" enable-background="new 0 0 1280 800" xml:space="preserve">
<g>
	<path fill="#F9D142" d="M765.4,402.9c0.5,0,0.9,0.4,0.8,0.9c-0.5,7.8-7.9,14.7-17,14.7c-9,0-16.4-7-17-14.7c0-0.5,0.3-0.9,0.8-0.9
		H765.4z"/>
	<g>
		<path fill="#F9D142" d="M749.3,420.7c0,0,0.2,0.1,0.4,0.4c0.2,0.2,0.5,0.6,0.7,1c0.2,0.4,0.4,0.9,0.4,1.4c0,0.5-0.3,1.1-0.3,1.6
			c-0.1,0.6-0.2,1.1-0.3,1.6c-0.1,0.5-0.2,1-0.3,1.4c-0.2,0.8-0.4,1.4-0.4,1.4c0,0.1-0.1,0.1-0.2,0.1c-0.1,0-0.1-0.1-0.1-0.1
			c0,0-0.2-0.6-0.4-1.4c-0.1-0.4-0.2-0.9-0.4-1.4c-0.1-0.5-0.2-1.1-0.3-1.6c-0.1-0.6-0.4-1.1-0.4-1.6c0-0.5,0.2-1,0.3-1.4
			c0.2-0.4,0.4-0.8,0.7-1c0.2-0.2,0.4-0.4,0.4-0.4C749.1,420.6,749.2,420.6,749.3,420.7z"/>
	</g>
	<g>
		<path fill="#F9D142" d="M736.1,417.7c0,0,0.1,0.2,0.1,0.5c0.1,0.3,0.1,0.6,0,1c0,0.4-0.1,0.8-0.4,1.1c-0.3,0.3-0.7,0.5-1.1,0.8
			c-0.3,0.3-0.7,0.6-1,0.8c-0.3,0.2-0.7,0.5-1,0.6c-0.6,0.4-1,0.6-1,0.6c-0.1,0-0.2,0-0.2-0.1c0,0,0-0.1,0-0.1c0,0,0.1-0.4,0.4-1.1
			c0.1-0.3,0.2-0.7,0.4-1.1c0.2-0.4,0.3-0.8,0.5-1.2c0.2-0.4,0.3-0.9,0.5-1.2c0.2-0.3,0.6-0.5,1-0.6c0.4-0.1,0.7-0.2,1-0.2
			c0.3,0,0.5,0,0.5,0C735.9,417.6,736,417.7,736.1,417.7z"/>
	</g>
	<g>
		<path fill="#F9D142" d="M729.1,407.9c0,0,0,0.2,0,0.4c0,0.3-0.1,0.5-0.2,0.8c-0.1,0.3-0.2,0.5-0.5,0.6c-0.2,0.1-0.6-0.1-0.8,0
			c-0.3,0-0.5,0-0.8,0c-0.3,0-0.5,0-0.7-0.1c-0.4,0-0.7-0.1-0.7-0.1c-0.1,0-0.2-0.1-0.1-0.2c0,0,0,0,0-0.1c0,0,0.2-0.3,0.4-0.6
			c0.1-0.2,0.3-0.4,0.5-0.6c0.2-0.2,0.4-0.4,0.6-0.6c0.2-0.2,0.3-0.5,0.6-0.6c0.2-0.1,0.5,0,0.7,0.1c0.3,0.1,0.5,0.3,0.7,0.4
			c0.2,0.2,0.3,0.3,0.3,0.3C729,407.7,729,407.8,729.1,407.9z"/>
	</g>
	<g>
		<path fill="#F9D142" d="M763,417.6c0,0,0.2,0,0.5,0c0.3,0,0.6,0.1,1,0.2c0.4,0.1,0.7,0.3,1,0.6c0.2,0.3,0.3,0.8,0.5,1.2
			c0.2,0.4,0.4,0.8,0.5,1.2c0.2,0.4,0.3,0.8,0.4,1.1c0.2,0.6,0.4,1.1,0.4,1.1c0,0.1,0,0.2-0.1,0.2c0,0-0.1,0-0.1,0
			c0,0-0.4-0.2-1-0.6c-0.3-0.2-0.6-0.4-1-0.6c-0.3-0.2-0.7-0.5-1-0.8c-0.3-0.3-0.8-0.5-1.1-0.8c-0.3-0.3-0.4-0.7-0.4-1.1
			c0-0.4,0-0.7,0-1c0-0.3,0.1-0.5,0.1-0.5C762.8,417.6,762.9,417.6,763,417.6z"/>
	</g>
	<g>
		<path fill="#F9D142" d="M769.9,407.6c0,0,0.1-0.1,0.3-0.3c0.2-0.2,0.4-0.3,0.7-0.4c0.3-0.1,0.5-0.2,0.7-0.1
			c0.2,0.1,0.4,0.4,0.6,0.6c0.2,0.2,0.4,0.4,0.6,0.6c0.2,0.2,0.3,0.4,0.5,0.6c0.3,0.3,0.4,0.6,0.4,0.6c0.1,0.1,0,0.2-0.1,0.3
			c0,0,0,0-0.1,0c0,0-0.3,0.1-0.7,0.1c-0.2,0-0.5,0.1-0.7,0.1c-0.3,0-0.5,0-0.8,0c-0.3,0-0.6,0.1-0.8,0c-0.2-0.1-0.4-0.3-0.5-0.6
			c-0.1-0.3-0.2-0.5-0.2-0.8c0-0.2,0-0.4,0-0.4C769.8,407.8,769.9,407.7,769.9,407.6z"/>
	</g>
</g>
</svg>
