<?xml version="1.0" encoding="UTF-8"?><svg id="Calque_2" xmlns="http://www.w3.org/2000/svg" viewBox="0 0 56.72 41.06"><defs><style>.cls-1{fill:#f2f2f2;}.cls-2{fill:#ccc;}</style></defs><g id="Calque_1-2"><g id="module_LoRa-E5"><g><path class="cls-1" d="M43.53,37.38c-.1,0-.2-.01-.3-.01,0,0-14.65,0-18.45,0-.08,0-.1,0-.1,0-.66-1.66-2.2-2.67-4-2.67-1.83,.03-3.38,1.07-4.03,2.67h-6.8v-1.84c0-2.62,0-5.24,0-7.86,0-.27-.07-.46-.18-.59,1.21-.17,2.08-1.14,2.08-2.39,.04-.61-.19-1.21-.63-1.68-.35-.37-.81-.63-1.29-.73V11.94h1.06s4.85,.01,5.75,0c.62,1.51,2.15,2.6,3.76,2.69,.08,0,.16,0,.24,0,2.06,0,3.52-1.32,4.05-2.64l.02-.06h18.43c.09,.46,.32,.89,.65,1.23,.45,.46,1.07,.71,1.73,.72,1.18,0,2.19-.85,2.42-1.95h7.75v8.21h-.43v-3.18h-7.67v4.1h.85v7.04h-.85v4.14h7.65v-3.08h.47v2.05c0,2.04,0,4.09,0,6.13-1.15,0-7.03,0-7.03,0-.23-1.12-1.2-1.93-2.39-1.93h0c-1.18,0-2.17,.85-2.39,1.97l-.37-.02Z"/><path class="cls-2" d="M10.4,12.44h0s1,.01,1,.01h.12s1.69,0,1.69,0c1,0,2.22,0,3.12,0,.76,1.52,2.37,2.6,4.05,2.68,.09,0,.18,0,.27,0,2.16,0,3.73-1.31,4.4-2.69h17.72c.14,.4,.37,.77,.67,1.08,.55,.55,1.28,.86,2.08,.87h.01s0,0,0,0c1.26,0,2.37-.82,2.78-1.95h6.87v4.03h-8.1v5.1h.85v6.04h-.85v5.14h8.12c0,1.37,0,2.74,0,4.11-.94,0-1.88,0-2.82,0h-1.52s-1.51,0-1.51,0h-.29c-.4-1.14-1.48-1.93-2.77-1.93-1.27,0-2.35,.81-2.77,1.94-.1,0-.2-.01-.3-.01h-1.3s-5.86,0-5.86,0c-3.67,0-7.34,0-11.04,0-.8-1.66-2.45-2.67-4.36-2.67h-.09c-1.84,.03-3.47,1.07-4.27,2.67-1.52,0-3.04,0-4.57,0h-1.41v-1.34c0-2.62,0-5.24,0-7.86,0-.08,0-.16-.01-.24,1.13-.4,1.9-1.43,1.92-2.72,.04-.76-.24-1.49-.77-2.05-.32-.34-.72-.6-1.15-.76V12.44h.06m.68-6.07c-.02,.39,0,.83-.07,1.25-.08,.47-.26,.92-.37,1.39-.42,1.65-1.96,2.93-3.67,2.93-.02,0-.05,0-.07,0-1.55-.03-2.87-.71-4-1.75-.06-.06-.12-.12-.18-.18,.44,.95,1.12,1.65,2.05,2.1,.69,.33,1.37,.49,2.05,.49,.85,0,1.69-.25,2.52-.73v10.09c-.22,.04-.43,.06-.64,.11-1.03,.22-2.1,1.25-2.03,2.76,.06,1.24,1.12,2.41,2.36,2.47,.27,.01,.33,.1,.33,.36,0,3.28,0,6.55,0,9.83v.36c.11,0,.2,.02,.29,.02,2.37,0,4.73,0,7.1,0h0c.18,0,.27-.05,.34-.23,.56-1.47,1.94-2.41,3.53-2.44,.02,0,.05,0,.07,0,1.59,0,2.96,.88,3.56,2.33,.12,.29,.27,.35,.55,.35h0c3.76,0,7.53,0,11.29,0,2.39,0,4.77,0,7.16,0,.13,0,.25,.01,.37,.02,.08,1.73,1.37,2.58,2.45,2.67,.08,0,.16,0,.24,0,.57,0,1.1-.17,1.57-.52,.72-.54,1.08-1.27,1.11-2.18h.38c1.01,0,2.02,0,3.03,0,1.16,0,2.32,0,3.48,0h0c.26,0,.34-.07,.34-.34,0-2.85,0-5.7,0-8.55,0-.1,0-.2-.01-.31h-1.46v3.08h-6.65v-3.14h.85v-8.04h-.85v-3.1h6.67v3.18h1.43V11.45h-7.99c.02-.71-.23-1.3-.68-1.8-.46-.51-1.04-.8-1.72-.86-.09,0-.18-.01-.27-.01-.56,0-1.09,.16-1.56,.51-.73,.54-1.07,1.28-1.12,2.17H24.39c-.06,.13-.11,.25-.16,.37-.46,1.13-1.74,2.32-3.59,2.32-.07,0-.15,0-.22,0-1.41-.07-2.82-1.06-3.35-2.46-.07-.18-.15-.23-.34-.23h0c-.9,0-2.37,0-3.53,0-.98,0-1.74,0-1.81,0,0-.13,0-2.56,0-3.67,0-.51-.12-1-.31-1.41h0Zm34.46,7.02s0,0-.01,0c-1.1,0-1.94-.87-1.93-1.98,0-1.09,.87-1.93,1.95-1.93h0c.9,0,2,.74,1.93,2.09-.05,.98-.91,1.82-1.94,1.82h0Zm-35.62-1.95c.27-.32,.53-.62,.81-.95v.95h-.81Zm-.62,15.16h0c-1.08,0-1.92-.86-1.91-1.96,0-1.08,.85-1.89,1.95-1.93,.02,0,.03,0,.05,0,.91,0,1.95,.8,1.88,1.96,0,1.11-.83,1.92-1.96,1.92h0Zm37,13.23s0,0-.01,0c-1.08,0-1.94-.87-1.94-1.95,0-1.08,.87-1.95,1.94-1.95,1.08,0,1.94,.86,1.95,1.94,0,1.1-.85,1.96-1.94,1.96h0Z"/></g><g><g><path class="cls-1" d="M9.68,4.45c.02,.86-.03,1.7-.41,2.49-.84,1.77-2.66,2.81-4.59,2.64-2.19-.2-3.78-1.8-4.11-3.76C.12,3.21,2,.76,4.6,.52c1.79-.16,3.22,.51,4.28,1.95,.03,.03,.05,.07,.12,.15,0-.26,.66,1.05,.68,1.82Zm-.66,.6c0-2.16-1.74-3.88-3.9-3.91-2.08-.03-3.97,1.7-3.97,3.91,0,2.14,1.77,3.91,3.94,3.91,2.17,0,3.93-1.74,3.93-3.91Z"/><path class="cls-2" d="M5.12,.5c-.17,0-.34,0-.51,.02C2,.76,.12,3.21,.57,5.81c.34,1.96,1.93,3.56,4.11,3.76,.14,.01,.28,.02,.43,.02,1.77,0,3.39-1.01,4.16-2.66,.38-.79,.43-1.63,.41-2.49-.02-.71-.56-1.86-.66-1.86,0,0-.02,.01-.02,.03-.06-.08-.09-.11-.12-.15-.96-1.31-2.21-1.98-3.77-1.98h0Zm-.02,8.45h0c-2.17,0-3.94-1.77-3.94-3.91,0-2.19,1.85-3.91,3.92-3.91,.02,0,.03,0,.05,0,2.16,.03,3.9,1.75,3.9,3.91,0,2.16-1.75,3.91-3.93,3.91h0Z"/></g><g><path class="cls-1" d="M10.18,4.56c1.26,1.77,.98,4.54-1.09,6.07-2.09,1.53-5.08,1.04-6.53-1.11,.11,.08,.17,.11,.22,.15,.5,.38,1.05,.65,1.66,.81,.68,.18,1.33,.43,2.06,.41,1.86-.05,3.52-1.51,3.74-3.37,.1-.81,.24-1.63,.06-2.45-.04-.17-.08-.34-.11-.51Z"/><path class="cls-2" d="M10.18,4.56c.04,.17,.08,.34,.12,.51,.18,.82,.04,1.64-.06,2.45-.22,1.85-1.88,3.32-3.74,3.37-.03,0-.05,0-.08,0-.69,0-1.33-.24-1.98-.41-.61-.16-1.16-.43-1.66-.81-.05-.04-.11-.08-.22-.15,.88,1.31,2.33,2,3.8,2,.95,0,1.91-.29,2.73-.89,2.07-1.53,2.36-4.3,1.09-6.07h0Z"/></g><g><path class="cls-1" d="M1.99,8.66c.47,.24,1.01,.61,1.61,.81,1.02,.33,2.08,.58,3.16,.23,1.44-.46,2.34-1.44,2.76-2.9,.23-.8,.33-1.61,.31-2.43,0-.05,.01-.1,.02-.18,.76,1.44,.58,4.24-1.86,5.68-2.2,1.3-4.92,.48-5.99-1.21Z"/><path class="cls-2" d="M9.84,4.2c0,.07-.02,.13-.02,.18,.02,.83-.08,1.63-.31,2.43-.42,1.46-1.32,2.44-2.76,2.9-.37,.12-.74,.17-1.1,.17-.7,0-1.39-.18-2.06-.4-.6-.2-1.14-.57-1.61-.81,.7,1.11,2.13,1.85,3.65,1.85,.78,0,1.59-.2,2.34-.64,2.44-1.43,2.62-4.24,1.86-5.68h0Z"/></g><g><path class="cls-1" d="M2.42,7.75c-.11-.16-.25-.31-.33-.49-.38-.85-.22-1.65,.21-2.44,.92-1.69,2.85-2.66,4.74-2.33,.66,.12,1.14,.59,1.56,1.1,.04,.04,.04,.11,.07,.21-1.55-.94-3.09-1.03-4.57-.02-1.38,.94-1.87,2.31-1.69,3.98Z"/><path class="cls-2" d="M6.29,2.43c-1.64,0-3.2,.93-4,2.39-.43,.79-.58,1.59-.21,2.44,.08,.18,.22,.33,.33,.49-.18-1.67,.31-3.04,1.69-3.98,.72-.49,1.46-.72,2.2-.72,.78,0,1.57,.26,2.37,.74-.03-.09-.04-.16-.07-.21-.42-.51-.89-.98-1.56-1.1-.25-.04-.5-.07-.75-.07h0Z"/></g><g><path class="cls-1" d="M8.24,2.98c-1.57-1.14-3.21-1.32-4.84-.21-1.44,.98-1.91,2.41-1.59,4.16-.27-.42-.39-.85-.47-1.29-.27-1.47,.5-2.47,1.55-3.3,.94-.75,2.04-1.02,3.23-.89,.53,.06,.97,.35,1.37,.68,.29,.24,.53,.53,.8,.8-.01,.02-.03,.04-.04,.05Z"/><path class="cls-2" d="M5.56,1.41c-.98,0-1.89,.29-2.68,.92-1.05,.84-1.82,1.83-1.55,3.3,.08,.44,.2,.86,.48,1.29-.31-1.75,.16-3.18,1.59-4.16,.74-.51,1.49-.74,2.23-.74,.88,0,1.76,.34,2.61,.95,.01-.02,.03-.04,.04-.05-.26-.27-.51-.56-.8-.8-.4-.34-.84-.63-1.37-.68-.19-.02-.37-.03-.56-.03h0Z"/></g><g><path class="cls-1" d="M8.83,4.65c-2.96-1.58-5.98,.68-6.03,3.42-.06-.11-.15-.22-.18-.34-.24-1.05,.02-1.95,.77-2.73,1.31-1.35,2.88-1.8,4.69-1.33,.56,.14,.81,.37,.75,.97Z"/><path class="cls-2" d="M6.74,3.5c-1.25,0-2.37,.5-3.35,1.51-.75,.77-1.01,1.68-.77,2.73,.03,.12,.12,.23,.18,.34,.04-2.12,1.84-3.94,4.03-3.94,.65,0,1.33,.16,2,.52,.06-.6-.19-.83-.75-.97-.46-.12-.91-.18-1.34-.18h0Z"/></g></g><g><path class="cls-1" d="M25.6,31.68h0s-1.58,0-1.58,0h0s-2.02-.01-2.02-.01v-.97c0-.66-.1-.97-.47-1.09h.45v-1.54h0v-3.31h-.37c.07-.03,.13-.07,.19-.13,.2-.2,.19-.44,.19-.71l-.04-.77h-.07l.07-.3c.03-.12,.04-.17,.04-.21,.02-.31,.04-.58-.17-.79-.05-.05-.11-.1-.16-.13h.31v-1.62h-.45c.37-.14,.47-.46,.47-1.15v-.93h2.02v-.26l.04,.18,.41,.05h1.04s1.6,0,1.6,0h0s4.78,0,4.78,0h0s1.48,0,1.48,0h0s2.22,.01,2.22,.01v2.18h.02v1.51h0v1.54h.27l-.24,.11-.04,.34v1.14h0v4.7s-.02,0-.02,0v2.13h-2.22v.02h-4.64s0,0,0,0h-1.68s-1.45,0-1.45,0Z"/><path class="cls-2" d="M25.01,18.48h0s1,0,1,0h1.6s.53,0,.53,0h0s1,0,1,0h1.7s.56,0,.56,0h0s1,0,1,0h.48s1,.01,1,.01h1.22v2.18h.02v1.51h0v.79h0v2.34h0v1.64h0v1.6h0v.46h-.02v2.13h-2.23v.02h-.4s-1,0-1,0h-1.68s-.56,0-.56,0h0s-1,0-1,0h-1.68s-.45,0-.45,0h0s-1,0-1,0h-.58s-1-.01-1-.01h-1.02v-.47c0-.22-.02-.42-.05-.59h.02v-1.54h0v-4.27c.02-.14,.02-.28,.01-.39,0-.06,0-.12,0-.2v-.11s-.04-.66-.04-.66v-.02c.03-.1,.04-.18,.05-.25,.01-.19,.03-.41-.02-.64v-2.43h-.03c.04-.19,.05-.4,.05-.64v-.43h2.02v-.03h.49m8.22-2.59c-.22,0-.29,.08-.28,.31,.02,.42,0,.85,0,1.29h-.57c0-.3,0-.58,0-.87-.01-.72,.12-.61-.63-.63,0,0-.02,0-.03,0-.21,0-.28,.08-.27,.3,.02,.39,0,.79,0,1.19h-.69c0-.45,0-.87,0-1.3,0-.08-.08-.21-.13-.21-.12-.01-.24-.01-.37-.01-.14,0-.28,0-.43,0v1.52h-.7c0-.33,0-.65,0-.96,0-.5,.05-.53-.31-.53-.05,0-.11,0-.18,0-.02,0-.04,0-.05,0-.02,0-.04,0-.06,0-.3,0-.3,.02-.31,.36,0,.38,0,.75,0,1.13h-.68c0-.44,0-.85,0-1.27,0-.08-.09-.23-.15-.23-.11-.01-.23-.02-.35-.02-.14,0-.28,0-.44,0v1.52h-.6c0-.32,0-.62,0-.92-.01-.65,.1-.56-.58-.58-.01,0-.02,0-.03,0-.23,0-.32,.08-.3,.33,.02,.39,0,.77,0,1.16h-.63s-.02-.08-.02-.1c0-.26,0-.52,0-.78,0-.61,0-.6-.6-.61,0,0-.01,0-.02,0-.23,0-.33,.07-.31,.33,.02,.39,0,.77,0,1.2h-2.02v1.43q0,.74-.74,.74c-.6,0-.58,0-.6,.61,0,.24,.08,.31,.27,.31,.02,0,.03,0,.05,0,.13,0,.27,0,.4,0,.2,0,.4,0,.59,0v.62h-1.29v.91c.17,0,.34,0,.5,0,.12,0,.25,0,.37,0q.48,0,.45,.47s-.02,.07-.03,.15h-.69c-.62,0-.61,0-.62,.62,0,.22,.06,.3,.26,.3,.01,0,.03,0,.04,0,.14,0,.27,0,.41,0,.2,0,.41,0,.61,0,0,.13,.01,.2,.01,.27q0,.41-.4,.41c-.12,0-.24,0-.36,0-.18,0-.37,0-.55,0v.93h1.3v.71c-.15,0-.29,0-.43,0-.08,0-.16,0-.25,0-.04,0-.08,0-.11,0-.1,0-.19,0-.25,0-.29,0-.24,.05-.25,.63,0,.21,.06,.29,.26,.29,.01,0,.02,0,.03,0,.13,0,.27,0,.4,0,.2,0,.4,0,.6,0v.7c-.2,0-.39,0-.58,0-.16,0-.33,0-.49,0-.08,0-.23,.08-.24,.14-.03,.24-.01,.49-.01,.78h1.31v.61h-1.29c0,.1-.02,.16-.02,.22q-.02,.7,.67,.7t.66,.67v1.47h2.02c0,.37,0,.71,0,1.05,0,.07,.07,.2,.11,.2,.13,0,.26,.01,.4,.01s.28,0,.42,0v-1.25h.65v.64c0,.62,0,.61,.62,.62,0,0,0,0,.02,0,.22,0,.3-.07,.28-.3-.02-.32,0-.64,0-.95h.62v1.23h.92v-1.23h.68v.62c0,.61,0,.64,.52,.64,.04,0,.08,0,.12,0,.21,0,.27-.08,.27-.28-.01-.32,0-.64,0-.97h.73v1.22h.93v-1.22h.68v1.25c.15,0,.28,0,.41,0,.08,0,.16,0,.24,0,.02,0,.04,0,.06,0,.18,0,.23-.1,.22-.29-.01-.32,0-.64,0-.96h.57v.65c0,.61,0,.6,.63,.61h0c.22,0,.29-.07,.28-.29-.01-.32,0-.64,0-.99h2.23v-2.13c.26,0,.5,0,.74,0,.16,0,.33,0,.49,0,.39,0,.4,0,.39-.4,0-.48,.03-.53-.22-.53-.06,0-.14,0-.24,0-.02,0-.05,0-.07,0-.14,0-.27,0-.41,0-.22,0-.44,0-.65,0v-.62c.2,0,.4,0,.59,0,.12,0,.23,0,.35,0,.03,0,.06,0,.08,0,.09,0,.17,0,.23,0,.27,0,.23-.05,.23-.55,0-.36,0-.36-.38-.36-.15,0-.29,0-.44,0-.22,0-.45,0-.67,0v-.69h.94c.59,0,.57,0,.59-.59,0-.25-.08-.32-.29-.32-.01,0-.03,0-.04,0-.16,0-.32,0-.48,0-.24,0-.47,0-.71,0v-.72c.2,0,.39,0,.57,0,.11,0,.22,0,.33,0,.03,0,.07,0,.1,0,.11,0,.19,0,.25,0,.27,0,.22-.05,.24-.6,0-.23-.05-.34-.28-.34-.01,0-.03,0-.05,0-.15,0-.31,.01-.47,.01-.23,0-.47,0-.7,0v-.64s.06-.03,.09-.03c.3,0,.59,0,.89,0q.54,0,.54-.54,0-.36-.36-.36c-.15,0-.3,0-.45,0-.24,0-.47,0-.7,0v-.62c.19,0,.37,0,.54,0,.1,0,.21,0,.31,0,.04,0,.07,0,.11,0,.11,0,.2,0,.27,0,.3,0,.25-.05,.26-.63,0-.22-.07-.3-.27-.3-.01,0-.02,0-.04,0-.16,0-.32,0-.49,0-.23,0-.47,0-.71,0v-.6c.2,0,.39,0,.58,0,.11,0,.23,0,.34,0,.03,0,.06,0,.09,0,.08,0,.15,0,.21,0,.31,0,.26-.04,.28-.59,0-.24-.07-.33-.29-.33-.01,0-.03,0-.05,0-.16,0-.31,0-.47,0-.23,0-.47,0-.72,0v-2.18h-2.22c0-.35,0-.68,0-1-.01-.7,.1-.59-.6-.61-.01,0-.02,0-.04,0h0Z"/></g></g></g></svg>