<?xml version="1.0" encoding="UTF-8"?>
<svg
    id="hand-right-sensors-nao-module"
    xmlns="http://www.w3.org/2000/svg"
    viewBox="0 0 46.9 66.58">
    <defs>
        <style>
            .cls-1 {
                fill: #393939;
            }

            .cls-2 {
                fill: #e6e6e6;
                stroke: #ccc;
                stroke-miterlimit: 10;
            }

            .cls-3 {
                fill: #b3b3b3;
            }
        </style>
    </defs>
    <g id="Calque_1-2">
        <g id="hand-off">
            <polygon id="hand-top" class="cls-3"
                points="16.14 0 31.58 .26 31.58 2.87 30.07 2.87 30.07 5.65 29.55 5.65 29.55 14.3 18.24 14.3 18.24 5.83 17.43 5.83 17.43 2.58 16.14 2.58 16.14 0" />
            <path id="hand" class="cls-2"
                d="M45.27,45.66c0-12.3-5.22-23.78-6.15-25.18-.93-1.39-2.51-5.7-2.51-5.7v-2.09H10.47v2.09s-1.58,4.31-2.51,5.7c-.93,1.39-6.15,12.88-6.15,25.18s-1.96,20.42,21.41,20.42h.63c23.37,0,21.41-8.12,21.41-20.42Z" />
            <path id="left" class="cls-1"
                d="M46.9,51.53s-.92,1.99-1.68,2.12-1.58.44-1.87-5.14c-.91-17.57-7.62-31.01-5.03-31.06,0,0,6.19,7.11,8.58,34.08Z" />
            <path id="back" class="cls-1"
                d="M37.73,32.2c-1.03-3.3-3.91-14.34-13.65-14.73v-.02c-.09,0-.18,0-.27,0-.09,0-.18,0-.27,0v.02c-9.74.4-12.63,11.43-13.65,14.73-1.04,3.36-2.9,12.18-.58,18.33,2.12,5.62,12.69,5.52,14.5,5.46,1.8.06,12.38.16,14.5-5.46,2.32-6.15.46-14.97-.58-18.33Z" />
            <path id="right" class="cls-1"
                d="M0,52.51s.92,1.99,1.68,2.12,1.58.44,1.87-5.14c.91-17.57,7.62-31.01,5.03-31.06,0,0-6.19,7.11-8.58,34.08Z" />
        </g>
    </g>
</svg>