<?xml version="1.0" encoding="UTF-8"?>
<svg
    id="head-sensors-nao-module"
    xmlns="http://www.w3.org/2000/svg"
    viewBox="0 0 64.98 59.08">
    <defs>
        <style>
            .cls-1-head-sensor {
                fill: #393939;
            }

            .cls-2-head-sensor {
                fill: #e6e6e6;
                stroke: #ccc;
            }

            .cls-2-head-sensor,
            .cls-3-head-sensor {
                stroke-miterlimit: 10;
            }

            .cls-4-head-sensor {
                fill: #b3b3b3;
            }

            .cls-3-head-sensor {
                fill: none;
                stroke: #393939;
            }
        </style>
    </defs>
    <g id="Calque_1-2">
        <g id="head-off">
            <path id="head" class="cls-2-head-sensor"
                d="M61.08,11.11h0c-6.68-1.92-8.91-3.14-13.47-6.17-3.98-2.64-10.05-4.44-14.54-4.44h-1.15c-4.48,0-10.55,1.8-14.54,4.44-4.56,3.03-6.79,4.25-13.47,6.17h0c-1.88,0-3.4,1.52-3.4,3.4v28.45c0,1.88,1.52,3.4,3.4,3.4h0c3.2.92,5.38,1.68,7.28,2.55l.07,2.29c6.08,4.66,16.17,7.37,20.65,7.37h1.15c4.48,0,16.01-2.91,21.03-7.37v-2.43c1.83-.82,3.95-1.54,6.98-2.41h0c1.88,0,3.4-1.52,3.4-3.4V14.51c0-1.88-1.52-3.4-3.4-3.4Z" />
            <path id="headtop" class="cls-4-head-sensor"
                d="M54.1,15.94c-.35-4.47-1.93-7.98-6.5-11-3.98-2.64-10.05-4.44-14.54-4.44h-1.15c-4.48,0-10.55,1.8-14.54,4.44-4.56,3.03-6.15,6.54-6.5,11l.17,12.8-.17,12.8c.35,4.47,1.93,7.98,6.5,11,3.98,2.64,10.05,4.44,14.54,4.44h1.15c4.48,0,10.55-1.8,14.54-4.44,4.56-3.03,6.15-6.54,6.5-11l-.17-12.8.17-12.8Z" />
            <ellipse id="camera" cx="32.59"
                cy="53.61" rx="1.67" ry=".73" />
            <path id="front" class="cls-1-head-sensor"
                d="M40.31,37v2.39c0,4.32-3.5,7.82-7.82,7.82h0c-4.32,0-7.82-3.5-7.82-7.82v-2.31l15.63-.09Z" />
            <polygon id="middle" class="cls-1-head-sensor"
                points="24.77 22.27 24.77 35.23 40.4 35.23 40.4 22.18 24.77 22.27" />
            <path id="rear" class="cls-1-head-sensor"
                d="M24.67,20.35v-2.27c0-4.32,3.5-7.82,7.82-7.82h0c4.32,0,7.82,3.5,7.82,7.82v2.27h-15.63Z" />
            <rect id="outligne" class="cls-3-head-sensor"
                x="24.67" y="10.27" width="15.63"
                height="36.94" rx="7.82"
                ry="7.82" />
        </g>
    </g>
</svg>