<?xml version="1.0" encoding="UTF-8"?>
<svg
    id="bumpers-sensors-nao-module"
    xmlns="http://www.w3.org/2000/svg"
    viewBox="0 0 84.42 53.61">
    <defs>
        <style>
            .cls-1-bumper-sensor {
                fill: #393939;
            }

            .cls-2-bumper-sensor {
                fill: #fff;
            }

            .cls-3-bumper-sensor {
                fill: #e6e6e6;
                stroke: #ccc;
                stroke-miterlimit: 10;
            }

            .cls-4-bumper-sensor {
                fill: #b3b3b3;
            }
        </style>
    </defs>
    <g id="Calque_1-2">
        <g id="feet-off">
            <g id="feet-right">
                <path id="feet" class="cls-3-bumper-sensor"
                    d="M72.84,14.79s5.79,1.71,8.68,6.23,3.64,12.77-5.12,15.96c-8.76,3.19-14.03,1.91-17.59.39-4.69-2-9.5-7.15-13.88-9.6-4.38-2.45-8.24-3.93-8.39-4.3s-.17-5.51.9-8.46,2.38-3.9,2.46-4.51,9.92-3.03,9.92-3.03c0,0,.86.25.98.41s.33.57.66.82,1.85.66,2.99.74,5.21-.41,5.52-.29,3.87,3.08,5.47,5,7.38.64,7.38.64Z" />
                <path id="feet-top" class="cls-4-bumper-sensor"
                    d="M37.45,15.01c-.04-1.15,2.38-3.9,2.46-4.51.04-.3-1.42-9.96,5.35-10.46,8.32-.62,5.44,7.68,5.56,7.84s.33.57.66.82,1.85.66,2.99.74,5.21-.41,5.52-.29,3.87,3.08,5.47,5c.8.96,2.65,1.12,4.29,1.04,0,0,.44.98,2.17,1.87s3.36,1.19,4.7,2.08,6.18,7.45-1.12,10.86c-3.5,1.64-7.52-.52-11.68-3.2s-3.65-3.35-8.04-4.02-5.73.74-10.34-1.12c-4.61-1.86-7.86-2.66-7.99-6.67Z" />
                <ellipse id="round" class="cls-2-bumper-sensor"
                    cx="69.64" cy="23.94"
                    rx="3.46" ry="5.82"
                    transform="translate(31.35 86.84) rotate(-77.64)" />
                <path id="left" class="cls-1-bumper-sensor"
                    d="M76.84,35.88c1.62-.68,6.86-2.33,7.42-5.39.56-3.06-.46-5.98-1.05-5.38s-1.88,6.89-6.8,8.23-10.4-2.16-12.94-2.07-4.06,1.81-4.06,2.89,1.42,3.36,4.1,3.71,9.76-.49,13.33-1.98Z" />
            </g>
            <g id="ffet-left">
                <path id="feet-2" class="cls-3-bumper-sensor"
                    d="M36.87,28.95s5.79,1.71,8.68,6.23,3.64,12.77-5.12,15.96-14.03,1.91-17.59.39c-4.69-2-9.5-7.15-13.88-9.6S.72,38,.57,37.63s-.17-5.51.9-8.46c1.07-2.95,2.38-3.9,2.46-4.51s9.92-3.03,9.92-3.03c0,0,.86.25.98.41s.33.57.66.82,1.85.66,2.99.74,5.21-.41,5.52-.29,3.87,3.08,5.47,5,7.38.64,7.38.64Z" />
                <path id="feet-top-2"
                    class="cls-4-bumper-sensor"
                    d="M1.47,29.17c-.04-1.15,2.38-3.9,2.46-4.51.04-.3-1.42-9.96,5.35-10.46,8.32-.62,5.44,7.68,5.56,7.84s.33.57.66.82,1.85.66,2.99.74,5.21-.41,5.52-.29,3.87,3.08,5.47,5c.8.96,2.65,1.12,4.29,1.04,0,0,.44.98,2.17,1.87s3.36,1.19,4.7,2.08,6.18,7.45-1.12,10.86c-3.5,1.64-7.52-.52-11.68-3.2-4.17-2.68-3.65-3.35-8.04-4.02s-5.73.74-10.34-1.12-7.86-2.66-7.99-6.67Z" />
                <ellipse id="round-2"
                    class="cls-2-bumper-sensor" cx="33.67"
                    cy="38.09" rx="3.46" ry="5.82"
                    transform="translate(-10.75 62.83) rotate(-77.64)" />
                <path id="right" class="cls-1-bumper-sensor"
                    d="M40.86,50.04c1.62-.68,6.86-2.33,7.42-5.39s-.46-5.98-1.05-5.38-1.88,6.89-6.8,8.23-10.4-2.16-12.94-2.07-4.06,1.81-4.06,2.89,1.42,3.36,4.1,3.71,9.76-.49,13.33-1.98Z" />
            </g>
        </g>
    </g>
</svg>