<?xml version="1.0" encoding="utf-8"?>
<!-- Generator: Adobe Illustrator 18.1.1, SVG Export Plug-In . SVG Version: 6.00 Build 0)  -->
<svg version="1.1" id="Calque_1" xmlns="http://www.w3.org/2000/svg" xmlns:xlink="http://www.w3.org/1999/xlink" x="0px" y="0px"
	 viewBox="0 0 1280 800" enable-background="new 0 0 1280 800" xml:space="preserve">
<g>
	<path fill="none" stroke="#CCCCCC" stroke-width="2" stroke-miterlimit="10" d="M1074.8,622.9v-29c0-2.1-1.7-3.8-3.8-3.8h0
		c-2.1,0-3.8,1.7-3.8,3.8v29c-3.1,1.6-5.3,5.1-4.7,9c0.6,4.2,4.2,7.4,8.4,7.4c4.8,0.1,8.8-3.8,8.8-8.6
		C1079.6,627.3,1077.5,624.3,1074.8,622.9z"/>
</g>
<line fill="none" stroke="#CCCCCC" stroke-linecap="round" stroke-miterlimit="10" x1="1062" y1="622.5" x2="1052" y2="622.5"/>
<line fill="none" stroke="#CCCCCC" stroke-linecap="round" stroke-miterlimit="10" x1="1062" y1="619.5" x2="1057" y2="619.5"/>
<line fill="none" stroke="#CCCCCC" stroke-linecap="round" stroke-miterlimit="10" x1="1062" y1="616.5" x2="1057" y2="616.5"/>
<line fill="none" stroke="#CCCCCC" stroke-linecap="round" stroke-miterlimit="10" x1="1062" y1="612.5" x2="1057" y2="612.5"/>
<line fill="none" stroke="#CCCCCC" stroke-linecap="round" stroke-miterlimit="10" x1="1062" y1="609.5" x2="1057" y2="609.5"/>
<line fill="none" stroke="#CCCCCC" stroke-linecap="round" stroke-miterlimit="10" x1="1062" y1="606.5" x2="1052" y2="606.5"/>
<line fill="none" stroke="#CCCCCC" stroke-linecap="round" stroke-miterlimit="10" x1="1062" y1="603.5" x2="1057" y2="603.5"/>
<line fill="none" stroke="#CCCCCC" stroke-linecap="round" stroke-miterlimit="10" x1="1062" y1="600.5" x2="1057" y2="600.5"/>
<line fill="none" stroke="#CCCCCC" stroke-linecap="round" stroke-miterlimit="10" x1="1062" y1="596.5" x2="1057" y2="596.5"/>
<line fill="none" stroke="#CCCCCC" stroke-linecap="round" stroke-miterlimit="10" x1="1062" y1="593.5" x2="1057" y2="593.5"/>
<line fill="none" stroke="#CCCCCC" stroke-linecap="round" stroke-miterlimit="10" x1="1062" y1="590.5" x2="1052" y2="590.5"/>
</svg>
