<?xml version="1.0" encoding="utf-8"?>
<!-- Generator: Adobe Illustrator 18.1.1, SVG Export Plug-In . SVG Version: 6.00 Build 0)  -->
<svg version="1.1" id="Calque_1" xmlns="http://www.w3.org/2000/svg" xmlns:xlink="http://www.w3.org/1999/xlink" x="0px" y="0px"
	 viewBox="0 0 1280 800" enable-background="new 0 0 1280 800" xml:space="preserve">
<g>
	<path fill="none" stroke="#E6E6E6" stroke-width="3" stroke-linecap="round" stroke-linejoin="round" stroke-miterlimit="10" d="
		M1049.2,608.7c3.7-3.9,9-6.4,14.8-6.4c5.8,0,11.1,2.4,14.8,6.3"/>
	<path fill="none" stroke="#E6E6E6" stroke-width="3" stroke-linecap="round" stroke-linejoin="round" stroke-miterlimit="10" d="
		M1043.2,602.6c5.3-5.5,12.7-8.9,20.9-8.9c8.2,0,15.7,3.4,20.9,8.9"/>
</g>
<path fill="none" stroke="#E6E6E6" stroke-width="3" stroke-linecap="round" stroke-linejoin="round" stroke-miterlimit="10" d="
	M1073.5,614.4c-2.3-2.5-5.6-4-9.2-4c-3.8,0-7.1,1.7-9.5,4.3"/>
<path fill="#F2F2F2" stroke="#CCCCCC" stroke-miterlimit="10" d="M1082.8,643.1h-37.4c-2.8,0-5-2.3-5-5v-14c0-2.8,2.3-5,5-5h37.4
	c2.8,0,5,2.3,5,5v14C1087.8,640.9,1085.6,643.1,1082.8,643.1z"/>
<circle fill="#CCCCCC" stroke="#B3B3B3" stroke-miterlimit="10" cx="1075.5" cy="631.2" r="8.7"/>
<circle fill="#CCCCCC" stroke="#B3B3B3" stroke-linecap="round" stroke-linejoin="round" stroke-miterlimit="10" cx="1052.7" cy="631.2" r="8.8"/>
<line fill="none" stroke="#E6E6E6" stroke-linecap="round" stroke-linejoin="round" stroke-miterlimit="10" x1="1044.9" y1="634.2" x2="1049.9" y2="639.1"/>
<line fill="none" stroke="#E6E6E6" stroke-linecap="round" stroke-linejoin="round" stroke-miterlimit="10" x1="1044.3" y1="631" x2="1053" y2="639.7"/>
<line fill="none" stroke="#E6E6E6" stroke-linecap="round" stroke-linejoin="round" stroke-miterlimit="10" x1="1045.1" y1="635.4" x2="1056.7" y2="623.8"/>
<line fill="none" stroke="#E6E6E6" stroke-linecap="round" stroke-linejoin="round" stroke-miterlimit="10" x1="1044.6" y1="633.3" x2="1055" y2="622.9"/>
<line fill="none" stroke="#E6E6E6" stroke-linecap="round" stroke-linejoin="round" stroke-miterlimit="10" x1="1044.1" y1="631" x2="1052.5" y2="622.6"/>
<line fill="none" stroke="#E6E6E6" stroke-linecap="round" stroke-linejoin="round" stroke-miterlimit="10" x1="1050.2" y1="622.9" x2="1060.9" y2="633.5"/>
<line fill="none" stroke="#E6E6E6" stroke-linecap="round" stroke-linejoin="round" stroke-miterlimit="10" x1="1052.4" y1="622.4" x2="1061.2" y2="631.2"/>
<line fill="none" stroke="#E6E6E6" stroke-linecap="round" stroke-linejoin="round" stroke-miterlimit="10" x1="1051.2" y1="639.5" x2="1061" y2="629.7"/>
<line fill="none" stroke="#E6E6E6" stroke-linecap="round" stroke-linejoin="round" stroke-miterlimit="10" x1="1049" y1="639" x2="1060.6" y2="627.4"/>
<line fill="none" stroke="#E6E6E6" stroke-linecap="round" stroke-linejoin="round" stroke-miterlimit="10" x1="1047.5" y1="638" x2="1059.5" y2="625.9"/>
<line fill="none" stroke="#E6E6E6" stroke-linecap="round" stroke-linejoin="round" stroke-miterlimit="10" x1="1046.2" y1="636.7" x2="1058.3" y2="624.6"/>
<line fill="none" stroke="#E6E6E6" stroke-linecap="round" stroke-linejoin="round" stroke-miterlimit="10" x1="1053.5" y1="639.8" x2="1061.4" y2="631.9"/>
<line fill="none" stroke="#E6E6E6" stroke-linecap="round" stroke-linejoin="round" stroke-miterlimit="10" x1="1044.7" y1="627.9" x2="1049.4" y2="623.3"/>
<line fill="none" stroke="#E6E6E6" stroke-linecap="round" stroke-linejoin="round" stroke-miterlimit="10" x1="1046.9" y1="625" x2="1059" y2="637.1"/>
<line fill="none" stroke="#E6E6E6" stroke-linecap="round" stroke-linejoin="round" stroke-miterlimit="10" x1="1048.6" y1="623.8" x2="1060.1" y2="635.4"/>
<line fill="none" stroke="#E6E6E6" stroke-linecap="round" stroke-linejoin="round" stroke-miterlimit="10" x1="1045.6" y1="626.5" x2="1057.4" y2="638.3"/>
<line fill="none" stroke="#E6E6E6" stroke-linecap="round" stroke-linejoin="round" stroke-miterlimit="10" x1="1044.5" y1="628.4" x2="1055.6" y2="639.4"/>
<line fill="none" stroke="#E6E6E6" stroke-linecap="round" stroke-linejoin="round" stroke-miterlimit="10" x1="1055.5" y1="622.9" x2="1060.9" y2="628.2"/>
<circle fill="none" stroke="#B3B3B3" stroke-linecap="round" stroke-linejoin="round" stroke-miterlimit="10" cx="1052.7" cy="631.2" r="8.8"/>
<line fill="none" stroke="#E6E6E6" stroke-linecap="round" stroke-linejoin="round" stroke-miterlimit="10" x1="1067.8" y1="634.2" x2="1072.7" y2="639.1"/>
<line fill="none" stroke="#E6E6E6" stroke-linecap="round" stroke-linejoin="round" stroke-miterlimit="10" x1="1067.2" y1="631" x2="1075.8" y2="639.6"/>
<line fill="none" stroke="#E6E6E6" stroke-linecap="round" stroke-linejoin="round" stroke-miterlimit="10" x1="1068" y1="635.4" x2="1079.5" y2="623.9"/>
<line fill="none" stroke="#E6E6E6" stroke-linecap="round" stroke-linejoin="round" stroke-miterlimit="10" x1="1067.4" y1="633.3" x2="1077.8" y2="623"/>
<line fill="none" stroke="#E6E6E6" stroke-linecap="round" stroke-linejoin="round" stroke-miterlimit="10" x1="1067" y1="631" x2="1075.3" y2="622.7"/>
<line fill="none" stroke="#E6E6E6" stroke-linecap="round" stroke-linejoin="round" stroke-miterlimit="10" x1="1073.1" y1="623" x2="1083.6" y2="633.5"/>
<line fill="none" stroke="#E6E6E6" stroke-linecap="round" stroke-linejoin="round" stroke-miterlimit="10" x1="1075.3" y1="622.5" x2="1083.9" y2="631.2"/>
<line fill="none" stroke="#E6E6E6" stroke-linecap="round" stroke-linejoin="round" stroke-miterlimit="10" x1="1074" y1="639.5" x2="1083.8" y2="629.7"/>
<line fill="none" stroke="#E6E6E6" stroke-linecap="round" stroke-linejoin="round" stroke-miterlimit="10" x1="1071.9" y1="638.9" x2="1083.4" y2="627.4"/>
<line fill="none" stroke="#E6E6E6" stroke-linecap="round" stroke-linejoin="round" stroke-miterlimit="10" x1="1070.3" y1="637.9" x2="1082.3" y2="626"/>
<line fill="none" stroke="#E6E6E6" stroke-linecap="round" stroke-linejoin="round" stroke-miterlimit="10" x1="1069" y1="636.6" x2="1081" y2="624.6"/>
<line fill="none" stroke="#E6E6E6" stroke-linecap="round" stroke-linejoin="round" stroke-miterlimit="10" x1="1076.7" y1="639.7" x2="1084.5" y2="631.9"/>
<line fill="none" stroke="#E6E6E6" stroke-linecap="round" stroke-linejoin="round" stroke-miterlimit="10" x1="1067.6" y1="628" x2="1072.2" y2="623.4"/>
<line fill="none" stroke="#E6E6E6" stroke-linecap="round" stroke-linejoin="round" stroke-miterlimit="10" x1="1069.8" y1="625.1" x2="1081.7" y2="637"/>
<line fill="none" stroke="#E6E6E6" stroke-linecap="round" stroke-linejoin="round" stroke-miterlimit="10" x1="1071.4" y1="623.9" x2="1082.9" y2="635.3"/>
<line fill="none" stroke="#E6E6E6" stroke-linecap="round" stroke-linejoin="round" stroke-miterlimit="10" x1="1068.5" y1="626.5" x2="1080.2" y2="638.2"/>
<line fill="none" stroke="#E6E6E6" stroke-linecap="round" stroke-linejoin="round" stroke-miterlimit="10" x1="1067.4" y1="628.4" x2="1078.3" y2="639.3"/>
<line fill="none" stroke="#E6E6E6" stroke-linecap="round" stroke-linejoin="round" stroke-miterlimit="10" x1="1078.3" y1="623" x2="1083.6" y2="628.3"/>
<circle fill="none" stroke="#B3B3B3" stroke-linecap="round" stroke-linejoin="round" stroke-miterlimit="10" cx="1075.5" cy="631.2" r="8.7"/>
</svg>
