<?xml version="1.0" encoding="UTF-8"?>
<svg id="Calque_2"
    xmlns="http://www.w3.org/2000/svg"
    xmlns:xlink="http://www.w3.org/1999/xlink" viewBox="0 0 238.63 200.21">
    <defs>
        <style>.cls-1,.cls-2,.cls-3,.cls-4,.cls-5,.cls-6,.cls-7,.cls-8{fill:none;}.cls-2{clip-path:url(#clippath-5);}.cls-3{clip-path:url(#clippath-3);}.cls-4{clip-path:url(#clippath-4);}.cls-5{clip-path:url(#clippath-2);}.cls-6{clip-path:url(#clippath-1);}.cls-9{fill:#f2f2f2;}.cls-10{fill:#ecdb64;}.cls-11{fill:#e6e4d6;}.cls-12{fill:#fff;}.cls-13{fill:#eddc7a;}.cls-14{fill:#ffc152;}.cls-15{fill:#e4e4e4;}.cls-16{fill:#7d7d7d;}.cls-17{fill:#333;}.cls-18{fill:#ccba52;}.cls-19{fill:#cacaca;}.cls-20{fill:#132a4e;}.cls-21{fill:#22b373;}.cls-22{fill:#0e1f38;}.cls-23{fill:#45464a;}.cls-24{fill:#1b1b1b;}.cls-25{fill:#727272;}.cls-26{fill:#545454;}.cls-27{fill:#24a069;}.cls-7{stroke:#000;stroke-miterlimit:10;}.cls-8{clip-path:url(#clippath);}</style>
        <clipPath id="clippath">
            <ellipse class="cls-1" cx="224.65" cy="77.1" rx="3.5" ry="14.78"/>
        </clipPath>
        <clipPath id="clippath-1">
            <rect class="cls-1" x="220.99" y="62.3" width="7.14" height="29.6"/>
        </clipPath>
        <clipPath id="clippath-2">
            <rect class="cls-1" x="221.14" y="62.3" width="7" height="30.21"/>
        </clipPath>
        <clipPath id="clippath-3">
            <ellipse class="cls-1" cx="224.65" cy="125.01" rx="3.5" ry="14.78"/>
        </clipPath>
        <clipPath id="clippath-4">
            <rect class="cls-1" x="220.99" y="110.21" width="7.14" height="29.6"/>
        </clipPath>
        <clipPath id="clippath-5">
            <rect class="cls-1" x="221.14" y="110.21" width="7" height="30.21"/>
        </clipPath>
    </defs>
    <g id="Calque_1-2">
        <g id="kitronic">
            <path id="socle" class="cls-27" d="m238.32,50.09l-4.63-19.97c-.84-3.63-4.07-6.19-7.79-6.19h-11.99c-1.1,0-2,.9-2,2v9.64c0,1.12-.91,2.02-2.03,2l-37.87.13c-.61,0-1.19-.27-1.57-.75l-1.62-2.02c-.38-.47-.95-.75-1.56-.75h-61.64c-.73,0-1.4.39-1.75,1.03l-.94,1.71c-.35.63-1.02,1.03-1.74,1.03l-19.3.07c-1.07,0-1.96-.84-2.01-1.92l-.4-9.48c-.05-1.11-.98-1.97-2.09-1.91,0,0-26.61-.5-35.45.11-6.63.46-25.36,3.57-25.36,3.57-4.38.05-9.13,4.15-10.01,8.44L.31,63.75c-.21.89-.31,1.8-.31,2.72v68.23c0,.91.1,1.83.31,2.72l6.26,26.92c.87,4.29,5.63,8.39,10.01,8.44,0,0,18.73,3.11,25.36,3.57,8.84.61,35.45.11,35.45.11,1.11.05,2.05-.81,2.09-1.91l.4-9.48c.04-1.07.93-1.92,2.01-1.92l19.3.07c.73,0,1.39.4,1.74,1.03l.94,1.71c.35.64,1.02,1.03,1.75,1.03h61.64c.61,0,1.18-.28,1.56-.75l1.62-2.02c.38-.48.96-.75,1.57-.75l37.87.13c1.12-.02,2.03.88,2.03,2v9.64c0,1.1.9,2,2,2h11.99c3.72,0,6.95-2.57,7.79-6.19l4.63-19.97c.19-.84.3-1.69.31-2.55V52.65c-.01-.86-.11-1.72-.31-2.55ZM40.37,112.71c-1.03,0-1.87-.84-1.87-1.87s.84-1.87,1.87-1.87,1.87.84,1.87,1.87-.84,1.87-1.87,1.87Zm0-21.81c-1.03,0-1.87-.84-1.87-1.87s.84-1.87,1.87-1.87,1.87.84,1.87,1.87-.84,1.87-1.87,1.87Zm88.85,21.81c-1.03,0-1.87-.84-1.87-1.87s.84-1.87,1.87-1.87,1.87.84,1.87,1.87-.84,1.87-1.87,1.87Zm0-21.81c-1.03,0-1.87-.84-1.87-1.87s.84-1.87,1.87-1.87,1.87.84,1.87,1.87-.84,1.87-1.87,1.87Zm16.72,19.31c-5.67,0-10.26-4.59-10.26-10.26s4.59-10.26,10.26-10.26,10.26,4.59,10.26,10.26-4.59,10.26-10.26,10.26Z"/>
            <g id="screws">
                <circle class="cls-14" cx="222.84" cy="31.48" r="6.35"/>
                <circle class="cls-12" cx="222.84" cy="31.48" r="2.6"/>
                <circle class="cls-14" cx="179.46" cy="100.3" r="6.35"/>
                <circle class="cls-12" cx="179.46" cy="100.3" r="2.6"/>
                <circle class="cls-14" cx="222.84" cy="168.67" r="6.35"/>
                <circle class="cls-12" cx="222.84" cy="168.67" r="2.6"/>
                <circle id="usb" class="cls-16" cx="25.31" cy="100.53" r="7.71"/>
            </g>
            <g id="open">
                <path class="cls-12" d="m162.67,109.78l-4.08-5.82c-1.76,5.13-6.62,8.82-12.34,8.82-.42,0-.83-.02-1.23-.06l4.43,6.33c1.24,1.78,3.72,2.21,5.49.97l6.76-4.74c1.78-1.24,2.21-3.72.97-5.49Z"/>
                <path class="cls-12" d="m152.69,121.22c-.26,0-.52-.02-.79-.07-1.17-.21-2.19-.85-2.87-1.82l-5.06-7.22,1.08.1c.39.04.79.06,1.19.06,5.36,0,10.12-3.41,11.87-8.48l.32-.93,4.64,6.63c1.41,2.01.92,4.78-1.09,6.19l-6.76,4.74c-.75.53-1.63.8-2.53.8Zm-6.68-7.95l3.84,5.48c.53.75,1.32,1.25,2.22,1.41.9.16,1.82-.04,2.57-.57l6.76-4.74c1.56-1.09,1.94-3.24.85-4.8l-3.54-5.05c-2.14,5.05-7.2,8.36-12.7,8.26Z"/>
                <path class="cls-12" d="m144.96,113.21c-7-.66-12.28-6.46-12.28-13.5,0-7.48,6.08-13.56,13.56-13.56s13.56,6.08,13.56,13.56c0,1.48-.25,2.97-.75,4.41l-.95-.33c.46-1.33.69-2.71.69-4.08,0-6.93-5.63-12.56-12.56-12.56s-12.56,5.64-12.56,12.56c0,6.52,4.89,11.89,11.38,12.5l-.09,1Z"/>
                <path class="cls-21" d="m161.51,112.57c-.21.21-.51.48-.91.77-.5.36-.94.5-1.32.46-.35-.03-.68-.22-.92-.57s-.35-.7-.3-1.05c.06-.47.39-.93.88-1.28.15-.11.29-.2.43-.26l-1.12-1.56.5-.36,2.76,3.84Zm-1.85-1.51c-.13.05-.28.14-.44.26-.61.44-.76,1-.38,1.53s.91.5,1.46.1c.22-.16.37-.3.44-.38l-1.09-1.51Z"/>
                <path class="cls-21" d="m154.97,114.2l1.51-1.09-1.01-1.4-1.68,1.21-.3-.42,2.19-1.57,2.79,3.89-2.1,1.51-.3-.42,1.6-1.15-.88-1.23-1.51,1.09-.3-.42Z"/>
                <path class="cls-21" d="m152.84,112.97l2.79,3.89-.55.39-2.66-1.07c-.62-.25-1.14-.5-1.61-.76h0c.42.5.77.96,1.21,1.57l1.17,1.63-.47.34-2.79-3.89.51-.36,2.65,1.09c.58.24,1.16.5,1.66.78v-.02c-.37-.47-.72-.93-1.18-1.57l-1.19-1.66.47-.34Z"/>
            </g>
            <g id="lignes">
                <rect class="cls-9" x="35.38" y="96.55" width="4.43" height="1.55"/>
                <rect class="cls-9" x="35.38" y="101.38" width="4.43" height="1.55"/>
                <path class="cls-9" d="m41.84,106.7h-8.81v-13.48h8.81v13.48Zm-8.1-.71h7.39v-12.06h-7.39v12.06Z"/>
                <path class="cls-12" d="m46.47,96.41h-2.04c-.77,0-1.1.34-1.1.8,0,.51.34.84,1.1.84h2.04v.45h-2.01c-1.06,0-1.49-.56-1.49-1.3,0-.71.4-1.24,1.47-1.24h2.03v.45Z"/>
                <path class="cls-12" d="m43.57,99.21c-.12.2-.22.49-.22.8,0,.45.24.72.59.72.32,0,.51-.18.68-.65.2-.56.49-.91.98-.91.54,0,.94.44.94,1.11,0,.35-.08.61-.17.76l-.36-.12c.06-.11.16-.34.16-.65,0-.47-.28-.65-.52-.65-.32,0-.48.21-.66.68-.22.58-.51.88-1.01.88-.53,0-.99-.39-.99-1.21,0-.33.1-.69.22-.88l.37.11Z"/>
                <path class="cls-12" d="m46.43,101.79c.04.19.07.5.07.81,0,.44-.08.73-.25.95-.13.18-.34.29-.61.29-.33,0-.62-.22-.76-.58h-.01c-.08.33-.35.71-.86.71-.3,0-.52-.12-.69-.29-.22-.24-.32-.63-.32-1.19,0-.31.02-.54.04-.69h3.39Zm-1.41.44v.4c0,.47.25.75.58.75.4,0,.56-.31.56-.76,0-.2-.02-.32-.03-.39h-1.11Zm-1.65,0c-.02.09-.02.21-.02.37,0,.46.17.88.67.88.47,0,.66-.4.66-.89v-.37h-1.31Z"/>
                <rect class="cls-9" x="36.41" y="84.82" width=".71" height="8.34"/>
                <rect class="cls-9" x="36.41" y="106.15" width=".71" height="8.34"/>
                <rect class="cls-9" x="132.83" y="84.38" width=".71" height="30.71"/>
                <path class="cls-9" d="m11.47,44.73h-.35v-14.09h.35c5.91,0,10.72,3.16,10.72,7.05s-4.81,7.05-10.72,7.05Zm.35-13.38v12.67c5.36-.12,9.66-2.91,9.66-6.33s-4.3-6.21-9.66-6.33Z"/>
                <circle class="cls-9" cx="16.65" cy="37.69" r="2.22"/>
                <path class="cls-9" d="m11.47,168.82h-.35v-14.09h.35c5.91,0,10.72,3.16,10.72,7.05s-4.81,7.05-10.72,7.05Zm.35-13.38v12.67c5.36-.12,9.66-2.91,9.66-6.33s-4.3-6.21-9.66-6.33Z"/>
                <circle class="cls-9" cx="16.65" cy="161.77" r="2.22"/>
                <path class="cls-9" d="m231.58,52.99c-1.5,0-2.94-.18-4.26-.54-3.03-.83-5.05-2.52-5.69-4.77-1.29-4.56,3.7-9.99,11.14-12.1l.34-.1,4.69,16.55-.34.1c-1.99.56-3.99.85-5.88.85Zm1.05-16.62c-6.87,2.06-11.48,7-10.31,11.12.57,2,2.41,3.51,5.19,4.28,2.75.75,6.08.68,9.42-.21l-4.3-15.19Z"/>
                <rect class="cls-9" x="229.57" y="43.94" width="3.33" height="3.84" rx="1" ry="1"/>
                <path class="cls-9" d="m233.11,165.63l-.34-.1c-7.43-2.11-12.43-7.53-11.14-12.1.64-2.24,2.65-3.94,5.69-4.77,2.97-.81,6.57-.7,10.14.31l.34.1-4.69,16.55Zm-1.54-16.79c-1.44,0-2.82.17-4.07.51-2.78.76-4.63,2.28-5.19,4.28-1.17,4.12,3.44,9.06,10.31,11.12l4.3-15.19c-1.81-.48-3.63-.73-5.35-.73Z"/>
                <rect class="cls-9" x="229.57" y="153.35" width="3.33" height="3.84" rx="1" ry="1"/>
            </g>
            <g id="elements">
                <rect class="cls-12" x="25.13" y="41.4" width="2.2" height="14.84"/>
                <rect class="cls-12" x="29.52" y="41.4" width="2.2" height="14.84"/>
                <rect class="cls-12" x="33.91" y="41.4" width="2.2" height="14.84"/>
                <rect class="cls-17" x="23.82" y="45.47" width="13.38" height="6.69" rx="1" ry="1"/>
                <rect class="cls-12" x="24.66" y="146.95" width="1.49" height="4.57"/>
                <rect class="cls-12" x="28.97" y="146.95" width="1.49" height="4.57"/>
                <rect class="cls-12" x="33.27" y="146.95" width="1.49" height="4.57"/>
                <rect class="cls-12" x="27.02" y="156.42" width="5.37" height="3.11"/>
                <rect class="cls-17" x="23.02" y="151.06" width="13.38" height="6.69" rx="1" ry="1"/>
                <rect class="cls-17" x="82.94" y="94.52" width="8.08" height="10.78" rx="1" ry="1"/>
                <rect class="cls-12" x="182.96" y="135.03" width="17.08" height="17.58"/>
                <path class="cls-17" d="m197.04,135.03h-11.08l-3,3v11.58l3,3h11.08l3-3v-11.58l-3-3Z"/>
                <path class="cls-12" d="m25.14,67.78h-8.98v-7.56h8.98v7.56Zm-8.27-.71h7.56v-6.15h-7.56v6.15Z"/>
                <rect class="cls-12" x="18.27" y="63.06" width="1.6" height="1.88"/>
                <rect class="cls-12" x="21.44" y="61.24" width="1.6" height="1.88"/>
                <rect class="cls-12" x="21.44" y="64.87" width="1.6" height="1.88"/>
                <rect class="cls-17" x="19.24" y="61.24" width="2.44" height="5.52"/>
                <path class="cls-12" d="m33.18,73.15h-7.57v-8.98h7.57v8.98Zm-6.86-.71h6.15v-7.56h-6.15v7.56Z"/>
                <rect class="cls-12" x="28.6" y="69.3" width="1.6" height="1.88" transform="translate(-40.84 99.64) rotate(-90)"/>
                <rect class="cls-12" x="26.78" y="66.13" width="1.6" height="1.88" transform="translate(-39.49 94.66) rotate(-90)"/>
                <rect class="cls-12" x="30.42" y="66.13" width="1.6" height="1.88" transform="translate(-35.86 98.29) rotate(-90)"/>
                <rect class="cls-17" x="28.18" y="66.09" width="2.44" height="5.52" transform="translate(-39.45 98.25) rotate(-90)"/>
                <path class="cls-12" d="m23.56,84.72h-8.98v-7.57h8.98v7.57Zm-8.27-.71h7.56v-6.15h-7.56v6.15Z"/>
                <rect class="cls-12" x="16.69" y="79.99" width="1.6" height="1.88"/>
                <rect class="cls-12" x="19.86" y="78.18" width="1.6" height="1.88"/>
                <rect class="cls-12" x="19.86" y="81.81" width="1.6" height="1.88"/>
                <rect class="cls-17" x="17.66" y="78.18" width="2.44" height="5.52"/>
                <path class="cls-12" d="m201.25,58.44l-5.35-5.35,6.35-6.35,5.35,5.35-6.35,6.35Zm-4.35-5.35l4.35,4.35,5.35-5.35-4.35-4.35-5.35,5.35Z"/>
                <rect class="cls-12" x="202.07" y="50.53" width="1.6" height="1.88" transform="translate(382.72 -55.58) rotate(135)"/>
                <rect class="cls-12" x="201.12" y="54.05" width="1.6" height="1.88" transform="translate(383.58 -48.89) rotate(135)"/>
                <rect class="cls-12" x="198.55" y="51.49" width="1.6" height="1.88" transform="translate(377.38 -51.46) rotate(135)"/>
                <rect class="cls-17" x="200.67" y="49.7" width="2.44" height="5.52" transform="translate(381.74 -53.21) rotate(135)"/>
                <path class="cls-12" d="m180.64,131.29h-7.57v-8.98h7.57v8.98Zm-6.86-.71h6.15v-7.56h-6.15v7.56Z"/>
                <rect class="cls-12" x="176.06" y="127.44" width="1.6" height="1.88" transform="translate(48.48 305.24) rotate(-90)"/>
                <rect class="cls-12" x="174.25" y="124.27" width="1.6" height="1.88" transform="translate(49.83 300.26) rotate(-90)"/>
                <rect class="cls-12" x="177.88" y="124.27" width="1.6" height="1.88" transform="translate(53.46 303.89) rotate(-90)"/>
                <rect class="cls-17" x="175.64" y="124.23" width="2.44" height="5.52" transform="translate(49.87 303.85) rotate(-90)"/>
                <path class="cls-12" d="m205.85,84.48h-5.42v-6.39h5.42v6.39Zm-4.71-.71h4v-4.98h-4v4.98Z"/>
                <rect class="cls-12" x="202.59" y="81.72" width="1.1" height="1.3" transform="translate(120.77 285.5) rotate(-90)"/>
                <rect class="cls-12" x="201.34" y="79.54" width="1.1" height="1.3" transform="translate(121.7 282.08) rotate(-90)"/>
                <rect class="cls-12" x="203.84" y="79.54" width="1.1" height="1.3" transform="translate(124.19 284.58) rotate(-90)"/>
                <rect class="cls-17" x="202.3" y="79.52" width="1.68" height="3.79" transform="translate(121.72 284.55) rotate(-90)"/>
                <path class="cls-12" d="m205.85,119.82h-5.42v-6.39h5.42v6.39Zm-4.71-.71h4v-4.98h-4v4.98Z"/>
                <rect class="cls-12" x="202.59" y="114.89" width="1.1" height="1.3" transform="translate(318.67 -87.6) rotate(90)"/>
                <rect class="cls-12" x="203.84" y="117.06" width="1.1" height="1.3" transform="translate(322.1 -86.67) rotate(90)"/>
                <rect class="cls-12" x="201.34" y="117.06" width="1.1" height="1.3" transform="translate(319.6 -84.18) rotate(90)"/>
                <rect class="cls-17" x="202.3" y="114.59" width="1.68" height="3.79" transform="translate(319.63 -86.65) rotate(90)"/>
                <path class="cls-12" d="m17.65,127.21h-5.42v-6.39h5.42v6.39Zm-4.71-.71h4v-4.98h-4v4.98Z"/>
                <rect class="cls-12" x="14.39" y="124.46" width="1.1" height="1.3" transform="translate(-110.17 140.04) rotate(-90)"/>
                <rect class="cls-12" x="13.14" y="122.28" width="1.1" height="1.3" transform="translate(-109.24 136.61) rotate(-90)"/>
                <rect class="cls-12" x="15.64" y="122.28" width="1.1" height="1.3" transform="translate(-106.74 139.11) rotate(-90)"/>
                <rect class="cls-17" x="14.1" y="122.25" width="1.68" height="3.79" transform="translate(-109.21 139.08) rotate(-90)"/>
            </g>
            <g id="svg_gnd">
                <path class="cls-17" d="m51.59,28.75v-1.12c0-.47.23-.91.62-1.17l1.13-.75c.23-.15.5-.24.78-.24h7.11c.28,0,.55.08.78.24l1.13.75c.39.26.62.7.62,1.17v1.12c0,.47-.23.91-.62,1.17l-1.13.75c-.23.15-.5.24-.78.24h-7.11c-.28,0-.55-.08-.78-.24l-1.13-.75c-.39-.26-.62-.7-.62-1.17Z"/>
                <rect class="cls-9" x="60.18" y="27.36" width="1.68" height="1.68" rx=".7" ry=".7" transform="translate(89.21 -32.83) rotate(90)"/>
                <rect class="cls-9" x="53.49" y="27.36" width="1.68" height="1.68" rx=".7" ry=".7" transform="translate(82.52 -26.13) rotate(90)"/>
                <path class="cls-17" d="m51.59,172.97v-1.12c0-.47.23-.91.62-1.17l1.13-.75c.23-.15.5-.24.78-.24h7.11c.28,0,.55.08.78.24l1.13.75c.39.26.62.7.62,1.17v1.12c0,.47-.23.91-.62,1.17l-1.13.75c-.23.15-.5.24-.78.24h-7.11c-.28,0-.55-.08-.78-.24l-1.13-.75c-.39-.26-.62-.7-.62-1.17Z"/>
                <rect class="cls-9" x="60.18" y="171.57" width="1.68" height="1.68" rx=".7" ry=".7" transform="translate(233.43 111.39) rotate(90)"/>
                <rect class="cls-9" x="53.49" y="171.57" width="1.68" height="1.68" rx=".7" ry=".7" transform="translate(226.74 118.09) rotate(90)"/>
                <path class="cls-17" d="m182.23,81v-1.12c0-.47.23-.91.62-1.17l1.13-.75c.23-.15.5-.24.78-.24h9.11c.28,0,.55.08.78.24l1.13.75c.39.26.62.7.62,1.17v1.12c0,.47-.23.91-.62,1.17l-1.13.75c-.23.15-.5.24-.78.24h-9.11c-.28,0-.55-.08-.78-.24l-1.13-.75c-.39-.26-.62-.7-.62-1.17Z"/>
                <rect class="cls-9" x="192.83" y="79.6" width="1.68" height="1.68" rx=".7" ry=".7" transform="translate(274.11 -113.23) rotate(90)"/>
                <rect class="cls-9" x="188.48" y="79.6" width="1.68" height="1.68" rx=".7" ry=".7" transform="translate(269.76 -108.88) rotate(90)"/>
                <rect class="cls-9" x="184.13" y="79.6" width="1.68" height="1.68" rx=".7" ry=".7" transform="translate(265.41 -104.53) rotate(90)"/>
                <path class="cls-17" d="m202.31,89.68h1.12c.47,0,.91.23,1.17.62l.75,1.13c.15.23.24.5.24.78v14.49c0,.28-.08.55-.24.78l-.75,1.13c-.26.39-.7.62-1.17.62h-1.12c-.47,0-.91-.23-1.17-.62l-.75-1.13c-.15-.23-.24-.5-.24-.78v-14.49c0-.28.08-.55.24-.78l.75-1.13c.26-.39.7-.62,1.17-.62Z"/>
                <rect class="cls-9" x="202.03" y="101.07" width="1.68" height="1.68" rx=".7" ry=".7" transform="translate(100.96 304.78) rotate(-90)"/>
                <rect class="cls-9" x="202.03" y="105.82" width="1.68" height="1.68" rx=".7" ry=".7" transform="translate(96.22 309.53) rotate(-90)"/>
                <rect class="cls-9" x="202.03" y="96.32" width="1.68" height="1.68" rx=".7" ry=".7" transform="translate(405.74 194.32) rotate(-180)"/>
                <rect class="cls-9" x="202.03" y="91.58" width="1.68" height="1.68" rx=".7" ry=".7" transform="translate(405.74 184.83) rotate(-180)"/>
                <path class="cls-17" d="m182.23,119.9v-1.12c0-.47.23-.91.62-1.17l1.13-.75c.23-.15.5-.24.78-.24h9.11c.28,0,.55.08.78.24l1.13.75c.39.26.62.7.62,1.17v1.12c0,.47-.23.91-.62,1.17l-1.13.75c-.23.15-.5.24-.78.24h-9.11c-.28,0-.55-.08-.78-.24l-1.13-.75c-.39-.26-.62-.7-.62-1.17Z"/>
                <rect class="cls-9" x="192.83" y="118.5" width="1.68" height="1.68" rx=".7" ry=".7" transform="translate(313 -74.33) rotate(90)"/>
                <rect class="cls-9" x="188.48" y="118.5" width="1.68" height="1.68" rx=".7" ry=".7" transform="translate(308.66 -69.98) rotate(90)"/>
                <rect class="cls-9" x="184.13" y="118.5" width="1.68" height="1.68" rx=".7" ry=".7" transform="translate(304.31 -65.64) rotate(90)"/>
            </g>
            <g id="pins">
                <path class="cls-25" d="m30.7,79.35h101.48c.55,0,1,.2,1,.45v4.58c0,.25-.45.45-1,.45H30.7c-.55,0-1-.2-1-.45v-4.58c0-.25.45-.45,1-.45Z"/>
                <rect class="cls-23" x="30.86" y="80.11" width="3.92" height="3.92"/>
                <rect class="cls-24" x="31.69" y="80.93" width="2.27" height="2.27"/>
                <rect class="cls-23" x="35.94" y="80.11" width="3.92" height="3.92"/>
                <rect class="cls-24" x="36.76" y="80.93" width="2.27" height="2.27"/>
                <rect class="cls-23" x="41.01" y="80.11" width="3.92" height="3.92"/>
                <rect class="cls-24" x="41.84" y="80.93" width="2.27" height="2.27"/>
                <rect class="cls-23" x="46.08" y="80.11" width="3.92" height="3.92"/>
                <rect class="cls-24" x="46.91" y="80.93" width="2.27" height="2.27"/>
                <rect class="cls-23" x="51.16" y="80.11" width="3.92" height="3.92"/>
                <rect class="cls-24" x="51.98" y="80.93" width="2.27" height="2.27"/>
                <rect class="cls-23" x="56.23" y="80.11" width="3.92" height="3.92"/>
                <rect class="cls-24" x="57.06" y="80.93" width="2.27" height="2.27"/>
                <rect class="cls-23" x="61.3" y="80.11" width="3.92" height="3.92"/>
                <rect class="cls-24" x="62.13" y="80.93" width="2.27" height="2.27"/>
                <rect class="cls-23" x="66.38" y="80.11" width="3.92" height="3.92"/>
                <rect class="cls-24" x="67.2" y="80.93" width="2.27" height="2.27"/>
                <rect class="cls-23" x="71.45" y="80.11" width="3.92" height="3.92"/>
                <rect class="cls-24" x="72.28" y="80.93" width="2.27" height="2.27"/>
                <rect class="cls-23" x="76.52" y="80.11" width="3.92" height="3.92"/>
                <rect class="cls-24" x="77.35" y="80.93" width="2.27" height="2.27"/>
                <rect class="cls-23" x="81.6" y="80.12" width="3.92" height="3.92"/>
                <rect class="cls-24" x="82.42" y="80.95" width="2.27" height="2.27"/>
                <rect class="cls-23" x="86.67" y="80.12" width="3.92" height="3.92"/>
                <rect class="cls-24" x="87.5" y="80.95" width="2.27" height="2.27"/>
                <rect class="cls-23" x="91.75" y="80.12" width="3.92" height="3.92"/>
                <rect class="cls-24" x="92.57" y="80.95" width="2.27" height="2.27"/>
                <rect class="cls-23" x="96.82" y="80.12" width="3.92" height="3.92"/>
                <rect class="cls-24" x="97.64" y="80.95" width="2.27" height="2.27"/>
                <rect class="cls-23" x="101.89" y="80.12" width="3.92" height="3.92"/>
                <rect class="cls-24" x="102.72" y="80.95" width="2.27" height="2.27"/>
                <rect class="cls-23" x="106.97" y="80.12" width="3.92" height="3.92"/>
                <rect class="cls-24" x="107.79" y="80.95" width="2.27" height="2.27"/>
                <rect class="cls-23" x="112.04" y="80.12" width="3.92" height="3.92"/>
                <rect class="cls-24" x="112.86" y="80.95" width="2.27" height="2.27"/>
                <rect class="cls-23" x="117.11" y="80.12" width="3.92" height="3.92"/>
                <rect class="cls-24" x="117.94" y="80.95" width="2.27" height="2.27"/>
                <rect class="cls-23" x="122.19" y="80.12" width="3.92" height="3.92"/>
                <rect class="cls-24" x="123.01" y="80.95" width="2.27" height="2.27"/>
                <rect class="cls-23" x="127.26" y="80.12" width="3.92" height="3.92"/>
                <rect class="cls-24" x="128.09" y="80.95" width="2.27" height="2.27"/>
                <path class="cls-25" d="m30.7,114.64h101.48c.55,0,1,.2,1,.45v4.58c0,.25-.45.45-1,.45H30.7c-.55,0-1-.2-1-.45v-4.58c0-.25.45-.45,1-.45Z"/>
                <rect class="cls-23" x="30.86" y="115.4" width="3.92" height="3.92"/>
                <rect class="cls-24" x="31.69" y="116.22" width="2.27" height="2.27"/>
                <rect class="cls-23" x="35.94" y="115.4" width="3.92" height="3.92"/>
                <rect class="cls-24" x="36.76" y="116.22" width="2.27" height="2.27"/>
                <rect class="cls-23" x="41.01" y="115.4" width="3.92" height="3.92"/>
                <rect class="cls-24" x="41.84" y="116.22" width="2.27" height="2.27"/>
                <rect class="cls-23" x="46.08" y="115.4" width="3.92" height="3.92"/>
                <rect class="cls-24" x="46.91" y="116.22" width="2.27" height="2.27"/>
                <rect class="cls-23" x="51.16" y="115.4" width="3.92" height="3.92"/>
                <rect class="cls-24" x="51.98" y="116.22" width="2.27" height="2.27"/>
                <rect class="cls-23" x="56.23" y="115.4" width="3.92" height="3.92"/>
                <rect class="cls-24" x="57.06" y="116.22" width="2.27" height="2.27"/>
                <rect class="cls-23" x="61.3" y="115.4" width="3.92" height="3.92"/>
                <rect class="cls-24" x="62.13" y="116.22" width="2.27" height="2.27"/>
                <rect class="cls-23" x="66.38" y="115.4" width="3.92" height="3.92"/>
                <rect class="cls-24" x="67.2" y="116.22" width="2.27" height="2.27"/>
                <rect class="cls-23" x="71.45" y="115.4" width="3.92" height="3.92"/>
                <rect class="cls-24" x="72.28" y="116.22" width="2.27" height="2.27"/>
                <rect class="cls-23" x="76.52" y="115.4" width="3.92" height="3.92"/>
                <rect class="cls-24" x="77.35" y="116.22" width="2.27" height="2.27"/>
                <rect class="cls-23" x="81.6" y="115.41" width="3.92" height="3.92"/>
                <rect class="cls-24" x="82.42" y="116.24" width="2.27" height="2.27"/>
                <rect class="cls-23" x="86.67" y="115.41" width="3.92" height="3.92"/>
                <rect class="cls-24" x="87.5" y="116.24" width="2.27" height="2.27"/>
                <rect class="cls-23" x="91.75" y="115.41" width="3.92" height="3.92"/>
                <rect class="cls-24" x="92.57" y="116.24" width="2.27" height="2.27"/>
                <rect class="cls-23" x="96.82" y="115.41" width="3.92" height="3.92"/>
                <rect class="cls-24" x="97.64" y="116.24" width="2.27" height="2.27"/>
                <rect class="cls-23" x="101.89" y="115.41" width="3.92" height="3.92"/>
                <rect class="cls-24" x="102.72" y="116.24" width="2.27" height="2.27"/>
                <rect class="cls-23" x="106.97" y="115.41" width="3.92" height="3.92"/>
                <rect class="cls-24" x="107.79" y="116.24" width="2.27" height="2.27"/>
                <rect class="cls-23" x="112.04" y="115.41" width="3.92" height="3.92"/>
                <rect class="cls-24" x="112.86" y="116.24" width="2.27" height="2.27"/>
                <rect class="cls-23" x="117.11" y="115.41" width="3.92" height="3.92"/>
                <rect class="cls-24" x="117.94" y="116.24" width="2.27" height="2.27"/>
                <rect class="cls-23" x="122.19" y="115.41" width="3.92" height="3.92"/>
                <rect class="cls-24" x="123.01" y="116.24" width="2.27" height="2.27"/>
                <rect class="cls-23" x="127.26" y="115.41" width="3.92" height="3.92"/>
                <rect class="cls-24" x="128.09" y="116.24" width="2.27" height="2.27"/>
                <path class="cls-25" d="m6.87,109.58v-18.44c0-.13.15-.23.34-.23h4.65c.19,0,.34.1.34.23v18.44c0,.13-.15.23-.34.23h-4.65c-.19,0-.34-.1-.34-.23Z"/>
                <rect class="cls-23" x="7.61" y="104.86" width="3.82" height="3.82"/>
                <rect class="cls-24" x="8.41" y="105.67" width="2.21" height="2.21"/>
                <rect class="cls-23" x="7.61" y="100.53" width="3.82" height="3.82"/>
                <rect class="cls-24" x="8.41" y="101.33" width="2.21" height="2.21"/>
                <rect class="cls-23" x="7.61" y="96.19" width="3.82" height="3.82"/>
                <rect class="cls-24" x="8.41" y="97" width="2.21" height="2.21"/>
                <rect class="cls-23" x="7.61" y="91.85" width="3.82" height="3.82"/>
                <rect class="cls-24" x="8.41" y="92.66" width="2.21" height="2.21"/>
            </g>
            <g id="reset_button">
                <polygon class="cls-11" points="37.64 126.44 37.64 122.73 34.54 122.73 34.54 122.54 22.54 122.54 22.54 122.73 19.44 122.73 19.44 126.44 22.54 126.44 22.54 130.61 19.44 130.61 19.44 134.32 22.54 134.32 22.54 134.54 34.54 134.54 34.54 134.32 37.64 134.32 37.64 130.61 34.54 130.61 34.54 126.44 37.64 126.44"/>
                <circle class="cls-26" cx="24.31" cy="124.58" r="1.06"/>
                <circle class="cls-26" cx="24.31" cy="132.43" r="1.06"/>
                <circle class="cls-26" cx="32.6" cy="124.58" r="1.06"/>
                <circle class="cls-26" cx="32.6" cy="132.43" r="1.06"/>
                <circle id="button_on" class="cls-26" cx="28.45" cy="128.5" r="3"/>
                <circle id="button_off" class="cls-16" cx="28.45" cy="128.02" r="3"/>
            </g>
            <g id="ultrasonic">
                <g id="ultrasonic_back">
                    <path class="cls-22" d="m218.01,100.74v-43.55c0-.43-.28-.82-.69-.95l-5.94-2.03c-.65-.21-2.65-.52-2.65,1.63v90.79c0,2.09,2.01,1.48,2.65,1.27l5.94-2.68c.41-.13.69-.52.69-.95v-43.53Zm-1.02-41.63c0-.83.16-1.49.35-1.49s.35.67.35,1.49-.16,1.49-.35,1.49-.35-.67-.35-1.49Zm0,83.25c0-.83.16-1.49.35-1.49s.35.67.35,1.49-.16,1.49-.35,1.49-.35-.67-.35-1.49Z"/>
                </g>
                <g id="ultrasonic_top">
                    <path class="cls-20" d="m219.35,101.06v-43.55c0-.43-.28-.82-.69-.95l-7.29-2.35c-.65-.21-1.31.27-1.31.95v91.79c0,.68.66,1.16,1.31.95l7.29-2.35c.41-.13.69-.52.69-.95v-43.53Zm-1.02-41.63c0-.83.16-1.49.35-1.49s.35.67.35,1.49-.16,1.49-.35,1.49-.35-.67-.35-1.49Zm0,83.25c0-.83.16-1.49.35-1.49s.35.67.35,1.49-.16,1.49-.35,1.49-.35-.67-.35-1.49Z"/>
                </g>
                <g id="ultrasonic_link">
                    <rect class="cls-19" x="217.07" y="90.7" width="1.87" height="20.06" rx=".94" ry=".94"/>
                </g>
                <g id="ultrasonic_eye_left">
                    <path id="_Tracé_transparent_" class="cls-15" d="m224.65,92.96h-10c-2.07,0-3.75-7.11-3.75-15.85s1.68-15.85,3.75-15.85h10"/>
                    <ellipse class="cls-19" cx="224.64" cy="77.1" rx="3.5" ry="14.78"/>
                    <g class="cls-8">
                        <g class="cls-6">
                            <line class="cls-7" x1="228.14" y1="62.49" x2="221.15" y2="62.49"/>
                            <line class="cls-7" x1="228.14" y1="64.06" x2="221.15" y2="64.06"/>
                            <line class="cls-7" x1="228.14" y1="65.63" x2="221.15" y2="65.63"/>
                            <line class="cls-7" x1="228.14" y1="67.2" x2="221.15" y2="67.2"/>
                            <line class="cls-7" x1="228.14" y1="68.77" x2="221.15" y2="68.77"/>
                            <line class="cls-7" x1="228.14" y1="70.33" x2="221.15" y2="70.33"/>
                            <line class="cls-7" x1="228.14" y1="71.9" x2="221.15" y2="71.9"/>
                            <line class="cls-7" x1="228.14" y1="73.47" x2="221.15" y2="73.47"/>
                            <line class="cls-7" x1="228.14" y1="75.04" x2="221.15" y2="75.04"/>
                            <line class="cls-7" x1="228.14" y1="76.61" x2="221.15" y2="76.61"/>
                            <line class="cls-7" x1="228.14" y1="78.18" x2="221.15" y2="78.18"/>
                            <line class="cls-7" x1="228.14" y1="79.75" x2="221.15" y2="79.75"/>
                            <line class="cls-7" x1="228.14" y1="81.32" x2="221.15" y2="81.32"/>
                            <line class="cls-7" x1="228.14" y1="82.89" x2="221.15" y2="82.89"/>
                            <line class="cls-7" x1="228.14" y1="84.45" x2="221.15" y2="84.45"/>
                            <line class="cls-7" x1="228.14" y1="86.02" x2="221.15" y2="86.02"/>
                            <line class="cls-7" x1="228.14" y1="87.59" x2="221.15" y2="87.59"/>
                            <line class="cls-7" x1="228.14" y1="89.16" x2="221.15" y2="89.16"/>
                            <line class="cls-7" x1="228.14" y1="90.73" x2="221.15" y2="90.73"/>
                            <line class="cls-7" x1="228.14" y1="92.3" x2="221.15" y2="92.3"/>
                        </g>
                        <g class="cls-5">
                            <line class="cls-7" x1="221.19" y1="62.3" x2="221.19" y2="91.86"/>
                            <line class="cls-7" x1="222.32" y1="62.3" x2="222.32" y2="91.86"/>
                            <line class="cls-7" x1="223.45" y1="62.3" x2="223.45" y2="91.86"/>
                            <line class="cls-7" x1="224.59" y1="62.3" x2="224.59" y2="91.86"/>
                            <line class="cls-7" x1="225.72" y1="62.3" x2="225.72" y2="91.86"/>
                            <line class="cls-7" x1="226.86" y1="62.3" x2="226.86" y2="91.86"/>
                            <line class="cls-7" x1="227.99" y1="62.3" x2="227.99" y2="91.86"/>
                        </g>
                    </g>
                    <path class="cls-19" d="m220.49,77.1c0-8.74,2.1-15.85,4.17-15.85s3.75,7.11,3.75,15.85-1.68,15.85-3.75,15.85-4.17-7.11-4.17-15.85Zm7.65,0c0-7.56-1.69-13.71-3.48-13.71s-3.24,6.15-3.24,13.71,1.45,13.71,3.24,13.71,3.48-6.15,3.48-13.71Z"/>
                </g>
                <g id="ultrasonic_eye_right">
                    <path class="cls-15" d="m224.65,140.86h-10c-2.07,0-3.75-7.11-3.75-15.85s1.68-15.85,3.75-15.85h10"/>
                    <ellipse class="cls-19" cx="224.64" cy="125.01" rx="3.5" ry="14.78"/>
                    <g class="cls-3">
                        <g class="cls-4">
                            <line class="cls-7" x1="228.14" y1="110.4" x2="221.15" y2="110.4"/>
                            <line class="cls-7" x1="228.14" y1="111.96" x2="221.15" y2="111.96"/>
                            <line class="cls-7" x1="228.14" y1="113.53" x2="221.15" y2="113.53"/>
                            <line class="cls-7" x1="228.14" y1="115.1" x2="221.15" y2="115.1"/>
                            <line class="cls-7" x1="228.14" y1="116.67" x2="221.15" y2="116.67"/>
                            <line class="cls-7" x1="228.14" y1="118.24" x2="221.15" y2="118.24"/>
                            <line class="cls-7" x1="228.14" y1="119.81" x2="221.15" y2="119.81"/>
                            <line class="cls-7" x1="228.14" y1="121.38" x2="221.15" y2="121.38"/>
                            <line class="cls-7" x1="228.14" y1="122.95" x2="221.15" y2="122.95"/>
                            <line class="cls-7" x1="228.14" y1="124.51" x2="221.15" y2="124.51"/>
                            <line class="cls-7" x1="228.14" y1="126.08" x2="221.15" y2="126.08"/>
                            <line class="cls-7" x1="228.14" y1="127.65" x2="221.15" y2="127.65"/>
                            <line class="cls-7" x1="228.14" y1="129.22" x2="221.15" y2="129.22"/>
                            <line class="cls-7" x1="228.14" y1="130.79" x2="221.15" y2="130.79"/>
                            <line class="cls-7" x1="228.14" y1="132.36" x2="221.15" y2="132.36"/>
                            <line class="cls-7" x1="228.14" y1="133.93" x2="221.15" y2="133.93"/>
                            <line class="cls-7" x1="228.14" y1="135.5" x2="221.15" y2="135.5"/>
                            <line class="cls-7" x1="228.14" y1="137.07" x2="221.15" y2="137.07"/>
                            <line class="cls-7" x1="228.14" y1="138.63" x2="221.15" y2="138.63"/>
                            <line class="cls-7" x1="228.14" y1="140.2" x2="221.15" y2="140.2"/>
                        </g>
                        <g class="cls-2">
                            <line class="cls-7" x1="221.19" y1="110.21" x2="221.19" y2="139.77"/>
                            <line class="cls-7" x1="222.32" y1="110.21" x2="222.32" y2="139.77"/>
                            <line class="cls-7" x1="223.45" y1="110.21" x2="223.45" y2="139.77"/>
                            <line class="cls-7" x1="224.59" y1="110.21" x2="224.59" y2="139.77"/>
                            <line class="cls-7" x1="225.72" y1="110.21" x2="225.72" y2="139.77"/>
                            <line class="cls-7" x1="226.86" y1="110.21" x2="226.86" y2="139.77"/>
                            <line class="cls-7" x1="227.99" y1="110.21" x2="227.99" y2="139.77"/>
                        </g>
                    </g>
                    <path class="cls-19" d="m220.49,125.01c0-8.74,2.1-15.85,4.17-15.85s3.75,7.11,3.75,15.85-1.68,15.85-3.75,15.85-4.17-7.11-4.17-15.85Zm7.65,0c0-7.56-1.69-13.71-3.48-13.71s-3.24,6.15-3.24,13.71,1.45,13.71,3.24,13.71,3.48-6.15,3.48-13.71Z"/>
                </g>
            </g>
            <g id="batteries">
                <g id="elements-2">
                    <rect class="cls-21" x="5.15" y="49.39" width="3.27" height="24.35" rx="1.63" ry="1.63"/>
                    <rect class="cls-21" x="5.15" y="127.62" width="3.27" height="24.35" rx="1.63" ry="1.63"/>
                    <rect class="cls-21" x="168.63" y="133.83" width="3.27" height="24.35" rx="1.63" ry="1.63"/>
                    <rect class="cls-21" x="168.63" y="42.32" width="3.27" height="24.35" rx="1.63" ry="1.63"/>
                </g>
                <g id="battery">
                    <path class="cls-17" d="m43.83,40.46c-.1,1.16-.28,3.3-.45,5.61-.04.52-.47.93-1,.93h-.7c-.5,0-.92.36-.99.85-.27,1.85-.87,6.19-.87,7.89s.6,6.04.87,7.89c.07.49.49.85.99.85h.9c.52,0,.96.4,1,.92.1,1.3.2,2.41.26,3.14.04.52.48.91,1,.91h14.73c.55,0,1-.45,1-1v-27.89c0-.55-.45-1-1-1h-14.73c-.52,0-.95.39-1,.91Z"/>
                    <path class="cls-19" d="m70.92,69.44h-16.42c-.55,0-1-.45-1-1l-1-9.28c0-.55.45-1,1-1h3c.55,0,1-.45,1-1v-5.66c0-.55-.45-1-1-1h-3c-.55,0-1-.45-1-1l1-8.94c0-.55.45-1,1-1h16.42c.55,0,1,.45,1,1v27.89c0,.55-.45,1-1,1Z"/>
                    <path class="cls-13" d="m98.92,37.02h-15.13c.02-.37.04-.72.05-1.01h2.1c.78,0,1.42-.63,1.42-1.42s-.63-1.42-1.42-1.42h-3.45c-.75,0-1.38.59-1.42,1.34,0,.15-.06,1.09-.13,2.5h-9.48c-.52,0-.96.4-1,.93-.22,3.13-.93,13.35-.93,17.16s.71,14.03.93,17.16c.04.52.47.93,1,.93h9.44c.09,1.91.16,3.22.17,3.4.04.75.66,1.35,1.42,1.35h3.45c.78,0,1.42-.63,1.42-1.42s-.63-1.42-1.42-1.42h-2.1c-.03-.52-.06-1.17-.09-1.91h15.16c.55,0,1-.45,1-1v-34.17c0-.55-.45-1-1-1Z"/>
                    <path class="cls-10" d="m127.04,33.21h0c0-.55-.44-.99-.99-.99h-6.13c-.55,0-.99.44-.99.99h0c0,.55-.44.99-.99.99h-24.93c-.55,0-.99.44-.99.99,0,0-.99,13.76-1,18.36-.01,5.09,1,20.34,1,20.34,0,.55.44.99.99.99h73.43c.55,0,.99-.44.99-.99v-38.69c0-.55-.44-.99-.99-.99h-38.41c-.55,0-.99-.44-.99-.99Z"/>
                    <rect class="cls-21" x="32.02" y="36.6" width="36.77" height="2.96" rx="1" ry="1"/>
                    <rect class="cls-21" x="32.02" y="69.44" width="36.77" height="2.96" rx="1" ry="1"/>
                </g>
                <g id="battery-2">
                    <path class="cls-17" d="m43.83,130.9c-.1,1.16-.28,3.3-.45,5.61-.04.52-.47.93-1,.93h-.7c-.5,0-.92.36-.99.85-.27,1.85-.87,6.19-.87,7.89s.6,6.04.87,7.89c.07.49.49.85.99.85h.9c.52,0,.96.4,1,.92.1,1.3.2,2.41.26,3.14.04.52.48.91,1,.91h14.73c.55,0,1-.45,1-1v-27.89c0-.55-.45-1-1-1h-14.73c-.52,0-.95.39-1,.91Z"/>
                    <path class="cls-19" d="m70.92,159.89h-16.42c-.55,0-1-.45-1-1l-1-9.28c0-.55.45-1,1-1h3c.55,0,1-.45,1-1v-5.66c0-.55-.45-1-1-1h-3c-.55,0-1-.45-1-1l1-8.94c0-.55.45-1,1-1h16.42c.55,0,1,.45,1,1v27.89c0,.55-.45,1-1,1Z"/>
                    <path class="cls-13" d="m98.92,127.46h-15.13c.02-.37.04-.72.05-1.01h2.1c.78,0,1.42-.63,1.42-1.42s-.63-1.42-1.42-1.42h-3.45c-.75,0-1.38.59-1.42,1.34,0,.15-.06,1.09-.13,2.5h-9.48c-.52,0-.96.4-1,.93-.22,3.13-.93,13.35-.93,17.16s.71,14.03.93,17.16c.04.52.47.93,1,.93h9.44c.09,1.91.16,3.22.17,3.4.04.75.66,1.35,1.42,1.35h3.45c.78,0,1.42-.63,1.42-1.42s-.63-1.42-1.42-1.42h-2.1c-.03-.52-.06-1.17-.09-1.91h15.16c.55,0,1-.45,1-1v-34.17c0-.55-.45-1-1-1Z"/>
                    <path class="cls-10" d="m127.04,123.65h0c0-.55-.44-.99-.99-.99h-6.13c-.55,0-.99.44-.99.99h0c0,.55-.44.99-.99.99h-24.93c-.55,0-.99.44-.99.99,0,0-.99,13.76-1,18.36-.01,5.09,1,20.34,1,20.34,0,.55.44.99.99.99h73.43c.55,0,.99-.44.99-.99v-38.69c0-.55-.44-.99-.99-.99h-38.41c-.55,0-.99-.44-.99-.99Z"/>
                    <rect class="cls-21" x="32.02" y="127" width="36.77" height="2.96" rx="1" ry="1"/>
                    <rect class="cls-21" x="32.02" y="159.85" width="36.77" height="2.96" rx="1" ry="1"/>
                </g>
            </g>
            <g id="wheels">
                <g id="wheel">
                    <path class="cls-10" d="m200.81,2s-41.46-2-55.28-2-55.28,2-55.28,2c-4.7,0-8.51,3.81-8.51,8.51v.16c0,4.14,3.78,6.72,10.28,9.61,4.22-3.22,26.57-4.68,53.51-4.68,28.53,0,51.9,1.76,54.06,5.26,6.03-2.74,9.73-5.39,9.73-10.18v-.16c0-4.7-3.81-8.51-8.51-8.51Z"/>
                    <path class="cls-18" d="m145.53,15.58c-26.94,0-49.28,1.46-53.51,4.68,11.25,4.98,45.01,3.9,53.51,3.9,11.81,0,42.16,2.08,54.06-3.32-2.16-3.5-25.53-5.26-54.06-5.26Z"/>
                    <path d="m205.17,15.91s-44.73-3-59.65-3-59.65,3-59.65,3c-2.94,0-5.33-2.39-5.33-5.33h0c0-2.94,2.39-5.33,5.33-5.33,0,0,44.73-3,59.65-3s59.65,3,59.65,3c2.94,0,5.33,2.39,5.33,5.33h0c0,2.94-2.39,5.33-5.33,5.33Z"/>
                    <path class="cls-10" d="m136.82,16v7.2c0,1.91,1.56,3.47,3.47,3.47h1.39v8.64h10.04v-8.64h1.62c1.91,0,3.47-1.56,3.47-3.47v-7.2h-20Z"/>
                </g>
                <g id="wheel-2">
                    <path class="cls-10" d="m90.24,198.21s41.46,2,55.28,2,55.28-2,55.28-2c4.7,0,8.51-3.81,8.51-8.51v-.16c0-4.14-3.78-6.72-10.28-9.61-4.22,3.22-26.57,4.68-53.51,4.68-28.53,0-51.9-1.76-54.06-5.26-6.03,2.74-9.73,5.39-9.73,10.18v.16c0,4.7,3.81,8.51,8.51,8.51Z"/>
                    <path class="cls-18" d="m145.53,184.62c26.94,0,49.28-1.46,53.51-4.68-11.25-4.98-45.01-3.9-53.51-3.9-11.81,0-42.16-2.08-54.06,3.32,2.16,3.5,25.53,5.26,54.06,5.26Z"/>
                    <path d="m85.88,184.29s44.73,3,59.65,3,59.65-3,59.65-3c2.94,0,5.33,2.39,5.33,5.33h0c0,2.94-2.39,5.33-5.33,5.33,0,0-44.73,3-59.65,3s-59.65-3-59.65-3c-2.94,0-5.33-2.39-5.33-5.33h0c0-2.94,2.39-5.33,5.33-5.33Z"/>
                    <path class="cls-10" d="m154.24,184.2v-7.2c0-1.91-1.56-3.47-3.47-3.47h-1.39v-8.64h-10.04v8.64h-1.62c-1.91,0-3.47,1.56-3.47,3.47v7.2h20Z"/>
                </g>
            </g>
        </g>
    </g>
</svg>